<?xml version="1.0" encoding="UTF-8"?>
<svg width="24px" height="24px" viewBox="0 0 24 24" version="1.1" xmlns="http://www.w3.org/2000/svg" xmlns:xlink="http://www.w3.org/1999/xlink">
    <title>15. Logos/amazon_1</title>
    <g id="15.-Logos/amazon_1" stroke="none" stroke-width="1" fill="none" fill-rule="evenodd">
        <path d="M16.9830873,16.0682035 C17.8814085,15.5088714 19.923818,16.0766782 20.3221303,16.1953244 C20.3984028,16.237698 22.2882673,16.6868586 21.9662276,17.7631491 C21.8136825,18.2716328 21.0001086,20.8394755 19.5424553,21.6106758 C19.1300663,21.8151603 18.6298544,21.6530812 18.4157548,21.2456012 C18.2016552,20.8381213 18.3519588,20.3342459 18.7543055,20.1106489 C19.0681315,19.893026 19.3241251,19.6021241 19.5000816,19.2631761 C17.0741189,20.3315465 14.4557322,20.8938652 11.8050282,20.9157481 C8.44840479,20.9516976 5.15669377,19.9901404 2.34723133,18.1529866 C2.10349915,17.9728368 1.97439013,17.6763419 2.0085384,17.3751887 C2.04268668,17.0740355 2.2349043,16.8139763 2.51278475,16.692973 C2.79066521,16.5719697 3.11199184,16.6084055 3.35572401,16.7885554 C3.64386478,17.0088983 10.1185573,21.5767769 19.0593958,17.6360282 C18.6534953,17.5280441 18.2310616,17.4964334 17.8136107,17.5428062 C17.4189419,17.7660112 16.9185052,17.6390347 16.6779971,17.2546654 C16.5558686,17.0581758 16.5193784,16.8202988 16.5769945,16.5962365 C16.6346105,16.3721741 16.7813236,16.1814065 16.9830873,16.0682035 Z M11.3219687,2.26287087 C12.6743992,2.2344489 13.9939563,2.6812989 15.0508492,3.52560541 C16.2542606,4.61884537 16.1271397,6.12734703 16.1271397,7.76296961 L16.1271397,11.6359205 C16.1280396,12.4917558 16.4695678,13.3120335 17.0763093,13.9156224 C17.2371715,14.1069466 17.2184771,14.3911015 17.0339357,14.5597018 C16.5678256,14.9919129 15.6610297,15.7631132 15.1440712,16.1953244 C14.9655763,16.316221 14.7360424,16.3323853 14.5423655,16.237698 C13.9868134,15.7742991 13.5090105,15.2249688 13.1270859,14.6105502 C12.1375644,15.8374944 10.6156838,16.5100267 9.04226677,16.4156673 C8.02058569,16.4741438 7.0241021,16.0847205 6.31279293,15.3489957 C5.60148376,14.6132708 5.24589964,13.6042168 5.33881046,12.5850901 C5.33881046,8.77267297 8.52779675,8.03228667 12.1909699,7.71644083 L12.6609758,7.67822233 C12.7659372,6.94628211 12.6601064,6.1995872 12.3558856,5.52564131 C12.0233698,5.10434917 11.510969,4.86543836 10.9745049,4.88156195 C10.0220483,4.8363536 9.17334431,5.47823055 8.95751949,6.40701307 C8.93257277,6.64263075 8.75757288,6.83478748 8.52530834,6.88159786 L8.52530834,6.88159786 L6.11848547,6.58498236 C5.99902643,6.57214697 5.89135177,6.50715963 5.82432965,6.40744379 C5.75730753,6.30772796 5.73779432,6.18348457 5.77102161,6.06802393 C6.27103058,3.39000975 8.55920725,2.26287087 11.3219687,2.26287087 Z M12.6440263,9.6697835 C12.023849,9.65850093 11.4043073,9.71533961 10.7965356,9.83927807 C9.68829602,10.0450966 8.90054303,11.0352082 8.94904476,12.1613537 C8.94904476,14.4495303 11.3304434,14.4410556 12.1779163,12.805433 C12.5896147,11.9980994 12.7518646,11.0865497 12.6440263,10.1867419 L12.6440263,10.1867419 Z" id="ðŸ–-Color" fill="#5A5A5A"></path>
        <rect id="_Transparent_Rectangle_" x="0" y="0" width="24" height="24"></rect>
    </g>
</svg>