<?xml version="1.0" encoding="UTF-8"?>
<svg width="24px" height="24px" viewBox="0 0 24 24" version="1.1" xmlns="http://www.w3.org/2000/svg" xmlns:xlink="http://www.w3.org/1999/xlink">
    <title>15. Logos/apple</title>
    <g id="15.-Logos/apple" stroke="none" stroke-width="1" fill="none" fill-rule="evenodd">
        <path d="M15.2441913,7.62678796 L15.5033457,7.63989757 L15.7421472,7.6575406 C16.8513572,7.76922668 17.8829577,8.28954112 18.6330567,9.12193342 C18.7108717,9.21213859 18.7483761,9.33026194 18.7368483,9.44883365 C18.7253205,9.56740536 18.6657651,9.67609233 18.5720317,9.74961919 C17.5065551,10.5435627 16.8793814,11.7946771 16.8807673,13.1234302 C16.8778683,14.672913 17.7384792,16.0949381 19.1125389,16.8110841 C19.3016354,16.9144166 19.3868485,17.1404165 19.3130496,17.3428734 C19.0119975,18.1648503 18.6108629,18.9466236 18.1187031,19.6705415 C17.3166602,20.8212988 16.4361565,21.972056 15.1633493,21.9982096 C13.890542,22.0243632 13.4808027,21.2484738 12.0249204,21.2484738 C10.5690381,21.2484738 10.1680167,21.9807739 8.91264513,22.0243632 C7.65727359,22.0679524 6.70702708,20.7689916 5.91370201,19.6182344 C4.32705186,17.2295413 3.08039818,12.9577909 4.7542269,10.0460264 C5.54788879,8.60588412 7.04242672,7.69126667 8.68598083,7.63989757 C9.90648094,7.63989757 11.126981,8.51168337 11.8767168,8.51168337 C12.6264526,8.51168337 14.0300277,7.50041185 15.5033457,7.63989757 Z M15.1720671,2.03431493 C15.3033792,2.00739712 15.439774,2.04239186 15.5419064,2.12920437 C15.6440388,2.21601688 15.70055,2.34499231 15.6951386,2.47892568 C15.6421743,3.46845558 15.26888,4.4139304 14.6315599,5.17274378 C13.9971105,5.93514616 13.0963557,6.42760031 12.112099,6.55016533 C11.9876133,6.56271626 11.8637364,6.52116941 11.7719922,6.43609752 C11.680248,6.35102563 11.6294834,6.23063217 11.6326168,6.10555458 C11.699031,5.13780907 12.0819575,4.21878547 12.722349,3.4901972 C13.3670399,2.76121984 14.2236058,2.25215755 15.1720671,2.03431493 Z" id="ðŸ–-Color" fill="#5A5A5A"></path>
        <rect id="_Transparent_Rectangle_" x="0" y="0" width="24" height="24"></rect>
    </g>
</svg>