<?xml version="1.0" encoding="UTF-8"?>
<svg width="24px" height="24px" viewBox="0 0 24 24" version="1.1" xmlns="http://www.w3.org/2000/svg" xmlns:xlink="http://www.w3.org/1999/xlink">
    <title>15. Logos/facebook_1</title>
    <g id="15.-Logos/facebook_1" stroke="none" stroke-width="1" fill="none" fill-rule="evenodd">
        <path d="M18.2916667,14.1333333 C18.2662402,14.3437354 18.0869274,14.5015308 17.875,14.5 L16.1666667,14.5 C15.936548,14.5 15.75,14.686548 15.75,14.9166667 L15.75,21.5833333 C15.75,21.813452 15.936548,22 16.1666667,22 L21.1666667,22 C21.626904,22 22,21.626904 22,21.1666667 L22,2.83333333 C22,2.37309604 21.626904,2 21.1666667,2 L2.83333333,2 C2.37309604,2 2,2.37309604 2,2.83333333 L2,21.1666667 C2,21.626904 2.37309604,22 2.83333333,22 L12,22 C12.2301186,22 12.4166667,21.813452 12.4166667,21.5833333 L12.4166667,14.9166667 C12.4166667,14.686548 12.2301186,14.5 12,14.5 L10.3333333,14.5 C10.1032147,14.5 9.91666667,14.313452 9.91666667,14.0833333 L9.91666667,11.5833333 C9.91666667,11.3532147 10.1032147,11.1666667 10.3333333,11.1666667 L12,11.1666667 C12.2301186,11.1666667 12.4166667,10.9801186 12.4166667,10.75 L12.4166667,9.65833333 C12.4166667,7.03958314 14.5395831,4.91666667 17.1583333,4.91666667 L18.25,4.91666667 C18.3605069,4.91666667 18.4664877,4.96056535 18.5446278,5.03870551 C18.622768,5.11684567 18.6666667,5.22282646 18.6666667,5.33333333 L18.6666667,7.83333333 C18.6666667,8.06345198 18.4801186,8.25 18.25,8.25 L17.1583333,8.25 C16.3805323,8.25 15.75,8.88053231 15.75,9.65833333 L15.75,10.75 C15.75,10.9801186 15.936548,11.1666667 16.1666667,11.1666667 L18.1916667,11.1666667 C18.3114083,11.165801 18.4257343,11.2164938 18.5054862,11.3058159 C18.5852381,11.395138 18.6227058,11.5144543 18.6083333,11.6333333 L18.2916667,14.1333333 Z" id="ðŸ–-Color" fill="#5A5A5A"></path>
        <rect id="_Transparent_Rectangle_" x="0" y="0" width="24" height="24"></rect>
    </g>
</svg>