<?xml version="1.0" encoding="UTF-8"?>
<svg width="24px" height="24px" viewBox="0 0 24 24" version="1.1" xmlns="http://www.w3.org/2000/svg" xmlns:xlink="http://www.w3.org/1999/xlink">
    <title>15. Logos/facebook</title>
    <g id="15.-Logos/facebook" stroke="none" stroke-width="1" fill="none" fill-rule="evenodd">
        <path d="M17.1166667,7.975 C17.0386427,7.88617148 16.9265554,7.83467192 16.8083333,7.83333333 L13.6666667,7.83333333 L13.6666667,6.65833333 C13.6666667,6.425 13.7166667,6.15833333 14.0916667,6.15833333 L16.5916667,6.15833333 C16.7028178,6.16307231 16.8101091,6.11709031 16.8833333,6.03333333 C16.9567979,5.95713537 16.99851,5.85583458 17,5.75 L17,2.41666667 C17,2.18654802 16.813452,2 16.5833333,2 L12.975,2 C8.975,2 8.66666667,5.41666667 8.66666667,6.45833333 L8.66666667,7.83333333 L6.58333333,7.83333333 C6.35321469,7.83333333 6.16666667,8.01988135 6.16666667,8.25 L6.16666667,11.5833333 C6.16666667,11.813452 6.35321469,12 6.58333333,12 L8.66666667,12 L8.66666667,21.5833333 C8.66666667,21.813452 8.85321469,22 9.08333333,22 L13.25,22 C13.4801186,22 13.6666667,21.813452 13.6666667,21.5833333 L13.6666667,12 L16.4583333,12 C16.6731159,12.0010764 16.8535242,11.8387089 16.875,11.625 L17.225,8.29166667 C17.2347323,8.17560961 17.1954473,8.06077631 17.1166667,7.975 Z" id="ðŸ–-Color" fill="#5A5A5A"></path>
        <rect id="_Transparent_Rectangle_" x="0" y="0" width="24" height="24"></rect>
    </g>
</svg>