<?xml version="1.0" encoding="UTF-8"?>
<svg width="24px" height="24px" viewBox="0 0 24 24" version="1.1" xmlns="http://www.w3.org/2000/svg" xmlns:xlink="http://www.w3.org/1999/xlink">
    <title>15. Logos/github_1</title>
    <g id="15.-Logos/github_1" stroke="none" stroke-width="1" fill="none" fill-rule="evenodd">
        <path d="M12.4003965,1.99559067 C7.56401733,1.99409438 3.44454772,5.65606129 2.68553906,10.6315297 C1.9265304,15.6069981 4.75333043,20.418764 9.35192139,21.9790148 L9.58957133,21.9790148 C9.82411077,21.9941714 10.0536111,21.9037177 10.2197744,21.730631 C10.3859377,21.5575443 10.4727732,21.3184814 10.4582228,21.0741695 L10.4582228,20.8949077 C10.4582228,20.749791 10.4582228,20.5534566 10.4582228,19.9644535 C10.4419768,19.8514929 10.3829429,19.7500285 10.2943263,19.6827564 C10.1979114,19.6015133 10.0713609,19.5701268 9.95014365,19.5973936 C7.75393039,20.0924977 7.28682533,18.6584032 7.25404603,18.5645041 C6.97903577,17.8057291 6.48703639,17.1531863 5.84453603,16.6950595 C5.80604098,16.6603827 5.76493473,16.6289821 5.72161364,16.6011605 C5.81684389,16.5477575 5.92576976,16.5268562 6.03301702,16.5414066 C6.45197455,16.6020896 6.80968194,16.8872187 6.97542196,17.2925989 C7.63430283,18.4876385 9.08291864,18.9252412 10.2533522,18.282807 C10.3760017,18.2269569 10.4647294,18.1122228 10.4910021,17.975501 C10.5223788,17.5806479 10.6846171,17.2094552 10.9499124,16.925539 C11.0702063,16.8142605 11.1168524,16.6399486 11.0691674,16.4798947 C11.0214824,16.3198408 10.8882912,16.2036659 10.7286521,16.1828829 C8.78647842,15.9524035 6.80333062,15.2438925 6.80333062,11.7525554 C6.78695935,10.8757777 7.09506191,10.0260504 7.66378731,9.37947044 C7.77073037,9.25642934 7.79949738,9.07996501 7.73754074,8.92704778 C7.50978984,8.2642318 7.51269014,7.53915738 7.74573557,6.87834138 C8.50279611,7.01813226 9.21337257,7.35591456 9.81083162,7.8600132 C9.9108221,7.9335278 10.0375398,7.95552741 10.1550143,7.91976713 C10.8870459,7.71291783 11.6419144,7.60673574 12.4003965,7.6039249 C13.1617141,7.60459141 13.9195602,7.71080468 14.6539736,7.91976713 C14.7689312,7.95280786 14.89204,7.93091352 14.9899614,7.8600132 C15.5883615,7.35749948 16.2985296,7.01991127 17.0550575,6.87834138 C17.2781443,7.53561742 17.2781443,8.25269918 17.0550575,8.90997523 C16.9931008,9.06289245 17.0218678,9.23935679 17.1288109,9.36239789 C17.6916559,10.0025136 17.9993285,10.841898 17.9892676,11.709874 C17.9892676,15.2012111 15.9979249,15.9011858 14.0475565,16.1316653 C13.8840227,16.1494053 13.7465067,16.2672539 13.6982792,16.4309893 C13.6500517,16.5947247 13.700454,16.7726324 13.8262962,16.8828576 C14.1936695,17.2778346 14.3763735,17.820705 14.3261805,18.3681698 L14.3261805,21.0827058 C14.3179674,21.3529259 14.4261816,21.6128154 14.6211942,21.7912167 C14.8698924,21.9851793 15.1919565,22.0453131 15.4898458,21.953406 C20.0563349,20.3620577 22.844902,15.5603044 22.0783491,10.6083795 C21.3117962,5.65645458 17.2156277,2.01111405 12.4003965,1.99559067 Z" id="ðŸ–-Color" fill="#5A5A5A"></path>
        <rect id="_Transparent_Rectangle_" x="0" y="0" width="24" height="24"></rect>
    </g>
</svg>