<?xml version="1.0" encoding="UTF-8"?>
<svg width="24px" height="24px" viewBox="0 0 24 24" version="1.1" xmlns="http://www.w3.org/2000/svg" xmlns:xlink="http://www.w3.org/1999/xlink">
    <title>15. Logos/google_plus_1</title>
    <g id="15.-Logos/google_plus_1" stroke="none" stroke-width="1" fill="none" fill-rule="evenodd">
        <path d="M5.27017924,6.14245748 C7.88659857,4.52897043 11.2557754,4.84631401 13.5249017,6.91997179 C13.6091314,6.99883014 13.6569301,7.10905812 13.6569301,7.22444136 C13.6569301,7.3398246 13.6091314,7.45005259 13.5249017,7.52891094 L13.5249017,7.52891094 L12.2986817,8.66337292 C12.1399325,8.80664818 11.8985416,8.80664818 11.7397924,8.66337292 C10.2698606,7.41437737 8.15581112,7.2742067 6.53384451,8.31819593 C4.9118779,9.36218517 4.16396472,11.3444765 4.6920726,13.1996831 C5.22018049,15.0548896 6.89994087,16.3461132 8.82856275,16.3793827 C10.6517857,16.5236173 12.2867324,15.2604134 12.6073221,13.4598114 L12.6073221,13.4598114 L9.03710356,13.4598114 C8.80675574,13.4598114 8.62002195,13.2730776 8.62002195,13.0427298 L8.62002195,13.0427298 L8.62002195,11.3744034 C8.62002195,11.1440556 8.80675574,10.9573218 9.03710356,10.9573218 L9.03710356,10.9573218 L14.8762461,10.9573218 C15.1038542,10.9379834 15.3046715,11.1053312 15.3266942,11.3326952 L15.3266942,11.3326952 L15.3266942,12.0000258 C15.3266942,15.3366787 13.6583678,18.8818724 8.86192928,18.8818724 C5.78802187,18.8727158 3.09294732,16.8261008 2.25880531,13.8675205 C1.42466331,10.9089401 2.65375991,7.75594454 5.27017924,6.14245748 Z M19.9145919,9.28899533 C20.1449398,9.28899533 20.3316736,9.47572913 20.3316736,9.70607695 L20.3316736,9.70607695 L20.3316736,10.9573218 L21.5829184,10.9573218 C21.8132662,10.9573218 22,11.1440556 22,11.3744034 L22,11.3744034 L22,13.0427298 C22,13.2730776 21.8132662,13.4598114 21.5829184,13.4598114 L21.5829184,13.4598114 L20.3316736,13.4598114 L20.3316736,14.7110563 C20.3316736,14.9414041 20.1449398,15.1281379 19.9145919,15.1281379 L19.9145919,15.1281379 L18.2462655,15.1281379 C18.0159177,15.1281379 17.8291839,14.9414041 17.8291839,14.7110563 L17.8291839,14.7110563 L17.8291839,13.4598114 L16.5779391,13.4598114 C16.3475913,13.4598114 16.1608575,13.2730776 16.1608575,13.0427298 L16.1608575,13.0427298 L16.1608575,11.3744034 C16.1608575,11.1440556 16.3475913,10.9573218 16.5779391,10.9573218 L16.5779391,10.9573218 L17.8291839,10.9573218 L17.8291839,9.70607695 C17.8291839,9.47572913 18.0159177,9.28899533 18.2462655,9.28899533 L18.2462655,9.28899533 Z" id="ðŸ–-Color" fill="#5A5A5A"></path>
        <rect id="_Transparent_Rectangle_" x="0" y="0" width="24" height="24"></rect>
    </g>
</svg>