<?xml version="1.0" encoding="UTF-8"?>
<svg width="24px" height="24px" viewBox="0 0 24 24" version="1.1" xmlns="http://www.w3.org/2000/svg" xmlns:xlink="http://www.w3.org/1999/xlink">
    <title>15. Logos/google_plus</title>
    <g id="15.-Logos/google_plus" stroke="none" stroke-width="1" fill="none" fill-rule="evenodd">
        <path d="M13.425,2.94166667 C13.7660743,2.96403713 14.0589028,3.19241777 14.1636775,3.51777053 C14.2684521,3.8431233 14.1639244,4.19946612 13.9,4.41666667 L13.9,4.41666667 L12.7666667,5.25 L12.6166667,5.33333333 C12.9735125,6.00568826 13.1595306,6.75548424 13.1583333,7.51666667 C13.1388431,8.84299369 12.4889998,10.0807905 11.4083333,10.85 C10.8083333,11.3166667 10.7416667,11.425 10.7416667,11.6 C11.0134048,11.9798562 11.3489262,12.3097387 11.7333333,12.575 L11.7333333,12.575 L11.9193496,12.6917547 C13.1962129,13.5387279 13.9382525,15.0006937 13.8583333,16.5416667 C13.8583333,18.975 11.525,21.025 8.025,21.025 C4.675,21.025 2,19.5 2,17.225 C2,15.575 3.56666667,13.0416667 7.26666667,12.7666667 C7.20040489,12.5168425 7.17507642,12.2579293 7.19166667,12 C4.86780831,11.8002374 3.0870864,9.84905942 3.1,7.51666667 C3.24990473,5.52775035 4.61821049,3.84061606 6.53333333,3.28333333 C7.11483506,3.08095991 7.72595881,2.97675908 8.34166667,2.975 L8.34166667,2.975 L13.425,2.975 Z M8.34166667,14.825 L8.34166667,14.85 C6.81666667,14.85 5.43333333,15.5833333 5.43333333,16.65 C5.43333333,17.7166667 6.55,18.55 7.975,18.55 C10.8583333,18.55 10.8583333,17.175 10.8583333,16.725 C10.8708574,16.6142418 10.8708574,16.5024249 10.8583333,16.3916667 C10.75,15.9916667 10.3,15.6666667 9.55,15.1583333 L9.55,15.1583333 L9.25833333,14.9583333 C8.9600762,14.8732782 8.65179549,14.8284373 8.34166667,14.825 L8.34166667,14.825 Z M19.0833333,7.14166667 C19.313452,7.14166667 19.5,7.32821469 19.5,7.55833333 L19.5,7.55833333 L19.5,9.225 C19.5,9.45511865 19.686548,9.64166667 19.9166667,9.64166667 L19.9166667,9.64166667 L21.5833333,9.64166667 C21.813452,9.64166667 22,9.82821469 22,10.0583333 L22,10.0583333 L22,11.725 C22,11.9551186 21.813452,12.1416667 21.5833333,12.1416667 L21.5833333,12.1416667 L19.9166667,12.1416667 C19.686548,12.1416667 19.5,12.3282147 19.5,12.5583333 L19.5,12.5583333 L19.5,14.225 C19.5,14.4551186 19.313452,14.6416667 19.0833333,14.6416667 L19.0833333,14.6416667 L17.4166667,14.6416667 C17.186548,14.6416667 17,14.4551186 17,14.225 L17,14.225 L17,12.5583333 C17,12.3282147 16.813452,12.1416667 16.5833333,12.1416667 L16.5833333,12.1416667 L14.9166667,12.1416667 C14.686548,12.1416667 14.5,11.9551186 14.5,11.725 L14.5,11.725 L14.5,10.0583333 C14.5,9.82821469 14.686548,9.64166667 14.9166667,9.64166667 L14.9166667,9.64166667 L16.5833333,9.64166667 C16.813452,9.64166667 17,9.45511865 17,9.225 L17,9.225 L17,7.55833333 C17,7.32821469 17.186548,7.14166667 17.4166667,7.14166667 L17.4166667,7.14166667 Z M7.68333333,5.33333333 L7.5624827,5.33638989 C7.32299088,5.35816831 7.09951239,5.47273057 6.94166667,5.65833333 L6.94166667,5.65833333 L6.8399705,5.81111887 C6.55510815,6.2800735 6.45317603,6.84038379 6.55833333,7.38333333 C6.725,8.7 7.65833333,9.88333333 8.55,9.88333333 C8.82988692,9.88875442 9.09690923,9.76598555 9.275,9.55 C9.64663277,9.03211307 9.79108104,8.3851052 9.675,7.75833333 C9.5,6.46666667 8.59166667,5.33333333 7.68333333,5.33333333 L7.68333333,5.33333333 Z" id="ðŸ–-Color" fill="#5A5A5A"></path>
        <rect id="_Transparent_Rectangle_" x="0" y="0" width="24" height="24"></rect>
    </g>
</svg>