<?xml version="1.0" encoding="UTF-8"?>
<svg width="24px" height="24px" viewBox="0 0 24 24" version="1.1" xmlns="http://www.w3.org/2000/svg" xmlns:xlink="http://www.w3.org/1999/xlink">
    <title>15. Logos/google</title>
    <g id="15.-Logos/google" stroke="none" stroke-width="1" fill="none" fill-rule="evenodd">
        <path d="M7.11460707,15.7817881 C7.27668812,15.6287616 7.53608588,15.6287616 7.69816693,15.7817881 C9.40340694,17.6041352 12.1464651,18.1358257 14.4507882,17.0906574 C14.6164972,17.0174803 14.8123508,17.056511 14.9343092,17.1870158 L14.9343092,17.1870158 L17.2185292,19.700366 C17.3004021,19.7900405 17.336583,19.9101658 17.3172469,20.028122 C17.2979109,20.1460783 17.225065,20.2496221 17.1184904,20.3106364 C13.0334024,22.6438381 7.80823611,21.8888976 4.61363624,18.503915 C4.53472534,18.4285279 4.49033908,18.3259078 4.49033908,18.2188545 C4.49033908,18.1118012 4.53472534,18.0091811 4.61363624,17.933794 L4.61363624,17.933794 Z M21.5868916,10.3937434 C21.8170996,10.3937434 22.0037201,10.5734982 22.0037201,10.795237 L22.0037201,10.795237 L22.0037201,12.4815103 C21.8728891,14.8158029 20.8655186,17.0246853 19.1692865,18.6966319 C19.090476,18.7777137 18.9803149,18.8237259 18.8650017,18.8237259 C18.7496885,18.8237259 18.6395274,18.7777137 18.5607169,18.6966319 L18.5607169,18.6966319 L16.3348528,16.2876701 C16.1916645,16.1348539 16.1916645,15.9024847 16.3348528,15.7496686 C16.7193521,15.3508656 17.0396928,14.8988587 17.2852218,14.4086798 L17.2852218,14.4086798 L13.2503222,14.4086798 C13.0201142,14.4086798 12.8334937,14.228925 12.8334937,14.0071862 L12.8334937,14.0071862 L12.8334937,10.795237 C12.8334937,10.5734982 13.0201142,10.3937434 13.2503222,10.3937434 L13.2503222,10.3937434 Z M3.27088271,7.61793031 C3.39397912,7.59140857 3.5229231,7.62000471 3.62158448,7.69570608 L3.62158448,7.69570608 L6.34764268,9.79150291 C6.48391843,9.89716911 6.53719114,10.073557 6.48102779,10.2331459 C6.06880227,11.3939039 6.06880227,12.6537112 6.48102779,13.8144692 C6.53352036,13.9660613 6.48768287,14.1332049 6.36431582,14.2400525 L6.36431582,14.2400525 L3.76330616,16.4964468 C3.66752738,16.5802187 3.53679398,16.6164046 3.40945486,16.5943897 C3.28211574,16.5723748 3.17260781,16.4946551 3.11305375,16.3840285 C1.6792545,13.7105528 1.63294476,10.5435243 2.98800521,7.83221392 C3.04377954,7.7232386 3.14778629,7.64445205 3.27088271,7.61793031 Z M11.7713828,2.35673624 C14.6056429,2.29549138 17.3337923,3.39542113 19.2776619,5.38310269 C19.3565728,5.45848979 19.400959,5.5611099 19.400959,5.66816318 C19.400959,5.77521646 19.3565728,5.87783657 19.2776619,5.95322367 L19.2776619,5.95322367 L16.8433836,8.15340884 C16.7651171,8.22941666 16.6585775,8.27216998 16.5474354,8.27216998 C16.4362933,8.27216998 16.3297536,8.22941666 16.2514872,8.15340884 C15.1310524,7.00529304 13.5617454,6.36288764 11.9259778,6.38273518 C10.2902102,6.40258271 8.73820128,7.0828605 7.64814751,8.25779718 C7.50173385,8.41493534 7.25397927,8.4359918 7.08126079,8.30597642 L7.08126079,8.30597642 L4.49692427,6.2985082 C4.39833701,6.23446542 4.33284056,6.13291406 4.31691603,6.01940784 C4.3009915,5.90590161 4.33615513,5.79124797 4.41355858,5.70429761 C6.26292902,3.63464882 8.93712261,2.4179811 11.7713828,2.35673624 Z" id="ðŸ–-Color" fill="#5A5A5A"></path>
        <rect id="_Transparent_Rectangle_" x="0" y="0" width="24" height="24"></rect>
    </g>
</svg>