<?xml version="1.0" encoding="UTF-8"?>
<svg width="24px" height="24px" viewBox="0 0 24 24" version="1.1" xmlns="http://www.w3.org/2000/svg" xmlns:xlink="http://www.w3.org/1999/xlink">
    <title>15. Logos/linkedin</title>
    <g id="15.-Logos/linkedin" stroke="none" stroke-width="1" fill="none" fill-rule="evenodd">
        <path d="M6.66666667,8.66666667 C6.98225795,8.66666667 7.23809524,8.92250395 7.23809524,9.23809524 L7.23809524,21.4285714 C7.23809524,21.7441627 6.98225795,22 6.66666667,22 L3.04761905,22 C2.73202776,22 2.47619048,21.7441627 2.47619048,21.4285714 L2.47619048,9.23809524 C2.47619048,8.92250395 2.73202776,8.66666667 3.04761905,8.66666667 L6.66666667,8.66666667 Z M16.431289,8.188574 L16.6571429,8.19047619 C19.4952381,8.19047619 21.5238095,9.93333333 21.5238095,13.5238095 L21.5238095,13.5238095 L21.5238095,21.5238095 C21.5238095,21.7868023 21.3106118,22 21.047619,22 L21.047619,22 L18.1904762,22 C17.9274835,22 17.7142857,21.7868023 17.7142857,21.5238095 L17.7142857,21.5238095 L17.7142857,14.3809524 C17.7142857,13.0659887 16.648297,12 15.3333333,12 C14.0183696,12 12.952381,13.0659887 12.952381,14.3809524 L12.952381,14.3809524 L12.952381,21.5238095 C12.952381,21.7868023 12.7391832,22 12.4761905,22 L12.4761905,22 L9.61904762,22 C9.35605488,22 9.14285714,21.7868023 9.14285714,21.5238095 L9.14285714,21.5238095 L9.14285714,9.14285714 C9.14285714,8.8798644 9.35605488,8.66666667 9.61904762,8.66666667 L9.61904762,8.66666667 L12.4761905,8.66666667 C12.7391832,8.66666667 12.952381,8.8798644 12.952381,9.14285714 C12.9517133,9.30620784 13.0527972,9.45271065 13.2057485,9.51006739 C13.3586998,9.56742413 13.5311896,9.52351146 13.6380952,9.4 C14.4284021,8.58845239 15.525118,8.14907412 16.6571429,8.19047619 Z M4.83809524,2 C6.14253922,2 7.2,3.06598869 7.2,4.38095238 C7.2,5.69591607 6.14253922,6.76190476 4.83809524,6.76190476 C3.53365126,6.76190476 2.47619048,5.69591607 2.47619048,4.38095238 C2.47619048,3.06598869 3.53365126,2 4.83809524,2 Z" id="ðŸ–-Color" fill="#5A5A5A"></path>
        <rect id="_Transparent_Rectangle_" x="0" y="0" width="24" height="24"></rect>
    </g>
</svg>