<?xml version="1.0" encoding="UTF-8"?>
<svg width="24px" height="24px" viewBox="0 0 24 24" version="1.1" xmlns="http://www.w3.org/2000/svg" xmlns:xlink="http://www.w3.org/1999/xlink">
    <title>15. Logos/pinterest</title>
    <g id="15.-Logos/pinterest" stroke="none" stroke-width="1" fill="none" fill-rule="evenodd">
        <path d="M7.45496967,21.6711872 C7.47569244,21.8186356 7.58205507,21.9396689 7.72561829,21.9791667 L7.82827811,21.9791667 C7.96384053,21.9748512 8.08897379,21.9053327 8.16425572,21.7925124 C9.06350359,20.6805224 9.75577592,19.4160981 10.2081195,18.059428 C10.2921139,17.7514485 10.5720952,16.6408559 10.7774148,15.8475754 C10.7976011,15.7707933 10.8554456,15.709545 10.9309494,15.6850062 C11.0064532,15.6604675 11.0892536,15.6760062 11.1507233,15.7262502 C11.8243325,16.2553685 12.6553329,16.5444122 13.5118992,16.5475288 C17.1516566,16.5475288 19.7928138,13.2157509 19.7928138,8.63338972 C19.7928138,5.3576081 17.0489967,1.97916667 12.4573028,1.97916667 C7.33364442,2.0071648 4.20718619,5.68425299 4.20718619,9.2026851 C4.20718619,11.3958722 5.1404573,13.0757602 6.65235651,13.7010519 C6.82507874,13.786047 7.02760536,13.7854043 7.19978466,13.6993146 C7.37196395,13.613225 7.4939941,13.4515893 7.52963136,13.2624145 L7.75361643,12.3291433 C7.86506052,12.0336184 7.78350613,11.6999868 7.54829678,11.4891993 C7.07656207,10.9118003 6.83402798,10.1808757 6.86700887,9.43600288 C6.85844415,8.0442534 7.41848374,6.70934257 8.41748005,5.74029854 C9.41647636,4.7712545 10.7678118,4.25209779 12.1586561,4.30301174 C14.8931405,4.30301174 16.5916939,5.86157451 16.5916939,8.37207381 C16.5916939,11.6385227 15.1637891,14.1023585 13.2692487,14.1023585 C12.7909734,14.1279908 12.3260042,13.9399518 12,13.5890593 C11.7158332,13.2244478 11.6190972,12.7476777 11.7386841,12.3011452 C11.8600093,11.7971788 12.0186654,11.274547 12.1773215,10.7612479 C12.4687977,9.95870237 12.6508663,9.12055863 12.7186188,8.26941398 C12.7613123,7.78214262 12.5941824,7.29978897 12.2591668,6.94338939 C11.9241512,6.58698981 11.4530474,6.39037154 10.9640691,6.40287175 C9.62015866,6.40287175 8.57489501,7.73744945 8.57489501,9.49199914 C8.57417153,10.0621919 8.67530893,10.6279293 8.87354176,11.1625544 C8.90027896,11.2507896 8.90027896,11.3449679 8.87354176,11.4332031 L7.49230051,17.3221438 C7.22555153,18.7584802 7.21291631,20.2304834 7.45496967,21.6711872 L7.45496967,21.6711872 Z" id="ðŸ–-Color" fill="#5A5A5A"></path>
        <rect id="_Transparent_Rectangle_" x="0" y="0" width="24" height="24"></rect>
    </g>
</svg>