<?xml version="1.0" encoding="UTF-8"?>
<svg width="24px" height="24px" viewBox="0 0 24 24" version="1.1" xmlns="http://www.w3.org/2000/svg" xmlns:xlink="http://www.w3.org/1999/xlink">
    <title>15. Logos/skype</title>
    <g id="15.-Logos/skype" stroke="none" stroke-width="1" fill="none" fill-rule="evenodd">
        <path d="M11.9992419,21.4161642 C12.4805085,21.4164873 12.9610943,21.3799871 13.4367917,21.3069832 C13.5332545,21.2914659 13.6321501,21.3074168 13.7188426,21.3524753 C15.4757515,22.2803669 17.5909124,22.2172479 19.2893654,21.186244 C20.9878185,20.1552401 22.0199104,18.3078972 22.0076105,16.321051 C22.0090841,15.3676763 21.7713255,14.4291555 21.3160202,13.5915262 C21.2678356,13.5058737 21.2486834,13.4069207 21.2614297,13.3094753 C21.6394783,10.6216528 20.8382168,7.90152621 19.0634748,5.84784637 C17.2887328,3.79416653 14.7134763,2.6070848 11.9992419,2.59154086 C11.5301223,2.59298287 11.0617663,2.62947814 10.5980858,2.70072185 C10.501623,2.71623916 10.4027274,2.70028825 10.3160349,2.65522977 C8.10690166,1.50001484 5.40261701,1.92106235 3.6492656,3.69322207 C1.89591418,5.46538179 1.50374406,8.17400488 2.68246364,10.3706868 C2.72752212,10.4573793 2.74347303,10.5562749 2.72795572,10.6527377 C2.33210197,13.3498741 3.1267891,16.0860055 4.90589369,18.1514429 C6.68499827,20.2168804 9.27322284,21.4081135 11.9992419,21.4161642 Z M12.0902261,5.6304119 C14.9653256,5.80328181 16.6394342,7.06796167 16.8123041,8.25985421 C16.8644927,8.62798336 16.7445495,8.99966878 16.4870222,9.26785234 C16.229495,9.53603591 15.8629754,9.67094275 15.4930338,9.63371507 C14.1919603,9.63371507 14.055484,7.89591756 11.8536673,7.89591756 C10.8437431,7.89591756 10.033984,8.31444471 10.033984,9.23338475 C10.033984,11.1440522 17.2126345,10.0340454 17.2126345,14.2466121 C17.2126345,16.6758893 15.2746718,18.2681121 12.3904738,18.2681121 C9.85201568,18.2681121 7.2953607,17.1126133 7.31355753,15.1200601 C7.29356967,14.5503927 7.70495829,14.0567264 8.26889124,13.9736596 C9.76103152,13.9736596 9.7519331,16.2027716 12.1357182,16.2027716 C13.8098268,16.2027716 14.3739286,15.29293 14.3739286,14.6469425 C14.3739286,12.3450431 7.15888446,13.7371008 7.15888446,9.4244515 C7.15888446,7.08615851 9.0786503,5.46664041 12.0902261,5.6304119 Z" id="ðŸ–-Color" fill="#5A5A5A"></path>
        <rect id="_Transparent_Rectangle_" x="0" y="0" width="24" height="24"></rect>
    </g>
</svg>