<?xml version="1.0" encoding="UTF-8"?>
<svg width="24px" height="24px" viewBox="0 0 24 24" version="1.1" xmlns="http://www.w3.org/2000/svg" xmlns:xlink="http://www.w3.org/1999/xlink">
    <title>15. Logos/twitter</title>
    <g id="15.-Logos/twitter" stroke="none" stroke-width="1" fill="none" fill-rule="evenodd">
        <path d="M21.7982081,7.18749047 C21.9237869,7.08311091 21.979909,6.91692581 21.9433243,6.75778221 C21.9067396,6.59863861 21.7836797,6.47364478 21.6251259,6.43458306 L20.9414514,6.2615009 C20.8155706,6.22998622 20.7104789,6.14364023 20.6551443,6.02626384 C20.5998097,5.90888744 20.6000746,5.77287337 20.6558658,5.65571333 L21.0366466,4.88549771 C21.1101041,4.7330844 21.0879915,4.55183846 20.9800441,4.42155721 C20.8720968,4.29127595 20.6981191,4.23586107 20.5347083,4.27971014 L18.8038867,4.7643402 C18.6731374,4.80247541 18.5320637,4.77682564 18.4231059,4.69510733 C17.6741094,4.13335996 16.7631191,3.82969652 15.8268735,3.82969652 C13.4371075,3.82969652 11.4998194,5.76698461 11.4998194,8.15675058 L11.4998194,8.46829847 C11.5006143,8.57834101 11.4186796,8.6714486 11.309429,8.68465118 C8.87762464,8.97023675 6.54966955,7.73269928 4.03997819,4.84222717 C3.9288259,4.7196397 3.75844057,4.66952637 3.59861868,4.71241555 C3.45476746,4.77853683 3.35851203,4.91794125 3.34764954,5.07588809 C3.00101574,6.49978462 3.14116262,7.99874699 3.74573852,9.33370929 C3.78220487,9.40589004 3.77537169,9.49238234 3.72802343,9.55794146 C3.68067518,9.62350059 3.60071726,9.65718058 3.52073171,9.64525718 L2.55147159,9.4548668 C2.41176525,9.43240527 2.26990294,9.47967097 2.17158671,9.58143689 C2.07327048,9.68320281 2.03092322,9.82661017 2.05818743,9.96545918 C2.20953924,11.3107918 2.96418207,12.5143993 4.10921106,13.2367121 C4.18385065,13.2728617 4.2312578,13.3484966 4.2312578,13.4314295 C4.2312578,13.5143624 4.18385065,13.5899973 4.10921106,13.6261469 L3.65054333,13.8078832 C3.53792076,13.8530339 3.44942977,13.9433963 3.40664557,14.056939 C3.36386137,14.1704817 3.37071538,14.2967712 3.42553652,14.4050166 C3.94040039,15.5316128 4.97542257,16.333755 6.19485112,16.5512355 C6.28041525,16.5822911 6.33738981,16.6635813 6.33738981,16.754607 C6.33738981,16.8456327 6.28041525,16.9269229 6.19485112,16.9579785 C5.01820698,17.4446302 3.75548691,17.6889327 2.48223873,17.6762695 C2.24326214,17.6284742 2.01078757,17.7834573 1.96299225,18.0224338 C1.91519693,18.2614104 2.07017998,18.493885 2.30915657,18.5416803 C4.5138293,19.5873092 6.91416578,20.1564307 9.35360058,20.2119232 C11.4993463,20.2446499 13.6069062,19.6424899 15.4114763,18.4811016 C18.4263754,16.4685701 20.2328778,13.0797537 20.2231604,9.4548668 L20.2231604,8.70195939 C20.2242293,8.57477407 20.2812011,8.45450027 20.3789343,8.37310328 L21.7982081,7.18749047 Z" id="ðŸ–-Color" fill="#5A5A5A"></path>
        <rect id="_Transparent_Rectangle_" x="0" y="0" width="24" height="24"></rect>
    </g>
</svg>