<?xml version="1.0" encoding="UTF-8"?>
<svg width="24px" height="24px" viewBox="0 0 24 24" version="1.1" xmlns="http://www.w3.org/2000/svg" xmlns:xlink="http://www.w3.org/1999/xlink">
    <title>15. Logos/whatsapp</title>
    <g id="15.-Logos/whatsapp" stroke="none" stroke-width="1" fill="none" fill-rule="evenodd">
        <path d="M11.9999947,2.075 C6.50630974,2.075 2.04120267,6.50646425 1.99999471,12 C1.99789956,14.0195441 2.62084088,15.9902509 3.78333333,17.6416667 L2.65833333,20.975 C2.60883351,21.1241883 2.64750364,21.2885363 2.75833333,21.4 C2.86898549,21.5120663 3.03253694,21.5537559 3.18333333,21.5083333 L6.68333333,20.4 C9.75467484,22.3281255 13.6291744,22.4423877 16.8088034,20.6986085 C19.9884325,18.9548294 21.9748379,15.6263168 21.9999947,12 C21.9587973,6.50646425 17.4936903,2.075 11.9999947,2.075 Z M18,16.0083333 C17.4312753,17.0898702 16.3052248,17.7622832 15.0833333,17.75 C14.08492,17.6360558 13.112919,17.3543163 12.2083333,16.9166667 C10.1781355,15.9873325 8.45725408,14.4949379 7.25,12.6166667 C5.65833333,10.5083333 5.58333333,8.53333333 7.11666667,6.9 C7.5309789,6.50897196 8.1053352,6.33604749 8.66666667,6.43333333 C9.10511766,6.48544748 9.48598889,6.75929704 9.675,7.15833333 L9.99166667,7.925 C10.225,8.48333333 10.475,9.08333333 10.5166667,9.18333333 C10.6502268,9.44505664 10.6502268,9.75494336 10.5166667,10.0166667 C10.3040284,10.4407444 10.0224172,10.8265516 9.68333333,11.1583333 C10.1114346,11.8098705 10.6118356,12.4109108 11.175,12.95 C11.8473322,13.533346 12.6175238,13.9932039 13.45,14.3083333 C13.6833333,14.0083333 14.1416667,13.475 14.2833333,13.25 C14.5143539,12.8660315 15.0076599,12.7335015 15.4,12.95 C15.7166667,13.0666667 17.4916667,13.9333333 17.4916667,13.9333333 C17.7170999,14.009791 17.9144683,14.1520123 18.0583333,14.3416667 L18.0583333,14.3416667 C18.3382188,14.8677063 18.3159783,15.5031489 18,16.0083333 L18,16.0083333 Z" id="ðŸ–-Color" fill="#5A5A5A"></path>
        <rect id="_Transparent_Rectangle_" x="0" y="0" width="24" height="24"></rect>
    </g>
</svg>