<?xml version="1.0" encoding="UTF-8"?>
<svg width="24px" height="24px" viewBox="0 0 24 24" version="1.1" xmlns="http://www.w3.org/2000/svg" xmlns:xlink="http://www.w3.org/1999/xlink">
    <title>15. Logos/yahoo</title>
    <g id="15.-Logos/yahoo" stroke="none" stroke-width="1" fill="none" fill-rule="evenodd">
        <path d="M10.7489421,5.32765249 C10.9792568,5.32765249 11.1659638,5.51435947 11.1659638,5.74467421 L11.1659638,5.74467421 L11.1659638,7.41276108 C11.1659638,7.64307582 10.9792568,7.8297828 10.7489421,7.8297828 L10.7489421,7.8297828 L9.18094044,7.8297828 C9.82315388,8.73054972 10.5571121,9.6479975 11.1659638,10.4820409 L11.1659638,10.4820409 L11.9416242,11.4995739 L14.2185628,9.49786968 L13.2760937,9.49786968 C13.0726581,9.49642095 12.8999578,9.34839208 12.8674124,9.14757143 L12.8674124,9.14757143 L12.5754972,7.47948456 C12.5560152,7.35931012 12.5900206,7.23662288 12.6685879,7.14362488 C12.7471551,7.05062688 12.8624382,6.99660532 12.9841785,6.99573937 L12.9841785,6.99573937 L20.4321864,6.99573937 C20.5731128,6.99524788 20.704754,7.06596579 20.7821481,7.18373944 C20.8595422,7.30151309 20.8722181,7.45040822 20.8158464,7.57956977 L20.8158464,7.57956977 L20.0735477,9.24765665 C20.0070106,9.40011509 19.8562321,9.49844893 19.6898877,9.49786968 L19.6898877,9.49786968 L18.0218009,9.49786968 L13.6680941,13.5429804 L13.6680941,16.2369407 L15.8366071,16.6372815 C15.9781581,16.663542 16.0961534,16.7609564 16.1487426,16.8949739 C16.2013317,17.0289915 16.1810763,17.1806562 16.0951605,17.2961758 L16.0951605,17.2961758 L15.2611171,18.4971984 C15.1824158,18.6077393 15.0548525,18.6730766 14.9191593,18.6723584 L14.9191593,18.6723584 L7.17923619,18.6723584 C7.05939255,18.6732139 6.94496905,18.6224779 6.86514922,18.5330797 C6.78532938,18.4436815 6.74782972,18.3242635 6.76221447,18.2052832 L6.76221447,18.2052832 L6.90400185,17.0042606 C6.9274467,16.8058126 7.08836829,16.6518876 7.28766183,16.6372815 C7.53787486,16.6206006 8.6638335,16.4120898 9.49787694,16.2452811 L9.49787694,16.2452811 L9.49787694,13.5262995 C8.38025874,12.0750639 5.677958,8.66382624 4.79387195,7.8297828 L4.79387195,7.8297828 L2.40850772,7.8297828 C2.17819299,7.8297828 1.991486,7.64307582 1.991486,7.41276108 L1.991486,7.41276108 L1.991486,5.74467421 C1.991486,5.51435947 2.17819299,5.32765249 2.40850772,5.32765249 L2.40850772,5.32765249 Z M19.2228234,17.0292819 L20.0568669,17.1043458 L20.0151647,17.1043458 C20.1292721,17.1146082 20.2341318,17.1713636 20.3051232,17.261286 C20.3761146,17.3512085 20.4069843,17.466377 20.3904842,17.5797506 L20.3904842,17.5797506 L20.2820586,18.3137088 C20.253207,18.5178388 20.0795255,18.6702532 19.8733773,18.6723475 L19.8733773,18.6723475 L19.1560999,18.6139645 C18.9389059,18.5965342 18.7717417,18.414834 18.7724304,18.1969427 L18.7724304,18.1969427 L18.7724304,17.4463036 C18.771648,17.3292698 18.8200719,17.2172897 18.9058869,17.1377076 C18.992256,17.0597385 19.1067949,17.0205541 19.2228234,17.0292819 L19.2228234,17.0292819 Z M19.1162305,10.3343318 L19.1894617,10.3402535 C19.4313343,10.3819557 21.4080172,10.5821261 21.6081877,10.5821261 C21.7335469,10.5872222 21.84995,10.648487 21.9251242,10.7489348 C21.9953902,10.8581012 22.0108066,10.9937651 21.9668263,11.1159139 L21.9668263,11.1159139 L20.6323568,16.2869833 C20.5835604,16.468219 20.4197029,16.5945259 20.232016,16.5955793 L20.232016,16.5955793 L19.081036,16.5038346 C18.863842,16.4864043 18.6966778,16.3047041 18.6973481,16.0868128 L18.6973481,16.0868128 L18.6973481,10.7572753 C18.6959241,10.6317832 18.7510655,10.5123102 18.8475039,10.4319983 C18.9427419,10.3531776 19.0675595,10.3196899 19.1894617,10.3402535 Z" id="ðŸ–-Color" fill="#5A5A5A"></path>
        <rect id="_Transparent_Rectangle_" x="0" y="0" width="24" height="24"></rect>
    </g>
</svg>