<?xml version="1.0" encoding="UTF-8"?>
<svg width="24px" height="24px" viewBox="0 0 24 24" version="1.1" xmlns="http://www.w3.org/2000/svg" xmlns:xlink="http://www.w3.org/1999/xlink">
    <title>15. Logos/youtube_clip</title>
    <g id="15.-Logos/youtube_clip" stroke="none" stroke-width="1" fill="none" fill-rule="evenodd">
        <path d="M18.7166667,4.91666667 L5.28333333,4.91666667 C3.4699984,4.91666667 2,6.38666507 2,8.2 L2,15.8 C2,17.6133349 3.4699984,19.0833333 5.28333333,19.0833333 L18.7166667,19.0833333 C20.5300016,19.0833333 22,17.6133349 22,15.8 L22,8.2 C22,6.38666507 20.5300016,4.91666667 18.7166667,4.91666667 Z M15.7833333,12 L10.1416667,15.6333333 C10.0135416,15.7155368 9.85078487,15.7213246 9.71714437,15.6484298 C9.58350386,15.5755349 9.50025333,15.4355614 9.5,15.2833333 L9.5,8.06666667 C9.50025333,7.91443863 9.58350386,7.77446505 9.71714437,7.70157023 C9.85078487,7.62867541 10.0135416,7.6344632 10.1416667,7.71666667 L15.7833333,11.325 C15.9021553,11.4017514 15.9739223,11.5335452 15.9739223,11.675 C15.9739223,11.8164548 15.9021553,11.9482486 15.7833333,12.025 L15.7833333,12 Z" id="ðŸ–-Color" fill="#5A5A5A"></path>
        <rect id="_Transparent_Rectangle_" x="0" y="0" width="24" height="24"></rect>
    </g>
</svg>