<?xml version="1.0" encoding="UTF-8"?>
<svg height="49px" version="1.1" viewBox="0 0 34 49" width="34px" xmlns="http://www.w3.org/2000/svg">
  <title>awards</title>
  <g id="Page-2" stroke="none" stroke-width="1" fill="none" fill-rule="evenodd">
    <g id="Report-Designer-Features" transform="translate(-103.000000, -2587.000000)" fill="#3ABF7C">
      <g id="section4" transform="translate(102.000000, 2450.012037)">
        <g id="awards" transform="translate(1.000000, 136.987963)">
          <path
            d="M34,17.15 C34,22.977815 31.1185,28.12698 26.7142857,31.225985 L26.7142857,49 L20.4344857,49 L17,45.53521 L13.5655143,49 L7.28571429,49 L7.28571429,31.225985 C2.88154857,28.12698 0,22.977815 0,17.15 C0,7.6783245 7.61116714,0 17,0 C26.3888571,0 34,7.6783245 34,17.15 Z M29.1428571,17.15 C29.1428571,23.91543 23.7062571,29.4 17,29.4 C10.2936943,29.4 4.85714286,23.91543 4.85714286,17.15 C4.85714286,10.384521 10.2936943,4.9 17,4.9 C23.7062571,4.9 29.1428571,10.384521 29.1428571,17.15 Z M12.1428571,43.505385 L17,38.605385 L21.8571429,43.50563 L21.8571429,33.589745 C20.3181571,34.051815 18.6878571,34.3 17,34.3 C15.3121429,34.3 13.6818429,34.051815 12.1428571,33.589745 L12.1428571,43.505385 Z"
            id="Shape"></path>
        </g>
      </g>
    </g>
  </g>
</svg>
