<svg id="Group_674" data-name="Group 674" xmlns="http://www.w3.org/2000/svg" width="42" height="42" viewBox="0 0 42 42">
  <g id="menu-grid-o">
    <g id="Group_675" data-name="Group 675">
      <path id="Path_810" data-name="Path 810" d="M14.5,9.25A5.25,5.25,0,1,1,9.25,4,5.25,5.25,0,0,1,14.5,9.25Z"
            transform="translate(-4 -4)" fill="#ff4e00"/>
      <path id="Path_811" data-name="Path 811" d="M14.5,15.25A5.25,5.25,0,1,1,9.25,10,5.25,5.25,0,0,1,14.5,15.25Z"
            transform="translate(-4 5.75)" fill="#ff4e00"/>
      <path id="Path_812" data-name="Path 812" d="M9.25,26.5A5.25,5.25,0,1,0,4,21.25,5.25,5.25,0,0,0,9.25,26.5Z"
            transform="translate(-4 15.5)" fill="#ff4e00"/>
      <path id="Path_813" data-name="Path 813" d="M20.5,9.25A5.25,5.25,0,1,1,15.25,4,5.25,5.25,0,0,1,20.5,9.25Z"
            transform="translate(5.75 -4)" fill="#ff4e00"/>
      <path id="Path_814" data-name="Path 814" d="M15.25,20.5A5.25,5.25,0,1,0,10,15.25,5.25,5.25,0,0,0,15.25,20.5Z"
            transform="translate(5.75 5.75)" fill="#ff4e00"/>
      <path id="Path_815" data-name="Path 815" d="M20.5,21.25A5.25,5.25,0,1,1,15.25,16,5.25,5.25,0,0,1,20.5,21.25Z"
            transform="translate(5.75 15.5)" fill="#ff4e00"/>
      <path id="Path_816" data-name="Path 816" d="M21.25,14.5A5.25,5.25,0,1,0,16,9.25,5.25,5.25,0,0,0,21.25,14.5Z"
            transform="translate(15.5 -4)" fill="#ff4e00"/>
      <path id="Path_817" data-name="Path 817" d="M26.5,15.25A5.25,5.25,0,1,1,21.25,10,5.25,5.25,0,0,1,26.5,15.25Z"
            transform="translate(15.5 5.75)" fill="#ff4e00"/>
      <path id="Path_818" data-name="Path 818" d="M21.25,26.5A5.25,5.25,0,1,0,16,21.25,5.25,5.25,0,0,0,21.25,26.5Z"
            transform="translate(15.5 15.5)" fill="#ff4e00"/>
    </g>
  </g>
</svg>
