<?xml version="1.0" encoding="UTF-8"?>
<svg width="24px" height="24px" viewBox="0 0 24 24" version="1.1" xmlns="http://www.w3.org/2000/svg" xmlns:xlink="http://www.w3.org/1999/xlink">
    <title>14. Wayfinding/escalator_descend</title>
    <g id="14.-Wayfinding/escalator_descend" stroke="none" stroke-width="1" fill="none" fill-rule="evenodd">
        <path d="M9.30166667,8.5625 C9.64749346,8.5625 9.97785169,8.70584293 10.2141667,8.95833333 L10.2141667,8.95833333 L15.97,15.0975 C16.0486216,15.1813498 16.1583894,15.2289962 16.2733333,15.2291667 L16.2733333,15.2291667 L19.0833333,15.2291667 C20.6941639,15.2291667 22,16.5350028 22,18.1458333 C22,19.7566639 20.6941639,21.0625 19.0833333,21.0625 L19.0833333,21.0625 L14.2816667,21.0625 C13.9361296,21.0622327 13.6061169,20.9189457 13.37,20.6666667 L13.37,20.6666667 L7.61333333,14.5275 C7.53471169,14.4436502 7.42494398,14.3960038 7.31,14.3958333 L7.31,14.3958333 L4.91666667,14.3958333 C3.30583615,14.3958333 2,13.0899972 2,11.4791667 C2,9.86833615 3.30583615,8.5625 4.91666667,8.5625 L4.91666667,8.5625 Z M12.9735588,2.95872897 C13.3377285,2.86329723 13.7250539,2.9717869 13.9866667,3.2425 L13.9866667,3.2425 L17.9808333,7.23666667 C18.1435416,7.39932581 18.4072917,7.39932581 18.57,7.23666667 L18.57,7.23666667 L19.6216667,6.18416667 C19.7416791,6.06650341 19.920019,6.03116266 20.0758333,6.09416667 C20.2316596,6.15857702 20.3333333,6.31055317 20.3333333,6.47916667 L20.3333333,6.47916667 L20.3333333,10.6458333 C20.3333333,10.875952 20.1467853,11.0625007 19.9166667,11.0625007 L19.9166667,11.0625007 L15.75,11.0625007 C15.5812426,11.0628019 15.4289679,10.9612809 15.3643464,10.8053861 C15.2997249,10.6494912 15.3355193,10.4700118 15.455,10.3508333 L15.455,10.3508333 L16.5075,9.29916667 C16.6701591,9.1364584 16.6701591,8.87270827 16.5075,8.71 L16.5075,8.71 L12.5141667,4.71583333 C12.2433056,4.45437381 12.1345968,4.06710981 12.2298225,3.70288616 C12.3250482,3.33866251 12.6093891,3.05416071 12.9735588,2.95872897 Z" id="ðŸ–-Color" fill="#5A5A5A"></path>
        <rect id="_Transparent_Rectangle_" x="0" y="0" width="24" height="24"></rect>
    </g>
</svg>