<?xml version="1.0" encoding="UTF-8"?>
<svg width="24px" height="24px" viewBox="0 0 24 24" version="1.1" xmlns="http://www.w3.org/2000/svg" xmlns:xlink="http://www.w3.org/1999/xlink">
    <title>14. Wayfinding/escalator_ascend_person</title>
    <g id="14.-Wayfinding/escalator_ascend_person" stroke="none" stroke-width="1" fill="none" fill-rule="evenodd">
        <path d="M19.5,7.83333333 C20.8807119,7.83333333 22,8.95262146 22,10.3333333 C22,11.7140452 20.8807119,12.8333333 19.5,12.8333333 L19.5,12.8333333 L18.02,12.8333333 C17.692608,12.8324832 17.3781291,12.9609703 17.145,13.1908333 L17.145,13.1908333 L9.7975,20.3841667 C9.32409619,20.8824699 8.66732469,21.165234 7.98,21.1666667 L7.98,21.1666667 L4.5,21.1666667 C3.11928813,21.1666667 2,20.0473785 2,18.6666667 C2,17.2859548 3.11928813,16.1666667 4.5,16.1666667 L4.5,16.1666667 L6.39666667,16.1666667 C6.72405862,16.1675168 7.03853754,16.0390297 7.27166667,15.8091667 L7.27166667,15.8091667 L14.625,8.61083333 C15.096893,8.11444752 15.7517711,7.83333333 16.4366667,7.83333333 L16.4366667,7.83333333 Z M21.375,14.7083333 C21.720178,14.7083333 22,14.9881554 22,15.3333333 L22,15.3333333 L22,18.25 C21.9997778,18.502618 21.8475041,18.7302631 21.6141029,18.8269058 C21.3807017,18.9235485 21.1120723,18.8701836 20.9333333,18.6916667 L20.9333333,18.6916667 L20.2116667,17.97 C20.1725816,17.930816 20.1195114,17.9087943 20.0641667,17.9087943 C20.008822,17.9087943 19.9557518,17.930816 19.9166667,17.97 L19.9166667,17.97 L16.9641667,20.9225 C16.6371843,21.2383102 16.1174294,21.2337936 15.7959845,20.9123488 C15.4745397,20.590904 15.4700232,20.0711491 15.7858333,19.7441667 L15.7858333,19.7441667 L18.7383333,16.7916667 C18.7775174,16.7525816 18.7995391,16.6995114 18.7995391,16.6441667 C18.7995391,16.588822 18.7775174,16.5357518 18.7383333,16.4966667 L18.7383333,16.4966667 L18.0166667,15.775 C17.8381497,15.596261 17.7847848,15.3276316 17.8814275,15.0942304 C17.9780702,14.8608292 18.2057153,14.7085555 18.4583333,14.7083333 L18.4583333,14.7083333 Z M9.5,8.25 C10.1903559,8.25 10.75,8.80964406 10.75,9.5 L10.75,9.5 L10.75,10.5675 C10.75,10.6235911 10.7274912,10.6773359 10.6875,10.7166667 L10.6875,10.7166667 L8.60416667,12.7558333 C8.54431959,12.8144956 8.45514887,12.8315882 8.37785163,12.7992143 C8.3005544,12.7668404 8.25017939,12.6913027 8.25,12.6075 L8.25,12.6075 L8.25,9.5 C8.25,8.80964406 8.80964406,8.25 9.5,8.25 Z M9.5,2.83333333 C10.6505932,2.83333333 11.5833333,3.76607344 11.5833333,4.91666667 C11.5833333,6.0672599 10.6505932,7 9.5,7 C8.34940677,7 7.41666667,6.0672599 7.41666667,4.91666667 C7.41666667,3.76607344 8.34940677,2.83333333 9.5,2.83333333 Z" id="ðŸ–-Color" fill="#5A5A5A"></path>
        <rect id="_Transparent_Rectangle_" x="0" y="0" width="24" height="24"></rect>
    </g>
</svg>