<?xml version="1.0" encoding="UTF-8"?>
<svg width="24px" height="24px" viewBox="0 0 24 24" version="1.1" xmlns="http://www.w3.org/2000/svg" xmlns:xlink="http://www.w3.org/1999/xlink">
    <title>14. Wayfinding/locker_room_key</title>
    <g id="14.-Wayfinding/locker_room_key" stroke="none" stroke-width="1" fill="none" fill-rule="evenodd">
        <path d="M21.5833333,9.08333333 C21.813452,9.08333333 22,9.26988135 22,9.5 L22,9.5 L22,17.4166667 C22,17.969201 21.7805066,18.499105 21.3898058,18.8898058 C20.999105,19.2805066 20.469201,19.5 19.9166667,19.5 L19.9166667,19.5 L4.08333333,19.5 C2.9327401,19.5 2,18.5672599 2,17.4166667 L2,17.4166667 L2,9.5 C2,9.26988135 2.18654802,9.08333333 2.41666667,9.08333333 L2.41666667,9.08333333 Z M12.07,12.6016667 C11.381997,11.2151682 9.83009086,10.4846821 8.32314581,10.8380129 C6.81620075,11.1913437 5.75073716,12.53552 5.75073716,14.0833333 C5.75073716,15.6311466 6.81620075,16.975323 8.32314581,17.3286538 C9.83009086,17.6819846 11.381997,16.9514984 12.07,15.565 C12.1403103,15.4231082 12.2849767,15.3333376 12.4433333,15.3333333 L12.4433333,15.3333333 L17.2441667,15.3333333 C17.3544604,15.3333099 17.4602454,15.2895575 17.5383333,15.2116667 L17.5383333,15.2116667 L18.3716667,14.3783333 C18.4500348,14.3001631 18.4940782,14.1940227 18.4940782,14.0833333 C18.4940782,13.9726439 18.4500348,13.8665036 18.3716667,13.7883333 L18.3716667,13.7883333 L17.5383333,12.955 C17.4602454,12.8771092 17.3544604,12.8333568 17.2441667,12.8333333 L17.2441667,12.8333333 L12.4433333,12.8333333 C12.2849767,12.8333291 12.1403103,12.7435584 12.07,12.6016667 Z M9.08333333,12.8333333 C9.77368927,12.8333333 10.3333333,13.3929774 10.3333333,14.0833333 C10.3333333,14.7736893 9.77368927,15.3333333 9.08333333,15.3333333 C8.3929774,15.3333333 7.83333333,14.7736893 7.83333333,14.0833333 C7.83333333,13.3929774 8.3929774,12.8333333 9.08333333,12.8333333 Z M19.9166667,4.5 C20.469201,4.5 20.999105,4.71949342 21.3898058,5.11019421 C21.7805066,5.50089499 22,6.03079898 22,6.58333333 L22,6.58333333 L22,7.41666667 C22,7.64678531 21.813452,7.83333333 21.5833333,7.83333333 L21.5833333,7.83333333 L2.41666667,7.83333333 C2.18654802,7.83333333 2,7.64678531 2,7.41666667 L2,7.41666667 L2,6.58333333 C2,5.4327401 2.9327401,4.5 4.08333333,4.5 L4.08333333,4.5 Z" id="ðŸ–-Color" fill="#5A5A5A"></path>
        <rect id="_Transparent_Rectangle_" x="0" y="0" width="24" height="24"></rect>
    </g>
</svg>