<?xml version="1.0" encoding="UTF-8"?>
<svg width="24px" height="24px" viewBox="0 0 24 24" version="1.1" xmlns="http://www.w3.org/2000/svg" xmlns:xlink="http://www.w3.org/1999/xlink">
    <title>14. Wayfinding/safety_fire_shield</title>
    <g id="14.-Wayfinding/safety_fire_shield" stroke="none" stroke-width="1" fill="none" fill-rule="evenodd">
        <path d="M22,3.6275 C21.9949615,2.73058697 21.2669267,2.00590201 20.37,2.005 L3.6325,2.005 C2.73461209,2.01004427 2.00952725,2.73959804 2.01,3.6375 L2,9.75416667 C2.04548218,15.6338296 6.14438588,20.7034626 11.8841667,21.9791667 C11.9941439,22.0016157 12.1075228,22.0016157 12.2175,21.9791667 C17.9452472,20.652272 21.9980487,15.5460945 21.99,9.66666667 L22,3.6275 Z M11.9241667,16.5883333 C9.58109862,16.5883333 7.68166667,14.6889014 7.68166667,12.3458333 C7.66130188,10.7680569 8.60982711,9.3389852 10.0716667,8.745 C10.1317387,8.716859 10.201212,8.71687936 10.2612675,8.74505555 C10.321323,8.77323175 10.3657449,8.82664742 10.3825,8.89083333 C10.5314356,9.3533227 10.8166867,9.75999438 11.2008333,10.0575 C11.2493654,10.0996672 11.3145934,10.1171727 11.3777167,10.104971 C11.44084,10.0927693 11.4948453,10.0522162 11.5241667,9.995 C12.1745423,8.52871384 11.9732479,6.82442116 10.9991667,5.55 C10.9369006,5.47162121 10.9339029,5.36153215 10.9918115,5.27988108 C11.0497201,5.19823002 11.1546072,5.16465497 11.2491667,5.1975 C14.1865449,6.36224342 16.1291942,9.18617926 16.1666667,12.3458333 C16.1666667,14.6889014 14.2672347,16.5883333 11.9241667,16.5883333 L11.9241667,16.5883333 Z" id="ðŸ–-Color" fill="#5A5A5A"></path>
        <rect id="_Transparent_Rectangle_" x="0" y="0" width="24" height="24"></rect>
    </g>
</svg>