<?xml version="1.0" encoding="UTF-8"?>
<svg width="24px" height="24px" viewBox="0 0 24 24" version="1.1" xmlns="http://www.w3.org/2000/svg" xmlns:xlink="http://www.w3.org/1999/xlink">
    <title>14. Wayfinding/safety_float</title>
    <g id="14.-Wayfinding/safety_float" stroke="none" stroke-width="1" fill="none" fill-rule="evenodd">
        <path d="M21.1291667,10.3933333 C21.0565353,10.3699542 21.0022998,10.3090189 20.9875,10.2341667 C20.26488,6.58659583 17.4134042,3.73511998 13.7658333,3.0125 C13.6909811,2.99770024 13.6300458,2.94346468 13.6066667,2.87083333 C13.4416909,2.35258152 12.9605432,2.00048113 12.4166667,2 L11.5833333,2 C11.0394568,2.00048113 10.5583091,2.35258152 10.3933333,2.87083333 C10.3699542,2.94346468 10.3090189,2.99770024 10.2341667,3.0125 C6.58659583,3.73511998 3.73511998,6.58659583 3.0125,10.2341667 C2.99770024,10.3090189 2.94346468,10.3699542 2.87083333,10.3933333 C2.35258152,10.5583091 2.00048113,11.0394568 2,11.5833333 L2,12.4166667 C2.00048113,12.9605432 2.35258152,13.4416909 2.87083333,13.6066667 C2.94346468,13.6300458 2.99770024,13.6909811 3.0125,13.7658333 C3.73511998,17.4134042 6.58659583,20.26488 10.2341667,20.9875 C10.3090189,21.0022998 10.3699542,21.0565353 10.3933333,21.1291667 C10.5583091,21.6474185 11.0394568,21.9995189 11.5833333,22 L12.4166667,22 C12.9605432,21.9995189 13.4416909,21.6474185 13.6066667,21.1291667 C13.6300458,21.0565353 13.6909811,21.0022998 13.7658333,20.9875 C17.4134042,20.26488 20.26488,17.4134042 20.9875,13.7658333 C21.0022998,13.6909811 21.0565353,13.6300458 21.1291667,13.6066667 C21.6474185,13.4416909 21.9995189,12.9605432 22,12.4166667 L22,11.5833333 C21.9995189,11.0394568 21.6474185,10.5583091 21.1291667,10.3933333 Z M19.2416667,10.0708333 C19.258503,10.1333609 19.245307,10.2001623 19.2059597,10.2515914 C19.1666123,10.3030204 19.1055879,10.3332292 19.0408333,10.3333333 L16.405,10.3333333 C16.3215002,10.3333333 16.2460653,10.2834836 16.2133333,10.2066667 C15.7475247,9.12098754 14.8823458,8.25580862 13.7966667,7.79 C13.7174151,7.75784599 13.6658659,7.6805222 13.6666575,7.595 L13.6666575,4.95916667 C13.6664017,4.89352997 13.6973317,4.83167007 13.75,4.7925 C13.8011472,4.75247292 13.8682872,4.73916867 13.9308333,4.75666667 C16.522816,5.4530161 18.5469437,7.4784143 19.2416667,10.0708333 L19.2416667,10.0708333 Z M12,14.9166667 C10.8203185,14.9166667 9.75679595,14.2060436 9.30535136,13.11616 C8.85390678,12.0262764 9.1034444,10.771766 9.93760522,9.93760522 C10.771766,9.1034444 12.0262764,8.85390678 13.11616,9.30535136 C14.2060436,9.75679595 14.9166667,10.8203185 14.9166667,12 C14.9166667,13.6108305 13.6108305,14.9166667 12,14.9166667 L12,14.9166667 Z M10.105,4.75 C10.1594244,4.73553368 10.2174806,4.74712499 10.2621772,4.7813815 C10.3068738,4.81563801 10.3331566,4.86868604 10.3333333,4.925 L10.3333333,7.59166667 C10.3333333,7.67516651 10.2834836,7.7506014 10.2066667,7.78333333 C9.12098754,8.24914196 8.25580862,9.11432087 7.79,10.2 C7.75726806,10.2768169 7.68183317,10.3266684 7.59833333,10.3266684 L4.95916667,10.3266684 C4.89352997,10.3269316 4.83167007,10.2960017 4.7925,10.2433333 C4.75247292,10.1921862 4.73916867,10.1250461 4.75666667,10.0625 C5.45889947,7.46134912 7.49918724,5.43473109 10.105,4.75 Z M4.75833333,13.9291667 C4.74149705,13.8666391 4.754693,13.7998377 4.79404033,13.7484086 C4.83338766,13.6969796 4.89441212,13.6667708 4.95916667,13.6666667 L7.595,13.6666667 C7.67849984,13.6666667 7.75393473,13.7165164 7.78666667,13.7933333 C8.25247529,14.8790125 9.11765421,15.7441914 10.2033333,16.21 C10.2801503,16.2427319 10.3300017,16.3181668 10.3300017,16.4016667 L10.3300017,19.0375 C10.3302649,19.1031367 10.299335,19.1649966 10.2466667,19.2041667 C10.1955195,19.2441937 10.1283795,19.257498 10.0658333,19.24 C7.47598015,18.543217 5.45349017,16.5194568 4.75833333,13.9291667 L4.75833333,13.9291667 Z M13.9291667,19.2416667 C13.8666391,19.258503 13.7998377,19.245307 13.7484086,19.2059597 C13.6969796,19.1666123 13.6667708,19.1055879 13.6666667,19.0408333 L13.6666667,16.405 C13.6666667,16.3215002 13.7165164,16.2460653 13.7933333,16.2133333 C14.8790125,15.7475247 15.7441914,14.8823458 16.21,13.7966667 C16.2427319,13.7198497 16.3181668,13.6699983 16.4016667,13.6699983 L19.0375,13.6699983 C19.1031367,13.6697351 19.1649966,13.700665 19.2041667,13.7533333 C19.2441937,13.8044805 19.257498,13.8716205 19.24,13.9341667 C18.543217,16.5240199 16.5194568,18.5465098 13.9291667,19.2416667 L13.9291667,19.2416667 Z" id="ðŸ–-Color" fill="#5A5A5A"></path>
        <rect id="_Transparent_Rectangle_" x="0" y="0" width="24" height="24"></rect>
    </g>
</svg>