<?xml version="1.0" encoding="UTF-8"?>
<svg width="24px" height="24px" viewBox="0 0 24 24" version="1.1" xmlns="http://www.w3.org/2000/svg" xmlns:xlink="http://www.w3.org/1999/xlink">
    <title>14. Wayfinding/stairs_ascend</title>
    <g id="14.-Wayfinding/stairs_ascend" stroke="none" stroke-width="1" fill="none" fill-rule="evenodd">
        <path d="M21.1666667,7 C21.626904,7 22,7.37309604 22,7.83333333 L22,7.83333333 L22,21.1666667 C22,21.626904 21.626904,22 21.1666667,22 L21.1666667,22 L5.33333333,22 C4.87309604,22 4.5,21.626904 4.5,21.1666667 L4.5,21.1666667 L4.5,18.25 C4.5,17.5596441 5.05964406,17 5.75,17 L5.75,17 L7.41666667,17 C7.64678531,17 7.83333333,16.813452 7.83333333,16.5833333 L7.83333333,16.5833333 L7.83333333,14.9166667 C7.83333333,14.2263107 8.3929774,13.6666667 9.08333333,13.6666667 L9.08333333,13.6666667 L10.75,13.6666667 C10.9801186,13.6666667 11.1666667,13.4801186 11.1666667,13.25 L11.1666667,13.25 L11.1666667,11.5833333 C11.1666667,10.8929774 11.7263107,10.3333333 12.4166667,10.3333333 L12.4166667,10.3333333 L14.0833333,10.3333333 C14.313452,10.3333333 14.5,10.1467853 14.5,9.91666667 L14.5,9.91666667 L14.5,8.25 C14.5,7.55964406 15.0596441,7 15.75,7 L15.75,7 Z M12.2083333,2 C12.438452,2 12.625,2.18654802 12.625,2.41666667 L12.625,2.41666667 L12.625,6.58333333 C12.6239753,6.75063602 12.5229802,6.90110104 12.3685333,6.96542363 C12.2140864,7.02974622 12.0361438,6.99545055 11.9166667,6.87833333 L11.9166667,6.87833333 L11.0066667,5.97333333 C10.9284964,5.89496525 10.8223561,5.85092185 10.7116667,5.85092185 C10.6009773,5.85092185 10.4948369,5.89496525 10.4166667,5.97333333 L10.4166667,5.97333333 L4.13416667,12.2591667 C3.6458549,12.7474784 2.85414511,12.7474784 2.36583335,12.2591666 C1.87752159,11.7708549 1.87752158,10.9791451 2.36583333,10.4908333 L2.36583333,10.4908333 L8.65166667,4.20583333 C8.73003475,4.12766311 8.77407815,4.02152272 8.77407815,3.91083333 C8.77407815,3.80014395 8.73003475,3.69400355 8.65166667,3.61583333 L8.65166667,3.61583333 L7.75,2.71166667 C7.63094356,2.59291727 7.59493533,2.41424292 7.65870336,2.25864892 C7.72247139,2.10305492 7.87351564,2.00104141 8.04166667,2 L8.04166667,2 Z" id="ðŸ–-Color" fill="#5A5A5A"></path>
        <rect id="_Transparent_Rectangle_" x="0" y="0" width="24" height="24"></rect>
    </g>
</svg>