<?xml version="1.0" encoding="UTF-8"?>
<svg width="24px" height="24px" viewBox="0 0 24 24" version="1.1" xmlns="http://www.w3.org/2000/svg" xmlns:xlink="http://www.w3.org/1999/xlink">
    <title>14. Wayfinding/stairs_descend</title>
    <g id="14.-Wayfinding/stairs_descend" stroke="none" stroke-width="1" fill="none" fill-rule="evenodd">
        <path d="M8.25,7 C8.94035594,7 9.5,7.55964406 9.5,8.25 L9.5,8.25 L9.5,9.91666667 C9.5,10.1467853 9.68654802,10.3333333 9.91666667,10.3333333 L9.91666667,10.3333333 L11.5833333,10.3333333 C12.2736893,10.3333333 12.8333333,10.8929774 12.8333333,11.5833333 L12.8333333,11.5833333 L12.8333333,13.25 C12.8333333,13.4801186 13.0198814,13.6666667 13.25,13.6666667 L13.25,13.6666667 L14.9166667,13.6666667 C15.6070226,13.6666667 16.1666667,14.2263107 16.1666667,14.9166667 L16.1666667,14.9166667 L16.1666667,16.5833333 C16.1666667,16.813452 16.3532147,17 16.5833333,17 L16.5833333,17 L18.25,17 C18.9403559,17 19.5,17.5596441 19.5,18.25 L19.5,18.25 L19.5,21.1666667 C19.5,21.626904 19.126904,22 18.6666667,22 L18.6666667,22 L2.83333333,22 C2.37309604,22 2,21.626904 2,21.1666667 L2,21.1666667 L2,7.83333333 C2,7.37309604 2.37309604,7 2.83333333,7 L2.83333333,7 Z M11.7408334,2.36583335 C12.2291451,1.87752159 13.0208549,1.87752158 13.5091667,2.36583333 L13.5091667,2.36583333 L19.7941667,8.65166667 C19.8723369,8.73003475 19.9784773,8.77407815 20.0891667,8.77407815 C20.1998561,8.77407815 20.3059964,8.73003475 20.3841667,8.65166667 L20.3841667,8.65166667 L21.2883333,7.74666667 C21.407588,7.62757544 21.5868416,7.59205363 21.7425,7.65666667 C21.8994534,7.72153684 22.0013289,7.87517438 22.0000128,8.045 L22.0000128,8.045 L22.0000128,12.2116667 C22.0000128,12.4417853 21.813452,12.628334 21.5833333,12.628334 L21.5833333,12.628334 L17.4166667,12.628334 C17.2479093,12.6286353 17.0956346,12.5271143 17.0310131,12.3712194 C16.9663915,12.2153245 17.002186,12.0358452 17.1216667,11.9166667 L17.1216667,11.9166667 L18.0266667,11.0066667 C18.1050348,10.9284964 18.1490782,10.8223561 18.1490782,10.7116667 C18.1490782,10.6009773 18.1050348,10.4948369 18.0266667,10.4166667 L18.0266667,10.4166667 L11.7408333,4.13416667 C11.2525216,3.6458549 11.2525216,2.85414511 11.7408334,2.36583335 Z" id="ðŸ–-Color" fill="#5A5A5A"></path>
        <rect id="_Transparent_Rectangle_" x="0" y="0" width="24" height="24"></rect>
    </g>
</svg>