<?xml version="1.0" encoding="UTF-8"?>
<svg width="24px" height="24px" viewBox="0 0 24 24" version="1.1" xmlns="http://www.w3.org/2000/svg" xmlns:xlink="http://www.w3.org/1999/xlink">
    <title>14. Wayfinding/stairs_person_ascend_1</title>
    <g id="14.-Wayfinding/stairs_person_ascend_1" stroke="none" stroke-width="1" fill="none" fill-rule="evenodd">
        <path d="M21.1912,15.3633333 C21.6330278,15.3633333 21.9912,15.7364294 21.9912,16.1966667 C21.9912,16.656904 21.6330278,17.03 21.1912,17.03 L21.1912,17.03 L19.3128,17.03 C19.2596915,17.0297774 19.2086964,17.0516552 19.1711427,17.0907737 C19.133589,17.1298921 19.1125863,17.183012 19.1128,17.2383333 L19.1128,17.2383333 L19.1128,18.28 C19.1128,18.7402373 18.7546278,19.1133333 18.3128,19.1133333 L18.3128,19.1133333 L16.1128,19.1133333 C16.0596915,19.1131107 16.0086964,19.1349886 15.9711427,19.174107 C15.933589,19.2132254 15.9125863,19.2663453 15.9128,19.3216667 L15.9128,19.3216667 L15.9128,20.3633333 C15.9128,20.8235706 15.5546278,21.1966667 15.1128,21.1966667 L15.1128,21.1966667 L12.4784,21.1966667 C12.3877656,21.1966281 12.3085316,21.2603277 12.2856,21.3516667 C12.1817753,21.755755 11.8064494,22.017046 11.4083111,21.96241 C11.0101727,21.907774 10.7126159,21.5541441 10.7127999,21.1358333 L10.7127999,21.1358333 L10.7127999,20.78 C10.7127999,20.0896441 11.2500583,19.53 11.9128,19.53 L11.9128,19.53 L14.1128,19.53 C14.2232569,19.53 14.3128,19.436726 14.3128,19.3216667 L14.3128,19.3216667 L14.3128,18.6966667 C14.3128,18.0063107 14.8500583,17.4466667 15.5128,17.4466667 L15.5128,17.4466667 L17.3128,17.4466667 C17.4232569,17.4466667 17.5128,17.3533927 17.5128,17.2383333 L17.5128,17.2383333 L17.5128,16.6133333 C17.5128,15.9229774 18.0500583,15.3633333 18.7127999,15.3633333 L18.7127999,15.3633333 Z M7.4064,7.15 C8.10677822,7.19565962 8.80241635,7.30072996 9.4864,7.46416667 C10.5150286,7.60864199 11.3597556,8.38243615 11.6288,9.42666667 C11.6981544,9.68724571 11.8917494,9.89205814 12.1408,9.96833333 L12.1408,9.96833333 L13.3968,10.3533333 C13.8613853,10.4943445 14.1621972,10.9618692 14.1108329,11.4630901 C14.0594685,11.9643109 13.6706921,12.3551559 13.188,12.3908333 L13.188,12.3908333 L13.1144,12.3908333 C13.0190132,12.3906828 12.9241542,12.3760857 12.8328,12.3475 L12.8328,12.3475 L11.576,11.9625 C10.6627535,11.6861592 9.95293213,10.9354012 9.7016,9.98 C9.63771473,9.72471052 9.42463488,9.54030418 9.172,9.52166667 C9.11528243,9.50948047 9.0562785,9.52350145 9.01024556,9.56010402 C8.96421262,9.5967066 8.93567062,9.6522968 8.932,9.7125 L8.932,9.7125 L8.7896,12.0158333 C8.7837769,12.1079499 8.83684521,12.1930735 8.92,12.225 C9.3272,12.38 9.9008,12.6208333 10.7328,12.9966667 C11.621689,13.3997055 12.3030796,14.1789192 12.6056,15.1383333 L12.6056,15.1383333 L13.2456,16.9183333 C13.4185756,17.4648651 13.1334705,18.0539837 12.6088,18.2341666 C12.0841295,18.4143495 11.5185756,18.1173651 11.3456,17.5708333 L11.3456,17.5708333 L10.7056,15.7891667 C10.5819168,15.3946232 10.3021102,15.0740418 9.9368,14.9083333 C9.572,14.7416667 9.2656,14.6083333 9.012,14.5 C8.94711765,14.4729554 8.87346069,14.4823889 8.8168,14.525 C8.76165747,14.568102 8.73148254,14.6375673 8.7368,14.7091667 L8.7368,14.7091667 L8.7928,15.5133333 C8.84180083,16.2098288 8.69146625,16.9058223 8.3608,17.5133333 L8.3608,17.5133333 L6.8976,19.8858333 C6.7246376,20.2159279 6.39429819,20.4232828 6.03331055,20.4284451 C5.6723229,20.4334174 5.33673939,20.2354103 5.1553006,19.9102906 C4.97386182,19.5851709 4.97474067,19.1834216 5.1576,18.8591667 L5.1576,18.8591667 L6.624,16.4866667 C6.76063962,16.2364629 6.82273982,15.9495744 6.8024,15.6625 C6.70535385,14.2819551 6.68136213,13.9676775 6.67797551,13.8598206 L6.67808694,13.8111239 C6.67855503,13.8017998 6.67926154,13.793109 6.68,13.7816667 L6.68,13.7816667 L6.9336,9.67666667 C6.93880173,9.5982098 6.90097645,9.52343213 6.83591085,9.48354274 C6.77084525,9.44365335 6.68972256,9.44550827 6.6264,9.48833333 C6.516,9.56166667 6.3584,9.675 6.08,9.87 C5.55533246,10.2365108 5.25948055,10.8678168 5.3048,11.5241667 C5.34469611,12.0979755 4.93081252,12.5969809 4.38,12.6391667 L4.38,12.6391667 L4.3064,12.6391667 C3.78272553,12.6388377 3.34813466,12.2174096 3.3104,11.6733333 C3.21266598,10.2729528 3.84203099,8.92521276 4.96,8.14083333 L4.96,8.14083333 L5.5152,7.75 C6.07461091,7.3592414 6.73285593,7.15040732 7.4064,7.15 Z M4.8672,15.1333333 C5.09957108,14.9907933 5.38524479,14.9797926 5.62708504,15.1040716 C5.86892528,15.2283506 6.03438357,15.4711831 6.0672,15.75 L6.0672,15.75 L6.07392795,15.8710161 C6.06990548,16.1515457 5.92988089,16.4146819 5.6968,16.5658333 C5.0792,16.9675 4.008,17.5891667 4.008,17.5891667 C3.76107377,17.7446789 3.45288558,17.7496271 3.20147553,17.602116 C2.95006548,17.4546049 2.79439592,17.1774951 2.79408987,16.8769233 C2.79378473,16.5763514 2.94889046,16.2988988 3.2,16.1508333 L3.2,16.1508333 Z M20.7128,5.47833333 C20.9599319,5.31848565 21.2708851,5.31097377 21.524865,5.45871579 C21.778845,5.60645782 21.9358188,5.8861664 21.9348126,6.18918434 C21.9337966,6.49220229 21.7749598,6.77076739 21.52,6.91666667 L21.52,6.91666667 L15.628,10.5108333 C15.2639909,10.725487 14.8026844,10.6118021 14.5696,10.25 L14.5696,10.25 L14.5616,10.2366667 C14.4370109,10.0492229 14.394115,9.81572741 14.4434629,9.593611 C14.4928108,9.37149459 14.6298231,9.18136981 14.8208,9.07 L14.8208,9.07 Z M7.044,2.75 C7.63606511,2.03829132 8.61286216,1.82881975 9.4266603,2.23904473 C10.2404584,2.64926971 10.6888704,3.57717048 10.5204529,4.50243438 C10.3520355,5.42769827 9.60867304,6.1202171 8.7072,6.19166667 C8.6576,6.19667027 8.6088,6.19667027 8.56,6.19667027 C7.7765463,6.19817884 7.06438886,5.72304745 6.73805351,4.98111526 C6.41171815,4.23918307 6.53130567,3.36709087 7.044,2.75 Z" id="ðŸ–-Color" fill="#5A5A5A"></path>
        <rect id="_Transparent_Rectangle_" x="0" y="0" width="24" height="24"></rect>
    </g>
</svg>