<?xml version="1.0" encoding="UTF-8"?>
<svg width="24px" height="24px" viewBox="0 0 24 24" version="1.1" xmlns="http://www.w3.org/2000/svg" xmlns:xlink="http://www.w3.org/1999/xlink">
    <title>14. Wayfinding/suitcase_key</title>
    <g id="14.-Wayfinding/suitcase_key" stroke="none" stroke-width="1" fill="none" fill-rule="evenodd">
        <path d="M13.875,3.35416667 C15.0255932,3.35416667 15.9583333,4.28690677 15.9583333,5.4375 L15.9583333,5.4375 L15.9583333,6.0625 C15.9583333,6.29261865 16.1448814,6.47916667 16.375,6.47916667 L16.375,6.47916667 L19.9166667,6.47916667 C20.469201,6.47916667 20.999105,6.69866008 21.3898058,7.08936087 C21.7805066,7.48006166 22,8.00996565 22,8.5625 L22,8.5625 L22,18.5625 C22,19.1150344 21.7805066,19.6449383 21.3898058,20.0356391 C20.999105,20.4263399 20.469201,20.6458333 19.9166667,20.6458333 L19.9166667,20.6458333 L4.08333333,20.6458333 C3.53079898,20.6458333 3.00089499,20.4263399 2.61019421,20.0356391 C2.21949342,19.6449383 2,19.1150344 2,18.5625 L2,18.5625 L2,8.5625 C2,7.41190677 2.9327401,6.47916667 4.08333333,6.47916667 L4.08333333,6.47916667 L7.625,6.47916667 C7.85511865,6.47916667 8.04166667,6.29261865 8.04166667,6.0625 L8.04166667,6.0625 L8.04166667,5.4375 C8.04166667,4.28690677 8.97440677,3.35416667 10.125,3.35416667 L10.125,3.35416667 Z M15.7724451,11.3532545 C14.5475538,10.7610998 13.0759627,11.0944585 12.2258333,12.1566667 C12.1467332,12.2552036 12.0271914,12.3125224 11.9008333,12.3125 L11.9008333,12.3125 L7.41666667,12.3125 C7.30608428,12.3123025 7.19995894,12.3560717 7.12166667,12.4341667 L7.12166667,12.4341667 L5.87166667,13.6841667 C5.79329858,13.7623369 5.74925518,13.8684773 5.74925518,13.9791667 C5.74925518,14.0898561 5.79329858,14.1959964 5.87166667,14.2741667 L5.87166667,14.2741667 L7.12166667,15.5241667 C7.19995894,15.6022616 7.30608428,15.6460308 7.41666667,15.6458333 L7.41666667,15.6458333 L11.9008333,15.6458333 C12.0271914,15.645811 12.1467332,15.7031297 12.2258333,15.8016667 C12.7796934,16.4911858 13.6155842,16.8933567 14.5,16.8958349 C15.8605161,16.897227 17.0412801,15.9578099 17.3457033,14.6317885 C17.6501265,13.3057671 16.9973365,11.9454093 15.7724451,11.3532545 Z M14.5,12.7333333 C15.188732,12.7333333 15.7477042,13.2904385 15.75,13.9791667 C15.75,14.6666782 15.193062,15.2242284 14.5055509,15.224993 C13.8180398,15.2257562 13.2598681,14.669445 13.2583333,13.9819352 C13.2568048,13.2944254 13.8124923,12.7356327 14.5,12.7333333 Z M13.875,5.02083333 L10.125,5.02083333 C9.89619369,5.02397118 9.71147118,5.20869369 9.70833333,5.4375 L9.70833333,5.4375 L9.70833333,6.0625 C9.70833333,6.29261865 9.89488135,6.47916667 10.125,6.47916667 L10.125,6.47916667 L13.875,6.47916667 C14.1051186,6.47916667 14.2916667,6.29261865 14.2916667,6.0625 L14.2916667,6.0625 L14.2916667,5.4375 C14.2885288,5.20869369 14.1038063,5.02397118 13.875,5.02083333 L13.875,5.02083333 Z" id="ðŸ–-Color" fill="#5A5A5A"></path>
        <rect id="_Transparent_Rectangle_" x="0" y="0" width="24" height="24"></rect>
    </g>
</svg>