<?xml version="1.0" encoding="UTF-8"?>
<svg width="24px" height="24px" viewBox="0 0 24 24" version="1.1" xmlns="http://www.w3.org/2000/svg" xmlns:xlink="http://www.w3.org/1999/xlink">
    <title>14. Wayfinding/ticket</title>
    <g id="14.-Wayfinding/ticket" stroke="none" stroke-width="1" fill="none" fill-rule="evenodd">
        <path d="M21.3333333,10.775 C21.7213885,10.6957886 22,10.3543905 22,9.95833333 L22,6.58333333 C22,5.8929774 21.4403559,5.33333333 20.75,5.33333333 L3.25,5.33333333 C2.55964406,5.33333333 1.99999998,5.8929774 1.99999998,6.58333333 L1.99999998,9.95833333 C1.99999998,10.3543905 2.27861145,10.6957886 2.66666667,10.775 C3.24924766,10.8932981 3.66791981,11.4055296 3.66791981,12 C3.66791981,12.5944704 3.24924766,13.1067019 2.66666667,13.225 C2.27861145,13.3042114 1.99999998,13.6456095 1.99999998,14.0416667 L1.99999998,17.4166667 C1.99999998,17.7481873 2.13169605,18.0661297 2.36611652,18.3005501 C2.600537,18.5349706 2.91847939,18.6666667 3.25,18.6666667 L20.75,18.6666667 C21.4403559,18.6666667 22,18.1070226 22,17.4166667 L22,14.0416667 C22,13.6456095 21.7213885,13.3042114 21.3333333,13.225 C20.7507523,13.1067019 20.3320802,12.5944704 20.3320802,12 C20.3320802,11.4055296 20.7507523,10.8932981 21.3333333,10.775 Z M6.375,17.2083333 C6.02982203,17.2083333 5.75,16.9285113 5.75,16.5833333 C5.75,16.2381554 6.02982203,15.9583333 6.375,15.9583333 C6.72017797,15.9583333 7,16.2381554 7,16.5833333 C7,16.9285113 6.72017797,17.2083333 6.375,17.2083333 Z M6.375,14.1525 C6.02982203,14.1525 5.75,13.872678 5.75,13.5275 C5.75,13.182322 6.02982203,12.9025 6.375,12.9025 C6.72017797,12.9025 7,13.182322 7,13.5275 C7,13.872678 6.72017797,14.1525 6.375,14.1525 L6.375,14.1525 Z M6.375,11.0975 C6.02982203,11.0975 5.75,10.817678 5.75,10.4725 C5.75,10.127322 6.02982203,9.8475 6.375,9.8475 C6.72017797,9.8475 7,10.127322 7,10.4725 C7,10.817678 6.72017797,11.0975 6.375,11.0975 Z M6.375,8.04166667 C6.02982203,8.04166667 5.75,7.76184464 5.75,7.41666667 C5.75,7.0714887 6.02982203,6.79166667 6.375,6.79166667 C6.72017797,6.79166667 7,7.0714887 7,7.41666667 C7,7.76184464 6.72017797,8.04166667 6.375,8.04166667 Z M16.1666667,15.5416667 C15.3612514,15.5416667 14.7083333,14.8887486 14.7083333,14.0833333 C14.7083333,13.2779181 15.3612514,12.625 16.1666667,12.625 C16.9720819,12.625 17.625,13.2779181 17.625,14.0833333 C17.6245403,14.8885581 16.9718914,15.5412069 16.1666667,15.5416667 Z M17.4166667,9.29166667 L9.91666667,9.29166667 C9.5714887,9.29166667 9.29166667,9.01184464 9.29166667,8.66666667 C9.29166667,8.3214887 9.5714887,8.04166667 9.91666667,8.04166667 L17.4166667,8.04166667 C17.7618446,8.04166667 18.0416667,8.3214887 18.0416667,8.66666667 C18.0416667,9.01184464 17.7618446,9.29166667 17.4166667,9.29166667 Z" id="ðŸ–-Color" fill="#5A5A5A"></path>
        <rect id="_Transparent_Rectangle_" x="0" y="0" width="24" height="24"></rect>
    </g>
</svg>