<?xml version="1.0" encoding="UTF-8"?>
<svg width="24px" height="24px" viewBox="0 0 24 24" version="1.1" xmlns="http://www.w3.org/2000/svg" xmlns:xlink="http://www.w3.org/1999/xlink">
    <title>14. Wayfinding/walking_fast</title>
    <g id="14.-Wayfinding/walking_fast" stroke="none" stroke-width="1" fill="none" fill-rule="evenodd">
        <path d="M7.01583333,9.25833333 C8.2325,8.37083333 10.2991667,7.565 13.25,8.7875 C13.7975838,9.00345391 14.1887543,9.49463961 14.2766667,10.0766667 C14.3811514,10.7768124 14.7449145,11.4121338 15.2958333,11.8566667 C15.9044992,12.0829566 16.5820969,12.0283461 17.1466667,11.7075 C17.9983356,11.3584508 18.9717144,11.7658596 19.3208333,12.6175 C19.4893553,13.0271885 19.4878417,13.4871123 19.3166268,13.8956827 C19.1454118,14.3042531 18.818584,14.6278511 18.4083333,14.795 C17.6181261,15.1359033 16.7688163,15.318788 15.9083333,15.3333333 C15.4802663,15.3349437 15.0539329,15.2788841 14.6408333,15.1666667 C14.5655481,15.1462177 14.4851469,15.1695436 14.4324953,15.2271095 C14.3798436,15.2846753 14.3637655,15.3668333 14.3908333,15.44 L14.3908333,15.44 L16.0075,19.75 C16.3063866,20.6057328 15.8665859,21.5434429 15.0175175,21.860767 C14.168449,22.178091 13.2214464,21.7586736 12.8858333,20.9166667 L12.8858333,20.9166667 L11.9133333,18.3258333 C11.8828842,18.2441723 11.8046511,18.1902414 11.7175,18.1908333 C11.6302459,18.1917026 11.5526206,18.2464384 11.5225,18.3283333 L11.5225,18.3283333 L10.5983333,20.8975 C10.3966271,21.4578115 9.91132029,21.8679518 9.32522316,21.9734249 C8.73912603,22.078898 8.14128073,21.86368 7.7568898,21.4088415 C7.37249887,20.9540031 7.25996045,20.3286449 7.46166667,19.7683333 L7.46166667,19.7683333 L10.3341667,11.7908333 C10.3580513,11.7238972 10.3461661,11.649403 10.3026386,11.5932222 C10.2591111,11.5370414 10.1899471,11.5069254 10.1191667,11.5133333 C9.70828706,11.545059 9.31558307,11.695943 8.98916667,11.9475 C8.44463809,12.3849577 8.02142854,12.9547842 7.76,13.6025 C7.53901038,14.1633595 7.03238374,14.5611717 6.43511286,14.642825 C5.83784199,14.7244782 5.2430307,14.4772442 4.87961269,13.9962794 C4.51619468,13.5153146 4.4408203,12.8755929 4.6825,12.3233333 C5.17445289,11.1126769 5.97980271,10.0547924 7.01583333,9.25833333 Z M14.0291667,2 C15.6399972,2 16.9458333,3.30583615 16.9458333,4.91666667 C16.9458333,6.52749719 15.6399972,7.83333333 14.0291667,7.83333333 C12.4183361,7.83333333 11.1125,6.52749719 11.1125,4.91666667 C11.1125,3.30583615 12.4183361,2 14.0291667,2 Z" id="ðŸ–-Color" fill="#5A5A5A"></path>
        <rect id="_Transparent_Rectangle_" x="0" y="0" width="24" height="24"></rect>
    </g>
</svg>