<?xml version="1.0" encoding="UTF-8"?>
<svg width="24px" height="24px" viewBox="0 0 24 24" version="1.1" xmlns="http://www.w3.org/2000/svg" xmlns:xlink="http://www.w3.org/1999/xlink">
    <title>14. Wayfinding/walking_cross_street</title>
    <g id="14.-Wayfinding/walking_cross_street" stroke="none" stroke-width="1" fill="none" fill-rule="evenodd">
        <path d="M2.85333333,17.1333333 C2.95767512,16.6872233 3.39909303,16.4060183 3.8475,16.5 C4.06334412,16.5478068 4.25134636,16.6794218 4.37012713,16.8658763 C4.4889079,17.0523309 4.52873173,17.2783429 4.48083333,17.4941667 L4.48083333,17.4941667 L3.6475,21.2441667 C3.54785862,21.6935884 3.10275504,21.9771414 2.65333334,21.8775 C2.20391163,21.7778586 1.92035864,21.332755 2.02,20.8833333 L2.02,20.8833333 Z M5.77,17.1333333 C5.87355942,16.6866692 6.31558823,16.405075 6.76416667,16.5 C6.98001078,16.5478068 7.16801303,16.6794218 7.2867938,16.8658763 C7.40557457,17.0523309 7.4453984,17.2783429 7.3975,17.4941667 L7.3975,17.4941667 L6.56416667,21.2441667 C6.49971001,21.5348915 6.28504971,21.7691452 6.00104625,21.8586865 C5.71704279,21.9482279 5.40684304,21.8794534 5.18729624,21.6782699 C4.96774945,21.4770863 4.87220999,21.1740582 4.93666667,20.8833333 L4.93666667,20.8833333 Z M20.1525,16.4983333 C20.6019217,16.398692 21.0470253,16.682245 21.1466667,17.1316667 L21.1466667,17.1316667 L21.98,20.8816667 C22.0796414,21.3310884 21.7960884,21.7761919 21.3466667,21.8758333 C20.897245,21.9754747 20.4521414,21.6919217 20.3525,21.2425 L20.3525,21.2425 L19.5191667,17.4925 C19.4195253,17.0430783 19.7030783,16.5979747 20.1525,16.4983333 Z M17.4441667,16.4983334 C17.8935884,16.398692 18.3386919,16.682245 18.4383333,17.1316667 L18.4383333,17.1316667 L19.2716667,20.8816667 C19.371308,21.3310884 19.087755,21.7761919 18.6383333,21.8758333 C18.1889116,21.9754747 17.7438081,21.6919217 17.6441667,21.2425 L17.6441667,21.2425 L16.8108333,17.4925 C16.711192,17.0430783 16.994745,16.5979747 17.4441667,16.4983334 Z M7.41666667,8.95666667 C8.49294086,7.61054002 10.1934262,6.9232974 11.9027763,7.143628 C13.6121263,7.3639586 15.0827576,8.45994961 15.7825,10.035 C16.0034819,10.5328775 16.4969513,10.8539102 17.0416667,10.8541667 L17.0416667,10.8541667 L17.8333333,10.8541667 C18.5236893,10.8541667 19.0833333,11.4138107 19.0833333,12.1041667 C19.0833333,12.7945226 18.5236893,13.3541667 17.8333333,13.3541667 L17.8333333,13.3541667 L17.0408333,13.3541667 C15.5089054,13.3529312 14.1209243,12.4510047 13.4975,11.0516667 C13.3610527,10.7450202 13.162415,10.4700488 12.9141667,10.2441667 C12.859067,10.1942975 12.7815746,10.1775554 12.7108019,10.2002301 C12.6400292,10.2229049 12.586694,10.2815626 12.5708333,10.3541667 L12.5708333,10.3541667 L11.8333333,13.7283333 C14.2534219,15.0941925 15.750155,17.657746 15.75,20.4366667 C15.75,21.1270226 15.1903559,21.6866667 14.5,21.6866667 C13.8096441,21.6866667 13.25,21.1270226 13.25,20.4366667 C13.2498352,18.9618952 12.6237628,17.5564882 11.5275,16.57 C11.4724003,16.5201308 11.3949079,16.5033887 11.3241352,16.5260635 C11.2533626,16.5487382 11.2000274,16.6073959 11.1841667,16.68 L11.1841667,16.68 L10.305,20.7008333 C10.1574939,21.3755412 9.49095787,21.8029227 8.81625,21.6554167 C8.14154213,21.5079106 7.71416061,20.8413745 7.86166667,20.1666667 L7.86166667,20.1666667 L9.99333333,10.4266667 C10.0117017,10.3391921 9.97245659,10.249712 9.89566285,10.2039745 C9.81886912,10.1582371 9.72149844,10.1663505 9.65333333,10.2241667 C9.54970944,10.3135189 9.4545812,10.4122738 9.36916667,10.5191667 L9.36916667,10.5191667 L7.1425,13.3016667 C6.86338626,13.6502983 6.41948174,13.8235419 5.97800098,13.7561381 C5.53652022,13.6887344 5.16453465,13.3909236 5.00216764,12.9748881 C4.83980063,12.5588527 4.91171958,12.0877983 5.19083333,11.7391667 L5.19083333,11.7391667 Z M12.7266667,2.10416667 C13.8772599,2.10416667 14.81,3.03690677 14.81,4.1875 C14.81,5.33809323 13.8772599,6.27083333 12.7266667,6.27083333 C11.5760734,6.27083333 10.6433333,5.33809323 10.6433333,4.1875 C10.6433333,3.03690677 11.5760734,2.10416667 12.7266667,2.10416667 Z" id="ðŸ–-Color" fill="#5A5A5A"></path>
        <rect id="_Transparent_Rectangle_" x="0" y="0" width="24" height="24"></rect>
    </g>
</svg>