<?xml version="1.0" encoding="UTF-8"?>
<svg width="24px" height="24px" viewBox="0 0 24 24" version="1.1" xmlns="http://www.w3.org/2000/svg" xmlns:xlink="http://www.w3.org/1999/xlink">
    <title>14. Wayfinding/warning_radioactive</title>
    <g id="14.-Wayfinding/warning_radioactive" stroke="none" stroke-width="1" fill="none" fill-rule="evenodd">
        <path d="M12,2 C17.5203725,2.00597071 21.9940293,6.47962754 22,12 C22,17.5228475 17.5228475,22 12,22 C6.4771525,22 2,17.5228475 2,12 C2,6.4771525 6.4771525,2 12,2 Z M16.745,5.56916667 C16.6451285,5.23871629 16.2962837,5.05179517 15.9658333,5.15166667 C15.635383,5.25153816 15.4484618,5.60038296 15.5483333,5.93083333 C15.6527025,6.27761138 15.7054898,6.6378568 15.705,7 C15.7037182,7.60002252 15.5546001,8.19048428 15.2708333,8.71916667 C15.2401782,8.7759358 15.1852179,8.81554409 15.1216667,8.82666667 C15.0582286,8.83740455 14.9933785,8.81834906 14.9458333,8.775 C13.2814897,7.24101997 10.7185103,7.24101997 9.05416667,8.775 C9.00676801,8.81839297 8.94199641,8.83748353 8.87864001,8.82673411 C8.81528362,8.8159847 8.76043353,8.77659843 8.73,8.72 C8.44555232,8.19124413 8.29612621,7.60040984 8.295,7 C8.29451018,6.6378568 8.34729751,6.27761138 8.45166667,5.93083333 C8.55153815,5.60038296 8.36461703,5.25153817 8.03416666,5.15166668 C7.70371629,5.05179519 7.3548715,5.2387163 7.255,5.56916667 C7.11557793,6.03331365 7.04482837,6.51536519 7.045,7 C7.04462359,7.78346195 7.23208483,8.55559651 7.59166667,9.25166667 C7.62403364,9.31462496 7.62221571,9.38971125 7.58683985,9.4510294 C7.55146399,9.51234755 7.4873714,9.55150616 7.41666667,9.555 C6.13040558,9.61851844 4.91962365,10.1811583 4.04166667,11.1233333 C3.88953106,11.2870801 3.83630981,11.5195517 3.90205084,11.7331783 C3.96779187,11.946805 4.14250755,12.1091317 4.36038418,12.1590117 C4.57826081,12.2088916 4.80619774,12.1387467 4.95833333,11.975 C5.20963307,11.7053778 5.49977506,11.4747809 5.81916667,11.2908333 C6.34275647,10.9893077 6.93274503,10.8218437 7.53666667,10.8033333 C7.60116875,10.8013494 7.66286768,10.8297309 7.70333333,10.88 C7.74440502,10.9302818 7.75979929,10.9967851 7.745,11.06 C7.66764489,11.3674244 7.62735844,11.6830016 7.625,12 C7.62802273,13.9069775 8.86771691,15.5916123 10.6875,16.1616667 C10.7492303,16.1807247 10.7985616,16.227448 10.8209414,16.2880531 C10.8433212,16.3486582 10.8361956,16.4162294 10.8016667,16.4708333 C10.3188718,17.2502301 9.5616096,17.8204809 8.67916667,18.0691667 C8.3783337,18.1537529 8.18620956,18.4475336 8.22931407,18.757045 C8.27241857,19.0665564 8.53750262,19.2966634 8.85,19.2958356 C8.90801115,19.2958356 8.96575411,19.2879622 9.02166667,19.2725 C9.41523478,19.1600949 9.79338465,18.9994301 10.1475,18.7941667 C10.8284532,18.3992897 11.4037182,17.8454684 11.8241667,17.18 C11.862378,17.1198158 11.9287101,17.0833489 12,17.0833333 C12.0703033,17.0822533 12.1362942,17.1171342 12.175,17.1758333 C12.595475,17.8417893 13.1710662,18.3959352 13.8525,18.7908333 C14.2067597,18.9958079 14.584873,19.1564571 14.9783333,19.2691667 C15.0342356,19.2846791 15.0919854,19.2925286 15.15,19.2925 C15.4624974,19.2933301 15.7275814,19.063223 15.7706859,18.7537116 C15.8137904,18.4442002 15.6216663,18.1504195 15.3208333,18.0658333 C14.4383904,17.8171476 13.6811282,17.2468967 13.1983333,16.4675 C13.1638044,16.4128961 13.1566788,16.3453249 13.1790586,16.2847198 C13.2014384,16.2241146 13.2507697,16.1773914 13.3125,16.1583333 C15.1311118,15.588649 16.3705241,13.9057463 16.375,12 C16.3723677,11.6847706 16.3326502,11.3709461 16.2566667,11.065 C16.2415722,11.0018548 16.256779,10.9352823 16.2977935,10.8849537 C16.338808,10.8346251 16.4009411,10.8062946 16.4658333,10.8083333 C17.0693621,10.825077 17.6593806,10.9908319 18.1833333,11.2908333 C18.5023253,11.4750037 18.7921609,11.7055802 19.0433333,11.975 L19.0433333,11.975 C19.1929689,12.1387467 19.4209059,12.2088916 19.6387825,12.1590117 C19.8566591,12.1091317 20.0313748,11.946805 20.0971158,11.7331783 C20.1628569,11.5195517 20.1096356,11.2870801 19.9575,11.1233333 C19.0796736,10.180377 17.8677061,9.61836151 16.5808333,9.5575 C16.5101286,9.55400616 16.446036,9.51484755 16.4106602,9.4535294 C16.3752843,9.39221125 16.3734664,9.31712496 16.4058333,9.25416667 C16.7667016,8.55757435 16.9550362,7.78451692 16.955,7 C16.9551716,6.51536519 16.8844221,6.03331365 16.745,5.56916667 Z M9.19735446,11.1486235 L9.25583333,11.1666667 C9.93628879,11.4813685 10.5029443,11.9985471 10.8783333,12.6475 C11.2530689,13.2993869 11.4166777,14.0513467 11.3466667,14.8 C11.3411717,14.8627427 11.3075874,14.9196315 11.2553073,14.9547547 C11.2030273,14.9898778 11.1376641,14.9994645 11.0775,14.9808333 C9.77008926,14.5763235 8.87768471,13.3685554 8.875,12 C8.87645379,11.7652493 8.9066792,11.5315621 8.965,11.3041667 C8.98006426,11.2435648 9.02172228,11.1930239 9.07833333,11.1666667 C9.13440491,11.1396019 9.19976175,11.1396019 9.25583333,11.1666667 Z M14.8639415,11.1537441 L14.9228291,11.1716153 C14.9793687,11.1984312 15.02086,11.2492414 15.0358333,11.31 C15.0936065,11.5354986 15.1235516,11.7672227 15.125,12 C15.1223153,13.3685554 14.2299107,14.5763235 12.9225,14.9808333 C12.8623359,14.9994645 12.7969727,14.9898778 12.7446927,14.9547547 C12.6924126,14.9196315 12.6588283,14.8627427 12.6533333,14.8 C12.5833223,14.0513467 12.7469311,13.2993869 13.1216667,12.6475 C13.4982394,12.0007143 14.064701,11.4854583 14.7441667,11.1716667 C14.8006908,11.1448183 14.8662896,11.1447994 14.9228291,11.1716153 Z M9.885,9.715 C11.0727273,8.59534916 12.9272727,8.59534916 14.115,9.715 C14.1613023,9.75781987 14.1856174,9.81937367 14.181078,9.8822771 C14.1765385,9.94518054 14.1436374,10.0026053 14.0916667,10.0383333 C13.4795474,10.4702775 12.7491742,10.7030658 12,10.705 C11.2508258,10.7030658 10.5204526,10.4702775 9.90833333,10.0383333 C9.85663269,10.0024099 9.8239494,9.94503397 9.81941797,9.88224132 C9.81488654,9.81944866 9.83899302,9.75797451 9.885,9.715 Z" id="ðŸ–-Color" fill="#5A5A5A"></path>
        <rect id="_Transparent_Rectangle_" x="0" y="0" width="24" height="24"></rect>
    </g>
</svg>