<?xml version="1.0" encoding="UTF-8"?>
<svg width="24px" height="24px" viewBox="0 0 24 24" version="1.1" xmlns="http://www.w3.org/2000/svg" xmlns:xlink="http://www.w3.org/1999/xlink">
    <title>14. Wayfinding/warning_electricity</title>
    <g id="14.-Wayfinding/warning_electricity" stroke="none" stroke-width="1" fill="none" fill-rule="evenodd">
        <path d="M21.9166667,20.4691667 L12.675,2.81166667 C12.5315976,2.57637811 12.2759615,2.43280816 12.0004167,2.43280816 C11.7248718,2.43280816 11.4692358,2.57637811 11.3258333,2.81166667 L2.0875,20.4658333 C2.03131582,20.5741535 2.00269403,20.6946513 2.00411258,20.8166667 C2.00411258,21.015579 2.0831843,21.2063445 2.22383658,21.3469968 C2.36448886,21.487649 2.5552543,21.5666667 2.75416667,21.5666667 L21.25,21.5666667 C21.6642136,21.5666667 22.0000322,21.2308802 22.0000322,20.8166667 C22.0011299,20.6957533 21.972512,20.5764169 21.9166667,20.4691667 L21.9166667,20.4691667 Z M13.8558333,14.6758333 L12.7408333,16.905 C12.7153046,16.9563797 12.7120012,17.01599 12.7316963,17.0698759 C12.7513915,17.1237617 12.792356,17.1671922 12.845,17.19 L13.4166667,17.4341667 C13.5716856,17.5004613 13.6714745,17.653643 13.6694675,17.8222308 C13.6674605,17.9908185 13.5640532,18.1415813 13.4075,18.2041667 L11.3241667,19.0375 C11.2749558,19.0575293 11.222297,19.0677214 11.1691667,19.0675035 C10.9989248,19.0675035 10.84583,18.9638574 10.7825,18.8058333 L9.94916667,16.7225 C9.8867729,16.5661562 9.92458297,16.3876269 10.045,16.27 C10.1659051,16.152855 10.3454253,16.1199758 10.5,16.1866667 L11.3108333,16.535 C11.4122062,16.5784046 11.5298433,16.5352953 11.5791667,16.4366667 L12.5,14.5833333 C12.5324363,14.5189277 12.5291082,14.4423001 12.4912101,14.3809492 C12.4533119,14.3195983 12.3862789,14.282323 12.3141667,14.2825 L10.7466667,14.2825 C10.3399647,14.3106335 9.95048912,14.1138961 9.73178776,13.76985 C9.5130864,13.4258039 9.50024774,12.9896479 9.69833333,12.6333333 L11.8491667,7.9725 C11.9939113,7.6590784 12.3653284,7.52233871 12.67875,7.66708333 C12.9921716,7.81182796 13.1289113,8.18324507 12.9841667,8.49666667 L11.0308333,12.7275 C11.0015251,12.7922898 11.0068517,12.8674884 11.045,12.9275 C11.0829171,12.9874714 11.1490483,13.023686 11.22,13.0233333 L12.8333333,13.0233333 C13.2400105,12.9932102 13.6296544,13.1919158 13.8440801,13.5387808 C14.0585057,13.8856458 14.0620729,14.323017 13.8533333,14.6733333 L13.8558333,14.6758333 Z" id="ðŸ–-Color" fill="#5A5A5A"></path>
        <rect id="_Transparent_Rectangle_" x="0" y="0" width="24" height="24"></rect>
    </g>
</svg>