<?xml version="1.0" encoding="UTF-8"?>
<svg width="537px" height="358px" viewBox="0 0 537 358" version="1.1" xmlns="http://www.w3.org/2000/svg" xmlns:xlink="http://www.w3.org/1999/xlink">
    <title>Group 4</title>
    <g id="Page-2" stroke="none" stroke-width="1" fill="none" fill-rule="evenodd">
        <g id="e-posta-servisi" transform="translate(-865.000000, -1040.000000)">
            <g id="Group-4" transform="translate(865.000000, 1040.000000)">
                <path d="M510.235552,339 L477.094281,338.808559 L53.1323241,336.350632 C25.4718981,317.367163 -3.79780104,264.575646 0.404897971,212.679722 C4.89148296,157.330157 47.4209864,136.030251 66.9526494,121.231858 C88.5897268,104.842085 116.178083,100.829745 136.798708,82.3878117 C155.533864,65.6213176 169.093375,43.543765 190.215634,29.3707468 C219.568829,9.67410457 255.098522,-0.7515103 290.426066,0.0421998429 C331.996026,0.976080033 390.799096,12.4317357 416.935502,47.8767138 C437.598534,75.8984006 435.869291,114.654208 450.979847,146.034915 C460.436854,165.683367 494.986569,165.60305 514.577338,194.587443 C567.401663,272.695387 510.334429,330.633807 510.235552,339" id="Fill-2" fill="#D4F4EB"></path>
                <path d="M452,338.50375 C452,349.270839 356.189143,358 238.000094,358 C215.331105,358 193.489479,357.679406 172.987393,357.081338 C147.24159,356.337035 123.613349,355.159648 103.126646,353.639169 C54.8471223,350.067638 24,344.613787 24,338.50375 C24,332.097491 57.8813486,326.414912 110.198628,322.858379 C129.006028,321.581627 150.194581,320.578598 173.05118,319.914912 C193.534506,319.320594 215.355494,319 238.000094,319 C356.189143,319 452,327.73291 452,338.50375" id="Fill-5" fill="#7AE8C7"></path>
                <path d="M159,322.171092 C159,322.171092 156.103852,256.501684 44,280.128961 C44,280.128961 109.794462,377.054176 159,322.171092" id="Fill-36" fill="#008FFF"></path>
                <path d="M45,280.107568 L157,314 C151.986797,297.327035 131.138982,261.800694 45,280.107568" id="Fill-37" fill="#008FFF"></path>
                <path d="M150.88346,311.951586 C150.93218,311.918012 150.969658,311.869516 150.988396,311.807963 C151.031495,311.666205 150.950919,311.515121 150.806632,311.472221 L43.3497737,279.011562 C43.2060485,278.968661 43.0550151,279.048866 43.0119163,279.190624 C42.9680679,279.334247 43.0490187,279.485331 43.1925566,279.528231 L150.651101,311.988891 C150.733551,312.013139 150.817875,311.996352 150.88346,311.951586" id="Fill-38" fill="#060633"></path>
                <path d="M98.8828673,296.49823 C98.99019,296.424292 99.0317587,296.280209 98.9737515,296.15698 C98.909698,296.020479 98.7468243,295.961708 98.6102146,296.026167 L70.1562676,309.477124 C70.0213583,309.537791 69.9616506,309.704624 70.0258931,309.84302 C70.0899466,309.979521 70.2528203,310.038292 70.38943,309.973833 L98.843377,296.52098 C98.8571703,296.515293 98.8705856,296.507709 98.8828673,296.49823" id="Fill-39" fill="#060633"></path>
                <path d="M89.9284247,97.0963315 C88.6499413,100.394897 89.0821648,104.151854 87.8793994,107.478572 C86.7222875,110.679533 84.1599388,113.17596 81.4192446,115.200105 C79.3876642,116.70048 77.1200218,118.113807 75.9926032,120.37113 C73.5083851,125.346389 77.7484069,131.645335 75.5848767,136.767835 C74.5947898,139.112391 72.3414373,140.930585 72.033369,143.456275 C71.7974927,145.391335 72.8369448,147.332877 74.3661512,148.545993 C75.895172,149.758925 77.8471372,150.328626 79.785926,150.566434 C81.4378029,150.769052 83.1167751,150.750161 84.7636413,150.509946 C86.6059268,150.241393 88.3971768,149.699473 90.2272138,149.357948 C94.0429921,148.645821 98.0218981,148.820843 101.760103,149.864864 C104.619385,150.663669 107.401649,151.972538 110.370611,152 C112.308843,152.017173 114.210144,151.48155 116.031459,150.8198 C118.019427,150.097486 119.985311,149.197372 121.554789,147.781822 C123.809997,145.747676 125.057488,142.818601 125.79147,139.874525 C126.525266,136.930449 126.812364,133.89099 127.518508,130.940246 C128.425825,127.149025 130.028708,123.524677 132.223602,120.300565 C133.151333,118.937986 134.201734,117.610781 134.679982,116.034099 C135.00698,114.95637 135.048922,113.809929 134.958357,112.687565 C134.572159,107.88529 131.654418,103.357495 127.436109,101.014605 C126.389976,100.433606 125.263671,99.9737328 124.332229,99.2232675 C123.373505,98.4507622 122.673485,97.4124827 121.969753,96.4030956 C120.660463,94.5250801 119.287332,92.6913294 117.853887,90.9059182 C117.113224,89.9837644 116.339341,89.0588325 115.341089,88.4230113 C114.167274,87.6751388 112.765007,87.3791754 111.386309,87.1828542 C104.129816,86.1501309 92.8734461,89.4968509 89.9284247,97.0963315" id="Fill-53" fill="#0B0755"></path>
                <path d="M82.3805448,316.266898 C82.3805448,316.266898 78.4647148,330.875256 81.1012212,333.087247 C85.8768217,337.09072 95.1363281,341.756639 93.8848639,344.233608 C92.6333997,346.708657 69.262957,342.613017 69.0118523,340.103406 C68.7605632,337.595715 72.5928147,330.746607 72.185254,316 L82.3805448,316.266898" id="Fill-56" fill="#FF8EB1"></path>
                <path d="M70.1301305,334 C69.4393543,336.824 68.9207186,338.75294 69.0100177,339.716373 C69.2613096,342.424347 92.6320184,346.843711 93.8836813,344.173031 C94.8117273,342.190223 90.0185448,338.823384 85.4871708,335.516631 C83.9941791,337.474577 81.0032139,340.398029 70.1301305,334" id="Fill-57" fill="#0B0755"></path>
                <path d="M125.052459,186 C125.052459,186 131.458758,193.903263 134.348863,203.153561 C137.238784,212.402924 129.572597,322 129.572597,322 L116.772852,322 C116.772852,322 109.983189,224.399833 109.983189,223.532226 C109.983189,220.123503 84.7789978,322 84.7789978,322 L72,322 C72,322 78.9154316,202.713213 94.9653285,186 L109.983189,186.945953 L125.052459,186" id="Fill-59" fill="#0B0755"></path>
                <path d="M82.0686222,157.542799 C82.0686222,157.542799 75.0192143,165.510633 75.8325482,167.71536 C76.6454963,169.920274 89.0916069,188.075983 90.7564629,191.518197 C92.421319,194.96041 91.9333572,197.007697 91.9333572,197.007697 L85.590626,200 C85.590626,200 85.2608178,195.140635 83.8808312,193.711905 C82.5004587,192.283175 61.520418,171.337425 62.0083797,164.723057 C62.4963415,158.108688 72.1248104,148 72.1248104,148 L82.0686222,157.542799" id="Fill-62" fill="#FF8EB1"></path>
                <polyline id="Fill-92" fill="#FFFFFF" points="2 230 17.8052539 233.342448 25 244 2 230"></polyline>
                <polyline id="Fill-93" fill="#FFFFFF" points="17 230 4 229.766908 13.602156 223 17 230"></polyline>
                <polyline id="Fill-94" fill="#0B0755" points="19 241.215238 17.8362941 243 3 231 19 241.215238"></polyline>
                <polyline id="Fill-95" fill="#0B0755" points="17 230.3527 15.441915 234 4 230 17 230.3527"></polyline>
                <path d="M57.4065194,195.314079 L57.38548,195.1576 C58.0279336,195.072451 58.6694479,195.01942 59.2923649,195 L59.2972491,195.1576 C58.6797798,195.177019 58.0435253,195.229677 57.4065194,195.314079 Z M63.0633045,195.489604 C62.4696924,195.355346 61.8402006,195.259554 61.1919236,195.204842 L61.205449,195.047616 C61.8606765,195.102888 62.4976824,195.1998 63.0984328,195.335552 L63.0633045,195.489604 Z M53.7067757,196.147078 L53.6584977,195.996761 C54.2682651,195.803123 54.8889279,195.634506 55.5032037,195.495579 L55.5385198,195.649444 C54.9285646,195.787437 54.3122224,195.954933 53.7067757,196.147078 Z M66.5227857,196.946653 C66.0232874,196.602884 65.465555,196.30281 64.8653681,196.054647 L64.9262321,195.908811 C65.5367509,196.161269 66.1044394,196.466758 66.6133303,196.816876 L66.5227857,196.946653 Z M50.1982652,197.586014 L50.1259422,197.445406 C50.6908129,197.15803 51.2750324,196.89026 51.8622576,196.64938 L51.9229337,196.795215 C51.3396535,197.034602 50.759191,197.300505 50.1982652,197.586014 Z M46.9751018,199.576174 L46.8802366,199.449572 C47.3861218,199.074619 47.9179306,198.714605 48.4608227,198.379986 L48.5446047,198.514058 C48.0056575,198.846436 47.4776057,199.203836 46.9751018,199.576174 Z M68.960728,199.748899 C68.8961069,199.617255 68.8266017,199.485984 68.7548423,199.358821 C68.5194638,198.943162 68.2406915,198.54991 67.9262274,198.190083 L68.0460769,198.086448 C68.3674916,198.454491 68.6526508,198.85652 68.8931013,199.281515 C68.9667393,199.411292 69.0373716,199.545177 69.1034955,199.679435 L68.960728,199.748899 Z M44.1503723,202.09011 L44.0339041,201.982928 C44.4620187,201.523947 44.9213167,201.07617 45.3990241,200.651548 L45.5047847,200.769187 C45.0308343,201.190449 44.5751055,201.634864 44.1503723,202.09011 Z M69.8607266,203.371633 C69.8231562,202.722562 69.7326116,202.097019 69.5920983,201.513117 L69.7465126,201.476331 C69.8892801,202.069383 69.9809518,202.704076 70.0192736,203.36267 L69.8607266,203.371633 Z M41.8645901,205.09253 L41.7287731,205.010743 C42.0552598,204.47483 42.4170626,203.945826 42.8038497,203.438482 L42.9304619,203.533901 C42.5468683,204.036763 42.1882589,204.561285 41.8645901,205.09253 Z M69.7230311,207.148979 L69.5673019,207.117235 C69.6929748,206.481983 69.7820166,205.854199 69.8319852,205.25237 L69.9901566,205.265255 C69.9398122,205.873058 69.850019,206.506818 69.7230311,207.148979 Z M40.2670973,208.500899 L40.1166279,208.450482 C40.3193201,207.854816 40.5586435,207.261017 40.8276474,206.687011 L40.971542,206.75386 C40.7049801,207.322638 40.4680988,207.910835 40.2670973,208.500899 Z M68.6569714,210.795802 L68.5083805,210.739783 C68.7377477,210.138515 68.9417549,209.535379 69.1143909,208.950917 L69.2669266,208.993865 C69.0927879,209.583929 68.8878414,210.190799 68.6569714,210.795802 Z M39.4610246,212.175731 L39.3030412,212.158926 C39.37048,211.527781 39.4728593,210.896636 39.6069856,210.282297 L39.7621513,210.315908 C39.6291521,210.924645 39.5278999,211.550188 39.4610246,212.175731 Z M67.071689,214.252161 L66.9315515,214.177469 C67.2328659,213.613547 67.5165224,213.044022 67.7744431,212.481967 L67.9189012,212.54919 C67.6596655,213.111245 67.3745063,213.684504 67.071689,214.252161 Z M39.2917701,215.953264 C39.2318453,215.327721 39.2012254,214.702178 39.2012254,214.089706 L39.2012254,214.054228 L39.3601482,214.054228 L39.3601482,214.089706 C39.3601482,214.696576 39.3902045,215.318385 39.4499414,215.938326 L39.2917701,215.953264 Z M65.1013101,217.504985 L64.9696259,217.417222 C65.3263567,216.890645 65.6706893,216.352865 65.9930432,215.822554 L66.129048,215.902847 C65.8053791,216.436893 65.4595437,216.976541 65.1013101,217.504985 Z M39.9877614,219.685982 C39.818319,219.067908 39.6742366,218.444233 39.5598348,217.835495 L39.7159397,217.805619 C39.8295901,218.410621 39.9727333,219.030563 40.1410486,219.644902 L39.9877614,219.685982 Z M62.8213513,220.550539 L62.6983082,220.451572 C63.1012506,219.960474 63.4951761,219.46004 63.8693772,218.959606 L63.9967408,219.05297 C63.6212248,219.555272 63.2256086,220.059441 62.8213513,220.550539 Z M140.36381,220.621496 L140.283033,220.485184 C141.329369,219.854039 141.907953,219.484315 141.913588,219.48058 L142,219.613158 C141.994364,219.616893 141.413902,219.986616 140.36381,220.621496 Z M137.072832,222.559746 L136.99337,222.423433 C137.592806,222.077984 138.143776,221.75681 138.642335,221.463645 L138.723299,221.599957 C138.224176,221.893122 137.673019,222.214297 137.072832,222.559746 Z M41.2523806,223.26745 C40.9987805,222.679252 40.7650927,222.083586 40.5578921,221.499124 L40.70761,221.446839 C40.9136836,222.027567 41.1460564,222.619499 41.3985294,223.205829 L41.2523806,223.26745 Z M60.276709,223.381355 L60.1630586,223.271184 C60.6045106,222.821167 61.0414542,222.356211 61.461679,221.889388 L61.5800257,221.993956 C61.1582981,222.462647 60.7198517,222.92947 60.276709,223.381355 Z M133.747477,224.430773 L133.670645,224.292593 C134.252235,223.971419 134.807901,223.663316 135.335953,223.364549 L135.414287,223.502729 C134.885672,223.799628 134.32963,224.109599 133.747477,224.430773 Z M57.4966883,225.98436 L57.3929941,225.864854 C57.8708894,225.454049 58.3461547,225.028307 58.8060163,224.596962 L58.9147825,224.712734 C58.4534182,225.144079 57.9764622,225.571689 57.4966883,225.98436 Z M130.39169,226.243914 L130.317113,226.103867 C130.894945,225.797631 131.455496,225.498864 131.997636,225.205699 L132.073528,225.343879 C131.530824,225.637044 130.970086,225.937678 130.39169,226.243914 Z M42.9535677,226.664055 C42.6359101,226.107602 42.3338442,225.543679 42.0558233,224.989093 L42.1978394,224.920004 C42.4747331,225.470855 42.7754841,226.031043 43.0918267,226.587496 L42.9535677,226.664055 Z M127.006786,227.999169 L126.934463,227.859122 C127.512296,227.56409 128.07773,227.27466 128.629451,226.988964 L128.702901,227.129011 C128.150617,227.414707 127.584994,227.704137 127.006786,227.999169 Z M54.5013893,228.337149 L54.4085905,228.210173 C54.9197356,227.842317 55.4303171,227.459522 55.9264341,227.069258 L56.0248685,227.192499 C55.5270609,227.58463 55.0144129,227.969293 54.5013893,228.337149 Z M123.592577,229.696538 L123.522696,229.554624 C124.102407,229.272663 124.67235,228.992569 125.232149,228.714342 L125.303157,228.854389 C124.742983,229.132616 124.172664,229.414577 123.592577,229.696538 Z M44.9865013,229.875798 C44.6190629,229.347355 44.264962,228.815176 43.9339669,228.292334 L44.0684689,228.208306 C44.398149,228.729281 44.750935,229.259592 45.1170584,229.786168 L44.9865013,229.875798 Z M51.3135421,230.413579 L51.2327658,230.277266 C51.7730279,229.959827 52.3153564,229.623714 52.8445353,229.278265 L52.9315108,229.410842 C52.4002655,229.756292 51.8560585,230.094272 51.3135421,230.413579 Z M120.149251,231.334154 L120.082188,231.190372 C120.664717,230.919615 121.239544,230.650725 121.806106,230.379967 L121.874671,230.521882 C121.307734,230.792639 120.732344,231.063396 120.149251,231.334154 Z M47.9431028,232.183772 L47.8760396,232.039991 C48.4433525,231.776702 49.0153616,231.492874 49.5757239,231.199709 L49.6499254,231.337889 C49.087121,231.634788 48.5128577,231.918617 47.9431028,232.183772 Z M116.676996,232.908282 L116.612375,232.762633 C117.198286,232.504946 117.777809,232.245393 118.350945,231.985839 L118.416881,232.129621 C117.843369,232.389174 117.263282,232.648728 116.676996,232.908282 Z M47.273035,232.912016 C46.8693412,232.413449 46.4754157,231.90928 46.101966,231.414448 L46.2289539,231.319216 C46.6012765,231.812181 46.9942627,232.314483 47.3968294,232.81305 L47.273035,232.912016 Z M44.4122379,233.610384 L44.3602029,233.461 C44.9511851,233.257465 45.5487421,233.03339 46.1361551,232.796244 L46.1960798,232.941893 C45.6060369,233.180906 45.00585,233.404981 44.4122379,233.610384 Z M23.7947373,233.838193 C23.1977439,233.642128 22.5937999,233.423654 22,233.190243 L22.0584219,233.042727 C22.6494041,233.276138 23.2503424,233.492744 23.8447059,233.68881 L23.7947373,233.838193 Z M113.174685,234.415187 L113.11307,234.269538 C113.702737,234.023055 114.287144,233.774705 114.866292,233.524488 L114.92941,233.670137 C114.349887,233.920354 113.764728,234.168704 113.174685,234.415187 Z M40.7463075,234.652333 L40.7113671,234.499215 C41.3241401,234.361035 41.9433,234.202315 42.5517524,234.028657 L42.5955219,234.181775 C41.9842517,234.355433 41.3620862,234.514153 40.7463075,234.652333 Z M27.4822707,234.820389 C26.8634864,234.693413 26.2385031,234.547765 25.6242273,234.383443 L25.665179,234.230325 C26.2764492,234.392779 26.8984269,234.540295 27.5140177,234.665404 L27.4822707,234.820389 Z M36.981567,235.274141 L36.9650361,235.117289 C37.5894559,235.051934 38.2227047,234.966038 38.8471245,234.863337 L38.8730481,235.018322 C38.2458105,235.122891 37.6091803,235.208786 36.981567,235.274141 Z M31.2614758,235.3507 C30.6302933,235.302151 29.9917846,235.231194 29.3636078,235.143431 L29.3857743,234.986578 C30.0109455,235.074341 30.6460729,235.143431 31.2740619,235.193848 L31.2614758,235.3507 Z M33.6960368,235.445932 C33.5205831,235.445932 33.3449415,235.444065 33.1687364,235.442198 L33.1713664,235.283478 C33.8027367,235.294682 34.4378641,235.285345 35.0711129,235.257336 L35.0780634,235.416056 C34.6182019,235.436596 34.1530805,235.445932 33.6960368,235.445932 Z M49.8454793,235.714822 C49.3891869,235.281611 48.9404087,234.824124 48.5117306,234.357301 L48.629138,234.248998 C49.0553741,234.715821 49.5015224,235.169573 49.9551848,235.600918 L49.8454793,235.714822 Z M109.641942,235.849268 L109.58352,235.703619 C110.17732,235.46834 110.766799,235.233061 111.352146,234.995915 L111.412258,235.141564 C110.826348,235.37871 110.236305,235.615856 109.641942,235.849268 Z M106.078391,237.206789 L106.02335,237.057406 C106.610387,236.842667 107.210762,236.618592 107.80738,236.390782 L107.864111,236.538299 C107.26693,236.766108 106.666179,236.990183 106.078391,237.206789 Z M52.7825442,238.140436 C52.2663271,237.770712 51.7579998,237.380448 51.2710876,236.97898 L51.3725276,236.857606 C51.856622,237.257206 52.3621316,237.645603 52.8749673,238.011592 L52.7825442,238.140436 Z M102.487789,238.474681 L102.436505,238.325298 C103.031057,238.12363 103.634813,237.914493 104.231243,237.703489 L104.284405,237.852873 C103.687411,238.063877 103.082904,238.273013 102.487789,238.474681 Z M98.8628102,239.651075 L98.8156593,239.499825 C99.4128406,239.314963 100.023923,239.122632 100.631248,238.924699 L100.680465,239.074082 C100.072389,239.272015 99.4607429,239.466213 98.8628102,239.651075 Z M56.0293769,240.134704 C55.4665725,239.839672 54.9086523,239.522232 54.3712079,239.193589 L54.454802,239.057276 C54.9890529,239.38592 55.5437797,239.701492 56.1033906,239.994657 L56.0293769,240.134704 Z M95.1959405,240.722901 L95.1532981,240.571651 C95.7626898,240.403594 96.3805348,240.228069 96.9895507,240.048809 L97.0344473,240.200059 C96.42468,240.37932 95.8060836,240.554845 95.1959405,240.722901 Z M91.5018323,241.675221 L91.4646377,241.522103 C92.0740293,241.376454 92.6958192,241.221469 93.3129128,241.062749 L93.3529252,241.215867 C92.7348924,241.374587 92.1121633,241.529572 91.5018323,241.675221 Z M59.5144059,241.684557 C58.9155339,241.460482 58.3207947,241.219601 57.7469071,240.963782 L57.811716,240.820001 C58.382598,241.073952 58.9741437,241.314833 59.5700101,241.535174 L59.5144059,241.684557 Z M87.7754136,242.494962 L87.7444181,242.339977 C88.3564396,242.216736 88.9834894,242.086025 89.6082849,241.947845 L89.6426618,242.102831 C89.0167392,242.239143 88.3887502,242.371721 87.7754136,242.494962 Z M63.1626782,242.803065 C62.541264,242.649947 61.9221041,242.478156 61.3224807,242.295162 L61.3692558,242.143911 C61.9660614,242.326906 62.5824036,242.496829 63.201,242.649947 L63.1626782,242.803065 Z M84.0185629,243.159718 L83.9941422,243.004733 C84.6127386,242.907634 85.2446724,242.803065 85.8728493,242.692895 L85.9006514,242.84788 C85.2713474,242.959918 84.6382864,243.064486 84.0185629,243.159718 Z M66.9093849,243.529442 C66.2738819,243.437945 65.640633,243.331509 65.0272965,243.21387 L65.0575406,243.058885 C65.6684351,243.176524 66.2992419,243.28296 66.9323029,243.374457 L66.9093849,243.529442 Z M80.2342858,243.650816 L80.2177548,243.493964 C80.8359755,243.428608 81.47223,243.353917 82.1088602,243.271756 L82.1295239,243.428608 C81.4913909,243.510769 80.8538215,243.585461 80.2342858,243.650816 Z M70.7066238,243.912237 C70.0677394,243.873024 69.4277279,243.822607 68.8040595,243.760987 L68.819839,243.604134 C69.4414411,243.665755 70.0791984,243.716172 70.7162043,243.753517 L70.7066238,243.912237 Z M76.4289693,243.936512 L76.4218309,243.779659 C77.0428694,243.75165 77.6821295,243.712437 78.3215775,243.663887 L78.3337878,243.82074 C77.6924613,243.86929 77.0516984,243.908503 76.4289693,243.936512 Z M73.7607205,244 C73.3763754,244 72.9905276,243.996265 72.6135087,243.986929 L72.6168901,243.830076 C73.2401828,243.843147 73.8813214,243.845015 74.5196423,243.835678 L74.5218965,243.994398 C74.267545,243.998133 74.013757,244 73.7607205,244 L73.7607205,244 Z" id="Fill-96" fill="#060633"></path>
                <path d="M232.145614,133 L232,132.860712 C232.001754,132.857656 232.298246,132.531093 232.864912,132 L233,132.150971 C232.440351,132.675593 232.149123,132.996765 232.145614,133" id="Fill-3" fill="#060633"></path>
                <path d="M265.485031,120.274385 C264.66071,120.233032 263.828963,120.212169 263.012068,120.212169 L262.989789,120 L263.013924,120 C263.832676,120 264.668136,120.021049 265.496171,120.062403 L265.485031,120.274385 Z M258.008587,120.474073 L257.986308,120.263208 C258.812485,120.175845 259.653516,120.10953 260.485263,120.065942 L260.496403,120.277924 C259.668369,120.321326 258.831051,120.387268 258.008587,120.474073 Z M270.451381,120.765782 C269.62706,120.644516 268.793456,120.541878 267.972848,120.460289 L267.99327,120.249238 C268.817591,120.331013 269.654908,120.43421 270.481086,120.555848 L270.451381,120.765782 Z M253.083082,121.265933 L253.038524,121.058608 C253.849849,120.882391 254.67974,120.725918 255.502205,120.593662 L255.535623,120.803037 C254.716872,120.934734 253.890694,121.090647 253.083082,121.265933 Z M275.350893,121.713928 C274.537712,121.519641 273.717104,121.341934 272.911348,121.185462 L272.950337,120.977391 C273.761662,121.134236 274.584126,121.312689 275.399165,121.50772 L275.350893,121.713928 Z M248.274542,122.591661 L248.207705,122.390483 C248.994894,122.125784 249.802506,121.879155 250.604549,121.657858 L250.660246,121.86239 C249.861917,122.082755 249.058018,122.32808 248.274542,122.591661 Z M280.155721,123.073744 C279.359248,122.814075 278.555349,122.568936 277.766303,122.345218 L277.823857,122.141059 C278.616616,122.365522 279.422372,122.611406 280.220701,122.871821 L280.155721,123.073744 Z M243.638663,124.440639 L243.549547,124.248216 C244.303319,123.89783 245.079369,123.563464 245.853562,123.254618 L245.931539,123.451885 C245.161058,123.759241 244.388721,124.09193 243.638663,124.440639 Z M284.841727,124.798476 C284.067533,124.481247 283.284057,124.176872 282.513576,123.89336 L282.587839,123.69423 C283.35832,123.978488 284.145509,124.283981 284.92156,124.601954 L284.841727,124.798476 Z M239.234857,126.79368 L239.125319,126.612434 C239.834532,126.180459 240.567881,125.761896 241.304943,125.368108 L241.405198,125.555502 C240.67185,125.947241 239.940357,126.363941 239.234857,126.79368 Z M289.401485,126.843602 C288.649571,126.476638 287.888373,126.120106 287.138315,125.783691 L287.225574,125.589963 C287.977489,125.92731 288.740543,126.284774 289.494314,126.652856 L289.401485,126.843602 Z M293.82757,129.167957 C293.099791,128.758522 292.360873,128.356538 291.631237,127.973182 L291.729636,127.785229 C292.461128,128.169517 293.200046,128.572432 293.929682,128.982799 L293.82757,129.167957 Z M235.129961,129.637746 L235,129.471029 C235.642376,128.963985 236.321884,128.462157 237.019958,127.979701 L237.140636,128.154242 C236.446275,128.634276 235.77048,129.133496 235.129961,129.637746 Z M298.112555,131.739501 C297.431191,131.301938 296.716408,130.858973 295.988628,130.423087 L296.09631,130.240908 C296.825946,130.677912 297.542585,131.121809 298.227663,131.560675 L298.112555,131.739501 Z M302.223022,134.581703 C301.576932,134.09664 300.893711,133.605802 300.195637,133.122788 L300.314458,132.948061 C301.016245,133.432565 301.701323,133.92508 302.349269,134.411633 L302.223022,134.581703 Z M306.07728,137.759948 C305.481318,137.215277 304.846368,136.665017 304.189139,136.124071 L304.322813,135.959961 C304.983755,136.503329 305.620562,137.056011 306.21838,137.602918 L306.07728,137.759948 Z M309.5398,141.353776 C309.023671,140.735711 308.461128,140.111872 307.868879,139.49921 L308.019262,139.351493 C308.615224,139.967694 309.181481,140.595445 309.701323,141.217422 L309.5398,141.353776 Z M312.38408,145.445333 C311.992342,144.741954 311.546763,144.031497 311.058482,143.333333 L311.231144,143.211509 C311.723138,143.91526 312.174286,144.632237 312.569738,145.341764 L312.38408,145.445333 Z M314.257368,150.051386 C314.055001,149.2653 313.78951,148.470459 313.468322,147.68903 L313.66512,147.608373 C313.988164,148.398557 314.257368,149.202525 314.461592,149.998111 L314.257368,150.051386 Z M314.979578,155 L314.767928,154.989382 C314.780924,154.718164 314.78835,154.443779 314.78835,154.174237 C314.78835,153.618203 314.758645,153.05509 314.701091,152.500732 L314.910884,152.478937 C314.970295,153.040374 315,153.610752 315,154.174237 C315,154.447505 314.992574,154.725243 314.979578,155 L314.979578,155 Z" id="Fill-4" fill="#060633"></path>
                <path d="M341.323824,259.97057 C341.293846,259.959337 341.263867,259.944361 341.235762,259.927511 C341.003426,259.785231 340.930353,259.481947 341.072752,259.249805 C378.252063,198.695405 408.53438,157.00877 426.34365,141.868578 C426.738995,141.532159 427.025667,141.289532 427.143708,141.159794 C427.327329,140.959103 427.640232,140.945998 427.838841,141.128717 C428.041198,141.312559 428.054314,141.623892 427.870694,141.824583 C427.709558,141.999439 427.436002,142.232518 426.982573,142.618361 C409.250123,157.693029 379.039006,199.296542 341.912158,259.764637 C341.788496,259.966826 341.539297,260.049199 341.323824,259.97057" id="Fill-6" fill="#BDD1F9"></path>
                <path d="M436.216592,140.902316 C434.153325,142.640041 425.519206,144.4939 425.043354,143.879889 C424.567501,143.265879 428.121524,134.850036 430.182932,133.11231 C432.246198,131.374584 435.268605,131.709605 436.934088,133.860872 C438.599572,136.011945 438.278,139.16459 436.216592,140.902316" id="Fill-7" fill="#BDD1F9"></path>
                <path d="M419.998227,143.857849 C420.100226,146.632431 415.770476,154.973299 414.904526,155 C414.038576,155.026569 409.10516,146.969932 409.003161,144.19535 C408.901162,141.420768 411.280443,139.095933 414.315431,139.002901 C417.3525,138.909489 419.896228,141.083267 419.998227,143.857849" id="Fill-8" fill="#BDD1F9"></path>
                <path d="M424.931186,161.89603 C422.173081,161.310715 414.84831,155.024732 415.002394,154.172208 C415.156478,153.319684 424.129949,150.493651 426.888053,151.079174 C429.646158,151.66449 431.445089,154.56061 430.903869,157.547677 C430.362649,160.534745 427.68929,162.481553 424.931186,161.89603" id="Fill-9" fill="#BDD1F9"></path>
                <path d="M385.941371,181.061739 C386.603592,185.556546 381.465143,199.815035 380.136863,199.997986 C378.808582,200.180751 369.748635,187.876519 369.086414,183.381711 C368.422274,178.887089 371.658518,174.724076 376.311338,174.083285 C380.966078,173.442679 385.277231,176.567116 385.941371,181.061739" id="Fill-10" fill="#BDD1F9"></path>
                <path d="M397.114018,208.968476 C392.610518,208.567643 379.889977,200.242209 380.000719,198.906419 C380.109615,197.570437 394.009557,191.617972 398.513056,192.01938 C403.016556,192.42098 406.355422,196.540545 405.969671,201.220893 C405.582075,205.901049 401.619364,209.369309 397.114018,208.968476" id="Fill-11" fill="#BDD1F9"></path>
                <path d="M370.162449,195.354829 C372.209172,200.443077 370.051089,218.42957 368.515087,218.981693 C366.979085,219.533816 352.728827,207.452132 350.684024,202.364065 C348.637302,197.275999 351.338745,191.582231 356.718592,189.646714 C362.096519,187.711196 368.115727,190.266944 370.162449,195.354829" id="Fill-12" fill="#BDD1F9"></path>
                <path d="M387.918961,232.820443 C382.401556,231.782824 367.702844,220.424409 368.004577,218.87352 C368.304436,217.322631 386.215387,212.097612 391.732792,213.135231 C397.252071,214.172849 400.870994,219.420023 399.81774,224.857366 C398.764485,230.292863 393.436366,233.858061 387.918961,232.820443" id="Fill-13" fill="#BDD1F9"></path>
                <path d="M357.16363,214.354744 C359.20846,219.443712 357.050348,237.429455 355.516246,237.981577 C353.980223,238.535515 339.729774,226.452394 337.683024,221.363426 C335.638194,216.276274 338.339674,210.582515 343.717672,208.646455 C349.097591,206.711303 355.11688,209.267592 357.16363,214.354744" id="Fill-14" fill="#BDD1F9"></path>
                <path d="M373.920812,251.820443 C368.403398,250.782824 353.704661,239.426255 354.004521,237.87352 C354.306254,236.322631 372.217235,231.097612 377.73465,232.135231 C383.252064,233.172849 386.870993,238.420023 385.817737,243.857366 C384.76448,249.292863 379.438226,252.858061 373.920812,251.820443" id="Fill-15" fill="#BDD1F9"></path>
                <path d="M334.203342,237.267693 C337.96574,241.441495 342.97677,259.750827 341.834483,260.870208 C340.690362,261.987679 323.46254,255.638152 319.698308,251.46626 C315.93591,247.292458 316.132098,240.732808 320.136521,236.811154 C324.140945,232.891409 330.439111,233.095801 334.203342,237.267693" id="Fill-16" fill="#BDD1F9"></path>
                <path d="M362.301229,271.978518 C356.753539,271.612731 340.900347,261.697776 341.000472,260.044961 C341.100598,258.392146 358.027357,250.646753 363.573193,251.01254 C369.119028,251.380262 373.331713,256.371609 372.97942,262.160332 C372.627127,267.949056 367.847065,272.346241 362.301229,271.978518" id="Fill-17" fill="#BDD1F9"></path>
                <path d="M409.998211,154.858066 C410.100662,157.632532 405.77109,165.973344 404.904356,166 C404.037622,166.02671 399.10564,157.970142 399.003189,155.195489 C398.900738,152.421023 401.279646,150.096141 404.316289,150.002891 C407.350882,149.909641 409.895761,152.083413 409.998211,154.858066" id="Fill-18" fill="#BDD1F9"></path>
                <path d="M412.932092,173.896032 C410.173838,173.31071 402.848826,167.024915 403.002378,166.172287 C403.15593,165.319659 412.132104,162.493649 414.888462,163.079176 C417.646716,163.664498 419.445742,166.560722 418.90357,169.547692 C418.363293,172.534661 415.690346,174.481559 412.932092,173.896032" id="Fill-116" fill="#BDD1F9"></path>
                <path d="M137.510254,146.626149 C137.510254,146.626149 142.454151,153.297714 146.574981,153.297714 C150.693979,153.297714 162.777961,140 162.777961,140 L168,140.998972 C168,140.998972 156.256825,166.789832 145.545232,166.997344 C134.832173,167.20504 126.797745,155.165871 127.003878,154.543152 C127.209645,153.920433 134.008007,146.626149 134.008007,146.626149 L137.510254,146.626149" id="Fill-58" fill="#FF8EB1"></path>
                <path d="M117.321872,132.66286 C117.321872,132.66286 125.435277,132.365062 129.552648,135.177746 C132.498041,137.189876 139,148.538456 139,148.538456 L131.535218,154.817794 C131.535218,154.817794 133.315748,161.66456 126.364396,165.101749 L125.105161,181.666339 C125.105161,181.666339 112.052559,189.167076 94.3684054,181.666339 C94.3684054,181.666339 91.000022,150.621932 87.8421041,153.33047 C84.6841862,156.039193 82.7896227,158.435107 82.7896227,158.435107 L71,146.871564 C71,146.871564 83.8524357,134.128502 88.1051859,132.130641 C98.0843189,127.442773 106.152411,131.95274 106.152411,131.95274 L117.321872,132.66286" id="Fill-61" fill="#FFB523"></path>
                <path d="M105.590967,163 C99.5565816,163 97.0409665,157.345208 97.0163504,157.288145 C96.9701713,157.180816 97.0251282,157.058819 97.139431,157.015351 C97.2527796,156.972061 97.3840656,157.0234 97.4306264,157.130729 C97.4540975,157.18493 99.8613254,162.580881 105.590967,162.580881 C111.341598,162.580881 113.556095,158.661773 113.577658,158.622062 C113.634523,158.519384 113.76829,158.47842 113.878586,158.531369 C113.988309,158.584497 114.031625,158.710608 113.975333,158.813643 C113.952434,158.855502 111.611231,163 105.590967,163" id="Fill-76" fill="#060633"></path>
                <path d="M131.784724,155 C131.677493,155 131.584584,154.923062 131.571363,154.818483 C131.566773,154.781159 131.067891,151.062443 128.067622,148.356418 C127.981139,148.278423 127.9771,148.147788 128.058441,148.064864 C128.140334,147.98194 128.276209,147.978067 128.362508,148.055885 C131.480107,150.867898 131.978805,154.611262 131.998452,154.769187 C132.01259,154.882393 131.928311,154.984859 131.810614,154.998415 C131.801984,154.999296 131.79317,155 131.784724,155" id="Fill-77" fill="#060633"></path>
                <path d="M396.969227,165.418956 C397.415708,169.399167 392.873723,181.866791 391.774974,181.998824 C390.678063,182.131048 383.493935,171.074695 383.047454,167.094104 C382.600972,163.113512 385.355194,159.511708 389.198978,159.049211 C393.044599,158.586524 396.522745,161.438365 396.969227,165.418956" id="Fill-20" fill="#BDD1F9"></path>
                <path d="M406.276442,191.867723 C402.311622,191.122478 391.780967,183.122311 392.003473,182.037365 C392.22406,180.952235 405.125551,177.355673 409.090371,178.100734 C413.055191,178.845796 415.638942,182.531743 414.86209,186.333376 C414.085239,190.135009 410.241262,192.612784 406.276442,191.867723" id="Fill-21" fill="#BDD1F9"></path>
                <path d="M357.329324,312.738958 C357.329324,312.738958 338.089674,253.306342 446,238 C446,238 419.487468,345.665652 357.329324,312.738958" id="Fill-22" fill="#0074CF"></path>
                <path d="M447,237 L357.086542,305 C356.052663,288.217471 363.038889,249.072703 447,237" id="Fill-23" fill="#008FFF"></path>
                <path d="M360.194674,301.991895 C360.140364,301.976949 360.0898,301.945188 360.052345,301.896612 C359.966199,301.784515 359.988672,301.621975 360.102909,301.536034 L445.586215,237.05222 C445.700453,236.966279 445.861509,236.988699 445.947655,237.102664 C446.033801,237.216629 446.011328,237.377302 445.897091,237.463243 L360.415657,301.947056 C360.350111,301.9975 360.267711,302.010578 360.194674,301.991895" id="Fill-24" fill="#060633"></path>
                <path d="M402.190949,271.651764 C402.071777,271.613346 401.989846,271.466877 402.001018,271.3036 C402.01219,271.121114 402.136949,270.986651 402.278466,271.001057 L431.766174,274.338631 C431.903967,274.350637 432.011967,274.513914 431.998933,274.698801 C431.98776,274.878886 431.863002,275.013349 431.721484,274.998942 L402.233776,271.661369 C402.21888,271.661369 402.205845,271.656566 402.190949,271.651764" id="Fill-25" fill="#060633"></path>
                <path d="M382.186649,285.992247 C382.174039,285.988527 382.159628,285.982946 382.147019,285.977365 C382.020923,285.919698 381.965081,285.767159 382.022725,285.636943 L393.524419,259.15097 C393.580261,259.020753 393.729774,258.966807 393.852267,259.020753 C393.978362,259.080281 394.034204,259.23096 393.978362,259.361176 L382.476668,285.849009 C382.424428,285.964344 382.301936,286.022011 382.186649,285.992247" id="Fill-26" fill="#060633"></path>
                <path d="M367,323.519777 C367,323.519777 374.346059,283.653268 439,307.727026 C439,307.727026 391.56561,361.278428 367,323.519777" id="Fill-27" fill="#008FFF"></path>
                <path d="M439,307 L367,322.518716 C367,322.518716 384.948908,361.448351 439,307" id="Fill-28" fill="#0074CF"></path>
                <path d="M403.181157,314.458775 C403.050287,314.417981 402.975503,314.298864 403.007286,314.179747 C403.044678,314.054103 403.190505,313.975779 403.336333,314.006782 L419.794258,317.534606 C419.934477,317.570504 420.027956,317.692885 419.992434,317.820161 C419.956912,317.947437 419.811084,318.024128 419.665257,317.993125 L403.205462,314.465301 C403.197984,314.46367 403.188636,314.460406 403.181157,314.458775" id="Fill-29" fill="#474FEA"></path>
                <path d="M394.650337,328.983171 L394.650337,328.983171 L374.17397,320.586591 C374.038125,320.53014 373.967486,320.358696 374.014579,320.199796 C374.063483,320.042988 374.213818,319.961447 374.349663,320.017898 L394.82603,328.412388 C394.961875,328.468839 395.032514,328.640283 394.985421,328.799182 C394.936517,328.955991 394.786182,329.037531 394.650337,328.983171" id="Fill-30" fill="#474FEA"></path>
                <polyline id="Fill-41" fill="#FF8EB1" points="287 85.6114649 275.581146 111 232 91.3887231 243.420734 66 257.454608 88.7371073 261.028404 90.3453381 287 85.6114649"></polyline>
                <polyline id="Fill-42" fill="#F777A6" points="239 93.5339485 240.521787 90.164771 259.959658 88 271 103.36822 269.358169 107 239 93.5339485"></polyline>
                <path d="M233,91.0647405 L233.039769,90.8726539 C233.72721,91.0153304 248.011965,89.4190772 260.037445,88.0083991 C260.488164,87.9555418 260.933201,88.1549059 261.19833,88.5291205 L277,110.885859 L276.842817,111 L261.039253,88.6432617 C260.815787,88.3270752 260.440819,88.1585446 260.058277,88.2031669 C253.937591,88.9213372 233.893862,91.2499327 233,91.0647405" id="Fill-43" fill="#060633"></path>
                <path d="M244,66 L288,85.8387072 L260.58755,90.9574471 C259.551184,91.1507004 258.507226,90.6740343 257.97196,89.7650209 L244,66" id="Fill-44" fill="#F777A6"></path>
                <path d="M244.470398,66.4238333 L258.113809,89.6356595 C258.619814,90.4953498 259.616833,90.9505573 260.59511,90.7675725 L287.360934,85.7681803 L244.470398,66.4238333 Z M259.108953,90.7722693 C258.632933,90.558286 258.22438,90.2013342 257.948888,89.7333516 L244,66 L288,85.8446432 L260.630718,90.956757 C260.105972,91.0548248 259.575603,90.9830587 259.108953,90.7722693 L259.108953,90.7722693 Z" id="Fill-45" fill="#060633"></path>
                <polyline id="Fill-46" fill="#008FFF" points="369.625827 86 382 113.999443 333.372296 135 321 107.000742 350.170241 112.3392 354.156703 110.617171 369.625827 86"></polyline>
                <polyline id="Fill-47" fill="#008FFF" points="339.723752 132 338 128.291754 351.26615 111 373.141429 113.385656 375 117.382743 339.723752 132"></polyline>
                <path d="M334.12394,136 L334,135.826811 C334.614151,135.367927 343.763527,122.477714 351.412671,111.5787 C351.699399,111.169567 352.182211,110.951338 352.674272,111.009193 L382,114.476736 L381.975952,114.690065 L352.650224,111.222523 C352.234006,111.173525 351.827039,111.358021 351.584708,111.703644 C347.690766,117.252655 334.923077,135.40411 334.12394,136" id="Fill-48" fill="#060633"></path>
                <path d="M322,107.915001 L370,87 L354.127837,112.710752 C353.527559,113.681617 352.384437,114.174442 351.263548,113.943829 L322,107.915001" id="Fill-49" fill="#008FFF"></path>
                <path d="M321.351423,107.88261 L350.870944,113.841147 C351.979712,114.064643 353.124185,113.582208 353.719913,112.63956 L369.729386,87.2297396 L321.351423,107.88261 Z M351.414052,114 C351.226126,114 351.038199,113.981452 350.850272,113.943437 L321,107.918605 L370,87 L369.911674,87.142141 L353.810117,112.694286 C353.293319,113.514443 352.376237,114 351.414052,114 L351.414052,114 Z" id="Fill-50" fill="#060633"></path>
                <path d="M321.698426,107.622777 L350.867983,113.729599 C351.949236,113.955785 353.062236,113.468208 353.641145,112.515579 L369.462175,86.4730024 L321.698426,107.622777 Z M352.53935,113.757423 C352.010862,113.991369 351.413278,114.063862 350.825031,113.940832 L321,107.696595 L370,86 L353.822287,112.628766 C353.512291,113.139624 353.058501,113.526884 352.53935,113.757423 L352.53935,113.757423 Z" id="Fill-51" fill="#91B5F8"></path>
                <path d="M322.041053,107.589369 L350.865783,113.624896 C351.916114,113.844992 353.00356,113.36981 353.56584,112.442584 L369.200189,86.7052484 L322.041053,107.589369 Z M351.379814,113.785171 C351.201666,113.785171 351.021663,113.767112 350.843514,113.729677 L321.694035,107.626051 L369.465556,86.4701029 L369.378337,86.615705 L353.65677,112.498643 C353.165007,113.306979 352.292823,113.785171 351.379814,113.785171 Z M321.347018,107.662922 L350.823102,113.834646 C351.385382,113.952407 351.962507,113.890704 352.49324,113.655747 C353.01655,113.424552 353.44893,113.043804 353.745844,112.555078 L369.732778,86.2351455 L321.347018,107.662922 Z M351.38167,114 C351.188676,114 350.993827,113.979872 350.800833,113.939427 L321,107.699793 L370,86 L369.910926,86.1456021 L353.834918,112.610948 C353.52687,113.118675 353.077788,113.513907 352.535921,113.753944 C352.166635,113.917229 351.776936,114 351.38167,114 L351.38167,114 Z" id="Fill-52" fill="#060633"></path>
                <polyline id="Fill-88" fill="#FFFFFF" points="214 149 229.735858 137 246 138.966704 214 149"></polyline>
                <polyline id="Fill-89" fill="#FFFFFF" points="225 135.342644 214 149 215.445112 133 225 135.342644"></polyline>
                <polyline id="Fill-90" fill="#060633" points="235.221156 142 236 144.474396 213 149 235.221156 142"></polyline>
                <polyline id="Fill-91" fill="#060633" points="224.975197 135 226 138.535131 214 148 224.975197 135"></polyline>
                <path d="M146,206.799534 L254.611206,151.05987 C257.364593,149.64671 260.635407,149.64671 263.390662,151.05987 L372,206.799534 C372,206.799534 372,209.031533 372,212.584843 L372,290.499764 C372,295.74716 367.716746,300 362.435997,300 L155.564003,300 C150.283254,300 146,295.74716 146,290.499764 L146,212.584843 C146,209.031533 146,206.799534 146,206.799534" id="Fill-97" fill="#049681"></path>
                <polygon id="Fill-98" fill="#FFFFFF" points="167 330 363 330 363 160 167 160"></polygon>
                <path d="M297.634803,187 L232.363334,187 C232.163966,187 232,186.760589 232,186.467733 L232,184.531994 C232,184.239411 232.163966,184 232.363334,184 L297.634803,184 C297.836034,184 298,184.239411 298,184.531994 L298,186.467733 C298,186.760589 297.836034,187 297.634803,187" id="Fill-99" fill="#BDD1F9"></path>
                <path d="M297.634803,202 L232.363334,202 C232.163966,202 232,201.760338 232,201.467782 L232,199.532218 C232,199.239662 232.163966,199 232.363334,199 L297.634803,199 C297.836034,199 298,199.239662 298,199.532218 L298,201.467782 C298,201.760338 297.836034,202 297.634803,202" id="Fill-100" fill="#BDD1F9"></path>
                <path d="M295.582431,265 L211.415671,265 C211.187906,265 211,264.73 211,264.402727 L211,262.597273 C211,262.267273 211.187906,262 211.415671,262 L295.582431,262 C295.812094,262 296,262.267273 296,262.597273 L296,264.402727 C296,264.73 295.812094,265 295.582431,265" id="Fill-101" fill="#BDD1F9"></path>
                <path d="M295.582431,282 L211.415671,282 C211.187906,282 211,281.73 211,281.4 L211,279.597273 C211,279.267273 211.187906,279 211.415671,279 L295.582431,279 C295.812094,279 296,279.267273 296,279.597273 L296,281.4 C296,281.73 295.812094,282 295.582431,282" id="Fill-102" fill="#BDD1F9"></path>
                <path d="M326.591019,274 L212.407122,274 C212.184042,274 212,273.73 212,273.4 L212,271.597273 C212,271.267273 212.184042,271 212.407122,271 L326.591019,271 C326.815958,271 327,271.267273 327,271.597273 L327,273.4 C327,273.73 326.815958,274 326.591019,274" id="Fill-103" fill="#BDD1F9"></path>
                <path d="M297.634803,243 L232.363334,243 C232.163966,243 232,242.760218 232,242.468665 L232,240.53406 C232,240.239782 232.163966,240 232.363334,240 L297.634803,240 C297.836034,240 298,240.239782 298,240.53406 L298,242.468665 C298,242.760218 297.836034,243 297.634803,243" id="Fill-104" fill="#BDD1F9"></path>
                <path d="M313.687479,212 L215.312521,212 C215.140354,212 215,211.795455 215,211.544545 L215,209.455455 C215,209.204545 215.140354,209 215.312521,209 L313.687479,209 C313.859646,209 314,209.204545 314,209.455455 L314,211.544545 C314,211.795455 313.859646,212 313.687479,212" id="Fill-105" fill="#BDD1F9"></path>
                <path d="M313.687479,224 L215.312521,224 C215.140354,224 215,223.795455 215,223.544545 L215,221.455455 C215,221.204545 215.140354,221 215.312521,221 L313.687479,221 C313.859646,221 314,221.204545 314,221.455455 L314,223.544545 C314,223.795455 313.859646,224 313.687479,224" id="Fill-106" fill="#BDD1F9"></path>
                <path d="M313.687479,234 L215.312521,234 C215.140354,234 215,233.795455 215,233.544545 L215,231.455455 C215,231.204545 215.140354,231 215.312521,231 L313.687479,231 C313.859646,231 314,231.204545 314,231.455455 L314,233.544545 C314,233.795455 313.859646,234 313.687479,234" id="Fill-107" fill="#BDD1F9"></path>
                <polyline id="Fill-108" fill="#00C98C" points="372 206 372 339 146 339 146 206 250.636168 277.543868 269.168291 277.543868 372 206"></polyline>
                <polyline id="Fill-109" fill="#07BA84" points="179 338 179 320.347023 260.030131 273 339 318.428421 339 337.455781 179 338"></polyline>
                <path d="M146.01681,338 L146,337.929981 C150.211818,336.999461 238.568479,285.03226 256.23757,274.625184 C257.083669,274.127679 258.977587,273.011056 258.977587,273.011056 L258.996264,273 L259.013074,273.011056 L261.773636,274.595702 L372,337.933666 L371.964512,337.996315 L258.996264,273.082918 C258.798281,273.200845 257.072463,274.217967 256.274926,274.687833 C238.603967,285.096751 150.239835,337.067638 146.01681,338" id="Fill-110" fill="#060633"></path>
                <polyline id="Fill-111" fill="#FFFFFF" points="305 308 330.297097 296 352 303.726309 305 308"></polyline>
                <polyline id="Fill-112" fill="#FFFFFF" points="326 294.173268 306 309 312.893609 288 326 294.173268"></polyline>
                <polyline id="Fill-113" fill="#0B0755" points="337.691169 305 338 309 305 308.218321 337.691169 305"></polyline>
                <polyline id="Fill-114" fill="#0B0755" points="325.635077 294 326 299.367861 306 309 325.635077 294"></polyline>
                <path d="M375.334252,150.282348 C374.490447,150.244365 373.625922,150.221163 372.765165,150.213305 L372.767049,150 C373.631573,150.008046 374.497981,150.031247 375.345553,150.069418 L375.334252,150.282348 Z M367.625107,150.339978 L367.611922,150.127234 C368.474563,150.077838 369.342854,150.0421 370.188544,150.020956 L370.194194,150.234074 C369.350388,150.25503 368.485864,150.290768 367.625107,150.339978 Z M380.457359,150.707835 C379.61732,150.604738 378.756563,150.516422 377.899573,150.445508 L377.918408,150.233138 C378.777282,150.30424 379.639922,150.39293 380.483728,150.496402 L380.457359,150.707835 Z M362.502,150.79166 L362.475631,150.580039 C363.332621,150.479 364.195262,150.389749 365.040951,150.315092 L365.059786,150.527275 C364.215981,150.601931 363.355223,150.690808 362.502,150.79166 Z M357.412796,151.538414 L357.375126,151.328478 C358.224583,151.1801 359.081573,151.0422 359.919728,150.919082 L359.951748,151.129767 C359.113592,151.252698 358.260369,151.390224 357.412796,151.538414 Z M385.525845,151.547957 C384.697107,151.373384 383.84765,151.213779 383.000078,151.073634 L383.035864,150.86351 C383.88532,151.00403 384.738544,151.164195 385.569165,151.33933 L385.525845,151.547957 Z M352.368796,152.556664 L352.321709,152.348973 C353.157981,152.15756 354.005553,151.974941 354.841825,151.805981 L354.885146,152.014795 C354.050757,152.183381 353.205068,152.365626 352.368796,152.556664 Z M390.494505,152.837142 C389.686485,152.586041 388.855864,152.349534 388.025243,152.134545 L388.079864,151.928351 C388.912369,152.144088 389.746757,152.38153 390.558544,152.633941 L390.494505,152.837142 Z M347.385068,153.829757 L347.32668,153.624873 C348.149767,153.39267 348.986039,153.167577 349.81666,152.955582 L349.869398,153.161964 C349.042544,153.373397 348.206272,153.598116 347.385068,153.829757 Z M395.312485,154.602707 C394.532718,154.271149 393.73035,153.953811 392.926097,153.659301 L392.999553,153.459281 C393.807573,153.754914 394.613709,154.073748 395.395359,154.406803 L395.312485,154.602707 Z M342.472913,155.35339 L342.403223,155.151686 C343.203709,154.880003 344.02868,154.612249 344.855534,154.356284 L344.919573,154.559859 C344.094602,154.815263 343.271515,155.082269 342.472913,155.35339 Z M399.915748,156.856628 C399.17365,156.442929 398.408951,156.043076 397.644252,155.668483 L397.738427,155.477257 C398.506893,155.853534 399.275359,156.255258 400.021223,156.670828 L399.915748,156.856628 Z M337.656816,157.164423 L337.570175,156.969642 C337.577709,156.965713 338.444117,156.586442 339.973515,156.015758 L340.048854,156.215404 C338.525107,156.783468 337.66435,157.160681 337.656816,157.164423 Z M404.245903,159.592543 C403.55466,159.100445 402.838932,158.620322 402.117553,158.165833 L402.23433,157.986021 C402.955709,158.442568 403.675204,158.924937 404.370214,159.419467 L404.245903,159.592543 Z M408.250214,162.781825 C407.613592,162.216567 406.954369,161.661974 406.291379,161.133203 L406.425107,160.966863 C407.091864,161.498067 407.754854,162.055279 408.393359,162.622969 L408.250214,162.781825 Z M411.889126,166.377134 C411.31466,165.747885 410.717592,165.127243 410.116757,164.532234 L410.267437,164.38105 C410.872039,164.978678 411.47099,165.602127 412.04734,166.234182 L411.889126,166.377134 Z M415.143806,170.319906 C414.631495,169.634711 414.10035,168.95831 413.565437,168.308853 L413.731184,168.173947 C414.267981,168.825836 414.80101,169.505044 415.315204,170.193045 L415.143806,170.319906 Z M418.014252,174.548768 C417.564097,173.819602 417.098874,173.097359 416.626117,172.402247 L416.805049,172.283246 C417.277806,172.98079 417.746796,173.705652 418.196951,174.437438 L418.014252,174.548768 Z M420.459029,179.032286 C420.103049,178.266072 419.715049,177.499485 419.30633,176.753853 L419.49468,176.651879 C419.907165,177.401626 420.297049,178.172518 420.653029,178.943035 L420.459029,179.032286 Z M422.270951,183.799275 C422.027981,182.989839 421.751107,182.177223 421.449748,181.383878 L421.651282,181.30866 C421.954524,182.106495 422.231398,182.923977 422.476252,183.738277 L422.270951,183.799275 Z M423.384097,188.773394 C423.257903,187.934582 423.101573,187.09128 422.91699,186.266688 L423.126058,186.220472 C423.312524,187.050116 423.470738,187.898283 423.596932,188.74196 L423.384097,188.773394 Z M360.339748,191.319767 L360.322796,191.107585 C361.198621,191.034425 362.07068,191.027128 362.908835,191.087377 L362.893767,191.299747 C362.066913,191.240807 361.206155,191.24773 360.339748,191.319767 Z M355.348485,192.38966 L355.28068,192.187768 C356.115068,191.905607 356.953223,191.672469 357.766893,191.495089 L357.813981,191.703342 C357.005961,191.879038 356.177223,192.110118 355.348485,192.38966 Z M367.813456,192.549825 C367.046874,192.194317 366.238854,191.908414 365.412,191.700161 L365.466621,191.493405 C366.304777,191.705213 367.125981,191.995607 367.903864,192.356541 L367.813456,192.549825 Z M423.787165,193.853417 C423.777748,193.000759 423.738194,192.143985 423.672272,191.306483 L423.88699,191.28983 C423.952913,192.13201 423.992466,192.993836 424,193.851172 L423.787165,193.853417 Z M350.671767,194.466575 L350.568175,194.280214 C351.334757,193.859031 352.112641,193.472275 352.87734,193.1308 L352.965864,193.325207 C352.206816,193.66425 351.434583,194.048385 350.671767,194.466575 Z M371.949612,195.479399 C371.339359,194.866241 370.68767,194.311461 370.011495,193.830777 L370.137689,193.657701 C370.821398,194.145308 371.482505,194.707759 372.102175,195.329524 L371.949612,195.479399 Z M346.366097,197.240474 L346.238019,197.069456 C346.936796,196.551162 347.648757,196.05738 348.355068,195.601581 L348.471845,195.780458 C347.769301,196.23345 347.061107,196.724613 346.366097,197.240474 Z M423.723126,198.964688 L423.510291,198.939989 C423.610117,198.094441 423.683573,197.240099 423.73066,196.400913 L423.943495,196.412514 C423.898291,197.256191 423.822951,198.114836 423.723126,198.964688 Z M374.99899,199.543792 C374.565786,198.785624 374.096796,198.067872 373.608971,197.410556 L373.780369,197.283696 C374.275728,197.948122 374.748485,198.672984 375.185456,199.438449 L374.99899,199.543792 Z M342.433359,200.52462 L342.286447,200.369506 C342.919301,199.77955 343.567223,199.205685 344.215146,198.663816 L344.352641,198.826788 C343.708485,199.366225 343.062447,199.93747 342.433359,200.52462 Z M422.828466,204.008225 L422.619398,203.959576 C422.815282,203.128062 422.990447,202.28794 423.137359,201.462038 L423.348311,201.499273 C423.201398,202.328917 423.026233,203.173155 422.828466,204.008225 Z M377.097204,204.184295 C376.805262,203.361013 376.486951,202.564488 376.151689,201.816798 L376.347573,201.729979 C376.684718,202.482908 377.004913,203.284859 377.298738,204.113567 L377.097204,204.184295 Z M338.87732,204.209367 L338.71534,204.069784 C339.280388,203.422946 339.864272,202.785464 340.453806,202.174551 L340.608252,202.321994 C340.022485,202.930287 339.440485,203.565336 338.87732,204.209367 Z M335.703631,208.229602 L335.528466,208.10611 C336.023825,207.411934 336.54367,206.71888 337.072932,206.048093 L337.242447,206.179631 C336.715068,206.846863 336.197107,207.537297 335.703631,208.229602 Z M421.387592,208.927521 L421.186058,208.856419 C421.466699,208.048106 421.728505,207.230438 421.965825,206.426054 L422.171126,206.485742 C421.933806,207.292184 421.670117,208.113594 421.387592,208.927521 Z M378.494757,209.092177 C378.376097,208.594466 378.25367,208.094884 378.125592,207.59343 C378.040835,207.262246 377.954194,206.936676 377.863786,206.616344 L378.070971,206.559276 C378.161379,206.880543 378.249903,207.207984 378.33466,207.541039 C378.462738,208.044364 378.585165,208.543946 378.703825,209.043529 L378.494757,209.092177 Z M332.93866,212.536863 L332.752194,212.432082 C333.174097,211.696742 333.624252,210.957659 334.085709,210.235416 L334.266524,210.349553 C333.806951,211.068054 333.35868,211.805265 332.93866,212.536863 Z M419.477728,213.685716 L419.283728,213.597774 C419.637825,212.817528 419.974971,212.027925 420.287631,211.247679 L420.487282,211.328136 C420.172738,212.108383 419.833709,212.901727 419.477728,213.685716 Z M379.521262,214.097357 C379.376233,213.262848 379.216136,212.418984 379.044738,211.588218 L379.255689,211.545183 C379.427087,212.37782 379.587184,213.225426 379.732214,214.061806 L379.521262,214.097357 Z M330.631379,217.09298 L330.435495,217.006909 C330.776408,216.236018 331.145573,215.455772 331.533573,214.690494 L331.725689,214.78592 C331.337689,215.547455 330.970408,216.32396 330.631379,217.09298 Z M417.164796,218.264285 L416.97833,218.161375 C417.394583,217.411066 417.79765,216.651401 418.178117,215.901092 L418.36835,215.998389 C417.987883,216.750569 417.582932,217.512105 417.164796,218.264285 Z M380.235107,219.154927 C380.144699,218.320418 380.03734,217.467199 379.916796,216.621464 L380.129631,216.591526 C380.250175,217.439132 380.357534,218.294223 380.447942,219.132474 L380.235107,219.154927 Z M328.842058,221.869886 L328.636757,221.80814 C328.885379,221.003569 329.164136,220.187771 329.467379,219.379458 L329.667029,219.454302 C329.367553,220.257002 329.088796,221.070928 328.842058,221.869886 Z M414.503417,222.652003 L414.322602,222.534124 C414.793476,221.819366 415.253049,221.09151 415.691903,220.371138 L415.874602,220.481533 C415.435748,221.203776 414.974291,221.933503 414.503417,222.652003 Z M380.61934,224.248048 C380.583553,223.404184 380.534583,222.547222 380.46866,221.699616 L380.683379,221.682776 C380.747417,222.534124 380.798272,223.392957 380.834058,224.238692 L380.61934,224.248048 Z M327.664874,226.83203 L327.452039,226.796479 C327.591417,225.965713 327.762816,225.119978 327.962466,224.283598 L328.171534,224.332247 C327.971883,225.164884 327.802369,226.005006 327.664874,226.83203 Z M411.538796,226.843256 L411.367398,226.714151 C411.883476,226.033072 412.393903,225.337025 412.881728,224.648462 L413.056893,224.771954 C412.567184,225.462388 412.056757,226.158436 411.538796,226.843256 Z M380.875495,229.359879 L380.660777,229.354266 C380.677728,228.71248 380.687146,228.057597 380.687146,227.408327 C380.687146,227.206249 380.685262,227.004171 380.685262,226.802092 L380.898097,226.800221 C380.899981,227.0023 380.901864,227.206249 380.901864,227.408327 C380.901864,228.059468 380.892447,228.716223 380.875495,229.359879 Z M408.306718,230.836173 L408.144738,230.697712 C408.702252,230.050313 409.254117,229.387946 409.787146,228.731191 L409.954777,228.864039 C409.419864,229.522665 408.866117,230.186903 408.306718,230.836173 Z M327.214718,231.904569 L327,231.902698 C327.007534,231.062576 327.050854,230.200001 327.126194,229.341168 L327.340913,229.359879 C327.263689,230.213099 327.222252,231.07006 327.214718,231.904569 Z M380.560951,234.46984 L380.346233,234.449258 C380.429107,233.605394 380.496913,232.748433 380.54965,231.904569 L380.762485,231.917666 C380.711631,232.765272 380.641942,233.624105 380.560951,234.46984 Z M404.844854,234.617657 L404.690408,234.46984 C405.281825,233.861734 405.873243,233.234917 406.445825,232.6081 L406.605922,232.750304 C406.029573,233.378992 405.438155,234.00768 404.844854,234.617657 Z M327.410602,237.012658 C327.265573,236.181892 327.158214,235.324931 327.090408,234.466098 L327.303243,234.449258 C327.371049,235.302477 327.478408,236.151955 327.621553,236.975236 L327.410602,237.012658 Z M401.162621,238.202675 L401.017592,238.045503 C401.644796,237.467334 402.272,236.876068 402.880369,236.282931 L403.031049,236.43449 C402.420796,237.029498 401.791709,237.622635 401.162621,238.202675 Z M379.882893,239.546121 L379.670058,239.508699 C379.813204,238.676062 379.941282,237.826585 380.054291,236.984592 L380.267126,237.012658 C380.154117,237.856522 380.024155,238.707871 379.882893,239.546121 Z M397.276971,241.580002 L397.139476,241.415345 C397.796816,240.87647 398.457922,240.318883 399.103961,239.757555 L399.245223,239.916598 C398.597301,240.479798 397.934311,241.039255 397.276971,241.580002 Z M328.779903,241.956092 C328.472893,241.162747 328.199786,240.341337 327.971883,239.518055 L328.179068,239.460051 C328.405087,240.27959 328.674427,241.091646 328.981437,241.877506 L328.779903,241.956092 Z M378.83567,244.558785 L378.628485,244.508265 C378.831903,243.684984 379.022136,242.846733 379.195417,242.017838 L379.404485,242.060873 C379.231204,242.89351 379.039087,243.733632 378.83567,244.558785 Z M393.206738,244.736539 L393.080544,244.564398 C393.766136,244.062945 394.455495,243.54278 395.129786,243.020745 L395.261631,243.187272 C394.58734,243.711179 393.896097,244.233214 393.206738,244.736539 Z M331.119204,246.525306 C330.653981,245.804934 330.220777,245.056496 329.832777,244.298703 L330.024893,244.203277 C330.409126,244.953586 330.838563,245.69454 331.300019,246.409298 L331.119204,246.525306 Z M388.970757,247.655447 L388.852097,247.477693 C389.564058,247.015533 390.283553,246.536532 390.987981,246.050048 L391.110408,246.225931 C390.404097,246.712415 389.684602,247.193287 388.970757,247.655447 Z M377.423049,249.483507 L377.219631,249.418019 C377.48332,248.613448 377.733825,247.792037 377.969262,246.97624 L378.174563,247.034244 C377.94101,247.853783 377.686738,248.677065 377.423049,249.483507 Z M384.569029,250.3255 L384.46167,250.140262 C385.198117,249.723007 385.943981,249.287042 386.67666,248.841722 L386.78967,249.023218 C386.053223,249.468538 385.307359,249.908246 384.569029,250.3255 Z M334.315495,250.550031 C333.718427,249.926957 333.149612,249.275816 332.622233,248.613448 L332.789864,248.4806 C333.313476,249.137355 333.878524,249.784754 334.469942,250.404086 L334.315495,250.550031 Z M380.010971,252.722373 L379.916796,252.52965 C380.681495,252.159173 381.451845,251.769985 382.20901,251.371442 L382.308835,251.560423 C381.549786,251.958966 380.777553,252.350025 380.010971,252.722373 Z M338.201146,253.923616 C337.504252,253.429647 336.824311,252.892643 336.176388,252.329443 L336.31765,252.168529 C336.959922,252.727986 337.636097,253.259377 338.325456,253.749604 L338.201146,253.923616 Z M375.65068,254.292222 L375.451029,254.211765 C375.773107,253.427776 376.085767,252.626947 376.379592,251.829861 L376.581126,251.904704 C376.287301,252.703662 375.972757,253.506362 375.65068,254.292222 Z M375.302233,254.812386 L375.221243,254.61405 C376.002893,254.299706 376.797728,253.962909 377.586913,253.613014 L377.673553,253.807608 C376.884369,254.159374 376.085767,254.496171 375.302233,254.812386 Z M342.678214,256.472047 C341.892796,256.122153 341.116796,255.729223 340.376583,255.308226 L340.482058,255.122988 C341.218505,255.542113 341.986971,255.92943 342.764854,256.277454 L342.678214,256.472047 Z M370.452233,256.554376 L370.388194,256.352297 C371.192447,256.097828 372.011767,255.820906 372.82167,255.529016 L372.893243,255.729223 C372.081456,256.022985 371.260252,256.299907 370.452233,256.554376 Z M365.474155,257.892209 L365.427068,257.682646 C366.250155,257.50115 367.090194,257.295329 367.922699,257.072669 L367.97732,257.278489 C367.142932,257.503021 366.30101,257.708841 365.474155,257.892209 Z M347.562117,258.126096 C346.718311,257.922146 345.883922,257.680775 345.081553,257.411337 L345.151243,257.209259 C345.947961,257.476826 346.774816,257.716326 347.612971,257.918404 L347.562117,258.126096 Z M360.388718,258.74917 L360.364233,258.537736 C361.198621,258.442311 362.053728,258.320689 362.906951,258.176615 L362.942738,258.386178 C362.085748,258.532123 361.226874,258.653744 360.388718,258.74917 Z M352.660738,258.923182 C351.792447,258.855823 350.929806,258.754783 350.095417,258.625678 L350.12932,258.414244 C350.958058,258.54335 351.815049,258.642518 352.677689,258.709877 L352.660738,258.923182 Z M373.52233,258.956862 L373.330214,258.861436 C373.71068,258.101771 374.081728,257.327138 374.433942,256.556247 L374.629825,256.644188 C374.275728,257.41695 373.90468,258.195326 373.52233,258.956862 Z M355.553786,259.033577 C355.448311,259.033577 355.344718,259.033577 355.239243,259.031706 L355.241126,258.820272 C356.083049,258.825885 356.943806,258.805303 357.806447,258.756655 L357.819631,258.969959 C357.058699,259.012995 356.297767,259.033577 355.553786,259.033577 Z M371.049301,263.451232 L370.866602,263.342709 C371.303573,262.611111 371.73301,261.864544 372.139845,261.12359 L372.328194,261.2265 C371.919476,261.969325 371.490039,262.717763 371.049301,263.451232 Z M368.242893,267.747267 L368.067728,267.625645 C368.55932,266.93334 369.043379,266.222324 369.508602,265.509437 L369.687534,265.625445 C369.222311,266.340203 368.736369,267.054961 368.242893,267.747267 Z M365.112524,271.81877 L364.94866,271.684051 C365.491107,271.031038 366.029786,270.357444 366.547748,269.68385 L366.719146,269.814827 C366.199301,270.490292 365.658738,271.163886 365.112524,271.81877 Z M361.665728,275.63019 L361.513165,275.480503 C362.102699,274.879881 362.694117,274.253064 363.268583,273.616892 L363.42868,273.759095 C362.85233,274.397139 362.259029,275.025827 361.665728,275.63019 Z M357.908155,279.138494 L357.766893,278.977579 C358.409165,278.429349 359.05332,277.854922 359.678641,277.271141 L359.825553,277.426442 C359.19835,278.012094 358.552311,278.588392 357.908155,279.138494 Z M353.836039,282.287547 L353.713612,282.113535 C354.402971,281.632663 355.097981,281.123725 355.779806,280.594206 L355.91165,280.762604 C355.226058,281.293995 354.529165,281.806675 353.836039,282.287547 Z M349.447495,284.983795 L349.345786,284.796685 C350.08035,284.403755 350.828097,283.975274 351.568311,283.518727 L351.68132,283.700223 C350.93734,284.158642 350.185825,284.590865 349.447495,284.983795 Z M344.72934,287.066324 L344.65965,286.864245 C345.437534,286.596679 346.239903,286.278593 347.042272,285.921213 L347.128913,286.115807 C346.320893,286.475057 345.512874,286.795015 344.72934,287.066324 Z M341.227922,288 L341.188369,287.790437 C341.517981,287.730562 341.858893,287.659461 342.201689,287.580875 L342.25066,287.786695 C341.904097,287.867152 341.559417,287.940125 341.227922,288 L341.227922,288 Z" id="Fill-115" fill="#060633"></path>
                <path d="M160.096871,294.669317 C160.096871,294.669317 171.793438,260.386946 111,250 C111,250 124.503191,312.953124 160.096871,294.669317" id="Fill-31" fill="#0074CF"></path>
                <path d="M111,250 L160.904959,290 C161.718072,280.448347 158.300774,258.034747 111,250" id="Fill-32" fill="#008FFF"></path>
                <path d="M157.88587,288.995368 C157.917297,288.989707 157.946875,288.970835 157.96721,288.942529 C158.018971,288.878366 158.00788,288.78401 157.945026,288.733058 L110.238655,250.031944 C110.174692,249.980992 110.082445,249.992315 110.031977,250.056477 C109.981325,250.120639 109.992047,250.214995 110.05564,250.267835 L157.762011,288.967061 C157.798984,288.997255 157.843351,289.006691 157.88587,288.995368" id="Fill-33" fill="#060633"></path>
                <path d="M136.881194,270.425193 C136.953025,270.400848 137.004526,270.308879 136.999685,270.20068 C136.994264,270.081661 136.921078,269.992397 136.836083,270.000512 L119.144146,271.572102 C119.060699,271.577512 118.995064,271.680301 119.000292,271.79932 C119.005519,271.918339 119.078899,272.007603 119.163701,271.999488 L136.856025,270.430603 C136.86435,270.427898 136.873063,270.427898 136.881194,270.425193" id="Fill-34" fill="#060633"></path>
                <path d="M145.899021,278.996568 C145.905617,278.994674 145.913863,278.990885 145.920459,278.988991 C145.986421,278.956787 146.017753,278.867753 145.989719,278.790084 L140.252666,263.091651 C140.224632,263.013983 140.145478,262.981779 140.081165,263.010194 C140.013554,263.042398 139.982222,263.131432 140.010256,263.207206 L145.748957,278.907534 C145.773693,278.97573 145.838006,279.011723 145.899021,278.996568" id="Fill-35" fill="#060633"></path>
                <path d="M122.882625,303.949719 C122.895206,303.942034 122.907411,303.932427 122.91849,303.920899 C123.025521,303.813304 123.027399,303.63654 122.922621,303.527024 L101.465695,281.081899 C101.360354,280.972382 101.188165,280.974304 101.08151,281.078056 C100.974479,281.185651 100.972601,281.360494 101.077379,281.47001 L122.534492,303.917056 C122.628567,304.015045 122.77597,304.026573 122.882625,303.949719" id="Fill-40" fill="#060633"></path>
                <path d="M128.070518,317 C128.070518,317 126.604778,331.761641 129.558907,333.435215 C134.909411,336.468686 144.777929,339.359406 143.951149,341.964622 C143.124368,344.56796 119.471817,344.669389 118.814996,342.295205 C118.158359,339.921021 120.808844,332.653838 118,318.510161 L128.070518,317" id="Fill-54" fill="#FF8EB1"></path>
                <path d="M119.34534,336.413361 C119.086505,339.274654 118.862131,341.239124 119.10241,342.154249 C119.777616,344.724736 144.099214,344.614921 144.949375,341.796333 C145.579895,339.703746 140.208168,337.346789 135.111748,335 C133.906376,337.173932 131.33677,340.561931 119.34534,336.413361" id="Fill-55" fill="#0B0755"></path>
                <path d="M124,182.301203 L124,186.53021 C124,186.53021 116.397427,194.337237 94.0513552,186.53021 L94,182.301203 L113.623517,181 L124,182.301203" id="Fill-60" fill="#060633"></path>
                <path d="M120,108.102227 C120,108.102227 121.235508,106.615509 122.519213,107.095398 C125.79248,108.318725 122.89313,110.449852 120.9655,111 L120,108.102227" id="Fill-63" fill="#FB9391"></path>
                <path d="M104.719161,88.2196106 C98.2612981,89.4197215 93.6241508,95.5053663 94.0240122,102.237471 C94.1557119,104.450946 94.7984576,106.491605 95.8165199,108.261369 C98.1237369,112.698108 100.020285,116.26832 102.164114,118.777917 C104.337251,121.321964 105.563578,124.573276 105.47126,127.957306 L105.37766,131.374657 C113.364265,134.369193 116.483477,132.309144 116.483477,132.309144 L115.374196,122.334387 C123.433886,120.37317 120.621851,105.003091 120.11227,100.42215 L120.099815,100.426103 C120.087176,100.253664 120.074537,100.081224 120.055121,99.9078437 C119.202462,92.2414411 112.228057,86.8239052 104.719161,88.2196106" id="Fill-64" fill="#FF8EB1"></path>
                <path d="M105.697847,102.331095 C103.685556,105.335741 101.519464,108.304123 100.141601,111.634581 C99.9887336,112.000375 98.924446,114.746901 99.3520649,115 C97.0187329,113.618648 95.3659327,111.349682 93.9292751,109.055424 C91.4391558,105.079108 91.4453153,99.9613351 93.4540601,95.7901271 C95.4398467,91.6663403 99.283937,89.2030401 103.725126,88.3290019 C108.487915,87.3919213 113.917051,88.4019004 117.314858,92.0650505 C120.503614,95.5033682 121.173507,100.234147 122,104.648412 C121.071968,99.6931728 113.902119,96.7342744 109.660088,95.4299118 C109.783464,95.4678487 107.149437,100.08835 107.007395,100.315972 C106.585375,100.992514 106.145437,101.662734 105.697847,102.331095" id="Fill-65" fill="#0B0755"></path>
                <path d="M100.30392,111.815453 C100.079689,111.492989 99.7303737,111.26613 99.3345888,111.163663 C98.5196253,110.952614 97.1067672,110.778406 96.2701605,111.764742 C95.0428614,113.211805 98.2503579,116.355909 100.797099,114.349828 C100.797099,114.349828 101.494298,113.527707 100.30392,111.815453" id="Fill-66" fill="#FB9391"></path>
                <path d="M119.9997,105.965633 C119.98075,104.861077 119.06987,103.981351 117.965317,104.0003 C116.861085,104.01925 115.981039,104.930132 116.000311,106.034367 C116.01926,107.138923 116.93014,108.018649 118.034372,107.9997 C119.138925,107.98075 120.018649,107.069868 119.9997,105.965633" id="Fill-67" fill="#060633"></path>
                <path d="M108.999689,108.96547 C108.98074,107.861152 108.070182,106.981038 106.965628,107.000311 C105.861396,107.019262 104.98135,107.929891 105.0003,109.03453 C105.019571,110.138848 105.930129,111.018962 107.034683,110.999689 C108.138915,110.980738 109.018961,110.070109 108.999689,108.96547" id="Fill-68" fill="#060633"></path>
                <path d="M118,115.761486 C118,115.761486 116.548855,114.868123 115.991798,115.016664 C115.434742,115.165206 115.147274,115.754535 115.147274,115.754535 C115.147274,115.754535 114.789179,115.184699 114.103788,115.195428 C113.41822,115.206005 112,116.821373 112,116.821373 C112,116.821373 114.046436,119.341739 116.108095,118.96079 C118.207635,118.572739 117.978936,115.893103 117.978936,115.893103 L118,115.761486" id="Fill-69" fill="#FA7267"></path>
                <path d="M104.521224,107.993556 C104.389378,108.022472 104.251816,107.954181 104.147483,107.78653 C103.960255,107.486912 103.950072,106.983037 104.123901,106.660964 C104.175889,106.564372 105.435924,104.29755 107.498644,104.002854 C107.753223,103.96594 107.977075,104.291398 107.998513,104.729751 C108.019772,105.168411 107.809856,105.56339 107.576357,105.590152 C105.857722,105.838399 104.811534,107.726545 104.801172,107.746233 C104.724173,107.888044 104.624664,107.970792 104.521224,107.993556" id="Fill-70" fill="#060633"></path>
                <path d="M115.387398,105.996429 C115.263101,105.977858 115.146047,105.889871 115.072109,105.742413 C114.939391,105.47845 114.99514,105.123624 115.196069,104.949638 C115.256196,104.897686 116.686279,103.679562 118.631063,104.081034 C118.86955,104.129892 119.031911,104.422595 118.994689,104.734974 C118.957973,105.047575 118.726054,105.262238 118.49683,105.212054 C116.88805,104.88 115.688539,105.895397 115.676075,105.905567 C115.587148,105.982059 115.485252,106.010799 115.387398,105.996429" id="Fill-71" fill="#060633"></path>
                <path d="M114.636505,112.89231 C116.553175,112.551531 117.03441,111.53953 116.99813,110.980267 C116.991728,110.882501 116.928506,110.790342 116.821535,110.722011 C114.826438,109.451229 114.649843,107.384127 114.648243,107.363628 C114.632771,107.153028 114.360409,106.99061 114.04003,107.000422 C113.723653,107.009533 113.472365,107.188771 113.48677,107.39937 C113.493706,107.493106 113.670301,109.659901 115.823053,111.145313 C115.761165,111.452978 115.409042,112.157663 113.544657,112.236682 C113.218143,112.252276 112.98046,112.432039 113.001267,112.642463 C113.022341,112.852713 113.298705,113.012853 113.619083,112.999186 C113.996548,112.983067 114.3348,112.945923 114.636505,112.89231" id="Fill-72" fill="#EA6868"></path>
                <path d="M118,115 L112,116.98776 C112,116.98776 114.246106,119.34734 115.874085,118.95625 C117.502242,118.565159 118,115 118,115" id="Fill-73" fill="#FAFAFC"></path>
                <path d="M87.1421573,188 C87.1421573,188 92.5069716,195.378122 91.9609833,197.091998 C91.4151829,198.806243 89.1166209,203.632425 88.9388835,204.481537 C88.7615218,205.331017 88.8691789,209.898654 88.394774,210.607628 C87.9203692,211.316602 86.7782277,205.708155 86.7782277,205.708155 C86.7782277,205.708155 87.0668162,210.627884 86.1920324,210.935414 C85.3172487,211.244784 84.5409157,205.995243 84.5409157,205.995243 C84.5409157,205.995243 84.9955928,210.972243 84.1388458,211 C83.2822867,211.02933 82.7736872,206.200201 82.7736872,206.200201 C82.7736872,206.200201 83.0711061,210.069912 82.391345,210.07912 C81.7113961,210.086486 80.1996886,203.756726 81.529901,201.532019 C84.6729975,196.275481 83.7504914,193.462786 83.7504914,193.462786 L87.1421573,188" id="Fill-74" fill="#FF8EB1"></path>
                <path d="M90.3743005,194 C90.3743005,194 93.7177845,198.342251 93.7595044,199.996972 C93.80146,201.651693 94.4161802,205.009282 93.4995211,205 C92.582862,204.990862 91.3333866,200.341485 90.6729395,200.144516 C90.0124924,199.948094 90,197.845087 90,197.845087 L90.3743005,194" id="Fill-75" fill="#FB9391"></path>
                <path d="M114.000097,184.817018 C112.796344,184.817018 111.817168,185.796218 111.817168,186.999806 C111.817168,188.203588 112.796344,189.182788 114.000097,189.182788 C115.203656,189.182788 116.183026,188.203588 116.183026,186.999806 C116.183026,185.796218 115.203656,184.817018 114.000097,184.817018 Z M114.000097,191 C111.794478,191 110,189.205479 110,186.999806 C110,184.794327 111.794478,183 114.000097,183 C116.205522,183 118,184.794327 118,186.999806 C118,189.205479 116.205522,191 114.000097,191 L114.000097,191 Z" id="Fill-78" fill="#BDD1F9"></path>
                <path d="M161.208333,141.783823 C161.208333,141.783823 164.893776,133.829179 166.571863,133.467338 C168.249949,133.105095 173.32388,132.717467 174.111351,132.461197 C174.900805,132.204927 178.657656,129.944432 179.464963,130.001045 C180.272269,130.057659 176.124658,133.670017 176.124658,133.670017 C176.124658,133.670017 180.089782,131.092812 180.748322,131.671635 C181.406862,132.250459 177.390165,135.388759 177.390165,135.388759 C177.390165,135.388759 181.325536,132.646952 181.742082,133.343434 C182.160612,134.039916 178.370041,136.756741 178.370041,136.756741 C178.370041,136.756741 181.458434,134.670921 181.775803,135.230806 C182.095155,135.79049 177.515129,140.052389 175.053539,140.006453 C169.233792,139.898465 167.313712,142 167.313712,142 L161.208333,141.783823" id="Fill-79" fill="#FF8EB1"></path>
                <polyline id="Fill-80" fill="#FFFFFF" points="173.928766 113 162 125.72504 184.071234 146 196 133.27496 179.364993 130.733052 177.554175 129.070374 173.928766 113"></polyline>
                <polyline id="Fill-81" fill="#FFFFFF" points="180.399956 143 182 141.194694 178.471698 128.756535 166.724989 126 165 127.945962 180.399956 143"></polyline>
                <path d="M183.900639,146 L184,145.929926 C183.752535,145.560687 181.199148,136.768655 179.088198,129.351546 C179.007584,129.07298 178.78824,128.86064 178.51078,128.79711 L162.028121,125 L162,125.120705 L178.484533,128.917816 C178.718875,128.971527 178.904474,129.15114 178.971964,129.386198 C180.046187,133.162517 183.58006,145.520837 183.900639,146" id="Fill-82" fill="#060633"></path>
                <path d="M196,134 L174,113 L177.713358,130.428478 C177.854371,131.08639 178.378942,131.583982 179.027604,131.672941 L196,134" id="Fill-83" fill="#FFFFFF"></path>
                <path d="M177.75555,130.407842 C177.892149,131.050673 178.410479,131.541265 179.044824,131.628259 L195.865272,133.934562 L174.074849,113.135303 L177.75555,130.407842 Z M179.039211,131.674451 C178.386153,131.584762 177.852854,131.079735 177.71064,130.417657 L174.016841,113.072752 L174,113 L196,134 L179.039211,131.674451 L179.039211,131.674451 Z" id="Fill-84" fill="#060633"></path>
                <path d="M174.19865,113.35689 L177.822616,130.374003 C177.956287,130.996317 178.457553,131.470834 179.072068,131.555044 L195.643544,133.827188 L174.19865,113.35689 Z M177.707511,130.400164 L174,113 L196,134 L179.055359,131.676681 C178.721181,131.631043 178.418565,131.47809 178.180928,131.251812 C177.947004,131.028588 177.778059,130.73414 177.707511,130.400164 L177.707511,130.400164 Z" id="Fill-85" fill="#FFFFFF"></path>
                <path d="M177.863766,130.353693 C177.994961,130.963565 178.486477,131.428998 179.087015,131.51167 L195.512179,133.763387 L174.271628,113.48881 L177.863766,130.353693 Z M179.081472,131.557092 C178.460608,131.471949 177.954309,130.992262 177.821267,130.363575 L174.212498,113.426853 L174.197715,113.355204 L195.645221,133.828004 L179.081472,131.557092 Z M177.747354,130.38011 C177.817571,130.701295 177.97833,130.990172 178.213002,131.215571 C178.453217,131.444202 178.750714,131.58845 179.072232,131.632542 L195.866958,133.935383 L174.073912,113.133605 L177.747354,130.38011 Z M179.066689,131.678344 C178.734084,131.632732 178.429195,131.484493 178.183437,131.2494 L178.198219,131.232486 L178.183437,131.2494 C177.941374,131.017539 177.775071,130.7203 177.704855,130.389802 L174.014782,113.071839 L174,113 L196,134 L179.066689,131.678344 L179.066689,131.678344 Z" id="Fill-86" fill="#060633"></path>
                <path d="M164.458333,137 C164.458333,137 167.048376,132.393946 168.515714,131.512547 C169.983052,130.630932 172.752812,128.466771 173.101674,129.121444 C173.450537,129.776334 169.769506,133.055535 169.84985,133.625051 C169.932308,134.194567 168.050563,135.285833 168.050563,135.285833 L164.458333,137" id="Fill-87" fill="#FF8EB1"></path>
            </g>
        </g>
    </g>
</svg>