<?xml version="1.0" encoding="UTF-8"?>
<svg height="36px" version="1.1" viewBox="0 0 36 36" width="36px" xmlns="http://www.w3.org/2000/svg">
  <title>path-outline</title>
  <g id="Page-2" stroke="none" stroke-width="1" fill="none" fill-rule="evenodd">
    <g id="çalıştırma-servisi" transform="translate(-119.000000, -1453.000000)" fill="#008FFF">
      <g id="section3" transform="translate(-66.000000, 1200.000000)">
        <g id="Shape" transform="translate(185.000000, 253.000000)">
          <path
            d="M0,0 L25.7142857,0 L25.7142857,10.2857143 L36,10.2857143 L36,36 L10.2857143,36 L10.2857143,25.7142857 L0,25.7142857 L0,0 Z M5,5 L20,5 L20,10.3333333 L10,10.3333333 L10,21 L5,21 L5,5 Z M15,31 L31,31 L31,16 L25.6666667,16 L25.6666667,26 L15,26 L15,31 Z M20,16 L15,16 L15,21 L20,21 L20,16 Z"></path>
        </g>
      </g>
    </g>
  </g>
</svg>
