<svg id="Layer_1" data-name="Layer 1" xmlns="http://www.w3.org/2000/svg" viewBox="0 0 773 130.14"><defs><style>.cls-1{fill:#272727;}.cls-2{fill:#fff;}.cls-3{fill:#bcbec0;}.cls-4{fill:#f1f2f2;}</style></defs><path class="cls-1" d="M773,372.49H760.55l-3-.07-1.81,2.31c-.46.48-6,6-21.79,8.75a122.3,122.3,0,0,1-21,1.64c-21.58,0-48-4.18-78.45-12.41a378.11,378.11,0,0,0-98.63-12.84,387.38,387.38,0,0,0-39.34,2,349.06,349.06,0,0,0-45.64,7.58v12.71a333.35,333.35,0,0,1,46.88-8,378,378,0,0,1,38.11-1.91,366,366,0,0,1,95.4,12.41c31.54,8.53,58.94,12.85,81.47,12.85,31.17,0,45.08-8.26,50.26-12.64h10Z" transform="translate(0 -305.5)"/><path class="cls-2" d="M773,375.57H760.51l-1.47,0-.92,1.18c-.06.07-5.67,6.61-23.62,9.79-16.75,3-47.85,3.49-100.83-10.83A376.1,376.1,0,0,0,535.85,363a385.89,385.89,0,0,0-39,2,343.08,343.08,0,0,0-45.95,7.69V379A336.91,336.91,0,0,1,497.44,371c31.63-3.22,80.66-4,134.62,10.59,95,25.68,124.05,5.48,129.76.1H773Z" transform="translate(0 -305.5)"/><path class="cls-3" d="M773,379.81H761.82c-5.71,5.38-34.74,25.58-129.76-.11-54-14.59-103-13.81-134.62-10.59A338.46,338.46,0,0,0,450.87,377V379A336.91,336.91,0,0,1,497.44,371c31.63-3.22,80.66-4,134.62,10.59,95,25.68,124.05,5.48,129.76.1H773Z" transform="translate(0 -305.5)"/><path class="cls-1" d="M276.5,361.85a387.72,387.72,0,0,0-39.35-2,378,378,0,0,0-98.62,12.84c-30.48,8.23-56.88,12.41-78.46,12.41a122.38,122.38,0,0,1-21-1.64c-15.76-2.79-21.33-8.27-21.79-8.75l-1.8-2.31-3,.07H0v12.32H10c5.18,4.38,19.09,12.64,50.26,12.64,22.53,0,49.94-4.32,81.47-12.85a366,366,0,0,1,95.41-12.41,377.9,377.9,0,0,1,38.1,1.91,333.35,333.35,0,0,1,46.88,8V369.43A349.15,349.15,0,0,0,276.5,361.85Z" transform="translate(0 -305.5)"/><path class="cls-2" d="M276.19,364.91a386.1,386.1,0,0,0-39-2,376.1,376.1,0,0,0-97.82,12.73c-53,14.32-84.08,13.8-100.83,10.83-17.95-3.18-23.56-9.72-23.61-9.79L14,375.54l-1.47,0H0v6.16H11.18c5.71,5.38,34.74,25.58,129.76-.1,54-14.59,103-13.81,134.62-10.59A336.63,336.63,0,0,1,322.13,379V372.6A343.16,343.16,0,0,0,276.19,364.91Z" transform="translate(0 -305.5)"/><path class="cls-3" d="M275.56,369.11c-31.63-3.22-80.66-4-134.62,10.59-95,25.69-124,5.49-129.76.11H0v1.92H11.18c5.71,5.38,34.74,25.58,129.76-.1,54-14.59,103-13.81,134.62-10.59A336.63,336.63,0,0,1,322.13,379V377A338.18,338.18,0,0,0,275.56,369.11Z" transform="translate(0 -305.5)"/><path class="cls-3" d="M417,385a3.23,3.23,0,0,0-3.23-3.23h-26.9a3.23,3.23,0,0,0-3.22,3.23h0a3.22,3.22,0,0,0,3.22,3.22h26.9A3.23,3.23,0,0,0,417,385Z" transform="translate(0 -305.5)"/><path class="cls-4" d="M386.83,385h26.9a3.24,3.24,0,0,0,2.78-1.61A3.11,3.11,0,0,1,417,385a3.23,3.23,0,0,1-3.23,3.22h-26.9a3.22,3.22,0,0,1-3.22-3.22,3.11,3.11,0,0,1,.45-1.61A3.21,3.21,0,0,0,386.83,385Z" transform="translate(0 -305.5)"/><path class="cls-1" d="M418.51,385a4.78,4.78,0,0,1-4.78,4.77h-26.9a4.78,4.78,0,0,1,0-9.55h26.9A4.78,4.78,0,0,1,418.51,385Zm-4.78,1.67a1.68,1.68,0,0,0,0-3.35h-26.9a1.68,1.68,0,0,0,0,3.35Z" transform="translate(0 -305.5)"/><path class="cls-3" d="M417,356.17a3.23,3.23,0,0,0-3.23-3.23h-26.9a3.23,3.23,0,0,0-3.22,3.23h0a3.22,3.22,0,0,0,3.22,3.22h26.9a3.23,3.23,0,0,0,3.23-3.22Z" transform="translate(0 -305.5)"/><path class="cls-4" d="M386.83,356.17h26.9a3.24,3.24,0,0,0,2.78-1.61,3.14,3.14,0,0,1,.45,1.61,3.23,3.23,0,0,1-3.23,3.22h-26.9a3.22,3.22,0,0,1-3.22-3.22,3.14,3.14,0,0,1,.45-1.61A3.21,3.21,0,0,0,386.83,356.17Z" transform="translate(0 -305.5)"/><path class="cls-1" d="M418.51,356.17a4.78,4.78,0,0,1-4.78,4.77h-26.9a4.77,4.77,0,1,1,0-9.54h26.9A4.77,4.77,0,0,1,418.51,356.17Zm-4.78,1.67a1.67,1.67,0,0,0,0-3.34h-26.9a1.67,1.67,0,0,0,0,3.34Z" transform="translate(0 -305.5)"/><path class="cls-4" d="M473.18,377.38h-26V363.77h26a6.13,6.13,0,0,1,6.14,6.13v1.34A6.14,6.14,0,0,1,473.18,377.38Z" transform="translate(0 -305.5)"/><path class="cls-3" d="M473.18,377.38h-26v-4.17h23a6.13,6.13,0,0,0,6.14-6.14v-1.33a6.25,6.25,0,0,0-.11-1.16,6.11,6.11,0,0,1,3.1,5.32v1.34A6.14,6.14,0,0,1,473.18,377.38Z" transform="translate(0 -305.5)"/><path class="cls-1" d="M480.87,369.9v1.34a7.7,7.7,0,0,1-7.69,7.69h-26a1.56,1.56,0,0,1-1.55-1.55V363.77a1.55,1.55,0,0,1,1.55-1.55h26A7.69,7.69,0,0,1,480.87,369.9Zm-32.11,5.92h24.42a4.59,4.59,0,0,0,4.59-4.58V369.9a4.59,4.59,0,0,0-4.59-4.58H448.76Z" transform="translate(0 -305.5)"/><path class="cls-4" d="M435.92,398.55H409.43a6.4,6.4,0,0,1-6.4-6.41V349a6.4,6.4,0,0,1,6.4-6.41h26.49Z" transform="translate(0 -305.5)"/><rect class="cls-3" x="427.74" y="37.09" width="9.31" height="55.96"/><path class="cls-1" d="M437.47,342.59v56a1.55,1.55,0,0,1-1.55,1.55H409.43a8,8,0,0,1-7.95-8V349a8,8,0,0,1,7.95-8h26.49A1.56,1.56,0,0,1,437.47,342.59ZM434.37,397V344.14H409.43a4.86,4.86,0,0,0-4.85,4.86v43.14a4.86,4.86,0,0,0,4.85,4.86Z" transform="translate(0 -305.5)"/><path class="cls-4" d="M441.73,345.6a4.82,4.82,0,0,0-4.67-5h0a4.82,4.82,0,0,0-4.67,5v49.94a4.82,4.82,0,0,0,4.67,4.95h0a4.82,4.82,0,0,0,4.67-4.95Z" transform="translate(0 -305.5)"/><path class="cls-3" d="M437.06,400.49a4.4,4.4,0,0,1-2.34-.67,5,5,0,0,0,2.34-4.28V345.6a5,5,0,0,0-2.34-4.28,4.4,4.4,0,0,1,2.34-.67,4.82,4.82,0,0,1,4.67,5v49.94A4.82,4.82,0,0,1,437.06,400.49Z" transform="translate(0 -305.5)"/><path class="cls-1" d="M443.28,345.6v49.94a6.23,6.23,0,1,1-12.44,0V345.6a6.23,6.23,0,1,1,12.44,0Zm-3.1,49.94V345.6a3.13,3.13,0,1,0-6.24,0v49.94a3.13,3.13,0,1,0,6.24,0Z" transform="translate(0 -305.5)"/><path class="cls-4" d="M451,387.81h-9.22V353.34H451A5.07,5.07,0,0,1,456,358.4v24.34A5.07,5.07,0,0,1,451,387.81Z" transform="translate(0 -305.5)"/><path class="cls-3" d="M451,387.81h-4.26a5.07,5.07,0,0,0,5.07-5.07V358.4a5.07,5.07,0,0,0-5.07-5.06H451A5.07,5.07,0,0,1,456,358.4v24.34A5.07,5.07,0,0,1,451,387.81Z" transform="translate(0 -305.5)"/><path class="cls-1" d="M457.57,358.4v24.34a6.63,6.63,0,0,1-6.62,6.62h-9.22a1.55,1.55,0,0,1-1.55-1.55V353.34a1.54,1.54,0,0,1,1.55-1.55H451A6.62,6.62,0,0,1,457.57,358.4Zm-14.29,27.86H451a3.53,3.53,0,0,0,3.52-3.52V358.4a3.52,3.52,0,0,0-3.52-3.51h-7.67Z" transform="translate(0 -305.5)"/><rect class="cls-3" x="403.03" y="61.7" width="10.96" height="6.75"/><rect class="cls-4" x="403.03" y="65.07" width="10.96" height="3.37"/><path class="cls-1" d="M415.54,367.2V374A1.55,1.55,0,0,1,414,375.5H403a1.55,1.55,0,0,1-1.55-1.55V367.2a1.54,1.54,0,0,1,1.55-1.55h11A1.54,1.54,0,0,1,415.54,367.2Zm-11,5.2h7.86v-3.65h-7.86Z" transform="translate(0 -305.5)"/><line class="cls-2" x1="448.33" y1="75.48" x2="448.33" y2="54.66"/><path class="cls-1" d="M448.33,358.61a1.56,1.56,0,0,0-1.55,1.55V381a1.55,1.55,0,1,0,3.1,0V360.16A1.56,1.56,0,0,0,448.33,358.61Z" transform="translate(0 -305.5)"/><path class="cls-1" d="M365.43,409.19l-12,12a1.55,1.55,0,0,0,2.19,2.19l12-12a1.55,1.55,0,0,0-2.19-2.19Z" transform="translate(0 -305.5)"/><path class="cls-1" d="M383.88,415.54a1.55,1.55,0,0,0-1.55,1.55v17a1.55,1.55,0,1,0,3.1,0v-17A1.56,1.56,0,0,0,383.88,415.54Z" transform="translate(0 -305.5)"/><path class="cls-1" d="M402.06,408.54a1.55,1.55,0,0,0-2.19,2.19l12,12a1.55,1.55,0,0,0,2.2-2.19Z" transform="translate(0 -305.5)"/><path class="cls-1" d="M383.61,325.6a1.54,1.54,0,0,0,1.55-1.55v-17a1.55,1.55,0,1,0-3.1,0v17A1.54,1.54,0,0,0,383.61,325.6Z" transform="translate(0 -305.5)"/><path class="cls-1" d="M365.43,332.6a1.53,1.53,0,0,0,2.19,0,1.54,1.54,0,0,0,0-2.19l-12-12a1.55,1.55,0,0,0-2.19,2.19Z" transform="translate(0 -305.5)"/><path class="cls-1" d="M401,332.41a1.54,1.54,0,0,0,1.1-.46l12-12a1.55,1.55,0,1,0-2.2-2.19l-12,12a1.54,1.54,0,0,0,0,2.19A1.5,1.5,0,0,0,401,332.41Z" transform="translate(0 -305.5)"/><path class="cls-4" d="M295.38,377.38h26V363.77h-26a6.13,6.13,0,0,0-6.14,6.13v1.34A6.14,6.14,0,0,0,295.38,377.38Z" transform="translate(0 -305.5)"/><path class="cls-3" d="M295.38,377.38h26v-4.17h-23a6.14,6.14,0,0,1-6.13-6.14v-1.33a6.25,6.25,0,0,1,.11-1.16,6.11,6.11,0,0,0-3.1,5.32v1.34A6.14,6.14,0,0,0,295.38,377.38Z" transform="translate(0 -305.5)"/><path class="cls-1" d="M295.38,362.22h26a1.55,1.55,0,0,1,1.55,1.55v13.61a1.56,1.56,0,0,1-1.55,1.55h-26a7.7,7.7,0,0,1-7.69-7.69V369.9A7.69,7.69,0,0,1,295.38,362.22Zm24.42,3.1H295.38a4.59,4.59,0,0,0-4.59,4.58v1.34a4.59,4.59,0,0,0,4.59,4.58H319.8Z" transform="translate(0 -305.5)"/><path class="cls-4" d="M317.61,387.81h9.22V353.34h-9.22a5.07,5.07,0,0,0-5.07,5.06v24.34A5.07,5.07,0,0,0,317.61,387.81Z" transform="translate(0 -305.5)"/><path class="cls-3" d="M317.61,387.81h4.26a5.07,5.07,0,0,1-5.07-5.07V358.4a5.07,5.07,0,0,1,5.07-5.06h-4.26a5.07,5.07,0,0,0-5.07,5.06v24.34A5.07,5.07,0,0,0,317.61,387.81Z" transform="translate(0 -305.5)"/><path class="cls-1" d="M317.61,351.79h9.22a1.54,1.54,0,0,1,1.55,1.55v34.47a1.55,1.55,0,0,1-1.55,1.55h-9.22a6.63,6.63,0,0,1-6.62-6.62V358.4A6.62,6.62,0,0,1,317.61,351.79Zm7.67,3.1h-7.67a3.52,3.52,0,0,0-3.52,3.51v24.34a3.53,3.53,0,0,0,3.52,3.52h7.67Z" transform="translate(0 -305.5)"/><line class="cls-2" x1="320.23" y1="75.48" x2="320.23" y2="54.66"/><path class="cls-1" d="M320.23,358.61a1.55,1.55,0,0,1,1.55,1.55V381a1.55,1.55,0,1,1-3.1,0V360.16A1.55,1.55,0,0,1,320.23,358.61Z" transform="translate(0 -305.5)"/><path class="cls-4" d="M359.72,342.59H333.24a6.41,6.41,0,0,0-6.41,6.41v43.14a6.41,6.41,0,0,0,6.41,6.41h26.48Z" transform="translate(0 -305.5)"/><rect class="cls-3" x="351.54" y="37.09" width="9.3" height="55.96"/><path class="cls-1" d="M359.72,400.1H333.24a8,8,0,0,1-8-8V349a8,8,0,0,1,8-8h26.48a1.56,1.56,0,0,1,1.55,1.55v56A1.55,1.55,0,0,1,359.72,400.1Zm-26.48-56a4.87,4.87,0,0,0-4.86,4.86v43.14a4.87,4.87,0,0,0,4.86,4.86h24.93V344.14Z" transform="translate(0 -305.5)"/><path class="cls-4" d="M365.53,395.54a4.82,4.82,0,0,1-4.67,4.95h0a4.82,4.82,0,0,1-4.67-4.95V345.6a4.82,4.82,0,0,1,4.67-5h0a4.82,4.82,0,0,1,4.67,5Z" transform="translate(0 -305.5)"/><path class="cls-3" d="M360.86,340.65a4.34,4.34,0,0,0-2.33.67,5,5,0,0,1,2.33,4.28v49.94a5,5,0,0,1-2.33,4.28,4.34,4.34,0,0,0,2.33.67,4.82,4.82,0,0,0,4.67-4.95V345.6A4.82,4.82,0,0,0,360.86,340.65Z" transform="translate(0 -305.5)"/><path class="cls-1" d="M360.86,402a6.37,6.37,0,0,1-6.22-6.5V345.6a6.23,6.23,0,1,1,12.44,0v49.94A6.37,6.37,0,0,1,360.86,402Zm0-59.84a3.28,3.28,0,0,0-3.12,3.4v49.94a3.13,3.13,0,1,0,6.24,0V345.6A3.28,3.28,0,0,0,360.86,342.2Z" transform="translate(0 -305.5)"/><path class="cls-1" d="M347.26,379.36H336.52a1.55,1.55,0,1,0,0,3.1h10.74a1.55,1.55,0,1,0,0-3.1Z" transform="translate(0 -305.5)"/><path class="cls-1" d="M336.52,375.57h10.74a1.55,1.55,0,1,0,0-3.1H336.52a1.55,1.55,0,1,0,0,3.1Z" transform="translate(0 -305.5)"/><path class="cls-1" d="M336.52,368.67h10.74a1.55,1.55,0,1,0,0-3.09H336.52a1.55,1.55,0,1,0,0,3.09Z" transform="translate(0 -305.5)"/><path class="cls-1" d="M336.52,361.78h10.74a1.55,1.55,0,1,0,0-3.1H336.52a1.55,1.55,0,1,0,0,3.1Z" transform="translate(0 -305.5)"/></svg>