<svg width="83" height="64" viewBox="0 0 83 64" fill="none" xmlns="http://www.w3.org/2000/svg">
<path d="M0.914062 2.63768C0.914062 1.18093 2.09499 0 3.55174 0H80.0445C81.5012 0 82.6822 1.18093 82.6822 2.63768V60.6667C82.6822 62.1234 81.5012 63.3043 80.0445 63.3043H3.55175C2.09499 63.3043 0.914062 62.1234 0.914062 60.6667V2.63768Z" fill="#0090FF"/>
<path fill-rule="evenodd" clip-rule="evenodd" d="M36.9785 31.6009C36.9818 33.9332 37.5293 36.2325 38.5775 38.316V38.3151C38.649 38.457 38.6419 38.6258 38.5586 38.7611C38.4754 38.8964 38.3279 38.9789 38.1691 38.9791H21.6836C21.5249 38.9788 21.3778 38.8964 21.2946 38.7614C21.2114 38.6263 21.204 38.4578 21.2751 38.316C22.3233 36.2325 22.8708 33.9332 22.8742 31.6009V30.8975C22.8326 28.3327 23.9616 25.8886 25.9414 24.2575C26.7081 23.6685 27.6025 23.2679 28.5525 23.088V22.0357C28.5525 21.2769 29.1676 20.6619 29.9263 20.6619C30.685 20.6619 31.3001 21.2769 31.3001 22.0357V23.0761C32.0613 23.2121 32.7878 23.4979 33.4377 23.9168C35.7034 25.5118 37.03 28.1272 36.9785 30.8975V31.6009ZM27.8791 39.8949H31.9748C32.0915 39.8943 32.1897 39.9822 32.2019 40.0983C32.2119 40.1828 32.2168 40.2678 32.2166 40.3529C32.2166 41.6174 31.1915 42.6425 29.9269 42.6425C28.6624 42.6425 27.6373 41.6174 27.6373 40.3529C27.6371 40.2678 27.642 40.1828 27.6519 40.0983C27.665 39.9826 27.7627 39.8951 27.8791 39.8949Z" fill="white"/>
<path fill-rule="evenodd" clip-rule="evenodd" d="M56.3054 34.4782C56.4755 34.4782 56.6227 34.4161 56.747 34.2918L61.1431 29.8956C61.2674 29.7713 61.3296 29.6242 61.3296 29.4541C61.3296 29.284 61.2674 29.1368 61.1431 29.0125C61.0188 28.8882 60.8716 28.826 60.7015 28.826H51.9093C51.7392 28.826 51.592 28.8882 51.4677 29.0125C51.3434 29.1368 51.2812 29.284 51.2812 29.4541C51.2812 29.6242 51.3434 29.7713 51.4677 29.8956L55.8638 34.2918C55.9881 34.4161 56.1353 34.4782 56.3054 34.4782Z" fill="white"/>
</svg>
