<svg width="376" height="376" viewBox="0 0 376 376" fill="none" xmlns="http://www.w3.org/2000/svg">
<mask id="mask0" mask-type="alpha" maskUnits="userSpaceOnUse" x="0" y="0" width="376" height="376">
<path fill-rule="evenodd" clip-rule="evenodd" d="M329.089 32.7103C331.112 34.2857 332.028 36.9007 331.431 39.3967L266.727 311.016C265.319 316.994 261.114 321.922 255.438 324.245C249.762 326.569 243.314 326.001 238.129 322.722L154.138 269.541C153.356 269.042 152.82 268.234 152.663 267.318C152.497 266.39 152.74 265.436 153.329 264.702L280.203 105.317C281.287 103.99 281.165 102.051 279.923 100.872C278.68 99.6927 276.74 99.6747 275.476 100.831L116.726 242.977C115.644 243.958 114.039 244.092 112.809 243.304L53.2632 205.609C47.5104 201.959 44.1345 195.516 44.4036 188.7C44.6728 181.884 48.5463 175.728 54.569 172.545L322.042 32.0853C324.31 30.8905 327.066 31.135 329.089 32.7103ZM130.929 281.835C131.972 281.261 133.245 281.301 134.251 281.941L177.304 309.381C178.137 309.916 178.685 310.799 178.794 311.784C178.903 312.77 178.562 313.751 177.865 314.456L151.527 340.837C147.791 344.578 142.172 345.696 137.292 343.669C132.412 341.641 129.232 336.868 129.236 331.577V284.7C129.237 283.508 129.885 282.41 130.929 281.835Z" fill="#F2F4F9"/>
</mask>
<g mask="url(#mask0)">
<rect x="-35.3281" y="-27.7583" width="392.403" height="296.51" fill="#F2F4F9"/>
</g>
</svg>
