<svg width="122" height="64" viewBox="0 0 122 64" fill="none" xmlns="http://www.w3.org/2000/svg">
<path d="M0 2.63768C0 1.18093 1.18093 0 2.63768 0H118.667C120.123 0 121.304 1.18093 121.304 2.63768V60.6667C121.304 62.1234 120.123 63.3043 118.667 63.3043H2.63768C1.18093 63.3043 0 62.1234 0 60.6667V2.63768Z" fill="#0090FF"/>
<path d="M40.8288 30.4498C41.5797 30.6591 42.1582 31.0345 42.5644 31.5761C42.9829 32.1177 43.1922 32.7947 43.1922 33.6071C43.1922 34.7273 42.8045 35.6012 42.029 36.229C41.2658 36.8444 40.1949 37.1522 38.8163 37.1522H33.1664V24.1352H38.6132C39.9549 24.1352 41.0012 24.4368 41.752 25.0399C42.5152 25.6308 42.8968 26.4616 42.8968 27.5325C42.8968 28.2219 42.7121 28.8188 42.3429 29.3235C41.9859 29.8282 41.4812 30.2036 40.8288 30.4498ZM35.0312 29.7667H38.3178C40.1395 29.7667 41.0504 29.0773 41.0504 27.6987C41.0504 27.0094 40.8227 26.4986 40.3672 26.1662C39.9241 25.8339 39.241 25.6677 38.3178 25.6677H35.0312V29.7667ZM38.6132 35.6197C39.561 35.6197 40.2565 35.4473 40.6996 35.1027C41.1427 34.758 41.3643 34.2226 41.3643 33.4963C41.3643 32.7578 41.1366 32.21 40.6811 31.8531C40.238 31.4838 39.5487 31.2991 38.6132 31.2991H35.0312V35.6197H38.6132ZM53.3608 28.1418V37.1522H51.5514V35.6935C51.2683 36.2105 50.8744 36.6044 50.3697 36.8752C49.8773 37.146 49.3234 37.2814 48.708 37.2814C46.5169 37.2814 45.4214 36.0751 45.4214 33.6625V28.1418H47.2863V33.644C47.2863 34.3703 47.434 34.9057 47.7294 35.2504C48.0248 35.595 48.4802 35.7674 49.0957 35.7674C49.8219 35.7674 50.4005 35.5335 50.8313 35.0658C51.2744 34.598 51.496 33.9764 51.496 33.2009V28.1418H53.3608ZM60.2356 35.8412C60.5187 35.8412 60.7956 35.8228 61.0664 35.7858L60.9741 37.2076C60.6664 37.2568 60.3463 37.2814 60.014 37.2814C58.8446 37.2814 57.9707 36.9983 57.3921 36.4321C56.8259 35.8535 56.5428 35.0227 56.5428 33.9395V29.582H54.7887V28.1418H56.5428V25.4277H58.4076V28.1418H60.8818V29.582H58.4076V33.8656C58.4076 35.1827 59.0169 35.8412 60.2356 35.8412ZM66.7087 35.8412C66.9918 35.8412 67.2688 35.8228 67.5396 35.7858L67.4472 37.2076C67.1395 37.2568 66.8195 37.2814 66.4871 37.2814C65.3178 37.2814 64.4438 36.9983 63.8653 36.4321C63.299 35.8535 63.0159 35.0227 63.0159 33.9395V29.582H61.2619V28.1418H63.0159V25.4277H64.8808V28.1418H67.3549V29.582H64.8808V33.8656C64.8808 35.1827 65.4901 35.8412 66.7087 35.8412ZM72.8671 37.2814C71.9808 37.2814 71.1992 37.0906 70.5222 36.709C69.8575 36.3274 69.3405 35.7858 68.9712 35.0842C68.6143 34.3703 68.4358 33.5456 68.4358 32.6101C68.4358 31.6623 68.6143 30.8376 68.9712 30.1359C69.3405 29.422 69.8575 28.8742 70.5222 28.4927C71.1992 28.1111 71.9808 27.9203 72.8671 27.9203C73.7533 27.9203 74.5288 28.1111 75.1935 28.4927C75.8705 28.8742 76.3875 29.422 76.7445 30.1359C77.1137 30.8376 77.2984 31.6623 77.2984 32.6101C77.2984 33.5456 77.1137 34.3703 76.7445 35.0842C76.3875 35.7858 75.8705 36.3274 75.1935 36.709C74.5288 37.0906 73.7533 37.2814 72.8671 37.2814ZM72.8671 35.8043C73.6918 35.8043 74.3196 35.5335 74.7504 34.9919C75.1935 34.4503 75.4151 33.6564 75.4151 32.6101C75.4151 31.5761 75.1935 30.7883 74.7504 30.2467C74.3073 29.6928 73.6795 29.4158 72.8671 29.4158C72.0547 29.4158 71.4269 29.6928 70.9838 30.2467C70.5406 30.7883 70.3191 31.5761 70.3191 32.6101C70.3191 33.6564 70.5345 34.4503 70.9653 34.9919C71.4084 35.5335 72.0424 35.8043 72.8671 35.8043ZM84.2307 27.9203C86.3848 27.9203 87.4618 29.1327 87.4618 31.5576V37.1522H85.597V31.65C85.597 30.8868 85.4431 30.3267 85.1354 29.9698C84.84 29.6128 84.3722 29.4343 83.7321 29.4343C82.9813 29.4343 82.3781 29.6682 81.9227 30.1359C81.4673 30.6037 81.2395 31.2314 81.2395 32.0192V37.1522H79.3747V28.1418H81.2026V29.582C81.498 29.0404 81.9104 28.6281 82.4397 28.3449C82.969 28.0618 83.566 27.9203 84.2307 27.9203Z" fill="white"/>
</svg>
