<svg width="143" height="64" viewBox="0 0 143 64" fill="none" xmlns="http://www.w3.org/2000/svg">
<path d="M0.359375 2.63768C0.359375 1.18093 1.54031 0 2.99706 0H140.127C141.584 0 142.765 1.18093 142.765 2.63768V60.6667C142.765 62.1234 141.584 63.3043 140.127 63.3043H2.99705C1.5403 63.3043 0.359375 62.1234 0.359375 60.6667V2.63768Z" fill="#0090FF"/>
<path fill-rule="evenodd" clip-rule="evenodd" d="M39.0683 31.6009C39.0716 33.9332 39.6192 36.2325 40.6674 38.316V38.3151C40.7389 38.457 40.7317 38.6258 40.6485 38.7611C40.5652 38.8964 40.4178 38.9789 40.2589 38.9791H23.7734C23.6148 38.9788 23.4676 38.8964 23.3844 38.7614C23.3013 38.6263 23.2939 38.4578 23.3649 38.316C24.4131 36.2325 24.9607 33.9332 24.964 31.6009V30.8975C24.9224 28.3327 26.0514 25.8886 28.0312 24.2575C28.798 23.6685 29.6924 23.2679 30.6424 23.088V22.0357C30.6424 21.2769 31.2574 20.6619 32.0162 20.6619C32.7749 20.6619 33.39 21.2769 33.39 22.0357V23.0761C34.1511 23.2121 34.8777 23.4979 35.5276 23.9168C37.7933 25.5118 39.1198 28.1272 39.0683 30.8975V31.6009ZM29.9699 39.8949H34.0656C34.1823 39.8943 34.2805 39.9822 34.2928 40.0983C34.3027 40.1828 34.3076 40.2678 34.3074 40.3529C34.3074 41.6174 33.2823 42.6425 32.0178 42.6425C30.7532 42.6425 29.7281 41.6174 29.7281 40.3529C29.7279 40.2678 29.7328 40.1828 29.7428 40.0983C29.7558 39.9826 29.8535 39.8951 29.9699 39.8949Z" fill="white"/>
<path d="M67.5632 30.4498C68.3141 30.6591 68.8926 31.0345 69.2988 31.5761C69.7173 32.1177 69.9266 32.7947 69.9266 33.6071C69.9266 34.7273 69.5388 35.6012 68.7634 36.229C68.0002 36.8444 66.9293 37.1522 65.5507 37.1522H59.9007V24.1352H65.3476C66.6893 24.1352 67.7355 24.4368 68.4864 25.0399C69.2496 25.6308 69.6312 26.4616 69.6312 27.5325C69.6312 28.2219 69.4465 28.8188 69.0772 29.3235C68.7203 29.8282 68.2156 30.2036 67.5632 30.4498ZM61.7656 29.7667H65.0521C66.8739 29.7667 67.7848 29.0773 67.7848 27.6987C67.7848 27.0094 67.5571 26.4986 67.1016 26.1662C66.6585 25.8339 65.9753 25.6677 65.0521 25.6677H61.7656V29.7667ZM65.3476 35.6197C66.2954 35.6197 66.9908 35.4473 67.434 35.1027C67.8771 34.758 68.0987 34.2226 68.0987 33.4963C68.0987 32.7578 67.8709 32.21 67.4155 31.8531C66.9724 31.4838 66.2831 31.2991 65.3476 31.2991H61.7656V35.6197H65.3476ZM80.0952 28.1418V37.1522H78.2858V35.6935C78.0026 36.2105 77.6088 36.6044 77.1041 36.8752C76.6117 37.146 76.0578 37.2814 75.4423 37.2814C73.2513 37.2814 72.1558 36.0751 72.1558 33.6625V28.1418H74.0206V33.644C74.0206 34.3703 74.1683 34.9057 74.4638 35.2504C74.7592 35.595 75.2146 35.7674 75.8301 35.7674C76.5563 35.7674 77.1348 35.5335 77.5657 35.0658C78.0088 34.598 78.2304 33.9764 78.2304 33.2009V28.1418H80.0952ZM86.9699 35.8412C87.253 35.8412 87.53 35.8228 87.8008 35.7858L87.7085 37.2076C87.4008 37.2568 87.0807 37.2814 86.7484 37.2814C85.579 37.2814 84.705 36.9983 84.1265 36.4321C83.5603 35.8535 83.2772 35.0227 83.2772 33.9395V29.582H81.5231V28.1418H83.2772V25.4277H85.142V28.1418H87.6162V29.582H85.142V33.8656C85.142 35.1827 85.7513 35.8412 86.9699 35.8412ZM93.4431 35.8412C93.7262 35.8412 94.0031 35.8228 94.2739 35.7858L94.1816 37.2076C93.8739 37.2568 93.5539 37.2814 93.2215 37.2814C92.0521 37.2814 91.1782 36.9983 90.5996 36.4321C90.0334 35.8535 89.7503 35.0227 89.7503 33.9395V29.582H87.9963V28.1418H89.7503V25.4277H91.6152V28.1418H94.0893V29.582H91.6152V33.8656C91.6152 35.1827 92.2245 35.8412 93.4431 35.8412ZM99.6015 37.2814C98.7152 37.2814 97.9336 37.0906 97.2566 36.709C96.5919 36.3274 96.0749 35.7858 95.7056 35.0842C95.3486 34.3703 95.1702 33.5456 95.1702 32.6101C95.1702 31.6623 95.3486 30.8376 95.7056 30.1359C96.0749 29.422 96.5919 28.8742 97.2566 28.4927C97.9336 28.1111 98.7152 27.9203 99.6015 27.9203C100.488 27.9203 101.263 28.1111 101.928 28.4927C102.605 28.8742 103.122 29.422 103.479 30.1359C103.848 30.8376 104.033 31.6623 104.033 32.6101C104.033 33.5456 103.848 34.3703 103.479 35.0842C103.122 35.7858 102.605 36.3274 101.928 36.709C101.263 37.0906 100.488 37.2814 99.6015 37.2814ZM99.6015 35.8043C100.426 35.8043 101.054 35.5335 101.485 34.9919C101.928 34.4503 102.149 33.6564 102.149 32.6101C102.149 31.5761 101.928 30.7883 101.485 30.2467C101.042 29.6928 100.414 29.4158 99.6015 29.4158C98.789 29.4158 98.1613 29.6928 97.7182 30.2467C97.275 30.7883 97.0535 31.5761 97.0535 32.6101C97.0535 33.6564 97.2689 34.4503 97.6997 34.9919C98.1428 35.5335 98.7767 35.8043 99.6015 35.8043ZM110.965 27.9203C113.119 27.9203 114.196 29.1327 114.196 31.5576V37.1522H112.331V31.65C112.331 30.8868 112.177 30.3267 111.87 29.9698C111.574 29.6128 111.107 29.4343 110.467 29.4343C109.716 29.4343 109.113 29.6682 108.657 30.1359C108.202 30.6037 107.974 31.2314 107.974 32.0192V37.1522H106.109V28.1418H107.937V29.582C108.232 29.0404 108.645 28.6281 109.174 28.3449C109.703 28.0618 110.3 27.9203 110.965 27.9203Z" fill="white"/>
</svg>
