<svg width="87" height="95" viewBox="0 0 87 95" fill="none" xmlns="http://www.w3.org/2000/svg">
<path fill-rule="evenodd" clip-rule="evenodd" d="M85.9014 0.830288C86.5094 1.30373 86.7846 2.08963 86.6052 2.83976L67.1596 84.47C66.7366 86.2666 65.4728 87.7476 63.7669 88.4459C62.061 89.1441 60.1233 88.9736 58.5651 87.9881L33.3232 72.0056C33.0879 71.8554 32.9268 71.6128 32.8797 71.3373C32.8297 71.0586 32.9027 70.7719 33.0799 70.5512L71.2097 22.6508C71.5355 22.2522 71.4987 21.6693 71.1254 21.3149C70.752 20.9606 70.1688 20.9552 69.789 21.3026L22.0797 64.0222C21.7542 64.317 21.272 64.3573 20.9023 64.1204L3.00691 52.792C1.27802 51.6949 0.263448 49.7585 0.344343 47.7102C0.425238 45.6619 1.58935 43.8118 3.39935 42.855L83.7836 0.642456C84.4651 0.283381 85.2934 0.356842 85.9014 0.830288ZM26.3479 75.7003C26.6615 75.5277 27.0441 75.5398 27.3463 75.7319L40.2851 83.9787C40.5356 84.1393 40.7002 84.4048 40.733 84.7009C40.7658 84.997 40.6632 85.2921 40.4539 85.5038L32.5383 93.4322C31.4154 94.5565 29.7268 94.8924 28.2602 94.2831C26.7936 93.6739 25.838 92.2395 25.8393 90.6492V76.5613C25.8394 76.2029 26.0343 75.8729 26.3479 75.7003Z" fill="#CCE9FF"/>
</svg>
