<svg width="1323" height="648" viewBox="0 0 1323 648" fill="none" xmlns="http://www.w3.org/2000/svg">
<path d="M1320.77 386.892C1319.91 386.571 1319.09 386.999 1318.44 387.803L1298.65 353.839C1299 353.303 1299.27 352.66 1299.41 351.857C1299.75 349.553 1298.82 347.196 1297.32 346.66C1295.84 346.125 1294.33 347.571 1293.99 349.928C1293.95 350.089 1293.99 350.25 1293.99 350.41L1161.09 353.357C1160.92 351.643 1160.13 350.142 1159 349.767C1157.87 349.339 1156.77 350.089 1156.15 351.428L1093.34 292.608C1093.41 292.34 1093.54 292.072 1093.58 291.75C1093.92 289.447 1092.99 287.09 1091.52 286.554C1090.01 286.018 1088.54 287.465 1088.19 289.768C1088.13 290.143 1088.16 290.518 1088.16 290.893L990.68 312.643C990.44 311.143 989.685 309.857 988.656 309.482C987.388 309.054 986.188 310.018 985.639 311.732L884.833 250.662C884.833 250.608 884.867 250.608 884.867 250.555C885.21 248.251 884.285 245.894 882.776 245.358C881.302 244.822 879.793 246.269 879.45 248.626C879.347 249.43 879.416 250.18 879.553 250.876L807.034 298.5C806.657 297.429 806.04 296.625 805.251 296.304C804.017 295.875 802.817 296.84 802.234 298.447L712.503 239.305C712.503 239.198 712.571 239.144 712.571 239.037C712.914 236.733 711.988 234.376 710.48 233.84C709.143 233.358 707.874 234.483 707.359 236.412L589.581 183.752C589.787 181.555 588.93 179.359 587.49 178.877C586.804 178.609 586.118 178.823 585.535 179.359L504.41 7.39701C504.787 6.8613 505.096 6.16489 505.233 5.30776C505.576 3.00422 504.65 0.647097 503.142 0.11139C501.633 -0.424318 500.158 1.0221 499.816 3.37921C499.781 3.64706 499.816 3.86134 499.816 4.12919L360.744 21.9147C360.504 20.3611 359.75 19.0219 358.687 18.5933C357.178 18.0576 355.704 19.504 355.361 21.8075C355.258 22.504 355.293 23.254 355.43 23.8968L239.983 97.2351C239.606 96.2173 238.989 95.4137 238.2 95.0923C236.726 94.5566 235.217 96.003 234.874 98.3601C234.703 99.5387 234.84 100.717 235.217 101.628L136.228 228.537C135.885 228.001 135.474 227.573 134.994 227.412C133.519 226.876 132.011 228.323 131.668 230.68C131.599 231.055 131.633 231.43 131.633 231.805L5.3859 264.161C5.1116 262.715 4.39155 261.537 3.39721 261.162C1.88855 260.626 0.414172 262.072 0.0712947 264.429C-0.271583 266.733 0.654187 269.09 2.16285 269.626C2.88289 269.894 3.60294 269.679 4.22012 269.09L49.1714 364.392C48.7599 364.982 48.4171 365.678 48.2799 366.589C47.937 368.946 48.8628 371.249 50.3715 371.785C51.3658 372.16 52.3602 371.571 53.0116 370.446L139.588 468.909C139.451 469.284 139.314 469.605 139.245 470.034C138.902 472.337 139.828 474.694 141.337 475.23C142.811 475.766 144.32 474.319 144.663 471.962C144.766 471.266 144.731 470.569 144.629 469.927L246.189 409.017C246.566 410.088 247.183 410.945 248.006 411.267C249.378 411.749 250.681 410.57 251.161 408.588L372.025 455.57C371.854 457.712 372.711 459.802 374.117 460.284C375.077 460.605 376.002 460.07 376.654 459.052L475.883 579.479C475.746 579.854 475.608 580.229 475.54 580.711C475.197 583.014 476.123 585.372 477.631 585.907C479.106 586.443 480.614 584.997 480.957 582.693C481.06 582.05 481.026 581.407 480.957 580.818L531.532 557.461C531.84 558.747 532.526 559.818 533.452 560.14C534.618 560.568 535.749 559.711 536.366 558.265L632.852 633.424C632.818 633.585 632.749 633.746 632.715 633.907C632.372 636.21 633.298 638.567 634.807 639.103C636.281 639.639 637.79 638.192 638.133 635.835C638.27 635.032 638.167 634.228 637.995 633.478L750.151 548.729C750.528 549.64 751.111 550.336 751.865 550.604C752.962 550.979 754.025 550.336 754.677 549.051L853.185 641.942C853.117 642.21 853.014 642.424 852.945 642.692C852.603 645.049 853.528 647.353 855.037 647.889C856.511 648.424 858.02 646.978 858.363 644.621C858.5 643.656 858.397 642.746 858.157 641.889L934.345 572.943C934.722 573.747 935.27 574.39 935.956 574.657C937.431 575.193 938.939 573.747 939.282 571.39C939.385 570.693 939.351 570.05 939.248 569.407L1050.37 504.855C1050.75 505.926 1051.37 506.837 1052.19 507.105C1053.67 507.64 1055.17 506.194 1055.52 503.837C1055.69 502.605 1055.52 501.373 1055.07 500.408L1081.78 464.623L1196.03 464.195C1196.17 465.962 1196.95 467.462 1198.12 467.837C1199.59 468.373 1201.1 466.927 1201.45 464.57C1201.55 463.873 1201.52 463.23 1201.41 462.587L1317.85 392.946C1318.23 394.017 1318.85 394.874 1319.64 395.142C1321.11 395.678 1322.62 394.231 1322.96 391.874C1323.2 389.731 1322.28 387.428 1320.77 386.892ZM5.52305 265.233L131.771 232.823C131.874 233.358 132.045 233.894 132.285 234.323L52.6687 364.071C52.3602 363.696 52.0173 363.428 51.6401 363.321C50.9201 363.053 50.1657 363.267 49.5828 363.857L4.63157 268.554C5.04302 267.965 5.3859 267.269 5.52305 266.358C5.55734 265.983 5.52305 265.608 5.52305 265.233ZM938.699 568.015C938.459 567.479 938.116 567.104 937.773 566.783L961.878 467.248C962.838 467.034 963.626 465.962 963.969 464.57L1028.33 492.748L938.699 568.015ZM635.972 630.692C635.664 630.585 635.39 630.639 635.115 630.639L608.885 441.856C609.742 441.373 610.428 440.356 610.668 438.909L677.083 456.32C677.015 458.034 677.563 459.587 678.524 460.391L636.075 630.692C636.041 630.692 636.007 630.692 635.972 630.692ZM534.652 551.729C534.172 551.568 533.692 551.676 533.246 551.89L488.055 390.749C488.569 390.267 488.946 389.517 489.186 388.606L605.285 437.248C605.182 438.481 605.422 439.659 605.902 440.57L535.749 552.586C535.406 552.158 535.063 551.89 534.652 551.729ZM53.1145 364.821L132.731 235.073C133.039 235.448 133.382 235.715 133.759 235.876C134.068 235.983 134.377 235.983 134.685 235.93L147.166 334.875C146.24 335.303 145.451 336.428 145.211 337.982C145.143 338.411 145.177 338.893 145.177 339.321L53.5945 366.321C53.4916 365.785 53.3545 365.249 53.1145 364.821ZM239.229 102.753L302.524 208.984C302.249 209.466 302.009 210.055 301.907 210.751L235.937 194.52C236.04 192.43 235.183 190.502 233.845 190.02C233.777 190.02 233.708 190.02 233.64 190.02L237.583 103.556C238.2 103.556 238.749 103.289 239.229 102.753ZM501.839 8.41487L487.335 149.895C486.032 149.788 484.798 151.074 484.489 153.163C484.489 153.217 484.489 153.27 484.489 153.377L421.297 143.574C421.297 142.502 421.091 141.592 420.679 140.788L500.913 7.82559C501.153 8.03987 501.496 8.25416 501.839 8.41487ZM584.164 182.68C584.129 183.055 584.095 183.43 584.129 183.752L537.566 206.68L489.564 156.002C489.632 155.788 489.735 155.52 489.769 155.306L584.164 182.68ZM1088.54 293.036C1088.85 293.733 1089.29 294.268 1089.81 294.59L1060.39 458.248L1008.44 353.785L1088.54 293.036ZM1159.96 357.428C1160.44 356.946 1160.78 356.196 1160.95 355.285L1252.23 388.231C1252.23 388.285 1252.23 388.338 1252.23 388.446L1173.3 393.856L1159.96 357.428ZM1252.23 389.463C1252.3 390.106 1252.47 390.696 1252.71 391.231L1200.56 460.766C1200.21 460.23 1199.8 459.748 1199.29 459.587C1198.67 459.373 1198.05 459.534 1197.54 459.909L1173.71 394.82L1252.23 389.463ZM1253.05 391.767C1253.39 392.303 1253.8 392.785 1254.32 392.946C1255.79 393.481 1257.3 392.035 1257.64 389.678C1257.68 389.517 1257.64 389.303 1257.64 389.142L1262.72 389.303L1204.84 455.998L1253.05 391.767ZM1257.68 388.499C1257.68 388.392 1257.71 388.231 1257.68 388.124L1266.35 385.178L1263.3 388.713L1257.68 388.499ZM1133.39 393.963C1133.04 393.535 1132.7 393.16 1132.25 392.999C1131.91 392.892 1131.57 392.892 1131.23 392.946L1152.86 362.41L1133.39 393.963ZM1128.96 396.16C1128.96 396.213 1128.93 396.213 1128.93 396.267C1128.79 397.285 1128.89 398.303 1129.2 399.16L1121.59 406.606L1128.96 396.16ZM1133.63 394.392L1156.6 357.214C1156.94 357.642 1157.28 358.017 1157.73 358.178C1158.35 358.392 1158.93 358.232 1159.48 357.857L1172.71 393.963L1134.35 396.588C1134.28 395.731 1134 394.981 1133.63 394.392ZM1292.65 375.749L1268.58 383.892L1278.05 373.017L1292.65 375.267C1292.69 375.374 1292.65 375.589 1292.65 375.749ZM1292.69 374.142L1278.9 371.999L1294.74 353.785C1295.12 354.375 1295.53 354.91 1296.11 355.071C1296.22 355.125 1296.29 355.071 1296.36 355.071L1295.5 370.874C1294.19 370.767 1292.99 372.053 1292.69 374.142ZM1277.94 371.839L1274.55 371.303L1292.72 354.803L1277.94 371.839ZM1277.09 372.803L1267.07 384.374L1257.58 387.588C1257.54 387.374 1257.47 387.106 1257.4 386.892L1273.52 372.267L1277.09 372.803ZM1257.23 386.356C1256.86 385.499 1256.27 384.803 1255.59 384.535C1254.18 384.053 1252.84 385.285 1252.4 387.374L1163.28 355.232L1272.87 372.16L1257.23 386.356ZM1130.23 392.838L1128.69 388.821L1152.93 360.749L1130.23 392.838ZM1129.85 393.374L1118.06 409.981L1068.92 457.927L1128.28 389.303L1129.85 393.374ZM875.85 534.801C875.575 534.211 875.198 533.729 874.752 533.408L897.04 437.516L911.921 443.516L921.898 495.855L875.85 534.801ZM610.702 438.159C610.737 437.141 610.599 436.177 610.257 435.374L645.161 386.463L677.906 453.588C677.563 454.123 677.255 454.766 677.118 455.57L610.702 438.159ZM489.358 387.588C489.392 386.999 489.392 386.463 489.289 385.928L574.254 332.946L606.451 434.249C606.005 434.731 605.662 435.427 605.456 436.231L489.358 387.588ZM235.8 195.698C235.834 195.537 235.903 195.43 235.903 195.27L301.872 211.501C301.804 213.109 302.284 214.609 303.141 215.412L295.323 242.68L235.8 195.698ZM586.255 187.234C586.427 187.288 586.598 187.234 586.804 187.234L588.552 257.144C587.867 257.251 587.249 257.787 586.804 258.59L563.008 233.465L585.432 186.591C585.672 186.859 585.947 187.127 586.255 187.234ZM645.607 385.821L699.542 310.232L679.998 452.409C679.415 452.355 678.866 452.516 678.386 452.945L645.607 385.821ZM553.133 260.787L573.603 279.429L562.357 293.25L552.379 261.858C552.687 261.59 552.962 261.215 553.133 260.787ZM553.339 260.144C553.407 259.876 553.545 259.608 553.579 259.287C553.579 259.233 553.579 259.179 553.579 259.126L586.118 261.751C586.152 262.447 586.255 263.09 586.461 263.626L573.98 278.947L553.339 260.144ZM586.941 264.429C587.284 264.965 587.695 265.447 588.244 265.608C588.518 265.715 588.758 265.661 588.998 265.661L592.255 295.554L574.666 279.536L586.941 264.429ZM606.005 312L595.376 318.643L593.044 297.108L606.211 309.107C606.108 309.375 606.005 309.643 605.971 309.964C605.868 310.661 605.902 311.357 606.005 312ZM606.245 313.018C606.622 314.036 607.239 314.893 608.028 315.161C608.131 315.214 608.268 315.161 608.371 315.161L607.754 432.856L595.479 319.714L606.245 313.018ZM606.382 308.465L592.941 296.197L589.615 265.501C589.787 265.394 589.992 265.34 590.164 265.179L607.068 307.447C606.793 307.768 606.588 308.09 606.382 308.465ZM548.161 257.572L453.047 249.912C453.047 249.751 453.081 249.644 453.047 249.483L523.817 214.609L548.779 255.483C548.504 256.019 548.264 256.608 548.161 257.304C548.161 257.412 548.196 257.519 548.161 257.572ZM550.253 262.554C550.767 262.769 551.282 262.608 551.762 262.34L561.808 293.947L488.535 383.999C488.535 383.999 488.535 383.999 488.535 383.946L549.43 261.965C549.704 262.179 549.944 262.394 550.253 262.554ZM489.015 384.749L562.151 294.911L573.946 332.036L489.049 384.963C489.049 384.856 489.049 384.803 489.015 384.749ZM562.699 294.215L574.289 280.018L592.358 296.465L594.793 319.018L574.597 331.607L562.699 294.215ZM594.896 320.089L607.205 433.713C607.171 433.713 607.102 433.766 607.068 433.82L574.872 332.571L594.896 320.089ZM608.611 433.606C608.508 433.552 608.371 433.606 608.268 433.606L608.885 315.214C609.297 315.161 609.708 315 610.085 314.679L644.716 385.66L609.777 434.624C609.434 434.141 609.057 433.766 608.611 433.606ZM610.531 313.982C610.908 313.393 611.217 312.75 611.354 311.893C611.388 311.572 611.354 311.25 611.354 310.982L701.325 297.215L699.782 308.465L645.161 384.963L610.531 313.982ZM700.468 309L707.771 298.768C707.977 299.036 708.251 299.25 708.525 299.465L682.124 442.338L700.468 309ZM706.845 295.233C706.845 295.286 706.845 295.393 706.845 295.447L702.216 296.143L702.525 294L706.845 295.233ZM706.845 296.358C706.914 296.947 707.085 297.483 707.291 297.911L700.708 307.125L702.079 297.054L706.845 296.358ZM714.56 309.964L764.277 443.516L762.7 449.195L759.683 449.463L714.56 309.964ZM910.926 284.304L935.03 370.232L906.674 400.82C906.297 400.124 905.817 399.588 905.234 399.374C905.166 399.374 905.097 399.374 905.029 399.374L909.658 282.804L910.926 284.304ZM982.348 369.107C982.21 369.482 982.073 369.857 982.005 370.285C981.936 370.874 981.936 371.41 981.97 371.946L977.616 373.714L979.124 365.249L982.348 369.107ZM960.643 458.891L941.134 389.303L976.827 374.892L961.878 458.784C961.432 458.623 961.021 458.677 960.643 458.891ZM907.052 401.57L935.271 371.089L940.242 388.821L907.189 402.213C907.154 401.945 907.12 401.731 907.052 401.57ZM907.017 405.695C907.154 405.374 907.257 404.999 907.326 404.624C907.394 404.035 907.394 403.499 907.36 402.963L940.448 389.571L959.992 459.266C959.718 459.534 959.443 459.909 959.238 460.284L907.017 405.695ZM977.444 374.571L982.142 372.642C982.382 373.66 982.793 374.464 983.41 374.946L981.559 382.66L962.975 455.891L977.444 374.571ZM976.964 373.981L940.894 388.553L935.819 370.499L960.781 343.553L978.61 364.714L976.964 373.981ZM935.613 369.642L912.023 285.643L960.301 342.964L935.613 369.642ZM855.174 419.409L828.258 408.535C828.258 408.427 828.258 408.374 828.258 408.267L901.154 404.249L855.174 419.409ZM769.352 447.802L803.914 423.534L772.438 446.784L769.352 447.802ZM765.169 445.82C764.654 446.409 764.243 447.213 764.106 448.284C764.072 448.552 764.106 448.82 764.106 449.088L763.386 449.141L764.689 444.481L765.169 445.82ZM763.146 449.945L764.072 449.891C764.14 450.534 764.277 451.07 764.483 451.605L763.42 452.784C763.214 452.355 762.94 452.034 762.631 451.713L763.146 449.945ZM763.66 453.266C763.626 453.213 763.626 453.105 763.591 453.052L764.654 451.873C764.723 452.034 764.826 452.195 764.929 452.355L763.66 453.266ZM769.523 448.927L769.66 448.873L769.523 448.98C769.523 448.927 769.523 448.927 769.523 448.927ZM774.426 446.141L823.149 410.195C823.252 410.463 823.424 410.731 823.561 410.999L811.457 433.927L774.426 446.141ZM824.041 411.588C824.315 411.856 824.589 412.07 824.898 412.231C825.515 412.445 826.098 412.285 826.647 411.91L832.27 427.017L812.452 433.552L824.041 411.588ZM827.161 411.481C827.572 410.999 827.881 410.356 828.087 409.606L853.631 419.945L832.853 426.802L827.161 411.481ZM823.081 406.231C823.012 406.499 822.909 406.713 822.841 407.035C822.704 407.892 822.806 408.695 822.978 409.445L769.18 447.213C768.94 446.463 768.529 445.927 768.049 445.498L786.941 371.196L823.081 406.231ZM762.46 449.998L762.083 451.338C762.014 451.284 761.946 451.23 761.877 451.177C761.328 450.963 760.814 451.123 760.3 451.391L759.888 450.159L762.46 449.998ZM763.831 453.963L765.34 452.838C765.546 453.052 765.752 453.159 765.957 453.266L765.306 457.766L763.866 456.748C763.9 456.641 763.934 456.534 763.969 456.373C764.106 455.57 764.003 454.713 763.831 453.963ZM769.489 449.784L771.615 448.177L810.737 435.213L792.462 469.819L769.318 450.748C769.352 450.534 769.455 450.427 769.489 450.213C769.523 450.052 769.489 449.945 769.489 449.784ZM856.717 420.052L902.046 405.052C902.286 406.124 902.766 406.981 903.417 407.463L896.731 436.231L856.717 420.052ZM903.966 407.785C904 407.785 904 407.838 904.034 407.838C904.411 407.999 904.789 407.999 905.166 407.892L911.715 442.284L897.314 436.445L903.966 407.785ZM905.714 407.517C906.126 407.249 906.503 406.82 906.812 406.285L959.066 460.873C958.998 461.034 958.963 461.195 958.929 461.355L912.401 442.552L905.714 407.517ZM982.759 368.249L982.588 368.035L979.33 364.017L987.559 317.839H987.594L984.782 366.964C983.993 366.964 983.273 367.446 982.759 368.249ZM803.982 304.661C804.394 304.822 804.805 304.768 805.183 304.661L824.555 404.088C824.109 404.356 823.732 404.731 823.424 405.32L787.182 370.178L803.845 304.554C803.914 304.554 803.948 304.607 803.982 304.661ZM707.051 293.84C707.017 294 706.982 294.108 706.948 294.215L702.662 292.983L703.074 290.143L707.051 293.84ZM586.427 259.447C586.324 259.769 586.187 260.037 586.152 260.412C586.152 260.465 586.152 260.572 586.152 260.626L553.613 258.001C553.579 256.876 553.236 255.804 552.687 255.054L562.597 234.269L586.427 259.447ZM523.268 213.751L452.807 248.465C452.601 247.822 452.361 247.18 451.95 246.751L485.963 157.877C486.135 158.038 486.306 158.199 486.512 158.306C487.369 158.627 488.192 158.199 488.809 157.449L523.268 213.751ZM485.552 157.609L451.538 246.483C451.367 246.322 451.196 246.162 450.99 246.055C450.441 245.84 449.927 246.001 449.447 246.269L432.714 189.966L484.798 156.216C484.969 156.752 485.243 157.234 485.552 157.609ZM417.971 147.645C418.519 147.859 419.034 147.699 419.514 147.431L431.96 189.323L376.551 225.269L417.114 147.056C417.354 147.27 417.628 147.538 417.971 147.645ZM375.317 226.019L367.053 231.376C366.985 231.162 366.882 231.001 366.779 230.84C366.745 230.787 366.711 230.733 366.711 230.626L413.342 152.734L375.317 226.019ZM363.453 237.269C363.659 237.43 363.83 237.59 364.036 237.698C364.173 237.751 364.345 237.698 364.482 237.698L364.859 246.108L347.784 279.054L363.453 237.269ZM365.236 237.698C366.265 237.376 367.122 236.144 367.396 234.43C367.396 234.43 367.396 234.43 367.396 234.376L370.654 235.019L365.579 244.822L365.236 237.698ZM367.396 233.626C367.396 233.198 367.396 232.769 367.328 232.394L374.425 227.787L371.031 234.376L367.396 233.626ZM306.57 214.716C306.844 214.234 307.05 213.698 307.187 213.109L357.659 231.323C357.453 233.519 358.31 235.662 359.75 236.144C360.607 236.465 361.43 236.037 362.047 235.287C362.116 235.448 362.219 235.555 362.287 235.715C362.493 236.251 362.767 236.733 363.11 237.055L347.201 279.483C346.995 279.322 346.824 279.161 346.618 279.054C345.761 278.733 344.972 279.108 344.321 279.911L306.57 214.716ZM371.751 234.483L375.625 226.983L432.234 190.287L448.967 246.59C448.315 247.18 447.835 248.144 447.63 249.322C447.63 249.322 447.63 249.322 447.63 249.376L371.751 234.483ZM680.821 452.784L709.074 299.732C709.554 299.84 710.034 299.732 710.48 299.518L758.963 449.516L682.467 456.052C682.364 454.552 681.712 453.373 680.821 452.784ZM811.732 434.945L832.681 428.034L872.009 533.783C871.769 534.051 871.529 534.426 871.358 534.801L793.079 470.302L811.732 434.945ZM874.204 532.979C873.587 532.765 873.004 532.926 872.455 533.301L833.23 427.82L855.174 420.588L896.525 437.302L874.272 533.033C874.238 533.033 874.238 532.979 874.204 532.979ZM962.632 459.159L971.89 422.624L962.975 459.427C962.872 459.266 962.735 459.213 962.632 459.159ZM987.045 373.446C987.182 373.071 987.354 372.642 987.422 372.214C987.559 371.41 987.456 370.606 987.285 369.856L1002.82 358.071L1022.46 415.552L987.045 373.446ZM987.011 317.572L978.85 363.428L961.844 342.375L985.948 316.393C986.222 316.929 986.599 317.304 987.011 317.572ZM911.475 283.661L910.995 282.001C911.2 281.786 911.372 281.518 911.543 281.251L960.781 342.214L911.475 283.661ZM906.743 279.322L907.052 279.697C907.154 280.126 907.292 280.554 907.463 280.876L890.799 306.59L887.405 283.393L906.743 279.322ZM907.874 281.626C908.183 282.001 908.56 282.322 908.972 282.483C909.04 282.483 909.109 282.483 909.177 282.483L904.549 399.374C904.48 399.374 904.377 399.374 904.309 399.374L890.936 307.768L907.874 281.626ZM903.76 399.588C903.28 399.856 902.869 400.231 902.56 400.82L859.46 356.357L890.491 308.465L903.76 399.588ZM902.217 401.731C902.114 402.053 902.011 402.32 901.943 402.642C901.908 402.91 901.943 403.124 901.943 403.392L828.293 407.463C828.224 406.66 828.018 405.963 827.71 405.374L858.98 357.107L902.217 401.731ZM827.264 404.677C827.23 404.624 827.195 404.57 827.161 404.517L848.077 345.91L858.432 356.571L827.264 404.677ZM826.578 404.088C826.441 403.981 826.304 403.874 826.167 403.82C825.755 403.66 825.344 403.713 824.967 403.82L805.594 304.393C806.005 304.125 806.383 303.75 806.657 303.215L847.528 345.375L826.578 404.088ZM786.701 369.696L785.81 368.839L797.914 325.554L786.701 369.696ZM786.427 370.714L767.535 445.123C767.5 445.123 767.466 445.07 767.432 445.07C766.986 444.909 766.506 444.963 766.094 445.177L765.306 442.284L785.536 369.91L786.427 370.714ZM764.963 440.998L731.704 317.625L784.987 369.321L764.963 440.998ZM764.414 441.856L711.2 298.929C711.371 298.715 711.543 298.5 711.68 298.232L730.641 316.607L764.414 441.856ZM707.394 292.875L703.211 289.072L709.657 242.251C709.657 242.251 709.657 242.251 709.691 242.251L709.451 291.322C708.594 291.322 707.874 291.911 707.394 292.875ZM702.388 289.608L701.942 292.875L653.459 279.161L674.478 264.001L702.388 289.608ZM701.805 293.84L701.462 296.304L611.354 310.072C611.319 309.911 611.285 309.75 611.251 309.589L652.465 279.858L701.805 293.84ZM611.011 308.732C610.634 307.768 610.017 307.018 609.262 306.75C608.885 306.643 608.542 306.59 608.199 306.697L601.17 265.447L651.402 279.643L611.011 308.732ZM607.719 306.965C607.582 307.018 607.479 307.072 607.376 307.179L590.472 264.911C590.953 264.376 591.295 263.626 591.501 262.662L600.656 265.233L607.719 306.965ZM591.57 261.644C591.57 261.537 591.57 261.483 591.57 261.376L599.696 259.822L600.45 264.161L591.57 261.644ZM591.501 260.412C591.261 258.858 590.507 257.626 589.478 257.197C589.307 257.144 589.135 257.197 588.964 257.197L587.215 187.288C587.284 187.288 587.318 187.288 587.352 187.288L599.524 258.858L591.501 260.412ZM562.254 233.948L552.344 254.679C552.104 254.412 551.83 254.197 551.522 254.09C550.664 253.769 549.841 254.197 549.224 254.947L524.434 214.394L537.601 207.912L562.254 233.948ZM523.851 213.484L489.289 156.967L536.812 207.109L523.851 213.484ZM484.523 155.199L432.372 189.002L419.925 147.109C420.577 146.52 421.057 145.556 421.262 144.377C421.262 144.324 421.262 144.27 421.262 144.163L484.42 153.967C484.455 154.449 484.455 154.824 484.523 155.199ZM416.565 146.252L366.402 230.091C366.059 229.501 365.613 229.019 365.065 228.858C364.928 228.805 364.79 228.858 364.653 228.858L363.076 177.323L416.153 145.502C416.256 145.717 416.393 145.985 416.565 146.252ZM363.967 228.751C363.522 228.858 363.11 229.233 362.733 229.662C362.356 228.698 361.739 228.001 360.984 227.68C359.579 227.144 358.173 228.483 357.761 230.626L307.29 212.412C307.358 211.823 307.324 211.287 307.221 210.751L362.39 177.645L363.967 228.751ZM303.792 215.894C303.861 215.948 303.895 216.001 303.964 216.001C304.787 216.323 305.61 215.948 306.261 215.144L344.046 280.286C343.943 280.447 343.841 280.608 343.738 280.822L295.975 243.108L303.792 215.894ZM347.955 280.286L364.928 247.555L366.23 276.376L348.607 281.947C348.469 281.358 348.264 280.768 347.955 280.286ZM365.613 246.269L371.339 235.233L447.63 250.18C447.63 250.34 447.595 250.501 447.63 250.662L366.951 276.161L365.613 246.269ZM453.047 251.251C453.047 251.197 453.047 251.09 453.047 251.037L548.161 258.697C548.23 259.715 548.504 260.626 548.984 261.376L488.089 383.356C487.849 383.142 487.575 382.874 487.266 382.767C486.786 382.606 486.306 382.714 485.861 382.874L451.641 254.037C452.327 253.501 452.876 252.537 453.047 251.251ZM759.271 450.266L759.786 451.82C759.203 452.409 758.757 453.32 758.585 454.445C758.551 454.659 758.585 454.873 758.585 455.088L691.244 456.105L759.271 450.266ZM763.591 457.713L765.134 458.837L753.477 537.694L761.054 459.695C762.117 459.802 763.077 459.052 763.591 457.713ZM753.237 542.408L765.546 459.159L789.102 476.302L753.922 542.89C753.717 542.676 753.477 542.515 753.237 542.408ZM765.717 458.087L766.403 453.427C767.466 453.695 768.495 452.998 769.078 451.659L792.085 470.623L789.547 475.444L765.717 458.087ZM792.633 471.105L861.792 528.051L790.13 475.873L792.633 471.105ZM912.606 443.784L958.689 462.427C958.62 463.177 958.689 463.873 958.895 464.57L922.447 495.373L912.606 443.784ZM959.135 465.373C959.409 466.016 959.82 466.445 960.266 466.82L938.939 558.747L937.122 566.3C937.122 566.3 937.122 566.3 937.088 566.3C936.711 566.14 936.333 566.14 935.956 566.247L922.584 496.23L959.135 465.373ZM960.712 467.087C960.746 467.087 960.781 467.141 960.815 467.141C960.918 467.195 961.021 467.141 961.123 467.141L951.111 508.551L960.712 467.087ZM963.524 460.284L984.062 375.481C984.062 375.481 984.062 375.481 984.096 375.481C984.851 375.749 985.605 375.481 986.222 374.892L1031.93 463.445L964.175 462.587C964.106 461.677 963.866 460.927 963.524 460.284ZM986.633 374.249C986.668 374.249 986.668 374.196 986.702 374.196L1023.12 417.481L1038.85 463.552L1032.72 463.445L986.633 374.249ZM1051.75 498.962L1045.2 479.784L1058.5 468.587L1053.08 498.694C1052.64 498.641 1052.16 498.748 1051.75 498.962ZM1044.85 478.819L1039.95 464.409L1059.22 464.677L1058.78 467.141L1044.85 478.819ZM1059.94 464.677H1060.22C1060.25 465.052 1060.32 465.427 1060.39 465.748L1059.63 466.391L1059.94 464.677ZM1063.3 460.07C1062.65 459.962 1062.03 460.123 1061.52 460.605L1060.9 459.373L1084.66 327.214L1063.3 460.07ZM1061.04 461.248C1061 461.302 1060.97 461.302 1060.97 461.355L1060.63 460.98L1060.7 460.605L1061.04 461.248ZM1060.59 462.052C1060.46 462.427 1060.28 462.855 1060.22 463.284C1060.18 463.445 1060.22 463.605 1060.22 463.766H1060.11L1060.46 461.837L1060.59 462.052ZM1059.39 463.766L1039.64 463.498L1024.45 419.034L1059.87 461.141L1059.39 463.766ZM1039.13 464.409L1044.24 479.355L1041.91 481.337L1033.13 464.355L1039.13 464.409ZM1044.58 480.319L1050.79 498.48L1042.39 482.194L1044.58 480.319ZM1059.39 467.891L1060.73 466.766C1061 467.355 1061.35 467.784 1061.76 468.105L1054.21 496.605L1059.39 467.891ZM1002.51 357.214L987.045 368.946C986.668 368.035 986.085 367.339 985.331 367.071C985.262 367.071 985.193 367.071 985.125 367.071L987.936 317.947C988.314 317.947 988.622 317.893 988.965 317.679L1002.51 357.214ZM887.268 282.536L883.016 253.501C883.427 253.287 883.77 252.912 884.079 252.43L906.057 278.518L887.268 282.536ZM708.937 241.983L702.559 288.429L675.3 263.411L707.497 240.215C707.805 241.019 708.32 241.662 708.937 241.983ZM585.089 186.216L562.665 233.144L538.389 207.484L584.438 184.77C584.575 185.359 584.781 185.841 585.089 186.216ZM249.206 402.803C249.001 402.749 248.829 402.803 248.623 402.803L233.88 198.43C234.531 198.162 235.148 197.573 235.525 196.662L295.083 243.644L249.412 402.963C249.343 402.91 249.275 402.856 249.206 402.803ZM1064.91 461.355C1064.64 460.873 1064.3 460.552 1063.88 460.284L1090.49 294.911C1091.04 295.018 1091.55 294.858 1092.03 294.536L1127.97 388.446L1064.91 461.355ZM1060.15 459.48L1060.01 460.23L1023.77 417.159L1003.4 357.589L1007.79 354.267L1060.15 459.48ZM1003.13 356.732L990.165 318.804L1007.41 353.464L1003.13 356.732ZM985.296 312.804C985.159 313.822 985.296 314.839 985.605 315.643L961.398 341.785L911.921 280.554C912.023 280.34 912.058 280.072 912.126 279.804L985.296 312.804ZM906.88 278.197L889.153 257.144L907.223 276.108C907.086 276.483 906.949 276.858 906.88 277.286C906.846 277.608 906.88 277.876 906.88 278.197ZM881.507 253.715C881.816 253.822 882.159 253.822 882.467 253.769L886.685 282.697L869.369 286.34L881.096 253.447C881.233 253.501 881.37 253.662 881.507 253.715ZM886.822 283.554L890.285 307.393L858.877 355.875L848.385 345.053L868.992 287.358L886.822 283.554ZM847.871 344.464L807.034 302.357C807.137 302.036 807.24 301.768 807.308 301.447C807.377 301.072 807.343 300.75 807.343 300.375L868.238 287.518L847.871 344.464ZM803.262 304.125L785.33 368.357L731.292 315.964L726.149 296.84L801.925 300.75C801.959 302.143 802.44 303.375 803.262 304.125ZM730.195 314.839L712.057 297.215C712.126 296.947 712.228 296.733 712.297 296.411C712.331 296.25 712.297 296.143 712.297 295.983L725.326 296.679L730.195 314.839ZM712.297 295.233C712.228 293.358 711.405 291.75 710.205 291.322C710.068 291.268 709.931 291.322 709.794 291.322L710.034 242.251C710.24 242.251 710.411 242.197 710.583 242.144L725.086 295.929L712.297 295.233ZM707.291 239.305L674.649 262.822L658.877 248.358L707.222 238.983C707.222 239.09 707.257 239.198 707.291 239.305ZM673.86 263.411L652.431 278.84L600.999 264.322L600.21 259.715L657.711 248.572L673.86 263.411ZM600.039 258.751L587.832 187.02C588.312 186.752 588.758 186.323 589.067 185.68L656.785 247.769L600.039 258.751ZM415.913 144.485L363.042 176.198L358.516 26.9503C358.859 26.8432 359.201 26.6289 359.51 26.3611L416.668 140.36C416.291 140.949 415.982 141.592 415.845 142.449C415.776 143.145 415.811 143.842 415.913 144.485ZM357.453 26.8968C357.59 26.9503 357.727 26.8968 357.864 26.8968L362.39 176.573L307.015 209.787C306.775 209.091 306.433 208.555 305.987 208.127L357.281 26.7896C357.316 26.8432 357.384 26.8968 357.453 26.8968ZM231.171 197.037L149.532 335.411C149.257 335.089 148.915 334.821 148.537 334.714C148.229 334.607 147.92 334.607 147.612 334.661L135.131 235.715C136.057 235.287 136.845 234.162 137.085 232.608C137.154 232.073 137.154 231.59 137.12 231.055L230.691 195.698C230.794 196.18 230.931 196.609 231.171 197.037ZM149.977 336.161L231.617 197.787C231.891 198.109 232.234 198.377 232.611 198.484C232.817 198.537 232.988 198.484 233.194 198.484L247.938 402.856C247.218 403.124 246.6 403.874 246.223 404.892L150.526 340.125C150.56 340.018 150.595 339.964 150.595 339.857C150.8 338.518 150.526 337.178 149.977 336.161ZM250.029 403.392L295.701 244.126L343.463 281.786C343.429 281.947 343.361 282.054 343.326 282.268C343.155 283.447 343.292 284.626 343.669 285.536L250.475 403.927C250.338 403.767 250.201 403.553 250.029 403.392ZM348.709 284.251C348.778 283.768 348.744 283.34 348.744 282.911L366.299 277.34L374.117 450.48L346.995 287.251C347.818 286.715 348.504 285.697 348.709 284.251ZM375.351 451.873C375.214 451.82 375.042 451.873 374.905 451.873L367.019 277.126L447.767 251.626C448.041 253.019 448.761 254.197 449.721 254.572C450.201 254.733 450.681 254.626 451.127 254.412L485.346 383.249C484.66 383.838 484.146 384.803 483.94 386.035C483.838 386.731 483.872 387.428 484.009 388.124L377.134 454.07C376.757 452.998 376.14 452.141 375.351 451.873ZM682.501 457.016L758.551 455.838C758.654 457.605 759.477 459.159 760.643 459.641L752.619 542.194C751.797 542.086 751.008 542.569 750.459 543.479L682.089 458.998C682.261 458.57 682.398 458.141 682.467 457.659C682.535 457.445 682.501 457.23 682.501 457.016ZM754.368 543.533L789.685 476.677L871.015 535.872C870.981 535.979 870.947 536.086 870.912 536.247C870.878 536.461 870.912 536.676 870.912 536.944L755.191 545.783C755.054 544.872 754.745 544.122 754.368 543.533ZM876.09 535.604L922.07 496.712L935.408 566.568C934.79 566.997 934.276 567.747 933.968 568.818L876.261 538.283C876.261 538.283 876.261 538.229 876.295 538.229C876.433 537.265 876.33 536.408 876.09 535.604ZM964.107 463.712C964.107 463.605 964.107 463.552 964.107 463.445L1032.34 464.355L1041.32 481.766L1028.98 492.158L964.107 463.712ZM1041.84 482.623L1050.79 499.926C1050.51 500.355 1050.34 500.837 1050.2 501.373L1030.04 492.534L1041.84 482.623ZM1053.87 499.123L1062.03 468.266C1062.14 468.32 1062.2 468.427 1062.31 468.48C1063.78 469.016 1065.29 467.57 1065.63 465.266C1065.67 465.105 1065.63 464.945 1065.63 464.837L1079.24 464.784L1054.49 499.712C1054.32 499.444 1054.11 499.283 1053.87 499.123ZM1065.67 463.712C1065.63 463.23 1065.53 462.802 1065.39 462.32L1115.97 412.981L1080.03 463.659L1065.67 463.712ZM1134.35 397.553L1173.12 394.874L1197.09 460.284C1196.85 460.552 1196.65 460.82 1196.47 461.195L1134.07 399.213C1134.17 398.892 1134.31 398.624 1134.35 398.249C1134.35 397.981 1134.31 397.767 1134.35 397.553ZM1263.78 389.41L1278.59 389.946L1203.68 458.623L1263.78 389.41ZM1264.36 388.767L1267.9 384.696L1292.79 376.285C1292.82 376.499 1292.86 376.66 1292.93 376.821L1279.35 389.303L1264.36 388.767ZM1293.2 377.678C1293.58 378.481 1294.09 379.071 1294.78 379.339C1296.05 379.821 1297.28 378.749 1297.83 376.981L1317.58 389.731C1317.54 389.892 1317.48 389.999 1317.44 390.16C1317.41 390.321 1317.44 390.481 1317.44 390.695L1280.48 389.356L1293.2 377.678ZM1119.43 409.606L1128.69 400.553L1081.58 463.659H1081.1L1119.43 409.606ZM1317.72 389.249L1297.97 376.499C1298 376.339 1298.07 376.231 1298.1 376.071C1298.45 373.767 1297.52 371.41 1296.01 370.874C1295.91 370.821 1295.84 370.874 1295.74 370.874L1296.6 355.071C1297.28 355.125 1297.9 354.803 1298.38 354.16L1318.16 388.124C1317.99 388.446 1317.82 388.821 1317.72 389.249ZM1294.26 352.714L1273.9 371.196L1164.62 354.321L1293.99 351.482C1294.02 351.91 1294.13 352.339 1294.26 352.714ZM1155.98 356.035L1128.38 387.963L1092.48 294.161C1092.72 293.893 1092.93 293.625 1093.1 293.25L1155.91 352.071C1155.81 352.339 1155.71 352.607 1155.67 352.928C1155.5 354.053 1155.64 355.125 1155.98 356.035ZM1088.3 292.072L1008.03 352.982L989.959 316.607C990.337 316.072 990.611 315.375 990.748 314.572C990.817 314.197 990.782 313.822 990.782 313.447L1088.26 291.697C1088.23 291.858 1088.26 291.965 1088.3 292.072ZM912.298 279.054C912.572 276.804 911.68 274.554 910.206 274.019C909.109 273.644 908.012 274.286 907.394 275.626L884.593 251.733L884.49 251.572C884.525 251.519 884.525 251.465 884.525 251.412L982.005 310.5L912.298 279.054ZM880.547 252.965L868.581 286.447L807.274 299.357C807.274 299.25 807.24 299.197 807.206 299.143L879.724 251.465C879.93 252.055 880.17 252.59 880.547 252.965ZM801.891 299.84L725.875 295.929L711.268 241.715C711.68 241.34 712.023 240.751 712.263 240.055L801.994 299.197C801.96 299.304 801.925 299.357 801.925 299.465C801.891 299.572 801.925 299.732 801.891 299.84ZM707.154 238.019L657.951 247.555L589.41 184.716L707.154 237.323C707.12 237.537 707.154 237.751 707.154 238.019ZM584.266 181.77L489.906 154.395C490.009 152.359 489.186 150.431 487.918 149.895L502.422 8.41487C502.936 8.46844 503.45 8.3077 503.896 7.93271L585.021 179.895C584.644 180.43 584.404 181.073 584.266 181.77ZM500.467 6.96848L420.234 139.931C419.925 139.61 419.582 139.342 419.205 139.181C418.451 138.913 417.696 139.127 417.114 139.717L359.956 25.7182C360.333 25.129 360.642 24.4861 360.779 23.6289C360.813 23.3611 360.779 23.1468 360.779 22.8789L499.85 5.14705C499.953 5.84347 500.159 6.43277 500.467 6.96848ZM356.664 26.3611L305.37 207.698C305.301 207.644 305.267 207.591 305.198 207.591C304.375 207.269 303.552 207.644 302.935 208.394L239.64 102.164C239.949 101.628 240.189 101.039 240.291 100.342C240.394 99.6458 240.36 98.9494 240.223 98.253L355.67 24.8075C355.91 25.4503 356.218 25.9325 356.664 26.3611ZM236.966 103.556C237.034 103.556 237.103 103.556 237.171 103.556L233.194 190.02C231.96 190.02 230.794 191.305 230.519 193.287C230.451 193.823 230.451 194.359 230.485 194.841L136.914 230.198C136.845 229.876 136.811 229.608 136.708 229.341L235.697 102.432C236.04 102.967 236.451 103.396 236.966 103.556ZM53.7317 367.178L145.314 340.178C145.589 341.625 146.309 342.803 147.303 343.178C147.372 343.178 147.406 343.178 147.474 343.178L141.886 466.766C141.131 466.82 140.445 467.302 139.931 468.159L53.3545 369.696C53.4916 369.321 53.6288 368.999 53.6974 368.571C53.7659 368.035 53.7317 367.607 53.7317 367.178ZM142.571 466.766C142.503 466.766 142.468 466.766 142.4 466.766L147.954 343.178C148.915 343.125 149.772 342.321 150.252 341.036L245.949 405.802C245.915 405.91 245.88 405.963 245.88 406.07C245.777 406.767 245.812 407.463 245.915 408.106L144.389 469.016C144.011 467.945 143.394 467.034 142.571 466.766ZM250.955 404.731L344.149 286.34C344.492 286.875 344.903 287.304 345.418 287.518C345.761 287.625 346.104 287.625 346.412 287.572L373.74 452.141C373.019 452.57 372.471 453.427 372.197 454.552L251.332 407.57C251.401 406.552 251.264 405.535 250.955 404.731ZM377.374 454.98L484.249 389.035C484.626 390.106 485.243 390.91 486.032 391.231C486.066 391.231 486.101 391.231 486.135 391.231L478.077 577.497C477.391 577.55 476.774 577.979 476.294 578.729L377.065 458.302C377.203 457.927 377.34 457.552 377.408 457.123C377.511 456.32 377.477 455.677 377.374 454.98ZM478.832 577.497C478.797 577.497 478.763 577.497 478.729 577.497L486.786 391.231C487.026 391.231 487.232 391.178 487.438 391.071L532.629 552.211C531.978 552.801 531.497 553.765 531.326 554.943C531.223 555.586 531.258 556.229 531.326 556.818L480.752 580.175C480.443 578.89 479.757 577.818 478.832 577.497ZM536.126 553.229L606.279 441.213C606.588 441.588 606.931 441.909 607.342 442.07C607.651 442.177 607.925 442.123 608.199 442.123L634.429 630.907C633.847 631.228 633.367 631.764 633.024 632.567L536.538 557.408C536.572 557.247 536.641 557.086 536.675 556.926C536.915 555.586 536.641 554.247 536.126 553.229ZM637.687 632.567C637.447 631.978 637.07 631.496 636.658 631.174L679.106 460.873C679.141 460.873 679.141 460.927 679.175 460.927C680.169 461.302 681.095 460.712 681.747 459.695L750.116 544.176C749.945 544.604 749.808 545.033 749.739 545.515C749.602 546.318 749.705 547.122 749.876 547.872L637.687 632.567ZM755.122 546.747L870.844 537.908C871.015 539.408 871.701 540.64 872.661 541.176L856.066 639.478C855.037 639.21 854.043 639.853 853.425 641.085L754.917 548.193C754.985 547.926 755.088 547.711 755.157 547.443C755.157 547.229 755.122 547.015 755.122 546.747ZM857.814 641.246C857.506 640.549 857.06 640.067 856.511 639.746L873.107 541.443C874.375 541.765 875.575 540.694 876.055 538.926L933.762 569.461C933.762 569.515 933.762 569.515 933.727 569.515C933.59 570.479 933.693 571.39 933.933 572.247L857.814 641.246ZM1029.32 493.176L1050 502.23C1049.93 502.819 1049.96 503.408 1050.03 503.998L941.065 567.318L1029.32 493.176ZM1080.34 464.73H1080.79L1071.91 476.623L1080.34 464.73ZM1129.75 400.338C1130.09 400.874 1130.51 401.249 1130.99 401.463C1132.08 401.838 1133.15 401.195 1133.8 399.856L1196.2 461.837C1196.1 462.159 1195.96 462.427 1195.93 462.802C1195.89 462.962 1195.93 463.07 1195.93 463.23L1082.47 463.605L1129.75 400.338ZM1279.76 389.999L1317.44 391.338C1317.44 391.606 1317.48 391.874 1317.51 392.088L1202.17 461.087L1279.76 389.999Z" fill="#0090FF"/>
</svg>
