<svg width="151" height="64" viewBox="0 0 151 64" fill="none" xmlns="http://www.w3.org/2000/svg">
<path d="M0.0703125 3.33299C0.0703125 1.87624 1.25124 0.695312 2.70799 0.695312H147.751C149.208 0.695312 150.389 1.87624 150.389 3.33299V61.362C150.389 62.8187 149.208 63.9997 147.751 63.9997H2.70799C1.25124 63.9997 0.0703125 62.8187 0.0703125 61.362V3.33299Z" fill="#0090FF"/>
<path d="M40.8991 31.1452C41.65 31.3544 42.2285 31.7299 42.6347 32.2715C43.0533 32.8131 43.2625 33.4901 43.2625 34.3025C43.2625 35.4226 42.8748 36.2966 42.0993 36.9243C41.3361 37.5398 40.2652 37.8475 38.8866 37.8475H33.2367V24.8306H38.6835C40.0252 24.8306 41.0715 25.1322 41.8223 25.7353C42.5855 26.3261 42.9671 27.157 42.9671 28.2279C42.9671 28.9172 42.7825 29.5142 42.4132 30.0189C42.0562 30.5236 41.5515 30.899 40.8991 31.1452ZM35.1015 30.462H38.3881C40.2098 30.462 41.1207 29.7727 41.1207 28.3941C41.1207 27.7048 40.893 27.1939 40.4376 26.8616C39.9944 26.5292 39.3113 26.3631 38.3881 26.3631H35.1015V30.462ZM38.6835 36.315C39.6313 36.315 40.3268 36.1427 40.7699 35.7981C41.213 35.4534 41.4346 34.9179 41.4346 34.1917C41.4346 33.4532 41.2069 32.9054 40.7514 32.5484C40.3083 32.1792 39.619 31.9945 38.6835 31.9945H35.1015V36.315H38.6835ZM53.4311 28.8372V37.8475H51.6217V36.3889C51.3386 36.9059 50.9447 37.2998 50.44 37.5706C49.9476 37.8414 49.3937 37.9768 48.7783 37.9768C46.5872 37.9768 45.4917 36.7705 45.4917 34.3579V28.8372H47.3566V34.3394C47.3566 35.0657 47.5043 35.6011 47.7997 35.9458C48.0951 36.2904 48.5506 36.4628 49.166 36.4628C49.8923 36.4628 50.4708 36.2289 50.9016 35.7611C51.3447 35.2934 51.5663 34.6718 51.5663 33.8963V28.8372H53.4311ZM60.3059 36.5366C60.589 36.5366 60.8659 36.5181 61.1367 36.4812L61.0444 37.9029C60.7367 37.9522 60.4167 37.9768 60.0843 37.9768C58.9149 37.9768 58.041 37.6937 57.4624 37.1274C56.8962 36.5489 56.6131 35.718 56.6131 34.6348V30.2774H54.8591V28.8372H56.6131V26.123H58.478V28.8372H60.9521V30.2774H58.478V34.561C58.478 35.8781 59.0873 36.5366 60.3059 36.5366ZM66.779 36.5366C67.0621 36.5366 67.3391 36.5181 67.6099 36.4812L67.5176 37.9029C67.2098 37.9522 66.8898 37.9768 66.5574 37.9768C65.3881 37.9768 64.5141 37.6937 63.9356 37.1274C63.3694 36.5489 63.0863 35.718 63.0863 34.6348V30.2774H61.3322V28.8372H63.0863V26.123H64.9511V28.8372H67.4252V30.2774H64.9511V34.561C64.9511 35.8781 65.5604 36.5366 66.779 36.5366ZM72.9374 37.9768C72.0511 37.9768 71.2695 37.786 70.5925 37.4044C69.9278 37.0228 69.4108 36.4812 69.0415 35.7796C68.6846 35.0657 68.5061 34.2409 68.5061 33.3054C68.5061 32.3576 68.6846 31.5329 69.0415 30.8313C69.4108 30.1174 69.9278 29.5696 70.5925 29.188C71.2695 28.8064 72.0511 28.6157 72.9374 28.6157C73.8237 28.6157 74.5991 28.8064 75.2638 29.188C75.9408 29.5696 76.4578 30.1174 76.8148 30.8313C77.1841 31.5329 77.3687 32.3576 77.3687 33.3054C77.3687 34.2409 77.1841 35.0657 76.8148 35.7796C76.4578 36.4812 75.9408 37.0228 75.2638 37.4044C74.5991 37.786 73.8237 37.9768 72.9374 37.9768ZM72.9374 36.4997C73.7621 36.4997 74.3899 36.2289 74.8207 35.6873C75.2638 35.1457 75.4854 34.3517 75.4854 33.3054C75.4854 32.2715 75.2638 31.4837 74.8207 30.9421C74.3776 30.3882 73.7498 30.1112 72.9374 30.1112C72.125 30.1112 71.4972 30.3882 71.0541 30.9421C70.611 31.4837 70.3894 32.2715 70.3894 33.3054C70.3894 34.3517 70.6048 35.1457 71.0356 35.6873C71.4788 36.2289 72.1127 36.4997 72.9374 36.4997ZM84.301 28.6157C86.4551 28.6157 87.5321 29.8281 87.5321 32.253V37.8475H85.6673V32.3453C85.6673 31.5822 85.5134 31.0221 85.2057 30.6651C84.9103 30.3082 84.4425 30.1297 83.8025 30.1297C83.0516 30.1297 82.4484 30.3636 81.993 30.8313C81.5376 31.2991 81.3098 31.9268 81.3098 32.7146V37.8475H79.445V28.8372H81.2729V30.2774C81.5683 29.7358 81.9807 29.3234 82.51 29.0403C83.0393 28.7572 83.6363 28.6157 84.301 28.6157Z" fill="white"/>
<path fill-rule="evenodd" clip-rule="evenodd" d="M105.548 35.1737C105.718 35.1737 105.865 35.1115 105.989 34.9872L110.385 30.5911C110.51 30.4668 110.572 30.3196 110.572 30.1495C110.572 29.9794 110.51 29.8322 110.385 29.7079C110.261 29.5836 110.114 29.5215 109.944 29.5215H101.151C100.981 29.5215 100.834 29.5836 100.71 29.7079C100.586 29.8322 100.523 29.9794 100.523 30.1495C100.523 30.3196 100.586 30.4668 100.71 30.5911L105.106 34.9872C105.23 35.1115 105.378 35.1737 105.548 35.1737Z" fill="white"/>
</svg>
