<svg width="136" height="64" viewBox="0 0 136 64" fill="none" xmlns="http://www.w3.org/2000/svg">
<path d="M0.710938 3.33299C0.710938 1.87624 1.89187 0.695312 3.34862 0.695312H132.566C134.023 0.695312 135.204 1.87624 135.204 3.33299V61.362C135.204 62.8187 134.023 63.9997 132.566 63.9997H3.34862C1.89187 63.9997 0.710938 62.8187 0.710938 61.362V3.33299Z" fill="#0090FF"/>
<path d="M28.3523 31.1452C29.1031 31.3544 29.6817 31.7299 30.0879 32.2715C30.5064 32.8131 30.7156 33.4901 30.7156 34.3025C30.7156 35.4226 30.3279 36.2966 29.5524 36.9243C28.7893 37.5398 27.7184 37.8475 26.3397 37.8475H20.6898V24.8306H26.1366C27.4783 24.8306 28.5246 25.1322 29.2755 25.7353C30.0386 26.3261 30.4202 27.157 30.4202 28.2279C30.4202 28.9172 30.2356 29.5142 29.8663 30.0189C29.5093 30.5236 29.0047 30.899 28.3523 31.1452ZM22.5547 30.462H25.8412C27.663 30.462 28.5738 29.7727 28.5738 28.3941C28.5738 27.7048 28.3461 27.1939 27.8907 26.8616C27.4475 26.5292 26.7644 26.3631 25.8412 26.3631H22.5547V30.462ZM26.1366 36.315C27.0844 36.315 27.7799 36.1427 28.223 35.7981C28.6662 35.4534 28.8877 34.9179 28.8877 34.1917C28.8877 33.4532 28.66 32.9054 28.2046 32.5484C27.7614 32.1792 27.0721 31.9945 26.1366 31.9945H22.5547V36.315H26.1366ZM40.8843 28.8372V37.8475H39.0748V36.3889C38.7917 36.9059 38.3978 37.2998 37.8931 37.5706C37.4008 37.8414 36.8469 37.9768 36.2314 37.9768C34.0404 37.9768 32.9448 36.7705 32.9448 34.3579V28.8372H34.8097V34.3394C34.8097 35.0657 34.9574 35.6011 35.2528 35.9458C35.5482 36.2904 36.0037 36.4628 36.6191 36.4628C37.3454 36.4628 37.9239 36.2289 38.3547 35.7611C38.7979 35.2934 39.0194 34.6718 39.0194 33.8963V28.8372H40.8843ZM47.759 36.5366C48.0421 36.5366 48.3191 36.5181 48.5899 36.4812L48.4975 37.9029C48.1898 37.9522 47.8698 37.9768 47.5374 37.9768C46.3681 37.9768 45.4941 37.6937 44.9156 37.1274C44.3494 36.5489 44.0662 35.718 44.0662 34.6348V30.2774H42.3122V28.8372H44.0662V26.123H45.9311V28.8372H48.4052V30.2774H45.9311V34.561C45.9311 35.8781 46.5404 36.5366 47.759 36.5366ZM54.2321 36.5366C54.5152 36.5366 54.7922 36.5181 55.063 36.4812L54.9707 37.9029C54.663 37.9522 54.3429 37.9768 54.0106 37.9768C52.8412 37.9768 51.9672 37.6937 51.3887 37.1274C50.8225 36.5489 50.5394 35.718 50.5394 34.6348V30.2774H48.7853V28.8372H50.5394V26.123H52.4042V28.8372H54.8784V30.2774H52.4042V34.561C52.4042 35.8781 53.0135 36.5366 54.2321 36.5366ZM60.3905 37.9768C59.5043 37.9768 58.7226 37.786 58.0456 37.4044C57.3809 37.0228 56.8639 36.4812 56.4947 35.7796C56.1377 35.0657 55.9592 34.2409 55.9592 33.3054C55.9592 32.3576 56.1377 31.5329 56.4947 30.8313C56.8639 30.1174 57.3809 29.5696 58.0456 29.188C58.7226 28.8064 59.5043 28.6157 60.3905 28.6157C61.2768 28.6157 62.0523 28.8064 62.717 29.188C63.394 29.5696 63.9109 30.1174 64.2679 30.8313C64.6372 31.5329 64.8218 32.3576 64.8218 33.3054C64.8218 34.2409 64.6372 35.0657 64.2679 35.7796C63.9109 36.4812 63.394 37.0228 62.717 37.4044C62.0523 37.786 61.2768 37.9768 60.3905 37.9768ZM60.3905 36.4997C61.2152 36.4997 61.843 36.2289 62.2738 35.6873C62.717 35.1457 62.9385 34.3517 62.9385 33.3054C62.9385 32.2715 62.717 31.4837 62.2738 30.9421C61.8307 30.3882 61.2029 30.1112 60.3905 30.1112C59.5781 30.1112 58.9503 30.3882 58.5072 30.9421C58.0641 31.4837 57.8425 32.2715 57.8425 33.3054C57.8425 34.3517 58.0579 35.1457 58.4887 35.6873C58.9319 36.2289 59.5658 36.4997 60.3905 36.4997ZM71.7541 28.6157C73.9082 28.6157 74.9853 29.8281 74.9853 32.253V37.8475H73.1204V32.3453C73.1204 31.5822 72.9666 31.0221 72.6588 30.6651C72.3634 30.3082 71.8957 30.1297 71.2556 30.1297C70.5047 30.1297 69.9016 30.3636 69.4461 30.8313C68.9907 31.2991 68.763 31.9268 68.763 32.7146V37.8475H66.8981V28.8372H68.726V30.2774C69.0215 29.7358 69.4338 29.3234 69.9631 29.0403C70.4924 28.7572 71.0894 28.6157 71.7541 28.6157Z" fill="white"/>
<path d="M90.3633 32.3475C90.3633 25.0637 96.2679 19.1591 103.552 19.1591C110.835 19.1591 116.74 25.0637 116.74 32.3475C116.74 39.6312 110.835 45.5359 103.552 45.5359C96.2679 45.5359 90.3633 39.6312 90.3633 32.3475Z" fill="black" fill-opacity="0.1"/>
<path fill-rule="evenodd" clip-rule="evenodd" d="M98.2235 27.0184C97.4878 27.7542 97.4878 28.9471 98.2235 29.6829L100.888 32.3474L98.2235 35.012C97.4878 35.7477 97.4878 36.9406 98.2235 37.6764C98.9593 38.4122 100.152 38.4122 100.888 37.6764L103.553 35.0119L106.217 37.6763C106.953 38.412 108.146 38.412 108.881 37.6763C109.617 36.9405 109.617 35.7476 108.881 35.0118L106.217 32.3474L108.881 29.683C109.617 28.9473 109.617 27.7543 108.881 27.0186C108.146 26.2828 106.953 26.2828 106.217 27.0186L103.553 29.683L100.888 27.0184C100.152 26.2826 98.9593 26.2826 98.2235 27.0184Z" fill="black" fill-opacity="0.5"/>
</svg>
