<svg width="38" height="56" viewBox="0 0 38 56" fill="none" xmlns="http://www.w3.org/2000/svg">
<path d="M9.71961 56C15.0122 56 19.3084 51.8642 19.3084 46.7692V37.5385H9.71961C4.42704 37.5385 0.130859 41.6742 0.130859 46.7692C0.130859 51.8642 4.42704 56 9.71961 56Z" fill="#0ACF83"/>
<path d="M0.130859 28.0011C0.130859 22.7357 4.42704 18.4615 9.71961 18.4615H19.3084V37.5385H9.71731C4.42474 37.5407 0.130859 33.2666 0.130859 28.0011Z" fill="#A259FF"/>
<path d="M0.130859 9.23187C0.130859 4.13629 4.42526 0 9.71846 0H19.3084V18.4615H9.71846C4.42526 18.4615 0.130859 14.3275 0.130859 9.23187Z" fill="#F24E1E"/>
<path d="M19.3086 0H28.588C33.7099 0 37.8675 4.13579 37.8675 9.23077C37.8675 14.3257 33.7099 18.4615 28.588 18.4615H19.3086V0Z" fill="#FF7262"/>
<path d="M37.8675 28C37.8675 33.2648 33.7094 37.5385 28.5869 37.5385C23.4645 37.5385 19.3086 33.2648 19.3086 28C19.3086 22.7352 23.4667 18.4615 28.5891 18.4615C33.7116 18.4615 37.8675 22.7352 37.8675 28Z" fill="#1ABCFE"/>
</svg>
