<svg width="58" height="58" viewBox="0 0 58 58" fill="none" xmlns="http://www.w3.org/2000/svg">
<path d="M37.2857 27.7609C38.2063 28.2924 38.2063 29.6213 37.2857 30.1528L22.9799 38.4122C22.0593 38.9438 20.9085 38.2794 20.9085 37.2163V20.6974C20.9085 19.6343 22.0593 18.9699 22.9799 19.5014L37.2857 27.7609Z" fill="#FF7885"/>
<path d="M20.9732 0H2.7619C1.23655 0 0 1.23655 0 2.7619V55.2381C0 56.7635 1.23655 58 2.7619 58H20.9732V49.369H8.63096V8.63095H20.9732V0Z" fill="#FF7885"/>
<path d="M36.9405 49.369H49.3691V8.63095H36.9405V0H55.2381C56.7635 0 58 1.23655 58 2.7619V55.2381C58 56.7635 56.7635 58 55.2381 58H36.9405V49.369Z" fill="#FF7885"/>
</svg>
