<svg width="58" height="58" viewBox="0 0 58 58" fill="none" xmlns="http://www.w3.org/2000/svg">
<path fill-rule="evenodd" clip-rule="evenodd" d="M29.5861 27.8661C29.7446 27.7255 29.7983 27.5008 29.7203 27.3039C29.6423 27.1069 29.4494 26.9798 29.2376 26.9859H28.9979C24.5485 26.9859 20.9415 23.3789 20.9415 18.9295C20.9415 14.48 24.5485 10.873 28.9979 10.873C33.4474 10.873 37.0544 14.48 37.0544 18.9295C37.054 20.6571 36.4881 22.3372 35.4431 23.713C35.3139 23.8845 35.3077 24.1191 35.4276 24.2972C35.5476 24.4753 35.7673 24.5577 35.9748 24.5025C39.7434 23.4988 43.7491 23.9093 47.2357 25.6566C47.4098 25.7435 47.6184 25.7223 47.7715 25.6022C49.266 24.4235 50.6791 23.1449 52.0011 21.7754C53.5486 20.185 53.5486 17.6517 52.0011 16.0614C46.7362 10.6092 38.0353 4.83069 29.294 4.83069H28.7039C19.9606 4.83069 11.2597 10.6112 5.99481 16.0694C4.44965 17.6599 4.44965 20.1909 5.99481 21.7814C10.593 26.5508 17.8076 31.5539 25.3645 32.7503C25.5757 32.7849 25.7854 32.6813 25.8862 32.4925C26.8253 30.7364 28.0794 29.1682 29.5861 27.8661ZM32.0191 18.9295C32.0191 20.598 30.6665 21.9506 28.9979 21.9506C27.3294 21.9506 25.9768 20.598 25.9768 18.9295C25.9768 17.2609 27.3294 15.9083 28.9979 15.9083C30.6665 15.9083 32.0191 17.2609 32.0191 18.9295ZM40.0776 26.9859C32.8472 26.9859 26.9859 32.8472 26.9859 40.0776C26.9859 47.3079 32.8472 53.1693 40.0776 53.1693C47.3079 53.1693 53.1693 47.3079 53.1693 40.0776C53.1604 32.8509 47.3042 26.9948 40.0776 26.9859ZM47.0746 37.7714L41.2337 45.5741C40.6195 46.392 39.6804 46.9029 38.6601 46.9744C37.6398 47.0459 36.6387 46.671 35.9164 45.9467L32.8952 42.9255C32.3327 42.4305 32.0915 41.664 32.2692 40.936C32.4469 40.208 33.014 39.6389 33.7414 39.4586C34.4688 39.2784 35.2361 39.5168 35.7331 40.0776L37.9366 42.281C38.0396 42.3846 38.1825 42.4383 38.3282 42.4282C38.4739 42.4182 38.6081 42.3454 38.6959 42.2287L43.848 35.3545C44.2797 34.7789 44.9858 34.4773 45.7002 34.5633C46.4146 34.6494 47.0288 35.1101 47.3115 35.7718C47.5941 36.4335 47.5023 37.1958 47.0705 37.7714H47.0746Z" fill="#9F79F0"/>
</svg>
