<svg width="135" height="36" viewBox="0 0 135 36" fill="none" xmlns="http://www.w3.org/2000/svg">
<path d="M12.029 12.1403V15.3558H0V0.644237H11.7507V3.85976H4.19517V6.3397H10.8518V9.45014H4.19517V12.1403H12.029Z" fill="white"/>
<path d="M16.5211 0.644237H20.7591V12.0562H27.908V15.3558H16.5211V0.644237Z" fill="white"/>
<path d="M43.7544 12.1403V15.3558H31.7254V0.644237H43.4762V3.85976H35.9206V6.3397H42.5772V9.45014H35.9206V12.1403H43.7544Z" fill="white"/>
<path d="M61.7739 15.3558L61.7311 7.55866L57.8783 13.9056H55.9948L52.1635 7.76882V15.3558H48.2466V0.644237H51.7354L57.0008 9.1349L62.1377 0.644237H65.6266L65.6694 15.3558H61.7739Z" fill="white"/>
<path d="M82.8375 12.1403V15.3558H70.8085V0.644237H82.5592V3.85976H75.0037V6.3397H81.6603V9.45014H75.0037V12.1403H82.8375Z" fill="white"/>
<path d="M101.585 0.644237V15.3558H98.0958L91.482 7.51663V15.3558H87.3296V0.644237H90.8185L97.4323 8.48339V0.644237H101.585Z" fill="white"/>
<path d="M109.904 3.94382H105.302V0.644237H118.722V3.94382H114.142V15.3558H109.904V3.94382Z" fill="white"/>
<path d="M127.665 15.65C126.452 15.65 125.275 15.5029 124.133 15.2087C122.992 14.9144 122.064 14.5221 121.351 14.0317L122.742 10.9633C123.413 11.3977 124.19 11.7479 125.075 12.0142C125.96 12.2804 126.83 12.4135 127.686 12.4135C129.313 12.4135 130.126 12.0142 130.126 11.2155C130.126 10.7952 129.891 10.487 129.42 10.2908C128.963 10.0806 128.221 9.86347 127.194 9.63929C126.067 9.4011 125.125 9.14891 124.369 8.8827C123.612 8.60248 122.963 8.16113 122.421 7.55866C121.879 6.95619 121.607 6.14355 121.607 5.12075C121.607 4.22405 121.857 3.41841 122.357 2.70385C122.856 1.97528 123.598 1.40083 124.583 0.980501C125.581 0.560171 126.801 0.350006 128.243 0.350006C129.227 0.350006 130.198 0.462094 131.154 0.68627C132.11 0.896435 132.952 1.21168 133.679 1.63201L132.374 4.72143C130.947 3.96484 129.563 3.58655 128.221 3.58655C127.379 3.58655 126.766 3.71264 126.381 3.96484C125.995 4.20303 125.803 4.51828 125.803 4.91058C125.803 5.30289 126.031 5.59712 126.488 5.79327C126.944 5.98943 127.679 6.19259 128.692 6.40275C129.834 6.64094 130.775 6.90014 131.517 7.18036C132.274 7.44657 132.923 7.88091 133.465 8.48339C134.022 9.07185 134.3 9.87748 134.3 10.9003C134.3 11.783 134.05 12.5816 133.551 13.2962C133.051 14.0107 132.302 14.5852 131.303 15.0195C130.305 15.4398 129.092 15.65 127.665 15.65Z" fill="white"/>
<g opacity="0.7">
<path d="M0 32.5105V20.7995H4.08733C5.99147 20.7995 7.45787 21.3034 8.48654 22.3111C9.52616 23.3189 10.046 24.7641 10.046 26.6467C10.046 28.5293 9.52616 29.98 8.48654 30.9988C7.45787 32.0066 5.99147 32.5105 4.08733 32.5105H0ZM1.70716 31.0653H3.98884C6.84505 31.0653 8.27315 29.5924 8.27315 26.6467C8.27315 23.712 6.84505 22.2447 3.98884 22.2447H1.70716V31.0653Z" fill="white"/>
<path d="M18.0397 32.66C16.7265 32.66 15.6923 32.289 14.9372 31.547C14.1822 30.794 13.8046 29.7696 13.8046 28.4739C13.8046 27.6434 13.9688 26.9125 14.2971 26.2812C14.6363 25.6389 15.1014 25.1406 15.6923 24.7862C16.2833 24.4318 16.9618 24.2547 17.7278 24.2547C18.8331 24.2547 19.7031 24.6146 20.3378 25.3344C20.9725 26.0431 21.2898 27.0232 21.2898 28.2746V28.8394H15.4133C15.5337 30.5227 16.4146 31.3643 18.0561 31.3643C18.5157 31.3643 18.9644 31.2923 19.4021 31.1483C19.8508 31.0044 20.2721 30.7663 20.6661 30.4341L21.1585 31.5969C20.7974 31.9291 20.3323 32.1893 19.7633 32.3776C19.1942 32.5658 18.6197 32.66 18.0397 32.66ZM17.7935 25.4341C17.104 25.4341 16.5569 25.65 16.152 26.0819C15.7471 26.5138 15.5008 27.0897 15.4133 27.8095H19.8946C19.8617 27.0564 19.6648 26.475 19.3036 26.0653C18.9425 25.6445 18.4391 25.4341 17.7935 25.4341Z" fill="white"/>
<path d="M28.0382 32.66C27.3816 32.66 26.7688 32.5769 26.1997 32.4108C25.6307 32.2336 25.1546 31.99 24.7716 31.6799L25.2476 30.5503C25.6525 30.8383 26.0958 31.0598 26.5773 31.2148C27.0697 31.3698 27.5622 31.4474 28.0546 31.4474C28.6346 31.4474 29.0723 31.3421 29.3678 31.1317C29.6633 30.9213 29.811 30.6389 29.811 30.2846C29.811 29.9966 29.7125 29.7751 29.5155 29.6201C29.3186 29.454 29.0231 29.3266 28.6291 29.238L27.0697 28.9224C25.6909 28.6345 25.0014 27.9147 25.0014 26.763C25.0014 25.9988 25.3024 25.3898 25.9042 24.9357C26.5061 24.4817 27.294 24.2547 28.268 24.2547C28.8261 24.2547 29.3569 24.3377 29.8603 24.5038C30.3746 24.6699 30.8014 24.9191 31.1406 25.2513L30.6646 26.3809C30.3363 26.093 29.9587 25.8715 29.532 25.7165C29.1052 25.5614 28.6838 25.4839 28.268 25.4839C27.699 25.4839 27.2667 25.5946 26.9712 25.8161C26.6758 26.0265 26.528 26.3145 26.528 26.6799C26.528 27.2336 26.8891 27.588 27.6114 27.743L29.1708 28.0586C29.8821 28.2026 30.4184 28.4462 30.7795 28.7895C31.1516 29.1328 31.3376 29.598 31.3376 30.1849C31.3376 30.9601 31.0367 31.5692 30.4348 32.0121C29.8329 32.444 29.034 32.66 28.0382 32.66Z" fill="white"/>
<path d="M35.1684 22.5271V20.7829H37.1054V22.5271H35.1684ZM35.3162 32.5105V24.4042H36.9741V32.5105H35.3162Z" fill="white"/>
<path d="M45.0694 35.65C44.3471 35.65 43.6741 35.5614 43.0503 35.3842C42.4266 35.2181 41.8739 34.9523 41.3924 34.5869L41.9013 33.3909C42.3828 33.7231 42.8752 33.9667 43.3786 34.1218C43.882 34.2768 44.4073 34.3543 44.9545 34.3543C46.4865 34.3543 47.2526 33.5791 47.2526 32.0287V30.7497C47.0228 31.2369 46.6616 31.619 46.1692 31.8959C45.6877 32.1727 45.146 32.3111 44.5441 32.3111C43.8218 32.3111 43.1926 32.145 42.6564 31.8128C42.1202 31.4695 41.7043 30.9988 41.4088 30.4008C41.1134 29.7918 40.9656 29.083 40.9656 28.2746C40.9656 27.4773 41.1134 26.7796 41.4088 26.1816C41.7043 25.5725 42.1202 25.1018 42.6564 24.7696C43.1926 24.4263 43.8218 24.2547 44.5441 24.2547C45.1569 24.2547 45.7041 24.3931 46.1856 24.6699C46.6671 24.9468 47.0228 25.3289 47.2526 25.8161V24.4042H48.8612V31.8294C48.8612 33.1029 48.5384 34.0553 47.8927 34.6866C47.2471 35.3289 46.306 35.65 45.0694 35.65ZM44.9381 30.9988C45.6384 30.9988 46.1965 30.7552 46.6124 30.268C47.0282 29.7807 47.2362 29.1162 47.2362 28.2746C47.2362 27.433 47.0282 26.774 46.6124 26.2978C46.1965 25.8106 45.6384 25.567 44.9381 25.567C44.2377 25.567 43.6796 25.8106 43.2637 26.2978C42.8479 26.774 42.64 27.433 42.64 28.2746C42.64 29.1162 42.8479 29.7807 43.2637 30.268C43.6796 30.7552 44.2377 30.9988 44.9381 30.9988Z" fill="white"/>
<path d="M53.322 32.5105V24.4042H54.9307V25.7497C55.2043 25.2624 55.5763 24.8914 56.0469 24.6367C56.5284 24.382 57.0646 24.2547 57.6556 24.2547C59.5488 24.2547 60.4953 25.3399 60.4953 27.5105V32.5105H58.8374V27.6101C58.8374 26.9125 58.7006 26.4031 58.4271 26.0819C58.1644 25.7608 57.7486 25.6002 57.1795 25.6002C56.512 25.6002 55.9758 25.8161 55.5709 26.248C55.1769 26.6688 54.9799 27.2281 54.9799 27.9258V32.5105H53.322Z" fill="white"/>
<path d="M75.398 32.66C74.4897 32.66 73.658 32.5437 72.9029 32.3111C72.1478 32.0675 71.5076 31.7297 70.9823 31.2978L71.524 29.9357C72.0712 30.3565 72.6567 30.6722 73.2804 30.8826C73.9042 31.093 74.6101 31.1982 75.398 31.1982C76.3282 31.1982 77.0121 31.0321 77.4498 30.6998C77.8985 30.3565 78.1229 29.9136 78.1229 29.3709C78.1229 28.928 77.9642 28.5791 77.6468 28.3244C77.3295 28.0586 76.7987 27.8482 76.0546 27.6932L74.2982 27.3277C73.2586 27.1063 72.4816 26.7408 71.9672 26.2314C71.4639 25.722 71.2122 25.0354 71.2122 24.1716C71.2122 23.4739 71.3927 22.8593 71.7538 22.3277C72.1259 21.7962 72.6403 21.3864 73.2969 21.0985C73.9535 20.7995 74.7085 20.65 75.5621 20.65C76.35 20.65 77.0778 20.7718 77.7453 21.0155C78.4238 21.248 78.9983 21.5913 79.4689 22.0454L78.9108 23.3577C77.9806 22.5271 76.8589 22.1118 75.5457 22.1118C74.7359 22.1118 74.0902 22.2945 73.6087 22.66C73.1382 23.0254 72.9029 23.5127 72.9029 24.1218C72.9029 24.5869 73.0506 24.9579 73.3461 25.2347C73.6416 25.5116 74.134 25.722 74.8234 25.866L76.5634 26.2314C77.6578 26.464 78.473 26.8239 79.0093 27.3111C79.5455 27.7873 79.8136 28.4352 79.8136 29.2547C79.8136 29.9413 79.633 30.5393 79.2719 31.0487C78.9108 31.5581 78.4019 31.9568 77.7453 32.2447C77.0887 32.5215 76.3063 32.66 75.398 32.66Z" fill="white"/>
<path d="M84.4136 35.5005L85.8417 32.2945L82.4931 24.4042H84.2659L86.7282 30.567L89.2232 24.4042H90.9304L86.1536 35.5005H84.4136Z" fill="white"/>
<path d="M96.9016 32.66C96.245 32.66 95.6322 32.5769 95.0631 32.4108C94.4941 32.2336 94.018 31.99 93.635 31.6799L94.1111 30.5503C94.516 30.8383 94.9592 31.0598 95.4407 31.2148C95.9331 31.3698 96.4256 31.4474 96.918 31.4474C97.498 31.4474 97.9357 31.3421 98.2312 31.1317C98.5267 30.9213 98.6744 30.6389 98.6744 30.2846C98.6744 29.9966 98.5759 29.7751 98.379 29.6201C98.182 29.454 97.8865 29.3266 97.4925 29.238L95.9331 28.9224C94.5543 28.6345 93.8648 27.9147 93.8648 26.763C93.8648 25.9988 94.1658 25.3898 94.7677 24.9357C95.3695 24.4817 96.1575 24.2547 97.1314 24.2547C97.6895 24.2547 98.2203 24.3377 98.7237 24.5038C99.238 24.6699 99.6648 24.9191 100.004 25.2513L99.528 26.3809C99.1997 26.093 98.8222 25.8715 98.3954 25.7165C97.9686 25.5614 97.5473 25.4839 97.1314 25.4839C96.5624 25.4839 96.1301 25.5946 95.8346 25.8161C95.5392 26.0265 95.3914 26.3145 95.3914 26.6799C95.3914 27.2336 95.7526 27.588 96.4748 27.743L98.0342 28.0586C98.7456 28.2026 99.2818 28.4462 99.6429 28.7895C100.015 29.1328 100.201 29.598 100.201 30.1849C100.201 30.9601 99.9001 31.5692 99.2982 32.0121C98.6963 32.444 97.8974 32.66 96.9016 32.66Z" fill="white"/>
<path d="M107.514 32.66C106.507 32.66 105.757 32.3997 105.265 31.8792C104.772 31.3588 104.526 30.6057 104.526 29.6201V25.6998H102.967V24.4042H104.526V21.9623H106.184V24.4042H108.663V25.6998H106.184V29.4872C106.184 30.0742 106.305 30.5171 106.545 30.8161C106.797 31.1151 107.202 31.2646 107.76 31.2646C107.935 31.2646 108.105 31.248 108.269 31.2148C108.433 31.1705 108.597 31.1207 108.761 31.0653L109.024 32.3277C108.86 32.4274 108.63 32.5049 108.334 32.5603C108.05 32.6268 107.776 32.66 107.514 32.66Z" fill="white"/>
<path d="M115.908 32.66C114.594 32.66 113.56 32.289 112.805 31.547C112.05 30.794 111.673 29.7696 111.673 28.4739C111.673 27.6434 111.837 26.9125 112.165 26.2812C112.504 25.6389 112.969 25.1406 113.56 24.7862C114.151 24.4318 114.83 24.2547 115.596 24.2547C116.701 24.2547 117.571 24.6146 118.206 25.3344C118.84 26.0431 119.158 27.0232 119.158 28.2746V28.8394H113.281C113.402 30.5227 114.283 31.3643 115.924 31.3643C116.384 31.3643 116.832 31.2923 117.27 31.1483C117.719 31.0044 118.14 30.7663 118.534 30.4341L119.026 31.5969C118.665 31.9291 118.2 32.1893 117.631 32.3776C117.062 32.5658 116.488 32.66 115.908 32.66ZM115.661 25.4341C114.972 25.4341 114.425 25.65 114.02 26.0819C113.615 26.5138 113.369 27.0897 113.281 27.8095H117.762C117.73 27.0564 117.533 26.475 117.172 26.0653C116.81 25.6445 116.307 25.4341 115.661 25.4341Z" fill="white"/>
<path d="M123.132 32.5105V24.4042H124.741V25.7165C124.981 25.2513 125.315 24.8914 125.742 24.6367C126.169 24.382 126.667 24.2547 127.236 24.2547C128.461 24.2547 129.255 24.7973 129.616 25.8826C129.868 25.3732 130.229 24.9745 130.699 24.6866C131.17 24.3986 131.706 24.2547 132.308 24.2547C134.103 24.2547 135 25.3399 135 27.5105V32.5105H133.342V27.5935C133.342 26.9069 133.222 26.4031 132.981 26.0819C132.751 25.7608 132.368 25.6002 131.832 25.6002C131.23 25.6002 130.754 25.8161 130.404 26.248C130.054 26.6688 129.879 27.2447 129.879 27.9756V32.5105H128.221V27.5935C128.221 26.9069 128.106 26.4031 127.876 26.0819C127.646 25.7608 127.263 25.6002 126.727 25.6002C126.125 25.6002 125.649 25.8161 125.299 26.248C124.96 26.6688 124.79 27.2447 124.79 27.9756V32.5105H123.132Z" fill="white"/>
</g>
</svg>
