<svg xmlns="http://www.w3.org/2000/svg" width="336.722" height="400.415" viewBox="0 0 336.722 400.415">
  <defs>
    <linearGradient id="linear-gradient" x1="9.348" y1="-3.242" x2="-1.242" y2="1.291"
                    gradientUnits="objectBoundingBox">
      <stop offset="0" stop-color="#3abf7c"/>
      <stop offset="0.611" stop-color="#248956"/>
      <stop offset="1" stop-color="#3abf7c"/>
    </linearGradient>
    <linearGradient id="linear-gradient-3" x1="9.348" y1="-3.242" x2="-1.242" y2="1.291"
                    gradientUnits="objectBoundingBox">
      <stop offset="0" stop-color="#3abf7c"/>
      <stop offset="1" stop-color="#3abf7c"/>
    </linearGradient>
  </defs>
  <g id="Leaf" transform="translate(-51.933 278.588) rotate(-45)">
    <path id="Path"
          d="M11.238,22.747C25.8,8.822,50.344-3.189,57.422.763c7.163,4.051,2.561,28.5-11.764,43.686C31.389,59.6,16.445,60.61,6.961,54.21-2.693,47.726-3.227,36.769,11.238,22.747Z"
          transform="translate(73.858 147.448)" fill="url(#linear-gradient)"/>
    <path id="Path-2" data-name="Path"
          d="M7.949,29.458C19.91,13.367,42.031-2.442,49.657.315c7.711,2.841,7.177,27.694-4.4,44.994C33.728,62.553,19.262,65.97,8.934,61.174-1.592,56.35-3.914,45.632,7.949,29.458Z"
          transform="translate(157.526 127.08)" fill="url(#linear-gradient)"/>
    <path id="Path-3" data-name="Path"
          d="M4.974,35.622C14.121,17.816,33.413-1.4,41.406.08,49.483,1.613,52.987,26.255,44.347,45.2,35.763,64.09,22.071,69.8,11.109,66.762-.036,63.7-4.074,53.5,4.974,35.622Z"
          transform="translate(237.22 94.459)" fill="url(#linear-gradient-3)"/>
    <path id="Path-4" data-name="Path"
          d="M2.467,41.225C8.658,22.139,24.7-.084,32.862,0c8.274.155,15.676,23.953,10.174,44.122C37.562,64.235,24.911,72.14,13.569,70.944,2.058,69.777-3.6,60.367,2.467,41.225Z"
          transform="translate(311.226 50.206)" fill="url(#linear-gradient)"/>
    <path id="Path-5" data-name="Path"
          d="M13.545,36.586C29.362,47.824,57.464,50.581,62.3,43.745c4.813-6.681-9.625-26.625-25.217-36.738C21.44-3.12,10.675-1.361,4.033,6.5-2.468,14.237-2.314,25.5,13.545,36.586Z"
          transform="translate(86.425 97.377)" fill="url(#linear-gradient)"/>
    <path id="Path-6" data-name="Path"
          d="M16.707,37.057c17.351,8.523,45.438,6.709,49.082-.816,3.659-7.37-13.833-24.7-30.817-32.167C17.931-3.38,7.673.08,2.438,8.9-2.642,17.605-.644,28.689,16.707,37.057Z"
          transform="translate(157.38 81.336)" fill="url(#linear-gradient)"/>
    <path id="Path-7" data-name="Path"
          d="M19.881,37.227c18.5,5.6,45.973-.788,48.379-8.833,2.42-7.89-17.7-22.11-35.686-26.7C14.506-2.873,4.951,2.219,1.236,11.769-2.38,21.164,1.391,31.783,19.881,37.227Z"
          transform="translate(224.592 53.839)" fill="url(#linear-gradient)"/>
    <path id="Path-8" data-name="Path"
          d="M22.993,37.464c19.236,2.461,45.494-8.5,46.592-16.878C70.738,12.358,48.463,1.711,29.874.206,11.214-1.271,2.546,5.353.407,15.41-1.647,25.3,3.8,35.157,22.993,37.464Z"
          transform="translate(286.676 15.035)" fill="url(#linear-gradient)"/>
    <path id="Path-9" data-name="Path"
          d="M321.557.3a1.406,1.406,0,0,1-.1,1.983A481.117,481.117,0,0,1,1.578,154.271,1.4,1.4,0,0,1,0,153.09a1.413,1.413,0,0,1,1.407-1.378A478.543,478.543,0,0,0,319.587.541,1.411,1.411,0,0,1,321.557.3Z"
          transform="translate(72.753 0.691)" fill="url(#linear-gradient)"/>
    <path id="Path-10" data-name="Path"
          d="M30.889.033C51.265.723,76.594,9.443,77.382,16.94,78.2,24.591,52.5,36.926,30.03,36.209,7.712,35.562-.886,26.293.071,16.433,1.028,6.4,10.414-.543,30.889.033Z"
          transform="translate(0.439 136.49)" fill="url(#linear-gradient)"/>
  </g>
</svg>
