<svg width="24" height="24" viewBox="0 0 24 24" fill="none" xmlns="http://www.w3.org/2000/svg">
<g id="advertising_megaphone">
<path id="Shape" fill-rule="evenodd" clip-rule="evenodd" d="M20.0769 10.9007L21.8793 13.9917C22.091 14.3556 22.0183 14.8257 21.7076 15.1019L19.0636 17.4455C19.0301 17.475 19.0064 17.5148 18.9961 17.5592L18.1728 21.0738C18.0815 21.4617 17.7479 21.7347 17.3645 21.7352H17.2962L13.4997 21.4175C13.0409 21.3792 12.6988 20.9606 12.7356 20.4827C12.7724 20.0047 13.1742 19.6484 13.633 19.6867L16.5454 19.9306C16.6474 19.9392 16.7403 19.8693 16.7645 19.7657L17.457 16.8093C17.4984 16.6316 17.5926 16.4721 17.7262 16.3536L19.9519 14.3892C20.0292 14.3199 20.0474 14.2027 19.9952 14.1115L18.4778 11.5074C18.3867 11.3512 18.3452 11.1689 18.3595 10.9866L18.5936 7.9486C18.6018 7.84232 18.5347 7.74555 18.4353 7.72031L15.5963 6.99899C15.426 6.95568 15.2732 6.85758 15.1596 6.71862L13.2739 4.4045C13.2079 4.32299 13.0946 4.30382 13.0072 4.35937L10.5073 5.93915C10.3569 6.03307 10.1823 6.07641 10.0074 6.06328L7.09085 5.81936C6.98908 5.81071 6.89628 5.88017 6.8717 5.98342L6.17923 8.94073C6.07016 9.4067 5.61911 9.69234 5.17179 9.57872C4.72446 9.46511 4.45025 8.99526 4.55932 8.5293L5.4626 4.66925C5.56694 4.26012 5.93357 3.98422 6.33923 4.00956L9.80072 4.29948C9.84442 4.30342 9.8882 4.29278 9.92571 4.26909L12.8922 2.39159C13.2421 2.16952 13.695 2.24534 13.9605 2.5704L16.2104 5.32547C16.2389 5.36011 16.2771 5.38467 16.3196 5.39577L19.6927 6.2525C20.0905 6.35348 20.3589 6.74053 20.326 7.16565L20.0477 10.7714C20.0442 10.8166 20.0544 10.8618 20.0769 10.9007ZM2.09694 18.2736C1.978 18.4219 1.96747 18.6342 2.07111 18.7944L2.91107 20.112C3.01298 20.2701 3.20186 20.3405 3.37688 20.2856L5.25761 19.6997C5.34526 19.6718 5.4401 19.7071 5.49094 19.7865L5.99091 20.5764C6.65181 21.6305 7.96385 22.0053 9.04847 21.4498C10.1331 20.8943 10.6493 19.5831 10.2515 18.3942C10.2323 18.336 10.2379 18.272 10.2669 18.2182C10.2958 18.1645 10.3454 18.1263 10.4032 18.113L13.9813 17.2762C14.0646 17.2553 14.1516 17.2898 14.2005 17.3631L14.2655 17.4646C14.3817 17.6463 14.5775 17.7555 14.7871 17.7554C14.9099 17.7557 15.03 17.7179 15.1321 17.6469C15.4194 17.4477 15.4977 17.0439 15.3071 16.7442L9.99154 8.40517C9.80055 8.10555 9.41255 8.02394 9.12492 8.22289C8.83728 8.42183 8.75894 8.826 8.94993 9.12562L9.00909 9.21763C9.06131 9.29757 9.05621 9.40392 8.99659 9.47803L2.09694 18.2736ZM8.62661 20.1893C8.09943 20.5539 7.38836 20.4042 7.03836 19.8551L6.81504 19.5079C6.77883 19.4505 6.77075 19.3786 6.79322 19.3141C6.81569 19.2495 6.86608 19.1997 6.9292 19.1798L8.78994 18.5982C8.89052 18.5675 8.99739 18.6191 9.03992 18.7189C9.26221 19.2486 9.08807 19.8681 8.62661 20.1893Z" fill="#5A5A5A"/>
</g>
</svg>
