<?xml version="1.0" encoding="UTF-8"?>
<svg width="24px" height="24px" viewBox="0 0 24 24" version="1.1" xmlns="http://www.w3.org/2000/svg" xmlns:xlink="http://www.w3.org/1999/xlink">
    <title>7. Business and Products/advertising_megaphone</title>
    <g id="7.-Business-and-Products/advertising_megaphone" stroke="none" stroke-width="1" fill="none" fill-rule="evenodd">
        <path d="M12.8922279,2.39158026 C13.2420997,2.16951708 13.6950341,2.24533 13.9605072,2.57039066 L13.9605072,2.57039066 L16.2103933,5.32545961 C16.2389176,5.36009983 16.2770586,5.38466586 16.3195545,5.39576856 L16.3195545,5.39576856 L19.6927172,6.25249605 C20.0905143,6.35347379 20.3589503,6.74052801 20.3260185,7.1656443 L20.3260185,7.1656443 L20.0476992,10.7713647 C20.0442014,10.8165919 20.0544012,10.8618235 20.0768644,10.9006984 L20.0768644,10.9006984 L21.8792732,13.9916879 C22.0910079,14.3555571 22.0183206,14.8256575 21.7076152,15.1018748 L21.7076152,15.1018748 L19.0635823,17.4455062 C19.0300683,17.4749868 19.006429,17.5148112 18.9960858,17.5592157 L18.9960858,17.5592157 L18.1727941,21.0737949 C18.0815382,21.4617237 17.7479307,21.7347143 17.3645016,21.7352197 L17.3645016,21.7352197 L17.2961718,21.7352197 L13.4996971,21.4175275 C13.0408638,21.3791763 12.698752,20.9606304 12.7355691,20.4826789 C12.7723863,20.0047275 13.1741904,19.6483611 13.6330237,19.6867123 L13.6330237,19.6867123 L16.5453764,19.9306235 C16.6474043,19.9391995 16.7402973,19.8692943 16.764532,19.7657013 L16.764532,19.7657013 L17.4569969,16.8092537 C17.4984114,16.6316192 17.5926054,16.4721383 17.72615,16.3535475 L17.72615,16.3535475 L19.9518707,14.3892372 C20.0291606,14.3199003 20.0474384,14.2027354 19.9952019,14.1114735 L19.9952019,14.1114735 L18.4777786,11.5074385 C18.3866597,11.351152 18.3452481,11.168883 18.3594513,10.9866316 L18.3594513,10.9866316 L18.5936061,7.9485908 C18.6018391,7.84231173 18.5347301,7.74554817 18.4352808,7.72030374 L18.4352808,7.72030374 L15.5962577,6.99898606 C15.4260301,6.9556783 15.2732411,6.85757307 15.1596132,6.7186183 L15.1596132,6.7186183 L13.2738752,4.40449926 C13.207855,4.32298457 13.0946236,4.3038178 13.0072221,4.35936265 L13.0072221,4.35936265 L10.5073485,5.93914385 C10.3568983,6.03306296 10.1823181,6.07640493 10.0073738,6.06326951 L10.0073738,6.06326951 L7.0908547,5.81935824 C6.98907616,5.81069997 6.89627692,5.88016708 6.87169912,5.98341244 L6.87169912,5.98341244 L6.17923415,8.94072811 C6.07016343,9.40669479 5.61911313,9.692332 5.17178511,9.57871667 C4.7244571,9.46510133 4.45024538,8.99525728 4.5593161,8.52929059 L4.5593161,8.52929059 L5.46260373,4.66924281 C5.56694099,4.26011233 5.93356732,3.98421324 6.33922605,4.00955396 L6.33922605,4.00955396 L9.80071761,4.29946985 C9.84442163,4.30341909 9.88819833,4.29277892 9.92571128,4.26908944 L9.92571128,4.26908944 Z M9.12491846,8.22288248 C9.41255222,8.0239358 9.80055247,8.10554643 9.99154129,8.40516493 L9.99154129,8.40516493 L15.3071057,16.7441528 C15.4977204,17.0438475 15.4194319,17.4477167 15.1321146,17.6468849 C15.0299921,17.7178834 14.9099104,17.7556507 14.787132,17.7553864 C14.5775053,17.7554469 14.3817342,17.646316 14.2654917,17.4646025 L14.2654917,17.4646025 L14.200495,17.3630451 C14.1516418,17.2897698 14.064588,17.2552904 13.9813394,17.2762439 L13.9813394,17.2762439 L10.4031871,18.1130071 C10.3454317,18.1262475 10.2958443,18.1645303 10.2668816,18.2182385 C10.237919,18.2719467 10.2323334,18.3359764 10.2515281,18.3942429 C10.6493424,19.5830925 10.133098,20.894257 9.04847492,21.4497737 C7.96385185,22.0052903 6.6518146,21.6305257 5.99091034,20.5764242 L5.99091034,20.5764242 L5.49093563,19.7865336 C5.44010023,19.707099 5.34525604,19.6718147 5.2576141,19.6997324 L5.2576141,19.6997324 L3.37687592,20.2856403 L3.30131397,20.3015753 C3.14966855,20.3185523 2.99842137,20.2474854 2.91106615,20.112038 L2.91106615,20.112038 L2.07110864,18.7943963 C1.96746854,18.6341579 1.97799909,18.4218485 2.09694067,18.2735893 L2.09694067,18.2735893 L8.99659162,9.47802732 C9.05620851,9.40391097 9.06131311,9.29756512 9.00909099,9.21762382 L9.00909099,9.21762382 L8.94992731,9.12561459 C8.7589385,8.82599609 8.8372847,8.42182916 9.12491846,8.22288248 Z M8.8504733,18.589402 L8.78993541,18.5982257 L6.92919621,19.1797935 C6.86608461,19.1997169 6.81568968,19.2494783 6.7932189,19.3140613 C6.77074811,19.3786443 6.77883355,19.4504841 6.81503532,19.5079019 L6.81503532,19.5079019 L7.03835735,19.8551065 C7.38835966,20.4042325 8.0994319,20.5538493 8.62661034,20.189291 C9.08807437,19.8681122 9.26221039,19.248601 9.03992276,18.7188793 C8.99738577,18.619096 8.89051551,18.5675163 8.78993541,18.5982257 Z" id="ðŸ–-Color" fill="#5A5A5A"></path>
        <rect id="_Transparent_Rectangle_" x="0" y="0" width="24" height="24"></rect>
    </g>
</svg>