<?xml version="1.0" encoding="UTF-8"?>
<svg width="24px" height="24px" viewBox="0 0 24 24" version="1.1" xmlns="http://www.w3.org/2000/svg" xmlns:xlink="http://www.w3.org/1999/xlink">
    <title>7. Business and Products/analytics_pie_2</title>
    <g id="7.-Business-and-Products/analytics_pie_2" stroke="none" stroke-width="1" fill="none" fill-rule="evenodd">
        <path d="M10.7335575,4.49248089 C10.9636744,4.49248089 11.150221,4.67902748 11.150221,4.90914436 L11.150221,4.90914436 L11.150221,12.8257503 C11.1641381,12.9789171 11.2242984,13.1242318 11.3227197,13.2424138 L11.3227197,13.2424138 L16.9210101,18.8407042 C17.083668,19.0034112 17.083668,19.2671593 16.9210101,19.4298663 C15.3084545,21.0693925 13.1065332,21.9949377 10.8068903,21.9999238 C7.67950059,22.0129463 4.78268472,20.3566084 3.20764522,17.6547593 C1.63260572,14.9529102 1.61862857,11.616025 3.17097883,8.90107629 C4.72332909,6.18612754 7.60616782,4.50558046 10.7335575,4.49248089 Z M13.556247,11.9957949 L13.6502018,11.9999233 L21.5668078,11.9999233 C21.7969247,11.9999233 21.9835038,12.1864699 21.9835038,12.4165868 C21.9898188,14.738502 21.0671196,16.966483 19.4209909,18.6040393 C19.2582839,18.7666972 18.9945358,18.7666972 18.8318288,18.6040393 L18.8318288,18.6040393 L13.2335384,13.0057489 C13.0322409,12.8500064 12.9601477,12.578768 13.0575526,12.3436325 C13.1549575,12.108497 13.3977384,11.9676953 13.6502018,11.9999233 Z M13.2335384,2 C17.8335917,2.00551015 21.5612977,5.73321612 21.5668078,10.3332694 C21.5668078,10.5633863 21.3802612,10.7499329 21.1501443,10.7499329 L21.1501443,10.7499329 L13.6293687,10.7507662 C13.1806964,10.749848 12.8173332,10.3861121 12.8168749,9.93743914 L12.8168749,9.93743914 L12.8168749,2.41666347 C12.8168749,2.18654659 13.0034215,2 13.2335384,2 Z" id="ðŸ–-Color" fill="#5A5A5A"></path>
        <rect id="_Transparent_Rectangle_" x="0" y="0" width="24" height="24"></rect>
    </g>
</svg>