<?xml version="1.0" encoding="UTF-8"?>
<svg width="24px" height="24px" viewBox="0 0 24 24" version="1.1" xmlns="http://www.w3.org/2000/svg" xmlns:xlink="http://www.w3.org/1999/xlink">
    <title>7. Business and Products/analytics_pie_1</title>
    <g id="7.-Business-and-Products/analytics_pie_1" stroke="none" stroke-width="1" fill="none" fill-rule="evenodd">
        <path d="M10.75,4.5 C10.9801186,4.5 11.1666667,4.68654802 11.1666667,4.91666667 L11.1666667,4.91666667 L11.1666667,12.4166667 C11.1666667,12.6467853 11.3532147,12.8333333 11.5833333,12.8333333 L11.5833333,12.8333333 L19.0833333,12.8333333 C19.313452,12.8333333 19.5,13.0198814 19.5,13.25 C19.4944892,18.0802071 15.5802071,21.9944892 10.75,22 C5.91750844,22 2,18.0824916 2,13.25 C2,8.41750844 5.91750844,4.5 10.75,4.5 Z M13.25,2 C18.0802071,2.00551079 21.9944892,5.91979293 22,10.75 C22,10.9801186 21.813452,11.1666667 21.5833333,11.1666667 L21.5833333,11.1666667 L13.6666667,11.1666667 C13.2064294,11.1666667 12.8333333,10.7935706 12.8333333,10.3333333 L12.8333333,10.3333333 L12.8333333,2.41666667 C12.8333333,2.18654802 13.0198814,2 13.25,2 Z" id="ðŸ–-Color" fill="#5A5A5A"></path>
        <rect id="_Transparent_Rectangle_" x="0" y="0" width="24" height="24"></rect>
    </g>
</svg>