<svg width="24" height="24" viewBox="0 0 24 24" fill="none" xmlns="http://www.w3.org/2000/svg">
<g id="analytics_bars_3d">
<path id="Shape" fill-rule="evenodd" clip-rule="evenodd" d="M20.5431 4.14183L17.4293 6.14135C17.2844 6.234 17.0959 6.234 16.951 6.14135L13.8371 4.14183C13.8036 4.12069 13.7834 4.08464 13.7835 4.04602C13.7833 4.00715 13.8034 3.97079 13.8371 3.94938L16.65 2.14315C16.9825 1.95228 17.3969 1.95228 17.7294 2.14315L20.5431 3.94938C20.5768 3.97079 20.597 4.00715 20.5967 4.04602C20.5968 4.08464 20.5767 4.12069 20.5431 4.14183ZM13.3337 4.86249C13.3112 4.87379 13.2971 4.89633 13.2974 4.92081V18.9691C13.3201 19.3551 13.5139 19.7131 13.8294 19.9522L16.6577 21.8525C16.983 22.0492 17.3964 22.0492 17.7216 21.8525L20.55 19.9522C20.8655 19.7131 21.0592 19.3551 21.082 18.9691V4.91831C21.0817 4.89392 21.0677 4.87161 21.0453 4.86015C21.0229 4.84869 20.9959 4.84991 20.9747 4.86332L17.9093 6.83451C17.4735 7.11433 16.9058 7.11433 16.4701 6.83451L13.4047 4.86582C13.3836 4.85185 13.3561 4.85056 13.3337 4.86249ZM10.1637 11.0152L7.04985 13.0147C6.90492 13.1073 6.71646 13.1073 6.57153 13.0147L3.4577 11.0152C3.42415 10.994 3.40397 10.958 3.40408 10.9194C3.40384 10.8805 3.42401 10.8441 3.4577 10.8227L6.27053 9.01649C6.60307 8.82562 7.01745 8.82562 7.34999 9.01649L10.1637 10.8227C10.1974 10.8441 10.2175 10.8805 10.2173 10.9194C10.2174 10.958 10.1972 10.994 10.1637 11.0152ZM2.91797 11.7941C2.91771 11.7697 2.93175 11.7471 2.9543 11.7358C2.97669 11.7239 3.00415 11.7252 3.02523 11.7392L6.09062 13.7079C6.5264 13.9877 7.09411 13.9877 7.5299 13.7079L10.5953 11.7392C10.6164 11.7257 10.6435 11.7245 10.6659 11.736C10.6882 11.7474 10.7023 11.7698 10.7025 11.7941V18.9691C10.6798 19.3551 10.4861 19.7131 10.1706 19.9522L7.34221 21.8525C7.01695 22.0492 6.60357 22.0492 6.27831 21.8525L3.44992 19.9522C3.13444 19.7131 2.94071 19.3551 2.91797 18.9691V11.7941Z" fill="#5A5A5A"/>
</g>
</svg>
