<svg width="24" height="24" viewBox="0 0 24 24" fill="none" xmlns="http://www.w3.org/2000/svg">
<g id="analytics_pie_1">
<path id="Shape" fill-rule="evenodd" clip-rule="evenodd" d="M12.8333 2.41667C12.8333 2.18655 13.0199 2 13.25 2C18.0802 2.00551 21.9945 5.91979 22 10.75C22 10.9801 21.8135 11.1667 21.5833 11.1667H13.6667C13.2064 11.1667 12.8333 10.7936 12.8333 10.3333V2.41667ZM19.5 13.25C19.4945 18.0802 15.5802 21.9945 10.75 22C5.91751 22 2 18.0825 2 13.25C2 8.41751 5.91751 4.5 10.75 4.5C10.9801 4.5 11.1667 4.68655 11.1667 4.91667V12.4167C11.1667 12.6468 11.3532 12.8333 11.5833 12.8333H19.0833C19.3135 12.8333 19.5 13.0199 19.5 13.25Z" fill="#5A5A5A"/>
</g>
</svg>
