<svg width="24" height="24" viewBox="0 0 24 24" fill="none" xmlns="http://www.w3.org/2000/svg">
<g id="analytics_board_graph_line">
<path id="Shape" fill-rule="evenodd" clip-rule="evenodd" d="M3.25 19.5H20.75C21.4404 19.5 22 18.9404 22 18.25V5.75C22 5.05964 21.4404 4.5 20.75 4.5H3.25C2.55964 4.5 2 5.05964 2 5.75V18.25C2 18.9404 2.55964 19.5 3.25 19.5ZM4.2025 15.27L6.345 11.6992C6.57085 11.3225 6.97785 11.0919 7.41708 11.0919C7.85631 11.0919 8.26331 11.3225 8.48917 11.6992L9.87667 14.0108C9.9121 14.0698 9.97459 14.1073 10.0433 14.1108C10.1106 14.1167 10.1764 14.0889 10.2192 14.0367L11.045 13.0475C11.2893 12.7755 11.6377 12.6202 12.0033 12.6202C12.3689 12.6202 12.7173 12.7755 12.9617 13.0475L13.9567 14.2392L17.595 7.87167C17.7388 7.60561 18.0154 7.43834 18.3178 7.43461C18.6202 7.43088 18.9009 7.59127 19.0512 7.85369C19.2015 8.11612 19.1979 8.43938 19.0417 8.69833L15.105 15.5917C14.9014 15.9474 14.5364 16.1807 14.1281 16.2161C13.7198 16.2515 13.3201 16.0845 13.0583 15.7692L12.16 14.6925C12.1201 14.6456 12.0616 14.6185 12 14.6185C11.9384 14.6185 11.8799 14.6456 11.84 14.6925L10.9317 15.7817C10.6724 16.0928 10.2785 16.2591 9.87474 16.2278C9.47097 16.1965 9.10738 15.9715 8.89917 15.6242L7.595 13.4492C7.55728 13.3867 7.48963 13.3485 7.41667 13.3485C7.3437 13.3485 7.27605 13.3867 7.23833 13.4492L5.63083 16.1275C5.48223 16.3921 5.20153 16.555 4.89805 16.5528C4.59458 16.5505 4.31632 16.3835 4.17166 16.1167C4.027 15.8499 4.03881 15.5256 4.2025 15.27Z" fill="#5A5A5A"/>
</g>
</svg>
