<?xml version="1.0" encoding="UTF-8"?>
<svg width="24px" height="24px" viewBox="0 0 24 24" version="1.1" xmlns="http://www.w3.org/2000/svg" xmlns:xlink="http://www.w3.org/1999/xlink">
    <title>7. Business and Products/analytics_board_graph_line</title>
    <g id="7.-Business-and-Products/analytics_board_graph_line" stroke="none" stroke-width="1" fill="none" fill-rule="evenodd">
        <path d="M3.25,19.5 L20.75,19.5 C21.4403559,19.5 22,18.9403559 22,18.25 L22,5.75 C22,5.05964406 21.4403559,4.5 20.75,4.5 L3.25,4.5 C2.55964406,4.5 2,5.05964406 2,5.75 L2,18.25 C2,18.9403559 2.55964406,19.5 3.25,19.5 Z M4.2025,15.27 L6.345,11.6991667 C6.57085426,11.3224545 6.97785425,11.0919243 7.41708333,11.0919243 C7.85631241,11.0919243 8.2633124,11.3224545 8.48916667,11.6991667 L9.87666667,14.0108333 C9.91210324,14.0698412 9.97459153,14.1073342 10.0433333,14.1108333 C10.1106029,14.1167097 10.1764268,14.0889451 10.2191667,14.0366667 L11.045,13.0475 C11.2893466,12.7755453 11.6377316,12.6202125 12.0033333,12.6202125 C12.368935,12.6202125 12.7173201,12.7755453 12.9616667,13.0475 L13.9566667,14.2391667 L17.595,7.87166667 C17.7387884,7.60561223 18.0154324,7.43834041 18.317833,7.4345444 C18.6202336,7.43087588 18.9009217,7.59126903 19.0512326,7.85369365 C19.2015436,8.11611828 19.1978825,8.43938028 19.0416667,8.69833333 L15.105,15.5916667 C14.9014243,15.9473598 14.53642,16.180667 14.1281226,16.2160772 C13.7198251,16.2514873 13.3201049,16.0845019 13.0583333,15.7691667 L12.16,14.6925 C12.1201001,14.645564 12.0616035,14.6185147 12,14.6185147 C11.9383965,14.6185147 11.8798999,14.645564 11.84,14.6925 L10.9316667,15.7816667 C10.6724297,16.092808 10.2785185,16.2590752 9.8747441,16.2277864 C9.47096974,16.1964976 9.10737556,15.9715307 8.89916667,15.6241667 L7.595,13.4491667 C7.55727895,13.3867088 7.48963149,13.3485366 7.41666667,13.3485366 C7.34370184,13.3485366 7.27605438,13.3867088 7.23833333,13.4491667 L5.63083333,16.1275 C5.482235,16.3921158 5.20152974,16.5550262 4.89805335,16.5527999 C4.59457695,16.5505277 4.31631726,16.3834744 4.1716575,16.1166851 C4.02699775,15.8498958 4.03881255,15.525557 4.2025,15.27 Z" id="ðŸ–-Color" fill="#5A5A5A"></path>
        <rect id="_Transparent_Rectangle_" x="0" y="0" width="24" height="24"></rect>
    </g>
</svg>