<?xml version="1.0" encoding="UTF-8"?>
<svg width="24px" height="24px" viewBox="0 0 24 24" version="1.1" xmlns="http://www.w3.org/2000/svg" xmlns:xlink="http://www.w3.org/1999/xlink">
    <title>7. Business and Products/analytics_bars_3d</title>
    <g id="7.-Business-and-Products/analytics_bars_3d" stroke="none" stroke-width="1" fill="none" fill-rule="evenodd">
        <path d="M10.6423611,11.7287339 L10.6658936,11.7359865 C10.6882486,11.7474473 10.7023179,11.7697554 10.7025745,11.7941468 L10.7025745,11.7941468 L10.7025745,18.969077 C10.6798348,19.3550913 10.4861092,19.7131178 10.1706286,19.9521725 L10.1706286,19.9521725 L7.34223319,21.8525459 C7.01697315,22.0491514 6.6036014,22.0491514 6.27834136,21.8525459 L6.27834136,21.8525459 L3.44994599,19.9521725 C3.13446537,19.7131178 2.94073974,19.3550913 2.91799649,18.969077 L2.91799649,18.969077 L2.91799649,11.7941468 C2.9177386,11.769668 2.93178116,11.7471248 2.95432809,11.7358276 C2.97671365,11.7238948 3.0041807,11.7251854 3.02525421,11.7391601 L3.02525421,11.7391601 L6.09064662,13.7078503 C6.52643233,13.9876615 7.09414222,13.9876615 7.52992793,13.7078503 L7.52992793,13.7078503 L10.5953203,11.7391601 C10.6164695,11.7257429 10.6435386,11.7245256 10.6658936,11.7359865 Z M21.0217936,4.85289794 L21.0453261,4.86015047 C21.0676811,4.87161134 21.0817504,4.89391937 21.082007,4.91831079 L21.082007,4.91831079 L21.082007,18.969077 C21.0592673,19.3550913 20.8655417,19.7131178 20.5500611,19.9521725 L20.5500611,19.9521725 L17.7216657,21.8525459 C17.3964057,22.0491514 16.9830339,22.0491514 16.6577739,21.8525459 L16.6577739,21.8525459 L13.8293785,19.9521725 C13.5138979,19.7131178 13.3201723,19.3550913 13.297429,18.969077 L13.297429,18.969077 L13.297429,4.92081018 C13.2971711,4.89633141 13.3112137,4.87378816 13.3337606,4.86249096 C13.3561462,4.85055822 13.3836132,4.85184878 13.4046867,4.86582349 L13.4046867,4.86582349 L16.4700792,6.83451372 C16.9058649,7.11432492 17.4735748,7.11432492 17.9093605,6.83451372 L17.9093605,6.83451372 L20.9747529,4.8633241 C20.995902,4.84990688 21.0229711,4.8486896 21.0453261,4.86015047 Z M6.27055678,9.01648566 C6.60309574,8.82562024 7.01747881,8.82562024 7.35001777,9.01648566 L7.35001777,9.01648566 L10.1637089,10.8227152 C10.1973984,10.8441247 10.2175734,10.8804828 10.2173381,10.9193585 C10.2174391,10.9579772 10.1972612,10.9940271 10.1637089,11.0151686 L10.1637089,11.0151686 L7.04987918,13.0146847 C6.9049485,13.1073394 6.716491,13.1073394 6.57156033,13.0146847 L6.57156033,13.0146847 L3.45773057,11.0151686 C3.42417826,10.9940271 3.40400036,10.9579772 3.40410143,10.9193585 C3.40386612,10.8804828 3.42404114,10.8441247 3.45773057,10.8227152 L3.45773057,10.8227152 Z M16.6499893,2.14314907 C16.9825283,1.95228364 17.3969113,1.95228364 17.7294503,2.14314907 L17.7294503,2.14314907 L20.5431415,3.94937861 C20.5768309,3.9707881 20.5970059,4.00714622 20.5967706,4.04602189 C20.5968717,4.08464061 20.5766938,4.12069046 20.5431415,4.14183204 L20.5431415,4.14183204 L17.4293117,6.14134814 C17.284381,6.2340028 17.0959235,6.2340028 16.9509929,6.14134814 L16.9509929,6.14134814 L13.8371631,4.14183204 C13.8036108,4.12069046 13.7834329,4.08464061 13.783534,4.04602189 C13.7832987,4.00714622 13.8034737,3.9707881 13.8371631,3.94937861 L13.8371631,3.94937861 Z" id="ðŸ–-Color" fill="#5A5A5A"></path>
        <rect id="_Transparent_Rectangle_" x="0" y="0" width="24" height="24"></rect>
    </g>
</svg>