<svg width="24" height="24" viewBox="0 0 24 24" fill="none" xmlns="http://www.w3.org/2000/svg">
<g id="analytics_pie_2">
<path id="Shape" fill-rule="evenodd" clip-rule="evenodd" d="M21.1503 10.7499C21.3804 10.7499 21.5669 10.5634 21.5669 10.3333C21.5614 5.73322 17.8337 2.00551 13.2337 2C13.0036 2 12.817 2.18655 12.817 2.41666V9.93744C12.8175 10.3861 13.1808 10.7498 13.6295 10.7508L21.1503 10.7499ZM21.5669 11.9999H13.6503C13.3979 11.9677 13.1551 12.1085 13.0577 12.3436C12.9603 12.5788 13.0324 12.85 13.2337 13.0057L18.832 18.604C18.9947 18.7667 19.2584 18.7667 19.4211 18.604C21.0673 16.9665 21.99 14.7385 21.9836 12.4166C21.9836 12.1865 21.7971 11.9999 21.5669 11.9999ZM16.9211 19.4299C15.3086 21.0694 13.1067 21.9949 10.807 21.9998C7.67964 22.0129 4.78282 20.3566 3.20778 17.6548C1.63274 14.9529 1.61877 11.616 3.17112 8.90108C4.72347 6.18613 7.60631 4.50558 10.7337 4.49248C10.9638 4.49248 11.1504 4.67903 11.1504 4.90914V12.8258C11.1643 12.9789 11.2244 13.1242 11.3229 13.2424L16.9211 18.8407C17.0838 19.0034 17.0838 19.2672 16.9211 19.4299Z" fill="#5A5A5A"/>
</g>
</svg>
