<svg width="24" height="24" viewBox="0 0 24 24" fill="none" xmlns="http://www.w3.org/2000/svg">
<g id="analytics_board_bars">
<path id="Shape" fill-rule="evenodd" clip-rule="evenodd" d="M3.25 19.5H20.75C21.4404 19.5 22 18.9404 22 18.25V5.75C22 5.05964 21.4404 4.5 20.75 4.5H3.25C2.55964 4.5 2 5.05964 2 5.75V18.25C2 18.9404 2.55964 19.5 3.25 19.5ZM17 12C17 11.5398 17.3731 11.1667 17.8333 11.1667C18.2936 11.1667 18.6667 11.5398 18.6667 12V15.75C18.6667 16.2102 18.2936 16.5833 17.8333 16.5833C17.3731 16.5833 17 16.2102 17 15.75V12ZM12.8333 8.25C12.8333 7.78976 13.2064 7.41667 13.6667 7.41667C14.1269 7.41667 14.5 7.78976 14.5 8.25V15.75C14.5 16.2102 14.1269 16.5833 13.6667 16.5833C13.2064 16.5833 12.8333 16.2102 12.8333 15.75V8.25ZM9.08333 13.25C9.08333 12.7898 9.45643 12.4167 9.91667 12.4167C10.3769 12.4167 10.75 12.7898 10.75 13.25V15.75C10.75 16.2102 10.3769 16.5833 9.91667 16.5833C9.45643 16.5833 9.08333 16.2102 9.08333 15.75V13.25ZM5.33333 11.5833C5.33333 11.1231 5.70643 10.75 6.16667 10.75C6.6269 10.75 7 11.1231 7 11.5833V15.75C7 16.2102 6.6269 16.5833 6.16667 16.5833C5.70643 16.5833 5.33333 16.2102 5.33333 15.75V11.5833Z" fill="#5A5A5A"/>
</g>
</svg>
