<svg width="24" height="24" viewBox="0 0 24 24" fill="none" xmlns="http://www.w3.org/2000/svg">
<g id="analytics_bars_horizontal">
<path id="Shape" fill-rule="evenodd" clip-rule="evenodd" d="M4.08333 20.3333H21.1667C21.6269 20.3333 22 20.7064 22 21.1667C22 21.6269 21.6269 22 21.1667 22H3.2325C2.55232 21.9995 2.00092 21.4485 2 20.7683V2.83333C2 2.3731 2.3731 2 2.83333 2C3.29357 2 3.66667 2.3731 3.66667 2.83333V19.9167C3.66667 20.1468 3.85321 20.3333 4.08333 20.3333ZM19.5 18.6667H6.58333C5.92245 18.6935 5.36396 18.1816 5.33333 17.5208V16.0625C5.36396 15.4018 5.92245 14.8898 6.58333 14.9167H19.5C20.1609 14.8898 20.7194 15.4018 20.75 16.0625V17.5208C20.7194 18.1816 20.1609 18.6935 19.5 18.6667ZM5.33333 11.6875C5.36396 12.3482 5.92245 12.8602 6.58333 12.8333H14.5C15.1609 12.8602 15.7194 12.3482 15.75 11.6875V10.2292C15.7194 9.56844 15.1609 9.0565 14.5 9.08333H6.58333C5.92245 9.0565 5.36396 9.56844 5.33333 10.2292V11.6875ZM10.3333 7H6.58333C5.92245 7.02684 5.36396 6.51489 5.33333 5.85417V4.39583C5.36396 3.73511 5.92245 3.22316 6.58333 3.25H10.3333C10.9942 3.22316 11.5527 3.73511 11.5833 4.39583V5.85417C11.5527 6.51489 10.9942 7.02684 10.3333 7Z" fill="#5A5A5A"/>
</g>
</svg>
