<?xml version="1.0" encoding="UTF-8"?>
<svg width="24px" height="24px" viewBox="0 0 24 24" version="1.1" xmlns="http://www.w3.org/2000/svg" xmlns:xlink="http://www.w3.org/1999/xlink">
    <title>7. Business and Products/analytics_board_bars</title>
    <g id="7.-Business-and-Products/analytics_board_bars" stroke="none" stroke-width="1" fill="none" fill-rule="evenodd">
        <path d="M3.25,19.5 L20.75,19.5 C21.4403559,19.5 22,18.9403559 22,18.25 L22,5.75 C22,5.05964406 21.4403559,4.5 20.75,4.5 L3.25,4.5 C2.55964406,4.5 2,5.05964406 2,5.75 L2,18.25 C2,18.9403559 2.55964406,19.5 3.25,19.5 Z M17,12 C17,11.5397627 17.373096,11.1666667 17.8333333,11.1666667 C18.2935706,11.1666667 18.6666667,11.5397627 18.6666667,12 L18.6666667,15.75 C18.6666667,16.2102373 18.2935706,16.5833333 17.8333333,16.5833333 C17.373096,16.5833333 17,16.2102373 17,15.75 L17,12 Z M12.8333333,8.25 C12.8333333,7.78976271 13.2064294,7.41666667 13.6666667,7.41666667 C14.126904,7.41666667 14.5,7.78976271 14.5,8.25 L14.5,15.75 C14.5,16.2102373 14.126904,16.5833333 13.6666667,16.5833333 C13.2064294,16.5833333 12.8333333,16.2102373 12.8333333,15.75 L12.8333333,8.25 Z M9.08333333,13.25 C9.08333333,12.7897627 9.45642938,12.4166667 9.91666667,12.4166667 C10.376904,12.4166667 10.75,12.7897627 10.75,13.25 L10.75,15.75 C10.75,16.2102373 10.376904,16.5833333 9.91666667,16.5833333 C9.45642938,16.5833333 9.08333333,16.2102373 9.08333333,15.75 L9.08333333,13.25 Z M5.33333333,11.5833333 C5.33333333,11.123096 5.70642938,10.75 6.16666667,10.75 C6.62690396,10.75 7,11.123096 7,11.5833333 L7,15.75 C7,16.2102373 6.62690396,16.5833333 6.16666667,16.5833333 C5.70642938,16.5833333 5.33333333,16.2102373 5.33333333,15.75 L5.33333333,11.5833333 Z" id="ðŸ–-Color" fill="#5A5A5A"></path>
        <rect id="_Transparent_Rectangle_" x="0" y="0" width="24" height="24"></rect>
    </g>
</svg>