<?xml version="1.0" encoding="UTF-8"?>
<svg width="24px" height="24px" viewBox="0 0 24 24" version="1.1" xmlns="http://www.w3.org/2000/svg" xmlns:xlink="http://www.w3.org/1999/xlink">
    <title>7. Business and Products/analytics_bars_horizontal</title>
    <g id="7.-Business-and-Products/analytics_bars_horizontal" stroke="none" stroke-width="1" fill="none" fill-rule="evenodd">
        <path d="M2.83333333,2 C3.29357062,2 3.66666667,2.37309604 3.66666667,2.83333333 L3.66666667,2.83333333 L3.66666667,19.9166667 C3.66666667,20.1467853 3.85321469,20.3333333 4.08333333,20.3333333 L4.08333333,20.3333333 L21.1666667,20.3333333 C21.626904,20.3333333 22,20.7064294 22,21.1666667 C22,21.626904 21.626904,22 21.1666667,22 L21.1666667,22 L3.2325,22 C2.55232452,21.999541 2.000919,21.4485083 2,20.7683333 L2,20.7683333 L2,2.83333333 C2,2.37309604 2.37309604,2 2.83333333,2 Z M19.5,14.9166667 C20.1608873,14.8898301 20.7193753,15.4017774 20.75,16.0625 L20.75,16.0625 L20.75,17.5208333 C20.7193753,18.181556 20.1608873,18.6935033 19.5,18.6666667 L19.5,18.6666667 L6.58333333,18.6666667 C5.92244601,18.6935033 5.36395803,18.181556 5.33333333,17.5208333 L5.33333333,17.5208333 L5.33333333,16.0625 C5.36395803,15.4017774 5.92244601,14.8898301 6.58333333,14.9166667 L6.58333333,14.9166667 Z M14.5,9.08333333 C15.1608873,9.05649673 15.7193753,9.56844404 15.75,10.2291667 L15.75,10.2291667 L15.75,11.6875 C15.7193753,12.3482226 15.1608873,12.8601699 14.5,12.8333333 L14.5,12.8333333 L6.58333333,12.8333333 C5.92244601,12.8601699 5.36395803,12.3482226 5.33333333,11.6875 L5.33333333,11.6875 L5.33333333,10.2291667 C5.36395803,9.56844404 5.92244601,9.05649673 6.58333333,9.08333333 L6.58333333,9.08333333 Z M10.3333333,3.25 C10.9942207,3.2231634 11.5527086,3.73511071 11.5833333,4.39583333 L11.5833333,4.39583333 L11.5833333,5.85416667 C11.5527086,6.51488929 10.9942207,7.0268366 10.3333333,7 L10.3333333,7 L6.58333333,7 C5.92244601,7.0268366 5.36395803,6.51488929 5.33333333,5.85416667 L5.33333333,5.85416667 L5.33333333,4.39583333 C5.36395803,3.73511071 5.92244601,3.2231634 6.58333333,3.25 L6.58333333,3.25 Z" id="ðŸ–-Color" fill="#5A5A5A"></path>
        <rect id="_Transparent_Rectangle_" x="0" y="0" width="24" height="24"></rect>
    </g>
</svg>