<svg width="24" height="24" viewBox="0 0 24 24" fill="none" xmlns="http://www.w3.org/2000/svg">
<g id="briefcase">
<path id="Shape" fill-rule="evenodd" clip-rule="evenodd" d="M4.5 20.75H19.5C20.8807 20.75 22 19.6307 22 18.25V9.08333C22 7.70262 20.8807 6.58333 19.5 6.58333H16.25C16.145 6.5833 16.0564 6.50507 16.0433 6.40083L15.9233 5.44C15.7671 4.18979 14.7049 3.2512 13.445 3.25H10.555C9.29411 3.24994 8.23052 4.18884 8.07417 5.44L7.95417 6.40083C7.94127 6.50413 7.85409 6.58205 7.75 6.58333H4.5C3.11929 6.58333 2 7.70262 2 9.08333V18.25C2 19.6307 3.11929 20.75 4.5 20.75ZM9.7275 5.64667C9.77964 5.2294 10.1345 4.91636 10.555 4.91667H13.445C13.8655 4.91636 14.2204 5.2294 14.2725 5.64667L14.36 6.35C14.3672 6.40915 14.3486 6.46853 14.3091 6.51313C14.2696 6.55773 14.2129 6.58329 14.1533 6.58333H9.84667C9.78709 6.58329 9.73038 6.55773 9.69087 6.51313C9.65137 6.46853 9.63285 6.40915 9.64 6.35L9.7275 5.64667ZM6.375 11.1667C6.375 10.8215 6.65482 10.5417 7 10.5417H17C17.3452 10.5417 17.625 10.8215 17.625 11.1667V11.5833C17.625 11.9285 17.3452 12.2083 17 12.2083H7C6.65482 12.2083 6.375 11.9285 6.375 11.5833V11.1667ZM6.375 15.75C6.375 15.4048 6.65482 15.125 7 15.125H17C17.3452 15.125 17.625 15.4048 17.625 15.75V16.1667C17.625 16.5118 17.3452 16.7917 17 16.7917H7C6.65482 16.7917 6.375 16.5118 6.375 16.1667V15.75Z" fill="#5A5A5A"/>
</g>
</svg>
