<?xml version="1.0" encoding="UTF-8"?>
<svg width="24px" height="24px" viewBox="0 0 24 24" version="1.1" xmlns="http://www.w3.org/2000/svg" xmlns:xlink="http://www.w3.org/1999/xlink">
    <title>7. Business and Products/briefcase</title>
    <g id="7.-Business-and-Products/briefcase" stroke="none" stroke-width="1" fill="none" fill-rule="evenodd">
        <path d="M4.5,20.75 L19.5,20.75 C20.8807119,20.75 22,19.6307119 22,18.25 L22,9.08333333 C22,7.70262146 20.8807119,6.58333333 19.5,6.58333333 L16.25,6.58333333 C16.1449523,6.58330369 16.0563592,6.50507033 16.0433333,6.40083333 L15.9233333,5.44 C15.7671016,4.18978575 14.7049375,3.25119561 13.445,3.25 L10.555,3.25 C9.29410979,3.25 8.23051705,4.18884107 8.07416667,5.44 L7.95416667,6.40083333 C7.94126594,6.50413243 7.85409368,6.58205375 7.75,6.58333333 L4.5,6.58333333 C3.11928813,6.58333333 2,7.70262146 2,9.08333333 L2,18.25 C2,19.6307119 3.11928813,20.75 4.5,20.75 Z M9.7275,5.64666667 C9.77964295,5.22940354 10.1344916,4.91636485 10.555,4.91666645 L13.445,4.91666645 C13.8655084,4.91636485 14.2203571,5.22940354 14.2725,5.64666667 L14.36,6.35 C14.3671497,6.40915014 14.3486321,6.46853101 14.309128,6.51313241 C14.2696239,6.5577338 14.212914,6.58328723 14.1533333,6.58333333 L9.84666667,6.58333333 C9.787086,6.58328723 9.73037611,6.5577338 9.69087202,6.51313241 C9.65136792,6.46853101 9.6328503,6.40915014 9.64,6.35 L9.7275,5.64666667 Z M6.375,11.1666667 C6.375,10.8214887 6.65482203,10.5416667 7,10.5416667 L17,10.5416667 C17.345178,10.5416667 17.625,10.8214887 17.625,11.1666667 L17.625,11.5833333 C17.625,11.9285113 17.345178,12.2083333 17,12.2083333 L7,12.2083333 C6.65482203,12.2083333 6.375,11.9285113 6.375,11.5833333 L6.375,11.1666667 Z M6.375,15.75 C6.375,15.404822 6.65482203,15.125 7,15.125 L17,15.125 C17.345178,15.125 17.625,15.404822 17.625,15.75 L17.625,16.1666667 C17.625,16.5118446 17.345178,16.7916667 17,16.7916667 L7,16.7916667 C6.65482203,16.7916667 6.375,16.5118446 6.375,16.1666667 L6.375,15.75 Z" id="ðŸ–-Color" fill="#5A5A5A"></path>
        <rect id="_Transparent_Rectangle_" x="0" y="0" width="24" height="24"></rect>
    </g>
</svg>