<svg width="24" height="24" viewBox="0 0 24 24" fill="none" xmlns="http://www.w3.org/2000/svg">
<g id="business_deal_handshake_1">
<path id="Shape" fill-rule="evenodd" clip-rule="evenodd" d="M4.2225 15.5418H2.83333C2.3731 15.5418 2 15.1687 2 14.7085V7.62512C2 7.16488 2.3731 6.79178 2.83333 6.79178H4.22167C4.97306 6.80954 5.60433 7.3619 5.72167 8.10428C5.74045 8.20571 5.74993 8.30864 5.75 8.41178V8.68345C5.75003 8.7526 5.78438 8.81723 5.84167 8.85595C5.89913 8.89412 5.97158 8.90189 6.03583 8.87678L8.915 7.72928C9.13679 7.6421 9.37726 7.61341 9.61333 7.64595C9.68913 7.6568 9.75294 7.70819 9.77969 7.77993C9.80644 7.85167 9.79186 7.9323 9.74167 7.99012C9.32289 8.46699 9.27579 9.1654 9.62675 9.69418C9.97771 10.223 10.6396 10.4508 11.2417 10.2501L12.5417 9.82095C12.6252 9.79331 12.7172 9.82096 12.7717 9.89012L15.1667 12.9551C15.2743 13.0997 15.3327 13.2749 15.3333 13.4551C15.3333 13.9154 14.9602 14.2885 14.5 14.2885H14.3425C14.2872 14.2886 14.2341 14.2667 14.195 14.2276L13.1283 13.1601C12.9654 12.9972 12.7013 12.9972 12.5383 13.1601C12.3754 13.323 12.3754 13.5872 12.5383 13.7501L13.5725 14.7868C13.6268 14.8411 13.6467 14.9209 13.6242 14.9943C13.544 15.2614 13.3553 15.4826 13.104 15.6037C12.8528 15.7248 12.5622 15.7347 12.3033 15.631L12.2342 15.6035L11.4617 14.8301C11.2987 14.6672 11.0346 14.6672 10.8717 14.8301C10.7087 14.993 10.7087 15.2572 10.8717 15.4201L11.5225 16.0701C11.5616 16.1092 11.5835 16.1623 11.5833 16.2176V16.4826C11.5832 16.7874 11.3927 17.0597 11.1064 17.1642C10.82 17.2687 10.4989 17.1832 10.3025 16.9501L7.31083 13.5976C7.23178 13.5091 7.1187 13.4584 7 13.4585H5.95833C5.84327 13.4585 5.75 13.5517 5.75 13.6668V13.9218C5.75006 14.0462 5.73637 14.1703 5.70917 14.2918C5.56821 15.0056 4.94993 15.5255 4.2225 15.5418ZM13.805 9.40595L14.2133 9.27178C14.4322 9.19999 14.5514 8.96438 14.4796 8.74553C14.4078 8.52669 14.1722 8.40749 13.9533 8.47928L10.9808 9.45512C10.6969 9.54634 10.3906 9.40401 10.2772 9.1282C10.1638 8.8524 10.2815 8.53577 10.5475 8.40095L13.4267 6.96095C13.8212 6.76661 14.2776 6.74045 14.6917 6.88845L18.0375 8.10512C18.0924 8.12458 18.1529 8.12037 18.2045 8.09352C18.2562 8.06666 18.2944 8.01955 18.31 7.96345C18.3635 7.76539 18.4537 7.57911 18.5758 7.41428C18.8542 7.02698 19.3006 6.79573 19.7775 6.79178H21.1667C21.6269 6.79178 22 7.16488 22 7.62512V14.7085C22 15.1687 21.6269 15.5418 21.1667 15.5418H19.7792C19.1095 15.5288 18.5249 15.0845 18.3333 14.4426C18.2787 14.2744 18.2506 14.0987 18.25 13.9218V13.861C18.2501 13.7987 18.2223 13.7396 18.1742 13.7001C18.1261 13.6611 18.0634 13.645 18.0025 13.656L16.39 13.9626C16.3233 13.9754 16.2546 13.9549 16.2058 13.9076C16.1572 13.8599 16.1346 13.7916 16.145 13.7243C16.1594 13.6364 16.1667 13.5475 16.1667 13.4585C16.1663 13.0961 16.0495 12.7435 15.8333 12.4526L13.7025 9.73095C13.6604 9.67785 13.647 9.60747 13.6667 9.54262C13.6874 9.47702 13.7392 9.42587 13.805 9.40595Z" fill="#5A5A5A"/>
</g>
</svg>
