<?xml version="1.0" encoding="UTF-8"?>
<svg width="24px" height="24px" viewBox="0 0 24 24" version="1.1" xmlns="http://www.w3.org/2000/svg" xmlns:xlink="http://www.w3.org/1999/xlink">
    <title>7. Business and Products/business_scale</title>
    <g id="7.-Business-and-Products/business_scale" stroke="none" stroke-width="1" fill="none" fill-rule="evenodd">
        <path d="M12.0040764,21.9999934 C12.7147351,21.9999934 13.2908378,21.4450716 13.2908378,20.7605575 L13.2908378,18.9014241 C13.2908378,18.7873384 13.3868549,18.6948537 13.505298,18.6948537 L15.5641162,18.6948537 C16.1928335,18.6946422 16.7293341,18.2568435 16.8328629,17.6595229 L18.4318783,8.38368643 C18.43272,8.3721327 18.43272,8.36053634 18.4318783,8.34898261 C18.4893413,6.09123792 17.2671167,3.98214424 15.2418342,2.84418282 C13.2165516,1.7062214 10.7089224,1.71959271 8.69684413,2.87908237 C6.68476589,4.03857202 5.48685885,6.16057047 5.57026969,8.41756398 C5.56946762,8.42884328 5.56946762,8.44016222 5.57026969,8.45144152 L7.16928513,17.6603492 C7.27318765,18.2573414 7.80958905,18.6947098 8.43803181,18.6948537 L10.49685,18.6948537 C10.6152931,18.6948537 10.7113102,18.7873384 10.7113102,18.9014241 L10.7113102,20.7605575 C10.7113065,21.0902774 10.8476996,21.406409 11.0903144,21.6390128 C11.3329293,21.8716165 11.6617669,22.0015185 12.0040764,21.9999934 Z M12.0040764,16.2160091 C11.2934178,16.2160091 10.7173151,15.6611008 10.7173151,14.9765868 C10.7173151,14.2920728 11.2934178,13.7371645 12.0040764,13.7371645 C12.7147351,13.7371645 13.2908378,14.2920728 13.2908378,14.9765868 C13.2908378,15.6611008 12.7147351,16.2160091 12.0040764,16.2160091 Z M7.77663648,8.30188456 C7.73511473,8.2612708 7.71277703,8.20598686 7.71487194,8.14902248 C7.8312899,5.95201832 9.7146139,4.22820761 11.9985005,4.22820761 C14.282387,4.22820761 16.165711,5.95201832 16.282129,8.14902248 C16.2849397,8.20558124 16.26362,8.26078776 16.2231182,8.30182809 C16.1826165,8.34286843 16.1264548,8.36617369 16.0676688,8.36633957 L14.0088506,8.36633957 C13.9296671,8.3663969 13.8568907,8.32442732 13.8195534,8.25716819 C13.782216,8.18990905 13.7863936,8.10830564 13.8304197,8.044911 L14.4403446,7.16492117 C14.6215361,6.91971043 14.6499705,6.59899724 14.5145686,6.32774465 C14.3791668,6.05649206 14.1013484,5.8776106 13.7893629,5.86079986 C13.4773775,5.84398912 13.1805793,5.99190844 13.014613,6.24692238 L11.6068961,8.27544355 C11.566656,8.33226821 11.4998772,8.36628466 11.4284652,8.36633957 L7.93190568,8.36633957 C7.87306455,8.36673454 7.81674405,8.34335673 7.77663648,8.30188456 Z M9.00163329,11.878031 C8.64630395,11.878031 8.35825261,11.6005769 8.35825261,11.2583199 C8.35825261,10.9160629 8.64630395,10.6386087 9.00163329,10.6386087 L15.0065196,10.6386087 C15.3618489,10.6386087 15.6499003,10.9160629 15.6499003,11.2583199 C15.6499003,11.6005769 15.3618489,11.878031 15.0065196,11.878031 L9.00163329,11.878031 Z" id="ðŸ–-Color" fill="#5A5A5A"></path>
        <rect id="_Transparent_Rectangle_" x="0" y="0" width="24" height="24"></rect>
    </g>
</svg>