<svg width="24" height="24" viewBox="0 0 24 24" fill="none" xmlns="http://www.w3.org/2000/svg">
<g id="business_climb_top_1">
<path id="Shape" fill-rule="evenodd" clip-rule="evenodd" d="M13.0837 2.82767C13.0837 2.34828 13.4568 1.95965 13.917 1.95965C14.3766 1.96061 14.7487 2.34896 14.7487 2.82767V3.04467C14.7487 3.16452 14.8419 3.26168 14.957 3.26168H18.6668C18.8969 3.26168 19.0835 3.45599 19.0835 3.69569V7.16775C19.0835 7.40745 19.27 7.60176 19.5001 7.60176C19.7302 7.60176 19.9168 7.40745 19.9168 7.16775V5.21472C19.9168 5.09487 20.01 4.99771 20.1251 4.99771H21.4792C21.7371 4.97118 21.9682 5.16379 22 5.43172V8.90379C21.9682 9.17171 21.7371 9.36433 21.4792 9.33779H18.2502C18.0201 9.33779 17.8335 9.14348 17.8335 8.90379V7.81876C17.8335 7.69892 17.7403 7.60176 17.6252 7.60176H14.9587C14.8436 7.60176 14.7503 7.69892 14.7503 7.81876V10.2822C14.7501 10.2963 14.7538 10.3102 14.7612 10.3221L17.0277 14.072C17.083 14.1634 17.0653 14.2833 16.9861 14.3532L15.7761 15.4182C15.6935 15.491 15.5711 15.4857 15.4945 15.4061L14.9595 14.8488C14.3892 14.2575 13.4673 14.2575 12.8971 14.8488L12.3621 15.4061C12.2853 15.4853 12.1632 15.4906 12.0804 15.4182L10.8705 14.3532C10.7913 14.2833 10.7735 14.1634 10.8288 14.072L13.0512 10.3942C13.0726 10.3598 13.0839 10.3197 13.0837 10.2787V2.82767ZM9.93054 15.5563C9.96209 15.5024 10.0149 15.4659 10.0747 15.4564C10.1345 15.4475 10.1951 15.4655 10.2414 15.5059L11.2713 16.4182C11.8519 16.9235 12.7062 16.8859 13.2437 16.3314L13.7795 15.7741C13.8185 15.7334 13.8714 15.7105 13.9266 15.7105C13.9818 15.7105 14.0347 15.7334 14.0737 15.7741L14.6095 16.3297C14.8835 16.6141 15.2551 16.7731 15.642 16.7715C16.2127 16.7715 16.5062 16.5057 17.1684 15.9061C17.3 15.7869 17.4461 15.6546 17.6119 15.5085C17.6581 15.468 17.7187 15.45 17.7785 15.459C17.8383 15.4687 17.891 15.5052 17.9227 15.5589L21.0384 20.7105C21.1997 20.9779 21.2088 21.3155 21.0623 21.5919C20.9157 21.8684 20.6366 22.0401 20.3334 22.0403H2.48171C2.30638 22.0407 2.14477 21.9416 2.05997 21.7817C1.97517 21.6219 1.98064 21.4266 2.07423 21.2722C2.69439 20.2461 3.22145 19.3547 3.67288 18.5912C5.58954 15.3497 6.14264 14.4143 6.66736 15.2672L8.20979 17.8157C8.24794 17.8788 8.31448 17.917 8.38603 17.917C8.45758 17.917 8.52412 17.8788 8.56227 17.8157L9.93054 15.5563Z" fill="#5A5A5A"/>
</g>
</svg>
