<?xml version="1.0" encoding="UTF-8"?>
<svg width="24px" height="24px" viewBox="0 0 24 24" version="1.1" xmlns="http://www.w3.org/2000/svg" xmlns:xlink="http://www.w3.org/1999/xlink">
    <title>7. Business and Products/business_crossroad</title>
    <g id="7.-Business-and-Products/business_crossroad" stroke="none" stroke-width="1" fill="none" fill-rule="evenodd">
        <path d="M2.24399305,14.6725476 L4.32736346,16.755918 C4.48324381,16.9127591 4.69541286,17.0006878 4.91654061,17.000089 L10.3333037,17.000089 C10.5634264,17.000089 10.7499778,17.1866403 10.7499778,17.4167631 L10.7499778,21.5835039 C10.7499778,21.8136266 10.9365291,22.000178 11.1666518,22.000178 L12.8333482,22.000178 C13.0634709,22.000178 13.2500222,21.8136266 13.2500222,21.5835039 L13.2500222,17.4167631 C13.2500222,17.1866403 13.4365736,17.000089 13.6666963,17.000089 L18.6667853,17.000089 C19.1270308,17.000089 19.5001335,16.6269863 19.5001335,16.1667408 L19.5001335,12 C19.5001335,11.5397545 19.1270308,11.1666518 18.6667853,11.1666518 L13.6666963,11.1666518 C13.4365736,11.1666518 13.2500222,10.9801005 13.2500222,10.7499778 L13.2500222,9.91662959 C13.2500222,9.68650685 13.4365736,9.49995551 13.6666963,9.49995551 L19.0834594,9.49995551 C19.3045871,9.5005543 19.5167562,9.41262568 19.6726365,9.2557845 L21.7560069,7.17241409 C22.081331,6.84699176 22.081331,6.31948212 21.7560069,5.99405979 L19.6726365,3.91068938 C19.5167562,3.7538482 19.3045871,3.66591958 19.0834594,3.66651837 L13.6666963,3.66651837 C13.4365736,3.66651837 13.2500222,3.47996703 13.2500222,3.24984429 C13.2500222,2.55947606 12.6903682,1.99982204 12,1.99982204 C11.3096318,1.99982204 10.7499778,2.55947606 10.7499778,3.24984429 C10.7499778,3.47996703 10.5634264,3.66651837 10.3333037,3.66651837 L5.33321469,3.66651837 C4.87296921,3.66651837 4.49986653,4.03962105 4.49986653,4.49986653 L4.49986653,8.66660735 C4.49986653,9.12685283 4.87296921,9.49995551 5.33321469,9.49995551 L10.3333037,9.49995551 C10.5634264,9.49995551 10.7499778,9.68650685 10.7499778,9.91662959 L10.7499778,10.7499778 C10.7499778,10.9801005 10.5634264,11.1666518 10.3333037,11.1666518 L4.91654061,11.1666518 C4.69541286,11.166053 4.48324381,11.2539817 4.32736346,11.4108228 L2.24399305,13.4941933 C1.91866898,13.8196156 1.91866898,14.3471252 2.24399305,14.6725476 Z" id="ðŸ–-Color" fill="#5A5A5A"></path>
        <rect id="_Transparent_Rectangle_" x="0" y="0" width="24" height="24"></rect>
    </g>
</svg>