<?xml version="1.0" encoding="UTF-8"?>
<svg width="24px" height="24px" viewBox="0 0 24 24" version="1.1" xmlns="http://www.w3.org/2000/svg" xmlns:xlink="http://www.w3.org/1999/xlink">
    <title>7. Business and Products/business_climb_top_1</title>
    <g id="7.-Business-and-Products/business_climb_top_1" stroke="none" stroke-width="1" fill="none" fill-rule="evenodd">
        <path d="M2.07423158,21.2721506 C5.32741826,15.8895807 6.01905375,14.213441 6.66735785,15.2672129 L6.66735785,15.2672129 L8.20978832,17.8157092 C8.24793734,17.8787623 8.31448078,17.9170104 8.38603038,17.9170104 C8.45757997,17.9170104 8.52412341,17.8787623 8.56227243,17.8157092 L8.56227243,17.8157092 L9.93054408,15.5562624 C9.96209185,15.5024491 10.0148591,15.465911 10.0747043,15.4564405 C10.1344828,15.4475146 10.1950837,15.4655055 10.2413634,15.5059175 L10.2413634,15.5059175 L11.271317,16.4182027 C11.8518655,16.9235409 12.7061659,16.8859449 13.2437281,16.3314011 L13.2437281,16.3314011 L13.7795372,15.7741345 C13.8184781,15.7333721 13.871408,15.7104552 13.9266139,15.7104552 C13.9818199,15.7104552 14.0347498,15.7333721 14.0736906,15.7741345 L14.0736906,15.7741345 L14.6094998,16.3296651 L14.7166701,16.430394 C14.9766525,16.6513835 15.3034405,16.7729375 15.6419533,16.7714854 C16.3260891,16.7714854 16.6119096,16.3895582 17.6118645,15.5085215 C17.6580932,15.4680096 17.7187378,15.4500057 17.7785236,15.4590446 C17.8382848,15.468741 17.8909686,15.5052212 17.9226838,15.5588665 L17.9226838,15.5588665 L21.0383767,20.710544 C21.1996608,20.9779435 21.2088038,21.3154893 21.0622507,21.5919364 C20.9156976,21.8683836 20.6365738,22.0401101 20.3334085,22.040346 L20.3334085,22.040346 L2.48171321,22.040346 C2.30637869,22.0406875 2.14476623,21.9415831 2.0599697,21.7817226 C1.97517317,21.621862 1.98063833,21.4265936 2.07423158,21.2721506 Z M13.917031,1.95965312 C14.3765966,1.96061055 14.7486611,2.34895446 14.7486602,2.82766955 L14.7486602,2.82766955 L14.7486602,3.04467365 C14.7486602,3.16452171 14.84193,3.26167776 14.9569842,3.26167776 L14.9569842,3.26167776 L18.6668169,3.26167776 C18.8969252,3.26167776 19.0834648,3.45598985 19.0834648,3.69568597 L19.0834648,3.69568597 L19.0834648,7.16775168 C19.0834648,7.40744779 19.2700044,7.60175989 19.5001127,7.60175989 C19.730221,7.60175989 19.9167606,7.40744779 19.9167606,7.16775168 L19.9167606,7.16775168 L19.9167606,5.21471472 C19.9167606,5.09486666 20.0100304,4.99771061 20.1250845,4.99771061 L20.1250845,4.99771061 L21.4791901,4.99771061 C21.7370975,4.97117644 21.9682377,5.16379325 22,5.43171882 L22,5.43171882 L22,8.90378453 C21.9682377,9.1717101 21.7370975,9.36432691 21.4791901,9.33779274 L21.4791901,9.33779274 L18.250169,9.33779274 C18.0200608,9.33779274 17.8335212,9.14348064 17.8335212,8.90378453 L17.8335212,8.90378453 L17.8335212,7.81876399 C17.8335212,7.69891594 17.7402513,7.60175989 17.6251972,7.60175989 L17.6251972,7.60175989 L14.9586508,7.60175989 C14.8435966,7.60175989 14.7503268,7.69891594 14.7503268,7.81876399 L14.7503268,7.81876399 L14.7503268,10.2821946 C14.7500508,10.2963295 14.753822,10.3102298 14.7611597,10.3221234 L14.7611597,10.3221234 L17.0277241,14.0719543 C17.0830177,14.1634254 17.0652527,14.2833395 16.9860594,14.3531916 L16.9860594,14.3531916 L15.7761139,15.4182478 C15.6934531,15.4910253 15.5710597,15.4857445 15.4944599,15.4060956 L15.4944599,15.4060956 L14.959484,14.848829 C14.3892246,14.2574488 13.4673365,14.2574488 12.897077,14.848829 L12.897077,14.848829 L12.3621011,15.4060956 C12.2853315,15.4853398 12.163245,15.4906073 12.0804472,15.4182478 L12.0804472,15.4182478 L10.8705017,14.3531916 C10.7913084,14.2833395 10.7735434,14.1634254 10.8288369,14.0719543 L10.8288369,14.0719543 L13.0512367,10.3941687 C13.0725988,10.359789 13.0838911,10.319675 13.0837353,10.2787225 L13.0837353,10.2787225 L13.0837353,2.82766955 C13.0837353,2.34827731 13.4568145,1.95965312 13.917031,1.95965312 Z" id="ðŸ–-Color" fill="#5A5A5A"></path>
        <rect id="_Transparent_Rectangle_" x="0" y="0" width="24" height="24"></rect>
    </g>
</svg>