<svg width="24" height="24" viewBox="0 0 24 24" fill="none" xmlns="http://www.w3.org/2000/svg">
<g id="business_trip_plane">
<path id="Shape" fill-rule="evenodd" clip-rule="evenodd" d="M6.54299 10.2215C6.60436 10.2282 6.66567 10.2084 6.7115 10.167C6.75734 10.1257 6.78334 10.0667 6.78298 10.005V9.89717C6.76386 9.3973 7.15272 8.97617 7.65252 8.95545H11.5655C12.4402 8.96371 13.2467 9.42918 13.6915 10.1824C13.7325 10.2318 13.7934 10.2602 13.8576 10.2598H16.7827C17.3278 10.185 17.8084 9.86457 18.0871 9.39022L18.5131 8.63198C18.5517 8.56344 18.6241 8.52093 18.7027 8.52068H19.8261C20.3064 8.52068 20.6957 8.13137 20.6957 7.65113C20.6957 7.1709 20.3064 6.78159 19.8261 6.78159C19.7697 6.78162 19.7175 6.75177 19.6889 6.70314C19.6603 6.65451 19.6596 6.59437 19.687 6.54507L21.8174 2.75821C21.8561 2.69122 21.8561 2.60868 21.8174 2.54169C21.7779 2.47463 21.7057 2.43358 21.6278 2.43387H20.2609C19.782 2.3659 19.299 2.52691 18.9566 2.86864L16.4097 4.99033C16.3706 5.02283 16.3214 5.04067 16.2706 5.04076H7.65252C4.70912 5.0425 1.95788 7.2094 2.00049 8.05286C2.05353 9.0624 4.63608 10.0224 6.54299 10.2215ZM5.91344 6.24682H7.21775C7.57793 6.24682 7.86991 6.5388 7.86991 6.89898C7.86991 7.25915 7.57793 7.55114 7.21775 7.55114H5.91344C5.55326 7.55114 5.26128 7.25915 5.26128 6.89898C5.26128 6.5388 5.55326 6.24682 5.91344 6.24682ZM7.71594 9.88841C7.75676 9.84759 7.81219 9.82476 7.86991 9.82499L11.5663 9.82065C12.2307 9.82065 12.4237 10.0241 13.1315 10.8641C13.1556 10.8921 13.1556 10.9335 13.1315 10.9615C12.2368 11.9989 12.0402 11.9989 11.5759 11.9989H11.5655L7.86556 11.9302C7.7472 11.9278 7.6525 11.8312 7.65252 11.7128V10.0424C7.65229 9.98465 7.67512 9.92923 7.71594 9.88841ZM22 20.6943V18.7378C22 18.6178 21.9027 18.5204 21.7826 18.5204H17.6523C17.5322 18.5204 17.4349 18.6178 17.4349 18.7378V19.39C17.4349 19.7502 17.1429 20.0421 16.7827 20.0421C16.4226 20.0421 16.1306 19.7502 16.1306 19.39V18.7378C16.1306 18.6178 16.0333 18.5204 15.9132 18.5204H11.7829C11.6628 18.5204 11.5655 18.6178 11.5655 18.7378V20.6943C11.5655 21.1745 11.9548 21.5638 12.435 21.5638H21.1305C21.6107 21.5638 22 21.1745 22 20.6943ZM22 15.477C22 14.9968 21.6107 14.6075 21.1305 14.6075H20.0627C19.9805 14.6075 19.9054 14.561 19.8687 14.4875L19.2992 13.3493C18.9556 12.5084 18.1254 11.9699 17.2175 11.9989H16.348C15.4398 11.9695 14.6091 12.5081 14.2654 13.3493L13.6967 14.4875C13.6598 14.5612 13.5844 14.6076 13.5019 14.6075H12.435C11.9548 14.6075 11.5655 14.9968 11.5655 15.477V17.4335C11.5652 17.4912 11.5881 17.5467 11.6289 17.5875C11.6697 17.6283 11.7251 17.6511 11.7829 17.6509H21.7826C21.8403 17.6511 21.8958 17.6283 21.9366 17.5875C21.9774 17.5467 22.0002 17.4912 22 17.4335V15.477ZM17.8175 14.5049C17.7775 14.5686 17.7075 14.6074 17.6323 14.6075H15.9323C15.8571 14.6077 15.7871 14.5688 15.7476 14.5048C15.708 14.4407 15.7046 14.3608 15.7384 14.2936L15.821 14.1266C16.0158 13.7379 16.1123 13.7379 16.348 13.7379H17.2175C17.4523 13.7379 17.5488 13.7379 17.7436 14.1266L17.8305 14.2936C17.8626 14.3616 17.8577 14.4413 17.8175 14.5049Z" fill="#5A5A5A"/>
</g>
</svg>
