<svg width="24" height="24" viewBox="0 0 24 24" fill="none" xmlns="http://www.w3.org/2000/svg">
<g id="business_crossroad">
<path id="Shape" fill-rule="evenodd" clip-rule="evenodd" d="M2.24399 14.6725L4.32736 16.7559C4.48324 16.9128 4.69541 17.0007 4.91654 17.0001H10.3333C10.5634 17.0001 10.75 17.1866 10.75 17.4168V21.5835C10.75 21.8136 10.9365 22.0002 11.1667 22.0002H12.8333C13.0635 22.0002 13.25 21.8136 13.25 21.5835V17.4168C13.25 17.1866 13.4366 17.0001 13.6667 17.0001H18.6668C19.127 17.0001 19.5001 16.627 19.5001 16.1667V12C19.5001 11.5398 19.127 11.1667 18.6668 11.1667H13.6667C13.4366 11.1667 13.25 10.9801 13.25 10.75V9.91663C13.25 9.68651 13.4366 9.49996 13.6667 9.49996H19.0835C19.3046 9.50056 19.5168 9.41263 19.6726 9.25578L21.756 7.17241C22.0813 6.84699 22.0813 6.31948 21.756 5.99406L19.6726 3.91069C19.5168 3.75385 19.3046 3.66592 19.0835 3.66652H13.6667C13.4366 3.66652 13.25 3.47997 13.25 3.24984C13.25 2.55948 12.6904 1.99982 12 1.99982C11.3096 1.99982 10.75 2.55948 10.75 3.24984C10.75 3.47997 10.5634 3.66652 10.3333 3.66652H5.33321C4.87297 3.66652 4.49987 4.03962 4.49987 4.49987V8.66661C4.49987 9.12685 4.87297 9.49996 5.33321 9.49996H10.3333C10.5634 9.49996 10.75 9.68651 10.75 9.91663V10.75C10.75 10.9801 10.5634 11.1667 10.3333 11.1667H4.91654C4.69541 11.1661 4.48324 11.254 4.32736 11.4108L2.24399 13.4942C1.91867 13.8196 1.91867 14.3471 2.24399 14.6725Z" fill="#5A5A5A"/>
</g>
</svg>
