<?xml version="1.0" encoding="UTF-8"?>
<svg width="24px" height="24px" viewBox="0 0 24 24" version="1.1" xmlns="http://www.w3.org/2000/svg" xmlns:xlink="http://www.w3.org/1999/xlink">
    <title>7. Business and Products/business_piggy_bank_broken</title>
    <g id="7.-Business-and-Products/business_piggy_bank_broken" stroke="none" stroke-width="1" fill="none" fill-rule="evenodd">
        <path d="M4.50002631,19.2924255 C5.88073308,19.2924255 7.00002631,19.8520688 7.00002631,20.5424238 C7.00002631,21.2327789 5.88073308,21.7924255 4.50002631,21.7924255 C3.11931296,21.7924255 2.00002631,21.2327789 2.00002631,20.5424238 C2.00002631,19.8520688 3.11931296,19.2924255 4.50002631,19.2924255 Z M18.6666743,19.2924255 C20.0473811,19.2924255 21.1666743,19.8520688 21.1666743,20.5424238 C21.1666743,21.2327789 20.0473811,21.7924255 18.6666743,21.7924255 C17.285961,21.7924255 16.1666743,21.2327789 16.1666743,20.5424238 C16.1666743,19.8520688 17.285961,19.2924255 18.6666743,19.2924255 Z M10.333352,17.625761 C11.7140587,17.625761 12.833352,18.1854043 12.833352,18.8757594 C12.833352,19.5661144 11.7140587,20.125761 10.333352,20.125761 C8.95263862,20.125761 7.83335197,19.5661144 7.83335197,18.8757594 C7.83335197,18.1854043 8.95263862,17.625761 10.333352,17.625761 Z M5.59252158,2.57578082 C6.68543631,1.96361997 8.04843529,2.12621037 8.96668381,2.97828029 C9.02027253,3.02834347 9.09630722,3.04640171 9.16668355,3.02578023 C9.75071852,2.85739045 10.3486623,2.74165041 10.9533479,2.67994735 C11.022093,2.67383695 11.0895238,2.7014929 11.134181,2.75411392 C11.1782954,2.8071751 11.1932743,2.87863702 11.1741809,2.944947 L11.1741809,2.944947 L10.3475153,5.83744319 C10.3107614,5.96548587 10.3465133,6.10338612 10.4408485,6.19744272 L10.4408485,6.19744272 L12.3150127,8.07160692 C12.4205047,8.17738166 12.4514697,8.33648926 12.393346,8.47410639 L12.393346,8.47410639 L10.5083485,12.9499338 C10.4366188,13.1175993 10.4990098,13.3124964 10.6547732,13.4073363 C10.8105367,13.5021761 11.0123246,13.4681298 11.1283476,13.3274333 L11.1283476,13.3274333 L14.8708427,8.83577258 C14.9800907,8.70528217 14.9849263,8.5166909 14.8825094,8.38077318 L14.8825094,8.38077318 L13.0283451,5.90827643 C12.9271424,5.77322979 12.9309229,5.58661426 13.0375118,5.45577703 L13.0375118,5.45577703 L14.9108427,3.16661337 C14.9652715,3.10064994 15.0542644,3.07428167 15.1358424,3.09994679 C17.3211017,3.68084465 19.0977121,5.27013381 19.9175027,7.37744117 C19.946628,7.46931065 20.0349644,7.52921146 20.1310901,7.52227455 C20.2272159,7.51533764 20.3060362,7.44337397 20.3216689,7.34827454 C20.3293797,7.30228567 20.3332819,7.25573885 20.3333355,7.20910806 C20.3333355,6.74887137 20.7064311,6.37577582 21.1666678,6.37577582 C21.6269044,6.37577582 22,6.74887137 22,7.20910806 C21.9997086,8.31321894 21.275164,9.28639178 20.2175023,9.60327157 C20.142998,9.62620942 20.0872308,9.68838656 20.0725025,9.76493803 C19.6902657,11.455551 18.6103626,12.9054125 17.1000064,13.7557661 C17.0383631,13.7936907 17.0008195,13.8608906 17.0008399,13.9332659 L17.0008399,13.9332659 L17.0008399,15.9574299 C17.0008399,16.4176666 16.6277444,16.7907621 16.1675077,16.7907621 C15.707271,16.7907621 15.3341754,16.4176666 15.3341754,15.9574299 L15.3341754,15.9574299 L15.3341754,14.874098 C15.3342292,14.8078811 15.3028013,14.745582 15.2495137,14.7062741 C15.196226,14.6669662 15.1274254,14.6553313 15.0641758,14.6749316 C14.0813749,14.9778254 13.0584263,15.1303827 12.0300131,15.127431 C10.8367041,15.1297379 9.65218872,14.9232938 8.53001772,14.5174318 C8.46618804,14.4936808 8.39474241,14.5030405 8.33918464,14.5424317 C8.2833298,14.5813818 8.25003536,14.6451703 8.25001809,14.7132649 L8.25001809,14.7132649 L8.25001809,15.9632632 C8.25001809,16.4234999 7.87692254,16.7965954 7.41668585,16.7965954 C6.95644916,16.7965954 6.58335361,16.4234999 6.58335361,15.9632632 L6.58335361,15.9632632 L6.58335361,13.6532662 C6.58383487,13.5820592 6.54762395,13.51562 6.48752041,13.4774331 C5.68727152,12.9720506 5.01565919,12.2873141 4.52585632,11.4774358 C4.48799999,11.4145701 4.42007335,11.3760257 4.34668989,11.3757692 L4.34668989,11.3757692 L2.41669243,11.3757692 C2.30560573,11.3757728 2.19911677,11.3314169 2.12088019,11.2525544 C2.04264361,11.1736919 1.99913762,11.0668529 2.00001296,10.9557698 L2.00001296,10.9557698 L2.00001296,8.45577308 C2.00001296,8.22565474 2.18657409,8.03910696 2.41669243,8.03910696 L2.41669243,8.03910696 L3.78002397,8.03910696 C3.87467468,8.03904704 3.95728941,7.9749435 3.98085704,7.88327384 C4.32895497,6.48523866 5.1627782,5.25650872 6.33335394,4.41661173 C6.41057252,4.35856821 6.43752206,4.25491614 6.39835386,4.16661206 C6.22584939,3.80239114 5.94419799,3.50093385 5.59252158,3.30411319 C5.46031061,3.23060663 5.37832433,3.09121814 5.37832433,2.939947 C5.37832433,2.78867587 5.46031061,2.64928738 5.59252158,2.57578082 Z M7.11835291,6.79244194 C6.58702275,6.79975953 6.16158945,7.23525123 6.1666875,7.76660732 C6.16679314,8.16264537 6.40664941,8.5192018 6.77343985,8.6685702 C7.14023029,8.8179386 7.5609416,8.73038572 7.83769212,8.44709206 C8.11444264,8.16379841 8.19214241,7.7411564 8.03424534,7.37795583 C7.87634826,7.01475525 7.51428532,6.78329479 7.11835291,6.79244194 Z" id="ðŸ–-Color" fill="#5A5A5A"></path>
        <rect id="_Transparent_Rectangle_" x="0" y="0" width="24" height="24"></rect>
    </g>
</svg>