<svg width="24" height="24" viewBox="0 0 24 24" fill="none" xmlns="http://www.w3.org/2000/svg">
<g id="business_scale">
<path id="Shape" fill-rule="evenodd" clip-rule="evenodd" d="M12.0043 22C12.715 22 13.2911 21.4451 13.2911 20.7606V18.9014C13.2911 18.7873 13.3871 18.6949 13.5055 18.6949H15.5643C16.1931 18.6946 16.7296 18.2568 16.8331 17.6595L18.4321 8.38369C18.4329 8.37213 18.4329 8.36054 18.4321 8.34898C18.4896 6.09124 17.2673 3.98214 15.2421 2.84418C13.2168 1.70622 10.7091 1.71959 8.69707 2.87908C6.68499 4.03857 5.48708 6.16057 5.57049 8.41756C5.56969 8.42884 5.56969 8.44016 5.57049 8.45144L7.16951 17.6603C7.27341 18.2573 7.80981 18.6947 8.43826 18.6949H10.4971C10.6155 18.6949 10.7115 18.7873 10.7115 18.9014V20.7606C10.7115 21.0903 10.8479 21.4064 11.0905 21.639C11.3332 21.8716 11.662 22.0015 12.0043 22ZM12.0043 16.216C11.2936 16.216 10.7175 15.6611 10.7175 14.9766C10.7175 14.2921 11.2936 13.7372 12.0043 13.7372C12.715 13.7372 13.2911 14.2921 13.2911 14.9766C13.2911 15.6611 12.715 16.216 12.0043 16.216ZM7.77686 8.30188C7.73534 8.26127 7.713 8.20599 7.7151 8.14902C7.83152 5.95202 9.71484 4.22821 11.9987 4.22821C14.2826 4.22821 16.1659 5.95202 16.2824 8.14902C16.2852 8.20558 16.2638 8.26079 16.2233 8.30183C16.1828 8.34287 16.1267 8.36617 16.0679 8.36633H14.0091C13.9299 8.3664 13.8571 8.32443 13.8198 8.25717C13.7824 8.18991 13.7866 8.1083 13.8306 8.04491L14.4406 7.16492C14.6218 6.91971 14.6502 6.599 14.5148 6.32774C14.3794 6.05649 14.1016 5.87761 13.7896 5.8608C13.4776 5.84399 13.1808 5.99191 13.0148 6.24692L11.6071 8.27544C11.5669 8.33227 11.5001 8.36628 11.4287 8.36633H7.93213C7.87329 8.36673 7.81697 8.34336 7.77686 8.30188ZM9.00186 11.878C8.64653 11.878 8.35848 11.6006 8.35848 11.2583C8.35848 10.9161 8.64653 10.6386 9.00186 10.6386H15.0067C15.3621 10.6386 15.6501 10.9161 15.6501 11.2583C15.6501 11.6006 15.3621 11.878 15.0067 11.878H9.00186Z" fill="#5A5A5A"/>
</g>
</svg>
