<?xml version="1.0" encoding="UTF-8"?>
<svg width="24px" height="24px" viewBox="0 0 24 24" version="1.1" xmlns="http://www.w3.org/2000/svg" xmlns:xlink="http://www.w3.org/1999/xlink">
    <title>7. Business and Products/data_file_graph</title>
    <g id="7.-Business-and-Products/data_file_graph" stroke="none" stroke-width="1" fill="none" fill-rule="evenodd">
        <path d="M18.6666666,22 C19.5871412,22 20.3333334,21.2538079 20.3333334,20.3333333 L20.3333334,7.27416667 C20.3333334,6.83188654 20.1577865,6.40769204 19.845,6.095 L16.2383333,2.48833333 C15.9258454,2.17575104 15.5019913,2 15.06,2 L5.3333333,2 C4.41285872,2 3.66666663,2.74619208 3.66666663,3.66666667 L3.66666663,20.3333333 C3.66666663,21.2538079 4.41285872,22 5.3333333,22 L18.6666666,22 Z M16.5833333,17 C16.5833333,17.345178 16.3035113,17.625 15.9583333,17.625 L7.8333333,17.625 C7.48815533,17.625 7.2083333,17.345178 7.2083333,17 C7.2083333,16.654822 7.48815533,16.375 7.8333333,16.375 L15.9583333,16.375 C16.3035113,16.375 16.5833333,16.654822 16.5833333,17 Z M7.43916663,13.5083333 L10.1608333,10.7866667 C10.4311507,10.5159417 10.8510804,10.4640519 11.1791666,10.6608333 L12.565,11.4941667 C12.6460537,11.5406277 12.7480903,11.527703 12.815,11.4625 L14.8983333,9.37916667 C15.2239512,9.05193795 15.7531879,9.05063212 16.0804166,9.37625 C16.4076453,9.70186788 16.4089512,10.2311046 16.0833333,10.5583333 L13.4266666,13.2141667 C13.1562775,13.4841986 12.7368761,13.5357221 12.4091666,13.3391667 L11.0225,12.5058333 C10.9416857,12.458864 10.8394803,12.4714693 10.7725,12.5366667 L8.61749997,14.6866667 C8.29051756,15.0024768 7.77076265,14.9979603 7.44931782,14.6765155 C7.12787299,14.3550706 7.12335646,13.8353157 7.43916663,13.5083333 Z" id="ðŸ–-Color" fill="#5A5A5A"></path>
        <rect id="_Transparent_Rectangle_" x="0" y="0" width="24" height="24"></rect>
    </g>
</svg>