<?xml version="1.0" encoding="UTF-8"?>
<svg width="24px" height="24px" viewBox="0 0 24 24" version="1.1" xmlns="http://www.w3.org/2000/svg" xmlns:xlink="http://www.w3.org/1999/xlink">
    <title>7. Business and Products/data_file_bars</title>
    <g id="7.-Business-and-Products/data_file_bars" stroke="none" stroke-width="1" fill="none" fill-rule="evenodd">
        <path d="M5.3333333,22 L18.6666666,22 C19.5871412,22 20.3333334,21.2538079 20.3333334,20.3333333 L20.3333334,7.27416667 C20.3333334,6.83188654 20.1577865,6.40769204 19.845,6.095 L16.2383333,2.48833333 C15.9258454,2.17575104 15.5019913,2 15.06,2 L5.3333333,2 C4.41285872,2 3.66666663,2.74619208 3.66666663,3.66666667 L3.66666663,20.3333333 C3.66666663,21.2538079 4.41285872,22 5.3333333,22 Z M13.6666666,12 C13.6666666,11.7698814 13.8532147,11.5833333 14.0833333,11.5833333 L14.9166666,11.5833333 C15.1467853,11.5833333 15.3333333,11.7698814 15.3333333,12 L15.3333333,16.1666667 C15.3333333,16.3967853 15.1467853,16.5833333 14.9166666,16.5833333 L14.0833333,16.5833333 C13.8532147,16.5833333 13.6666666,16.3967853 13.6666666,16.1666667 L13.6666666,12 Z M10.75,10.3333333 C10.75,10.1032147 10.936548,9.91666667 11.1666666,9.91666667 L12,9.91666667 C12.2301186,9.91666667 12.4166666,10.1032147 12.4166666,10.3333333 L12.4166666,16.1666667 C12.4166666,16.3967853 12.2301186,16.5833333 12,16.5833333 L11.1666666,16.5833333 C10.936548,16.5833333 10.75,16.3967853 10.75,16.1666667 L10.75,10.3333333 Z M7.8333333,14.0833333 C7.8333333,13.8532147 8.01988132,13.6666667 8.24999997,13.6666667 L9.0833333,13.6666667 C9.31345194,13.6666667 9.49999997,13.8532147 9.49999997,14.0833333 L9.49999997,16.1666667 C9.49999997,16.3967853 9.31345194,16.5833333 9.0833333,16.5833333 L8.24999997,16.5833333 C8.01988132,16.5833333 7.8333333,16.3967853 7.8333333,16.1666667 L7.8333333,14.0833333 Z" id="ðŸ–-Color" fill="#5A5A5A"></path>
        <rect id="_Transparent_Rectangle_" x="0" y="0" width="24" height="24"></rect>
    </g>
</svg>