<svg width="24" height="24" viewBox="0 0 24 24" fill="none" xmlns="http://www.w3.org/2000/svg">
<g id="data_file_graph">
<path id="Shape" fill-rule="evenodd" clip-rule="evenodd" d="M18.667 22C19.5875 22 20.3337 21.2538 20.3337 20.3333V7.27417C20.3338 6.83189 20.1581 6.40769 19.8453 6.095L16.2387 2.48833C15.9262 2.17575 15.5023 2.00009 15.0603 2H5.33366C4.41318 2 3.66699 2.74619 3.66699 3.66667V20.3333C3.66699 21.2538 4.41318 22 5.33366 22H18.667ZM16.5837 17C16.5837 17.3452 16.3038 17.625 15.9587 17.625H7.83366C7.48848 17.625 7.20866 17.3452 7.20866 17C7.20866 16.6548 7.48848 16.375 7.83366 16.375H15.9587C16.3038 16.375 16.5837 16.6548 16.5837 17ZM7.43949 13.5083L10.1612 10.7867C10.4315 10.5159 10.8514 10.4641 11.1795 10.6608L12.5653 11.4942C12.6464 11.5406 12.7484 11.5277 12.8153 11.4625L14.8987 9.37917C15.2243 9.05194 15.7535 9.05063 16.0807 9.37625C16.408 9.70187 16.4093 10.2311 16.0837 10.5583L13.427 13.2142C13.1566 13.4842 12.7372 13.5357 12.4095 13.3392L11.0228 12.5058C10.942 12.4589 10.8398 12.4715 10.7728 12.5367L8.61783 14.6867C8.29084 15.0025 7.77109 14.998 7.44964 14.6765C7.1282 14.3551 7.12368 13.8353 7.43949 13.5083Z" fill="#5A5A5A"/>
</g>
</svg>
