<svg width="24" height="24" viewBox="0 0 24 24" fill="none" xmlns="http://www.w3.org/2000/svg">
<g id="data_file_bars">
<path id="Shape" fill-rule="evenodd" clip-rule="evenodd" d="M5.33366 22H18.667C19.5875 22 20.3337 21.2538 20.3337 20.3333V7.27417C20.3338 6.83189 20.1581 6.40769 19.8453 6.095L16.2387 2.48833C15.9262 2.17575 15.5023 2.00009 15.0603 2H5.33366C4.41318 2 3.66699 2.74619 3.66699 3.66667V20.3333C3.66699 21.2538 4.41318 22 5.33366 22ZM13.667 12C13.667 11.7699 13.8535 11.5833 14.0837 11.5833H14.917C15.1471 11.5833 15.3337 11.7699 15.3337 12V16.1667C15.3337 16.3968 15.1471 16.5833 14.917 16.5833H14.0837C13.8535 16.5833 13.667 16.3968 13.667 16.1667V12ZM10.7503 10.3333C10.7503 10.1032 10.9369 9.91667 11.167 9.91667H12.0003C12.2304 9.91667 12.417 10.1032 12.417 10.3333V16.1667C12.417 16.3968 12.2304 16.5833 12.0003 16.5833H11.167C10.9369 16.5833 10.7503 16.3968 10.7503 16.1667V10.3333ZM7.83366 14.0833C7.83366 13.8532 8.02021 13.6667 8.25033 13.6667H9.08366C9.31378 13.6667 9.50033 13.8532 9.50033 14.0833V16.1667C9.50033 16.3968 9.31378 16.5833 9.08366 16.5833H8.25033C8.02021 16.5833 7.83366 16.3968 7.83366 16.1667V14.0833Z" fill="#5A5A5A"/>
</g>
</svg>
