<svg width="24" height="24" viewBox="0 0 24 24" fill="none" xmlns="http://www.w3.org/2000/svg">
<g id="invitation">
<path id="Shape" fill-rule="evenodd" clip-rule="evenodd" d="M13.0413 22H18.458C18.5731 22 18.6663 21.9067 18.6663 21.7917V18.2692C18.6651 18.2567 18.6651 18.2441 18.6663 18.2317L19.318 14.6483C19.3346 14.5614 19.4112 14.4988 19.4997 14.5C20.4164 14.491 21.1573 13.75 21.1663 12.8333V3.66667C21.1663 2.74619 20.4201 2 19.4997 2H4.49967C3.5792 2 2.83301 2.74619 2.83301 3.66667V12.8333C2.83301 13.7538 3.5792 14.5 4.49967 14.5H7.66051C7.71701 14.4997 7.77117 14.5225 7.81049 14.5631C7.84981 14.6037 7.87088 14.6585 7.86884 14.715C7.85134 15.3275 7.83301 16.075 7.83301 16.5833C7.83301 17.515 8.97301 17.6808 9.49967 17.4167C10.0696 17.047 10.5177 16.5174 10.788 15.8942C10.7941 15.8814 10.7988 15.868 10.8022 15.8542L11.1013 14.6575C11.1247 14.5647 11.2082 14.4998 11.3038 14.5H11.733C11.7971 14.5005 11.8574 14.5302 11.8968 14.5807C11.9363 14.6312 11.9505 14.6969 11.9355 14.7592L11.583 16.1667C11.361 16.9852 11.361 17.8481 11.583 18.6667C11.9073 19.2531 12.3083 19.7937 12.7755 20.2742C12.8122 20.3126 12.8328 20.3636 12.833 20.4167V21.7917C12.833 21.9067 12.9263 22 13.0413 22ZM11.9997 10.785V12.625C11.9999 12.6803 11.978 12.7334 11.9389 12.7726C11.8998 12.8117 11.8467 12.8336 11.7913 12.8333H4.91634C4.68622 12.8333 4.49967 12.6468 4.49967 12.4167V4.08333C4.49967 3.85321 4.68622 3.66667 4.91634 3.66667H19.083C19.3131 3.66667 19.4997 3.85321 19.4997 4.08333V12.4167C19.4997 12.6468 19.3131 12.8333 19.083 12.8333H15.5413C15.486 12.8336 15.4329 12.8117 15.3938 12.7726C15.3547 12.7334 15.3328 12.6803 15.333 12.625V10.785C15.333 10.3683 15.333 8.66667 13.6663 8.66667C11.9997 8.66667 11.9997 10.3683 11.9997 10.785ZM5.74967 7.20833C5.74967 5.71256 6.96224 4.5 8.45801 4.5C9.95302 4.50184 11.1645 5.71332 11.1663 7.20833C11.1663 8.7041 9.95378 9.91667 8.45801 9.91667C6.96224 9.91667 5.74967 8.7041 5.74967 7.20833ZM6.99967 7.20833C6.99967 8.01375 7.65259 8.66667 8.45801 8.66667C9.26304 8.66575 9.91542 8.01337 9.91634 7.20833C9.91634 6.40292 9.26342 5.75 8.45801 5.75C7.65259 5.75 6.99967 6.40292 6.99967 7.20833ZM18.2497 4.70833C18.5949 4.70833 18.8747 4.98816 18.8747 5.33333C18.8749 5.49916 18.8091 5.65826 18.6919 5.77552C18.5746 5.89278 18.4155 5.95855 18.2497 5.95833H13.2497C12.9045 5.95833 12.6247 5.67851 12.6247 5.33333C12.6247 4.98816 12.9045 4.70833 13.2497 4.70833H18.2497ZM15.7497 7.20833H18.2497C18.5949 7.20833 18.8747 7.48816 18.8747 7.83333C18.8747 8.17851 18.5949 8.45833 18.2497 8.45833H15.7497C15.4045 8.45833 15.1247 8.17851 15.1247 7.83333C15.1247 7.48816 15.4045 7.20833 15.7497 7.20833Z" fill="#5A5A5A"/>
</g>
</svg>
