<?xml version="1.0" encoding="UTF-8"?>
<svg width="24px" height="24px" viewBox="0 0 24 24" version="1.1" xmlns="http://www.w3.org/2000/svg" xmlns:xlink="http://www.w3.org/1999/xlink">
    <title>7. Business and Products/invitation</title>
    <g id="7.-Business-and-Products/invitation" stroke="none" stroke-width="1" fill="none" fill-rule="evenodd">
        <path d="M19.5,2 C20.4204746,2 21.1666667,2.74619208 21.1666667,3.66666667 L21.1666667,3.66666667 L21.1666667,12.8333333 C21.1576344,13.7500406 20.4167072,14.4909677 19.5,14.5 C19.4114833,14.4988405 19.3348988,14.5613728 19.3183333,14.6483333 L19.3183333,14.6483333 L18.6666667,18.2316667 C18.6654301,18.2441361 18.6654301,18.2566972 18.6666667,18.2691667 L18.6666667,18.2691667 L18.6666667,21.7916667 C18.6666667,21.906726 18.5733927,22 18.4583333,22 L18.4583333,22 L13.0416667,22 C12.9266073,22 12.8333333,21.906726 12.8333333,21.7916667 L12.8333333,21.7916667 L12.8333333,20.4166667 C12.833109,20.3635585 12.8125298,20.312558 12.7758333,20.2741667 C12.3086411,19.7937271 11.9076063,19.2531288 11.5833333,18.6666667 C11.3613522,17.848116 11.3613522,16.9852173 11.5833333,16.1666667 L11.5833333,16.1666667 L11.9358333,14.7591667 C11.9508328,14.6968906 11.9365881,14.6311738 11.8971487,14.5806979 C11.8577093,14.5302219 11.7973883,14.5005069 11.7333333,14.5 L11.7333333,14.5 L11.3041667,14.5 C11.2085138,14.4997873 11.1250058,14.5647379 11.1016667,14.6575 L11.1016667,14.6575 L10.8025,15.8541667 C10.7991628,15.8679508 10.7944155,15.8813547 10.7883333,15.8941667 C10.5180613,16.5173841 10.0699048,17.0469973 9.5,17.4166667 C8.97333333,17.6808333 7.83333333,17.515 7.83333333,16.5833333 C7.83333333,16.075 7.85166667,15.3275 7.86916667,14.715 C7.87120952,14.658535 7.850138,14.6036787 7.81081914,14.5631016 C7.77150028,14.5225245 7.71733467,14.4997361 7.66083333,14.5 L7.66083333,14.5 L4.5,14.5 C3.57952542,14.5 2.83333333,13.7538079 2.83333333,12.8333333 L2.83333333,12.8333333 L2.83333333,3.66666667 C2.83333333,2.74619208 3.57952542,2 4.5,2 L4.5,2 Z M19.0833333,3.66666667 L4.91666667,3.66666667 C4.68654802,3.66666667 4.5,3.85321469 4.5,4.08333333 L4.5,4.08333333 L4.5,12.4166667 C4.5,12.6467853 4.68654802,12.833335 4.91666667,12.833335 L4.91666667,12.833335 L11.7916667,12.833335 C11.846988,12.833556 11.9001079,12.8116781 11.9392263,12.7725597 C11.9783448,12.7334412 12.0002226,12.6803214 12,12.625 L12,12.625 L12.0000847,10.7335674 C12.0022862,10.2446182 12.0617284,8.66666667 13.6666667,8.66666667 C15.3333333,8.66666667 15.3333333,10.3683333 15.3333333,10.785 L15.3333333,10.785 L15.3333333,12.625 C15.3331107,12.6803214 15.3549886,12.7334412 15.394107,12.7725597 C15.4332254,12.8116781 15.4863453,12.833556 15.5416667,12.833335 L15.5416667,12.833335 L19.0833333,12.833335 C19.313452,12.833335 19.5,12.6467853 19.5,12.4166667 L19.5,12.4166667 L19.5,4.08333333 C19.5,3.85321469 19.313452,3.66666667 19.0833333,3.66666667 L19.0833333,3.66666667 Z M8.45833333,4.5 C9.95334312,4.50183662 11.16483,5.71332355 11.1666667,7.20833333 C11.1666667,8.70410453 9.95410453,9.91666667 8.45833333,9.91666667 C6.96256214,9.91666667 5.75,8.70410453 5.75,7.20833333 C5.75,5.71256214 6.96256214,4.5 8.45833333,4.5 Z M8.45833333,5.75 C7.65291807,5.75 7,6.40291807 7,7.20833333 C7,8.01374859 7.65291807,8.66666667 8.45833333,8.66666667 C9.26336785,8.6657482 9.9157482,8.01336785 9.91666667,7.20833333 C9.91666667,6.40291807 9.26374859,5.75 8.45833333,5.75 Z M18.25,7.20833333 C18.595178,7.20833333 18.875,7.48815536 18.875,7.83333333 C18.875,8.1785113 18.595178,8.45833333 18.25,8.45833333 L18.25,8.45833333 L15.75,8.45833333 C15.404822,8.45833333 15.125,8.1785113 15.125,7.83333333 C15.125,7.48815536 15.404822,7.20833333 15.75,7.20833333 L15.75,7.20833333 Z M18.25,4.70833333 C18.595178,4.70833333 18.8750006,4.98815536 18.8750006,5.33333333 C18.8752215,5.49916146 18.8094447,5.65826141 18.6921864,5.77551971 C18.5749281,5.892778 18.4158281,5.95855488 18.25,5.95833389 L18.25,5.95833389 L13.25,5.95833389 C12.904822,5.95833389 12.625,5.6785113 12.625,5.33333333 C12.625,4.98815536 12.904822,4.70833333 13.25,4.70833333 L13.25,4.70833333 Z" id="ðŸ–-Color" fill="#5A5A5A"></path>
        <rect id="_Transparent_Rectangle_" x="0" y="0" width="24" height="24"></rect>
    </g>
</svg>