<?xml version="1.0" encoding="UTF-8"?>
<svg width="24px" height="24px" viewBox="0 0 24 24" version="1.1" xmlns="http://www.w3.org/2000/svg" xmlns:xlink="http://www.w3.org/1999/xlink">
    <title>7. Business and Products/laptop_launch</title>
    <g id="7.-Business-and-Products/laptop_launch" stroke="none" stroke-width="1" fill="none" fill-rule="evenodd">
        <path d="M6.24184873,7.77601678 L7.5221013,7.77772264 C7.99316323,7.77772264 8.37503438,8.15959379 8.37503438,8.63065573 C8.37503438,9.10171766 7.99316323,9.48358881 7.5221013,9.48358881 L7.5221013,9.48358881 L6.45593494,9.48358881 C6.33816945,9.48358881 6.24270167,9.5790566 6.24270167,9.69682209 L6.24270167,9.69682209 L6.24270167,17.2026332 C6.24270167,17.3203987 6.33816945,17.4158665 6.45593494,17.4158665 L6.45593494,17.4158665 L9.49067086,17.4158665 C9.57196096,17.4158257 9.64614305,17.4621895 9.68172787,17.5352772 C10.0505356,18.2517792 10.5192086,18.9122863 11.0737147,19.4970232 C11.3151297,19.749918 11.6495231,19.8929987 11.9991471,19.8929987 C12.3487711,19.8929987 12.6831644,19.749918 12.9245795,19.4970232 C13.4790856,18.9122863 13.9477585,18.2517792 14.3165663,17.5352772 C14.3521511,17.4621895 14.4263332,17.4158257 14.5076233,17.4158665 L14.5076233,17.4158665 L17.5440651,17.4158665 C17.6618305,17.4158665 17.7572983,17.3203987 17.7572983,17.2026332 L17.7572983,17.2026332 L17.7572983,9.69682209 C17.7572983,9.5790566 17.6618305,9.48358881 17.5440651,9.48358881 L17.5440651,9.48358881 L16.4787516,9.48358881 C16.0076897,9.48358881 15.6258186,9.10171766 15.6258186,8.63065573 C15.6258186,8.15959379 16.0076897,7.77772264 16.4787516,7.77772264 L16.4787516,7.77772264 L17.7581513,7.77772264 C18.7002751,7.77772264 19.4640174,8.54146494 19.4640174,9.48358881 L19.4640174,9.48358881 L19.4640174,17.5864531 C19.4639988,17.6359299 19.4811861,17.6838734 19.5126346,17.7220695 L19.5126346,17.7220695 L21.9127883,20.6391007 C22.0523618,20.9472896 22.0229516,21.3056957 21.8350046,21.5870088 C21.6470576,21.8683219 21.3272048,22.0326815 20.9890618,22.0217052 L20.9890618,22.0217052 L3.0109382,22.0217052 C2.67279523,22.0326815 2.35294244,21.8683219 2.16499543,21.5870088 C1.97704842,21.3056957 1.94763821,20.9472896 2.08721167,20.6391007 L2.08721167,20.6391007 L4.48736537,17.7203636 C4.51881395,17.6821675 4.53600123,17.6342241 4.53598256,17.5847473 L4.53598256,17.5847473 L4.53598256,9.48188295 C4.53598256,8.53975908 5.29972486,7.77601678 6.24184873,7.77601678 L6.24184873,7.77601678 Z M12,14.4476594 C12.3941562,14.4353222 12.7757513,14.5871386 13.0537076,14.8668735 C13.3316638,15.1466084 13.4810431,15.5291641 13.466192,15.9232336 C13.2885372,16.8696941 12.8344286,17.7422949 12.1612044,18.4308569 C12.1202857,18.4769316 12.0616215,18.503315 12,18.5033572 C11.9381475,18.5035463 11.8792853,18.4767624 11.8387956,18.430004 C11.1653847,17.7419164 10.7112308,16.8695253 10.533808,15.9232336 C10.5189569,15.5291641 10.6683362,15.1466084 10.9462924,14.8668735 C11.2242487,14.5871386 11.6058438,14.4353222 12,14.4476594 Z M12.0085293,1.97777765 C12.4795913,1.97777765 12.8614624,2.3596488 12.8614624,2.83071074 L12.8614624,2.83071074 L12.8614624,3.84911285 C12.8617282,3.91616654 12.8932723,3.97925458 12.9467557,4.01969946 C13.2853702,4.26278539 13.6273963,4.51440065 13.8090711,4.65854634 C14.4586756,5.21875779 14.7950059,6.0600609 14.7106213,6.91370143 L14.7106213,6.91370143 L13.8576883,10.7638414 C13.8351259,10.8669089 13.8913319,10.9709807 13.9898929,11.0086332 L13.9898929,11.0086332 L14.0871273,11.0461622 C14.7635312,11.3055741 15.2023123,11.9639167 15.1814404,12.6880584 L15.1814404,12.6880584 L15.1464702,13.8821647 C15.1418805,14.0354247 15.0553709,14.1744243 14.919891,14.2462216 C14.784411,14.3180189 14.6208167,14.3115614 14.4914175,14.2293085 L14.4914175,14.2293085 L13.2640468,13.4497277 L10.738512,13.4497277 L9.51199419,14.2301614 C9.38259501,14.3124143 9.21900075,14.3188719 9.08352077,14.2470745 C8.94804079,14.1752772 8.86153121,14.0362776 8.85694158,13.8830177 L8.85694158,13.8830177 L8.82282425,12.6889114 C8.80182104,11.9649864 9.2402167,11.306709 9.91628447,11.0470152 L9.91628447,11.0470152 L10.0169306,11.0086332 C10.1152815,10.970326 10.171038,10.8660541 10.1482823,10.7629884 L10.1482823,10.7629884 L9.29534918,6.91455436 C9.21324688,6.0581942 9.55385343,5.21559089 10.2079876,4.65684048 C10.3879565,4.51269479 10.7291297,4.26193246 11.0703029,4.0179936 C11.1239963,3.97772356 11.1555962,3.91452371 11.1555962,3.84740698 L11.1555962,3.84740698 L11.1555962,2.83071074 C11.1555962,2.3596488 11.5374674,1.97777765 12.0085293,1.97777765 Z M12,5.88079946 C11.4644026,5.88079946 11.0302151,6.31498696 11.0302151,6.85058438 C11.0302151,7.3861818 11.4644026,7.8203693 12,7.8203693 C12.257203,7.8203693 12.5038715,7.71819582 12.6857415,7.53632587 C12.8676114,7.35445592 12.9697849,7.10778733 12.9697849,6.85058438 C12.9697849,6.31498696 12.5355974,5.88079946 12,5.88079946 Z" id="ðŸ–-Color" fill="#5A5A5A"></path>
        <rect id="_Transparent_Rectangle_" x="0" y="0" width="24" height="24"></rect>
    </g>
</svg>