<svg width="24" height="24" viewBox="0 0 24 24" fill="none" xmlns="http://www.w3.org/2000/svg">
<g id="laptop_launch">
<path id="Shape" fill-rule="evenodd" clip-rule="evenodd" d="M13.264 13.4497H10.7385L9.51199 14.2302C9.3826 14.3124 9.219 14.3189 9.08352 14.2471C8.94804 14.1753 8.86153 14.0363 8.85694 13.883L8.82282 12.6889C8.80182 11.965 9.24022 11.3067 9.91628 11.047L10.0169 11.0086C10.1153 10.9703 10.171 10.8661 10.1483 10.763L9.29535 6.91456C9.21325 6.0582 9.55385 5.2156 10.208 4.65685C10.388 4.5127 10.7291 4.26194 11.0703 4.018C11.124 3.97773 11.1556 3.91453 11.1556 3.84741V2.83072C11.1556 2.35965 11.5375 1.97778 12.0085 1.97778C12.4796 1.97778 12.8615 2.35965 12.8615 2.83072V3.84912C12.8617 3.91617 12.8933 3.97926 12.9468 4.01971C13.2854 4.26279 13.6274 4.51441 13.8091 4.65855C14.4587 5.21876 14.795 6.06007 14.7106 6.91371L13.8577 10.7638C13.8351 10.8669 13.8913 10.971 13.9899 11.0086L14.0871 11.0462C14.7635 11.3056 15.2023 11.9639 15.1814 12.6881L15.1465 13.8822C15.1419 14.0354 15.0554 14.1744 14.9199 14.2462C14.7844 14.318 14.6208 14.3116 14.4914 14.2293L13.264 13.4497ZM11.0302 6.85059C11.0302 7.38619 11.4644 7.82037 12 7.82037C12.2572 7.82037 12.5039 7.7182 12.6857 7.53633C12.8676 7.35446 12.9698 7.10779 12.9698 6.85059C12.9698 6.31499 12.5356 5.88081 12 5.88081C11.4644 5.88081 11.0302 6.31499 11.0302 6.85059ZM12 14.4477C11.6058 14.4353 11.2242 14.5871 10.9463 14.8669C10.6683 15.1466 10.519 15.5292 10.5338 15.9232C10.7112 16.8695 11.1654 17.7419 11.8388 18.43C11.8793 18.4768 11.9381 18.5036 12 18.5034C12.0616 18.5033 12.1203 18.4769 12.1612 18.4309C12.8344 17.7423 13.2885 16.8697 13.4662 15.9232C13.481 15.5292 13.3317 15.1466 13.0537 14.8669C12.7758 14.5871 12.3942 14.4353 12 14.4477ZM4.53598 9.48189C4.53598 8.53976 5.29973 7.77602 6.24185 7.77602L7.5221 7.77773C7.99316 7.77773 8.37503 8.1596 8.37503 8.63066C8.37503 9.10172 7.99316 9.48359 7.5221 9.48359H6.45594C6.33817 9.48359 6.2427 9.57906 6.2427 9.69683V17.2026C6.2427 17.3204 6.33817 17.4159 6.45594 17.4159H9.49067C9.57196 17.4158 9.64614 17.4622 9.68173 17.5353C10.0505 18.2518 10.5192 18.9123 11.0737 19.497C11.3151 19.7499 11.6495 19.893 11.9991 19.893C12.3488 19.893 12.6832 19.7499 12.9246 19.497C13.4791 18.9123 13.9478 18.2518 14.3166 17.5353C14.3522 17.4622 14.4263 17.4158 14.5076 17.4159H17.5441C17.6618 17.4159 17.7573 17.3204 17.7573 17.2026V9.69683C17.7573 9.57906 17.6618 9.48359 17.5441 9.48359H16.4788C16.0077 9.48359 15.6258 9.10172 15.6258 8.63066C15.6258 8.1596 16.0077 7.77773 16.4788 7.77773H17.7582C18.7003 7.77773 19.464 8.54147 19.464 9.48359V17.5865C19.464 17.6359 19.4812 17.6839 19.5126 17.7221L21.9128 20.6391C22.0524 20.9473 22.023 21.3057 21.835 21.587C21.6471 21.8683 21.3272 22.0327 20.9891 22.0217H3.01094C2.6728 22.0327 2.35294 21.8683 2.165 21.587C1.97705 21.3057 1.94764 20.9473 2.08721 20.6391L4.48737 17.7204C4.51881 17.6822 4.536 17.6342 4.53598 17.5848V9.48189Z" fill="#5A5A5A"/>
</g>
</svg>
