<svg width="24" height="24" viewBox="0 0 24 24" fill="none" xmlns="http://www.w3.org/2000/svg">
<g id="maze_strategy">
<path id="Shape" fill-rule="evenodd" clip-rule="evenodd" d="M9.91667 7.83324H12.2083C12.2637 7.83346 12.3168 7.81158 12.3559 7.77246C12.395 7.73335 12.4169 7.68023 12.4167 7.62491V5.52907C12.4162 5.4142 12.3232 5.3212 12.2083 5.32074H11.5833C11.3432 5.32072 11.1243 5.18311 11.0202 4.96671C10.9161 4.75031 10.9452 4.49339 11.095 4.30574L12.7617 2.22241C12.8846 2.08117 13.0627 2.0001 13.25 2.0001C13.4373 2.0001 13.6154 2.08117 13.7383 2.22241L15.405 4.30574C15.5548 4.49339 15.5839 4.75031 15.4798 4.96671C15.3757 5.18311 15.1568 5.32072 14.9167 5.32074H14.2917C14.1768 5.3212 14.0838 5.4142 14.0833 5.52907V8.66657C14.0833 9.12681 13.7102 9.49991 13.25 9.49991H10.9583C10.8433 9.49991 10.75 9.59318 10.75 9.70824V16.7916C10.7498 16.8469 10.7717 16.9 10.8108 16.9391C10.8499 16.9783 10.903 17.0001 10.9583 16.9999H12.4167C12.8769 16.9999 13.25 17.373 13.25 17.8332V21.1666C13.25 21.6268 12.8769 21.9999 12.4167 21.9999C11.9564 21.9999 11.5833 21.6268 11.5833 21.1666V18.8749C11.5833 18.7598 11.4901 18.6666 11.375 18.6666H9.91667C9.45643 18.6666 9.08333 18.2935 9.08333 17.8332V8.66657C9.08333 8.20633 9.45643 7.83324 9.91667 7.83324ZM9.08333 3.66657H3.66667C2.74619 3.66657 2 4.41276 2 5.33324V20.3332C2 21.2537 2.74619 21.9999 3.66667 21.9999H9.5C9.96024 21.9999 10.3333 21.6268 10.3333 21.1666C10.3333 20.7063 9.96024 20.3332 9.5 20.3332H6.79167C6.73635 20.3335 6.68323 20.3116 6.64411 20.2725C6.60499 20.2333 6.58311 20.1802 6.58333 20.1249V18.2499C6.58333 17.7897 6.21024 17.4166 5.75 17.4166C5.28976 17.4166 4.91667 17.7897 4.91667 18.2499V20.1249C4.91689 20.1802 4.89501 20.2333 4.85589 20.2725C4.81677 20.3116 4.76365 20.3335 4.70833 20.3332H3.875C3.81968 20.3335 3.76656 20.3116 3.72744 20.2725C3.68832 20.2333 3.66644 20.1802 3.66667 20.1249V12.2082C3.66667 12.0932 3.75994 11.9999 3.875 11.9999H5.95833C6.07339 11.9999 6.16667 12.0932 6.16667 12.2082V15.3332C6.16667 15.7935 6.53976 16.1666 7 16.1666C7.46024 16.1666 7.83333 15.7935 7.83333 15.3332V11.1666C7.83333 10.7063 7.46024 10.3332 7 10.3332H3.875C3.81968 10.3335 3.76656 10.3116 3.72744 10.2725C3.68832 10.2333 3.66644 10.1802 3.66667 10.1249V5.54157C3.66667 5.42651 3.75994 5.33324 3.875 5.33324H6.375C6.49006 5.33324 6.58333 5.42651 6.58333 5.54157V6.79157C6.58356 6.84689 6.56168 6.90001 6.52256 6.93913C6.48344 6.97825 6.43032 7.00013 6.375 6.99991H5.75C5.28976 6.99991 4.91667 7.373 4.91667 7.83324C4.91667 8.29348 5.28976 8.66657 5.75 8.66657H7.41667C7.8769 8.66657 8.25 8.29348 8.25 7.83324V5.54157C8.25 5.42651 8.34327 5.33324 8.45833 5.33324H9.08333C9.54357 5.33324 9.91667 4.96014 9.91667 4.49991C9.91667 4.03967 9.54357 3.66657 9.08333 3.66657ZM22 5.33324C22 4.41276 21.2538 3.66657 20.3333 3.66657H17.8333C17.3731 3.66657 17 4.03967 17 4.49991C17 4.96014 17.3731 5.33324 17.8333 5.33324H20.125C20.2401 5.33324 20.3333 5.42651 20.3333 5.54157V6.79157C20.3336 6.84689 20.3117 6.90001 20.2726 6.93913C20.2334 6.97825 20.1803 7.00013 20.125 6.99991H17C16.5398 6.99991 16.1667 7.373 16.1667 7.83324C16.1667 8.29348 16.5398 8.66657 17 8.66657H20.125C20.2401 8.66657 20.3333 8.75985 20.3333 8.87491V10.5416C20.3336 10.5969 20.3117 10.65 20.2726 10.6891C20.2334 10.7282 20.1803 10.7501 20.125 10.7499H12.8333C12.3731 10.7499 12 11.123 12 11.5832C12 12.0435 12.3731 12.4166 12.8333 12.4166H14.2917C14.4067 12.4166 14.5 12.5098 14.5 12.6249V14.2916C14.5002 14.3469 14.4783 14.4 14.4392 14.4391C14.4001 14.4783 14.347 14.5001 14.2917 14.4999H13.25C12.7898 14.4999 12.4167 14.873 12.4167 15.3332C12.4167 15.7935 12.7898 16.1666 13.25 16.1666H15.3333C15.7936 16.1666 16.1667 15.7935 16.1667 15.3332V12.6249C16.1667 12.5098 16.2599 12.4166 16.375 12.4166H20.125C20.2401 12.4166 20.3333 12.5098 20.3333 12.6249V20.1249C20.3336 20.1802 20.3117 20.2333 20.2726 20.2725C20.2334 20.3116 20.1803 20.3335 20.125 20.3332H19.2917C19.2363 20.3335 19.1832 20.3116 19.1441 20.2725C19.105 20.2333 19.0831 20.1802 19.0833 20.1249V14.4999C19.0833 14.0397 18.7102 13.6666 18.25 13.6666C17.7898 13.6666 17.4167 14.0397 17.4167 14.4999V20.1249C17.4169 20.1802 17.395 20.2333 17.3559 20.2725C17.3168 20.3116 17.2637 20.3335 17.2083 20.3332H15.3333C14.8731 20.3332 14.5 20.7063 14.5 21.1666C14.5 21.6268 14.8731 21.9999 15.3333 21.9999H20.3333C21.2538 21.9999 22 21.2537 22 20.3332V5.33324Z" fill="#5A5A5A"/>
</g>
</svg>
