<?xml version="1.0" encoding="UTF-8"?>
<svg width="24px" height="24px" viewBox="0 0 24 24" version="1.1" xmlns="http://www.w3.org/2000/svg" xmlns:xlink="http://www.w3.org/1999/xlink">
    <title>7. Business and Products/maze_strategy</title>
    <g id="7.-Business-and-Products/maze_strategy" stroke="none" stroke-width="1" fill="none" fill-rule="evenodd">
        <path d="M9.08333333,3.66657151 C9.54357062,3.66657151 9.91666667,4.03966755 9.91666667,4.49990484 C9.91666667,4.96014213 9.54357062,5.33323817 9.08333333,5.33323817 L9.08333333,5.33323817 L8.45833333,5.33323817 C8.34327401,5.33323817 8.25,5.42651219 8.25,5.54157151 L8.25,5.54157151 L8.25,7.83323817 C8.25,8.29347547 7.87690396,8.66657151 7.41666667,8.66657151 L7.41666667,8.66657151 L5.75,8.66657151 C5.28976271,8.66657151 4.91666667,8.29347547 4.91666667,7.83323817 C4.91666667,7.37300088 5.28976271,6.99990484 5.75,6.99990484 L5.75,6.99990484 L6.375,6.99990484 C6.43032138,7.00012747 6.48344123,6.97824962 6.52255967,6.93913118 C6.56167811,6.90001274 6.58355596,6.84689289 6.58333333,6.79157151 L6.58333333,6.79157151 L6.58333333,5.54157151 C6.58333333,5.42651219 6.49005932,5.33323817 6.375,5.33323817 L6.375,5.33323817 L3.875,5.33323817 C3.75994068,5.33323817 3.66666667,5.42651219 3.66666667,5.54157151 L3.66666667,5.54157151 L3.66666667,10.1249048 C3.66644404,10.1802262 3.68832189,10.2333461 3.72744033,10.2724645 C3.76655877,10.311583 3.81967862,10.3334608 3.875,10.3332382 L3.875,10.3332382 L7,10.3332382 C7.46023729,10.3332382 7.83333333,10.7063342 7.83333333,11.1665715 L7.83333333,11.1665715 L7.83333333,15.3332382 C7.83333333,15.7934755 7.46023729,16.1665715 7,16.1665715 C6.53976271,16.1665715 6.16666667,15.7934755 6.16666667,15.3332382 L6.16666667,15.3332382 L6.16666667,12.2082382 C6.16666667,12.0931789 6.07339266,11.9999048 5.95833333,11.9999048 L5.95833333,11.9999048 L3.875,11.9999048 C3.75994068,11.9999048 3.66666667,12.0931789 3.66666667,12.2082382 L3.66666667,12.2082382 L3.66666667,20.1249048 C3.66644404,20.1802262 3.68832189,20.2333461 3.72744033,20.2724645 C3.76655877,20.311583 3.81967862,20.3334608 3.875,20.3332382 L3.875,20.3332382 L4.70833333,20.3332382 C4.76365472,20.3334608 4.81677456,20.311583 4.855893,20.2724645 C4.89501145,20.2333461 4.91688929,20.1802262 4.91666667,20.1249048 L4.91666667,20.1249048 L4.91666667,18.2499048 C4.91666667,17.7896676 5.28976271,17.4165715 5.75,17.4165715 C6.21023729,17.4165715 6.58333333,17.7896676 6.58333333,18.2499048 L6.58333333,18.2499048 L6.58333333,20.1249048 C6.58311071,20.1802262 6.60498855,20.2333461 6.644107,20.2724645 C6.68322544,20.311583 6.73634528,20.3334608 6.79166667,20.3332382 L6.79166667,20.3332382 L9.5,20.3332382 C9.96023729,20.3332382 10.3333333,20.7063342 10.3333333,21.1665715 C10.3333333,21.6268088 9.96023729,21.9999048 9.5,21.9999048 L9.5,21.9999048 L3.66666667,21.9999048 C2.74619208,21.9999048 2,21.2537128 2,20.3332382 L2,20.3332382 L2,5.33323817 C2,4.41276359 2.74619208,3.66657151 3.66666667,3.66657151 L3.66666667,3.66657151 Z M20.3333333,3.66657151 C21.2538079,3.66657151 22,4.41276359 22,5.33323817 L22,5.33323817 L22,20.3332382 C22,21.2537128 21.2538079,21.9999048 20.3333333,21.9999048 L20.3333333,21.9999048 L15.3333333,21.9999048 C14.873096,21.9999048 14.5,21.6268088 14.5,21.1665715 C14.5,20.7063342 14.873096,20.3332382 15.3333333,20.3332382 L15.3333333,20.3332382 L17.2083333,20.3332382 C17.2636547,20.3334608 17.3167746,20.311583 17.355893,20.2724645 C17.3950114,20.2333461 17.4168893,20.1802262 17.4166667,20.1249048 L17.4166667,20.1249048 L17.4166667,14.4999048 C17.4166667,14.0396676 17.7897627,13.6665715 18.25,13.6665715 C18.7102373,13.6665715 19.0833333,14.0396676 19.0833333,14.4999048 L19.0833333,14.4999048 L19.0833333,20.1249048 C19.0831107,20.1802262 19.1049886,20.2333461 19.144107,20.2724645 C19.1832254,20.311583 19.2363453,20.3334608 19.2916667,20.3332382 L19.2916667,20.3332382 L20.125,20.3332382 C20.1803214,20.3334608 20.2334412,20.311583 20.2725597,20.2724645 C20.3116781,20.2333461 20.333556,20.1802262 20.3333333,20.1249048 L20.3333333,20.1249048 L20.3333333,12.6249048 C20.3333333,12.5098455 20.2400593,12.4165715 20.125,12.4165715 L20.125,12.4165715 L16.375,12.4165715 C16.2599407,12.4165715 16.1666667,12.5098455 16.1666667,12.6249048 L16.1666667,12.6249048 L16.1666667,15.3332382 C16.1666667,15.7934755 15.7935706,16.1665715 15.3333333,16.1665715 L15.3333333,16.1665715 L13.25,16.1665715 C12.7897627,16.1665715 12.4166667,15.7934755 12.4166667,15.3332382 C12.4166667,14.8730009 12.7897627,14.4999049 13.25,14.4999048 L13.25,14.4999048 L14.2916667,14.4999048 C14.346988,14.5001275 14.4001079,14.4782496 14.4392263,14.4391312 C14.4783448,14.4000127 14.5002226,14.3468929 14.5,14.2915715 L14.5,14.2915715 L14.5,12.6249048 C14.5,12.5098455 14.406726,12.4165715 14.2916667,12.4165715 L14.2916667,12.4165715 L12.8333333,12.4165715 C12.373096,12.4165715 12,12.0434755 12,11.5832382 C12,11.1230009 12.373096,10.7499048 12.8333333,10.7499048 L12.8333333,10.7499048 L20.125,10.7499048 C20.1803214,10.7501275 20.2334412,10.7282496 20.2725597,10.6891312 C20.3116781,10.6500127 20.333556,10.5968929 20.3333333,10.5415715 L20.3333333,10.5415715 L20.3333333,8.87490484 C20.3333333,8.75984552 20.2400593,8.66657151 20.125,8.66657151 L20.125,8.66657151 L17,8.66657151 C16.5397627,8.66657151 16.1666667,8.29347547 16.1666667,7.83323817 C16.1666667,7.37300088 16.5397627,6.99990484 17,6.99990484 L17,6.99990484 L20.125,6.99990484 C20.1803214,7.00012747 20.2334412,6.97824962 20.2725597,6.93913118 C20.3116781,6.90001274 20.333556,6.84689289 20.3333333,6.79157151 L20.3333333,6.79157151 L20.3333333,5.54157151 C20.3333333,5.42651219 20.2400593,5.33323817 20.125,5.33323817 L20.125,5.33323817 L17.8333333,5.33323817 C17.373096,5.33323817 17,4.96014213 17,4.49990484 C17,4.03966755 17.373096,3.66657151 17.8333333,3.66657151 L17.8333333,3.66657151 Z M13.25,2.00009516 C13.4372666,2.00009516 13.615362,2.08117157 13.7383333,2.22240484 L13.7383333,2.22240484 L15.405,4.30573817 C15.554849,4.49339142 15.5839296,4.75030638 15.4798161,4.96670609 C15.3757026,5.1831058 15.1568092,5.32071632 14.9166667,5.32073817 L14.9166667,5.32073817 L14.2916667,5.32073817 C14.1767971,5.32119492 14.0837901,5.41420191 14.0833333,5.52907151 L14.0833333,5.52907151 L14.0833333,8.66657151 C14.0833333,9.1268088 13.7102373,9.49990484 13.25,9.49990484 L13.25,9.49990484 L10.9583333,9.49990484 C10.843274,9.49990484 10.75,9.59317885 10.75,9.70823817 L10.75,9.70823817 L10.75,16.7915715 C10.7497774,16.8468929 10.7716552,16.9000127 10.8107737,16.9391312 C10.8498921,16.9782496 10.903012,17.0001275 10.9583333,16.9999048 L10.9583333,16.9999048 L12.4166667,16.9999048 C12.876904,16.9999048 13.25,17.3730009 13.25,17.8332382 L13.25,17.8332382 L13.25,21.1665715 C13.25,21.6268088 12.876904,21.9999048 12.4166667,21.9999048 C11.9564294,21.9999048 11.5833333,21.6268088 11.5833333,21.1665715 L11.5833333,21.1665715 L11.5833333,18.8749048 C11.5833333,18.7598455 11.4900593,18.6665715 11.375,18.6665715 L11.375,18.6665715 L9.91666667,18.6665715 C9.45642938,18.6665715 9.08333333,18.2934755 9.08333333,17.8332382 L9.08333333,17.8332382 L9.08333333,8.66657151 C9.08333333,8.20633422 9.45642938,7.83323817 9.91666667,7.83323817 L9.91666667,7.83323817 L12.2083333,7.83323817 C12.2636547,7.8334608 12.3167746,7.81158295 12.355893,7.77246451 C12.3950114,7.73334607 12.4168893,7.68022622 12.4166667,7.62490484 L12.4166667,7.62490484 L12.4166667,5.52907151 C12.4162099,5.41420191 12.3232029,5.32119492 12.2083333,5.32073817 L12.2083333,5.32073817 L11.5833333,5.32073817 C11.3431908,5.32071632 11.1242974,5.1831058 11.0201839,4.96670609 C10.9160704,4.75030638 10.945151,4.49339142 11.095,4.30573817 L11.095,4.30573817 L12.7616667,2.22240484 C12.884638,2.08117157 13.0627334,2.00009516 13.25,2.00009516 Z" id="ðŸ–-Color" fill="#5A5A5A"></path>
        <rect id="_Transparent_Rectangle_" x="0" y="0" width="24" height="24"></rect>
    </g>
</svg>