<?xml version="1.0" encoding="UTF-8"?>
<svg width="24px" height="24px" viewBox="0 0 24 24" version="1.1" xmlns="http://www.w3.org/2000/svg" xmlns:xlink="http://www.w3.org/1999/xlink">
    <title>7. Business and Products/optimization_plane</title>
    <g id="7.-Business-and-Products/optimization_plane" stroke="none" stroke-width="1" fill="none" fill-rule="evenodd">
        <path d="M20.2787169,14.5303494 C20.3638513,14.5303494 20.4404109,14.5843385 20.4720809,14.6666557 L20.4720809,14.6666557 L21.8931397,18.3712364 C22.0624184,18.809925 22.0292434,19.3052461 21.8031254,19.7151996 C21.5818409,20.1284787 21.1647191,20.3863295 20.7104521,20.3906539 L20.7104521,20.3906539 L3.29102227,20.3906539 C2.83653217,20.3863342 2.41928856,20.1280765 2.19834894,19.7143314 C1.97141202,19.3047865 1.93731451,18.809451 2.10583427,18.3703682 L2.10583427,18.3703682 L3.52272569,14.6666557 C3.55439569,14.5843385 3.63095528,14.5303494 3.71608969,14.5303494 L3.71608969,14.5303494 Z M7.41334283,16.2667359 L6.16314452,16.2667359 C5.81791179,16.2667359 5.53804536,16.5582634 5.53804536,16.9178808 C5.53804536,17.2774983 5.81791179,17.5690258 6.16314452,17.5690258 L6.16314452,17.5690258 L7.41334283,17.5690258 C7.75857556,17.5690258 8.03844198,17.2774983 8.03844198,16.9178808 C8.03844198,16.5582634 7.75857556,16.2667359 7.41334283,16.2667359 L7.41334283,16.2667359 Z M17.9875201,10.4055629 C18.5180728,10.415265 18.9887417,10.7625611 19.1735416,11.2807019 L19.1735416,11.2807019 L19.8061419,12.9302692 C19.8318682,12.9971373 19.8240684,13.0729444 19.7853227,13.1326148 C19.746577,13.1922851 19.6819345,13.2280594 19.6127779,13.2280594 L19.6127779,13.2280594 L4.38202866,13.2280594 C4.31290459,13.2278718 4.24833184,13.192128 4.20950129,13.1325582 C4.17132598,13.0726939 4.16355052,12.9972071 4.18866465,12.9302692 L4.18866465,12.9302692 L4.82209846,11.2807019 C4.89543893,11.0879206 5.0077161,10.91382 5.15131735,10.7702043 C5.17500959,10.7465131 5.20130732,10.7258223 5.22966311,10.7085626 C5.28637595,10.6748929 5.34480484,10.6444612 5.40469088,10.6174023 C5.47169359,10.5863075 5.54941546,10.5938769 5.6097234,10.6373707 L5.6097234,10.6373707 L7.32999627,11.8953828 C7.75748868,12.2094892 8.32412493,12.2259134 8.76772433,11.9370561 L8.76772433,11.9370561 L11.0839251,10.4385545 C11.1168653,10.4169429 11.1550131,10.4055034 11.1939425,10.4055629 L11.1939425,10.4055629 Z M7.31166003,3.60934607 C7.34977142,3.60943559 7.38757235,3.616488 7.42334441,3.63018283 L7.42334441,3.63018283 L12.1966016,5.48203908 C12.2602571,5.50652889 12.3313494,5.49747419 12.3874652,5.45772967 L12.3874652,5.45772967 L14.5544756,3.91755481 C14.8434488,3.71106737 15.2019486,3.63933722 15.5437992,3.71960674 C15.9915489,3.82813263 16.3548018,4.16786312 16.5064519,4.61992316 C16.5558372,4.76279183 16.5812126,4.91345845 16.5814638,5.06530631 C16.5899185,5.54918617 16.355097,6.00251346 15.9621989,6.26080845 L15.9621989,6.26080845 L8.32598759,11.1990918 C8.25106641,11.2479409 8.16433315,11.2735392 8.07594793,11.2729003 C7.97925533,11.2734969 7.88471055,11.243194 7.80507163,11.1860689 L7.80507163,11.1860689 L5.00629435,9.13973733 C4.95264914,9.09494373 4.91835508,9.02972554 4.911003,8.95851854 C4.90365091,8.88731153 4.92384719,8.81598864 4.96712147,8.76033687 C4.97992814,8.74337872 4.99477435,8.7282057 5.01129514,8.71519082 L5.01129514,8.71519082 L5.87059811,7.96507184 C5.91758476,7.9250474 5.97659884,7.90353185 6.03729122,7.90429831 L6.03729122,7.90429831 L6.05896132,7.90429831 C6.09042988,7.90708535 6.12090111,7.91717123 6.14814214,7.93381688 L6.14814214,7.93381688 L7.47668621,8.75860049 C7.54894313,8.80346399 7.64000991,8.79866956 7.70755616,8.74644578 L7.70755616,8.74644578 L9.53201223,7.33563172 C9.58726138,7.29276379 9.61848768,7.22413098 9.61535879,7.15244294 C9.61165558,7.08134066 9.57496589,7.01656367 9.51700985,6.97880428 L9.51700985,6.97880428 L6.23982335,4.86562186 C6.17465467,4.8081773 6.13414763,4.72604987 6.12726514,4.63741172 C6.12038265,4.54877357 6.14769212,4.46093243 6.20315086,4.39332472 C6.21850583,4.37457153 6.2358401,4.35767994 6.25482573,4.34296951 L6.25482573,4.34296951 L7.11996296,3.67532888 C7.17538229,3.63242281 7.24261004,3.60934607 7.31166003,3.60934607 Z" id="ðŸ–-Color" fill="#5A5A5A"></path>
        <rect id="_Transparent_Rectangle_" x="0" y="0" width="24" height="24"></rect>
    </g>
</svg>