<?xml version="1.0" encoding="UTF-8"?>
<svg width="24px" height="24px" viewBox="0 0 24 24" version="1.1" xmlns="http://www.w3.org/2000/svg" xmlns:xlink="http://www.w3.org/1999/xlink">
    <title>7. Business and Products/optimization_clock</title>
    <g id="7.-Business-and-Products/optimization_clock" stroke="none" stroke-width="1" fill="none" fill-rule="evenodd">
        <path d="M14.7082489,11.1666667 C17.6997913,11.1666667 20.1249156,13.5917909 20.1249156,16.5833333 C20.1249156,19.5748757 17.6997913,22 14.7082489,22 C11.7182294,21.9963268 9.2952555,19.5733529 9.29158225,16.5833333 C9.29158225,13.5917909 11.7167065,11.1666667 14.7082489,11.1666667 Z M14.7082489,12.625 C14.363071,12.625 14.0832489,12.904822 14.0832489,13.25 L14.0832489,13.25 L14.0832489,16.5833333 C14.0832489,16.9285113 14.363071,17.2083333 14.7082489,17.2083333 L14.7082489,17.2083333 L17.2082489,17.2083333 C17.5534269,17.2083333 17.8332489,16.9285113 17.8332489,16.5833333 C17.8332489,16.2381554 17.5534269,15.9583333 17.2082489,15.9583333 L17.2082489,15.9583333 L15.5415823,15.9583333 C15.4265229,15.9583333 15.3332489,15.8650593 15.3332489,15.75 L15.3332489,15.75 L15.3332489,13.25 C15.3332489,12.904822 15.0534269,12.625 14.7082489,12.625 Z M18.4582489,2 C19.8389608,2 20.9582489,3.11928813 20.9582489,4.5 L20.9582489,4.5 L20.9582489,8.66666667 C20.9582489,9.12690396 20.5851529,9.5 20.1249156,9.5 C19.6646783,9.5 19.2915823,9.12690396 19.2915823,8.66666667 L19.2915823,8.66666667 L19.2915823,6.375 C19.2915823,6.25994068 19.1983082,6.16666667 19.0832489,6.16666667 L19.0832489,6.16666667 L4.49991559,6.16666667 C4.38485626,6.16666667 4.29158225,6.25994068 4.29158225,6.375 L4.29158225,6.375 L4.29158225,14.0833333 C4.29158225,14.5435706 4.6646783,14.9166667 5.12491559,14.9166667 L5.12491559,14.9166667 L7.20824892,14.9166667 C7.66848621,14.9166667 8.04158225,15.2897627 8.04158225,15.75 C8.04158225,16.2102373 7.66848621,16.5833333 7.20824892,16.5833333 L7.20824892,16.5833333 L5.12491559,16.5833333 C3.74420371,16.5833333 2.62491559,15.4640452 2.62491559,14.0833333 L2.62491559,14.0833333 L2.62491559,4.5 C2.62491559,3.11928813 3.74420371,2 5.12491559,2 L5.12491559,2 Z M10.3690823,9.74416667 C10.6944988,9.41884838 11.221999,9.41884838 11.5474156,9.74416667 C11.7038965,9.90047355 11.7918211,10.1125756 11.7918211,10.33375 C11.7918211,10.5549244 11.7038965,10.7670265 11.5474156,10.9233333 L11.5474156,10.9233333 L9.46408225,13.0066667 C9.13846437,13.3320544 8.61072002,13.3318679 8.28533225,13.00625 C7.95994449,12.6806321 7.96013104,12.1528878 8.28574892,11.8275 L8.28574892,11.8275 Z M18.2422381,9.52872502 C18.5298458,9.45155179 18.8367778,9.53367768 19.0474156,9.74416667 L19.0474156,9.74416667 L21.1307489,11.8275 C21.4563668,12.1528878 21.4565533,12.6806321 21.1311656,13.00625 C20.8057778,13.3318679 20.2780335,13.3320544 19.9524156,13.0066667 L19.9524156,13.0066667 L17.8690823,10.9233333 C17.6584444,10.7128444 17.5761015,10.4059706 17.6530714,10.1183084 C17.7300413,9.83064615 17.9546304,9.60589825 18.2422381,9.52872502 Z M5.74991559,3.66666667 C5.40473762,3.66666667 5.12491559,3.9464887 5.12491559,4.29166667 C5.12491559,4.63684464 5.40473762,4.91666722 5.74991559,4.91666722 C5.91574371,4.91688821 6.07484366,4.85111134 6.19210196,4.73385304 C6.30936026,4.61659474 6.37513714,4.45749479 6.37491615,4.29166667 C6.37491615,3.9464887 6.09509356,3.66666667 5.74991559,3.66666667 Z M7.83324892,3.66666667 C7.48807095,3.66666667 7.20824892,3.9464887 7.20824892,4.29166667 C7.20824892,4.63684464 7.48807095,4.91666722 7.83324892,4.91666722 C7.99907705,4.91688821 8.158177,4.85111134 8.27543529,4.73385304 C8.39269359,4.61659474 8.45847047,4.45749479 8.45824948,4.29166667 C8.45824948,3.9464887 8.17842689,3.66666667 7.83324892,3.66666667 Z M9.91658225,3.66666667 C9.57140429,3.66666667 9.29158225,3.9464887 9.29158225,4.29166667 C9.29158225,4.63684464 9.57140429,4.91666722 9.91658225,4.91666722 C10.0824104,4.91688821 10.2415103,4.85111134 10.3587686,4.73385304 C10.4760269,4.61659474 10.5418038,4.45749479 10.5415828,4.29166667 C10.5415828,3.9464887 10.2617602,3.66666667 9.91658225,3.66666667 Z" id="ðŸ–-Color" fill="#5A5A5A"></path>
        <rect id="_Transparent_Rectangle_" x="0" y="0" width="24" height="24"></rect>
    </g>
</svg>