<svg width="24" height="24" viewBox="0 0 24 24" fill="none" xmlns="http://www.w3.org/2000/svg">
<g id="optimization_graph_line">
<path id="Shape" fill-rule="evenodd" clip-rule="evenodd" d="M21.27 10.3588L19.825 10.1852C19.7409 10.1749 19.6717 10.1167 19.65 10.038C19.4698 9.39334 19.2011 8.77457 18.8508 8.198C18.8084 8.12741 18.8147 8.03923 18.8667 7.9748L19.7625 6.8684C20.0205 6.54999 19.9913 6.09694 19.6942 5.8116L18.4442 4.6116C18.1469 4.3264 17.675 4.29827 17.3433 4.546L16.1942 5.4068C16.1271 5.4569 16.0351 5.46291 15.9617 5.422C15.3611 5.08596 14.7165 4.82822 14.045 4.6556C13.9628 4.63466 13.9021 4.56784 13.8917 4.4868L13.7092 3.0996C13.6571 2.69933 13.3027 2.39892 12.8825 2.3988H11.1175C10.6973 2.39892 10.3429 2.69933 10.2908 3.0996L10.11 4.4868C10.0996 4.56784 10.0389 4.63466 9.95667 4.6556C9.28516 4.82822 8.6406 5.08596 8.04 5.422C7.96652 5.46291 7.87452 5.4569 7.8075 5.4068L6.65333 4.546C6.3216 4.29896 5.85022 4.32742 5.55333 4.6124L4.30333 5.8124C4.00576 6.09785 3.97645 6.55144 4.235 6.87L5.13333 7.9732C5.18529 8.03763 5.19155 8.12581 5.14917 8.1964C4.7989 8.77297 4.53015 9.39174 4.35 10.0364C4.3283 10.1151 4.2591 10.1733 4.175 10.1836L2.73083 10.3588C2.31355 10.4085 2.00017 10.7487 2 11.1524V12.846C2.00012 13.2494 2.31305 13.5896 2.73 13.6396L4.175 13.8132C4.25907 13.823 4.32842 13.881 4.35 13.9596C4.53015 14.6043 4.7989 15.223 5.14917 15.7996C5.19155 15.8702 5.18529 15.9584 5.13333 16.0228L4.2375 17.1316C3.97945 17.45 4.00874 17.9031 4.30583 18.1884L5.55583 19.3884C5.85306 19.6736 6.32498 19.7017 6.65667 19.454L7.80917 18.594C7.87619 18.5439 7.96818 18.5379 8.04167 18.5788C8.64237 18.9147 9.2869 19.1724 9.95833 19.3452C10.0404 19.3658 10.1011 19.4324 10.1117 19.5132L10.2925 20.9012C10.345 21.3012 10.6993 21.6011 11.1192 21.6012H12.8842C13.3041 21.6011 13.6583 21.3012 13.7108 20.9012L13.8917 19.5132C13.9022 19.4324 13.9629 19.3658 14.045 19.3452C14.7164 19.1724 15.361 18.9147 15.9617 18.5788C16.0351 18.5379 16.1271 18.5439 16.1942 18.594L17.3467 19.4548C17.6784 19.7018 18.1498 19.6734 18.4467 19.3884L19.6967 18.1884C19.9942 17.903 20.0235 17.4494 19.765 17.1308L18.8667 16.0252C18.8147 15.9608 18.8084 15.8726 18.8508 15.802C19.2011 15.2254 19.4698 14.6067 19.65 13.962C19.6716 13.8834 19.7409 13.8254 19.825 13.8156L21.27 13.642C21.6879 13.5919 22.0011 13.2503 22 12.846V11.1524C21.9999 10.749 21.6869 10.4088 21.27 10.3588ZM12 17.5772C8.77834 17.5772 6.16667 15.07 6.16667 11.9772C6.16667 8.88441 8.77834 6.3772 12 6.3772C15.2217 6.3772 17.8333 8.88441 17.8333 11.9772C17.8333 15.07 15.2217 17.5772 12 17.5772ZM13.4892 11.6788L15.21 10.2132L15.2133 10.21C15.5585 9.91663 16.0861 9.94743 16.3917 10.2788C16.6973 10.6102 16.6652 11.1166 16.32 11.41L14.3625 13.0772C14.103 13.2929 13.7732 13.4148 13.43 13.422C13.0923 13.4323 12.7603 13.3368 12.4842 13.15L11.3458 12.3412C11.2668 12.2846 11.1572 12.2889 11.0833 12.3516L9.22 13.9372C8.99842 14.1334 8.68375 14.1994 8.39713 14.1098C8.1105 14.0203 7.8966 13.7891 7.83775 13.5053C7.7789 13.2215 7.88428 12.9293 8.11333 12.7412L10.2108 10.9524C10.4703 10.7366 10.8001 10.6147 11.1433 10.6076C11.4806 10.5976 11.8121 10.6927 12.0883 10.8788L13.2275 11.6892C13.3063 11.7457 13.4155 11.7413 13.4892 11.6788Z" fill="#5A5A5A"/>
</g>
</svg>
