<?xml version="1.0" encoding="UTF-8"?>
<svg width="24px" height="24px" viewBox="0 0 24 24" version="1.1" xmlns="http://www.w3.org/2000/svg" xmlns:xlink="http://www.w3.org/1999/xlink">
    <title>7. Business and Products/optimization_graph_line</title>
    <g id="7.-Business-and-Products/optimization_graph_line" stroke="none" stroke-width="1" fill="none" fill-rule="evenodd">
        <path d="M12.8824967,2.3988015 C13.3026876,2.3988015 13.6570596,2.6993314 13.7091633,3.09960139 L13.7091633,3.09960139 L13.8916633,4.48680117 C13.9020875,4.56784135 13.9627833,4.63465958 14.0449966,4.65560115 C14.7165043,4.82821965 15.3610633,5.08595358 15.9616629,5.42200103 C16.0351436,5.46291064 16.1271379,5.45689639 16.1941629,5.40680103 L16.1941629,5.40680103 L17.3433294,4.54600116 C17.6750126,4.29827224 18.1469393,4.32639492 18.4441625,4.61160115 L18.4441625,4.61160115 L19.6941623,5.81160097 C19.9912522,6.09693532 20.0205466,6.54998493 19.7624957,6.8684008 L19.7624957,6.8684008 L18.8666625,7.97480063 C18.8147026,8.03922613 18.8084472,8.12740736 18.8508291,8.19800059 C19.2010969,8.77456852 19.4698467,9.39333752 19.6499957,10.0380003 C19.671695,10.1166803 19.7408966,10.1748887 19.8249957,10.1852003 L19.8249957,10.1852003 L21.2699954,10.3588003 C21.6869433,10.4088198 21.9999984,10.7490169 21.9999984,11.1524001 L21.9999984,11.1524001 L21.9999984,12.8459999 C22.0011397,13.2502972 21.68789,13.5918682 21.2699954,13.6419997 L21.2699954,13.6419997 L19.8249957,13.8155997 C19.7409279,13.8253719 19.6715765,13.8833894 19.6499957,13.9619997 C19.4698467,14.6066625 19.2010969,15.2254315 18.8508291,15.8019994 C18.8084472,15.8725926 18.8147026,15.9607739 18.8666625,16.0251994 L18.8666625,16.0251994 L19.7649957,17.1307992 C20.0235428,17.4493587 19.9942353,17.9029543 19.6966623,18.188399 L19.6966623,18.188399 L18.4466625,19.3883988 C18.1497721,19.6733869 17.6784004,19.7018406 17.3466627,19.4547988 L17.3466627,19.4547988 L16.1941629,18.593999 C16.1271379,18.5439036 16.0351436,18.5378894 15.9616629,18.578799 C15.3609619,18.9146506 14.7164308,19.1723734 14.0449966,19.3451989 C13.9629119,19.3658343 13.9021856,19.4323693 13.8916633,19.5131988 L13.8916633,19.5131988 L13.7108299,20.9011986 C13.6583411,21.3011512 13.3040741,21.6011985 12.8841634,21.6011985 L12.8841634,21.6011985 L11.1191637,21.6011985 C10.699253,21.6011985 10.344986,21.3011512 10.2924971,20.9011986 L10.2924971,20.9011986 L10.1116638,19.5131988 C10.1011415,19.4323693 10.0404152,19.3658343 9.95833054,19.3451989 C9.28689627,19.1723734 8.64236517,18.9146506 8.04166417,18.578799 C7.96818346,18.5378894 7.87618921,18.5439036 7.8091642,18.593999 L7.8091642,18.593999 L6.65666438,19.4539988 L6.55326707,19.5200607 C6.23234289,19.6935324 5.82333218,19.6450845 5.55583122,19.3883988 L5.55583122,19.3883988 L4.30583142,18.188399 C4.00874159,17.9030647 3.97944713,17.4500151 4.2374981,17.1315992 L4.2374981,17.1315992 L5.13333129,16.0227994 C5.18529118,15.9583739 5.19154657,15.8701926 5.14916462,15.7995994 C4.79889683,15.2230315 4.53014707,14.6042625 4.34999808,13.9595997 C4.3284173,13.8809894 4.25906584,13.8229719 4.17499811,13.8131997 L4.17499811,13.8131997 L2.72999833,13.6395997 C2.31305043,13.5895802 1.99999845,13.2493831 1.99999845,12.8459999 L1.99999845,12.8459999 L1.99999845,11.1524001 C1.99999845,10.7487477 2.31355312,10.4084495 2.73083166,10.3588003 L2.73083166,10.3588003 L4.17499811,10.1836003 C4.25909713,10.1732887 4.32829875,10.1150803 4.34999808,10.0364003 C4.53014707,9.39173752 4.79889683,8.77296852 5.14916462,8.19640059 C5.19154657,8.12580736 5.18529118,8.03762614 5.13333129,7.97320063 L5.13333129,7.97320063 L4.2349981,6.8700008 C3.97645092,6.55144131 4.00575851,6.09784565 4.30333142,5.81240097 L4.30333142,5.81240097 L5.55333122,4.61240115 C5.85022162,4.32741314 6.32159338,4.29895943 6.65333105,4.54600116 L6.65333105,4.54600116 L7.80749754,5.40680103 C7.87452255,5.45689639 7.9665168,5.46291064 8.0399975,5.42200103 C8.64059717,5.08595358 9.28515618,4.82821965 9.95666387,4.65560115 C10.0388771,4.63465958 10.0995729,4.56784135 10.1099972,4.48680117 L10.1099972,4.48680117 L10.2908305,3.09960139 C10.3429341,2.6993314 10.6973062,2.3988015 11.117497,2.3988015 L11.117497,2.3988015 Z M11.9999969,6.37720088 C8.77833635,6.37720088 6.16666446,8.88440589 6.16666446,11.9772 C6.16666446,15.0699941 8.77833635,17.5771991 11.9999969,17.5771991 C15.2216574,17.5771991 17.8333293,15.0699941 17.8333293,11.9772 C17.8333293,8.88440589 15.2216574,6.37720088 11.9999969,6.37720088 Z M15.2133297,10.2100003 C15.5585076,9.91662667 16.0860653,9.94742947 16.3916629,10.2788003 C16.6972604,10.6101711 16.6651741,11.1166265 16.3199962,11.4100001 L16.3199962,11.4100001 L14.3624965,13.0771998 C14.1029575,13.292849 13.7731655,13.4147925 13.4299967,13.4219998 C13.0923264,13.4322658 12.7603426,13.3367948 12.4841635,13.1499998 L12.4841635,13.1499998 L11.3458303,12.3411999 C11.2667936,12.2845898 11.1572393,12.2889302 11.0833304,12.3515999 L11.0833304,12.3515999 L9.21999732,13.9371997 C8.99841448,14.1333749 8.68375148,14.1993866 8.39712615,14.1098258 C8.11050082,14.0202651 7.89659683,13.7890942 7.83774858,13.5052937 C7.77890032,13.2214932 7.88428199,12.9293065 8.11333082,12.7411999 L8.11333082,12.7411999 L10.2108305,10.9524002 C10.4702963,10.736634 10.8001341,10.6146736 11.1433304,10.6076002 C11.4805849,10.5975659 11.8121457,10.6927186 12.0883302,10.8788002 L12.0883302,10.8788002 L13.2274967,11.6892 C13.3062697,11.7456857 13.4155236,11.7413434 13.4891633,11.6788001 L13.4891633,11.6788001 L15.2099964,10.2132003 Z" id="ðŸ–-Color" fill="#5A5A5A"></path>
        <rect id="_Transparent_Rectangle_" x="0" y="0" width="24" height="24"></rect>
    </g>
</svg>