<?xml version="1.0" encoding="UTF-8"?>
<svg width="24px" height="24px" viewBox="0 0 24 24" version="1.1" xmlns="http://www.w3.org/2000/svg" xmlns:xlink="http://www.w3.org/1999/xlink">
    <title>7. Business and Products/optimization_timer_2</title>
    <g id="7.-Business-and-Products/optimization_timer_2" stroke="none" stroke-width="1" fill="none" fill-rule="evenodd">
        <path d="M18.0726051,8.66457904 C18.5518688,8.66457904 18.9403889,9.03755824 18.9403889,9.49765141 C18.9403889,9.95774459 18.5518688,10.3307238 18.0726051,10.3307238 L18.0726051,10.3307238 L16.9948177,10.3307238 C16.8750018,10.3307238 16.7778718,10.4239686 16.7778718,10.5389919 L16.7778718,10.5389919 L16.7778718,11.0596621 C16.7778508,11.1586454 16.8504041,11.2439682 16.9514285,11.2637649 C19.8129787,11.7815707 21.7936205,14.3053796 21.5227556,17.0887229 C21.2518907,19.8720663 18.818558,22 15.9066169,22 C12.9946758,22 10.5613432,19.8720663 10.2904783,17.0887229 C10.0196134,14.3053796 12.0002552,11.7815707 14.8618053,11.2637649 C14.9630156,11.2442639 15.0357222,11.1587611 15.0353621,11.0596621 L15.0353621,11.0596621 L15.0353621,10.5389919 C15.0353621,10.4239686 14.9382321,10.3307238 14.8184161,10.3307238 L14.8184161,10.3307238 L13.7336865,10.3307238 C13.2544228,10.3307238 12.8659028,9.95774459 12.8659028,9.49765141 C12.8659028,9.03755824 13.2544228,8.66457904 13.7336865,8.66457904 L13.7336865,8.66457904 Z M15.9031458,13.038209 C15.543698,13.038209 15.252308,13.3179434 15.252308,13.6630133 L15.252308,13.6630133 L15.252308,16.5787666 C15.252308,16.9238365 15.543698,17.2035709 15.9031458,17.2035709 L15.9031458,17.2035709 L17.6387133,17.2035709 C17.9981611,17.2035709 18.2895511,16.9238365 18.2895511,16.5787666 C18.2895511,16.2336968 17.9981611,15.9539624 17.6387133,15.9539624 L17.6387133,15.9539624 L16.7709295,15.9539624 C16.6511136,15.9539624 16.5539836,15.8607176 16.5539836,15.7456943 L16.5539836,15.7456943 L16.5539836,13.6630133 C16.5539836,13.3179434 16.2625936,13.038209 15.9031458,13.038209 Z M18.9403889,2 C20.37818,2 21.54374,3.11893763 21.54374,4.49921714 L21.54374,4.49921714 L21.54374,11.1637962 C21.54374,11.6238893 21.15522,11.9968686 20.6759563,11.9968686 C20.1966926,11.9968686 19.8081726,11.6238893 19.8081726,11.1637962 L19.8081726,11.1637962 L19.8081726,6.37362999 C19.8081726,6.2586067 19.7110426,6.1653619 19.5912267,6.1653619 L19.5912267,6.1653619 L4.4050114,6.1653619 C4.28519547,6.1653619 4.18806547,6.2586067 4.18806547,6.37362999 L4.18806547,6.37362999 L4.18806547,14.0795495 C4.18806547,14.5396427 4.57658548,14.9126219 5.0558492,14.9126219 L5.0558492,14.9126219 L8.52698411,14.9126219 C9.00624783,14.9126219 9.39476784,15.2856011 9.39476784,15.7456943 C9.39476784,16.2057874 9.00624783,16.5787666 8.52698411,16.5787666 L8.52698411,16.5787666 L5.0558492,16.5787666 C3.61805804,16.5787666 2.45249801,15.459829 2.45249801,14.0795495 L2.45249801,14.0795495 L2.45249801,4.49921714 C2.45249801,3.11893763 3.61805804,2 5.0558492,2 L5.0558492,2 Z M5.70668699,3.66614476 C5.34723921,3.66614476 5.0558492,3.94587917 5.0558492,4.29094904 C5.0558492,4.63601892 5.34723921,4.91575389 5.70668699,4.91575389 C5.87937053,4.91597481 6.04504775,4.85021853 6.16715356,4.73299695 C6.28925937,4.61577537 6.3577555,4.45672524 6.35752537,4.29094904 C6.35752537,3.94587917 6.06613478,3.66614476 5.70668699,3.66614476 Z M7.87614632,3.66614476 C7.51669853,3.66614476 7.22530852,3.94587917 7.22530852,4.29094904 C7.22530852,4.63601892 7.51669853,4.91575389 7.87614632,4.91575389 C8.04882985,4.91597481 8.21450707,4.85021853 8.33661288,4.73299695 C8.45871869,4.61577537 8.52721482,4.45672524 8.52698469,4.29094904 C8.52698469,3.94587917 8.23559411,3.66614476 7.87614632,3.66614476 Z M10.0456056,3.66614476 C9.68615785,3.66614476 9.39476784,3.94587917 9.39476784,4.29094904 C9.39476784,4.63601892 9.68615785,4.91575389 10.0456056,4.91575389 C10.2182892,4.91597481 10.3839664,4.85021853 10.5060722,4.73299695 C10.628178,4.61577537 10.6966741,4.45672524 10.696444,4.29094904 C10.696444,3.94587917 10.4050534,3.66614476 10.0456056,3.66614476 Z" id="ðŸ–-Color" fill="#5A5A5A"></path>
        <rect id="_Transparent_Rectangle_" x="0" y="0" width="24" height="24"></rect>
    </g>
</svg>