<svg width="24" height="24" viewBox="0 0 24 24" fill="none" xmlns="http://www.w3.org/2000/svg">
<g id="optimization_timer_1">
<path id="Shape" fill-rule="evenodd" clip-rule="evenodd" d="M4.5 2.39795H19.5C20.8807 2.39795 22 3.47247 22 4.79795V16.7979C22 18.1234 20.8807 19.1979 19.5 19.1979C19.0398 19.1979 18.6667 18.8398 18.6667 18.3979C18.6667 17.9561 19.0398 17.5979 19.5 17.5979C19.9602 17.5979 20.3333 17.2398 20.3333 16.7979V8.39795C20.3333 8.17704 20.1468 7.99795 19.9167 7.99795H4.08333C3.85321 7.99795 3.66667 8.17704 3.66667 8.39795V16.7979C3.66667 17.2398 4.03976 17.5979 4.5 17.5979C4.96024 17.5979 5.33333 17.9561 5.33333 18.3979C5.33333 18.8398 4.96024 19.1979 4.5 19.1979C3.11929 19.1979 2 18.1234 2 16.7979V4.79795C2 3.47247 3.11929 2.39795 4.5 2.39795ZM4.5 5.19795C4.5 5.63978 4.8731 5.99795 5.33333 5.99795C5.55435 5.99795 5.76631 5.91366 5.92259 5.76363C6.07887 5.61361 6.16667 5.41012 6.16667 5.19795C6.16667 4.75612 5.79357 4.39795 5.33333 4.39795C4.8731 4.39795 4.5 4.75612 4.5 5.19795ZM7.83333 5.99795C7.3731 5.99795 7 5.63978 7 5.19795C7 4.75612 7.3731 4.39795 7.83333 4.39795C8.29357 4.39795 8.66667 4.75612 8.66667 5.19795C8.66667 5.41012 8.57887 5.61361 8.42259 5.76363C8.26631 5.91366 8.05435 5.99795 7.83333 5.99795ZM9.5 5.19795C9.5 5.63978 9.8731 5.99795 10.3333 5.99795C10.5543 5.99795 10.7663 5.91366 10.9226 5.76363C11.0789 5.61361 11.1667 5.41012 11.1667 5.19795C11.1667 4.75612 10.7936 4.39795 10.3333 4.39795C9.8731 4.39795 9.5 4.75612 9.5 5.19795ZM10.43 21.3784C8.14428 20.7139 6.58164 18.6907 6.58333 16.3979C6.58205 15.1907 7.02005 14.0209 7.82166 13.0907C7.88995 13.0115 7.88417 12.8954 7.80833 12.8227L7.39166 12.4227C7.22912 12.2722 7.16385 12.0491 7.22094 11.8393C7.27804 11.6295 7.44861 11.4656 7.6671 11.4106C7.88559 11.3556 8.118 11.418 8.275 11.5739L8.755 12.0347C8.82521 12.1019 8.93499 12.1123 9.0175 12.0595C9.67402 11.6414 10.4182 11.367 11.1975 11.2555C11.2994 11.2409 11.3749 11.1569 11.375 11.0579V10.7979C11.375 10.6875 11.2817 10.5979 11.1667 10.5979H10.7492C10.404 10.5979 10.1242 10.3293 10.1242 9.99795C10.1242 9.66658 10.404 9.39795 10.7492 9.39795H13.2492C13.5943 9.39795 13.8742 9.66658 13.8742 9.99795C13.8742 10.3293 13.5943 10.5979 13.2492 10.5979H12.8325C12.7174 10.5979 12.6242 10.6875 12.6242 10.7979V11.0587C12.6243 11.1577 12.6997 11.2417 12.8017 11.2563C13.5808 11.3681 14.325 11.6426 14.9817 12.0603C15.0642 12.1131 15.174 12.1027 15.2442 12.0355L15.7242 11.5747C15.9695 11.3475 16.3593 11.3509 16.6003 11.5825C16.8413 11.814 16.8445 12.1882 16.6075 12.4235L16.1908 12.8235C16.115 12.8962 16.1092 13.0123 16.1775 13.0915C17.6977 14.8598 17.8323 17.3752 16.5087 19.2836C15.1851 21.1919 12.7157 22.0429 10.43 21.3784ZM15.75 16.3979C15.75 14.4097 14.0711 12.7979 12 12.7979C9.92988 12.8002 8.25229 14.4106 8.25 16.3979C8.25 18.3862 9.92893 19.9979 12 19.9979C14.0711 19.9979 15.75 18.3862 15.75 16.3979ZM12.4417 16.8227C12.3246 16.9352 12.1656 16.9983 12 16.9979C11.7474 16.9977 11.5197 16.8516 11.4231 16.6275C11.3265 16.4034 11.3798 16.1455 11.5583 15.9739L12.8083 14.7739C12.9653 14.618 13.1977 14.5556 13.4162 14.6106C13.6347 14.6656 13.8053 14.8295 13.8624 15.0393C13.9195 15.2491 13.8542 15.4722 13.6917 15.6227L12.4417 16.8227Z" fill="#5A5A5A"/>
</g>
</svg>
