<svg width="24" height="24" viewBox="0 0 24 24" fill="none" xmlns="http://www.w3.org/2000/svg">
<g id="optimization_timer_2">
<path id="Shape" fill-rule="evenodd" clip-rule="evenodd" d="M21.5434 4.49922C21.5434 3.11894 20.3778 2 18.94 2H5.0555C3.61771 2 2.45215 3.11894 2.45215 4.49922V14.0795C2.45215 15.4598 3.61771 16.5788 5.0555 16.5788H8.52663C9.0059 16.5788 9.39442 16.2058 9.39442 15.7457C9.39442 15.2856 9.0059 14.9126 8.52663 14.9126H5.0555C4.57624 14.9126 4.18772 14.5396 4.18772 14.0795V6.37363C4.18772 6.25861 4.28485 6.16536 4.40466 6.16536H19.5909C19.7107 6.16536 19.8078 6.25861 19.8078 6.37363V11.1638C19.8078 11.6239 20.1963 11.9969 20.6756 11.9969C21.1549 11.9969 21.5434 11.6239 21.5434 11.1638V4.49922ZM5.70634 4.91575C5.34689 4.91575 5.0555 4.63602 5.0555 4.29095C5.0555 3.94588 5.34689 3.66614 5.70634 3.66614C6.06579 3.66614 6.35718 3.94588 6.35718 4.29095C6.35741 4.45673 6.28891 4.61578 6.1668 4.733C6.0447 4.85022 5.87902 4.91597 5.70634 4.91575ZM7.22496 4.29095C7.22496 4.63602 7.51635 4.91575 7.8758 4.91575C8.04848 4.91597 8.21416 4.85022 8.33626 4.733C8.45837 4.61578 8.52687 4.45673 8.52663 4.29095C8.52663 3.94588 8.23524 3.66614 7.8758 3.66614C7.51635 3.66614 7.22496 3.94588 7.22496 4.29095ZM10.0453 4.91575C9.68581 4.91575 9.39442 4.63602 9.39442 4.29095C9.39442 3.94588 9.68581 3.66614 10.0453 3.66614C10.4047 3.66614 10.6961 3.94588 10.6961 4.29095C10.6963 4.45673 10.6278 4.61578 10.5057 4.733C10.3836 4.85022 10.2179 4.91597 10.0453 4.91575ZM14.8615 11.2638C11.9999 11.7816 10.0193 14.3054 10.2901 17.0887C10.561 19.8721 12.9943 22 15.9063 22C18.8182 22 21.2515 19.8721 21.5224 17.0887C21.7933 14.3054 19.8126 11.7816 16.9511 11.2638C16.8501 11.244 16.7775 11.1586 16.7775 11.0597V10.539C16.7775 10.424 16.8747 10.3307 16.9945 10.3307H18.0723C18.5515 10.3307 18.94 9.95774 18.94 9.49765C18.94 9.03756 18.5515 8.66458 18.0723 8.66458H13.7333C13.2541 8.66458 12.8656 9.03756 12.8656 9.49765C12.8656 9.95774 13.2541 10.3307 13.7333 10.3307H14.8181C14.9379 10.3307 15.035 10.424 15.035 10.539V11.0597C15.0354 11.1588 14.9627 11.2443 14.8615 11.2638ZM15.252 13.663C15.252 13.3179 15.5433 13.0382 15.9028 13.0382C16.2622 13.0382 16.5536 13.3179 16.5536 13.663V15.7457C16.5536 15.8607 16.6508 15.954 16.7706 15.954H17.6384C17.9978 15.954 18.2892 16.2337 18.2892 16.5788C18.2892 16.9238 17.9978 17.2036 17.6384 17.2036H15.9028C15.5433 17.2036 15.252 16.9238 15.252 16.5788V13.663Z" fill="#5A5A5A"/>
</g>
</svg>
