<svg width="24" height="24" viewBox="0 0 24 24" fill="none" xmlns="http://www.w3.org/2000/svg">
<g id="optimization_plane">
<path id="Shape" fill-rule="evenodd" clip-rule="evenodd" d="M7.47669 8.7586C7.54894 8.80346 7.64001 8.79867 7.70756 8.74644L9.53201 7.33563C9.58726 7.29276 9.61849 7.22413 9.61536 7.15244C9.61166 7.08134 9.57497 7.01656 9.51701 6.9788L6.23982 4.86562C6.17465 4.80818 6.13415 4.72605 6.12726 4.63741C6.12038 4.54877 6.14769 4.46093 6.20315 4.39332C6.21851 4.37457 6.23584 4.35768 6.25483 4.34297L7.11996 3.67533C7.17538 3.63242 7.24261 3.60928 7.31166 3.60934C7.34977 3.60943 7.38757 3.61649 7.42334 3.63018L12.1966 5.48204C12.2603 5.50653 12.3313 5.49747 12.3875 5.45773L14.5545 3.91755C14.8434 3.71107 15.2019 3.63934 15.5438 3.71961C15.9915 3.82813 16.3548 4.16786 16.5065 4.61992C16.5558 4.76279 16.5812 4.91346 16.5815 5.0653C16.5899 5.54918 16.3551 6.00251 15.9622 6.26081L8.32599 11.1991C8.25107 11.2479 8.16433 11.2735 8.07595 11.2729C7.97926 11.2735 7.88471 11.2432 7.80507 11.1861L5.00629 9.13974C4.95265 9.09494 4.91835 9.02972 4.911 8.95852C4.90365 8.88731 4.92385 8.81599 4.96712 8.76034C4.97993 8.74338 4.99477 8.7282 5.0113 8.71519L5.8706 7.96507C5.91758 7.92505 5.9766 7.90353 6.03729 7.9043H6.05896C6.09043 7.90708 6.1209 7.91717 6.14814 7.93382L7.47669 8.7586ZM4.18866 12.9303C4.16355 12.9972 4.17133 13.0727 4.2095 13.1326C4.24833 13.1921 4.3129 13.2279 4.38203 13.2281H19.6128C19.6819 13.228 19.7466 13.1923 19.7853 13.1326C19.8241 13.0729 19.8319 12.9971 19.8061 12.9303L19.1735 11.2807C18.9887 10.7626 18.5181 10.4153 17.9875 10.4056H11.1939C11.155 10.4055 11.1169 10.4169 11.0839 10.4386L8.76772 11.9371C8.32413 12.2259 7.75749 12.2095 7.33 11.8954L5.60972 10.6374C5.54942 10.5939 5.47169 10.5863 5.40469 10.6174C5.34481 10.6445 5.28638 10.6749 5.22966 10.7086C5.20131 10.7258 5.17501 10.7465 5.15132 10.7702C5.00772 10.9138 4.89544 11.0879 4.8221 11.2807L4.18866 12.9303ZM20.4721 14.6667L21.8931 18.3712C22.0624 18.8099 22.0292 19.3052 21.8031 19.7152C21.5818 20.1285 21.1647 20.3863 20.7105 20.3907H3.29102C2.83653 20.3863 2.41929 20.1281 2.19835 19.7143C1.97141 19.3048 1.93731 18.8094 2.10583 18.3704L3.52273 14.6667C3.5544 14.5843 3.63096 14.5304 3.71609 14.5303H20.2787C20.3639 14.5304 20.4404 14.5843 20.4721 14.6667ZM6.16314 17.569H7.41334C7.75858 17.569 8.03844 17.2775 8.03844 16.9179C8.03844 16.5583 7.75858 16.2667 7.41334 16.2667H6.16314C5.81791 16.2667 5.53805 16.5583 5.53805 16.9179C5.53805 17.2775 5.81791 17.569 6.16314 17.569Z" fill="#5A5A5A"/>
</g>
</svg>
