<svg width="24" height="24" viewBox="0 0 24 24" fill="none" xmlns="http://www.w3.org/2000/svg">
<g id="optimization_graph">
<path id="Shape" fill-rule="evenodd" clip-rule="evenodd" d="M22 10.6738C21.9999 10.2705 21.6869 9.93026 21.27 9.88024L19.825 9.70664C19.7409 9.69633 19.6717 9.63812 19.65 9.55944C19.4698 8.91478 19.2011 8.29601 18.8508 7.71944C18.8084 7.64885 18.8147 7.56067 18.8667 7.49624L19.7625 6.38984C20.0205 6.07143 19.9913 5.61838 19.6942 5.33304L18.4442 4.13304C18.1469 3.84784 17.675 3.81971 17.3433 4.06744L16.1942 4.92824C16.1271 4.97834 16.0351 4.98435 15.9617 4.94344C15.3611 4.60739 14.7165 4.34966 14.045 4.17704C13.9628 4.1561 13.9021 4.08928 13.8917 4.00824L13.7092 2.62104C13.6571 2.22077 13.3027 1.92036 12.8825 1.92024H11.1175C10.6973 1.92036 10.3429 2.22077 10.2908 2.62104L10.11 4.00824C10.0996 4.08928 10.0389 4.1561 9.95667 4.17704C9.28516 4.34966 8.6406 4.60739 8.04 4.94344C7.96652 4.98435 7.87452 4.97834 7.8075 4.92824L6.65333 4.06744C6.3216 3.8204 5.85022 3.84885 5.55333 4.13384L4.30333 5.33384C4.00576 5.61929 3.97645 6.07288 4.235 6.39144L5.13333 7.49464C5.18529 7.55907 5.19155 7.64725 5.14917 7.71784C4.7989 8.29441 4.53015 8.91318 4.35 9.55784C4.3283 9.63652 4.2591 9.69473 4.175 9.70504L2.73083 9.88024C2.31355 9.92989 2.00017 10.2702 2 10.6738V12.3674C2.00012 12.7708 2.31305 13.111 2.73 13.161L4.175 13.3346C4.25907 13.3444 4.32842 13.4024 4.35 13.481C4.53015 14.1257 4.7989 14.7445 5.14917 15.321C5.19155 15.3916 5.18529 15.4798 5.13333 15.5442L4.2375 16.653C3.97945 16.9715 4.00874 17.4245 4.30583 17.7098L5.55583 18.9098C5.85306 19.195 6.32498 19.2232 6.65667 18.9754L7.80917 18.1154C7.87619 18.0653 7.96818 18.0593 8.04167 18.1002C8.64237 18.4361 9.2869 18.6938 9.95833 18.8666C10.0404 18.8873 10.1011 18.9538 10.1117 19.0346L10.2925 20.4226C10.345 20.8226 10.6993 21.1226 11.1192 21.1226H12.8842C13.3041 21.1226 13.6583 20.8226 13.7108 20.4226L13.8917 19.0346C13.9022 18.9538 13.9629 18.8873 14.045 18.8666C14.7164 18.6938 15.361 18.4361 15.9617 18.1002C16.0351 18.0593 16.1271 18.0653 16.1942 18.1154L17.3467 18.9762C17.6784 19.2233 18.1498 19.1948 18.4467 18.9098L19.6967 17.7098C19.9942 17.4244 20.0235 16.9708 19.765 16.6522L18.8667 15.5466C18.8147 15.4822 18.8084 15.394 18.8508 15.3234C19.2011 14.7469 19.4698 14.1281 19.65 13.4834C19.6716 13.4048 19.7409 13.3468 19.825 13.337L21.27 13.1634C21.6879 13.1133 22.0011 12.7717 22 12.3674V10.6738ZM12 17.0986C8.77834 17.0986 6.16667 14.5914 6.16667 11.4986C6.16667 8.40585 8.77834 5.89864 12 5.89864C15.2217 5.89864 17.8333 8.40585 17.8333 11.4986C17.8333 14.5914 15.2217 17.0986 12 17.0986ZM14.0833 12.3202H12.8333C12.6231 12.337 12.4378 12.1889 12.4167 11.9874V8.65384C12.4373 8.45206 12.6228 8.30354 12.8333 8.32024H14.0833C14.2938 8.30354 14.4793 8.45206 14.5 8.65384V11.9874C14.4789 12.1889 14.2935 12.337 14.0833 12.3202ZM9.08333 10.3369C9.08333 10.1068 9.26988 9.92024 9.5 9.92024H10.75C10.9801 9.92024 11.1667 10.1068 11.1667 10.3369V11.9036C11.1667 12.1337 10.9801 12.3202 10.75 12.3202H9.5C9.26988 12.3202 9.08333 12.1337 9.08333 11.9036V10.3369ZM9.08333 13.1202H14.5C14.9602 13.1202 15.3333 13.4784 15.3333 13.9202C15.3333 14.3621 14.9602 14.7202 14.5 14.7202H9.08333C8.6231 14.7202 8.25 14.3621 8.25 13.9202C8.25 13.4784 8.6231 13.1202 9.08333 13.1202Z" fill="#5A5A5A"/>
</g>
</svg>
