<?xml version="1.0" encoding="UTF-8"?>
<svg width="24px" height="24px" viewBox="0 0 24 24" version="1.1" xmlns="http://www.w3.org/2000/svg" xmlns:xlink="http://www.w3.org/1999/xlink">
    <title>7. Business and Products/optimization_timer_1</title>
    <g id="7.-Business-and-Products/optimization_timer_1" stroke="none" stroke-width="1" fill="none" fill-rule="evenodd">
        <path d="M13.2491667,9.39795327 C13.5943446,9.39795327 13.8741667,9.66658242 13.8741667,9.99795327 C13.8741667,10.3293241 13.5943446,10.5979533 13.2491667,10.5979533 L13.2491667,10.5979533 L12.8325,10.5979533 C12.7174407,10.5979533 12.6241667,10.6874963 12.6241667,10.7979533 L12.6241667,10.7979533 L12.6241667,11.0587533 C12.6242684,11.1577038 12.6997283,11.2417086 12.8016667,11.2563533 C13.5808265,11.3681157 14.3249737,11.6425626 14.9816667,12.0603533 C15.0641713,12.1130852 15.1739526,12.1027135 15.2441667,12.0355533 L15.2441667,12.0355533 L15.7241667,11.5747533 C15.9695147,11.3474784 16.3593314,11.3509056 16.6003025,11.582456 C16.8412735,11.8140064 16.8444759,12.1882335 16.6075,12.4235533 L16.6075,12.4235533 L16.1908333,12.8235533 C16.1149899,12.896188 16.1092127,13.01231 16.1775,13.0915533 C17.6977487,14.8597647 17.8322901,17.3751579 16.5086927,19.2835533 C15.1850954,21.1919487 12.7157358,22.0429544 10.4300109,21.3784256 C8.14428598,20.7138967 6.5816396,18.6906658 6.58333054,16.3979533 C6.58205401,15.1907044 7.02005518,14.0209407 7.82166667,13.0907533 C7.88995397,13.01151 7.88417675,12.895388 7.80833333,12.8227533 L7.80833333,12.8227533 L7.39166667,12.4227533 C7.22912152,12.2721818 7.16385326,12.04913 7.22094761,11.8393275 C7.27804195,11.629525 7.44861376,11.4656216 7.66710412,11.4106132 C7.88559448,11.3556048 8.1180015,11.418052 8.275,11.5739533 L8.275,11.5739533 L8.755,12.0347533 C8.82521407,12.1019135 8.93499539,12.1122852 9.0175,12.0595533 C9.67401791,11.6414368 10.4182429,11.3669611 11.1975,11.2555533 C11.2994384,11.2409086 11.3748982,11.1569038 11.375,11.0579533 L11.375,11.0579533 L11.375,10.7979533 C11.375,10.6874963 11.281726,10.5979533 11.1666667,10.5979533 L11.1666667,10.5979533 L10.7491667,10.5979533 C10.4039887,10.5979533 10.1241667,10.3293241 10.1241667,9.99795327 C10.1241667,9.66658242 10.4039887,9.39795327 10.7491667,9.39795327 L10.7491667,9.39795327 Z M12,12.7979533 C9.92988409,12.8001577 8.2522963,14.410642 8.25,16.3979533 C8.25,18.3861784 9.92893219,19.9979533 12,19.9979533 C14.0710678,19.9979533 15.75,18.3861784 15.75,16.3979533 C15.75,14.4097282 14.0710678,12.7979533 12,12.7979533 Z M19.5,2.39795327 C20.8807119,2.39795327 22,3.47246987 22,4.79795327 L22,4.79795327 L22,16.7979533 C22,18.1234367 20.8807119,19.1979533 19.5,19.1979533 C19.0397627,19.1979533 18.6666667,18.8397811 18.6666667,18.3979533 C18.6666667,17.9561255 19.0397627,17.5979533 19.5,17.5979533 C19.9602373,17.5979533 20.3333333,17.2397811 20.3333333,16.7979533 L20.3333333,16.7979533 L20.3333333,8.39795327 C20.3333333,8.17703937 20.1467853,7.99795327 19.9166667,7.99795327 L19.9166667,7.99795327 L4.08333333,7.99795327 C3.85321469,7.99795327 3.66666667,8.17703937 3.66666667,8.39795327 L3.66666667,8.39795327 L3.66666667,16.7979533 C3.66666667,17.2397811 4.03976271,17.5979533 4.5,17.5979533 C4.96023729,17.5979533 5.33333333,17.9561255 5.33333333,18.3979533 C5.33333333,18.8397811 4.96023729,19.1979533 4.5,19.1979533 C3.11928813,19.1979533 2,18.1234367 2,16.7979533 L2,16.7979533 L2,4.79795327 C2,3.47246987 3.11928813,2.39795327 4.5,2.39795327 L4.5,2.39795327 Z M12.8083333,14.7739533 C12.9653318,14.618052 13.1977389,14.5556048 13.4162292,14.6106132 C13.6347196,14.6656216 13.8052914,14.829525 13.8623857,15.0393275 C13.9194801,15.24913 13.8542118,15.4721818 13.6916667,15.6227533 L13.6916667,15.6227533 L12.4416667,16.8227533 C12.3245883,16.935238 12.1656394,16.9982898 12,16.9979546 C11.747382,16.99774 11.5197369,16.8515572 11.4230942,16.6274921 C11.3264515,16.4034269 11.3798164,16.1455427 11.5583333,15.9739533 L11.5583333,15.9739533 Z M5.33333333,4.39795327 C4.87309604,4.39795327 4.5,4.75612547 4.5,5.19795327 C4.5,5.63978107 4.87309604,5.99795327 5.33333333,5.99795327 C5.55434707,5.99795327 5.76630867,5.91366779 5.92258898,5.76363869 C6.0788693,5.61360959 6.16666667,5.41012646 6.16666667,5.19795327 C6.16666667,4.75612547 5.79357062,4.39795327 5.33333333,4.39795327 Z M7.83333333,4.39795327 C7.37309604,4.39795327 7,4.75612547 7,5.19795327 C7,5.63978107 7.37309604,5.99795327 7.83333333,5.99795327 C8.05434707,5.99795327 8.26630867,5.91366779 8.42258898,5.76363869 C8.5788693,5.61360959 8.66666667,5.41012646 8.66666667,5.19795327 C8.66666667,4.75612547 8.29357062,4.39795327 7.83333333,4.39795327 Z M10.3333333,4.39795327 C9.87309604,4.39795327 9.5,4.75612547 9.5,5.19795327 C9.5,5.63978107 9.87309604,5.99795327 10.3333333,5.99795327 C10.5543471,5.99795327 10.7663087,5.91366779 10.922589,5.76363869 C11.0788693,5.61360959 11.1666667,5.41012646 11.1666667,5.19795327 C11.1666667,4.75612547 10.7935706,4.39795327 10.3333333,4.39795327 Z" id="ðŸ–-Color" fill="#5A5A5A"></path>
        <rect id="_Transparent_Rectangle_" x="0" y="0" width="24" height="24"></rect>
    </g>
</svg>