<svg width="24" height="24" viewBox="0 0 24 24" fill="none" xmlns="http://www.w3.org/2000/svg">
<g id="optimization_clock">
<path id="Shape" fill-rule="evenodd" clip-rule="evenodd" d="M18.4583 2H5.125C3.74429 2 2.625 3.11929 2.625 4.5V14.0833C2.625 15.464 3.74429 16.5833 5.125 16.5833H7.20833C7.66857 16.5833 8.04167 16.2102 8.04167 15.75C8.04167 15.2898 7.66857 14.9167 7.20833 14.9167H5.125C4.66476 14.9167 4.29167 14.5436 4.29167 14.0833V6.375C4.29167 6.25994 4.38494 6.16667 4.5 6.16667H19.0833C19.1984 6.16667 19.2917 6.25994 19.2917 6.375V8.66667C19.2917 9.1269 19.6648 9.5 20.125 9.5C20.5852 9.5 20.9583 9.1269 20.9583 8.66667V4.5C20.9583 3.11929 19.839 2 18.4583 2ZM5.75 4.91667C5.40482 4.91667 5.125 4.63684 5.125 4.29167C5.125 3.94649 5.40482 3.66667 5.75 3.66667C6.09518 3.66667 6.375 3.94649 6.375 4.29167C6.37522 4.45749 6.30944 4.61659 6.19219 4.73385C6.07493 4.85111 5.91583 4.91689 5.75 4.91667ZM7.20833 4.29167C7.20833 4.63684 7.48816 4.91667 7.83333 4.91667C7.99916 4.91689 8.15826 4.85111 8.27552 4.73385C8.39278 4.61659 8.45856 4.45749 8.45833 4.29167C8.45833 3.94649 8.17851 3.66667 7.83333 3.66667C7.48816 3.66667 7.20833 3.94649 7.20833 4.29167ZM9.91667 4.91667C9.57149 4.91667 9.29167 4.63684 9.29167 4.29167C9.29167 3.94649 9.57149 3.66667 9.91667 3.66667C10.2618 3.66667 10.5417 3.94649 10.5417 4.29167C10.5419 4.45749 10.4761 4.61659 10.3589 4.73385C10.2416 4.85111 10.0825 4.91689 9.91667 4.91667ZM10.3692 9.74417C10.6946 9.41885 11.2221 9.41885 11.5475 9.74417C11.704 9.90047 11.7919 10.1126 11.7919 10.3337C11.7919 10.5549 11.704 10.767 11.5475 10.9233L9.46417 13.0067C9.13855 13.3321 8.6108 13.3319 8.28542 13.0063C7.96003 12.6806 7.96022 12.1529 8.28583 11.8275L10.3692 9.74417ZM14.7083 22C17.6999 22 20.125 19.5749 20.125 16.5833C20.125 13.5918 17.6999 11.1667 14.7083 11.1667C11.7168 11.1667 9.29167 13.5918 9.29167 16.5833C9.29534 19.5734 11.7183 21.9963 14.7083 22ZM14.0833 13.25C14.0833 12.9048 14.3632 12.625 14.7083 12.625C15.0535 12.625 15.3333 12.9048 15.3333 13.25V15.75C15.3333 15.8651 15.4266 15.9583 15.5417 15.9583H17.2083C17.5535 15.9583 17.8333 16.2382 17.8333 16.5833C17.8333 16.9285 17.5535 17.2083 17.2083 17.2083H14.7083C14.3632 17.2083 14.0833 16.9285 14.0833 16.5833V13.25ZM19.0475 9.74417C18.8369 9.53368 18.5299 9.45155 18.2423 9.52873C17.9547 9.6059 17.7301 9.83065 17.6532 10.1183C17.5762 10.406 17.6585 10.7128 17.8692 10.9233L19.9525 13.0067C20.2781 13.3321 20.8059 13.3319 21.1313 13.0063C21.4566 12.6806 21.4565 12.1529 21.1308 11.8275L19.0475 9.74417Z" fill="#5A5A5A"/>
</g>
</svg>
