<?xml version="1.0" encoding="UTF-8"?>
<svg width="24px" height="24px" viewBox="0 0 24 24" version="1.1" xmlns="http://www.w3.org/2000/svg" xmlns:xlink="http://www.w3.org/1999/xlink">
    <title>7. Business and Products/optimization_graph</title>
    <g id="7.-Business-and-Products/optimization_graph" stroke="none" stroke-width="1" fill="none" fill-rule="evenodd">
        <path d="M12.8824986,1.9202415 C13.3026894,1.9202415 13.6570615,2.2207714 13.7091652,2.62104139 L13.7091652,2.62104139 L13.8916651,4.00824117 C13.9020894,4.08928135 13.9627852,4.15609958 14.0449984,4.17704115 C14.7165061,4.34965965 15.3610651,4.60739358 15.9616648,4.94344103 C16.0351455,4.98435064 16.1271398,4.97833639 16.1941648,4.92824103 L16.1941648,4.92824103 L17.3433313,4.06744116 C17.6750145,3.81971224 18.1469411,3.84783492 18.4441644,4.13304115 L18.4441644,4.13304115 L19.6941642,5.33304097 C19.991254,5.61837532 20.0205485,6.07142493 19.7624975,6.3898408 L19.7624975,6.3898408 L18.8666644,7.49624063 C18.8147045,7.56066613 18.8084491,7.64884736 18.850831,7.71944059 C19.2010988,8.29600852 19.4698486,8.91477752 19.6499976,9.55944031 C19.6716969,9.63812025 19.7408985,9.6963287 19.8249975,9.70664028 L19.8249975,9.70664028 L21.2699973,9.88024026 C21.6869452,9.93025976 22.0000003,10.2704569 22.0000003,10.6738401 L22.0000003,10.6738401 L22.0000003,12.3674399 C22.0011416,12.7717372 21.6878919,13.1133082 21.2699973,13.1634397 L21.2699973,13.1634397 L19.8249975,13.3370397 C19.7409298,13.3468119 19.6715783,13.4048294 19.6499976,13.4834397 C19.4698486,14.1281025 19.2010988,14.7468715 18.850831,15.3234394 C18.8084491,15.3940326 18.8147045,15.4822139 18.8666644,15.5466394 L18.8666644,15.5466394 L19.7649975,16.6522392 C20.0235447,16.9707987 19.9942371,17.4243943 19.6966642,17.709839 L19.6966642,17.709839 L18.4466644,18.9098388 C18.149774,19.1948269 17.6784023,19.2232806 17.3466646,18.9762388 L17.3466646,18.9762388 L16.1941648,18.115439 C16.1271398,18.0653436 16.0351455,18.0593294 15.9616648,18.100239 C15.3609638,18.4360906 14.7164327,18.6938134 14.0449984,18.8666389 C13.9629138,18.8872743 13.9021875,18.9538093 13.8916651,19.0346388 L13.8916651,19.0346388 L13.7108318,20.4226386 C13.658343,20.8225912 13.304076,21.1226385 12.8841653,21.1226385 L12.8841653,21.1226385 L11.1191656,21.1226385 C10.6992549,21.1226385 10.3449879,20.8225912 10.292499,20.4226386 L10.292499,20.4226386 L10.1116657,19.0346388 C10.1011434,18.9538093 10.040417,18.8872743 9.95833241,18.8666389 C9.28689814,18.6938134 8.64236704,18.4360906 8.04166604,18.100239 C7.96818534,18.0593294 7.87619109,18.0653436 7.80916608,18.115439 L7.80916608,18.115439 L6.65666626,18.9754388 L6.55326894,19.0415007 C6.23234476,19.2149724 5.82333406,19.1665245 5.5558331,18.9098388 L5.5558331,18.9098388 L4.30583329,17.709839 C4.00874347,17.4245047 3.979449,16.9714551 4.23749997,16.6530392 L4.23749997,16.6530392 L5.13333316,15.5442394 C5.18529306,15.4798139 5.19154845,15.3916326 5.1491665,15.3210394 C4.79889871,14.7444715 4.53014894,14.1257025 4.34999995,13.4810397 C4.32841918,13.4024294 4.25906771,13.3444119 4.17499998,13.3346397 L4.17499998,13.3346397 L2.73000021,13.1610397 C2.3130523,13.1110202 2.00000032,12.7708231 2.00000032,12.3674399 L2.00000032,12.3674399 L2.00000032,10.6738401 C2.00000032,10.2701877 2.313555,9.92988948 2.73083354,9.88024026 L2.73083354,9.88024026 L4.17499998,9.70504028 C4.25909901,9.6947287 4.32830062,9.63652026 4.34999995,9.55784031 C4.53014894,8.91317752 4.79889871,8.29440852 5.1491665,7.71784059 C5.19154845,7.64724736 5.18529306,7.55906614 5.13333316,7.49464063 L5.13333316,7.49464063 L4.23499997,6.3914408 C3.9764528,6.07288131 4.00576038,5.61928565 4.30333329,5.33384097 L4.30333329,5.33384097 L5.5533331,4.13384115 C5.8502235,3.84885314 6.32159525,3.82039943 6.65333293,4.06744116 L6.65333293,4.06744116 L7.80749941,4.92824103 C7.87452442,4.97833639 7.96651867,4.98435064 8.03999938,4.94344103 C8.64059904,4.60739358 9.28515805,4.34965965 9.95666574,4.17704115 C10.038879,4.15609958 10.0995748,4.08928135 10.1099991,4.00824117 L10.1099991,4.00824117 L10.2908324,2.62104139 C10.342936,2.2207714 10.6973081,1.9202415 11.1174989,1.9202415 L11.1174989,1.9202415 Z M11.9999988,5.89864088 C8.77833822,5.89864088 6.16666634,8.40584589 6.16666634,11.49864 C6.16666634,14.5914341 8.77833822,17.0986391 11.9999988,17.0986391 C15.2216593,17.0986391 17.8333312,14.5914341 17.8333312,11.49864 C17.8333312,8.40584589 15.2216593,5.89864088 11.9999988,5.89864088 Z M14.4999984,13.1202398 C14.9602356,13.1202398 15.3333316,13.4784119 15.3333316,13.9202396 C15.3333316,14.3620674 14.9602356,14.7202395 14.4999984,14.7202395 L14.4999984,14.7202395 L9.08333255,14.7202395 C8.62309533,14.7202395 8.24999934,14.3620674 8.24999934,13.9202396 C8.24999934,13.4784119 8.62309533,13.1202398 9.08333255,13.1202398 L9.08333255,13.1202398 Z M14.0833318,8.3202405 C14.2938168,8.30353566 14.479323,8.45205933 14.4999984,8.65384045 L14.4999984,8.65384045 L14.4999984,11.9874399 C14.4789007,12.1888998 14.2935229,12.3369647 14.0833318,12.3202399 L14.0833318,12.3202399 L12.833332,12.3202399 C12.6231408,12.3369647 12.4377631,12.1888998 12.4166654,11.9874399 L12.4166654,11.9874399 L12.4166654,8.65384045 C12.4373407,8.45205933 12.6228469,8.30353566 12.833332,8.3202405 L12.833332,8.3202405 Z M10.749999,9.92024025 C10.9801176,9.92024025 11.1666656,10.1067882 11.1666656,10.3369069 L11.1666656,11.9035733 C11.1666656,12.1336919 10.9801176,12.3202399 10.749999,12.3202399 L9.49999915,12.3202399 C9.26988054,12.3202399 9.08333255,12.1336919 9.08333255,11.9035733 L9.08333255,10.3369069 C9.08333255,10.1067882 9.26988054,9.92024025 9.49999915,9.92024025 L10.749999,9.92024025 Z" id="ðŸ–-Color" fill="#5A5A5A"></path>
        <rect id="_Transparent_Rectangle_" x="0" y="0" width="24" height="24"></rect>
    </g>
</svg>