<?xml version="1.0" encoding="UTF-8"?>
<svg width="24px" height="24px" viewBox="0 0 24 24" version="1.1" xmlns="http://www.w3.org/2000/svg" xmlns:xlink="http://www.w3.org/1999/xlink">
    <title>7. Business and Products/performance_presentation_graph</title>
    <g id="7.-Business-and-Products/performance_presentation_graph" stroke="none" stroke-width="1" fill="none" fill-rule="evenodd">
        <path d="M12.0008346,2 C11.5398808,2 11.1662039,2.3736769 11.1662039,2.83463072 L11.1662039,3.09336624 C11.1657443,3.20827862 11.0724595,3.30119021 10.9575462,3.30118929 L3.67622782,3.30118929 C2.98479709,3.30118929 2.42428174,3.86170465 2.42428174,4.55313537 L2.42428174,16.2037456 C2.42428174,16.8951763 2.98479709,17.4556917 3.67622782,17.4556917 L10.9600501,17.4556917 C11.0749634,17.4556908 11.1682481,17.5486024 11.1687078,17.6635147 L11.1687078,18.5816085 C11.1677318,18.6480281 11.135189,18.7100143 11.0810716,18.7485347 L8.6038876,20.5212903 C8.26559355,20.8001768 8.20074757,21.2932682 8.45543407,21.650137 C8.71012057,22.0070057 9.19750898,22.1059841 9.5712246,21.8767306 L11.8798132,20.2275003 C11.9519173,20.174889 12.049752,20.174889 12.1218561,20.2275003 L14.4304447,21.8767306 C14.8041603,22.1059841 15.2915487,22.0070057 15.5462352,21.650137 C15.8009217,21.2932682 15.7360757,20.8001768 15.3977817,20.5212903 L12.9189284,18.7518732 C12.864811,18.7133528 12.8322682,18.6513666 12.8312922,18.5849471 L12.8312922,17.6668533 C12.8317519,17.5519409 12.9250366,17.4590293 13.0399499,17.4590302 L20.3237722,17.4590302 C21.0152029,17.4590302 21.5757183,16.8985149 21.5757183,16.2070841 L21.5757183,4.54979685 C21.5757183,3.85836612 21.0152029,3.29785077 20.3237722,3.29785077 L13.0416191,3.29785077 C12.9289659,3.29652122 12.8377107,3.20600492 12.8354654,3.09336624 L12.8354654,2.83463072 C12.8354654,2.3736769 12.4617884,2 12.0008346,2 Z M13.9254931,9.26128727 L15.568881,10.9038405 C15.6076299,10.9431931 15.6605483,10.9653525 15.715776,10.9653525 C15.7710037,10.9653525 15.8239221,10.9431931 15.862671,10.9038405 L18.2831001,8.48341144 C18.4876642,8.24698345 18.8072075,8.14470679 19.1110366,8.2184127 C19.4148657,8.2921186 19.6520246,8.52944567 19.725515,8.83332693 C19.7990055,9.13720819 19.6965023,9.45667894 19.4599294,9.66107538 L16.8959438,12.225061 C16.2448693,12.872273 15.1933597,12.872273 14.5422852,12.225061 L12.8988973,10.5808384 C12.8177506,10.4997559 12.6862539,10.4997559 12.6051073,10.5808384 L10.4192094,12.7667363 C10.1076007,13.0802137 9.68354886,13.2560254 9.24154547,13.2550086 L9.24154547,13.2550086 C8.79939438,13.2567735 8.37506528,13.0808468 8.06388152,12.7667363 L7.2292508,11.9321056 C7.14781802,11.8509271 7.01605894,11.8509271 6.93462616,11.9321056 L6.21350521,12.6523919 C5.8823569,12.93598 5.388728,12.9169133 5.08044124,12.6086265 C4.77215449,12.3003398 4.75308775,11.8067109 5.0366759,11.4755626 L5.90469185,10.6075466 C6.56374194,9.97916191 7.60013502,9.97916191 8.25918511,10.6075466 L9.09381583,11.4421773 C9.17524861,11.5233558 9.30700769,11.5233558 9.38844048,11.4421773 L11.5718344,9.26128727 C11.8839445,8.94916432 12.3072643,8.77381439 12.7486638,8.77381439 C13.1900632,8.77381439 13.613383,8.94916432 13.9254931,9.26128727 Z" id="ðŸ–-Color" fill="#5A5A5A"></path>
        <rect id="_Transparent_Rectangle_" x="0" y="0" width="24" height="24"></rect>
    </g>
</svg>