<svg width="24" height="24" viewBox="0 0 24 24" fill="none" xmlns="http://www.w3.org/2000/svg">
<g id="performance_decrease_1">
<path id="Shape" fill-rule="evenodd" clip-rule="evenodd" d="M16.4087 11.7412C16.3449 11.5856 16.3809 11.4069 16.5 11.2882L17.3475 10.4382C17.4268 10.3593 17.4294 10.2318 17.3533 10.1498L14.6792 7.24482C14.5123 7.06583 14.2563 7.00069 14.0242 7.07816L10.9225 8.11066C10.0334 8.41097 9.05199 8.22587 8.33333 7.62232L4.04167 4.05066C3.59961 3.68247 3.53973 3.02563 3.90792 2.58357C4.27611 2.14152 4.93294 2.08163 5.375 2.44982L9.66667 6.02232C9.83216 6.1582 10.0554 6.20059 10.2592 6.13482L13.3608 5.10399C14.3696 4.76827 15.4815 5.05341 16.2042 5.83316L18.8158 8.66649C18.8553 8.70603 18.9091 8.72796 18.965 8.72732C19.0218 8.72915 19.0768 8.70708 19.1167 8.66649L19.83 7.95482C19.9493 7.83573 20.1285 7.80021 20.2842 7.86482C20.44 7.92923 20.5416 8.08121 20.5417 8.24982V11.5832C20.5417 11.8133 20.3551 11.9998 20.125 11.9998H16.7917C16.6235 11.9988 16.4725 11.8968 16.4087 11.7412ZM2.83333 8.87482C2.83333 8.6447 3.01988 8.45816 3.25 8.45816H5.75C5.98012 8.45816 6.16667 8.6447 6.16667 8.87482V19.0832C6.16689 19.1385 6.14501 19.1916 6.10589 19.2307C6.06677 19.2698 6.01365 19.2917 5.95833 19.2915H3.04167C2.98635 19.2917 2.93323 19.2698 2.89411 19.2307C2.85499 19.1916 2.83311 19.1385 2.83333 19.0832V8.87482ZM12.8333 13.0415C12.8333 12.8114 13.0199 12.6248 13.25 12.6248H15.75C15.9801 12.6248 16.1667 12.8114 16.1667 13.0415V19.0832C16.1669 19.1385 16.145 19.1916 16.1059 19.2307C16.0668 19.2698 16.0137 19.2917 15.9583 19.2915H13.0417C12.9863 19.2917 12.9332 19.2698 12.8941 19.2307C12.855 19.1916 12.8331 19.1385 12.8333 19.0832V13.0415ZM20.9583 19.2915H18.0417C17.9863 19.2917 17.9332 19.2698 17.8941 19.2307C17.855 19.1916 17.8331 19.1385 17.8333 19.0832V17.2082C17.8333 16.978 18.0199 16.7915 18.25 16.7915H20.75C20.9801 16.7915 21.1667 16.978 21.1667 17.2082V19.0832C21.1669 19.1385 21.145 19.1916 21.1059 19.2307C21.0668 19.2698 21.0137 19.2917 20.9583 19.2915ZM8.25 14.2915C8.01988 14.2915 7.83333 14.478 7.83333 14.7082V19.0832C7.83311 19.1385 7.85499 19.1916 7.89411 19.2307C7.93323 19.2698 7.98635 19.2917 8.04167 19.2915H10.9583C11.0137 19.2917 11.0668 19.2698 11.1059 19.2307C11.145 19.1916 11.1669 19.1385 11.1667 19.0832V14.7082C11.1667 14.478 10.9801 14.2915 10.75 14.2915H8.25ZM2.83333 21.7915H21.1667C21.6269 21.7915 22 21.4184 22 20.9582C22 20.4979 21.6269 20.1248 21.1667 20.1248H2.83333C2.3731 20.1248 2 20.4979 2 20.9582C2 21.4184 2.3731 21.7915 2.83333 21.7915Z" fill="#5A5A5A"/>
</g>
</svg>
