<?xml version="1.0" encoding="UTF-8"?>
<svg width="24px" height="24px" viewBox="0 0 24 24" version="1.1" xmlns="http://www.w3.org/2000/svg" xmlns:xlink="http://www.w3.org/1999/xlink">
    <title>7. Business and Products/performance_decrease_2</title>
    <g id="7.-Business-and-Products/performance_decrease_2" stroke="none" stroke-width="1" fill="none" fill-rule="evenodd">
        <path d="M21.1666667,20.3330127 C21.626904,20.3330127 22,20.7061088 22,21.1663461 C22,21.6265833 21.626904,21.9996794 21.1666667,21.9996794 L21.1666667,21.9996794 L2.83333333,21.9996794 C2.37309604,21.9996794 2,21.6265833 2,21.1663461 C2,20.7061088 2.37309604,20.3330127 2.83333333,20.3330127 L2.83333333,20.3330127 Z M20.3333317,16.9996794 C20.7935706,16.9996794 21.1666683,17.3727754 21.1666683,17.8330127 L21.1666683,17.8330127 L21.1666683,19.0830127 C21.1668893,19.1383341 21.1450114,19.1914539 21.105893,19.2305724 C21.0667746,19.2696908 21.0136547,19.2915687 20.9583333,19.2913477 L20.9583333,19.2913477 L18.0416667,19.2913477 C17.9863453,19.2915687 17.9332254,19.2696908 17.894107,19.2305724 C17.8549886,19.1914539 17.8331107,19.1383341 17.8333317,19.0830127 L17.8333317,19.0830127 L17.8333317,17.8330127 C17.8333317,17.3727754 18.2064294,16.9996794 18.6666667,16.9996794 L18.6666667,16.9996794 Z M15.3333317,14.4996794 C15.7935706,14.4996794 16.1666683,14.8727754 16.1666683,15.3330127 L16.1666683,15.3330127 L16.1666683,19.0830127 C16.1668893,19.1383341 16.1450114,19.1914539 16.105893,19.2305724 C16.0667746,19.2696908 16.0136547,19.2915687 15.9583333,19.2913477 L15.9583333,19.2913477 L13.0416667,19.2913477 C12.9863453,19.2915687 12.9332254,19.2696908 12.894107,19.2305724 C12.8549886,19.1914539 12.8331107,19.1383341 12.8333317,19.0830127 L12.8333317,19.0830127 L12.8333317,15.3330127 C12.8333317,14.8727754 13.2064294,14.4996794 13.6666667,14.4996794 L13.6666667,14.4996794 Z M10.3333317,11.5830127 C10.7935706,11.5830127 11.1666683,11.9561088 11.1666683,12.4163461 L11.1666683,12.4163461 L11.1666683,19.0830127 C11.1668893,19.1383341 11.1450114,19.1914539 11.105893,19.2305724 C11.0667746,19.2696908 11.0136547,19.2915687 10.9583333,19.2913477 L10.9583333,19.2913477 L8.04166667,19.2913477 C7.98634528,19.2915687 7.93322544,19.2696908 7.894107,19.2305724 C7.85498855,19.1914539 7.83311071,19.1383341 7.83333165,19.0830127 L7.83333165,19.0830127 L7.83333165,12.4163461 C7.83333165,11.9561088 8.20642938,11.5830127 8.66666667,11.5830127 L8.66666667,11.5830127 Z M5.33333165,8.24967938 C5.79357062,8.24967938 6.16666835,8.62277543 6.16666835,9.08301272 L6.16666835,9.08301272 L6.16666835,19.0830127 C6.16688929,19.1383341 6.14501145,19.1914539 6.105893,19.2305724 C6.06677456,19.2696908 6.01365472,19.2915687 5.95833333,19.2913477 L5.95833333,19.2913477 L3.04166667,19.2913477 C2.98634528,19.2915687 2.93322544,19.2696908 2.894107,19.2305724 C2.85498855,19.1914539 2.83311071,19.1383341 2.83333165,19.0830127 L2.83333165,19.0830127 L2.83333165,9.08301272 C2.83333165,8.62277543 3.20642938,8.24967938 3.66666667,8.24967938 L3.66666667,8.24967938 Z M3.80666667,2.37134605 C4.06209836,1.98842863 4.57958257,1.88508102 4.9625,2.14051272 L4.9625,2.14051272 L16.7691667,10.0113461 C16.8148927,10.0420617 16.8710224,10.0531675 16.925,10.0421794 C16.9793394,10.0319739 17.0271798,10.0000803 17.0575,9.95384605 L17.0575,9.95384605 L17.3133333,9.57051272 C17.4352737,9.3927209 17.6386257,9.28838159 17.8541667,9.29301272 C18.070858,9.29988907 18.2684117,9.41886313 18.3758333,9.60717938 L18.3758333,9.60717938 L20.0425,12.5238461 C20.1529791,12.7172563 20.1521763,12.9548472 20.0403927,13.1475064 C19.9286092,13.3401657 19.7227401,13.4588461 19.5,13.4588461 C19.4740862,13.4588461 19.4481996,13.4571708 19.4225,13.4538461 L19.4225,13.4538461 L16.0891667,13.0371794 C15.8742947,13.0102751 15.6886609,12.8740617 15.5985279,12.6771611 C15.508395,12.4802605 15.5266083,12.2507342 15.6466667,12.0705127 L15.6466667,12.0705127 L15.9025,11.6871794 C15.9327859,11.641276 15.9438566,11.585324 15.9333333,11.5313461 C15.9227741,11.4767096 15.8906276,11.42864 15.8441667,11.3980127 L15.8441667,11.3980127 L4.0375,3.52717938 C3.65458257,3.27174769 3.55123497,2.75426348 3.80666667,2.37134605 Z" id="ðŸ–-Color" fill="#5A5A5A"></path>
        <rect id="_Transparent_Rectangle_" x="0" y="0" width="24" height="24"></rect>
    </g>
</svg>