<?xml version="1.0" encoding="UTF-8"?>
<svg width="24px" height="24px" viewBox="0 0 24 24" version="1.1" xmlns="http://www.w3.org/2000/svg" xmlns:xlink="http://www.w3.org/1999/xlink">
    <title>7. Business and Products/performance_phone_increase</title>
    <g id="7.-Business-and-Products/performance_phone_increase" stroke="none" stroke-width="1" fill="none" fill-rule="evenodd">
        <path d="M13.6666667,2 C15.0473785,2 16.1666667,3.11928813 16.1666667,4.5 L16.1666667,4.5 L16.1666667,5.75 C16.1666667,6.21023729 15.7935706,6.58333333 15.3333333,6.58333333 L15.3333333,6.58333333 L6.375,6.58333333 C6.25994068,6.58333333 6.16666667,6.67660734 6.16666667,6.79166667 L6.16666667,6.79166667 L6.16666667,17.2083333 C6.16644404,17.2636547 6.18832189,17.3167746 6.22744033,17.355893 C6.26655877,17.3950114 6.31967862,17.4168893 6.375,17.4166667 L6.375,17.4166667 L14.2916667,17.4166667 C14.346988,17.4168893 14.4001079,17.3950114 14.4392263,17.355893 C14.4783448,17.3167746 14.5002226,17.2636547 14.5,17.2083333 L14.5,17.2083333 L14.5,15.3333333 C14.5,14.873096 14.873096,14.5 15.3333333,14.5 C15.7935706,14.5 16.1666667,14.873096 16.1666667,15.3333333 L16.1666667,15.3333333 L16.1666667,19.5 C16.1666667,20.8807119 15.0473785,22 13.6666667,22 L13.6666667,22 L7,22 C5.61928813,22 4.5,20.8807119 4.5,19.5 L4.5,19.5 L4.5,4.5 C4.5,3.11928813 5.61928813,2 7,2 L7,2 Z M10.3333333,18.6666667 C9.87309604,18.6666667 9.5,19.0397627 9.5,19.5 C9.5,19.9602373 9.87309604,20.3333333 10.3333333,20.3333333 C10.7935706,20.3333333 11.1666667,19.9602373 11.1666667,19.5 C11.1666667,19.0397627 10.7935706,18.6666667 10.3333333,18.6666667 Z M19.0833333,6.99999933 C19.313452,6.99999933 19.5,7.18654802 19.5,7.41666667 L19.5,7.41666667 L19.5,9.91666667 C19.5,10.0852802 19.3983262,10.2372563 19.2425,10.3016667 C19.1921042,10.322787 19.1379754,10.333556 19.0833333,10.3333333 C18.9707344,10.3350974 18.862216,10.2912091 18.7825,10.2116667 L18.7825,10.2116667 L18.3433333,9.77166667 C18.2995953,9.72812954 18.2388059,9.70622416 18.1773504,9.71185491 C18.1158948,9.71748566 18.0600982,9.750073 18.025,9.80083333 L18.025,9.80083333 L16.1083333,12.5733333 C15.8454226,12.9533674 15.4365281,13.2071858 14.9792969,13.2741747 C14.5220656,13.3411637 14.0575453,13.2153094 13.6966667,12.9266667 L13.6966667,12.9266667 L13.3158333,12.6225 C13.2667771,12.5834231 13.2027269,12.5685257 13.1414611,12.5819427 C13.0801953,12.5953598 13.0282339,12.6356634 13,12.6916667 L13,12.6916667 L12.0108333,14.6733333 C11.7712319,15.1517115 11.3165374,15.4859792 10.7884632,15.5719562 C10.2603889,15.6579333 9.72314281,15.485166 9.34416667,15.1075 C9.31246559,15.0744641 9.26715549,15.0581278 9.22166667,15.0633333 C9.17591011,15.0677283 9.13457711,15.0925281 9.10916667,15.1308333 L9.10916667,15.1308333 L8.81583333,15.5725 C8.56040163,15.9554174 8.04291743,16.058765 7.66000001,15.8033333 C7.27708258,15.5479016 7.17373498,15.0304174 7.42916667,14.6475 L7.42916667,14.6475 L7.82666667,14.0508333 C8.10350759,13.6356129 8.55184438,13.3662964 9.0484428,13.316911 C9.54504123,13.2675255 10.0376381,13.4432684 10.3908333,13.7958333 C10.4213235,13.8265829 10.4647138,13.8408398 10.5075,13.8341667 C10.5501135,13.82693 10.5868438,13.8000767 10.6066667,13.7616667 L10.6066667,13.7616667 L11.6283333,11.7166667 C11.8536417,11.2667265 12.270173,10.9426673 12.7617003,10.8349132 C13.2532276,10.727159 13.7671261,10.8472464 14.16,11.1616667 L14.16,11.1616667 L14.5658333,11.4858333 C14.6110463,11.5217417 14.6690913,11.5373639 14.7262198,11.5289998 C14.7833483,11.5206357 14.8344786,11.4890292 14.8675,11.4416667 L14.8675,11.4416667 L16.8758333,8.54083333 C16.9325006,8.45758094 16.9223773,8.34587543 16.8516667,8.27416667 L16.8516667,8.27416667 L16.2883333,7.71166667 C16.1688526,7.59248817 16.1330582,7.4130088 16.1976797,7.25711393 C16.2623013,7.10121906 16.4145759,6.99969806 16.5833333,6.99999933 L16.5833333,6.99999933 Z" id="ðŸ–-Color" fill="#5A5A5A"></path>
        <rect id="_Transparent_Rectangle_" x="0" y="0" width="24" height="24"></rect>
    </g>
</svg>