<svg width="24" height="24" viewBox="0 0 24 24" fill="none" xmlns="http://www.w3.org/2000/svg">
<g id="performance_decrease_2">
<path id="Shape" fill-rule="evenodd" clip-rule="evenodd" d="M19.5 13.4589C19.7227 13.4588 19.9286 13.3402 20.0404 13.1475C20.1522 12.9549 20.153 12.7173 20.0425 12.5239L18.3758 9.60719C18.2684 9.41888 18.0709 9.2999 17.8542 9.29303C17.6386 9.2884 17.4353 9.39274 17.3133 9.57053L17.0575 9.95386C17.0272 10.0001 16.9793 10.032 16.925 10.0422C16.871 10.0532 16.8149 10.0421 16.7692 10.0114L4.9625 2.14053C4.57958 1.8851 4.0621 1.98844 3.80667 2.37136C3.55123 2.75428 3.65458 3.27176 4.0375 3.52719L15.8442 11.398C15.8906 11.4287 15.9228 11.4767 15.9333 11.5314C15.9439 11.5853 15.9328 11.6413 15.9025 11.6872L15.6467 12.0705C15.5266 12.2507 15.5084 12.4803 15.5985 12.6772C15.6887 12.8741 15.8743 13.0103 16.0892 13.0372L19.4225 13.4539C19.4482 13.4572 19.4741 13.4589 19.5 13.4589ZM5.95833 19.2914H3.04167C2.98635 19.2916 2.93323 19.2697 2.89411 19.2306C2.85499 19.1915 2.83311 19.1383 2.83333 19.083V9.08303C2.83333 8.62279 3.20643 8.24969 3.66667 8.24969H5.33333C5.79357 8.24969 6.16667 8.62279 6.16667 9.08303V19.083C6.16689 19.1383 6.14501 19.1915 6.10589 19.2306C6.06677 19.2697 6.01365 19.2916 5.95833 19.2914ZM8.66667 11.583C8.20643 11.583 7.83333 11.9561 7.83333 12.4164V19.083C7.83311 19.1383 7.85499 19.1915 7.89411 19.2306C7.93323 19.2697 7.98635 19.2916 8.04167 19.2914H10.9583C11.0137 19.2916 11.0668 19.2697 11.1059 19.2306C11.145 19.1915 11.1669 19.1383 11.1667 19.083V12.4164C11.1667 11.9561 10.7936 11.583 10.3333 11.583H8.66667ZM13.6667 14.4997H15.3333C15.7936 14.4997 16.1667 14.8728 16.1667 15.333V19.083C16.1669 19.1383 16.145 19.1915 16.1059 19.2306C16.0668 19.2697 16.0137 19.2916 15.9583 19.2914H13.0417C12.9863 19.2916 12.9332 19.2697 12.8941 19.2306C12.855 19.1915 12.8331 19.1383 12.8333 19.083V15.333C12.8333 14.8728 13.2064 14.4997 13.6667 14.4997ZM17.8333 17.833C17.8333 17.3728 18.2064 16.9997 18.6667 16.9997H20.3333C20.7936 16.9997 21.1667 17.3728 21.1667 17.833V19.083C21.1669 19.1383 21.145 19.1915 21.1059 19.2306C21.0668 19.2697 21.0137 19.2916 20.9583 19.2914H18.0417C17.9863 19.2916 17.9332 19.2697 17.8941 19.2306C17.855 19.1915 17.8331 19.1383 17.8333 19.083V17.833ZM21.1667 21.9997H2.83333C2.3731 21.9997 2 21.6266 2 21.1664C2 20.7061 2.3731 20.333 2.83333 20.333H21.1667C21.6269 20.333 22 20.7061 22 21.1664C22 21.6266 21.6269 21.9997 21.1667 21.9997Z" fill="#5A5A5A"/>
</g>
</svg>
