<?xml version="1.0" encoding="UTF-8"?>
<svg width="24px" height="24px" viewBox="0 0 24 24" version="1.1" xmlns="http://www.w3.org/2000/svg" xmlns:xlink="http://www.w3.org/1999/xlink">
    <title>7. Business and Products/performance_increase_1</title>
    <g id="7.-Business-and-Products/performance_increase_1" stroke="none" stroke-width="1" fill="none" fill-rule="evenodd">
        <path d="M21.1666667,20.1250007 C21.626904,20.1250007 22,20.4980967 22,20.958334 C22,21.4185713 21.626904,21.7916673 21.1666667,21.7916673 L21.1666667,21.7916673 L2.83333333,21.7916673 C2.37309604,21.7916673 2,21.4185713 2,20.958334 C2,20.4980967 2.37309604,20.1250007 2.83333333,20.1250007 L2.83333333,20.1250007 Z M5.75,16.7916673 C5.98011865,16.7916673 6.16666835,16.9782154 6.16666835,17.208334 L6.16666835,17.208334 L6.16666835,19.083334 C6.16688929,19.1386554 6.14501145,19.1917752 6.105893,19.2308937 C6.06677456,19.2700121 6.01365472,19.29189 5.95833333,19.2916673 L5.95833333,19.2916673 L3.04166667,19.2916673 C2.98634528,19.29189 2.93322544,19.2700121 2.894107,19.2308937 C2.85498855,19.1917752 2.83311071,19.1386554 2.83333165,19.083334 L2.83333165,19.083334 L2.83333165,17.208334 C2.83333165,16.9782154 3.01988135,16.7916673 3.25,16.7916673 L3.25,16.7916673 Z M10.75,12.6250007 C10.9801186,12.6250007 11.1666683,12.8115487 11.1666683,13.0416673 L11.1666683,13.0416673 L11.1666683,19.083334 C11.1668893,19.1386554 11.1450114,19.1917752 11.105893,19.2308937 C11.0667746,19.2700121 11.0136547,19.29189 10.9583333,19.291669 L10.9583333,19.291669 L8.04166667,19.291669 C7.98634528,19.29189 7.93322544,19.2700121 7.894107,19.2308937 C7.85498855,19.1917752 7.83311071,19.1386554 7.83333165,19.083334 L7.83333165,19.083334 L7.83333165,13.0416673 C7.83333165,12.8115487 8.01988135,12.6250007 8.25,12.6250007 L8.25,12.6250007 Z M15.75,14.2916673 C15.9801186,14.2916673 16.1666683,14.4782154 16.1666683,14.708334 L16.1666683,14.708334 L16.1666683,19.083334 C16.1668893,19.1386554 16.1450114,19.1917752 16.105893,19.2308937 C16.0667746,19.2700121 16.0136547,19.29189 15.9583333,19.2916673 L15.9583333,19.2916673 L13.0416667,19.2916673 C12.9863453,19.29189 12.9332254,19.2700121 12.894107,19.2308937 C12.8549886,19.1917752 12.8331107,19.1386554 12.8333317,19.083334 L12.8333317,19.083334 L12.8333317,14.708334 C12.8333317,14.4782154 13.0198814,14.2916673 13.25,14.2916673 L13.25,14.2916673 Z M20.75,8.458334 C20.9801186,8.458334 21.1666683,8.64488202 21.1666683,8.87500067 L21.1666683,8.87500067 L21.1666683,19.083334 C21.1668893,19.1386554 21.1450114,19.1917752 21.105893,19.2308937 C21.0667746,19.2700121 21.0136547,19.29189 20.9583333,19.291669 L20.9583333,19.291669 L18.0416667,19.291669 C17.9863453,19.29189 17.9332254,19.2700121 17.894107,19.2308937 C17.8549886,19.1917752 17.8331107,19.1386554 17.8333317,19.083334 L17.8333317,19.083334 L17.8333317,8.87500067 C17.8333317,8.64488202 18.0198814,8.458334 18.25,8.458334 L18.25,8.458334 Z M19.9166667,2.20833333 C20.1467853,2.20833333 20.3333333,2.39488202 20.3333333,2.62500067 L20.3333333,2.62500067 L20.3333333,5.958334 C20.3333333,6.1269475 20.2316596,6.27892365 20.0758333,6.343334 C20.0254375,6.36445429 19.9713087,6.37522337 19.9166667,6.37500067 C19.8060843,6.37519817 19.6999589,6.33142896 19.6216667,6.253334 L19.6216667,6.253334 L18.9083333,5.53916734 C18.8680644,5.49924453 18.813362,5.47730345 18.7566667,5.478334 C18.7016272,5.48065403 18.6496396,5.5042576 18.6116667,5.54416734 L18.6116667,5.54416734 L16,8.37750067 C15.2766128,9.15901485 14.1626592,9.44459384 13.1525,9.10750067 L13.1525,9.10750067 L10.0508333,8.07416734 C9.84595288,8.00663861 9.62075998,8.04878365 9.45416667,8.185834 L9.45416667,8.185834 L5.16666667,11.7591673 C4.72460875,12.1273572 4.06777318,12.0674752 3.69958335,11.6254173 C3.33139353,11.1833594 3.39127543,10.5265238 3.83333333,10.158334 L3.83333333,10.158334 L8.12083333,6.583334 C8.83995283,5.98066577 9.82113237,5.79624065 10.71,6.09666734 L10.71,6.09666734 L13.8116667,7.13000067 C14.0438085,7.20725095 14.29968,7.14214369 14.4666667,6.963334 L14.4666667,6.963334 L17.145,4.05916734 C17.221077,3.97718961 17.2184971,3.84966765 17.1391667,3.770834 L17.1391667,3.770834 L16.2883333,2.92000067 C16.1688526,2.80082218 16.1330582,2.6213428 16.1976797,2.46544793 C16.2623013,2.30955306 16.4145759,2.20803207 16.5833333,2.20833333 L16.5833333,2.20833333 Z" id="ðŸ–-Color" fill="#5A5A5A"></path>
        <rect id="_Transparent_Rectangle_" x="0" y="0" width="24" height="24"></rect>
    </g>
</svg>