<?xml version="1.0" encoding="UTF-8"?>
<svg width="24px" height="24px" viewBox="0 0 24 24" version="1.1" xmlns="http://www.w3.org/2000/svg" xmlns:xlink="http://www.w3.org/1999/xlink">
    <title>7. Business and Products/performance_increase_2</title>
    <g id="7.-Business-and-Products/performance_increase_2" stroke="none" stroke-width="1" fill="none" fill-rule="evenodd">
        <path d="M21.1666667,20.3333846 C21.626904,20.3333846 22,20.7064806 22,21.1667179 C22,21.6269552 21.626904,22.0000512 21.1666667,22.0000512 L21.1666667,22.0000512 L2.83333333,22.0000512 C2.37309604,22.0000512 2,21.6269552 2,21.1667179 C2,20.7064806 2.37309604,20.3333846 2.83333333,20.3333846 L2.83333333,20.3333846 Z M5.33333165,16.8875512 C5.79357062,16.8875512 6.16666835,17.2606473 6.16666835,17.7208846 L6.16666835,17.7208846 L6.16666835,18.9708846 C6.16688929,19.0262059 6.14501145,19.0793258 6.105893,19.1184442 C6.06677456,19.1575627 6.01365472,19.1794405 5.95833333,19.1792196 L5.95833333,19.1792196 L3.04166667,19.1792196 C2.98634528,19.1794405 2.93322544,19.1575627 2.894107,19.1184442 C2.85498855,19.0793258 2.83311071,19.0262059 2.83333165,18.9708846 L2.83333165,18.9708846 L2.83333165,17.7208846 C2.83333165,17.2606473 3.20642938,16.8875512 3.66666667,16.8875512 L3.66666667,16.8875512 Z M10.3333317,14.3875512 C10.7935706,14.3875512 11.1666683,14.7606473 11.1666683,15.2208846 L11.1666683,15.2208846 L11.1666683,18.9708846 C11.1668893,19.0262059 11.1450114,19.0793258 11.105893,19.1184442 C11.0667746,19.1575627 11.0136547,19.1794405 10.9583333,19.1792196 L10.9583333,19.1792196 L8.04166667,19.1792196 C7.98634528,19.1794405 7.93322544,19.1575627 7.894107,19.1184442 C7.85498855,19.0793258 7.83311071,19.0262059 7.83333165,18.9708846 L7.83333165,18.9708846 L7.83333165,15.2208846 C7.83333165,14.7606473 8.20642938,14.3875512 8.66666667,14.3875512 L8.66666667,14.3875512 Z M15.3333317,11.4708846 C15.7935706,11.4708846 16.1666683,11.8439806 16.1666683,12.3042179 L16.1666683,12.3042179 L16.1666683,18.9708846 C16.1668893,19.0262059 16.1450114,19.0793258 16.105893,19.1184442 C16.0667746,19.1575627 16.0136547,19.1794405 15.9583333,19.1792196 L15.9583333,19.1792196 L13.0416667,19.1792196 C12.9863453,19.1794405 12.9332254,19.1575627 12.894107,19.1184442 C12.8549886,19.0793258 12.8331107,19.0262059 12.8333317,18.9708846 L12.8333317,18.9708846 L12.8333317,12.3042179 C12.8333317,11.8439806 13.2064294,11.4708846 13.6666667,11.4708846 L13.6666667,11.4708846 Z M20.3333317,8.13755123 C20.7935706,8.13755123 21.1666683,8.51064727 21.1666683,8.97088456 L21.1666683,8.97088456 L21.1666683,18.9708846 C21.1668893,19.0262059 21.1450114,19.0793258 21.105893,19.1184442 C21.0667746,19.1575627 21.0136547,19.1794405 20.9583333,19.1792196 L20.9583333,19.1792196 L18.0416667,19.1792196 C17.9863453,19.1794405 17.9332254,19.1575627 17.894107,19.1184442 C17.8549886,19.0793258 17.8331107,19.0262059 17.8333317,18.9708846 L17.8333317,18.9708846 L17.8333317,8.97088456 C17.8333317,8.51064727 18.2064294,8.13755123 18.6666667,8.13755123 L18.6666667,8.13755123 Z M19.4225,2.00588456 C19.6576022,1.97488411 19.889724,2.08107093 20.02,2.2792179 C20.1510409,2.47625087 20.1597472,2.73034426 20.0425,2.93588456 L20.0425,2.93588456 L18.3758333,5.85255123 C18.2681727,6.04063387 18.0707633,6.15952101 17.8541667,6.1667179 L17.8541667,6.1667179 L17.8333333,6.1667179 C17.6245648,6.16673995 17.4295321,6.06265999 17.3133333,5.8892179 L17.3133333,5.8892179 L17.0575,5.50588456 C17.0269595,5.45993866 16.979379,5.42804664 16.9252742,5.41725696 C16.8711695,5.40646728 16.8149952,5.41766832 16.7691667,5.44838456 L16.7691667,5.44838456 L4.9625,13.3192179 C4.57958257,13.5746496 4.06209836,13.471302 3.80666667,13.0883846 C3.55123497,12.7054671 3.65458257,12.1879829 4.0375,11.9325512 L4.0375,11.9325512 L15.8441667,4.0617179 C15.9398417,3.99778411 15.9659066,3.8685764 15.9025,3.77255123 L15.9025,3.77255123 L15.6466667,3.3892179 C15.5261122,3.20909716 15.5076298,2.97933067 15.5978425,2.78225578 C15.6880552,2.58518088 15.8740468,2.44901415 16.0891667,2.42255123 L16.0891667,2.42255123 Z" id="ðŸ–-Color" fill="#5A5A5A"></path>
        <rect id="_Transparent_Rectangle_" x="0" y="0" width="24" height="24"></rect>
    </g>
</svg>