<svg width="24" height="24" viewBox="0 0 24 24" fill="none" xmlns="http://www.w3.org/2000/svg">
<g id="performance_increase_2">
<path id="Shape" fill-rule="evenodd" clip-rule="evenodd" d="M17.0575 5.50587L17.3133 5.8892C17.4295 6.06265 17.6246 6.16673 17.8333 6.1667H17.8542C18.0708 6.15951 18.2682 6.04062 18.3758 5.85254L20.0425 2.93587C20.1597 2.73033 20.151 2.47624 20.02 2.2792C19.8897 2.08106 19.6576 1.97487 19.4225 2.00587L16.0892 2.42254C15.874 2.449 15.6881 2.58517 15.5978 2.78224C15.5076 2.97932 15.5261 3.20908 15.6467 3.3892L15.9025 3.77254C15.9659 3.86856 15.9398 3.99777 15.8442 4.0617L4.0375 11.9325C3.65458 12.188 3.55123 12.7055 3.80667 13.0884C4.0621 13.4713 4.57958 13.5746 4.9625 13.3192L16.7692 5.44837C16.815 5.41765 16.8712 5.40645 16.9253 5.41724C16.9794 5.42803 17.027 5.45992 17.0575 5.50587ZM20.9583 19.1792H18.0417C17.9863 19.1794 17.9332 19.1575 17.8941 19.1184C17.855 19.0793 17.8331 19.0262 17.8333 18.9709V8.97087C17.8333 8.51063 18.2064 8.13754 18.6667 8.13754H20.3333C20.7936 8.13754 21.1667 8.51063 21.1667 8.97087V18.9709C21.1669 19.0262 21.145 19.0793 21.1059 19.1184C21.0668 19.1575 21.0137 19.1794 20.9583 19.1792ZM13.6667 11.4709C13.2064 11.4709 12.8333 11.844 12.8333 12.3042V18.9709C12.8331 19.0262 12.855 19.0793 12.8941 19.1184C12.9332 19.1575 12.9863 19.1794 13.0417 19.1792H15.9583C16.0137 19.1794 16.0668 19.1575 16.1059 19.1184C16.145 19.0793 16.1669 19.0262 16.1667 18.9709V12.3042C16.1667 11.844 15.7936 11.4709 15.3333 11.4709H13.6667ZM7.83333 15.2209C7.83333 14.7606 8.20643 14.3875 8.66667 14.3875H10.3333C10.7936 14.3875 11.1667 14.7606 11.1667 15.2209V18.9709C11.1669 19.0262 11.145 19.0793 11.1059 19.1184C11.0668 19.1575 11.0137 19.1794 10.9583 19.1792H8.04167C7.98635 19.1794 7.93323 19.1575 7.89411 19.1184C7.85499 19.0793 7.83311 19.0262 7.83333 18.9709V15.2209ZM2.83333 17.7209C2.83333 17.2606 3.20643 16.8875 3.66667 16.8875H5.33333C5.79357 16.8875 6.16667 17.2606 6.16667 17.7209V18.9709C6.16689 19.0262 6.14501 19.0793 6.10589 19.1184C6.06677 19.1575 6.01365 19.1794 5.95833 19.1792H3.04167C2.98635 19.1794 2.93323 19.1575 2.89411 19.1184C2.85499 19.0793 2.83311 19.0262 2.83333 18.9709V17.7209ZM21.1667 22H2.83333C2.3731 22 2 21.6269 2 21.1667C2 20.7065 2.3731 20.3334 2.83333 20.3334H21.1667C21.6269 20.3334 22 20.7065 22 21.1667C22 21.6269 21.6269 22 21.1667 22Z" fill="#5A5A5A"/>
</g>
</svg>
