<?xml version="1.0" encoding="UTF-8"?>
<svg width="24px" height="24px" viewBox="0 0 24 24" version="1.1" xmlns="http://www.w3.org/2000/svg" xmlns:xlink="http://www.w3.org/1999/xlink">
    <title>7. Business and Products/performance_decrease_1</title>
    <g id="7.-Business-and-Products/performance_decrease_1" stroke="none" stroke-width="1" fill="none" fill-rule="evenodd">
        <path d="M21.1666667,20.1248148 C21.626904,20.1248148 22,20.4979109 22,20.9581482 C22,21.4183855 21.626904,21.7914815 21.1666667,21.7914815 L21.1666667,21.7914815 L2.83333333,21.7914815 C2.37309604,21.7914815 2,21.4183855 2,20.9581482 C2,20.4979109 2.37309604,20.1248148 2.83333333,20.1248148 L2.83333333,20.1248148 Z M20.75,16.7914815 C20.9801186,16.7914815 21.1666683,16.9780295 21.1666683,17.2081482 L21.1666683,17.2081482 L21.1666683,19.0831482 C21.1668893,19.1384696 21.1450114,19.1915894 21.105893,19.2307078 C21.0667746,19.2698263 21.0136547,19.2917041 20.9583333,19.2914815 L20.9583333,19.2914815 L18.0416667,19.2914815 C17.9863453,19.2917041 17.9332254,19.2698263 17.894107,19.2307078 C17.8549886,19.1915894 17.8331107,19.1384696 17.8333317,19.0831482 L17.8333317,19.0831482 L17.8333317,17.2081482 C17.8333317,16.9780295 18.0198814,16.7914815 18.25,16.7914815 L18.25,16.7914815 Z M15.75,12.6248148 C15.9801186,12.6248148 16.1666683,12.8113629 16.1666683,13.0414815 L16.1666683,13.0414815 L16.1666683,19.0831482 C16.1668893,19.1384696 16.1450114,19.1915894 16.105893,19.2307078 C16.0667746,19.2698263 16.0136547,19.2917041 15.9583333,19.2914832 L15.9583333,19.2914832 L13.0416667,19.2914832 C12.9863453,19.2917041 12.9332254,19.2698263 12.894107,19.2307078 C12.8549886,19.1915894 12.8331107,19.1384696 12.8333317,19.0831482 L12.8333317,19.0831482 L12.8333317,13.0414815 C12.8333317,12.8113629 13.0198814,12.6248148 13.25,12.6248148 L13.25,12.6248148 Z M10.75,14.2914815 C10.9801186,14.2914815 11.1666683,14.4780295 11.1666683,14.7081482 L11.1666683,14.7081482 L11.1666683,19.0831482 C11.1668893,19.1384696 11.1450114,19.1915894 11.105893,19.2307078 C11.0667746,19.2698263 11.0136547,19.2917041 10.9583333,19.2914815 L10.9583333,19.2914815 L8.04166667,19.2914815 C7.98634528,19.2917041 7.93322544,19.2698263 7.894107,19.2307078 C7.85498855,19.1915894 7.83311071,19.1384696 7.83333165,19.0831482 L7.83333165,19.0831482 L7.83333165,14.7081482 C7.83333165,14.4780295 8.01988135,14.2914815 8.25,14.2914815 L8.25,14.2914815 Z M5.75,8.45814817 C5.98011865,8.45814817 6.16666835,8.64469619 6.16666835,8.87481484 L6.16666835,8.87481484 L6.16666835,19.0831482 C6.16688929,19.1384696 6.14501145,19.1915894 6.105893,19.2307078 C6.06677456,19.2698263 6.01365472,19.2917041 5.95833333,19.2914832 L5.95833333,19.2914832 L3.04166667,19.2914832 C2.98634528,19.2917041 2.93322544,19.2698263 2.894107,19.2307078 C2.85498855,19.1915894 2.83311071,19.1384696 2.83333165,19.0831482 L2.83333165,19.0831482 L2.83333165,8.87481484 C2.83333165,8.64469619 3.01988135,8.45814817 3.25,8.45814817 L3.25,8.45814817 Z M3.90791667,2.58356484 C4.2761065,2.14150692 4.93294208,2.08162501 5.375,2.44981484 L5.375,2.44981484 L9.66666667,6.02231484 C9.83215535,6.15819524 10.0553905,6.20058167 10.2591667,6.13481484 L10.2591667,6.13481484 L13.3608333,5.10398151 C14.3695892,4.76826514 15.4814682,5.0534041 16.2041667,5.83314817 L16.2041667,5.83314817 L18.8158333,8.66648151 C18.8553339,8.70602056 18.9091142,8.72795333 18.965,8.72731484 C19.021838,8.72913792 19.0768422,8.70707579 19.1166667,8.66648151 L19.1166667,8.66648151 L19.83,7.95481484 C19.9492546,7.83572362 20.1285082,7.8002018 20.2841667,7.86481484 C20.4399929,7.92922519 20.5416667,8.08120134 20.5416667,8.24981484 L20.5416667,8.24981484 L20.5416667,11.5831482 C20.5416667,11.8132668 20.3551186,11.9998148 20.125,11.9998148 L20.125,11.9998148 L16.7916667,11.9998148 C16.6235156,11.9987734 16.4724714,11.8967599 16.4087034,11.7411659 C16.3449353,11.5855719 16.3809436,11.4068976 16.5,11.2881482 L16.5,11.2881482 L17.3475,10.4381482 C17.4268304,10.3593145 17.4294103,10.2317926 17.3533333,10.1498148 L17.3533333,10.1498148 L14.6791667,7.24481484 C14.5122912,7.06581741 14.2563006,7.00067985 14.0241667,7.07814817 L14.0241667,7.07814817 L10.9225,8.11064817 C10.0333696,8.41095797 9.05199024,8.22586357 8.33333333,7.62231484 L8.33333333,7.62231484 L4.04166667,4.05064817 C3.59960875,3.68245834 3.53972683,3.02562276 3.90791667,2.58356484 Z" id="ðŸ–-Color" fill="#5A5A5A"></path>
        <rect id="_Transparent_Rectangle_" x="0" y="0" width="24" height="24"></rect>
    </g>
</svg>