<svg width="24" height="24" viewBox="0 0 24 24" fill="none" xmlns="http://www.w3.org/2000/svg">
<g id="performance_increase_1">
<path id="Shape" fill-rule="evenodd" clip-rule="evenodd" d="M18.9083 5.53918C18.8681 5.49926 18.8134 5.47731 18.7567 5.47835C18.7016 5.48067 18.6496 5.50427 18.6117 5.54418L16 8.37751C15.2766 9.15903 14.1627 9.44461 13.1525 9.10751L10.0508 8.07418C9.84595 8.00665 9.62076 8.04879 9.45417 8.18584L5.16667 11.7592C4.72461 12.1274 4.06777 12.0675 3.69958 11.6254C3.33139 11.1834 3.39128 10.5265 3.83333 10.1583L8.12083 6.58334C8.83995 5.98068 9.82113 5.79625 10.71 6.09668L13.8117 7.13001C14.0438 7.20726 14.2997 7.14215 14.4667 6.96335L17.145 4.05918C17.2211 3.9772 17.2185 3.84968 17.1392 3.77085L16.2883 2.92001C16.1689 2.80083 16.1331 2.62135 16.1977 2.46546C16.2623 2.30956 16.4146 2.20804 16.5833 2.20834H19.9167C20.1468 2.20834 20.3333 2.39489 20.3333 2.62501V5.95835C20.3333 6.12696 20.2317 6.27893 20.0758 6.34335C20.0254 6.36447 19.9713 6.37523 19.9167 6.37501C19.8061 6.37521 19.7 6.33144 19.6217 6.25335L18.9083 5.53918ZM17.8333 8.87501C17.8333 8.64489 18.0199 8.45835 18.25 8.45835H20.75C20.9801 8.45835 21.1667 8.64489 21.1667 8.87501V19.0833C21.1669 19.1387 21.145 19.1918 21.1059 19.2309C21.0668 19.27 21.0137 19.2919 20.9583 19.2917H18.0417C17.9863 19.2919 17.9332 19.27 17.8941 19.2309C17.855 19.1918 17.8331 19.1387 17.8333 19.0833V8.87501ZM7.83333 13.0417C7.83333 12.8116 8.01988 12.625 8.25 12.625H10.75C10.9801 12.625 11.1667 12.8116 11.1667 13.0417V19.0833C11.1669 19.1387 11.145 19.1918 11.1059 19.2309C11.0668 19.27 11.0137 19.2919 10.9583 19.2917H8.04167C7.98635 19.2919 7.93323 19.27 7.89411 19.2309C7.85499 19.1918 7.83311 19.1387 7.83333 19.0833V13.0417ZM5.95833 19.2917H3.04167C2.98635 19.2919 2.93323 19.27 2.89411 19.2309C2.85499 19.1918 2.83311 19.1387 2.83333 19.0833V17.2083C2.83333 16.9782 3.01988 16.7917 3.25 16.7917H5.75C5.98012 16.7917 6.16667 16.9782 6.16667 17.2083V19.0833C6.16689 19.1387 6.14501 19.1918 6.10589 19.2309C6.06677 19.27 6.01365 19.2919 5.95833 19.2917ZM13.25 14.2917C13.0199 14.2917 12.8333 14.4782 12.8333 14.7083V19.0833C12.8331 19.1387 12.855 19.1918 12.8941 19.2309C12.9332 19.27 12.9863 19.2919 13.0417 19.2917H15.9583C16.0137 19.2919 16.0668 19.27 16.1059 19.2309C16.145 19.1918 16.1669 19.1387 16.1667 19.0833V14.7083C16.1667 14.4782 15.9801 14.2917 15.75 14.2917H13.25ZM2.83333 21.7917H21.1667C21.6269 21.7917 22 21.4186 22 20.9583C22 20.4981 21.6269 20.125 21.1667 20.125H2.83333C2.3731 20.125 2 20.4981 2 20.9583C2 21.4186 2.3731 21.7917 2.83333 21.7917Z" fill="#5A5A5A"/>
</g>
</svg>
