<svg width="24" height="24" viewBox="0 0 24 24" fill="none" xmlns="http://www.w3.org/2000/svg">
<g id="performance_presentation_graph">
<path id="Shape" fill-rule="evenodd" clip-rule="evenodd" d="M12.0004 2C11.5394 2 11.1658 2.37368 11.1658 2.83463V3.09337C11.1653 3.20828 11.072 3.30119 10.9571 3.30119H3.67577C2.98434 3.30119 2.42383 3.8617 2.42383 4.55314V16.2037C2.42383 16.8952 2.98434 17.4557 3.67577 17.4557H10.9596C11.0745 17.4557 11.1678 17.5486 11.1683 17.6635V18.5816C11.1673 18.648 11.1347 18.71 11.0806 18.7485L8.60343 20.5213C8.26514 20.8002 8.20029 21.2933 8.45498 21.6501C8.70967 22.007 9.19706 22.106 9.57077 21.8767L11.8794 20.2275C11.9515 20.1749 12.0493 20.1749 12.1214 20.2275L14.43 21.8767C14.8037 22.106 15.2911 22.007 15.5458 21.6501C15.8005 21.2933 15.7356 20.8002 15.3973 20.5213L12.9185 18.7519C12.8644 18.7134 12.8318 18.6514 12.8308 18.5849V17.6669C12.8313 17.5519 12.9246 17.459 13.0395 17.459H20.3233C21.0147 17.459 21.5753 16.8985 21.5753 16.2071V4.5498C21.5753 3.85837 21.0147 3.29785 20.3233 3.29785H13.0412C12.9285 3.29652 12.8373 3.206 12.835 3.09337V2.83463C12.835 2.37368 12.4613 2 12.0004 2ZM13.925 9.26129L15.5684 10.9038C15.6072 10.9432 15.6601 10.9654 15.7153 10.9654C15.7706 10.9654 15.8235 10.9432 15.8622 10.9038L18.2826 8.48341C18.4872 8.24698 18.8068 8.14471 19.1106 8.21841C19.4144 8.29212 19.6516 8.52945 19.7251 8.83333C19.7986 9.13721 19.696 9.45668 19.4595 9.66108L16.8955 12.2251C16.2444 12.8723 15.1929 12.8723 14.5418 12.2251L12.8984 10.5808C12.8173 10.4998 12.6858 10.4998 12.6047 10.5808L10.4188 12.7667C10.1071 13.0802 9.6831 13.256 9.24109 13.255C8.79894 13.2568 8.37461 13.0808 8.06343 12.7667L7.2288 11.9321C7.14736 11.8509 7.0156 11.8509 6.93417 11.9321L6.21305 12.6524C5.8819 12.936 5.38827 12.9169 5.07999 12.6086C4.7717 12.3003 4.75263 11.8067 5.03622 11.4756L5.90424 10.6075C6.56329 9.97916 7.59968 9.97916 8.25873 10.6075L9.09336 11.4422C9.17479 11.5234 9.30655 11.5234 9.38799 11.4422L11.5714 9.26129C11.8835 8.94916 12.3068 8.77381 12.7482 8.77381C13.1896 8.77381 13.6129 8.94916 13.925 9.26129Z" fill="#5A5A5A"/>
</g>
</svg>
