<svg width="24" height="24" viewBox="0 0 24 24" fill="none" xmlns="http://www.w3.org/2000/svg">
<g id="performance_phone_increase">
<path id="Shape" fill-rule="evenodd" clip-rule="evenodd" d="M16.1667 15.3333C16.1667 14.8731 15.7936 14.5 15.3333 14.5C14.8731 14.5 14.5 14.8731 14.5 15.3333V17.2083C14.5002 17.2637 14.4783 17.3168 14.4392 17.3559C14.4001 17.395 14.347 17.4169 14.2917 17.4167H6.375C6.31968 17.4169 6.26656 17.395 6.22744 17.3559C6.18832 17.3168 6.16644 17.2637 6.16667 17.2083V6.79167C6.16667 6.67661 6.25994 6.58333 6.375 6.58333H15.3333C15.7936 6.58333 16.1667 6.21024 16.1667 5.75V4.5C16.1667 3.11929 15.0474 2 13.6667 2H7C5.61929 2 4.5 3.11929 4.5 4.5V19.5C4.5 20.8807 5.61929 22 7 22H13.6667C15.0474 22 16.1667 20.8807 16.1667 19.5V15.3333ZM10.3333 18.6667C10.7936 18.6667 11.1667 19.0398 11.1667 19.5C11.1667 19.9602 10.7936 20.3333 10.3333 20.3333C9.8731 20.3333 9.5 19.9602 9.5 19.5C9.5 19.0398 9.8731 18.6667 10.3333 18.6667ZM14.7262 11.529C14.7833 11.5206 14.8345 11.489 14.8675 11.4417L16.8758 8.54083C16.9325 8.45758 16.9224 8.34588 16.8517 8.27417L16.2883 7.71167C16.1689 7.59249 16.1331 7.41301 16.1977 7.25711C16.2623 7.10122 16.4146 6.9997 16.5833 7H19.0833C19.3135 7 19.5 7.18655 19.5 7.41667V9.91667C19.5 10.0853 19.3983 10.2373 19.2425 10.3017C19.1921 10.3228 19.138 10.3336 19.0833 10.3333C18.9707 10.3351 18.8622 10.2912 18.7825 10.2117L18.3433 9.77167C18.2996 9.72813 18.2388 9.70622 18.1774 9.71185C18.1159 9.71749 18.0601 9.75007 18.025 9.80083L16.1083 12.5733C15.8454 12.9534 15.4365 13.2072 14.9793 13.2742C14.5221 13.3412 14.0575 13.2153 13.6967 12.9267L13.3158 12.6225C13.2668 12.5834 13.2027 12.5685 13.1415 12.5819C13.0802 12.5954 13.0282 12.6357 13 12.6917L12.0108 14.6733C11.7712 15.1517 11.3165 15.486 10.7885 15.572C10.2604 15.6579 9.72314 15.4852 9.34417 15.1075C9.31247 15.0745 9.26716 15.0581 9.22167 15.0633C9.17591 15.0677 9.13458 15.0925 9.10917 15.1308L8.81583 15.5725C8.5604 15.9554 8.04292 16.0588 7.66 15.8033C7.27708 15.5479 7.17373 15.0304 7.42917 14.6475L7.82667 14.0508C8.10351 13.6356 8.55184 13.3663 9.04844 13.3169C9.54504 13.2675 10.0376 13.4433 10.3908 13.7958C10.4213 13.8266 10.4647 13.8408 10.5075 13.8342C10.5501 13.8269 10.5868 13.8001 10.6067 13.7617L11.6283 11.7167C11.8536 11.2667 12.2702 10.9427 12.7617 10.8349C13.2532 10.7272 13.7671 10.8472 14.16 11.1617L14.5658 11.4858C14.611 11.5217 14.6691 11.5374 14.7262 11.529Z" fill="#5A5A5A"/>
</g>
</svg>
