<svg width="24" height="24" viewBox="0 0 24 24" fill="none" xmlns="http://www.w3.org/2000/svg">
<g id="seo_search_settings">
<path id="Shape" fill-rule="evenodd" clip-rule="evenodd" d="M18.1091 15.7571C18.0399 15.6876 18.0285 15.5792 18.0817 15.4967C20.5151 11.7433 19.7235 6.75861 16.2471 3.94373C12.7706 1.12886 7.73026 1.39153 4.5652 4.55252C1.40014 7.7135 1.13099 12.7535 3.9414 16.2336C6.7518 19.7137 11.7355 20.5117 15.492 18.083C15.5746 18.0297 15.6832 18.0415 15.7524 18.1113L19.1385 21.4966C19.5564 21.9292 20.1752 22.1027 20.7571 21.9504C21.339 21.7981 21.7934 21.3437 21.9457 20.7618C22.098 20.1799 21.9245 19.5611 21.4919 19.1432L18.1091 15.7571ZM10.7486 17.8234C6.84212 17.8234 3.67526 14.6565 3.67526 10.75C3.67526 6.8435 6.84212 3.67664 10.7486 3.67664C14.6552 3.67664 17.822 6.8435 17.822 10.75C17.8179 14.6548 14.6535 17.8193 10.7486 17.8234ZM14.6323 9.51592C14.9076 9.21969 14.9579 8.7788 14.7565 8.42816C14.5552 8.07752 14.149 7.89881 13.7544 7.98724L12.74 8.22274C12.3888 8.3038 12.035 8.0985 11.9311 7.7534L11.6266 6.75481C11.5117 6.36566 11.1544 6.09857 10.7486 6.09857C10.3429 6.09857 9.98557 6.36566 9.87071 6.75481L9.56614 7.75423C9.46262 8.09922 9.10906 8.30458 8.75811 8.22357L7.7437 7.98724C7.34914 7.89881 6.94296 8.07752 6.74159 8.42816C6.54021 8.7788 6.59055 9.21969 6.86577 9.51592L7.5756 10.2815C7.82037 10.5462 7.82037 10.9547 7.5756 11.2194L6.86577 11.9849C6.59055 12.2812 6.54021 12.7221 6.74159 13.0727C6.94296 13.4233 7.34914 13.6021 7.7437 13.5136L8.75811 13.2781C9.10906 13.1971 9.46262 13.4025 9.56614 13.7475L9.87071 14.7461C9.98557 15.1352 10.3429 15.4023 10.7486 15.4023C11.1544 15.4023 11.5117 15.1352 11.6266 14.7461L11.9311 13.7475C12.035 13.4024 12.3888 13.1971 12.74 13.2781L13.7544 13.5136C14.149 13.6021 14.5552 13.4233 14.7565 13.0727C14.9579 12.7221 14.9076 12.2812 14.6323 11.9849L13.9225 11.2194C13.6769 10.955 13.6769 10.5459 13.9225 10.2815L14.6323 9.51592ZM10.7486 11.7836C10.1778 11.7836 9.71509 11.3208 9.71509 10.75C9.71509 10.1792 10.1778 9.71647 10.7486 9.71647C11.3195 9.71647 11.7822 10.1792 11.7822 10.75C11.7824 11.0242 11.6736 11.2872 11.4797 11.4811C11.2858 11.675 11.0228 11.7838 10.7486 11.7836Z" fill="#5A5A5A"/>
</g>
</svg>
