<svg width="24" height="24" viewBox="0 0 24 24" fill="none" xmlns="http://www.w3.org/2000/svg">
<g id="seo_network_map">
<path id="Shape" fill-rule="evenodd" clip-rule="evenodd" d="M7.60136 8.68678C7.73683 8.68681 7.86313 8.61565 7.93709 8.49762C8.59813 7.44432 10.0051 5.07689 10.0051 4.02025C10.0051 2.63958 8.92893 1.52032 7.60136 1.52032C6.27379 1.52032 5.19759 2.63958 5.19759 4.02025C5.19759 5.07689 6.6046 7.44348 7.26564 8.49762C7.3396 8.61565 7.4659 8.68681 7.60136 8.68678ZM7.00042 4.02025C7.00042 3.67508 7.26947 3.39527 7.60136 3.39527C7.93326 3.39527 8.20231 3.67508 8.20231 4.02025C8.20231 4.36542 7.93326 4.64523 7.60136 4.64523C7.26947 4.64523 7.00042 4.36542 7.00042 4.02025ZM10.6021 12.9692C10.2081 13.8164 10.004 14.7455 10.0051 15.6866C10.0036 17.3656 10.6536 18.9743 11.808 20.1481C11.8597 20.2015 11.8796 20.2798 11.8597 20.3528C11.8399 20.4257 11.7836 20.4817 11.7126 20.4989C8.37103 21.3034 4.92485 19.6842 3.29651 16.5447C1.66817 13.4051 2.25993 9.5208 4.74167 7.0585C4.78659 7.01344 4.84919 6.99284 4.91085 7.00282C4.97251 7.0128 5.02614 7.05221 5.05576 7.10933C5.36104 7.68681 5.75046 8.37429 6.25926 9.1801C6.55511 9.65169 7.05993 9.93602 7.60136 9.93602C8.14279 9.93602 8.64761 9.65169 8.94347 9.1801C9.7953 7.92234 10.4915 6.55804 11.0155 5.11939C11.046 5.02115 11.1413 4.96114 11.2391 4.97856C13.4274 5.36087 15.3473 6.71482 16.4985 8.68761C16.5051 8.69931 16.5129 8.71021 16.5218 8.72011C16.5408 8.74193 16.5577 8.76566 16.5723 8.79095C16.6401 8.91316 16.705 9.03622 16.767 9.1601C16.8012 9.22755 16.797 9.30907 16.7562 9.37241C16.7154 9.43575 16.6444 9.4707 16.5715 9.46343C16.3877 9.44565 16.2021 9.43676 16.0146 9.43676C15.7099 9.437 15.4056 9.46095 15.1043 9.50842C15.0701 9.4509 15.0091 9.41662 14.9441 9.41843H12.7134C11.9319 9.41791 11.2032 9.82866 10.777 10.5099C10.3508 11.1912 10.285 12.0505 10.6021 12.7933C10.6269 12.8491 10.6269 12.9134 10.6021 12.9692ZM7.70633 18.4682C7.76336 18.4293 7.79771 18.3632 7.79767 18.2923V16.5199C7.79591 15.7132 7.1671 15.06 6.39146 15.0591H4.69119C4.62296 15.0586 4.55921 15.0944 4.52219 15.154C4.48516 15.2136 4.48 15.2888 4.50851 15.3533C5.11278 16.7408 6.18115 17.8528 7.51483 18.4823C7.57677 18.5121 7.64907 18.5068 7.70633 18.4682ZM19.7332 18.144C19.6819 18.226 19.693 18.3342 19.7597 18.4032L21.3862 20.0973C21.6993 20.4227 21.6995 20.9504 21.3866 21.276C21.0738 21.6016 20.5663 21.6018 20.2532 21.2764L18.6267 19.5815C18.5599 19.513 18.4566 19.5016 18.3775 19.554C16.4808 20.8075 13.981 20.376 12.5754 18.5525C11.1698 16.729 11.3086 14.0976 12.8976 12.445C14.4867 10.7924 17.0169 10.648 18.7703 12.1098C20.5237 13.5717 20.9385 16.1715 19.7332 18.144ZM13.2102 15.6866C13.2102 17.2974 14.4657 18.6032 16.0146 18.6032C17.5634 18.6032 18.819 17.2974 18.819 15.6866C18.819 14.0758 17.5634 12.77 16.0146 12.77C14.4657 12.77 13.2102 14.0758 13.2102 15.6866Z" fill="#5A5A5A"/>
</g>
</svg>
