<svg width="24" height="24" viewBox="0 0 24 24" fill="none" xmlns="http://www.w3.org/2000/svg">
<g id="seo_label">
<path id="Shape" fill-rule="evenodd" clip-rule="evenodd" d="M10.1724 2.37186C9.93339 2.13441 9.61045 2.00066 9.27352 1.99957H3.27204C2.56951 1.99957 2 2.56908 2 3.27161L2.00509 9.27564C2.00473 9.61302 2.13904 9.93659 2.37822 10.1745L13.8325 21.628C14.3292 22.1246 15.1344 22.1246 15.6312 21.628L21.6276 15.6324C22.1241 15.1357 22.1241 14.3305 21.6276 13.8338L10.1724 2.37186ZM6.76675 10.5129C6.30495 10.5139 5.8618 10.3308 5.53542 10.0041L4.51779 8.98646C4.26792 8.738 4.26678 8.33403 4.51525 8.08416C4.76371 7.83429 5.16768 7.83316 5.41755 8.08162L6.43518 9.09925C6.58139 9.24528 6.80595 9.2784 6.9881 9.18079C7.17024 9.08318 7.26702 8.87785 7.22639 8.67523L6.85834 6.83756C6.70988 6.08624 7.06957 5.32608 7.74467 4.96446C8.41977 4.60283 9.25187 4.72459 9.79506 5.26447L10.8127 6.2821C11.0462 6.5327 11.0393 6.92322 10.7971 7.16543C10.5549 7.40763 10.1644 7.41452 9.91378 7.18101L8.89615 6.16338C8.74994 6.01735 8.52537 5.98423 8.34323 6.08184C8.16109 6.17945 8.06431 6.38478 8.10494 6.58739L8.47214 8.42591C8.57486 8.93722 8.44273 9.46764 8.11215 9.87101C7.78157 10.2744 7.28743 10.5081 6.76591 10.5078L6.76675 10.5129ZM10.9806 11.8528C11.0998 11.9726 11.2619 12.0398 11.4309 12.0394L11.4292 12.0343C11.6863 12.034 11.9179 11.8791 12.0163 11.6416C12.1146 11.404 12.0603 11.1307 11.8787 10.9488L11.2791 10.3492C11.2392 10.3095 11.2168 10.2555 11.2168 10.1991C11.2168 10.1428 11.2392 10.0888 11.2791 10.049L11.8787 9.44609C11.9614 9.36361 12.0953 9.36361 12.178 9.44609L13.3814 10.6452C13.5399 10.8154 13.7787 10.8854 14.0041 10.8279C14.2294 10.7703 14.4054 10.5943 14.4629 10.369C14.5205 10.1436 14.4504 9.90485 14.2803 9.74629L13.0812 8.54633C12.5006 7.96904 11.5628 7.96904 10.9823 8.54633L8.58068 10.9454C8.00162 11.5249 8.00162 12.4639 8.58068 13.0434L9.78149 14.2519C9.94221 14.4126 10.1765 14.4754 10.396 14.4165C10.6156 14.3577 10.7871 14.1862 10.8459 13.9666C10.9047 13.7471 10.842 13.5128 10.6812 13.3521L9.48213 12.1521C9.44212 12.1128 9.41978 12.059 9.42023 12.0029C9.42003 11.9466 9.44232 11.8926 9.48213 11.8528L10.0817 11.2532C10.1644 11.1708 10.2983 11.1708 10.381 11.2532L10.9806 11.8528ZM16.9431 15.1872L15.1376 16.9783C14.3922 17.7234 13.1839 17.7232 12.4388 16.9778C11.6936 16.2325 11.6938 15.0241 12.4392 14.279L14.2379 12.4803C14.9863 11.7546 16.1786 11.7636 16.9161 12.5006C17.6535 13.2375 17.6632 14.4298 16.938 15.1787L16.9431 15.1872ZM15.141 13.3801C15.2603 13.2608 15.4222 13.194 15.5909 13.1944C15.8482 13.1939 16.0804 13.3488 16.1788 13.5865C16.2773 13.8244 16.2225 14.0983 16.0399 14.2798L14.2404 16.0785C13.9891 16.3183 13.5937 16.3183 13.3423 16.0785C13.2228 15.9595 13.1556 15.7977 13.1556 15.629C13.1556 15.4604 13.2228 15.2986 13.3423 15.1796L15.141 13.3801ZM15.5909 13.1944C15.591 13.1944 15.5912 13.1944 15.5913 13.1944H15.5905C15.5906 13.1944 15.5907 13.1944 15.5909 13.1944Z" fill="#5A5A5A"/>
</g>
</svg>
