<svg width="24" height="24" viewBox="0 0 24 24" fill="none" xmlns="http://www.w3.org/2000/svg">
<g id="seo_search_star">
<path id="Shape" fill-rule="evenodd" clip-rule="evenodd" d="M3.2619 15.049L2.67348 15.6383C2.55468 15.7574 2.51921 15.9363 2.58355 16.0918C2.64789 16.2473 2.79943 16.3488 2.96769 16.3492H5.32472C5.55488 16.3492 5.74146 16.1626 5.74146 15.9325V13.5754C5.74142 13.407 5.64001 13.2552 5.48446 13.1906C5.32891 13.1261 5.14979 13.1615 5.03051 13.2804L4.78047 13.5304C4.73365 13.5777 4.66715 13.5999 4.60135 13.5901C4.53554 13.5804 4.47827 13.54 4.44709 13.4813C3.92934 12.5131 3.66121 11.4311 3.66697 10.3333C3.6711 6.65251 6.65391 3.6697 10.3347 3.66557C11.3508 3.66277 12.3539 3.89436 13.266 4.34234C13.6802 4.54465 14.1801 4.37281 14.3824 3.95853C14.5847 3.54425 14.4128 3.04441 13.9986 2.84211C12.8584 2.28295 11.6046 1.99431 10.3347 1.99864C5.73368 2.0037 2.00509 5.73228 2.00004 10.3333C1.99503 11.9116 2.4428 13.4583 3.29024 14.7898C3.34271 14.8722 3.33093 14.9799 3.2619 15.049ZM14.4411 9.55815C14.6014 9.41511 14.655 9.18714 14.5754 8.98765C14.4958 8.78817 14.2999 8.65977 14.0852 8.66635H12.1349C12.0552 8.66664 11.9825 8.62085 11.9483 8.54883L10.9364 6.46517C10.8418 6.28151 10.6525 6.1661 10.4459 6.1661C10.2393 6.1661 10.0501 6.28151 9.95544 6.46517L8.93862 8.54966C8.90356 8.62121 8.83077 8.6665 8.75109 8.66635H6.80162C6.58632 8.65841 6.38925 8.7866 6.30924 8.98664C6.22922 9.18668 6.28352 9.41541 6.4449 9.55815L8.15433 11.3434C8.21193 11.4045 8.22766 11.4939 8.19434 11.571L7.25086 13.7455C7.16079 13.9613 7.21843 14.2105 7.39411 14.3649C7.5698 14.5192 7.82437 14.5443 8.02681 14.4272L10.3422 13.1229C10.4055 13.0871 10.483 13.0871 10.5464 13.1229L12.8617 14.4272C13.0642 14.5443 13.3187 14.5192 13.4944 14.3649C13.6701 14.2105 13.7278 13.9613 13.6377 13.7455L12.6925 11.571C12.6592 11.4938 12.6753 11.4042 12.7334 11.3434L14.4411 9.55815ZM18.3451 15.9866L21.5122 19.1538L21.5114 19.1555C22.1625 19.8063 22.1627 20.8618 21.5118 21.5129C20.8609 22.164 19.8055 22.1642 19.1544 21.5133L15.9872 18.3462C15.7053 18.0664 15.6599 17.6266 15.8789 17.2952C15.9336 17.2125 15.9224 17.1027 15.8522 17.0326L15.7355 16.916C15.661 16.8414 15.5426 16.8343 15.4596 16.8993C12.9267 18.8794 9.48071 19.2261 6.60409 17.7903C6.33789 17.6563 6.16339 17.3904 6.14633 17.0929C6.12927 16.7954 6.27224 16.5113 6.52139 16.3478C6.77053 16.1842 7.088 16.166 7.35421 16.3C9.95169 17.5992 13.0914 17.0677 15.1164 14.9859C17.1415 12.904 17.5861 9.75087 16.2156 7.19028C16.1849 7.13204 16.1282 7.09205 16.0631 7.08277C15.9977 7.07269 15.9315 7.09436 15.8847 7.14111L15.6388 7.38698C15.5196 7.50609 15.3403 7.54162 15.1846 7.47699C15.0291 7.41231 14.9278 7.26037 14.9279 7.09193V4.73407C14.9279 4.50391 15.1145 4.31734 15.3446 4.31734H17.7016C17.8703 4.31737 18.0223 4.41903 18.0867 4.57488C18.1511 4.73072 18.1152 4.91002 17.9959 5.02911L17.4074 5.61754C17.3384 5.68656 17.3263 5.79412 17.3783 5.87675C19.2617 8.85139 19.0702 12.6893 16.8999 15.4616C16.835 15.5442 16.8421 15.6624 16.9165 15.7366L17.034 15.8541C17.1039 15.9239 17.2132 15.9351 17.2957 15.8808C17.6262 15.6622 18.0649 15.7064 18.3451 15.9866Z" fill="#5A5A5A"/>
</g>
</svg>
