<?xml version="1.0" encoding="UTF-8"?>
<svg width="24px" height="24px" viewBox="0 0 24 24" version="1.1" xmlns="http://www.w3.org/2000/svg" xmlns:xlink="http://www.w3.org/1999/xlink">
    <title>7. Business and Products/seo_search_one</title>
    <g id="7.-Business-and-Products/seo_search_one" stroke="none" stroke-width="1" fill="none" fill-rule="evenodd">
        <path d="M17.7009342,4.62704254 C17.8695669,4.62704254 18.0215569,4.72467149 18.0859749,4.87428166 C18.1503928,5.02389183 18.11454,5.19602522 17.995148,5.31035213 L17.995148,5.31035213 L17.4067203,5.87524273 C17.3377267,5.94150367 17.3256223,6.04475763 17.377549,6.12408264 C19.2610176,8.97975433 19.0694568,12.6641301 16.8991389,15.3255584 C16.8346294,15.405041 16.841772,15.518179 16.9158083,15.5896008 L16.9158083,15.5896008 L17.0333271,15.7024189 C17.1032158,15.7694221 17.2125043,15.7801143 17.2950358,15.728023 C17.6255049,15.5181267 18.0642253,15.5606118 18.3443707,15.8296393 L18.3443707,15.8296393 L21.5115454,18.8701269 C22.1626554,19.4949716 22.162842,20.5082242 21.5119621,21.1332899 C20.8610822,21.7583556 19.8056107,21.7585347 19.1545007,21.1336899 L19.1545007,21.1336899 L15.987326,18.0892017 C15.7067287,17.820988 15.6614409,17.400271 15.8789753,17.0826402 C15.9339132,17.0034231 15.9231076,16.8980161 15.8531378,16.8305998 L15.8531378,16.8305998 L15.735619,16.7185818 C15.6613847,16.6471584 15.543251,16.6402851 15.4605749,16.7025793 C12.9274518,18.6038514 9.48100813,18.9367027 6.60415444,17.5579165 C6.33794888,17.4292802 6.16345085,17.1740772 6.14639208,16.8884399 C6.12933332,16.6028027 6.27230544,16.3301262 6.52145224,16.1731252 C6.77059904,16.0161242 7.08806919,15.9986507 7.35427475,16.127287 C9.95177525,17.3745299 13.091456,16.8642302 15.1165302,14.8656694 C17.1416044,12.8671086 17.5861955,9.8400637 16.215696,7.38188437 C16.1850552,7.32597422 16.1283215,7.28758126 16.0631715,7.27866782 C15.997818,7.26899228 15.9315735,7.28979429 15.8848096,7.3346768 L15.8848096,7.3346768 L15.6389368,7.57071466 C15.519663,7.68506057 15.3403807,7.71916698 15.1846973,7.65712852 C15.029173,7.59503559 14.9278771,7.44916961 14.9279895,7.28746923 L14.9279895,7.28746923 L14.9279895,5.0271067 C14.9279895,4.80615737 15.1145674,4.62704254 15.344723,4.62704254 L15.344723,4.62704254 Z M10.3347528,2.39783883 C11.6046716,2.39372373 12.8584779,2.67081605 13.9986737,3.20761488 C14.4129537,3.40182936 14.584792,3.88167797 14.3824853,4.27938677 C14.1801786,4.67709558 13.6803362,4.84206033 13.2660562,4.64784588 C12.3539906,4.21778441 11.3508938,3.9954546 10.3347528,3.99814167 C6.6539775,4.00211022 3.67115061,6.86562404 3.6670167,10.3991683 C3.66125676,11.4531317 3.92938904,12.4918349 4.44714182,13.421253 C4.47832647,13.4776584 4.53559476,13.5164649 4.60140124,13.525783 C4.66720773,13.5351012 4.73370817,13.5138205 4.78052863,13.4684606 L4.78052863,13.4684606 L5.03056873,13.2284221 C5.14984455,13.1142749 5.32896526,13.0802709 5.48451986,13.1422447 C5.64007447,13.2042186 5.74148042,13.3499859 5.74151609,13.5116675 L5.74151609,13.5116675 L5.74151609,15.7744304 C5.74151609,15.9953797 5.55493814,16.1744946 5.32478258,16.1744946 L5.32478258,16.1744946 L2.96773788,16.1744946 C2.79910515,16.1744946 2.64711515,16.0768656 2.58269722,15.9272554 C2.5182793,15.7776453 2.55413205,15.6055119 2.67352403,15.491185 L2.67352403,15.491185 L3.26195174,14.9262944 C3.33097319,14.8599715 3.3427534,14.7565274 3.29028962,14.6774545 C2.44283859,13.3991727 1.99506653,11.9143744 2.000041,10.3991683 C2.00513547,5.98219234 5.73373615,2.40273569 10.3347528,2.39783883 Z M10.2397375,5.75041704 C10.9873623,5.75130443 11.593203,6.33291144 11.5941214,7.05063124 L11.5941214,7.05063124 L11.5941214,11.9514173 C11.5941214,12.0618919 11.6874104,12.1514493 11.8024882,12.1514493 L11.8024882,12.1514493 L12.6359552,12.1514493 C13.2113441,12.1514493 13.6777889,12.5992364 13.6777889,13.1516097 C13.6777889,13.7039831 13.2113441,14.1517702 12.6359552,14.1517702 L12.6359552,14.1517702 L8.46862014,14.1517702 C7.89323124,14.1517702 7.42678638,13.7039831 7.42678638,13.1516097 C7.42678638,12.5992364 7.89323124,12.1514493 8.46862014,12.1514493 L8.46862014,12.1514493 L9.30208715,12.1514493 C9.41716493,12.1514493 9.5104539,12.0618919 9.5104539,11.9514173 L9.5104539,11.9514173 L9.5104539,9.04775155 C9.51060489,8.96673501 9.45983625,8.89363144 9.38187632,8.86260813 C9.30391638,8.83158483 9.2141623,8.8487689 9.15456349,8.90612884 L9.15456349,8.90612884 L8.78867147,9.2581853 C8.38175644,9.64882372 7.72201684,9.64882371 7.31510181,9.25818529 C6.90818679,8.86754687 6.90818678,8.23419685 7.3151018,7.84355842 L7.3151018,7.84355842 L8.96870035,6.25530369 C9.30528328,5.93101084 9.76287401,5.7492468 10.2397375,5.75041704 Z" id="ðŸ–-Color" fill="#5A5A5A"></path>
        <rect id="_Transparent_Rectangle_" x="0" y="0" width="24" height="24"></rect>
    </g>
</svg>