<svg width="24" height="24" viewBox="0 0 24 24" fill="none" xmlns="http://www.w3.org/2000/svg">
<g id="seo_search_page">
<path id="Shape" fill-rule="evenodd" clip-rule="evenodd" d="M4.49998 16.3997H9.70826C10.1685 16.3997 10.5416 16.7578 10.5416 17.1997C10.5416 17.6415 10.1685 17.9997 9.70826 17.9997H4.49998C3.11928 17.9997 2 16.9252 2 15.5997V4.79979C2 3.47432 3.11928 2.39981 4.49998 2.39981H17.4165C18.7972 2.39981 19.9165 3.47432 19.9165 4.79979V10.1997C19.9165 10.6416 19.5434 10.9997 19.0832 10.9997C18.6229 10.9997 18.2498 10.6416 18.2498 10.1997V8.39975C18.2498 8.17884 18.0633 7.99976 17.8332 7.99976H4.08331C3.8532 7.99976 3.66665 8.17884 3.66665 8.39975V15.5997C3.66665 16.0415 4.03974 16.3997 4.49998 16.3997ZM11.1666 5.19978C11.1666 4.75796 10.7935 4.39979 10.3333 4.39979C9.87302 4.39979 9.49993 4.75796 9.49993 5.19978C9.49993 5.64161 9.87302 5.99978 10.3333 5.99978C10.7935 5.99978 11.1666 5.64161 11.1666 5.19978ZM7.83328 4.39979C8.29351 4.39979 8.6666 4.75796 8.6666 5.19978C8.6666 5.64161 8.29351 5.99978 7.83328 5.99978C7.37305 5.99978 6.99995 5.64161 6.99995 5.19978C6.99995 4.75796 7.37305 4.39979 7.83328 4.39979ZM6.16663 5.19978C6.16663 4.75796 5.79354 4.39979 5.3333 4.39979C4.87307 4.39979 4.49998 4.75796 4.49998 5.19978C4.49998 5.64161 4.87307 5.99978 5.3333 5.99978C5.79354 5.99978 6.16663 5.64161 6.16663 5.19978ZM20.0332 18.3589C19.9807 18.4379 19.9925 18.5413 20.0615 18.6077L21.7556 20.234C21.9663 20.4361 22.0486 20.7307 21.9717 21.0069C21.8947 21.283 21.6701 21.4988 21.3825 21.5729C21.0949 21.6469 20.788 21.5681 20.5773 21.366L18.8832 19.7388C18.8138 19.6731 18.7063 19.6622 18.624 19.7124C16.6518 20.9166 14.0518 20.5032 12.5892 18.753C11.1267 17.0028 11.2703 14.4765 12.9225 12.8895C14.5747 11.3024 17.2062 11.1631 19.0302 12.566C20.8542 13.969 21.2863 16.4649 20.0332 18.3589ZM13.2499 15.9997C13.2499 17.5461 14.5557 18.7997 16.1665 18.7997C17.7773 18.7997 19.0832 17.5461 19.0832 15.9997C19.0832 14.4533 17.7773 13.1997 16.1665 13.1997C14.5557 13.1997 13.2499 14.4533 13.2499 15.9997ZM7.93161 12.4933L10.7733 9.64694C10.9772 9.43269 11.2861 9.34132 11.5803 9.40819C11.8745 9.47505 12.108 9.68966 12.1902 9.96897C12.2725 10.2483 12.1907 10.5484 11.9766 10.7533L8.38244 14.3533C8.22529 14.5105 8.00815 14.5994 7.7812 14.5994C7.55424 14.5994 7.3371 14.5105 7.17995 14.3533L5.98163 13.1533C5.76746 12.9484 5.68569 12.6482 5.76797 12.3689C5.85025 12.0896 6.08366 11.875 6.37788 11.8082C6.6721 11.7413 6.98097 11.8327 7.18495 12.0469L7.63078 12.4933C7.67007 12.5327 7.7244 12.5549 7.7812 12.5549C7.83799 12.5549 7.89232 12.5327 7.93161 12.4933Z" fill="#5A5A5A"/>
</g>
</svg>
