<?xml version="1.0" encoding="UTF-8"?>
<svg width="24px" height="24px" viewBox="0 0 24 24" version="1.1" xmlns="http://www.w3.org/2000/svg" xmlns:xlink="http://www.w3.org/1999/xlink">
    <title>7. Business and Products/seo_network_map</title>
    <g id="7.-Business-and-Products/seo_network_map" stroke="none" stroke-width="1" fill="none" fill-rule="evenodd">
        <path d="M12.8977084,12.4449811 C14.4867558,10.7923719 17.0169624,10.6479698 18.7703461,12.1098222 C20.5237299,13.5716746 20.938607,16.1714877 19.7332804,18.1440173 C19.6820083,18.2260249 19.6930436,18.3341849 19.759722,18.4031763 L19.759722,18.4031763 L21.3862769,20.0972934 C21.6993619,20.4226717 21.6995412,20.9504005 21.3866775,21.2760089 C21.0738138,21.6016172 20.5663822,21.6018038 20.2532973,21.2764256 L20.2532973,21.2764256 L18.6267423,19.5814752 C18.5599905,19.5130338 18.4566267,19.5016273 18.3775509,19.553976 C16.4808878,20.8075156 13.9810676,20.3760434 12.5754403,18.5525243 C11.1698129,16.7290052 11.3086611,14.0975904 12.8977084,12.4449811 Z M11.1812483,4.97709618 L11.2391381,4.97856934 C13.427421,5.3608809 15.3473309,6.71483265 16.4985995,8.68762742 C16.5051616,8.69932347 16.5129551,8.71022359 16.521836,8.72012647 C16.5408714,8.7419443 16.5577805,8.76567071 16.5723153,8.79095773 C16.6401552,8.91317638 16.7050571,9.03622833 16.7670211,9.16011359 C16.8012172,9.22756353 16.7970858,9.30908529 16.7562616,9.37242308 C16.7154374,9.43576087 16.6444987,9.47070843 16.571514,9.46343805 C16.3877587,9.44566079 16.2021338,9.43677216 16.0146393,9.43677216 C15.7099351,9.43700861 15.4056753,9.46096372 15.1044095,9.50843673 C15.0702034,9.45091078 15.0091703,9.41663457 14.9441578,9.41843936 L14.9441578,9.41843936 L12.7134539,9.41843936 C11.9319437,9.41792387 11.2032489,9.82867071 10.7770507,10.5099409 C10.3508524,11.1912111 10.2850302,12.0504854 10.6021375,12.7933406 C10.6269749,12.8491038 10.6269749,12.9134055 10.6021375,12.9691688 C10.2082024,13.8164013 10.0041067,14.7454996 10.0051998,15.6865892 C10.0036507,17.3656321 10.6536773,18.9742773 11.8080317,20.1481253 C11.8597928,20.2014698 11.879616,20.2798399 11.8597949,20.3527683 C11.8399738,20.4256967 11.7836354,20.4816778 11.7126819,20.4989483 C8.37108637,21.3034055 4.92490931,19.6842456 3.29657012,16.5447029 C1.66823094,13.4051601 2.25998687,9.52081226 4.74173212,7.05850845 C4.78664966,7.01345411 4.84924995,6.9928526 4.91091245,7.00283186 C4.97257495,7.01281112 5.02619582,7.05222148 5.05582549,7.10934029 C5.36110501,7.68682339 5.75051669,8.37430326 6.2593159,9.18011301 C6.5551735,9.65169861 7.05999396,9.93602867 7.60142404,9.93602867 C8.14285413,9.93602867 8.64767458,9.65169861 8.94353219,9.18011301 C9.79536003,7.9223534 10.4915203,6.55805165 11.0155869,5.11939855 C11.0460507,5.02116245 11.1413127,4.96115076 11.2391381,4.97856934 Z M16.0146393,12.7700079 C14.4658091,12.7700079 13.2102342,14.0758058 13.2102342,15.6865892 C13.2102342,17.2973726 14.4658091,18.6031705 16.0146393,18.6031705 C17.5634694,18.6031705 18.8190444,17.2973726 18.8190444,15.6865892 C18.8190444,14.0758058 17.5634694,12.7700079 16.0146393,12.7700079 Z M6.39152357,15.0591024 L4.69125283,15.0591024 C4.62301796,15.0586054 4.55926901,15.0944056 4.52224654,15.1540183 C4.48522407,15.213631 4.48006374,15.2887868 4.50856587,15.3532656 C5.11284381,16.740795 6.18120869,17.8527828 7.51488812,18.4823407 C7.57682609,18.5121289 7.64912869,18.5067804 7.70638892,18.4681744 C7.76342045,18.4293556 7.7977715,18.3632328 7.79773243,18.2923462 L7.79773243,18.2923462 L7.79773243,16.5198981 C7.79596708,15.713237 7.16716078,15.0600237 6.39152357,15.0591024 L6.39152357,15.0591024 Z M7.60142404,1.52033724 C8.92899275,1.52033724 10.0051998,2.6395926 10.0051998,4.02026406 C10.0051998,5.07689979 8.59818974,7.44433049 7.9371514,8.49763299 C7.86318901,8.61566079 7.7368863,8.68679412 7.60142404,8.68679412 C7.46596179,8.68679412 7.33965908,8.61566079 7.26569669,8.49763299 C6.60465835,7.44349718 5.19764826,5.07689979 5.19764826,4.02026406 C5.19764826,2.6395926 6.27385534,1.52033724 7.60142404,1.52033724 Z M7.60142404,3.39528235 C7.26953187,3.39528235 7.0004801,3.67509619 7.0004801,4.02026406 C7.0004801,4.36543192 7.26953187,4.64524576 7.60142404,4.64524576 C7.93331622,4.64524576 8.20236799,4.36543192 8.20236799,4.02026406 C8.20236799,3.67509619 7.93331622,3.39528235 7.60142404,3.39528235 Z" id="ðŸ–-Color" fill="#5A5A5A"></path>
        <rect id="_Transparent_Rectangle_" x="0" y="0" width="24" height="24"></rect>
    </g>
</svg>