<?xml version="1.0" encoding="UTF-8"?>
<svg width="24px" height="24px" viewBox="0 0 24 24" version="1.1" xmlns="http://www.w3.org/2000/svg" xmlns:xlink="http://www.w3.org/1999/xlink">
    <title>7. Business and Products/seo_search_settings</title>
    <g id="7.-Business-and-Products/seo_search_settings" stroke="none" stroke-width="1" fill="none" fill-rule="evenodd">
        <path d="M4.56520089,4.55252641 C7.73025886,1.39153664 12.7705698,1.12886901 16.2470503,3.94374578 C19.7235309,6.75862254 20.5150999,11.7433138 18.0816574,15.4966864 C18.0284796,15.5791776 18.0399071,15.6875658 18.1091188,15.7571533 L18.1091188,15.7571533 L21.4918599,19.143223 C21.9245122,19.5610926 22.0980281,20.1798944 21.9457166,20.7617915 C21.7934052,21.3436886 21.3389696,21.7981243 20.7570725,21.9504357 C20.1751754,22.1027472 19.5563735,21.9292313 19.138504,21.4965789 L19.138504,21.4965789 L15.7524342,18.1113414 C15.6832,18.0415583 15.5745704,18.0297583 15.4919673,18.0830478 C11.735468,20.5116608 6.75179896,19.7136813 3.94139588,16.2335832 C1.1309928,12.7534851 1.40014292,7.71351618 4.56520089,4.55252641 Z M10.7486403,3.67664843 C6.84211915,3.67664843 3.675258,6.84350957 3.675258,10.7500308 C3.675258,14.656552 6.84211915,17.8234131 10.7486403,17.8234131 C14.6534504,17.8192852 17.8178947,14.6548408 17.8220227,10.7500308 C17.8220227,6.84350957 14.6551615,3.67664843 10.7486403,3.67664843 Z M10.7486403,6.09858128 C11.154381,6.09858128 11.5117074,6.3656758 11.6265719,6.75481799 L11.6265719,6.75481799 L11.9311434,7.75341315 C12.0350255,8.09851231 12.3888447,8.30381482 12.7400055,8.22275287 L12.7400055,8.22275287 L13.7544118,7.98725084 C14.1489733,7.89881764 14.5551534,8.07753289 14.7565274,8.4281719 C14.9579015,8.77881091 14.9075669,9.21970525 14.6323433,9.51593359 L14.6323433,9.51593359 L13.9225086,10.2815232 C13.6769349,10.5459117 13.6769349,10.954982 13.9225086,11.2193705 L13.9225086,11.2193705 L14.6323433,11.9849601 C14.9075669,12.2811884 14.9579015,12.7220828 14.7565274,13.0727218 C14.5551534,13.4233608 14.1489733,13.6020761 13.7544118,13.5136429 L13.7544118,13.5136429 L12.7400055,13.2781408 C12.3888447,13.1970789 12.0350255,13.4023814 11.9311434,13.7474806 L11.9311434,13.7474806 L11.6265719,14.7460757 C11.5117074,15.1352179 11.154381,15.4023124 10.7486403,15.4023124 C10.3428997,15.4023124 9.98557325,15.1352179 9.87070877,14.7460757 L9.87070877,14.7460757 L9.56613725,13.7474806 C9.46261666,13.4025 9.10905826,13.1971376 8.75810734,13.2781408 L8.75810734,13.2781408 L7.74370109,13.5136429 C7.34913957,13.6020761 6.94295948,13.4233608 6.74158542,13.0727218 C6.54021136,12.7220828 6.59054597,12.2811884 6.86576952,11.9849601 L6.86576952,11.9849601 L7.57560424,11.2193705 C7.82037157,10.9546658 7.82037157,10.5462279 7.57560424,10.2815232 L7.57560424,10.2815232 L6.86576952,9.51593359 C6.59054597,9.21970525 6.54021136,8.77881091 6.74158542,8.4281719 C6.94295948,8.07753289 7.34913957,7.89881764 7.74370109,7.98725084 L7.74370109,7.98725084 L8.75810734,8.22358503 C9.10905826,8.30458828 9.46261666,8.09922583 9.56613725,7.75424531 L9.56613725,7.75424531 L9.87070877,6.75481799 C9.98557325,6.3656758 10.3428997,6.09858128 10.7486403,6.09858128 Z M10.7486403,9.71648479 C10.1778287,9.71648479 9.71509436,10.1792191 9.71509436,10.7500308 C9.71509436,11.3208425 10.1778287,11.7835771 10.7486403,11.7835771 C11.0228215,11.7837978 11.2858364,11.6749776 11.4797118,11.4811022 C11.6735872,11.2872268 11.7824074,11.0242119 11.7821867,10.7500308 C11.7821867,10.1792191 11.319452,9.71648479 10.7486403,9.71648479 Z" id="ðŸ–-Color" fill="#5A5A5A"></path>
        <rect id="_Transparent_Rectangle_" x="0" y="0" width="24" height="24"></rect>
    </g>
</svg>