<?xml version="1.0" encoding="UTF-8"?>
<svg width="24px" height="24px" viewBox="0 0 24 24" version="1.1" xmlns="http://www.w3.org/2000/svg" xmlns:xlink="http://www.w3.org/1999/xlink">
    <title>7. Business and Products/seo_label</title>
    <g id="7.-Business-and-Products/seo_label" stroke="none" stroke-width="1" fill="none" fill-rule="evenodd">
        <path d="M9.27351989,1.99957599 C9.61044761,2.00066252 9.93339,2.13440941 10.1724276,2.37185945 L10.1724276,2.37185945 L21.6275642,13.8337803 C22.1241453,14.3305114 22.1241453,15.1357125 21.6275642,15.6324436 L21.6275642,15.6324436 L15.6311716,21.6279882 C15.1344405,22.1245693 14.3292393,22.1245693 13.8325082,21.6279882 L13.8325082,21.6279882 L2.37821964,10.1745476 C2.13904285,9.93659463 2.00472993,9.61302259 2.00508816,9.27563996 L2.00508816,9.27563996 L2,3.27161514 C2,2.56908732 2.56951133,1.99957599 3.27203916,1.99957599 L3.27203916,1.99957599 Z M16.9160542,12.5005734 C16.1786343,11.7636166 14.9863401,11.7546048 14.2378647,12.4803306 L14.2378647,12.4803306 L12.4392013,14.278994 C11.6938193,15.0241418 11.6936295,16.232455 12.4387773,16.977837 C13.1839252,17.723219 14.3922384,17.7234089 15.1376204,16.9782611 L15.1376204,16.9782611 L16.943068,15.1872299 L16.9379798,15.1787497 C17.6632351,14.4298184 17.6534742,13.2375301 16.9160542,12.5005734 Z M15.591,13.193576 L15.6856303,13.2012872 C15.9039423,13.2337833 16.0926235,13.3783911 16.1788119,13.5865444 C16.2773131,13.824434 16.2224573,14.0982543 16.0399202,14.279842 L16.0399202,14.279842 L14.2404088,16.0785054 L14.1516931,16.1495622 C13.9029951,16.3153616 13.5657472,16.291676 13.3423491,16.0785054 C13.222827,15.9594727 13.1556388,15.7977356 13.1556388,15.6290515 C13.1556388,15.4603674 13.222827,15.2986304 13.3423491,15.1795977 L13.3423491,15.1795977 L15.1410125,13.3800863 C15.2604157,13.2607197 15.4224793,13.1938799 15.5913144,13.1943659 L15.591,13.193576 Z M13.0811571,8.54633751 C12.5006254,7.96904104 11.5628242,7.96904104 10.9822925,8.54633751 L10.9822925,8.54633751 L8.58068256,10.9454034 C8.00162047,11.5248744 8.00162047,12.4639489 8.58068256,13.0434199 L8.58068256,13.0434199 L9.78148753,14.2518571 C9.9422134,14.412583 10.1764765,14.4753536 10.3960321,14.4165239 C10.6155877,14.3576941 10.7870802,14.1862016 10.84591,13.966646 C10.9047397,13.7470904 10.8419691,13.5128273 10.6812432,13.3521014 L10.6812432,13.3521014 L9.48213431,12.1521445 C9.44212389,12.1128397 9.41978297,12.0589767 9.42022841,12.0028919 C9.42003415,11.9466074 9.44231886,11.8925746 9.48213431,11.8527913 L9.48213431,11.8527913 L10.0816888,11.2532368 C10.1644285,11.1707555 10.2983022,11.1707555 10.381042,11.2532368 L10.381042,11.2532368 L10.9805964,11.8527913 C11.0997532,11.9726287 11.2619038,12.0398097 11.4308983,12.039357 L11.4308983,12.039357 C11.6862743,12.0340428 11.9179331,11.8790843 12.0162797,11.6415679 C12.1146263,11.4040516 12.0603205,11.1306859 11.8786561,10.9487955 L11.8786561,10.9487955 L11.2791016,10.349241 C11.2392267,10.3094668 11.2168167,10.2554609 11.2168167,10.1991404 C11.2168167,10.1428199 11.2392267,10.088814 11.2791016,10.0490398 L11.2791016,10.0490398 L11.8786561,9.4460932 C11.9613958,9.36361187 12.0952696,9.36361187 12.1780093,9.4460932 L12.1780093,9.4460932 L13.3813583,10.6452021 C13.5399143,10.8153612 13.7787057,10.8854048 14.0040545,10.8278547 C14.2294033,10.7703045 14.4053684,10.5943394 14.4629186,10.3689906 C14.5204687,10.1436418 14.4504251,9.90485038 14.280266,9.74629444 L14.280266,9.74629444 Z M9.79505594,5.26447649 C9.25186926,4.72458994 8.41976611,4.60283489 7.74466844,4.96445954 C7.06957077,5.3260842 6.70987515,6.08624142 6.85834155,6.83756491 L6.85834155,6.83756491 L7.22638488,8.67523747 C7.26701781,8.87785127 7.17023666,9.08318203 6.98809512,9.18079272 C6.80595359,9.2784034 6.58138624,9.24528512 6.43517652,9.09925053 L6.43517652,9.09925053 L5.4175452,8.0816192 C5.16767947,7.83315854 4.7637061,7.83429756 4.51524543,8.08416329 C4.26678476,8.33402902 4.26792378,8.73800238 4.5177895,8.98646305 L4.5177895,8.98646305 L5.53542083,10.0040944 C5.86179692,10.3308069 6.3049524,10.513929 6.76675473,10.5129143 L6.76675473,10.5129143 C7.28743255,10.5081227 7.78157046,10.2743836 8.11215133,9.87101578 C8.44273219,9.46764798 8.57486397,8.93722603 8.47213522,8.4259178 L8.47213522,8.4259178 L8.10493992,6.58739721 C8.06430699,6.38478341 8.16108813,6.17945265 8.34322967,6.08184196 C8.52537121,5.98423128 8.74993855,6.01734956 8.89614827,6.16338416 L8.89614827,6.16338416 L9.9137796,7.18101548 C10.1643796,7.41452698 10.5548956,7.40763678 10.7971021,7.16543029 C11.0393086,6.92322379 11.0461988,6.5327078 10.8126873,6.28210781 L10.8126873,6.28210781 Z" id="ðŸ–-Color" fill="#5A5A5A"></path>
        <rect id="_Transparent_Rectangle_" x="0" y="0" width="24" height="24"></rect>
    </g>
</svg>