<?xml version="1.0" encoding="UTF-8"?>
<svg width="24px" height="24px" viewBox="0 0 24 24" version="1.1" xmlns="http://www.w3.org/2000/svg" xmlns:xlink="http://www.w3.org/1999/xlink">
    <title>7. Business and Products/seo_search_star</title>
    <g id="7.-Business-and-Products/seo_search_star" stroke="none" stroke-width="1" fill="none" fill-rule="evenodd">
        <path d="M17.7016859,4.31737559 C17.8703177,4.31737559 18.022307,4.41907188 18.0867245,4.574915 C18.1511421,4.73075812 18.1152896,4.9100628 17.9958982,5.02915271 L17.9958982,5.02915271 L17.4074736,5.61757735 C17.3384803,5.68659881 17.3263759,5.79415445 17.3783024,5.87678424 C19.2617612,8.85142676 19.0702013,12.6892982 16.8998948,15.4616049 C16.8350054,15.5442806 16.842165,15.6624137 16.9165641,15.7366476 L16.9165641,15.7366476 L17.0340823,15.8541658 C17.1039706,15.9239605 17.2132586,15.9350981 17.2957896,15.8808366 C17.626257,15.6621958 18.0649751,15.7064509 18.3451191,15.9866864 L18.3451191,15.9866864 L21.5122772,19.1538445 C22.1625504,19.806388 22.162737,20.8618539 21.5118605,21.5129606 C20.8609839,22.1640673 19.805518,22.1642539 19.1544113,21.5133774 L19.1544113,21.5133774 L15.9872532,18.3462192 C15.7053301,18.066454 15.6599865,17.626621 15.878903,17.2952228 C15.9336245,17.2125136 15.9224685,17.1026971 15.8522322,17.032682 L15.8522322,17.032682 L15.7355475,16.9159973 C15.661035,16.8414777 15.5426143,16.8343224 15.4596713,16.899328 C12.9267426,18.879466 9.48075013,19.2261734 6.60413046,17.7902996 C6.33792628,17.6563042 6.16342917,17.3904691 6.14637049,17.0929319 C6.12931181,16.7953946 6.27228319,16.5113581 6.52142869,16.3478162 C6.7705742,16.1842744 7.08804269,16.166073 7.35424687,16.3000684 C9.95173384,17.5992729 13.0913982,17.0677135 15.1164619,14.9858902 C17.1415255,12.9040669 17.5861143,9.75091154 16.2156219,7.1903214 C16.1849814,7.13208197 16.1282479,7.09208951 16.0630983,7.08280472 C15.9977451,7.07272608 15.9315009,7.09439474 15.8847373,7.14114711 L15.8847373,7.14114711 L15.6388658,7.38701859 C15.5195926,7.5061283 15.3403112,7.54165563 15.1846286,7.47703256 C15.0291051,7.41235277 14.9278098,7.26040982 14.9279221,7.09197281 L14.9279221,7.09197281 L14.9279221,4.73410692 C14.9279221,4.50395256 15.1144991,4.31737559 15.3446535,4.31737559 L15.3446535,4.31737559 Z M10.3347094,1.99863434 C11.6046216,1.99434779 12.8584213,2.28298412 13.9986113,2.84214667 C14.4128891,3.04445235 14.5847265,3.54429206 14.3824208,3.9585699 C14.1801151,4.37284775 13.6802754,4.54468514 13.2659976,4.34237947 C12.3539366,3.89440111 11.3508451,3.66280876 10.3347094,3.66560778 C6.65395327,3.66974166 3.6711419,6.65255302 3.66700802,10.3333091 C3.66124811,11.4311819 3.92937899,12.5131588 4.44712908,13.4812976 C4.47831356,13.540053 4.53558155,13.5804761 4.60138769,13.5901825 C4.66719384,13.5998889 4.73369393,13.5777216 4.78051415,13.5304719 L4.78051415,13.5304719 L5.03055295,13.2804331 C5.14982815,13.1615304 5.32894793,13.1261098 5.48450172,13.1906655 C5.64005551,13.2552213 5.74146093,13.4070615 5.7414966,13.5754789 L5.7414966,13.5754789 L5.7414966,15.9325113 C5.7414966,16.1626657 5.55491963,16.3492427 5.32476527,16.3492427 L5.32476527,16.3492427 L2.96773284,16.3492427 C2.79946706,16.3488709 2.64793455,16.2473422 2.5835923,16.0918636 C2.51925006,15.936385 2.55472418,15.7574667 2.67352052,15.638299 L2.67352052,15.638299 L3.26194517,15.0490409 C3.33096625,14.979955 3.3427464,14.8722012 3.2902829,14.789834 C2.44283628,13.4582974 1.99506656,11.9116406 2.000041,10.3333091 C2.00513545,5.73231646 5.7337167,2.00373521 10.3347094,1.99863434 Z M10.4459766,6.16613706 C10.6525717,6.16613706 10.8418571,6.2815515 10.9364694,6.46520888 L10.9364694,6.46520888 L11.9482931,8.54886555 C11.9825131,8.62088989 12.055249,8.66667453 12.1349887,8.66638379 L12.1349887,8.66638379 L14.0852914,8.66638379 C14.2999736,8.65980959 14.4958453,8.7882061 14.5754529,8.9876912 C14.6550605,9.18717631 14.6014042,9.41515084 14.4411799,9.55818884 L14.4411799,9.55818884 L12.7334149,11.3434659 C12.675327,11.4042191 12.6592414,11.4938389 12.6925753,11.5710012 L12.6925753,11.5710012 L13.6377219,13.7455053 C13.7277916,13.9613291 13.6701508,14.2105577 13.4944661,14.3649188 C13.3187813,14.5192798 13.0642076,14.5443707 12.8617682,14.4272777 L12.8617682,14.4272777 L10.5464089,13.1229087 C10.4830508,13.0871061 10.4055686,13.0871061 10.3422105,13.1229087 L10.3422105,13.1229087 L8.02685124,14.4272777 C7.82441184,14.5443707 7.5698381,14.5192798 7.39415333,14.3649188 C7.21846857,14.2105577 7.16082783,13.9613291 7.25089749,13.7455053 L7.25089749,13.7455053 L8.19437723,11.5710012 C8.22769872,11.493975 8.21196799,11.4045064 8.15437103,11.3434659 L8.15437103,11.3434659 L6.44493909,9.55818884 C6.28356106,9.41545209 6.22926571,9.18671418 6.30928006,8.9866783 C6.38929442,8.78664241 6.58636202,8.65844969 6.80166112,8.66638379 L6.80166112,8.66638379 L8.7511303,8.66638379 C8.83080831,8.66654324 8.90360116,8.62124991 8.9386594,8.54969902 L8.9386594,8.54969902 L9.95548385,6.46520888 C10.0500961,6.2815515 10.2393816,6.16613706 10.4459766,6.16613706 Z" id="ðŸ–-Color" fill="#5A5A5A"></path>
        <rect id="_Transparent_Rectangle_" x="0" y="0" width="24" height="24"></rect>
    </g>
</svg>