<?xml version="1.0" encoding="UTF-8"?>
<svg width="24px" height="24px" viewBox="0 0 24 24" version="1.1" xmlns="http://www.w3.org/2000/svg" xmlns:xlink="http://www.w3.org/1999/xlink">
    <title>7. Business and Products/seo_search_graph</title>
    <g id="7.-Business-and-Products/seo_search_graph" stroke="none" stroke-width="1" fill="none" fill-rule="evenodd">
        <path d="M15.0377831,11.3930781 C15.1842306,10.9683174 15.6291251,10.741913 16.0414773,10.8823037 C16.4538294,11.0226944 16.6838584,11.4788854 16.5604289,11.9114829 C16.308583,12.7134736 15.9293534,13.4659301 15.4384794,14.1376232 C15.3781792,14.2206297 15.3856912,14.337106 15.45611,14.4109942 L15.45611,14.4109942 L16.5780596,15.5778217 C16.6327106,15.6343911 16.713646,15.6534918 16.7864216,15.6269951 C16.9163249,15.5788621 17.0532233,15.5543342 17.1911249,15.5544851 L17.1911249,15.5544851 L17.3268187,15.562152 C17.5958213,15.5934266 17.8481182,15.7193133 18.0406009,15.9212024 L18.0406009,15.9212024 L21.1500039,19.154148 C21.7760572,19.8050133 21.7762366,20.860461 21.1504046,21.5115564 C20.5245727,22.1626518 19.5097192,22.1628383 18.8836659,21.5119731 L18.8836659,21.5119731 L15.7750643,18.2756936 C15.4472204,17.9340868 15.3377357,17.4267266 15.4937755,16.9721806 C15.5193903,16.8962381 15.5010262,16.8117507 15.4464933,16.7546506 L15.4464933,16.7546506 L14.3245438,15.5878231 C14.2536504,15.514236 14.1413947,15.5064054 14.061687,15.5694872 C11.8899894,17.2844652 8.97929361,17.5947992 6.51817917,16.3737648 C6.14679366,16.159915 6.00018638,15.6819717 6.18388505,15.2839579 C6.36758373,14.8859441 6.81784978,14.70596 7.21058231,14.8735579 C8.68121057,15.6027909 10.382384,15.6389513 11.8804346,14.9728211 C13.3784853,14.3066909 14.528671,13.0026318 15.0377831,11.3930781 Z M21.2173209,2.00928452 C21.4386194,2.00928452 21.6180183,2.19585826 21.6180183,2.42600864 L21.6180183,2.42600864 L21.6180183,5.75980155 C21.6183952,5.92783176 21.5217019,6.0796592 21.3727911,6.14485464 C21.3243269,6.16597784 21.2722728,6.1767484 21.2197251,6.17652567 C21.1132661,6.17650221 21.0111922,6.13242014 20.9360321,6.05400878 L20.9360321,6.05400878 L20.0665212,5.148884 C19.9878778,5.06817722 19.8614718,5.06817722 19.7828283,5.148884 L19.7828283,5.148884 L14.3477842,10.8104978 C13.7137488,11.4404296 12.7154814,11.4404296 12.0814461,10.8104978 L12.0814461,10.8104978 L10.1484873,8.80272104 C10.0698438,8.72201426 9.94343784,8.72201426 9.86479436,8.80272104 L9.86479436,8.80272104 L3.7581833,15.1502628 C3.55697409,15.3669231 3.25901361,15.4538151 2.9788232,15.3775417 C2.69863278,15.3012683 2.47981659,15.0736995 2.4064768,14.7823015 C2.33313701,14.4909034 2.416687,14.1810245 2.62501426,13.971767 L2.62501426,13.971767 L8.87747877,7.47670491 C9.5033661,6.82597864 10.5179295,6.82597864 11.1438168,7.47670491 L11.1438168,7.47670491 L13.0743714,9.48531514 C13.1528357,9.56647489 13.2796001,9.56647489 13.3580644,9.48531514 L13.3580644,9.48531514 L18.6472551,3.97038821 C18.6848888,3.93144025 18.7060467,3.87850064 18.7060467,3.82328459 C18.7060467,3.76806855 18.6848888,3.71512894 18.6472551,3.67618098 L18.6472551,3.67618098 L17.7280578,2.72021586 C17.6137303,2.60094273 17.5796726,2.42182605 17.6417444,2.26627496 C17.7038161,2.11072386 17.8498138,2.00928452 18.0117508,2.00928452 L18.0117508,2.00928452 Z M6.18390182,2.91418829 C8.79556372,1.44105569 12.006479,1.76989233 14.2916867,3.74452374 C14.5118591,3.93494277 14.6176266,4.2330562 14.5691476,4.52656758 C14.5206687,4.82007896 14.3253084,5.06439693 14.0566571,5.16748927 C13.7880058,5.27058161 13.486878,5.21678615 13.2667056,5.02636711 C11.5770496,3.56866167 9.2295655,3.25781382 7.24258715,4.2286687 C5.25560881,5.19952358 3.98711728,7.27716853 3.98738156,9.56032548 C3.98764236,9.7897964 4.00021706,10.0190734 4.02504701,10.2470868 C4.0493998,10.4666975 3.98886205,10.6873736 3.85675383,10.8605601 C3.72464561,11.0337466 3.53179076,11.145254 3.32062298,11.1705475 C3.28992313,11.1721858 3.25916269,11.1721858 3.22846284,11.1705475 C2.8224828,11.1700695 2.48098088,10.8539324 2.43348145,10.4346127 L2.43348145,10.4346127 C2.08601382,7.36562453 3.57223992,4.38732089 6.18390182,2.91418829 Z" id="ðŸ–-Color" fill="#5A5A5A"></path>
        <rect id="_Transparent_Rectangle_" x="0" y="0" width="24" height="24"></rect>
    </g>
</svg>