<svg width="24" height="24" viewBox="0 0 24 24" fill="none" xmlns="http://www.w3.org/2000/svg">
<g id="seo_search_graph">
<path id="Shape" fill-rule="evenodd" clip-rule="evenodd" d="M2.43303 10.4346C2.48052 10.8539 2.82203 11.1701 3.22801 11.1705C3.25871 11.1722 3.28947 11.1722 3.32017 11.1705C3.53133 11.1453 3.72419 11.0337 3.8563 10.8606C3.98841 10.6874 4.04894 10.4667 4.02459 10.2471C3.99976 10.0191 3.98719 9.7898 3.98693 9.56033C3.98666 7.27717 5.25515 5.19952 7.24213 4.22867C9.22911 3.25781 11.5766 3.56866 13.2662 5.02637C13.4864 5.21679 13.7875 5.27058 14.0562 5.16749C14.3249 5.0644 14.5202 4.82008 14.5687 4.52657C14.6172 4.23306 14.5114 3.93494 14.2912 3.74452C12.006 1.76989 8.79511 1.44106 6.18345 2.91419C3.57178 4.38732 2.08556 7.36562 2.43062 10.4346H2.43303ZM18.0401 15.9212C17.8156 15.6857 17.5096 15.5536 17.1907 15.5545C17.0528 15.5543 16.9159 15.5789 16.786 15.627C16.7132 15.6535 16.6323 15.6344 16.5776 15.5778L15.4557 14.411C15.3852 14.3371 15.3777 14.2206 15.438 14.1376C15.9289 13.4659 16.3081 12.7135 16.56 11.9115C16.6834 11.4789 16.4534 11.0227 16.041 10.8823C15.6287 10.7419 15.1838 10.9683 15.0373 11.3931C14.5282 13.0026 13.378 14.3067 11.88 14.9728C10.3819 15.639 8.68075 15.6028 7.21013 14.8736C6.81739 14.706 6.36713 14.8859 6.18343 15.284C5.99973 15.682 6.14634 16.1599 6.51772 16.3738C8.97884 17.5948 11.8895 17.2845 14.0612 15.5695C14.1409 15.5064 14.2532 15.5142 14.3241 15.5878L15.446 16.7547C15.5006 16.8118 15.5189 16.8962 15.4933 16.9722C15.3373 17.4267 15.4468 17.9341 15.7746 18.2757L18.8832 21.512C19.5093 22.1628 20.5241 22.1627 21.1499 21.5116C21.7758 20.8605 21.7756 19.805 21.1495 19.1541L18.0401 15.9212ZM18.0113 2.00928H21.2169C21.4382 2.00928 21.6176 2.19586 21.6176 2.42601V5.7598C21.6179 5.92783 21.5212 6.07966 21.3723 6.14485C21.3239 6.16598 21.2718 6.17675 21.2193 6.17653C21.1128 6.1765 21.0107 6.13242 20.9356 6.05401L20.0661 5.14888C19.9874 5.06818 19.861 5.06818 19.7824 5.14888L14.3473 10.8105C13.7133 11.4404 12.715 11.4404 12.081 10.8105L10.148 8.80272C10.0694 8.72201 9.94298 8.72201 9.86434 8.80272L3.75773 15.1503C3.55652 15.3669 3.25856 15.4538 2.97837 15.3775C2.69818 15.3013 2.47936 15.0737 2.40602 14.7823C2.33268 14.4909 2.41623 14.181 2.62456 13.9718L8.87702 7.47671C9.50291 6.82598 10.5175 6.82598 11.1434 7.47671L13.0739 9.48532C13.1524 9.56647 13.2791 9.56647 13.3576 9.48532L18.6468 3.97039C18.6844 3.93144 18.7056 3.8785 18.7056 3.82328C18.7056 3.76807 18.6844 3.71513 18.6468 3.67618L17.7276 2.72022C17.6133 2.60094 17.5792 2.42183 17.6413 2.26627C17.7034 2.11072 17.8494 2.00932 18.0113 2.00928Z" fill="#5A5A5A"/>
</g>
</svg>
