<?xml version="1.0" encoding="UTF-8"?>
<svg width="24px" height="24px" viewBox="0 0 24 24" version="1.1" xmlns="http://www.w3.org/2000/svg" xmlns:xlink="http://www.w3.org/1999/xlink">
    <title>7. Business and Products/seo_search_graph_first_place</title>
    <g id="7.-Business-and-Products/seo_search_graph_first_place" stroke="none" stroke-width="1" fill="none" fill-rule="evenodd">
        <path d="M17.216124,20.4047588 C17.5614788,20.4047588 17.8414441,20.6735255 17.8414441,21.0050661 C17.8414441,21.3366067 17.5614788,21.6053735 17.216124,21.6053735 L17.216124,21.6053735 L2.62532016,21.6053735 C2.27996537,21.6053735 2,21.3366067 2,21.0050661 C2,20.6735255 2.27996537,20.4047588 2.62532016,20.4047588 L2.62532016,20.4047588 Z M5.75192098,9.99943125 C5.98215751,9.99943125 6.16880109,10.1786091 6.16880109,10.3996362 L6.16880109,10.3996362 L6.16880109,19.4042465 C6.16880109,19.51476 6.0754793,19.604349 5.96036103,19.604349 L5.96036103,19.604349 L3.04220027,19.604349 C2.92708201,19.604349 2.83376022,19.51476 2.83376022,19.4042465 L2.83376022,19.4042465 L2.83376022,10.3996362 C2.83376022,10.1786091 3.0204038,9.99943125 3.25064033,9.99943125 L3.25064033,9.99943125 Z M10.8998974,14.0012783 C11.0583827,14.0041681 11.1713624,14.0297614 11.1713624,14.2015827 L11.1713624,14.2015827 L11.1713624,19.4042465 C11.1713624,19.51476 11.0780406,19.604349 10.9629223,19.604349 L10.9629223,19.604349 L8.04476158,19.604349 C7.92964332,19.604349 7.83632152,19.51476 7.83632152,19.4042465 L7.83632152,19.4042465 L7.83632152,14.4016852 C7.83632152,14.1806581 8.02296511,14.0014803 8.25320163,14.0014803 L8.25320163,14.0014803 Z M15.9024587,15.8022003 C16.060944,15.8050902 16.1739237,15.8306835 16.1739237,16.0025048 L16.1739237,16.0025048 L16.1739237,19.4042465 C16.1739237,19.51476 16.0806019,19.604349 15.9654836,19.604349 L15.9654836,19.604349 L13.0473229,19.604349 C12.9322046,19.604349 12.8388828,19.51476 12.8388828,19.4042465 L12.8388828,19.4042465 L12.8388828,16.2026073 C12.8388828,15.9815802 13.0255264,15.8024024 13.2557629,15.8024024 L13.2557629,15.8024024 Z M10.7354276,4.03569473 C12.8762241,1.98053011 16.2985707,1.83809942 18.6166026,3.70769721 C20.9346345,5.577295 21.3786171,8.83809548 19.6390312,11.2168546 C19.5807389,11.296281 19.5906013,11.404485 19.6623765,11.4729857 L19.6623765,11.4729857 L21.7659535,13.4932201 C22.0819254,13.807284 22.0774066,14.3065043 21.7557971,14.6152494 C21.4341876,14.9239945 20.9141664,14.9283326 20.5870165,14.6249995 L20.5870165,14.6249995 L18.4834395,12.6047652 C18.4115955,12.5359904 18.298604,12.5268666 18.2158025,12.5831541 C15.7379284,14.2531566 12.3412613,13.8269333 10.3937636,11.6016227 C8.44626586,9.37631207 8.59463116,6.09085935 10.7354276,4.03569473 Z M14.8640864,3.99635768 C12.5617211,3.99635768 10.6952853,5.78813607 10.6952853,7.99840672 C10.6952853,10.2086774 12.5617211,12.0004558 14.8640864,12.0004558 C17.1653089,11.9978095 19.030131,10.2075803 19.0328875,7.99840672 C19.0328875,5.78813607 17.1664517,3.99635768 14.8640864,3.99635768 Z" id="ðŸ–-Color" fill="#5A5A5A"></path>
        <rect id="_Transparent_Rectangle_" x="0" y="0" width="24" height="24"></rect>
    </g>
</svg>