<?xml version="1.0" encoding="UTF-8"?>
<svg width="24px" height="24px" viewBox="0 0 24 24" version="1.1" xmlns="http://www.w3.org/2000/svg" xmlns:xlink="http://www.w3.org/1999/xlink">
    <title>7. Business and Products/seo_search_page</title>
    <g id="7.-Business-and-Products/seo_search_page" stroke="none" stroke-width="1" fill="none" fill-rule="evenodd">
        <path d="M12.9225052,12.8894397 C14.5746995,11.3023952 17.206204,11.1630572 19.0301883,12.5660382 C20.8541726,13.9690191 21.2863062,16.4648609 20.033164,18.3588501 C19.9807091,18.4379096 19.9924873,18.5413362 20.061497,18.6076478 L20.061497,18.6076478 L21.7556478,20.2340325 C21.9662836,20.4361 22.0486257,20.7306961 21.9716566,21.0068492 C21.8946874,21.2830024 21.6701005,21.4987583 21.3824954,21.5728439 C21.0948904,21.6469295 20.7879614,21.5680894 20.5773255,21.3660219 L20.5773255,21.3660219 L18.8831748,19.7388372 C18.8137514,19.6731322 18.706251,19.6621816 18.6240105,19.7124374 C16.6518463,20.9165734 14.0517561,20.5032008 12.5892395,18.7530056 C11.1267229,17.0028104 11.270311,14.4764842 12.9225052,12.8894397 Z M16.1665336,13.1996986 C14.5557182,13.1996986 13.2498943,14.4532895 13.2498943,15.9996723 C13.2498943,17.5460551 14.5557182,18.799646 16.1665336,18.799646 C17.777349,18.799646 19.0831729,17.5460551 19.0831729,15.9996723 C19.0831729,14.4532895 17.777349,13.1996986 16.1665336,13.1996986 Z M17.4165219,2.39980002 C18.7972208,2.39980002 19.9164984,3.47430653 19.9164984,4.79977748 L19.9164984,4.79977748 L19.9164984,10.1997268 C19.9164984,10.6415504 19.5434058,10.9997192 19.0831729,10.9997192 C18.6229399,10.9997192 18.2498474,10.6415504 18.2498474,10.1997268 L18.2498474,10.1997268 L18.2498474,8.39974366 C18.2498474,8.17883184 18.0633011,7.99974742 17.8331846,7.99974742 L17.8331846,7.99974742 L4.08331377,7.99974742 C3.85319728,7.99974742 3.66665101,8.17883184 3.66665101,8.39974366 L3.66665101,8.39974366 L3.66665101,15.599676 C3.66665101,16.0414997 4.03974355,16.3996685 4.49997652,16.3996685 L4.49997652,16.3996685 L9.70826093,16.3996685 C10.1684939,16.3996685 10.5415864,16.7578374 10.5415864,17.199661 C10.5415864,17.6414847 10.1684939,17.9996535 9.70826093,17.9996535 L9.70826093,17.9996535 L4.49997652,17.9996535 C3.11927761,17.9996535 2,16.925147 2,15.599676 L2,15.599676 L2,4.79977748 C2,3.47430653 3.11927761,2.39980002 4.49997652,2.39980002 L4.49997652,2.39980002 Z M10.7732509,9.64693195 C10.9772356,9.43268412 11.2861007,9.3413132 11.5803208,9.40817814 C11.8745409,9.47504308 12.1079528,9.68965273 12.1902302,9.96895693 C12.2725076,10.2482611 12.1907411,10.5484369 11.976573,10.7533216 L11.976573,10.7533216 L8.38244005,14.3532877 C8.22529165,14.5104873 8.00815285,14.5993539 7.7811957,14.5993539 C7.55423855,14.5993539 7.33709975,14.5104873 7.17995135,14.3532877 L7.17995135,14.3532877 L5.98162927,13.153299 C5.76746109,12.9484144 5.6856946,12.6482386 5.76797199,12.3689344 C5.85024938,12.0896302 6.0836613,11.8750205 6.37788143,11.8081556 C6.67210156,11.7412907 6.98096664,11.8326616 7.1849513,12.0469094 L7.1849513,12.0469094 L7.63078045,12.4933052 C7.67007412,12.5326686 7.72440415,12.554926 7.7811957,12.554926 C7.83798725,12.554926 7.89231728,12.5326686 7.93161095,12.4933052 L7.93161095,12.4933052 Z M10.3332551,4.39978123 C9.87302209,4.39978123 9.49992956,4.75795007 9.49992956,5.19977372 C9.49992956,5.64159737 9.87302209,5.9997662 10.3332551,5.9997662 C10.793488,5.9997662 11.1665806,5.64159737 11.1665806,5.19977372 C11.1665806,4.75795007 10.793488,4.39978123 10.3332551,4.39978123 Z M7.83327854,4.39978123 C7.37304558,4.39978123 6.99995304,4.75795007 6.99995304,5.19977372 C6.99995304,5.64159737 7.37304558,5.9997662 7.83327854,5.9997662 C8.29351151,5.9997662 8.66660405,5.64159737 8.66660405,5.19977372 C8.66660405,4.75795007 8.29351151,4.39978123 7.83327854,4.39978123 Z M5.33330203,4.39978123 C4.87306906,4.39978123 4.49997652,4.75795007 4.49997652,5.19977372 C4.49997652,5.64159737 4.87306906,5.9997662 5.33330203,5.9997662 C5.79353499,5.9997662 6.16662753,5.64159737 6.16662753,5.19977372 C6.16662753,4.75795007 5.79353499,4.39978123 5.33330203,4.39978123 Z" id="ðŸ–-Color" fill="#5A5A5A"></path>
        <rect id="_Transparent_Rectangle_" x="0" y="0" width="24" height="24"></rect>
    </g>
</svg>