<svg width="24" height="24" viewBox="0 0 24 24" fill="none" xmlns="http://www.w3.org/2000/svg">
<g id="seo_search_graph_first_place">
<path id="Shape" fill-rule="evenodd" clip-rule="evenodd" d="M19.6624 11.473C19.5906 11.4045 19.5807 11.2963 19.639 11.2169C21.3786 8.83809 20.9346 5.57729 18.6166 3.70769C16.2986 1.8381 12.8762 1.98053 10.7354 4.03569C8.59463 6.09086 8.44627 9.37631 10.3938 11.6016C12.3413 13.8269 15.7379 14.2532 18.2158 12.5832C18.2986 12.5269 18.4116 12.536 18.4834 12.6048L20.587 14.625C20.9142 14.9283 21.4342 14.924 21.7558 14.6152C22.0774 14.3065 22.0819 13.8073 21.766 13.4932L19.6624 11.473ZM14.8641 12.0005C12.5617 12.0005 10.6953 10.2087 10.6953 7.9984C10.6953 5.78813 12.5617 3.99635 14.8641 3.99635C17.1665 3.99635 19.0329 5.78813 19.0329 7.9984C19.0301 10.2076 17.1653 11.9978 14.8641 12.0005ZM3.25064 9.99943C3.0204 9.99943 2.83376 10.1786 2.83376 10.3996V19.4042C2.83376 19.5148 2.92708 19.6043 3.0422 19.6043H5.96036C6.07548 19.6043 6.1688 19.5148 6.1688 19.4042V10.3996C6.1688 10.1786 5.98216 9.99943 5.75192 9.99943H3.25064ZM17.2161 20.4048H2.62532C2.27997 20.4048 2 20.6735 2 21.0051C2 21.3366 2.27997 21.6054 2.62532 21.6054H17.2161C17.5615 21.6054 17.8414 21.3366 17.8414 21.0051C17.8414 20.6735 17.5615 20.4048 17.2161 20.4048ZM8.04476 19.6043C7.92964 19.6043 7.83632 19.5148 7.83632 19.4042V14.4017C7.83632 14.1807 8.02296 14.0015 8.2532 14.0015H10.7545L10.8094 14.0012C11.0136 13.9997 11.1714 13.9985 11.1714 14.2016V19.4042C11.1714 19.5148 11.078 19.6043 10.9629 19.6043H8.04476ZM15.9655 19.6043C16.0806 19.6043 16.1739 19.5148 16.1739 19.4042V16.0025C16.1739 15.7994 16.0161 15.8006 15.8119 15.8021L15.757 15.8024H13.2558C13.0255 15.8024 12.8389 15.9816 12.8389 16.2026V19.4042C12.8389 19.5148 12.9322 19.6043 13.0473 19.6043H15.9655Z" fill="#5A5A5A"/>
</g>
</svg>
