<svg width="24" height="24" viewBox="0 0 24 24" fill="none" xmlns="http://www.w3.org/2000/svg">
<g id="seo_search_one">
<path id="Shape" fill-rule="evenodd" clip-rule="evenodd" d="M2.67348 15.4911C2.55409 15.6055 2.51824 15.7776 2.58266 15.9272C2.64707 16.0768 2.79906 16.1744 2.9677 16.1745H5.32474C5.5549 16.1745 5.74148 15.9953 5.74148 15.7744V13.5116C5.74144 13.3499 5.64003 13.2042 5.48448 13.1422C5.32892 13.0802 5.1498 13.1142 5.03053 13.2284L4.78049 13.4684C4.73367 13.5138 4.66717 13.5351 4.60136 13.5257C4.53555 13.5164 4.47829 13.4776 4.4471 13.4212C3.92935 12.4918 3.66122 11.4531 3.66698 10.3991C3.67111 6.86558 6.65394 4.00207 10.3347 3.9981C11.3509 3.99541 12.3539 4.21774 13.266 4.6478C13.6803 4.84202 14.1801 4.67705 14.3824 4.27934C14.5848 3.88164 14.4129 3.40179 13.9986 3.20757C12.8584 2.67077 11.6046 2.39368 10.3347 2.39784C5.7337 2.40269 2.00509 5.98215 2.00004 10.3991C1.99503 11.9143 2.4428 13.3991 3.29025 14.6774C3.34271 14.7565 3.33093 14.8599 3.26191 14.9263L2.67348 15.4911ZM9.30205 12.1514H8.46858C7.89319 12.1514 7.42675 12.5992 7.42675 13.1516C7.42675 13.7039 7.89319 14.1517 8.46858 14.1517H12.6359C13.2113 14.1517 13.6777 13.7039 13.6777 13.1516C13.6777 12.5992 13.2113 12.1514 12.6359 12.1514H11.8024C11.6874 12.1514 11.5941 12.0619 11.5941 11.9514V7.05059C11.5932 6.33287 10.9873 5.75126 10.2397 5.75038C9.76283 5.7492 9.30524 5.93097 8.96866 6.25526L7.31506 7.84352C6.90815 8.23415 6.90815 8.8675 7.31506 9.25814C7.72198 9.64878 8.38172 9.64878 8.78863 9.25814L9.15452 8.90609C9.21412 8.84873 9.30388 8.83154 9.38183 8.86257C9.45979 8.89359 9.51056 8.96669 9.51041 9.04771V11.9514C9.51041 12.0619 9.41712 12.1514 9.30205 12.1514ZM19.1545 21.1336L15.9873 18.0892C15.7067 17.8209 15.6614 17.4002 15.8789 17.0826C15.9339 17.0034 15.9231 16.898 15.8531 16.8306L15.7356 16.7185C15.6613 16.6471 15.5432 16.6402 15.4605 16.7025C12.9274 18.6038 9.48097 18.9367 6.60411 17.5579C6.33791 17.4292 6.16341 17.174 6.14635 16.8884C6.12929 16.6028 6.27226 16.3301 6.52141 16.1731C6.77056 16.0161 7.08803 15.9986 7.35423 16.1272C9.95173 17.3745 13.0914 16.8642 15.1165 14.8656C17.1416 12.8671 17.5862 9.84002 16.2157 7.38184C16.185 7.32593 16.1283 7.28754 16.0631 7.27863C15.9978 7.26895 15.9315 7.28975 15.8848 7.33463L15.6389 7.57067C15.5196 7.68502 15.3403 7.71912 15.1847 7.65709C15.0291 7.59499 14.9278 7.44913 14.9279 7.28743V5.02706C14.9279 4.80612 15.1145 4.627 15.3447 4.627H17.7009C17.8695 4.62703 18.0215 4.72463 18.0859 4.87424C18.1504 5.02385 18.1145 5.19598 17.9951 5.31031L17.4067 5.8752C17.3377 5.94146 17.3256 6.04472 17.3775 6.12404C19.261 8.97971 19.0694 12.6641 16.8991 15.3255C16.8346 15.405 16.8417 15.5181 16.9158 15.5896L17.0333 15.7024C17.1032 15.7694 17.2125 15.7801 17.295 15.728C17.6255 15.5181 18.0642 15.5606 18.3443 15.8296L21.5115 18.8701C22.1626 19.4949 22.1628 20.5082 21.5119 21.1332C20.861 21.7583 19.8056 21.7585 19.1545 21.1336Z" fill="#5A5A5A"/>
</g>
</svg>
