<svg width="24" height="24" viewBox="0 0 24 24" fill="none" xmlns="http://www.w3.org/2000/svg">
<g id="strategy_split">
<path id="Shape" fill-rule="evenodd" clip-rule="evenodd" d="M12.0007 22C12.2663 22 12.5211 21.8903 12.7089 21.6949C12.8967 21.4996 13.0022 21.2347 13.0022 20.9584V20.6076C12.9955 17.3415 14.7695 14.3536 17.5803 12.8968C17.6301 12.8714 17.6878 12.8684 17.7398 12.8886C17.7918 12.9087 17.8335 12.9503 17.8551 13.0034L18.0562 13.5084C18.1664 13.7854 18.4112 13.9795 18.6972 14.0166C18.7307 14.0209 18.7644 14.0232 18.7981 14.0233C19.0503 14.0233 19.2878 13.8998 19.4391 13.69L21.4549 10.9053C21.6256 10.6696 21.6637 10.3575 21.5551 10.0848C21.4464 9.81221 21.2071 9.61971 20.9261 9.57876L17.6043 9.09298C17.3198 9.05172 17.0357 9.17209 16.86 9.40844C16.6842 9.6448 16.6435 9.96095 16.7535 10.237L16.9337 10.6895C16.9744 10.7917 16.9311 10.9092 16.8352 10.957C15.4928 11.625 14.306 12.5885 13.3572 13.7808C13.3029 13.8478 13.2142 13.8726 13.135 13.8428C13.0558 13.8131 13.0028 13.7351 13.0022 13.6475V7.17817C13.002 7.12285 13.0231 7.06974 13.0607 7.03063C13.0983 6.99151 13.1493 6.96964 13.2025 6.96986H13.8491C14.1493 6.97072 14.4268 6.80392 14.5759 6.53301C14.725 6.26209 14.7229 5.92877 14.5702 5.65999L12.7218 2.39782C12.5598 2.14903 12.2897 2 12.0007 2C11.7118 2 11.4417 2.14903 11.2797 2.39782L9.43209 5.65999C9.27995 5.92884 9.27804 6.26186 9.42707 6.53258C9.5761 6.8033 9.85321 6.97019 10.1532 6.96986H10.7989C10.8521 6.96964 10.9032 6.99151 10.9408 7.03063C10.9784 7.06974 10.9994 7.12285 10.9992 7.17817V13.6475C10.9987 13.7351 10.9457 13.8131 10.8665 13.8428C10.7872 13.8726 10.6986 13.8478 10.6443 13.7808C9.69543 12.5885 8.50869 11.625 7.16629 10.957C7.07067 10.9089 7.02778 10.7915 7.06854 10.6895L7.24801 10.237C7.35793 9.96095 7.3173 9.6448 7.14151 9.40844C6.96572 9.17209 6.6817 9.05172 6.39714 9.09298L3.07536 9.57876C2.79404 9.61954 2.55451 9.81219 2.44579 10.0851C2.33707 10.358 2.37541 10.6704 2.54657 10.9061L4.56559 13.6917C4.7169 13.9015 4.95437 14.025 5.20655 14.025C5.2403 14.0248 5.27401 14.0226 5.3075 14.0183C5.59333 13.9813 5.83805 13.7875 5.94846 13.5109L6.14957 13.0051C6.17134 12.952 6.21301 12.9105 6.26494 12.8901C6.31726 12.8699 6.3753 12.8732 6.42518 12.8993C9.23587 14.3558 11.0098 17.3434 11.0032 20.6093V20.9601C11.0041 21.5331 11.4498 21.9977 12.0007 22Z" fill="#5A5A5A"/>
</g>
</svg>
