<svg width="24" height="24" viewBox="0 0 24 24" fill="none" xmlns="http://www.w3.org/2000/svg">
<g id="target_center_1">
<path id="Shape" fill-rule="evenodd" clip-rule="evenodd" d="M3.60308 19.1126C3.66277 19.188 3.66277 19.2946 3.60308 19.3701L2.59993 20.6382C2.40427 20.8705 2.35058 21.191 2.45982 21.4744C2.56905 21.7579 2.8239 21.9594 3.1249 22.0004C3.4259 22.0413 3.72534 21.9152 3.90636 21.6713L4.78286 20.564C4.85253 20.4762 4.97919 20.4592 5.06948 20.5257C7.77026 22.5215 11.471 22.4694 14.1145 20.3982C14.2008 20.3298 14.3255 20.3408 14.3986 20.4232C14.7244 20.789 15.5442 21.7088 15.5451 21.7088C15.854 22.0466 16.376 22.0766 16.7215 21.7763C17.0648 21.4704 17.0953 20.9443 16.7898 20.6007L15.5401 19.1967C15.475 19.1232 15.4701 19.0142 15.5284 18.9351C17.3596 16.4714 17.4952 13.1376 15.87 10.5333C15.835 10.4782 15.7766 10.4421 15.7116 10.4354C15.6467 10.4288 15.5822 10.4523 15.5367 10.4992L14.1678 11.8723C14.1052 11.9351 14.091 12.0315 14.1328 12.1097C15.3508 14.462 14.618 17.3534 12.4268 18.8417C10.2355 20.3301 7.27763 19.9454 5.53993 17.9462C3.80223 15.9469 3.83336 12.9642 5.61241 11.0017C7.39145 9.03916 10.3568 8.71632 12.5164 10.2501C12.5663 10.2856 12.598 10.3412 12.6031 10.4022C12.6082 10.4632 12.5863 10.5233 12.5431 10.5667L11.9399 11.1699C11.8697 11.2398 11.7599 11.2506 11.6774 11.1957C10.7836 10.5949 9.6815 10.3896 8.63133 10.6283C6.72854 11.058 5.42243 12.8098 5.55377 14.7561C5.68511 16.7023 7.21474 18.2628 9.158 18.4329C11.1013 18.603 12.8788 17.3321 13.3463 15.4383C13.5285 14.7024 13.4938 13.9294 13.2463 13.2128C13.2208 13.1461 13.1632 13.0968 13.0932 13.0822C13.0233 13.0675 12.9507 13.0894 12.9005 13.1404L11.1359 14.9059C11.1122 14.9289 11.0947 14.9576 11.085 14.9892C10.8283 15.8055 9.99503 16.2947 9.15713 16.1209C8.31923 15.9472 7.74912 15.167 7.83811 14.316C7.92711 13.4649 8.64628 12.8195 9.502 12.8229C9.6006 12.8231 9.699 12.8317 9.79611 12.8487C9.8722 12.8629 9.93428 12.9178 9.95749 12.9916C9.9807 13.0655 9.96125 13.1461 9.90692 13.2012L9.16873 13.9394C9.0515 14.0564 8.98563 14.2153 8.98563 14.381C8.98563 14.5466 9.0515 14.7055 9.16873 14.8226C9.41517 15.061 9.80628 15.061 10.0527 14.8226L16.1566 8.71784C16.1958 8.67887 16.2488 8.65701 16.3041 8.65701H19.0836C19.1882 8.65712 19.289 8.61786 19.366 8.54703L21.8656 6.24995C21.974 6.15014 22.0216 6.00049 21.9908 5.85639C21.96 5.71228 21.8553 5.59518 21.7156 5.54842L19.361 4.76356C19.2991 4.74248 19.2505 4.69385 19.2294 4.63192L18.4437 2.27652C18.3971 2.13646 18.2798 2.03155 18.1354 2.00073C17.9911 1.9709 17.8417 2.01861 17.7413 2.12654L15.4434 4.62609C15.3731 4.703 15.3341 4.80348 15.3343 4.9077V7.68719C15.3339 7.74238 15.3121 7.79527 15.2734 7.83466L14.4728 8.63535C14.3974 8.71006 14.2779 8.71616 14.1953 8.64951C11.2286 6.25688 6.93847 6.4728 4.227 9.1512C1.51554 11.8296 1.24702 16.1168 3.60308 19.1126Z" fill="#5A5A5A"/>
</g>
</svg>
