<svg width="24" height="24" viewBox="0 0 24 24" fill="none" xmlns="http://www.w3.org/2000/svg">
<g id="target_correct">
<path id="Shape" fill-rule="evenodd" clip-rule="evenodd" d="M14.0812 6.79897V5.52983C14.0802 5.21127 14.212 4.90557 14.4471 4.6808L16.7036 2.51462C16.8228 2.39989 17.0023 2.36552 17.1583 2.42757C17.3142 2.48963 17.4157 2.63585 17.4154 2.7979V4.59838C17.4154 4.70887 17.5087 4.79844 17.6238 4.79844H19.4993C19.6678 4.79847 19.8196 4.89583 19.8842 5.04518C19.9487 5.19453 19.9133 5.3665 19.7944 5.48102L17.5371 7.6472C17.3025 7.87185 16.9849 7.9984 16.6536 7.99929H15.3315C15.266 7.99942 15.2043 8.02904 15.1648 8.07932C15.1413 8.10969 15.1154 8.13832 15.0873 8.16494L10.9195 12.166C10.7102 12.374 10.4003 12.4575 10.1089 12.3842C9.81745 12.311 9.58985 12.0925 9.51357 11.8127C9.43729 11.5329 9.52419 11.2354 9.74088 11.0345L13.9087 7.03343C13.9368 7.00692 13.9666 6.98207 13.9979 6.95901C14.0504 6.92132 14.0813 6.86197 14.0812 6.79897ZM5.32886 11.6003C5.32886 8.94858 7.56804 6.79897 10.3302 6.79897C10.7906 6.79897 11.1638 7.15724 11.1638 7.59919C11.1638 8.04113 10.7906 8.3994 10.3302 8.3994C8.48876 8.3994 6.99598 9.83247 6.99598 11.6003C6.99598 13.368 8.48876 14.8011 10.3302 14.8011C10.7906 14.8011 11.1638 15.1594 11.1638 15.6013C11.1638 16.0433 10.7906 16.4015 10.3302 16.4015C7.56804 16.4015 5.32886 14.2519 5.32886 11.6003ZM10.3302 19.6024C10.7906 19.6024 11.1638 19.2441 11.1638 18.8022C11.1638 18.3602 10.7906 18.002 10.3302 18.002C7.7244 17.9991 5.35905 16.5394 4.27446 14.2648C3.18986 11.9902 3.58475 9.3175 5.28544 7.42217C6.98612 5.52683 9.68101 4.75612 12.1849 5.44901C12.4738 5.53706 12.7897 5.46764 13.0099 5.2677C13.2301 5.06776 13.3199 4.76882 13.2444 4.48701C13.1689 4.2052 12.94 3.98494 12.6467 3.9118C9.51635 3.04467 6.1467 4.00783 4.02029 6.37752C1.89389 8.74721 1.40052 12.089 2.75728 14.9326C4.11403 17.7762 7.07218 19.6003 10.3302 19.6024ZM16.5819 21.6029C19.5742 21.6029 22 19.2742 22 16.4015C22 13.5289 19.5742 11.2002 16.5819 11.2002C13.5895 11.2002 11.1638 13.5289 11.1638 16.4015C11.1674 19.2727 13.5911 21.5994 16.5819 21.6029ZM13.7528 16.5432C13.9973 16.3095 14.3926 16.3095 14.6372 16.5432L15.7208 17.5835C15.7649 17.6253 15.8257 17.6467 15.8875 17.6419C15.9479 17.6378 16.0033 17.6086 16.0392 17.5619L18.3107 14.6411C18.5178 14.3759 18.9097 14.3222 19.1859 14.521C19.4621 14.7199 19.5181 15.0961 19.3109 15.3613L16.8886 18.4661C16.6706 18.7469 16.3357 18.9223 15.9717 18.9462H15.8809C15.5503 18.9455 15.2336 18.8185 15.0006 18.5933L13.7503 17.393C13.633 17.2801 13.5674 17.127 13.5679 16.9676C13.5683 16.8082 13.6349 16.6555 13.7528 16.5432Z" fill="#5A5A5A"/>
</g>
</svg>
