<?xml version="1.0" encoding="UTF-8"?>
<svg width="24px" height="24px" viewBox="0 0 24 24" version="1.1" xmlns="http://www.w3.org/2000/svg" xmlns:xlink="http://www.w3.org/1999/xlink">
    <title>7. Business and Products/target_correct</title>
    <g id="7.-Business-and-Products/target_correct" stroke="none" stroke-width="1" fill="none" fill-rule="evenodd">
        <path d="M16.5818805,11.2001493 C19.5742253,11.2001493 22,13.528893 22,16.401544 C22,19.274195 19.5742253,21.6029387 16.5818805,21.6029387 C13.591059,21.5994115 11.1674352,19.2727327 11.163761,16.401544 C11.163761,13.528893 13.5895357,11.2001493 16.5818805,11.2001493 Z M4.02029264,6.37751975 C6.14669862,4.00783178 9.51634788,3.04466515 12.6466586,3.91179492 C12.9400263,3.98494191 13.1689133,4.20520061 13.2444047,4.48700809 C13.3198962,4.76881557 13.2300932,5.06775284 13.0098809,5.26769302 C12.7896687,5.46763321 12.4737575,5.5370614 12.1848681,5.44900712 C9.68100955,4.75612014 6.98612384,5.5268257 5.28543563,7.42216352 C3.58474743,9.31750134 3.18986409,11.9901995 4.27445737,14.2647916 C5.35905064,16.5393836 7.7243967,17.9991091 10.3302041,18.0019731 C10.7905649,18.0019731 11.163761,18.3602414 11.163761,18.8021877 C11.163761,19.244134 10.7905649,19.6024023 10.3302041,19.6024023 C7.07218025,19.6003432 4.11402695,17.7762237 2.75727562,14.9326217 C1.40052429,12.0890197 1.89388667,8.74720772 4.02029264,6.37751975 Z M19.1859121,14.5210397 C18.9096956,14.3221639 18.5178397,14.3759041 18.3106774,14.6410719 L18.3106774,14.6410719 L16.039235,17.5618551 C16.0032935,17.6085485 15.9478552,17.6377906 15.8875276,17.6418766 C15.8257429,17.6466722 15.7648559,17.6253373 15.7208163,17.5834609 L15.7208163,17.5834609 L14.6371924,16.543182 C14.3926373,16.3095041 13.9973436,16.3095041 13.7527885,16.543182 C13.634873,16.6554581 13.5683398,16.8081622 13.5678682,16.9675978 C13.5674015,17.1270335 13.6330349,17.280096 13.7502879,17.3930098 L13.7502879,17.3930098 L15.0006231,18.5933317 C15.233564,18.8185312 15.5502688,18.9455011 15.8808592,18.9462263 L15.8808592,18.9462263 L15.9717169,18.9462263 C16.335682,18.9222642 16.6705923,18.746893 16.8886294,18.4660976 L16.8886294,18.4660976 L19.3109456,15.361265 C19.5181079,15.0960973 19.4621285,14.7199156 19.1859121,14.5210397 Z M10.3302041,6.7989691 C10.7905649,6.7989691 11.163761,7.15723737 11.163761,7.59918368 C11.163761,8.04112998 10.7905649,8.39939825 10.3302041,8.39939825 C8.48876119,8.39939825 6.99597674,9.83247133 6.99597674,11.6002565 C6.99597674,13.3680418 8.48876119,14.8011148 10.3302041,14.8011148 C10.7905649,14.8011148 11.163761,15.1593831 11.163761,15.6013294 C11.163761,16.0432757 10.7905649,16.401544 10.3302041,16.401544 C7.56803972,16.401544 5.32886304,14.2519344 5.32886304,11.6002565 C5.32886304,8.94857871 7.56803972,6.7989691 10.3302041,6.7989691 Z M16.7035798,2.51462028 C16.8227902,2.39988804 17.0023178,2.36551618 17.1582544,2.42756949 C17.3141911,2.48962279 17.4157394,2.63584568 17.4154373,2.79789624 L17.4154373,2.79789624 L17.4154373,4.59837903 C17.4154373,4.7088656 17.5087364,4.79843267 17.6238265,4.79843267 L17.6238265,4.79843267 L19.4993295,4.79843267 C19.6677659,4.79846692 19.8196233,4.89582713 19.8841863,5.04517564 C19.9487493,5.19452415 19.9133247,5.36649857 19.7944086,5.4810157 L19.7944086,5.4810157 L17.5371366,7.64719655 C17.3025172,7.87184645 16.9849366,7.99839932 16.6535664,7.99929097 L16.6535664,7.99929097 L15.3315452,7.99929097 C15.2659841,7.99941628 15.204275,8.02903665 15.1648338,8.07931242 C15.1412805,8.10968984 15.1153662,8.13831256 15.0873131,8.16493538 L15.0873131,8.16493538 L10.9195288,12.1660083 C10.710244,12.3740293 10.4003247,12.4574565 10.1088887,12.3842245 C9.81745268,12.3109925 9.58985418,12.0924979 9.51357086,11.8127194 C9.43728754,11.5329408 9.52419085,11.2354183 9.74087944,11.0345048 L9.74087944,11.0345048 L13.9086637,7.03343198 C13.9367968,7.00691451 13.9665818,6.98206209 13.9978543,6.95901202 C14.0504318,6.92131438 14.0813418,6.86196726 14.0812099,6.7989691 L14.0812099,6.7989691 L14.0812099,5.52982879 C14.0802293,5.21127075 14.2119889,4.90556467 14.4471414,4.68080113 L14.4471414,4.68080113 Z" id="ðŸ–-Color" fill="#5A5A5A"></path>
        <rect id="_Transparent_Rectangle_" x="0" y="0" width="24" height="24"></rect>
    </g>
</svg>