<svg width="24" height="24" viewBox="0 0 24 24" fill="none" xmlns="http://www.w3.org/2000/svg">
<g id="target_miss">
<path id="Shape" fill-rule="evenodd" clip-rule="evenodd" d="M16.7029 2.12126C16.8223 2.00246 17.0015 1.96727 17.157 2.03209C17.3126 2.09639 17.4142 2.24796 17.4145 2.41627V4.29131C17.4145 4.40637 17.5078 4.49964 17.6229 4.49964H19.4979C19.6663 4.49968 19.8181 4.60107 19.8827 4.75661C19.9472 4.91214 19.9118 5.09123 19.7929 5.21049L17.5362 7.46637C17.3017 7.70032 16.9842 7.83212 16.6529 7.83305H15.3312C15.2656 7.83318 15.2039 7.86402 15.1645 7.91638C15.141 7.94802 15.115 7.97782 15.087 8.00555L10.9202 12.1723C10.711 12.3889 10.4012 12.4758 10.1098 12.3996C9.81844 12.3233 9.5909 12.0957 9.51464 11.8044C9.43837 11.513 9.52526 11.2032 9.74189 10.9939L13.9086 6.82719C13.9368 6.79958 13.9665 6.77369 13.9978 6.74969C14.0504 6.71043 14.0813 6.64863 14.0811 6.58302V5.26133C14.0802 4.92958 14.2119 4.61121 14.447 4.37714L16.7029 2.12126ZM5.33097 11.5831C5.33097 8.82164 7.56959 6.58302 10.3311 6.58302C10.7913 6.58302 11.1644 6.95612 11.1644 7.41637C11.1644 7.87662 10.7913 8.24972 10.3311 8.24972C8.49008 8.24972 6.99767 9.74214 6.99767 11.5831C6.99767 13.4241 8.49008 14.9165 10.3311 14.9165C10.7913 14.9165 11.1644 15.2896 11.1644 15.7499C11.1644 16.2101 10.7913 16.5832 10.3311 16.5832C7.56959 16.5832 5.33097 14.3446 5.33097 11.5831ZM10.3311 19.9166C10.7913 19.9166 11.1644 19.5435 11.1644 19.0833C11.1644 18.623 10.7913 18.2499 10.3311 18.2499C7.72591 18.2469 5.36115 16.7268 4.27682 14.358C3.1925 11.9892 3.58728 9.20584 5.28755 7.23202C6.98782 5.2582 9.68203 4.45558 12.1853 5.17716C12.4741 5.26886 12.7899 5.19656 13.0101 4.98834C13.2302 4.78012 13.32 4.4688 13.2445 4.17532C13.1691 3.88185 12.9402 3.65247 12.6469 3.57629C9.51741 2.67326 6.1486 3.67631 4.02272 6.14412C1.89684 8.61193 1.4036 12.0921 2.76002 15.0535C4.11643 18.0148 7.07385 19.9145 10.3311 19.9166ZM16.5812 11.1664C13.5896 11.1664 11.1644 13.5916 11.1644 16.5832C11.1644 19.5748 13.5896 22 16.5812 22C19.5728 22 21.998 19.5748 21.998 16.5832C21.9943 13.5931 19.5713 11.1701 16.5812 11.1664ZM17.6121 16.7307L18.7904 17.9099C19.0199 18.1562 19.0131 18.5399 18.7751 18.778C18.5371 19.016 18.1533 19.0227 17.9071 18.7933L16.7287 17.6149C16.6896 17.5757 16.6365 17.5537 16.5812 17.5537C16.5259 17.5537 16.4728 17.5757 16.4337 17.6149L15.2553 18.7933C15.0091 19.0227 14.6253 19.016 14.3873 18.778C14.1493 18.5399 14.1425 18.1562 14.372 17.9099L15.5503 16.7307C15.6314 16.6494 15.6314 16.5179 15.5503 16.4366L14.372 15.2582C14.135 15.0131 14.1382 14.6232 14.3792 14.382C14.6202 14.1408 15.01 14.1373 15.2553 14.374L16.4337 15.5524C16.5155 15.6331 16.6469 15.6331 16.7287 15.5524L17.9071 14.374C18.0641 14.2116 18.2965 14.1466 18.515 14.2039C18.7335 14.2612 18.904 14.4319 18.9611 14.6504C19.0182 14.869 18.953 15.1013 18.7904 15.2582L17.6121 16.4366C17.531 16.5179 17.531 16.6494 17.6121 16.7307Z" fill="#5A5A5A"/>
</g>
</svg>
