<?xml version="1.0" encoding="UTF-8"?>
<svg width="24px" height="24px" viewBox="0 0 24 24" version="1.1" xmlns="http://www.w3.org/2000/svg" xmlns:xlink="http://www.w3.org/1999/xlink">
    <title>16. Education/bell</title>
    <g id="16.-Education/bell" stroke="none" stroke-width="1" fill="none" fill-rule="evenodd">
        <path d="M12.4340276,16.4606288 C12.6737252,16.4606288 12.8680385,16.6471695 12.8680385,16.8772792 L12.8680385,16.8772792 L12.8680385,17.6405829 C12.8679251,17.7847009 12.9454006,17.9186415 13.0728917,17.9947358 C13.8429734,18.4546144 14.2021687,19.348869 13.9530681,20.1860277 C13.7039674,21.0231864 12.9069376,21.6003733 12.0000167,21.6003733 C11.0930958,21.6003733 10.296066,21.0231864 10.0469654,20.1860277 C9.79786472,19.348869 10.15706,18.4546144 10.9271418,17.9947358 C11.0546329,17.9186415 11.1321083,17.7847009 11.1319949,17.6405829 L11.1319949,17.6405829 L11.1319949,16.8772792 C11.1319949,16.6471695 11.3263082,16.4606288 11.5660058,16.4606288 L11.5660058,16.4606288 Z M12.0000167,1.60037333 C12.5992607,1.60037333 13.085044,2.06672524 13.085044,2.64199949 L13.085044,2.64199949 L13.085044,3.03031772 C13.0849901,3.22003145 13.2184433,3.38582751 13.4096841,3.43363537 C15.9651403,4.06944398 17.7011839,6.43351871 17.7011839,9.51673214 L17.7011839,9.51673214 L17.7011839,11.5208209 C17.7011839,12.8799347 18.1499512,13.3215842 19.2315063,14.389876 L19.2315063,14.389876 L19.4120549,14.5673691 C19.5932231,14.7479281 19.6446632,15.0148552 19.5427749,15.2456861 C19.4408866,15.476517 19.2053357,15.6266983 18.9441911,15.6273278 L18.9441911,15.6273278 L5.05584231,15.6273278 C4.79432636,15.6270194 4.55831564,15.4767083 4.4563506,15.245522 C4.35438557,15.0143356 4.40620549,14.7470292 4.58797856,14.5665358 L4.58797856,14.5665358 L4.7685271,14.3890427 C5.85008226,13.3207509 6.29884953,12.8791014 6.29884953,11.5199876 L6.29884953,11.5199876 L6.29884953,9.52006534 C6.29884953,6.43685191 8.03576115,4.07194388 10.5903493,3.43696857 C10.7815901,3.38916072 10.9150434,3.22336466 10.9149895,3.03365092 L10.9149895,3.03365092 L10.9149895,2.64199949 C10.9149895,2.06672524 11.4007727,1.60037333 12.0000167,1.60037333 Z" id="ðŸ–-Color" fill="#5A5A5A"></path>
        <rect id="_Transparent_Rectangle_" x="0" y="0" width="24" height="24"></rect>
    </g>
</svg>