<?xml version="1.0" encoding="UTF-8"?>
<svg width="24px" height="24px" viewBox="0 0 24 24" version="1.1" xmlns="http://www.w3.org/2000/svg" xmlns:xlink="http://www.w3.org/1999/xlink">
    <title>16. Education/book</title>
    <g id="16.-Education/book" stroke="none" stroke-width="1" fill="none" fill-rule="evenodd">
        <path d="M16.7916667,2 C17.7121412,2 18.4583333,2.74619208 18.4583333,3.66666667 L18.4583333,3.66666667 L18.4583333,4.95916667 C18.4586885,5.15688213 18.5979455,5.32712383 18.7916667,5.36666667 C19.5677771,5.52508953 20.125,6.20788564 20.125,7 L20.125,7 L20.125,20.3333333 C20.125,21.2538079 19.3788079,22 18.4583333,22 L18.4583333,22 L6.375,22 C4.99428813,22 3.875,20.8807119 3.875,19.5 L3.875,19.5 L3.875,4.45666667 C3.89864204,3.09290689 5.01103532,1.99979509 6.375,2 L6.375,2 Z M8.25833333,13.7241667 L7.28666667,13.7241667 C6.9414887,13.7241667 6.66166667,14.0039887 6.66166667,14.3491667 L6.66166667,14.3491667 L6.66166667,19.2083333 C6.66166667,19.5535113 6.9414887,19.8333333 7.28666667,19.8333333 L7.28666667,19.8333333 L8.25833333,19.8333333 C9.13906415,19.8319615 9.85308211,19.1190609 9.85583333,18.2383333 L9.85583333,18.2383333 L9.85583333,17.7525 C9.8554767,17.4003656 9.73823456,17.0583116 9.5225,16.78 C9.73834718,16.5017491 9.85560292,16.1596555 9.85583333,15.8075 L9.85583333,15.8075 L9.85583333,15.3216667 C9.85445674,14.4399626 9.14003739,13.7255433 8.25833333,13.7241667 L8.25833333,13.7241667 Z M17.0083333,13.7241667 C15.5898582,13.726004 14.440544,14.875691 14.4391667,16.2941667 L14.4391667,16.2941667 L14.4391667,17.2633333 C14.440544,18.681809 15.5898582,19.831496 17.0083333,19.8333333 C17.3535113,19.8333333 17.6333333,19.5535113 17.6333333,19.2083333 C17.6333333,18.8631554 17.3535113,18.5833333 17.0083333,18.5833333 C16.2808076,18.5824176 15.6910021,17.9933573 15.6891667,17.2658333 L15.6891667,17.2658333 L15.6891667,16.2941667 C15.6896257,15.5656663 16.2798334,14.9750858 17.0083333,14.9741667 C17.3535113,14.9741667 17.6333333,14.6943446 17.6333333,14.3491667 C17.6333333,14.0039887 17.3535113,13.7241667 17.0083333,13.7241667 Z M8.25833333,17.405 C8.44909338,17.4054476 8.6040084,17.5592482 8.60583333,17.75 L8.60583333,17.75 L8.60583333,18.2391667 C8.61211003,18.3672252 8.54736334,18.4883359 8.43738955,18.5542461 C8.32741575,18.6201563 8.19008425,18.6201563 8.08011045,18.5542461 C7.97013666,18.4883359 7.90538997,18.3672252 7.91166667,18.2391667 L7.91166667,18.2391667 L7.91166667,17.7516667 C7.91166667,17.560208 8.06687462,17.405 8.25833333,17.405 Z M8.25833333,14.9741667 C8.450387,14.9746261 8.60583388,15.1304458 8.60583333,15.3225 L8.60583333,15.3225 L8.60583333,15.8083333 C8.61211003,15.9363919 8.54736334,16.0575026 8.43738955,16.1234128 C8.32741575,16.1893229 8.19008425,16.1893229 8.08011045,16.1234128 C7.97013666,16.0575026 7.90538997,15.9363919 7.91166667,15.8083333 L7.91166667,15.8083333 L7.91166667,15.3208333 C7.91166667,15.1293746 8.06687462,14.9741667 8.25833333,14.9741667 Z M12.1470833,6.95481725 C11.2790241,6.95481725 10.5698249,7.64800048 10.55,8.51583333 L10.55,8.51583333 L10.55,12.405 C10.55,12.750178 10.829822,13.03 11.175,13.03 C11.520178,13.03 11.8,12.750178 11.8,12.405 L11.8,12.405 L11.8,11.4325 C11.8090717,11.2474163 11.9617774,11.102012 12.1470833,11.102012 C12.3323892,11.102012 12.4850949,11.2474163 12.4941667,11.4325 L12.4941667,11.4325 L12.4941667,12.405 C12.4941667,12.750178 12.7739887,13.03 13.1191667,13.03 C13.4643446,13.03 13.7441667,12.750178 13.7441667,12.405 L13.7441667,12.405 L13.7441667,8.51583333 C13.7243418,7.64800048 13.0151426,6.95481725 12.1470833,6.95481725 Z M12.1475,8.16666667 C12.2398077,8.16688697 12.3282348,8.20382478 12.3932715,8.26933048 C12.4583082,8.33483617 12.4946097,8.42352641 12.4941667,8.51583333 L12.4941667,8.51583333 L12.4941667,9.48833333 C12.5004434,9.61639187 12.4356967,9.7375026 12.3257229,9.80341276 C12.2157491,9.86932292 12.0784176,9.86932292 11.9684438,9.80341276 C11.85847,9.7375026 11.7937233,9.61639187 11.8,9.48833333 L11.8,9.48833333 L11.8,8.51333333 C11.8004595,8.3217399 11.955906,8.16666667 12.1475,8.16666667 Z M16.375,3.66666667 L6.375,3.66666667 C5.91476271,3.66666667 5.54166667,4.03976271 5.54166667,4.5 C5.54166667,4.96023729 5.91476271,5.33333333 6.375,5.33333333 L6.375,5.33333333 L16.375,5.33333333 C16.6051186,5.33333333 16.7916667,5.14678531 16.7916667,4.91666667 L16.7916667,4.91666667 L16.7916667,4.08333333 C16.7916667,3.85321469 16.6051186,3.66666667 16.375,3.66666667 L16.375,3.66666667 Z" id="ðŸ–-Color" fill="#5A5A5A"></path>
        <rect id="_Transparent_Rectangle_" x="0" y="0" width="24" height="24"></rect>
    </g>
</svg>