<?xml version="1.0" encoding="UTF-8"?>
<svg width="24px" height="24px" viewBox="0 0 24 24" version="1.1" xmlns="http://www.w3.org/2000/svg" xmlns:xlink="http://www.w3.org/1999/xlink">
    <title>16. Education/e_learning_exchange</title>
    <g id="16.-Education/e_learning_exchange" stroke="none" stroke-width="1" fill="none" fill-rule="evenodd">
        <path d="M21.1666664,11.1969231 C21.6269037,11.1969231 21.9999999,11.5562932 21.9999999,11.9995986 C22.000641,15.6858273 19.8170386,19.049125 16.3758722,20.6621716 C12.9347059,22.2752182 8.83955846,21.8550843 5.82833328,19.5800668 C5.66267841,19.4546454 5.42588649,19.4680822 5.27666662,19.6113711 L5.27666662,19.6113711 L4.67249996,20.1925082 C4.43417142,20.4219995 4.07580279,20.4906395 3.76445451,20.3664303 C3.45310623,20.2422212 3.24999998,19.9496153 3.24999998,19.6250166 L3.24999998,19.6250166 L3.24999998,16.4143143 C3.24999998,15.9710088 3.62309602,15.6116387 4.0833333,15.6116387 L4.0833333,15.6116387 L7.41666659,15.6116387 C7.75366317,15.611708 8.05744496,15.8072728 8.18639823,16.1071668 C8.3153515,16.4070608 8.24408984,16.7522453 8.00583325,16.9818059 L8.00583325,16.9818059 L7.06083326,17.8928427 C6.97469119,17.9758995 6.93062463,18.0911224 6.94024242,18.2081571 C6.94986022,18.3251918 7.01219788,18.4323021 7.11083326,18.5012708 C9.64709231,20.2711796 12.9994707,20.5218853 15.788957,19.1502593 C18.5784433,17.7786332 20.3339458,15.0163172 20.3333331,11.9995986 C20.3333331,11.5562932 20.7064291,11.1969231 21.1666664,11.1969231 Z M14.9933331,13.0430769 C15.1203288,13.0008623 15.2607389,13.021254 15.3691665,13.0976588 C15.4780223,13.1730919 15.5424998,13.2943789 15.5424998,13.4235451 L15.5424998,13.4235451 L15.5424998,14.2992642 C15.5418787,14.6902972 15.2859596,15.038681 14.9033332,15.1693645 L14.9033332,15.1693645 L12.9166665,15.8452173 C12.592997,15.9545538 12.240336,15.9545538 11.9166665,15.8452173 L11.9166665,15.8452173 L9.93166655,15.1701671 C9.54873835,15.0392545 9.2925575,14.6906472 9.29166655,14.2992642 L9.29166655,14.2992642 L9.29166655,13.4235451 C9.29166655,13.2943789 9.35614404,13.1730919 9.46499989,13.0976588 C9.57317022,13.0213942 9.71326434,13.0010032 9.83999989,13.0430769 L9.83999989,13.0430769 L12.1208332,13.7743143 C12.313393,13.8344878 12.5207733,13.8344878 12.7133332,13.7743143 L12.7133332,13.7743143 Z M12.4610683,8.86693752 L12.5483332,8.8852174 L17.4233331,10.4504348 C17.5934138,10.5049989 17.708197,10.6582317 17.7083331,10.830903 C17.708197,11.0035743 17.5934138,11.1568071 17.4233331,11.2113712 L17.4233331,11.2113712 L12.5483332,12.7765886 C12.4629331,12.8044193 12.3703999,12.8044193 12.2849999,12.7765886 L12.2849999,12.7765886 L8.44083324,11.5420736 C8.37720872,11.522037 8.30747139,11.5325421 8.25323598,11.5703328 C8.19900056,11.6081235 8.16681929,11.6686344 8.16666658,11.7331103 L8.16666658,11.7331103 L8.16666658,13.4371906 C8.16666658,13.7696697 7.88684455,14.0391973 7.54166659,14.0391973 C7.19648862,14.0391973 6.9166666,13.7696697 6.9166666,13.4371906 L6.9166666,13.4371906 L6.9166666,11.1094314 C6.91684972,10.8104285 7.11552415,10.5450384 7.40999992,10.4504348 L7.40999992,10.4504348 L12.2849999,8.8852174 C12.3704696,8.85779757 12.4628634,8.85779757 12.5483332,8.8852174 Z M7.62450221,3.33765282 C11.0656031,1.72480769 15.1605595,2.14500508 18.1716664,4.41993319 C18.3374689,4.5458344 18.574832,4.53238554 18.7241664,4.38862884 L18.7241664,4.38862884 L19.3274998,3.80668905 C19.5658283,3.57719775 19.9241969,3.50855776 20.2355452,3.63276693 C20.5468935,3.7569761 20.7499997,4.04958197 20.7499997,4.37418068 L20.7499997,4.37418068 L20.7499997,7.58488297 C20.7499997,8.02818845 20.3769037,8.38755855 19.9166664,8.38755855 L19.9166664,8.38755855 L16.5833331,8.38755855 C16.2467022,8.38716585 15.9433768,8.19172776 15.8144989,7.89218467 C15.685621,7.59264157 15.7565046,7.24782916 15.9941665,7.01819402 L15.9941665,7.01819402 L16.9391665,6.10635457 C17.0253085,6.02329775 17.0693751,5.90807488 17.0597573,5.79104016 C17.0501395,5.67400543 16.9878018,5.56689521 16.8891665,5.49792648 C14.3529074,3.72801762 11.000529,3.47731193 8.21104271,4.84893799 C5.42155641,6.22056406 3.66605388,8.98288008 3.66666664,11.9995986 C3.66666664,12.4429041 3.29357061,12.8022742 2.83333332,12.8022742 C2.37309604,12.8022742 2,12.4429041 2,11.9995986 C1.99967771,8.31351478 4.18340131,4.95049796 7.62450221,3.33765282 Z" id="ðŸ–-Color" fill="#5A5A5A"></path>
        <rect id="_Transparent_Rectangle_" x="0" y="0" width="24" height="24"></rect>
    </g>
</svg>