<?xml version="1.0" encoding="UTF-8"?>
<svg width="24px" height="24px" viewBox="0 0 24 24" version="1.1" xmlns="http://www.w3.org/2000/svg" xmlns:xlink="http://www.w3.org/1999/xlink">
    <title>16. Education/exam_a</title>
    <g id="16.-Education/exam_a" stroke="none" stroke-width="1" fill="none" fill-rule="evenodd">
        <path d="M17.8333333,2 C18.7538079,2 19.5,2.74619208 19.5,3.66666667 L19.5,3.66666667 L19.5,16.61 C19.500586,17.104307 19.2809607,17.5731873 18.9008333,17.8891667 L18.9008333,17.8891667 L14.4325,21.6133333 C14.1328872,21.8631861 13.7551208,22 13.365,22 L13.365,22 L6.16666667,22 C5.24619208,22 4.5,21.2538079 4.5,20.3333333 L4.5,20.3333333 L4.5,3.66666667 C4.5,2.74619208 5.24619208,2 6.16666667,2 L6.16666667,2 Z M10.75,16.5833333 L8.25,16.5833333 C7.90482203,16.5833333 7.625,16.8631554 7.625,17.2083333 C7.625,17.5535113 7.90482203,17.8333333 8.25,17.8333333 L8.25,17.8333333 L10.75,17.8333333 C11.095178,17.8333333 11.375,17.5535113 11.375,17.2083333 C11.375,16.8631554 11.095178,16.5833333 10.75,16.5833333 L10.75,16.5833333 Z M14.5,13.25 L8.25,13.25 C7.90482203,13.25 7.625,13.529822 7.625,13.875 C7.625,14.220178 7.90482203,14.5 8.25,14.5 L8.25,14.5 L14.5,14.5 C14.845178,14.5 15.125,14.220178 15.125,13.875 C15.125,13.529822 14.845178,13.25 14.5,13.25 L14.5,13.25 Z M14.2916667,5.33333333 C13.2561328,5.33333333 12.4166667,6.17279943 12.4166667,7.20833333 L12.4166667,7.20833333 L12.4166667,10.3333333 C12.4166667,10.6785113 12.6964887,10.9583333 13.0416667,10.9583333 C13.3868446,10.9583333 13.6666667,10.6785113 13.6666667,10.3333333 L13.6666667,10.3333333 L13.6666667,9.5 C13.6666667,9.26988135 13.8532147,9.08333333 14.0833333,9.08333333 L14.0833333,9.08333333 L14.5,9.08333333 C14.7301186,9.08333333 14.9166667,9.26988135 14.9166667,9.5 L14.9166667,9.5 L14.9166667,10.3333333 C14.9166667,10.6785113 15.1964887,10.9583333 15.5416667,10.9583333 C15.8868446,10.9583333 16.1666667,10.6785113 16.1666667,10.3333333 L16.1666667,10.3333333 L16.1666667,7.20833333 C16.1666667,6.17279943 15.3272006,5.33333333 14.2916667,5.33333333 Z M14.2916667,6.58333333 C14.6366543,6.5837924 14.9162076,6.86334569 14.9166667,7.20833333 L14.9166667,7.20833333 L14.9166667,7.41666667 C14.9166667,7.64678531 14.7301186,7.83333333 14.5,7.83333333 L14.5,7.83333333 L14.0833333,7.83333333 C13.8532147,7.83333333 13.6666667,7.64678531 13.6666667,7.41666667 L13.6666667,7.41666667 L13.6666667,7.20833333 C13.6671257,6.86334569 13.946679,6.5837924 14.2916667,6.58333333 Z" id="ðŸ–-Color" fill="#5A5A5A"></path>
        <rect id="_Transparent_Rectangle_" x="0" y="0" width="24" height="24"></rect>
    </g>
</svg>