<?xml version="1.0" encoding="UTF-8"?>
<svg width="24px" height="24px" viewBox="0 0 24 24" version="1.1" xmlns="http://www.w3.org/2000/svg" xmlns:xlink="http://www.w3.org/1999/xlink">
    <title>16. Education/light_idea</title>
    <g id="16.-Education/light_idea" stroke="none" stroke-width="1" fill="none" fill-rule="evenodd">
        <path d="M12,5.33333333 C15.1001411,5.33415296 17.7905985,7.47187954 18.4920235,10.4916276 C19.1934485,13.5113756 17.7207101,16.6161265 14.9383333,17.9833333 C14.801102,18.0508059 14.711858,18.1880305 14.7058333,18.3408333 C14.661817,19.3504315 14.059878,20.2517339 13.1441667,20.6791667 C12.9546811,20.7675207 12.8334888,20.9575945 12.8333333,21.1666667 C12.8333333,21.626904 12.4602373,22 12,22 C11.5397627,22 11.1666667,21.626904 11.1666667,21.1666667 C11.1646171,20.9598384 11.0440691,20.7725354 10.8566667,20.685 C9.94143682,20.2603449 9.34030725,19.3597763 9.29916667,18.3516667 C9.29572179,18.1959521 9.20571753,18.0551597 9.06583333,17.9866667 C6.28019531,16.6217802 4.80405519,13.5158981 5.50479171,10.494034 C6.20552824,7.47216991 8.89795325,5.33293142 12,5.33333333 Z M5.51833333,17.305 C5.84531574,16.9891898 6.36507065,16.9937064 6.68651548,17.3151512 C7.00796031,17.636596 7.01247684,18.1563509 6.69666667,18.4833333 L6.69666667,18.4833333 L6.1075,19.0725 C5.89827127,19.2891305 5.58843509,19.3760105 5.29707723,19.2997476 C5.00571937,19.2234848 4.7781819,18.9959473 4.70191904,18.7045894 C4.62565617,18.4132316 4.71253618,18.1033954 4.92916667,17.8941667 L4.92916667,17.8941667 Z M17.6712439,17.0777524 C17.9626018,17.0014895 18.2724379,17.0883695 18.4816667,17.305 L18.4816667,17.305 L19.0708333,17.8941667 C19.3866435,18.2211491 19.382127,18.740904 19.0606821,19.0623488 C18.7392373,19.3837936 18.2194824,19.3883102 17.8925,19.0725 L17.8925,19.0725 L17.3033333,18.4833333 C17.0867028,18.2741046 16.9998228,17.9642684 17.0760857,17.6729106 C17.1523486,17.3815527 17.379886,17.1540152 17.6712439,17.0777524 Z M12,13.8758333 C11.7698814,13.8758333 11.5833333,14.0623814 11.5833333,14.2925 L11.5833333,14.2925 L11.5833333,16.5658333 C11.5833333,16.795952 11.7698814,16.9825 12,16.9825 C12.2301186,16.9825 12.4166667,16.795952 12.4166667,16.5658333 L12.4166667,16.5658333 L12.4166667,14.2925 C12.4166667,14.0623814 12.2301186,13.8758333 12,13.8758333 Z M12.0016667,7.00113077 C9.62545001,7.00113077 7.57747532,8.67352856 7.10255045,11.0018009 C6.62762557,13.3300732 7.85695933,15.6709818 10.0433333,16.6016667 C10.1078277,16.6288422 10.1816398,16.6219614 10.24,16.5833333 C10.298399,16.5450362 10.3335067,16.4798362 10.3333333,16.41 L10.3333333,16.41 L10.3333333,14.2916667 C10.3333333,14.061548 10.1467853,13.875 9.91666667,13.875 L9.91666667,13.875 L9.70833333,13.875 C8.67279943,13.875 7.83333333,13.0355339 7.83333333,12 C7.83333333,10.9644661 8.67279943,10.125 9.70833333,10.125 C10.7438672,10.125 11.5833333,10.9644661 11.5833333,12 L11.5833333,12 L11.5833333,12.2083333 C11.5833333,12.438452 11.7698814,12.625 12,12.625 C12.2301186,12.625 12.4166667,12.438452 12.4166667,12.2083333 L12.4166667,12.2083333 L12.4166667,12 C12.4171269,10.9645747 13.2567966,10.1255267 14.292222,10.1258334 C15.3276473,10.1261402 16.1668198,10.9656856 16.1666665,12.001111 C16.1665131,13.0365364 15.3270921,13.8758332 14.2916667,13.8758333 L14.2916667,13.8758333 L14.0833333,13.8758333 C13.8532147,13.8758333 13.6666667,14.0623814 13.6666667,14.2925 L13.6666667,14.2925 L13.6666667,16.4108333 C13.6667743,16.480374 13.7018483,16.5451982 13.76,16.5833333 C13.8185108,16.6215318 13.8921037,16.6283922 13.9566667,16.6016667 L13.9566667,16.6016667 C16.146374,15.6709818 17.3757078,13.3300732 16.9007829,11.0018009 C16.425858,8.67352856 14.3778833,7.00113077 12.0016667,7.00113077 Z M3.66666667,11.1666667 C4.12690396,11.1666667 4.5,11.5397627 4.5,12 C4.5,12.4602373 4.12690396,12.8333333 3.66666667,12.8333333 L3.66666667,12.8333333 L2.83333333,12.8333333 C2.37309604,12.8333333 2,12.4602373 2,12 C2,11.5397627 2.37309604,11.1666667 2.83333333,11.1666667 L2.83333333,11.1666667 Z M21.1666667,11.1666667 C21.626904,11.1666667 22,11.5397627 22,12 C22,12.4602373 21.626904,12.8333333 21.1666667,12.8333333 L21.1666667,12.8333333 L20.3333333,12.8333333 C19.873096,12.8333333 19.5,12.4602373 19.5,12 C19.5,11.5397627 19.873096,11.1666667 20.3333333,11.1666667 L20.3333333,11.1666667 Z M9.70833333,11.375 C9.36315536,11.375 9.08333333,11.654822 9.08333333,12 C9.08333333,12.345178 9.36315536,12.625 9.70833333,12.625 L9.70833333,12.625 L10.125,12.625 C10.2400593,12.625 10.3333333,12.531726 10.3333333,12.4166667 L10.3333333,12.4166667 L10.3333333,12 C10.3333333,11.654822 10.0535113,11.375 9.70833333,11.375 Z M14.2916667,11.375 C13.9464887,11.375 13.6666667,11.654822 13.6666667,12 L13.6666667,12 L13.6666667,12.4166667 C13.6666667,12.531726 13.7599407,12.625 13.875,12.625 L13.875,12.625 L14.2916667,12.625 C14.6368446,12.625 14.9166667,12.345178 14.9166667,12 C14.9166667,11.654822 14.6368446,11.375 14.2916667,11.375 Z M17.8925,4.93 C18.2194824,4.61418983 18.7392373,4.61870636 19.0606821,4.94015119 C19.382127,5.26159602 19.3866435,5.78135093 19.0708333,6.10833333 L19.0708333,6.10833333 L18.4816667,6.6975 C18.2724379,6.91413049 17.9626018,7.0010105 17.6712439,6.92474763 C17.379886,6.84848476 17.1523486,6.6209473 17.0760857,6.32958944 C16.9998228,6.03823158 17.0867028,5.72839539 17.3033333,5.51916667 L17.3033333,5.51916667 Z M4.93931785,4.94015119 C5.26076269,4.61870636 5.78051759,4.61418983 6.1075,4.93 L6.1075,4.93 L6.69666667,5.51916667 C7.01247684,5.84614907 7.00796031,6.36590398 6.68651548,6.68734881 C6.36507065,7.00879364 5.84531574,7.01331017 5.51833333,6.6975 L5.51833333,6.6975 L4.92916667,6.10833333 C4.61335649,5.78135093 4.61787302,5.26159602 4.93931785,4.94015119 Z M12,2 C12.4602373,2 12.8333333,2.37309604 12.8333333,2.83333333 L12.8333333,2.83333333 L12.8333333,3.66666667 C12.8333333,4.12690396 12.4602373,4.5 12,4.5 C11.5397627,4.5 11.1666667,4.12690396 11.1666667,3.66666667 L11.1666667,3.66666667 L11.1666667,2.83333333 C11.1666667,2.37309604 11.5397627,2 12,2 Z" id="ðŸ–-Color" fill="#5A5A5A"></path>
        <rect id="_Transparent_Rectangle_" x="0" y="0" width="24" height="24"></rect>
    </g>
</svg>