<?xml version="1.0" encoding="UTF-8"?>
<svg width="24px" height="24px" viewBox="0 0 24 24" version="1.1" xmlns="http://www.w3.org/2000/svg" xmlns:xlink="http://www.w3.org/1999/xlink">
    <title>16. Education/school_building</title>
    <g id="16.-Education/school_building" stroke="none" stroke-width="1" fill="none" fill-rule="evenodd">
        <path d="M21.1666667,12.8333333 L16.5833333,12.8333333 C16.3532147,12.8333333 16.1666667,12.6467853 16.1666667,12.4166667 L16.1666667,11.1666667 C16.1640983,9.30398946 14.9279273,7.66834073 13.1366667,7.1575 C12.9572708,7.10679251 12.8333888,6.94309127 12.8333333,6.75666667 L12.8333333,6.16666667 C12.8333333,5.93654802 13.0198814,5.75 13.25,5.75 L15.1275,5.75 C15.7014395,5.74770862 16.1657544,5.28227671 16.1666667,4.70833333 L16.1666667,3.04166667 C16.1657544,2.46772329 15.7014395,2.00229138 15.1275,1.99999499 L11.7941667,1.99999499 C11.6279736,1.99933522 11.4683594,2.06488966 11.3506079,2.18217202 C11.2328564,2.29945439 11.1666653,2.45880563 11.1666667,2.625 L11.1666667,6.75666667 C11.166717,6.94285775 11.0432322,7.10648365 10.8641667,7.1575 C9.07240864,7.66778879 7.83572781,9.30366217 7.83333333,11.1666667 L7.83333333,12.4166667 C7.83333333,12.6467853 7.64678531,12.8333333 7.41666667,12.8333333 L2.83333333,12.8333333 C2.37553613,12.8391716 2.00583824,13.2088695 2,13.6666667 L2,21.1666667 C2,21.626904 2.37309604,22.0000516 2.83333333,22.0000516 L10.75,22.0000516 C10.9801186,22.0000516 11.1666667,21.813452 11.1666667,21.5833333 L11.1666667,17.8333333 C11.1666667,17.373096 11.5397627,16.999995 12,16.999995 C12.4602373,16.999995 12.8333333,17.373096 12.8333333,17.8333333 L12.8333333,21.5833333 C12.8333333,21.813452 13.0198814,22.0000516 13.25,22.0000516 L21.1666667,22.0000516 C21.3884316,22.0024806 21.6018375,21.91548 21.7586587,21.7586587 C21.91548,21.6018375 22.0024806,21.3884316 22.0000516,21.1666667 L22.0000516,13.6666667 C22.0000516,13.2064294 21.626904,12.8333333 21.1666667,12.8333333 Z M6.79416667,19.5 C6.79416667,19.7301186 6.60761865,19.9166667 6.3775,19.9166667 L4.71083333,19.9166667 C4.48071469,19.9166667 4.29416667,19.7301186 4.29416667,19.5 L4.29416667,18.6666667 C4.29416667,18.436548 4.48071469,18.25 4.71083333,18.25 L6.3775,18.25 C6.60761865,18.25 6.79416667,18.436548 6.79416667,18.6666667 L6.79416667,19.5 Z M6.79416667,16.1666667 C6.79416667,16.3967853 6.60761865,16.5833333 6.3775,16.5833333 L4.71083333,16.5833333 C4.48071469,16.5833333 4.29416667,16.3967853 4.29416667,16.1666667 L4.29416667,15.3333333 C4.29416667,15.1032147 4.48071469,14.9166667 4.71083333,14.9166667 L6.3775,14.9166667 C6.60761865,14.9166667 6.79416667,15.1032147 6.79416667,15.3333333 L6.79416667,16.1666667 Z M12,12.4166667 C11.4944222,12.4166667 11.0386268,12.1121139 10.8451506,11.645021 C10.6516743,11.177928 10.758619,10.6402807 11.1161165,10.2827832 C11.473614,9.9252857 12.0112613,9.818341 12.4783543,10.0118173 C12.9454473,10.2052935 13.25,10.6610889 13.25,11.1666667 C13.25,11.8570226 12.6903559,12.4166667 12,12.4166667 L12,12.4166667 Z M20.125,19.5 C20.125,19.7301186 19.938452,19.9166667 19.7083333,19.9166667 L18.0416667,19.9166667 C17.811548,19.9166667 17.625,19.7301186 17.625,19.5 L17.625,18.6666667 C17.625,18.436548 17.811548,18.25 18.0416667,18.25 L19.7083333,18.25 C19.938452,18.25 20.125,18.436548 20.125,18.6666667 L20.125,19.5 Z M20.125,16.1666667 C20.125,16.3967853 19.938452,16.5833333 19.7083333,16.5833333 L18.0416667,16.5833333 C17.811548,16.5833333 17.625,16.3967853 17.625,16.1666667 L17.625,15.3333333 C17.625,15.1032147 17.811548,14.9166667 18.0416667,14.9166667 L19.7083333,14.9166667 C19.938452,14.9166667 20.125,15.1032147 20.125,15.3333333 L20.125,16.1666667 Z" id="ðŸ–-Color" fill="#5A5A5A"></path>
        <rect id="_Transparent_Rectangle_" x="0" y="0" width="24" height="24"></rect>
    </g>
</svg>