<?xml version="1.0" encoding="UTF-8"?>
<svg width="24px" height="24px" viewBox="0 0 24 24" version="1.1" xmlns="http://www.w3.org/2000/svg" xmlns:xlink="http://www.w3.org/1999/xlink">
    <title>16. Education/study_book</title>
    <g id="16.-Education/study_book" stroke="none" stroke-width="1" fill="none" fill-rule="evenodd">
        <path d="M16.7916436,13.6053444 C17.3669377,13.6053444 17.8333057,14.0545551 17.8333057,14.6086845 L17.8333057,14.6086845 L17.8333057,18.0200406 C17.8333057,18.2416924 18.0198529,18.4213766 18.2499705,18.4213766 L18.2499705,18.4213766 L19.7107974,18.4213766 C20.9982533,18.4815609 22.0077199,19.5083998 21.9999984,20.7499282 L21.9999984,20.7499282 L21.9999984,21.2315314 C21.9999984,21.4531832 21.8134067,21.6328677 21.5832891,21.6328677 L21.5832891,21.6328677 L14.3533211,21.6328677 C14.1984831,21.6330486 14.0563105,21.5505123 13.984156,21.418554 L13.984156,21.418554 L12.9341607,19.4961545 C12.7819747,19.2291199 12.7912332,18.9037663 12.9583772,18.6451625 C13.1255211,18.3865587 13.4245344,18.2349567 13.7404735,18.2486337 C14.0564127,18.2623107 14.3401014,18.4391379 14.4824872,18.7111412 L14.4824872,18.7111412 L15.3716499,19.9151493 C15.4241311,19.9865087 15.5185469,20.0169146 15.6050332,19.9903085 C15.6915195,19.9637025 15.7501587,19.8862118 15.7499816,19.7987618 L15.7499816,19.7987618 L15.7499816,14.6086845 C15.7499816,14.0545551 16.2163495,13.6053444 16.7916436,13.6053444 Z M20.1116289,2.36793596 C20.5012348,2.35495367 20.8792996,2.49655377 21.1574576,2.75963991 C21.4298913,3.01130033 21.5837251,3.35926373 21.58329,3.72284635 L21.58329,3.72284635 L21.58329,13.3452787 C21.5751023,14.0907511 20.9472756,14.6919064 20.1732953,14.695373 C20.0166293,14.6993864 19.8624634,14.7050051 19.7107974,14.7114265 C19.5469436,14.7182092 19.3873164,14.6602703 19.2688576,14.5510185 C19.1503988,14.4417666 19.0833761,14.2906713 19.0833001,14.1326999 C19.0829692,13.7973065 19.3570912,13.5212353 19.7049641,13.5066158 L19.7049641,13.5066158 L20.1391288,13.4921677 C20.2337566,13.4995977 20.3183656,13.4355898 20.3332946,13.3452787 L20.3332946,13.3452787 L20.3332946,3.72284635 C20.3325721,3.6851392 20.3156798,3.64940154 20.2866282,3.62411769 C20.2469696,3.59349166 20.1982399,3.57578491 20.1474621,3.57354935 C15.1449842,3.71000359 12.416663,4.97421205 12.416663,5.58504546 L12.416663,5.58504546 L12.416663,14.391963 C12.4164422,14.5288561 12.4886776,14.6564161 12.6082877,14.7303519 C12.7278978,14.8042876 12.8783836,14.8144004 13.0074937,14.7571788 C13.2599926,14.6448047 13.5333247,14.5404573 13.8241568,14.443334 C13.979756,14.3914148 14.1518167,14.4151843 14.2859938,14.5071349 C14.4201708,14.5990855 14.4998956,14.7478628 14.4999871,14.9064758 C14.4994554,15.249864 14.2790227,15.5573334 13.9458229,15.679449 C12.9391607,16.0470727 12.416663,16.4395794 12.416663,16.7076718 C12.416663,17.0401495 12.1368422,17.3096758 11.7916657,17.3096758 C11.4464893,17.3096758 11.1666685,17.0401495 11.1666685,16.7076718 C11.1666685,16.0936277 8.42918063,14.8286166 3.41003617,14.695373 C2.63605589,14.6919064 2.00822922,14.0907511 2.00004241,13.3452787 L2.00004241,13.3452787 L2.00004241,3.72284635 C2.00004241,3.35982112 2.1538583,3.01251994 2.42587386,2.76124525 C2.70386226,2.49773387 3.08188652,2.35556866 3.47170256,2.36793596 C6.64418852,2.45622988 9.9941737,3.0526152 11.5425002,4.17314536 C11.6906477,4.2801683 11.8943505,4.2801683 12.042498,4.17314536 C13.5883245,3.05020718 16.939143,2.45382186 20.1116289,2.36793596 Z M3.43586939,3.57352848 C3.38041039,3.57282468 3.33249373,3.59099776 3.29670334,3.62411769 C3.2676517,3.64940154 3.25075944,3.6851392 3.25003688,3.72284635 L3.25003688,3.72284635 L3.25003688,13.3452787 C3.26496592,13.4355898 3.34957493,13.4995977 3.44420269,13.4921677 C5.88172019,13.4902724 8.29892604,13.919037 10.5758378,14.7571788 C10.7049479,14.8144004 10.8554337,14.8042876 10.9750438,14.7303519 C11.0946539,14.6564161 11.1668893,14.5288561 11.166669,14.391963 L11.166669,14.391963 L11.166669,5.58504546 C11.166669,4.97421205 8.43834725,3.71000359 3.43586939,3.57352848 L3.43586939,3.57352848 Z M5.2319914,10.9107882 L5.33336099,10.9115771 C6.77246086,11.0147364 8.19302852,11.2872654 9.56334227,11.7230785 L9.56334227,11.7230785 C9.77898628,11.7883607 9.9417468,11.9614959 9.98776923,12.1754456 C10.0337917,12.3893953 9.95585017,12.6105679 9.78412387,12.7533248 C9.61239757,12.8960818 9.37384874,12.9380093 9.16084405,12.8628728 C7.88153112,12.4558305 6.55474189,12.2032007 5.21086153,12.1107691 C4.86760564,12.0778215 4.61696798,11.7832354 4.65086401,11.452578 C4.68724868,11.1232091 4.99080108,10.8825895 5.33336099,10.9115771 Z M18.2499705,10.7775308 C18.5935361,10.7489614 18.8994735,10.9908164 18.9333008,11.3217425 C18.9671281,11.6526686 18.7160356,11.9473507 18.37247,11.9799336 C17.0249365,12.1269406 15.6995117,12.4232127 14.4224874,12.8628728 C14.2094827,12.9380093 13.9709339,12.8960818 13.7992076,12.7533248 C13.6274813,12.6105679 13.5495398,12.3893953 13.5955623,12.1754456 C13.6415847,11.9614959 13.8043452,11.7883607 14.0208225,11.7230785 C15.3878172,11.251375 16.8070263,10.9340699 18.2499705,10.7775308 L18.2499705,10.7775308 Z M5.23165464,7.99534785 L5.33336099,7.99707492 C6.77248707,8.0995411 8.19310838,8.37181084 9.56334227,8.80777368 L9.56334227,8.80777368 C9.77898628,8.87305591 9.9417468,9.04619104 9.98776923,9.26014074 C10.0337917,9.47409044 9.95585017,9.69526305 9.78412387,9.83802002 C9.61239757,9.980777 9.37384874,10.0227044 9.16084405,9.94756796 C7.88144388,9.54084532 6.55469628,9.2882235 5.21086153,9.19546427 C4.86729592,9.16288146 4.61620339,8.86819928 4.65003068,8.5372732 C4.68385797,8.20634712 4.98979537,7.96449211 5.33336099,7.99707492 Z M18.2499705,7.86222602 C18.5935361,7.82964323 18.8994735,8.07149823 18.9333008,8.4024243 C18.9671281,8.73335037 18.7160356,9.02803254 18.37247,9.06061537 C17.0248736,9.2094975 15.6995128,9.50710192 14.4224874,9.94756796 C14.2094827,10.0227044 13.9709339,9.980777 13.7992076,9.83802002 C13.6274813,9.69526305 13.5495398,9.47409044 13.5955623,9.26014074 C13.6415847,9.04619104 13.8043452,8.87305591 14.0208225,8.80777368 C15.3880451,8.33681706 16.8071633,8.01953239 18.2499705,7.86222602 Z M5.33336099,5.0817701 C6.7725164,5.18453659 8.19313346,5.4570751 9.56334227,5.89327152 L9.56334227,5.89327152 C9.77898628,5.95855376 9.9417468,6.13168888 9.98776923,6.34563859 C10.0337917,6.55958829 9.95585017,6.7807609 9.78412387,6.92351787 C9.61239757,7.06627485 9.37384874,7.10820229 9.16084405,7.03306581 C7.88146256,6.62613414 6.55472245,6.37324414 5.21086153,6.28015944 C5.04599706,6.26474223 4.89428284,6.18675404 4.78921487,6.06341337 C4.6841469,5.94007271 4.63436637,5.78152359 4.65086401,5.62277105 C4.6880928,5.29384074 4.99108556,5.05366478 5.33336099,5.0817701 Z M18.2499705,4.94772387 C18.5935361,4.91514106 18.8994735,5.15699607 18.9333008,5.48792215 C18.9671281,5.81884823 18.7160356,6.11353041 18.37247,6.14611321 C17.0247852,6.29450353 15.6993663,6.59212098 14.4224874,7.03306581 C14.2094827,7.10820229 13.9709339,7.06627485 13.7992076,6.92351787 C13.6274813,6.7807609 13.5495398,6.55958829 13.5955623,6.34563859 C13.6415847,6.13168888 13.8043452,5.95855376 14.0208225,5.89327152 C15.3878977,5.42183161 16.8070746,5.10453379 18.2499705,4.94772387 Z" id="ðŸ–-Color" fill="#5A5A5A"></path>
        <rect id="_Transparent_Rectangle_" x="0" y="0" width="24" height="24"></rect>
    </g>
</svg>