<?xml version="1.0" encoding="UTF-8"?>
<svg width="24px" height="24px" viewBox="0 0 24 24" version="1.1" xmlns="http://www.w3.org/2000/svg" xmlns:xlink="http://www.w3.org/1999/xlink">
    <title>16. Education/study_desk</title>
    <g id="16.-Education/study_desk" stroke="none" stroke-width="1" fill="none" fill-rule="evenodd">
        <path d="M21.1666667,12.9233333 C21.626904,12.9233333 22,13.2964294 22,13.7566667 C21.9972502,14.2149501 21.6249584,14.5850082 21.1666667,14.585 L21.1666667,14.585 L20.8166667,14.585 C20.6913864,14.5847238 20.572631,14.6408327 20.4932898,14.7377873 C20.4139486,14.834742 20.3824436,14.9622506 20.4075,15.085 L20.4075,15.085 L21.3583333,19.8391667 C21.4274301,20.1351783 21.3298698,20.4453307 21.1037581,20.6484827 C20.8776464,20.8516347 20.5588569,20.9155552 20.2719045,20.8152778 C19.9849521,20.7150004 19.7753631,20.4664346 19.725,20.1666667 L19.725,20.1666667 L18.6758333,14.925 C18.6361654,14.7306652 18.4650082,14.5912296 18.2666667,14.5916667 L18.2666667,14.5916667 L5.73333333,14.5916667 C5.53499178,14.5912296 5.36383459,14.7306652 5.32416667,14.925 L5.32416667,14.925 L4.275,20.17 C4.22463692,20.4697679 4.01504788,20.7183337 3.72809548,20.8186111 C3.44114308,20.9188885 3.12235364,20.854968 2.89624192,20.651816 C2.6701302,20.448664 2.57256988,20.1385116 2.64166667,19.8425 L2.64166667,19.8425 L3.5925,15.09 C3.61755643,14.9672506 3.5860514,14.839742 3.50671018,14.7427873 C3.42736896,14.6458327 3.30861365,14.5897238 3.18333333,14.59 L3.18333333,14.59 L2.83333333,14.59 C2.37309604,14.59 2,14.216904 2,13.7566667 C2,13.2964294 2.37309604,12.9233333 2.83333333,12.9233333 L2.83333333,12.9233333 Z M11.705,3.98583333 C12.6896525,3.04781908 14.1821119,2.88947611 15.3416667,3.6 C15.4342358,3.5657913 15.5321455,3.54829736 15.6308333,3.54833333 C17.3622701,3.54971126 18.765662,4.95273031 18.7675,6.68416667 L18.7675,6.68416667 L18.7675,10.4233333 C18.7675,10.5383927 18.860774,10.6316667 18.9758333,10.6316667 L18.9758333,10.6316667 L19.6008333,10.6316667 C20.0610706,10.6316667 20.4341667,11.0047627 20.4341667,11.465 C20.4341667,11.9252373 20.0610706,12.2983333 19.6008333,12.2983333 L19.6008333,12.2983333 L16.2675,12.2983333 C15.8072627,12.2983333 15.4341667,11.9252373 15.4341667,11.465 C15.4341667,11.0047627 15.8072627,10.6316667 16.2675,10.6316667 L16.2675,10.6316667 L16.8925,10.6316667 C17.0075593,10.6316667 17.1008333,10.5383927 17.1008333,10.4233333 L17.1008333,10.4233333 L17.1008333,6.68416667 C17.1010083,6.28634516 16.9394813,5.90553839 16.6533333,5.62916667 C16.7855416,6.53968441 16.4803736,7.45920377 15.83,8.11 C15.6672917,8.27265914 15.4035416,8.27265914 15.2408333,8.11 L15.2408333,8.11 L11.705,4.575 C11.5423409,4.41229173 11.5423409,4.1485416 11.705,3.98583333 Z M10.3333333,9.59 C10.563452,9.59 10.75,9.77654802 10.75,10.0066667 L10.75,10.0066667 L10.75,11.6733333 C10.75,11.903452 10.563452,12.09 10.3333333,12.09 L10.3333333,12.09 L4.29166667,12.09 C3.60131074,12.09 3.0416667,11.5303559 3.0416667,10.84 C3.0416667,10.1496441 3.60131074,9.59 4.29166667,9.59 L4.29166667,9.59 Z M10.3333333,6.25666667 C10.563452,6.25666667 10.75,6.44321469 10.75,6.67333333 L10.75,6.67333333 L10.75,8.34 C10.75,8.57011865 10.563452,8.75666667 10.3333333,8.75666667 L10.3333333,8.75666667 L4.29166667,8.75666667 C3.60131074,8.75666667 3.04166669,8.19702259 3.04166669,7.50666667 C3.04166669,6.81631074 3.60131074,6.25666667 4.29166667,6.25666667 L4.29166667,6.25666667 Z" id="ðŸ–-Color" fill="#5A5A5A"></path>
        <rect id="_Transparent_Rectangle_" x="0" y="0" width="24" height="24"></rect>
    </g>
</svg>