<?xml version="1.0" encoding="UTF-8"?>
<svg width="24px" height="24px" viewBox="0 0 24 24" version="1.1" xmlns="http://www.w3.org/2000/svg" xmlns:xlink="http://www.w3.org/1999/xlink">
    <title>6. Technology/3d_box_expand_corners</title>
    <g id="6.-Technology/3d_box_expand_corners" stroke="none" stroke-width="1" fill="none" fill-rule="evenodd">
        <path d="M7.24416667,15.6291667 C7.45339539,15.4125362 7.76323158,15.3256562 8.05458944,15.401919 C8.3459473,15.4781819 8.57348476,15.7057194 8.64974763,15.9970772 C8.7260105,16.2884351 8.63913049,16.5982713 8.4225,16.8075 L8.4225,16.8075 L5.26166667,19.9683333 C5.22248262,20.0074184 5.20046092,20.0604886 5.20046092,20.1158333 C5.20046092,20.171178 5.22248262,20.2242482 5.26166667,20.2633333 L5.26166667,20.2633333 L5.775,20.7766667 C5.95351692,20.9554057 6.00688183,21.2240351 5.91023915,21.4574363 C5.81359646,21.6908375 5.58595138,21.8431111 5.33333333,21.8433333 L5.33333333,21.8433333 L2.83333333,21.8433333 C2.48815536,21.8433333 2.20833333,21.5635113 2.20833333,21.2183333 L2.20833333,21.2183333 L2.20833333,18.7183333 C2.20855553,18.4657153 2.36082921,18.2380702 2.59423041,18.1414275 C2.8276316,18.0447848 3.09626098,18.0981497 3.275,18.2766667 L3.275,18.2766667 L3.78833333,18.79 C3.82741844,18.829184 3.88048864,18.8512057 3.93583333,18.8512057 C3.99117803,18.8512057 4.04424822,18.829184 4.08333333,18.79 L4.08333333,18.79 Z M15.9454106,15.401919 C16.2367684,15.3256562 16.5466046,15.4125362 16.7558333,15.6291667 L16.7558333,15.6291667 L19.9166667,18.79 C19.9557518,18.829184 20.008822,18.8512057 20.0641667,18.8512057 C20.1195114,18.8512057 20.1725816,18.829184 20.2116667,18.79 L20.2116667,18.79 L20.725,18.2766667 C20.903739,18.0981497 21.1723684,18.0447848 21.4057696,18.1414275 C21.6391708,18.2380702 21.7914445,18.4657153 21.7916667,18.7183333 L21.7916667,18.7183333 L21.7916667,21.2183333 C21.7916667,21.5635113 21.5118446,21.8433333 21.1666667,21.8433333 L21.1666667,21.8433333 L18.6666667,21.8433333 C18.4140486,21.8431111 18.1864035,21.6908375 18.0897609,21.4574363 C17.9931182,21.2240351 18.0464831,20.9554057 18.225,20.7766667 L18.225,20.7766667 L18.7383333,20.2633333 C18.7775174,20.2242482 18.7995391,20.171178 18.7995391,20.1158333 C18.7995391,20.0604886 18.7775174,20.0074184 18.7383333,19.9683333 L18.7383333,19.9683333 L15.5775,16.8075 C15.3608695,16.5982713 15.2739895,16.2884351 15.3502524,15.9970772 C15.4265152,15.7057194 15.6540527,15.4781819 15.9454106,15.401919 Z M11.75,7.43 C11.9094276,7.36053034 12.0905724,7.36053034 12.25,7.43 L12.25,7.43 L17.8758333,9.89083333 C18.1030213,9.99061586 18.2498009,10.2151985 18.25,10.4633333 L18.25,10.4633333 L18.25,15.4425 C18.2498139,15.526727 18.1989298,15.6025558 18.1210581,15.6346528 C18.0431864,15.6667498 17.9536488,15.6487998 17.8941667,15.5891667 L17.8941667,15.5891667 L17.345,15.04 C16.9265425,14.606739 16.3068702,14.432979 15.7241545,14.5855047 C15.1414387,14.7380305 14.6863638,15.1931054 14.5338381,15.7758211 C14.3813123,16.3585368 14.5550724,16.9782092 14.9883333,17.3966667 L14.9883333,17.3966667 L15.95,18.3591667 C15.9987834,18.4077835 16.0203869,18.4773682 16.0077147,18.5450648 C15.9950424,18.6127614 15.9497321,18.6698204 15.8866667,18.6975 L15.8866667,18.6975 L12.1666667,20.325 L12.0846946,20.351089 C12.0009075,20.3684817 11.9130366,20.3597854 11.8333333,20.325 L11.8333333,20.325 L8.10833333,18.7025 C8.04531676,18.675012 7.99983203,18.6183119 7.98666667,18.5508333 C7.97426294,18.4829584 7.99572089,18.4132978 8.04416667,18.3641667 L8.04416667,18.3641667 L9.01166667,17.3966667 C9.44492764,16.9782092 9.61868766,16.3585368 9.46616193,15.7758211 C9.31363619,15.1931054 8.85856126,14.7380305 8.27584554,14.5855047 C7.69312982,14.432979 7.07345745,14.606739 6.655,15.04 L6.655,15.04 L6.10583333,15.5891667 C6.04635122,15.6487998 5.95681363,15.6667498 5.87894189,15.6346528 C5.80107015,15.6025558 5.75018614,15.526727 5.75,15.4425 L5.75,15.4425 L5.75,10.4633333 C5.75019906,10.2151985 5.8969787,9.99061586 6.12416667,9.89083333 L6.12416667,9.89083333 Z M12.0833333,8.72166667 C12.0302191,8.69837475 11.9697809,8.69837475 11.9166667,8.72166667 L11.9166667,8.72166667 L8.37083333,10.2725 C8.29504284,10.3056938 8.24607881,10.3805926 8.24607881,10.4633333 C8.24607881,10.5460741 8.29504284,10.6209729 8.37083333,10.6541667 L8.37083333,10.6541667 L11.9166667,12.2058333 C11.9699434,12.228337 12.0300566,12.228337 12.0833333,12.2058333 L12.0833333,12.2058333 L15.6291667,10.6541667 C15.7049572,10.6209729 15.7539212,10.5460741 15.7539212,10.4633333 C15.7539212,10.3805926 15.7049572,10.3056938 15.6291667,10.2725 L15.6291667,10.2725 Z M11.6058333,2.29583333 C11.8357034,2.10985029 12.1642966,2.10985029 12.3941667,2.29583333 L12.3941667,2.29583333 L14.0608333,3.65 C14.2661109,3.81684966 14.3441146,4.09486321 14.2555931,4.3441455 C14.1670717,4.59342779 13.9311997,4.75998248 13.6666667,4.76 L13.6666667,4.76 L13.0416667,4.76 C12.9266073,4.76 12.8333333,4.85327401 12.8333333,4.96833333 L12.8333333,4.96833333 L12.8333333,5.80166667 C12.8333333,6.26190396 12.4602373,6.635 12,6.635 C11.5397627,6.635 11.1666667,6.26190396 11.1666667,5.80166667 L11.1666667,5.80166667 L11.1666667,4.96833333 C11.1666667,4.85327401 11.0733927,4.76 10.9583333,4.76 L10.9583333,4.76 L10.3333333,4.76 C10.0688003,4.75998248 9.83292827,4.59342779 9.74440686,4.3441455 C9.65588544,4.09486321 9.73388907,3.81684966 9.93916667,3.65 L9.93916667,3.65 Z" id="ðŸ–-Color" fill="#5A5A5A"></path>
        <rect id="_Transparent_Rectangle_" x="0" y="0" width="24" height="24"></rect>
    </g>
</svg>