<svg width="24" height="24" viewBox="0 0 24 24" fill="none" xmlns="http://www.w3.org/2000/svg">
<g id="3d_box_expand_corners">
<path id="Shape" fill-rule="evenodd" clip-rule="evenodd" d="M10.958 4.76H10.333C10.0685 4.75998 9.8326 4.59342 9.74408 4.34414C9.65556 4.09486 9.73356 3.81685 9.93884 3.65L11.6055 2.29583C11.8354 2.10985 12.164 2.10985 12.3938 2.29583L14.0605 3.65C14.2658 3.81685 14.3438 4.09486 14.2553 4.34414C14.1667 4.59342 13.9309 4.75998 13.6663 4.76H13.0413C12.9263 4.76 12.833 4.85327 12.833 4.96833V5.80166C12.833 6.2619 12.4599 6.635 11.9997 6.635C11.5394 6.635 11.1663 6.2619 11.1663 5.80166V4.96833C11.1663 4.85327 11.0731 4.76 10.958 4.76ZM14.988 17.3967C14.5547 16.9782 14.381 16.3585 14.5335 15.7758C14.686 15.1931 15.1411 14.738 15.7238 14.5855C16.3065 14.433 16.9262 14.6067 17.3447 15.04L17.8938 15.5892C17.9533 15.6488 18.0429 15.6667 18.1207 15.6346C18.1986 15.6026 18.2495 15.5267 18.2497 15.4425V10.4633C18.2495 10.2152 18.1027 9.99061 17.8755 9.89083L12.2497 7.43C12.0902 7.36053 11.9091 7.36053 11.7497 7.43L6.12384 9.89083C5.89665 9.99061 5.74987 10.2152 5.74967 10.4633V15.4425C5.74986 15.5267 5.80074 15.6026 5.87862 15.6346C5.95649 15.6667 6.04603 15.6488 6.10551 15.5892L6.65467 15.04C7.07313 14.6067 7.6928 14.433 8.27552 14.5855C8.85824 14.738 9.31331 15.1931 9.46584 15.7758C9.61836 16.3585 9.4446 16.9782 9.01134 17.3967L8.04384 18.3642C7.9954 18.4133 7.97394 18.483 7.98634 18.5508C7.99951 18.6183 8.04499 18.675 8.10801 18.7025L11.833 20.325C11.9393 20.3714 12.0601 20.3714 12.1663 20.325L15.8863 18.6975C15.9494 18.6698 15.9947 18.6128 16.0074 18.5451C16.0201 18.4774 15.9985 18.4078 15.9497 18.3592L14.988 17.3967ZM15.6288 10.2725C15.7046 10.3057 15.7536 10.3806 15.7536 10.4633C15.7536 10.5461 15.7046 10.621 15.6288 10.6542L12.083 12.2058C12.0297 12.2283 11.9696 12.2283 11.9163 12.2058L8.37051 10.6542C8.29472 10.621 8.24575 10.5461 8.24575 10.4633C8.24575 10.3806 8.29472 10.3057 8.37051 10.2725L11.9163 8.72166C11.9695 8.69837 12.0299 8.69837 12.083 8.72166L15.6288 10.2725ZM8.42217 16.8075C8.6388 16.5983 8.72569 16.2884 8.64942 15.9971C8.57316 15.7057 8.34562 15.4782 8.05426 15.4019C7.76291 15.3257 7.45307 15.4125 7.24384 15.6292L4.08301 18.79C4.04392 18.8292 3.99085 18.8512 3.93551 18.8512C3.88016 18.8512 3.82709 18.8292 3.78801 18.79L3.27467 18.2767C3.09594 18.0981 2.82731 18.0448 2.5939 18.1414C2.3605 18.2381 2.20823 18.4657 2.20801 18.7183V21.2183C2.20801 21.5635 2.48783 21.8433 2.83301 21.8433H5.33301C5.58563 21.8431 5.81327 21.6908 5.90991 21.4574C6.00656 21.224 5.95319 20.9554 5.77467 20.7767L5.26134 20.2633C5.22216 20.2242 5.20014 20.1712 5.20014 20.1158C5.20014 20.0605 5.22216 20.0074 5.26134 19.9683L8.42217 16.8075ZM21.4054 18.1414C21.6388 18.2381 21.7911 18.4657 21.7913 18.7183V21.2183C21.7913 21.5635 21.5115 21.8433 21.1663 21.8433H18.6663C18.4137 21.8431 18.1861 21.6908 18.0894 21.4574C17.9928 21.224 18.0462 20.9554 18.2247 20.7767L18.738 20.2633C18.7772 20.2242 18.7992 20.1712 18.7992 20.1158C18.7992 20.0605 18.7772 20.0074 18.738 19.9683L15.5772 16.8075C15.3605 16.5983 15.2737 16.2884 15.3499 15.9971C15.4262 15.7057 15.6537 15.4782 15.9451 15.4019C16.2364 15.3257 16.5463 15.4125 16.7555 15.6292L19.9163 18.79C19.9554 18.8292 20.0085 18.8512 20.0638 18.8512C20.1192 18.8512 20.1723 18.8292 20.2113 18.79L20.7247 18.2767C20.9034 18.0981 21.172 18.0448 21.4054 18.1414Z" fill="#5A5A5A"/>
</g>
</svg>
