<?xml version="1.0" encoding="UTF-8"?>
<svg width="24px" height="24px" viewBox="0 0 24 24" version="1.1" xmlns="http://www.w3.org/2000/svg" xmlns:xlink="http://www.w3.org/1999/xlink">
    <title>6. Technology/3d_box_corner</title>
    <g id="6.-Technology/3d_box_corner" stroke="none" stroke-width="1" fill="none" fill-rule="evenodd">
        <path d="M21.4464,18.1358333 L19.3112,17.0383333 C19.243092,17.0031782 19.200002,16.930845 19.2,16.8516667 L19.2,9.91666667 C19.1999731,9.5886463 19.0152153,9.29115501 18.728,9.15666667 L13.52,6.70083333 C13.4486265,6.66675716 13.4027377,6.59261721 13.4024,6.51083333 L13.4024,3.66666667 C13.4024,3.09137005 12.9546847,2.625 12.4024,2.625 C11.8501153,2.625 11.4024,3.09137005 11.4024,3.66666667 L11.4024,6.51333333 C11.4024642,6.59524087 11.3564475,6.66958745 11.2848,6.70333333 L6.0704,9.1575 C5.78407401,9.29235924 5.60005777,9.5893384 5.6,9.91666667 L5.6,16.8525 C5.5997775,16.9313826 5.55713595,17.0034819 5.4896,17.0391667 L3.3536,18.1475 C2.85919471,18.4043124 2.65826012,19.0299945 2.90480003,19.545 C3.15133994,20.0600055 3.7519947,20.2693124 4.2464,20.0125 L6.6464,18.7625 C6.6702045,18.7507817 6.6977955,18.7507817 6.7216,18.7625 L12.1528,21.3183333 L12.16,21.3183333 C12.3124933,21.3905345 12.4875067,21.3905345 12.64,21.3183333 L12.6456,21.3183333 L18.0736,18.7625 C18.0988711,18.7497906 18.1283289,18.7497906 18.1536,18.7625 L20.5536,19.9975 C21.0454349,20.2378896 21.6315613,20.0256358 21.874178,19.5192793 C22.1167946,19.0129228 21.9272844,18.3974136 21.4472,18.1325 L21.4464,18.1358333 Z M8.7456,10.1066667 C8.67381103,10.0730328 8.62763804,9.99866247 8.62763804,9.91666667 C8.62763804,9.83467086 8.67381103,9.76030054 8.7456,9.72666667 L12.32,8.04333333 C12.3724889,8.01919153 12.4323111,8.01919153 12.4848,8.04333333 L16.0848,9.72666667 C16.156589,9.76030054 16.202762,9.83467086 16.202762,9.91666667 C16.202762,9.99866247 16.156589,10.0730328 16.0848,10.1066667 L12.4848,11.79 C12.4323973,11.8145633 12.3724027,11.8145633 12.32,11.79 L8.7456,10.1066667 Z" id="ðŸ–-Color" fill="#5A5A5A"></path>
        <rect id="_Transparent_Rectangle_" x="0" y="0" width="24" height="24"></rect>
    </g>
</svg>