<svg width="24" height="24" viewBox="0 0 24 24" fill="none" xmlns="http://www.w3.org/2000/svg">
<g id="3d_box_corner">
<path id="Shape" fill-rule="evenodd" clip-rule="evenodd" d="M21.4468 18.1358L19.3116 17.0383C19.2434 17.0032 19.2004 16.9308 19.2004 16.8517V9.91667C19.2003 9.58865 19.0156 9.29115 18.7284 9.15667L13.5204 6.70083C13.449 6.66676 13.4031 6.59262 13.4028 6.51083V3.66667C13.4028 3.09137 12.955 2.625 12.4028 2.625C11.8505 2.625 11.4028 3.09137 11.4028 3.66667V6.51333C11.4028 6.59524 11.3568 6.66959 11.2852 6.70333L6.07075 9.1575C5.78443 9.29236 5.60041 9.58934 5.60035 9.91667V16.8525C5.60013 16.9314 5.55749 17.0035 5.48995 17.0392L3.35395 18.1475C2.85955 18.4043 2.65861 19.03 2.90515 19.545C3.15169 20.06 3.75235 20.2693 4.24675 20.0125L6.64675 18.7625C6.67056 18.7508 6.69815 18.7508 6.72195 18.7625L12.1532 21.3183H12.1604C12.3128 21.3905 12.4879 21.3905 12.6404 21.3183H12.646L18.074 18.7625C18.0992 18.7498 18.1287 18.7498 18.154 18.7625L20.554 19.9975C21.0458 20.2379 21.6319 20.0256 21.8745 19.5193C22.1171 19.0129 21.9276 18.3974 21.4476 18.1325L21.4468 18.1358ZM8.74595 10.1067C8.67416 10.073 8.62799 9.99866 8.62799 9.91667C8.62799 9.83467 8.67416 9.7603 8.74595 9.72667L12.3204 8.04333C12.3728 8.01919 12.4327 8.01919 12.4852 8.04333L16.0852 9.72667C16.1569 9.7603 16.2031 9.83467 16.2031 9.91667C16.2031 9.99866 16.1569 10.073 16.0852 10.1067L12.4852 11.79C12.4327 11.8146 12.3728 11.8146 12.3204 11.79L8.74595 10.1067Z" fill="#5A5A5A"/>
</g>
</svg>
