<?xml version="1.0" encoding="UTF-8"?>
<svg width="24px" height="24px" viewBox="0 0 24 24" version="1.1" xmlns="http://www.w3.org/2000/svg" xmlns:xlink="http://www.w3.org/1999/xlink">
    <title>6. Technology/3d_print_monitor_1</title>
    <g id="6.-Technology/3d_print_monitor_1" stroke="none" stroke-width="1" fill="none" fill-rule="evenodd">
        <path d="M13.365,19.2568833 C13.4681602,19.2571665 13.565862,19.3032695 13.6316667,19.3827167 L13.6316667,19.3827167 L15.0891667,21.14105 C15.1633561,21.2471229 15.1724393,21.3856401 15.1127368,21.5004928 C15.0530344,21.6153456 14.934443,21.6874954 14.805,21.6877167 L14.805,21.6877167 L9.19416667,21.6877167 C9.0647237,21.6874954 8.94613225,21.6153456 8.88642983,21.5004928 C8.82672742,21.3856401 8.83581057,21.2471229 8.91,21.14105 L8.91,21.14105 L10.3683333,19.3827167 C10.434138,19.3032695 10.5318398,19.2571665 10.635,19.2568833 L10.635,19.2568833 Z M5.33333333,5.02104998 C5.44839266,5.02104998 5.54166667,5.114324 5.54166667,5.22938332 L5.54166667,5.22938332 L5.54166667,6.47938332 C5.54166667,6.59444264 5.44839266,6.68771665 5.33333333,6.68771665 L5.33333333,6.68771665 L4.02083333,6.68771665 C3.92712343,6.68749538 3.83716376,6.72450941 3.77074457,6.79061604 C3.70432538,6.85672267 3.66688742,6.94650674 3.66666667,7.04021665 L3.66666667,7.04021665 L3.66666667,15.08355 C3.66688742,15.1772599 3.70432538,15.267044 3.77074457,15.3331506 C3.83716376,15.3992572 3.92712343,15.4362713 4.02083333,15.43605 L4.02083333,15.43605 L19.9791667,15.43605 C20.0728766,15.4362713 20.1628362,15.3992572 20.2292554,15.3331506 C20.2956746,15.267044 20.3331126,15.1772599 20.3333333,15.08355 L20.3333333,15.08355 L20.3333333,7.04021665 C20.3331126,6.94650674 20.2956746,6.85672267 20.2292554,6.79061604 C20.1628362,6.72450941 20.0728766,6.68749538 19.9791667,6.68771665 L19.9791667,6.68771665 L18.6666667,6.68771665 C18.5516073,6.68771665 18.4583333,6.59444264 18.4583333,6.47938332 L18.4583333,6.47938332 L18.4583333,5.22938332 C18.4583333,5.114324 18.5516073,5.02104998 18.6666667,5.02104998 L18.6666667,5.02104998 L20.9583333,5.02104998 C21.2346005,5.02104998 21.4995525,5.13079669 21.6949029,5.32614709 C21.8902533,5.52149748 22,5.78644947 22,6.06271665 L22,6.06271665 L22,17.17355 C22,17.4498172 21.8902533,17.7147692 21.6949029,17.9101195 C21.4995525,18.1054699 21.2346005,18.2152167 20.9583333,18.2152167 L20.9583333,18.2152167 L3.04166667,18.2152167 C2.46637005,18.2152167 2,17.7488466 2,17.17355 L2,17.17355 L2,6.06271665 C2,5.48742004 2.46637005,5.02104998 3.04166667,5.02104998 L3.04166667,5.02104998 Z M11.7408333,2.36854998 C11.9054672,2.2935278 12.0945328,2.2935278 12.2591667,2.36854998 L12.2591667,2.36854998 L16.8425,4.45188332 C17.0653292,4.5536552 17.2083333,4.77607983 17.2083333,5.02104998 L17.2083333,5.02104998 L17.2083333,10.02105 C17.2083333,10.2660201 17.0653292,10.4884448 16.8425,10.5902167 L16.8425,10.5902167 L12.2591667,12.67355 C12.0944148,12.7480267 11.9055852,12.7480267 11.7408333,12.67355 L11.7408333,12.67355 L7.1575,10.5902167 C6.93467078,10.4884448 6.79166667,10.2660201 6.79166667,10.02105 L6.79166667,10.02105 L6.79166667,5.02104998 C6.79166667,4.77607983 6.93467078,4.5536552 7.1575,4.45188332 L7.1575,4.45188332 Z M12.0833333,3.66688332 C12.0302625,3.64338523 11.9697375,3.64338523 11.9166667,3.66688332 L11.9166667,3.66688332 L9.34166667,4.83188332 C9.26749011,4.86603118 9.21996825,4.94022404 9.21996825,5.02188332 C9.21996825,5.1035426 9.26749011,5.17773546 9.34166667,5.21188332 L9.34166667,5.21188332 L11.9116667,6.37854998 C11.9661582,6.4035506 12.0288418,6.4035506 12.0833333,6.37854998 L12.0833333,6.37854998 L14.6533333,5.21354998 C14.7275099,5.17940213 14.7750318,5.10520926 14.7750318,5.02354998 C14.7750318,4.94189071 14.7275099,4.86769784 14.6533333,4.83354998 L14.6533333,4.83354998 Z" id="ðŸ–-Color" fill="#5A5A5A"></path>
        <rect id="_Transparent_Rectangle_" x="2" y="2.31228335" width="24" height="24"></rect>
    </g>
</svg>