<?xml version="1.0" encoding="UTF-8"?>
<svg width="24px" height="24px" viewBox="0 0 24 24" version="1.1" xmlns="http://www.w3.org/2000/svg" xmlns:xlink="http://www.w3.org/1999/xlink">
    <title>6. Technology/3d_pen_box</title>
    <g id="6.-Technology/3d_pen_box" stroke="none" stroke-width="1" fill="none" fill-rule="evenodd">
        <path d="M7.85435807,7.95729358 C8.11668502,7.80968161 8.4357706,7.81800584 8.69049013,7.97910641 C8.94520965,8.14020698 9.09650813,8.42938306 9.08695276,8.7368636 C9.0773974,9.04434414 8.90845327,9.32298455 8.64425145,9.4670131 L8.64425145,9.4670131 L4.34566501,11.8477576 C4.27709313,11.8856939 4.23480613,11.9598091 4.23603344,12.0399057 C4.23726074,12.1200023 4.28179746,12.1927091 4.35149756,12.2284024 L4.35149756,12.2284024 L8.14515215,14.1770637 C8.20549828,14.2092448 8.27728004,14.2092448 8.33762617,14.1770637 L8.33762617,14.1770637 L13.467767,11.3350874 C13.5968416,11.2635959 13.7529352,11.2671614 13.8787991,11.3444763 C14.0046629,11.4217911 14.0818516,11.5614771 14.0818516,11.712303 L14.0818516,11.712303 L14.0818516,18.3564405 C14.0821451,18.5098862 14.0027002,18.6517896 13.8735456,18.7285122 L13.8735456,18.7285122 L8.45760997,21.9434175 C8.39412377,21.9805582 8.32233559,22 8.24930476,22 C8.1807105,22 8.11316477,21.9826782 8.05266463,21.9494187 L8.05266463,21.9494187 L2.22011858,18.7345134 C2.08463458,18.6598796 2.0000728,18.5145631 2.0000728,18.3564405 L2.0000728,18.3564405 L2.0000728,11.7243053 C1.99597784,11.404746 2.16490862,11.1093278 2.43842245,10.9578718 L2.43842245,10.9578718 Z M17.5475016,2.00195202 L17.7128886,2.00227783 C18.1555631,2.02576736 18.5709018,2.22975157 18.8670382,2.56911231 C18.8853691,2.58968771 18.9028667,2.61112041 18.9203644,2.63255311 C18.9597993,2.68216852 19.0188835,2.7108322 19.081176,2.71056815 L19.081176,2.71056815 L19.4977864,2.71056815 C20.4181368,2.71056815 21.1642282,3.47822795 21.1642282,4.4251843 L21.1642282,4.4251843 L21.1642282,11.0907546 C21.1638824,11.1927365 21.2336931,11.2807268 21.3308723,11.3007951 L21.3308723,11.3007951 C21.7520476,11.3884414 22.0387549,11.7889008 21.9957344,12.2271158 C21.9527139,12.6653308 21.5939644,12.9987077 21.1658946,12.9982655 C20.2455442,12.9982655 19.4994529,12.2306053 19.4994529,11.2836489 L19.4994529,11.2836489 L19.4994529,4.63951132 C19.4994529,4.52114178 19.4061914,4.4251843 19.2911476,4.4251843 L19.2911476,4.4251843 L19.2794826,4.4251843 C19.2027921,4.42531049 19.1323718,4.46878413 19.096174,4.53834897 C19.0058939,4.70923853 18.8881328,4.8631592 18.7478876,4.99357956 L18.7478876,4.99357956 L14.1185125,9.30326726 C13.9543266,9.45597526 13.7378377,9.53519776 13.516807,9.52345683 C13.2957764,9.51171589 13.0883674,9.40997634 12.9403382,9.24068377 C12.9092559,9.20425406 12.8652087,9.1822605 12.8181618,9.1796788 C12.7711148,9.17709709 12.725044,9.19414541 12.690372,9.22696684 L12.690372,9.22696684 L10.3190254,11.383954 C10.0604069,11.620693 9.66423242,11.5968956 9.43414483,11.3308009 C9.20405724,11.0647061 9.22718607,10.6570788 9.48580452,10.4203397 L9.48580452,10.4203397 L11.8188229,8.29678757 C11.8605409,8.25887991 11.8857797,8.20537099 11.8889104,8.14819514 C11.8920411,8.09101928 11.8728031,8.0349322 11.8354874,7.99244321 L11.8354874,7.99244321 L11.8121572,7.96586666 C11.663534,7.79715483 11.5862476,7.57453899 11.5973458,7.34712371 C11.6084439,7.11970843 11.7070149,6.90617804 11.8713159,6.75363304 L11.8713159,6.75363304 L16.50819,2.44394534 C16.8366845,2.13772922 17.2702141,1.9787883 17.7128886,2.00227783 Z" id="ðŸ–-Color" fill="#5A5A5A"></path>
        <rect id="_Transparent_Rectangle_" x="0" y="0" width="24" height="24"></rect>
    </g>
</svg>