<svg width="24" height="24" viewBox="0 0 24 24" fill="none" xmlns="http://www.w3.org/2000/svg">
<g id="3d_pen">
<path id="Shape" fill-rule="evenodd" clip-rule="evenodd" d="M20.8336 3.38141C19.5551 2.13477 17.5594 2.00432 16.1295 3.07391C11.0272 6.75517 6.6383 11.3352 3.17779 16.5897C2.85576 17.0702 2.91822 17.7113 3.32696 18.1206L3.83113 18.6247C3.87031 18.6638 3.89233 18.7169 3.89233 18.7722C3.89233 18.8276 3.87031 18.8807 3.83113 18.9197L2.51029 20.2364C2.19448 20.5634 2.199 21.0831 2.52045 21.4046C2.84189 21.726 3.36164 21.7306 3.68863 21.4147L5.00446 20.0989C5.04358 20.0595 5.09683 20.0373 5.15238 20.0373C5.20793 20.0373 5.26118 20.0595 5.30029 20.0989L5.89863 20.7064C6.34692 21.028 6.95034 21.028 7.39863 20.7064C12.8126 17.2337 17.4786 12.7148 21.1228 7.41474C22.0219 6.17939 21.8997 4.47588 20.8336 3.38141ZM6.34196 14.6556C6.37737 14.6051 6.43306 14.5725 6.49446 14.5664C6.55621 14.5604 6.61739 14.5824 6.66113 14.6264L9.36196 17.3264C9.40536 17.3705 9.42729 17.4314 9.42196 17.4931C9.41591 17.5547 9.38297 17.6105 9.33196 17.6456C8.20196 18.4147 6.92196 18.5247 6.19279 17.7947C5.72029 17.3239 5.32113 16.1356 6.34196 14.6556ZM10.4121 16.5029C10.4736 16.4973 10.5294 16.4647 10.5645 16.4139C11.5861 14.9339 11.1878 13.7464 10.717 13.2739C9.99363 12.5506 8.71529 12.6439 7.57696 13.4231C7.52556 13.4578 7.49227 13.5135 7.48615 13.5752C7.48003 13.6369 7.50171 13.6981 7.54529 13.7422L10.2461 16.4431C10.2899 16.4866 10.3507 16.5085 10.4121 16.5029ZM18.2261 9.57058C17.1573 10.6849 15.3876 10.7222 14.2728 9.65391C13.2049 8.5389 13.2422 6.7696 14.3561 5.70058C15.4249 4.58622 17.1946 4.54892 18.3095 5.61724C18.8227 6.15251 19.1023 6.86976 19.0866 7.61117C19.071 8.35258 18.7615 9.05741 18.2261 9.57058ZM14.8839 8.02187C14.7572 7.52068 14.9155 6.99037 15.2961 6.64058C15.6461 6.26008 16.1765 6.10204 16.6776 6.22894C17.1787 6.35584 17.57 6.74725 17.6967 7.24845C17.8234 7.74964 17.6651 8.27995 17.2845 8.62974C16.9345 9.01024 16.4041 9.16828 15.903 9.04138C15.4018 8.91448 15.0106 8.52307 14.8839 8.02187Z" fill="#5A5A5A"/>
</g>
</svg>
