<svg width="24" height="24" viewBox="0 0 24 24" fill="none" xmlns="http://www.w3.org/2000/svg">
<g id="3d_print_monitor_1">
<path id="Shape" fill-rule="evenodd" clip-rule="evenodd" d="M6.79167 10.0211C6.79171 10.266 6.93467 10.4884 7.1575 10.5902L11.7408 12.6736C11.9056 12.748 12.0944 12.748 12.2592 12.6736L16.8425 10.5902C17.0653 10.4884 17.2083 10.266 17.2083 10.0211V5.02105C17.2083 4.77608 17.0653 4.55366 16.8425 4.45189L12.2592 2.36855C12.0945 2.29353 11.9055 2.29353 11.7408 2.36855L7.1575 4.45189C6.93467 4.55366 6.79171 4.77608 6.79167 5.02105V10.0211ZM12.0833 6.37855C12.0288 6.40355 11.9662 6.40355 11.9117 6.37855L9.34167 5.21189C9.26749 5.17774 9.21997 5.10355 9.21997 5.02189C9.21997 4.94023 9.26749 4.86603 9.34167 4.83189L11.9167 3.66689C11.9697 3.64339 12.0303 3.64339 12.0833 3.66689L14.6533 4.83355C14.7275 4.8677 14.775 4.94189 14.775 5.02355C14.775 5.10521 14.7275 5.17941 14.6533 5.21355L12.0833 6.37855ZM20.9583 5.02105H18.6667C18.5516 5.02105 18.4583 5.11433 18.4583 5.22939V6.47939C18.4583 6.59445 18.5516 6.68772 18.6667 6.68772H19.9792C20.0729 6.6875 20.1628 6.72451 20.2293 6.79062C20.2957 6.85673 20.3331 6.94651 20.3333 7.04022V15.0836C20.3331 15.1773 20.2957 15.267 20.2293 15.3332C20.1628 15.3993 20.0729 15.4363 19.9792 15.4361H4.02083C3.92712 15.4363 3.83716 15.3993 3.77074 15.3332C3.70433 15.267 3.66689 15.1773 3.66667 15.0836V7.04022C3.66689 6.94651 3.70433 6.85673 3.77074 6.79062C3.83716 6.72451 3.92712 6.6875 4.02083 6.68772H5.33333C5.44839 6.68772 5.54167 6.59445 5.54167 6.47939V5.22939C5.54167 5.11433 5.44839 5.02105 5.33333 5.02105H3.04167C2.46637 5.02105 2 5.48742 2 6.06272V17.1736C2 17.7488 2.46637 18.2152 3.04167 18.2152H20.9583C21.2346 18.2152 21.4996 18.1055 21.6949 17.9101C21.8903 17.7148 22 17.4498 22 17.1736V6.06272C22 5.78645 21.8903 5.5215 21.6949 5.32615C21.4996 5.1308 21.2346 5.02105 20.9583 5.02105ZM13.6317 19.3827C13.5659 19.3033 13.4682 19.2572 13.365 19.2569H10.635C10.5318 19.2572 10.4341 19.3033 10.3683 19.3827L8.91 21.1411C8.83581 21.2471 8.82673 21.3856 8.88643 21.5005C8.94613 21.6153 9.06472 21.6875 9.19417 21.6877H14.805C14.9344 21.6875 15.053 21.6153 15.1127 21.5005C15.1724 21.3856 15.1634 21.2471 15.0892 21.1411L13.6317 19.3827Z" fill="#5A5A5A"/>
</g>
</svg>
