<svg width="24" height="24" viewBox="0 0 24 24" fill="none" xmlns="http://www.w3.org/2000/svg">
<g id="3d_pen_box">
<path id="Shape" fill-rule="evenodd" clip-rule="evenodd" d="M21.1642 11.0908C21.1638 11.1927 21.2336 11.2807 21.3308 11.3008H21.3325C21.752 11.3884 22.0387 11.7889 21.9957 12.2271C21.9526 12.6653 21.5939 12.9987 21.1658 12.9983C20.2455 12.9983 19.4994 12.2306 19.4994 11.2836V4.63951C19.4994 4.52114 19.4061 4.42518 19.2911 4.42518H19.2794C19.2027 4.42531 19.1323 4.46878 19.0961 4.53835C19.0058 4.70924 18.8881 4.86316 18.7478 4.99358L14.1184 9.30327C13.9543 9.45598 13.7378 9.5352 13.5167 9.52346C13.2957 9.51172 13.0883 9.40998 12.9403 9.24068C12.9092 9.20425 12.8651 9.18226 12.8181 9.17968C12.771 9.1771 12.725 9.19415 12.6903 9.22697L10.319 11.384C10.0603 11.6207 9.66416 11.5969 9.43407 11.3308C9.20398 11.0647 9.22711 10.6571 9.48573 10.4203L11.8188 8.29679C11.8605 8.25888 11.8857 8.20537 11.8888 8.1482C11.892 8.09102 11.8727 8.03493 11.8354 7.99244L11.8121 7.96587C11.6635 7.79715 11.5862 7.57454 11.5973 7.34712C11.6084 7.11971 11.7069 6.90618 11.8712 6.75363L16.5081 2.44395C16.8366 2.13773 17.2701 1.97879 17.7128 2.00228C18.1555 2.02577 18.5708 2.22975 18.867 2.56911C18.8853 2.58969 18.9028 2.61112 18.9203 2.63255C18.9597 2.68217 19.0188 2.71083 19.0811 2.71057H19.4977C20.4181 2.71057 21.1642 3.47823 21.1642 4.42518V11.0908ZM13.8787 11.3445C14.0046 11.4218 14.0817 11.5615 14.0818 11.7123V18.3564C14.0821 18.5099 14.0026 18.6518 13.8735 18.7285L8.45754 21.9434C8.39405 21.9806 8.32226 22.0001 8.24923 22C8.18064 22.0001 8.11309 21.9827 8.05259 21.9494L2.22005 18.7345C2.08456 18.6599 2.00001 18.5146 2.00008 18.3564V11.7243C1.99591 11.4047 2.16484 11.1093 2.43835 10.9579L7.85429 7.95729C8.11661 7.80968 8.4357 7.81801 8.69042 7.97911C8.94514 8.14021 9.09644 8.42938 9.08688 8.73686C9.07732 9.04434 8.90838 9.32298 8.64418 9.46701L4.34559 11.8478C4.27702 11.8857 4.23473 11.9598 4.23596 12.0399C4.23719 12.12 4.28172 12.1927 4.35142 12.2284L8.14508 14.1771C8.20543 14.2092 8.27721 14.2092 8.33755 14.1771L13.4677 11.3351C13.5968 11.2636 13.7529 11.2672 13.8787 11.3445Z" fill="#5A5A5A"/>
</g>
</svg>
