<?xml version="1.0" encoding="UTF-8"?>
<svg width="24px" height="24px" viewBox="0 0 24 24" version="1.1" xmlns="http://www.w3.org/2000/svg" xmlns:xlink="http://www.w3.org/1999/xlink">
    <title>6. Technology/3d_pen</title>
    <g id="6.-Technology/3d_pen" stroke="none" stroke-width="1" fill="none" fill-rule="evenodd">
        <path d="M16.1296705,3.07391624 C17.559592,2.0043209 19.5553223,2.13477697 20.8338371,3.38141624 C21.8999456,4.47588224 22.0220774,6.1793914 21.1230038,7.41474958 C17.4788109,12.7148205 12.8128428,17.2337463 7.39883714,20.7064162 C6.95054825,21.0280095 6.34712602,21.0280095 5.89883714,20.7064162 L5.89883714,20.7064162 L5.3005038,20.0989162 C5.26138576,20.0594761 5.20813662,20.0372916 5.15258714,20.0372916 C5.09703765,20.0372916 5.04378851,20.0594761 5.00467047,20.0989162 L5.00467047,20.0989162 L3.68883714,21.4147496 C3.36185473,21.7305598 2.84209982,21.7260432 2.52065499,21.4045984 C2.19921016,21.0831536 2.19469363,20.5633986 2.5105038,20.2364162 L2.5105038,20.2364162 L3.83133714,18.9197496 C3.87052118,18.8806645 3.89254288,18.8275943 3.89254288,18.7722496 C3.89254288,18.7169049 3.87052118,18.6638347 3.83133714,18.6247496 L3.83133714,18.6247496 L3.32717047,18.1205829 C2.91843462,17.7113184 2.85596522,17.0702218 3.1780038,16.5897496 C6.63850814,11.3352428 11.0273937,6.75518008 16.1296705,3.07391624 Z M6.49467047,14.5664162 C6.43327097,14.5724916 6.37757852,14.6050549 6.34217047,14.6555829 C5.32133714,16.1355829 5.7205038,17.3239162 6.1930038,17.7947496 C6.92217047,18.5247496 8.20217047,18.4147496 9.33217047,17.6455829 C9.3831835,17.6105016 9.41611694,17.5546977 9.42217047,17.4930829 C9.42749629,17.4314275 9.40557299,17.3705294 9.36217047,17.3264162 L9.36217047,17.3264162 L6.66133714,14.6264162 C6.61760325,14.5824143 6.55641564,14.5603868 6.49467047,14.5664162 Z M10.7171705,13.2739162 C9.99383714,12.5505829 8.7155038,12.6439162 7.57717047,13.4230829 C7.52576709,13.4577568 7.49247967,13.5135253 7.48635782,13.575227 C7.48023598,13.6369288 7.50191597,13.698151 7.5455038,13.7422496 L7.5455038,13.7422496 L10.2463371,16.4430829 C10.2900751,16.48662 10.3508645,16.5085254 10.4123201,16.5028947 C10.4737757,16.4972639 10.5295723,16.4646766 10.5646705,16.4139162 C11.5863371,14.9339162 11.1880038,13.7464162 10.7171705,13.2739162 Z M18.3096705,5.61724958 C17.1948419,4.54892204 15.4251563,4.5862257 14.3563371,5.70058291 C13.2424355,6.76960203 13.2051398,8.53890712 14.2730038,9.65391624 C15.3878324,10.7222438 17.157518,10.6849401 18.2263371,9.57058291 C18.7616849,9.05741827 19.0712272,8.35258845 19.0868556,7.61117703 C19.102484,6.86976562 18.822918,6.15251783 18.3096705,5.61724958 Z M15.2963371,6.64058291 C15.6462902,6.26008457 16.1766657,6.10204977 16.6778071,6.22894944 C17.1789484,6.35584911 17.5701931,6.7472578 17.6968828,7.24845225 C17.8235724,7.74964671 17.6653154,8.27995596 17.2846705,8.62974958 C16.9347174,9.01024792 16.4043419,9.16828272 15.9032005,9.04138305 C15.4020592,8.91448338 15.0108145,8.52307469 14.8841248,8.02188023 C14.7574352,7.52068578 14.9156922,6.99037653 15.2963371,6.64058291 Z" id="ðŸ–-Color" fill="#5A5A5A"></path>
        <rect id="_Transparent_Rectangle_" x="0" y="0" width="24" height="24"></rect>
    </g>
</svg>