<svg width="24" height="24" viewBox="0 0 24 24" fill="none" xmlns="http://www.w3.org/2000/svg">
<g id="3d_print_ball">
<path id="Shape" fill-rule="evenodd" clip-rule="evenodd" d="M20.3333 2C21.2538 2 22 2.74619 22 3.66667V20.3333C22 21.2538 21.2538 22 20.3333 22H3.66667C2.74619 22 2 21.2538 2 20.3333V3.66667C2 2.74619 2.74619 2 3.66667 2H20.3333ZM10.75 4.08333C10.75 3.85321 10.5635 3.66667 10.3333 3.66667H4.08333C3.85321 3.66667 3.66667 3.85321 3.66667 4.08333V18.25C3.66667 18.4801 3.85321 18.6667 4.08333 18.6667H19.9167C20.1468 18.6667 20.3333 18.4801 20.3333 18.25V4.08333C20.3333 3.85321 20.1468 3.66667 19.9167 3.66667H13.6667C13.4365 3.66667 13.25 3.85321 13.25 4.08333V5.19417C13.25 5.28432 13.2208 5.37204 13.1667 5.44417L12.3333 6.55583C12.2546 6.66075 12.1311 6.7225 12 6.7225C11.8689 6.7225 11.7454 6.66075 11.6667 6.55583L10.8333 5.44417C10.7792 5.37204 10.75 5.28432 10.75 5.19417V4.08333ZM13.0417 20.9583C12.6965 20.9583 12.4167 20.6785 12.4167 20.3333C12.4167 19.9882 12.6965 19.7083 13.0417 19.7083C13.3868 19.7083 13.6667 19.9882 13.6667 20.3333C13.6667 20.6785 13.3868 20.9583 13.0417 20.9583ZM15.3333 20.3333C15.3333 20.6785 15.6132 20.9583 15.9583 20.9583C16.3035 20.9583 16.5833 20.6785 16.5833 20.3333C16.5833 19.9882 16.3035 19.7083 15.9583 19.7083C15.6132 19.7083 15.3333 19.9882 15.3333 20.3333ZM18.875 20.9583C18.5298 20.9583 18.25 20.6785 18.25 20.3333C18.25 19.9882 18.5298 19.7083 18.875 19.7083C19.2202 19.7083 19.5 19.9882 19.5 20.3333C19.5 20.6785 19.2202 20.9583 18.875 20.9583ZM7.83333 13.6667C7.83333 15.9679 9.69881 17.8333 12 17.8333C14.3012 17.8333 16.1667 15.9679 16.1667 13.6667C16.1667 11.3655 14.3012 9.5 12 9.5C9.69996 9.50276 7.83609 11.3666 7.83333 13.6667ZM11.9533 11.12C12.1835 11.12 12.37 11.3065 12.37 11.5367C12.37 11.7668 12.1835 11.9533 11.9533 11.9533C10.9564 11.9543 10.1484 12.7622 10.1475 13.7592C10.1475 13.9893 9.96095 14.1758 9.73083 14.1758C9.50071 14.1758 9.31417 13.9893 9.31417 13.7592C9.316 12.3024 10.4965 11.1218 11.9533 11.12ZM9.05833 7.44167C9.30459 7.67113 9.68834 7.66436 9.92635 7.42635C10.1644 7.18834 10.1711 6.80459 9.94167 6.55833L8.9 5.51667C8.65374 5.2872 8.26999 5.29397 8.03198 5.53198C7.79397 5.76999 7.7872 6.15374 8.01667 6.4L9.05833 7.44167ZM8.25 9.29167H7C6.65482 9.29167 6.375 9.01184 6.375 8.66667C6.375 8.32149 6.65482 8.04167 7 8.04167H8.25C8.59518 8.04167 8.875 8.32149 8.875 8.66667C8.875 9.01184 8.59518 9.29167 8.25 9.29167ZM14.9417 7.44167L15.9833 6.4C16.2128 6.15374 16.206 5.76999 15.968 5.53198C15.73 5.29397 15.3463 5.2872 15.1 5.51667L14.0583 6.55833C13.8289 6.80459 13.8356 7.18834 14.0736 7.42635C14.3117 7.66436 14.6954 7.67113 14.9417 7.44167ZM15.75 9.29167C15.4048 9.29167 15.125 9.01184 15.125 8.66667C15.125 8.32149 15.4048 8.04167 15.75 8.04167H17C17.3452 8.04167 17.625 8.32149 17.625 8.66667C17.625 9.01184 17.3452 9.29167 17 9.29167H15.75Z" fill="#5A5A5A"/>
</g>
</svg>
