<svg width="24" height="24" viewBox="0 0 24 24" fill="none" xmlns="http://www.w3.org/2000/svg">
<g id="3d_print_warning">
<path id="Shape" fill-rule="evenodd" clip-rule="evenodd" d="M3.87583 15.5833C3.82051 15.5836 3.76739 15.5617 3.72827 15.5226C3.68916 15.4834 3.66728 15.4303 3.6675 15.375V3.875C3.6675 3.75994 3.76077 3.66667 3.87583 3.66667H8.89417C9.00923 3.66667 9.1025 3.75994 9.1025 3.875V4.55667C9.10244 4.63035 9.12643 4.70203 9.17083 4.76083L9.8525 5.66667C9.91705 5.75238 10.0181 5.80278 10.1254 5.80278C10.2327 5.80278 10.3338 5.75238 10.3983 5.66667L11.0833 4.76083C11.1277 4.70203 11.1517 4.63035 11.1517 4.55667V3.875C11.1517 3.75994 11.2449 3.66667 11.36 3.66667H16.3792C16.494 3.66712 16.587 3.76013 16.5875 3.875V10.1333C16.5876 10.2419 16.671 10.3322 16.7792 10.3408C17.19 10.3724 17.5863 10.5068 17.9317 10.7317C17.9958 10.773 18.0773 10.7762 18.1444 10.7399C18.2115 10.7037 18.2536 10.6338 18.2542 10.5575V3.45833C18.2528 2.65219 17.5986 1.99954 16.7925 2H3.45917C2.65381 2.00046 2.00092 2.65297 2 3.45833V16.7917C2.00092 17.5967 2.6533 18.2491 3.45833 18.25H10.8167C10.8942 18.2496 10.9652 18.2067 11.0017 18.1383L12.1842 15.8883C12.218 15.8238 12.2156 15.7463 12.178 15.684C12.1403 15.6216 12.0728 15.5835 12 15.5833H3.87583ZM7.66667 5.5C7.42041 5.27053 7.03666 5.27731 6.79865 5.51532C6.56064 5.75333 6.55387 6.13708 6.78333 6.38333L7.63833 7.23333C7.79518 7.39588 8.02752 7.46115 8.24607 7.40405C8.46461 7.34696 8.63535 7.17639 8.69265 6.9579C8.74995 6.73941 8.6849 6.507 8.5225 6.35L7.66667 5.5ZM11.7283 6.35L12.5833 5.5C12.8312 5.28752 13.2009 5.30163 13.4318 5.53237C13.6628 5.76312 13.6772 6.13276 13.465 6.38083L12.6125 7.23333C12.3674 7.47031 11.9776 7.46711 11.7364 7.22614C11.4952 6.98517 11.4916 6.59535 11.7283 6.35ZM17.6508 12.2258C17.4415 11.8306 17.031 11.5835 16.5837 11.5835C16.1365 11.5835 15.726 11.8306 15.5167 12.2258L11.3042 20.2542C11.1096 20.6249 11.1245 21.0706 11.3433 21.4275C11.564 21.7829 11.9525 21.9994 12.3708 22H20.7967C21.2148 21.9992 21.603 21.7832 21.8242 21.4283C22.043 21.0711 22.0579 20.6252 21.8633 20.2542L17.6508 12.2258ZM16.5833 14.7083C16.9285 14.7083 17.2083 14.9882 17.2083 15.3333V17.8333C17.2083 18.1785 16.9285 18.4583 16.5833 18.4583C16.2382 18.4583 15.9583 18.1785 15.9583 17.8333V15.3333C15.9583 14.9882 16.2382 14.7083 16.5833 14.7083ZM16.5833 18.875C16.1231 18.875 15.75 19.2481 15.75 19.7083C15.75 20.1686 16.1231 20.5417 16.5833 20.5417C17.0436 20.5417 17.4167 20.1686 17.4167 19.7083C17.4167 19.2481 17.0436 18.875 16.5833 18.875ZM10.1254 8.05783C10.2698 8.05783 10.4047 8.12992 10.485 8.25L13.4017 13.25C13.4768 13.3788 13.4774 13.5379 13.4033 13.6672C13.3292 13.7965 13.1916 13.8764 13.0425 13.8767H7.20917C7.05994 13.8767 6.92208 13.7969 6.84775 13.6676C6.77342 13.5382 6.77396 13.3789 6.84917 13.25L9.76583 8.25C9.84609 8.12992 9.98099 8.05783 10.1254 8.05783Z" fill="#5A5A5A"/>
</g>
</svg>
