<?xml version="1.0" encoding="UTF-8"?>
<svg width="24px" height="24px" viewBox="0 0 24 24" version="1.1" xmlns="http://www.w3.org/2000/svg" xmlns:xlink="http://www.w3.org/1999/xlink">
    <title>6. Technology/3d_print_ball</title>
    <g id="6.-Technology/3d_print_ball" stroke="none" stroke-width="1" fill="none" fill-rule="evenodd">
        <path d="M20.3333333,2 C21.2538079,2 22,2.74619208 22,3.66666667 L22,3.66666667 L22,20.3333333 C22,21.2538079 21.2538079,22 20.3333333,22 L20.3333333,22 L3.66666667,22 C2.74619208,22 2,21.2538079 2,20.3333333 L2,20.3333333 L2,3.66666667 C2,2.74619208 2.74619208,2 3.66666667,2 L3.66666667,2 Z M13.0416667,19.7083333 C12.6964887,19.7083333 12.4166667,19.9881554 12.4166667,20.3333333 C12.4166667,20.6785113 12.6964887,20.9583333 13.0416667,20.9583333 C13.3868446,20.9583333 13.6666667,20.6785113 13.6666667,20.3333333 C13.6666667,19.9881554 13.3868446,19.7083333 13.0416667,19.7083333 Z M15.9583333,19.7083333 C15.6131554,19.7083333 15.3333333,19.9881554 15.3333333,20.3333333 C15.3333333,20.6785113 15.6131554,20.9583333 15.9583333,20.9583333 C16.3035113,20.9583333 16.5833333,20.6785113 16.5833333,20.3333333 C16.5833333,19.9881554 16.3035113,19.7083333 15.9583333,19.7083333 Z M18.875,19.7083333 C18.529822,19.7083333 18.25,19.9881554 18.25,20.3333333 C18.25,20.6785113 18.529822,20.9583333 18.875,20.9583333 C19.220178,20.9583333 19.5,20.6785113 19.5,20.3333333 C19.5,19.9881554 19.220178,19.7083333 18.875,19.7083333 Z M10.3333333,3.66666667 L4.08333333,3.66666667 C3.85321469,3.66666667 3.66666667,3.85321469 3.66666667,4.08333333 L3.66666667,4.08333333 L3.66666667,18.25 C3.66666667,18.4801186 3.85321469,18.6666667 4.08333333,18.6666667 L4.08333333,18.6666667 L19.9166667,18.6666667 C20.1467853,18.6666667 20.3333333,18.4801186 20.3333333,18.25 L20.3333333,18.25 L20.3333333,4.08333333 C20.3333333,3.85321469 20.1467853,3.66666667 19.9166667,3.66666667 L19.9166667,3.66666667 L13.6666667,3.66666667 C13.436548,3.66666667 13.25,3.85321469 13.25,4.08333333 L13.25,4.08333333 L13.25,5.19416667 C13.25,5.28432092 13.2207592,5.37204326 13.1666667,5.44416667 L13.1666667,5.44416667 L12.3333333,6.55583333 C12.254644,6.66075243 12.1311489,6.7225 12,6.7225 C11.8688511,6.7225 11.745356,6.66075243 11.6666667,6.55583333 L11.6666667,6.55583333 L10.8333333,5.44416667 C10.7792408,5.37204326 10.75,5.28432092 10.75,5.19416667 L10.75,5.19416667 L10.75,4.08333333 C10.75,3.85321469 10.563452,3.66666667 10.3333333,3.66666667 L10.3333333,3.66666667 Z M12,9.5 C14.3011865,9.5 16.1666667,11.3654802 16.1666667,13.6666667 C16.1666667,15.9678531 14.3011865,17.8333333 12,17.8333333 C9.69881354,17.8333333 7.83333333,15.9678531 7.83333333,13.6666667 C7.83608843,11.3666224 9.69995571,9.5027551 12,9.5 Z M11.9533333,11.12 C10.4965232,11.1218365 9.31600318,12.3023566 9.31416667,13.7591667 C9.31416667,13.9892853 9.50071469,14.1758333 9.73083333,14.1758333 C9.96095198,14.1758333 10.1475,13.9892853 10.1475,13.7591667 C10.1484189,12.7622133 10.95638,11.9542522 11.9533333,11.9533333 C12.183452,11.9533333 12.37,11.7667853 12.37,11.5366667 C12.37,11.306548 12.183452,11.12 11.9533333,11.12 Z M8.25,8.04166667 C8.59517797,8.04166667 8.875,8.3214887 8.875,8.66666667 C8.875,9.01184464 8.59517797,9.29166667 8.25,9.29166667 L8.25,9.29166667 L7,9.29166667 C6.65482203,9.29166667 6.375,9.01184464 6.375,8.66666667 C6.375,8.3214887 6.65482203,8.04166667 7,8.04166667 L7,8.04166667 Z M17,8.04166667 C17.345178,8.04166667 17.625,8.3214887 17.625,8.66666667 C17.625,9.01184464 17.345178,9.29166667 17,9.29166667 L17,9.29166667 L15.75,9.29166667 C15.404822,9.29166667 15.125,9.01184464 15.125,8.66666667 C15.125,8.3214887 15.404822,8.04166667 15.75,8.04166667 L15.75,8.04166667 Z M8.03198183,5.53198183 C8.2699919,5.29397177 8.65374187,5.28720095 8.9,5.51666667 L8.9,5.51666667 L9.94166667,6.55833333 C10.1711324,6.80459146 10.1643616,7.18834143 9.9263515,7.4263515 C9.68834143,7.66436156 9.30459146,7.67113238 9.05833333,7.44166667 L9.05833333,7.44166667 L8.01666667,6.4 C7.78720095,6.15374187 7.79397177,5.7699919 8.03198183,5.53198183 Z M15.1,5.51666667 C15.3462581,5.28720095 15.7300081,5.29397177 15.9680182,5.53198183 C16.2060282,5.7699919 16.2127991,6.15374187 15.9833333,6.4 L15.9833333,6.4 L14.9416667,7.44166667 C14.6954085,7.67113238 14.3116586,7.66436156 14.0736485,7.4263515 C13.8356384,7.18834143 13.8288676,6.80459146 14.0583333,6.55833333 L14.0583333,6.55833333 Z" id="ðŸ–-Color" fill="#5A5A5A"></path>
        <rect id="_Transparent_Rectangle_" x="0" y="0" width="24" height="24"></rect>
    </g>
</svg>