<?xml version="1.0" encoding="UTF-8"?>
<svg width="24px" height="24px" viewBox="0 0 24 24" version="1.1" xmlns="http://www.w3.org/2000/svg" xmlns:xlink="http://www.w3.org/1999/xlink">
    <title>6. Technology/3d_print_warning</title>
    <g id="6.-Technology/3d_print_warning" stroke="none" stroke-width="1" fill="none" fill-rule="evenodd">
        <path d="M16.5840446,11.5834791 C17.0312449,11.5834791 17.4418251,11.8306369 17.651128,12.2258336 L17.651128,12.2258336 L21.863628,20.2541669 C22.0581471,20.6251683 22.0432715,21.0711196 21.8244613,21.4283336 C21.6033398,21.7832016 21.2150826,21.9992149 20.7969613,22.0000002 L20.7969613,22.0000002 L12.371128,22.0000002 C11.9527591,21.9993543 11.5643216,21.7829257 11.343628,21.4275002 C11.1248014,21.0705937 11.1099229,20.6248719 11.3044613,20.2541669 L11.3044613,20.2541669 L15.5169613,12.2258336 C15.7262642,11.8306369 16.1368443,11.5834791 16.5840446,11.5834791 Z M16.583628,18.8750002 C16.1233907,18.8750002 15.7502946,19.2480963 15.7502946,19.7083336 C15.7502946,20.1685709 16.1233907,20.5416669 16.583628,20.5416669 C17.0438653,20.5416669 17.4169613,20.1685709 17.4169613,19.7083336 C17.4169613,19.2480963 17.0438653,18.8750002 16.583628,18.8750002 Z M16.583628,14.7083336 C16.23845,14.7083336 15.958628,14.9881556 15.958628,15.3333336 L15.958628,15.3333336 L15.958628,17.8333336 C15.958628,18.1785115 16.23845,18.4583336 16.583628,18.4583336 C16.9288059,18.4583336 17.208628,18.1785115 17.208628,17.8333336 L17.208628,17.8333336 L17.208628,15.3333336 C17.208628,14.9881556 16.9288059,14.7083336 16.583628,14.7083336 Z M16.7927946,2 C17.5989406,1.9995392 18.2530818,2.65218865 18.2544613,3.45833358 L18.2544613,3.45833358 L18.2544613,10.5575002 C18.2538666,10.6337696 18.2118041,10.7036691 18.1446937,10.7399122 C18.0775832,10.7761553 17.9960651,10.7729957 17.9319613,10.7316669 C17.5866376,10.5068245 17.1903195,10.372426 16.7794613,10.3408336 C16.6712764,10.332151 16.5878809,10.2418663 16.5877946,10.1333336 L16.5877946,10.1333336 L16.5877946,3.87500024 C16.5873379,3.76013064 16.4943309,3.66712365 16.3794613,3.66666691 L16.3794613,3.66666691 L11.3602946,3.66666691 C11.2452353,3.66666691 11.1519613,3.75994092 11.1519613,3.87500024 L11.1519613,3.87500024 L11.1519613,4.55666691 C11.1520224,4.6303476 11.1280293,4.70203422 11.083628,4.76083358 L11.083628,4.76083358 L10.398628,5.66666691 C10.334075,5.7523745 10.2330093,5.80277919 10.1257113,5.80277919 C10.0184132,5.80277919 9.91734756,5.7523745 9.85279463,5.66666691 L9.85279463,5.66666691 L9.17112796,4.76083358 C9.12672658,4.70203422 9.10273351,4.6303476 9.10279463,4.55666691 L9.10279463,4.55666691 L9.10279463,3.87500024 C9.10279463,3.75994092 9.00952062,3.66666691 8.89446129,3.66666691 L8.89446129,3.66666691 L3.87612796,3.66666691 C3.76106864,3.66666691 3.66779463,3.75994092 3.66779463,3.87500024 L3.66779463,3.87500024 L3.66779463,15.3750002 C3.667572,15.4303216 3.68944985,15.4834415 3.72856829,15.5225599 C3.76768673,15.5616784 3.82080658,15.5835562 3.87612796,15.5833336 L3.87612796,15.5833336 L12.0002946,15.5833336 C12.0731296,15.5834672 12.1406066,15.6216286 12.1782552,15.6839788 C12.2159037,15.7463289 12.2182569,15.8238137 12.1844613,15.8883336 L12.1844613,15.8883336 L11.0019613,18.1383336 C10.9655073,18.2067305 10.8944654,18.2496117 10.8169613,18.2500002 L10.8169613,18.2500002 L3.45862796,18.2500002 C2.65359345,18.2490818 2.00121309,17.5967014 2.00029463,16.7916669 L2.00029463,16.7916669 L2.00029463,3.45833358 C2.00121386,2.65297404 2.65410136,2.0004594 3.45946129,2 L3.45946129,2 Z M10.1257113,8.05782518 C10.2701414,8.05782518 10.4050399,8.12992012 10.4852946,8.25000024 L10.4852946,8.25000024 L13.4019613,13.2500002 C13.477097,13.3787596 13.4777168,13.5378503 13.4035866,13.6671912 C13.3294564,13.796532 13.1918727,13.8764131 13.0427946,13.8766669 L13.0427946,13.8766669 L7.20946129,13.8766669 C7.06023427,13.8766669 6.92237746,13.7969477 6.84804383,13.6675521 C6.7737102,13.5381565 6.77425087,13.3788882 6.84946129,13.2500002 L6.84946129,13.2500002 L9.76612796,8.25000024 C9.84638265,8.12992012 9.9812812,8.05782518 10.1257113,8.05782518 Z M6.79894313,5.51531541 C7.03695319,5.27730535 7.42070316,5.27053453 7.66696129,5.50000024 L7.66696129,5.50000024 L8.52279463,6.35000024 C8.6851918,6.50699875 8.75024094,6.73940576 8.69294055,6.95789612 C8.63564015,7.17638648 8.46490742,7.3469583 8.24636313,7.40405264 C8.02781883,7.46114698 7.79547326,7.39587872 7.63862796,7.23333358 L7.63862796,7.23333358 L6.78362796,6.38333358 C6.55416224,6.13707545 6.56093306,5.75332548 6.79894313,5.51531541 Z M12.583628,5.50000024 C12.8315027,5.28752194 13.201156,5.30162474 13.4321211,5.53237147 C13.6630861,5.76311819 13.6775384,6.13275807 13.4652946,6.38083358 L13.4652946,6.38083358 L12.6127946,7.23333358 C12.3676699,7.47030945 11.97785,7.46710707 11.7366517,7.22613604 C11.4954533,6.98516501 11.4918833,6.5953483 11.728628,6.35000024 L11.728628,6.35000024 Z" id="ðŸ–-Color" fill="#5A5A5A"></path>
        <rect id="_Transparent_Rectangle_" x="0" y="0" width="24" height="24"></rect>
    </g>
</svg>