<?xml version="1.0" encoding="UTF-8"?>
<svg width="24px" height="24px" viewBox="0 0 24 24" version="1.1" xmlns="http://www.w3.org/2000/svg" xmlns:xlink="http://www.w3.org/1999/xlink">
    <title>6. Technology/artificial_arm</title>
    <g id="6.-Technology/artificial_arm" stroke="none" stroke-width="1" fill="none" fill-rule="evenodd">
        <path d="M12.9474773,14.1477001 C13.0051203,14.1454791 13.0610499,14.1675486 13.101644,14.2085335 L13.101644,14.2085335 L14.1608107,15.2685335 C14.3142494,15.4218487 14.3243984,15.6672381 14.184144,15.8327001 L14.184144,15.8327001 L9.60081068,21.2493668 C9.52157995,21.3429888 9.40512555,21.3969481 9.28247735,21.3968669 L9.28247735,21.3968669 L5.32414401,21.3968669 C5.20908469,21.3968669 5.11580154,21.3035928 5.11580154,21.1885335 L5.11580154,21.1885335 L5.11580154,19.7952001 C5.11463825,19.5137935 5.22629521,19.2436557 5.42581068,19.0452001 L5.42581068,19.0452001 L7.96747735,16.5002001 C8.19795459,16.2709489 8.57033344,16.2709489 8.80081068,16.5002001 C9.07750424,16.7834101 9.46195473,16.9350073 9.85747735,16.9168668 C10.2517341,16.9023267 10.6222945,16.7248922 10.8808107,16.4268668 L10.8808107,16.4268668 L12.7974773,14.2193668 C12.8349816,14.175196 12.8895498,14.1491246 12.9474773,14.1477001 Z M9.42331068,11.0827001 C9.58829429,10.9367095 9.83841308,10.9443774 9.99414401,11.1002001 L9.99414401,11.1002001 L12.219144,13.3202001 C12.2962464,13.3977454 12.3006047,13.5215935 12.229144,13.6043668 L12.229144,13.6043668 L10.256644,15.8802001 C10.1496013,16.0033289 9.99635075,16.0766358 9.83331068,16.0827001 C9.67047156,16.0854943 9.51273788,16.0258597 9.39247735,15.9160335 C8.83639308,15.3619239 7.93689494,15.3619239 7.38081068,15.9160335 L7.38081068,15.9160335 L4.83331068,18.4560335 C4.47890535,18.8107188 4.28064028,19.292134 4.28247735,19.7935335 L4.28247735,19.7935335 L4.28247735,21.1868668 C4.28247735,21.3019261 4.18920334,21.3952001 4.07414401,21.3952001 L4.07414401,21.3952001 L2.62247735,21.3952001 C2.3923587,21.3952001 2.20581063,21.2086521 2.20581063,20.9785335 L2.20581063,20.9785335 L2.20581063,17.6552001 C2.20581063,17.5356534 2.25704327,17.4218401 2.34664401,17.3427001 L2.34664401,17.3427001 Z M12.7858107,2.96936681 C13.2741225,2.48105507 14.0658322,2.48105508 14.554144,2.96936683 C15.0424557,3.45767859 15.0424558,4.24938837 14.554144,4.73770014 L14.554144,4.73770014 L14.1074773,5.21103347 C13.8633215,5.45518936 13.8633215,5.85104425 14.1074774,6.09520012 C14.3516332,6.339356 14.7474881,6.339356 14.991644,6.09520014 L14.991644,6.09520014 L16.759144,4.32686681 C17.1663424,3.92085956 17.825279,3.92085956 18.2324773,4.32686681 L18.2324773,4.32686681 L21.4908107,7.58520014 C21.6860847,7.78049893 21.795282,8.04569246 21.794167,8.32186681 C21.7959876,8.59915844 21.6867506,8.86564857 21.4908107,9.06186681 L21.4908107,9.06186681 L16.959144,13.5618668 C16.3052592,14.2114685 15.249066,14.209605 14.5974773,13.5577001 C13.526644,12.4860335 12.4399773,11.4752001 11.914144,10.9560335 C10.9670163,10.0203817 10.4321532,8.74563474 10.4280628,7.41429009 C10.4240191,6.08294545 10.9510839,4.80495443 11.8924773,3.86353347 L11.8924773,3.86353347 Z M9.93331068,12.8268668 C9.75462317,12.6479568 9.48573853,12.5943419 9.25209655,12.6910344 C9.01845457,12.7877269 8.86609404,13.0156738 8.86609404,13.2685335 C8.86609404,13.5213932 9.01845457,13.74934 9.25209655,13.8460326 C9.48573853,13.9427251 9.75462317,13.8891102 9.93331068,13.7102001 L9.93331068,13.7102001 C10.0512745,13.5948308 10.1176244,13.4355381 10.1176244,13.2693668 C10.1176244,13.1031956 10.0512745,12.9439028 9.93331068,12.8268668 Z" id="ðŸ–-Color" fill="#5A5A5A"></path>
        <rect id="_Transparent_Rectangle_" x="0" y="0" width="24" height="24"></rect>
    </g>
</svg>