<svg width="24" height="24" viewBox="0 0 24 24" fill="none" xmlns="http://www.w3.org/2000/svg">
<g id="beacon_bluetooth">
<path id="Shape" fill-rule="evenodd" clip-rule="evenodd" d="M21.9367 5.5675L21.6925 4.97833C21.6505 4.87733 21.5891 4.78559 21.5117 4.70833L19.5 2.69666C19.4227 2.61925 19.331 2.5578 19.23 2.51583L18.6408 2.27166C18.5396 2.22978 18.4312 2.20826 18.3217 2.20833H5.67833C5.56882 2.20826 5.46036 2.22978 5.35917 2.27166L4.77 2.51583C4.66901 2.5578 4.57726 2.61925 4.5 2.69666L2.48833 4.70833C2.41092 4.78559 2.34948 4.87733 2.3075 4.97833L2.06333 5.5675C2.02166 5.66875 2.00015 5.77717 2 5.88666V18.1133C2.00015 18.2228 2.02166 18.3312 2.06333 18.4325L2.3075 19.0217C2.34948 19.1227 2.41092 19.2144 2.48833 19.2917L4.5 21.3033C4.57726 21.3807 4.66901 21.4422 4.77 21.4842L5.35917 21.7283C5.46036 21.7702 5.56882 21.7917 5.67833 21.7917H18.3217C18.4312 21.7917 18.5396 21.7702 18.6408 21.7283L19.23 21.4842C19.331 21.4422 19.4227 21.3807 19.5 21.3033L21.5117 19.2917C21.5891 19.2144 21.6505 19.1227 21.6925 19.0217L21.9367 18.4325C21.9783 18.3312 21.9999 18.2228 22 18.1133V5.88666C21.9999 5.77717 21.9783 5.66875 21.9367 5.5675ZM20.3333 17.9475L20.2158 18.2308L18.4392 20.0075L18.1558 20.125H5.84417L5.56083 20.0075L3.78417 18.2308L3.66667 17.9475V6.0525L3.78417 5.76916L5.56083 3.9925L5.84417 3.875H18.1558L18.4392 3.9925L20.2158 5.76916L20.3333 6.0525V17.9475ZM17.4167 5.95833H6.58333C6.1231 5.95833 5.75 6.33142 5.75 6.79166V16.7917C5.75 17.7121 6.49619 18.4583 7.41667 18.4583H16.5833C17.5038 18.4583 18.25 17.7121 18.25 16.7917V6.79166C18.25 6.33142 17.8769 5.95833 17.4167 5.95833ZM14.1083 14.3125C14.2341 14.4381 14.3005 14.6113 14.2908 14.7889C14.2811 14.9664 14.1962 15.1313 14.0575 15.2425L11.5108 17.2792C11.3233 17.4294 11.0662 17.4589 10.8496 17.3549C10.6329 17.2509 10.4951 17.032 10.495 16.7917V14.22C10.4948 14.136 10.4442 14.0603 10.3666 14.0281C10.289 13.9958 10.1997 14.0133 10.14 14.0725L9.525 14.6875C9.27965 14.9242 8.88984 14.9207 8.64886 14.6795C8.40789 14.4383 8.40469 14.0485 8.64167 13.8033L10.0892 12.3558C10.1284 12.3167 10.1504 12.2637 10.1504 12.2083C10.1504 12.153 10.1284 12.0999 10.0892 12.0608L8.64167 10.6133C8.40469 10.3682 8.40789 9.97838 8.64886 9.73719C8.88984 9.49599 9.27965 9.49242 9.525 9.72916L10.14 10.3442C10.1997 10.4033 10.289 10.4208 10.3666 10.3886C10.4442 10.3564 10.4948 10.2807 10.495 10.1967V7.625C10.4948 7.38454 10.6325 7.16527 10.8492 7.06109C11.0659 6.95691 11.3232 6.9863 11.5108 7.13666L14.0575 9.17416C14.1962 9.28532 14.2811 9.45029 14.2908 9.6278C14.3005 9.80531 14.2341 9.97855 14.1083 10.1042L12.1517 12.0608C12.1125 12.0999 12.0905 12.153 12.0905 12.2083C12.0905 12.2637 12.1125 12.3167 12.1517 12.3558L14.1083 14.3125ZM15.3333 8.04166C15.3333 8.5019 15.7064 8.875 16.1667 8.875C16.6269 8.875 17 8.5019 17 8.04166C17 7.58142 16.6269 7.20833 16.1667 7.20833C15.7064 7.20833 15.3333 7.58142 15.3333 8.04166ZM11.8739 10.3888C11.7961 10.3567 11.7452 10.2809 11.745 10.1967V9.3625C11.7435 9.28175 11.7888 9.2074 11.8612 9.17171C11.9337 9.13602 12.0202 9.14542 12.0833 9.19583L12.5492 9.56833C12.5954 9.60542 12.6236 9.66044 12.6268 9.7196C12.63 9.77877 12.6078 9.83649 12.5658 9.87833L12.1008 10.3433C12.0414 10.403 11.9518 10.4209 11.8739 10.3888ZM11.8612 15.2483C11.7888 15.2126 11.7435 15.1382 11.745 15.0575V14.2233C11.7448 14.1389 11.7956 14.0628 11.8736 14.0305C11.9515 13.9982 12.0412 14.0161 12.1008 14.0758L12.5658 14.5417C12.6078 14.5835 12.63 14.6412 12.6268 14.7004C12.6236 14.7596 12.5954 14.8146 12.5492 14.8517L12.0833 15.2242C12.0202 15.2746 11.9337 15.284 11.8612 15.2483Z" fill="#5A5A5A"/>
</g>
</svg>
