<?xml version="1.0" encoding="UTF-8"?>
<svg width="24px" height="24px" viewBox="0 0 24 24" version="1.1" xmlns="http://www.w3.org/2000/svg" xmlns:xlink="http://www.w3.org/1999/xlink">
    <title>6. Technology/beacon_bluetooth</title>
    <g id="6.-Technology/beacon_bluetooth" stroke="none" stroke-width="1" fill="none" fill-rule="evenodd">
        <path d="M18.3216667,2.20833318 C18.4311836,2.20833318 18.5396397,2.22978815 18.6408333,2.27166667 L18.6408333,2.27166667 L19.23,2.51583333 C19.3309947,2.55780907 19.4227387,2.61925492 19.5,2.69666667 L19.5,2.69666667 L21.5116667,4.70833318 C21.5890784,4.78559462 21.6505243,4.87733867 21.6925,4.97833333 L21.6925,4.97833333 L21.9366667,5.5675 C21.9783376,5.66875642 22,5.77717096 22,5.88666667 L22,5.88666667 L22,18.1133333 C22,18.222829 21.9783376,18.3312436 21.9366667,18.4325 L21.9366667,18.4325 L21.6925,19.0216667 C21.6505243,19.1226613 21.5890784,19.2144054 21.5116667,19.2916667 L21.5116667,19.2916667 L19.5,21.3033333 C19.4227387,21.3807451 19.3309947,21.4421909 19.23,21.4841667 L19.23,21.4841667 L18.6408333,21.7283333 C18.5396397,21.7702118 18.4311836,21.7916668 18.3216667,21.7916668 L18.3216667,21.7916668 L5.67833333,21.7916668 C5.56881638,21.7916668 5.46036033,21.7702118 5.35916667,21.7283333 L5.35916667,21.7283333 L4.77,21.4841667 C4.66900533,21.4421909 4.57726129,21.3807451 4.5,21.3033333 L4.5,21.3033333 L2.48833333,19.2916667 C2.41092159,19.2144054 2.34947573,19.1226613 2.3075,19.0216667 L2.3075,19.0216667 L2.06333333,18.4325 C2.02166236,18.3312436 2,18.222829 2,18.1133333 L2,18.1133333 L2,5.88666667 C2,5.77717096 2.02166236,5.66875642 2.06333333,5.5675 L2.06333333,5.5675 L2.3075,4.97833333 C2.34947573,4.87733867 2.41092159,4.78559462 2.48833333,4.70833318 L2.48833333,4.70833318 L4.5,2.69666667 C4.57726129,2.61925492 4.66900533,2.55780907 4.77,2.51583333 L4.77,2.51583333 L5.35916667,2.27166667 C5.46036033,2.22978815 5.56881638,2.20833318 5.67833333,2.20833318 L5.67833333,2.20833318 Z M18.1558333,3.875 L5.84416667,3.875 L5.56083333,3.9925 L3.78416667,5.76916667 L3.66666667,6.0525 L3.66666667,17.9475 L3.78416667,18.2308333 L5.56083333,20.0075 L5.84416667,20.125 L18.1558333,20.125 L18.4391667,20.0075 L20.2158333,18.2308333 L20.3333333,17.9475 L20.3333333,6.0525 L20.2158333,5.76916667 L18.4391667,3.9925 L18.1558333,3.875 Z M17.4166667,5.95833333 C17.876904,5.95833333 18.25,6.33142938 18.25,6.79166667 L18.25,6.79166667 L18.25,16.7916667 C18.25,17.7121412 17.5038079,18.4583333 16.5833333,18.4583333 L16.5833333,18.4583333 L7.41666667,18.4583333 C6.49619208,18.4583333 5.75,17.7121412 5.75,16.7916667 L5.75,16.7916667 L5.75,6.79166667 C5.75,6.33142938 6.12309604,5.95833333 6.58333333,5.95833333 L6.58333333,5.95833333 Z M11.5108333,7.13666667 C11.323192,6.98630161 11.0659276,6.95691708 10.8492123,7.06109685 C10.6324971,7.16527662 10.4947653,7.38454444 10.495,7.625 L10.495,7.625 L10.495,10.1966667 C10.4948154,10.2806801 10.4441862,10.3563613 10.3666029,10.3885966 C10.2890196,10.4208319 10.1996663,10.4033124 10.14,10.3441667 L10.14,10.3441667 L9.525,9.72916667 C9.27965195,9.49242204 8.88983523,9.49599199 8.6488642,9.73719036 C8.40789317,9.97838872 8.40469079,10.3682086 8.64166667,10.6133333 L8.64166667,10.6133333 L10.0891667,12.0608333 C10.1283507,12.0999184 10.1503724,12.1529886 10.1503724,12.2083333 C10.1503724,12.263678 10.1283507,12.3167482 10.0891667,12.3558333 L10.0891667,12.3558333 L8.64166667,13.8033333 C8.40469079,14.048458 8.40789317,14.4382779 8.6488642,14.6794763 C8.88983523,14.9206747 9.27965195,14.9242446 9.525,14.6875 L9.525,14.6875 L10.14,14.0725 C10.1996663,14.0133542 10.2890196,13.9958347 10.3666029,14.0280701 C10.4441862,14.0603054 10.4948154,14.1359866 10.495,14.22 L10.495,14.22 L10.495,16.7916667 C10.495086,17.0319718 10.6329392,17.2509465 10.8495881,17.3549167 C11.0662371,17.4588868 11.3233094,17.4294375 11.5108333,17.2791667 L11.5108333,17.2791667 L14.0575,15.2425 C14.1962328,15.1313431 14.2810659,14.9663674 14.2907683,14.7888611 C14.3004707,14.6113547 14.2341243,14.4381156 14.1083333,14.3125 L14.1083333,14.3125 L12.1516667,12.3558333 C12.1124826,12.3167482 12.0904609,12.263678 12.0904609,12.2083333 C12.0904609,12.1529886 12.1124826,12.0999184 12.1516667,12.0608333 L12.1516667,12.0608333 L14.1083333,10.1041667 C14.2341243,9.97855106 14.3004707,9.80531194 14.2907683,9.6278056 C14.2810659,9.45029926 14.1962328,9.28532354 14.0575,9.17416667 L14.0575,9.17416667 Z M11.873557,14.0305065 C11.9515044,13.9981958 12.0412441,14.016093 12.1008333,14.0758333 L12.1008333,14.0758333 L12.5658333,14.5416667 C12.607796,14.5835006 12.6299599,14.6412236 12.6267789,14.7003913 C12.6235978,14.7595591 12.5953727,14.814573 12.5491667,14.8516667 L12.5491667,14.8516667 L12.0833333,15.2241667 C12.0202339,15.2745774 11.9336839,15.2839769 11.8612337,15.2482872 C11.7887836,15.2125975 11.7434885,15.1382496 11.745,15.0575 L11.745,15.0575 L11.745,14.2233333 C11.744849,14.1389546 11.7956095,14.0628173 11.873557,14.0305065 Z M11.8612337,9.17171282 C11.9336839,9.1360231 12.0202339,9.14542263 12.0833333,9.19583333 L12.0833333,9.19583333 L12.5491667,9.56833333 C12.5953727,9.60542697 12.6235978,9.66044094 12.6267789,9.71960866 C12.6299599,9.77877639 12.607796,9.83649944 12.5658333,9.87833333 L12.5658333,9.87833333 L12.1008333,10.3433333 C12.0413512,10.4029664 11.9518136,10.4209165 11.8739419,10.3888195 C11.7960702,10.3567225 11.7451861,10.2808937 11.745,10.1966667 L11.745,10.1966667 L11.745,9.3625 C11.7434885,9.28175043 11.7887836,9.20740255 11.8612337,9.17171282 Z M16.1666667,7.20833333 C15.7064294,7.20833333 15.3333333,7.58142938 15.3333333,8.04166667 C15.3333333,8.50190396 15.7064294,8.875 16.1666667,8.875 C16.626904,8.875 17,8.50190396 17,8.04166667 C17,7.58142938 16.626904,7.20833333 16.1666667,7.20833333 Z" id="ðŸ–-Color" fill="#5A5A5A"></path>
        <rect id="_Transparent_Rectangle_" x="0" y="0" width="24" height="24"></rect>
    </g>
</svg>