<?xml version="1.0" encoding="UTF-8"?>
<svg width="24px" height="24px" viewBox="0 0 24 24" version="1.1" xmlns="http://www.w3.org/2000/svg" xmlns:xlink="http://www.w3.org/1999/xlink">
    <title>6. Technology/chat_translate</title>
    <g id="6.-Technology/chat_translate" stroke="none" stroke-width="1" fill="none" fill-rule="evenodd">
        <path d="M20.75,11.1666667 C21.4403559,11.1666667 22,11.7263107 22,12.4166667 L22,12.4166667 L22,20.75 C22,21.4403559 21.4403559,22 20.75,22 L20.75,22 L12,22 C11.3096441,22 10.75,21.4403559 10.75,20.75 L10.75,20.75 L10.75,14.2916667 C10.75,14.1766073 10.843274,14.0833333 10.9583333,14.0833333 L10.9583333,14.0833333 L13.4583333,14.0833333 C13.8035113,14.0833333 14.0833333,13.8035113 14.0833333,13.4583333 L14.0833333,13.4583333 L14.0833333,11.375 C14.0833333,11.2599407 14.1766073,11.1666667 14.2916667,11.1666667 L14.2916667,11.1666667 Z M16.5833333,13.875 C16.2381554,13.875 15.9583333,14.154822 15.9583333,14.5 L15.9583333,14.5 L15.9583333,14.9166667 C15.9583333,15.031726 15.8650593,15.125 15.75,15.125 L15.75,15.125 L14.0833333,15.125 C13.7381554,15.125 13.4583333,15.404822 13.4583333,15.75 C13.4583333,16.095178 13.7381554,16.375 14.0833333,16.375 L14.0833333,16.375 L14.6066667,16.375 C14.7031577,16.374763 14.7870786,16.4410708 14.8091667,16.535 C14.948645,17.1060142 15.1964645,17.6449368 15.5391667,18.1225 C15.5737502,18.1706624 15.5864549,18.2311612 15.5741667,18.2891667 C15.5616674,18.3463679 15.5256745,18.395669 15.475,18.425 C15.1155013,18.6310295 14.7313253,18.7906361 14.3316667,18.9 C14.1159926,18.9598195 13.9487691,19.1303995 13.893247,19.3472197 C13.8377249,19.5640399 13.9023808,19.7939982 14.0627592,19.9501151 C14.2231375,20.106232 14.4547533,20.164673 14.67,20.1033333 C15.3108209,19.9288599 15.9174577,19.6470964 16.4641667,19.27 C16.5357915,19.219185 16.6317085,19.219185 16.7033333,19.27 C17.2500423,19.6470964 17.8566791,19.9288599 18.4975,20.1033333 C18.7127467,20.164673 18.9443625,20.106232 19.1047408,19.9501151 C19.2651192,19.7939982 19.3297751,19.5640399 19.274253,19.3472197 C19.2187309,19.1303995 19.0515074,18.9598195 18.8358333,18.9 C18.4361747,18.7906361 18.0519987,18.6310295 17.6925,18.425 C17.6418557,18.3958122 17.6060798,18.346393 17.5941667,18.2891667 C17.5812096,18.2312813 17.5936456,18.1706182 17.6283333,18.1225 C17.9710355,17.6449368 18.218855,17.1060142 18.3583333,16.535 C18.3804214,16.4410708 18.4643423,16.374763 18.5608333,16.375 L18.5608333,16.375 L19.0833333,16.375 C19.4285113,16.375 19.7083333,16.095178 19.7083333,15.75 C19.7083333,15.404822 19.4285113,15.125 19.0833333,15.125 L19.0833333,15.125 L17.4166667,15.125 C17.3016073,15.125 17.2083333,15.031726 17.2083333,14.9166667 L17.2083333,14.9166667 L17.2083333,14.5 C17.2083333,14.154822 16.9285113,13.875 16.5833333,13.875 Z M16.8208333,16.3749998 C16.8894101,16.3748961 16.9536459,16.4085472 16.9926026,16.4649845 C17.0315593,16.5214218 17.0402468,16.5934159 17.0158333,16.6575 C16.9470346,16.8347814 16.8634048,17.0059437 16.7658333,17.1691667 C16.7286302,17.2328491 16.6604198,17.2719979 16.5866667,17.2719979 C16.5129135,17.2719979 16.4447031,17.2328491 16.4075,17.1691667 C16.3096333,17.0061038 16.2259909,16.8349158 16.1575,16.6575 C16.1330866,16.5934159 16.141774,16.5214218 16.1807307,16.4649845 C16.2196874,16.4085472 16.2839232,16.3748961 16.3525,16.3749998 L16.3525,16.3749998 Z M11.5833333,2 C12.2736893,2 12.8333333,2.55964406 12.8333333,3.25 L12.8333333,3.25 L12.8333333,12.625 C12.8333333,12.7400593 12.7400593,12.8333333 12.625,12.8333333 L12.625,12.8333333 L3.25,12.8333333 C2.55964406,12.8333333 2,12.2736893 2,11.5833333 L2,11.5833333 L2,3.25 C2,2.55964406 2.55964406,2 3.25,2 L3.25,2 Z M7.41666667,4.29166667 C6.38113276,4.29166667 5.54166667,5.13113276 5.54166667,6.16666667 L5.54166667,6.16666667 L5.54166667,9.91666667 C5.54166667,10.2618446 5.8214887,10.5416667 6.16666667,10.5416667 C6.51184464,10.5416667 6.79166667,10.2618446 6.79166667,9.91666667 L6.79166667,9.91666667 L6.79166667,8.25 C6.79166667,8.13494068 6.88494068,8.04166667 7,8.04166667 L7,8.04166667 L7.83333333,8.04166667 C7.94839266,8.04166667 8.04166667,8.13494068 8.04166667,8.25 L8.04166667,8.25 L8.04166667,9.91666667 C8.04166667,10.2618446 8.3214887,10.5416667 8.66666667,10.5416667 C9.01184464,10.5416667 9.29166667,10.2618446 9.29166667,9.91666667 L9.29166667,9.91666667 L9.29166667,6.16666667 C9.29166667,5.13113276 8.45220057,4.29166667 7.41666667,4.29166667 Z M7.41666667,5.54166667 C7.76165431,5.54212573 8.0412076,5.82167903 8.04166667,6.16666667 L8.04166667,6.16666667 L8.04166667,6.58333333 C8.04166667,6.69839266 7.94839266,6.79166667 7.83333333,6.79166667 L7.83333333,6.79166667 L7,6.79166667 C6.88494068,6.79166667 6.79166667,6.69839266 6.79166667,6.58333333 L6.79166667,6.58333333 L6.79166667,6.16666667 C6.79212573,5.82167903 7.07167903,5.54212573 7.41666667,5.54166667 Z" id="ðŸ–-Color" fill="#5A5A5A"></path>
        <rect id="_Transparent_Rectangle_" x="0" y="0" width="24" height="24"></rect>
    </g>
</svg>