<svg width="24" height="24" viewBox="0 0 24 24" fill="none" xmlns="http://www.w3.org/2000/svg">
<g id="chat_translate">
<path id="Shape" fill-rule="evenodd" clip-rule="evenodd" d="M12.625 12.8333C12.7401 12.8333 12.8333 12.7401 12.8333 12.625V3.25C12.8333 2.55964 12.2737 2 11.5833 2H3.25C2.55964 2 2 2.55964 2 3.25V11.5833C2 12.2737 2.55964 12.8333 3.25 12.8333H12.625ZM7 8.04167C6.88494 8.04167 6.79167 8.13494 6.79167 8.25V9.91667C6.79167 10.2618 6.51184 10.5417 6.16667 10.5417C5.82149 10.5417 5.54167 10.2618 5.54167 9.91667V6.16667C5.54167 5.13113 6.38113 4.29167 7.41667 4.29167C8.4522 4.29167 9.29167 5.13113 9.29167 6.16667V9.91667C9.29167 10.2618 9.01184 10.5417 8.66667 10.5417C8.32149 10.5417 8.04167 10.2618 8.04167 9.91667V8.25C8.04167 8.13494 7.94839 8.04167 7.83333 8.04167H7ZM6.79167 6.16667C6.79213 5.82168 7.07168 5.54213 7.41667 5.54167C7.76165 5.54213 8.04121 5.82168 8.04167 6.16667V6.58333C8.04167 6.69839 7.94839 6.79167 7.83333 6.79167H7C6.88494 6.79167 6.79167 6.69839 6.79167 6.58333V6.16667ZM16.1807 16.465C16.2197 16.4085 16.2839 16.3749 16.3525 16.375H16.8208C16.8894 16.3749 16.9536 16.4085 16.9926 16.465C17.0316 16.5214 17.0402 16.5934 17.0158 16.6575C16.947 16.8348 16.8634 17.0059 16.7658 17.1692C16.7286 17.2328 16.6604 17.272 16.5867 17.272C16.5129 17.272 16.4447 17.2328 16.4075 17.1692C16.3096 17.0061 16.226 16.8349 16.1575 16.6575C16.1331 16.5934 16.1418 16.5214 16.1807 16.465ZM14.2917 11.1667H20.75C21.4404 11.1667 22 11.7263 22 12.4167V20.75C22 21.4404 21.4404 22 20.75 22H12C11.3096 22 10.75 21.4404 10.75 20.75V14.2917C10.75 14.1766 10.8433 14.0833 10.9583 14.0833H13.4583C13.8035 14.0833 14.0833 13.8035 14.0833 13.4583V11.375C14.0833 11.2599 14.1766 11.1667 14.2917 11.1667ZM15.75 15.125H14.0833C13.7382 15.125 13.4583 15.4048 13.4583 15.75C13.4583 16.0952 13.7382 16.375 14.0833 16.375H14.6067C14.7032 16.3748 14.7871 16.4411 14.8092 16.535C14.9486 17.106 15.1965 17.6449 15.5392 18.1225C15.5737 18.1707 15.5865 18.2312 15.5742 18.2892C15.5617 18.3464 15.5257 18.3957 15.475 18.425C15.1155 18.631 14.7313 18.7906 14.3317 18.9C14.116 18.9598 13.9488 19.1304 13.8932 19.3472C13.8377 19.564 13.9024 19.794 14.0628 19.9501C14.2231 20.1062 14.4548 20.1647 14.67 20.1033C15.3108 19.9289 15.9175 19.6471 16.4642 19.27C16.5358 19.2192 16.6317 19.2192 16.7033 19.27C17.25 19.6471 17.8567 19.9289 18.4975 20.1033C18.7127 20.1647 18.9444 20.1062 19.1047 19.9501C19.2651 19.794 19.3298 19.564 19.2743 19.3472C19.2187 19.1304 19.0515 18.9598 18.8358 18.9C18.4362 18.7906 18.052 18.631 17.6925 18.425C17.6419 18.3958 17.6061 18.3464 17.5942 18.2892C17.5812 18.2313 17.5936 18.1706 17.6283 18.1225C17.971 17.6449 18.2189 17.106 18.3583 16.535C18.3804 16.4411 18.4643 16.3748 18.5608 16.375H19.0833C19.4285 16.375 19.7083 16.0952 19.7083 15.75C19.7083 15.4048 19.4285 15.125 19.0833 15.125H17.4167C17.3016 15.125 17.2083 15.0317 17.2083 14.9167V14.5C17.2083 14.1548 16.9285 13.875 16.5833 13.875C16.2382 13.875 15.9583 14.1548 15.9583 14.5V14.9167C15.9583 15.0317 15.8651 15.125 15.75 15.125Z" fill="#5A5A5A"/>
</g>
</svg>
