<?xml version="1.0" encoding="UTF-8"?>
<svg width="24px" height="24px" viewBox="0 0 24 24" version="1.1" xmlns="http://www.w3.org/2000/svg" xmlns:xlink="http://www.w3.org/1999/xlink">
    <title>6. Technology/controller_360</title>
    <g id="6.-Technology/controller_360" stroke="none" stroke-width="1" fill="none" fill-rule="evenodd">
        <path d="M20.2816853,9.50000476 C20.9826266,9.50000476 21.5508519,10.06823 21.5508519,10.7691714 L21.5508519,10.7691714 L21.5508519,18.2308381 C21.5508519,18.9317795 20.9826266,19.5000048 20.2816853,19.5000048 L20.2816853,19.5000048 L3.65335192,19.5000048 C2.95241052,19.5000048 2.38418525,18.9317795 2.38418525,18.2308381 L2.38418525,18.2308381 L2.38418525,10.7691714 C2.38418525,10.06823 2.95241052,9.50000476 3.65335192,9.50000476 L3.65335192,9.50000476 Z M16.8287686,11.9348983 C15.7894517,11.9348983 14.9408931,12.7659147 14.9191853,13.8050048 L14.9191853,13.8050048 L14.9191853,15.1925048 C14.904734,15.8842424 15.2655048,16.5297095 15.8622747,16.8798174 C16.4590446,17.2299253 17.1984926,17.2299253 17.7952624,16.8798174 C18.3920323,16.5297095 18.7528032,15.8842424 18.7383519,15.1925048 L18.7383519,15.1925048 L18.7383519,13.8050048 C18.7166441,12.7659147 17.8680854,11.9348983 16.8287686,11.9348983 Z M7.45335192,11.8941649 L5.71751859,11.8941649 C5.42987028,11.8941649 5.19668525,12.1273565 5.19668525,12.4150048 C5.19668525,12.7026531 5.42987028,12.9358381 5.71751859,12.9358381 L5.71751859,12.9358381 L7.45335192,12.9358381 C7.74100023,12.9358381 7.97418525,13.1690231 7.97418525,13.4566714 C7.97418525,13.7443197 7.74100023,13.9775048 7.45335192,13.9775048 L7.45335192,13.9775048 L5.71751859,13.9775048 C5.42987028,13.9775048 5.19668525,14.2106898 5.19668525,14.4983381 C5.19668525,14.7859864 5.42987028,15.0191714 5.71751859,15.0191714 L5.71751859,15.0191714 L7.45335192,15.0191714 C7.74100023,15.0208381 7.97418525,15.2540231 7.97418525,15.5416714 C7.97418525,15.8293197 7.74100023,16.0625048 7.45335192,16.0625048 L7.45335192,16.0625048 L5.71751859,16.0625048 C5.42987028,16.0625048 5.19668525,16.2956898 5.19668525,16.5833381 C5.19668525,16.8709864 5.42987028,17.1041715 5.71751859,17.1041715 L5.71751859,17.1041715 L7.45501859,17.1041715 C8.04283501,17.1043956 8.58098416,16.774525 8.84751663,16.2506083 C9.11404911,15.7266917 9.06380966,15.0974897 8.71751859,14.6225048 C8.66428307,14.5492065 8.66428307,14.4499697 8.71751859,14.3766714 C9.0651409,13.9015761 9.1158838,13.2713093 8.8487463,12.7467196 C8.58160881,12.2221298 8.04204022,11.8924681 7.45335192,11.8941649 L7.45335192,11.8941649 Z M13.3566853,11.8958381 L11.6200186,11.8958381 C10.7574544,11.8967567 10.0584372,12.595774 10.0575186,13.4583381 L10.0575186,13.4583381 L10.0575186,15.5416714 C10.0593549,16.4035846 10.7581039,17.1015883 11.6200186,17.1025048 L11.6200186,17.1025048 L12.3150186,17.1025048 C12.8732461,17.1025048 13.3890696,16.804694 13.6681833,16.3212548 C13.9472971,15.8378156 13.9472971,15.2421939 13.6681833,14.7587547 C13.3890696,14.2753156 12.8732461,13.9775047 12.3150186,13.9775048 L12.3150186,13.9775048 L11.3075186,13.9791714 C11.1924593,13.9791714 11.0991853,13.8858974 11.0991853,13.7708381 L11.0991853,13.7708381 L11.0991853,13.4583381 C11.0991853,13.1706898 11.3323703,12.9375048 11.6200186,12.9375048 L11.6200186,12.9375048 L13.3566853,12.9375048 C13.6443336,12.9375048 13.8775187,12.7043197 13.8775187,12.4166714 C13.8775187,12.1290231 13.6443336,11.8958381 13.3566853,11.8958381 L13.3566853,11.8958381 Z M16.8283519,12.9375048 C17.307404,12.9379632 17.6957669,13.3259534 17.6966853,13.8050048 L17.6966853,13.8050048 L17.6966853,15.1941714 C17.7064933,15.5106613 17.5432479,15.8073992 17.2706776,15.9685434 C16.9981073,16.1296876 16.6594298,16.1296876 16.3868595,15.9685434 C16.1142892,15.8073992 15.9510439,15.5106613 15.9608519,15.1941714 L15.9608519,15.1941714 L15.9608519,13.8050048 C15.9613113,13.3260882 16.3494353,12.9379642 16.8283519,12.9375048 Z M12.3150186,15.0208381 C12.6026669,15.0208381 12.8358519,15.2540231 12.8358519,15.5416714 C12.8358519,15.8293197 12.6026669,16.0625048 12.3150186,16.0625048 L12.3150186,16.0625048 L11.6200186,16.0625048 C11.3323703,16.0625048 11.0991853,15.8293197 11.0991853,15.5416714 L11.0991853,15.5416714 L11.0991853,15.2291714 C11.0991853,15.1141121 11.1924593,15.0208381 11.3075186,15.0208381 L11.3075186,15.0208381 Z M6.13418525,4.49999994 C6.2096592,4.49963862 6.28376966,4.52011271 6.34835192,4.55917143 C7.64676432,5.33824681 9.13247483,5.74985602 10.6466853,5.75000476 L10.6466853,5.75000476 L13.2883519,5.75000476 C14.8025623,5.74985602 16.2882728,5.33824681 17.5866853,4.55917143 C17.6512675,4.52011271 17.725378,4.49963862 17.8008519,4.49999994 L17.8008519,4.49999994 L19.4675186,4.49999994 C19.6399164,4.49982418 19.7946221,4.60583238 19.8566853,4.76667143 L19.8566853,4.76667143 L21.3075186,8.5383381 C21.3372597,8.61534686 21.3187247,8.70265278 21.2602613,8.76093579 C21.2017978,8.8192188 21.114435,8.8374838 21.0375186,8.80750476 C20.796435,8.71428032 20.5401656,8.66653001 20.2816853,8.66667143 L20.2816853,8.66667143 L3.65335192,8.66667143 C3.39487159,8.66653001 3.13860219,8.71428032 2.89751859,8.80750476 C2.82060212,8.8374838 2.73323933,8.8192188 2.67477588,8.76093579 C2.61631243,8.70265278 2.59777746,8.61534686 2.62751859,8.5383381 L2.62751859,8.5383381 L4.07835192,4.76667143 C4.14041507,4.60583238 4.29512079,4.49982418 4.46751859,4.49999994 L4.46751859,4.49999994 Z" id="ðŸ–-Color" fill="#5A5A5A"></path>
        <rect id="_Transparent_Rectangle_" x="0" y="0" width="24" height="24"></rect>
    </g>
</svg>