<svg width="24" height="24" viewBox="0 0 24 24" fill="none" xmlns="http://www.w3.org/2000/svg">
<g id="controller_360">
<path id="Shape" fill-rule="evenodd" clip-rule="evenodd" d="M20.2813 8.66667H3.65296C3.39448 8.66653 3.13821 8.71428 2.89712 8.8075C2.82021 8.83748 2.73284 8.81921 2.67438 8.76093C2.61592 8.70265 2.59738 8.61534 2.62712 8.53833L4.07796 4.76667C4.14002 4.60583 4.29472 4.49982 4.46712 4.5H6.13379C6.20926 4.49963 6.28337 4.52011 6.34796 4.55917C7.64637 5.33824 9.13208 5.74985 10.6463 5.75H13.288C14.8022 5.74985 16.2879 5.33824 17.5863 4.55917C17.6509 4.52011 17.725 4.49963 17.8005 4.5H19.4671C19.6395 4.49982 19.7942 4.60583 19.8563 4.76667L21.3071 8.53833C21.3369 8.61534 21.3183 8.70265 21.2599 8.76093C21.2014 8.81921 21.114 8.83748 21.0371 8.8075C20.796 8.71428 20.5398 8.66653 20.2813 8.66667ZM11.6196 16.0625C11.332 16.0625 11.0988 15.8293 11.0988 15.5417V15.2292C11.0988 15.1141 11.1921 15.0208 11.3071 15.0208H12.3146C12.6023 15.0208 12.8355 15.254 12.8355 15.5417C12.8355 15.8293 12.6023 16.0625 12.3146 16.0625H11.6196ZM16.828 12.9375C16.349 12.938 15.9609 13.3261 15.9605 13.805V15.1942C15.9506 15.5107 16.1139 15.8074 16.3865 15.9685C16.659 16.1297 16.9977 16.1297 17.2703 15.9685C17.5429 15.8074 17.7061 15.5107 17.6963 15.1942V13.805C17.6954 13.3259 17.307 12.938 16.828 12.9375ZM21.5505 10.7692C21.5505 10.0682 20.9822 9.5 20.2813 9.5H3.65296C2.95201 9.5 2.38379 10.0682 2.38379 10.7692V18.2308C2.38379 18.9318 2.95201 19.5 3.65296 19.5H20.2813C20.9822 19.5 21.5505 18.9318 21.5505 18.2308V10.7692ZM7.45296 15.0192H5.71712C5.42947 15.0192 5.19629 14.786 5.19629 14.4983C5.19629 14.2107 5.42947 13.9775 5.71712 13.9775H7.45296C7.7406 13.9775 7.97379 13.7443 7.97379 13.4567C7.97379 13.169 7.7406 12.9358 7.45296 12.9358H5.71712C5.42947 12.9358 5.19629 12.7026 5.19629 12.415C5.19629 12.1274 5.42947 11.8942 5.71712 11.8942H7.45296C8.04164 11.8925 8.58121 12.2221 8.84835 12.7467C9.11549 13.2713 9.06474 13.9016 8.71712 14.3767C8.66389 14.45 8.66389 14.5492 8.71712 14.6225C9.06341 15.0975 9.11365 15.7267 8.84712 16.2506C8.58059 16.7745 8.04244 17.1044 7.45462 17.1042H5.71712C5.42947 17.1042 5.19629 16.871 5.19629 16.5833C5.19629 16.2957 5.42947 16.0625 5.71712 16.0625H7.45296C7.7406 16.0625 7.97379 15.8293 7.97379 15.5417C7.97379 15.254 7.7406 15.0208 7.45296 15.0208V15.0192ZM13.6678 14.7588C13.3887 14.2753 12.8728 13.9775 12.3146 13.9775L11.3071 13.9792C11.1921 13.9792 11.0988 13.8859 11.0988 13.7708V13.4583C11.0988 13.1707 11.332 12.9375 11.6196 12.9375H13.3563C13.6439 12.9375 13.8771 12.7043 13.8771 12.4167C13.8771 12.129 13.6439 11.8958 13.3563 11.8958H11.6196C10.7571 11.8968 10.058 12.5958 10.0571 13.4583V15.5417C10.059 16.4036 10.7577 17.1016 11.6196 17.1025H12.3146C12.8728 17.1025 13.3887 16.8047 13.6678 16.3213C13.9469 15.8378 13.9469 15.2422 13.6678 14.7588ZM18.738 15.1925C18.7524 15.8842 18.3916 16.5297 17.7949 16.8798C17.1981 17.2299 16.4586 17.2299 15.8619 16.8798C15.2651 16.5297 14.9043 15.8842 14.9188 15.1925V13.805C14.9405 12.7659 15.7891 11.9349 16.8284 11.9349C17.8677 11.9349 18.7162 12.7659 18.738 13.805V15.1925Z" fill="#5A5A5A"/>
</g>
</svg>
