<svg width="24" height="24" viewBox="0 0 24 24" fill="none" xmlns="http://www.w3.org/2000/svg">
<g id="dna">
<path id="Shape" fill-rule="evenodd" clip-rule="evenodd" d="M4.9618 8.04167C4.89001 8.04192 4.82319 8.00504 4.78513 7.94417L3.22263 5.44333C3.181 5.37561 3.181 5.29022 3.22263 5.2225L4.78513 2.7225C4.82319 2.66163 4.89001 2.62475 4.9618 2.625H7.78847C7.86042 2.62493 7.92728 2.66214 7.96513 2.72333L9.52763 5.22333C9.56927 5.29106 9.56927 5.37644 9.52763 5.44417L7.96513 7.94417C7.92707 8.00504 7.86026 8.04192 7.78847 8.04167H4.9618ZM9.05597 8.77667C9.01433 8.70894 9.01433 8.62356 9.05597 8.55583L10.6185 6.05583C10.6565 5.99496 10.7233 5.95808 10.7951 5.95833H13.2051C13.2769 5.95808 13.3437 5.99496 13.3818 6.05583L14.9443 8.55583C14.9859 8.62356 14.9859 8.70894 14.9443 8.77667L13.3818 11.2767C13.3437 11.3375 13.2769 11.3744 13.2051 11.3742H10.7951C10.7233 11.3744 10.6565 11.3375 10.6185 11.2767L9.05597 8.77667ZM4.78513 14.6108C4.82319 14.6717 4.89001 14.7086 4.9618 14.7083H7.78847C7.86026 14.7086 7.92707 14.6717 7.96513 14.6108L9.52763 12.1108C9.56927 12.0431 9.56927 11.9577 9.52763 11.89L7.96513 9.39C7.92707 9.32913 7.86026 9.29225 7.78847 9.2925H4.9618C4.89001 9.29225 4.82319 9.32913 4.78513 9.39L3.22263 11.89C3.181 11.9577 3.181 12.0431 3.22263 12.1108L4.78513 14.6108ZM7.96513 16.0567L9.52763 18.5567C9.56927 18.6244 9.56927 18.7098 9.52763 18.7775L7.96513 21.2775C7.92707 21.3384 7.86026 21.3752 7.78847 21.375H4.9618C4.89001 21.3752 4.82319 21.3384 4.78513 21.2775L3.22263 18.7775C3.181 18.7098 3.181 18.6244 3.22263 18.5567L4.78513 16.0567C4.82319 15.9958 4.89001 15.9589 4.9618 15.9592H7.78847C7.86026 15.9589 7.92707 15.9958 7.96513 16.0567ZM14.9443 15.4442C14.9859 15.3764 14.9859 15.2911 14.9443 15.2233L13.3818 12.7233C13.3437 12.6625 13.2769 12.6256 13.2051 12.6258H10.7951C10.7233 12.6256 10.6565 12.6625 10.6185 12.7233L9.05597 15.2233C9.01433 15.2911 9.01433 15.3764 9.05597 15.4442L10.6185 17.9442C10.6565 18.005 10.7233 18.0419 10.7951 18.0417H13.2051C13.2769 18.0419 13.3437 18.005 13.3818 17.9442L14.9443 15.4442ZM16.0351 7.94333L14.4726 5.44333C14.431 5.37561 14.431 5.29022 14.4726 5.2225L16.0351 2.7225C16.0732 2.66163 16.14 2.62475 16.2118 2.625H19.0385C19.1103 2.62475 19.1771 2.66163 19.2151 2.7225L20.7776 5.2225C20.8193 5.29022 20.8193 5.37561 20.7776 5.44333L19.2151 7.94333C19.1771 8.00421 19.1103 8.04108 19.0385 8.04083H16.2118C16.14 8.04108 16.0732 8.00421 16.0351 7.94333ZM20.7776 11.89L19.2151 9.39C19.1771 9.32913 19.1103 9.29225 19.0385 9.2925H16.2118C16.14 9.29225 16.0732 9.32913 16.0351 9.39L14.4726 11.89C14.431 11.9577 14.431 12.0431 14.4726 12.1108L16.0351 14.6108C16.0732 14.6717 16.14 14.7086 16.2118 14.7083H19.0385C19.1103 14.7086 19.1771 14.6717 19.2151 14.6108L20.7776 12.1108C20.8193 12.0431 20.8193 11.9577 20.7776 11.89ZM19.0385 15.9583C19.1103 15.9581 19.1771 15.995 19.2151 16.0558L20.7776 18.5558C20.8193 18.6236 20.8193 18.7089 20.7776 18.7767L19.2151 21.2767C19.1771 21.3375 19.1103 21.3744 19.0385 21.3742H16.2118C16.14 21.3744 16.0732 21.3375 16.0351 21.2767L14.4726 18.7767C14.431 18.7089 14.431 18.6236 14.4726 18.5558L16.0351 16.0558C16.0732 15.995 16.14 15.9581 16.2118 15.9583H19.0385Z" fill="#5A5A5A"/>
</g>
</svg>
