<?xml version="1.0" encoding="UTF-8"?>
<svg width="24px" height="24px" viewBox="0 0 24 24" version="1.1" xmlns="http://www.w3.org/2000/svg" xmlns:xlink="http://www.w3.org/1999/xlink">
    <title>6. Technology/dna</title>
    <g id="6.-Technology/dna" stroke="none" stroke-width="1" fill="none" fill-rule="evenodd">
        <rect id="_Transparent_Rectangle_" x="0" y="0" width="24" height="24"></rect>
        <path d="M7.78833333,15.9591654 C7.86012359,15.9589169 7.92694272,15.9957935 7.965,16.0566667 L7.965,16.0566667 L9.5275,18.5566667 C9.56913444,18.6243907 9.56913444,18.709776 9.5275,18.7775 L9.5275,18.7775 L7.965,21.2775 C7.92694272,21.3383732 7.86012359,21.3752498 7.78833333,21.3750013 L7.78833333,21.3750013 L4.96166667,21.3750013 C4.88987641,21.3752498 4.82305728,21.3383732 4.785,21.2775 L4.785,21.2775 L3.2225,18.7775 C3.18086556,18.709776 3.18086556,18.6243907 3.2225,18.5566667 L3.2225,18.5566667 L4.785,16.0566667 C4.82305728,15.9957935 4.88987641,15.9589169 4.96166667,15.9591654 L4.96166667,15.9591654 Z M19.0383333,15.9583321 C19.1101236,15.9580835 19.1769427,15.9949601 19.215,16.0558333 L19.215,16.0558333 L20.7775,18.5558333 C20.8191344,18.6235573 20.8191344,18.7089427 20.7775,18.7766667 L20.7775,18.7766667 L19.215,21.2766667 C19.1769427,21.3375399 19.1101236,21.3744165 19.0383333,21.3741679 L19.0383333,21.3741679 L16.2116667,21.3741679 C16.1398764,21.3744165 16.0730573,21.3375399 16.035,21.2766667 L16.035,21.2766667 L14.4725,18.7766667 C14.4308656,18.7089427 14.4308656,18.6235573 14.4725,18.5558333 L14.4725,18.5558333 L16.035,16.0558333 C16.0730573,15.9949601 16.1398764,15.9580835 16.2116667,15.9583321 L16.2116667,15.9583321 Z M13.205,12.6258321 C13.2767903,12.6255835 13.3436094,12.6624601 13.3816667,12.7233333 L13.3816667,12.7233333 L14.9441667,15.2233333 C14.9858011,15.2910573 14.9858011,15.3764427 14.9441667,15.4441667 L14.9441667,15.4441667 L13.3816667,17.9441667 C13.3436094,18.0050399 13.2767903,18.0419165 13.205,18.0416679 L13.205,18.0416679 L10.795,18.0416679 C10.7232097,18.0419165 10.6563906,18.0050399 10.6183333,17.9441667 L10.6183333,17.9441667 L9.05583333,15.4441667 C9.01419889,15.3764427 9.01419889,15.2910573 9.05583333,15.2233333 L9.05583333,15.2233333 L10.6183333,12.7233333 C10.6563906,12.6624601 10.7232097,12.6255835 10.795,12.6258321 L10.795,12.6258321 Z M7.78833333,9.29249874 C7.86012359,9.2922502 7.92694272,9.32912679 7.965,9.39 L7.965,9.39 L9.5275,11.89 C9.56913444,11.957724 9.56913444,12.0431093 9.5275,12.1108333 L9.5275,12.1108333 L7.965,14.6108333 C7.92694272,14.6717065 7.86012359,14.7085831 7.78833333,14.7083346 L7.78833333,14.7083346 L4.96166667,14.7083346 C4.88987641,14.7085831 4.82305728,14.6717065 4.785,14.6108333 L4.785,14.6108333 L3.2225,12.1108333 C3.18086556,12.0431093 3.18086556,11.957724 3.2225,11.89 L3.2225,11.89 L4.785,9.39 C4.82305728,9.32912679 4.88987641,9.2922502 4.96166667,9.29249874 L4.96166667,9.29249874 Z M19.0383333,9.29249874 C19.1101236,9.2922502 19.1769427,9.32912679 19.215,9.39 L19.215,9.39 L20.7775,11.89 C20.8191344,11.957724 20.8191344,12.0431093 20.7775,12.1108333 L20.7775,12.1108333 L19.215,14.6108333 C19.1769427,14.6717065 19.1101236,14.7085831 19.0383333,14.7083346 L19.0383333,14.7083346 L16.2116667,14.7083346 C16.1398764,14.7085831 16.0730573,14.6717065 16.035,14.6108333 L16.035,14.6108333 L14.4725,12.1108333 C14.4308656,12.0431093 14.4308656,11.957724 14.4725,11.89 L14.4725,11.89 L16.035,9.39 C16.0730573,9.32912679 16.1398764,9.2922502 16.2116667,9.29249874 L16.2116667,9.29249874 Z M13.205,5.95833207 C13.2767903,5.95808354 13.3436094,5.99496013 13.3816667,6.05583333 L13.3816667,6.05583333 L14.9441667,8.55583333 C14.9858011,8.62355733 14.9858011,8.70894267 14.9441667,8.77666667 L14.9441667,8.77666667 L13.3816667,11.2766667 C13.3436094,11.3375399 13.2767903,11.3744165 13.205,11.3741679 L13.205,11.3741679 L10.795,11.3741679 C10.7232097,11.3744165 10.6563906,11.3375399 10.6183333,11.2766667 L10.6183333,11.2766667 L9.05583333,8.77666667 C9.01419889,8.70894267 9.01419889,8.62355733 9.05583333,8.55583333 L9.05583333,8.55583333 L10.6183333,6.05583333 C10.6563906,5.99496013 10.7232097,5.95808354 10.795,5.95833207 L10.795,5.95833207 Z M7.78833333,2.62499874 C7.86028854,2.6249291 7.92714406,2.66214113 7.965,2.72333333 L7.965,2.72333333 L9.5275,5.22333333 C9.56913444,5.29105733 9.56913444,5.37644267 9.5275,5.44416667 L9.5275,5.44416667 L7.965,7.94416667 C7.92694272,8.00503987 7.86012359,8.04191646 7.78833333,8.04166793 L7.78833333,8.04166793 L4.96166667,8.04166793 C4.88987641,8.04191646 4.82305728,8.00503987 4.785,7.94416667 L4.785,7.94416667 L3.2225,5.44333333 C3.18086556,5.37560933 3.18086556,5.290224 3.2225,5.2225 L3.2225,5.2225 L4.785,2.7225 C4.82305728,2.66162679 4.88987641,2.6247502 4.96166667,2.62499874 L4.96166667,2.62499874 Z M19.0383333,2.62499874 C19.1101236,2.6247502 19.1769427,2.66162679 19.215,2.7225 L19.215,2.7225 L20.7775,5.2225 C20.8191344,5.290224 20.8191344,5.37560933 20.7775,5.44333333 L20.7775,5.44333333 L19.215,7.94333333 C19.1769427,8.00420654 19.1101236,8.04108313 19.0383333,8.04083459 L19.0383333,8.04083459 L16.2116667,8.04083459 C16.1398764,8.04108313 16.0730573,8.00420654 16.035,7.94333333 L16.035,7.94333333 L14.4725,5.44333333 C14.4308656,5.37560933 14.4308656,5.290224 14.4725,5.2225 L14.4725,5.2225 L16.035,2.7225 C16.0730573,2.66162679 16.1398764,2.6247502 16.2116667,2.62499874 L16.2116667,2.62499874 Z" id="ðŸ–-Color" fill="#5A5A5A"></path>
    </g>
</svg>