<?xml version="1.0" encoding="UTF-8"?>
<svg width="24px" height="24px" viewBox="0 0 24 24" version="1.1" xmlns="http://www.w3.org/2000/svg" xmlns:xlink="http://www.w3.org/1999/xlink">
    <title>6. Technology/drone_controller</title>
    <g id="6.-Technology/drone_controller" stroke="none" stroke-width="1" fill="none" fill-rule="evenodd">
        <path d="M12.4346754,5.10389745 C12.8949127,5.10389745 13.2680087,5.47699349 13.2680087,5.93723078 L13.2680087,5.93723078 L13.2680087,10.3105641 C13.2675627,10.3662505 13.2894297,10.4197975 13.3287289,10.4592532 C13.368028,10.4987089 13.4214876,10.5207887 13.4771754,10.5205641 L13.4771754,10.5205641 L18.2680087,10.5205641 C19.8781886,10.5205639 21.1837553,11.8253845 21.1846754,13.4355641 L21.1846754,13.4355641 L21.1846754,19.2688975 C21.1846754,20.879728 19.8788392,22.1855641 18.2680087,22.1855641 L18.2680087,22.1855641 L6.60134203,22.1855641 C4.99051151,22.1855641 3.68467536,20.879728 3.68467536,19.2688975 L3.68467536,19.2688975 L3.68467536,13.4355641 C3.68467536,11.8247336 4.99051151,10.5188975 6.60134203,10.5188975 L6.60134203,10.5188975 L11.3930087,10.5188975 C11.4483301,10.5191201 11.5014499,10.4972422 11.5405684,10.4581238 C11.5796868,10.4190053 11.6015647,10.3658855 11.601342,10.3105641 L11.601342,10.3105641 L11.601342,5.93723078 C11.601342,5.47699349 11.9744381,5.10389745 12.4346754,5.10389745 Z M14.101342,19.6872308 L11.1846754,19.6872308 C10.8394974,19.6872308 10.5596754,19.9670528 10.5596754,20.3122308 C10.5596754,20.6574088 10.8394974,20.9372308 11.1846754,20.9372308 L11.1846754,20.9372308 L14.101342,20.9372308 C14.44652,20.9372308 14.726342,20.6574088 14.726342,20.3122308 C14.726342,19.9670528 14.44652,19.6872308 14.101342,19.6872308 L14.101342,19.6872308 Z M16.601342,13.0205641 C14.9905115,13.0205641 13.6846754,14.3264003 13.6846754,15.9372308 C13.6846754,17.5480613 14.9905115,18.8538976 16.601342,18.8538976 C17.7414137,18.8542993 18.7772107,18.1904014 19.2529549,17.1543362 C19.7286991,16.118271 19.5571689,14.8999881 18.813842,14.0355641 C18.7681787,13.9824844 18.6989055,13.9558929 18.6294537,13.964784 C18.5600019,13.9736752 18.4996614,14.0168598 18.468842,14.0797308 L18.468842,14.0797308 L17.3805087,16.3038975 C17.1782344,16.718111 16.6784723,16.8899217 16.2642587,16.6876475 C15.8500451,16.4853732 15.6782344,15.985611 15.8805087,15.5713975 L15.8805087,15.5713975 L16.978842,13.3272308 C17.0092242,13.2648847 17.0067271,13.191533 16.9721754,13.1313975 C16.937539,13.0711102 16.8749094,13.0322799 16.8055087,13.0280641 C16.7380087,13.0205641 16.6696754,13.0205641 16.601342,13.0205641 Z M9.38967536,13.2447308 C9.32535881,13.2179825 9.25192954,13.2251477 9.19399724,13.2638251 C9.13606493,13.3025024 9.10129557,13.3675739 9.10134203,13.4372308 L9.10134203,13.4372308 L9.10134203,15.9372308 C9.10134201,16.3974681 8.72824598,16.7705641 8.26800869,16.7705641 C7.80777141,16.7705641 7.43467537,16.3974681 7.43467536,15.9372308 L7.43467536,15.9372308 L7.43467536,13.4372308 C7.43460688,13.3677946 7.39994896,13.3029564 7.34225182,13.2643244 C7.28455468,13.2256924 7.21140293,13.218345 7.14717536,13.2447308 L7.14717536,13.2447308 C5.86292049,13.779418 5.13533133,15.1456765 5.4079681,16.5090292 C5.68060488,17.8723819 6.87766294,18.8537586 8.26800869,18.8537586 C9.65835444,18.8537586 10.8554125,17.8723819 11.1280493,16.5090292 C11.4006861,15.1456765 10.6730969,13.779418 9.38967536,13.2447308 Z M6.13217536,3.01889745 C6.36916501,2.63582903 6.86766621,2.51042241 7.25770844,2.7357501 C7.64775067,2.96107779 7.78813605,3.45556967 7.57467536,3.85223078 C6.83157318,5.14172352 6.83157318,6.72940471 7.57467536,8.01889745 C7.68503899,8.21049857 7.71473085,8.43810636 7.65721361,8.65160785 C7.59969637,8.86510935 7.45968592,9.04699938 7.26800869,9.15723078 C6.87000048,9.38563995 6.36222933,9.24929055 6.13217536,8.85223078 C5.09169526,7.04697762 5.09169526,4.82415062 6.13217536,3.01889745 Z M17.6108089,2.73158344 C18.0008512,2.50625575 18.4993524,2.63166236 18.736342,3.01473078 C19.7797526,4.82128307 19.7797526,7.04734516 18.736342,8.85389745 C18.496762,9.23077461 18.002678,9.35179762 17.6160418,9.12830847 C17.2294056,8.90481933 17.0876739,8.41627281 17.2946754,8.02056412 C17.6600873,7.38710549 17.8520913,6.66852771 17.851342,5.93723078 C17.8535395,5.20379283 17.6611657,4.48289431 17.293842,3.84806412 C17.0803813,3.451403 17.2207667,2.95691113 17.6108089,2.73158344 Z M9.80726918,3.42218548 L9.91893787,3.43674143 C10.2162426,3.49610958 10.457849,3.71225817 10.549818,4.00114631 C10.6417871,4.29003445 10.5696069,4.60607861 10.361342,4.82639745 C9.7943061,5.45936492 9.7943061,6.41759665 10.361342,7.05056412 C10.6689366,7.39277671 10.6409576,7.91952828 10.298842,8.22723078 C10.1343787,8.37572227 9.91754849,8.45260035 9.69627858,8.44087226 C9.47500867,8.42914418 9.26752019,8.32977571 9.11967536,8.16473078 C7.98510573,6.89866781 7.98510573,4.98162709 9.11967536,3.71556412 C9.31554181,3.48415324 9.62163318,3.37737328 9.91893787,3.43674143 Z M14.9495795,3.43674143 C15.2468842,3.37737328 15.5529756,3.48415324 15.748842,3.71556412 C16.8834117,4.98162709 16.8834117,6.89866781 15.748842,8.16473078 C15.6010231,8.32952458 15.393708,8.4287294 15.1726425,8.44045494 C14.951577,8.45218048 14.7349309,8.37546299 14.5705087,8.22723078 C14.2281461,7.91976647 14.1997932,7.39300053 14.5071754,7.05056412 C15.0742113,6.41759665 15.0742113,5.45936492 14.5071754,4.82639745 C14.2989105,4.60607861 14.2267303,4.29003445 14.3186993,4.00114631 C14.4106684,3.71225817 14.6522748,3.49610958 14.9495795,3.43674143 Z" id="ðŸ–-Color" fill="#5A5A5A"></path>
        <rect id="_Transparent_Rectangle_" x="0" y="0" width="24" height="24"></rect>
    </g>
</svg>