<?xml version="1.0" encoding="UTF-8"?>
<svg width="24px" height="24px" viewBox="0 0 24 24" version="1.1" xmlns="http://www.w3.org/2000/svg" xmlns:xlink="http://www.w3.org/1999/xlink">
    <title>6. Technology/drone_1</title>
    <g id="6.-Technology/drone_1" stroke="none" stroke-width="1" fill="none" fill-rule="evenodd">
        <path d="M12.2188491,7.2065542 C14.5605158,7.2065542 15.3071824,8.87322087 17.3996824,8.87322087 L17.3996824,8.87322087 L20.1971824,8.87322087 C20.8875384,8.87322087 21.4471824,9.43286493 21.4471824,10.1232209 C21.4471824,10.8135768 20.8875384,11.3732209 20.1971824,11.3732209 C20.1971824,11.3732209 18.9324187,11.3609713 17.9467312,11.3596399 L17.6306226,11.3596322 C17.4798542,11.3598623 17.3416027,11.3604672 17.2230158,11.3615542 C16.9928971,11.3615542 16.8063491,11.5481022 16.8063491,11.7782209 L16.8063491,11.7782209 L16.8063491,12.9232209 C16.8050967,12.9881269 16.8344149,13.0498494 16.8855158,13.0898875 C18.4928964,14.3960351 19.3888351,16.38471 19.3021824,18.4540542 C19.3021824,19.3745288 18.5559904,20.1207209 17.6355158,20.1207209 L17.6355158,20.1207209 L16.9896824,20.1207209 C16.8906681,20.1207007 16.8053186,20.1903737 16.7855158,20.2873875 C16.7003205,20.706953 16.31106,20.993699 15.8850998,20.9506727 C15.4591395,20.9076464 15.1350855,20.5488485 15.1355158,20.1207209 L15.1355158,20.1207209 L15.1355158,18.4540542 C15.1350855,18.0259266 15.4591395,17.6671287 15.8850998,17.6241024 C16.31106,17.5810761 16.7003205,17.8678221 16.7855158,18.2873875 C16.8053186,18.3844013 16.8906681,18.4540744 16.9896824,18.4540542 L16.9896824,18.4540542 L17.2338491,18.4540542 C17.3419161,18.4538147 17.4450819,18.4089352 17.5189305,18.3300371 C17.5927791,18.251139 17.6307473,18.1452344 17.6238491,18.0373875 C17.5971768,16.8977699 17.1753439,15.8028307 16.4305158,14.9398875 C16.3917474,14.8972639 16.3372785,14.8722865 16.2796824,14.8707209 C16.2221131,14.8693753 16.1665735,14.8920137 16.1263491,14.9332209 C15.8075861,15.2885386 15.3619368,15.5043298 14.8855158,15.5340542 L14.8855158,15.5340542 L9.51051578,15.5340542 C9.04430137,15.5126387 8.60699889,15.3019631 8.29968244,14.9507209 C8.25940163,14.9082948 8.20313862,14.88476 8.14464687,14.8858696 C8.08615512,14.8869792 8.03082519,14.9126309 7.99218244,14.9565542 C7.25660557,15.8182982 6.84046625,16.9072059 6.81384911,18.0398875 C6.807199,18.147672 6.84525098,18.2534349 6.91904644,18.3322762 C6.99284191,18.4111175 7.09586073,18.4560713 7.20384911,18.4565542 L7.20384911,18.4565542 L7.44801578,18.4565542 C7.54703007,18.4565744 7.63237959,18.3869013 7.65218244,18.2898875 C7.73737774,17.8703221 8.12663818,17.5835761 8.55259845,17.6266024 C8.97855872,17.6696287 9.30261271,18.0284266 9.30218244,18.4565542 L9.30218244,18.4565542 L9.30218244,20.1232209 C9.30261271,20.5513485 8.97855872,20.9101464 8.55259845,20.9531727 C8.12663818,20.996199 7.73737774,20.709453 7.65218244,20.2898875 C7.63237959,20.1928737 7.54703007,20.1232007 7.44801578,20.1232209 L7.44801578,20.1232209 L6.80218244,20.1232209 C5.88170786,20.1232209 5.13551578,19.3770288 5.13551578,18.4565542 C5.0498694,16.3869664 5.94746254,14.3986663 7.55634911,13.0940542 C7.60744999,13.054016 7.63676818,12.9922935 7.63551578,12.9273875 L7.63551578,12.9273875 L7.63551578,11.7782209 C7.63551578,11.5481022 7.44896776,11.3615542 7.21884911,11.3615542 C7.10069694,11.3604672 6.96282359,11.3598623 6.81238388,11.3596322 L6.49686923,11.3596399 C6.38752593,11.3597878 6.27471751,11.3600705 6.16056393,11.3604563 L5.81618761,11.3618908 C5.01311975,11.3658107 4.24801578,11.3732209 4.24801578,11.3732209 C3.55765984,11.3732209 2.99801578,10.8135768 2.99801578,10.1232209 C2.99801578,9.43286493 3.55765984,8.87322087 4.24801578,8.87322087 L4.24801578,8.87322087 L7.03718244,8.87322087 C9.12968244,8.87322087 9.87718244,7.2065542 12.2188491,7.2065542 Z M15.0321824,12.2498875 C14.9681938,12.2131411 14.8895044,12.2131411 14.8255158,12.2498875 C14.0470153,12.7505371 13.1443028,13.0241214 12.2188491,13.0398875 C11.2933747,13.0242534 10.3906268,12.7506585 9.61218244,12.2498875 C9.54769189,12.2138313 9.46892838,12.21463 9.40518227,12.2519866 C9.34143617,12.2893432 9.30224476,12.3576686 9.30218244,12.4315542 L9.30218244,12.4315542 L9.30218244,13.4565542 C9.30218244,13.6866728 9.48873046,13.8732209 9.71884911,13.8732209 L9.71884911,13.8732209 L14.7188491,13.8732209 C14.9489678,13.8732209 15.1355169,13.6866728 15.1355169,13.4565542 L15.1355169,13.4565542 L15.1355169,12.4290542 C15.1357562,12.355106 15.0963103,12.2867118 15.0321824,12.2498875 Z M5.13551578,5.12322087 C5.59575307,5.12322087 5.96884911,5.49631691 5.96884911,5.9565542 L5.96884911,5.9565542 L5.96884911,6.01072087 C6.36014957,6.28318738 6.59353825,6.72973772 6.59384911,7.2065542 C6.59384911,7.55173217 6.31402708,7.8315542 5.96884911,7.8315542 L5.96884911,7.8315542 L4.30218244,7.8315542 C3.95700447,7.8315542 3.67718244,7.55173217 3.67718244,7.2065542 C3.67749331,6.72973772 3.91088198,6.28318738 4.30218244,6.01072087 L4.30218244,6.01072087 L4.30218244,5.9565542 C4.30218244,5.49631691 4.67527849,5.12322087 5.13551578,5.12322087 Z M19.3021824,5.12322087 C19.7624197,5.12322087 20.1355158,5.49631691 20.1355158,5.9565542 L20.1355158,5.9565542 L20.1355158,6.01072087 C20.5268162,6.28318738 20.7602049,6.72973772 20.7605158,7.2065542 C20.7605158,7.55173217 20.4806937,7.8315542 20.1355158,7.8315542 L20.1355158,7.8315542 L18.4688491,7.8315542 C18.1236711,7.8315542 17.8438491,7.55173217 17.8438491,7.2065542 C17.84416,6.72973772 18.0775487,6.28318738 18.4688491,6.01072087 L18.4688491,6.01072087 L18.4688491,5.9565542 C18.4688491,5.49631691 18.8419452,5.12322087 19.3021824,5.12322087 Z M7.21884911,3.03988753 C7.6790864,3.03988753 8.05218244,3.41298358 8.05218244,3.87322087 C8.05218244,4.33345816 7.6790864,4.7065542 7.21884911,4.7065542 L7.21884911,4.7065542 L3.05218244,4.7065542 C2.59194515,4.7065542 2.21884911,4.33345816 2.21884911,3.87322087 C2.21884911,3.41298358 2.59194515,3.03988753 3.05218244,3.03988753 L3.05218244,3.03988753 Z M21.3855158,3.03988753 C21.8457531,3.03988753 22.2188491,3.41298358 22.2188491,3.87322087 C22.2188491,4.33345816 21.8457531,4.7065542 21.3855158,4.7065542 L21.3855158,4.7065542 L17.2188491,4.7065542 C16.7586118,4.7065542 16.3855158,4.33345816 16.3855158,3.87322087 C16.3855158,3.41298358 16.7586118,3.03988753 17.2188491,3.03988753 L17.2188491,3.03988753 Z" id="ðŸ–-Color" fill="#5A5A5A"></path>
        <rect id="_Transparent_Rectangle_" x="0" y="0" width="24" height="24"></rect>
    </g>
</svg>