<svg width="24" height="24" viewBox="0 0 24 24" fill="none" xmlns="http://www.w3.org/2000/svg">
<g id="hand_hold_3d_box">
<path id="Shape" fill-rule="evenodd" clip-rule="evenodd" d="M21.1183 9.21999L18 7.92166C17.9075 7.88341 17.8552 7.78475 17.8756 7.68672C17.896 7.58869 17.9832 7.51902 18.0833 7.52082H19.2917C20.4423 7.52082 21.375 6.58808 21.375 5.43749C21.375 4.2869 20.4423 3.35416 19.2917 3.35416H15.9583C15.7282 3.35416 15.5417 3.16761 15.5417 2.93749C15.5417 2.47725 15.1686 2.10416 14.7083 2.10416C14.2481 2.10416 13.875 2.47725 13.875 2.93749C13.875 4.08808 14.8077 5.02082 15.9583 5.02082H19.2917C19.5218 5.02082 19.7083 5.20737 19.7083 5.43749C19.7083 5.66761 19.5218 5.85416 19.2917 5.85416H16.7917C15.9609 5.85777 15.2596 6.47265 15.1475 7.29582C15.1384 7.36991 15.0904 7.43349 15.0217 7.46249L10.7983 9.21999C10.6431 9.28454 10.5419 9.43605 10.5417 9.60416V15.0208C10.5419 15.1889 10.6431 15.3404 10.7983 15.405L15.7983 17.4883C15.9006 17.5317 16.0161 17.5317 16.1183 17.4883L21.1183 15.405C21.2736 15.3404 21.3748 15.1889 21.375 15.0208V9.60416C21.3748 9.43605 21.2736 9.28454 21.1183 9.21999ZM13.5 9.41166L15.8783 8.42249C15.9295 8.40082 15.9872 8.40082 16.0383 8.42249L18.4167 9.41166C18.4945 9.44389 18.5453 9.51987 18.5453 9.60416C18.5453 9.68844 18.4945 9.76443 18.4167 9.79666L16.0417 10.7858C15.9905 10.8075 15.9328 10.8075 15.8817 10.7858L13.5 9.79666C13.4221 9.76443 13.3713 9.68844 13.3713 9.60416C13.3713 9.51987 13.4221 9.44389 13.5 9.41166ZM7.20833 18.1458H13.4583C14.839 18.1458 15.9583 19.2651 15.9583 20.6458C15.9583 20.8759 15.7718 21.0625 15.5417 21.0625H4.08333C3.96827 21.0625 3.875 21.1558 3.875 21.2708C3.875 21.616 3.59518 21.8958 3.25 21.8958C2.90482 21.8958 2.625 21.616 2.625 21.2708V15.0208C2.625 14.6756 2.90482 14.3958 3.25 14.3958C3.59518 14.3958 3.875 14.6756 3.875 15.0208C3.875 15.1359 3.96827 15.2292 4.08333 15.2292H8.45833C9.37881 15.2292 10.125 15.9753 10.125 16.8958C10.125 17.1259 9.93845 17.3125 9.70833 17.3125H7.20833C6.97821 17.3125 6.79167 17.499 6.79167 17.7292C6.79167 17.9593 6.97821 18.1458 7.20833 18.1458Z" fill="#5A5A5A"/>
</g>
</svg>
