<?xml version="1.0" encoding="UTF-8"?>
<svg width="24px" height="24px" viewBox="0 0 24 24" version="1.1" xmlns="http://www.w3.org/2000/svg" xmlns:xlink="http://www.w3.org/1999/xlink">
    <title>6. Technology/hand_hold_3d_box</title>
    <g id="6.-Technology/hand_hold_3d_box" stroke="none" stroke-width="1" fill="none" fill-rule="evenodd">
        <path d="M3.25,14.3958333 C3.59517797,14.3958333 3.875,14.6756554 3.875,15.0208333 C3.875,15.1358927 3.96827401,15.2291667 4.08333333,15.2291667 L4.08333333,15.2291667 L8.45833333,15.2291667 C9.37880792,15.2291667 10.125,15.9753588 10.125,16.8958333 C10.125,17.125952 9.93845198,17.3125 9.70833333,17.3125 L9.70833333,17.3125 L7.20833333,17.3125 C6.97821469,17.3125 6.79166667,17.499048 6.79166667,17.7291667 C6.79166667,17.9592853 6.97821469,18.1458333 7.20833333,18.1458333 L7.20833333,18.1458333 L13.4583333,18.1458333 C14.8390452,18.1458333 15.9583333,19.2651215 15.9583333,20.6458333 C15.9583333,20.875952 15.7717853,21.0625 15.5416667,21.0625 L15.5416667,21.0625 L4.08333333,21.0625 C3.96827401,21.0625 3.875,21.155774 3.875,21.2708333 C3.875,21.6160113 3.59517797,21.8958333 3.25,21.8958333 C2.90482203,21.8958333 2.625,21.6160113 2.625,21.2708333 L2.625,21.2708333 L2.625,15.0208333 C2.625,14.6756554 2.90482203,14.3958333 3.25,14.3958333 Z M14.7083333,2.10416667 C15.1685706,2.10416667 15.5416667,2.47726271 15.5416667,2.9375 C15.5416667,3.16761865 15.7282147,3.35416667 15.9583333,3.35416667 L15.9583333,3.35416667 L19.2916667,3.35416667 C20.4422599,3.35416667 21.375,4.28690677 21.375,5.4375 C21.375,6.58809323 20.4422599,7.52083333 19.2916667,7.52083333 L19.2916667,7.52083333 L18.0833333,7.52083333 C17.9832245,7.51903116 17.8959919,7.58869818 17.8756116,7.68672712 C17.8552314,7.78475606 17.9074682,7.88341882 18,7.92166667 L18,7.92166667 L21.1183333,9.22 C21.2735528,9.28455322 21.3747758,9.43605909 21.375,9.60416667 L21.375,9.60416667 L21.375,15.0208333 C21.3747758,15.1889409 21.2735528,15.3404468 21.1183333,15.405 L21.1183333,15.405 L16.1183333,17.4883333 C16.01607,17.5316777 15.9005967,17.5316777 15.7983333,17.4883333 L15.7983333,17.4883333 L10.7983333,15.405 C10.6431138,15.3404468 10.5418908,15.1889409 10.5416667,15.0208333 L10.5416667,15.0208333 L10.5416667,9.60416667 C10.5418908,9.43605909 10.6431138,9.28455322 10.7983333,9.22 L10.7983333,9.22 L15.0216667,7.4625 C15.0904377,7.43349577 15.1384387,7.3699184 15.1475,7.29583333 C15.2596469,6.4726615 15.9608985,5.85777796 16.7916667,5.85416667 L16.7916667,5.85416667 L19.2916667,5.85416667 C19.5217853,5.85416666 19.7083333,5.66761864 19.7083333,5.4375 C19.7083333,5.20738136 19.5217853,5.02083334 19.2916667,5.02083333 L19.2916667,5.02083333 L15.9583333,5.02083333 C14.8077401,5.02083333 13.875,4.08809323 13.875,2.9375 C13.875,2.47726271 14.248096,2.10416667 14.7083333,2.10416667 Z M16.0383333,8.4225 C15.9872016,8.40082781 15.929465,8.40082781 15.8783333,8.4225 L15.8783333,8.4225 L13.5,9.41166667 C13.422119,9.44389732 13.3713318,9.51987982 13.3713318,9.60416667 C13.3713318,9.68845352 13.422119,9.76443601 13.5,9.79666667 L13.5,9.79666667 L15.8816667,10.7858333 C15.9327984,10.8075055 15.990535,10.8075055 16.0416667,10.7858333 L16.0416667,10.7858333 L18.4166667,9.79666667 C18.4945477,9.76443601 18.5453349,9.68845352 18.5453349,9.60416667 C18.5453349,9.51987982 18.4945477,9.44389732 18.4166667,9.41166667 L18.4166667,9.41166667 Z" id="ðŸ–-Color" fill="#5A5A5A"></path>
        <rect id="_Transparent_Rectangle_" x="0" y="0" width="24" height="24"></rect>
    </g>
</svg>