<svg width="24" height="24" viewBox="0 0 24 24" fill="none" xmlns="http://www.w3.org/2000/svg">
<g id="robot_1">
<path id="Shape" fill-rule="evenodd" clip-rule="evenodd" d="M19.093 8.18892C18.9574 8.18905 18.8222 8.20556 18.6905 8.23809C18.5812 8.26468 18.4706 8.19977 18.4405 8.09142C18.1366 6.99057 17.5549 5.98625 16.7513 5.17476C16.6724 5.09357 16.6724 4.96428 16.7513 4.88309C17.1945 4.41909 17.332 3.74187 17.1048 3.14179C16.8776 2.54172 16.3261 2.12535 15.6867 2.07121C15.0474 2.01706 14.4337 2.33476 14.1088 2.88809C14.0405 3.00547 13.9871 3.13087 13.9497 3.26142C13.9192 3.36934 13.8083 3.43331 13.6997 3.40559C12.5932 3.11671 11.4311 3.11671 10.3247 3.40559C10.216 3.43331 10.1051 3.36934 10.0747 3.26142C10.0373 3.13087 9.98382 3.00547 9.91551 2.88809C9.59073 2.33511 8.97748 2.01751 8.33844 2.07136C7.6994 2.1252 7.14793 2.54093 6.92027 3.14046C6.6926 3.74 6.82911 4.41698 7.27134 4.88142C7.3503 4.96261 7.3503 5.0919 7.27134 5.17309C6.46776 5.98458 5.88611 6.9889 5.58217 8.08976C5.55208 8.1981 5.44143 8.26302 5.33217 8.23642C4.6594 8.06929 3.95342 8.33604 3.55928 8.90631C3.16514 9.47658 3.16514 10.2313 3.55928 10.8015C3.95342 11.3718 4.6594 11.6386 5.33217 11.4714C5.44143 11.4448 5.55208 11.5097 5.58217 11.6181C5.88611 12.7189 6.46776 13.7233 7.27134 14.5348C7.35075 14.6158 7.35075 14.7454 7.27134 14.8264C7.17601 14.9243 7.09342 15.0337 7.02551 15.1523C6.70593 15.6688 6.69269 16.3184 6.99096 16.8475C7.28924 17.3767 7.85178 17.7017 8.45918 17.6957C9.06659 17.6898 9.62265 17.3538 9.91051 16.8189C9.979 16.702 10.0322 16.5769 10.0688 16.4464C10.1004 16.337 10.214 16.2731 10.3238 16.3031C10.4138 16.3273 10.5038 16.3498 10.5963 16.3706C10.6932 16.39 10.763 16.4751 10.763 16.5739V18.0656C10.7604 18.4205 10.8896 18.7638 11.1255 19.0289C11.1604 19.0672 11.1797 19.1171 11.1797 19.1689V20.0598C11.1797 20.1748 11.0864 20.2681 10.9713 20.2681H9.50967C9.04944 20.2681 8.67634 20.6412 8.67634 21.1014C8.67634 21.5617 9.04944 21.9348 9.50967 21.9348H14.5097C14.9699 21.9348 15.343 21.5617 15.343 21.1014C15.343 20.6412 14.9699 20.2681 14.5097 20.2681H13.0513C12.9363 20.2681 12.843 20.1748 12.843 20.0598V19.1731C12.8428 19.1213 12.8621 19.0713 12.8972 19.0331C13.1331 18.7679 13.2623 18.4247 13.2597 18.0698V16.5798C13.2597 16.4809 13.3295 16.3959 13.4263 16.3764C13.5188 16.3556 13.6088 16.3331 13.6988 16.3089C13.8087 16.279 13.9223 16.3428 13.9538 16.4523C13.9905 16.5827 14.0437 16.7079 14.1122 16.8248C14.4 17.3597 14.9561 17.6956 15.5635 17.7015C16.1709 17.7075 16.7334 17.3825 17.0317 16.8533C17.33 16.3242 17.3168 15.6747 16.9972 15.1581C16.928 15.0393 16.844 14.9298 16.7472 14.8323C16.6678 14.7512 16.6678 14.6216 16.7472 14.5406C17.5505 13.7289 18.1321 12.7247 18.4363 11.6239C18.4664 11.5156 18.5771 11.4507 18.6863 11.4773C19.3083 11.6245 19.9596 11.4032 20.363 10.9075C20.7665 10.4118 20.8509 9.72904 20.5804 9.15C20.3099 8.57096 19.7321 8.19761 19.093 8.18892ZM14.9263 11.5223C14.0059 11.5223 13.2597 10.7761 13.2597 9.85559C13.2597 8.93512 14.0059 8.18892 14.9263 8.18892C15.8468 8.18892 16.593 8.93512 16.593 9.85559C16.593 10.7761 15.8468 11.5223 14.9263 11.5223ZM9.09301 11.5223C8.17253 11.5223 7.42634 10.7761 7.42634 9.85559C7.42634 8.93512 8.17253 8.18892 9.09301 8.18892C10.0135 8.18892 10.7597 8.93512 10.7597 9.85559C10.7597 10.7761 10.0135 11.5223 9.09301 11.5223Z" fill="#5A5A5A"/>
</g>
</svg>
