<?xml version="1.0" encoding="UTF-8"?>
<svg width="24px" height="24px" viewBox="0 0 24 24" version="1.1" xmlns="http://www.w3.org/2000/svg" xmlns:xlink="http://www.w3.org/1999/xlink">
    <title>6. Technology/robot_1</title>
    <g id="6.-Technology/robot_1" stroke="none" stroke-width="1" fill="none" fill-rule="evenodd">
        <path d="M19.0926455,8.18892517 C18.9569888,8.18905198 18.8218438,8.20556038 18.6901455,8.23809184 C18.5808865,8.26468364 18.4702407,8.19977146 18.4401455,8.09142517 C18.1362063,6.99056886 17.554562,5.98624952 16.7509788,5.17475851 C16.6720158,5.09356953 16.6720158,4.96428081 16.7509788,4.88309184 C17.1941627,4.41908803 17.3316245,3.74187241 17.1044289,3.14179438 C16.8772333,2.54171636 16.3257302,2.12534979 15.6863711,2.07120769 C15.0470119,2.01706559 14.4333469,2.33476358 14.1084788,2.88809184 C14.0401705,3.0054662 13.9867057,3.13087063 13.9493121,3.26142517 C13.9188837,3.36934099 13.8079558,3.43330945 13.6993121,3.40559184 C12.5928572,3.11670976 11.430767,3.11670976 10.3243121,3.40559184 C10.2156685,3.43330945 10.1047405,3.36934099 10.0743121,3.26142517 C10.0369186,3.13087063 9.98345375,3.0054662 9.91514545,2.88809184 C9.59036918,2.33510591 8.97711764,2.01751528 8.33807627,2.07135947 C7.6990349,2.12520366 7.14757104,2.54093059 6.91990348,3.1404642 C6.69223592,3.73999781 6.82875338,4.41697953 7.27097879,4.88142517 C7.34994176,4.96261415 7.34994176,5.09190286 7.27097879,5.17309184 C6.4673956,5.98458286 5.88575123,6.98890219 5.58181212,8.08975851 C5.55171684,8.19810479 5.44107108,8.26301697 5.33181212,8.23642517 C4.65904221,8.06928908 3.95306136,8.33604257 3.55891787,8.90630982 C3.16477438,9.47657706 3.16477438,10.2312733 3.55891787,10.8015405 C3.95306136,11.3718078 4.65904221,11.6385613 5.33181212,11.4714252 C5.44107108,11.4448334 5.55171684,11.5097456 5.58181212,11.6180918 C5.88575123,12.7189482 6.4673956,13.7232675 7.27097879,14.5347585 C7.35038355,14.6157676 7.35038355,14.7454161 7.27097879,14.8264252 C7.17565183,14.9242607 7.09305464,15.033737 7.02514545,15.1522585 C6.70556406,15.6688277 6.69232877,16.3183574 6.99060164,16.8475164 C7.28887451,17.3766754 7.85141513,17.7016555 8.45881991,17.6957072 C9.06622469,17.6897588 9.62229294,17.3538241 9.91014545,16.8189252 C9.97864186,16.7020435 10.0318543,16.5768542 10.0684788,16.4464252 C10.1000045,16.3369725 10.2135882,16.273128 10.3234788,16.3030918 C10.4134788,16.3272585 10.5034788,16.3497585 10.5959788,16.3705918 C10.6928634,16.3900377 10.7625934,16.4751083 10.7626455,16.5739252 L10.7626455,18.0655918 C10.7600391,18.4205093 10.8892078,18.7637713 11.1251455,19.0289252 C11.16004,19.0671966 11.179361,19.1171339 11.1793121,19.1689252 L11.1793121,20.0597585 C11.1793121,20.1748178 11.0860381,20.2680918 10.9709788,20.2680918 L9.50931212,20.2680918 C9.04907483,20.2680918 8.67597879,20.6411879 8.67597879,21.1014252 C8.67597879,21.5616625 9.04907483,21.9347585 9.50931212,21.9347585 L14.5093121,21.9347585 C14.9695494,21.9347585 15.3426455,21.5616625 15.3426455,21.1014252 C15.3426455,20.6411879 14.9695494,20.2680918 14.5093121,20.2680918 L13.0509788,20.2680918 C12.9359195,20.2680918 12.8426455,20.1748178 12.8426455,20.0597585 L12.8426455,19.1730918 C12.8424336,19.1212704 12.8617767,19.0712759 12.8968121,19.0330918 C13.1327498,18.7679379 13.2619184,18.4246759 13.2593121,18.0697585 L13.2593121,16.5797585 C13.2593642,16.4809416 13.3290942,16.395871 13.4259788,16.3764252 C13.5184788,16.3555918 13.6084788,16.3330918 13.6984788,16.3089252 C13.8083693,16.2789613 13.9219531,16.3428058 13.9534788,16.4522585 C13.9901033,16.5826875 14.0433157,16.7078768 14.1118121,16.8247585 C14.3996646,17.3596575 14.9557329,17.6955922 15.5631377,17.7015405 C16.1705424,17.7074888 16.7330831,17.3825087 17.0313559,16.8533497 C17.3296288,16.3241907 17.3163935,15.674661 16.9968121,15.1580918 C16.9276091,15.0393349 16.8436037,14.9298478 16.7468121,14.8322585 C16.6674074,14.7512494 16.6674074,14.6216009 16.7468121,14.5405918 C17.5501566,13.7289183 18.1317626,12.7246652 18.4359788,11.6239252 C18.4660741,11.5155789 18.5767198,11.4506667 18.6859788,11.4772585 C19.3078942,11.6245201 19.9592497,11.403174 20.3626728,10.907478 C20.7660959,10.411782 20.8505296,9.72904555 20.5800187,9.15000443 C20.3095079,8.57096331 19.7316989,8.19760701 19.0926455,8.18892517 Z M14.9259788,11.5222585 C14.0055042,11.5222585 13.2593121,10.7760664 13.2593121,9.85559184 C13.2593121,8.93511726 14.0055042,8.18892517 14.9259788,8.18892517 C15.8464534,8.18892517 16.5926455,8.93511726 16.5926455,9.85559184 C16.5926455,10.7760664 15.8464534,11.5222585 14.9259788,11.5222585 Z M9.09264545,11.5222585 C8.17217087,11.5222585 7.42597879,10.7760664 7.42597879,9.85559184 C7.42597879,8.93511726 8.17217087,8.18892517 9.09264545,8.18892517 C10.01312,8.18892517 10.7593121,8.93511726 10.7593121,9.85559184 C10.7593121,10.7760664 10.01312,11.5222585 9.09264545,11.5222585 Z" id="ðŸ–-Color" fill="#5A5A5A"></path>
        <rect id="_Transparent_Rectangle_" x="2" y="2" width="20" height="20"></rect>
    </g>
</svg>