<svg width="24" height="24" viewBox="0 0 24 24" fill="none" xmlns="http://www.w3.org/2000/svg">
<g id="settings_user">
<path id="Shape" fill-rule="evenodd" clip-rule="evenodd" d="M5.54167 7.41667C5.54167 4.42512 7.96679 2 10.9583 2C11.1885 2 11.375 2.18655 11.375 2.41667V12.4167C11.375 12.6468 11.1885 12.8333 10.9583 12.8333C7.96679 12.8333 5.54167 10.4082 5.54167 7.41667ZM13.0417 9.5C14.1923 9.5 15.125 8.56726 15.125 7.41667C15.125 6.26607 14.1923 5.33333 13.0417 5.33333C12.9812 5.33374 12.9208 5.33791 12.8608 5.34583C12.8013 5.35376 12.7412 5.3356 12.696 5.29601C12.6508 5.25641 12.625 5.19924 12.625 5.13917V2.41667C12.625 2.18655 12.8115 2 13.0417 2C13.3443 2.00261 13.6462 2.03048 13.9442 2.08333C14.1451 2.11549 14.2935 2.28814 14.295 2.49167V3.30417C14.2952 3.3921 14.3505 3.47046 14.4333 3.5C14.5696 3.54825 14.7031 3.60389 14.8333 3.66667C14.9133 3.70263 15.0073 3.68464 15.0683 3.62167L15.6417 3.04917C15.7857 2.9053 16.0127 2.88663 16.1783 3.005C16.6721 3.35581 17.1034 3.7871 17.4542 4.28083C17.5723 4.44668 17.5533 4.67364 17.4092 4.8175L16.8367 5.39C16.7743 5.45266 16.7583 5.54787 16.7967 5.6275C16.8583 5.75833 16.9142 5.8925 16.9633 6.02833C16.9929 6.11115 17.0712 6.1665 17.1592 6.16667H17.9667C18.1701 6.16669 18.3437 6.31358 18.3775 6.51417C18.4853 7.11101 18.4853 7.72233 18.3775 8.31917C18.3437 8.51975 18.1701 8.66664 17.9667 8.66667H17.1592C17.0699 8.66515 16.9897 8.72086 16.96 8.805C16.9117 8.94056 16.8561 9.07389 16.7933 9.205C16.7549 9.28463 16.771 9.37984 16.8333 9.4425L17.4075 10.0133C17.5512 10.1571 17.5702 10.3835 17.4525 10.5492C17.1017 11.0432 16.6704 11.4747 16.1767 11.8258C16.0108 11.944 15.7839 11.925 15.64 11.7808L15.0667 11.2083C15.004 11.146 14.9088 11.1299 14.8292 11.1683C14.6988 11.2308 14.5653 11.2864 14.4292 11.335C14.3461 11.3646 14.2906 11.4434 14.2908 11.5317V12.3392C14.2908 12.5426 14.1439 12.7162 13.9433 12.75C13.6453 12.8028 13.3435 12.8307 13.0408 12.8333C12.8107 12.8333 12.6242 12.6468 12.6242 12.4167V9.66083C12.6241 9.60773 12.6471 9.55722 12.6873 9.52248C12.7275 9.48775 12.7808 9.47224 12.8333 9.48C12.9023 9.49132 12.9719 9.498 13.0417 9.5ZM10.9583 13.25C6.35805 13.2551 2.63005 16.9831 2.625 21.5833C2.625 21.8135 2.81155 22 3.04167 22H10.9583C11.1885 22 11.375 21.8135 11.375 21.5833V13.6667C11.375 13.4365 11.1885 13.25 10.9583 13.25ZM20.85 19.9167C21.0549 19.9183 21.2289 20.0671 21.2625 20.2692C21.3338 20.7081 21.3703 21.152 21.3717 21.5967C21.3636 21.8209 21.1794 21.9985 20.955 21.9983H16.955C16.8499 21.9974 16.7628 21.9165 16.7542 21.8117C16.5441 19.7266 14.8951 18.0776 12.81 17.8675C12.7052 17.8589 12.6243 17.7718 12.6233 17.6667V13.6667C12.6232 13.441 12.8028 13.2563 13.0283 13.25C13.6242 13.2498 14.2184 13.3133 14.8008 13.4392C14.9899 13.483 15.1237 13.6517 15.1233 13.8458V15.1033C15.1233 15.1918 15.1791 15.2706 15.2625 15.3C15.5777 15.4115 15.8841 15.5463 16.1792 15.7033C16.26 15.7465 16.3596 15.7316 16.4242 15.6667L17.2867 14.8133C17.4277 14.6723 17.6488 14.651 17.8142 14.7625C18.7878 15.4425 19.6042 16.3234 20.2083 17.3458C20.301 17.5085 20.2737 17.7131 20.1417 17.8458L19.225 18.7625C19.1644 18.8224 19.1465 18.9133 19.18 18.9917C19.288 19.2437 19.3802 19.5023 19.4558 19.7658C19.4818 19.8552 19.5636 19.9167 19.6567 19.9167H20.85Z" fill="#5A5A5A"/>
</g>
</svg>
