<?xml version="1.0" encoding="UTF-8"?>
<svg width="24px" height="24px" viewBox="0 0 24 24" version="1.1" xmlns="http://www.w3.org/2000/svg" xmlns:xlink="http://www.w3.org/1999/xlink">
    <title>6. Technology/settings_user</title>
    <g id="6.-Technology/settings_user" stroke="none" stroke-width="1" fill="none" fill-rule="evenodd">
        <path d="M10.9583333,13.25 C11.188452,13.25 11.375,13.436548 11.375,13.6666667 L11.375,13.6666667 L11.375,21.5833333 C11.375,21.813452 11.188452,22 10.9583333,22 L10.9583333,22 L3.04166667,22 C2.81154802,22 2.625,21.813452 2.625,21.5833333 C2.63005198,16.9830546 6.35805464,13.255052 10.9583333,13.25 Z M13.0283333,13.2499997 C13.6242125,13.2498448 14.218408,13.3132591 14.8008333,13.4391667 C14.9899436,13.4830404 15.1236968,13.6517007 15.1233333,13.8458333 L15.1233333,13.8458333 L15.1233333,15.1033333 C15.1232696,15.1917847 15.1790656,15.2706342 15.2625,15.3 C15.5776634,15.4114544 15.8840698,15.5462732 16.1791667,15.7033333 C16.2599707,15.7465496 16.3595551,15.7316458 16.4241667,15.6666667 L16.4241667,15.6666667 L17.2866667,14.8133333 C17.4276835,14.6723481 17.6488223,14.6510378 17.8141667,14.7625 C18.78776,15.4425127 19.604177,16.323436 20.2083333,17.3458333 C20.3009801,17.5085473 20.2737093,17.713078 20.1416667,17.8458333 L20.1416667,17.8458333 L19.225,18.7625 C19.1643553,18.8223958 19.1465078,18.9132858 19.18,18.9916667 C19.2880427,19.2437003 19.3801681,19.5022637 19.4558333,19.7658333 C19.4817808,19.8551821 19.5636265,19.9166513 19.6566667,19.9166667 L19.6566667,19.9166667 L20.85,19.9166667 C21.0548785,19.9183467 21.2288992,20.0670553 21.2625,20.2691667 C21.333752,20.7081061 21.3702542,21.151984 21.3716667,21.5966667 C21.3635888,21.8209071 21.1793858,21.9984788 20.955,21.9983334 L20.955,21.9983334 L16.955,21.9983334 C16.8498624,21.9973941 16.7627807,21.916455 16.7541667,21.8116667 C16.5440676,19.7265744 14.8950923,18.077599 12.81,17.8675 C12.7052116,17.858886 12.6242726,17.7718043 12.6233333,17.6666667 L12.6233333,17.6666667 L12.6233333,13.6666667 C12.6232449,13.4410282 12.8027833,13.2563179 13.0283333,13.2499997 Z M13.0416667,2 C13.3442951,2.0026099 13.6461771,2.03048451 13.9441667,2.08333333 C14.1451472,2.11548641 14.293485,2.28813612 14.295,2.49166667 L14.295,2.49166667 L14.295,3.30416667 C14.2951638,3.39209613 14.3505157,3.4704558 14.4333333,3.5 C14.5695955,3.54824735 14.7031269,3.60388542 14.8333333,3.66666667 C14.9133295,3.7026295 15.0072821,3.68463858 15.0683333,3.62166667 L15.0683333,3.62166667 L15.6416667,3.04916667 C15.7857382,2.9053025 16.01268,2.88662562 16.1783333,3.005 C16.6720713,3.3558134 17.1033533,3.78709533 17.4541667,4.28083333 C17.5723233,4.44668402 17.5532926,4.67364195 17.4091667,4.8175 L17.4091667,4.8175 L16.8366667,5.39 C16.7742876,5.45265835 16.7582526,5.54786596 16.7966667,5.6275 C16.8583333,5.75833333 16.9141667,5.8925 16.9633333,6.02833333 C16.9928775,6.11115095 17.0712372,6.16650289 17.1591667,6.16666667 L17.1591667,6.16666667 L17.9666667,6.16666667 C18.1700741,6.16669225 18.3437344,6.31358135 18.3775,6.51416667 C18.4852835,7.11100621 18.4852835,7.72232713 18.3775,8.31916667 C18.3437344,8.51975199 18.1700741,8.66664109 17.9666667,8.66666667 L17.9666667,8.66666667 L17.1591667,8.66666667 C17.069938,8.6651514 16.9897343,8.72085775 16.96,8.805 C16.9116667,8.94055556 16.8561111,9.07388889 16.7933333,9.205 C16.7549193,9.28463404 16.7709542,9.37984165 16.8333333,9.4425 L16.8333333,9.4425 L17.4075,10.0133333 C17.5511661,10.1570699 17.5701805,10.3834818 17.4525,10.5491667 C17.1016984,11.043151 16.6704219,11.4747093 16.1766667,11.8258333 C16.010816,11.9439899 15.783858,11.9249593 15.64,11.7808333 L15.64,11.7808333 L15.0666667,11.2083333 C15.0040083,11.1459542 14.9088007,11.1299193 14.8291667,11.1683333 C14.6988077,11.2307742 14.5652946,11.2864047 14.4291667,11.335 C14.3460611,11.3646469 14.2906448,11.4434315 14.2908333,11.5316667 L14.2908333,11.5316667 L14.2908333,12.3391667 C14.2908078,12.5425741 14.1439187,12.7162344 13.9433333,12.75 C13.6453407,12.8028258 13.3434606,12.8307002 13.0408333,12.8333333 C12.8107147,12.8333333 12.6241664,12.6467853 12.6241664,12.4166667 L12.6241664,12.4166667 L12.6241664,9.66083333 C12.6240817,9.60772596 12.6471343,9.55721577 12.6873092,9.52248286 C12.7274842,9.48774995 12.7807959,9.47223994 12.8333333,9.48 C12.9022518,9.49132277 12.9718528,9.49800447 13.0416667,9.5 C14.1922599,9.5 15.125,8.5672599 15.125,7.41666667 C15.125,6.26607344 14.1922599,5.33333333 13.0416667,5.33333333 C12.9811876,5.33373542 12.9207925,5.33791019 12.8608333,5.34583333 C12.8012835,5.35376332 12.741209,5.33560079 12.6960273,5.29600686 C12.6508455,5.25641293 12.6249549,5.19924221 12.625,5.13916667 L12.625,5.13916667 L12.625,2.41666667 C12.625,2.18654802 12.811548,2 13.0416667,2 Z M10.9583333,2 C11.188452,2 11.375,2.18654802 11.375,2.41666667 L11.375,2.41666667 L11.375,12.4166667 C11.375,12.6467853 11.188452,12.8333333 10.9583333,12.8333333 C7.96679094,12.8333333 5.54166667,10.4082091 5.54166667,7.41666667 C5.54166667,4.42512427 7.96679094,2 10.9583333,2 Z" id="ðŸ–-Color" fill="#5A5A5A"></path>
        <rect id="_Transparent_Rectangle_" fill-opacity="0" fill="#D8D8D8" x="0" y="0" width="24" height="24"></rect>
    </g>
</svg>