<?xml version="1.0" encoding="UTF-8"?>
<svg width="24px" height="24px" viewBox="0 0 24 24" version="1.1" xmlns="http://www.w3.org/2000/svg" xmlns:xlink="http://www.w3.org/1999/xlink">
    <title>6. Technology/smart_house_car</title>
    <g id="6.-Technology/smart_house_car" stroke="none" stroke-width="1" fill="none" fill-rule="evenodd">
        <path d="M18.185,11.7683319 C18.9074931,11.7676793 19.5373645,12.2596804 19.7116667,12.9608333 L19.7116667,12.9608333 L20.3616667,15.56 C20.3709015,15.5966109 20.3899123,15.6300238 20.4166667,15.6566667 L20.4166667,15.6566667 L21.6341667,16.8783333 C21.8691292,17.1121431 22.0008505,17.4301947 22.0000041,17.7616667 L22.0000041,17.7616667 L22.0000041,19.0833333 C22.0001425,19.7049079 21.5435497,20.2321554 20.9283333,20.3208333 C20.8258803,20.3353786 20.7498038,20.4231864 20.75,20.5266667 L20.75,20.5266667 L20.75,21.1666667 C20.75,21.626904 20.376904,22 19.9166667,22 C19.4564294,22 19.0833333,21.626904 19.0833333,21.1666667 L19.0833333,21.1666667 L19.0833333,20.5416667 C19.0833333,20.4266073 18.9900593,20.3333333 18.875,20.3333333 L18.875,20.3333333 L13.4583333,20.3333333 C13.343274,20.3333333 13.25,20.4266073 13.25,20.5416667 L13.25,20.5416667 L13.25,21.1666667 C13.25,21.626904 12.876904,22 12.4166667,22 C11.9564294,22 11.5833333,21.626904 11.5833333,21.1666667 L11.5833333,21.1666667 L11.5833333,20.5266667 C11.5835295,20.4231864 11.5074531,20.3353786 11.405,20.3208333 C10.7897836,20.2321554 10.3331909,19.7049079 10.3333292,19.0833333 L10.3333292,19.0833333 L10.3333292,17.7616667 C10.3324828,17.4301947 10.4642041,17.1121431 10.6991667,16.8783333 L10.6991667,16.8783333 L11.9208333,15.6566667 C11.9475877,15.6300238 11.9665985,15.5966109 11.9758333,15.56 L11.9758333,15.56 L12.6258333,12.9608333 C12.7998693,12.2595076 13.4299037,11.7673792 14.1525,11.7683319 L14.1525,11.7683319 Z M17.945,13.438332 L14.3866667,13.438332 C14.2908732,13.4379945 14.2074029,13.503529 14.185,13.5966667 L14.185,13.5966667 L13.965,14.4758333 C13.9489984,14.5380722 13.9627372,14.604213 14.0022022,14.6549303 C14.0416671,14.7056477 14.1024041,14.7352175 14.1666667,14.7350012 L14.1666667,14.7350012 L18.1666667,14.7350012 C18.232149,14.7346123 18.2937338,14.7038199 18.3333333,14.6516667 C18.3702236,14.6010083 18.3824567,14.5364785 18.3666667,14.4758333 L18.3666667,14.4758333 L18.1466667,13.5966667 C18.1242638,13.503529 18.0407935,13.4379945 17.945,13.438332 L17.945,13.438332 Z M9.15333333,2.125 C9.35441392,1.95838203 9.64558608,1.95838203 9.84666667,2.125 L9.84666667,2.125 L16.8066667,7.73666667 C16.9774501,7.87810584 17.0405542,8.11182467 16.9641667,8.32 C16.8856272,8.52814822 16.6866387,8.66611356 16.4641667,8.66666667 L16.4641667,8.66666667 L14.9166667,8.66666667 C14.686548,8.66666667 14.5,8.85321469 14.5,9.08333333 L14.5,9.08333333 L14.5,10.5416667 C14.5,10.656726 14.406726,10.75 14.2916667,10.75 L14.2916667,10.75 L13.9008333,10.75 C12.7535817,10.7497435 11.7533997,11.5303734 11.475,12.6433333 L11.475,12.6433333 L11.0508333,14.3425 C11.0274942,14.4352621 10.9439862,14.5002127 10.8483333,14.5000108 L10.8483333,14.5000108 L5.03583333,14.5000108 C4.74206246,14.5018479 4.50229291,14.2654344 4.5,13.9716667 L4.5,13.9716667 L4.5,9.08333333 C4.5,8.85321469 4.31345198,8.66666667 4.08333333,8.66666667 L4.08333333,8.66666667 L2.53583333,8.66666667 C2.3117192,8.66724193 2.11092204,8.52827966 2.0325,8.31833333 C1.95611248,8.110158 2.01921657,7.87643918 2.19,7.735 L2.19,7.735 Z M9.5,10.75 C9.03976271,10.75 8.66666667,11.123096 8.66666667,11.5833333 C8.66666667,12.0435706 9.03976271,12.4166667 9.5,12.4166667 C9.96023729,12.4166667 10.3333333,12.0435706 10.3333333,11.5833333 C10.3333333,11.123096 9.96023729,10.75 9.5,10.75 Z M11.84,9.11833333 C10.4802604,8.00747862 8.52640622,8.00747862 7.16666667,9.11833333 C6.97707936,9.25264889 6.87764801,9.48104766 6.90850935,9.71133356 C6.93937069,9.94161945 7.09543043,10.1357791 7.31369304,10.2154374 C7.53195566,10.2950957 7.77639243,10.2471034 7.94833333,10.0908333 C8.85160699,9.35411386 10.148393,9.35411386 11.0516667,10.0908333 L11.0516667,10.0908333 C11.2282459,10.2359693 11.4663498,10.276269 11.6777075,10.1962282 C11.8890651,10.1161874 12.0407462,9.92827683 12.0743953,9.70479008 C12.1080445,9.48130333 12.018419,9.25706058 11.84,9.11833333 Z M13.2258333,7.11 C11.0575863,5.33910272 7.9424137,5.33910272 5.77416667,7.11 C5.50570916,7.32694681 5.46357909,7.72028501 5.68,7.98916667 C5.89694681,8.25762418 6.29028501,8.29975424 6.55916667,8.08333333 C8.27071758,6.6859251 10.7292824,6.6859251 12.4408333,8.08333333 C12.6147026,8.22356009 12.8501745,8.26037681 13.058549,8.17991499 C13.2669236,8.09945317 13.4165438,7.91393688 13.4510491,7.69324831 C13.4855543,7.47255974 13.3997026,7.25022674 13.2258333,7.11 Z" id="ðŸ–-Color" fill="#5A5A5A"></path>
        <rect id="_Transparent_Rectangle_" x="0" y="1.82594952e-05" width="24" height="24"></rect>
    </g>
</svg>