<svg width="24" height="24" viewBox="0 0 24 24" fill="none" xmlns="http://www.w3.org/2000/svg">
<g id="smart_house_timer">
<path id="Shape" fill-rule="evenodd" clip-rule="evenodd" d="M3.45546 8.46022C4.88719 5.00433 8.25975 2.75121 12.0005 2.75153C17.1057 2.75746 21.2427 6.89479 21.2482 12C21.2482 15.7407 18.9948 19.1131 15.5388 20.5445C12.0828 21.976 8.10477 21.1846 5.45979 18.5394C2.81481 15.8942 2.02374 11.9161 3.45546 8.46022ZM18.36 7.77342C18.1938 7.72305 18.0143 7.74091 17.8612 7.82306C17.7081 7.90495 17.5938 8.04433 17.5434 8.21053C17.4931 8.37672 17.5108 8.55611 17.5928 8.70922C17.8861 9.25751 18.0966 9.8462 18.2174 10.4561C18.2873 10.8109 18.6315 11.0418 18.9862 10.9719C19.341 10.902 19.5719 10.5578 19.502 10.2031C19.3562 9.4658 19.1019 8.75423 18.7474 8.09153C18.6657 7.93824 18.5263 7.82378 18.36 7.77342ZM11.4243 14.6923C11.4243 15.0109 11.166 15.2692 10.8474 15.2692C10.5288 15.2692 10.2705 15.0109 10.2705 14.6923V13.9231C10.2705 13.8169 10.1844 13.7308 10.0782 13.7308H8.15432C7.97671 13.7306 7.80906 13.6487 7.69972 13.5087C7.59038 13.3687 7.55152 13.1862 7.59432 13.0138L8.21817 10.52C8.36752 9.91964 8.90722 9.49868 9.52586 9.49999H10.8466C11.1653 9.49999 11.4236 9.75828 11.4236 10.0769L11.4243 14.6923ZM16.0389 13.5377C16.0389 12.5818 15.264 11.8069 14.3082 11.8069L13.9397 11.8377C13.8861 11.8422 13.8331 11.8241 13.7934 11.7877C13.7538 11.7513 13.7313 11.6999 13.7312 11.6461V10.8461C13.7312 10.7399 13.8173 10.6538 13.9236 10.6538H15.462C15.7806 10.6538 16.0389 10.3955 16.0389 10.0769C16.0389 9.75829 15.7806 9.49999 15.462 9.49999H13.1543C12.8357 9.49999 12.5774 9.75829 12.5774 10.0769V11.8546C12.5778 12.465 13.0723 12.9599 13.6828 12.9608H14.3082C14.6268 12.9608 14.8851 13.2191 14.8851 13.5377C14.8851 13.8563 14.6268 14.1146 14.3082 14.1146H13.1543C12.8357 14.1146 12.5774 14.3729 12.5774 14.6915C12.5774 15.0102 12.8357 15.2684 13.1543 15.2684H14.3082C15.264 15.2684 16.0389 14.4936 16.0389 13.5377ZM16.8174 7.02229C16.7106 7.1605 16.553 7.25027 16.3796 7.27166C16.2062 7.29304 16.0315 7.24425 15.8943 7.13614C13.2809 5.11688 9.55436 5.44585 7.33514 7.89171C5.11591 10.3376 5.14971 14.0785 7.41279 16.4838C7.57369 16.6537 7.63177 16.8965 7.56514 17.1207C7.49851 17.345 7.31729 17.5167 7.08975 17.5711C6.86222 17.6255 6.62292 17.5544 6.46202 17.3846C3.71059 14.4836 3.66122 9.95188 6.34878 6.99162C9.03634 4.03137 13.5517 3.64392 16.7043 6.10306C16.9894 6.32559 17.0403 6.73695 16.8182 7.02229H16.8174ZM17.5566 16.9454C17.6728 16.82 17.7859 16.6923 17.8943 16.5608V16.5631C18.0516 16.3837 18.0988 16.133 18.0177 15.9087C17.9365 15.6845 17.7398 15.5221 17.5042 15.4849C17.2686 15.4477 17.0314 15.5416 16.8851 15.73C16.7943 15.8384 16.7005 15.9446 16.6036 16.0469C16.3555 16.3101 16.3677 16.7246 16.6309 16.9727C16.894 17.2208 17.3085 17.2086 17.5566 16.9454ZM19.2728 14.0569C19.2036 14.2837 19.0172 14.4553 18.7855 14.5055C18.5538 14.5558 18.3131 14.4769 18.1561 14.2992C17.9992 14.1216 17.9505 13.8729 18.0289 13.6492C18.1099 13.3994 18.1752 13.1448 18.2243 12.8869C18.2647 12.654 18.4274 12.461 18.6501 12.3818C18.8728 12.3026 19.1209 12.3497 19.2991 12.5049C19.4774 12.66 19.5582 12.8993 19.5105 13.1308C19.4516 13.444 19.3728 13.7531 19.2743 14.0561L19.2728 14.0569ZM8.95355 12.3377L9.33817 10.7992C9.36098 10.7155 9.43681 10.6573 9.52355 10.6569H10.0774C10.1285 10.6567 10.1775 10.6769 10.2136 10.713C10.2497 10.7491 10.2699 10.7982 10.2697 10.8492V12.3877C10.2697 12.4939 10.1836 12.58 10.0774 12.58H9.14202C9.08143 12.5802 9.02433 12.5517 8.98817 12.5031C8.95184 12.4562 8.93908 12.3952 8.95355 12.3377Z" fill="#5A5A5A"/>
</g>
</svg>
