<svg width="24" height="24" viewBox="0 0 24 24" fill="none" xmlns="http://www.w3.org/2000/svg">
<g id="smart_house_phone_remote">
<path id="Shape" fill-rule="evenodd" clip-rule="evenodd" d="M12.4618 2.95999L21.7501 10.48C21.9749 10.6666 22.0553 10.9676 21.9517 11.235C21.8481 11.5024 21.5823 11.6798 21.2851 11.68H19.5593C19.3292 11.68 19.1426 11.8591 19.1426 12.08V18.5176C19.1424 18.6992 19.067 18.8733 18.9331 19.0016C18.7992 19.1299 18.6177 19.2018 18.4285 19.2016H15.9585C15.8434 19.2016 15.7501 19.112 15.7501 19.0016V15.8016C15.7487 15.0361 15.367 14.3172 14.7226 13.8664C14.6439 13.8118 14.6152 13.7121 14.6535 13.6264C14.7039 13.5087 14.74 13.3857 14.761 13.26C14.7711 13.198 14.8109 13.1441 14.8685 13.1144C15.3618 12.8607 15.6895 12.3862 15.741 11.8512C15.7925 11.3162 15.5608 10.7922 15.1243 10.456C13.2811 9.09788 10.7175 9.09788 8.8743 10.456C8.44038 10.7925 8.21056 11.315 8.26198 11.8482C8.3134 12.3814 8.63925 12.8545 9.13013 13.1088C9.18787 13.1383 9.22772 13.1923 9.23763 13.2544C9.25858 13.3801 9.29465 13.5031 9.34513 13.6208C9.38309 13.7065 9.35441 13.806 9.27596 13.8608C8.63135 14.3116 8.2501 15.0311 8.25013 15.7968V18.9968C8.25013 19.1072 8.15686 19.1968 8.0418 19.1968H5.65347C5.25937 19.1972 4.93938 18.8911 4.93846 18.5128V12.08C4.93846 11.8591 4.75192 11.68 4.5218 11.68H2.71513C2.41797 11.6798 2.15221 11.5024 2.0486 11.235C1.94499 10.9676 2.02534 10.6666 2.25013 10.48L11.5385 2.95999C11.8051 2.74397 12.1952 2.74397 12.4618 2.95999ZM12.6968 13.6592C12.2964 13.3281 11.7039 13.3281 11.3035 13.6592H11.2968C11.0373 13.8534 10.6655 13.8216 10.4459 13.5863C10.2263 13.3511 10.234 12.9928 10.4635 12.7664C11.3451 12.0385 12.6485 12.0385 13.5301 12.7664C13.7596 12.9928 13.7673 13.3511 13.5477 13.5863C13.3281 13.8216 12.9563 13.8534 12.6968 13.6592ZM10.3076 12.1288C11.3023 11.3832 12.698 11.3832 13.6926 12.1288C13.9624 12.3265 14.3473 12.2815 14.5596 12.0272C14.7719 11.773 14.734 11.4026 14.4743 11.1928C13.0155 10.1161 10.9847 10.1161 9.52596 11.1928C9.26623 11.4026 9.22837 11.773 9.44068 12.0272C9.653 12.2815 10.0379 12.3265 10.3076 12.1288ZM14.7085 15.8016C14.708 15.0283 14.0556 14.4013 13.2501 14.4H10.7501C9.94529 14.4013 9.29317 15.0273 9.2918 15.8V20.6C9.29272 21.3728 9.9451 21.9991 10.7501 22H13.2501C14.0552 21.9991 14.7075 21.3728 14.7085 20.6V15.8016ZM13.2501 20.8H10.7501C10.6351 20.8 10.5418 20.7104 10.5418 20.6V15.8C10.5423 15.6897 10.6353 15.6004 10.7501 15.6H13.2501C13.365 15.6004 13.458 15.6897 13.4585 15.8V20.6C13.4585 20.7104 13.3652 20.8 13.2501 20.8Z" fill="#5A5A5A"/>
</g>
</svg>
