<?xml version="1.0" encoding="UTF-8"?>
<svg width="24px" height="24px" viewBox="0 0 24 24" version="1.1" xmlns="http://www.w3.org/2000/svg" xmlns:xlink="http://www.w3.org/1999/xlink">
    <title>6. Technology/smart_house_light_on</title>
    <g id="6.-Technology/smart_house_light_on" stroke="none" stroke-width="1" fill="none" fill-rule="evenodd">
        <path d="M12.5432138,15.1292215 C13.6071736,15.1292215 14.541314,15.836819 14.8294584,16.8610178 C15.1176027,17.8852167 14.6894349,18.976081 13.7815472,19.5308333 C13.7117531,19.5734876 13.6733772,19.6530376 13.6834343,19.7342131 C13.6934915,19.8153886 13.7501206,19.883168 13.8282138,19.9075 C14.647189,20.1611273 15.3717605,20.6535573 15.9090472,21.3216667 C16.0098234,21.4465479 16.0299279,21.618204 15.9607356,21.7629921 C15.8915432,21.9077801 15.7453522,22 15.5848805,22 L15.5848805,22 L9.50154716,22 C9.34261627,21.9979416 9.19870076,21.9056429 9.13053716,21.7620567 C9.06237357,21.6184706 9.0818372,21.4486121 9.18071383,21.3241667 C9.71646964,20.6557396 10.4395629,20.1624577 11.2573805,19.9075 C11.3355845,19.8833718 11.3924173,19.8156903 11.4026569,19.7344919 C11.4128965,19.6532935 11.374646,19.5736214 11.3048805,19.5308333 C10.3969927,18.976081 9.96882495,17.8852167 10.2569693,16.8610178 C10.5451136,15.836819 11.4792541,15.1292215 12.5432138,15.1292215 Z M13.6644577,11.4010857 C13.9558156,11.3248228 14.2656518,11.4117028 14.4748805,11.6283333 C16.103199,13.2527245 18.7390619,13.2527245 20.3673805,11.6283333 C20.692797,11.3030151 21.2202973,11.3030151 21.5457138,11.6283333 C21.8712624,11.9535198 21.8716354,12.4810201 21.5465472,12.8066667 C19.2671091,15.0817889 15.5759852,15.0817889 13.2965472,12.8066667 C13.0799167,12.5974379 12.9930367,12.2876018 13.0692995,11.9962439 C13.1455624,11.704886 13.3730999,11.4773486 13.6644577,11.4010857 Z M7.41821383,11.7916667 C7.7633918,11.7916667 8.04321383,12.0714887 8.04321383,12.4166667 L8.04321383,12.4166667 L8.04321383,13.25 C8.04321383,13.595178 7.7633918,13.875 7.41821383,13.875 C7.07303586,13.875 6.79321383,13.595178 6.79321383,13.25 L6.79321383,13.25 L6.79321383,12.4166667 C6.79321383,12.0714887 7.07303586,11.7916667 7.41821383,11.7916667 Z M10.3377972,10.9584668 C10.5036269,10.9584668 10.6626588,11.0243698 10.7798805,11.1416667 L10.7798805,11.1416667 L11.1965472,11.5583333 C11.3589443,11.7153318 11.4239935,11.9477389 11.3666931,12.1662292 C11.3093927,12.3847196 11.13866,12.5552914 10.9201157,12.6123857 C10.7015714,12.6694801 10.4692258,12.6042118 10.3123805,12.4416667 L10.3123805,12.4416667 L9.89571383,12.025 C9.77846755,11.9079206 9.71258524,11.7490267 9.71258524,11.5833333 C9.71258524,11.41764 9.77846755,11.2587461 9.89571383,11.1416667 C10.0129356,11.0243698 10.1719675,10.9584668 10.3377972,10.9584668 Z M4.0623805,11.1416667 C4.3075052,10.9046908 4.69732511,10.9078932 4.93852347,11.1488642 C5.17972183,11.3898352 5.18329179,11.7796519 4.94654716,12.025 L4.94654716,12.025 L4.5298805,12.4416667 C4.28475579,12.6786425 3.89493588,12.6754402 3.65373752,12.4344691 C3.41253916,12.1934981 3.4089692,11.8036814 3.64571383,11.5583333 L3.64571383,11.5583333 Z M19.1890472,8.925 C19.399685,8.71451102 19.7066169,8.63238512 19.9942246,8.70955835 C20.2818324,8.78673158 20.5064214,9.01147948 20.5833913,9.29914169 C20.6603612,9.5868039 20.5780183,9.89367769 20.3673805,10.1041667 C18.7402024,11.7313135 16.1020586,11.7313135 14.4748805,10.1041667 C14.2642427,9.89367769 14.1818998,9.58680391 14.2588697,9.2991417 C14.3358396,9.01147949 14.5604286,8.7867316 14.8480364,8.70955837 C15.1356441,8.63238514 15.442576,8.71451102 15.6532138,8.925 C16.6427083,9.86923509 18.1995527,9.86923509 19.1890472,8.925 Z M17.4182138,2 C17.8784511,2 18.2515472,2.37309604 18.2515472,2.83333333 L18.2515472,2.83333333 L18.2515472,4.91666667 C18.2517235,4.9242106 18.2550878,4.93132664 18.2608059,4.93625057 C18.266524,4.94117451 18.2740606,4.94344531 18.2815472,4.9425 L18.2815472,4.9425 L19.101217,4.9424417 C19.3312882,4.95912707 19.5403031,5.09158657 19.6523805,5.29833333 C19.761289,5.54429377 19.7159632,5.8312484 19.5365472,6.03166667 L19.5365472,6.03166667 L18.0723805,7.93 C17.921832,8.14012304 17.6792028,8.26476197 17.4207138,8.26476197 C17.1622249,8.26476197 16.9195957,8.14012304 16.7690472,7.93 L16.7690472,7.93 L15.3065472,6.0325 C15.1270477,5.83216451 15.0814126,5.54531514 15.1898805,5.29916667 C15.318096,5.06259455 15.5732117,4.92329228 15.8415472,4.94333333 L16.5607138,4.94333333 C16.5679295,4.94355893 16.5749284,4.94084933 16.5801111,4.9358237 C16.5852937,4.93079807 16.5882174,4.92388589 16.5882138,4.91666667 L16.5882138,4.91666667 L16.5882138,3.875 C16.5882138,3.75994068 16.4949398,3.66666667 16.3798805,3.66666667 L16.3798805,3.66666667 L8.46321383,3.66666667 C8.34945835,3.66848699 8.25819927,3.76122995 8.25821383,3.875 L8.25821383,3.875 L8.25821383,4.91666667 C8.25847355,4.98217952 8.28929271,5.04381785 8.34154716,5.08333333 C8.55138537,5.24071198 8.6748805,5.48770225 8.6748805,5.75 L8.6748805,5.75 L8.6748805,6.64 C8.67514021,6.70551286 8.70595937,6.76715118 8.75821383,6.80666667 L8.75821383,6.80666667 C9.56655985,7.38461711 9.90790057,8.42042154 9.60301425,9.36772842 C9.29812794,10.3150353 8.41670845,10.9573 7.42154716,10.9573 C6.42638587,10.9573 5.54496639,10.3150353 5.24008007,9.36772842 C4.93519376,8.42042154 5.27653448,7.38461711 6.0848805,6.80416667 C6.13734005,6.764822 6.16821383,6.70307444 6.16821383,6.6375 L6.16821383,6.6375 L6.16821383,5.75 C6.16821383,5.48770225 6.29170896,5.24071198 6.50154716,5.08333333 C6.55380162,5.04381785 6.58462078,4.98217952 6.5848805,4.91666667 L6.5848805,4.91666667 L6.5848805,2.83333333 C6.5848805,2.37309604 6.95797654,2 7.41821383,2 L7.41821383,2 Z M12.0015472,8.04165777 C12.1678843,8.04077952 12.3277131,8.1062357 12.4456453,8.22354223 C12.5635775,8.34084876 12.6298805,8.5003272 12.6298805,8.66666667 C12.6298805,8.83300613 12.5635775,8.99248457 12.4456453,9.1097911 C12.3277131,9.22709763 12.1678843,9.29255381 12.0015472,9.29167557 L12.0015472,9.29167557 L11.1682138,9.29167557 C10.8230359,9.29167557 10.5432138,9.01184464 10.5432138,8.66666667 C10.5432138,8.3214887 10.8230359,8.04165777 11.1682138,8.04165777 L11.1682138,8.04165777 Z M3.66821383,8.04165777 C3.83455093,8.04077952 3.9943798,8.1062357 4.11231197,8.22354223 C4.23024413,8.34084876 4.29654716,8.5003272 4.29654716,8.66666667 C4.29654716,8.83300613 4.23024413,8.99248457 4.11231197,9.1097911 C3.9943798,9.22709763 3.83455093,9.29255381 3.66821383,9.29167557 L3.66821383,9.29167557 L2.8348805,9.29167557 C2.48970253,9.29167557 2.2098805,9.01184464 2.2098805,8.66666667 C2.2098805,8.3214887 2.48970253,8.04165777 2.8348805,8.04165777 L2.8348805,8.04165777 Z" id="ðŸ–-Color" fill="#5A5A5A"></path>
        <rect id="_Transparent_Rectangle_" x="0" y="0" width="24" height="24"></rect>
    </g>
</svg>