<svg width="24" height="24" viewBox="0 0 24 24" fill="none" xmlns="http://www.w3.org/2000/svg">
<g id="smart_house_car">
<path id="Shape" fill-rule="evenodd" clip-rule="evenodd" d="M13.9004 10.75H14.2912C14.4063 10.75 14.4996 10.6567 14.4996 10.5417V9.08333C14.4996 8.85321 14.6861 8.66666 14.9162 8.66666H16.4637C16.6862 8.66611 16.8852 8.52814 16.9637 8.31999C17.0401 8.11182 16.977 7.8781 16.8062 7.73666L9.84623 2.12499C9.64514 1.95838 9.35397 1.95838 9.15289 2.12499L2.18956 7.73499C2.01878 7.87643 1.95567 8.11015 2.03206 8.31833C2.11048 8.52827 2.31128 8.66724 2.53539 8.66666H4.08289C4.31301 8.66666 4.49956 8.85321 4.49956 9.08333V13.9717C4.50185 14.2654 4.74162 14.5018 5.03539 14.5H10.8479C10.9435 14.5002 11.0271 14.4353 11.0504 14.3425L11.4746 12.6433C11.753 11.5304 12.7531 10.7497 13.9004 10.75ZM5.67956 7.98916C5.46314 7.72028 5.50527 7.32694 5.77373 7.10999C7.94197 5.3391 11.0571 5.3391 13.2254 7.10999C13.3993 7.25022 13.4851 7.47255 13.4506 7.69324C13.4161 7.91393 13.2665 8.09945 13.0581 8.17991C12.8497 8.26037 12.6143 8.22355 12.4404 8.08333C10.7288 6.68592 8.27028 6.68592 6.55873 8.08333C6.28984 8.29975 5.89651 8.25762 5.67956 7.98916ZM8.66623 11.5833C8.66623 12.0436 9.03932 12.4167 9.49956 12.4167C9.9598 12.4167 10.3329 12.0436 10.3329 11.5833C10.3329 11.1231 9.9598 10.75 9.49956 10.75C9.03932 10.75 8.66623 11.1231 8.66623 11.5833ZM11.0512 10.0908C10.148 9.35411 8.85117 9.35411 7.94789 10.0908C7.77595 10.2471 7.53151 10.2951 7.31325 10.2154C7.09499 10.1358 6.93893 9.94161 6.90807 9.71133C6.87721 9.48104 6.97664 9.25264 7.16623 9.11833C8.52597 8.00747 10.4798 8.00747 11.8396 9.11833C12.018 9.25705 12.1076 9.4813 12.074 9.70478C12.0403 9.92827 11.8886 10.1162 11.6773 10.1962C11.4659 10.2763 11.2278 10.236 11.0546 10.0908H11.0512ZM21.6337 16.8783L20.4162 15.6567C20.3895 15.63 20.3705 15.5966 20.3612 15.56L19.7112 12.9608C19.5369 12.2597 18.9071 11.7677 18.1846 11.7683H14.1521C13.4295 11.7674 12.7994 12.2595 12.6254 12.9608L11.9754 15.56C11.9662 15.5966 11.9471 15.63 11.9204 15.6567L10.6987 16.8783C10.4638 17.1121 10.332 17.4302 10.3329 17.7617V19.0833C10.3327 19.7049 10.7893 20.2322 11.4046 20.3208C11.507 20.3354 11.5831 20.4232 11.5829 20.5267V21.1667C11.5829 21.6269 11.956 22 12.4162 22C12.8765 22 13.2496 21.6269 13.2496 21.1667V20.5417C13.2496 20.4266 13.3428 20.3333 13.4579 20.3333H18.8746C18.9896 20.3333 19.0829 20.4266 19.0829 20.5417V21.1667C19.0829 21.6269 19.456 22 19.9162 22C20.3765 22 20.7496 21.6269 20.7496 21.1667V20.5267C20.7494 20.4232 20.8254 20.3354 20.9279 20.3208C21.5431 20.2322 21.9997 19.7049 21.9996 19.0833V17.7617C22.0004 17.4302 21.8687 17.1121 21.6337 16.8783ZM18.3329 14.6517C18.2933 14.7038 18.2317 14.7346 18.1662 14.735H14.1662C14.102 14.7352 14.0412 14.7056 14.0018 14.6549C13.9623 14.6042 13.9486 14.5381 13.9646 14.4758L14.1846 13.5967C14.207 13.5035 14.2904 13.438 14.3862 13.4383H17.9446C18.0404 13.438 18.1238 13.5035 18.1462 13.5967L18.3662 14.4758C18.382 14.5365 18.3698 14.601 18.3329 14.6517Z" fill="#5A5A5A"/>
</g>
</svg>
