<?xml version="1.0" encoding="UTF-8"?>
<svg width="24px" height="24px" viewBox="0 0 24 24" version="1.1" xmlns="http://www.w3.org/2000/svg" xmlns:xlink="http://www.w3.org/1999/xlink">
    <title>6. Technology/smart_house_window</title>
    <g id="6.-Technology/smart_house_window" stroke="none" stroke-width="1" fill="none" fill-rule="evenodd">
        <path d="M13.8,16.1666667 C13.9104569,16.1666667 14,16.2599407 14,16.375 L14,16.375 L14,20.5416667 C14,21.2320226 13.4627417,21.7916667 12.8,21.7916667 L12.8,21.7916667 L8.8,21.7916667 C8.68954305,21.7916667 8.6,21.6983927 8.6,21.5833333 L8.6,21.5833333 L8.6,16.375 C8.6,16.2599407 8.68954305,16.1666667 8.8,16.1666667 L8.8,16.1666667 Z M7.2,16.1666667 C7.31045695,16.1666667 7.4,16.2599407 7.4,16.375 L7.4,16.375 L7.4,21.5833333 C7.4,21.6983927 7.31045695,21.7916667 7.2,21.7916667 L7.2,21.7916667 L3.2,21.7916667 C2.5372583,21.7916667 2,21.2320226 2,20.5416667 L2,20.5416667 L2,16.375 C2,16.2599407 2.08954305,16.1666667 2.2,16.1666667 L2.2,16.1666667 Z M9.336,9.29 C9.41615985,9.29 9.48857734,9.33984972 9.52,9.41666667 C9.61745729,9.65738682 9.75841293,9.87635692 9.9352,10.0616667 C11.0127851,11.1869401 12.3662216,11.9825095 13.848,12.3616667 C13.9372453,12.3843399 14,12.4676445 14,12.5633333 L14,12.5633333 L14,14.7083333 C14,14.8233927 13.9104569,14.9166667 13.8,14.9166667 L13.8,14.9166667 L8.8,14.9166667 C8.68954305,14.9166667 8.59999359,14.8233927 8.59999359,14.7083333 L8.59999359,14.7083333 L8.59999359,9.5 C8.59957343,9.44445836 8.62045633,9.39103878 8.65800994,9.35160749 C8.69556355,9.3121762 8.74667832,9.29 8.8,9.29 L8.8,9.29 Z M7.2,9.29166667 C7.31045695,9.29166667 7.4,9.38494068 7.4,9.5 L7.4,9.5 L7.4,14.7083333 C7.4,14.8233927 7.31045695,14.9166667 7.2,14.9166667 L7.2,14.9166667 L2.2,14.9166667 C2.08954305,14.9166667 2,14.8233927 2,14.7083333 L2,14.7083333 L2,10.5416667 C2,9.85131073 2.5372583,9.29166667 3.2,9.29166667 L3.2,9.29166667 Z M19.8344,7.655 C20.0352596,7.43836951 20.3327023,7.3514895 20.6124059,7.42775237 C20.8921094,7.50401524 21.1105454,7.7315527 21.1837577,8.02291056 C21.2569701,8.31426842 21.1735653,8.62410461 20.9656,8.83333333 C19.6158676,10.2401921 17.7838098,11.0291587 15.8744,11.0258438 C13.9649902,11.0291587 12.1329324,10.2401921 10.7832,8.83333333 C10.5752347,8.62410461 10.4918299,8.31426842 10.5650423,8.02291056 C10.6382546,7.7315527 10.8566906,7.50401524 11.1363941,7.42775237 C11.4160977,7.3514895 11.7135404,7.43836951 11.9144,7.655 C14.1028427,9.9296636 17.6459573,9.9296636 19.8344,7.655 Z M12.4804,5.05291667 C12.7929932,4.7275289 13.2996277,4.72771545 13.612,5.05333333 C14.2121212,5.67849175 15.0260787,6.02970479 15.8748,6.02970479 C16.7235213,6.02970479 17.5374788,5.67849175 18.1376,5.05333333 C18.4515031,4.73752316 18.9504678,4.74203969 19.2590549,5.06348452 C19.5676419,5.38492935 19.5719778,5.90468426 19.2688,6.23166667 C18.3702636,7.17204611 17.1481113,7.69921868 15.8744,7.6958574 C14.6005478,7.6999624 13.3781314,7.17267588 12.48,6.23166667 C12.1676277,5.90604878 12.1678068,5.37830443 12.4804,5.05291667 Z M16.4408,2.4525 C16.6416596,2.23586951 16.9391023,2.1489895 17.2188059,2.22525237 C17.4985094,2.30151524 17.7169454,2.5290527 17.7901577,2.82041056 C17.8633701,3.11176842 17.7799653,3.42160461 17.572,3.63083333 C17.1219587,4.09992283 16.5110547,4.36292296 15.8744,4.36167115 C15.2379875,4.36288547 14.6273454,4.09987416 14.1776,3.63083333 C13.9696347,3.42160461 13.8862299,3.11176842 13.9594423,2.82041056 C14.0326546,2.5290527 14.2510906,2.30151524 14.5307941,2.22525237 C14.8104977,2.1489895 15.1079404,2.23586951 15.3088,2.4525 C15.4588546,2.60898087 15.6624726,2.69690555 15.8748,2.69690555 C16.0871274,2.69690555 16.2907454,2.60898087 16.4408,2.4525 Z" id="ðŸ–-Color" fill="#5A5A5A"></path>
        <rect id="_Transparent_Rectangle_" x="0" y="0" width="24" height="24"></rect>
    </g>
</svg>