<?xml version="1.0" encoding="UTF-8"?>
<svg width="24px" height="24px" viewBox="0 0 24 24" version="1.1" xmlns="http://www.w3.org/2000/svg" xmlns:xlink="http://www.w3.org/1999/xlink">
    <title>6. Technology/smart_house_open</title>
    <g id="6.-Technology/smart_house_open" stroke="none" stroke-width="1" fill="none" fill-rule="evenodd">
        <path d="M6.67916667,9.22333174 C6.72143252,9.22316761 6.76273299,9.23596493 6.7975,9.26 C8.04094963,10.1208301 9.47868544,10.6594441 10.9816667,10.8275 C11.0868951,10.8393601 11.1664858,10.9282721 11.1666667,11.0341667 L11.1666667,11.0341667 L11.1666667,20.4733333 C11.1666667,21.1636893 10.6070226,21.7233317 9.91666667,21.7233317 L9.91666667,21.7233317 L3.25,21.7233317 C2.55964406,21.7233317 2,21.1636893 2,20.4733333 L2,20.4733333 L2,10.4733333 C2,9.7829774 2.55964406,9.22333174 3.25,9.22333174 L3.25,9.22333174 Z M20.75,9.22333333 C21.4403559,9.22333333 22,9.7829774 22,10.4733333 L22,10.4733333 L22,20.4733333 C22,21.1636893 21.4403559,21.7233333 20.75,21.7233333 L20.75,21.7233333 L14.0833333,21.7233333 C13.3929774,21.7233333 12.833333,21.1636893 12.833333,20.4733333 L12.833333,20.4733333 L12.833333,11.0341667 C12.833134,10.9281268 12.9129185,10.8389981 13.0183333,10.8275 C14.5213146,10.6594441 15.9590504,10.1208301 17.2025,9.26 C17.237337,9.23610924 17.2785913,9.22333333 17.3208333,9.22333333 L17.3208333,9.22333333 Z M7.2212561,12.9902524 C6.92989824,12.9139895 6.62006206,13.0008695 6.41083333,13.2175 L6.41083333,13.2175 L4.74416667,14.8841667 C4.41884838,15.2095832 4.41884838,15.7370835 4.74416667,16.0625 L4.74416667,16.0625 L6.41083333,17.7291667 C6.62006206,17.9457972 6.92989824,18.0326772 7.2212561,17.9564143 C7.51261396,17.8801514 7.74015143,17.652614 7.8164143,17.3612561 C7.89267716,17.0698982 7.80579715,16.7600621 7.58916667,16.5508333 L7.58916667,16.5508333 L6.65916667,15.6208333 C6.61998262,15.5817482 6.59796092,15.528678 6.59796092,15.4733333 C6.59796092,15.4179886 6.61998262,15.3649184 6.65916667,15.3258333 L6.65916667,15.3258333 L7.58916667,14.3958333 C7.80579715,14.1866046 7.89267716,13.8767684 7.8164143,13.5854106 C7.74015143,13.2940527 7.51261396,13.0665152 7.2212561,12.9902524 Z M17.5891667,13.2175 C17.3799379,13.0008695 17.0701018,12.9139895 16.7787439,12.9902524 C16.487386,13.0665152 16.2598486,13.2940527 16.1835857,13.5854106 C16.1073228,13.8767684 16.1942028,14.1866046 16.4108333,14.3958333 L16.4108333,14.3958333 L17.3408333,15.3258333 C17.3800174,15.3649184 17.4020391,15.4179886 17.4020391,15.4733333 C17.4020391,15.528678 17.3800174,15.5817482 17.3408333,15.6208333 L17.3408333,15.6208333 L16.4108333,16.5508333 C16.0950232,16.8778157 16.0995397,17.3975706 16.4209845,17.7190155 C16.7424294,18.0404603 17.2621843,18.0449768 17.5891667,17.7291667 L17.5891667,17.7291667 L19.2558333,16.0625 C19.5811516,15.7370835 19.5811516,15.2095832 19.2558333,14.8841667 L19.2558333,14.8841667 Z M16.7141667,5.81186885 C16.87986,5.81186885 17.0387539,5.87775373 17.1558333,5.995 C17.2731302,6.11222173 17.3390332,6.27125363 17.3390332,6.43708333 C17.3390332,6.60291304 17.2731302,6.76194494 17.1558333,6.87916667 C15.7891451,8.24728365 13.9337973,9.01467254 12,9.01167546 C10.0659869,9.01452598 8.21043405,8.2471763 6.84333333,6.87916667 C6.68539217,6.7212255 6.62370912,6.49102124 6.6815196,6.2752696 C6.73933008,6.05951796 6.9078513,5.89099675 7.12360294,5.83318627 C7.33935458,5.77537579 7.56955884,5.83705884 7.7275,5.995 C10.0887196,8.35081166 13.9112804,8.35081166 16.2725,5.995 C16.3895794,5.87775373 16.5484733,5.81186885 16.7141667,5.81186885 Z M14.9458333,4.04437141 C15.1115267,4.04437141 15.2704206,4.11025373 15.3875,4.2275 C15.6204509,4.47619064 15.6204509,4.86297602 15.3875,5.11166667 C14.4911384,6.01318698 13.2712948,6.51852931 12,6.51501836 C10.7287052,6.51852931 9.50886159,6.01318698 8.6125,5.11166667 C8.37954911,4.86297602 8.37954911,4.47619064 8.6125,4.2275 C8.72957941,4.11025373 8.88847335,4.04437141 9.05416667,4.04437141 C9.21985999,4.04437141 9.37875393,4.11025373 9.49583333,4.2275 C10.1584906,4.89390036 11.0602139,5.26749286 12,5.265 C12.9397861,5.26749286 13.8415094,4.89390036 14.5041667,4.2275 C14.6212461,4.11025373 14.78014,4.04437141 14.9458333,4.04437141 Z M12.7366667,2.46333333 C12.8924755,2.29612235 13.1271296,2.22729235 13.3485741,2.28384538 C13.5700186,2.34039841 13.7429349,2.51331477 13.799488,2.73475924 C13.856041,2.95620371 13.787211,3.19085785 13.62,3.34666667 C13.1900626,3.7753598 12.6071411,4.01524516 12,4.01334467 C11.3928589,4.01524516 10.8099374,3.7753598 10.38,3.34666667 C10.212789,3.19085785 10.143959,2.95620371 10.200512,2.73475924 C10.2570651,2.51331477 10.4299814,2.34039841 10.6514259,2.28384538 C10.8728704,2.22729235 11.1075245,2.29612235 11.2633333,2.46333333 C11.6705317,2.86934058 12.3294683,2.86934058 12.7366667,2.46333333 Z" id="ðŸ–-Color" fill="#5A5A5A"></path>
        <rect id="_Transparent_Rectangle_" x="0" y="0" width="24" height="24"></rect>
    </g>
</svg>