<svg width="24" height="24" viewBox="0 0 24 24" fill="none" xmlns="http://www.w3.org/2000/svg">
<g id="smart_house">
<path id="Shape" fill-rule="evenodd" clip-rule="evenodd" d="M22 21.1666C22 20.7063 21.6269 20.3332 21.1667 20.3332H12.625C12.5099 20.3332 12.4167 20.24 12.4167 20.1249V17.6249C12.4167 17.5099 12.5099 17.4166 12.625 17.4166H17.4167C18.107 17.4166 18.6667 16.8569 18.6667 16.1666V10.9224C18.6665 10.838 18.7173 10.7619 18.7952 10.7296C18.8732 10.6973 18.9629 10.7152 19.0225 10.7749L20.3083 12.0607C20.4653 12.2231 20.6977 12.2882 20.9162 12.2309C21.1347 12.1736 21.3053 12.0029 21.3624 11.7843C21.4195 11.5658 21.3542 11.3334 21.1917 11.1766L12.32 2.30491C11.913 1.89844 11.2537 1.89844 10.8467 2.30491L2.18333 10.9682C1.94636 11.2134 1.94956 11.6032 2.19053 11.8444C2.4315 12.0856 2.82132 12.0892 3.06667 11.8524L4.14417 10.7749C4.20376 10.7152 4.2935 10.6973 4.37144 10.7296C4.44939 10.7619 4.50015 10.838 4.5 10.9224V16.1666C4.5 16.8569 5.05964 17.4166 5.75 17.4166H10.5417C10.6567 17.4166 10.75 17.5099 10.75 17.6249V20.1249C10.75 20.24 10.6567 20.3332 10.5417 20.3332H2.83333C2.3731 20.3332 2 20.7063 2 21.1666C2 21.6268 2.3731 21.9999 2.83333 21.9999H21.1667C21.6269 21.9999 22 21.6268 22 21.1666ZM9.91667 16.1666C9.68655 16.1666 9.5 15.98 9.5 15.7499V11.5832C9.5 11.3531 9.68655 11.1666 9.91667 11.1666H13.25C13.4801 11.1666 13.6667 11.3531 13.6667 11.5832V15.7499C13.6667 15.98 13.4801 16.1666 13.25 16.1666H9.91667Z" fill="#5A5A5A"/>
</g>
</svg>
