<svg width="24" height="24" viewBox="0 0 24 24" fill="none" xmlns="http://www.w3.org/2000/svg">
<g id="smart_house_window">
<path id="Shape" fill-rule="evenodd" clip-rule="evenodd" d="M17.572 3.63082C17.122 4.09991 16.5111 4.36291 15.8744 4.36165C15.238 4.36287 14.6273 4.09986 14.1776 3.63082C13.9696 3.42159 13.8862 3.11175 13.9594 2.8204C14.0327 2.52904 14.2511 2.3015 14.5308 2.22524C14.8105 2.14898 15.1079 2.23586 15.3088 2.45249C15.4589 2.60897 15.6625 2.69689 15.8748 2.69689C16.0871 2.69689 16.2907 2.60897 16.4408 2.45249C16.6417 2.23586 16.9391 2.14898 17.2188 2.22524C17.4985 2.3015 17.7169 2.52904 17.7902 2.8204C17.8634 3.11175 17.78 3.42159 17.572 3.63082ZM9.9352 10.0617C9.75841 9.87634 9.61746 9.65737 9.52 9.41665C9.48858 9.33984 9.41616 9.28998 9.336 9.28999H8.8C8.74668 9.28998 8.69556 9.31216 8.65801 9.35159C8.62046 9.39103 8.59957 9.44445 8.6 9.49999V14.7083C8.6 14.8234 8.68954 14.9167 8.8 14.9167H13.8C13.9105 14.9167 14 14.8234 14 14.7083V12.5633C14 12.4676 13.9372 12.3843 13.848 12.3617C12.3662 11.9825 11.0128 11.1869 9.9352 10.0617ZM7.2 14.9167C7.31046 14.9167 7.4 14.8234 7.4 14.7083V9.49999C7.4 9.38493 7.31046 9.29165 7.2 9.29165H3.2C2.53726 9.29165 2 9.8513 2 10.5417V14.7083C2 14.8234 2.08954 14.9167 2.2 14.9167H7.2ZM8.6 16.375C8.6 16.2599 8.68954 16.1667 8.8 16.1667H13.8C13.9105 16.1667 14 16.2599 14 16.375V20.5417C14 21.232 13.4627 21.7917 12.8 21.7917H8.8C8.68954 21.7917 8.6 21.6984 8.6 21.5833V16.375ZM7.4 16.375C7.4 16.2599 7.31046 16.1667 7.2 16.1667H2.2C2.08954 16.1667 2 16.2599 2 16.375V20.5417C2 21.232 2.53726 21.7917 3.2 21.7917H7.2C7.31046 21.7917 7.4 21.6984 7.4 21.5833V16.375ZM15.8744 7.69582C17.1481 7.69921 18.3703 7.17203 19.2688 6.23165C19.572 5.90467 19.5676 5.38492 19.2591 5.06347C18.9505 4.74203 18.4515 4.73751 18.1376 5.05332C17.5375 5.67848 16.7235 6.02969 15.8748 6.02969C15.0261 6.02969 14.2121 5.67848 13.612 5.05332C13.2996 4.7277 12.793 4.72752 12.4804 5.0529C12.1678 5.37829 12.1676 5.90604 12.48 6.23165C13.3781 7.17266 14.6005 7.69995 15.8744 7.69582ZM20.9656 8.83332C19.6159 10.2402 17.7838 11.0291 15.8744 11.0258C13.965 11.0291 12.1329 10.2402 10.7832 8.83332C10.5752 8.62409 10.4918 8.31425 10.565 8.0229C10.6383 7.73154 10.8567 7.504 11.1364 7.42774C11.4161 7.35148 11.7135 7.43836 11.9144 7.65499C14.1028 9.92965 17.646 9.92965 19.8344 7.65499C20.0353 7.43836 20.3327 7.35148 20.6124 7.42774C20.8921 7.504 21.1105 7.73154 21.1838 8.0229C21.257 8.31425 21.1736 8.62409 20.9656 8.83332Z" fill="#5A5A5A"/>
</g>
</svg>
