<?xml version="1.0" encoding="UTF-8"?>
<svg width="24px" height="24px" viewBox="0 0 24 24" version="1.1" xmlns="http://www.w3.org/2000/svg" xmlns:xlink="http://www.w3.org/1999/xlink">
    <title>6. Technology/smart_house</title>
    <g id="6.-Technology/smart_house" stroke="none" stroke-width="1" fill="none" fill-rule="evenodd">
        <path d="M22,21.1665913 C22,20.7063541 21.626904,20.333258 21.1666667,20.333258 L12.625,20.333258 C12.5099407,20.333258 12.4166667,20.239984 12.4166667,20.1249247 L12.4166667,17.6249247 C12.4166667,17.5098654 12.5099407,17.4165913 12.625,17.4165913 L17.4166667,17.4165913 C18.1070226,17.4165913 18.6666667,16.8569473 18.6666667,16.1665913 L18.6666667,10.9224247 C18.6665157,10.838046 18.7172762,10.7619086 18.7952236,10.7295979 C18.8731711,10.6972871 18.9629108,10.7151843 19.0225,10.7749247 L20.3083333,12.060758 C20.4653318,12.2231552 20.6977389,12.2882043 20.9162292,12.2309039 C21.1347196,12.1736035 21.3052914,12.0028708 21.3623857,11.7843265 C21.4194801,11.5657822 21.3542118,11.3334366 21.1916667,11.1765913 L12.32,2.30492468 C11.9129913,1.89845887 11.2536754,1.89845887 10.8466667,2.30492468 L2.18333333,10.968258 C1.94635746,11.2133827 1.94955984,11.6032026 2.19053087,11.844401 C2.4315019,12.0855993 2.82131861,12.0891693 3.06666667,11.8524247 L4.14416667,10.7749247 C4.20375591,10.7151843 4.2934956,10.6972871 4.37144304,10.7295979 C4.44939047,10.7619086 4.50015097,10.838046 4.5,10.9224247 L4.5,16.1665913 C4.5,16.8569473 5.05964406,17.4165913 5.75,17.4165913 L10.5416667,17.4165913 C10.656726,17.4165913 10.75,17.5098654 10.75,17.6249247 L10.75,20.1249247 C10.75,20.239984 10.656726,20.333258 10.5416667,20.333258 L2.83333333,20.333258 C2.37309604,20.333258 2,20.7063541 2,21.1665913 C2,21.6268286 2.37309604,21.9999247 2.83333333,21.9999247 L21.1666667,21.9999247 C21.626904,21.9999247 22,21.6268286 22,21.1665913 Z M9.91666667,16.1665913 C9.68654802,16.1665913 9.5,15.9800433 9.5,15.7499247 L9.5,11.583258 C9.5,11.3531394 9.68654802,11.1665913 9.91666667,11.1665913 L13.25,11.1665913 C13.4801186,11.1665913 13.6666667,11.3531394 13.6666667,11.583258 L13.6666667,15.7499247 C13.6666667,15.9800433 13.4801186,16.1665913 13.25,16.1665913 L9.91666667,16.1665913 Z" id="ðŸ–-Color" fill="#5A5A5A"></path>
        <rect id="_Transparent_Rectangle_" x="0" y="0" width="24" height="24"></rect>
    </g>
</svg>