<?xml version="1.0" encoding="UTF-8"?>
<svg width="24px" height="24px" viewBox="0 0 24 24" version="1.1" xmlns="http://www.w3.org/2000/svg" xmlns:xlink="http://www.w3.org/1999/xlink">
    <title>6. Technology/smart_house_phone</title>
    <g id="6.-Technology/smart_house_phone" stroke="none" stroke-width="1" fill="none" fill-rule="evenodd">
        <path d="M13.7191667,9.44761702 C14.8122302,9.44761702 15.6983333,10.3337201 15.6983333,11.4267837 L15.6983333,11.4267837 L15.6983333,16.1142837 L17.4683333,16.1142837 C19.7111734,16.1165795 21.5289108,17.9339441 21.5316667,20.1767837 L21.5316667,20.1767837 L21.5316667,21.010117 C21.5316667,21.4128246 21.2052076,21.7392837 20.8025,21.7392837 C20.3997924,21.7392837 20.0733333,21.4128246 20.0733333,21.010117 L20.0733333,21.010117 L20.0733333,20.1767837 C20.071038,18.7391687 18.9059489,17.5744524 17.4683333,17.572617 L17.4683333,17.572617 L14.9683333,17.572617 C14.7750229,17.5726171 14.589642,17.4957679 14.453029,17.3589986 C14.3164161,17.2222293 14.2397788,17.0367607 14.24,16.8434503 L14.24,16.8434503 L14.24,11.4267837 C14.24,11.1391354 14.006815,10.9059503 13.7191667,10.9059503 C13.4315184,10.9059503 13.1983333,11.1391354 13.1983333,11.4267837 L13.1983333,11.4267837 L13.1983333,19.6184503 C13.1982658,19.9256075 13.005722,20.1997865 12.7168241,20.3041107 C12.4279263,20.4084349 12.1046304,20.3205314 11.9083333,20.0842837 L11.9083333,20.0842837 L9.9525,17.730117 C9.83341147,17.5870619 9.64705014,17.5184065 9.46361653,17.5500127 C9.28018291,17.5816188 9.12754494,17.7086848 9.06319986,17.883346 C8.99885477,18.0580072 9.03257813,18.2537286 9.15166667,18.3967837 L9.15166667,18.3967837 L10.9375,20.5442837 C11.1950027,20.8540234 11.1526563,21.3138642 10.8429166,21.571367 C10.533177,21.8288698 10.0733361,21.7865234 9.81583333,21.4767837 L9.81583333,21.4767837 L8.03,19.3292837 C7.57302935,18.7860365 7.44200503,18.0396575 7.68662463,17.3732485 C7.93124424,16.7068396 8.51403663,16.2224821 9.21394829,16.1038933 C9.91385995,15.9853045 10.6236775,16.2506498 11.0741667,16.7992837 L11.0741667,16.7992837 L11.3708333,17.1559503 C11.427264,17.2229725 11.5194861,17.2477224 11.6018911,17.2179599 C11.6842962,17.1881973 11.7394196,17.1102301 11.74,17.022617 L11.74,17.022617 L11.74,11.4267837 C11.74,10.3337201 12.6261031,9.44761702 13.7191667,9.44761702 Z M11.2708333,2.26011702 C12.392511,2.26103605 13.301581,3.17010606 13.3025,4.29178368 L13.3025,4.29178368 L13.3025,8.36845035 C13.3025,8.46746464 13.2328471,8.55281416 13.1358333,8.57261702 C12.8642798,8.62763675 12.6021183,8.72166687 12.3575,8.85178368 C12.2928683,8.88546798 12.215363,8.8830809 12.1529267,8.84548302 C12.0904904,8.80788515 12.0521267,8.74049828 12.0516667,8.66761702 L12.0516667,8.66761702 L12.0516667,4.63428368 C12.0512263,4.5428594 12.0144279,4.45536722 11.9493908,4.39111177 C11.8843537,4.32685632 11.7964229,4.29111851 11.705,4.29178368 L11.705,4.29178368 L4.06583333,4.29178368 C3.97433293,4.29111823 3.88631604,4.32682968 3.82114663,4.3910614 C3.75597721,4.45529313 3.71899398,4.54278324 3.71833333,4.63428368 L3.71833333,4.63428368 L3.71833333,15.2509503 C3.71899398,15.3424508 3.75597721,15.4299409 3.82114663,15.4941726 C3.88631604,15.5584044 3.97433293,15.5941158 4.06583333,15.5934503 L4.06583333,15.5934503 L7.60416667,15.5934503 C7.65870925,15.592646 7.70780027,15.6264089 7.72656231,15.6776293 C7.74532435,15.7288497 7.72965705,15.7863335 7.6875,15.8209503 C6.96127177,16.4252745 6.57275156,17.3439338 6.645,18.2859503 C6.65003919,18.3439006 6.63001791,18.4012343 6.59,18.4434503 C6.55075697,18.4860639 6.49543026,18.5101176 6.4375,18.5101176 L6.4375,18.5101176 L4.5,18.5101176 C3.37864736,18.5091987 2.46971167,17.6006359 2.46833333,16.4792837 L2.46833333,16.4792837 L2.46833333,4.29178368 C2.4697108,3.17029623 3.37851254,2.26149448 4.5,2.26011702 L4.5,2.26011702 Z M7.96916667,7.59095035 C8.04141604,7.53016668 8.1469173,7.53016668 8.21916667,7.59095035 L8.21916667,7.59095035 L11.15,9.77595035 C11.2114092,9.82727851 11.2340687,9.91158531 11.2066667,9.98678368 C11.1775539,10.0618249 11.1054897,10.1114103 11.025,10.1117837 L11.025,10.1117837 L10.155,10.1117837 C10.0996786,10.1115611 10.0465588,10.1334389 10.0074403,10.1725573 C9.96832189,10.2116758 9.94644404,10.2647956 9.94666667,10.320117 L9.94666667,10.320117 L9.94666667,12.1067837 C9.94620899,12.2639949 9.81887785,12.391326 9.66166667,12.3917854 L9.66166667,12.3917854 L8.92666667,12.3917854 C8.81160734,12.3917854 8.71833333,12.2985097 8.71833333,12.1834503 L8.71833333,12.1834503 L8.71833333,11.4267837 C8.71833333,11.0816057 8.4385113,10.8017837 8.09333333,10.8017837 C7.74815536,10.8017837 7.46833333,11.0816057 7.46833333,11.4267837 L7.46833333,11.4267837 L7.46833333,12.1834503 C7.46855596,12.2387717 7.44667811,12.2918916 7.40755967,12.33101 C7.36844123,12.3701285 7.31532138,12.3920063 7.26,12.3917854 L7.26,12.3917854 L6.52583333,12.3917854 C6.36843218,12.3917854 6.24083333,12.2641848 6.24083333,12.1067837 L6.24083333,12.1067837 L6.24083333,10.320117 C6.24105596,10.2647956 6.21917811,10.2116758 6.18005967,10.1725573 C6.14094123,10.1334389 6.08782138,10.1115611 6.0325,10.1117837 L6.0325,10.1117837 L5.1625,10.1117837 C5.08171396,10.1123659 5.00915954,10.0624431 4.98083333,9.98678368 C4.9523725,9.91163468 4.97519945,9.82670499 5.0375,9.77595035 L5.0375,9.77595035 Z" id="ðŸ–-Color" fill="#5A5A5A"></path>
        <rect id="_Transparent_Rectangle_" x="-0.106935167" y="0.595685504" width="24" height="24"></rect>
    </g>
</svg>