<?xml version="1.0" encoding="UTF-8"?>
<svg width="24px" height="24px" viewBox="0 0 24 24" version="1.1" xmlns="http://www.w3.org/2000/svg" xmlns:xlink="http://www.w3.org/1999/xlink">
    <title>6. Technology/smart_house_phone_remote</title>
    <g id="6.-Technology/smart_house_phone_remote" stroke="none" stroke-width="1" fill="none" fill-rule="evenodd">
        <path d="M13.25,14.4 C14.0554943,14.4013232 14.707875,15.0283245 14.7083333,15.8016 L14.7083333,15.8016 L14.7083333,20.6 C14.7074149,21.3728331 14.0550345,21.9991183 13.25,22 L13.25,22 L10.75,22 C9.94496549,21.9991183 9.29258513,21.3728331 9.29166667,20.6 L9.29166667,20.6 L9.29166667,15.8 C9.29304286,15.0273493 9.94515547,14.4013211 10.75,14.4 L10.75,14.4 Z M13.25,15.6 L10.75,15.6 C10.6351304,15.6004385 10.5421234,15.6897252 10.5416667,15.8 L10.5416667,15.8 L10.5416667,20.6 C10.5416667,20.7104569 10.6349407,20.8 10.75,20.8 L10.75,20.8 L13.25,20.8 C13.3650593,20.8 13.4583333,20.7104569 13.4583333,20.6 L13.4583333,20.6 L13.4583333,15.8 C13.4578766,15.6897252 13.3648696,15.6004385 13.25,15.6 L13.25,15.6 Z M11.5383333,2.96 C11.8049813,2.74397786 12.1950187,2.74397786 12.4616667,2.96 L12.4616667,2.96 L21.75,10.48 C21.9747887,10.6665908 22.0551445,10.9676241 21.9515353,11.2350027 C21.8479262,11.5023813 21.5821664,11.6798098 21.285,11.68 L21.285,11.68 L19.5591667,11.68 C19.329048,11.68 19.1425,11.8590861 19.1425,12.08 L19.1425,12.08 L19.1425,18.5176 C19.1422791,18.6992203 19.0669126,18.8733176 18.9329804,19.0015925 C18.7990481,19.1298675 18.6175211,19.2018123 18.4283333,19.2016005 L18.4283333,19.2016005 L15.9583333,19.2016005 C15.843274,19.2016005 15.75,19.1120569 15.75,19.0016 L15.75,19.0016 L15.75,15.8016 C15.7485641,15.0361418 15.3668687,14.3172543 14.7225,13.8664 C14.6437805,13.8117966 14.6150431,13.7120812 14.6533333,13.6264 C14.7038099,13.5086699 14.7398846,13.3857142 14.7608333,13.26 C14.7709974,13.1980065 14.8107684,13.14414 14.8683333,13.1144 C15.3616433,12.860684 15.6893794,12.3862215 15.7408637,11.8512405 C15.792348,11.3162595 15.560707,10.7921853 15.1241667,10.456 C13.2809972,9.09789155 10.7173361,9.09789155 8.87416667,10.456 C8.44024961,10.7924624 8.21042369,11.315 8.2618441,11.8481911 C8.3132645,12.3813822 8.63911356,12.8545325 9.13,13.1088 C9.18774226,13.1383471 9.22758423,13.1923098 9.2375,13.2544 C9.25844878,13.3801142 9.2945234,13.5030699 9.345,13.6208 C9.38296203,13.7065023 9.35428257,13.8060166 9.27583333,13.8608 C8.63122253,14.3116432 8.24997066,15.0311593 8.25,15.7968 L8.25,15.7968 L8.25,18.9968 C8.25,19.1072569 8.15672599,19.1968 8.04166667,19.1968 L8.04166667,19.1968 L5.65333333,19.1968 C5.25923469,19.1972425 4.93925278,18.8911339 4.93833333,18.5128 L4.93833333,18.5128 L4.93833333,12.08 C4.93833333,11.8590861 4.75178531,11.68 4.52166667,11.68 L4.52166667,11.68 L2.715,11.68 C2.41783364,11.6798098 2.15207385,11.5023813 2.04846466,11.2350027 C1.94485547,10.9676241 2.02521128,10.6665908 2.25,10.48 L2.25,10.48 Z M10.4633333,12.7664 C11.3449736,12.0385555 12.6483597,12.0385555 13.53,12.7664 C13.7594579,12.9927839 13.7671288,13.3510794 13.5475539,13.5863231 C13.3279791,13.8215668 12.9561527,13.853413 12.6966667,13.6592 C12.2962493,13.328107 11.7037507,13.328107 11.3033333,13.6592 L11.3033333,13.6592 C11.0371807,13.853413 10.6653542,13.8215668 10.4457794,13.5863231 C10.2262046,13.3510794 10.2338754,12.9927839 10.4633333,12.7664 Z M9.52583333,11.1928 C10.9846112,10.1160687 13.0153888,10.1160687 14.4741667,11.1928 C14.7339017,11.4025701 14.771761,11.7730054 14.5594482,12.0272375 C14.3471354,12.2814697 13.9622675,12.3265568 13.6925,12.1288 C12.6978295,11.3831668 11.3021705,11.3831668 10.3075,12.1288 C10.0377325,12.3265568 9.65286463,12.2814697 9.44055179,12.0272375 C9.22823895,11.7730054 9.26609834,11.4025701 9.52583333,11.1928 Z" id="ðŸ–-Color" fill="#5A5A5A"></path>
        <rect id="_Transparent_Rectangle_" x="0" y="0" width="24" height="24"></rect>
    </g>
</svg>