<svg width="24" height="24" viewBox="0 0 24 24" fill="none" xmlns="http://www.w3.org/2000/svg">
<g id="smart_house_open">
<path id="Shape" fill-rule="evenodd" clip-rule="evenodd" d="M13.62 3.34668C13.1901 3.77537 12.6071 4.01526 12 4.01334C11.3929 4.01526 10.8099 3.77537 10.38 3.34668C10.2128 3.19087 10.144 2.95622 10.2005 2.73477C10.2571 2.51333 10.43 2.34041 10.6514 2.28386C10.8729 2.2273 11.1075 2.29613 11.2633 2.46334C11.6705 2.86935 12.3295 2.86935 12.7367 2.46334C12.8925 2.29613 13.1271 2.2273 13.3486 2.28386C13.57 2.34041 13.7429 2.51333 13.7995 2.73477C13.856 2.95622 13.7872 3.19087 13.62 3.34668ZM6.67917 9.22334C6.72143 9.22318 6.76273 9.23598 6.7975 9.26001C8.04095 10.1208 9.47869 10.6595 10.9817 10.8275C11.0869 10.8394 11.1665 10.9283 11.1667 11.0342V20.4733C11.1667 21.1637 10.607 21.7233 9.91667 21.7233H3.25C2.55964 21.7233 2 21.1637 2 20.4733V10.4733C2 9.78299 2.55964 9.22334 3.25 9.22334H6.67917ZM7.81641 17.3613C7.89268 17.0699 7.8058 16.7601 7.58917 16.5508L6.65917 15.6208C6.61998 15.5818 6.59796 15.5287 6.59796 15.4733C6.59796 15.418 6.61998 15.3649 6.65917 15.3258L7.58917 14.3958C7.8058 14.1866 7.89268 13.8768 7.81641 13.5854C7.74015 13.2941 7.51261 13.0665 7.22126 12.9903C6.9299 12.914 6.62006 13.0009 6.41083 13.2175L4.74417 14.8842C4.41885 15.2096 4.41885 15.7371 4.74417 16.0625L6.41083 17.7292C6.62006 17.9458 6.9299 18.0327 7.22126 17.9564C7.51261 17.8802 7.74015 17.6526 7.81641 17.3613ZM20.75 9.22334C21.4404 9.22334 22 9.78299 22 10.4733V20.4733C22 21.1637 21.4404 21.7233 20.75 21.7233H14.0833C13.393 21.7233 12.8333 21.1637 12.8333 20.4733V11.0342C12.8331 10.9281 12.9129 10.839 13.0183 10.8275C14.5213 10.6595 15.9591 10.1208 17.2025 9.26001C17.2373 9.23612 17.2786 9.22334 17.3208 9.22334H20.75ZM16.1836 13.5854C16.1073 13.8768 16.1942 14.1866 16.4108 14.3958L17.3408 15.3258C17.38 15.3649 17.402 15.418 17.402 15.4733C17.402 15.5287 17.38 15.5818 17.3408 15.6208L16.4108 16.5508C16.095 16.8778 16.0995 17.3976 16.421 17.719C16.7424 18.0405 17.2622 18.045 17.5892 17.7292L19.2558 16.0625C19.5812 15.7371 19.5812 15.2096 19.2558 14.8842L17.5892 13.2175C17.3799 13.0009 17.0701 12.914 16.7787 12.9903C16.4874 13.0665 16.2598 13.2941 16.1836 13.5854ZM8.6125 5.11168C9.50886 6.0132 10.7287 6.51854 12 6.51501C13.2713 6.51854 14.4911 6.0132 15.3875 5.11168C15.6205 4.86299 15.6205 4.4762 15.3875 4.22751C15.2704 4.11027 15.1115 4.04438 14.9458 4.04438C14.7801 4.04438 14.6212 4.11027 14.5042 4.22751C13.8415 4.89391 12.9398 5.2675 12 5.26501C11.0602 5.2675 10.1585 4.89391 9.49583 4.22751C9.37875 4.11027 9.21986 4.04438 9.05417 4.04438C8.88847 4.04438 8.72958 4.11027 8.6125 4.22751C8.37955 4.4762 8.37955 4.86299 8.6125 5.11168ZM16.7142 5.81188C16.8799 5.81188 17.0388 5.87776 17.1558 5.99501C17.2731 6.11223 17.339 6.27127 17.339 6.43709C17.339 6.60292 17.2731 6.76196 17.1558 6.87918C15.7891 8.24729 13.9338 9.01468 12 9.01168C10.066 9.01454 8.21043 8.24719 6.84333 6.87918C6.68539 6.72124 6.62371 6.49103 6.68152 6.27528C6.73933 6.05953 6.90785 5.89101 7.1236 5.8332C7.33935 5.77539 7.56956 5.83707 7.7275 5.99501C10.0887 8.35082 13.9113 8.35082 16.2725 5.99501C16.3896 5.87776 16.5485 5.81188 16.7142 5.81188Z" fill="#5A5A5A"/>
</g>
</svg>
