<?xml version="1.0" encoding="UTF-8"?>
<svg width="24px" height="24px" viewBox="0 0 24 24" version="1.1" xmlns="http://www.w3.org/2000/svg" xmlns:xlink="http://www.w3.org/1999/xlink">
    <title>6. Technology/smart_house_timer</title>
    <g id="6.-Technology/smart_house_timer" stroke="none" stroke-width="1" fill="none" fill-rule="evenodd">
        <path d="M12,2.75153846 C17.1051992,2.75747374 21.2421817,6.89480032 21.2476923,12 C21.2476923,15.7407235 18.9942937,19.1130968 15.5382861,20.5445379 C12.0822784,21.9759789 8.10428988,21.1845788 5.45930893,18.5393779 C2.81432798,15.8941769 2.02325875,11.9161225 3.45498725,8.46023395 C4.88671574,5.00434537 8.2592765,2.75122733 12,2.75153846 Z M16.7038462,6.10307692 C13.5512699,3.64393478 9.03586541,4.03137976 6.3483015,6.99163603 C3.66073759,9.95189231 3.71011314,14.4836198 6.46153846,17.3846154 C6.62244539,17.554454 6.86173731,17.6255484 7.08927529,17.5711182 C7.31681327,17.516688 7.49802886,17.3450024 7.56465991,17.1207336 C7.63129096,16.8964648 7.57321462,16.6536847 7.41230769,16.4838462 C5.14923612,14.0784921 5.11542825,10.3375861 7.33465769,7.89172396 C9.55388713,5.44586179 13.2804542,5.11689572 15.8938462,7.13615385 C16.0310456,7.24425913 16.2057597,7.29304858 16.3791185,7.27166766 C16.5524773,7.25028674 16.7101015,7.1605089 16.8169231,7.02230769 L16.8169231,7.02230769 C17.0398489,6.73696398 16.9889021,6.32560268 16.7038462,6.10307692 Z M17.5037019,15.4848876 C17.2680951,15.4477011 17.0309101,15.5416088 16.8846154,15.73 C16.7938462,15.8384615 16.7,15.9446154 16.6030769,16.0469231 C16.3549736,16.310108 16.3671997,16.724589 16.6303846,16.9726923 C16.8935695,17.2207956 17.3080505,17.2085695 17.5561538,16.9453846 C17.6723077,16.82 17.7853846,16.6923077 17.8938462,16.5607692 L17.8938462,16.5607692 C18.0511011,16.3837329 18.0983609,16.1330501 18.0172009,15.9087591 C17.9360409,15.684468 17.7393087,15.522074 17.5037019,15.4848876 Z M10.8461538,9.49999695 L9.52538462,9.49999695 C8.90674491,9.49868944 8.36704249,9.91965733 8.21769231,10.52 L8.21769231,10.52 L7.59384615,13.0138462 C7.55103838,13.1862267 7.58990724,13.3687171 7.69924399,13.5086922 C7.80858075,13.6486673 7.97622998,13.7305654 8.15384615,13.7307692 L8.15384615,13.7307692 L10.0776923,13.7307692 C10.1839009,13.7307692 10.27,13.8168683 10.27,13.9230769 L10.27,13.9230769 L10.27,14.6923077 C10.27,15.0109335 10.5282973,15.2692308 10.8469231,15.2692308 C11.1655489,15.2692308 11.4238462,15.0109335 11.4238462,14.6923077 L11.4238462,14.6923077 L11.4230769,10.0769231 C11.4230769,9.75829726 11.1647797,9.49999695 10.8461538,9.49999695 L10.8461538,9.49999695 Z M15.4615385,9.5 L13.1538462,9.5 C12.8352203,9.5 12.5769231,9.75829726 12.5769231,10.0769231 L12.5769231,10.0769231 L12.5769231,11.8546154 C12.5773467,12.4650515 13.071872,12.959921 13.6823077,12.9607692 L13.6823077,12.9607692 L14.3076923,12.9607692 C14.6263181,12.9607692 14.8846154,13.2190665 14.8846154,13.5376923 C14.8846154,13.8563181 14.6263181,14.1146154 14.3076923,14.1146154 L14.3076923,14.1146154 L13.1538462,14.1146154 C12.8352203,14.1146154 12.5769231,14.3729126 12.5769231,14.6915385 C12.5769231,15.0101643 12.8352203,15.2684615 13.1538462,15.2684615 L13.1538462,15.2684615 L14.3076923,15.2684615 C15.2635698,15.2684615 16.0384615,14.4935698 16.0384615,13.5376923 C16.0384615,12.5818149 15.2635698,11.8069231 14.3076923,11.8069231 L14.3076923,11.8069231 L13.9392308,11.8376923 C13.8856252,11.8422112 13.8325775,11.8240702 13.7929643,11.7876728 C13.7533511,11.7512754 13.7307943,11.6999495 13.7307692,11.6461538 L13.7307692,11.6461538 L13.7307692,10.8461538 C13.7307692,10.7399452 13.8168683,10.6538462 13.9230769,10.6538462 L13.9230769,10.6538462 L15.4615385,10.6538462 C15.7801643,10.6538462 16.0384615,10.3955489 16.0384615,10.0769231 C16.0384615,9.75829726 15.7801643,9.5 15.4615385,9.5 L15.4615385,9.5 Z M19.2986616,12.5048763 C19.1203911,12.3496957 18.8723134,12.3026618 18.6496136,12.3818212 C18.4269138,12.4609806 18.2641779,12.6540395 18.2238462,12.8869231 C18.1746949,13.1448551 18.1094389,13.399456 18.0284615,13.6492308 C17.9500254,13.8729469 17.9986726,14.121588 18.1556387,14.2992472 C18.3126049,14.4769064 18.5533579,14.5558174 18.7850335,14.5055423 C19.016709,14.4552673 19.2030988,14.2836636 19.2723077,14.0569231 L19.2723077,14.0569231 C19.3722891,13.7530647 19.4511693,13.4439673 19.51,13.1307692 C19.5577094,12.8992844 19.4769321,12.660057 19.2986616,12.5048763 Z M10.0769231,10.6569215 C10.127989,10.6567176 10.1770227,10.6769125 10.213132,10.7130218 C10.2492413,10.7491312 10.2694363,10.7981649 10.2692323,10.8492308 L10.2692323,10.8492308 L10.2692323,12.3876923 C10.2692323,12.4939009 10.1831317,12.5800016 10.0769231,12.5800016 L10.0769231,12.5800016 L9.14153846,12.5800016 C9.08095074,12.5802446 9.0238493,12.5516938 8.98769231,12.5030769 C8.95136355,12.4561919 8.9386001,12.395211 8.95307692,12.3376923 L8.95307692,12.3376923 L9.33769231,10.7992308 C9.3605016,10.7155352 9.43632987,10.6573268 9.52307692,10.6569215 L9.52307692,10.6569215 Z M18.3595526,7.77342842 C18.1932976,7.72306123 18.0138334,7.74092496 17.8607692,7.82307692 C17.7076353,7.90496579 17.5933139,8.04434506 17.5429649,8.21053999 C17.4926159,8.37673492 17.5103657,8.55612532 17.5923077,8.70923077 C17.8855915,9.25751888 18.0960789,9.84620967 18.2169231,10.4561538 C18.2868084,10.8108906 18.6310325,11.0418083 18.9857692,10.971923 C19.340506,10.9020378 19.5714237,10.5578137 19.5015385,10.2030769 C19.3556997,9.46581511 19.1013985,8.75423835 18.7469231,8.09153846 C18.6651851,7.93825286 18.5258076,7.8237956 18.3595526,7.77342842 Z" id="ðŸ–-Color" fill="#5A5A5A"></path>
        <rect id="_Transparent_Rectangle_" x="0" y="0" width="24" height="24"></rect>
    </g>
</svg>