<?xml version="1.0" encoding="UTF-8"?>
<svg width="24px" height="24px" viewBox="0 0 24 24" version="1.1" xmlns="http://www.w3.org/2000/svg" xmlns:xlink="http://www.w3.org/1999/xlink">
    <title>6. Technology/smart_house_open_door</title>
    <g id="6.-Technology/smart_house_open_door" stroke="none" stroke-width="1" fill="none" fill-rule="evenodd">
        <path d="M11.6519206,3.84615385 C12.0929813,3.84615385 12.4505317,4.19055019 12.4505317,4.61538462 C12.4505317,5.04021904 12.0929813,5.38461538 11.6519206,5.38461538 L11.6519206,5.38461538 L7.89844838,5.38461538 C7.80263361,5.38033908 7.71730451,5.44255208 7.69556492,5.53253663 C7.67382534,5.62252118 7.72187161,5.71462938 7.80980255,5.75153846 L7.80980255,5.75153846 L8.5972331,6.13153846 C9.00376932,6.32597702 9.26043066,6.72588126 9.25928171,7.16307692 L9.25928171,7.16307692 L9.25928171,17.5 C9.25928171,17.6062086 9.34866931,17.6923077 9.45893449,17.6923077 L9.45893449,17.6923077 L11.4554623,17.6923077 C11.5657275,17.6923077 11.655115,17.6062086 11.655115,17.5 L11.655115,17.5 L11.655115,13.0769231 C11.655115,12.6520887 12.0126654,12.3076923 12.4537262,12.3076923 C12.8929145,12.3102305 13.2475456,12.6538846 13.2475456,13.0769231 L13.2475456,13.0769231 L13.2475456,18.0838462 C13.2475456,18.7210978 12.71122,19.2376923 12.0496289,19.2376923 L12.0496289,19.2376923 L9.45414282,19.2376923 C9.34387764,19.2376923 9.25449005,19.3237914 9.25449005,19.43 L9.25449005,19.43 L9.25449005,20.1538462 C9.25449005,20.7910978 8.71816449,21.3076923 8.05657338,21.3076923 C7.8711641,21.3071724 7.68836256,21.2655879 7.52230255,21.1861538 L7.52230255,21.1861538 L3.52924699,19.2630769 L3.41207913,19.1984593 C3.07467718,18.9872352 2.86707612,18.6241713 2.86719833,18.2307692 L2.86719833,18.2307692 L2.86719833,4.61538462 C2.87237259,4.19263178 3.22690984,3.8511377 3.66580949,3.84615385 L3.66580949,3.84615385 Z M19.7793859,8.78230769 C20.092744,8.49079061 20.5908425,8.49495971 20.8988938,8.79167802 C21.2069451,9.08839633 21.2112734,9.56817009 20.908622,9.87 C18.443638,12.2381115 14.4539184,12.2381115 11.9889345,9.87 C11.6862831,9.56817009 11.6906114,9.08839633 11.9986627,8.79167802 C12.306714,8.49495971 12.8048125,8.49079061 13.1181706,8.78230769 C14.9590752,10.5506794 17.9384812,10.5506794 19.7793859,8.78230769 Z M18.0887262,6.56461538 C18.289237,6.36464878 18.5861634,6.28445185 18.8653813,6.35484834 C19.1445993,6.42524483 19.362656,6.63527942 19.4357412,6.90422514 C19.5088265,7.17317085 19.4255665,7.45917348 19.2179623,7.65230769 C18.4901931,8.35357544 17.5029564,8.74756648 16.4735352,8.74756648 C15.444114,8.74756648 14.4568772,8.35357544 13.7291081,7.65230769 C13.4264567,7.35047778 13.430785,6.87070402 13.7388363,6.57398571 C14.0468876,6.2772674 14.5449861,6.2730983 14.8583442,6.56461538 C15.7620979,7.39617076 17.1849724,7.39617076 18.0887262,6.56461538 Z M18.4433095,2.69230769 C18.6638399,2.69230769 18.842615,2.86450587 18.842615,3.07692308 L18.842615,3.07692308 L18.842615,3.84615385 C18.842615,4.48340548 18.3062895,5 17.6446984,5 L17.6446984,5 L15.248865,5 C14.5872739,5 14.0509484,4.48340548 14.0509484,3.84615385 L14.0509484,3.84615385 L14.0509484,3.07692308 C14.0509484,2.86450587 14.2297236,2.69230769 14.4502539,2.69230769 L14.4502539,2.69230769 Z" id="ðŸ–-Color" fill="#5A5A5A"></path>
        <rect id="_Transparent_Rectangle_" x="0" y="0" width="24" height="24"></rect>
    </g>
</svg>