<svg width="24" height="24" viewBox="0 0 24 24" fill="none" xmlns="http://www.w3.org/2000/svg">
<g id="user_polaroid">
<path id="Shape" fill-rule="evenodd" clip-rule="evenodd" d="M20.0796 19.7681C19.8957 19.7206 19.7672 19.5547 19.7671 19.3647V5.09306C19.7672 4.9031 19.8957 4.73722 20.0796 4.68973C20.6901 4.5332 21.0886 3.94665 21.0092 3.32142C20.9298 2.69619 20.3974 2.22786 19.7671 2.22889H3.93378C3.30353 2.22786 2.77109 2.69619 2.69169 3.32142C2.61229 3.94665 3.01078 4.5332 3.62128 4.68973C3.80521 4.73722 3.93374 4.9031 3.93378 5.09306V19.3647C3.93374 19.5547 3.80521 19.7206 3.62128 19.7681C3.01078 19.9246 2.61229 20.5111 2.69169 21.1364C2.77109 21.7616 3.30353 22.2299 3.93378 22.2289H19.7671C20.3974 22.2299 20.9298 21.7616 21.0092 21.1364C21.0886 20.5111 20.6901 19.9246 20.0796 19.7681ZM18.1005 19.3122C18.1005 19.5423 17.9139 19.7289 17.6838 19.7289H13.7613C13.6472 19.729 13.5381 19.6824 13.4594 19.5999C13.3806 19.5174 13.3391 19.4062 13.3446 19.2922L13.428 17.5331C13.4382 17.3105 13.6218 17.1353 13.8446 17.1356H14.3505C14.5806 17.1356 14.7671 16.949 14.7671 16.7189V15.1456C14.7671 13.5347 13.4613 12.2289 11.8505 12.2289C10.2396 12.2289 8.93378 13.5347 8.93378 15.1456V16.7189C8.93378 16.949 9.12033 17.1356 9.35045 17.1356H9.85628C10.0791 17.1353 10.2627 17.3105 10.273 17.5331L10.3563 19.2922C10.3618 19.4062 10.3203 19.5174 10.2415 19.5999C10.1628 19.6824 10.0537 19.729 9.93962 19.7289H6.01712C5.787 19.7289 5.60045 19.5423 5.60045 19.3122V5.14556C5.60045 4.91544 5.787 4.7289 6.01712 4.7289H17.6838C17.9139 4.7289 18.1005 4.91544 18.1005 5.14556V19.3122ZM15.6005 8.15556C16.0607 8.15556 16.4338 7.78247 16.4338 7.32223C16.4338 6.86199 16.0607 6.48889 15.6005 6.48889C15.1402 6.48889 14.7671 6.86199 14.7671 7.32223C14.7671 7.78247 15.1402 8.15556 15.6005 8.15556ZM16.4338 12.6456C16.894 12.6456 17.2671 12.2725 17.2671 11.8122C17.2671 11.352 16.894 10.9789 16.4338 10.9789C15.9735 10.9789 15.6005 11.352 15.6005 11.8122C15.6005 12.2725 15.9735 12.6456 16.4338 12.6456ZM8.66462 12.2289C8.66462 12.6891 8.29152 13.0622 7.83128 13.0622C7.37105 13.0622 6.99795 12.6891 6.99795 12.2289C6.99795 11.7687 7.37105 11.3956 7.83128 11.3956C8.29152 11.3956 8.66462 11.7687 8.66462 12.2289ZM7.26712 8.47889C7.72736 8.47889 8.10045 8.1058 8.10045 7.64556C8.10045 7.18532 7.72736 6.81223 7.26712 6.81223C6.80688 6.81223 6.43378 7.18532 6.43378 7.64556C6.43378 8.1058 6.80688 8.47889 7.26712 8.47889ZM14.1421 9.1039C14.1421 10.3695 13.1161 11.3956 11.8505 11.3956C10.5848 11.3956 9.55878 10.3695 9.55878 9.1039C9.55878 7.83824 10.5848 6.81223 11.8505 6.81223C13.1161 6.81223 14.1421 7.83824 14.1421 9.1039Z" fill="#5A5A5A"/>
</g>
</svg>
