<?xml version="1.0" encoding="UTF-8"?>
<svg width="24px" height="24px" viewBox="0 0 24 24" version="1.1" xmlns="http://www.w3.org/2000/svg" xmlns:xlink="http://www.w3.org/1999/xlink">
    <title>6. Technology/user_polaroid</title>
    <g id="6.-Technology/user_polaroid" stroke="none" stroke-width="1" fill="none" fill-rule="evenodd">
        <path d="M19.7675884,2.22889543 C20.3978403,2.22786301 20.9302829,2.69619158 21.0096807,3.32142323 C21.0890786,3.94665487 20.6905941,4.5332014 20.0800884,4.68973047 C19.8961593,4.73722075 19.7676351,4.90310266 19.7675884,5.09306381 L19.7675884,5.09306381 L19.7675884,19.3647305 C19.7676351,19.5546916 19.8961593,19.7205735 20.0800884,19.7680638 C20.6905941,19.9245929 21.0890786,20.5111394 21.0096807,21.1363711 C20.9302829,21.7616027 20.3978403,22.2299313 19.7675884,22.2288954 L19.7675884,22.2288954 L3.93425502,22.2288954 C3.30400304,22.2299313 2.77156052,21.7616027 2.69216266,21.1363711 C2.61276481,20.5111394 3.01124926,19.9245929 3.62175502,19.7680638 C3.80568411,19.7205735 3.93420832,19.5546916 3.93425502,19.3647305 L3.93425502,19.3647305 L3.93425502,5.09306381 C3.93420832,4.90310266 3.80568411,4.73722075 3.62175502,4.68973047 C3.01124926,4.5332014 2.61276481,3.94665487 2.69216266,3.32142323 C2.77156052,2.69619158 3.30400304,2.22786301 3.93425502,2.22889543 L3.93425502,2.22889543 Z M17.684255,4.72889714 L6.01758835,4.72889714 C5.78746971,4.72889714 5.60092168,4.91544516 5.60092168,5.14556381 L5.60092168,5.14556381 L5.60092168,19.3122305 C5.60092168,19.5423491 5.78746971,19.7288971 6.01758835,19.7288971 L6.01758835,19.7288971 L9.94008835,19.7288971 C10.0541494,19.7288971 10.1632776,19.6823953 10.242019,19.5998742 C10.3207604,19.5173532 10.36223,19.4061601 10.356755,19.2922305 L10.356755,19.2922305 L10.2734217,17.5330638 C10.2631713,17.3104628 10.0795918,17.1353279 9.85675502,17.1355638 L9.85675502,17.1355638 L9.35092168,17.1355638 C9.12080304,17.1355638 8.93425502,16.9490158 8.93425502,16.7188971 L8.93425502,16.7188971 L8.93425502,15.1455638 C8.93425505,13.5347333 10.2400912,12.2288971 11.8509217,12.2288971 C13.4617522,12.2288971 14.7675883,13.5347333 14.7675884,15.1455638 L14.7675884,15.1455638 L14.7675884,16.7188971 C14.7675884,16.9490158 14.5810403,17.1355638 14.3509217,17.1355638 L14.3509217,17.1355638 L13.8450884,17.1355638 C13.6222516,17.1353279 13.4386721,17.3104628 13.4284217,17.5330638 L13.4284217,17.5330638 L13.3450884,19.2922305 C13.3396133,19.4061601 13.3810829,19.5173532 13.4598243,19.5998742 C13.5385658,19.6823953 13.647694,19.7288971 13.761755,19.7288971 L13.761755,19.7288971 L17.684255,19.7288971 C17.9143737,19.7288971 18.1009217,19.5423491 18.1009217,19.3122305 L18.1009217,19.3122305 L18.1009217,5.14556381 C18.1009217,4.91544516 17.9143737,4.72889714 17.684255,4.72889714 L17.684255,4.72889714 Z M7.83175502,11.3955638 C8.29199231,11.3955638 8.66508835,11.7686598 8.66508835,12.2288971 C8.66508835,12.6891344 8.29199231,13.0622305 7.83175502,13.0622305 C7.37151773,13.0622305 6.99842168,12.6891344 6.99842168,12.2288971 C6.99842168,11.7686598 7.37151773,11.3955638 7.83175502,11.3955638 Z M16.434255,10.9788971 C16.8944923,10.9788971 17.2675884,11.3519932 17.2675884,11.8122305 C17.2675884,12.2724678 16.8944923,12.6455638 16.434255,12.6455638 C15.9740177,12.6455638 15.6009217,12.2724678 15.6009217,11.8122305 C15.6009217,11.3519932 15.9740177,10.9788971 16.434255,10.9788971 Z M11.8509217,6.81223047 C13.1165742,6.81223047 14.1425884,7.83824459 14.1425884,9.10389714 C14.1425884,10.3695497 13.1165742,11.3955638 11.8509217,11.3955638 C10.5852691,11.3955638 9.55925502,10.3695497 9.55925502,9.10389714 C9.55925502,7.83824459 10.5852691,6.81223047 11.8509217,6.81223047 Z M7.26758835,6.81223047 C7.72782564,6.81223047 8.10092168,7.18532651 8.10092168,7.64556381 C8.10092168,8.1058011 7.72782564,8.47889714 7.26758835,8.47889714 C6.80735106,8.47889714 6.43425502,8.1058011 6.43425502,7.64556381 C6.43425502,7.18532651 6.80735106,6.81223047 7.26758835,6.81223047 Z M15.6009217,6.48889714 C16.061159,6.48889714 16.434255,6.86199318 16.434255,7.32223047 C16.434255,7.78246776 16.061159,8.15556381 15.6009217,8.15556381 C15.1406844,8.15556381 14.7675884,7.78246776 14.7675884,7.32223047 C14.7675884,6.86199318 15.1406844,6.48889714 15.6009217,6.48889714 Z" id="Color" fill="#5A5A5A"></path>
        <rect id="_Transparent_Rectangle_" x="0" y="0" width="24" height="24"></rect>
    </g>
</svg>