<?xml version="1.0" encoding="UTF-8"?>
<svg width="24px" height="24px" viewBox="0 0 24 24" version="1.1" xmlns="http://www.w3.org/2000/svg" xmlns:xlink="http://www.w3.org/1999/xlink">
    <title>6. Technology/user_3d_box</title>
    <g id="6.-Technology/user_3d_box" stroke="none" stroke-width="1" fill="none" fill-rule="evenodd">
        <path d="M11.2858333,2 C15.2033333,2 19.2558333,4.615 19.2558333,9 C19.4096113,9.42585227 19.6111764,9.83289632 19.8566667,10.2133333 C20.4433333,11.2416667 21.1091667,12.4075 21.0391667,13.3375 L21.0391667,13.3375 L21.0391667,13.4525 C21.0624587,13.7221232 20.9718576,13.9891909 20.789318,14.188987 C20.6067785,14.3887832 20.3489585,14.5030748 20.0783333,14.5041667 C19.8733333,14.5133333 19.645,14.5133333 19.4391667,14.5133333 C19.3250675,14.5123978 19.2314449,14.6034197 19.2291667,14.7175 C19.21,15.7666667 19.0808333,17.6333333 18.4291667,18.2841667 C17.8175,18.8966667 16.985,19.07 15.6566667,19.0991667 C15.5433714,19.1009869 15.4524854,19.1933568 15.4525,19.3066667 L15.4525,19.3066667 L15.4525,21.5833333 C15.4525,21.813452 15.265952,22 15.0358333,22 L15.0358333,22 L6.7025,22 C6.47238135,22 6.28583333,21.813452 6.28583333,21.5833333 L6.28583333,21.5833333 L6.28583333,17.13 C6.28564886,17.0598236 6.25028505,16.9944162 6.19166667,16.9558333 C4.0425,15.5516667 2.9525,13.3425 2.9525,10.385 C2.92173076,8.16084565 3.78813697,6.01804895 5.35613378,4.44033057 C6.92413059,2.86261218 9.06153129,1.98297836 11.2858333,2 Z M11.9616667,5.10416667 C11.7973164,5.02917769 11.6085169,5.02917769 11.4441667,5.10416667 L11.4441667,5.10416667 L7.385,6.94916667 C7.16736375,7.05697245 7.0265217,7.27559773 7.01833333,7.51833333 L7.01833333,7.51833333 L7.01833333,12.315 C7.01852232,12.5601642 7.16184538,12.7826407 7.385,12.8841667 L7.385,12.8841667 L11.4441667,14.7291667 C11.6083958,14.8047109 11.7974376,14.8047109 11.9616667,14.7291667 L11.9616667,14.7291667 L16.0208333,12.8841667 C16.2436626,12.7823948 16.3866667,12.5599702 16.3866667,12.315 L16.3866667,12.315 L16.3866667,7.51833333 C16.3788207,7.27572433 16.2382729,7.05705881 16.0208333,6.94916667 L16.0208333,6.94916667 Z M11.7322721,6.38164459 L11.7891667,6.39833333 L13.8333333,7.32833333 C13.9076165,7.36217772 13.9552899,7.43628686 13.9552899,7.51791667 C13.9552899,7.59954647 13.9076165,7.67365561 13.8333333,7.7075 L13.8333333,7.7075 L11.7891667,8.6375 C11.7343913,8.66253311 11.6714421,8.66253311 11.6166667,8.6375 L11.6166667,8.6375 L9.57083333,7.7075 C9.49655021,7.67365561 9.44887672,7.59954647 9.44887672,7.51791667 C9.44887672,7.43628686 9.49655021,7.36217772 9.57083333,7.32833333 L9.57083333,7.32833333 L11.6166667,6.39833333 C11.6714421,6.37330022 11.7343913,6.37330022 11.7891667,6.39833333 Z" id="ðŸ–-Color" fill="#5A5A5A"></path>
        <rect id="_Transparent_Rectangle_" x="0" y="0" width="24" height="24"></rect>
    </g>
</svg>