<svg width="24" height="24" viewBox="0 0 24 24" fill="none" xmlns="http://www.w3.org/2000/svg">
<g id="user_3d_box">
<path id="Shape" fill-rule="evenodd" clip-rule="evenodd" d="M19.8571 10.2133C19.6116 9.8329 19.4101 9.42585 19.2563 9C19.2563 4.615 15.2038 2 11.2863 2C9.06197 1.98298 6.92457 2.86261 5.35657 4.44033C3.78858 6.01805 2.92217 8.16084 2.95294 10.385C2.95294 13.3425 4.04294 15.5517 6.19211 16.9558C6.25073 16.9944 6.28609 17.0598 6.28627 17.13V21.5833C6.28627 21.8134 6.47282 22 6.70294 22H15.0363C15.2664 22 15.4529 21.8134 15.4529 21.5833V19.3067C15.4529 19.1934 15.5438 19.101 15.6571 19.0992C16.9854 19.07 17.8179 18.8967 18.4296 18.2842C19.0813 17.6333 19.2104 15.7667 19.2296 14.7175C19.2319 14.6034 19.3255 14.5124 19.4396 14.5133C19.6454 14.5133 19.8738 14.5133 20.0788 14.5042C20.3494 14.5031 20.6072 14.3888 20.7898 14.189C20.9723 13.9892 21.0629 13.7221 21.0396 13.4525V13.3375C21.1095 12.4086 20.4454 11.2445 19.8592 10.217L19.8571 10.2133ZM11.9621 14.7292C11.7979 14.8047 11.6088 14.8047 11.4446 14.7292L7.38544 12.8842C7.16229 12.7826 7.01896 12.5602 7.01877 12.315V7.51833C7.02696 7.2756 7.1678 7.05697 7.38544 6.94917L11.4446 5.10417C11.609 5.02918 11.7978 5.02918 11.9621 5.10417L16.0213 6.94917C16.2387 7.05706 16.3793 7.27572 16.3871 7.51833V12.315C16.3871 12.56 16.2441 12.7824 16.0213 12.8842L11.9621 14.7292ZM9.44932 7.51791C9.44932 7.43629 9.49699 7.36218 9.57127 7.32833L11.6171 6.39833C11.6719 6.3733 11.7348 6.3733 11.7896 6.39833L13.8338 7.32833C13.9081 7.36218 13.9557 7.43629 13.9557 7.51791C13.9557 7.59954 13.9081 7.67365 13.8338 7.7075L11.7896 8.6375C11.7348 8.66253 11.6719 8.66253 11.6171 8.6375L9.57127 7.7075C9.49699 7.67365 9.44932 7.59954 9.44932 7.51791Z" fill="#5A5A5A"/>
</g>
</svg>
