<svg width="24" height="24" viewBox="0 0 24 24" fill="none" xmlns="http://www.w3.org/2000/svg">
<g id="virtual_home">
<path id="Shape" fill-rule="evenodd" clip-rule="evenodd" d="M6.27634 10.6738C6.2768 11.4059 6.89462 11.9993 7.65717 12.0002H16.3422C17.1047 11.9993 17.7225 11.4059 17.723 10.6738V6.04261C17.7232 5.90589 17.6506 5.77857 17.5305 5.70501L12.2238 2.46261C12.0871 2.37885 11.9122 2.37885 11.7755 2.46261L6.46884 5.70501C6.34879 5.77857 6.27619 5.90589 6.27634 6.04261V10.6738ZM10.7588 5.69541L14.1355 7.54741C14.2656 7.61854 14.346 7.75125 14.346 7.89501C14.346 8.03877 14.2656 8.17148 14.1355 8.24261L10.7588 10.0946C10.6299 10.1653 10.4715 10.1648 10.3431 10.0933C10.2146 10.0217 10.1356 9.88996 10.1355 9.74741V6.04261C10.1356 5.90006 10.2146 5.7683 10.3431 5.69676C10.4715 5.62522 10.6299 5.6247 10.7588 5.69541ZM16.583 15.6002H14.9855C14.8916 15.6004 14.8092 15.5401 14.7847 15.453C14.3364 13.873 12.8339 12.7824 11.1281 12.7992C9.42239 12.8159 7.94334 13.9357 7.52884 15.5242C7.51737 15.5688 7.4758 15.6001 7.42801 15.6002H7.41634C6.86381 15.6002 6.3339 15.8109 5.9432 16.186C5.5525 16.5611 5.33301 17.0698 5.33301 17.6002V19.2002C5.33307 19.6636 5.61106 20.0856 6.04717 20.2842C6.11996 20.3173 6.16636 20.3877 6.16634 20.465V20.8002C6.16634 21.242 6.53944 21.6002 6.99967 21.6002C7.45991 21.6002 7.83301 21.242 7.83301 20.8002V20.6002C7.83301 20.4898 7.92628 20.4002 8.04134 20.4002H15.958C16.0731 20.4002 16.1663 20.4898 16.1663 20.6002V20.8002C16.1663 21.242 16.5394 21.6002 16.9997 21.6002C17.4599 21.6002 17.833 21.242 17.833 20.8002V20.465C17.833 20.3877 17.8794 20.3173 17.9522 20.2842C18.3883 20.0856 18.6663 19.6636 18.6663 19.2002V17.6002C18.6663 16.4956 17.7336 15.6002 16.583 15.6002ZM11.1663 14.4002C12.3169 14.4002 13.2497 15.2956 13.2497 16.4002C13.2497 17.5048 12.3169 18.4002 11.1663 18.4002C10.0157 18.4002 9.08301 17.5048 9.08301 16.4002C9.08301 15.2956 10.0157 14.4002 11.1663 14.4002Z" fill="#5A5A5A"/>
</g>
</svg>
