<?xml version="1.0" encoding="UTF-8"?>
<svg width="24px" height="24px" viewBox="0 0 24 24" version="1.1" xmlns="http://www.w3.org/2000/svg" xmlns:xlink="http://www.w3.org/1999/xlink">
    <title>6. Technology/virtual_home</title>
    <g id="6.-Technology/virtual_home" stroke="none" stroke-width="1" fill="none" fill-rule="evenodd">
        <path d="M11.1284472,12.7991563 C12.8341834,12.7824182 14.3367673,13.8729643 14.785,15.453011 C14.8095207,15.5400614 14.8918992,15.6004404 14.9858333,15.600211 L14.9858333,15.600211 L16.5833333,15.600211 C17.7339266,15.600211 18.6666667,16.4956415 18.6666667,17.600211 L18.6666667,17.600211 L18.6666667,19.200211 C18.6666667,19.663613 18.3886109,20.0855661 17.9525,20.284211 C17.8797154,20.3173007 17.8333155,20.3876987 17.8333333,20.465011 L17.8333333,20.465011 L17.8333333,20.800211 C17.8333333,21.2420388 17.4602373,21.600211 17,21.600211 C16.5397627,21.600211 16.1666667,21.2420388 16.1666667,20.800211 L16.1666667,20.800211 L16.1666667,20.600211 C16.1666667,20.4897541 16.0733927,20.400211 15.9583333,20.400211 L15.9583333,20.400211 L8.04166667,20.400211 C7.92660734,20.400211 7.83333333,20.4897541 7.83333333,20.600211 L7.83333333,20.600211 L7.83333333,20.800211 C7.83333333,21.2420388 7.46023729,21.600211 7,21.600211 C6.53976271,21.600211 6.16666667,21.2420388 6.16666667,20.800211 L6.16666667,20.800211 L6.16666667,20.465011 C6.16668449,20.3876987 6.12028462,20.3173007 6.0475,20.284211 C5.61138915,20.0855661 5.33333333,19.663613 5.33333333,19.200211 L5.33333333,19.200211 L5.33333333,17.600211 C5.33333333,17.0697781 5.55282675,16.5610702 5.94352754,16.1859975 C6.33422833,15.8109247 6.86413231,15.600211 7.41666667,15.600211 L7.41666667,15.600211 L7.42833333,15.600211 C7.47612576,15.6000838 7.51769662,15.568751 7.52916667,15.524211 C7.94366194,13.9356985 9.42271094,12.8158943 11.1284472,12.7991563 Z M11.1666667,14.400211 C10.0160734,14.400211 9.08333333,15.2956415 9.08333333,16.400211 C9.08333333,17.5047805 10.0160734,18.400211 11.1666667,18.400211 C12.3172599,18.400211 13.25,17.5047805 13.25,16.400211 C13.25,15.2956415 12.3172599,14.400211 11.1666667,14.400211 Z M11.7758333,2.46261103 C11.9125422,2.37884828 12.0874578,2.37884828 12.2241667,2.46261103 L12.2241667,2.46261103 L17.5308333,5.70501103 C17.6508833,5.77856666 17.7234836,5.90589046 17.7233336,6.04261103 L17.7233336,6.04261103 L17.7233336,10.673811 C17.7228742,11.4058666 17.1050575,11.9993286 16.3425,12.000211 L16.3425,12.000211 L7.6575,12.000211 C6.89494253,11.9993286 6.27712576,11.4058666 6.27666643,10.673811 L6.27666643,10.673811 L6.27666643,6.04261103 C6.27651644,5.90589046 6.34911666,5.77856666 6.46916667,5.70501103 L6.46916667,5.70501103 Z M10.7591667,5.69541103 C10.6302265,5.62470441 10.4718326,5.62521819 10.3433931,5.69675968 C10.2149536,5.76830116 10.1358812,5.90005737 10.1358333,6.04261103 L10.1358333,6.04261103 L10.1358333,9.74741103 C10.1358812,9.88996469 10.2149536,10.0217209 10.3433931,10.0932624 C10.4718326,10.1648039 10.6302265,10.1653177 10.7591667,10.094611 L10.7591667,10.094611 L14.1358333,8.24261103 C14.2659672,8.17147626 14.3463283,8.03877222 14.3463283,7.89501103 C14.3463283,7.75124985 14.2659672,7.61854581 14.1358333,7.54741103 L14.1358333,7.54741103 Z" id="ðŸ–-Color" fill="#5A5A5A"></path>
        <rect id="_Transparent_Rectangle_" x="0" y="0" width="24" height="24"></rect>
    </g>
</svg>