<?xml version="1.0" encoding="UTF-8"?>
<svg width="24px" height="24px" viewBox="0 0 24 24" version="1.1" xmlns="http://www.w3.org/2000/svg" xmlns:xlink="http://www.w3.org/1999/xlink">
    <title>6. Technology/vr_globe</title>
    <g id="6.-Technology/vr_globe" stroke="none" stroke-width="1" fill="none" fill-rule="evenodd">
        <path d="M3.6737563,12.8704089 C3.75454111,12.8704089 3.82802377,12.917158 3.86208964,12.990409 C5.36254717,16.2209212 8.60095975,18.2874684 12.162923,18.2874684 C15.7248862,18.2874684 18.9632988,16.2209212 20.4637563,12.990409 C20.4978222,12.917158 20.5713048,12.8704089 20.6520896,12.8704089 L20.6520896,12.8704089 L20.912923,12.8704089 C21.6032789,12.8704089 22.162923,13.4300531 22.162923,14.120409 L22.162923,14.120409 L22.162923,19.120409 C22.162923,19.6729434 21.9434296,20.2028473 21.5527288,20.5935481 C21.162028,20.9842489 20.632124,21.2037431 20.0795896,21.2037431 L20.0795896,21.2037431 L15.6962563,21.2037431 C15.199132,21.2041781 14.7182374,21.0268353 14.340423,20.7037423 L14.340423,20.7037423 L13.5187563,19.9995757 C12.7402772,19.3262066 11.5855688,19.3262066 10.8070896,19.9995757 L10.8070896,19.9995757 L9.98542297,20.7037423 C9.60760853,21.0268353 9.12671396,21.2041781 8.62958964,21.2037431 L8.62958964,21.2037431 L4.2462563,21.2037431 C3.69372195,21.2037431 3.16381796,20.9842489 2.77311718,20.5935481 C2.38241639,20.2028473 2.16292297,19.6729434 2.16292297,19.120409 L2.16292297,19.120409 L2.16292297,14.120409 C2.16292297,13.4300531 2.72256703,12.8704089 3.41292297,12.8704089 L3.41292297,12.8704089 Z M13.8770896,12.3145757 C13.9450902,12.315177 14.0085899,12.348669 14.0474872,12.4044493 C14.0863844,12.4602296 14.0958632,12.531392 14.072923,12.595409 C13.7351765,13.6017066 13.1145794,14.4893486 12.285423,15.1520757 C12.2114422,15.2079106 12.1094037,15.2079106 12.035423,15.1520757 C11.2055129,14.4897056 10.58429,13.6019964 10.2462563,12.595409 C10.2233161,12.531392 10.2327949,12.4602296 10.2716921,12.4044493 C10.3105893,12.348669 10.3740891,12.315177 10.4420896,12.3145757 L13.8770896,12.3145757 Z M17.1487563,12.3145757 C17.2259676,12.3150832 17.2966197,12.3580861 17.3325382,12.426436 C17.3684568,12.4947859 17.3637993,12.5773648 17.320423,12.6412423 C16.8440862,13.3347243 16.2334175,13.9255569 15.5245896,14.3787423 L15.5287563,14.3787423 C15.4494163,14.4294911 15.3458961,14.420699 15.2762512,14.3572967 C15.2066062,14.2938944 15.1881595,14.1916523 15.2312563,14.107909 C15.4975748,13.5830422 15.7113909,13.0331497 15.8695896,12.4662423 C15.895472,12.3767294 15.9772441,12.3149762 16.070423,12.3145757 L17.1487563,12.3145757 Z M8.25958964,12.3145757 C8.35276851,12.3149762 8.43454057,12.3767294 8.46042297,12.4662423 C8.61862172,13.0331497 8.83243779,13.5830422 9.0987563,14.107909 C9.14185307,14.1916523 9.12340641,14.2938944 9.05376143,14.3572967 C8.98411646,14.420699 8.8805963,14.4294911 8.8012563,14.3787423 C8.09393069,13.9251174 7.48470824,13.3343133 7.00958964,12.6412423 C6.96621333,12.5773648 6.96155581,12.4947859 6.99747437,12.426436 C7.03339292,12.3580861 7.10404496,12.3150832 7.1812563,12.3145757 L8.25958964,12.3145757 Z M7.8837563,7.59207564 C7.94265327,7.59211033 7.99873749,7.61727244 8.03792297,7.66124234 C8.07709844,7.70488424 8.09641154,7.76282354 8.0912563,7.82124234 C8.00125348,8.68501526 8.00125348,9.55580274 8.0912563,10.4195757 C8.09641154,10.4779945 8.07709844,10.5359338 8.03792297,10.5795757 C7.99832953,10.6233658 7.9419579,10.6482178 7.88292297,10.6479118 L6.2737563,10.6479118 C6.17656599,10.6480461 6.09219352,10.5809631 6.07042297,10.4862423 C5.96703052,10.0382837 5.91420038,9.58014297 5.91292297,9.120409 C5.91420038,8.66067504 5.96703052,8.20253432 6.07042297,7.75457567 C6.09185958,7.65952374 6.17631712,7.59202694 6.2737563,7.59207564 L7.8837563,7.59207564 Z M14.352923,7.59207567 C14.4588175,7.59225658 14.5477296,7.67184721 14.5595896,7.77707567 C14.6105048,8.22303744 14.6358241,8.67155034 14.6354277,9.120409 C14.6354277,9.56925595 14.6100877,10.0177451 14.5595896,10.4637423 C14.5476978,10.5688267 14.4586778,10.648155 14.352923,10.6479096 L9.97292297,10.6479096 C9.86716817,10.648155 9.77814816,10.5688267 9.7662563,10.4637423 C9.7153411,10.0177806 9.69002183,9.56926767 9.69041828,9.120409 C9.69002183,8.67155034 9.7153411,8.22303744 9.7662563,7.77707567 C9.77811636,7.67184721 9.86702841,7.59225658 9.97292297,7.59207567 L14.352923,7.59207567 Z M18.0520896,7.59207567 C18.14942,7.59233682 18.2337081,7.65969819 18.255423,7.75457567 C18.3588154,8.20253432 18.4116456,8.66067504 18.412923,9.120409 C18.4116456,9.58014297 18.3588154,10.0382837 18.255423,10.4862423 C18.2339321,10.5811391 18.1493884,10.6483582 18.0520896,10.6479118 L16.442923,10.6479118 C16.383888,10.6482178 16.3275164,10.6233658 16.287923,10.5795757 C16.2487475,10.5359338 16.2294344,10.4779945 16.2345896,10.4195757 C16.3245925,9.55580274 16.3245925,8.68501526 16.2345896,7.82124234 C16.2296011,7.76259077 16.2488781,7.70445881 16.287923,7.660409 C16.327765,7.61696431 16.3839754,7.59218336 16.442923,7.59207567 L18.0520896,7.59207567 Z M12.287923,3.08957567 C13.1187637,3.7512501 13.7408984,4.63873253 14.0795896,5.645409 C14.1030117,5.70934091 14.0937153,5.78068399 14.054692,5.83647889 C14.0156688,5.89227379 13.9518436,5.92547917 13.8837563,5.92540981 L10.445423,5.92540981 C10.3773328,5.9255987 10.3134823,5.89237025 10.2745691,5.83649476 C10.2356558,5.78061928 10.2266321,5.70920795 10.250423,5.645409 C10.588141,4.63932865 11.208758,3.75194761 12.037923,3.08957567 C12.1119037,3.03374077 12.2139422,3.03374077 12.287923,3.08957567 Z M15.5245896,3.86207567 C16.2319153,4.31570058 16.8411377,4.90650468 17.3162563,5.59957567 C17.3597891,5.66331352 17.3645149,5.74589642 17.3285372,5.81418421 C17.2925594,5.882472 17.2217751,5.9252721 17.1445896,5.925409 L16.0662563,5.925409 C15.9732161,5.925409 15.8913704,5.86392444 15.865423,5.77457567 C15.7072242,5.20766835 15.4934082,4.65777585 15.2270896,4.132909 C15.1839929,4.0491657 15.2024395,3.94692361 15.2720845,3.88352132 C15.3417295,3.82011903 15.4452496,3.8113269 15.5245896,3.86207567 Z M9.05376143,3.88352132 C9.12340641,3.94692361 9.14185307,4.0491657 9.0987563,4.132909 C8.83243779,4.65777585 8.61862172,5.20766835 8.46042297,5.77457567 C8.43447551,5.86392444 8.35262981,5.92541368 8.25958964,5.92541368 L7.1812563,5.92541368 C7.10372614,5.9259283 7.03237385,5.88318121 6.9962563,5.81457567 C6.96056,5.74606519 6.96536101,5.6634878 7.0087563,5.59957567 C7.48411856,4.90642254 8.09363024,4.31561275 8.8012563,3.86207567 C8.8805963,3.8113269 8.98411646,3.82011903 9.05376143,3.88352132 Z" id="ðŸ–-Color" fill="#5A5A5A" fill-rule="nonzero"></path>
        <rect id="_Transparent_Rectangle_" x="0" y="0" width="24" height="24"></rect>
    </g>
</svg>