<svg width="24" height="24" viewBox="0 0 24 24" fill="none" xmlns="http://www.w3.org/2000/svg">
<g id="vr_globe">
<path id="Shape" fill-rule="evenodd" clip-rule="evenodd" d="M12.0381 3.08958C12.1121 3.03374 12.2141 3.03374 12.2881 3.08958C13.1189 3.75125 13.7411 4.63873 14.0798 5.64541C14.1032 5.70934 14.0939 5.78068 14.0549 5.83648C14.0158 5.89227 13.952 5.92548 13.8839 5.92541H10.4456C10.3775 5.9256 10.3136 5.89237 10.2747 5.83649C10.2358 5.78062 10.2268 5.70921 10.2506 5.64541C10.5883 4.63933 11.2089 3.75195 12.0381 3.08958ZM5.91309 9.12041C5.91436 8.66067 5.96719 8.20253 6.07059 7.75458C6.09202 7.65952 6.17648 7.59203 6.27392 7.59208H7.88392C7.94282 7.59211 7.9989 7.61727 8.03809 7.66124C8.07726 7.70488 8.09657 7.76282 8.09142 7.82124C8.00142 8.68501 8.00142 9.5558 8.09142 10.4196C8.09657 10.478 8.07726 10.5359 8.03809 10.5796C7.99849 10.6234 7.94212 10.6482 7.88309 10.6479H6.27392C6.17673 10.648 6.09236 10.581 6.07059 10.4862C5.96719 10.0383 5.91436 9.58014 5.91309 9.12041ZM10.2719 12.4044C10.233 12.4602 10.2235 12.5314 10.2464 12.5954C10.5845 13.602 11.2057 14.4897 12.0356 15.1521C12.1096 15.2079 12.2116 15.2079 12.2856 15.1521C13.1147 14.4893 13.7353 13.6017 14.0731 12.5954C14.096 12.5314 14.0865 12.4602 14.0477 12.4044C14.0088 12.3487 13.9453 12.3152 13.8773 12.3146H10.4423C10.3743 12.3152 10.3108 12.3487 10.2719 12.4044ZM15.2764 14.3573C15.3461 14.4207 15.4496 14.4295 15.5289 14.3787H15.5248C16.2336 13.9256 16.8442 13.3347 17.3206 12.6412C17.364 12.5774 17.3686 12.4948 17.3327 12.4264C17.2968 12.3581 17.2261 12.3151 17.1489 12.3146H16.0706C15.9774 12.315 15.8956 12.3767 15.8698 12.4662C15.7116 13.0331 15.4977 13.583 15.2314 14.1079C15.1883 14.1917 15.2068 14.2939 15.2764 14.3573ZM9.76642 7.77708C9.7155 8.22304 9.69018 8.67155 9.69059 9.12041C9.69018 9.56927 9.7155 10.0178 9.76642 10.4637C9.77831 10.5688 9.86733 10.6482 9.97309 10.6479H14.3531C14.4588 10.6482 14.5479 10.5688 14.5598 10.4637C14.6103 10.0177 14.6356 9.56926 14.6356 9.12041C14.636 8.67155 14.6107 8.22304 14.5598 7.77708C14.5479 7.67185 14.459 7.59226 14.3531 7.59208H9.97309C9.86719 7.59226 9.77828 7.67185 9.76642 7.77708ZM18.2556 10.4862C18.359 10.0383 18.4118 9.58014 18.4131 9.12041C18.4118 8.66067 18.359 8.20253 18.2556 7.75458C18.2339 7.6597 18.1496 7.59234 18.0523 7.59208H16.4431C16.3841 7.59218 16.3279 7.61696 16.2881 7.66041C16.249 7.70446 16.2298 7.76259 16.2348 7.82124C16.3248 8.68501 16.3248 9.5558 16.2348 10.4196C16.2296 10.478 16.2489 10.5359 16.2881 10.5796C16.3277 10.6234 16.3841 10.6482 16.4431 10.6479H18.0523C18.1496 10.6484 18.2341 10.5811 18.2556 10.4862ZM16.0664 5.92541C15.9734 5.92539 15.8915 5.86392 15.8656 5.77458C15.7074 5.20767 15.4936 4.65778 15.2273 4.13291C15.1842 4.04917 15.2026 3.94692 15.2722 3.88352C15.3419 3.82012 15.4454 3.81133 15.5248 3.86208C16.2321 4.3157 16.8413 4.9065 17.3164 5.59958C17.36 5.66331 17.3647 5.7459 17.3287 5.81418C17.2927 5.88247 17.2219 5.92527 17.1448 5.92541H16.0664ZM9.05392 3.88352C8.98428 3.82012 8.88076 3.81133 8.80142 3.86208C8.09379 4.31561 7.48428 4.90642 7.00892 5.59958C6.96552 5.66349 6.96072 5.74606 6.99642 5.81458C7.03254 5.88318 7.10389 5.92593 7.18142 5.92541H8.25975C8.35279 5.92539 8.43464 5.86392 8.46059 5.77458C8.61878 5.20767 8.8326 4.65778 9.09892 4.13291C9.14202 4.04917 9.12357 3.94692 9.05392 3.88352ZM8.25975 12.3146C8.35293 12.315 8.4347 12.3767 8.46059 12.4662C8.61878 13.0331 8.8326 13.583 9.09892 14.1079C9.14202 14.1917 9.12357 14.2939 9.05392 14.3573C8.98428 14.4207 8.88076 14.4295 8.80142 14.3787C8.09409 13.9251 7.48487 13.3343 7.00975 12.6412C6.96638 12.5774 6.96172 12.4948 6.99764 12.4264C7.03356 12.3581 7.10421 12.3151 7.18142 12.3146H8.25975ZM20.6523 12.8704H20.9131C21.6034 12.8704 22.1631 13.4301 22.1631 14.1204V19.1204C22.1631 19.6729 21.9436 20.2028 21.5529 20.5935C21.1622 20.9842 20.6323 21.2037 20.0798 21.2037H15.6964C15.1993 21.2042 14.7184 21.0268 14.3406 20.7037L13.5189 19.9996C12.7404 19.3262 11.5857 19.3262 10.8073 19.9996L9.98559 20.7037C9.60777 21.0268 9.12688 21.2042 8.62975 21.2037H4.24642C3.69388 21.2037 3.16398 20.9842 2.77328 20.5935C2.38258 20.2028 2.16309 19.6729 2.16309 19.1204V14.1204C2.16309 13.4301 2.72273 12.8704 3.41309 12.8704H3.67392C3.7547 12.8703 3.82819 12.9172 3.86225 12.9904C5.36271 16.2209 8.60112 18.2875 12.1631 18.2875C15.725 18.2875 18.9635 16.2209 20.4639 12.9904C20.498 12.9172 20.5715 12.8703 20.6523 12.8704Z" fill="#5A5A5A"/>
</g>
</svg>
