<svg width="24" height="24" viewBox="0 0 24 24" fill="none" xmlns="http://www.w3.org/2000/svg">
<g id="vr_monitor_box">
<path id="Shape" fill-rule="evenodd" clip-rule="evenodd" d="M8.82613 7.95911C9.60461 7.28575 10.7593 7.28575 11.5378 7.95911L12.3595 8.66328C12.737 8.98698 13.218 9.16492 13.7153 9.16495H17.2653C18.4159 9.16495 19.3486 8.23221 19.3486 7.08161V2.91495C19.3486 2.22459 18.789 1.66495 18.0986 1.66495H3.09863C2.40828 1.66495 1.84863 2.22459 1.84863 2.91495V7.08161C1.84863 8.23221 2.78137 9.16495 3.93197 9.16495H6.64863C7.14576 9.16538 7.62665 8.98804 8.00447 8.66495L8.82613 7.95911ZM15.1345 10.4474L17.6345 11.4891C17.7838 11.5607 17.8825 11.7079 17.892 11.8733V14.7899C17.8917 14.9581 17.7905 15.1096 17.6353 15.1741L15.1353 16.2158C15.033 16.2591 14.9176 16.2591 14.8153 16.2158L12.3153 15.1741C12.1601 15.1096 12.0589 14.9581 12.0586 14.7899V11.8733C12.0678 11.7083 12.1657 11.5612 12.3145 11.4891L14.8145 10.4474C14.9167 10.4041 15.0322 10.4041 15.1345 10.4474ZM14.9736 12.4633L16.3903 11.8733L14.9736 11.2824L13.557 11.8733L14.9736 12.4633ZM20.3903 9.99828C21.1953 9.9992 21.8477 10.6516 21.8486 11.4566V17.9149C21.8477 18.72 21.1953 19.3724 20.3903 19.3733H15.807C15.6919 19.3733 15.5986 19.4666 15.5986 19.5816V20.2066C15.5986 20.3217 15.6919 20.4149 15.807 20.4149H17.057C17.4021 20.4149 17.682 20.6948 17.682 21.0399C17.682 21.3851 17.4021 21.6649 17.057 21.6649H12.8903C12.5451 21.6649 12.2653 21.3851 12.2653 21.0399C12.2653 20.6948 12.5451 20.4149 12.8903 20.4149H14.1403C14.2554 20.4149 14.3486 20.3217 14.3486 20.2066V19.5816C14.3486 19.4666 14.2554 19.3733 14.1403 19.3733H9.55697C8.75193 19.3724 8.09955 18.72 8.09863 17.9149V11.4566C8.09955 10.6516 8.75193 9.9992 9.55697 9.99828H11.2236C11.5688 9.99828 11.8486 10.2781 11.8486 10.6233C11.8486 10.9685 11.5688 11.2483 11.2236 11.2483H9.55697C9.44191 11.2483 9.34863 11.3416 9.34863 11.4566V16.8733C9.34863 16.9883 9.44191 17.0816 9.55697 17.0816H20.3903C20.5054 17.0816 20.5986 16.9883 20.5986 16.8733V11.4566C20.5986 11.3416 20.5054 11.2483 20.3903 11.2483H19.557C19.2118 11.2483 18.932 10.9685 18.932 10.6233C18.932 10.2781 19.2118 9.99828 19.557 9.99828H20.3903Z" fill="#5A5A5A"/>
</g>
</svg>
