<?xml version="1.0" encoding="UTF-8"?>
<svg width="24px" height="24px" viewBox="0 0 24 24" version="1.1" xmlns="http://www.w3.org/2000/svg" xmlns:xlink="http://www.w3.org/1999/xlink">
    <title>6. Technology/vr_monitor_box</title>
    <g id="6.-Technology/vr_monitor_box" stroke="none" stroke-width="1" fill="none" fill-rule="evenodd">
        <path d="M11.2237143,9.99827536 C11.5688923,9.99827536 11.8487143,10.2780974 11.8487143,10.6232754 C11.8487143,10.9684533 11.5688923,11.2482754 11.2237143,11.2482754 L11.2237143,11.2482754 L9.55704767,11.2482754 C9.44198835,11.2482754 9.34871434,11.3415494 9.34871434,11.4566087 L9.34871434,11.4566087 L9.34871434,16.8732754 C9.34871434,16.9883347 9.44198835,17.0816087 9.55704767,17.0816087 L9.55704767,17.0816087 L20.390381,17.0816087 C20.5054403,17.0816087 20.5987143,16.9883347 20.5987143,16.8732754 L20.5987143,16.8732754 L20.5987143,11.4566087 C20.5987143,11.3415494 20.5054403,11.2482754 20.390381,11.2482754 L20.390381,11.2482754 L19.5570477,11.2482754 C19.2118697,11.2482754 18.9320477,10.9684533 18.9320477,10.6232754 C18.9320477,10.2780974 19.2118697,9.99827536 19.5570477,9.99827536 L19.5570477,9.99827536 L20.390381,9.99827536 C21.1954155,9.99919382 21.8477959,10.6515742 21.8487143,11.4566087 L21.8487143,11.4566087 L21.8487143,17.914942 C21.8477959,18.7199765 21.1954155,19.3723569 20.390381,19.3732754 L20.390381,19.3732754 L15.8070477,19.3732754 C15.6919883,19.3732754 15.5987143,19.4665494 15.5987143,19.5816087 L15.5987143,19.5816087 L15.5987143,20.2066087 C15.5987143,20.321668 15.6919883,20.414942 15.8070477,20.414942 L15.8070477,20.414942 L17.0570477,20.414942 C17.4022256,20.414942 17.6820477,20.6947641 17.6820477,21.039942 C17.6820477,21.38512 17.4022256,21.664942 17.0570477,21.664942 L17.0570477,21.664942 L12.890381,21.664942 C12.5452031,21.664942 12.265381,21.38512 12.265381,21.039942 C12.265381,20.6947641 12.5452031,20.414942 12.890381,20.414942 L12.890381,20.414942 L14.140381,20.414942 C14.2554403,20.414942 14.3487143,20.321668 14.3487143,20.2066087 L14.3487143,20.2066087 L14.3487143,19.5816087 C14.3487143,19.4665494 14.2554403,19.3732754 14.140381,19.3732754 L14.140381,19.3732754 L9.55704767,19.3732754 C8.75201316,19.3723569 8.09963281,18.7199765 8.09871434,17.914942 L8.09871434,17.914942 L8.09871434,11.4566087 C8.09963281,10.6515742 8.75201316,9.99919382 9.55704767,9.99827536 L9.55704767,9.99827536 Z M14.8145477,10.447442 C14.9168111,10.4040977 15.0322843,10.4040977 15.1345477,10.447442 L15.1345477,10.447442 L17.6345477,11.4891087 L17.7048255,11.530953 C17.8143162,11.6102982 17.8841307,11.7354565 17.8920477,11.8732754 L17.8920477,11.8732754 L17.8920477,14.789942 C17.8918235,14.9580496 17.7906005,15.1095555 17.635381,15.1741087 L17.635381,15.1741087 L15.135381,16.2157754 C15.0331176,16.2591197 14.9176444,16.2591197 14.815381,16.2157754 L14.815381,16.2157754 L12.315381,15.1741087 C12.1601615,15.1095555 12.0589385,14.9580496 12.0587143,14.789942 L12.0587143,14.789942 L12.0587143,11.8732754 C12.0678925,11.70826 12.165828,11.5611973 12.3145477,11.4891087 L12.3145477,11.4891087 Z M14.9737143,11.282442 L13.5570477,11.8732754 L14.9737143,12.4632754 L16.390381,11.8732754 L14.9737143,11.282442 Z M18.0987143,1.66494202 C18.7890703,1.66494202 19.3487143,2.22458609 19.3487143,2.91494202 L19.3487143,2.91494202 L19.3487143,7.08160869 C19.3487143,8.23220192 18.4159742,9.16494202 17.265381,9.16494202 L17.265381,9.16494202 L13.715381,9.16494202 C13.2180447,9.16494202 12.7371254,8.9869704 12.3595477,8.66327536 L12.3595477,8.66327536 L11.537881,7.95910869 C10.7594019,7.28573962 9.60469348,7.28573962 8.82621434,7.95910869 L8.82621434,7.95910869 L8.00454767,8.66494202 C7.62673323,8.98803494 7.14583866,9.16537774 6.64871434,9.16494202 L6.64871434,9.16494202 L3.93204767,9.16494202 C2.78145444,9.16494202 1.84871434,8.23220192 1.84871434,7.08160869 L1.84871434,7.08160869 L1.84871434,2.91494202 C1.84871434,2.22458609 2.4083584,1.66494202 3.09871434,1.66494202 L3.09871434,1.66494202 Z" id="ðŸ–-Color" fill="#5A5A5A"></path>
        <rect id="_Transparent_Rectangle_" x="0" y="0" width="24" height="24"></rect>
    </g>
</svg>