<svg width="24" height="24" viewBox="0 0 24 24" fill="none" xmlns="http://www.w3.org/2000/svg">
<g id="vr_phone">
<path id="Shape" fill-rule="evenodd" clip-rule="evenodd" d="M7.00033 9.08333C6.77021 9.08333 6.58366 8.89679 6.58366 8.66667V4.08333C6.58366 3.85321 6.77021 3.66667 7.00033 3.66667H17.0003C17.2304 3.66667 17.417 3.85321 17.417 4.08333V8.66667C17.417 8.89679 17.2304 9.08333 17.0003 9.08333H14.292C14.1769 9.08333 14.0837 9.17661 14.0837 9.29167V10.5417C14.0837 10.6567 14.1769 10.75 14.292 10.75H17.417C18.3375 10.75 19.0837 10.0038 19.0837 9.08333V3.66667C19.0837 2.74619 18.3375 2 17.417 2H6.58366C5.66318 2 4.91699 2.74619 4.91699 3.66667V9.08333C4.91699 10.0038 5.66318 10.75 6.58366 10.75H9.70866C9.82372 10.75 9.91699 10.6567 9.91699 10.5417V9.29167C9.91699 9.17661 9.82372 9.08333 9.70866 9.08333H7.00033ZM19.917 14.5H15.4037C15.3429 14.5001 15.2851 14.5266 15.2453 14.5725C14.8753 15.0033 13.4753 16.3875 13.4753 16.3875C13.0845 16.7793 12.5538 16.9996 12.0003 16.9996C11.4469 16.9996 10.9162 16.7793 10.5253 16.3875C10.5253 16.3875 9.12533 15 8.75533 14.5725C8.71553 14.5266 8.65777 14.5001 8.59699 14.5H4.08366C3.16318 14.5 2.41699 15.2462 2.41699 16.1667V19.5C2.41699 20.8807 3.53628 22 4.91699 22H8.46699C8.86445 21.9996 9.24866 21.8571 9.55033 21.5983L10.372 20.8942C11.3076 20.0939 12.6864 20.0939 13.622 20.8942L14.4437 21.5983C14.7453 21.8571 15.1295 21.9996 15.527 22H19.0837C20.4644 22 21.5837 20.8807 21.5837 19.5V16.1667C21.5837 15.2462 20.8375 14.5 19.917 14.5ZM12.0003 15.5418C11.8346 15.5418 11.6756 15.4758 11.5587 15.3583L9.89199 13.6917C9.71348 13.5129 9.66011 13.2443 9.75675 13.0109C9.8534 12.7775 10.081 12.6252 10.3337 12.625H10.9587C11.0737 12.625 11.167 12.5317 11.167 12.4167V8.25C11.167 7.78976 11.5401 7.41667 12.0003 7.41667C12.4606 7.41667 12.8337 7.78976 12.8337 8.25V12.4167C12.8337 12.5317 12.9269 12.625 13.042 12.625H13.667C13.9196 12.6252 14.1473 12.7775 14.2439 13.0109C14.3405 13.2443 14.2872 13.5129 14.1087 13.6917L12.442 15.3583C12.325 15.4758 12.1661 15.5418 12.0003 15.5418Z" fill="#5A5A5A"/>
</g>
</svg>
