<?xml version="1.0" encoding="UTF-8"?>
<svg width="24px" height="24px" viewBox="0 0 24 24" version="1.1" xmlns="http://www.w3.org/2000/svg" xmlns:xlink="http://www.w3.org/1999/xlink">
    <title>6. Technology/vr_phone</title>
    <g id="6.-Technology/vr_phone" stroke="none" stroke-width="1" fill="none" fill-rule="evenodd">
        <path d="M8.59666667,14.5 C8.65744962,14.5001136 8.71520168,14.5265579 8.755,14.5725 C9.125,15 10.525,16.3875 10.525,16.3875 C10.9158511,16.7793404 11.4465531,16.9995574 12,16.9995574 C12.5534469,16.9995574 13.0841489,16.7793404 13.475,16.3875 L13.475,16.3875 L13.5612987,16.3019578 C13.579565,16.283825 13.60042,16.2631083 13.62356,16.2401 L13.78739,16.0768875 C14.2223,15.6428 14.986,14.8740833 15.245,14.5725 C15.2847983,14.5265579 15.3425504,14.5001136 15.4033333,14.5 L15.4033333,14.5 L19.9166667,14.5 C20.8371412,14.5 21.5833333,15.2461921 21.5833333,16.1666667 L21.5833333,16.1666667 L21.5833333,19.5 C21.5833333,20.8807119 20.4640452,22 19.0833333,22 L19.0833333,22 L15.5266667,22 C15.1292139,21.9995663 14.7449999,21.8571115 14.4433333,21.5983333 L14.4433333,21.5983333 L13.6216667,20.8941667 C12.6861066,20.0939474 11.3072267,20.0939474 10.3716667,20.8941667 L10.3716667,20.8941667 L9.55,21.5983333 C9.24833344,21.8571115 8.86411939,21.9995663 8.46666667,22 L8.46666667,22 L4.91666667,22 C3.53595479,22 2.41666667,20.8807119 2.41666667,19.5 L2.41666667,19.5 L2.41666667,16.1666667 C2.41666667,15.2461921 3.16285875,14.5 4.08333333,14.5 L4.08333333,14.5 Z M12,7.41666667 C12.4602373,7.41666667 12.8333333,7.78976271 12.8333333,8.25 L12.8333333,8.25 L12.8333333,12.4166667 C12.8333333,12.531726 12.9266073,12.625 13.0416667,12.625 L13.0416667,12.625 L13.6666667,12.625 C13.9192847,12.6252222 14.1469298,12.7774959 14.2435725,13.0108971 C14.3402152,13.2442983 14.2868503,13.5129277 14.1083333,13.6916667 L14.1083333,13.6916667 L12.4416667,15.3583333 C12.3246963,15.4757847 12.1657615,15.5418087 12,15.5418087 C11.8342385,15.5418087 11.6753037,15.4757847 11.5583333,15.3583333 L11.5583333,15.3583333 L9.89166667,13.6916667 C9.71314975,13.5129277 9.65978484,13.2442983 9.75642752,13.0108971 C9.8530702,12.7774959 10.0807153,12.6252222 10.3333333,12.625 L10.3333333,12.625 L10.9583333,12.625 C11.0733927,12.625 11.1666667,12.531726 11.1666667,12.4166667 L11.1666667,12.4166667 L11.1666667,8.25 C11.1666667,7.78976271 11.5397627,7.41666667 12,7.41666667 Z M17.4166667,2 C18.3371412,2 19.0833333,2.74619208 19.0833333,3.66666667 L19.0833333,3.66666667 L19.0833333,9.08333333 C19.0833333,10.0038079 18.3371412,10.75 17.4166667,10.75 L17.4166667,10.75 L14.2916667,10.75 C14.1766073,10.75 14.0833333,10.656726 14.0833333,10.5416667 L14.0833333,10.5416667 L14.0833333,9.29166667 C14.0833333,9.17660734 14.1766073,9.08333333 14.2916667,9.08333333 L14.2916667,9.08333333 L17,9.08333333 C17.2301186,9.08333333 17.4166667,8.89678531 17.4166667,8.66666667 L17.4166667,8.66666667 L17.4166667,4.08333333 C17.4166667,3.85321469 17.2301186,3.66666667 17,3.66666667 L17,3.66666667 L7,3.66666667 C6.76988135,3.66666667 6.58333333,3.85321469 6.58333333,4.08333333 L6.58333333,4.08333333 L6.58333333,8.66666667 C6.58333333,8.89678531 6.76988135,9.08333333 7,9.08333333 L7,9.08333333 L9.70833333,9.08333333 C9.82339266,9.08333333 9.91666667,9.17660734 9.91666667,9.29166667 L9.91666667,9.29166667 L9.91666667,10.5416667 C9.91666667,10.656726 9.82339266,10.75 9.70833333,10.75 L9.70833333,10.75 L6.58333333,10.75 C5.66285875,10.75 4.91666667,10.0038079 4.91666667,9.08333333 L4.91666667,9.08333333 L4.91666667,3.66666667 C4.91666667,2.74619208 5.66285875,2 6.58333333,2 L6.58333333,2 Z" id="ðŸ–-Color" fill="#5A5A5A"></path>
        <rect id="_Transparent_Rectangle_" x="0" y="0" width="24" height="24"></rect>
    </g>
</svg>