<?xml version="1.0" encoding="UTF-8"?>
<svg width="24px" height="24px" viewBox="0 0 24 24" version="1.1" xmlns="http://www.w3.org/2000/svg" xmlns:xlink="http://www.w3.org/1999/xlink">
    <title>6. Technology/vr_user_headphones</title>
    <g id="6.-Technology/vr_user_headphones" stroke="none" stroke-width="1" fill="none" fill-rule="evenodd">
        <path d="M14.5466667,18.2076867 C14.7819325,18.0206128 15.0997111,17.9747315 15.3782854,18.0876164 C15.6568597,18.2005014 15.853056,18.4546575 15.8917263,18.7527367 C15.9303967,19.050816 15.8055478,19.3466218 15.565,19.5268533 C13.4672155,21.1478577 10.5394511,21.1478577 8.44166667,19.5268533 C8.20111885,19.3466218 8.07627001,19.050816 8.11494033,18.7527367 C8.15361065,18.4546575 8.34980697,18.2005014 8.62838126,18.0876164 C8.90695556,17.9747315 9.22473414,18.0206128 9.46,18.2076867 C10.9646506,19.3418739 13.0386828,19.3418739 14.5433333,18.2076867 L14.5433333,18.2076867 Z M12,7.82601998 C14.5613088,7.82900073 16.8222201,9.4994335 17.5775,11.9468533 C17.7446846,12.2126775 17.8333333,12.5203259 17.8333333,12.8343533 L17.8333333,12.8343533 L17.8333333,15.3343533 C17.8333333,16.2548279 17.0871412,17.00102 16.1666658,17.00102 L16.1666658,17.00102 L14.0833333,17.00102 C13.8210356,17.00102 13.5740453,16.8775249 13.4166667,16.6676867 L13.4166667,16.6676867 L12.6666658,15.6676867 C12.509288,15.4578484 12.2622978,15.3343533 12,15.3343533 C11.7377022,15.3343533 11.490712,15.4578484 11.3333333,15.6676867 L11.3333333,15.6676867 L10.5833333,16.6676867 C10.4259547,16.8775249 10.1789644,17.00102 9.91666667,17.00102 L9.91666667,17.00102 L7.83333333,17.00102 C6.91285875,17.00102 6.16666583,16.2548279 6.16666583,15.3343533 L6.16666583,15.3343533 L6.16666583,12.8343533 C6.1663245,12.4929121 6.27138468,12.159688 6.4675,11.8801867 C6.47389836,11.8101666 6.48930328,11.7412646 6.51333333,11.6751867 C7.35315562,9.36780173 9.54453526,7.83044108 12,7.82601998 Z M12,3.25739343 C16.6915997,3.25739343 20.5482909,6.95760835 20.7425,11.6451867 C21.2456973,11.8195032 21.5833333,12.2934848 21.5833333,12.82602 L21.5833333,12.82602 L21.5833333,15.32602 C21.5833333,16.0163759 21.0236893,16.57602 20.3333333,16.57602 L20.3333333,16.57602 L19.0833333,16.57602 C18.8532147,16.57602 18.6666667,16.389472 18.6666667,16.1593533 L18.6666667,16.1593533 L18.6666667,11.9926867 C18.6665652,11.7673625 18.8456106,11.5827797 19.0708333,11.57602 C18.8482287,7.83398685 15.7486484,4.91331366 12,4.91331366 C8.25135161,4.91331366 5.15177129,7.83398685 4.92916667,11.57602 C5.15438945,11.5827797 5.33343475,11.7673625 5.33333333,11.9926867 L5.33333333,11.9926867 L5.33333333,16.1593533 C5.33333333,16.389472 5.14678531,16.57602 4.91666667,16.57602 L4.91666667,16.57602 L3.66666667,16.57602 C2.97631073,16.57602 2.41666667,16.0163759 2.41666667,15.32602 L2.41666667,15.32602 L2.41666667,12.82602 C2.41666667,12.2934848 2.75430269,11.8195032 3.2575,11.6451867 C3.45170905,6.95760835 7.30840033,3.25739343 12,3.25739343 Z M9.91666667,12.8343533 L8.25,12.8343533 C8.01988135,12.8343533 7.83333333,13.0209013 7.83333333,13.25102 C7.83333333,13.4811386 8.01988135,13.6676867 8.25,13.6676867 L8.25,13.6676867 L9.91666667,13.6676867 C10.1467853,13.6676867 10.3333333,13.4811386 10.3333333,13.25102 C10.3333333,13.0209013 10.1467853,12.8343533 9.91666667,12.8343533 L9.91666667,12.8343533 Z M12.4166667,12.8343533 L11.5833333,12.8343533 C11.3532147,12.8343533 11.1666667,13.0209013 11.1666667,13.25102 C11.1666667,13.4811386 11.3532147,13.6676867 11.5833333,13.6676867 L11.5833333,13.6676867 L12.4166667,13.6676867 C12.6467853,13.6676867 12.8333333,13.4811386 12.8333333,13.25102 C12.8333333,13.0209013 12.6467853,12.8343533 12.4166667,12.8343533 L12.4166667,12.8343533 Z M12.0008333,9.49342607 C10.8460274,9.49342607 9.74301357,9.97269015 8.955,10.8168533 C8.89813176,10.8775024 8.88276773,10.9661569 8.91591132,11.0424053 C8.94905492,11.1186537 9.02435994,11.1678962 9.1075,11.1676873 L9.1075,11.1676873 L14.8941667,11.1676873 C14.9773067,11.1678962 15.0526118,11.1186537 15.0857553,11.0424053 C15.1188989,10.9661569 15.1035349,10.8775024 15.0466667,10.8168533 C14.2586531,9.97269015 13.1556393,9.49342607 12.0008333,9.49342607 Z" id="ðŸ–-Color" fill="#5A5A5A"></path>
        <rect id="_Transparent_Rectangle_" x="0" y="0" width="24" height="24"></rect>
    </g>
</svg>