<?xml version="1.0" encoding="UTF-8"?>
<svg width="24px" height="24px" viewBox="0 0 24 24" version="1.1" xmlns="http://www.w3.org/2000/svg" xmlns:xlink="http://www.w3.org/1999/xlink">
    <title>6. Technology/vr_user_play_1</title>
    <g id="6.-Technology/vr_user_play_1" stroke="none" stroke-width="1" fill="none" fill-rule="evenodd">
        <path d="M10.1350031,19.6391338 C10.5182311,19.3852648 11.0346544,19.489668 11.2891697,19.8724672 C11.5436072,20.2558593 11.4391517,20.772914 11.0558364,21.0274672 C9.10318634,22.3242214 6.56348646,22.3242214 4.6108364,21.0274672 C4.24264572,20.7674457 4.14794708,20.2617888 4.39709295,19.8861535 C4.64623882,19.5105182 5.14891094,19.4010766 5.53166974,19.6391338 C6.93190464,20.5467396 8.73476816,20.5467396 10.1350031,19.6391338 Z M7.8333364,9.49988903 C10.3980389,9.48671779 12.6667581,11.1599575 13.4116697,13.6141338 C13.5787198,13.8793601 13.6671396,14.1865178 13.6666716,14.4999672 L13.6666716,14.4999672 L13.6666716,16.9999672 C13.6666716,17.9204417 12.9204777,18.6666338 12,18.6666338 L12,18.6666338 L9.91666974,18.6666338 C9.65437198,18.6666338 9.40738172,18.5431387 9.25000307,18.3333005 L9.25000307,18.3333005 L8.49999998,17.3333005 C8.34262442,17.1234623 8.09563415,16.9999672 7.8333364,16.9999672 C7.57103865,16.9999672 7.32404839,17.1234623 7.16666974,17.3333005 L7.16666974,17.3333005 L6.41666974,18.3333005 C6.25929108,18.5431387 6.01230082,18.6666338 5.75000307,18.6666338 L5.75000307,18.6666338 L3.66666974,18.6666338 C2.74619515,18.6666338 1.99999998,17.9204417 1.99999998,16.9999672 L1.99999998,16.9999672 L1.99999998,14.4999672 C1.99939288,14.1840835 2.08933304,13.8746431 2.25916974,13.6083005 C3.01416576,11.1638836 5.27498,9.4975935 7.8333364,9.49988903 Z M5.75000307,14.4999672 L4.0833364,14.4999672 C3.85321776,14.4999672 3.66666974,14.6865152 3.66666974,14.9166338 C3.66666974,15.1467525 3.85321776,15.3333005 4.0833364,15.3333005 L4.0833364,15.3333005 L5.75000307,15.3333005 C5.98012171,15.3333005 6.16666974,15.1467525 6.16666974,14.9166338 C6.16666974,14.6865152 5.98012171,14.4999672 5.75000307,14.4999672 L5.75000307,14.4999672 Z M8.25000307,14.4999672 L7.41666974,14.4999672 C7.18655109,14.4999672 7.00000307,14.6865152 7.00000307,14.9166338 C7.00000307,15.1467525 7.18655109,15.3333005 7.41666974,15.3333005 L7.41666974,15.3333005 L8.25000307,15.3333005 C8.48012171,15.3333005 8.66666974,15.1467525 8.66666974,14.9166338 C8.66666974,14.6865152 8.48012171,14.4999672 8.25000307,14.4999672 L8.25000307,14.4999672 Z M20.3333364,1.99996716 C21.253811,1.99996716 22.0000031,2.74615924 22.0000031,3.66663382 L22.0000031,3.66663382 L22.0000031,11.1666338 C22.0000031,12.0871084 21.253811,12.8333014 20.3333364,12.8333014 L20.3333364,12.8333014 L14.8800031,12.8333014 C14.7975982,12.833549 14.7227907,12.7852018 14.6891697,12.7099672 C13.9942737,11.1526024 12.7922787,9.87658433 11.2791697,9.08996716 C11.210053,9.05416018 11.1666697,8.9828084 11.1666697,8.90496716 L11.1666697,8.90496716 L11.1666697,3.66663382 C11.1666697,2.74615924 11.9128618,1.99996716 12.8333364,1.99996716 L12.8333364,1.99996716 Z M7.83750307,11.1666216 C6.68400425,11.1666216 5.58165272,11.6427237 4.7908364,12.4824672 C4.73407195,12.5430059 4.71865149,12.6314611 4.75158245,12.7076365 C4.7845134,12.783812 4.85951433,12.8331776 4.94250307,12.8333012 L4.94250307,12.8333012 L10.7316697,12.8333012 C10.8148098,12.8335101 10.8901148,12.7842675 10.9232584,12.7080192 C10.956402,12.6317708 10.941038,12.5431163 10.8841697,12.4824672 C10.0933534,11.6427237 8.99100189,11.1666216 7.83750307,11.1666216 Z M15.6733364,5.23330049 C15.4335354,5.0902332 15.135351,5.08706834 14.8925673,5.2250136 C14.6497837,5.36295885 14.499859,5.6207311 14.500003,5.89996716 L14.500003,5.89996716 L14.500003,8.93330049 C14.499859,9.21253654 14.6497837,9.47030879 14.8925673,9.60825405 C15.135351,9.74619931 15.4335354,9.74303445 15.6733364,9.59996716 L15.6733364,9.59996716 L18.2008364,8.08330049 C18.4347762,7.9425609 18.5779896,7.68964547 18.5783364,7.41663382 C18.5783364,7.14353498 18.435021,6.89046817 18.2008364,6.74996716 L18.2008364,6.74996716 Z" id="ðŸ–-Color" fill="#5A5A5A"></path>
        <rect id="_Transparent_Rectangle_" x="0" y="0" width="24" height="24"></rect>
    </g>
</svg>