<svg width="24" height="24" viewBox="0 0 24 24" fill="none" xmlns="http://www.w3.org/2000/svg">
<g id="vr_user_play_1">
<path id="Shape" fill-rule="evenodd" clip-rule="evenodd" d="M12.8333 1.99997H20.3333C21.2538 1.99997 22 2.74616 22 3.66664V11.1666C22 12.0871 21.2538 12.8333 20.3333 12.8333H14.88C14.7976 12.8336 14.7228 12.7852 14.6892 12.71C13.9943 11.1526 12.7923 9.87659 11.2792 9.08997C11.2101 9.05416 11.1667 8.98281 11.1667 8.90497V3.66664C11.1667 2.74616 11.9129 1.99997 12.8333 1.99997ZM18.2008 8.0833C18.4348 7.94256 18.578 7.68965 18.5783 7.41664C18.5783 7.14354 18.435 6.89047 18.2008 6.74997L15.6733 5.2333C15.4335 5.09024 15.1354 5.08707 14.8926 5.22502C14.6498 5.36296 14.4999 5.62073 14.5 5.89997V8.9333C14.4999 9.21254 14.6498 9.47031 14.8926 9.60826C15.1354 9.7462 15.4335 9.74304 15.6733 9.59997L18.2008 8.0833ZM2.25917 13.6083C3.01417 11.1639 5.27498 9.4976 7.83334 9.49997C10.398 9.48672 12.6668 11.16 13.4117 13.6141C13.5787 13.8794 13.6671 14.1865 13.6667 14.5V17C13.6667 17.9204 12.9205 18.6666 12 18.6666H9.91667C9.65437 18.6666 9.40738 18.5431 9.25 18.3333L8.5 17.3333C8.34262 17.1235 8.09563 17 7.83334 17C7.57104 17 7.32405 17.1235 7.16667 17.3333L6.41667 18.3333C6.25929 18.5431 6.0123 18.6666 5.75 18.6666H3.66667C2.7462 18.6666 2 17.9204 2 17V14.5C1.99939 14.1841 2.08933 13.8746 2.25917 13.6083ZM4.08334 15.3333H5.75C5.98012 15.3333 6.16667 15.1468 6.16667 14.9166C6.16667 14.6865 5.98012 14.5 5.75 14.5H4.08334C3.85322 14.5 3.66667 14.6865 3.66667 14.9166C3.66667 15.1468 3.85322 15.3333 4.08334 15.3333ZM7.41667 15.3333C7.18655 15.3333 7 15.1468 7 14.9166C7 14.6865 7.18655 14.5 7.41667 14.5H8.25C8.48012 14.5 8.66667 14.6865 8.66667 14.9166C8.66667 15.1468 8.48012 15.3333 8.25 15.3333H7.41667ZM4.75158 12.7076C4.78451 12.7838 4.85951 12.8332 4.9425 12.8333H10.7317C10.8148 12.8335 10.8901 12.7843 10.9233 12.708C10.9564 12.6318 10.941 12.5431 10.8842 12.4825C10.0934 11.6427 8.991 11.1666 7.8375 11.1666C6.684 11.1666 5.58165 11.6427 4.79084 12.4825C4.73407 12.543 4.71865 12.6315 4.75158 12.7076ZM10.135 19.6391C10.5182 19.3853 11.0347 19.4897 11.2892 19.8725C11.5436 20.2559 11.4392 20.7729 11.0558 21.0275C9.10319 22.3242 6.56349 22.3242 4.61084 21.0275C4.24265 20.7674 4.14795 20.2618 4.39709 19.8862C4.64624 19.5105 5.14891 19.4011 5.53167 19.6391C6.9319 20.5467 8.73477 20.5467 10.135 19.6391Z" fill="#5A5A5A"/>
</g>
</svg>
