<svg width="24" height="24" viewBox="0 0 24 24" fill="none" xmlns="http://www.w3.org/2000/svg">
<g id="vr_user_headphones">
<path id="Shape" fill-rule="evenodd" clip-rule="evenodd" d="M20.7428 11.6452C20.5486 6.95762 16.6919 3.2574 12.0003 3.2574C7.30873 3.2574 3.45203 6.95762 3.25783 11.6452C2.75463 11.8195 2.41712 12.2935 2.41699 12.826V15.326C2.41699 16.0164 2.97664 16.576 3.66699 16.576H4.91699C5.14711 16.576 5.33366 16.3895 5.33366 16.1594V11.9927C5.33376 11.7674 5.15472 11.5828 4.92949 11.576C5.1521 7.83399 8.25168 4.91332 12.0003 4.91332C15.749 4.91332 18.8486 7.83399 19.0712 11.576C18.8459 11.5828 18.6669 11.7674 18.667 11.9927V16.1594C18.667 16.3895 18.8535 16.576 19.0837 16.576H20.3337C21.024 16.576 21.5837 16.0164 21.5837 15.326V12.826C21.5835 12.2935 21.246 11.8195 20.7428 11.6452ZM6.51366 11.6752C7.35348 9.36781 9.54486 7.83045 12.0003 7.82603C14.5616 7.82901 16.8225 9.49944 17.5778 11.9469C17.745 12.2127 17.8337 12.5203 17.8337 12.8344V15.3344C17.8337 16.2548 17.0875 17.001 16.167 17.001H14.0837C13.8214 17.001 13.5744 16.8775 13.417 16.6677L12.667 15.6677C12.5096 15.4579 12.2626 15.3344 12.0003 15.3344C11.738 15.3344 11.491 15.4579 11.3337 15.6677L10.5837 16.6677C10.4263 16.8775 10.1793 17.001 9.91699 17.001H7.83366C6.91319 17.001 6.16699 16.2548 6.16699 15.3344V12.8344C6.16665 12.4929 6.27171 12.1597 6.46783 11.8802C6.47423 11.8102 6.48963 11.7413 6.51366 11.6752ZM8.25033 13.6677H9.91699C10.1471 13.6677 10.3337 13.4811 10.3337 13.251C10.3337 13.0209 10.1471 12.8344 9.91699 12.8344H8.25033C8.02021 12.8344 7.83366 13.0209 7.83366 13.251C7.83366 13.4811 8.02021 13.6677 8.25033 13.6677ZM11.5837 13.6677C11.3535 13.6677 11.167 13.4811 11.167 13.251C11.167 13.0209 11.3535 12.8344 11.5837 12.8344H12.417C12.6471 12.8344 12.8337 13.0209 12.8337 13.251C12.8337 13.4811 12.6471 13.6677 12.417 13.6677H11.5837ZM8.91624 11.0424C8.94938 11.1187 9.02469 11.1679 9.10783 11.1677H14.8945C14.9776 11.1679 15.0529 11.1187 15.0861 11.0424C15.1192 10.9662 15.1039 10.8775 15.047 10.8169C14.259 9.9727 13.156 9.49343 12.0012 9.49343C10.8464 9.49343 9.74334 9.9727 8.95533 10.8169C8.89846 10.8775 8.88309 10.9662 8.91624 11.0424ZM9.46033 18.2077C10.965 19.3419 13.039 19.3419 14.5437 18.2077H14.547C14.7823 18.0206 15.1 17.9747 15.3786 18.0876C15.6572 18.2005 15.8534 18.4547 15.8921 18.7527C15.9307 19.0508 15.8059 19.3466 15.5653 19.5269C13.4675 21.1479 10.5398 21.1479 8.44199 19.5269C8.20144 19.3466 8.0766 19.0508 8.11527 18.7527C8.15394 18.4547 8.35013 18.2005 8.62871 18.0876C8.90728 17.9747 9.22506 18.0206 9.46033 18.2077Z" fill="#5A5A5A"/>
</g>
</svg>
