<?xml version="1.0" encoding="UTF-8"?>
<svg width="24px" height="24px" viewBox="0 0 24 24" version="1.1" xmlns="http://www.w3.org/2000/svg" xmlns:xlink="http://www.w3.org/1999/xlink">
    <title>6. Technology/webcam</title>
    <g id="6.-Technology/webcam" stroke="none" stroke-width="1" fill="none" fill-rule="evenodd">
        <path d="M9.2203772,2.60048839 L9.27657696,2.61659511 C9.33077754,2.6407549 9.3721651,2.68679969 9.39043034,2.74326012 C9.80567383,3.80510874 10.8621108,4.47453414 11.999597,4.39659345 C13.1370832,4.47453414 14.1935202,3.80510874 14.6087637,2.74326012 C14.6270289,2.68679969 14.6684165,2.6407549 14.7226171,2.61659511 C14.7768176,2.59243532 14.8387293,2.59243472 14.8929303,2.61659345 C17.6925362,3.86757239 19.3693069,6.77790269 19.0473644,9.82734436 C18.725422,12.876786 16.4778797,15.37281 13.4787637,16.0115935 C13.4041309,16.0274866 13.3441585,16.0829097 13.3224394,16.1560597 C13.3007203,16.2292097 13.3207301,16.3083806 13.374597,16.3624268 L13.374597,16.3624268 L17.5887637,20.5774268 C17.9045739,20.9044092 17.9000573,21.4241641 17.5786125,21.7456089 C17.2571677,22.0670538 16.7374127,22.0715703 16.4104303,21.7557601 L16.4104303,21.7557601 L13.1887637,18.5340935 C13.1291744,18.4743531 13.0394347,18.4564559 12.9614873,18.4887667 C12.8835399,18.5210774 12.8327794,18.5972148 12.8329303,18.6815935 L12.8329303,18.6815935 L12.8329303,21.1665935 C12.8329303,21.6268307 12.4598343,21.9999268 11.999597,21.9999268 C11.5393597,21.9999268 11.1662637,21.6268307 11.1662637,21.1665935 L11.1662637,21.1665935 L11.1662637,18.6815935 C11.1664146,18.5972148 11.1156541,18.5210774 11.0377067,18.4887667 C10.9597593,18.4564559 10.8700196,18.4743531 10.8104303,18.5340935 L10.8104303,18.5340935 L7.58876368,21.7557601 C7.26178127,22.0715703 6.74202636,22.0670538 6.42058153,21.7456089 C6.0991367,21.4241641 6.09462017,20.9044092 6.41043034,20.5774268 L6.41043034,20.5774268 L10.627097,16.3624268 C10.6809639,16.3083806 10.7009737,16.2292097 10.6792546,16.1560597 C10.6575355,16.0829097 10.5975631,16.0274866 10.5229303,16.0115935 C7.52350543,15.3735106 5.27529523,12.8778216 4.95277353,9.82828406 C4.63025183,6.77874652 6.30667122,3.86798531 9.10626368,2.61659345 C9.16046473,2.59243472 9.22237638,2.59243532 9.27657696,2.61659511 Z M11.999597,5.54159345 C10.0435885,5.54159345 8.45793034,7.12725163 8.45793034,9.08326012 C8.46022636,11.0383168 10.0445404,12.6226308 11.999597,12.6249268 C13.9556055,12.6249268 15.5412637,11.0392686 15.5412637,9.08326012 C15.5412637,7.12725163 13.9556055,5.54159345 11.999597,5.54159345 Z M11.999597,6.79159345 C13.2652496,6.79159345 14.2912637,7.81760757 14.2912637,9.08326012 C14.2903445,10.3485317 13.2648686,11.3740076 11.999597,11.3749268 C10.7339445,11.3749268 9.70793034,10.3489127 9.70793034,9.08326012 C9.70793034,7.81760757 10.7339445,6.79159345 11.999597,6.79159345 Z M11.999597,8.24992678 C11.5393597,8.24992678 11.1662637,8.62302283 11.1662637,9.08326012 C11.1662637,9.54349741 11.5393597,9.91659345 11.999597,9.91659345 C12.4598343,9.91659345 12.8329303,9.54349741 12.8329303,9.08326012 C12.8329303,8.62302283 12.4598343,8.24992678 11.999597,8.24992678 Z M10.749597,2.10992678 C11.5764942,1.96345536 12.4226998,1.96345536 13.249597,2.10992678 C13.3099168,2.12049319 13.3625763,2.15696279 13.3936814,2.20971315 C13.4247865,2.26246352 13.4312124,2.32619547 13.4112637,2.38409345 C13.1465439,2.90853822 12.5833278,3.21275471 11.999597,3.14659345 C11.4161539,3.21238824 10.8533734,2.90822746 10.5887637,2.38409345 C10.5688113,2.32631691 10.5751301,2.26270368 10.6060585,2.2099812 C10.6369869,2.15725873 10.6894298,2.12070308 10.749597,2.10992678 Z" id="Combined-Shape" fill="#5A5A5A"></path>
        <rect id="_Transparent_Rectangle_" x="0" y="0" width="24" height="24"></rect>
    </g>
</svg>