<svg width="24" height="24" viewBox="0 0 24 24" fill="none" xmlns="http://www.w3.org/2000/svg">
<g id="webcam">
<path id="Shape" fill-rule="evenodd" clip-rule="evenodd" d="M11.9994 3.14659C12.5831 3.21275 13.1464 2.90854 13.4111 2.38409C13.431 2.32619 13.4246 2.26246 13.3935 2.20971C13.3624 2.15696 13.3097 2.12049 13.2494 2.10993C12.4225 1.96345 11.5763 1.96345 10.7494 2.10993C10.6892 2.1207 10.6368 2.15726 10.6059 2.20998C10.5749 2.2627 10.5686 2.32632 10.5886 2.38409C10.8532 2.90823 11.416 3.21239 11.9994 3.14659ZM11.9994 6.79159C13.2651 6.79159 14.2911 7.81761 14.2911 9.08326C14.2902 10.3485 13.2647 11.374 11.9994 11.3749C10.7338 11.3749 9.70774 10.3489 9.70774 9.08326C9.70774 7.81761 10.7338 6.79159 11.9994 6.79159ZM11.9994 8.24993C11.5392 8.24993 11.1661 8.62302 11.1661 9.08326C11.1661 9.5435 11.5392 9.91659 11.9994 9.91659C12.4596 9.91659 12.8327 9.5435 12.8327 9.08326C12.8327 8.62302 12.4596 8.24993 11.9994 8.24993ZM13.3744 16.3624C13.3205 16.3084 13.3005 16.2292 13.3223 16.1561C13.344 16.0829 13.4039 16.0275 13.4786 16.0116C16.4777 15.3728 18.7252 12.8768 19.0472 9.82734C19.3691 6.7779 17.6923 3.86757 14.8927 2.61659C14.8385 2.59243 14.7766 2.59243 14.7224 2.61659C14.6682 2.64075 14.6268 2.6868 14.6086 2.74326C14.1933 3.80511 13.1369 4.47453 11.9994 4.39659C10.8619 4.47453 9.80549 3.80511 9.39024 2.74326C9.37198 2.6868 9.33059 2.64075 9.27639 2.61659C9.22219 2.59243 9.16028 2.59243 9.10608 2.61659C6.30648 3.86798 4.63006 6.77875 4.95259 9.82828C5.27511 12.8778 7.52332 15.3735 10.5227 16.0116C10.5974 16.0275 10.6573 16.0829 10.6791 16.1561C10.7008 16.2292 10.6808 16.3084 10.6269 16.3624L6.41024 20.5774C6.09443 20.9044 6.09895 21.4242 6.42039 21.7456C6.74184 22.0671 7.26159 22.0716 7.58858 21.7558L10.8102 18.5341C10.8698 18.4744 10.9596 18.4565 11.0375 18.4888C11.1155 18.5211 11.1662 18.5972 11.1661 18.6816V21.1666C11.1661 21.6268 11.5392 21.9999 11.9994 21.9999C12.4596 21.9999 12.8327 21.6268 12.8327 21.1666V18.6816C12.8326 18.5972 12.8834 18.5211 12.9613 18.4888C13.0392 18.4565 13.129 18.4744 13.1886 18.5341L16.4102 21.7558C16.7372 22.0716 17.257 22.0671 17.5784 21.7456C17.8999 21.4242 17.9044 20.9044 17.5886 20.5774L13.3744 16.3624ZM8.45774 9.08326C8.45774 7.12725 10.0434 5.54159 11.9994 5.54159C13.9554 5.54159 15.5411 7.12725 15.5411 9.08326C15.5411 11.0393 13.9554 12.6249 11.9994 12.6249C10.0444 12.6226 8.46004 11.0383 8.45774 9.08326Z" fill="#5A5A5A"/>
</g>
</svg>
