<svg width="24" height="24" viewBox="0 0 24 24" fill="none" xmlns="http://www.w3.org/2000/svg">
<g id="wireless_remote">
<path id="Shape" fill-rule="evenodd" clip-rule="evenodd" d="M7.58333 5.5C10.0235 3.06289 13.9765 3.06289 16.4167 5.5C16.6259 5.71663 16.9357 5.80351 17.2271 5.72725C17.5184 5.65099 17.746 5.42345 17.8222 5.13209C17.8985 4.84074 17.8116 4.5309 17.595 4.32167C14.5034 1.23004 9.49081 1.23004 6.39917 4.32167C6.07378 4.64867 6.07508 5.17753 6.40208 5.50292C6.72908 5.82831 7.25795 5.827 7.58333 5.5ZM8.16667 6.8275C7.84128 7.15381 7.84203 7.68212 8.16833 8.0075C8.49464 8.33289 9.02295 8.33215 9.34833 8.00584C10.0516 7.30231 11.0056 6.90705 12.0004 6.90705C12.9952 6.90705 13.9492 7.30231 14.6525 8.00584C14.863 8.21677 15.17 8.29939 15.4579 8.22257C15.7459 8.14575 15.9709 7.92116 16.0484 7.6334C16.1258 7.34565 16.0438 7.03844 15.8333 6.8275C14.8175 5.81153 13.4396 5.24074 12.0029 5.24074C10.5662 5.24074 9.18834 5.81153 8.1725 6.8275H8.16667ZM7.83333 9.5H16.1667C16.7192 9.5 17.2491 9.7195 17.6398 10.1102C18.0305 10.5009 18.25 11.0308 18.25 11.5833V19.9167C18.25 21.0673 17.3173 22 16.1667 22H7.83333C7.2808 22 6.7509 21.7805 6.36019 21.3898C5.96949 20.9991 5.75 20.4692 5.75 19.9167V11.5833C5.75 10.4327 6.68274 9.5 7.83333 9.5ZM11.7437 14.101C10.9312 14.2275 10.3323 14.9277 10.3333 15.75C10.3341 16.3823 10.6927 16.9598 11.2592 17.2408C11.3301 17.276 11.375 17.3483 11.375 17.4275V19.5C11.375 19.8452 11.6548 20.125 12 20.125C12.3452 20.125 12.625 19.8452 12.625 19.5V17.4275C12.625 17.3483 12.6699 17.276 12.7408 17.2408C13.4775 16.8753 13.8374 16.0272 13.5885 15.2434C13.3396 14.4597 12.5562 13.9746 11.7437 14.101ZM12 12.6258C10.2701 12.6281 8.8685 14.0301 8.86667 15.76C8.86667 16.1052 8.58684 16.385 8.24167 16.385C7.89649 16.385 7.61667 16.1052 7.61667 15.76C7.59487 14.1794 8.42561 12.7095 9.79091 11.9129C11.1562 11.1162 12.8446 11.1162 14.2099 11.9129C15.5752 12.7095 16.406 14.1794 16.3842 15.76C16.3842 16.1052 16.1043 16.385 15.7592 16.385C15.414 16.385 15.1342 16.1052 15.1342 15.76C15.1319 14.03 13.73 12.6281 12 12.6258Z" fill="#5A5A5A"/>
</g>
</svg>
