<?xml version="1.0" encoding="UTF-8"?>
<svg width="24px" height="24px" viewBox="0 0 24 24" version="1.1" xmlns="http://www.w3.org/2000/svg" xmlns:xlink="http://www.w3.org/1999/xlink">
    <title>6. Technology/wireless_remote</title>
    <g id="6.-Technology/wireless_remote" stroke="none" stroke-width="1" fill="none" fill-rule="evenodd">
        <path d="M16.1666667,9.5 C16.719201,9.5 17.249105,9.71949342 17.6398058,10.1101942 C18.0305066,10.500895 18.25,11.030799 18.25,11.5833333 L18.25,11.5833333 L18.25,19.9166667 C18.25,21.0672599 17.3172599,22 16.1666667,22 L16.1666667,22 L7.83333333,22 C7.28079898,22 6.75089499,21.7805066 6.36019421,21.3898058 C5.96949342,20.999105 5.75,20.469201 5.75,19.9166667 L5.75,19.9166667 L5.75,11.5833333 C5.75,10.4327401 6.6827401,9.5 7.83333333,9.5 L7.83333333,9.5 Z M13.5884853,15.2434013 C13.3395831,14.4596493 12.5562453,13.9745709 11.7437009,14.1010271 C10.9311565,14.2274832 10.332282,14.927675 10.333332,15.75 C10.3341423,16.382339 10.69273,16.9597589 11.2591667,17.2408333 C11.3301125,17.2759885 11.3749979,17.3483217 11.375,17.4275 L11.375,17.4275 L11.375,19.5 C11.375,19.845178 11.654822,20.125 12,20.125 C12.345178,20.125 12.625,19.845178 12.625,19.5 L12.625,19.5 L12.625,17.4275 C12.6250021,17.3483217 12.6698875,17.2759885 12.7408333,17.2408333 C13.477455,16.8753089 13.8373875,16.0271534 13.5884853,15.2434013 Z M14.2099256,11.9128719 C12.844631,11.1162304 11.1562024,11.1162304 9.79090774,11.9128719 C8.42561309,12.7095134 7.59487403,14.179433 7.61666667,15.76 C7.61666667,16.105178 7.8964887,16.385 8.24166667,16.385 C8.58684464,16.385 8.86666667,16.105178 8.86666667,15.76 C8.86850298,14.030134 10.2701346,12.6281297 12,12.6258333 C13.7300008,12.6281287 15.1318713,14.0299992 15.1341667,15.76 C15.1341667,16.105178 15.4139887,16.385 15.7591667,16.385 C16.1043446,16.385 16.3841667,16.105178 16.3841667,15.76 C16.4059593,14.179433 15.5752202,12.7095134 14.2099256,11.9128719 Z M12.0029167,5.24074011 C13.4396309,5.24074011 14.8174906,5.81152199 15.8333333,6.8275 C16.0438223,7.03843556 16.1257894,7.34564259 16.0483583,7.63339917 C15.9709272,7.92115575 15.7458617,8.14574481 15.4579416,8.22256583 C15.1700216,8.29938685 14.862989,8.21676889 14.6525,8.00583333 C13.9492034,7.30230705 12.9951907,6.90705079 12.0004167,6.90705079 C11.0056427,6.90705079 10.0516299,7.30230705 9.34833333,8.00583333 C9.02294557,8.33214157 8.49464157,8.33288777 8.16833333,8.0075 C7.84202509,7.68211223 7.8412789,7.15380824 8.16666667,6.8275 L8.16666667,6.8275 C9.18834277,5.81152199 10.5662024,5.24074011 12.0029167,5.24074011 Z M6.39916667,4.32166667 C9.49081456,1.23003205 14.5033521,1.23003205 17.595,4.32166667 C17.8116305,4.53089539 17.8985105,4.84073158 17.8222476,5.13208944 C17.7459848,5.4234473 17.5184473,5.65098476 17.2270894,5.72724763 C16.9357316,5.8035105 16.6258954,5.71663049 16.4166667,5.5 C13.9765204,3.06288852 10.0234796,3.06288852 7.58333333,5.5 C7.25794557,5.8269986 6.72908193,5.82830443 6.40208333,5.50291667 C6.07508474,5.1775289 6.0737789,4.64866526 6.39916667,4.32166667 Z" id="ðŸ–-Color" fill="#5A5A5A"></path>
        <rect id="_Transparent_Rectangle_" x="0" y="0.00147035105" width="24" height="24"></rect>
    </g>
</svg>