<svg id="illustrasyon2" xmlns="http://www.w3.org/2000/svg" width="542" height="395.938" viewBox="0 0 542 395.938">
  <defs>
    <clipPath id="clip-path">
      <path id="Clip_41" data-name="Clip 41"
            d="M107.268,42.538C48.03,42.538,0,36.671,0,29.441s48.03-13.1,107.268-13.1c10.679,0,20.992.191,30.725.543a2.245,2.245,0,0,1-.672-1.493c0-8.5,64.1-15.387,143.172-15.387S423.663,6.886,423.663,15.387s-64.1,15.395-143.171,15.395c-23.811,0-46.269-.629-66.017-1.731a1.533,1.533,0,0,1,.052.39c0,7.23-48.022,13.1-107.259,13.1Z"
            transform="translate(0.279 0.4)" fill="none"/>
    </clipPath>
  </defs>
  <text id="_011100010" data-name="011100010" transform="translate(348)" fill="#9796be" font-size="21.943"
        font-family="LucidaGrande, Lucida Grande" letter-spacing="0em">
    <tspan x="0" y="21">01110001</tspan>
    <tspan x="0" y="47">0</tspan>
  </text>
  <text id="_101000101" data-name="101000101" transform="translate(348 24)" fill="#9796be" font-size="21.943"
        font-family="LucidaGrande, Lucida Grande" letter-spacing="0em">
    <tspan x="0" y="21">10100010</tspan>
    <tspan x="0" y="47">1</tspan>
  </text>
  <text id="_001001101" data-name="001001101" transform="translate(348)" fill="#9796be" font-size="21.943"
        font-family="LucidaGrande, Lucida Grande" letter-spacing="0em">
    <tspan x="0" y="21">00100110</tspan>
    <tspan x="0" y="47">1</tspan>
  </text>
  <path id="Fill_4" data-name="Fill 4" d="M88.553,56.554v-.446H.893V.892H88.107V56.554h.447v0H89V0H0V57H89v-.446h-.447"
        transform="translate(89 20)" fill="#cbcadc"/>
  <path id="Fill_5" data-name="Fill 5" d="M88.553,11.535V11.07H.893V.93H88.107v10.6h.447v0H89V0H0V12H89v-.465h-.447"
        transform="translate(89 20)" fill="#cbcadc"/>
  <path id="Fill_6" data-name="Fill 6"
        d="M12.98,24.695.49,13.61a1.5,1.5,0,0,1,0-2.219L12.98.3a1.19,1.19,0,0,1,1.73.151,1.333,1.333,0,0,1-.144,1.815L4.292,11.391a1.5,1.5,0,0,0,0,2.219l10.274,9.119a1.333,1.333,0,0,1,.144,1.814,1.187,1.187,0,0,1-1.73.151"
        transform="translate(107 41)" fill="#cbcadc"/>
  <path id="Fill_7" data-name="Fill 7"
        d="M.29,24.543h0a1.333,1.333,0,0,1,.144-1.815L10.708,13.61a1.5,1.5,0,0,0,0-2.219L.434,2.272A1.333,1.333,0,0,1,.29.457h0A1.189,1.189,0,0,1,2.021.3L14.509,11.391a1.5,1.5,0,0,1,0,2.219L2.021,24.7A1.188,1.188,0,0,1,.29,24.543"
        transform="translate(144 41)" fill="#cbcadc"/>
  <path id="Fill_8" data-name="Fill 8"
        d="M.8,36.907h0a1.3,1.3,0,0,1-.7-1.679L13.561.813A1.254,1.254,0,0,1,15.2.093a1.3,1.3,0,0,1,.706,1.679L2.44,36.187a1.256,1.256,0,0,1-1.644.72"
        transform="translate(124 35)" fill="#cbcadc"/>
  <path id="Fill_9" data-name="Fill 9" d="M6,3A3,3,0,1,1,3,0,3,3,0,0,1,6,3" transform="translate(93 23)"
        fill="#e88dab"/>
  <path id="Fill_10" data-name="Fill 10" d="M6,3A3,3,0,1,1,3,0,3,3,0,0,1,6,3" transform="translate(105 23)"
        fill="#cbcadc"/>
  <path id="Fill_11" data-name="Fill 11" d="M6,3A3,3,0,1,1,3,0,3,3,0,0,1,6,3" transform="translate(115 23)"
        fill="#f5bb3d"/>
  <path id="Fill_12" data-name="Fill 12"
        d="M88.553,56.554v-.446H.893V.892H88.107V56.554h.447v0H89V0H0V57H89v-.446h-.447" transform="translate(1 194)"
        fill="#cbcadc"/>
  <path id="Fill_13" data-name="Fill 13" d="M88.553,11.535V11.07H.893V.93H88.107v10.6h.447v0H89V0H0V12H89v-.465h-.447"
        transform="translate(1 194)" fill="#cbcadc"/>
  <path id="Fill_14" data-name="Fill 14" d="M6,3A3,3,0,1,1,3,0,3,3,0,0,1,6,3" transform="translate(6 197)"
        fill="#e88dab"/>
  <path id="Fill_15" data-name="Fill 15" d="M6,3A3,3,0,1,1,3,0,3,3,0,0,1,6,3" transform="translate(17 197)"
        fill="#cbcadc"/>
  <path id="Fill_16" data-name="Fill 16" d="M6,3A3,3,0,1,1,3,0,3,3,0,0,1,6,3" transform="translate(28 197)"
        fill="#f5bb3d"/>
  <text id="C_" data-name="C++" transform="translate(232 198)" fill="#cbcadc" font-size="33.133"
        font-family="LucidaGrande, Lucida Grande">
    <tspan x="0" y="32">C+</tspan>
    <tspan x="0" y="71">+</tspan>
  </text>
  <text id="CSS" transform="translate(231 117)" fill="#cbcadc" font-size="33.133"
        font-family="LucidaGrande, Lucida Grande">
    <tspan x="0" y="32">C</tspan>
    <tspan y="32" letter-spacing="-0.01em">S</tspan>
    <tspan x="0" y="71">S</tspan>
  </text>
  <path id="Fill_22" data-name="Fill 22"
        d="M12.082,31h0L4.388,26.9l1.263-2.338a2.041,2.041,0,0,0-.14-2.153,12.017,12.017,0,0,1-.688-1.1,2.08,2.08,0,0,0-1.818-1.087H2.941l-2.67.085L0,11.646l2.68-.08a2.075,2.075,0,0,0,1.805-1.208c.1-.214.2-.4.289-.571.105-.193.213-.38.319-.554a2.04,2.04,0,0,0,.016-2.151L3.692,4.81,11.109.242,12.521,2.5a2.062,2.062,0,0,0,1.764.962c.063,0,.127,0,.189-.008.348-.03.7-.045,1.048-.045l.252,0h.045a2.079,2.079,0,0,0,1.837-1.075L18.918,0l7.693,4.1L25.349,6.435a2.043,2.043,0,0,0,.139,2.151,11.912,11.912,0,0,1,.683,1.1,2.083,2.083,0,0,0,1.818,1.089h.064l2.677-.082L31,19.354l-2.677.083a2.067,2.067,0,0,0-1.8,1.2c-.095.2-.193.391-.292.574s-.2.367-.318.554a2.053,2.053,0,0,0-.015,2.163l1.41,2.257-7.417,4.568L18.485,28.5a2.065,2.065,0,0,0-1.768-.965c-.061,0-.123,0-.185.008-.343.029-.694.044-1.044.044l-.261,0H15.18a2.073,2.073,0,0,0-1.834,1.076L12.082,31ZM15.5,8.4a7.146,7.146,0,0,0-6.3,3.742,7.079,7.079,0,0,0,2.922,9.616A7.173,7.173,0,0,0,21.8,18.855a7.069,7.069,0,0,0-2.92-9.607A7.212,7.212,0,0,0,15.5,8.4Z"
        transform="translate(55 84)" fill="#cbcadc"/>
  <path id="Fill_24" data-name="Fill 24"
        d="M17.3,27H9.7V24.654a1.818,1.818,0,0,0-1-1.62,10.421,10.421,0,0,1-.984-.573,1.829,1.829,0,0,0-1.007-.3,1.772,1.772,0,0,0-.889.239L3.8,23.569,0,16.93l2.025-1.175a1.829,1.829,0,0,0,.886-1.691c-.01-.181-.014-.37-.014-.564s0-.384.014-.564a1.822,1.822,0,0,0-.88-1.684L0,10.07,3.8,3.431,5.821,4.605a1.774,1.774,0,0,0,.888.238,1.83,1.83,0,0,0,1.01-.306A10.543,10.543,0,0,1,8.7,3.965a1.819,1.819,0,0,0,1-1.619V0H17.3V2.346a1.818,1.818,0,0,0,1,1.619,10.655,10.655,0,0,1,.979.572,1.83,1.83,0,0,0,1.009.306,1.771,1.771,0,0,0,.887-.238L23.2,3.431,27,10.07l-2.022,1.175a1.822,1.822,0,0,0-.882,1.686c.01.2.014.389.014.569s0,.363-.014.564a1.824,1.824,0,0,0,.885,1.691L27,16.93l-3.8,6.639L21.184,22.4a1.772,1.772,0,0,0-.889-.239,1.829,1.829,0,0,0-1.007.3,10.421,10.421,0,0,1-.984.573,1.818,1.818,0,0,0-1,1.62V27ZM13.5,7.224A6.279,6.279,0,1,0,19.729,13.5,6.261,6.261,0,0,0,13.5,7.224Z"
        transform="translate(201 32)" fill="#cbcadc"/>
  <path id="Fill_25" data-name="Fill 25"
        d="M17.3,27H9.7V24.655a1.819,1.819,0,0,0-1-1.62,10.79,10.79,0,0,1-.985-.574,1.828,1.828,0,0,0-1.006-.3,1.771,1.771,0,0,0-.889.239L3.8,23.569,0,16.93l2.025-1.175a1.823,1.823,0,0,0,.886-1.69c-.01-.2-.014-.387-.014-.565s0-.363.014-.564a1.821,1.821,0,0,0-.879-1.684L0,10.07,3.8,3.431,5.822,4.605a1.771,1.771,0,0,0,.887.239,1.825,1.825,0,0,0,1.008-.306A10.886,10.886,0,0,1,8.7,3.966a1.821,1.821,0,0,0,1-1.62V0H17.3V2.346a1.821,1.821,0,0,0,1,1.62,10.744,10.744,0,0,1,.98.572,1.826,1.826,0,0,0,1.009.306,1.772,1.772,0,0,0,.888-.239L23.2,3.431,27,10.07l-2.023,1.175a1.823,1.823,0,0,0-.882,1.686c.01.181.014.373.014.569s0,.384-.014.565a1.828,1.828,0,0,0,.886,1.691L27,16.93l-3.8,6.639L21.184,22.4a1.771,1.771,0,0,0-.889-.239,1.828,1.828,0,0,0-1.006.3,10.906,10.906,0,0,1-.985.574,1.818,1.818,0,0,0-1,1.62V27ZM13.5,7.224A6.279,6.279,0,1,0,19.729,13.5,6.261,6.261,0,0,0,13.5,7.224Z"
        transform="translate(32 55)" fill="#cbcadc"/>
  <path id="Fill_37" data-name="Fill 37" d="M0,40V0L41,40H0" transform="translate(25 111)"/>
  <g id="Group_42" data-name="Group 42" transform="translate(3 353)">
    <path id="Clip_41-2" data-name="Clip 41"
          d="M107.268,42.538C48.03,42.538,0,36.671,0,29.441s48.03-13.1,107.268-13.1c10.679,0,20.992.191,30.725.543a2.245,2.245,0,0,1-.672-1.493c0-8.5,64.1-15.387,143.172-15.387S423.663,6.886,423.663,15.387s-64.1,15.395-143.171,15.395c-23.811,0-46.269-.629-66.017-1.731a1.533,1.533,0,0,1,.052.39c0,7.23-48.022,13.1-107.259,13.1Z"
          transform="translate(0.279 0.4)" fill="none"/>
    <g id="Group_42-2" data-name="Group 42" clip-path="url(#clip-path)">
      <path id="Fill_40" data-name="Fill 40" d="M0,42.538H423.663V0H0Z" transform="translate(0.279 0.4)"
            fill="#b4bcdf"/>
    </g>
  </g>
  <path id="Fill_43" data-name="Fill 43"
        d="M46.385,64.562a35.883,35.883,0,0,1-6.78,4.512c3.56-6.456,2.569-20.774,2.172-18.716-1.9,9.838-7.717,20.725-10.032,21.322l-.04.009a26.837,26.837,0,0,1-16.8-3.043l.016-.032c4.624-7.32,4-21.887,3.7-20.992C15.351,57.235,8.181,63.005,6.912,63.029H6.9c-4.837-4.374-7.462-8.8-6.8-9.281C4.882,50.279,8.784,41.578,12.266,32.4v-.009c3.442-9.047,6.471-18.537,9.532-23.921V8.456l.032-.04c.087-.153.174-.3.261-.444C28.374-2.479,37.74-.663,43.585,2.315c19.86,10.112,5.751,59.787,2.8,62.248"
        transform="translate(269 7)" fill="#0b0c21"/>
  <path id="Fill_44" data-name="Fill 44"
        d="M32.54.013c-3.993,1.054-7.192,4.8-9.2,8.227-2.666,4.558-4.361,9.683-6.53,14.486A99.4,99.4,0,0,1,.051,48.708a.175.175,0,0,0,.247.248c7.627-6.04,12.727-14.539,16.854-23.244,2.109-4.45,3.731-9.09,5.718-13.589A29.687,29.687,0,0,1,26.95,5.18a18.577,18.577,0,0,1,5.872-4.5.368.368,0,0,0-.282-.67"
        transform="translate(267 8)" fill="#0b0c21"/>
  <path id="Fill_45" data-name="Fill 45"
        d="M54.771.119C47.993,3.488,43.258,36.378,39.416,38.194c-6.574,3.107-22.81.117-28.535.813C7.347,39.437-1.786,51.874.308,54.379S40.535,61.5,50.015,57.314c5.359-2.365,10.149-25.2,10.891-35.212S57.851-1.411,54.771.119"
        transform="translate(262 41)" fill="#e98a79"/>
  <path id="Fill_46" data-name="Fill 46"
        d="M48.61,57.035a7.668,7.668,0,0,1-.92,1C41.487,63.643,3.045,62.144,1.12,60.5S.344,56.3.344,56.3l9.731-16.616a5.067,5.067,0,0,1,4.677-2.424c3.315.16,16.921,1.835,19.911.387s6.3-27.836,14.229-36.632c1.09-1.212,2.13-1.271,3.085-.547,2.785,2.121,4.8,10.951,5.009,17.643.255,8.526-2.76,31.791-8.375,38.921"
        transform="translate(267 41)" fill="#2db29f"/>
  <path id="Fill_47" data-name="Fill 47" d="M16,.376,5.232,21S.038,17.687,0,17.6,9.044.234,9.479.042,16,.376,16,.376"
        transform="translate(263 79)" fill="#2db29f"/>
  <path id="Fill_48" data-name="Fill 48"
        d="M.272,19.857C2.06,16.8,9.729,3.837,10.993.175c.045-.13-.139-.247-.224-.122C8.7,3.1,1.609,16.116.035,19.727c-.118.269.086.387.237.13"
        transform="translate(268 79)" fill="#0b0c21"/>
  <path id="Fill_49" data-name="Fill 49"
        d="M3.752,58,0,18.833,7.061,0C9.8,2.175,11.784,11.229,11.985,18.091c.251,8.743-2.714,32.6-8.233,39.909"
        transform="translate(312 41)" fill="#0b0c21"/>
  <path id="Fill_50" data-name="Fill 50"
        d="M5.977,5.463C3.8,9.994-1.53,29.705.422,34.954c1.978,5.318,7.893,7.119,7.893,7.119s4.4,21.546,7.081,23.8S47.089,68.855,57.813,49.71C59.874,46.029,44.476,18.209,33.132,9,24.7,2.165,11.209-5.4,5.977,5.463"
        transform="translate(311 34)" fill="#2db29f"/>
  <path id="Fill_51" data-name="Fill 51"
        d="M14.628.059c-1.916,1.867-3.609,3.77-6.249,4.616-2.66.852-5.561.79-8.317,1.108a.064.064,0,0,0,0,.128c3.16.019,6.482.438,9.505-.737a11.84,11.84,0,0,0,5.4-4.856c.136-.207-.167-.427-.338-.26"
        transform="translate(324 68)" fill="#0b0c21"/>
  <path id="Fill_52" data-name="Fill 52"
        d="M6.839,0A48.6,48.6,0,0,0,.062.874C-.032.891-.015,1.006.085,1a48.789,48.789,0,0,0,6.8-.764C7.057.2,7.032-.006,6.839,0"
        transform="translate(321 75)" fill="#0b0c21"/>
  <path id="Fill_53" data-name="Fill 53"
        d="M9.37,23.748l-.015-.036a.3.3,0,0,0-.2-.234C4.5,21.74.958,18.209.776,13.149.591,8,1.283,5.044,2.683.1,2.712,0,2.565-.04,2.524.055.12,5.647-.383,12.767.25,15.581c.941,4.19,4.564,7.1,8.556,8.418.3,1.293.505,2.641.915,3.9A.143.143,0,0,0,10,27.865a19.815,19.815,0,0,0-.63-4.117"
        transform="translate(311 53)" fill="#0b0c21"/>
  <path id="Fill_54" data-name="Fill 54" d="M0,0,20.61,30,27,14.695,0,0" transform="translate(336 54)" fill="#0b0c21"/>
  <path id="Fill_55" data-name="Fill 55"
        d="M2,7S.246,10.5,0,11.341c0,0,2.33,4,8.16,2.186S15,.276,15,.276,10.8-.6,7.787.769,2,7,2,7"
        transform="translate(313 34)" fill="#e98a79"/>
  <path id="Fill_56" data-name="Fill 56"
        d="M10.852,22.915C9,23.653,6.837,19.362,6.093,17.748c-.162-.373-.259-.6-.259-.6l-.114-.113L5.4,16.686,0,11.007,4.766,1.338,5.486,0s1.53,1.833,3.342,4.056c.1.114.194.228.284.341q.388.461.776.949c.194.235.389.478.582.738s.4.519.6.779a50.779,50.779,0,0,1,3.86,5.808c.291.892-.186,8.7-4.078,10.245"
        transform="translate(309 23)" fill="#e98a79"/>
  <path id="Fill_57" data-name="Fill 57"
        d="M6.378,18c-.169-.379-.271-.609-.271-.609l-.119-.115-.339-.354L0,11.164,4.989,1.357,5.742,0s1.6,1.859,3.5,4.113C10.029,7.132,11.316,14.521,6.378,18"
        transform="translate(308 23)" fill="#0b0c21"/>
  <path id="Fill_58" data-name="Fill 58"
        d="M.977,21.133C4.412,35.185,13.542,34.1,15.974,33.9c2.759-.225,11.739-3.4,9.738-17.738S16.247-.984,10.025.266-2.461,7.081.977,21.133"
        transform="translate(292 6)" fill="#e98a79"/>
  <path id="Fill_59" data-name="Fill 59"
        d="M.953,1.952c.377-.147.7-.334,1.051-.512A1.9,1.9,0,0,0,2.959.748.484.484,0,0,0,2.721.137,1.8,1.8,0,0,0,1.156.246,2.088,2.088,0,0,0,.047,1.265c-.226.457.409.879.906.687"
        transform="translate(294 22)" fill="#0b0c21"/>
  <path id="Fill_60" data-name="Fill 60"
        d="M2.51.894C2.136.942,1.78.947,1.4.97A2.793,2.793,0,0,1,.251.911C.04.839-.057.626.034.491A1.658,1.658,0,0,1,1.263.017,3.135,3.135,0,0,1,2.74.2C3.2.381,3,.831,2.51.894"
        transform="translate(303 20)" fill="#0b0c21"/>
  <path id="Fill_61" data-name="Fill 61" d="M0,0,.111.057c.289.87.8,1.829,1.88,1.881L2,1.987C.764,2.14.1.863,0,0"
        transform="translate(304 25)" fill="#0b0c21"/>
  <path id="Fill_62" data-name="Fill 62" d="M.476.07c1.264-.553,2.146,2.359.975,2.872C.3,3.446-.584.533.476.07"
        transform="translate(305 24)" fill="#0b0c21"/>
  <path id="Fill_63" data-name="Fill 63"
        d="M.134.814c.319.1.678.354,1,.26C1.515.966,1.683.467,1.818,0l.064.021a1.6,1.6,0,0,1-.4,1.868C.949,2.219.371,1.768.03,1.125c-.064-.118-.025-.35.1-.311"
        transform="translate(306 23)" fill="#0b0c21"/>
  <path id="Fill_64" data-name="Fill 64" d="M.326,0,.28.115C.67,1.1.949,2.3.147,2.947L.175,3C1.243,2.457.858.874.326,0"
        transform="translate(298 27)" fill="#0b0c21"/>
  <path id="Fill_65" data-name="Fill 65" d="M.682.026C-.646.423.168,3.335,1.4,2.968,2.61,2.607,1.8-.306.682.026"
        transform="translate(297 26)" fill="#0b0c21"/>
  <path id="Fill_66" data-name="Fill 66"
        d="M1.762.043C1.557.358,1.4.851,1.1,1,.746,1.164.373.824.04.487L0,.553c.177.789.584,1.523,1.221,1.441.581-.075.817-.9.774-1.738C1.987.1,1.844-.085,1.762.043"
        transform="translate(295 26)" fill="#0b0c21"/>
  <path id="Fill_67" data-name="Fill 67"
        d="M1.866,0C1.714.237,1.6.537,1.236.663A4.132,4.132,0,0,1,.024.788L0,.837A2.066,2.066,0,0,0,1.533.867.722.722,0,0,0,1.984.005L1.866,0"
        transform="translate(305 33)" fill="#0b0c21"/>
  <path id="Fill_68" data-name="Fill 68"
        d="M2.571,9.731s.257,1.537.465,2.231c.019.065.182.04.4-.024l.024-.008A3.243,3.243,0,0,0,6,9.64l-.121-.061A4.773,4.773,0,0,1,3.4,11.436c-.1-.176-.36-2.65-.462-2.622a5.714,5.714,0,0,0-1.325.878C.995,6.507.844,3.237.182.076A.09.09,0,0,0,0,.091,57.793,57.793,0,0,0,1.146,10.52c.067.414,1.208-.58,1.425-.789"
        transform="translate(299 21)" fill="#0b0c21"/>
  <path id="Fill_69" data-name="Fill 69"
        d="M0,1.984a4.7,4.7,0,0,0,2.11.991A2.159,2.159,0,0,0,3.366,2.8c.848-.406.7-1.2.389-1.846A4.728,4.728,0,0,0,3.128,0,6,6,0,0,1,0,1.984"
        transform="translate(302 30)" fill="#0b0c21"/>
  <path id="Fill_70" data-name="Fill 70"
        d="M.011,1.975a2.428,2.428,0,0,0,1.322-.169c.892-.4.737-1.175.409-1.806C.752.281-.108,1.081.011,1.975"
        transform="translate(304 31)" fill="#e88dab"/>
  <path id="Fill_71" data-name="Fill 71"
        d="M25.647,17c-1.428-.039-2.935-3.569-2.935-3.569a21.679,21.679,0,0,1-10.11-2.8A14.416,14.416,0,0,1,7.775,6.247,13.364,13.364,0,0,1,.92,16.9S-1.2,11.16,1,7.286A13.74,13.74,0,0,1,16.6.409s6.1,1.15,8.491,5.357,2.5,11.287.558,11.234"
        transform="translate(291 6)" fill="#0b0c21"/>
  <path id="Fill_72" data-name="Fill 72"
        d="M0,.009.076,0C.935,3.884,4.357,6.2,7.651,7.485A19.869,19.869,0,0,0,16.922,8.5c.095-.009.106.133.017.154A16.349,16.349,0,0,1,6.833,7.434C3.771,6.071.569,3.763,0,.009"
        transform="translate(299 11)" fill="#0b0c21"/>
  <path id="Fill_73" data-name="Fill 73"
        d="M0,5.079S1.642-.388,4.141.022s2.379,7.593.23,9.275A2.744,2.744,0,0,1,.542,9.116L0,5.079"
        transform="translate(316 19)" fill="#e98a79"/>
  <path id="Fill_74" data-name="Fill 74"
        d="M1.947,0l.027.061C.8,1.341.518,3.233.468,5.09.7,4.283,1.157,3.7,2,4.012l-.012.106A1.361,1.361,0,0,0,.795,5.227,9.508,9.508,0,0,0,.526,6.86c-.021.181-.265.193-.266,0V6.814C-.374,4.652.138,1.024,1.947,0"
        transform="translate(318 21)" fill="#0b0c21"/>
  <path id="Fill_75" data-name="Fill 75" d="M.67.058A1,1,0,0,1,1.33,1.941,1,1,0,0,1,.67.058"
        transform="translate(319 28)" fill="#edf6f9"/>
  <path id="Fill_76" data-name="Fill 76"
        d="M43,16C43,7.164,33.374,0,21.5,0S0,7.164,0,16,9.626,32,21.5,32,43,24.837,43,16" transform="translate(244 34)"
        fill="#f5bb3d"/>
  <path id="Fill_77" data-name="Fill 77" d="M0,2.772,11,0,6.939,9,0,2.772" transform="translate(278 36)"
        fill="#f5bb3d"/>
  <path id="Fill_78" data-name="Fill 78" d="M5,2.5A2.5,2.5,0,1,0,2.5,5,2.5,2.5,0,0,0,5,2.5"
        transform="translate(254 48)" fill="#0b0c21"/>
  <path id="Fill_79" data-name="Fill 79" d="M5,2.5A2.5,2.5,0,1,0,2.5,5,2.5,2.5,0,0,0,5,2.5"
        transform="translate(263 48)" fill="#0b0c21"/>
  <path id="Fill_80" data-name="Fill 80" d="M5,2.5A2.5,2.5,0,1,0,2.5,5,2.5,2.5,0,0,0,5,2.5"
        transform="translate(274 48)" fill="#0b0c21"/>
  <path id="Fill_81" data-name="Fill 81"
        d="M310,14.515V217.485A14.466,14.466,0,0,1,295.567,232H14.433A14.466,14.466,0,0,1,0,217.485V14.515A14.466,14.466,0,0,1,14.433,0H295.567A14.466,14.466,0,0,1,310,14.515"
        transform="translate(131 83)" fill="#0b0c21"/>
  <path id="Fill_82" data-name="Fill 82" d="M0,166H280V0H0Z" transform="translate(146 99)" fill="#fffffe"/>
  <path id="Fill_83" data-name="Fill 83"
        d="M310,0V20.155A14.635,14.635,0,0,1,295.567,35H14.433A14.635,14.635,0,0,1,0,20.155V0H310"
        transform="translate(131 280)" fill="#cbcadc"/>
  <path id="Fill_84" data-name="Fill 84"
        d="M133,12H0V9.619C0,4.307,3.989,0,8.91,0H124.092C129.011,0,133,4.307,133,9.619V12"
        transform="translate(220 356)" fill="#9796be"/>
  <path id="Fill_85" data-name="Fill 85"
        d="M101,41H0L2.567,22.094l.127-.89.238-1.774.119-.891L3.3,16.765l.034-.275.085-.617L3.66,14.1l.119-.892L5.573,0H95.427l1.694,12.459.085.6.28,2.066.077.6.11.767.178,1.3.077.6.279,2.073.085.592L101,41"
        transform="translate(235 315)" fill="#cbcadc"/>
  <path id="Fill_86" data-name="Fill 86" d="M0,9H280V0H0Z" transform="translate(146 99)" fill="#3b498c"/>
  <path id="Fill_87" data-name="Fill 87" d="M0,54H76V0H0Z" transform="translate(163 134)" fill="#cbcadc"/>
  <path id="Fill_88" data-name="Fill 88"
        d="M31,15.5A15.561,15.561,0,0,1,2.994,24.78H9.76V13.812H0A15.549,15.549,0,0,1,31,15.5"
        transform="translate(202 147)" fill="#fffffe"/>
  <path id="Fill_89" data-name="Fill 89" d="M33,11H0V0H30.022A15.673,15.673,0,0,0,33,11" transform="translate(172 161)"
        fill="#fffffe"/>
  <path id="Fill_90" data-name="Fill 90" d="M159.552,52.55V52.1H.9V.9H159.1V52.55h.448v0H160V0H0V53H160v-.45h-.448"
        transform="translate(249 197)" fill="#cbcadc"/>
  <path id="Fill_91" data-name="Fill 91" d="M0,.857,158.723,53l.277-.857L.277,0" transform="translate(249 197)"
        fill="#cbcadc"/>
  <path id="Fill_92" data-name="Fill 92" d="M158.723,0,0,52.143.277,53,159,.857" transform="translate(249 197)"
        fill="#cbcadc"/>
  <path id="Fill_93" data-name="Fill 93" d="M0,3H73V0H0Z" transform="translate(249 135)" fill="#9796be"/>
  <path id="Fill_94" data-name="Fill 94" d="M0,3H73V0H0Z" transform="translate(249 140)" fill="#9796be"/>
  <path id="Fill_95" data-name="Fill 95" d="M0,3H73V0H0Z" transform="translate(249 147)" fill="#9796be"/>
  <path id="Fill_96" data-name="Fill 96" d="M0,3H73V0H0Z" transform="translate(249 153)" fill="#9796be"/>
  <path id="Fill_97" data-name="Fill 97" d="M0,3H42V0H0Z" transform="translate(249 160)" fill="#9796be"/>
  <path id="Fill_98" data-name="Fill 98" d="M0,3H73V0H0Z" transform="translate(249 165)" fill="#9796be"/>
  <path id="Fill_99" data-name="Fill 99" d="M0,3H73V0H0Z" transform="translate(249 172)" fill="#9796be"/>
  <path id="Fill_100" data-name="Fill 100" d="M0,3H73V0H0Z" transform="translate(249 178)" fill="#9796be"/>
  <path id="Fill_101" data-name="Fill 101" d="M0,3H55V0H0Z" transform="translate(249 185)" fill="#9796be"/>
  <path id="Fill_102" data-name="Fill 102" d="M0,52H75V0H0Z" transform="translate(163 198)" fill="#2db29f"/>
  <path id="Fill_103" data-name="Fill 103" d="M0,5H5V0H0Z" transform="translate(170 245)" fill="#fffffe"/>
  <path id="Fill_104" data-name="Fill 104" d="M0,17H5V0H0Z" transform="translate(180 232)" fill="#e88dab"/>
  <path id="Fill_105" data-name="Fill 105" d="M0,26H5V0H0Z" transform="translate(189 224)" fill="#3b498c"/>
  <path id="Fill_106" data-name="Fill 106" d="M0,37H5V0H0Z" transform="translate(199 213)" fill="#f5bb3d"/>
  <path id="Fill_107" data-name="Fill 107" d="M0,47H5V0H0Z" transform="translate(208 203)" fill="#e36a5a"/>
  <path id="Fill_108" data-name="Fill 108" d="M0,12H5V0H0Z" transform="translate(218 237)" fill="#fffffe"/>
  <path id="Fill_109" data-name="Fill 109" d="M0,27H5V0H0Z" transform="translate(228 222)" fill="#e88dab"/>
  <path id="Fill_110" data-name="Fill 110" d="M75.289,63,0,52.991,8.712,0,84,10.009,75.289,63"
        transform="translate(331 129)" fill="#f5bb3d"/>
  <path id="Fill_112" data-name="Fill 112" d="M26,23,0,19.509,16.286,0,26,23" transform="translate(344 151)"
        fill="#e88dab"/>
  <path id="Fill_113" data-name="Fill 113" d="M5,2.5A2.5,2.5,0,1,1,2.5,0,2.5,2.5,0,0,1,5,2.5"
        transform="translate(149 101)" fill="#e88dab"/>
  <path id="Fill_114" data-name="Fill 114" d="M5,2.5A2.5,2.5,0,1,1,2.5,0,2.5,2.5,0,0,1,5,2.5"
        transform="translate(158 101)" fill="#fffffe"/>
  <path id="Fill_115" data-name="Fill 115" d="M5,2.5A2.5,2.5,0,1,1,2.5,0,2.5,2.5,0,0,1,5,2.5"
        transform="translate(167 101)" fill="#f5bb3d"/>
  <path id="Fill_116" data-name="Fill 116" d="M0,9H101V0H0Z" transform="translate(307 117)" fill="#cbcadc"/>
  <path id="Fill_117" data-name="Fill 117" d="M0,9H9V0H0Z" transform="translate(163 117)" fill="#2db29f"/>
  <path id="Fill_118" data-name="Fill 118" d="M0,9H9V0H0Z" transform="translate(176 117)" fill="#f5bb3d"/>
  <path id="Fill_119" data-name="Fill 119" d="M0,9H9V0H0Z" transform="translate(188 117)" fill="#e88dab"/>
  <path id="Fill_120" data-name="Fill 120" d="M0,9H44V0H0Z" transform="translate(212 117)" fill="#cbcadc"/>
  <path id="Fill_121" data-name="Fill 121" d="M12,6A6,6,0,1,1,6,0a6,6,0,0,1,6,6" transform="translate(280 290)"
        fill="#9796be"/>
  <path id="Fill_122" data-name="Fill 122"
        d="M94,16H0l.085-.6.245-1.72.118-.866L2.236,0H91.763l1.688,12.089.085.581.279,2,.077.582L94,16"
        transform="translate(239 315)" fill="#0b0c21"/>
  <path id="Fill_123" data-name="Fill 123"
        d="M27.956,3.455C24.761,2.631,20.451-.167,18,.008a2.812,2.812,0,0,0-2.62,2.1S13.733-.051,11.54.474C10.411.744,9.851,2.786,9.851,2.786A3.355,3.355,0,0,0,6.531,1.7C5,2.17,4.667,4.146,4.667,4.146s-2.088-.977-3.5,0C-1.682,6.129.924,19.635,6.3,20.761c2.505.525,1.689-2.74,1.689-2.74s2.306,4.411,5.1,3.944,1.48-4.644,1.48-4.644S16.84,21.577,19.69,20.8c2.967-.808.936-4.761.936-4.761s2.614,2.61,4.659,1.516c3.378-1.806-2.854-8.336-2.723-11.44H28l-.044-2.659"
        transform="translate(250 78)" fill="#e98a79"/>
  <path id="Fill_124" data-name="Fill 124" d="M0,3.58C3.13,4.083,6.039-.066,9.1,0c4.147.09,1,6.823-4.715,8H0V3.58"
        transform="translate(273 76)" fill="#e98a79"/>
  <path id="Fill_125" data-name="Fill 125"
        d="M.1,0H.028A20.693,20.693,0,0,0,3.713,12.94c.088.12.344.044.276-.105A42.349,42.349,0,0,1,.1,0"
        transform="translate(254 83)" fill="#0b0c21"/>
  <path id="Fill_126" data-name="Fill 126"
        d="M.113,0,.018.012A20.366,20.366,0,0,0,4.724,13.9c.117.135.366.143.242-.022C2.886,11.1.577,4.159.113,0"
        transform="translate(259 81)" fill="#0b0c21"/>
  <path id="Fill_127" data-name="Fill 127"
        d="M5.981,12.878A26.673,26.673,0,0,1,.157,0L.043.014c-.255,2.407.682,5.347,1.627,7.58A12.757,12.757,0,0,0,5.83,12.98c.077.058.221-.021.151-.1"
        transform="translate(264 81)" fill="#0b0c21"/>
  <path id="Fill_128" data-name="Fill 128"
        d="M2.267.007C9.55-.34,35.8,12.535,48.914,27.426,58.141,37.908,44.028,84.033,41,84.866s-17.213-2.395-19.464-4.893,11.3-40.539,10.262-42.83S15.934,24.685,6.844,14.9C1.607,9.257-2.864.251,2.267.007"
        transform="translate(329 35)" fill="#e98a79"/>
  <path id="Fill_129" data-name="Fill 129"
        d="M5.194,0C4.67,2.084.1,16.094,0,19.846s1.632,13.964,4.53,14.329,3-2.814,3-2.814.949,4.533,3.9,4.636,2.951-4.845,2.951-4.845,1.317,4.585,4.267,4.482,2.107-5.081,2.107-5.081,2.1,4.077,4.494,2.979c2.88-1.319-.912-11.289-1.018-12.227S28.639,14.119,26.8,8.334L29,1.81,5.194,0"
        transform="translate(346 106)" fill="#e98a79"/>
  <path id="Fill_130" data-name="Fill 130"
        d="M2.966,13.742C.429,8.441.335,5.726,1.31.111,1.328,0,1.153-.049,1.12.064-.388,5.484-.815,8.905,2.687,13.866c.171.242.4.128.279-.124"
        transform="translate(364 122)" fill="#0b0c21"/>
  <path id="Fill_131" data-name="Fill 131"
        d="M2.979,14.781C.6,9.029.452,6.065,1.065.075,1.073-.01.9-.031.877.055-.336,5.891-.721,9.335,2.6,14.832c.149.248.489.212.38-.051"
        transform="translate(357 122)" fill="#0b0c21"/>
  <path id="Fill_132" data-name="Fill 132"
        d="M1.969,14.727C.471,9.066.191,5.845,1.459.133A.112.112,0,0,0,1.242.076C-.641,5.78-.322,9.8,1.785,14.752c.143.338.279.331.184-.025"
        transform="translate(352 122)" fill="#0b0c21"/>
  <path id="Fill_133" data-name="Fill 133"
        d="M1.979,8.472C8.706,21.04,30.876,35.693,31.289,37.46s-8.9,22.115-9.21,26.214,1.777,5.647,1.777,5.647l23.1,2.663s3.477.62,6.167-5.77,2.8-29.794-1.759-36.548S31.653,8.149,6.843.672C.633-1.2-2.2.659,1.979,8.472"
        transform="translate(328 35)" fill="#2db29f"/>
  <path id="Fill_134" data-name="Fill 134" d="M2.019,0,26,2.7,24.175,9C24.105,9.068.387,6.28.036,5.932S2.019,0,2.019,0"
        transform="translate(350 105)" fill="#2db29f"/>
  <path id="Fill_135" data-name="Fill 135"
        d="M22.793,2.728C19.228,2.189,4.078-.173.127.01-.012.016-.056.233.093.267,3.749,1.08,18.741,2.872,22.756,3c.3.01.337-.227.038-.272"
        transform="translate(352 104)" fill="#0b0c21"/>
  <path id="Fill_136" data-name="Fill 136"
        d="M17.734.1c-.972,4.065-1.977,9.111-5.64,11.535A9.852,9.852,0,0,1,.056,10.512L0,10.571A9.319,9.319,0,0,0,11.673,12.85C16,10.5,17.4,4.8,18,.135c.021-.157-.228-.186-.264-.037"
        transform="translate(312 37)" fill="#0b0c21"/>
  <path id="Fill_137" data-name="Fill 137"
        d="M64.112,58.615c-2.028.68-60,.51-62.2-.911C1.068,57.169.6,48.617.325,38.266.265,36.031.218,33.723.181,31.378-.071,16.158.014,0,.014,0H38.791l-.9,31.378L37.7,38.266s22.166,10.12,24.421,11.942,4.018,7.726,1.991,8.406"
        transform="translate(129 324)" fill="#e36a5a"/>
  <path id="Fill_138" data-name="Fill 138"
        d="M64.109,27.609c-2.033.689-60.164.517-62.378-.923C.71,26.02.229,13.362,0,0H37.816l-.193,6.982S59.851,17.241,62.113,19.088s4.029,7.832,2,8.521"
        transform="translate(129 355)" fill="#fffffe"/>
  <path id="Fill_139" data-name="Fill 139"
        d="M64.107,19.628c-2.038.656-60.3.492-62.516-.879C.747,18.234.277,9.985,0,0H37.563S59.839,9.762,62.106,11.519s4.038,7.453,2,8.109"
        transform="translate(129 362)" fill="#e88dab"/>
  <path id="Fill_140" data-name="Fill 140"
        d="M59.843.41C49.913.109,9.837-.069,0,.466V.534c9.836.535,49.913.357,59.843.056.209-.007.209-.174,0-.18"
        transform="translate(132 380)" fill="#0b0c21"/>
  <path id="Fill_141" data-name="Fill 141"
        d="M8,.007A7.573,7.573,0,0,0,2.187,2.5,8.27,8.27,0,0,0,0,8H.12C.686,3.969,4.15.439,8,.135V.007"
        transform="translate(180 371)" fill="#0b0c21"/>
  <path id="Fill_142" data-name="Fill 142"
        d="M11.739,0C7.534-.068,2.653,1.385.029,4.776c-.1.131.088.272.214.208A58.532,58.532,0,0,1,11.81.514.261.261,0,0,0,11.739,0"
        transform="translate(159 362)" fill="#0b0c21"/>
  <path id="Fill_143" data-name="Fill 143"
        d="M11.739,0C7.533-.068,2.653,1.386.029,4.776c-.1.131.089.272.214.208A58.591,58.591,0,0,1,11.81.514.261.261,0,0,0,11.739,0"
        transform="translate(162 364)" fill="#0b0c21"/>
  <path id="Fill_144" data-name="Fill 144"
        d="M11.739,0C7.533-.068,2.652,1.385.029,4.775c-.1.132.088.272.214.209A58.52,58.52,0,0,1,11.81.514.261.261,0,0,0,11.739,0"
        transform="translate(165 365)" fill="#0b0c21"/>
  <path id="Fill_145" data-name="Fill 145"
        d="M11.739,0C7.533-.067,2.652,1.386.029,4.775c-.1.132.089.272.214.209A58.543,58.543,0,0,1,11.81.514.261.261,0,0,0,11.739,0"
        transform="translate(168 366)" fill="#0b0c21"/>
  <path id="Fill_146" data-name="Fill 146" d="M3.5,0c-4.662,0-4.67,7,0,7s4.671-7,0-7" transform="translate(132 370)"
        fill="#0b0c21"/>
  <path id="Fill_147" data-name="Fill 147"
        d="M.634,12a.555.555,0,0,1-.5-.366H.117a.128.128,0,0,1-.1-.035A.087.087,0,0,1,0,11.53,17.667,17.667,0,0,1,3.816,2.191,5.767,5.767,0,0,1,7.917,0,3.264,3.264,0,0,1,9.884.646a2.537,2.537,0,0,1,1.1,1.819A4.932,4.932,0,0,1,9.535,6,25.619,25.619,0,0,1,2.9,10.758c-.671.382-1.364.776-2.021,1.172A.462.462,0,0,1,.634,12ZM8.127,1c-1.378,0-3.206,1.466-3.8,2.252A20.2,20.2,0,0,0,2.8,5.71,37.811,37.811,0,0,0,.938,9.874c-.163.409-.332.833-.5,1.249.893-.614,1.835-1.19,2.747-1.748C3.7,9.059,4.231,8.734,4.749,8.4l.156-.1C6.67,7.187,9.953,5.1,9.738,2.976,9.605,1.662,9.063,1,8.127,1Z"
        transform="translate(165 352)" fill="#0b0c21"/>
  <path id="Fill_148" data-name="Fill 148"
        d="M5.96,7a12.029,12.029,0,0,1-2-.158A5.97,5.97,0,0,1,1.18,5.64a3.061,3.061,0,0,1-1.157-2.8C.265.747,2.15,0,3.834,0A5.8,5.8,0,0,1,5.021.122a18.891,18.891,0,0,1,8.933,4.888l-.012.167a.609.609,0,0,1,0,.518.37.37,0,0,1-.276.2c-.7.114-1.426.253-2.126.388A29.972,29.972,0,0,1,5.96,7ZM4.215,1.167c-.582,0-2.521.083-3.062,1.152-.294.581-.1,1.344.577,2.267.647.881,1.922,1.328,3.788,1.328a22.44,22.44,0,0,0,3.029-.263l.171-.023c.571-.078,1.15-.168,1.709-.255.968-.151,1.97-.307,2.965-.4-.408-.221-.819-.451-1.218-.672A39.615,39.615,0,0,0,8.115,2.238a20.051,20.051,0,0,0-2.694-.95A5.268,5.268,0,0,0,4.215,1.167Z"
        transform="translate(152 358)" fill="#0b0c21"/>
  <path id="Fill_149" data-name="Fill 149"
        d="M36.133,85.8C34.388,84.564.171,37.738,0,35.131c-.07-.989,6.491-6.346,14.6-12.595,1.752-1.351,3.569-2.733,5.422-4.128C32.05,9.342,45.02,0,45.02,0L68,31.258,42.375,48.807l-5.622,3.855S41.8,76.423,41.676,79.3s-3.8,7.737-5.543,6.5"
        transform="translate(0 278)" fill="#e36a5a"/>
  <path id="Fill_150" data-name="Fill 150"
        d="M35.814,67.8C34.084,66.556.17,19.447,0,16.824-.079,15.613,9.537,7.907,19.85,0L42,30.582,36.428,34.46s5,23.9,4.88,26.8-3.764,7.784-5.494,6.54"
        transform="translate(0 296)" fill="#fffffe"/>
  <path id="Fill_151" data-name="Fill 151"
        d="M36.412,63.8C34.654,62.552.173,15.33,0,12.7-.07,11.7,6.542,6.3,14.718,0L37.037,30.38S42.12,54.342,42,57.245s-3.826,7.8-5.585,6.556"
        transform="translate(0 300)" fill="#e88dab"/>
  <path id="Fill_152" data-name="Fill 152"
        d="M34.952,47.818C29.385,39.718,6.166,7.581.05,0L0,.037c5.344,8.148,28.82,40.1,34.822,47.876.126.164.248.076.13-.094"
        transform="translate(3 314)" fill="#0b0c21"/>
  <path id="Fill_153" data-name="Fill 153"
        d="M11,3.916A7.863,7.863,0,0,0,5.569.072,6.953,6.953,0,0,0,0,1.578l.07.109A8.381,8.381,0,0,1,10.9,4l.1-.084"
        transform="translate(31 350)" fill="#0b0c21"/>
  <path id="Fill_154" data-name="Fill 154"
        d="M10.95,6.58C8.523,3.153,4.453.089.133,0-.034,0-.037.233.088.3A58.2,58.2,0,0,1,10.574,6.941a.264.264,0,0,0,.376-.362"
        transform="translate(28 328)" fill="#0b0c21"/>
  <path id="Fill_155" data-name="Fill 155"
        d="M10.95,6.579C8.523,3.153,4.453.091.133,0-.035,0-.037.233.088.3A58.2,58.2,0,0,1,10.574,6.942a.264.264,0,0,0,.376-.363"
        transform="translate(29 331)" fill="#0b0c21"/>
  <path id="Fill_156" data-name="Fill 156"
        d="M10.95,6.579C8.523,3.152,4.453.09.133,0-.035,0-.037.233.088.3A58.093,58.093,0,0,1,10.574,6.942a.264.264,0,0,0,.376-.363"
        transform="translate(30 334)" fill="#0b0c21"/>
  <path id="Fill_157" data-name="Fill 157"
        d="M10.95,6.58C8.523,3.153,4.453.09.132,0-.034,0-.037.233.088.3A58.173,58.173,0,0,1,10.574,6.941a.264.264,0,0,0,.376-.362"
        transform="translate(31 337)" fill="#0b0c21"/>
  <path id="Fill_158" data-name="Fill 158" d="M6.308,1.419c-2.644-3.66-8.264.5-5.616,4.162s8.264-.5,5.616-4.162"
        transform="translate(6 309)" fill="#0b0c21"/>
  <path id="Fill_159" data-name="Fill 159"
        d="M10.4,7h0c-.076,0-.152,0-.226,0A23.616,23.616,0,0,1,2.413,4.9C1.71,4.62.984,4.332.275,4.074a.4.4,0,0,1-.253-.268.611.611,0,0,1,.1-.514l.019-.171A19.853,19.853,0,0,1,10.3,0h.04a5.449,5.449,0,0,1,3.836,1.444,2.988,2.988,0,0,1,.816,2.317A3,3,0,0,1,13.384,6.29,6.2,6.2,0,0,1,10.4,7ZM9.813,1.095c-.049,0-.1,0-.14,0a21.573,21.573,0,0,0-2.97.411A41.916,41.916,0,0,0,2.111,2.765c-.453.143-.92.29-1.384.431,1.026.3,2.049.666,3.038,1.019.554.2,1.127.4,1.695.593l.176.059a16.4,16.4,0,0,0,4.856,1.068A3.479,3.479,0,0,0,12.9,5.172c.911-.83,1.242-1.588.984-2.254C13.417,1.7,11.022,1.095,9.813,1.095Z"
        transform="translate(34 328)" fill="#0b0c21"/>
  <path id="Fill_160" data-name="Fill 160"
        d="M8.243,14a.419.419,0,0,1-.3-.122c-.555-.536-1.145-1.076-1.716-1.6A24.814,24.814,0,0,1,.812,6.109,6.37,6.37,0,0,1,0,3.022,2.936,2.936,0,0,1,1.583.389,3.132,3.132,0,0,1,3.073,0,3.822,3.822,0,0,1,5.488.977a6.481,6.481,0,0,1,1.636,2.1,19.786,19.786,0,0,1,1.753,10.53.1.1,0,0,1-.107.093.17.17,0,0,1-.04-.005A.581.581,0,0,1,8.243,14ZM2.933,1.038c-.765,0-1.334.618-1.691,1.836C.6,5.082,3.33,7.851,4.8,9.339l.137.139c.433.438.88.875,1.312,1.3.766.748,1.557,1.522,2.293,2.326-.08-.474-.156-.954-.23-1.417a42.078,42.078,0,0,0-.934-4.712A21.663,21.663,0,0,0,6.41,4.106a7.129,7.129,0,0,0-1.371-1.9A3.4,3.4,0,0,0,2.933,1.038Z"
        transform="translate(27 317)" fill="#0b0c21"/>
  <path id="Fill_161" data-name="Fill 161"
        d="M61,194H19.811s.417-30.129-.009-54.57c-.017-.852-.025-1.695-.042-2.538-.035-1.695-.06-3.371-.094-5.014v-.009c-.017-.842-.035-1.668-.052-2.485-.034-1.721-.068-3.388-.111-5,0-.237-.008-.485-.017-.723-.008-.614-.025-1.218-.034-1.805-.043-1.737-.085-3.389-.137-4.938-.017-.85-.042-1.668-.068-2.451-.111-3.678-.231-6.581-.358-8.378-.528-7.636-6.753-41.88-11.913-69.429l-.026-.119c-.085-.418-.162-.843-.239-1.26l-.026-.12c-.077-.409-.153-.817-.222-1.217L6.456,33.9l-.026-.119c-.077-.426-.154-.843-.239-1.252l-.017-.119C2.763,14.26,0,0,0,0H43.468S56.9,90.638,58.724,105.672,61,194,61,194"
        transform="translate(107 157)" fill="#3b498c"/>
  <path id="Fill_162" data-name="Fill 162"
        d="M36.912.4C30.63.245,32.435.188,26.151.118,23.077.084,2.873-.117,0,.427V.573c2.873.545,23.077.343,26.151.31C32.435.814,30.63.755,36.912.606c.118,0,.118-.207,0-.21"
        transform="translate(129 343)" fill="#0b0c21"/>
  <path id="Fill_163" data-name="Fill 163"
        d="M30,1.355,13.22,89c-.008-.609-.025-1.208-.034-1.791-.044-1.723-.086-3.362-.139-4.9-.017-.844-.043-1.655-.069-2.432-.113-3.648-.234-6.529-.364-8.311C12.078,63.993,5.758,30.023.52,2.694L.494,2.576C.407,2.162.329,1.74.251,1.326L.225,1.207C.147.8.07.4,0,0L30,1.355"
        transform="translate(113 191)" fill="#0b0c21"/>
  <path id="Fill_164" data-name="Fill 164"
        d="M130.959,0c.7,21.445-7.912,28.986-7.912,28.986S104.96,90.152,94.906,108.651,26.507,170,26.507,170L0,135.582S52.875,103.6,57.445,95.868c2.541-4.3,22.268-54.419,21.478-59.111C75.151,14.378,82.57,0,82.57,0h48.389"
        transform="translate(20 157)" fill="#3b498c"/>
  <path id="Fill_165" data-name="Fill 165"
        d="M16.328.253A232.692,232.692,0,0,1,9.774,23.787C6.552,33.5,2.888,43.077,0,52.9c-.024.082.1.142.137.06C4,43.627,7.256,33.982,10.473,24.4A182.249,182.249,0,0,0,16.99.441c.1-.442-.556-.632-.663-.188"
        transform="translate(124 191)" fill="#0b0c21"/>
  <path id="Fill_166" data-name="Fill 166"
        d="M11.6.033A76.285,76.285,0,0,0,.063,7.714c-.143.111-.019.362.138.264C4.1,5.555,8.093,3.207,11.869.549c.3-.208.039-.676-.272-.516"
        transform="translate(136 187)" fill="#0b0c21"/>
  <path id="Fill_167" data-name="Fill 167"
        d="M6.589.106c-.026-.14-.284-.145-.267.007a133.508,133.508,0,0,1,.766,13.713c.033,2.123-.45,13.923-4.278,13.458-.641-.078-1.026-.646-1.223-1.557A14.367,14.367,0,0,1,1.7,22.113c.152-2.475.223-4.95.172-7.429A65.418,65.418,0,0,0,.24.951.121.121,0,0,0,0,.988a123.665,123.665,0,0,1,.906,19.1C.764,23.154-.306,27.866,2.984,28c3.352.135,4.665-7.706,4.844-9.833A68.348,68.348,0,0,0,6.589.106"
        transform="translate(138 158)" fill="#0b0c21"/>
  <path id="Fill_168" data-name="Fill 168"
        d="M.966.3A16.961,16.961,0,0,0,.24,2.846,4.51,4.51,0,0,0,.07,4.9c.035.13.255.125.331.028a6.171,6.171,0,0,0,.826-2.055C1.482,2.085,1.759,1.3,1.984.5,2.135-.023,1.162-.21.966.3"
        transform="translate(140 185)" fill="#0b0c21"/>
  <path id="Fill_169" data-name="Fill 169"
        d="M21.983,30.853c-3.611-5.332-2.5-3.853-6.169-9.143C14.018,19.12,2.2,2.119.106,0L0,.076C1.305,2.762,13.413,19.554,15.258,22.107c3.771,5.219,2.744,3.68,6.572,8.854a.094.094,0,0,0,.153-.109"
        transform="translate(31 290)" fill="#0b0c21"/>
  <path id="Fill_170" data-name="Fill 170"
        d="M.005,2.095c.372,7.263,11.228,45.85,23.6,53.95,11.576,7.58,43.748,2.3,50.531.225,2.974-.913-2.457-19.115-5.134-21.1s-30.86,1.9-33.214,1.095S20.15,18.627,13.535,8.471C9.359,2.06-.257-3.022.005,2.095"
        transform="translate(134 102)" fill="#e36a5a"/>
  <path id="Fill_171" data-name="Fill 171"
        d="M.169,1.586C-1.205,7.472,6.241,35.969,6.939,36S26.958,26.237,27,25.311s-9.089-13.13-13.391-18S1.159-2.663.169,1.586"
        transform="translate(133 101)" fill="#f5bb3d"/>
  <path id="Fill_172" data-name="Fill 172"
        d="M17.713.024C14.687,1.578,2.948,8.743.087,10.643a.191.191,0,0,0,.183.335C3.293,9.4,15.122,2.385,17.909.382a.2.2,0,0,0-.2-.358"
        transform="translate(139 123)" fill="#0b0c21"/>
  <path id="Fill_173" data-name="Fill 173"
        d="M21.857,1.363C14.189,6.2,9.186,14.742,6.959,22.526s-8.05,33.1-6.779,33.8,16.836,11.84,30.54,9.292,19.264-6.086,21.012-8.068-5.557-37.363-7.172-43.731S37.941.4,36.426.208,24.779-.48,21.857,1.363"
        transform="translate(104 101)" fill="#fffffe"/>
  <path id="Fill_174" data-name="Fill 174"
        d="M17.911,1.291a.147.147,0,0,0-.293,0c-.1,2.446.088,5.193-1.764,7.057-2.046,2.057-5.3.888-7.51-.242A21.969,21.969,0,0,1,.205.053.111.111,0,0,0,.016.167c2.391,4.365,6.216,8.39,11.08,9.6,5.491,1.37,7.354-3.65,6.815-8.48"
        transform="translate(125 104)" fill="#cbcadc"/>
  <path id="Fill_175" data-name="Fill 175"
        d="M28.953,70.983c-.281.144-5.882-.61-12.42-2.976-.154-.051-.29-.093-.435-.153-.162-.068-.332-.127-.5-.187-.119-.051-.23-.093-.349-.135-.137-.06-.281-.11-.418-.162l-.136-.051c-.248-.1-.486-.2-.725-.3-.145-.06-.281-.119-.426-.187-.29-.11-.571-.238-.86-.356-.137-.068-.281-.136-.418-.195A35.324,35.324,0,0,1,.242,57.853C-1.215,56.19,4.215,37.6,8.026,25.353c.042-.119.085-.254.119-.373.162-.525.332-1.034.486-1.534.043-.135.085-.263.128-.39l.051-.195c.154-.466.29-.916.426-1.348.051-.127.085-.254.12-.373l.034-.11c.171-.5.315-.975.468-1.432v-.009c.035-.127.077-.254.12-.381.46-1.432.835-2.594,1.1-3.383C13.285,9.154,25.347,0,25.347,0s4.134,70.72,3.606,70.983"
        transform="translate(101 101)" fill="#f5bb3d"/>
  <path id="Fill_176" data-name="Fill 176"
        d="M0,0S9.508,64.394,10.407,64.963s5.292-5.5,5.586-8.651S8.032,12.819,6.242,9.234A73.359,73.359,0,0,0,0,0"
        transform="translate(140 102)" fill="#f5bb3d"/>
  <path id="Fill_177" data-name="Fill 177"
        d="M1.921,7.061C1.814,5.872,1.7,4.687,1.651,3.494h-.1c-.017.682-.024,1.366-.007,2.049C1.082,3.713.628,1.881.157.056.131-.042-.018,0,0,.1Q3.421,17.066,7.68,33.884c.051.2.358.117.317-.084Q5.236,20.38,1.921,7.061"
        transform="translate(148 115)" fill="#0b0c21"/>
  <path id="Fill_178" data-name="Fill 178"
        d="M21,0,15.616,55c-.119-.051-.23-.095-.35-.137-.137-.06-.282-.112-.419-.164l-.136-.051c-.248-.1-.487-.206-.726-.309-.145-.06-.282-.121-.427-.189-.29-.112-.572-.242-.862-.362-.137-.069-.282-.138-.419-.2A35.375,35.375,0,0,1,.243,45.04c-1.459-1.687,3.978-20.55,7.794-32.98.042-.121.085-.258.119-.379.162-.533.333-1.049.487-1.557.043-.137.085-.267.128-.4l.051-.2c.154-.473.29-.93.427-1.368.051-.129.085-.258.12-.379L9.4,7.673,21,0"
        transform="translate(101 114)" fill="#0b0c21"/>
  <path id="Fill_179" data-name="Fill 179"
        d="M11.758,20.847C8.613,21.885,2.681,17.439.164,13.638c-.171-.262,0-3.18.04-6.736C.221,4.745.188,2.342,0,.151-.041-.3,1.557.4,1.557.4L4.441.838l9.541,1.471a35.127,35.127,0,0,0-.6,8.524,4.822,4.822,0,0,0,.171.892l.033.147c.423,1.684,1.214,7.969-1.826,8.975"
        transform="translate(127 89)" fill="#e36a5a"/>
  <path id="Fill_180" data-name="Fill 180"
        d="M12.575,11.612l.032.156a7.909,7.909,0,0,1-1.38.209C2.127,12.605,0,.166,0,.166L3.6,0,13,1.569a40.481,40.481,0,0,0-.593,9.092,5.524,5.524,0,0,0,.168.951"
        transform="translate(128 89)" fill="#0b0c21"/>
  <path id="Fill_181" data-name="Fill 181" d="M0,0S4.4,2.28,4.9,7.085s-.914,9.7-1.33,9.913S0,0,0,0"
        transform="translate(142 66)" fill="#0b0c21"/>
  <path id="Fill_182" data-name="Fill 182"
        d="M.634,7.52c-1.74,4.88.3,19.271,3.732,22.6,4.976,4.83,13.423,5.621,17.662-.341C26.137,24,23.14,5.292,19.279,2.234,13.592-2.271,3.2.311.634,7.52"
        transform="translate(123 64)" fill="#e36a5a"/>
  <path id="Fill_183" data-name="Fill 183"
        d="M4.281,25.991c1.714.253,2.827-5.1,3.064-7.125.208-1.786-.078-7.3-.054-7.683s7.862,3.658,11.8,1.759,6.111-6.138,5.9-7.92S18.968-.437,14.5.043,4.924,7.265,4.924,7.265A21.518,21.518,0,0,0,6.48,4.247c-.1-.193-2.783,1.44-2.991,3.617,0,0,.167-2.718-.058-2.732s-2.1,2.593-1.343,4.217c0,0-2.225,2.7-2.081,5.246s2.261,11.1,4.275,11.4"
        transform="translate(120 61)" fill="#0b0c21"/>
  <path id="Fill_184" data-name="Fill 184"
        d="M15.98,1.894a13.554,13.554,0,0,1-3.588,2,8.969,8.969,0,0,1-4.446-.018,13.7,13.7,0,0,1-4.155-1.7C2.657,1.493,1.608.613.418.029c-.3-.146-.548.3-.345.527A14.519,14.519,0,0,0,8.213,4.889,8.3,8.3,0,0,0,16,1.924l-.02-.031"
        transform="translate(125 70)" fill="#0b0c21"/>
  <path id="Fill_185" data-name="Fill 185"
        d="M6.246,4.062S3.036-1.014.86.183s.167,8.5,2.67,9.554A2.537,2.537,0,0,0,7,8.359l-.754-4.3"
        transform="translate(120 81)" fill="#e36a5a"/>
  <path id="Fill_186" data-name="Fill 186"
        d="M.014,0,0,.067C1.734.828,2.62,2.5,3.229,4.227a1.388,1.388,0,0,0-2.088-.436l.045.1a1.547,1.547,0,0,1,1.707.593,7.76,7.76,0,0,1,.793,1.433c.079.161.363.082.307-.1l-.014-.041C4.072,3.5,2.405.281.014,0"
        transform="translate(121 84)" fill="#0b0c21"/>
  <path id="Fill_187" data-name="Fill 187" d="M.5.5v0" transform="translate(126 93)" fill="#ec9993"/>
  <path id="Fill_188" data-name="Fill 188"
        d="M.788,0,.718.108C.9,1.184.922,2.45,0,2.94L.017,3C1.179,2.671,1.128.992.788,0" transform="translate(135 82)"
        fill="#0b0c21"/>
  <path id="Fill_189" data-name="Fill 189" d="M.964,0C-.477.088-.2,3.079,1.131,3c1.314-.08,1.04-3.071-.167-3"
        transform="translate(134 81)" fill="#0b0c21"/>
  <path id="Fill_190" data-name="Fill 190" d="M.013,0,.077.1C.125,1.287.3,2.64,1,2.932L1,3C.166,2.941-.062,1.141.013,0"
        transform="translate(142 81)" fill="#0b0c21"/>
  <path id="Fill_191" data-name="Fill 191" d="M.711.016C2.122-.24,2.506,2.75,1.2,2.987-.089,3.221-.472.231.711.016"
        transform="translate(142 80)" fill="#0b0c21"/>
  <path id="Fill_192" data-name="Fill 192"
        d="M.874,1.968c.38-.124.709-.3,1.071-.455a1.906,1.906,0,0,0,1-.654A.527.527,0,0,0,2.774.2,1.624,1.624,0,0,0,1.247.188a2.153,2.153,0,0,0-1.179.984c-.267.465.3.959.806.8"
        transform="translate(133 77)" fill="#0b0c21"/>
  <path id="Fill_193" data-name="Fill 193"
        d="M3.115,2c-.509-.03-.974-.132-1.474-.208A2.622,2.622,0,0,1,.183,1.328.613.613,0,0,1,.138.5,2.083,2.083,0,0,1,1.994.03,2.963,2.963,0,0,1,3.8.824c.5.463-.011,1.214-.684,1.175"
        transform="translate(141 76)" fill="#0b0c21"/>
  <path id="Fill_194" data-name="Fill 194"
        d="M.088.027C.339.257.6.584.948.58A2.353,2.353,0,0,0,1.954.193L2,.245A1.266,1.266,0,0,1,.834.969C.394.93.143.526,0,.086L.088.027"
        transform="translate(137 90)" fill="#0b0c21"/>
  <path id="Fill_195" data-name="Fill 195"
        d="M0,10.743a3.691,3.691,0,0,0,2.528,1.238,4.936,4.936,0,0,0,1.288-.058l.242-.047.225-.052a.243.243,0,0,0,.188-.232v-.007l-.02-.1v-.007L4.438,11.4c-.055-.736-.249-1.846-.249-1.846.309.108,1.873.594,1.809.212A45.451,45.451,0,0,0,3.589.06C3.553-.043,3.38,0,3.4.1c.388,3.053,1.36,6.023,1.8,9.084a6.791,6.791,0,0,0-1.73-.319c-.111.04.418,2.139.414,2.47l0,.036a5.353,5.353,0,0,1-3.8-.723L0,10.743"
        transform="translate(136 76)" fill="#0b0c21"/>
  <path id="Fill_196" data-name="Fill 196" d="M165,46.054,24.019,120,0,73.947,140.981,0,165,46.054"
        transform="translate(56 112)" fill="#9796be"/>
  <path id="Fill_197" data-name="Fill 197"
        d="M31.12,8.865A16.495,16.495,0,1,1,8.85,1.881,16.435,16.435,0,0,1,31.12,8.865" transform="translate(74 176)"
        fill="#cbcadc"/>
  <path id="Fill_198" data-name="Fill 198" d="M11.316,3.219A6,6,0,1,1,3.219.684a6,6,0,0,1,8.1,2.535"
        transform="translate(82 183)" fill="#fffffe"/>
  <path id="Fill_199" data-name="Fill 199"
        d="M19.658,5.5A7.505,7.505,0,0,1,20,6.236a16.276,16.276,0,0,1-7.494,7.916,16.717,16.717,0,0,1-10.9,1.529,7.67,7.67,0,0,1-.418-.695,10.152,10.152,0,0,1,4.4-13.822A10.526,10.526,0,0,1,19.658,5.5"
        transform="translate(86 193)" fill="#fffffe"/>
  <path id="Fill_200" data-name="Fill 200" d="M80,1.318.686,43,0,41.68,79.313,0,80,1.318" transform="translate(112 135)"
        fill="#3b498c"/>
  <path id="Fill_201" data-name="Fill 201" d="M29,1.246.7,15,0,13.755,28.3,0,29,1.246" transform="translate(114 166)"
        fill="#fffffe"/>
  <path id="Fill_202" data-name="Fill 202" d="M80,1.319.686,43,0,41.681,79.313,0,80,1.319"
        transform="translate(117 143)" fill="#fffffe"/>
  <path id="Fill_203" data-name="Fill 203" d="M80,1.319.687,43,0,41.68,79.313,0,80,1.319" transform="translate(119 148)"
        fill="#fffffe"/>
  <path id="Fill_204" data-name="Fill 204" d="M49,1.328.684,27,0,25.672,48.316,0,49,1.328"
        transform="translate(121 168)" fill="#fffffe"/>
  <path id="Fill_205" data-name="Fill 205"
        d="M2.222,0,4.5,1.67,7.166.731,6.288,3.424,8,5.676,5.177,5.67,3.572,8,2.7,5.3,0,4.492,2.287,2.832,2.222,0"
        transform="translate(107 163)" fill="#f5bb3d"/>
  <path id="Fill_206" data-name="Fill 206"
        d="M2.222,0,4.5,1.67,7.166.731,6.287,3.424,8,5.676,5.177,5.67,3.571,8,2.7,5.3,0,4.492l2.288-1.66L2.222,0"
        transform="translate(118 158)" fill="#f5bb3d"/>
  <path id="Fill_207" data-name="Fill 207"
        d="M2.222,0,4.5,1.67,7.166.732,6.288,3.424,8,5.676,5.177,5.671,3.571,8,2.705,5.3,0,4.493,2.288,2.832,2.222,0"
        transform="translate(128 154)" fill="#f5bb3d"/>
  <path id="Fill_208" data-name="Fill 208"
        d="M2.221,0,4.5,1.67,7.166.731,6.288,3.423,8,5.676,5.177,5.67,3.571,8,2.7,5.3,0,4.492l2.287-1.66L2.221,0"
        transform="translate(137 148)" fill="#f5bb3d"/>
  <path id="Fill_209" data-name="Fill 209"
        d="M2.221,0,4.5,1.67,7.166.732,6.288,3.424,8,5.676,5.177,5.669,3.572,8,2.7,5.3,0,4.492l2.287-1.66L2.221,0"
        transform="translate(148 143)" fill="#f5bb3d"/>
  <path id="Fill_210" data-name="Fill 210"
        d="M11.215,0C13.4,2.425,17.8,4.9,18.784,7.138a2.846,2.846,0,0,1-.6,3.3s2.623.438,3.184,2.616c.288,1.121-1.215,2.575-1.215,2.575a3.306,3.306,0,0,1,2.468,2.413,3.256,3.256,0,0,1-1.247,2.791s1.807,1.377,1.613,3.076c-.392,3.445-13.245,7.505-16.7,3.3-1.61-1.958,1.583-2.776,1.583-2.776S3,24.479,2.115,21.8,5.436,18.31,5.436,18.31s-4.719,0-5.365-2.873c-.672-2.992,3.675-3.064,3.675-3.064S.287,11.3.287,8.984C.286,5.16,8.795,7.575,11.412,6L8.9,1.212,11.215,0"
        transform="translate(197 129)" fill="#e36a5a"/>
  <path id="Fill_211" data-name="Fill 211"
        d="M7,10.005c-2.1-2.314.537-6.547-1.1-9C3.693-2.323-1.393,3.267.362,8.439L2.606,12,7,10.005"
        transform="translate(206 122)" fill="#e36a5a"/>
  <path id="Fill_212" data-name="Fill 212"
        d="M12.969,0,13,.072A19.228,19.228,0,0,1,.128,3.92C-.016,3.905-.057,3.616.1,3.6A38.928,38.928,0,0,0,12.969,0"
        transform="translate(205 150)" fill="#0b0c21"/>
  <path id="Fill_213" data-name="Fill 213"
        d="M14.967,0,15,.084A22.468,22.468,0,0,1,.2,2.647C.024,2.612-.1,2.41.109,2.437,3.594,2.869,10.973,1.554,14.967,0"
        transform="translate(203 144)" fill="#0b0c21"/>
  <path id="Fill_214" data-name="Fill 214"
        d="M.084,1.788C4.859,2.732,9.409,1.775,13.964,0L14,.113A16.7,16.7,0,0,1,6.589,2.842,10.968,10.968,0,0,1,.056,1.984c-.083-.038-.074-.217.028-.2"
        transform="translate(201 139)" fill="#0b0c21"/>
  <path id="Fill_215" data-name="Fill 215"
        d="M35.567.427C29.558,4.3,1.012,30.353.04,45.213c-.908,13.9,13.746,32.466,17.737,38.393,1.739,2.582,19.149-8.269,19.56-11.6s-14.161-23.234-14.6-25.7,8.4-20.051,13.884-30.837C40.08,8.657,39.8-2.3,35.567.427"
        transform="translate(84 104)" fill="#e36a5a"/>
  <path id="Fill_216" data-name="Fill 216"
        d="M29.392,20.243c2.353,3.033,7.976,5.092,6.32,7.417-1.475,2.072-5.232.27-5.232.27s3.572,3.389,1.345,5.169-5.934-1.03-5.934-1.03,3.1,2.689.752,4.306-5.939-.2-5.939-.2.354,1.373-1.82,1.775c-3.114.575-8.255-3.911-10.38-6.887S.816,15.633,0,13.709L19.112,0s6.237,3.559,9.178,5.748S38.9,17.819,36.563,19.875s-7.638-5.013-9.316-6.462-2.3-1.311-2.057-.073c.16.812,3.161,5.56,4.2,6.9"
        transform="translate(101 172)" fill="#e36a5a"/>
  <path id="Fill_217" data-name="Fill 217"
        d="M9.859,10.706C4.681,7.652,2.928,5.395.178.054.125-.05-.039.009.008.124c2.23,5.481,4.03,8.637,9.72,10.849.279.108.378-.121.131-.266"
        transform="translate(122 190)" fill="#0b0c21"/>
  <path id="Fill_218" data-name="Fill 218"
        d="M10.892,11.715C5.565,7.978,3.562,5.494.141,0L0,.08C2.908,5.752,4.854,8.927,10.663,11.955c.263.138.473-.07.229-.24"
        transform="translate(117 194)" fill="#0b0c21"/>
  <path id="Fill_219" data-name="Fill 219"
        d="M9.822,11.764C5.047,7.993,2.791,5.51.218.066a.113.113,0,0,0-.21.08A20,20,0,0,0,9.689,11.894c.329.192.433.108.133-.13"
        transform="translate(112 198)" fill="#0b0c21"/>
  <path id="Fill_220" data-name="Fill 220"
        d="M26.836.1C21.017,1.78-.308,22.141,0,22.763S18.275,35.4,19.106,34.99s7.077-14.3,9.248-20.412S31.037-1.105,26.836.1"
        transform="translate(94 104)" fill="#f5bb3d"/>
  <path id="Fill_221" data-name="Fill 221"
        d="M17.909,11.612C15.1,9.491,3.279,1.82.27.028.06-.1-.107.223.084.366,2.909,2.473,14.652,10.3,17.71,11.972c.229.125.4-.206.2-.361"
        transform="translate(97 123)" fill="#0b0c21"/>
  <path id="Fill_3" data-name="Fill 3" d="M31,13C13.883,13,0,10.093,0,6.5S13.883,0,31,0,62,2.909,62,6.5,48.117,13,31,13"
        transform="translate(434 348)" fill="#dedede"/>
  <path id="Fill_17" data-name="Fill 17" d="M88.553.446h-.447V56.108H.893V.892H88.553V.446h0V0H0V57H89V0h-.447V.446"
        transform="translate(453 111)" fill="#cbcadc"/>
  <path id="Fill_18" data-name="Fill 18" d="M88.553.465h-.447v10.6H.893V.93H88.553V.465h0V0H0V12H89V0h-.447V.465"
        transform="translate(453 111)" fill="#cbcadc"/>
  <path id="Fill_19" data-name="Fill 19" d="M6,3A3,3,0,1,1,3,0,3,3,0,0,1,6,3" transform="translate(457 114)"
        fill="#e88dab"/>
  <path id="Fill_20" data-name="Fill 20" d="M6,3A3,3,0,1,1,3,0,3,3,0,0,1,6,3" transform="translate(469 114)"
        fill="#cbcadc"/>
  <path id="Fill_21" data-name="Fill 21" d="M6,3A3,3,0,1,1,3,0,3,3,0,0,1,6,3" transform="translate(479 114)"
        fill="#f5bb3d"/>
  <path id="Fill_23" data-name="Fill 23"
        d="M23.712,37H13.288V33.784a2.493,2.493,0,0,0-1.37-2.219,14.067,14.067,0,0,1-1.35-.787,2.505,2.505,0,0,0-1.379-.417,2.431,2.431,0,0,0-1.219.328L5.208,32.3,0,23.2l2.775-1.61a2.5,2.5,0,0,0,1.213-2.317c-.013-.255-.019-.515-.019-.773s.006-.518.019-.773a2.492,2.492,0,0,0-1.206-2.309L0,13.8,5.208,4.7l2.769,1.61a2.423,2.423,0,0,0,1.215.327,2.514,2.514,0,0,0,1.384-.419,14.713,14.713,0,0,1,1.343-.785,2.491,2.491,0,0,0,1.368-2.219V0H23.712V3.216A2.491,2.491,0,0,0,25.08,5.434a14.713,14.713,0,0,1,1.343.785,2.514,2.514,0,0,0,1.384.419,2.42,2.42,0,0,0,1.215-.327l2.77-1.61L37,13.8l-2.77,1.612a2.494,2.494,0,0,0-1.209,2.31c.013.256.019.518.019.779s-.006.518-.019.773a2.5,2.5,0,0,0,1.212,2.318L37,23.2l-5.207,9.1L29.03,30.69a2.428,2.428,0,0,0-1.219-.328,2.509,2.509,0,0,0-1.379.417,14.17,14.17,0,0,1-1.35.787,2.493,2.493,0,0,0-1.37,2.219V37ZM18.5,9.9a8.564,8.564,0,1,0,6.034,2.518A8.444,8.444,0,0,0,18.5,9.9Z"
        transform="translate(483 196)" fill="#cbcadc"/>
  <path id="Fill_26" data-name="Fill 26"
        d="M30.563,96A58.831,58.831,0,0,1,8.7,64.662C3.07,44.008,0,0,0,0S31.39,37.5,35.053,60.169,30.563,96,30.563,96"
        transform="translate(425 117)" fill="#e88dab"/>
  <path id="Fill_27" data-name="Fill 27"
        d="M.282,74S-2.356,50.776,8.507,31.755,56,0,56,0,34.05,41.254,23.913,53.037.282,74,.282,74"
        transform="translate(476 154)" fill="#e88dab"/>
  <path id="Fill_28" data-name="Fill 28" d="M0,66S1.965,46.423,8.46,34.173,38.262,4.623,50,0C50,0,35.368,55.532,0,66"
        transform="translate(475 217)" fill="#e88dab"/>
  <path id="Fill_29" data-name="Fill 29" d="M36.736,73S20,62.742,10.943,44.364,0,0,0,0,40.64,32.786,36.736,73"
        transform="translate(415 193)" fill="#e88dab"/>
  <path id="Fill_30" data-name="Fill 30"
        d="M5.318,173a202.208,202.208,0,0,1-5.3-45.876,201.441,201.441,0,0,1,1.138-23.139A190.606,190.606,0,0,1,4.912,81.11,174.34,174.34,0,0,1,11.67,58.945l2.061-5.406c.708-1.794,1.48-3.562,2.217-5.343l1.117-2.669c.389-.881.8-1.756,1.2-2.631.826-1.743,1.607-3.506,2.468-5.232a180.645,180.645,0,0,1,11.43-20.084c1.074-1.6,2.2-3.162,3.322-4.725,1.167-1.53,2.308-3.08,3.548-4.551A61.723,61.723,0,0,1,47,0a45.064,45.064,0,0,0-3.984,4.137c-.642.711-1.248,1.452-1.852,2.2s-1.2,1.488-1.78,2.254c-1.186,1.5-2.27,3.086-3.38,4.645-1.065,1.591-2.132,3.184-3.147,4.806A181.73,181.73,0,0,0,21.9,38.235c-.822,1.731-1.563,3.5-2.349,5.249l-1.168,2.627L17.292,48.77c-.72,1.777-1.476,3.539-2.168,5.327l-2.013,5.39A173.262,173.262,0,0,0,6.558,81.5a209.246,209.246,0,0,0-5.245,45.631q-.146,11.518.866,23.024A196.266,196.266,0,0,0,5.318,173"
        transform="translate(463 170)" fill="#0b0c21"/>
  <path id="Fill_31" data-name="Fill 31"
        d="M0,0C2.375,6.921,4.5,13.925,6.61,20.935c2.044,7.03,4,14.086,5.823,21.182.9,3.549,1.81,7.1,2.605,10.678l1.213,5.362,1.13,5.381c1.438,7.19,2.813,14.4,3.722,21.7.884,7.289,1.568,14.586,2.153,21.895.56,7.307,1.113,14.616,1.45,21.936q.544,10.979.912,21.96c.181,7.324.376,14.647.381,21.973-.387-7.315-.745-14.628-1.205-21.936q-.612-10.964-1.381-21.917c-1.044-14.6-2.127-29.2-3.979-43.7-1.8-14.483-4.926-28.789-8.253-43.019-1.664-7.12-3.482-14.2-5.36-21.272C3.983,14.081,2.013,7.036,0,0"
        transform="translate(440 156)" fill="#0b0c21"/>
  <path id="Fill_32" data-name="Fill 32"
        d="M36,0Q30.616,8.247,25.373,16.548c-3.487,5.541-6.936,11.1-10.221,16.749-3.3,5.638-6.445,11.361-9.269,17.229a95.654,95.654,0,0,0-3.765,8.992A31.475,31.475,0,0,0,.057,69,20.413,20.413,0,0,1,.27,64.1l.187-1.221.262-1.2.266-1.208.324-1.191a77.138,77.138,0,0,1,3.343-9.282c1.291-3.025,2.748-5.976,4.239-8.906,1.519-2.915,3.129-5.782,4.765-8.631q2.513-4.241,5.144-8.408c1.782-2.76,3.576-5.513,5.448-8.214Q29.814,7.7,36,0"
        transform="translate(465 242)" fill="#0b0c21"/>
  <path id="Fill_33" data-name="Fill 33"
        d="M0,0C4.126,7.167,7.924,14.522,11.47,22s6.848,15.068,9.839,22.787a208.445,208.445,0,0,1,7.666,23.626A114.917,114.917,0,0,1,31.395,80.6,55.7,55.7,0,0,1,31.814,93a62.33,62.33,0,0,0-1.246-12.266c-.76-4.039-1.77-8.027-2.88-11.985-1.126-3.954-2.379-7.873-3.727-11.762-1.323-3.9-2.755-7.757-4.245-11.6-1.458-3.852-3.017-7.667-4.6-11.473-1.565-3.813-3.21-7.594-4.855-11.376C6.931,15,3.54,7.469,0,0"
        transform="translate(433 224)" fill="#0b0c21"/>
  <path id="Fill_34" data-name="Fill 34"
        d="M40,0l-.287,4.692-.017.182-.076,1.2v.087l-.009.094-.076,1.2-.008.19-.076,1.193-.008.181L38.8,19.41l-.067,1.1-.017.285-.026.406-.05.692-.017.284-.067,1.1L36.281,60H3.72L1.5,24.1l-.034-.458-.05-.916-.035-.466-.05-.917L1.31,21.2l-.017-.319-.059-.917L1.209,19.5.516,8.322.5,8,.431,6.939.406,6.6.347,5.564.322,5.246.262,4.165l-.025-.32L0,0H40"
        transform="translate(445 294)" fill="#f5bb3d"/>
  <path id="Fill_35" data-name="Fill 35"
        d="M39,0l-.009.088-.076,1.118-.008.177-.076,1.111-.008.169-.639,9.672-.067,1.021-.017.266L38.076,14H.924l-.017-.3L.848,12.85l-.025-.434L.134,2.011l-.017-.3L.05.724.025.41,0,0H39"
        transform="translate(445 301)" fill="#0b0c21"/>
  <path id="Fill_36" data-name="Fill 36" d="M0,12H46V0H0Z" transform="translate(442 292)" fill="#f5bb3d"/>
  <path id="Fill_38" data-name="Fill 38" d="M18,9A9,9,0,1,1,9,0a9,9,0,0,1,9,9" transform="translate(459 56)"/>
  <path id="Fill_39" data-name="Fill 39"
        d="M51,24.912A24.349,24.349,0,0,1,47.8,37H3.2A24.34,24.34,0,0,1,0,24.912C0,11.152,11.419,0,25.5,0S51,11.152,51,24.912"
        transform="translate(472 74)"/>
  <path id="Fill_111" data-name="Fill 111" d="M26,39,0,35.5,18.488,0,26,39" transform="translate(375 146)"
        fill="#e88dab"/>
</svg>
