<svg id="clipboard" xmlns="http://www.w3.org/2000/svg" width="45" height="45" viewBox="0 0 45 45">
  <path id="Path" d="M2.5,0a2.5,2.5,0,0,0,0,5H22.4a2.5,2.5,0,0,0,0-5Z" transform="translate(10 20)" fill="#008fff"/>
  <path id="Path-2" data-name="Path" d="M2.5,0a2.5,2.5,0,0,0,0,5H22.4a2.5,2.5,0,0,0,0-5Z"
        transform="translate(10.101 30.166)" fill="#008fff"/>
  <path id="Shape"
        d="M40,45H5a5.006,5.006,0,0,1-5-5V5A5.006,5.006,0,0,1,5,0H40a5.006,5.006,0,0,1,5,5V40A5.006,5.006,0,0,1,40,45ZM5,5V40H40V5H35V7.5A7.509,7.509,0,0,1,27.5,15h-10A7.509,7.509,0,0,1,10,7.5V5ZM15,5V7.5A2.5,2.5,0,0,0,17.5,10h10A2.5,2.5,0,0,0,30,7.5V5Z"
        fill="#008fff"/>
</svg>
