<svg xmlns="http://www.w3.org/2000/svg" width="1015.379" height="399" viewBox="0 0 1015.379 399">
  <g id="illustration" transform="translate(-185.122 -323)">
    <path id="slider_arka_plan" data-name="slider arka plan"
          d="M25.567,365.147s-74.562-149,68.323-218,254.389,36,360.393-39,257.081-148,315.011-83,48.268,139.647,175.006,187.5S1003.549,370,1003.549,370"
          transform="translate(179 352)" fill="#d1e2ff"/>
    <g id="slider_illustrasyonu" data-name="slider illustrasyonu" transform="translate(249 323)">
      <path id="Fill_6" data-name="Fill 6"
            d="M94.579,180a3.8,3.8,0,0,1-3.685-2.909l-4.049-16.853a3.8,3.8,0,0,0-3.5-2.969,68.738,68.738,0,0,1-21.225-5.036,3.788,3.788,0,0,0-1.451-.286,3.941,3.941,0,0,0-3.169,1.6l-6.217,8.491a4.005,4.005,0,0,1-3.193,1.6,3.911,3.911,0,0,1-1.956-.525l-14.648-8.645a3.438,3.438,0,0,1-.806-.62,3.838,3.838,0,0,1-.747-4.406l5.718-12.167,1.4-2.963a68.919,68.919,0,0,1-5.9-7.713,70.047,70.047,0,0,1-6.11-11.444,3.822,3.822,0,0,0-3.5-2.376c-.064,0-.128,0-.193,0l-15.056.66-.156,0a3.965,3.965,0,0,1-3.937-3.475L.508,96.922.034,93.181A4.066,4.066,0,0,1,.7,90.371a3.959,3.959,0,0,1,2.355-1.637l13.99-3.417a3.81,3.81,0,0,0,2.965-3.4A69.569,69.569,0,0,1,23,67.452a11.427,11.427,0,0,1,.342-1.117l.024-.071a2.178,2.178,0,0,0,.109-.4,3.936,3.936,0,0,0-1.517-4.082L8.278,51.587a2.654,2.654,0,0,1-.4-.343l-.03-.029a4,4,0,0,1-.627-4.792L15.759,31.71a3.94,3.94,0,0,1,5.1-1.585l16.865,8.062a3.7,3.7,0,0,0,1.65.385A3.845,3.845,0,0,0,42,37.527a70.14,70.14,0,0,1,8.381-6.56C51.961,29.91,53.6,28.912,55.245,28a4.03,4.03,0,0,0,2.072-3.719L56.559,6.2a3.86,3.86,0,0,1,3.342-4L76.683.035a4.006,4.006,0,0,1,4.43,3.059L84.32,16.428a3.954,3.954,0,0,0,3.812,3.047h.195a68.487,68.487,0,0,1,20.822,3.264,3.808,3.808,0,0,0,1.219.2,3.944,3.944,0,0,0,3.166-1.617l9.121-12.409a4.041,4.041,0,0,1,5.28-1.094L142.5,16.376a3.915,3.915,0,0,1,1.548,5.053l-.326.714-6.65,14.133a4.006,4.006,0,0,0,.73,4.489l.013.016a69.133,69.133,0,0,1,7.587,9.562c1.14,1.728,2.238,3.58,3.356,5.662a3.879,3.879,0,0,0,3.448,2.1c.053,0,.106,0,.159,0l15.285-.672c.061,0,.124,0,.185,0a4.025,4.025,0,0,1,3.983,3.521l2.154,16.821a4.371,4.371,0,0,1-.07,1.39,4.024,4.024,0,0,1-2.91,2.981l-11.182,2.7a4.006,4.006,0,0,0-2.846,2.725,4.331,4.331,0,0,0-.165,1.1,69.574,69.574,0,0,1-5.451,26.8,3.889,3.889,0,0,0,1.262,4.653l11.082,8.245a3.977,3.977,0,0,1,1.059,5.165l-.2.344-8.313,14.345a3.99,3.99,0,0,1-5.166,1.587L134.9,142.079a3.91,3.91,0,0,0-1.664-.369,3.969,3.969,0,0,0-2.448.85c-1.5,1.191-3.071,2.332-4.658,3.389a66.935,66.935,0,0,1-9.216,5.185,3.931,3.931,0,0,0-2.311,3.785l.792,18.812a3.859,3.859,0,0,1-3.374,4.021l-16.961,2.217A3.838,3.838,0,0,1,94.579,180ZM87.908,50.625A36.144,36.144,0,0,0,72.829,53.9a38.477,38.477,0,0,0-13.288,10.1,46.873,46.873,0,0,0-4.954,7.086,33.13,33.13,0,0,0-3.294,9.511,32.633,32.633,0,0,0-.614,10.062c.074.621.167,1.233.256,1.824a42.723,42.723,0,0,0,4.851,14.135,37.53,37.53,0,0,0,8.585,10.4,36.565,36.565,0,0,0,41.834,3.727,38.643,38.643,0,0,0,8.088-6.25,44.268,44.268,0,0,0,6.8-8.915,31.093,31.093,0,0,0,3.016-7.857,41.206,41.206,0,0,0,1.25-8.915,24.694,24.694,0,0,0-.2-3.668,43.63,43.63,0,0,0-4.235-14,38.221,38.221,0,0,0-6.125-8.8A36.765,36.765,0,0,0,87.908,50.625Z"
            transform="translate(0 186)" fill="#d6e8fc"/>
      <g id="Group_2" data-name="Group 2" transform="translate(774 269)">
        <path id="Fill_123" data-name="Fill 123" d="M0,28.125H10.273V0H0Z" transform="translate(102.727 90.938)"
              fill="#d6e8fc"/>
        <path id="Fill_124" data-name="Fill 124"
              d="M8.927.938H1.345C.605.938,0,.727,0,.469S.605,0,1.345,0H8.927c.74,0,1.345.211,1.345.469S9.667.938,8.927.938"
              transform="translate(102.727 86.25)" fill="#d6e8fc"/>
        <path id="Fill_125" data-name="Fill 125" d="M0,55.313H14.008V0H0Z" transform="translate(80.314 64.688)"
              fill="#d6e8fc"/>
        <path id="Fill_126" data-name="Fill 126"
              d="M12.174,1.875H1.835C.826,1.875,0,1.453,0,.938S.826,0,1.835,0H12.174c1.009,0,1.834.422,1.834.938s-.825.938-1.834.938"
              transform="translate(80.314 63.75)" fill="#d6e8fc"/>
        <path id="Fill_127" data-name="Fill 127" d="M0,90.938H14.008V0H0Z" transform="translate(60.702 29.063)"
              fill="#d6e8fc"/>
        <path id="Fill_128" data-name="Fill 128"
              d="M12.174,1.875H1.835C.826,1.875,0,1.453,0,.938S.826,0,1.835,0H12.174c1.009,0,1.835.422,1.835.938s-.826.938-1.835.938"
              transform="translate(60.702 26.25)" fill="#d6e8fc"/>
        <path id="Fill_129" data-name="Fill 129" d="M0,75.938H14.008V0H0Z" transform="translate(40.157 44.063)"
              fill="#d6e8fc"/>
        <path id="Fill_130" data-name="Fill 130"
              d="M12.174,1.875H1.835C.826,1.875,0,1.453,0,.938S.826,0,1.835,0H12.174c1.009,0,1.835.422,1.835.938s-.826.938-1.835.938"
              transform="translate(40.157 42.188)" fill="#d6e8fc"/>
        <path id="Fill_131" data-name="Fill 131" d="M0,114.375H14.008V0H0Z" transform="translate(21.479 5.625)"
              fill="#d6e8fc"/>
        <path id="Fill_132" data-name="Fill 132"
              d="M12.174,1.875H1.835C.826,1.875,0,1.453,0,.938S.826,0,1.835,0H12.174c1.009,0,1.835.422,1.835.938s-.826.938-1.835.938"
              transform="translate(21.479)" fill="#d6e8fc"/>
        <path id="Fill_133" data-name="Fill 133" d="M0,94.688H14.008V0H0Z" transform="translate(0 24.375)"
              fill="#d6e8fc"/>
        <path id="Fill_134" data-name="Fill 134"
              d="M12.174,1.875H1.835C.826,1.875,0,1.453,0,.938S.826,0,1.835,0H12.174c1.009,0,1.835.422,1.835.938s-.826.938-1.835.938"
              transform="translate(0 19.688)" fill="#d6e8fc"/>
      </g>
      <path id="Path_6" data-name="Path 6"
            d="M4.177,24.99c44.541,0,612.616,6.045,603.6-1.477S528.989,13.17,516.312,13.17,318.438.477,302.028.006-40.364,24.99,4.177,24.99Z"
            transform="translate(158.823 367.01)" fill="#7691bd"/>
      <path id="Fill_16" data-name="Fill 16"
            d="M38.63,73h0L37.57,67.11c-.342.011-.68.016-1,.016a30.412,30.412,0,0,1-5.882-.574c-.415-.08-.792-.162-1.153-.249-.321-.077-.652-.161-1.012-.257L26.272,71.6A31.946,31.946,0,0,1,22.8,70.486c-.3-.115-.547-.212-.8-.324a32.51,32.51,0,0,1-9.8-6.346l3.42-4.925a30.5,30.5,0,0,1-5.7-7.12L4.449,54.081A32.376,32.376,0,0,1,0,38.625l5.83-1.049a30.585,30.585,0,0,1,1.04-9.094L1.4,26.268A32.341,32.341,0,0,1,9.187,12.194l4.846,3.367a30.544,30.544,0,0,1,7.173-5.705L18.919,4.447A32.324,32.324,0,0,1,34.37,0L35.42,5.808c.344-.011.685-.017,1.011-.017a30.544,30.544,0,0,1,8.076,1.091L46.73,1.4A32.391,32.391,0,0,1,60.8,9.184l-3.392,4.883a30.42,30.42,0,0,1,5.693,7.151l5.445-2.3A32.355,32.355,0,0,1,73,34.37l-5.851,1.052A30.489,30.489,0,0,1,66.088,44.5L71.6,46.731A32.338,32.338,0,0,1,63.813,60.8l-4.905-3.408a30.4,30.4,0,0,1-7.147,5.667l2.324,5.486A32.411,32.411,0,0,1,38.631,73Zm-2.6-56.884h0a19.953,19.953,0,1,0,6.383,1.056,19.95,19.95,0,0,0-6.383-1.056Z"
            transform="translate(636 47)" fill="#f5c6b6"/>
      <path id="Fill_18" data-name="Fill 18"
            d="M4.144,24.35c3.112-2.446,8.413-1.3,10.221-2.6,2.166-1.552,1.986-3.128,2.408-5.562a35.806,35.806,0,0,1,2.267-7.737A13.179,13.179,0,0,1,31.855,0a13.623,13.623,0,0,1,9.093,3.753c2.192,2.08,3.26,6.571,6.168,7.68,4.1,1.564,7.875-4.143,12.03-3.353a7.385,7.385,0,0,1,5.938,5.283c.369,1.71-.043,3.477-.115,5.223s.332,3.717,1.8,4.68A4.608,4.608,0,0,0,69,23.924a24.415,24.415,0,0,0,5.978-.851c1.984-.366,4.18-.44,5.873.649,2.226,1.434,2.834,4.192,3.861,6.437a13.159,13.159,0,0,0,5.258,5.9c5.405,3.1,12.35.313,17.026,4.943H7.287C4.04,41-.009,37.664,0,32.5A10.455,10.455,0,0,1,4.144,24.35"
            transform="translate(601 3)" fill="#ccdaf3"/>
      <path id="Fill_19" data-name="Fill 19"
            d="M151.05,37.222c-6.669-1.2-12.3-1.953-15.355-8.025s-5-12.766-9.049-18.219c-7.061-9.514-21.11-14.287-32.392-8.4C81.473,9.257,80.541,30.737,63.662,30.775c-3.681.008-7.218-1.408-10.879-1.791-8.049-.841-18.858,4.341-20.887,12.7-.546,2.244-3.231,12.4-10.29,12.4C17.015,54.087,5.884,52.221,0,61H153.68c5.736,0,9.32-5.507,9.32-9.431a14.661,14.661,0,0,0-11.95-14.347"
            transform="translate(141 26)" fill="#ccdaf3"/>
      <path id="Fill_20" data-name="Fill 20"
            d="M7.9,3.2l-.8.308a2.778,2.778,0,0,1-1.6,3.589A2.741,2.741,0,0,1,4.5,7.28,2.78,2.78,0,1,1,7.1,3.506L8.7,2.891A4.5,4.5,0,1,0,9,4.5a4.5,4.5,0,0,0-.3-1.609L7.9,3.2"
            transform="translate(340 52)" fill="#b4b9d3"/>
      <path id="Fill_21" data-name="Fill 21"
            d="M7.9,3.2l-.8.308a2.779,2.779,0,1,1-5.19,1.99A2.748,2.748,0,0,1,1.72,4.5a2.78,2.78,0,0,1,5.375-1L8.7,2.889A4.495,4.495,0,1,0,9,4.5a4.5,4.5,0,0,0-.3-1.61L7.9,3.2"
            transform="translate(199 23)" fill="#b4b9d3"/>
      <path id="Fill_22" data-name="Fill 22"
            d="M7.9,3.2l-.8.306a2.779,2.779,0,1,1-5.19,1.99A2.741,2.741,0,0,1,1.72,4.5a2.78,2.78,0,0,1,5.375-1L7.9,3.2l.8-.308A4.495,4.495,0,1,0,9,4.5a4.5,4.5,0,0,0-.3-1.608L7.9,3.2"
            transform="translate(77 195)" fill="#b4b9d3"/>
      <path id="Fill_23" data-name="Fill 23"
            d="M7.9,2.843l-.8.272A2.231,2.231,0,0,1,7.28,4,2.5,2.5,0,0,1,5.495,6.308a3.085,3.085,0,0,1-.994.164A2.792,2.792,0,0,1,1.9,4.884,2.226,2.226,0,0,1,1.72,4,2.493,2.493,0,0,1,3.505,1.694,3.053,3.053,0,0,1,4.5,1.529,2.8,2.8,0,0,1,7.1,3.117L8.7,2.57A4.523,4.523,0,0,0,4.5,0a4.98,4.98,0,0,0-1.61.266A4.038,4.038,0,0,0,0,4,3.6,3.6,0,0,0,.3,5.432,4.518,4.518,0,0,0,4.5,8a4.978,4.978,0,0,0,1.61-.264A4.039,4.039,0,0,0,9,4,3.615,3.615,0,0,0,8.7,2.57l-.8.274"
            transform="translate(445 56)" fill="#b4b9d3"/>
      <path id="Fill_24" data-name="Fill 24"
            d="M7.022,3.2,6.308,3.5a3.091,3.091,0,0,1,.164.994,2.794,2.794,0,0,1-1.587,2.6A2.265,2.265,0,0,1,4,7.28,2.5,2.5,0,0,1,1.692,5.494,3.084,3.084,0,0,1,1.529,4.5,2.79,2.79,0,0,1,3.116,1.905,2.2,2.2,0,0,1,4,1.72,2.5,2.5,0,0,1,6.308,3.506L7.022,3.2l.714-.308A4.045,4.045,0,0,0,4,0,3.6,3.6,0,0,0,2.568.3,4.519,4.519,0,0,0,0,4.5,5.018,5.018,0,0,0,.264,6.109,4.043,4.043,0,0,0,4,9a3.631,3.631,0,0,0,1.431-.3A4.524,4.524,0,0,0,8,4.5a5.008,5.008,0,0,0-.264-1.608L7.022,3.2"
            transform="translate(733 71)" fill="#b4b9d3"/>
      <path id="Fill_25" data-name="Fill 25"
            d="M7.9,2.843l-.8.274A2.228,2.228,0,0,1,7.28,4,2.5,2.5,0,0,1,5.494,6.306a3.086,3.086,0,0,1-.994.165A2.793,2.793,0,0,1,1.905,4.885,2.209,2.209,0,0,1,1.72,4,2.5,2.5,0,0,1,3.5,1.694,3.1,3.1,0,0,1,4.5,1.528a2.8,2.8,0,0,1,2.6,1.588l.8-.274.8-.274A4.525,4.525,0,0,0,4.5,0,5.011,5.011,0,0,0,2.891.266,4.04,4.04,0,0,0,0,4,3.587,3.587,0,0,0,.3,5.431,4.522,4.522,0,0,0,4.5,8a4.979,4.979,0,0,0,1.609-.266A4.042,4.042,0,0,0,9,4a3.594,3.594,0,0,0-.3-1.431l-.8.274"
            transform="translate(817 236)" fill="#b4b9d3"/>
      <path id="Fill_26" data-name="Fill 26"
            d="M0,.778V7.222C0,7.651.224,8,.5,8s.5-.349.5-.778V.778C1,.349.776,0,.5,0S0,.349,0,.778"
            transform="translate(384 8)" fill="#b4b9d3"/>
      <path id="Fill_27" data-name="Fill 27"
            d="M7.222,0H.778C.349,0,0,.224,0,.5s.349.5.778.5H7.222C7.651,1,8,.776,8,.5S7.651,0,7.222,0"
            transform="translate(381 12)" fill="#b4b9d3"/>
      <path id="Fill_28" data-name="Fill 28"
            d="M0,.875V8.125C0,8.608.224,9,.5,9s.5-.392.5-.875V.875C1,.392.777,0,.5,0S0,.392,0,.875"
            transform="translate(466)" fill="#b4b9d3"/>
      <path id="Fill_29" data-name="Fill 29"
            d="M7.222,0H.778C.349,0,0,.224,0,.5s.349.5.778.5H7.222C7.651,1,8,.776,8,.5S7.651,0,7.222,0"
            transform="translate(462 3)" fill="#b4b9d3"/>
      <path id="Fill_30" data-name="Fill 30"
            d="M0,.875V8.125C0,8.608.224,9,.5,9s.5-.392.5-.875V.875C1,.392.776,0,.5,0S0,.392,0,.875"
            transform="translate(244 141)" fill="#b4b9d3"/>
      <path id="Fill_31" data-name="Fill 31"
            d="M8.125,0H.875C.392,0,0,.224,0,.5s.392.5.875.5H8.125C8.608,1,9,.776,9,.5S8.608,0,8.125,0"
            transform="translate(240 146)" fill="#b4b9d3"/>
      <path id="Fill_32" data-name="Fill 32"
            d="M0,.778V7.222C0,7.651.224,8,.5,8s.5-.349.5-.778V.778C1,.349.776,0,.5,0S0,.349,0,.778"
            transform="translate(133 111)" fill="#b4b9d3"/>
      <path id="Fill_33" data-name="Fill 33"
            d="M7.222,0H.778C.349,0,0,.224,0,.5s.349.5.778.5H7.222C7.651,1,8,.777,8,.5S7.651,0,7.222,0"
            transform="translate(130 115)" fill="#b4b9d3"/>
      <path id="Fill_34" data-name="Fill 34"
            d="M0,.778V7.222C0,7.651.223,8,.5,8s.5-.349.5-.778V.778C1,.349.776,0,.5,0S0,.349,0,.778"
            transform="translate(623 56)" fill="#b4b9d3"/>
      <path id="Fill_35" data-name="Fill 35"
            d="M8.124,0H.876C.391,0,0,.224,0,.5s.391.5.876.5H8.124C8.608,1,9,.776,9,.5S8.608,0,8.124,0"
            transform="translate(618 61)" fill="#b4b9d3"/>
      <path id="Fill_36" data-name="Fill 36"
            d="M0,.778V7.222C0,7.651.224,8,.5,8s.5-.349.5-.778V.778C1,.349.776,0,.5,0S0,.349,0,.778"
            transform="translate(109 230)" fill="#b4b9d3"/>
      <path id="Fill_37" data-name="Fill 37"
            d="M7.222,0H.778C.349,0,0,.224,0,.5s.349.5.778.5H7.222C7.651,1,8,.776,8,.5S7.651,0,7.222,0"
            transform="translate(105 234)" fill="#b4b9d3"/>
      <path id="Fill_38" data-name="Fill 38"
            d="M0,.875V8.125C0,8.608.224,9,.5,9s.5-.392.5-.875V.875C1,.392.776,0,.5,0S0,.392,0,.875"
            transform="translate(805 167)" fill="#b4b9d3"/>
      <path id="Fill_39" data-name="Fill 39"
            d="M8.125,0H.875C.392,0,0,.223,0,.5s.392.5.875.5H8.125C8.608,1,9,.776,9,.5S8.608,0,8.125,0"
            transform="translate(801 171)" fill="#b4b9d3"/>
      <path id="Fill_40" data-name="Fill 40"
            d="M0,.778V7.222C0,7.651.224,8,.5,8s.5-.349.5-.778V.778C1,.349.776,0,.5,0S0,.349,0,.778"
            transform="translate(707 134)" fill="#b4b9d3"/>
      <path id="Fill_41" data-name="Fill 41"
            d="M8.125,0H.875C.392,0,0,.105,0,.235S.392.469.875.469H8.125C8.608.469,9,.364,9,.235S8.608,0,8.125,0"
            transform="translate(702 137.765)" fill="#b4b9d3"/>
      <path id="Fill_42" data-name="Fill 42"
            d="M45,23A22.754,22.754,0,0,1,22.5,46,22.754,22.754,0,0,1,0,23,22.756,22.756,0,0,1,22.5,0,22.754,22.754,0,0,1,45,23"
            transform="translate(171 117)" fill="#dec4f5"/>
      <path id="Fill_43" data-name="Fill 43"
            d="M45.228,23h-.772A21.455,21.455,0,1,1,38.171,7.829,21.39,21.39,0,0,1,44.455,23H46A23,23,0,1,0,23,46,23,23,0,0,0,46,23h-.772"
            transform="translate(171 117)" fill="#cbccdd"/>
      <path id="Fill_45" data-name="Fill 45" d="M31,15.5A15.5,15.5,0,1,1,15.5,0,15.5,15.5,0,0,1,31,15.5"
            transform="translate(299 5)" fill="#e7eefa"/>
      <path id="Fill_46" data-name="Fill 46"
            d="M31.238,16h-.762A14.473,14.473,0,1,1,26.237,5.764,14.43,14.43,0,0,1,30.476,16H32A16,16,0,1,0,16,32,16,16,0,0,0,32,16h-.762"
            transform="translate(298 6)" fill="#cbccdd"/>
      <path id="Fill_48" data-name="Fill 48"
            d="M.66,230c-2.446-38.893,1.511-94.24,18.567-143.988,17.7-51.621,49.2-96.916,84.185-83.687,13.423,5.076,15.221,27.83,9.571,49.024C96.326,113.825,57.74,151.594,42.9,230"
            transform="translate(630 148)" fill="#ade1bb"/>
      <path id="Fill_49" data-name="Fill 49"
            d="M1.535,230C4.543,169.3,23.16,111.98,41.029,69.854,49.964,48.79,58.71,31.524,65.221,19.527c3.256-6,5.952-10.681,7.835-13.86.94-1.591,1.678-2.805,2.179-3.621S76,.815,76,.813L74.7,0C74.674.056,6.058,108,0,229.925L1.535,230"
            transform="translate(653 148)" fill="#fffffe"/>
      <path id="Fill_50" data-name="Fill 50"
            d="M132,115C110.761,61.986,34.9-35.775,2.616,13.46c-6.31,9.622-.427,25.017,9.341,35.877C40.749,81.352,71.176,71.942,103.761,115"
            transform="translate(101 263)" fill="#ade1bb"/>
      <path id="Fill_51" data-name="Fill 51"
            d="M110,107.357C74.576,32.391.666.041.6,0L0,1.377s.278.122.822.374C8.986,5.533,75.729,38.265,108.649,108l1.351-.643"
            transform="translate(108 269)" fill="#fffffe"/>
      <path id="Fill_52" data-name="Fill 52"
            d="M107.122,203C119.26,121.132,70.979-33.947,8.337,6.657c-14.348,9.3-7.5,45.121.654,65.336C29.49,122.787,64.213,135.609,78.3,203"
            transform="translate(138 175)" fill="#80cb93"/>
      <path id="Fill_53" data-name="Fill 53"
            d="M83,199.985C82.447,146.7,61.975,96.723,41.663,60.057S1.175.027,1.152,0L0,.986s.309.359.9,1.064C9.718,12.627,80.48,100.8,81.48,200l1.52-.015"
            transform="translate(151 177)" fill="#fffffe"/>
      <path id="Fill_54" data-name="Fill 54"
            d="M71,187C87.034,122.331,83.76-15.2,15.918,1.375,3.166,4.491-1.408,24.085.368,41.379,5.605,92.359,38.046,123.021,39.351,187"
            transform="translate(236 191)" fill="#e6e6ee"/>
      <path id="Fill_55" data-name="Fill 55"
            d="M40.806,188c.82-9.221,1.194-18.27,1.194-27.1C41.994,68.793,1.353.064,1.319,0L0,.776s.153.26.447.78C4.873,9.368,40.474,74.974,40.468,160.9c0,8.791-.372,17.794-1.188,26.969l1.526.134"
            transform="translate(252 190)" fill="#fffffe"/>
      <path id="Fill_56" data-name="Fill 56"
            d="M0,177C4.823,128.625,19.733,68.254,43.681,32.13,62.852,3.209,92.794-9.743,110.522,8.281c9.854,10.02,6.124,38.985-8.861,60.789C75.152,107.641,43.5,121.436,25.845,177"
            transform="translate(671 206)" fill="#80cb93"/>
      <path id="Fill_57" data-name="Fill 57"
            d="M1.486,171C12.96,117.222,36.348,74.74,56.867,45.706A324.95,324.95,0,0,1,83.64,12.515c3.486-3.761,6.33-6.614,8.3-8.523.986-.956,1.752-1.676,2.272-2.156S95,1.121,95,1.12L93.988,0C93.929.057,23.064,62.632,0,170.69l1.486.31"
            transform="translate(687 206)" fill="#fffffe"/>
      <path id="Fill_58" data-name="Fill 58"
            d="M0,108C16.054,63.081,57.96,11.215,89.732,1.809c12.837-3.8,32.586-2.406,35.048,11.873,1.972,11.438-9.586,28.786-22.726,38.49C77.881,70.026,55.086,77.246,28.368,108"
            transform="translate(694 274)" fill="#b4b9d3"/>
      <path id="Fill_59" data-name="Fill 59"
            d="M1.34,104c23.953-42.22,50.4-67.859,70.841-82.944A164.711,164.711,0,0,1,97.281,5.6c3.079-1.509,5.517-2.545,7.182-3.2.832-.328,1.469-.563,1.9-.714.214-.077.376-.13.482-.167L107,1.463,106.538,0C106.409.035,48.119,18.414,0,103.245L1.34,104"
            transform="translate(715 275)" fill="#fffffe"/>
      <path id="Fill_60" data-name="Fill 60"
            d="M22.124,0Q23.064,7.156,24,14.31c-8.124-.163-15.877.458-24,.69,2.673-1.584,8.347-4.744,10.36-8.835L22.124,0"
            transform="translate(583 208)" fill="#f4c1aa"/>
      <path id="Fill_61" data-name="Fill 61"
            d="M31.271,11H26.54A15.3,15.3,0,0,0,26.5,8.775a20.462,20.462,0,0,0-3.048.235,3.6,3.6,0,0,0-.882,1.012A2.265,2.265,0,0,1,20.714,11H1.911C-.41,11-.777,8.264,1.7,6.953,3.948,5.766,8.838,3.2,9.05,3.152c7.48.711,19.711-.641,22.1-3.152,1.816,1.907.145,10.944.116,11"
            transform="translate(576 220)" fill="#0e0f25"/>
      <path id="Fill_62" data-name="Fill 62"
            d="M25.321,0C28.716,41.13,31,84,31,84L17.717,82.224S3.621,27.039,0,0H25.321" transform="translate(575 132)"
            fill="#f4c1aa"/>
      <path id="Fill_63" data-name="Fill 63"
            d="M22.126,0,24,14.31c-8.124-.163-15.877.458-24,.69,2.673-1.584,8.347-4.744,10.36-8.835L22.126,0"
            transform="translate(544 208)" fill="#f4c1aa"/>
      <path id="Fill_64" data-name="Fill 64"
            d="M31.272,11H26.54A15.3,15.3,0,0,0,26.5,8.775a20.463,20.463,0,0,0-3.048.235,3.575,3.575,0,0,0-.88,1.012A2.269,2.269,0,0,1,20.715,11H1.911C-.41,11-.776,8.264,1.7,6.953,3.948,5.766,8.837,3.2,9.049,3.152,16.531,3.862,28.762,2.511,31.154,0c1.816,1.907.146,10.944.118,11"
            transform="translate(537 220)" fill="#0e0f25"/>
      <path id="Fill_65" data-name="Fill 65" d="M24,0c-2.58,41.112-5.912,84-5.912,84L5.5,82.224S0,29.305,0,0H24"
            transform="translate(549 132)" fill="#f4c1aa"/>
      <path id="Fill_66" data-name="Fill 66"
            d="M47.314,1.909C59.613,29.289,61,59.565,61,59.565S43.492,64,29.2,64A232.053,232.053,0,0,1,0,61.811S3.812,14.49,9.7,0l37.61,1.909"
            transform="translate(545 85)" fill="#272857"/>
      <path id="Fill_67" data-name="Fill 67"
            d="M0,.484c4.555,8.147,8,20.3,10.293,30.389,1.148,5.046,2.007,9.58,2.578,12.851.286,1.636.5,2.955.645,3.868S13.73,49,13.73,49L15,48.864c0-.007-1.149-8.073-3.452-18.2S5.8,8.329,1.151,0L0,.486H0"
            transform="translate(588 96)" fill="#334589"/>
      <path id="Fill_68" data-name="Fill 68"
            d="M0,7.293l.834,5.958S5,16.044,8.507,14.571C12.2,13.018,12,10.923,12,10.923L7.571,0"
            transform="translate(544 25)" fill="#f5c6b6"/>
      <path id="Fill_69" data-name="Fill 69"
            d="M.142,4.8c-.765,3.284,1.572,12.562,6.77,12.19,5.48-.394,9.55-4.589,7.587-10.31C12.436.667,2.155-3.834.142,4.8"
            transform="translate(537 18)" fill="#f5c6b6"/>
      <path id="Fill_70" data-name="Fill 70"
            d="M.226,7A12.956,12.956,0,0,0,5.144,5.187,9.728,9.728,0,0,0,9,.5L7.705,0A8.341,8.341,0,0,1,4.384,4.042,11.533,11.533,0,0,1,0,5.65L.226,7"
            transform="translate(544 30)" fill="#db806b"/>
      <path id="Fill_71" data-name="Fill 71" d="M.5.5v0" transform="translate(551 24)" fill="#e77e5b"/>
      <path id="Fill_72" data-name="Fill 72" d="M.465.479l0,.042H.535l0-.042H.465" transform="translate(551 24)"
            fill="#e77e5b"/>
      <path id="Fill_73" data-name="Fill 73"
            d="M13.337,11.163c-1.628-.241-2.518-1.394-3.134-2.941a3.9,3.9,0,0,1-3.943.292A5.076,5.076,0,0,1,3.983,6.093,5.417,5.417,0,0,1,.1,9.444,8.208,8.208,0,0,1,3.656,1.587,8.473,8.473,0,0,1,12.243.848a10.07,10.07,0,0,1,4.711,7.56c.21,1.933-.287,5.812-1.8,5.583-.717-.11-1.82-2.828-1.82-2.828"
            transform="translate(538 15)" fill="#1b1e29"/>
      <path id="Fill_74" data-name="Fill 74"
            d="M.006,1.445A1.7,1.7,0,0,1,.478.181c.737-.67,1.436.65,1.51,1.854a4.763,4.763,0,0,1-.3,2.071C1.353,5,.795,5.361.345,4.538"
            transform="translate(551 24)" fill="#f5c6b6"/>
      <path id="Fill_75" data-name="Fill 75"
            d="M1.437,5.3A1.841,1.841,0,0,1,.029,3.117,3.8,3.8,0,0,1,1.781.806,4.786,4.786,0,0,1,3.089.16,4.929,4.929,0,0,1,5.255.083a3.545,3.545,0,0,1,2.265,1.1,2.658,2.658,0,0,1,0,3.048A4.461,4.461,0,0,1,4.77,6"
            transform="translate(541 12)" fill="#1b1e29"/>
      <path id="Fill_76" data-name="Fill 76"
            d="M40,5.181C31.231,27.222,7.677,51,7.677,51L0,45.33S16.416,22.876,23.783,0" transform="translate(505 59)"
            fill="#f5c6b6"/>
      <path id="Fill_77" data-name="Fill 77"
            d="M8.078,0C6.269,2.768-.317,9.945.012,10.536s2.68-1.9,2.857-1.369S-.3,13.778.185,14.282c.664.683,3.868-3.673,3.868-3.673S.787,15.553,1.538,15.982c.531.3,3.2-3.356,4.4-4.629C4.817,12.9,3.305,15.6,3.864,15.909s2.426-2.151,3.962-3.957c-.851,1.215-2.278,3.506-1.776,3.811S11.529,10.411,16,4.906"
            transform="translate(500 102)" fill="#f5c6b6"/>
      <path id="Fill_78" data-name="Fill 78"
            d="M.258,2c.011,0,.848-.142,1.848-.379A11.146,11.146,0,0,0,5,.614L4.255,0A10.126,10.126,0,0,1,1.748.849c-.473.113-.914.2-1.233.264S0,1.208,0,1.208L.258,2"
            transform="translate(503 109)" fill="#dd8b77"/>
      <path id="Fill_79" data-name="Fill 79" d="M13.862,0C4.485,2.921,0,19.518,0,19.518L10.394,24,15,2.543"
            transform="translate(530 40)" fill="#df4a45"/>
      <path id="Fill_80" data-name="Fill 80"
            d="M5.721,3.088c2.782.52,3.455.539,5.425-.1A27.227,27.227,0,0,0,17.395,0S27.552-.5,37.449,10.163C42.514,15.618,50.972,31.15,56,51.9,37.129,58.125,9.641,62,9.641,62S-.356,22.749.01,11.1c.123-3.91,5.711-8.014,5.711-8.014"
            transform="translate(538 36)" fill="#df4a45"/>
      <path id="Fill_81" data-name="Fill 81" d="M7.677,0,0,5.547,4.909,11,10,2.42,7.677,0" transform="translate(548 34)"
            fill="#fffffe"/>
      <path id="Fill_82" data-name="Fill 82" d="M5,2.946,1.332,0,0,2.9,1.974,9,5,2.946" transform="translate(542 37)"
            fill="#fffffe"/>
      <path id="Fill_83" data-name="Fill 83"
            d="M3,9.783C2.391,6.938,1.935,4.489,1.631,2.755S1.174,0,1.174,0L0,.152C0,.16.615,4.28,1.838,10L3,9.783"
            transform="translate(536 54)" fill="#c32638"/>
      <path id="Fill_84" data-name="Fill 84" d="M108.337,0H14.663S18.547,59,0,59H123c-18.547,0-14.663-59-14.663-59"
            transform="translate(408 311)" fill="#b4b9d3"/>
      <path id="Fill_85" data-name="Fill 85" d="M0,34,93.7,15.862C93.531,6.893,94,0,94,0H1.054S2.3,18.237,0,34"
            transform="translate(421 313)" fill="#8087b5"/>
      <path id="Fill_86" data-name="Fill 86"
            d="M364.533,244H8.467A8.454,8.454,0,0,1,0,235.559V8.441A8.454,8.454,0,0,1,8.467,0H364.533A8.454,8.454,0,0,1,373,8.441V235.559A8.454,8.454,0,0,1,364.533,244"
            transform="translate(283 85)" fill="#b4b9d3"/>
      <path id="Fill_87" data-name="Fill 87"
            d="M348.062,228H3.938A3.943,3.943,0,0,1,0,224.051V3.949A3.943,3.943,0,0,1,3.938,0H348.062A3.943,3.943,0,0,1,352,3.949v220.1A3.943,3.943,0,0,1,348.062,228"
            transform="translate(293 93)" fill="#fffffe"/>
      <path id="Fill_88" data-name="Fill 88"
            d="M347.322,229.236v-.764H4.678a3.182,3.182,0,0,1-3.164-3.193V4.721A3.182,3.182,0,0,1,4.678,1.528H347.322a3.182,3.182,0,0,1,3.164,3.193V225.279a3.182,3.182,0,0,1-3.164,3.193V230A4.7,4.7,0,0,0,352,225.279V4.721A4.7,4.7,0,0,0,347.322,0H4.678A4.7,4.7,0,0,0,0,4.721V225.279A4.7,4.7,0,0,0,4.678,230H347.322v-.764"
            transform="translate(293 92)" fill="#8087b5"/>
      <path id="Fill_89" data-name="Fill 89" d="M0,1H352V0H0Z" transform="translate(293 121)" fill="#8087b5"/>
      <path id="Fill_90" data-name="Fill 90"
            d="M248.972,14H6.027C2.7,14,0,10.866,0,7S2.7,0,6.027,0H248.972C252.3,0,255,3.134,255,7s-2.7,7-6.028,7"
            transform="translate(352 100)" fill="#e6e6ee"/>
      <path id="Fill_91" data-name="Fill 91" d="M8,4A4,4,0,1,1,4,0,4,4,0,0,1,8,4" transform="translate(303 104)"
            fill="#fffffe"/>
      <path id="Fill_92" data-name="Fill 92"
            d="M8.138,4.5H7.276A2.776,2.776,0,1,1,4.5,1.724,2.781,2.781,0,0,1,7.276,4.5H9A4.5,4.5,0,1,0,4.5,9,4.5,4.5,0,0,0,9,4.5H8.138"
            transform="translate(302 103)" fill="#8087b5"/>
      <path id="Fill_93" data-name="Fill 93" d="M8,4A4,4,0,1,1,4,0,4,4,0,0,1,8,4" transform="translate(317 104)"
            fill="#fffffe"/>
      <path id="Fill_94" data-name="Fill 94"
            d="M8.138,4.5H7.276A2.776,2.776,0,1,1,4.5,1.724,2.782,2.782,0,0,1,7.276,4.5H9A4.5,4.5,0,1,0,4.5,9,4.5,4.5,0,0,0,9,4.5H8.138"
            transform="translate(317 103)" fill="#8087b5"/>
      <path id="Fill_95" data-name="Fill 95"
            d="M7,4A3.776,3.776,0,0,1,3.5,8,3.776,3.776,0,0,1,0,4,3.775,3.775,0,0,1,3.5,0,3.775,3.775,0,0,1,7,4"
            transform="translate(333 104)" fill="#fffffe"/>
      <path id="Fill_96" data-name="Fill 96"
            d="M7.234,4.5H6.468A2.641,2.641,0,0,1,4,7.276,2.639,2.639,0,0,1,1.532,4.5,2.638,2.638,0,0,1,4,1.724,2.641,2.641,0,0,1,6.468,4.5H8A4.272,4.272,0,0,0,4,0,4.27,4.27,0,0,0,0,4.5,4.273,4.273,0,0,0,4,9,4.275,4.275,0,0,0,8,4.5H7.234"
            transform="translate(333 103)" fill="#8087b5"/>
      <path id="Fill_97" data-name="Fill 97"
            d="M211.364,28.829V27.659H14.636A12.157,12.157,0,0,1,5.9,23.951a12.88,12.88,0,0,1,0-17.9,12.163,12.163,0,0,1,8.734-3.708H211.364A12.163,12.163,0,0,1,220.1,6.049a12.88,12.88,0,0,1,0,17.9,12.157,12.157,0,0,1-8.734,3.708V30A14.823,14.823,0,0,0,226,15,14.823,14.823,0,0,0,211.364,0H14.636A14.823,14.823,0,0,0,0,15,14.823,14.823,0,0,0,14.636,30H211.364V28.829"
            transform="translate(356 175)" fill="#476ca6"/>
      <path id="Fill_98" data-name="Fill 98"
            d="M23.184,0H0V28H23.184A13.908,13.908,0,0,0,37,14,13.908,13.908,0,0,0,23.184,0"
            transform="translate(542 176)" fill="#476ca6"/>
      <path id="Fill_99" data-name="Fill 99"
            d="M14.58,17a1.4,1.4,0,0,1-1-.422l-4.235-4.31a6.311,6.311,0,0,1-2.947.74A6.457,6.457,0,0,1,0,6.5,6.457,6.457,0,0,1,6.394,0a6.457,6.457,0,0,1,6.394,6.5,6.615,6.615,0,0,1-1.273,3.89l4.071,4.142a1.465,1.465,0,0,1,0,2.043A1.4,1.4,0,0,1,14.58,17ZM6.223,1.789a4.474,4.474,0,1,0,4.444,4.474A4.465,4.465,0,0,0,6.223,1.789Z"
            transform="translate(554 182)" fill="#fffffe"/>
      <path id="Fill_100" data-name="Fill 100" d="M0,10H156V0H0Z" transform="translate(390 369)" fill="#b4b9d3"/>
      <path id="Fill_101" data-name="Fill 101" d="M0,2H38V0H0Z" transform="translate(405 230)" fill="#476ca6"/>
      <path id="Fill_102" data-name="Fill 102" d="M0,2H52V0H0Z" transform="translate(473 230)" fill="#476ca6"/>
      <path id="Fill_103" data-name="Fill 103" d="M0,.5H0" transform="translate(575 133)" fill="#fffffe"/>
      <path id="Fill_104" data-name="Fill 104" d="M0,1H15V0H0Z" transform="translate(575 133)" fill="#8087b5"/>
      <path id="Fill_105" data-name="Fill 105" d="M0,.5H0" transform="translate(595 133)" fill="#fffffe"/>
      <path id="Fill_106" data-name="Fill 106" d="M0,1H15V0H0Z" transform="translate(595 133)" fill="#8087b5"/>
      <path id="Fill_107" data-name="Fill 107"
            d="M11,5a5.269,5.269,0,0,1-5.5,5A5.268,5.268,0,0,1,0,5,5.267,5.267,0,0,1,5.5,0,5.268,5.268,0,0,1,11,5"
            transform="translate(624 128)" fill="#f8f7f9"/>
      <path id="Fill_108" data-name="Fill 108" d="M2,1A1,1,0,1,1,1,0,1,1,0,0,1,2,1" transform="translate(633 101)"
            fill="#8087b5"/>
      <path id="Fill_109" data-name="Fill 109" d="M2,1A1,1,0,1,1,1,0,1,1,0,0,1,2,1" transform="translate(633 107)"
            fill="#8087b5"/>
      <path id="Fill_110" data-name="Fill 110" d="M2,.5C2,.776,1.552,1,1,1S0,.776,0,.5.448,0,1,0,2,.223,2,.5"
            transform="translate(633 112)" fill="#8087b5"/>
      <path id="Fill_111" data-name="Fill 111" d="M0,1H79V0H0Z" transform="translate(447 369)" fill="#8087b5"/>
      <path id="Fill_112" data-name="Fill 112" d="M0,1H25V0H0Z" transform="translate(413 369)" fill="#8087b5"/>
      <path id="Fill_113" data-name="Fill 113"
            d="M189.359,21H5.641A5.6,5.6,0,0,1,0,15.449v-.667H177.974v0a6.357,6.357,0,0,0,6.407-6.305V0H195V15.449A5.6,5.6,0,0,1,189.359,21"
            transform="translate(315 277)" fill="#f8f7f9"/>
      <path id="Fill_114" data-name="Fill 114"
            d="M188.388,136H5.611A5.589,5.589,0,0,1,0,130.431V5.569A5.589,5.589,0,0,1,5.611,0H188.388A5.591,5.591,0,0,1,194,5.569V130.431A5.591,5.591,0,0,1,188.388,136"
            transform="translate(305 155)" fill="#fffffe"/>
      <path id="Fill_115" data-name="Fill 115"
            d="M189.61,137.241v-.759H6.388a4.853,4.853,0,0,1-4.862-4.83V6.348a4.853,4.853,0,0,1,4.862-4.83H189.61a4.852,4.852,0,0,1,4.862,4.83v125.3a4.851,4.851,0,0,1-4.862,4.83V138a6.369,6.369,0,0,0,6.39-6.348V6.348A6.37,6.37,0,0,0,189.61,0H6.388A6.367,6.367,0,0,0,0,6.348v125.3A6.367,6.367,0,0,0,6.388,138H189.61v-.759"
            transform="translate(304 153)" fill="#8087b5"/>
      <path id="Fill_116" data-name="Fill 116"
            d="M188.687,0H5.312A5.294,5.294,0,0,0,0,5.276V14H194V5.276A5.3,5.3,0,0,0,188.687,0"
            transform="translate(305 156)" fill="#8087b5"/>
      <path id="Fill_117" data-name="Fill 117"
            d="M156.383,7H2.616C1.172,7,0,5.433,0,3.5S1.172,0,2.616,0H156.383C157.828,0,159,1.567,159,3.5S157.828,7,156.383,7"
            transform="translate(321 246)" fill="#f8f7f9"/>
      <path id="Fill_118" data-name="Fill 118"
            d="M156.383,7H2.616C1.172,7,0,5.432,0,3.5S1.172,0,2.616,0H156.383C157.828,0,159,1.568,159,3.5S157.828,7,156.383,7"
            transform="translate(321 256)" fill="#f8f7f9"/>
      <path id="Fill_119" data-name="Fill 119"
            d="M156.383,7H2.616C1.172,7,0,5.434,0,3.5S1.172,0,2.616,0H156.383C157.828,0,159,1.568,159,3.5S157.828,7,156.383,7"
            transform="translate(321 264)" fill="#f8f7f9"/>
      <path id="Fill_120" data-name="Fill 120"
            d="M156.383,7H2.616C1.172,7,0,5.432,0,3.5S1.172,0,2.616,0H156.383C157.828,0,159,1.566,159,3.5S157.828,7,156.383,7"
            transform="translate(321 274)" fill="#f8f7f9"/>
      <path id="Fill_121" data-name="Fill 121"
            d="M156.383,6H2.616A2.828,2.828,0,0,1,0,3,2.828,2.828,0,0,1,2.616,0H156.383A2.828,2.828,0,0,1,159,3a2.828,2.828,0,0,1-2.617,3"
            transform="translate(321 237)" fill="#f8f7f9"/>
      <path id="Fill_122" data-name="Fill 122" d="M0,20V0A20.485,20.485,0,0,1,17,8.944L0,20"
            transform="translate(343 179)" fill="#c7cbdd"/>
      <path id="Fill_123-2" data-name="Fill 123"
            d="M39.413,9.393,21.5,21V0A21.255,21.255,0,0,0,0,21,21.255,21.255,0,0,0,21.5,42,21.255,21.255,0,0,0,43,21,20.554,20.554,0,0,0,39.413,9.393"
            transform="translate(319 181)" fill="#e6e6ee"/>
      <path id="Fill_124-2" data-name="Fill 124"
            d="M17.274,0V21L0,33.7A21.935,21.935,0,0,0,17.274,42C29.273,42,39,32.6,39,21S29.273,0,17.274,0"
            transform="translate(445 181)" fill="#e6e6ee"/>
      <path id="Fill_125-2" data-name="Fill 125"
            d="M15.844,33A20.728,20.728,0,0,0,20,20.515,20.262,20.262,0,0,0,0,0V20.515L15.844,33"
            transform="translate(401 180)" fill="#b4b9d3"/>
      <path id="Fill_126-2" data-name="Fill 126"
            d="M38,33.781,21.2,21V0a21,21,0,1,0,0,42A21.216,21.216,0,0,0,38,33.779v0" transform="translate(378 181)"
            fill="#e6e6ee"/>
      <path id="Fill_127-2" data-name="Fill 127"
            d="M0,20.564A20.167,20.167,0,0,0,4.306,33L21,20.564V0A20.785,20.785,0,0,0,0,20.564"
            transform="translate(439 180)" fill="#b4b9d3"/>
      <path id="Fill_128-2" data-name="Fill 128"
            d="M205.868,157H87.522V113.641h22.936a6.5,6.5,0,0,0,0-12.994H87.522V84.97h56.636a14.434,14.434,0,0,0,10.3-4.292,14.708,14.708,0,0,0,0-20.719,14.434,14.434,0,0,0-10.3-4.292H87.522V46.8a5.6,5.6,0,0,0-5.579-5.611H77.02V39.758a6.365,6.365,0,0,0-6.337-6.374H0V6.439A6.135,6.135,0,0,1,1.864,2.012H210.136A6.129,6.129,0,0,1,212,6.439V8.854a4.868,4.868,0,1,0,0,6.564V150.832A6.157,6.157,0,0,1,205.868,157Zm-7-142.776V16.1h1.876V14.224Zm-2.814,0V16.1h1.876V14.224Zm-2.814,0V16.1h1.876V14.224Zm5.629-2.819v1.879h1.876V11.4Zm-2.814,0v1.879h1.876V11.4Zm-2.814,0v1.879h1.876V11.4Zm-18.761,0v1.879h14.072V11.4Zm-21.575,0v1.879h14.071V11.4Zm45.965-2.818v1.879h1.876V8.587Zm-2.814,0v1.879h1.876V8.587Zm-2.814,0v1.879h1.876V8.587Zm-72.23,74.207H87.239V58.371h33.77V82.793ZM207.31.266H4.69A4.987,4.987,0,0,1,6.3,0H205.7a4.986,4.986,0,0,1,1.6.264h.006Z"
            transform="translate(422 120)" fill="#f8f7f9"/>
      <path id="Fill_129-2" data-name="Fill 129" d="M209,1H0A7.373,7.373,0,0,1,2.665,0H206.335A7.373,7.373,0,0,1,209,1"
            transform="translate(423 121)" fill="#7a81b1"/>
      <path id="Fill_130-2" data-name="Fill 130"
            d="M57.271,30h0V28.83a13.372,13.372,0,0,0,9.6-4.051,14.009,14.009,0,0,0,0-19.558,13.371,13.371,0,0,0-9.6-4.05H34.48v1.17H0V0H57.27A14.505,14.505,0,0,1,67.685,4.394a15.191,15.191,0,0,1,0,21.212A14.5,14.5,0,0,1,57.271,30Zm-.428,0H0V28.125H34.222v.938h22.62V30Z"
            transform="translate(509 175)" fill="#466aa4"/>
      <path id="Fill_131-2" data-name="Fill 131"
            d="M23.184,28H0V0H23.184a13.635,13.635,0,0,1,9.77,4.1,14.133,14.133,0,0,1,0,19.8A13.635,13.635,0,0,1,23.184,28Zm-3.172-9.862h0l4.771,4.732a1.611,1.611,0,0,0,2.262,0,1.578,1.578,0,0,0,0-2.243L22.46,16.078a7.213,7.213,0,1,0-5.769,2.871,7.269,7.269,0,0,0,3.32-.811ZM16.6,16.8a5.134,5.134,0,1,1,5.217-5.134A5.182,5.182,0,0,1,16.6,16.8Z"
            transform="translate(542 176)" fill="#466aa4"/>
      <path id="Fill_132-2" data-name="Fill 132"
            d="M14.58,17a1.4,1.4,0,0,1-1-.422l-4.235-4.31a6.311,6.311,0,0,1-2.947.74A6.457,6.457,0,0,1,0,6.5,6.457,6.457,0,0,1,6.394,0a6.457,6.457,0,0,1,6.394,6.5,6.615,6.615,0,0,1-1.273,3.89l4.071,4.142a1.465,1.465,0,0,1,0,2.043A1.4,1.4,0,0,1,14.58,17ZM6.223,1.789a4.474,4.474,0,1,0,4.444,4.474A4.465,4.465,0,0,0,6.223,1.789Z"
            transform="translate(554 182)" fill="#f8f7f9"/>
      <path id="Fill_133-2" data-name="Fill 133"
            d="M22.627,14H0V9.981H15.109V7.517H0V0H22.627C26.147,0,29,3.134,29,7s-2.853,7-6.373,7"
            transform="translate(509 222)" fill="#dfe6ee"/>
      <path id="Fill_134-2" data-name="Fill 134" d="M0,2H15V0H0Z" transform="translate(511 230)" fill="#466aa4"/>
      <path id="Fill_135" data-name="Fill 135" d="M0,1H15V0H0Z" transform="translate(575 133)" fill="#7a81b1"/>
      <path id="Fill_136" data-name="Fill 136" d="M0,1H15V0H0Z" transform="translate(595 133)" fill="#7a81b1"/>
      <path id="Fill_137" data-name="Fill 137" d="M0,2H2V0H0Z" transform="translate(615 129)" fill="#f0eff4"/>
      <path id="Fill_138" data-name="Fill 138" d="M0,2H2V0H0Z" transform="translate(618 129)" fill="#f0eff4"/>
      <path id="Fill_139" data-name="Fill 139" d="M0,2H2V0H0Z" transform="translate(622 129)" fill="#f0eff4"/>
      <path id="Fill_140" data-name="Fill 140" d="M0,2H2V0H0Z" transform="translate(615 133)" fill="#f0eff4"/>
      <path id="Fill_141" data-name="Fill 141" d="M0,2H2V0H0Z" transform="translate(618 133)" fill="#f0eff4"/>
      <path id="Fill_142" data-name="Fill 142" d="M0,2H2V0H0Z" transform="translate(622 133)" fill="#f0eff4"/>
      <path id="Fill_143" data-name="Fill 143" d="M0,2H2V0H0Z" transform="translate(615 136)" fill="#f0eff4"/>
      <path id="Fill_144" data-name="Fill 144" d="M0,2H2V0H0Z" transform="translate(618 136)" fill="#f0eff4"/>
      <path id="Fill_145" data-name="Fill 145" d="M0,2H2V0H0Z" transform="translate(622 136)" fill="#f0eff4"/>
      <path id="Fill_146" data-name="Fill 146"
            d="M5.177,10A5.091,5.091,0,0,1,0,5,5.09,5.09,0,0,1,5.177,0,5.248,5.248,0,0,1,9,1.629V8.371A5.248,5.248,0,0,1,5.177,10"
            transform="translate(625 128)" fill="#ececf2"/>
      <path id="Fill_147" data-name="Fill 147" d="M0,43H11V0H0Z" transform="translate(499 234)" fill="#ececf2"/>
      <path id="Fill_148" data-name="Fill 148" d="M0,3H11V0H0Z" transform="translate(499 231)" fill="#d5dce8"/>
      <path id="Fill_149" data-name="Fill 149"
            d="M11,59H0V43.079H11V59Zm0-17.794H0V16.857H11V41.206Zm0-27.159H0V0H5.156A5.662,5.662,0,0,1,11,5.446v8.6Z"
            transform="translate(499 162)" fill="#ececf2"/>
      <path id="Fill_150" data-name="Fill 150" d="M11,30H0V28.125H11V30ZM11,1.875H0V0H11V1.874Z"
            transform="translate(499 175)" fill="#4567a3"/>
      <path id="Fill_151" data-name="Fill 151" d="M0,8H11V0H0Z" transform="translate(499 222)" fill="#d5dce8"/>
      <path id="Fill_152" data-name="Fill 152" d="M0,2H11V0H0Z" transform="translate(499 230)" fill="#4567a3"/>
      <path id="Fill_153" data-name="Fill 153"
            d="M76,108H59.978a2.6,2.6,0,0,0-2.489-3.418H.634A6.031,6.031,0,0,1,0,101.876V100.74H57.489a2.6,2.6,0,1,0,0-5.2H0V91.7H57.489a2.6,2.6,0,1,0,0-5.2H0V82.644H57.489a2.6,2.6,0,1,0,0-5.2H0V73.586H57.489a2.6,2.6,0,1,0,0-5.2H0V0H76ZM41.018,12.1V33.051L24.4,45.722a21.2,21.2,0,0,0,7.2,6.022,20.87,20.87,0,0,0,17.563.61A20.948,20.948,0,0,0,41.018,12.1Zm-2.55-.931a20.306,20.306,0,0,0-8.035,1.641,20.56,20.56,0,0,0-6.561,4.476,21.018,21.018,0,0,0-1.813,27.4L38.469,32.058Z"
            transform="translate(421 169)" fill="#f8f7f9"/>
      <path id="Fill_154" data-name="Fill 154"
            d="M76,124H74.5V14.9h.748V6.092A5.271,5.271,0,0,0,70.04.765H0V0H69.747A6.326,6.326,0,0,1,76,6.394V124"
            transform="translate(422 153)" fill="#7a81b1"/>
      <path id="Fill_155" data-name="Fill 155" d="M76,14H0V0H70.736A5.27,5.27,0,0,1,76,5.276V14"
            transform="translate(422 156)" fill="#7a81b1"/>
      <path id="Fill_156" data-name="Fill 156" d="M58.34,7H0V0H58.34C59.809,0,61,1.567,61,3.5S59.809,7,58.34,7"
            transform="translate(421 246)" fill="#ececf2"/>
      <path id="Fill_157" data-name="Fill 157" d="M58.34,7H0V0H58.34C59.809,0,61,1.568,61,3.5S59.809,7,58.34,7"
            transform="translate(421 256)" fill="#ececf2"/>
      <path id="Fill_158" data-name="Fill 158" d="M58.34,7H0V0H58.34C59.809,0,61,1.568,61,3.5S59.809,7,58.34,7"
            transform="translate(421 264)" fill="#ececf2"/>
      <path id="Fill_159" data-name="Fill 159"
            d="M59.866,3H5.587A6.382,6.382,0,0,1,0,0H57.356A2.482,2.482,0,0,1,60,2.281,2.011,2.011,0,0,1,59.866,3"
            transform="translate(421 274)" fill="#ececf2"/>
      <path id="Fill_160" data-name="Fill 160" d="M58.34,6H0V0H58.34A2.845,2.845,0,0,1,61,3a2.845,2.845,0,0,1-2.66,3"
            transform="translate(421 237)" fill="#ececf2"/>
      <path id="Fill_161" data-name="Fill 161"
            d="M17.274,42A21.935,21.935,0,0,1,0,33.7L17.274,21V0C29.273,0,39,9.4,39,21S29.273,42,17.274,42"
            transform="translate(445 181)" fill="#dbdce7"/>
      <path id="Fill_162" data-name="Fill 162"
            d="M4.306,33A20.167,20.167,0,0,1,0,20.564,20.785,20.785,0,0,1,21,0V20.564L4.306,33"
            transform="translate(439 180)" fill="#adb2cf"/>
      <path id="Fill_163" data-name="Fill 163"
            d="M204.9,156H6.1A6.123,6.123,0,0,1,0,149.861V6.139A6.122,6.122,0,0,1,6.1,0H204.9A6.122,6.122,0,0,1,211,6.139V149.861A6.123,6.123,0,0,1,204.9,156"
            transform="translate(412 112)" fill="#fffffe"/>
      <path id="Fill_164" data-name="Fill 164"
            d="M206.126,156.244v-.756H6.874a5.371,5.371,0,0,1-5.362-5.363V6.875A5.371,5.371,0,0,1,6.874,1.512H206.126a5.371,5.371,0,0,1,5.362,5.363V150.125a5.371,5.371,0,0,1-5.362,5.363V157A6.876,6.876,0,0,0,213,150.125V6.875A6.876,6.876,0,0,0,206.126,0H6.874A6.875,6.875,0,0,0,0,6.875V150.125A6.875,6.875,0,0,0,6.874,157H206.126v-.756"
            transform="translate(411 112)" fill="#8087b5"/>
      <path id="Fill_165" data-name="Fill 165"
            d="M205.222,0H5.778A5.717,5.717,0,0,0,0,5.653V15H211V5.653A5.717,5.717,0,0,0,205.222,0"
            transform="translate(412 114)" fill="#8087b5"/>
      <path id="Fill_166" data-name="Fill 166" d="M0,10H15V0H0Z" transform="translate(573 158)" fill="#d2d5e2"/>
      <path id="Fill_167" data-name="Fill 167" d="M0,1H11V0H0Z" transform="translate(592 158)" fill="#d2d5e2"/>
      <path id="Fill_168" data-name="Fill 168" d="M0,1H20V0H0Z" transform="translate(594 168)" fill="#d2d5e2"/>
      <path id="Fill_169" data-name="Fill 169" d="M0,1H20V0H0Z" transform="translate(594 164)" fill="#d2d5e2"/>
      <path id="Fill_170" data-name="Fill 170" d="M0,1H20V0H0Z" transform="translate(594 161)" fill="#d2d5e2"/>
      <path id="Fill_171" data-name="Fill 171" d="M0,10H15V0H0Z" transform="translate(573 179)" fill="#d2d5e2"/>
      <path id="Fill_172" data-name="Fill 172" d="M0,1H11V0H0Z" transform="translate(592 178)" fill="#d2d5e2"/>
      <path id="Fill_173" data-name="Fill 173" d="M0,1H20V0H0Z" transform="translate(594 188)" fill="#d2d5e2"/>
      <path id="Fill_174" data-name="Fill 174" d="M0,1H20V0H0Z" transform="translate(594 184)" fill="#d2d5e2"/>
      <path id="Fill_175" data-name="Fill 175" d="M0,1H20V0H0Z" transform="translate(594 181)" fill="#d2d5e2"/>
      <path id="Fill_176" data-name="Fill 176" d="M0,11H15V0H0Z" transform="translate(573 199)" fill="#d2d5e2"/>
      <path id="Fill_177" data-name="Fill 177" d="M0,1H11V0H0Z" transform="translate(592 199)" fill="#d2d5e2"/>
      <path id="Fill_178" data-name="Fill 178" d="M0,1H20V0H0Z" transform="translate(594 210)" fill="#d2d5e2"/>
      <path id="Fill_179" data-name="Fill 179" d="M0,1H20V0H0Z" transform="translate(594 205)" fill="#d2d5e2"/>
      <path id="Fill_180" data-name="Fill 180" d="M0,1H20V0H0Z" transform="translate(594 202)" fill="#d2d5e2"/>
      <path id="Fill_181" data-name="Fill 181" d="M0,11H15V0H0Z" transform="translate(573 221)" fill="#d2d5e2"/>
      <path id="Fill_182" data-name="Fill 182" d="M0,1H11V0H0Z" transform="translate(592 220)" fill="#d2d5e2"/>
      <path id="Fill_183" data-name="Fill 183" d="M0,1H20V0H0Z" transform="translate(594 230)" fill="#d2d5e2"/>
      <path id="Fill_184" data-name="Fill 184" d="M0,1H20V0H0Z" transform="translate(594 227)" fill="#d2d5e2"/>
      <path id="Fill_185" data-name="Fill 185" d="M0,1H20V0H0Z" transform="translate(594 223)" fill="#d2d5e2"/>
      <path id="Fill_186" data-name="Fill 186" d="M0,11H15V0H0Z" transform="translate(573 241)" fill="#d2d5e2"/>
      <path id="Fill_187" data-name="Fill 187" d="M0,1H11V0H0Z" transform="translate(592 241)" fill="#d2d5e2"/>
      <path id="Fill_188" data-name="Fill 188" d="M0,1H20V0H0Z" transform="translate(594 252)" fill="#d2d5e2"/>
      <path id="Fill_189" data-name="Fill 189" d="M0,1H20V0H0Z" transform="translate(594 248)" fill="#d2d5e2"/>
      <path id="Fill_190" data-name="Fill 190" d="M0,1H20V0H0Z" transform="translate(594 244)" fill="#d2d5e2"/>
      <path id="Fill_191" data-name="Fill 191" d="M0,3H124V0H0Z" transform="translate(454 138)" fill="#f8f7f9"/>
      <path id="Fill_192" data-name="Fill 192" d="M0,3H91V0H0Z" transform="translate(471 146)" fill="#f8f7f9"/>
      <path id="Fill_193" data-name="Fill 193" d="M0,7.9V62H11V0L0,7.9" transform="translate(472 189)" fill="#b4b9d3"/>
      <path id="Fill_194" data-name="Fill 194" d="M5,3.824,0,.459V46H10V0L5,3.824" transform="translate(453 204)"
            fill="#b4b9d3"/>
      <path id="Fill_195" data-name="Fill 195" d="M5,0,0,3.383V55H10V3.394L5,0" transform="translate(435 195)"
            fill="#b4b9d3"/>
      <path id="Fill_196" data-name="Fill 196" d="M0,6.367V72H10V0L0,6.367" transform="translate(530 179)"
            fill="#b4b9d3"/>
      <path id="Fill_197" data-name="Fill 197" d="M5.5,0,0,3.917V72H11V3.913L5.5,0" transform="translate(492 179)"
            fill="#b4b9d3"/>
      <path id="Fill_198" data-name="Fill 198" d="M5,3.942,0,0V62H10V.708L5,3.942" transform="translate(512 189)"
            fill="#b4b9d3"/>
      <path id="Fill_199" data-name="Fill 199" d="M0,0V56H142V54.5H1.515V0H0" transform="translate(419 194)"
            fill="#d2d5e2"/>
      <path id="Fill_200" data-name="Fill 200" d="M1.132,3,3.5,1.719,5.868,3,7,1.893,3.5,0,0,1.893,1.132,3"
            transform="translate(418 193)" fill="#d2d5e2"/>
      <path id="Fill_201" data-name="Fill 201" d="M0,1.293,1.5,2.5,0,3.706.89,5,4,2.5.89,0,0,1.293"
            transform="translate(562 248)" fill="#d2d5e2"/>
      <path id="Fill_202" data-name="Fill 202"
            d="M.821,36.407l14.261-9.436L34.714,40,73.9,10.45,93.459,25.185,132,1.359,131.219,0,93.542,23.292,73.9,8.494,34.659,38.086,15.083,25.1,0,35.072l.821,1.335"
            transform="translate(423 165)" fill="#d2d5e2"/>
      <path id="Fill_203" data-name="Fill 203" d="M0,1.917l4.629.8L3.4,7.506,5.24,8,7,1.151.316,0,0,1.917"
            transform="translate(550 164)" fill="#d2d5e2"/>
      <path id="Fill_204" data-name="Fill 204" d="M0,1H10V0H0Z" transform="translate(435 258)" fill="#d2d5e2"/>
      <path id="Fill_205" data-name="Fill 205" d="M0,1H10V0H0Z" transform="translate(453 258)" fill="#d2d5e2"/>
      <path id="Fill_206" data-name="Fill 206" d="M0,1H11V0H0Z" transform="translate(472 258)" fill="#d2d5e2"/>
      <path id="Fill_207" data-name="Fill 207" d="M0,1H11V0H0Z" transform="translate(492 258)" fill="#d2d5e2"/>
      <path id="Fill_208" data-name="Fill 208" d="M0,1H10V0H0Z" transform="translate(512 258)" fill="#d2d5e2"/>
      <path id="Fill_209" data-name="Fill 209" d="M0,1H10V0H0Z" transform="translate(531 258)" fill="#d2d5e2"/>
      <path id="Fill_230" data-name="Fill 230"
            d="M31.238,16h-.762a14.476,14.476,0,1,1-4.24-10.236A14.433,14.433,0,0,1,30.476,16H32A16,16,0,1,0,16,32,16,16,0,0,0,32,16h-.762"
            transform="translate(765 119)" fill="#cbccdd"/>
      <path id="Fill_232" data-name="Fill 232"
            d="M58.359.936S3.543-4.331.241,10.123C-4.758,32,69.6,32,69.6,32L76,17.308,45.528,5.532"
            transform="translate(307 348)" fill="#272857"/>
      <path id="Fill_233" data-name="Fill 233" d="M20,14,4.952,13.4s-2.4-.843-3.923-5.814S.123,2.167.123,2.167L17.663,0"
            transform="translate(342 370)" fill="#f5c6b6"/>
      <path id="Fill_234" data-name="Fill 234"
            d="M28.273,0S69.69,2.593,67.946,22.059,4.459,39.971,4.459,39.971L0,20.649s31.909-7.241,45.427-7.241"
            transform="translate(352 347)" fill="#272857"/>
      <path id="Fill_235" data-name="Fill 235" d="M41.612,0,74,16.1S49.807,29.069,26.67,23.7,0,8.515,0,8.515L41.612,0"
            transform="translate(339 345)" fill="#272857"/>
      <path id="Fill_236" data-name="Fill 236"
            d="M19.039,0a2.021,2.021,0,0,0,.292,1.451c.454.537,1.42-.273,2.467.968.969,1.149,1.462,6.02,1.065,6.978s-1.3.824-1.246,1.422A2.473,2.473,0,0,0,23,12.668s-3.175.537-7.349.892c-7.433.635-9.675.535-12.4,0C1.026,13.126-1.6,8.228,1.236,4.872,5.49-.172,14.791.167,14.791.167L19.039,0"
            transform="translate(328 371)" fill="#0e0f25"/>
      <path id="Fill_237" data-name="Fill 237"
            d="M.412,13s.451-.167,1.277-.466C7.462,10.451,31.591,2.051,46,1.138L45.924,0C37.5.54,26.052,3.525,16.671,6.372S.008,11.93,0,11.933L.412,13"
            transform="translate(352 356)" fill="#334589"/>
      <path id="Fill_238" data-name="Fill 238"
            d="M37,14.017c-.011-.006-5.6-3.245-13-6.616S7.4.522.085,0L0,1.142c7.017.488,16.157,3.948,23.5,7.3,3.671,1.672,6.9,3.314,9.209,4.538,1.154.611,2.077,1.117,2.712,1.472s.978.551.98.553l.6-.983"
            transform="translate(322 351)" fill="#334589"/>
      <path id="Fill_239" data-name="Fill 239"
            d="M2.167.263s-4.312,9.9-.769,13.211c1.841,1.723,7.392,2.122,9.8.5C12.98,12.764,15.765,5.142,14.8,3.779,11.127-1.431,2.167.263,2.167.263"
            transform="translate(367 276)" fill="#f5c6b6"/>
      <path id="Fill_240" data-name="Fill 240" d="M13.225,0,14,10.777s-7.693,5.418-14-.662L1.338,3.1,13.225,0"
            transform="translate(369 286)" fill="#f5c6b6"/>
      <path id="Fill_241" data-name="Fill 241"
            d="M19.837,13.4c.507-2.1,1.967-5.5.583-6.823-.522-.5-1.22-.826-1.733-1.333a7.33,7.33,0,0,1-1.142-1.763A7.315,7.315,0,0,0,15.129.741,4.416,4.416,0,0,0,11.437.2,8.329,8.329,0,0,1,10.1.675,4.868,4.868,0,0,1,8.437.517a10,10,0,0,0-4.445.19A5.375,5.375,0,0,0,.118,3.822,2.857,2.857,0,0,0,2.554,7.473c.85.036,1.793-.317,2.5.119a3.672,3.672,0,0,1,.6.55,3.473,3.473,0,0,0,3.487.714c1.516-.55,2.269-.8,2.531.885A3.564,3.564,0,0,0,14.1,12.469a7.815,7.815,0,0,1,2.246.734,1.637,1.637,0,0,1,.507,2.053,5.305,5.305,0,0,0-.432.749c-.253.752.441,1.466,1.074,1.995a8.6,8.6,0,0,0,2.338-4.6"
            transform="translate(364 270)" fill="#0e0f25"/>
      <path id="Fill_242" data-name="Fill 242"
            d="M.711.974C1.536-.281,2.312-.166,2.787.438c.635.8-.3,2.685-.789,3.036-.986.712-1.838.726-2-.1"
            transform="translate(380 284)" fill="#f5c6b6"/>
      <path id="Fill_243" data-name="Fill 243"
            d="M0,1.846A12.389,12.389,0,0,0,1.962,2,14.667,14.667,0,0,0,8,.669L7.257,0,7.239.009A13.2,13.2,0,0,1,1.962,1.165a10.591,10.591,0,0,1-1.674-.13L0,1.846"
            transform="translate(370 290)" fill="#db806b"/>
      <path id="Fill_244" data-name="Fill 244"
            d="M36.706,0S27.494,2.262,23.994,17.014c-2.029,8.555-4.314,17.238-4.314,17.238S4.847,35.86,0,37.317l1.817,8.2s28.63,2.443,34.936-3.7,3.725-22.4,3.725-22.4"
            transform="translate(321 298)" fill="#983be9"/>
      <path id="Fill_245" data-name="Fill 245"
            d="M11.959,1.989,21.767.636l2.233.5S6.765,51,6.385,51,0,49.987,0,49.987L4.471.861,6.57,0l5.388,1.989"
            transform="translate(361 298)" fill="#fffffe"/>
      <path id="Fill_246" data-name="Fill 246"
            d="M10.254,0,9.236,2.318S1.049,17.233,1.049,20.788-.268,45.38.049,45.38s5.9.62,5.9.62l5.789-22.357L12,2.318"
            transform="translate(362 301)" fill="#272857"/>
      <path id="Fill_247" data-name="Fill 247"
            d="M.127.6c-.471.47.485,5.439,1.045,6A3.845,3.845,0,0,0,4.6,6.6c.522-.522,3.061-5.169,2.231-6S.9-.169.127.6"
            transform="translate(369 298)" fill="#272857"/>
      <path id="Fill_248" data-name="Fill 248"
            d="M13.776,35.756C22.726,11.39,32.677.276,32.677.276S43.448,1.312,46.494,6.764c3.809,6.82-.7,16.387-1.637,29.952s-2.019,10.1-2.019,10.1S29.517,52,17.711,52c0,0-13.674-.418-17.19-1.855V30.63C.521,22.069-1.6,8.333,2.7,2.99,4.591.643,13.045,0,13.045,0l.731,35.756"
            transform="translate(353 297)" fill="#983be9"/>
      <path id="Fill_249" data-name="Fill 249"
            d="M3.311,25H46L42.661,1.332A1.616,1.616,0,0,0,41.023,0H1.567A1.5,1.5,0,0,0,.013,1.64L3.311,25"
            transform="translate(316 324)" fill="#8087b5"/>
      <path id="Fill_250" data-name="Fill 250"
            d="M.007,3a3.263,3.263,0,0,0,3.2,3A2.759,2.759,0,0,0,5.993,3a3.264,3.264,0,0,0-3.2-3A2.758,2.758,0,0,0,.007,3"
            transform="translate(335 332)" fill="#b4b9d3"/>
      <path id="Fill_251" data-name="Fill 251"
            d="M14.371,0,5.959,3.588,2.139,0,0,2.025,1.586,7.372,5.859,4.436,8.6,9,16,2.708,14.371,0"
            transform="translate(366 295)" fill="#fffffe"/>
      <path id="Fill_252" data-name="Fill 252"
            d="M20.969,0a82.722,82.722,0,0,0-4.11,18.48l.545.044v-.565H12.05l2.865,4.762.463-.3-.249-.5C15.055,21.957,5.791,26.908,0,41.572L1.011,42a43.844,43.844,0,0,1,9.461-14.931,29.831,29.831,0,0,1,3.7-3.2c.462-.333.83-.573,1.082-.728l.284-.169.089-.051.529-.28-2.139-3.555h3.893l.039-.521s.009-.119.032-.357A83.508,83.508,0,0,1,22,.375L20.969,0"
            transform="translate(365 298)" fill="#7124b4"/>
      <path id="Fill_253" data-name="Fill 253"
            d="M4.244,0a46.65,46.65,0,0,1-1.9,9c-.38,1.236-.741,2.268-1.007,2.989S.905,13.118.905,13.119l-.17.409,2.552,1.793L0,17.134l.192.459s.086.209.241.6c1.084,2.7,5.42,14.14,5.409,21.687a15.8,15.8,0,0,1-.116,1.985L6.876,42A17.009,17.009,0,0,0,7,39.876C7,35.348,5.557,29.7,4.129,25.151S1.27,17.179,1.265,17.168l-.536.212.284.492,4.417-2.437-3.65-2.565-.34.459.538.211A53.783,53.783,0,0,0,5.4.1L4.244,0"
            transform="translate(357 298)" fill="#7124b4"/>
      <path id="Fill_254" data-name="Fill 254"
            d="M16.269.576,9.485,7.027,6.723,1.715,2.633,5.109,1.077,0,0,.424,2.058,7.188,6.38,3.6,9.187,9,17,1.57,16.269.576"
            transform="translate(366 296)" fill="#ed9d9b"/>
      <path id="Fill_255" data-name="Fill 255"
            d="M15,.3C13.136.168,4.706-.275,4.7.252c0,.507,2.78,1.121,2.633,1.373-.206.357-2.372.352-3.585.232C2.667,1.75.913,1.764.808,2.252c-.2.925,5.743,1.432,5.743,1.432-.06.28-6.294-1.8-6.538-1.04C-.339,3.735,6.391,5.372,6.57,5.675c0,0-5.459-3.114-5.718-2.308S5.4,7.082,7.026,7.375c-1.291-.5-4.884-3.445-5.073-2.856S5.006,7.24,5.558,7.43A31.8,31.8,0,0,0,14.522,9"
            transform="translate(344 345)" fill="#f5c6b6"/>
      <path id="Fill_256" data-name="Fill 256" d="M3.386,0,0,.408,1.332,12,6,11.767,3.386,0"
            transform="translate(357 345)" fill="#fffffe"/>
      <path id="Fill_257" data-name="Fill 257"
            d="M27.77,16.783c0,13.584-.77,19.411-.77,19.411A136.764,136.764,0,0,1,0,41.817C.862,47.176,1.728,54,1.728,54s28.948-2,37.241-7.615C47.927,40.321,48.919,4.814,38.483,0"
            transform="translate(359 300)" fill="#983be9"/>
      <path id="Fill_258" data-name="Fill 258"
            d="M.182,28c11.071-1.827,17.378-3.164,20.93-4.047a23.107,23.107,0,0,0,4.43-1.352l.262-.145.037-.3c0-.013,1.158-9.816,1.158-17.781,0-1.553-.043-3.036-.15-4.369L25.7.1c.1,1.289.146,2.744.146,4.273,0,3.926-.287,8.342-.575,11.771-.144,1.714-.287,3.183-.4,4.221s-.179,1.644-.179,1.646l.57.073L25,21.557l.11.211-.1-.215-.008,0,.11.211-.1-.215c-.063.039-3.6,1.75-25.006,5.277L.182,28"
            transform="translate(361 317)" fill="#7124b4"/>
      <path id="Fill_259" data-name="Fill 259" d="M2.254,0,0,11.076s6.349,6.279,13,.435l-.075-7.427L2.254,0"
            transform="translate(236 180)" fill="#f5c6b6"/>
      <path id="Fill_260" data-name="Fill 260"
            d="M10.7.061s6.724,9.968,3.35,13.463C12.3,15.341,6.018,16.985,3.7,15.29,1.984,14.032-.731,6.043.183,4.608,3.675-.88,10.7.061,10.7.061"
            transform="translate(237 171)" fill="#f5c6b6"/>
      <path id="Fill_261" data-name="Fill 261"
            d="M2.688,3.88C3.235.149,6.919-.621,13.772.432c.917.14,2.614-.355,2.967.529.465,1.16.371,3.416-.8,4.328a3.924,3.924,0,0,1-2.246.854c-1.275.187-2.651,1.3-2.1,2.7.145.367.5,1,.219,1.271a3.681,3.681,0,0,1-.782.336c-.519.228-.555,1.008-.287,1.521s.083,1.036.352,1.547c.639,1.211-.416,3.238-1.621,3.834-1.068.527-4.481,1.257-6.8-.266C.656,15.769-.348,12.585.109,7.065c.175-2.117,1.824-3.4,2.579-3.185"
            transform="translate(236 166)" fill="#0e0f25"/>
      <path id="Fill_262" data-name="Fill 262"
            d="M2.278,1.695C1.45-.5.678-.287.208.775c-.626,1.415.317,4.7.8,5.314C2,7.327,2.845,7.343,3,5.891"
            transform="translate(245 174)" fill="#f5c6b6"/>
      <path id="Fill_263" data-name="Fill 263"
            d="M2,2.278A2.518,2.518,0,0,1,.884.973,5.6,5.6,0,0,1,.628.283L.568.07.552,0,0,.207A6.318,6.318,0,0,0,.394,1.366,3.152,3.152,0,0,0,1.817,3L2,2.278"
            transform="translate(247 182)" fill="#db806b"/>
      <path id="Fill_264" data-name="Fill 264" d="M16.482,1.529l-3.4,14.754L25,21,0,17.7,2.139,0"
            transform="translate(214 367)" fill="#f5c6b6"/>
      <path id="Fill_265" data-name="Fill 265"
            d="M15.85.045c.8.285.219.857,1.555,2.529s9.242,4.9,12.97,6.066C33.982,9.768,33.2,13,31.973,13H12.59c-1.424,0-2.459-1.2-3.56-1.2-.3,0-.916-.216-1.089.006A2.416,2.416,0,0,0,7.7,13H1.125A1.007,1.007,0,0,1,0,11.937l.708-9.7S8.737,3.374,11,2.687c.913-.277-.044-1,.339-1.4S15.052-.238,15.85.045"
            transform="translate(212 379)" fill="#0e0f25"/>
      <path id="Fill_266" data-name="Fill 266"
            d="M6.942,13.71C7.944,48.608,0,124,0,124l21.962-.09S34.174,72.2,37.185,46.175C38.98,30.672,39.711,13.188,40,0"
            transform="translate(212 253)" fill="#22234b"/>
      <path id="Fill_267" data-name="Fill 267"
            d="M15.283,0C13.7,12.876,9.883,32.088,6.458,48.069,4.745,56.062,3.131,63.247,1.944,68.436,1.351,71.03.864,73.124.528,74.57S0,76.81,0,76.813L.7,77C.7,76.992,12.83,25.95,16,.1L15.283,0"
            transform="translate(231 298)" fill="#334589"/>
      <path id="Fill_268" data-name="Fill 268" d="M14.5,1l.787,15.284L28,21,1.315,17.7,0,0"
            transform="translate(252 367)" fill="#f5c6b6"/>
      <path id="Fill_269" data-name="Fill 269"
            d="M15.851.045c.8.285.217.857,1.555,2.529s9.24,4.9,12.968,6.066C33.982,9.768,33.2,13,31.973,13H12.59c-1.424,0-2.457-1.2-3.56-1.2-.3,0-.916-.216-1.089.006A2.4,2.4,0,0,0,7.7,13H1.125A1.008,1.008,0,0,1,0,11.937l.708-9.7S8.738,3.374,11,2.687c.913-.277-.044-1,.339-1.4S15.053-.238,15.851.045"
            transform="translate(254 379)" fill="#0e0f25"/>
      <path id="Fill_270" data-name="Fill 270"
            d="M40.011,22.956s2.76,39.264,2.76,58.107S44,134,44,134H21.935S16.466,76.087,4.127,35.849C-.289,21.451-.888,14.969,1.041,7L28.519,0,40.011,22.956"
            transform="translate(227 244)" fill="#22234b"/>
      <path id="Fill_271" data-name="Fill 271"
            d="M0,.111C3.869,26.153,6.178,53.878,7.519,75.09,8.19,85.7,8.619,94.675,8.88,101c.131,3.163.22,5.663.276,7.372S9.236,111,9.236,111l.764-.02C10,110.973,8.5,52.148.755,0L0,.111"
            transform="translate(258 267)" fill="#334589"/>
      <path id="Fill_272" data-name="Fill 272"
            d="M0,.131c1.676,9.861,5.641,15.933,7.791,19.9l.331-.186-.368.092C10.944,33.056,11.59,42.815,14.253,60L15,59.88c-2.658-17.151-3.306-26.936-6.51-40.131l-.036-.094C6.277,15.646,2.4,9.716.744,0L0,.131"
            transform="translate(229 268)" fill="#334589"/>
      <path id="Fill_273" data-name="Fill 273"
            d="M12.851.047A59.316,59.316,0,0,1,5.759.453C4.1.453,2.685.392,1.691.331S.131.209.129.209L0,.7C.016.7,2.372.953,5.759.953A60.441,60.441,0,0,0,13,.538L12.851.047"
            transform="translate(233 274)" fill="#334589"/>
      <path id="Fill_274" data-name="Fill 274"
            d="M4.856.235a15.96,15.96,0,0,1-1.842.1C2.248.331,1.527.29,1,.25S.145.169.144.169L0,.661A28.243,28.243,0,0,0,3.014.831,17.029,17.029,0,0,0,5,.725L4.856.235"
            transform="translate(220 273)" fill="#334589"/>
      <path id="Fill_275" data-name="Fill 275"
            d="M14,8.389S12.561,3.721,9.469,1.558C7.842.42,7.5.872,6.7.438,5.38-.281,4.626-.041,4.069.627c-.353.425-1.347.149-1.864.5-.825.558-.252,1.362-.806,1.6-2.448,1.061.266,3.193.266,3.193S1.117,4.772.107,5.263c-.659.32,1.859,3.6,3.639,5.785C4.66,12.169,5.378,13,5.378,13"
            transform="translate(250 184)" fill="#f5c6b6"/>
      <path id="Fill_276" data-name="Fill 276" d="M9,2.6C8.818,2.414,7.048,0,7.048,0L0,6.586,2.225,8"
            transform="translate(255 188)" fill="#fffffe"/>
      <path id="Fill_277" data-name="Fill 277" d="M2.243,10,0,7.782,8.939,0,11,3.247" transform="translate(254 189)"
            fill="#fffffe"/>
      <path id="Fill_278" data-name="Fill 278"
            d="M34,.326C30.146-.322,25.368-.057,22.047,1.6,8.08,8.566.4,32.33.038,37.971-.908,52.624,15.905,77,15.905,77l9.684-4.625s-10.38-24.883-7.577-32.937S33.963,17.018,33.963,17.018"
            transform="translate(203 190)" fill="#008fff"/>
      <path id="Fill_279" data-name="Fill 279"
            d="M19.16,0S7.625,2.542,3.246,19.189C1.272,26.7,3.4,38.744,2.934,49.1A267.051,267.051,0,0,1,0,78.164c21.313,4.321,52-.341,52-.341s-2.211-16.955-3.04-27.774c-.949-12.347-.737-14.542-.737-24.687,0-22.2-15.692-23.771-15.692-23.771L19.16,0"
            transform="translate(217 190)" fill="#008fff"/>
      <path id="Fill_280" data-name="Fill 280"
            d="M0,3.395A19.984,19.984,0,0,1,1.345.336c2.789-.706,10.87-.4,13.006,1.9.864.929.459,2.178.648,3.767"
            transform="translate(236 188)" fill="#505e9b"/>
      <path id="Fill_281" data-name="Fill 281"
            d="M.6,50C1.757,40.2,2,25.131,2,14.091,2,5.949,1.867,0,1.867,0L1.26.021s.033,1.483.067,3.984.066,6.019.066,10.086c0,11.022-.246,26.086-1.392,35.8L.6,50"
            transform="translate(218 212)" fill="#303e84"/>
      <path id="Fill_282" data-name="Fill 282"
            d="M2.672,20.132S9.723,49.124,25.92,49c15.316-.117,11.185-25.872-11.858-49L0,11.826"
            transform="translate(248 189)" fill="#008fff"/>
      <path id="Fill_283" data-name="Fill 283"
            d="M10,11.386A54.047,54.047,0,0,1,3.548,4.122C2.665,2.959,1.93,1.927,1.415,1.187S.609,0,.609,0L0,.459C.01.472,4.737,7.713,9.524,12L10,11.386"
            transform="translate(255 225)" fill="#303e84"/>
      <path id="Fill_284" data-name="Fill 284"
            d="M0,.576A63.765,63.765,0,0,1,14.453,15.784c1.621,2.349,2.841,4.406,3.656,5.874.408.735.715,1.321.918,1.724s.3.617.3.618l.67-.3C19.985,23.677,13.373,9.444.441,0L0,.576"
            transform="translate(257 195)" fill="#303e84"/>
      <path id="Fill_285" data-name="Fill 285"
            d="M2.71,0C2.327,3.238-.534,12.46.088,12.84s1.678-2.852,2.123-2.456-.794,5.466-.057,5.7c1,.316,1.954-4.936,1.954-4.936s-.718,5.8.238,5.853c.678.038,1.459-4.365,2-6.016-.325,1.853-.446,4.911.259,4.939s1.3-2.961,1.9-5.23c-.225,1.447-.472,4.1.177,4.148S11.377,7.717,13,.9"
            transform="translate(558 109)" fill="#f5c6b6"/>
      <path id="Fill_286" data-name="Fill 286"
            d="M15.552,0c2.507,23.264-6.329,54-6.329,54L.45,51.989S4.021,25.294,0,1.843" transform="translate(559 58)"
            fill="#f5c6b6"/>
      <path id="Fill_287" data-name="Fill 287" d="M7.9,0C16.328,6.046,17,18.9,17,18.9L.916,22S.118,12,0,8.57"
            transform="translate(558 41)" fill="#df4a45"/>
      <path id="Fill_288" data-name="Fill 288"
            d="M3,8.886A44.838,44.838,0,0,0,1.045,0L0,.354s.085.249.227.7A44.1,44.1,0,0,1,1.9,9L3,8.886"
            transform="translate(555 54)" fill="#c32638"/>
      <path id="Fill_289" data-name="Fill 289"
            d="M2,9.867C1.578,4.423.935.012.933,0L0,.246S.159,1.333.37,3.1s.476,4.21.684,6.9L2,9.867"
            transform="translate(575 50)" fill="#c32638"/>
      <path id="Fill_290" data-name="Fill 290"
            d="M76,38.5C76,59.763,58.987,77,38,77S0,59.763,0,38.5,17.013,0,38,0,76,17.237,76,38.5"
            transform="translate(237 56)" fill="#df4a45"/>
      <path id="Fill_291" data-name="Fill 291" d="M55,27.5A27.5,27.5,0,1,1,27.5,0,27.5,27.5,0,0,1,55,27.5"
            transform="translate(250 66)" fill="#fffffe"/>
      <path id="Fill_292" data-name="Fill 292" d="M39,19.5A19.5,19.5,0,1,1,19.5,0,19.5,19.5,0,0,1,39,19.5"
            transform="translate(257 75)" fill="#df4a45"/>
      <path id="Fill_293" data-name="Fill 293" d="M20,10A10,10,0,1,1,10,0,10,10,0,0,1,20,10"
            transform="translate(266 85)" fill="#fffffe"/>
      <path id="Fill_294" data-name="Fill 294" d="M8,8H0L8,0V8" transform="translate(272 88)" fill="#2b3b82"/>
      <path id="Fill_295" data-name="Fill 295" d="M8,8H0V5.983H5.983V0H8V8" transform="translate(229 47)"
            fill="#2b3b82"/>
      <path id="Fill_296" data-name="Fill 296" d="M8,8H0V5.983H5.983V0H8V8" transform="translate(226 44)"
            fill="#2b3b82"/>
      <path id="Fill_297" data-name="Fill 297" d="M44.683,46,0,1.317,1.317,0,46,44.683,44.683,46"
            transform="translate(233 49)" fill="#2b3b82"/>
      <path id="Fill_298" data-name="Fill 298" d="M14,160.888,1.566,0,0,.114,12.433,161" transform="translate(634 231)"
            fill="#2b3b82"/>
      <path id="Fill_299" data-name="Fill 299" d="M61,161.887,49.038,0H0V1.523H47.642L59.5,162l1.5-.113"
            transform="translate(634 230)" fill="#2b3b82"/>
      <path id="Fill_300" data-name="Fill 300" d="M1.678,161,15,.114,13.322,0,0,160.888" transform="translate(670 231)"
            fill="#2b3b82"/>
      <path id="Fill_301" data-name="Fill 301" d="M1.525,162,13.577,1.523H62V0H12.158L0,161.887,1.525,162"
            transform="translate(622 230)" fill="#2b3b82"/>
      <path id="Fill_302" data-name="Fill 302" d="M0,1H70V0H0Z" transform="translate(623 370)" fill="#2b3b82"/>
      <path id="Fill_303" data-name="Fill 303" d="M0,1H65V0H0Z" transform="translate(625 351)" fill="#2b3b82"/>
      <path id="Fill_304" data-name="Fill 304" d="M0,1H62V0H0Z" transform="translate(627 329)" fill="#2b3b82"/>
      <path id="Fill_305" data-name="Fill 305" d="M0,1H59V0H0Z" transform="translate(628 311)" fill="#2b3b82"/>
      <path id="Fill_306" data-name="Fill 306" d="M0,1H56V0H0Z" transform="translate(630 291)" fill="#2b3b82"/>
      <path id="Fill_307" data-name="Fill 307" d="M0,1H54V0H0Z" transform="translate(631 271)" fill="#2b3b82"/>
      <path id="Fill_308" data-name="Fill 308" d="M0,1H51V0H0Z" transform="translate(633 252)" fill="#2b3b82"/>
      <path id="Fill_309" data-name="Fill 309" d="M11.285,0,14,11.709s-6.608,6.837-13.875.8L0,4.62,11.285,0"
            transform="translate(669 160)" fill="#f5c6b6"/>
      <path id="Fill_310" data-name="Fill 310"
            d="M1.142,1.079S-2.22,12.216,2.594,14.388c2.5,1.13,9.673.733,11.471-1.514C15.4,11.206,15.3,3.088,13.814,2.052,8.144-1.905,1.142,1.079,1.142,1.079"
            transform="translate(664 149)" fill="#f5c6b6"/>
      <path id="Fill_311" data-name="Fill 311"
            d="M16.279,2.283C14.565-1.038,10.759-.37,5,1.953c-2.22.9-4.635.068-4.853.991-.61,2.6.741,4.9,2.155,5.366A6.244,6.244,0,0,0,5.73,8.256c2.495-.861,4.585.336,4.505,1.838-.021.394-.165,1.111.2,1.266a3.742,3.742,0,0,0,.858.058c.572.043.855.763.76,1.332s1.216.45,1.121,1.019c-.229,1.348,2.349,3.056,3.7,3.217,1.193.142,1.722-.792,2.309-2.44.819-2.3,2.246-12.442-2.9-12.263"
            transform="translate(663 145)" fill="#df4a45"/>
      <path id="Fill_312" data-name="Fill 312"
            d="M0,2.239C.479-.13,1.459-.348,2.278.345c1.092.924.735,4.319.294,5.114C1.677,7.066.658,7.522.127,6.321"
            transform="translate(673 155)" fill="#f5c6b6"/>
      <path id="Fill_313" data-name="Fill 313"
            d="M0,3H.091A6.5,6.5,0,0,0,3.567,1.823,9.076,9.076,0,0,0,5,.669L4.1,0,4.023.077a8.541,8.541,0,0,1-1.459,1.1,4.983,4.983,0,0,1-2.473.784H.027L0,3"
            transform="translate(669 163)" fill="#db806b"/>
      <path id="Fill_314" data-name="Fill 314" d="M0,10.692l11.727,9.65L5.141,32,23,12.852,10.47,0"
            transform="translate(718 323)" fill="#f5c6b6"/>
      <path id="Fill_315" data-name="Fill 315"
            d="M7.383,7.839c-.477.717.354.79.3,2.9S3.195,20.278.876,23.509c-2.242,3.125.41,5.095,1.415,4.324L18.123,15.656c1.164-.895,1.263-2.456,2.162-3.148.244-.187.614-.74.895-.678.437.094.941.753.941.753l5.37-4.129a.98.98,0,0,0,.252-1.513L21.118,0s-5.85,5.9-8.124,6.8c-.919.362-.588-.791-1.15-.855S7.856,7.122,7.383,7.839"
            transform="translate(720 333)" fill="#0e0f25"/>
      <path id="Fill_316" data-name="Fill 316"
            d="M32.825,34.006c0,11.518-.191,29.281,2.651,47.6C36.6,88.835,62,121.142,62,121.142L46.912,135S3.166,97.2,4.252,69.751C5.422,40.115,0,0,0,0"
            transform="translate(675 208)" fill="#008fff"/>
      <path id="Fill_317" data-name="Fill 317" d="M10.6,0l1.317,16.282L0,21l25-3.3L24.957,0"
            transform="translate(657 343)" fill="#f5c6b6"/>
      <path id="Fill_318" data-name="Fill 318"
            d="M17.15.046c-.8.283-.219.855-1.555,2.528s-9.242,4.9-12.97,6.066C-.982,9.768-.2,13,1.027,13H20.41c1.424,0,2.459-1.2,3.56-1.2.3,0,.916-.216,1.09.006A2.409,2.409,0,0,1,25.3,13h6.572A1.006,1.006,0,0,0,33,11.938l-.706-9.7S24.263,3.373,22,2.688c-.913-.278.044-1-.338-1.4S17.948-.239,17.15.046"
            transform="translate(650 356)" fill="#0e0f25"/>
      <path id="Fill_319" data-name="Fill 319"
            d="M2.71,22.956S0,62.22,0,81.063,5.316,134,5.316,134H26.984S25.832,76.087,37.948,35.849c4.336-14.4,4.922-20.878,3.03-28.85L14,0,2.71,22.956"
            transform="translate(656 222)" fill="#008fff"/>
      <path id="Fill_320" data-name="Fill 320"
            d="M3.824,0C.951,16.265,0,34.144,0,50.715A508.1,508.1,0,0,0,3.7,111l1.183-.144s-.231-1.716-.577-4.808A519.655,519.655,0,0,1,1.192,50.715C1.192,34.186,2.143,16.36,5,.19L3.824,0"
            transform="translate(662 243)" fill="#303e84"/>
      <path id="Fill_321" data-name="Fill 321"
            d="M12.814,0a14.328,14.328,0,0,1-1.475,6.917,24.027,24.027,0,0,1-5.007,6l-.119.113-.04.155C2.717,27.022,2.291,39.5,0,51.8l1.169.2C3.474,39.589,3.9,27.15,7.328,13.444l-.577-.129.419.4a25.061,25.061,0,0,0,5.231-6.3A15.418,15.418,0,0,0,14,.006L12.814,0"
            transform="translate(685 247)" fill="#303e84"/>
      <path id="Fill_322" data-name="Fill 322"
            d="M0,.5C13.044,25.313,38.134,48.978,38.153,49L39,48.207s-.387-.366-1.1-1.058C32.948,42.306,12.363,21.5,1.07,0L0,.5"
            transform="translate(686 291)" fill="#303e84"/>
      <path id="Fill_323" data-name="Fill 323"
            d="M0,1.276A35.089,35.089,0,0,0,7.239,2,34.956,34.956,0,0,0,13,1.562L12.808.281s-.133.024-.4.064A36.215,36.215,0,0,1,7.239.7,34.019,34.019,0,0,1,.221,0L0,1.276"
            transform="translate(682 251)" fill="#303e84"/>
      <path id="Fill_324" data-name="Fill 324"
            d="M0,.848A17.007,17.007,0,0,0,1.993.954,27.6,27.6,0,0,0,5,.783L4.787.046,4.569.07C4.136.114,3.11.2,1.993.2A15.281,15.281,0,0,1,.211.11L0,.848"
            transform="translate(704 249)" fill="#303e84"/>
      <path id="Fill_325" data-name="Fill 325"
            d="M0,8A25.25,25.25,0,0,1,1.112,3.826C5.211.921,11.583,0,13.686,0L15,4.977" transform="translate(668 164)"
            fill="#272857"/>
      <path id="Fill_326" data-name="Fill 326"
            d="M16.534.614C13.293.788,3.832-.48,3.539.2S6.57,1.386,6.238,1.9.75,2.041.617,2.814c-.181,1.048,5.119,1.1,5.119,1.1S-.072,4.19,0,5.151c.052.681,4.492.7,6.187.956-1.867,0-4.9.4-4.829,1.1s3.088.787,5.4,1C5.3,8.233,2.662,8.44,2.7,9.1S10.068,10.553,17,11"
            transform="translate(598 197)" fill="#f5c6b6"/>
      <path id="Fill_327" data-name="Fill 327" d="M4.539,12,0,11.824,1.144.1,6,0" transform="translate(609 197)"
            fill="#fffffe"/>
      <path id="Fill_328" data-name="Fill 328"
            d="M19.778.723C20.151.646,24.436.04,24.864.015c4.446-.256,12.1,2.746,17.848,17.021C50.087,35.367,55,76.6,55,76.6s-31.11,5.959-53,4C.424,51.861-6.5,6.142,19.778.723"
            transform="translate(655 166)" fill="#272857"/>
      <path id="Fill_329" data-name="Fill 329"
            d="M0,.32s.088.3.244.888A222.048,222.048,0,0,1,6.861,45L8,44.945A219.557,219.557,0,0,0,1.095,0L0,.32"
            transform="translate(661 203)" fill="#334589"/>
      <path id="Fill_330" data-name="Fill 330"
            d="M65,0A31.272,31.272,0,0,0,45.154,9.572c-5.66,6.035-9.916,13.367-14.131,16.837C26.223,30.361,0,30.885,0,30.885L.177,44.152s25.53,3.534,34.1.827S52.655,34.517,52.655,34.517"
            transform="translate(612 166)" fill="#272857"/>
      <path id="Fill_331" data-name="Fill 331"
            d="M.46,8A50.683,50.683,0,0,0,10,.984L9.289,0S9,.276,8.482.732A46.881,46.881,0,0,1,0,6.837L.46,8"
            transform="translate(654 201)" fill="#334589"/>
    </g>
  </g>
</svg>
