<svg fill="none" height="32" viewBox="0 0 32 32" width="32" xmlns="http://www.w3.org/2000/svg">
  <path clip-rule="evenodd"
        d="M16.2771 11.2778C16.2771 14.1926 13.9142 16.5556 10.9993 16.5556C8.08451 16.5556 5.72157 14.1926 5.72157 11.2778C5.72157 8.36294 8.08451 6 10.9993 6C13.9142 6 16.2771 8.36294 16.2771 11.2778ZM17.2071 14.3767C17.6916 13.4155 17.9439 12.3541 17.9438 11.2778C17.9422 10.201 17.688 9.13956 17.2016 8.17889C17.0954 7.96301 17.1403 7.70332 17.3127 7.53556C18.2896 6.55547 19.6155 6.00318 20.9993 6C23.9142 6 26.2771 8.36294 26.2771 11.2778C26.2771 14.1926 23.9142 16.5556 20.9993 16.5556C19.6175 16.5509 18.2938 15.9987 17.3182 15.02C17.1458 14.8522 17.101 14.5925 17.2071 14.3767ZM18.3582 17.5478C19.2088 17.2589 20.101 17.1114 20.9993 17.1111C25.5997 17.116 29.3278 20.8441 29.3327 25.4444C29.3327 25.7513 29.084 26 28.7771 26H21.5549C21.2481 26 20.9993 25.7513 20.9993 25.4444C20.9985 22.8314 19.9701 20.3235 18.136 18.4622C18.0027 18.3252 17.9492 18.1293 17.9943 17.9436C18.0394 17.7578 18.1769 17.6083 18.3582 17.5478ZM10.9993 17.1111C15.6017 17.1111 19.3327 20.8421 19.3327 25.4444C19.3327 25.7513 19.084 26 18.7771 26H3.22157C2.91475 26 2.66602 25.7513 2.66602 25.4444C2.66602 20.8421 6.39698 17.1111 10.9993 17.1111Z"
        fill="#0090FF" fill-rule="evenodd"/>
</svg>
