<svg fill="none" height="58" viewBox="0 0 58 58" width="58" xmlns="http://www.w3.org/2000/svg">
  <path clip-rule="evenodd"
        d="M38.2773 5.42332L47.3398 14.4858C47.7164 14.8624 47.9299 15.376 47.9299 15.9096V49.1388C47.9299 51.3642 46.1255 53.1666 43.9021 53.1666H13.6938C11.4684 53.1666 9.66602 51.3642 9.66602 49.1388V8.86103C9.66602 6.63568 11.4684 4.83325 13.6938 4.83325H36.8535C37.3892 4.83325 37.9007 5.04471 38.2773 5.42332ZM15.7077 49.1388H41.8882C43.0019 49.1388 43.9021 48.2366 43.9021 47.1249V17.5771C43.9021 17.0435 43.6907 16.5299 43.3121 16.1533L36.6098 9.4511C36.2312 9.07249 35.7197 8.86103 35.186 8.86103H15.7077C14.596 8.86103 13.6938 9.76325 13.6938 10.8749V47.1249C13.6938 48.2366 14.596 49.1388 15.7077 49.1388ZM16.7146 38.0624V36.0485C16.7146 35.4927 17.1657 35.0416 17.7216 35.0416H24.2667C24.5446 35.0416 24.7702 35.2671 24.7702 35.5451V38.5659C24.7702 38.8438 24.5446 39.0694 24.2667 39.0694H17.7216C17.1657 39.0694 16.7146 38.6183 16.7146 38.0624ZM16.7146 42.0902V44.1041C16.7146 44.6599 17.1657 45.111 17.7216 45.111H24.2667C24.5446 45.111 24.7702 44.8855 24.7702 44.6076V41.5867C24.7702 41.3088 24.5446 41.0833 24.2667 41.0833H17.7216C17.1657 41.0833 16.7146 41.5344 16.7146 42.0902ZM27.2875 39.0694C27.0096 39.0694 26.7841 38.8438 26.7841 38.5659V35.5451C26.7841 35.2671 27.0096 35.0416 27.2875 35.0416H38.8674C39.4232 35.0416 39.8743 35.4927 39.8743 36.0485V38.0624C39.8743 38.6183 39.4232 39.0694 38.8674 39.0694H27.2875ZM38.8674 41.0833H27.2875C27.0096 41.0833 26.7841 41.3088 26.7841 41.5867V44.6076C26.7841 44.8855 27.0096 45.111 27.2875 45.111H38.8674C39.4232 45.111 39.8743 44.6599 39.8743 44.1041V42.0902C39.8743 41.5344 39.4232 41.0833 38.8674 41.0833ZM36.1284 16.3927V26.8655C36.1323 27.1393 36.0272 27.4035 35.8363 27.5998C35.6454 27.7961 35.3843 27.9086 35.1105 27.9124H17.813C17.5392 27.9086 17.2781 27.7961 17.0872 27.5998C16.8963 27.4035 16.7912 27.1393 16.7951 26.8655V16.3927C16.7912 16.1188 16.8963 15.8547 17.0872 15.6584C17.2781 15.462 17.5392 15.3496 17.813 15.3458H35.1105C35.3843 15.3496 35.6454 15.462 35.8363 15.6584C36.0272 15.8547 36.1323 16.1188 36.1284 16.3927ZM23.5618 21.6291C23.5618 23.2307 24.8602 24.5291 26.4618 24.5291C27.2309 24.5291 27.9686 24.2236 28.5124 23.6797C29.0563 23.1358 29.3618 22.3982 29.3618 21.6291C29.3618 20.0275 28.0634 18.7291 26.4618 18.7291C24.8602 18.7291 23.5618 20.0275 23.5618 21.6291ZM38.5452 18.0041C38.1448 18.0041 37.8202 18.3287 37.8202 18.7291V29.3624C37.8202 29.4959 37.712 29.6041 37.5785 29.6041H20.1785C19.7781 29.6041 19.4535 29.9287 19.4535 30.3291C19.4535 30.7295 19.7781 31.0541 20.1785 31.0541H37.5785C38.5124 31.053 39.2691 30.2963 39.2702 29.3624V18.7291C39.2702 18.3287 38.9456 18.0041 38.5452 18.0041Z"
        fill="#666161" fill-rule="evenodd"/>
</svg>
