<svg fill="none" height="32" viewBox="0 0 32 32" width="32" xmlns="http://www.w3.org/2000/svg">
  <path clip-rule="evenodd"
        d="M27.6328 3.19689C27.7996 3.32677 27.8751 3.54237 27.8259 3.74816L22.4913 26.1423C22.3752 26.6352 22.0285 27.0415 21.5605 27.233C21.0925 27.4246 20.5609 27.3778 20.1335 27.1074L13.2087 22.7228C13.1441 22.6817 13.0999 22.6151 13.087 22.5395C13.0733 22.4631 13.0933 22.3844 13.1419 22.3239L23.6023 9.18306C23.6917 9.07371 23.6816 8.91378 23.5792 8.81657C23.4768 8.71937 23.3168 8.71789 23.2126 8.81318L10.1242 20.5327C10.0349 20.6136 9.90261 20.6246 9.80119 20.5597L4.89183 17.4519C4.41753 17.1509 4.1392 16.6197 4.16139 16.0578C4.18358 15.4958 4.50294 14.9883 4.99949 14.7258L27.0518 3.14536C27.2388 3.04685 27.466 3.06701 27.6328 3.19689ZM11.2951 23.7364C11.3812 23.6891 11.4861 23.6924 11.569 23.7451L15.1186 26.0075C15.1873 26.0516 15.2325 26.1244 15.2415 26.2056C15.2505 26.2869 15.2223 26.3678 15.1649 26.4259L12.9934 28.6009C12.6853 28.9094 12.2221 29.0015 11.8197 28.8344C11.4174 28.6673 11.1552 28.2738 11.1556 27.8375V23.9727C11.1556 23.8743 11.2091 23.7838 11.2951 23.7364Z"
        fill="#5A5A5A" fill-rule="evenodd"/>
</svg>
