<svg fill="none" height="32" viewBox="0 0 32 32" width="32" xmlns="http://www.w3.org/2000/svg">
  <path clip-rule="evenodd"
        d="M25.4438 3.00562C27.5916 3.00562 29.3327 4.74673 29.3327 6.89451V19.1156C29.3327 21.2634 27.5916 23.0045 25.4438 23.0045H24.6194C24.4659 23.0045 24.3416 22.8801 24.3416 22.7267V15.0123C24.3389 14.3591 24.2335 13.7105 24.0294 13.0901C24.0014 13.0057 24.0159 12.913 24.0682 12.8412C24.1209 12.7715 24.2031 12.7304 24.2905 12.7301H25.4438C25.904 12.7301 26.2771 12.357 26.2771 11.8967C26.2771 11.4365 25.904 11.0634 25.4438 11.0634H23.0927C23.0067 11.0646 22.9249 11.0265 22.8705 10.9601C22.0393 9.94311 20.9137 9.20837 19.6482 8.85673L19.5527 8.83117C19.4186 8.79418 19.3325 8.66368 19.3513 8.52584C19.3701 8.38799 19.488 8.28532 19.6271 8.28562H25.4427C25.9029 8.28562 26.276 7.91252 26.276 7.45228C26.276 6.99205 25.9029 6.61895 25.4427 6.61895H11.5782C11.5538 6.61898 11.5295 6.61562 11.506 6.60895C11.116 6.50228 7.61713 5.53562 7.61713 5.53562C7.33032 5.45623 7.02295 5.53587 6.81079 5.74456C6.59863 5.95324 6.51392 6.25926 6.58857 6.54733C6.66322 6.83541 6.88588 7.06178 7.17269 7.14117L19.2005 10.4578C21.2465 11.0274 22.6631 12.8896 22.666 15.0134V23.0056V25.7834C22.6975 26.7718 22.2671 27.7185 21.5016 28.3445C20.9584 28.7712 20.2856 28.9994 19.5949 28.9912C19.3064 28.9904 19.0189 28.9561 18.7382 28.889L6.33935 25.9767C4.2356 25.3957 2.74985 23.5199 2.66602 21.339V6.89451C2.66515 5.95169 3.0085 5.04098 3.63157 4.3334C3.67021 4.26784 3.72251 4.21138 3.78491 4.16784C4.51438 3.42369 5.51285 3.00476 6.55491 3.00562H25.4438ZM17.666 21.8945C18.8933 21.8945 19.8882 20.8996 19.8882 19.6723C19.8882 18.445 18.8933 17.4501 17.666 17.4501C16.4387 17.4501 15.4438 18.445 15.4438 19.6723C15.4438 20.8996 16.4387 21.8945 17.666 21.8945Z"
        fill="#0090FF" fill-rule="evenodd"/>
</svg>
