<svg fill="none" height="32" viewBox="0 0 32 32" width="32" xmlns="http://www.w3.org/2000/svg">
  <path clip-rule="evenodd"
        d="M27.2561 22.9181C27.1577 22.8786 27.0907 22.7862 27.0838 22.6806C26.8031 18.6105 23.4179 15.4507 19.3329 15.4457H17.3882C17.2348 15.4457 17.1104 15.3215 17.1104 15.1683V9.32625C17.1104 9.21446 17.1774 9.11353 17.2804 9.06988C18.7477 8.45984 19.5797 6.90021 19.2682 5.34372C18.9568 3.78723 17.5885 2.66675 15.9991 2.66675C14.4098 2.66675 13.0415 3.78723 12.73 5.34372C12.4186 6.90021 13.2506 8.45984 14.7179 9.06988C14.8209 9.11353 14.8879 9.21446 14.8879 9.32625V15.1672C14.8879 15.3204 14.7635 15.4446 14.6101 15.4446H12.1098C8.13629 15.4924 4.93384 18.7109 4.9111 22.6795C4.9044 22.786 4.83758 22.8794 4.73886 22.9203C3.26914 23.5202 2.42697 25.072 2.72599 26.6293C3.02501 28.1866 4.38224 29.3172 5.9699 29.3316C7.55757 29.3459 8.93507 28.24 9.26226 26.6884C9.58946 25.1368 8.77556 23.57 7.31695 22.9436C7.20843 22.896 7.14167 22.7853 7.15027 22.6673C7.16211 19.9287 9.36788 17.704 12.1098 17.6653H14.6101C14.7635 17.6653 14.8879 17.7896 14.8879 17.9428V22.6739C14.8879 22.7857 14.8209 22.8866 14.7179 22.9303C13.2506 23.5403 12.4186 25.1 12.73 26.6564C13.0415 28.2129 14.4098 29.3334 15.9991 29.3334C17.5885 29.3334 18.9568 28.2129 19.2682 26.6564C19.5797 25.1 18.7477 23.5403 17.2804 22.9303C17.177 22.8865 17.11 22.785 17.1104 22.6728V17.9417C17.1104 17.7885 17.2348 17.6642 17.3882 17.6642H19.3329C22.1813 17.6724 24.5607 19.8338 24.838 22.665C24.85 22.7849 24.7831 22.8988 24.6724 22.9469C23.2163 23.5775 22.4071 25.1459 22.7382 26.6961C23.0693 28.2464 24.4488 29.3485 26.0359 29.3308C27.623 29.3131 28.9775 28.1804 29.2738 26.6231C29.5701 25.0659 28.726 23.516 27.2561 22.9181Z"
        fill="#0090FF" fill-rule="evenodd"/>
</svg>
