<svg fill="none" height="32" viewBox="0 0 32 32" width="32" xmlns="http://www.w3.org/2000/svg">
  <path clip-rule="evenodd"
        d="M25.7609 10.3034L24.027 11.9691C27.2531 15.5189 27.5352 20.7256 24.7099 24.5777C21.8841 28.4304 16.6816 29.9305 12.1122 28.21C7.54278 26.4895 4.78974 21.9941 5.44576 17.3244C6.10178 12.6547 9.99698 9.02006 14.8779 8.52315V5.23611H12.6356C12.0164 5.23611 11.5145 4.75423 11.5145 4.1598C11.5145 3.56537 12.0164 3.0835 12.6356 3.0835H19.3625C19.9817 3.0835 20.4837 3.56537 20.4837 4.1598C20.4837 4.75423 19.9817 5.23611 19.3625 5.23611H17.1202V8.52315C19.0285 8.71366 20.8471 9.39815 22.3818 10.5036L24.1756 8.78146C24.4571 8.50167 24.874 8.38946 25.2659 8.48795C25.6579 8.58645 25.9641 8.88033 26.0667 9.25664C26.1693 9.63295 26.0524 10.0331 25.7609 10.3034ZM15.9991 27.3004C11.0455 27.3004 7.02984 23.4454 7.02984 18.6899C7.02984 13.9345 11.0455 10.0795 15.9991 10.0795C20.9526 10.0795 24.9683 13.9345 24.9683 18.6899C24.9683 20.9736 24.0233 23.1637 22.3413 24.7784C20.6592 26.3932 18.3778 27.3004 15.9991 27.3004ZM15.9991 11.6939C11.9743 11.6939 8.71157 14.8262 8.71157 18.6899C8.71157 22.5537 11.9743 25.6859 15.9991 25.6859C20.0238 25.6859 23.2865 22.5537 23.2865 18.6899C23.2865 16.8345 22.5188 15.055 21.1521 13.743C19.7854 12.431 17.9318 11.6939 15.9991 11.6939ZM16.5933 19.0376V19.0365C16.2627 19.346 15.7354 19.346 15.4048 19.0365L13.1155 16.8408C12.787 16.5255 12.787 16.0142 13.1155 15.6989C13.4439 15.3835 13.9765 15.3835 14.305 15.6989L16.5933 17.8967C16.751 18.0479 16.8396 18.2531 16.8396 18.4671C16.8396 18.6811 16.751 18.8864 16.5933 19.0376Z"
        fill="#919296" fill-rule="evenodd"/>
</svg>
