<svg fill="none" height="59" viewBox="0 0 58 59" width="58" xmlns="http://www.w3.org/2000/svg">
  <path clip-rule="evenodd"
        d="M23.1037 19.7554L20.256 9.35708C20.2343 9.2814 20.2174 9.20448 20.2057 9.12678C20.0897 8.30317 20.3259 7.46955 20.8602 6.81604C21.4226 6.12299 22.2858 5.7175 23.2003 5.7168H37.1344C38.2467 5.7168 39.1483 6.58326 39.1483 7.65209C39.1483 8.72092 38.2467 9.58738 37.1344 9.58738H25.1377C24.9813 9.58718 24.8337 9.65682 24.7383 9.77585C24.6428 9.89489 24.6103 10.0498 24.6503 10.1951L26.9965 18.7723C27.2791 19.8046 26.6384 20.8619 25.5647 21.1353C25.3965 21.1782 25.2231 21.1997 25.0491 21.1991C24.1348 21.1981 23.3359 20.6052 23.1037 19.7554ZM46.5373 11.5227C47.4471 11.5227 48.3069 11.9227 48.8714 12.6084C49.4091 13.2587 49.645 14.0928 49.5239 14.9152L47.6832 27.2798C47.5253 28.3385 46.5041 29.0737 45.4025 28.9219C44.3008 28.7701 43.5357 27.7889 43.6937 26.7302L45.3048 15.9448C45.3259 15.8061 45.2831 15.6655 45.1875 15.5595C45.092 15.4536 44.9532 15.3929 44.8074 15.3932H33.4913C33.3377 15.3936 33.1926 15.4612 33.097 15.5768C33.0014 15.6924 32.9656 15.8435 32.9999 15.9874L35.5837 26.5637C35.7623 27.242 35.546 27.96 35.0181 28.4417C34.4902 28.9235 33.7329 29.0939 33.0373 28.8875C32.3417 28.6812 31.8161 28.1301 31.6627 27.4462L28.6419 15.0372C28.6213 14.9543 28.6064 14.8703 28.5976 14.7856C28.5129 13.9796 28.7691 13.1748 29.3085 12.5522C29.8754 11.9012 30.7128 11.5243 31.5962 11.5227H46.5373ZM46.3782 37.6859C46.0563 37.0658 46.1039 36.3277 46.5031 35.7506L47.1253 34.8526C47.5769 34.2023 47.5769 33.3547 47.1253 32.7044L46.0056 31.0904C45.9117 30.9555 45.7536 30.8748 45.5847 30.8756H30.0073C29.7635 30.8755 29.5548 30.7075 29.5119 30.4769L28.2351 23.6279C28.2059 23.4672 28.0941 23.3316 27.938 23.2676C27.7819 23.2035 27.6027 23.2197 27.4617 23.3105L25.8144 24.3653C25.0885 24.8294 24.4763 25.4395 24.02 26.1535L17.3742 36.5189C16.906 37.2512 16.1974 37.8129 15.3603 38.1155L8.91583 40.4378C8.72161 40.508 8.59208 40.6855 8.58958 40.8849L8.43854 51.6761C8.43638 51.8055 8.48853 51.9304 8.58324 52.0225C8.67796 52.1146 8.80726 52.1662 8.94201 52.1657H22.5982C22.6624 52.1658 22.726 52.1539 22.7855 52.1309L26.6501 50.6465C27.3634 50.3709 28.1249 50.229 28.8936 50.2285H43.6333C43.7663 50.2288 43.894 50.178 43.9877 50.0872L45.9815 48.1713C46.5209 47.6532 46.7095 46.8868 46.4688 46.1915L46.1184 45.1832C45.949 44.696 45.9882 44.1641 46.2272 43.7046L47.4194 41.4171C47.7026 40.8725 47.7026 40.2316 47.4194 39.6869L46.3782 37.6859ZM39.3094 24.1021C40.6997 24.1021 41.8268 23.019 41.8268 21.6829C41.8268 20.3469 40.6997 19.2638 39.3094 19.2638C37.9191 19.2638 36.7921 20.3469 36.7921 21.6829C36.7921 23.019 37.9191 24.1021 39.3094 24.1021Z"
        fill="#666161" fill-rule="evenodd"/>
</svg>
