<svg xmlns="http://www.w3.org/2000/svg" width="716.57" height="516.097" viewBox="0 0 716.57 516.097">
  <defs>
    <style>.a {
      fill: #d8d5db;
    }</style>
  </defs>
  <path class="a"
        d="M330.789,516.1h-.017c-5.508-.068-11.147-.359-16.762-.865a1.247,1.247,0,0,1-.684-.256.479.479,0,0,1-.194-.483c.069-.333.477-.565.991-.565a1.874,1.874,0,0,1,.187.01c5.459.494,11.012.78,16.5.849.579.011,1.037.311,1.02.671S331.356,516.1,330.789,516.1Zm16.72-.451c-.537,0-.986-.252-1.044-.586-.058-.357.358-.682.928-.723,5.455-.361,10.962-.948,16.368-1.745a1.682,1.682,0,0,1,.254-.019,1.035,1.035,0,0,1,1,.507.445.445,0,0,1-.122.5,1.122,1.122,0,0,1-.647.29c-5.428.8-11.022,1.4-16.628,1.776A.779.779,0,0,1,347.508,515.646ZM297.8,513.152a2.17,2.17,0,0,1-.259-.021c-5.289-.877-10.676-1.966-16.01-3.238a.988.988,0,0,1-.59-.346.426.426,0,0,1-.021-.5,1.139,1.139,0,0,1,.971-.422,1.579,1.579,0,0,1,.375.045c5.326,1.264,10.642,2.338,15.8,3.191a1.122,1.122,0,0,1,.643.309.436.436,0,0,1,.1.487A1.065,1.065,0,0,1,297.8,513.152Zm82.237-2.258a1.127,1.127,0,0,1-.978-.435.431.431,0,0,1,.034-.5,1,1,0,0,1,.593-.337c2.462-.558,4.945-1.168,7.381-1.812l1.926-.511.015,0c2.006-.532,4.081-1.083,6.119-1.628a1.628,1.628,0,0,1,.407-.05,1.182,1.182,0,0,1,.964.392.439.439,0,0,1,.005.512.915.915,0,0,1-.549.347c-2.652.712-5.369,1.436-8.076,2.153-2.564.675-5.082,1.292-7.482,1.833A1.669,1.669,0,0,1,380.038,510.894Zm-113.462-5.145a1.563,1.563,0,0,1-.468-.068c-4.97-1.533-9.937-3.23-14.764-5.045a.777.777,0,0,1-.474-.4.451.451,0,0,1,.114-.5,1.266,1.266,0,0,1,.9-.32,1.547,1.547,0,0,1,.54.094c4.882,1.828,9.8,3.508,14.615,4.993.52.163.729.547.475.874A1.213,1.213,0,0,1,266.576,505.749Zm144.336-2.981a1.2,1.2,0,0,1-.962-.392c-.226-.331.017-.719.543-.865,5.535-1.513,10.534-2.9,15.281-4.233a1.59,1.59,0,0,1,.426-.057,1.184,1.184,0,0,1,.954.387c.234.329,0,.717-.518.865-5.494,1.54-10.5,2.926-15.308,4.238A1.581,1.581,0,0,1,410.912,502.768ZM237.85,495.014a1.53,1.53,0,0,1-.593-.121c-4.533-2-9.053-4.126-13.435-6.329a.654.654,0,0,1-.388-.44.5.5,0,0,1,.221-.483,1.419,1.419,0,0,1,.826-.242,1.434,1.434,0,0,1,.646.143c4.505,2.261,8.988,4.373,13.325,6.276a.719.719,0,0,1,.434.426.474.474,0,0,1-.175.492A1.329,1.329,0,0,1,237.85,495.014Zm203.558-.812a1.182,1.182,0,0,1-.944-.383.429.429,0,0,1-.033-.5.888.888,0,0,1,.541-.361c5.108-1.482,10.2-2.982,15.149-4.459a1.592,1.592,0,0,1,.442-.06,1.217,1.217,0,0,1,.955.369.43.43,0,0,1,.044.5.888.888,0,0,1-.538.378c-4.794,1.433-9.76,2.892-15.182,4.459A1.457,1.457,0,0,1,441.408,494.2Zm30.239-9.049a1.2,1.2,0,0,1-.936-.361.436.436,0,0,1-.055-.5.858.858,0,0,1,.523-.377c5.726-1.783,10.472-3.286,14.938-4.731a1.516,1.516,0,0,1,.467-.071,1.263,1.263,0,0,1,.939.354c.261.323.059.72-.451.886-5,1.614-10.036,3.208-14.965,4.736A1.557,1.557,0,0,1,471.647,485.153Zm-259.938-3.232a1.419,1.419,0,0,1-.694-.168c-4.146-2.329-8.256-4.76-12.214-7.225a.57.57,0,0,1-.315-.462.563.563,0,0,1,.307-.466,1.378,1.378,0,0,1,.735-.193,1.421,1.421,0,0,1,.735.188c3.86,2.4,7.948,4.821,12.148,7.183a.509.509,0,0,1,.075.927A1.42,1.42,0,0,1,211.709,481.922Zm289.7-6.392a1.237,1.237,0,0,1-.921-.341c-.273-.317-.086-.717.418-.891,4.983-1.682,9.911-3.387,14.648-5.066a1.548,1.548,0,0,1,.513-.085,1.283,1.283,0,0,1,.916.331c.279.319.1.712-.4.9-4.676,1.655-9.615,3.363-14.681,5.077A1.575,1.575,0,0,1,501.409,475.529ZM187.9,467.167a1.407,1.407,0,0,1-.761-.209c-3.689-2.5-7.442-5.147-11.152-7.869a.525.525,0,0,1-.244-.487.614.614,0,0,1,.361-.435,1.506,1.506,0,0,1,.685-.156,1.331,1.331,0,0,1,.787.23c3.534,2.595,7.267,5.228,11.093,7.827a.541.541,0,0,1,.278.471.594.594,0,0,1-.336.456A1.448,1.448,0,0,1,187.9,467.167Zm342.66-1.98a1.279,1.279,0,0,1-.9-.32c-.295-.31-.13-.714.367-.9,5.035-1.881,9.83-3.723,14.253-5.475a1.627,1.627,0,0,1,.559-.1,1.293,1.293,0,0,1,.889.3c.3.308.153.714-.327.906-4.833,1.9-9.646,3.751-14.3,5.49A1.521,1.521,0,0,1,530.56,465.187Zm28.314-11.2a1.324,1.324,0,0,1-.868-.293.463.463,0,0,1-.154-.493.728.728,0,0,1,.446-.413c4.6-1.932,9.219-3.938,13.743-5.962a1.427,1.427,0,0,1,.6-.124,1.327,1.327,0,0,1,.855.276c.338.3.233.708-.233.917-4.5,2.013-9.148,4.026-13.8,5.984A1.545,1.545,0,0,1,558.874,453.985Zm-392.728-2.776a1.378,1.378,0,0,1-.819-.246c-3.379-2.678-6.817-5.488-10.216-8.352a.479.479,0,0,1-.192-.486.685.685,0,0,1,.409-.431,1.54,1.54,0,0,1,.624-.125,1.352,1.352,0,0,1,.847.262c3.393,2.868,6.813,5.665,10.167,8.314.358.283.283.7-.169.922A1.48,1.48,0,0,1,166.147,451.209ZM586.1,441.772a1.3,1.3,0,0,1-.828-.257.492.492,0,0,1-.207-.487.667.667,0,0,1,.4-.43c4.6-2.216,9-4.409,13.075-6.518a1.433,1.433,0,0,1,.662-.154,1.352,1.352,0,0,1,.8.238c.37.285.311.69-.134.922-4.265,2.21-8.684,4.413-13.134,6.549A1.453,1.453,0,0,1,586.1,441.772Zm-439.912-7.418a1.3,1.3,0,0,1-.861-.283c-3.172-2.856-6.331-5.789-9.388-8.719a.452.452,0,0,1-.157-.481.752.752,0,0,1,.458-.425,1.508,1.508,0,0,1,.561-.1,1.326,1.326,0,0,1,.885.3c2.943,2.817,6.091,5.738,9.355,8.681a.473.473,0,0,1,.174.493.71.71,0,0,1-.434.419A1.5,1.5,0,0,1,146.191,434.354ZM611.9,428.4a1.381,1.381,0,0,1-.786-.22c-.382-.267-.344-.68.084-.922,4.209-2.364,8.313-4.769,12.2-7.147a1.408,1.408,0,0,1,.726-.183,1.423,1.423,0,0,1,.746.193.561.561,0,0,1,.3.471.572.572,0,0,1-.319.457c-3.915,2.4-8.039,4.812-12.257,7.182A1.48,1.48,0,0,1,611.9,428.4ZM127.8,416.8a1.294,1.294,0,0,1-.886-.309c-2.929-2.967-5.846-6-8.669-9-.287-.317-.118-.721.376-.9a1.5,1.5,0,0,1,.52-.089,1.286,1.286,0,0,1,.91.325c2.959,3.152,5.867,6.172,8.644,8.975a.455.455,0,0,1,.125.5.767.767,0,0,1-.468.4A1.478,1.478,0,0,1,127.8,416.8Zm508.021-3.071a1.394,1.394,0,0,1-.71-.178.582.582,0,0,1-.33-.452.538.538,0,0,1,.279-.47c3.761-2.526,7.487-5.158,11.077-7.822a1.542,1.542,0,0,1,1.472-.078.633.633,0,0,1,.37.45.515.515,0,0,1-.245.477c-3.579,2.654-7.328,5.3-11.143,7.869A1.421,1.421,0,0,1,635.821,413.732ZM110.829,398.7a1.252,1.252,0,0,1-.912-.335c-2.628-2.954-5.323-6.062-8.009-9.237a.447.447,0,0,1-.078-.5.82.82,0,0,1,.505-.386,1.713,1.713,0,0,1,.489-.071,1.22,1.22,0,0,1,.922.343c2.874,3.384,5.489,6.4,7.994,9.211a.441.441,0,0,1,.093.5.807.807,0,0,1-.495.392A1.5,1.5,0,0,1,110.829,398.7Zm546.544-.99a1.536,1.536,0,0,1-.635-.131c-.454-.215-.545-.627-.2-.917,3.4-2.812,6.655-5.671,9.69-8.5a1.319,1.319,0,0,1,.872-.29,1.51,1.51,0,0,1,.583.112c.477.2.6.614.275.912-3.085,2.88-6.365,5.758-9.747,8.555A1.356,1.356,0,0,1,657.373,397.711Zm18.659-17.394a1.523,1.523,0,0,1-.536-.09c-.5-.189-.663-.582-.367-.9,2.87-3.04,5.584-6.123,8.067-9.163a1.21,1.21,0,0,1,.922-.357,1.559,1.559,0,0,1,.482.074c.513.165.72.56.461.88-2.562,3.127-5.3,6.233-8.135,9.232A1.253,1.253,0,0,1,676.032,380.317Zm-580.9-.168a1.223,1.223,0,0,1-.936-.357c-2.573-3.2-5.068-6.376-7.416-9.431a.433.433,0,0,1-.044-.5.888.888,0,0,1,.538-.375,1.686,1.686,0,0,1,.459-.063,1.194,1.194,0,0,1,.937.368c2.593,3.374,5.01,6.452,7.39,9.409a.443.443,0,0,1,.061.5.852.852,0,0,1-.522.379A1.565,1.565,0,0,1,95.137,380.149Zm596.178-18.484a1.514,1.514,0,0,1-.427-.057c-.522-.14-.762-.526-.534-.859,2.176-3.1,4.274-6.357,6.236-9.687a1.157,1.157,0,0,1,.984-.429,1.64,1.64,0,0,1,.362.04c.535.127.809.505.61.844-1.9,3.245-4.016,6.527-6.278,9.755A1.187,1.187,0,0,1,691.315,361.665Zm-610.7-.435a1.188,1.188,0,0,1-.945-.383c-2.412-3.3-4.719-6.531-6.854-9.593-.226-.33.018-.718.543-.865a1.652,1.652,0,0,1,.412-.051,1.2,1.2,0,0,1,.968.393c2.285,3.28,4.583,6.5,6.83,9.572.24.327.011.717-.51.87A1.6,1.6,0,0,1,80.615,361.23ZM702.867,342a1.584,1.584,0,0,1-.3-.027c-.55-.1-.861-.471-.694-.817,1.608-3.352,3.066-6.743,4.331-10.08a1.066,1.066,0,0,1,1.022-.5,1.824,1.824,0,0,1,.24.016c.56.089.909.444.778.791-1.3,3.414-2.774,6.831-4.373,10.154A1.11,1.11,0,0,1,702.867,342Zm-635.661-.016a1.163,1.163,0,0,1-.962-.4c-2.007-3.01-4.075-6.195-6.32-9.735a.427.427,0,0,1,.01-.5.963.963,0,0,1,.576-.35,1.555,1.555,0,0,1,.381-.046,1.18,1.18,0,0,1,.974.408c1.942,3.07,4,6.249,6.3,9.718a.431.431,0,0,1,0,.5.94.94,0,0,1-.564.351A1.5,1.5,0,0,1,67.206,341.986ZM54.834,322.475a1.126,1.126,0,0,1-.971-.424c-1.882-3.113-3.833-6.421-5.8-9.833-.2-.339.082-.717.628-.844a1.7,1.7,0,0,1,.346-.036,1.142,1.142,0,0,1,.99.434c1.879,3.266,3.825,6.568,5.786,9.814.2.34-.07.718-.6.843A1.517,1.517,0,0,1,54.834,322.475Zm655.8-.849c-.056,0-.114,0-.184-.01-.567-.068-.945-.408-.844-.759.958-3.362,1.8-6.838,2.492-10.332.059-.323.512-.576,1.032-.576.044,0,.088,0,.13.006.579.047.979.369.91.733-.69,3.492-1.533,6.99-2.507,10.4A1.029,1.029,0,0,1,710.634,321.626ZM43.505,302.755a1.128,1.128,0,0,1-.986-.439c-1.844-3.376-3.63-6.727-5.309-9.96a.436.436,0,0,1,.066-.5,1.048,1.048,0,0,1,.611-.325,1.635,1.635,0,0,1,.319-.031,1.112,1.112,0,0,1,.993.451c1.846,3.543,3.579,6.794,5.3,9.939.183.339-.11.712-.652.833A1.926,1.926,0,0,1,43.505,302.755Zm671.233-1.928h-.066c-.576-.026-1.011-.342-.971-.7.394-3.5.656-7.016.778-10.436.009-.373.429-.624,1.07-.639.57.006,1.028.306,1.02.67-.123,3.475-.388,7.007-.786,10.5C715.75,300.56,715.291,300.827,714.739,300.827ZM33.148,282.8a1.1,1.1,0,0,1-.995-.461l-.251-.508c-1.722-3.515-3.319-6.9-4.749-10.07a.44.44,0,0,1,.091-.5,1.091,1.091,0,0,1,.629-.31,1.8,1.8,0,0,1,.288-.023,1.066,1.066,0,0,1,1,.473c1.554,3.415,3.151,6.8,4.748,10.049l.235.5a.43.43,0,0,1-.065.491,1.066,1.066,0,0,1-.621.326A1.493,1.493,0,0,1,33.148,282.8Zm682.193-2.934h-.059c-.553,0-1.011-.274-1.044-.623a90.771,90.771,0,0,0-1.479-10.4.486.486,0,0,1,.21-.481,1.26,1.26,0,0,1,.693-.247l.108,0c.563,0,.99.228,1.062.568a92.093,92.093,0,0,1,1.5,10.489C716.361,279.538,715.918,279.848,715.341,279.87Zm-691.6-17.746a1.084,1.084,0,0,1-1.011-.492c-1.457-3.49-2.827-6.919-4.072-10.191-.132-.353.213-.708.769-.791a1.616,1.616,0,0,1,.242-.018,1.081,1.081,0,0,1,1.02.5c1.415,3.688,2.744,7.014,4.063,10.17.143.355-.183.707-.743.8A2.521,2.521,0,0,1,23.743,262.124Zm687.4-3.044a1.021,1.021,0,0,1-1.019-.534c-1.043-3.358-2.284-6.785-3.687-10.185-.142-.35.2-.708.752-.8a1.585,1.585,0,0,1,.253-.02,1.092,1.092,0,0,1,1.017.492c1.445,3.5,2.694,6.954,3.712,10.263.109.354-.262.7-.828.766A1.319,1.319,0,0,1,711.144,259.08ZM15.96,241.707a1.045,1.045,0,0,1-1.02-.519c-1.193-3.46-2.318-6.926-3.344-10.3a.454.454,0,0,1,.151-.486,1.2,1.2,0,0,1,.677-.279,1.377,1.377,0,0,1,.233-.02,1.012,1.012,0,0,1,.987.538c1.055,3.462,2.177,6.918,3.335,10.274a.452.452,0,0,1-.14.492,1.163,1.163,0,0,1-.662.283A1.447,1.447,0,0,1,15.96,241.707Zm686.825-2.929a1.11,1.11,0,0,1-.995-.45c-1.667-3.265-3.518-6.586-5.5-9.871a.438.438,0,0,1,.029-.5.978.978,0,0,1,.582-.34,1.453,1.453,0,0,1,.386-.051,1.138,1.138,0,0,1,.959.428c1.968,3.254,3.83,6.6,5.535,9.933a.443.443,0,0,1-.065.5,1.046,1.046,0,0,1-.612.326A1.718,1.718,0,0,1,702.785,238.778ZM9.647,221.091a1.024,1.024,0,0,1-1.028-.55c-.929-3.445-1.792-6.94-2.567-10.39a.485.485,0,0,1,.2-.487,1.241,1.241,0,0,1,.686-.252A1.46,1.46,0,0,1,7.1,209.4c.5,0,.949.247,1.022.563.759,3.37,1.62,6.855,2.558,10.359a.467.467,0,0,1-.175.487,1.234,1.234,0,0,1-.677.267l-.024,0C9.746,221.087,9.7,221.091,9.647,221.091Zm681.332-1.939a1.2,1.2,0,0,1-.962-.392c-2.187-3.164-4.533-6.363-6.972-9.51a.434.434,0,0,1-.046-.5.878.878,0,0,1,.531-.374,1.5,1.5,0,0,1,.457-.069,1.23,1.23,0,0,1,.939.367c2.439,3.152,4.8,6.369,7.014,9.562.226.337-.012.716-.543.865A1.857,1.857,0,0,1,690.979,219.152ZM4.94,200.3c-.533,0-.979-.25-1.037-.581-.624-3.341-1.2-6.859-1.712-10.458-.051-.361.372-.681.943-.713.041,0,.082,0,.121,0,.568,0,.967.234,1.017.6.469,3.341,1.042,6.85,1.7,10.431a.491.491,0,0,1-.215.477,1.293,1.293,0,0,1-.7.246A.98.98,0,0,1,4.94,200.3Zm671.418-.025a1.24,1.24,0,0,1-.919-.346c-2.625-3.057-5.379-6.129-8.185-9.132-.282-.307-.113-.709.376-.9a1.452,1.452,0,0,1,.521-.093,1.269,1.269,0,0,1,.908.329c2.86,3.061,5.625,6.148,8.218,9.173a.437.437,0,0,1,.08.5.825.825,0,0,1-.508.386A1.528,1.528,0,0,1,676.359,200.276Zm-16.921-18.117a1.283,1.283,0,0,1-.886-.3c-2.916-2.882-6.007-5.825-9.187-8.749-.319-.3-.2-.71.275-.912a1.466,1.466,0,0,1,.583-.114,1.322,1.322,0,0,1,.872.286c3.208,2.952,6.31,5.908,9.221,8.787.306.307.163.714-.319.906A1.561,1.561,0,0,1,659.437,182.158ZM2.048,179.387H1.989c-.552,0-1.011-.272-1.044-.619-.341-3.623-.588-7.159-.736-10.51a.549.549,0,0,1,.283-.47,1.366,1.366,0,0,1,.728-.206h.033c.56,0,1.03.287,1.046.639.148,3.358.4,6.88.736,10.468C3.068,179.048,2.625,179.36,2.048,179.387Zm638.537-14.581a1.289,1.289,0,0,1-.844-.268c-3.384-2.908-6.761-5.729-10.04-8.383-.349-.286-.263-.7.193-.921a1.458,1.458,0,0,1,.637-.138,1.324,1.324,0,0,1,.826.258c3.261,2.637,6.651,5.468,10.075,8.415.334.293.233.7-.226.911A1.482,1.482,0,0,1,640.585,164.806ZM1.044,158.4c-.576,0-1.044-.3-1.044-.66.025-3.491.149-7.029.367-10.515.026-.359.462-.631,1.015-.631l.073,0a1.375,1.375,0,0,1,.727.212.535.535,0,0,1,.275.47c-.218,3.472-.342,6.994-.367,10.468C2.09,158.1,1.621,158.4,1.044,158.4ZM620.1,148.192a1.372,1.372,0,0,1-.811-.241c-3.507-2.684-7.13-5.382-10.768-8.021a.513.513,0,0,1-.248-.473.625.625,0,0,1,.366-.449,1.416,1.416,0,0,1,.677-.161,1.383,1.383,0,0,1,.8.229c3.716,2.7,7.351,5.4,10.8,8.048a.5.5,0,0,1,.232.476.644.644,0,0,1-.383.445A1.462,1.462,0,0,1,620.1,148.192ZM2.4,137.425H2.316c-.572-.031-1-.346-.962-.7.441-3.519,1-7.043,1.664-10.474.064-.342.493-.573,1.068-.573l.093,0a1.271,1.271,0,0,1,.692.241.5.5,0,0,1,.218.487c-.66,3.441-1.216,6.945-1.655,10.415C3.4,137.16,2.947,137.425,2.4,137.425ZM598.192,132.3a1.384,1.384,0,0,1-.769-.215c-3.87-2.664-7.709-5.244-11.411-7.67a.541.541,0,0,1-.283-.465.575.575,0,0,1,.316-.458,1.484,1.484,0,0,1,.733-.182,1.358,1.358,0,0,1,.746.2c3.724,2.435,7.575,5.023,11.445,7.692a.529.529,0,0,1,.273.471.6.6,0,0,1-.348.452A1.391,1.391,0,0,1,598.192,132.3Zm-23.141-15.183a1.355,1.355,0,0,1-.734-.194c-3.9-2.435-7.938-4.9-11.989-7.313a.505.505,0,0,1-.033-.928,1.419,1.419,0,0,1,.757-.2,1.383,1.383,0,0,1,.713.18c4.047,2.415,8.092,4.883,12.022,7.335a.5.5,0,0,1,0,.927A1.359,1.359,0,0,1,575.051,117.118ZM6.438,116.6c-.05,0-.1,0-.149-.008l-.027,0a1.211,1.211,0,0,1-.675-.264.473.473,0,0,1-.178-.491c.923-3.464,1.992-6.941,3.178-10.332a1.068,1.068,0,0,1,1.038-.515,1.75,1.75,0,0,1,.206.012c.563.079.919.429.795.781-1.157,3.313-2.22,6.768-3.16,10.269A1.024,1.024,0,0,1,6.438,116.6Zm544.346-13.963a1.412,1.412,0,0,1-.7-.173c-4.164-2.372-8.386-4.723-12.548-6.989a.606.606,0,0,1-.354-.439.523.523,0,0,1,.253-.484,1.335,1.335,0,0,1,.776-.223,1.511,1.511,0,0,1,.7.16c3.973,2.16,8.089,4.451,12.582,7.005a.507.507,0,0,1,.068.928A1.384,1.384,0,0,1,550.783,102.636ZM13.644,96.109a1.623,1.623,0,0,1-.284-.021c-.558-.1-.884-.465-.728-.812,1.549-3.47,3.226-6.853,4.984-10.054a1.154,1.154,0,0,1,.99-.448,1.487,1.487,0,0,1,.338.038c.542.12.835.495.652.834-1.78,3.237-3.445,6.6-4.949,9.986A1.081,1.081,0,0,1,13.644,96.109Zm511.774-7.282a1.5,1.5,0,0,1-.668-.147c-4.293-2.236-8.667-4.462-13-6.617a.654.654,0,0,1-.388-.437.5.5,0,0,1,.221-.48,1.371,1.371,0,0,1,.823-.246,1.476,1.476,0,0,1,.64.136c4.429,2.2,8.818,4.431,13.042,6.633.443.232.507.645.141.922A1.374,1.374,0,0,1,525.418,88.826ZM24.57,76.288a1.724,1.724,0,0,1-.4-.047.946.946,0,0,1-.567-.361.428.428,0,0,1,.007-.5c2.177-3.251,4.557-6.466,7.073-9.556a1.2,1.2,0,0,1,.929-.361,1.549,1.549,0,0,1,.475.073.856.856,0,0,1,.52.379.438.438,0,0,1-.06.5c-2.477,3.042-4.837,6.229-7.014,9.472A1.163,1.163,0,0,1,24.57,76.288Zm474.589-.519a1.511,1.511,0,0,1-.628-.13c-4.7-2.226-9.216-4.324-13.426-6.236a.7.7,0,0,1-.418-.428.474.474,0,0,1,.185-.483,1.316,1.316,0,0,1,.846-.274,1.486,1.486,0,0,1,.616.127c4.367,1.98,8.895,4.083,13.459,6.251.458.214.548.625.2.917A1.356,1.356,0,0,1,499.159,75.769ZM472.065,63.484a1.575,1.575,0,0,1-.594-.116c-4.455-1.929-9.124-3.9-13.877-5.862a.741.741,0,0,1-.451-.414.462.462,0,0,1,.15-.492,1.327,1.327,0,0,1,.883-.292,1.529,1.529,0,0,1,.564.1c4.62,1.9,9.3,3.879,13.91,5.872a.73.73,0,0,1,.444.428.465.465,0,0,1-.167.484A1.332,1.332,0,0,1,472.065,63.484ZM39.793,57.627a1.516,1.516,0,0,1-.551-.1c-.488-.19-.642-.594-.343-.9,2.926-2.983,6.087-5.925,9.4-8.744a1.356,1.356,0,0,1,.846-.261,1.5,1.5,0,0,1,.618.125.68.68,0,0,1,.412.427.48.48,0,0,1-.2.484c-3.268,2.786-6.4,5.7-9.3,8.655A1.226,1.226,0,0,1,39.793,57.627Zm404.265-5.68a1.535,1.535,0,0,1-.551-.1c-4.646-1.818-9.453-3.65-14.288-5.443a.788.788,0,0,1-.486-.405.442.442,0,0,1,.119-.491,1.2,1.2,0,0,1,.888-.326,1.555,1.555,0,0,1,.542.1c4.77,1.768,9.594,3.6,14.338,5.459.485.195.631.6.325.906A1.281,1.281,0,0,1,444.058,51.947Zm-28.841-10.7a1.541,1.541,0,0,1-.51-.084c-4.778-1.675-9.723-3.357-14.7-5-.512-.169-.71-.566-.442-.886a1.255,1.255,0,0,1,.936-.352,1.526,1.526,0,0,1,.477.075c4.932,1.63,9.893,3.318,14.747,5.019a.818.818,0,0,1,.495.4.439.439,0,0,1-.094.495A1.242,1.242,0,0,1,415.217,41.249ZM59.665,40.777a1.393,1.393,0,0,1-.694-.168.6.6,0,0,1-.348-.439.532.532,0,0,1,.264-.483c3.731-2.634,7.68-5.172,11.737-7.545a1.5,1.5,0,0,1,1.472.026.545.545,0,0,1,.285.471.589.589,0,0,1-.335.456c-4.035,2.372-7.938,4.882-11.6,7.462A1.335,1.335,0,0,1,59.665,40.777Zm325.9-9.305a1.554,1.554,0,0,1-.459-.068c-5.046-1.56-10.126-3.076-15.1-4.506-.524-.154-.753-.544-.51-.87a1.206,1.206,0,0,1,.953-.385,1.563,1.563,0,0,1,.435.06c4.861,1.4,9.957,2.921,15.147,4.521.514.161.728.555.477.88A1.237,1.237,0,0,1,385.563,31.472ZM84.085,26.49a1.324,1.324,0,0,1-.828-.252.494.494,0,0,1-.208-.488.67.67,0,0,1,.4-.434c4.428-2.136,9.066-4.164,13.785-6.03a1.576,1.576,0,0,1,.558-.1,1.288,1.288,0,0,1,.888.3.457.457,0,0,1,.134.5.753.753,0,0,1-.46.4c-4.68,1.855-9.267,3.862-13.635,5.968A1.494,1.494,0,0,1,84.085,26.49Zm271.031-3.778a1.609,1.609,0,0,1-.409-.052c-5.288-1.408-10.5-2.736-15.492-3.946a.969.969,0,0,1-.575-.347.433.433,0,0,1-.018-.5,1.18,1.18,0,0,1,.986-.412,1.682,1.682,0,0,1,.368.04c5.052,1.225,10.283,2.558,15.549,3.961.536.141.781.519.56.859A1.2,1.2,0,0,1,355.117,22.712ZM112.343,15.325a1.2,1.2,0,0,1-.928-.361c-.259-.32-.053-.715.459-.881,4.95-1.579,10.1-3.049,15.3-4.369a1.433,1.433,0,0,1,.391-.053,1.168,1.168,0,0,1,.963.414c.217.334-.041.718-.576.854-5.136,1.3-10.227,2.756-15.132,4.322A1.634,1.634,0,0,1,112.343,15.325Zm211.54-.2a1.582,1.582,0,0,1-.351-.037c-5.093-1.126-10.429-2.235-15.859-3.3a1.063,1.063,0,0,1-.62-.328.428.428,0,0,1-.065-.49,1.1,1.1,0,0,1,.986-.462,1.531,1.531,0,0,1,.317.033c5.193,1.009,10.554,2.121,15.935,3.305a1.028,1.028,0,0,1,.6.337.433.433,0,0,1,.044.5A1.137,1.137,0,0,1,323.883,15.12ZM291.889,8.885a1.579,1.579,0,0,1-.275-.021c-5.344-.907-10.8-1.753-16.21-2.515a1.156,1.156,0,0,1-.655-.288.463.463,0,0,1-.139-.5,1.012,1.012,0,0,1,1-.51,1.777,1.777,0,0,1,.248.018c5.368.756,10.856,1.606,16.311,2.526.556.1.882.462.727.806A1.081,1.081,0,0,1,291.889,8.885ZM143.3,7.44a1.1,1.1,0,0,1-.995-.461.434.434,0,0,1,.07-.5,1.052,1.052,0,0,1,.615-.319c5.238-1.037,10.692-1.973,16.21-2.782a1.6,1.6,0,0,1,.238-.018,1.063,1.063,0,0,1,1.017.505.449.449,0,0,1-.129.493,1.157,1.157,0,0,1-.649.293c-5.445.8-10.849,1.728-16.059,2.757A1.649,1.649,0,0,1,143.3,7.44ZM259.218,4.3a1.824,1.824,0,0,1-.183-.011c-5.37-.6-10.922-1.132-16.5-1.571a1.3,1.3,0,0,1-.7-.249.49.49,0,0,1-.211-.485c.072-.34.5-.569,1.063-.569l.107,0c5.446.426,11.035.958,16.611,1.582a1.206,1.206,0,0,1,.67.27.473.473,0,0,1,.174.49A1.03,1.03,0,0,1,259.218,4.3ZM175.886,2.708c-.517,0-.963-.241-1.037-.56a.487.487,0,0,1,.2-.488,1.252,1.252,0,0,1,.688-.256C181.1.915,186.729.547,192.464.309A1.684,1.684,0,0,1,192.637.3c.579,0,.911.313.939.622a.513.513,0,0,1-.253.472,1.326,1.326,0,0,1-.717.22c-5.6.234-11.177.6-16.569,1.085A1.314,1.314,0,0,1,175.886,2.708ZM226,1.7h-.075c-5.562-.24-11.164-.372-16.652-.393-.586,0-1.046-.288-1.046-.655S208.691,0,209.268,0c5.539.021,11.192.153,16.8.393.568.025,1,.34.971.7C227,1.436,226.541,1.7,226,1.7Z"/>
</svg>
