<svg xmlns="http://www.w3.org/2000/svg" width="215.71" height="394.975" viewBox="0 0 215.71 394.975">
  <g id="human-03" transform="translate(0 0)">
    <path id="Fill_15" data-name="Fill 15" d="M0,33.114H6.617V0H0Z" transform="translate(108.059 81.046)"
          fill="#d3d3d3"/>
    <path id="Fill_81" data-name="Fill 81"
          d="M0,26.545l10.436.088.192-3.081c3.95,2.873,17.651,3.386,28.93,3.273-13.414-6.773-26.231-14.5-27.151-15.4a.167.167,0,0,1-.029-.043c-.73-.864-1.617-6.649-1.791-11.289L.31,0,2.14,13.687a2.183,2.183,0,0,0-.235.355C.236,16.94,0,26.545,0,26.545"
          transform="translate(116.4 368.135)" fill="#242143"/>
    <path id="Fill_82" data-name="Fill 82"
          d="M2.191,16.853a2.7,2.7,0,0,0-.281.437c4.332.171,10-2.133,12.531-3.278-.873-1.064-1.935-8.187-2.144-13.9L0,0Z"
          transform="translate(116.771 361.927)" fill="#ffdfc4"/>
    <path id="Fill_83" data-name="Fill 83" d="M1.756,6.685l3.781-5.47L3.781,0,0,5.47Z"
          transform="translate(137.09 379.913)" fill="#fff"/>
    <path id="Fill_84" data-name="Fill 84" d="M1.757,6.686,5.538,1.214,3.781,0,0,5.47Z"
          transform="translate(134.19 378.146)" fill="#fff"/>
    <path id="Fill_85" data-name="Fill 85" d="M1.756,6.685l3.781-5.47L3.781,0,0,5.47Z"
          transform="translate(130.958 376.432)" fill="#fff"/>
    <path id="Fill_86" data-name="Fill 86"
          d="M33.765,26.545l-8.9.088L24.7,23.552C21.334,26.426,9.65,26.939.031,26.825c0,0,22.369-14.5,23.154-15.4a.17.17,0,0,0,.025-.043c.622-.864,1.379-6.649,1.528-11.289L33.5,0,31.94,13.687a2.245,2.245,0,0,1,.2.355c1.424,2.9,1.625,12.5,1.625,12.5"
          transform="translate(49.08 368.135)" fill="#242143"/>
    <path id="Fill_87" data-name="Fill 87"
          d="M12.251,16.853a2.7,2.7,0,0,1,.281.437C8.2,17.461,2.534,15.157,0,14.012.873,12.948,1.935,5.825,2.144.112L14.442,0Z"
          transform="translate(68.032 361.927)" fill="#ffdfc4"/>
    <path id="Fill_90" data-name="Fill 90" d="M3.781,6.685,0,1.214,1.757,0,5.536,5.47Z"
          transform="translate(62.75 376.432)" fill="#fff"/>
    <path id="Fill_91" data-name="Fill 91"
          d="M64.021-1.866S83.239,174.209,81.244,185.6l-37.5,3.517L39.726,30.6l-7.486,2.269L26.173,189.121l-34.52-7.252L8.039,12.452Z"
          transform="translate(67.41 200.051)" fill="#242143"/>
    <g id="Group_676" data-name="Group 676" transform="translate(0 29.671) rotate(-8)">
      <g id="Rectangle_990" data-name="Rectangle 990" transform="translate(0 0)" fill="rgba(255,255,255,0.78)"
         stroke="rgba(153,196,247,0.54)" stroke-width="1">
        <rect width="213.192" height="33" rx="4" stroke="none"/>
        <rect x="0.5" y="0.5" width="212.192" height="32" rx="3.5" fill="none"/>
      </g>
      <path id="Rectangle_989" data-name="Rectangle 989"
            d="M0,0H34a4,4,0,0,1,4,4V29a4,4,0,0,1-4,4H0a0,0,0,0,1,0,0V0A0,0,0,0,1,0,0Z" transform="translate(175.192 0)"
            fill="#ffd800"/>
      <g id="search" transform="translate(185.056 7.532)">
        <path id="search-2" data-name="search"
              d="M18.319,14.433a8,8,0,1,0-1.412,1.412l.042.045,4.243,4.243a1,1,0,0,0,1.414-1.414l-4.243-4.243Zm-2.076-9.15a6,6,0,1,1-8.485,0A6,6,0,0,1,16.243,5.283Z"
              transform="translate(-4 -1.525)" fill="#fff" fill-rule="evenodd"/>
      </g>
    </g>
    <path id="Fill_95" data-name="Fill 95" d="M-10.349,93.288,5.678-.173,53.592-6.3,68.08,79.739"
          transform="translate(76.566 123.566)" fill="#00de91"/>
    <path id="Fill_96" data-name="Fill 96"
          d="M17.515,17.231A30.786,30.786,0,0,1,0,17.344,17.441,17.441,0,0,0,1.9,10.2c.112-1.142.166-2.291.181-3.37A53.222,53.222,0,0,0,1.847.684L14.5,0l.321,1.784,1.431,8.184Z"
          transform="translate(95.964 104.517)" fill="#ffdfc4"/>
    <path id="Fill_97" data-name="Fill 97"
          d="M14.346,8.184A63.767,63.767,0,0,1,0,8.412C.112,7.27.165,6.121.181,5.042c0,0,9.3-1.782,12.734-5.042Z"
          transform="translate(97.866 106.3)" fill="#ffc1a0"/>
    <path id="Fill_98" data-name="Fill 98"
          d="M3.494,0S-6.332,34.34,6.972,40.636c13.964,6.61,23.681-12.26,23.681-12.26L33.842,4.309Z"
          transform="translate(86.13 69.368)" fill="#ffdfc4"/>
    <path id="Fill_101" data-name="Fill 101"
          d="M40.87,44.136C45.806,39.685,48.4,33.1,49.325,26.519c.551-3.912.519-8.124-1.481-11.53s-4.921-4.944-13.757-7.775S15.323,5.459,12.5,3.662C11.267,2.876,10.466.967,11.563,0,8.618,1.383.742,8.83.181,11.8a10.952,10.952,0,0,0,2.025,8.558,14.1,14.1,0,0,0,7.9,4.826,34.017,34.017,0,0,0,9.382.668,91.068,91.068,0,0,1,.222,17.024,8.277,8.277,0,0,1,2.078-3.189,2.817,2.817,0,0,1,3.525-.116,3.61,3.61,0,0,1,.8,2.923,9.223,9.223,0,0,1-1.72,5.019,5.785,5.785,0,0,1-4.608,2.365C18.29,58.491,27.216,61.833,28.113,62.2a6.733,6.733,0,0,1,.141-3.52,6.811,6.811,0,0,0,3.632,2.676c-.879-1.613-.134-3.632.876-5.166,2.613-3.968,4.579-8.872,8.107-12.053"
          transform="translate(83.447 54.496)" fill="#414040"/>
    <path id="Fill_109" data-name="Fill 109"
          d="M22.681,10.692l-2-3.587L18.538.882,13.64,0,9.424,3.679S3.432,4.921,2.41,7.3,2.2,20.856,2.2,20.856l3.125,2.949L5,26.7,0,63.215H12.9l3.875-35.5.428-2.383,6.385-5.123Z"
          transform="translate(39.501 39.7)" fill="#ffdfc4"/>
    <path id="Fill_110" data-name="Fill 110"
          d="M15.661,29.579l4.772-42.719L6.689-14.4,2.084,34.252,49.358,69.18l5.594-27.289"
          transform="translate(36.771 82.118)" fill="#00de91"/>
    <path id="Fill_111" data-name="Fill 111"
          d="M0,11.708l1.554-3.8L2.928,1.467,7.683,0l4.628,3.144s6.1.508,7.4,2.748S21.56,19.319,21.56,19.319l-2.745,3.306.669,2.832L28.857,61.1l-12.8,1.56L7.919,27.9l-.713-2.314L.25,21.269Z"
          transform="translate(144.053 24.733)" fill="#ffdfc4"/>
    <path id="Fill_112" data-name="Fill 112" d="M44.38,30.839,33.5-7.684l14.346-3.257L60.224,33.8,7.061,82.342,0,58.472"
          transform="translate(117.626 65.094)" fill="#00de91"/>
  </g>
</svg>
