<svg xmlns="http://www.w3.org/2000/svg" width="99.418" height="61.48" viewBox="0 0 99.418 61.48">
  <defs>
    <style>.a {
      fill: #43c59e;
    }

    .b {
      fill: #19a184;
    }

    .c {
      fill: #56cfaa;
    }

    .d {
      fill: #64d9b5;
    }

    .e {
      fill: #223851;
    }</style>
  </defs>
  <path class="a" d="M4.495,26c2.483,0,4.5.088,4.5-7.091S4.5,0,4.5,0,0,11.73,0,18.909,2.012,26,4.495,26Z"
        transform="translate(90.542 43.762) rotate(74)"/>
  <path class="b"
        d="M1.5,25.981c2.48,0,4.491.088,4.493-7.087S1.51,0,1.51,0,.361,12.308.36,19.483-.976,25.982,1.5,25.981Z"
        transform="translate(91.454 46.2) rotate(74)"/>
  <path class="a" d="M8.99,40.991c4.967,0,8.994.137,9-11.183S9.005,0,9.005,0,0,18.5,0,29.815,4.023,40.993,8.99,40.991Z"
        transform="translate(88.72 22.908) rotate(59)"/>
  <path class="b"
        d="M1.542,40.983c4.923,0,8.656.661,10.263-10.35S1.557,0,1.557,0s3.507,16.621,3.5,27.938S-3.381,40.985,1.542,40.983Z"
        transform="translate(93.26 29.472) rotate(59)"/>
  <path class="b"
        d="M1.448,16.475c2.416.791,4.338,1.369,7.253-3.87C10.643,9.59,11.744,5.457,12,0A18.07,18.07,0,0,0,2.686,7.591C-.229,13.244-.968,15.5,1.448,16.475Z"
        transform="matrix(0.978, 0.208, -0.208, 0.978, 67.682, 22.628)"/>
  <path class="b"
        d="M10.548,16.472c-2.416.792-4.339,1.37-7.251-3.867C1.355,9.589.256,5.457,0,0A18.05,18.05,0,0,1,9.313,7.588C12.225,13.239,12.964,15.5,10.548,16.472Z"
        transform="matrix(0.966, 0.259, -0.259, 0.966, 37.19, 16.435)"/>
  <path class="a" d="M8.993,50.967c4.97,0,9,.171,9-13.9S9.011,0,9.011,0,.005,23,0,37.07,4.024,50.969,8.993,50.967Z"
        transform="matrix(0.875, 0.485, -0.485, 0.875, 69.267, 6.531)"/>
  <path class="b"
        d="M2.05,50.967c4.942,0,8.947.171,8.952-13.9S2.068,0,2.068,0,6.863,22.768,4.615,36.4-2.891,50.969,2.05,50.967Z"
        transform="matrix(0.875, 0.485, -0.485, 0.875, 75.823, 10.224)"/>
  <path class="a"
        d="M4.825,20.98C1.064,20.979,0,20.536,0,14.611S5.177,0,5.177,0s6.815,9.682,6.817,15.607S8.587,20.982,4.825,20.98Z"
        transform="matrix(0.602, -0.799, 0.799, 0.602, 0.795, 45.643)"/>
  <path class="b"
        d="M7.695,23.993C3.975,23.992,0,21.538,0,15.448S6.377,0,6.377,0s-.392,7.3-.39,13.394S11.415,23.995,7.695,23.993Z"
        transform="matrix(0.602, -0.799, 0.799, 0.602, 0, 47.041)"/>
  <path class="a" d="M10,30.991c-5.52,0-9.995.1-10-8.456S9.986,0,9.986,0s10,13.985,10,22.543S15.518,30.993,10,30.991Z"
        transform="matrix(0.602, -0.799, 0.799, 0.602, 4.398, 40.831)"/>
  <path class="b"
        d="M9.934,32.954C4.484,32.952,0,31.776,0,23.088S10.286,0,10.286,0,3.2,16.764,5.91,25.36,15.384,32.956,9.934,32.954Z"
        transform="matrix(0.602, -0.799, 0.799, 0.602, 4.007, 41.034)"/>
  <path class="a" d="M10,43.971c-5.522,0-10,.147-10-12S9.987,0,9.987,0,19.992,19.84,20,31.982,15.524,43.972,10,43.971Z"
        transform="matrix(0.891, -0.454, 0.454, 0.891, 14.899, 20.63)"/>
  <path class="b"
        d="M10.234,43.94c-5.59,0-10.23.785-10.234-11.4S9.71,0,9.71,0,2.222,20.661,4.393,32.892,15.824,43.942,10.234,43.94Z"
        transform="matrix(0.891, -0.454, 0.454, 0.891, 15.463, 20.814)"/>
  <path class="c"
        d="M7.972,55.956c7.192,0,13.022.189,13.025-15.263S7.983,0,7.983,0,0,19.738,0,35.19.78,55.957,7.972,55.956Z"
        transform="translate(49.865 0) rotate(14)"/>
  <path class="b"
        d="M7.926,42.915c4.211.34,13.995-.559,13-16.048A70.689,70.689,0,0,0,13.688,0s8.24,33.145-2.62,39.274C-1.786,46.528.1,23.1.1,28.016.093,43.48,3.716,42.575,7.926,42.915Z"
        transform="translate(46.294 13.795) rotate(14)"/>
  <path class="b"
        d="M1.449,16.472c2.416.792,4.339,1.37,7.251-3.867C10.641,9.589,11.74,5.457,12,0A18.05,18.05,0,0,0,2.683,7.588C-.229,13.239-.968,15.5,1.449,16.472Z"
        transform="matrix(0.966, -0.259, 0.259, 0.966, 42.794, 39.523)"/>
  <path class="d"
        d="M7.443,27.985C3.334,27.983,0,28.078,0,20.35S7.431,0,7.431,0,11.992,9.872,12,17.6,11.551,27.987,7.443,27.985Z"
        transform="matrix(0.799, -0.602, 0.602, 0.799, 25.577, 35.11)"/>
  <path class="b"
        d="M7.507,27.985c-4.144,0-7.5.093-7.507-7.635S7.5,0,7.5,0A155.1,155.1,0,0,0,5.85,18.651C5.853,26.379,11.652,27.987,7.507,27.985Z"
        transform="matrix(0.799, -0.602, 0.602, 0.799, 25.275, 35.207)"/>
  <path class="e" d="M35.194,3C54.417,3,70,1.526,70,.934S47.4,0,28.175,0,0,.838,0,1.43,15.971,3,35.194,3Z"
        transform="translate(12.786 55.665)"/>
</svg>
