<svg xmlns="http://www.w3.org/2000/svg" width="76.249" height="139.153" viewBox="0 0 76.249 139.153">
  <defs>
    <style>.a {
      fill: #37ba9b;
    }

    .b {
      fill: #18908e;
    }

    .c {
      fill: #11767c;
    }

    .d {
      fill: #223851;
    }</style>
  </defs>
  <g transform="translate(-0.402)">
    <g transform="translate(21.388 0)">
      <path class="a"
            d="M10.337,133.57c1.557,0,4.573-1.782,5.59-14,2.229-26.777-.817-46.787,2.237-68.587C19.609,40.674,9.47,0,9.47,0S1.878,17.433.393,28.875c-.7,5.371,2.4,19.5.531,30.45C-1.826,75.445,2.246,88.2,4.262,111.106,6.4,135.375,7.78,133.57,10.337,133.57Z"
            transform="matrix(1, 0.017, -0.017, 1, 2.332, 0)"/>
      <path class="b"
            d="M11.253,119.613c3.428-22.4,2.84-34.182,3.58-44.332,1.552-21.291,1.5-24.507,1.359-32.392C15.914,26.978,6.994,0,6.994,0S9.367,32.078,8.047,60.285C6.87,85.433,4.119,82.451,4.588,109.322c.118,6.747.324,11.874.594,15.688.141,1.99-.762,7.645-5.02,9.23-1.728.643,11.007.851,11.373,1.472.92,1.562,3.517-1.952,2.517-2.8C11.044,130.345,10.9,121.938,11.253,119.613Z"
            transform="matrix(1, 0.017, -0.017, 1, 4.806, 0.043)"/>
    </g>
    <g transform="translate(4.316 19.023) rotate(-8)">
      <path class="a"
            d="M4.514,117.441c.679,0,1.994-1.566,2.436-12.3C7.92,81.593,6.59,64,7.92,44.831,8.549,35.763,4.123,0,4.123,0S.814,15.327.167,25.388C-.136,30.11,1.215,42.537.4,52.161-.8,66.334.981,77.547,1.862,97.69,2.8,119.028,3.4,117.441,4.514,117.441Z"
            transform="matrix(1, 0.017, -0.017, 1, 2.05, 0)"/>
      <path class="b"
            d="M4.844,104.774c1.474-19.617,1.22-29.941,1.538-38.832.667-18.65.642-21.467.582-28.373C6.843,23.632,3,0,3,0s1.025,28.1.459,52.806c-.5,22.028-1.689,19.417-1.485,42.954.051,5.91.141,10.4.257,13.742.061,1.743-.327,6.7-2.161,8.084-.744.563,4.74.746,4.9,1.29.4,1.369,1.514-1.71,1.084-2.456C4.755,114.175,4.691,106.81,4.844,104.774Z"
            transform="matrix(1, 0.017, -0.017, 1, 3.071, 0.009)"/>
    </g>
    <g transform="matrix(0.966, -0.259, 0.259, 0.966, 0.98, 79.933)">
      <path class="a"
            d="M4.514,57.962c.679,0,1.994-.773,2.436-6.073.97-11.619-.36-20.3.969-29.763C8.548,17.651,4.123,0,4.123,0S.814,7.564.167,12.529c-.3,2.331,1.048,8.464.235,13.213-1.2,6.995.579,12.529,1.46,22.47C2.8,58.744,3.4,57.962,4.514,57.962Z"
            transform="matrix(1, 0.017, -0.017, 1, 1.012, 0.003)"/>
      <path class="b"
            d="M5.506,51.71C6.98,42.029,3.36,38.4,3.677,34.015c.667-9.2,1.509-9.1,1.449-12.51C5.006,14.626,3.661,0,3.661,0S.672,16.781.106,28.975c-.5,10.872.936,6.578,1.141,18.194.051,2.917,1.528,5.225,1.645,6.873.061.86-.327,3.3-2.161,3.99-.744.278,4.74.369,4.9.637.4.676,1.514-.844,1.084-1.212C5.417,56.35,5.353,52.715,5.506,51.71Z"
            transform="matrix(1, 0.017, -0.017, 1, 1.363, 0)"/>
    </g>
    <g transform="matrix(0.914, -0.407, 0.407, 0.914, 0, 113.121)">
      <path class="a"
            d="M5.341,26.085c.679,0,2.306-.942,1.69-13.787A51.66,51.66,0,0,0,4.954,0S.757,7.1.11,9.337c-.3,1.049.027,5.879.907,10.353C1.95,24.43,4.226,26.085,5.341,26.085Z"
            transform="matrix(1, 0.017, -0.017, 1, 0.455, 0)"/>
      <path class="b"
            d="M5.5,23.272c1.474-4.357-.317-12.06-.377-13.594A87.8,87.8,0,0,0,3.663,0S.673,7.551.107,13.039C-.4,17.931,1.043,16,1.246,21.227,1.3,22.54,2.563,25.808.729,26.116c-.744.125,4.946,1.382,5.1,1.5a43.425,43.425,0,0,0,5.831,1.348C10.368,28.467,5.351,23.724,5.5,23.272Z"
            transform="matrix(1, 0.017, -0.017, 1, 1.632, 0.019)"/>
    </g>
    <g transform="translate(45.348 36.596) rotate(9)">
      <path class="a"
            d="M8.853,96.9c1.248,0-.492-2,.323-10.853C10.965,66.627,9.161,58.809,11.61,43,12.769,35.521,7.317,0,7.317,0S1.232,12.642.041,20.94c-.559,3.895,4.808,24.707,4.775,34.027-.046,12.827-2.453,13.36-.427,27.8C6.045,94.569,6.8,96.9,8.853,96.9Z"
            transform="matrix(1, 0.017, -0.017, 1, 1.691, 0.692)"/>
      <path class="b"
            d="M5.982,82.192c2.009-28.33,2.142-38.264,4.025-49.777C11.171,25.3,3,0,3,0s1.956,24.013.6,44.526C2.393,62.815-.424,60.647.054,80.188.845,112.535,5.34,91.238,5.982,82.192Z"
            transform="matrix(1, 0.017, -0.017, 1, 5.799, 0)"/>
    </g>
    <g transform="matrix(0.921, 0.391, -0.391, 0.921, 61.005, 92.656)">
      <path class="a"
            d="M6.451,42.727c1.567,0-2.632-2.893-1.608-6.8,2.246-8.563,1.993-10,5.068-16.969C11.367,15.661,4.517,0,4.517,0A59.376,59.376,0,0,1,1.963,9.328c-.7,1.718.464,9.063.423,13.173-.058,5.656-4.089,7.63-1.544,14C2.923,41.7,3.877,42.728,6.451,42.727Z"
            transform="matrix(1, 0.017, -0.017, 1, 0.746, 0.003)"/>
      <path class="b"
            d="M3.318,38.528c-.4-5.659,2.591-16.406,4.3-21.006C8.779,14.383,1.67,0,1.67,0S4.953,10.264,3.6,19.31C2.392,27.375-.424,26.419.054,35.036c.463,8.351,2.107,9.536,5.318,8.106C6.469,42.654,3.464,40.6,3.318,38.528Z"
            transform="matrix(1, 0.017, -0.017, 1, 3.196, 0)"/>
    </g>
    <g transform="translate(57.352 35.422) rotate(14)">
      <path class="a"
            d="M4.408,100.444c-.217-.809,1.7-.328,2.727-9.672,2.248-20.485-.018-28.733,3.059-45.41C11.649,37.472,4.8,0,4.8,0S1.633,17.114.135,25.868c-.7,4.109,1.565,22.288,1.522,32.12C1.6,71.52-1.425,72.082,1.12,87.314,3.2,99.765,4.892,102.249,4.408,100.444Z"
            transform="matrix(1, 0.017, -0.017, 1, 7.158, 0)"/>
      <path class="b"
            d="M14.095,85.416c2.011-29.707,2.145-40.123,4.029-52.2C19.288,25.756,9.79,0,9.79,0s3.281,24.41,1.926,45.92C10.507,65.1,7.691,62.824,8.167,83.315,8.325,90.088,3.123,98.66.093,100.937c-1.288.968,11.234.581,13.21-3.419.775-1.569,1.45-2.522,1.351-4.473C14.516,90.342,13.95,87.547,14.095,85.416Z"
            transform="matrix(1, 0.017, -0.017, 1, 1.769, 0.084)"/>
    </g>
    <path class="c"
          d="M2.04,36.88c1.688,0,3.876-8.971,3.055-10.675-1.369-2.841.6-9.311,0-14.258C4.588,7.759,2.037,0,2.037,0A26.811,26.811,0,0,0,0,9.412,62.716,62.716,0,0,0,.817,20.478C1.494,24.955.352,36.88,2.04,36.88Z"
          transform="translate(21.875 100.494) rotate(-7)"/>
    <path class="c"
          d="M3.263,21.595c4.758-.839-.933-.262-.593-3.364.439-4.006,1.8-9.977,1.2-12.268C3.363,4.023,1.774,0,1.774,0A78.594,78.594,0,0,0,.848,7.9a73.014,73.014,0,0,1-.224,7.359C.24,19.106-1.494,22.434,3.263,21.595Z"
          transform="matrix(0.985, 0.174, -0.174, 0.985, 32.647, 114.838)"/>
    <path class="c"
          d="M2.968,16.341c2.111-.373.809-1.408,1.2-3.755a17.259,17.259,0,0,0-.5-8.075A46.363,46.363,0,0,0,1.263,0S-.655,1.83.236,6.888C.7,9.514.857,16.714,2.968,16.341Z"
          transform="translate(40.09 119.832) rotate(19)"/>
    <path class="d"
          d="M27.89,1.869c15.233,0,27.582-.918,27.582-1.287S37.561,0,22.328,0,0,.522,0,.892,12.657,1.869,27.89,1.869Z"
          transform="translate(0.402 134.951)"/>
  </g>
</svg>
