<?xml version="1.0" encoding="UTF-8"?>
<svg width="24px" height="24px" viewBox="0 0 24 24" version="1.1" xmlns="http://www.w3.org/2000/svg" xmlns:xlink="http://www.w3.org/1999/xlink">
    <title>10. Files and Folders/file_copyright_user</title>
    <g id="10.-Files-and-Folders/file_copyright_user" stroke="none" stroke-width="1" fill="none" fill-rule="evenodd">
        <path d="M7.41666765,11.1666667 C10.4066872,11.1703399 12.8296611,13.5933138 12.8333343,16.5833334 C12.8333343,19.5748758 10.40821,22 7.41666765,22 C4.42512526,22 2.00000099,19.5748758 2.00000099,16.5833334 C2.00000099,13.591791 4.42512526,11.1666667 7.41666765,11.1666667 Z M9.37395741,14.9799502 C8.98218547,13.9794747 7.89381056,13.4410377 6.86083432,13.7366667 C6.17641637,13.9043081 5.63217361,14.4222267 5.43083432,15.0975 C5.11651436,16.0680383 5.54728634,17.1238519 6.45083432,17.5975 C6.52578616,17.6351372 6.56945701,17.715388 6.56035808,17.7987639 C6.55125915,17.8821399 6.49130665,17.9510821 6.41000099,17.9716667 C5.58505914,18.2131843 4.85483954,18.7035868 4.31916765,19.3758334 C4.25064183,19.4619836 4.25633809,19.5855214 4.33250099,19.665 C5.14487164,20.4928178 6.25599455,20.9592017 7.41583432,20.9592017 C8.57567409,20.9592017 9.686797,20.4928178 10.4991677,19.665 C10.5757046,19.5854596 10.5817542,19.4616217 10.5133343,19.375 C9.97890779,18.7036816 9.25057675,18.2133749 8.42750099,17.9708334 C8.34725469,17.9513063 8.28690748,17.8850035 8.27499694,17.8032788 C8.2630864,17.7215542 8.30199938,17.6407852 8.37333432,17.5991667 C9.33238287,17.1147472 9.76572936,15.9804257 9.37395741,14.9799502 Z M18.3216677,1.99999997 C18.7635394,1.99999997 19.1873767,2.17522332 19.499999,2.48750003 L19.499999,2.48750003 L21.5116677,4.49999997 C21.8242499,4.81248792 21.999999,5.23634201 21.999999,5.67833337 L21.999999,5.67833337 L21.999999,17.4158334 C21.999999,18.336308 21.2538089,19.0825 20.3333343,19.0825 L20.3333343,19.0825 L13.887501,19.0825 C13.8205975,19.0825 13.7579703,19.0496084 13.7200181,18.9945111 C13.6820659,18.9394139 13.6736461,18.8691728 13.697501,18.8066667 C13.8368208,18.4121745 13.9383872,18.0053507 14.0008343,17.5916667 C14.015216,17.4919904 14.1001311,17.4176898 14.2008343,17.4166667 L14.2008343,17.4166667 L19.9166677,17.4166667 C20.1467863,17.4166667 20.3333343,17.2301187 20.3333343,17 L20.3333343,17 L20.3333343,5.85083337 C20.3333109,5.74053966 20.2895584,5.63475465 20.2116677,5.5566667 L20.2116677,5.5566667 L18.4433343,3.78833337 C18.3652464,3.71044257 18.2594614,3.66669013 18.1491677,3.6666667 L18.1491677,3.6666667 L9.08333432,3.6666667 C8.85321567,3.6666667 8.66666765,3.85321472 8.66666765,4.08333337 L8.66666765,4.08333337 L8.66666765,9.7991667 C8.66747177,9.85801613 8.64304556,9.9143948 8.59956137,9.9540562 C8.55607718,9.9937176 8.49769502,10.0128674 8.43916765,10.0066667 C8.06666765,9.96583337 7.50666765,9.94333337 7.20166765,9.93750003 C7.08916146,9.93477837 6.99951428,9.84253809 6.99999901,9.73000003 L6.99999901,9.73000003 L6.99999901,3.6666667 C6.99999901,2.74619212 7.74619307,1.99999997 8.66666765,1.99999997 L8.66666765,1.99999997 Z" id="ðŸ–-Color" fill="#5A5A5A"></path>
        <rect id="_Transparent_Rectangle_" x="0" y="0" width="24" height="24"></rect>
    </g>
</svg>