<?xml version="1.0" encoding="UTF-8"?>
<svg width="24px" height="24px" viewBox="0 0 24 24" version="1.1" xmlns="http://www.w3.org/2000/svg" xmlns:xlink="http://www.w3.org/1999/xlink">
    <title>10. Files and Folders/file_copyright_c_1</title>
    <g id="10.-Files-and-Folders/file_copyright_c_1" stroke="none" stroke-width="1" fill="none" fill-rule="evenodd">
        <path d="M7.41662783,11.1665567 C9.42867562,11.1609033 11.2773905,12.2731561 12.2149527,14.0534217 C13.1525149,15.8336873 13.0237693,17.9873534 11.8807945,19.643245 C11.8538297,19.6898398 11.8067456,19.7212605 11.7533704,19.7282793 C11.6999952,19.735298 11.6463886,19.7171179 11.6082945,19.6790783 L11.6082945,19.6790783 L10.8832945,18.9540783 C10.6370364,18.7246126 10.2532864,18.7313834 10.0152763,18.9693935 C9.77726627,19.2074036 9.77049545,19.5911535 9.99996117,19.8374117 L9.99996117,19.8374117 L10.7182945,20.558245 C10.7649692,20.6030203 10.7891996,20.6663065 10.7843622,20.7308043 C10.7795249,20.795302 10.7461258,20.854266 10.6932945,20.8915783 C8.53421727,22.5380465 5.48931331,22.3296939 3.57463494,20.4044721 C1.65995658,18.4792504 1.468328,15.4332482 3.12662783,13.283245 C3.15413797,13.2376964 3.20039168,13.206654 3.25296777,13.198454 C3.30554387,13.1902541 3.35905382,13.205737 3.39912783,13.240745 L3.39912783,13.240745 L4.16246117,14.0040783 C4.41466164,14.2271344 4.79359403,14.2271344 5.0457945,14.0040783 C5.16304078,13.8869989 5.22892309,13.728105 5.22892309,13.5624117 C5.22892309,13.3967183 5.16304078,13.2378244 5.0457945,13.120745 L5.0457945,13.120745 L4.31746117,12.3915783 C4.2821448,12.3521748 4.26634983,12.299016 4.27442002,12.2467212 C4.28249022,12.1944263 4.31357577,12.1485021 4.35912783,12.1215783 C5.25759764,11.5000008 6.3241048,11.1668808 7.41662783,11.1665567 Z M8.24996117,13.6665783 C6.63913065,13.6665783 5.3332945,14.9724145 5.3332945,16.583245 C5.3332945,18.1940755 6.63913065,19.4999117 8.24996117,19.4999117 C8.48007981,19.4999117 8.66662783,19.3133636 8.66662783,19.083245 C8.66662783,18.8531264 8.48007981,18.6665783 8.24996117,18.6665783 C7.09936794,18.6665783 6.16662783,17.7338382 6.16662783,16.583245 C6.16662783,15.4326518 7.09936794,14.4999117 8.24996117,14.4999117 C8.48007981,14.4999117 8.66662783,14.3133636 8.66662783,14.083245 C8.66662783,13.8531264 8.48007981,13.6665783 8.24996117,13.6665783 Z M18.3216278,1.9999116 C18.7634996,1.9999116 19.1873369,2.17513496 19.4999592,2.48741167 L19.4999592,2.48741167 L21.5116278,4.4999116 C21.8242101,4.81239956 21.9999592,5.23625365 21.9999592,5.678245 L21.9999592,5.678245 L21.9999592,17.415745 C21.9999592,18.3362196 21.2537691,19.0824117 20.3332945,19.0824117 L20.3332945,19.0824117 L13.8874612,19.0824117 C13.8205577,19.0824117 13.7579305,19.04952 13.7199783,18.9944228 C13.6820261,18.9393255 13.6736062,18.8690845 13.6974612,18.8065783 C13.8367809,18.4120862 13.9383474,18.0052623 14.0007945,17.5915783 C14.0152244,17.4915921 14.1006075,17.4171918 14.2016278,17.4165783 L14.2016278,17.4165783 L19.9166278,17.4165783 C20.1467465,17.4165783 20.3332945,17.2300303 20.3332945,16.9999116 L20.3332945,16.9999116 L20.3332945,5.850745 C20.3332711,5.74045129 20.2895186,5.63466628 20.2116278,5.55657834 L20.2116278,5.55657834 L18.4432945,3.788245 C18.3652066,3.71035421 18.2594215,3.66660177 18.1491278,3.66657834 L18.1491278,3.66657834 L9.0832945,3.66657834 C8.85317586,3.66657834 8.66662783,3.85312636 8.66662783,4.083245 L8.66662783,4.083245 L8.66662783,9.79907834 C8.66743195,9.85792776 8.64300574,9.91430643 8.59952155,9.95396784 C8.55603736,9.99362924 8.4976552,10.0127791 8.43912783,10.0065783 C8.06662783,9.965745 7.50662783,9.943245 7.20162783,9.93741167 C7.08912164,9.93469 6.99947447,9.84244973 6.9999592,9.72991167 L6.9999592,9.72991167 L6.9999592,3.66657834 C6.9999592,2.74610375 7.74615325,1.9999116 8.66662783,1.9999116 L8.66662783,1.9999116 Z" id="ðŸ–-Color" fill="#5A5A5A"></path>
        <rect id="_Transparent_Rectangle_" x="0" y="0" width="24" height="24"></rect>
    </g>
</svg>