<?xml version="1.0" encoding="UTF-8"?>
<svg width="24px" height="24px" viewBox="0 0 24 24" version="1.1" xmlns="http://www.w3.org/2000/svg" xmlns:xlink="http://www.w3.org/1999/xlink">
    <title>10. Files and Folders/file_text_check</title>
    <g id="10.-Files-and-Folders/file_text_check" stroke="none" stroke-width="1" fill="none" fill-rule="evenodd">
        <path d="M7.41667035,11.1666667 C10.4066899,11.1703399 12.8296638,13.5933138 12.833337,16.5833334 C12.833337,19.5748758 10.4082127,22 7.41667035,22 C4.42512795,22 2.00000368,19.5748758 2.00000368,16.5833334 C2.00000368,13.591791 4.42512795,11.1666667 7.41667035,11.1666667 Z M9.72226322,14.506154 C9.50057537,14.479445 9.28147827,14.5730339 9.14750368,14.7516667 L9.14750368,14.7516667 L6.87083702,17.7875 C6.83463054,17.8359039 6.77918588,17.8661959 6.71889327,17.8705139 C6.65860066,17.874832 6.59940511,17.8527503 6.55667035,17.81 L6.55667035,17.81 L5.47333702,16.7266667 C5.22821231,16.4896908 4.8383924,16.4928932 4.59719404,16.7338642 C4.35599568,16.9748353 4.35242572,17.364652 4.58917035,17.61 L4.58917035,17.61 L5.83917035,18.86 C6.07248044,19.0944878 6.38922254,19.2269381 6.72000368,19.2283334 L6.72000368,19.2283334 L6.81083702,19.2283334 C7.17499437,19.2043753 7.51020533,19.0215329 7.72750368,18.7283334 L7.72750368,18.7283334 L10.1441703,15.5 C10.2814783,15.3230339 10.3099765,15.0864958 10.2222632,14.881154 C10.13455,14.6758122 9.94395106,14.532863 9.72226322,14.506154 Z M18.320837,1.99999997 C18.7631171,1.99999997 19.1873116,2.17554684 19.4999963,2.48833337 L19.4999963,2.48833337 L21.5116703,4.49999997 C21.8242526,4.81248792 21.9999963,5.23634201 21.9999963,5.67833337 L21.9999963,5.67833337 L21.9999963,17.4158334 C21.9999963,18.336308 21.2538116,19.0825 20.333337,19.0825 L20.333337,19.0825 L13.8875037,19.0825 C13.8206002,19.0825 13.757973,19.0496084 13.7200208,18.9945111 C13.6820686,18.9394139 13.6736488,18.8691728 13.6975037,18.8066667 C13.8367227,18.4121443 13.9382868,18.00533 14.000837,17.5916667 C14.0152669,17.4916804 14.1006501,17.4172802 14.2016703,17.4166667 L14.2016703,17.4166667 L19.9166703,17.4166667 C20.146789,17.4166667 20.333337,17.2301187 20.333337,17 L20.333337,17 L20.333337,5.85083337 C20.3333136,5.74053966 20.2895611,5.63475465 20.2116703,5.5566667 L20.2116703,5.5566667 L18.443337,3.78833337 C18.3652491,3.71044257 18.2594641,3.66669013 18.1491703,3.6666667 L18.1491703,3.6666667 L9.08333702,3.6666667 C8.85321837,3.6666667 8.66667035,3.85321472 8.66667035,4.08333337 L8.66667035,4.08333337 L8.66667035,9.80000003 C8.66750425,9.85879114 8.64305424,9.9151102 8.59953355,9.95464548 C8.55601286,9.99418076 8.49761149,10.0131259 8.43917035,10.0066667 C8.06667035,9.96583337 7.50667035,9.94250003 7.20167035,9.93750003 C7.08883792,9.93477336 6.99906054,9.84202813 6.99999632,9.7291667 L6.99999632,9.7291667 L6.99999632,3.6666667 C6.99999632,2.74619212 7.74619577,1.99999997 8.66667035,1.99999997 L8.66667035,1.99999997 Z M15.7500037,11.1666667 C16.210241,11.1666667 16.583337,11.5397627 16.583337,12 C16.583337,12.4602373 16.210241,12.8333334 15.7500037,12.8333334 L15.7500037,12.8333334 L13.0316703,12.8333334 C12.9657777,12.8347137 12.903435,12.8035423 12.8650037,12.75 C12.5824693,12.3507984 12.2572102,11.9836245 11.8950037,11.655 C11.8518968,11.6204428 11.8264013,11.5684968 11.8254065,11.5132566 C11.8244687,11.4580164 11.8481318,11.4052105 11.8900037,11.3691667 C12.0348116,11.2394064 12.2222311,11.1673447 12.4166703,11.1666667 L12.4166703,11.1666667 Z M17.833337,7.4166667 C18.2935743,7.4166667 18.6666703,7.78976274 18.6666703,8.25000003 C18.6666703,8.71023733 18.2935743,9.08333337 17.833337,9.08333337 L17.833337,9.08333337 L12.0000037,9.08333337 C11.5397664,9.08333337 11.1666703,8.71023733 11.1666703,8.25000003 C11.1666703,7.78976274 11.5397664,7.4166667 12.0000037,7.4166667 L12.0000037,7.4166667 Z" id="ðŸ–-Color" fill="#5A5A5A"></path>
        <rect id="_Transparent_Rectangle_" x="0" y="0" width="24" height="24"></rect>
    </g>
</svg>