<svg width="24" height="24" viewBox="0 0 24 24" fill="none" xmlns="http://www.w3.org/2000/svg">
<g id="file_text_cash">
<path id="Shape" fill-rule="evenodd" clip-rule="evenodd" d="M19.5 2.4875L21.5117 4.5C21.8245 4.81269 22.0001 5.23689 22 5.67917V17.4158C22 18.3363 21.2538 19.0825 20.3333 19.0825H13.8875C13.8206 19.0825 13.758 19.0496 13.72 18.9945C13.6821 18.9394 13.6736 18.8692 13.6975 18.8067C13.8367 18.4121 13.9383 18.0053 14.0008 17.5917C14.0153 17.4917 14.1006 17.4173 14.2017 17.4167H19.9167C20.1468 17.4167 20.3333 17.2301 20.3333 17V5.85083C20.3333 5.74054 20.2896 5.63475 20.2117 5.55667L18.4433 3.78833C18.3652 3.71044 18.2595 3.66669 18.1492 3.66667H9.08333C8.85321 3.66667 8.66667 3.85321 8.66667 4.08333V9.8C8.6675 9.85879 8.64305 9.91511 8.59953 9.95465C8.55601 9.99418 8.49761 10.0131 8.43917 10.0067C8.06667 9.96583 7.50667 9.9425 7.20167 9.9375C7.08883 9.93477 6.99906 9.84203 7 9.72917V3.66667C7 2.74619 7.74619 2 8.66667 2H18.3217C18.7635 1.99987 19.1874 2.17522 19.5 2.4875ZM17.8333 9.08333H12C11.5398 9.08333 11.1667 8.71024 11.1667 8.25C11.1667 7.78976 11.5398 7.41667 12 7.41667H17.8333C18.2936 7.41667 18.6667 7.78976 18.6667 8.25C18.6667 8.71024 18.2936 9.08333 17.8333 9.08333ZM16.5833 12C16.5833 11.5398 16.2102 11.1667 15.75 11.1667H12.4167C12.2017 11.1678 11.9962 11.2555 11.8467 11.41C11.7943 11.4767 11.8027 11.5726 11.8658 11.6292C12.2401 11.9632 12.5756 12.3383 12.8658 12.7475C12.9043 12.801 12.9666 12.8322 13.0325 12.8308H15.75C16.2093 12.8308 16.582 12.4593 16.5833 12ZM7.41667 11.1667C4.42512 11.1667 2 13.5918 2 16.5833C2 19.5749 4.42512 22 7.41667 22C10.4082 22 12.8333 19.5749 12.8333 16.5833C12.8297 13.5933 10.4067 11.1703 7.41667 11.1667ZM8.15583 19.6667C8.08139 19.6858 8.03257 19.757 8.04167 19.8333V20.1283C8.04167 20.4735 7.76184 20.7533 7.41667 20.7533C7.07149 20.7533 6.79167 20.4735 6.79167 20.1283V19.85C6.78995 19.775 6.73001 19.7143 6.655 19.7117H6.16667C5.82149 19.7117 5.54167 19.4318 5.54167 19.0867C5.54167 18.7415 5.82149 18.4617 6.16667 18.4617H7.86083C8.09681 18.4611 8.29932 18.2934 8.344 18.0617C8.38867 17.83 8.263 17.5991 8.04417 17.5108L6.325 16.8192C5.60464 16.5342 5.16099 15.8057 5.23846 15.0349C5.31593 14.2641 5.89567 13.6384 6.65833 13.5025V13.4958C6.7403 13.4843 6.79971 13.4118 6.795 13.3292V13.0375C6.795 12.6923 7.07482 12.4125 7.42 12.4125C7.76518 12.4125 8.045 12.6923 8.045 13.0375V13.3167C8.04767 13.3928 8.10969 13.4533 8.18583 13.4542H8.66667C9.01184 13.4542 9.29167 13.734 9.29167 14.0792C9.29167 14.4243 9.01184 14.7042 8.66667 14.7042H6.9725C6.73652 14.7048 6.53401 14.8724 6.48934 15.1041C6.44466 15.3358 6.57033 15.5667 6.78917 15.655L8.50833 16.3433C9.23529 16.6278 9.68225 17.3632 9.59992 18.1395C9.51758 18.9157 8.92628 19.5411 8.15583 19.6667Z" fill="#5A5A5A"/>
</g>
</svg>
