<svg width="24" height="24" viewBox="0 0 24 24" fill="none" xmlns="http://www.w3.org/2000/svg">
<g id="file_check">
<path id="Shape" fill-rule="evenodd" clip-rule="evenodd" d="M19.5 2.48833L21.5117 4.5C21.8242 4.81249 21.9999 5.23634 22 5.67833V17.4158C22 18.3363 21.2538 19.0825 20.3333 19.0825H13.8875C13.8206 19.0825 13.758 19.0496 13.72 18.9945C13.6821 18.9394 13.6736 18.8692 13.6975 18.8067C13.8367 18.4121 13.9383 18.0053 14.0008 17.5917C14.0153 17.4917 14.1006 17.4173 14.2017 17.4167H19.9167C20.1468 17.4167 20.3333 17.2301 20.3333 17V5.85083C20.3333 5.74054 20.2896 5.63475 20.2117 5.55667L18.4433 3.78833C18.3652 3.71044 18.2595 3.66669 18.1492 3.66667H9.08333C8.85321 3.66667 8.66667 3.85321 8.66667 4.08333V9.8C8.6675 9.85879 8.64305 9.91511 8.59953 9.95465C8.55601 9.99418 8.49761 10.0131 8.43917 10.0067C8.06667 9.965 7.50667 9.9425 7.20167 9.9375C7.08883 9.93477 6.99906 9.84203 7 9.72917V3.66667C7 2.74619 7.74619 2 8.66667 2H18.3208C18.7631 1.99987 19.1873 2.17555 19.5 2.48833ZM7.41667 11.1667C4.42512 11.1667 2 13.5918 2 16.5833C2 19.5749 4.42512 22 7.41667 22C10.4082 22 12.8333 19.5749 12.8333 16.5833C12.8297 13.5933 10.4067 11.1703 7.41667 11.1667ZM10.1442 15.5L7.7275 18.7283C7.5102 19.0215 7.17499 19.2044 6.81083 19.2283H6.72083C6.38976 19.2272 6.07268 19.0947 5.83917 18.86L4.58917 17.61C4.35242 17.3647 4.35599 16.9748 4.59719 16.7339C4.83839 16.4929 5.22821 16.4897 5.47333 16.7267L6.55667 17.81C6.5994 17.8528 6.6586 17.8748 6.71889 17.8705C6.77918 17.8662 6.83463 17.8359 6.87083 17.7875L9.1475 14.7517C9.28147 14.573 9.50057 14.4794 9.72226 14.5062C9.94395 14.5329 10.1345 14.6758 10.2223 14.8812C10.31 15.0865 10.2815 15.323 10.1475 15.5017L10.1442 15.5Z" fill="#5A5A5A"/>
</g>
</svg>
