<svg width="24" height="24" viewBox="0 0 24 24" fill="none" xmlns="http://www.w3.org/2000/svg">
<g id="file_horizontal_image">
<path id="Shape" fill-rule="evenodd" clip-rule="evenodd" d="M21.7558 8.4225C21.9121 8.57874 22 8.79067 22 9.01167V18.6667C22 19.5871 21.2538 20.3333 20.3333 20.3333H3.66667C2.74619 20.3333 2 19.5871 2 18.6667V5.33333C2 4.41286 2.74619 3.66667 3.66667 3.66667H16.655C16.876 3.66671 17.0879 3.75454 17.2442 3.91083L21.7558 8.4225ZM19.9167 18.6667C20.1468 18.6667 20.3333 18.4801 20.3333 18.25V9.52917C20.3333 9.41887 20.2896 9.31309 20.2117 9.235L16.4317 5.455C16.3536 5.37711 16.2478 5.33336 16.1375 5.33333H4.08333C3.85321 5.33333 3.66667 5.51988 3.66667 5.75V18.25C3.66667 18.4801 3.85321 18.6667 4.08333 18.6667H19.9167ZM10.5825 8.66667C10.5825 9.58714 9.83631 10.3333 8.91583 10.3333C7.99536 10.3333 7.24917 9.58714 7.24917 8.66667C7.24917 7.74619 7.99536 7 8.91583 7C9.83631 7 10.5825 7.74619 10.5825 8.66667ZM13.0825 10.7025C13.2262 10.7025 13.3597 10.7765 13.4358 10.8983L17.0517 16.6808C17.092 16.7451 17.0943 16.8262 17.0575 16.8926C17.0208 16.9589 16.9509 17.0001 16.875 17H6.79167C6.7158 17.0001 6.64587 16.9589 6.60913 16.8926C6.57239 16.8262 6.57464 16.7451 6.615 16.6808L8.9275 12.9817C9.00364 12.8598 9.13717 12.7858 9.28083 12.7858C9.4245 12.7858 9.55803 12.8598 9.63417 12.9817L10.3542 14.1333C10.3925 14.1938 10.4592 14.2305 10.5308 14.2305C10.6025 14.2305 10.6691 14.1938 10.7075 14.1333L12.7292 10.8983C12.8053 10.7765 12.9388 10.7025 13.0825 10.7025Z" fill="#5A5A5A"/>
</g>
</svg>
