<?xml version="1.0" encoding="UTF-8"?>
<svg width="24px" height="24px" viewBox="0 0 24 24" version="1.1" xmlns="http://www.w3.org/2000/svg" xmlns:xlink="http://www.w3.org/1999/xlink">
    <title>10. Files and Folders/file_text_shield</title>
    <g id="10.-Files-and-Folders/file_text_shield" stroke="none" stroke-width="1" fill="none" fill-rule="evenodd">
        <path d="M7.39917021,11.1666667 C8.99142937,11.1815927 10.5688076,11.474901 12.0600035,12.0333334 C12.5295247,12.2378546 12.8331871,12.7012015 12.8333369,13.2133334 L12.8333369,13.2133334 L12.8333369,16.0408334 C12.8333369,18.4016667 11.0400035,20.7333334 8.47250354,21.7116667 C8.13452102,21.8703008 7.77114805,21.967915 7.39917021,22 C7.02690837,21.9680118 6.66324505,21.8703954 6.32500354,21.7116667 C3.87106809,20.867362 2.16521504,18.6306895 2.00000354,16.0408334 L2.00000354,16.0408334 L2.00000354,13.2133334 C2.00015335,12.7012015 2.30381574,12.2378546 2.77333687,12.0333334 C4.25163736,11.4722382 5.81801444,11.1787718 7.39917021,11.1666667 Z M18.3216702,1.99999997 C18.763542,1.99999997 19.1873793,2.17522332 19.4999965,2.48750003 L19.4999965,2.48750003 L21.5116702,4.49999997 C21.8244567,4.81269208 21.9999965,5.23688658 21.9999965,5.6791667 L21.9999965,5.6791667 L21.9999965,17.4158334 C21.9999965,18.336308 21.2538115,19.0825 20.3333369,19.0825 L20.3333369,19.0825 L13.6191702,19.0825 C13.548475,19.0822355 13.4829478,19.0454174 13.4459532,18.9851739 C13.4089586,18.9249304 13.4057621,18.849836 13.4375035,18.7866667 C13.6228117,18.3959665 13.7706944,17.9885914 13.8791702,17.57 C13.901406,17.4799271 13.9822266,17.4166463 14.0750035,17.4166667 L14.0750035,17.4166667 L19.9166702,17.4166667 C20.1467889,17.4166667 20.3333369,17.2301187 20.3333369,17 L20.3333369,17 L20.3333369,5.85083337 C20.3333134,5.74053966 20.289561,5.63475465 20.2116702,5.5566667 L20.2116702,5.5566667 L18.4433369,3.78833337 C18.3652489,3.71044257 18.2594639,3.66669013 18.1491702,3.6666667 L18.1491702,3.6666667 L9.08333687,3.6666667 C8.85321823,3.6666667 8.66667021,3.85321472 8.66667021,4.08333337 L8.66667021,4.08333337 L8.66667021,9.7616667 C8.66740329,9.81794379 8.64496652,9.87204706 8.60462145,9.91128893 C8.56427639,9.95053081 8.50957203,9.97145936 8.45333687,9.9691667 C8.07417021,9.94750003 7.51000354,9.93000003 7.20333687,9.93000003 C7.08984997,9.92817317 6.9990735,9.8351645 6.99999646,9.7216667 L6.99999646,9.7216667 L6.99999646,3.6666667 C6.99999646,2.74619212 7.74619563,1.99999997 8.66667021,1.99999997 L8.66667021,1.99999997 Z M7.41667021,12.625 C7.07149224,12.625 6.79167021,12.9048221 6.79167021,13.25 L6.79167021,13.25 L6.79167021,14.9166667 C6.79167021,15.031726 6.6983962,15.125 6.58333687,15.125 L6.58333687,15.125 L4.91667021,15.125 C4.57149224,15.125 4.29167021,15.4048221 4.29167021,15.75 C4.29167021,16.095178 4.57149224,16.375 4.91667021,16.375 L4.91667021,16.375 L6.58333687,16.375 C6.6983962,16.375 6.79167021,16.468274 6.79167021,16.5833334 L6.79167021,16.5833334 L6.79167021,18.25 C6.79167021,18.595178 7.07149224,18.875 7.41667021,18.875 C7.76184818,18.875 8.04167021,18.595178 8.04167021,18.25 L8.04167021,18.25 L8.04167021,16.5833334 C8.04167021,16.468274 8.13494422,16.375 8.25000354,16.375 L8.25000354,16.375 L9.91667021,16.375 C10.2618482,16.375 10.5416702,16.095178 10.5416702,15.75 C10.5416702,15.4048221 10.2618482,15.125 9.91667021,15.125 L9.91667021,15.125 L8.25000354,15.125 C8.13494422,15.125 8.04167021,15.031726 8.04167021,14.9166667 L8.04167021,14.9166667 L8.04167021,13.25 C8.04167021,12.9048221 7.76184818,12.625 7.41667021,12.625 Z M15.7500035,11.166666 C16.2102408,11.166666 16.5833369,11.5397627 16.5833369,12 C16.5833369,12.4602373 16.2102408,12.8333334 15.7500035,12.8333334 L15.7500035,12.8333334 L14.2300035,12.8333334 C14.1324031,12.8322765 14.0490827,12.7625523 14.0308369,12.666666 C13.9453867,12.2380179 13.7501304,11.838891 13.4641702,11.5083334 C13.4102104,11.448005 13.3967987,11.3615749 13.4299384,11.287731 C13.4630781,11.213887 13.5365645,11.1664551 13.6175035,11.166666 L13.6175035,11.166666 Z M17.8333369,7.4166667 C18.2935742,7.4166667 18.6666702,7.78976274 18.6666702,8.25000003 C18.6666702,8.71023733 18.2935742,9.08333337 17.8333369,9.08333337 L17.8333369,9.08333337 L12.0000035,9.08333337 C11.5397662,9.08333337 11.1666702,8.71023733 11.1666702,8.25000003 C11.1666702,7.78976274 11.5397662,7.4166667 12.0000035,7.4166667 L12.0000035,7.4166667 Z" id="ðŸ–-Color" fill="#5A5A5A"></path>
        <rect id="_Transparent_Rectangle_" x="0" y="0" width="24" height="24"></rect>
    </g>
</svg>