<?xml version="1.0" encoding="UTF-8"?>
<svg width="24px" height="24px" viewBox="0 0 24 24" version="1.1" xmlns="http://www.w3.org/2000/svg" xmlns:xlink="http://www.w3.org/1999/xlink">
    <title>10. Files and Folders/file_text_cash</title>
    <g id="10.-Files-and-Folders/file_text_cash" stroke="none" stroke-width="1" fill="none" fill-rule="evenodd">
        <path d="M7.41667035,11.1666667 C10.4066899,11.1703399 12.8296638,13.5933138 12.833337,16.5833334 C12.833337,19.5748758 10.4082127,22 7.41667035,22 C4.42512795,22 2.00000368,19.5748758 2.00000368,16.5833334 C2.00000368,13.591791 4.42512795,11.1666667 7.41667035,11.1666667 Z M7.42000368,12.4125 C7.07482571,12.4125 6.79500368,12.6923221 6.79500368,13.0375 L6.79500368,13.0375 L6.79500368,13.3291667 C6.79971624,13.4118075 6.74029988,13.4842664 6.65833702,13.4958334 L6.65833702,13.4958334 C5.89567717,13.6384052 5.31592897,14.2640916 5.23846251,15.0348828 C5.16099605,15.8056741 5.6046411,16.5342141 6.32500368,16.8191667 L6.32500368,16.8191667 L8.04417035,17.5108334 C8.26300818,17.5991244 8.38867723,17.8300263 8.34400055,18.0617358 C8.29932387,18.2934453 8.09681358,18.46107 7.86083702,18.4616667 L7.86083702,18.4616667 L6.16667035,18.4616667 C5.82149238,18.4616667 5.54167035,18.7414887 5.54167035,19.0866667 C5.54167035,19.4318447 5.82149238,19.7116667 6.16667035,19.7116667 L6.16667035,19.7116667 L6.65500368,19.7116667 C6.73001047,19.7142959 6.78995047,19.7749669 6.79167035,19.85 L6.79167035,19.85 L6.79167035,20.1283334 C6.79167035,20.4735113 7.07149238,20.7533334 7.41667035,20.7533334 C7.76184832,20.7533334 8.04167035,20.4735113 8.04167035,20.1283334 L8.04167035,20.1283334 L8.04167035,19.8333334 C8.03257808,19.7570167 8.08138978,19.6857588 8.15583702,19.6666667 C8.92628342,19.5410687 9.5175839,18.9157392 9.59992065,18.1394769 C9.6822574,17.3632146 9.23529303,16.6277582 8.50833702,16.3433334 L8.50833702,16.3433334 L6.78917035,15.655 C6.57033252,15.566709 6.44466347,15.3358071 6.48934015,15.1040976 C6.53401683,14.8723881 6.73652711,14.7047634 6.97250368,14.7041667 L6.97250368,14.7041667 L8.66667035,14.7041667 C9.01184832,14.7041667 9.29167035,14.4243447 9.29167035,14.0791667 C9.29167035,13.7339887 9.01184832,13.4541667 8.66667035,13.4541667 L8.66667035,13.4541667 L8.18583702,13.4541667 C8.10969537,13.4533228 8.04767081,13.3927663 8.04500368,13.3166667 L8.04500368,13.3166667 L8.04500368,13.0375 C8.04500368,12.6923221 7.76518165,12.4125 7.42000368,12.4125 Z M18.3216703,1.99999997 C18.7635421,1.99999997 19.1873794,2.17522332 19.4999963,2.48750003 L19.4999963,2.48750003 L21.5116703,4.49999997 C21.8244569,4.81269208 21.9999963,5.23688658 21.9999963,5.6791667 L21.9999963,5.6791667 L21.9999963,17.4158334 C21.9999963,18.336308 21.2538116,19.0825 20.333337,19.0825 L20.333337,19.0825 L13.8875037,19.0825 C13.8206002,19.0825 13.757973,19.0496084 13.7200208,18.9945111 C13.6820686,18.9394139 13.6736488,18.8691728 13.6975037,18.8066667 C13.8367227,18.4121443 13.9382868,18.00533 14.000837,17.5916667 C14.0152669,17.4916804 14.1006501,17.4172802 14.2016703,17.4166667 L14.2016703,17.4166667 L19.9166703,17.4166667 C20.146789,17.4166667 20.333337,17.2301187 20.333337,17 L20.333337,17 L20.333337,5.85083337 C20.3333136,5.74053966 20.2895611,5.63475465 20.2116703,5.5566667 L20.2116703,5.5566667 L18.443337,3.78833337 C18.3652491,3.71044257 18.2594641,3.66669013 18.1491703,3.6666667 L18.1491703,3.6666667 L9.08333702,3.6666667 C8.85321837,3.6666667 8.66667035,3.85321472 8.66667035,4.08333337 L8.66667035,4.08333337 L8.66667035,9.80000003 C8.66750425,9.85879114 8.64305424,9.9151102 8.59953355,9.95464548 C8.55601286,9.99418076 8.49761149,10.0131259 8.43917035,10.0066667 C8.06667035,9.96583337 7.50667035,9.94250003 7.20167035,9.93750003 C7.08883792,9.93477336 6.99906054,9.84202813 6.99999632,9.7291667 L6.99999632,9.7291667 L6.99999632,3.6666667 C6.99999632,2.74619212 7.74619577,1.99999997 8.66667035,1.99999997 L8.66667035,1.99999997 Z M15.7500037,11.1666667 C16.210241,11.1666667 16.583337,11.5397627 16.583337,12 C16.5819592,12.4592607 16.2092664,12.8308354 15.7500037,12.8308334 L15.7500037,12.8308334 L13.0325037,12.8308334 C12.966611,12.8322137 12.9042684,12.8010423 12.865837,12.7475 C12.5755872,12.3383289 12.2401358,11.9631823 11.865837,11.6291667 C11.8026672,11.5725888 11.7942801,11.476684 11.8466703,11.41 C11.9962031,11.2555176 12.2016737,11.1678021 12.4166703,11.1666667 L12.4166703,11.1666667 Z M17.833337,7.4166667 C18.2935743,7.4166667 18.6666703,7.78976274 18.6666703,8.25000003 C18.6666703,8.71023733 18.2935743,9.08333337 17.833337,9.08333337 L17.833337,9.08333337 L12.0000037,9.08333337 C11.5397664,9.08333337 11.1666703,8.71023733 11.1666703,8.25000003 C11.1666703,7.78976274 11.5397664,7.4166667 12.0000037,7.4166667 L12.0000037,7.4166667 Z" id="ðŸ–-Color" fill="#5A5A5A"></path>
        <rect id="_Transparent_Rectangle_" x="0" y="0" width="24" height="24"></rect>
    </g>
</svg>