<svg width="24" height="24" viewBox="0 0 24 24" fill="none" xmlns="http://www.w3.org/2000/svg">
<g id="file_double_1_alternate">
<path id="Shape" fill-rule="evenodd" clip-rule="evenodd" d="M19.8902 5.32001L17.227 2.50047C16.9073 2.17829 16.4716 1.99798 16.0177 2.00001H8.58886C7.64757 2.00103 6.88477 2.76384 6.88374 3.70512V5.25582H5.33304C4.39176 5.25685 3.62896 6.01965 3.62793 6.96094V20.2949C3.62896 21.2362 4.39176 21.999 5.33304 22H15.4112C16.3525 21.999 17.1153 21.2362 17.1163 20.2949V18.7442H18.667C19.6083 18.7432 20.3711 17.9804 20.3721 17.0391V6.51163C20.3764 6.06614 20.203 5.63729 19.8902 5.32001ZM14.7907 20.1395H5.95351C5.69663 20.1395 5.48839 19.9313 5.48839 19.6744V7.5814C5.48839 7.32452 5.69663 7.11628 5.95351 7.11628H6.65118C6.77962 7.11628 6.88374 7.2204 6.88374 7.34884V17.0391C6.88374 17.9808 7.64715 18.7442 8.58886 18.7442H15.0233C15.1517 18.7442 15.2558 18.8483 15.2558 18.9767V19.6744C15.2558 19.9313 15.0476 20.1395 14.7907 20.1395ZM18.0465 16.8837H9.20932C8.95244 16.8837 8.7442 16.6755 8.7442 16.4186V4.32559C8.7442 4.06871 8.95244 3.86047 9.20932 3.86047H15.7535C15.8813 3.86068 16.0035 3.9135 16.0912 4.00652L18.3842 6.43442C18.4658 6.52062 18.5114 6.63477 18.5116 6.75349V16.4186C18.5116 16.6755 18.3034 16.8837 18.0465 16.8837Z" fill="#5A5A5A"/>
</g>
</svg>
