<?xml version="1.0" encoding="UTF-8"?>
<svg width="24px" height="24px" viewBox="0 0 24 24" version="1.1" xmlns="http://www.w3.org/2000/svg" xmlns:xlink="http://www.w3.org/1999/xlink">
    <title>10. Files and Folders/file_double_1</title>
    <g id="10.-Files-and-Folders/file_double_1" stroke="none" stroke-width="1" fill="none" fill-rule="evenodd">
        <path d="M4.56486516,5.07865863 C5.13125296,5.07865863 5.590401,5.53780667 5.590401,6.10419447 L5.590401,6.10419447 L5.590401,19.4361604 C5.590401,19.7193543 5.81997501,19.9489283 6.10316892,19.9489283 L6.10316892,19.9489283 L17.3840632,19.9489283 C17.950451,19.9489283 18.409599,20.4080764 18.409599,20.9744642 C18.409599,21.540852 17.950451,22 17.3840632,22 L17.3840632,22 L5.590401,22 C4.45762539,22 3.53932932,21.0817039 3.53932932,19.9489283 L3.53932932,19.9489283 L3.53932932,6.10419447 C3.53932932,5.53780667 3.99847735,5.07865863 4.56486516,5.07865863 Z M16.635422,2 C16.8763685,2 17.1074078,2.09588996 17.2774074,2.26663936 L17.2774074,2.26663936 L20.1940314,5.13813971 C20.3647449,5.30858291 20.4606707,5.53991637 20.4606707,5.78115068 L20.4606707,5.78115068 L20.4606707,17.3850887 C20.4606707,17.8869083 20.0538655,18.2937135 19.5520459,18.2937135 L19.5520459,18.2937135 L8.03732951,18.2937135 C7.53550992,18.2937135 7.12870476,17.8869083 7.12870476,17.3850887 L7.12870476,17.3850887 L7.12870476,2.90862479 C7.12870476,2.4068052 7.53550992,2 8.03732951,2 L8.03732951,2 Z" id="ðŸ–-Color" fill="#5A5A5A"></path>
        <rect id="_Transparent_Rectangle_" x="0" y="0" width="24" height="24"></rect>
    </g>
</svg>