<svg width="24" height="24" viewBox="0 0 24 24" fill="none" xmlns="http://www.w3.org/2000/svg">
<g id="file_text_warning">
<path id="Shape" fill-rule="evenodd" clip-rule="evenodd" d="M21.5111 4.5L19.4994 2.4875C19.1866 2.17502 18.7624 1.99965 18.3202 2H8.66608C7.7456 2 6.99941 2.74619 6.99941 3.66667V10.1825C6.99837 10.2927 7.08434 10.3842 7.19441 10.39C7.60015 10.4101 8.00293 10.4701 8.39691 10.5692C8.45981 10.5891 8.52846 10.5778 8.58167 10.5388C8.63488 10.4998 8.66624 10.4377 8.66608 10.3717V4.08333C8.66608 3.85322 8.85263 3.66667 9.08274 3.66667H18.1477C18.2583 3.66647 18.3645 3.71024 18.4427 3.78833L20.2102 5.55667C20.2884 5.63462 20.3325 5.74042 20.3327 5.85083V17C20.3327 17.2301 20.1462 17.4167 19.9161 17.4167H12.9627C12.8899 17.4168 12.8224 17.455 12.7848 17.5173C12.7471 17.5797 12.7448 17.6571 12.7786 17.7217L13.4344 18.9717C13.4703 19.0402 13.5412 19.0832 13.6186 19.0833H20.3327C21.2532 19.0833 21.9994 18.3371 21.9994 17.4167V5.67917C21.9995 5.23689 21.8239 4.81269 21.5111 4.5ZM17.8327 7.41667C18.293 7.41667 18.6661 7.78976 18.6661 8.25C18.6661 8.71024 18.293 9.08333 17.8327 9.08333H11.9994C11.5392 9.08333 11.1661 8.71024 11.1661 8.25C11.1661 7.78976 11.5392 7.41667 11.9994 7.41667H17.8327ZM11.5827 12C11.5827 11.5398 11.9558 11.1667 12.4161 11.1667H15.7494C16.2096 11.1667 16.5827 11.5398 16.5827 12C16.5827 12.4602 16.2096 12.8333 15.7494 12.8333H12.4161C11.9558 12.8333 11.5827 12.4602 11.5827 12ZM7.41566 11.5835C7.86286 11.5835 8.27344 11.8306 8.48274 12.2258L12.6952 20.2542C12.8898 20.6252 12.8749 21.0711 12.6561 21.4283C12.4347 21.783 12.0466 21.9989 11.6286 22H3.20274C2.78384 21.9982 2.39548 21.7805 2.17524 21.4242C1.95643 21.067 1.94156 20.621 2.13608 20.25L6.34858 12.2258C6.55788 11.8306 6.96846 11.5835 7.41566 11.5835ZM7.41524 14.7083C7.07007 14.7083 6.79024 14.9882 6.79024 15.3333V17.8333C6.79024 18.1785 7.07007 18.4583 7.41524 18.4583C7.76042 18.4583 8.04024 18.1785 8.04024 17.8333V15.3333C8.04024 14.9882 7.76042 14.7083 7.41524 14.7083ZM7.41524 20.5417C6.95501 20.5417 6.58191 20.1686 6.58191 19.7083C6.58191 19.2481 6.95501 18.875 7.41524 18.875C7.87548 18.875 8.24858 19.2481 8.24858 19.7083C8.24858 20.1682 7.87599 20.5412 7.41608 20.5417H7.41524Z" fill="#5A5A5A"/>
</g>
</svg>
