<?xml version="1.0" encoding="UTF-8"?>
<svg width="24px" height="24px" viewBox="0 0 24 24" version="1.1" xmlns="http://www.w3.org/2000/svg" xmlns:xlink="http://www.w3.org/1999/xlink">
    <title>10. Files and Folders/file_bookmark</title>
    <g id="10.-Files-and-Folders/file_bookmark" stroke="none" stroke-width="1" fill="none" fill-rule="evenodd">
        <path d="M20.3333333,7.27333333 C20.3333333,6.83134198 20.1575823,6.40748789 19.845,6.095 L16.2383333,2.48833333 C15.9258454,2.17575104 15.5019914,2 15.06,2 L11.7916667,2 C11.6766073,2 11.5833333,2.09327401 11.5833333,2.20833333 L11.5833333,11.5 C11.5831487,11.5840134 11.5325196,11.6596946 11.4549363,11.6919299 C11.377353,11.7241653 11.2879996,11.7066458 11.2283333,11.6475 L9.645,10.0641667 C9.60591489,10.0249826 9.55284469,10.0029609 9.4975,10.0029609 C9.44215531,10.0029609 9.38908511,10.0249826 9.35,10.0641667 L7.76666667,11.6475 C7.70734012,11.7072876 7.61766631,11.7250905 7.54,11.6925 C7.46435623,11.6584644 7.41597167,11.5829453 7.41666667,11.5 L7.41666667,2.20833333 C7.41667033,2.09392175 7.32440792,2.00091529 7.21,2 L5.33333333,2 C4.41285875,2 3.66666667,2.74619208 3.66666667,3.66666667 L3.66666667,20.3333333 C3.66666667,21.2538079 4.41285875,22 5.33333333,22 L18.6666667,22 C19.5871412,22 20.3333333,21.2538079 20.3333333,20.3333333 L20.3333333,7.27333333 Z" id="ðŸ–-Color" fill="#5A5A5A"></path>
        <rect id="_Transparent_Rectangle_" x="0" y="0" width="24" height="24"></rect>
    </g>
</svg>