<?xml version="1.0" encoding="UTF-8"?>
<svg width="24px" height="24px" viewBox="0 0 24 24" version="1.1" xmlns="http://www.w3.org/2000/svg" xmlns:xlink="http://www.w3.org/1999/xlink">
    <title>10. Files and Folders/file_edit</title>
    <g id="10.-Files-and-Folders/file_edit" stroke="none" stroke-width="1" fill="none" fill-rule="evenodd">
        <path d="M2.67628462,18.7243145 C2.74981462,18.7021858 2.82955611,18.7222988 2.88379466,18.7766543 L2.88379466,18.7766543 L5.22546133,21.1166543 C5.27983032,21.171009 5.29984584,21.2508887 5.27753093,21.3244582 C5.25521602,21.3980277 5.19419789,21.4533284 5.11879466,21.468321 L5.11879466,21.468321 L2.499628,21.9916543 C2.47223185,21.997428 2.44429163,22.0002221 2.41629466,22.0000013 C2.29130619,21.9997632 2.17302028,21.9434415 2.09405753,21.8465547 C2.01509478,21.7496678 1.98379673,21.622451 2.00879466,21.4999876 L2.00879466,21.4999876 L2.532128,18.8824876 C2.54735844,18.8072256 2.60275462,18.7464432 2.67628462,18.7243145 Z M9.02379466,11.8874876 C9.82077769,11.0564307 11.115392,10.9580602 12.0287947,11.6591543 C12.5063163,12.0496444 12.7965337,12.6237851 12.8278051,13.2398463 C12.8590764,13.8559076 12.6284878,14.4564845 12.1929613,14.893321 L12.1929613,14.893321 L6.627128,20.4591543 C6.58818541,20.498288 6.53525309,20.5202892 6.48004466,20.5202892 C6.42483623,20.5202892 6.37190392,20.498288 6.33296133,20.4591543 L6.33296133,20.4591543 L3.54046133,17.6649876 C3.45940906,17.5836814 3.45940906,17.4521272 3.54046133,17.370821 L3.54046133,17.370821 Z M18.319628,1.99998713 C18.7621969,1.99963972 19.1867319,2.17533005 19.4996274,2.48832098 L19.4996274,2.48832098 L21.5104613,4.49998713 C21.8235535,4.81254312 21.9996274,5.23675448 21.9996274,5.67915431 L21.9996274,5.67915431 L21.9996274,17.4166543 C21.9996274,18.3371289 21.2534359,19.0833269 20.3329613,19.0833269 L20.3329613,19.0833269 L10.2762947,19.0833269 C10.1918852,19.0839559 10.1155038,19.0333939 10.0831157,18.9554429 C10.0507276,18.8774918 10.0687887,18.7876897 10.1287947,18.728321 L10.1287947,18.728321 L11.317128,17.5391543 C11.3950796,17.4609579 11.5008815,17.4168988 11.6112947,17.4166543 L11.6112947,17.4166543 L19.9162947,17.4166543 C20.1464133,17.4166543 20.3329613,17.2301063 20.3329613,16.9999871 L20.3329613,16.9999871 L20.3329613,5.85165431 C20.3329379,5.7409522 20.2888619,5.63481 20.2104613,5.55665431 L20.2104613,5.55665431 L18.442128,3.78915431 C18.3641763,3.71095791 18.2583745,3.6668988 18.1479613,3.66665431 L18.1479613,3.66665431 L9.08296133,3.66665431 C8.85284269,3.66665431 8.66629466,3.85320233 8.66629466,4.08332098 L8.66629466,4.08332098 L8.66629466,10.3691543 C8.66627559,10.4874386 8.61598391,10.6001404 8.52796133,10.6791543 C8.26796133,10.9191543 7.714628,11.450821 7.35129466,11.803321 C7.2908144,11.8606589 7.20198278,11.8764363 7.12545679,11.8434322 C7.0489308,11.8104281 6.999437,11.7349937 6.99962745,11.6516543 L6.99962745,11.6516543 L6.99962745,3.66665431 C6.99962745,2.74617973 7.74582008,1.99998713 8.66629466,1.99998713 L8.66629466,1.99998713 Z" id="ðŸ–-Color" fill="#5A5A5A"></path>
        <rect id="_Transparent_Rectangle_" x="2.00037255" y="1.99998661" width="24" height="24"></rect>
    </g>
</svg>