<?xml version="1.0" encoding="UTF-8"?>
<svg width="24px" height="24px" viewBox="0 0 24 24" version="1.1" xmlns="http://www.w3.org/2000/svg" xmlns:xlink="http://www.w3.org/1999/xlink">
    <title>10. Files and Folders/file_stack</title>
    <g id="10.-Files-and-Folders/file_stack" stroke="none" stroke-width="1" fill="none" fill-rule="evenodd">
        <path d="M4.49996459,7.69417644 C4.96020189,7.69417644 5.33329793,8.06727248 5.33329793,8.52750977 L5.33329793,8.52750977 L5.33329793,19.9166764 C5.33329793,20.1467951 5.51984595,20.3333431 5.74996459,20.3333431 L5.74996459,20.3333431 L14.2224646,20.3333431 C14.6827019,20.3333431 15.0557979,20.7064391 15.0557979,21.1666764 C15.0557979,21.6269137 14.6827019,22.0000098 14.2224646,22.0000098 L14.2224646,22.0000098 L5.19413126,22.0000098 C4.35051631,22.0000098 3.66663126,21.3161247 3.66663126,20.4725098 L3.66663126,20.4725098 L3.66663126,8.52750977 C3.66663126,8.06727248 4.0397273,7.69417644 4.49996459,7.69417644 Z M7.41663126,4.77750977 C7.87686855,4.77750977 8.24996459,5.15060581 8.24996459,5.6108431 L8.24996459,5.6108431 L8.24996459,17.0000098 C8.24996459,17.2301284 8.43651262,17.4166764 8.66663126,17.4166764 L8.66663126,17.4166764 L17.1391313,17.4166764 C17.5993686,17.4166764 17.9724646,17.7897725 17.9724646,18.2500098 C17.9724646,18.7102471 17.5993686,19.0833431 17.1391313,19.0833431 L17.1391313,19.0833431 L8.11079793,19.0833431 C7.26718297,19.0833431 6.58329793,18.3994581 6.58329793,17.5558431 L6.58329793,17.5558431 L6.58329793,5.6108431 C6.58329793,5.15060581 6.95639397,4.77750977 7.41663126,4.77750977 Z M16.4341313,1.99999993 C16.8397729,1.99854961 17.2290761,2.15973372 17.5149646,2.44750977 L17.5149646,2.44750977 L19.9016313,4.97417644 C20.1807803,5.25738955 20.336046,5.63985882 20.3333338,6.03750977 L20.3333338,6.03750977 L20.3333338,14.6391764 C20.3323794,15.4824106 19.6490321,16.1657579 18.8057979,16.1666764 L18.8057979,16.1666764 L11.1666313,16.1666764 C10.2461567,16.1666764 9.49996459,15.4204844 9.49996459,14.4999999 L9.49996459,14.4999999 L9.49996459,3.66667644 C9.49996459,2.74620185 10.2461567,1.99999993 11.1666313,1.99999993 L11.1666313,1.99999993 Z" id="ðŸ–-Color" fill="#5A5A5A"></path>
        <rect id="_Transparent_Rectangle_" x="0" y="0" width="24" height="24"></rect>
    </g>
</svg>