<?xml version="1.0" encoding="UTF-8"?>
<svg width="24px" height="24px" viewBox="0 0 24 24" version="1.1" xmlns="http://www.w3.org/2000/svg" xmlns:xlink="http://www.w3.org/1999/xlink">
    <title>10. Files and Folders/file_horizontal_image</title>
    <g id="10.-Files-and-Folders/file_horizontal_image" stroke="none" stroke-width="1" fill="none" fill-rule="evenodd">
        <path d="M16.655,3.66666667 C16.8759957,3.66666667 17.0879227,3.75454219 17.2441667,3.91083333 L17.2441667,3.91083333 L21.7558333,8.4225 C21.9121245,8.57874394 22,8.79067099 22,9.01166667 L22,9.01166667 L22,18.6666667 C22,19.5871412 21.2538079,20.3333333 20.3333333,20.3333333 L20.3333333,20.3333333 L3.66666667,20.3333333 C2.74619208,20.3333333 2,19.5871412 2,18.6666667 L2,18.6666667 L2,5.33333333 C2,4.41285875 2.74619208,3.66666667 3.66666667,3.66666667 L3.66666667,3.66666667 Z M16.1375,5.33333333 L4.08333333,5.33333333 C3.85321469,5.33333333 3.66666667,5.51988135 3.66666667,5.75 L3.66666667,5.75 L3.66666667,18.25 C3.66666667,18.4801186 3.85321469,18.6666667 4.08333333,18.6666667 L4.08333333,18.6666667 L19.9166667,18.6666667 C20.1467853,18.6666667 20.3333333,18.4801186 20.3333333,18.25 L20.3333333,18.25 L20.3333333,9.52916667 C20.3333333,9.41887296 20.2895575,9.31308795 20.2116667,9.235 L20.2116667,9.235 L16.4316667,5.455 C16.3535787,5.37710921 16.2477937,5.33333333 16.1375,5.33333333 L16.1375,5.33333333 Z M13.0825,10.7024984 C13.226163,10.7024984 13.3596925,10.7765071 13.4358333,10.8983333 L13.4358333,10.8983333 L17.0516667,16.6808333 C17.0920293,16.7450753 17.0942771,16.8261805 17.0575347,16.8925595 C17.0207923,16.9589384 16.9508694,17.0000953 16.875,17.0000002 L16.875,17.0000002 L6.79166667,17.0000002 C6.71579731,17.0000953 6.64587435,16.9589384 6.60913195,16.8925595 C6.57238955,16.8261805 6.57463741,16.7450753 6.615,16.6808333 L6.615,16.6808333 L8.9275,12.9816667 C9.00364084,12.8598405 9.13717035,12.7858318 9.28083333,12.7858318 C9.42449632,12.7858318 9.55802583,12.8598405 9.63416667,12.9816667 L9.63416667,12.9816667 L10.3541667,14.1333333 C10.392524,14.1938481 10.4591861,14.2305197 10.5308333,14.2305197 C10.6024806,14.2305197 10.6691427,14.1938481 10.7075,14.1333333 L10.7075,14.1333333 L12.7291667,10.8983333 C12.8053075,10.7765071 12.938837,10.7024984 13.0825,10.7024984 Z M8.91583333,7 C9.83630792,7 10.5825,7.74619208 10.5825,8.66666667 C10.5825,9.58714125 9.83630792,10.3333333 8.91583333,10.3333333 C7.99535875,10.3333333 7.24916667,9.58714125 7.24916667,8.66666667 C7.24916667,7.74619208 7.99535875,7 8.91583333,7 Z" id="ðŸ–-Color" fill="#5A5A5A"></path>
        <rect id="_Transparent_Rectangle_" x="0" y="0" width="24" height="24"></rect>
    </g>
</svg>