<svg width="24" height="24" viewBox="0 0 24 24" fill="none" xmlns="http://www.w3.org/2000/svg">
<g id="file_double_1">
<path id="Shape" fill-rule="evenodd" clip-rule="evenodd" d="M17.2771 2.26664L20.1938 5.13814C20.3645 5.30858 20.4604 5.53992 20.4604 5.78115V17.3851C20.4604 17.8869 20.0536 18.2937 19.5518 18.2937H8.03706C7.53524 18.2937 7.12844 17.8869 7.12844 17.3851V2.90862C7.12844 2.40681 7.53524 2 8.03706 2H16.6352C16.8761 1.99993 17.1071 2.09589 17.2771 2.26664ZM6.1029 19.9489H17.3838C17.9502 19.9489 18.4093 20.4081 18.4093 20.9745C18.4093 21.5409 17.9502 22 17.3838 22H5.59013C4.45736 22 3.53906 21.0817 3.53906 19.9489V6.10419C3.53906 5.53781 3.99821 5.07866 4.5646 5.07866C5.13099 5.07866 5.59013 5.53781 5.59013 6.10419V19.4362C5.59013 19.7194 5.81971 19.9489 6.1029 19.9489Z" fill="#5A5A5A"/>
</g>
</svg>
