<svg width="24" height="24" viewBox="0 0 24 24" fill="none" xmlns="http://www.w3.org/2000/svg">
<g id="file_stack">
<path id="Shape" fill-rule="evenodd" clip-rule="evenodd" d="M17.5143 2.4475L19.901 4.97417C20.1802 5.25738 20.3354 5.63985 20.3327 6.0375V14.6392C20.3318 15.4824 19.6484 16.1657 18.8052 16.1667H11.166C10.2455 16.1667 9.49935 15.4205 9.49935 14.5V3.66667C9.49935 2.74619 10.2455 2 11.166 2H16.4335C16.8392 1.99854 17.2285 2.15972 17.5143 2.4475ZM17.1385 17.4167H8.66602C8.4359 17.4167 8.24935 17.2301 8.24935 17V5.61083C8.24935 5.1506 7.87625 4.7775 7.41602 4.7775C6.95578 4.7775 6.58268 5.1506 6.58268 5.61083V17.5558C6.58268 18.3994 7.26657 19.0833 8.11018 19.0833H17.1385C17.5988 19.0833 17.9718 18.7102 17.9718 18.25C17.9718 17.7898 17.5988 17.4167 17.1385 17.4167ZM14.2218 20.3333H5.74935C5.51923 20.3333 5.33268 20.1468 5.33268 19.9167V8.5275C5.33268 8.06726 4.95959 7.69417 4.49935 7.69417C4.03911 7.69417 3.66602 8.06726 3.66602 8.5275V20.4725C3.66602 21.3161 4.3499 22 5.19352 22H14.2218C14.6821 22 15.0552 21.6269 15.0552 21.1667C15.0552 20.7064 14.6821 20.3333 14.2218 20.3333Z" fill="#5A5A5A"/>
</g>
</svg>
