<svg width="24" height="24" viewBox="0 0 24 24" fill="none" xmlns="http://www.w3.org/2000/svg">
<g id="file_module">
<path id="Shape" fill-rule="evenodd" clip-rule="evenodd" d="M8.35988 2C8.58966 2.00028 8.80998 2.09153 8.97266 2.2538L10.4529 3.8166C10.6104 3.97742 10.6982 4.19385 10.6971 4.41895V10.2616C10.6947 10.7383 10.3089 11.1241 9.83228 11.1265H4.17387C3.69721 11.1265 3.30945 10.7426 3.30469 10.266V2.86919C3.30469 2.38915 3.69384 2 4.17387 2H8.35988ZM8.35988 12.8648C8.58966 12.8651 8.80998 12.9564 8.97266 13.1186L10.4529 14.6814C10.6104 14.8423 10.6982 15.0587 10.6971 15.2838V21.1308C10.6971 21.6092 10.3106 21.9976 9.83228 22H4.17387C3.69384 22 3.30469 21.6109 3.30469 21.1308V13.734C3.30469 13.254 3.69384 12.8648 4.17387 12.8648H8.35988ZM20.4442 3.8166L18.9666 2.25206C18.804 2.09085 18.5845 2.00028 18.3555 2H14.1695C13.6912 2.00239 13.3047 2.39084 13.3047 2.86919V10.266C13.3094 10.7409 13.6946 11.1241 14.1695 11.1265H19.8279C20.3063 11.1265 20.6947 10.74 20.6971 10.2616V4.41895C20.6958 4.19261 20.6049 3.97601 20.4442 3.8166ZM18.3555 12.8648C18.5853 12.8651 18.8056 12.9564 18.9683 13.1186L20.4485 14.6814C20.606 14.8423 20.6938 15.0587 20.6928 15.2838V21.1308C20.6928 21.6109 20.3036 22 19.8236 22H14.1652C13.6868 21.9976 13.3003 21.6092 13.3003 21.1308V13.734C13.3003 13.254 13.6895 12.8648 14.1695 12.8648H18.3555Z" fill="#5A5A5A"/>
</g>
</svg>
