<svg width="24" height="24" viewBox="0 0 24 24" fill="none" xmlns="http://www.w3.org/2000/svg">
<g id="file_bookmark">
<path id="Shape" fill-rule="evenodd" clip-rule="evenodd" d="M20.3337 7.27333C20.3336 6.83134 20.1579 6.40749 19.8453 6.095L16.2387 2.48833C15.9262 2.17575 15.5023 2.00009 15.0603 2H11.792C11.6769 2 11.5837 2.09327 11.5837 2.20833V11.5C11.5835 11.584 11.5328 11.6597 11.4553 11.6919C11.3777 11.7242 11.2883 11.7066 11.2287 11.6475L9.64533 10.0642C9.60624 10.025 9.55317 10.003 9.49783 10.003C9.44248 10.003 9.38941 10.025 9.35033 10.0642L7.76699 11.6475C7.70767 11.7073 7.61799 11.7251 7.54033 11.6925C7.46468 11.6585 7.4163 11.5829 7.41699 11.5V2.20833C7.417 2.09392 7.32473 2.00092 7.21033 2H5.33366C4.41318 2 3.66699 2.74619 3.66699 3.66667V20.3333C3.66699 21.2538 4.41318 22 5.33366 22H18.667C19.5875 22 20.3337 21.2538 20.3337 20.3333V7.27333Z" fill="#5A5A5A"/>
</g>
</svg>
