<svg width="24" height="24" viewBox="0 0 24 24" fill="none" xmlns="http://www.w3.org/2000/svg">
<g id="file_edit">
<path id="Shape" fill-rule="evenodd" clip-rule="evenodd" d="M21.5101 4.49999L19.4993 2.48832C19.1864 2.17533 18.7618 1.99964 18.3193 1.99999H8.66592C7.74545 1.99999 6.99926 2.74618 6.99926 3.66665V11.6517C6.99906 11.735 7.04856 11.8104 7.12508 11.8434C7.20161 11.8764 7.29044 11.8607 7.35092 11.8033C7.71426 11.4508 8.26759 10.9192 8.52759 10.6792C8.61561 10.6001 8.6659 10.4874 8.66592 10.3692V4.08332C8.66592 3.8532 8.85247 3.66665 9.08259 3.66665H18.1476C18.258 3.6669 18.3638 3.71096 18.4418 3.78915L20.2101 5.55665C20.2885 5.63481 20.3326 5.74095 20.3326 5.85165V17C20.3326 17.2301 20.146 17.4167 19.9159 17.4167H11.6109C11.5005 17.4169 11.3947 17.461 11.3168 17.5392L10.1284 18.7283C10.0684 18.7877 10.0504 18.8775 10.0827 18.9554C10.1151 19.0334 10.1915 19.084 10.2759 19.0833H20.3326C21.2531 19.0833 21.9993 18.3371 21.9993 17.4167V5.67915C21.9992 5.23676 21.8232 4.81254 21.5101 4.49999ZM12.0284 11.6592C11.115 10.9581 9.82041 11.0564 9.02342 11.8875L3.54009 17.3708C3.45904 17.4521 3.45904 17.5837 3.54009 17.665L6.33259 20.4592C6.37153 20.4983 6.42446 20.5203 6.47967 20.5203C6.53488 20.5203 6.58781 20.4983 6.62676 20.4592L12.1926 14.8933C12.6281 14.4565 12.8587 13.8559 12.8274 13.2398C12.7962 12.6238 12.5059 12.0496 12.0284 11.6592ZM2.67591 18.7243C2.74944 18.7022 2.82918 18.7223 2.88342 18.7767L5.22509 21.1167C5.27946 21.171 5.29947 21.2509 5.27716 21.3245C5.25484 21.398 5.19383 21.4533 5.11842 21.4683L2.49926 21.9917C2.47186 21.9974 2.44392 22.0002 2.41592 22C2.29093 21.9998 2.17265 21.9434 2.09368 21.8466C2.01472 21.7497 1.98342 21.6225 2.00842 21.5L2.53176 18.8825C2.54699 18.8072 2.60238 18.7464 2.67591 18.7243Z" fill="#5A5A5A"/>
</g>
</svg>
