<?xml version="1.0" encoding="UTF-8"?>
<svg width="24px" height="24px" viewBox="0 0 24 24" version="1.1" xmlns="http://www.w3.org/2000/svg" xmlns:xlink="http://www.w3.org/1999/xlink">
    <title>10. Files and Folders/file_text_warning</title>
    <g id="10.-Files-and-Folders/file_text_warning" stroke="none" stroke-width="1" fill="none" fill-rule="evenodd">
        <path d="M7.41596009,11.5834793 C7.86316037,11.5834793 8.27374055,11.8306372 8.48304342,12.2258338 L8.48304342,12.2258338 L12.6955434,20.2541672 C12.8900626,20.6251685 12.875187,21.0711199 12.6563768,21.4283338 C12.4350292,21.7829643 12.0469153,21.9988978 11.6288768,22.0000005 L11.6288768,22.0000005 L3.20304342,22.0000005 C2.78414061,21.9981602 2.39577455,21.7805114 2.17554342,21.4241672 C1.95673321,21.0669532 1.94185762,20.6210019 2.13637675,20.2500005 L2.13637675,20.2500005 L6.34887675,12.2258338 C6.55817963,11.8306372 6.9687598,11.5834793 7.41596009,11.5834793 Z M7.41554342,18.8750005 C6.95530613,18.8750005 6.58221009,19.2480966 6.58221009,19.7083338 C6.58221009,20.1685711 6.95530613,20.5416672 7.41554342,20.5416672 L7.41554342,20.5416672 C7.87628857,20.5412073 8.24887675,20.1682459 8.24887675,19.7083338 C8.24887675,19.2480966 7.87578071,18.8750005 7.41554342,18.8750005 Z M18.3205434,2 C18.7627039,1.99965282 19.1868816,2.17501956 19.4997007,2.48750052 L19.4997007,2.48750052 L21.5113768,4.5 C21.8241633,4.81269256 21.9997007,5.23688706 21.9997007,5.67916718 L21.9997007,5.67916718 L21.9997007,17.4166672 C21.9997007,18.3371418 21.253518,19.0833338 20.3330434,19.0833338 L20.3330434,19.0833338 L13.6188768,19.0833338 C13.5415167,19.0833338 13.4706051,19.0401956 13.4347101,18.9716672 L13.4347101,18.9716672 L12.7788768,17.7216672 C12.7450811,17.6571473 12.7474343,17.5796625 12.7850829,17.5173124 C12.8227315,17.4549622 12.8902084,17.4168008 12.9630434,17.4166672 L12.9630434,17.4166672 L19.9163768,17.4166672 C20.1464954,17.4166672 20.3330434,17.2301192 20.3330434,17 L20.3330434,17 L20.3330434,5.85083385 C20.3327989,5.74042064 20.2887398,5.63461883 20.2105434,5.55666718 L20.2105434,5.55666718 L18.4430434,3.78833385 C18.3647511,3.71023889 18.2586258,3.66646968 18.1480434,3.66666718 L18.1480434,3.66666718 L9.08304342,3.66666718 C8.85292477,3.66666718 8.66637675,3.8532152 8.66637675,4.08333385 L8.66637675,4.08333385 L8.66637675,10.3716672 C8.66653983,10.4376597 8.63517701,10.4997621 8.5819706,10.5388021 C8.52876418,10.5778421 8.46011267,10.5891249 8.39721009,10.5691672 C8.00323237,10.4701041 7.60045418,10.4100921 7.19471009,10.3900005 C7.08463562,10.384204 6.99866505,10.2927225 6.99970066,10.1825005 L6.99970066,10.1825005 L6.99970066,3.66666718 C6.99970066,2.7461926 7.74590217,2 8.66637675,2 L8.66637675,2 Z M7.41554342,14.7083338 C7.07036545,14.7083338 6.79054342,14.9881559 6.79054342,15.3333338 L6.79054342,15.3333338 L6.79054342,17.8333338 C6.79054342,18.1785118 7.07036545,18.4583338 7.41554342,18.4583338 C7.76072139,18.4583338 8.04054342,18.1785118 8.04054342,17.8333338 L8.04054342,17.8333338 L8.04054342,15.3333338 C8.04054342,14.9881559 7.76072139,14.7083338 7.41554342,14.7083338 Z M15.7497101,11.1666672 C16.2099474,11.1666672 16.5830434,11.5397632 16.5830434,12.0000005 C16.5830434,12.4602378 16.2099474,12.8333338 15.7497101,12.8333338 L15.7497101,12.8333338 L12.4163768,12.8333338 C11.9561395,12.8333338 11.5830434,12.4602378 11.5830434,12.0000005 C11.5830434,11.5397632 11.9561395,11.1666672 12.4163768,11.1666672 L12.4163768,11.1666672 Z M17.8330434,7.41666718 C18.2932807,7.41666718 18.6663768,7.78976322 18.6663768,8.25000052 C18.6663768,8.71023781 18.2932807,9.08333385 17.8330434,9.08333385 L17.8330434,9.08333385 L11.9997101,9.08333385 C11.5394728,9.08333385 11.1663768,8.71023781 11.1663768,8.25000052 C11.1663768,7.78976322 11.5394728,7.41666718 11.9997101,7.41666718 L11.9997101,7.41666718 Z" id="ðŸ–-Color" fill="#5A5A5A"></path>
        <rect id="_Transparent_Rectangle_" x="0" y="0" width="24" height="24"></rect>
    </g>
</svg>