<?xml version="1.0" encoding="UTF-8"?>
<svg width="24px" height="24px" viewBox="0 0 24 24" version="1.1" xmlns="http://www.w3.org/2000/svg" xmlns:xlink="http://www.w3.org/1999/xlink">
    <title>10. Files and Folders/file_module</title>
    <g id="10.-Files-and-Folders/file_module" stroke="none" stroke-width="1" fill="none" fill-rule="evenodd">
        <path d="M8.35897436,12.8648414 C8.5887513,12.8651201 8.80906939,12.9563724 8.97175141,13.1186441 L8.97175141,13.1186441 L10.4519774,14.6814429 C10.6094853,14.8422606 10.6972436,15.0586896 10.6962279,15.2837897 L10.6962279,15.2837897 L10.6962279,21.1308127 C10.6962279,21.6091595 10.3097185,21.9976083 9.83137766,22 L9.83137766,22 L4.17296827,22 C3.69292938,22 3.30378096,21.6108516 3.30378096,21.1308127 L3.30378096,21.1308127 L3.30378096,13.7340287 C3.30378096,13.2539898 3.69292938,12.8648414 4.17296827,12.8648414 L4.17296827,12.8648414 Z M18.3546284,12.8648414 C18.5844054,12.8651201 18.8047235,12.9563724 18.9674055,13.1186441 L18.9674055,13.1186441 L20.4476315,14.6814429 C20.6051394,14.8422606 20.6928977,15.0586896 20.691882,15.2837897 L20.691882,15.2837897 L20.691882,21.1308127 C20.691882,21.6108516 20.3027247,22 19.8226858,22 L19.8226858,22 L14.1642764,22 C13.6859356,21.9976083 13.299435,21.6091595 13.299435,21.1308127 L13.299435,21.1308127 L13.299435,13.7340287 C13.299435,13.2539898 13.6885834,12.8648414 14.1686223,12.8648414 L14.1686223,12.8648414 Z M8.35897436,2 C8.5887513,2.00027876 8.80906939,2.09153108 8.97175141,2.25380269 L8.97175141,2.25380269 L10.4519774,3.81660148 C10.6094853,3.97741927 10.6972436,4.19384819 10.6962279,4.41894828 L10.6962279,4.41894828 L10.6962279,10.2616254 C10.6938417,10.7382759 10.3080282,11.1240894 9.83137766,11.1264668 L9.83137766,11.1264668 L4.17296827,11.1264668 C3.69630338,11.1264668 3.30854761,10.7426124 3.30378096,10.2659713 L3.30378096,10.2659713 L3.30378096,2.86918731 C3.30378096,2.38914841 3.69292938,2 4.17296827,2 L4.17296827,2 Z M18.3546284,2 C18.5835547,2.00027526 18.8031295,2.09085374 18.9656671,2.25206432 L18.9656671,2.25206432 L20.4432855,3.81660148 C20.6039789,3.97600519 20.694933,4.19260728 20.696219,4.41894828 L20.696219,4.41894828 L20.696219,10.2616254 C20.6938273,10.7399662 20.3053785,11.1264668 19.8270317,11.1264668 L19.8270317,11.1264668 L14.1686223,11.1264668 C13.693652,11.1241156 13.3085249,10.7409238 13.303781,10.2659713 L13.303781,10.2659713 L13.303781,2.86918731 C13.303781,2.3908405 13.6902815,2.00239173 14.1686223,2 L14.1686223,2 Z" id="ðŸ–-Color" fill="#5A5A5A"></path>
        <rect id="_Transparent_Rectangle_" x="0" y="0" width="24" height="24"></rect>
    </g>
</svg>