<svg width="24" height="24" viewBox="0 0 24 24" fill="none" xmlns="http://www.w3.org/2000/svg">
<g id="file_text_shield">
<path id="Shape" fill-rule="evenodd" clip-rule="evenodd" d="M21.5117 4.5C21.8245 4.81269 22.0001 5.23689 22 5.67917V17.4158C22 18.3363 21.2538 19.0825 20.3333 19.0825H13.6192C13.5485 19.0822 13.4829 19.0454 13.4459 18.9852C13.409 18.9249 13.4058 18.8498 13.4375 18.7867C13.6228 18.396 13.7707 17.9886 13.8792 17.57C13.9014 17.4799 13.9822 17.4166 14.075 17.4167H19.9167C20.1468 17.4167 20.3333 17.2301 20.3333 17V5.85083C20.3333 5.74054 20.2896 5.63475 20.2117 5.55667L18.4433 3.78833C18.3652 3.71044 18.2595 3.66669 18.1492 3.66667H9.08333C8.85321 3.66667 8.66667 3.85321 8.66667 4.08333V9.76167C8.6674 9.81794 8.64496 9.87205 8.60462 9.91129C8.56427 9.95053 8.50957 9.97146 8.45333 9.96917C8.07417 9.9475 7.51 9.93 7.20333 9.93C7.08985 9.92817 6.99907 9.83516 7 9.72167V3.66667C7 2.74619 7.74619 2 8.66667 2H18.3217C18.7635 1.99987 19.1874 2.17522 19.5 2.4875L21.5117 4.5ZM18.6667 8.25C18.6667 8.71024 18.2936 9.08333 17.8333 9.08333H12C11.5398 9.08333 11.1667 8.71024 11.1667 8.25C11.1667 7.78976 11.5398 7.41667 12 7.41667H17.8333C18.2936 7.41667 18.6667 7.78976 18.6667 8.25ZM14.0308 12.6667C14.0491 12.7626 14.1324 12.8323 14.23 12.8333H15.75C16.2102 12.8333 16.5833 12.4602 16.5833 12C16.5833 11.5398 16.2102 11.1667 15.75 11.1667H13.6175C13.5366 11.1665 13.4631 11.2139 13.4299 11.2877C13.3968 11.3616 13.4102 11.448 13.4642 11.5083C13.7501 11.8389 13.9454 12.238 14.0308 12.6667ZM12.8333 13.2133C12.8332 12.7012 12.5295 12.2379 12.06 12.0333C10.5688 11.4749 8.99143 11.1816 7.39917 11.1667C5.81801 11.1788 4.25163 11.4722 2.77333 12.0333C2.30381 12.2379 2.00015 12.7012 2 13.2133V16.0408C2.16521 18.6307 3.87106 20.8674 6.325 21.7117C6.66324 21.8704 7.0269 21.968 7.39917 22C7.77114 21.9679 8.13452 21.8703 8.4725 21.7117C11.04 20.7333 12.8333 18.4017 12.8333 16.0408V13.2133ZM10.5417 15.75C10.5417 16.0952 10.2618 16.375 9.91667 16.375H8.25C8.13494 16.375 8.04167 16.4683 8.04167 16.5833V18.25C8.04167 18.5952 7.76184 18.875 7.41667 18.875C7.07149 18.875 6.79167 18.5952 6.79167 18.25V16.5833C6.79167 16.4683 6.69839 16.375 6.58333 16.375H4.91667C4.57149 16.375 4.29167 16.0952 4.29167 15.75C4.29167 15.4048 4.57149 15.125 4.91667 15.125H6.58333C6.69839 15.125 6.79167 15.0317 6.79167 14.9167V13.25C6.79167 12.9048 7.07149 12.625 7.41667 12.625C7.76184 12.625 8.04167 12.9048 8.04167 13.25V14.9167C8.04167 15.0317 8.13494 15.125 8.25 15.125H9.91667C10.2618 15.125 10.5417 15.4048 10.5417 15.75Z" fill="#5A5A5A"/>
</g>
</svg>
