<svg width="24" height="24" viewBox="0 0 24 24" fill="none" xmlns="http://www.w3.org/2000/svg">
<g id="folder_search_1">
<path id="Shape" fill-rule="evenodd" clip-rule="evenodd" d="M20.75 5.75H11.78C11.6223 5.74999 11.4781 5.66097 11.4075 5.52L10.6183 3.93666C10.4062 3.51394 9.97294 3.24789 9.5 3.25H3.25C2.55964 3.25 2 3.80964 2 4.5V19.5C2 20.1904 2.55964 20.75 3.25 20.75H20.75C21.4404 20.75 22 20.1904 22 19.5V7C22 6.30964 21.4404 5.75 20.75 5.75ZM15.6617 17.6667C15.5444 17.784 15.3854 17.8499 15.2196 17.8499C15.0538 17.8499 14.8947 17.784 14.7775 17.6667L13.18 16.0692C13.1099 15.9999 13.0002 15.9911 12.92 16.0483C11.2337 17.2133 8.95499 17.0027 7.51083 15.5483C6.1439 14.183 5.86478 12.0696 6.83039 10.3962C7.79599 8.72274 9.76541 7.90681 11.6316 8.40702C13.4977 8.90724 14.795 10.5988 14.7942 12.5308C14.7926 13.3857 14.531 14.2198 14.0442 14.9225C13.9868 15.003 13.9956 15.113 14.065 15.1833L15.6625 16.78C15.7805 16.8974 15.8467 17.0571 15.8465 17.2235C15.8464 17.3899 15.7798 17.5495 15.6617 17.6667ZM7.56097 12.5329C7.56097 10.8864 8.88122 9.54403 10.5275 9.51666C12.1925 9.5185 13.5419 10.8675 13.5442 12.5325C13.5059 14.1824 12.1774 15.5109 10.5275 15.5492C8.88122 15.5218 7.56097 14.1794 7.56097 12.5329Z" fill="#5A5A5A"/>
</g>
</svg>
