<svg width="24" height="24" viewBox="0 0 24 24" fill="none" xmlns="http://www.w3.org/2000/svg">
<g id="folder_download">
<path id="Shape" fill-rule="evenodd" clip-rule="evenodd" d="M19.2108 10.4642C18.3818 10.1035 17.4874 9.91714 16.5833 9.91667C12.9031 9.9208 9.9208 12.9031 9.91667 16.5833C9.92919 16.6881 9.8967 16.7932 9.82727 16.8727C9.75785 16.9521 9.65799 16.9984 9.5525 17H3.25C2.55964 17 2 16.4404 2 15.75V3.25C2 2.55965 2.55964 2 3.25 2H7.73333C8.20766 1.99938 8.64147 2.26729 8.85333 2.69167L9.6425 4.27C9.71314 4.41098 9.85732 4.5 10.015 4.5H18.25C18.9404 4.5 19.5 5.05965 19.5 5.75V10.2792C19.5002 10.3488 19.4649 10.4136 19.4062 10.4511C19.3476 10.4886 19.2739 10.4935 19.2108 10.4642ZM16.5833 22C19.5749 22 22 19.5749 22 16.5833C22 13.5918 19.5749 11.1667 16.5833 11.1667C13.5918 11.1667 11.1667 13.5918 11.1667 16.5833C11.1703 19.5734 13.5933 21.9963 16.5833 22ZM14.5908 17.26C14.4909 17.1349 14.4715 16.9635 14.541 16.8192C14.6105 16.6749 14.7565 16.5832 14.9167 16.5833H15.5417C15.6567 16.5833 15.75 16.4901 15.75 16.375V14.0833C15.75 13.6231 16.1231 13.25 16.5833 13.25C17.0436 13.25 17.4167 13.6231 17.4167 14.0833V16.375C17.4167 16.4901 17.5099 16.5833 17.625 16.5833H18.25C18.4105 16.583 18.5569 16.6748 18.6264 16.8194C18.696 16.964 18.6763 17.1357 18.5758 17.2608L16.9092 19.3442C16.8272 19.4385 16.7083 19.4927 16.5833 19.4927C16.4583 19.4927 16.3395 19.4385 16.2575 19.3442L14.5908 17.26Z" fill="#5A5A5A"/>
</g>
</svg>
