<svg width="24" height="24" viewBox="0 0 24 24" fill="none" xmlns="http://www.w3.org/2000/svg">
<g id="folder_upload">
<path id="Shape" fill-rule="evenodd" clip-rule="evenodd" d="M16.5833 9.91667C12.9031 9.9208 9.9208 12.9031 9.91667 16.5833C9.92919 16.6881 9.8967 16.7932 9.82727 16.8727C9.75785 16.9521 9.65799 16.9984 9.5525 17H3.25C2.55964 17 2 16.4404 2 15.75V3.25C2 2.55965 2.55964 2 3.25 2H7.73333C8.20766 1.99938 8.64147 2.26729 8.85333 2.69167L9.6425 4.27C9.71314 4.41098 9.85732 4.5 10.015 4.5H18.25C18.9404 4.5 19.5 5.05965 19.5 5.75V10.2792C19.5002 10.3488 19.4649 10.4136 19.4062 10.4511C19.3476 10.4886 19.2739 10.4935 19.2108 10.4642C18.3818 10.1035 17.4874 9.91714 16.5833 9.91667ZM16.5833 11.1667C13.5918 11.1667 11.1667 13.5918 11.1667 16.5833C11.1667 19.5749 13.5918 22 16.5833 22C19.5749 22 22 19.5749 22 16.5833C21.9963 13.5933 19.5734 11.1703 16.5833 11.1667ZM18.5758 15.9067C18.6758 16.0318 18.6951 16.2031 18.6257 16.3474C18.5562 16.4917 18.4101 16.5834 18.25 16.5833H17.625C17.5099 16.5833 17.4167 16.6766 17.4167 16.7917V19.0833C17.4167 19.5436 17.0436 19.9167 16.5833 19.9167C16.1231 19.9167 15.75 19.5436 15.75 19.0833V16.7917C15.75 16.6766 15.6567 16.5833 15.5417 16.5833H14.9167C14.7562 16.5837 14.6098 16.4919 14.5403 16.3473C14.4707 16.2027 14.4904 16.031 14.5908 15.9058L16.2575 13.8225C16.3395 13.7282 16.4583 13.674 16.5833 13.674C16.7083 13.674 16.8272 13.7282 16.9092 13.8225L18.5758 15.9067Z" fill="#5A5A5A"/>
</g>
</svg>
