<svg width="24" height="24" viewBox="0 0 24 24" fill="none" xmlns="http://www.w3.org/2000/svg">
<g id="folder_add">
<path id="Shape" fill-rule="evenodd" clip-rule="evenodd" d="M16.5833 9.91667C12.9031 9.9208 9.9208 12.9031 9.91667 16.5833C9.91667 16.7242 9.82583 17 9.6175 17H3.25C2.55964 17 2 16.4404 2 15.75V3.25C2 2.55964 2.55964 2 3.25 2H7.735C8.20824 2.00017 8.6408 2.26758 8.8525 2.69083L9.6425 4.27C9.71314 4.41098 9.85732 4.49999 10.015 4.5H18.25C18.9404 4.5 19.5 5.05964 19.5 5.75V10.2792C19.5002 10.3487 19.4649 10.4136 19.4062 10.4511C19.3476 10.4886 19.2739 10.4935 19.2108 10.4642C18.3818 10.1035 17.4874 9.91714 16.5833 9.91667ZM16.5833 11.1667C13.5918 11.1667 11.1667 13.5918 11.1667 16.5833C11.1667 19.5749 13.5918 22 16.5833 22C19.5749 22 22 19.5749 22 16.5833C21.9963 13.5933 19.5734 11.1703 16.5833 11.1667ZM19.2917 16.5833C19.2917 16.9285 19.0118 17.2083 18.6667 17.2083H17.4167C17.3016 17.2083 17.2083 17.3016 17.2083 17.4167V18.6667C17.2083 19.0118 16.9285 19.2917 16.5833 19.2917C16.2382 19.2917 15.9583 19.0118 15.9583 18.6667V17.4167C15.9583 17.3016 15.8651 17.2083 15.75 17.2083H14.5C14.1548 17.2083 13.875 16.9285 13.875 16.5833C13.875 16.2382 14.1548 15.9583 14.5 15.9583H15.75C15.8651 15.9583 15.9583 15.8651 15.9583 15.75V14.5C15.9583 14.1548 16.2382 13.875 16.5833 13.875C16.9285 13.875 17.2083 14.1548 17.2083 14.5V15.75C17.2083 15.8651 17.3016 15.9583 17.4167 15.9583H18.6667C19.0118 15.9583 19.2917 16.2382 19.2917 16.5833Z" fill="#5A5A5A"/>
</g>
</svg>
