<svg width="24" height="24" viewBox="0 0 24 24" fill="none" xmlns="http://www.w3.org/2000/svg">
<g id="folder_sync">
<path id="Shape" fill-rule="evenodd" clip-rule="evenodd" d="M16.5833 9.91682C17.4873 9.91586 18.3818 10.1002 19.2117 10.4585C19.2747 10.4875 19.3481 10.4824 19.4065 10.4449C19.4648 10.4075 19.5001 10.3428 19.5 10.2735V5.75015C19.5 5.0598 18.9404 4.50015 18.25 4.50015H10.015C9.85732 4.50015 9.71314 4.41113 9.6425 4.27015L8.85333 2.69182C8.64147 2.26744 8.20766 1.99954 7.73333 2.00015H3.25C2.55964 2.00015 2 2.5598 2 3.25015V15.7502C2 16.4405 2.55964 17.0002 3.25 17.0002H9.58833C9.85333 17.0002 9.91667 16.7185 9.91667 16.5835C9.9208 12.9033 12.9031 9.92095 16.5833 9.91682ZM20.975 17.5002C20.5537 17.3553 20.093 17.5675 19.9292 17.9818C19.7377 18.6101 19.368 19.1694 18.865 19.5918C17.4345 20.7197 15.3753 20.549 14.15 19.201C14.0769 19.116 14.082 18.989 14.1617 18.9102L15.5925 17.4793C15.7114 17.3601 15.7468 17.181 15.6823 17.0254C15.6177 16.8699 15.4659 16.7685 15.2975 16.7685H11.5833C11.3532 16.7685 11.1667 16.955 11.1667 17.1852V20.9002C11.1667 21.0688 11.2683 21.2207 11.4242 21.2851C11.58 21.3495 11.7593 21.3137 11.8783 21.1943L12.69 20.3827C12.7294 20.3434 12.7831 20.322 12.8387 20.3234C12.8943 20.3249 12.9468 20.349 12.9842 20.3902C14.2018 21.6937 16.0148 22.2616 17.7585 21.8859C19.5023 21.5102 20.9205 20.2461 21.4933 18.5568C21.6413 18.1219 21.4095 17.6493 20.975 17.5002ZM21.2883 11.901C21.4074 11.7816 21.5867 11.7458 21.7425 11.8102C21.8983 11.8746 22 12.0265 22 12.1952V15.911C22 16.1411 21.8135 16.3277 21.5833 16.3277H17.8692C17.7008 16.3276 17.549 16.2262 17.4844 16.0707C17.4199 15.9152 17.4553 15.7361 17.5742 15.6168L18.9533 14.2377C19.0335 14.1585 19.0378 14.0305 18.9633 13.946C17.7341 12.6135 15.6849 12.4553 14.2658 13.5835C13.7647 14.0016 13.3954 14.5558 13.2025 15.1793C13.1004 15.459 12.8568 15.663 12.5635 15.7144C12.2702 15.7658 11.9718 15.6569 11.7806 15.4286C11.5894 15.2003 11.5345 14.8874 11.6367 14.6077C12.2117 12.9237 13.6254 11.6631 15.3639 11.2839C17.1024 10.9046 18.9126 11.462 20.1367 12.7535C20.1741 12.7943 20.2265 12.8181 20.2819 12.8193C20.3373 12.8206 20.3908 12.7992 20.43 12.7602L21.2883 11.901Z" fill="#5A5A5A"/>
</g>
</svg>
