<svg width="24" height="24" viewBox="0 0 24 24" fill="none" xmlns="http://www.w3.org/2000/svg">
<g id="folder_disable">
<path id="Shape" fill-rule="evenodd" clip-rule="evenodd" d="M19.2108 10.4642C18.3818 10.1035 17.4874 9.91714 16.5833 9.91667C12.9031 9.9208 9.9208 12.9031 9.91667 16.5833C9.92919 16.6881 9.8967 16.7932 9.82727 16.8727C9.75785 16.9521 9.65799 16.9984 9.5525 17H3.25C2.55964 17 2 16.4404 2 15.75V3.25C2 2.55965 2.55964 2 3.25 2H7.73333C8.20766 1.99938 8.64147 2.26729 8.85333 2.69167L9.6425 4.27C9.71314 4.41098 9.85732 4.5 10.015 4.5H18.25C18.9404 4.5 19.5 5.05965 19.5 5.75V10.2792C19.5002 10.3488 19.4649 10.4136 19.4062 10.4511C19.3476 10.4886 19.2739 10.4935 19.2108 10.4642ZM11.1667 16.5833C11.1667 13.5918 13.5918 11.1667 16.5833 11.1667C18.0199 11.1667 19.3977 11.7374 20.4135 12.7532C21.4293 13.769 22 15.1467 22 16.5833C22 19.5749 19.5749 22 16.5833 22C13.5918 22 11.1667 19.5749 11.1667 16.5833ZM12.9717 15.5675C12.7105 16.4942 12.8202 17.4861 13.2775 18.3333C13.3099 18.3904 13.3673 18.4291 13.4324 18.4378C13.4975 18.4464 13.5629 18.4241 13.6092 18.3775L18.3792 13.6092C18.4265 13.563 18.4494 13.4972 18.4409 13.4317C18.4324 13.3661 18.3934 13.3083 18.3358 13.2758C17.4873 12.8168 16.4932 12.7071 15.565 12.97C14.3069 13.3247 13.3243 14.3089 12.9717 15.5675ZM20.1942 17.5942C19.8415 18.8528 18.8589 19.837 17.6008 20.1917C16.6726 20.4546 15.6785 20.3449 14.83 19.8858C14.7724 19.8533 14.7335 19.7956 14.7249 19.73C14.7164 19.6644 14.7393 19.5986 14.7867 19.5525L19.5567 14.7842C19.6027 14.7367 19.6684 14.7137 19.734 14.7221C19.7995 14.7304 19.8573 14.7692 19.89 14.8267C20.3481 15.6752 20.4575 16.6688 20.195 17.5967L20.1942 17.5942Z" fill="#5A5A5A"/>
</g>
</svg>
