<svg width="24" height="24" viewBox="0 0 24 24" fill="none" xmlns="http://www.w3.org/2000/svg">
<g id="folder_lock">
<path id="Shape" fill-rule="evenodd" clip-rule="evenodd" d="M14.0883 13.6817C14.0847 13.7586 14.0365 13.8264 13.965 13.855C13.0282 14.2407 12.4167 15.1536 12.4167 16.1667V16.7842C12.4167 16.9067 12.3575 17 12.2275 17H3.25C2.55964 17 2 16.4404 2 15.75V3.25C2 2.55965 2.55964 2 3.25 2H7.73333C8.20766 1.99938 8.64147 2.26729 8.85333 2.69167L9.6425 4.27C9.71314 4.41098 9.85732 4.5 10.015 4.5H18.25C18.9404 4.5 19.5 5.05965 19.5 5.75V10.215C19.4996 10.2846 19.4641 10.3492 19.4056 10.3869C19.3471 10.4246 19.2735 10.4301 19.21 10.4017C18.7734 10.2211 18.3058 10.1271 17.8333 10.125C15.8382 10.1271 14.1933 11.6893 14.0883 13.6817ZM20.75 14.6908C20.7484 14.8147 20.8377 14.921 20.96 14.9408C21.5583 15.0428 21.9969 15.5598 22 16.1667V20.75C22 21.4404 21.4404 22 20.75 22H14.9167C14.2263 22 13.6667 21.4404 13.6667 20.75V16.1667C13.6692 15.5635 14.1022 15.0482 14.6958 14.9417C14.8238 14.9183 14.9168 14.8068 14.9167 14.6767V13.8742C14.9167 12.2633 16.2225 10.9575 17.8333 10.9575C19.4442 10.9575 20.75 12.2633 20.75 13.8742V14.6908ZM17 18.875C17 19.3352 17.3731 19.7083 17.8333 19.7083C18.2936 19.7083 18.6667 19.3352 18.6667 18.875C18.6667 18.4148 18.2936 18.0417 17.8333 18.0417C17.3731 18.0417 17 18.4148 17 18.875ZM19.0833 14.7083C19.0833 14.8234 18.9901 14.9167 18.875 14.9167H16.7917C16.6766 14.9167 16.5833 14.8234 16.5833 14.7083V13.875C16.5833 13.1846 17.143 12.625 17.8333 12.625C18.5237 12.625 19.0833 13.1846 19.0833 13.875V14.7083Z" fill="#5A5A5A"/>
</g>
</svg>
