<svg width="24" height="24" viewBox="0 0 24 24" fill="none" xmlns="http://www.w3.org/2000/svg">
<g id="folder_code">
<path id="Shape" fill-rule="evenodd" clip-rule="evenodd" d="M20.75 5.75001H11.78C11.6223 5.75001 11.4781 5.66099 11.4075 5.52001L10.6183 3.93668C10.4062 3.51395 9.97294 3.24791 9.5 3.25001H3.25C2.55964 3.25001 2 3.80966 2 4.50001V19.5C2 20.1904 2.55964 20.75 3.25 20.75H20.75C21.4404 20.75 22 20.1904 22 19.5V7.00001C22 6.30966 21.4404 5.75001 20.75 5.75001ZM10.5675 16.6083C10.4503 16.7256 10.2912 16.7915 10.1254 16.7915C9.95959 16.7915 9.80056 16.7256 9.68333 16.6083L6.35 13.275C6.23275 13.1579 6.16687 12.999 6.16687 12.8333C6.16687 12.6677 6.23275 12.5088 6.35 12.3917L9.68333 9.05835C9.92959 8.82888 10.3133 8.83565 10.5514 9.07366C10.7894 9.31167 10.7961 9.69542 10.5667 9.94168L7.82333 12.6858C7.78415 12.7249 7.76213 12.778 7.76213 12.8333C7.76213 12.8887 7.78415 12.9418 7.82333 12.9808L10.5675 15.725C10.6847 15.8421 10.7506 16.001 10.7506 16.1667C10.7506 16.3324 10.6847 16.4913 10.5675 16.6083ZM17.2342 13.275L13.9008 16.6083C13.6546 16.8378 13.2708 16.831 13.0328 16.593C12.7948 16.355 12.788 15.9713 13.0175 15.725L15.7608 12.9808C15.8 12.9418 15.822 12.8887 15.822 12.8333C15.822 12.778 15.8 12.7249 15.7608 12.6858L13.0158 9.94168C12.7791 9.69633 12.7827 9.30651 13.0239 9.06554C13.2651 8.82457 13.6549 8.82137 13.9 9.05835L17.2333 12.3917C17.3506 12.5088 17.4165 12.6677 17.4165 12.8333C17.4165 12.999 17.3506 13.1579 17.2333 13.275H17.2342Z" fill="#5A5A5A"/>
</g>
</svg>
