<svg width="24" height="24" viewBox="0 0 24 24" fill="none" xmlns="http://www.w3.org/2000/svg">
<g id="folder_warning">
<path id="Shape" fill-rule="evenodd" clip-rule="evenodd" d="M14.4083 11.645L11.6583 16.8883C11.6223 16.9571 11.551 17.0002 11.4733 17H3.25C2.55964 17 2 16.4404 2 15.75V3.25C2 2.55964 2.55964 2 3.25 2H7.735C8.20824 2.00017 8.6408 2.26758 8.8525 2.69083L9.6425 4.27C9.71328 4.41124 9.85785 4.50031 10.0158 4.5H18.25C18.94 4.50046 19.4992 5.05997 19.4992 5.75V12.265C19.4992 12.54 19.19 12.4708 19.15 12.3958L18.8008 11.7292C18.4768 11.0786 17.8904 10.5974 17.1892 10.4067C16.0873 10.1262 14.937 10.6385 14.4083 11.645ZM17.6508 12.2258L21.8633 20.2542C22.0579 20.6252 22.043 21.0711 21.8242 21.4283C21.6028 21.783 21.2147 21.9989 20.7967 22H12.3708C11.9519 21.9982 11.5636 21.7805 11.3433 21.4242C11.1245 21.067 11.1096 20.621 11.3042 20.25L15.5167 12.2258C15.726 11.8306 16.1365 11.5835 16.5837 11.5835C17.0309 11.5835 17.4415 11.8306 17.6508 12.2258ZM16.5842 14.7083C16.239 14.7083 15.9592 14.9882 15.9592 15.3333V17.4167C15.9592 17.7618 16.239 18.0417 16.5842 18.0417C16.9293 18.0417 17.2092 17.7618 17.2092 17.4167V15.3333C17.2092 14.9882 16.9293 14.7083 16.5842 14.7083ZM16.5842 20.5417C16.1239 20.5417 15.7508 20.1686 15.7508 19.7083C15.7508 19.2481 16.1239 18.875 16.5842 18.875C17.0444 18.875 17.4175 19.2481 17.4175 19.7083C17.4175 19.9295 17.3296 20.1416 17.1731 20.2979C17.0169 20.454 16.805 20.5417 16.5842 20.5417Z" fill="#5A5A5A"/>
</g>
</svg>
