<?xml version="1.0" encoding="UTF-8"?>
<svg width="24px" height="24px" viewBox="0 0 24 24" version="1.1" xmlns="http://www.w3.org/2000/svg" xmlns:xlink="http://www.w3.org/1999/xlink">
    <title>10. Files and Folders/folder_download</title>
    <g id="10.-Files-and-Folders/folder_download" stroke="none" stroke-width="1" fill="none" fill-rule="evenodd">
        <path d="M16.5833333,11.1666677 C19.5748757,11.1666677 22,13.591792 22,16.5833344 C22,19.5748768 19.5748757,22.0000011 16.5833333,22.0000011 C13.5933138,21.9963278 11.1703399,19.573354 11.1666667,16.5833344 C11.1666667,13.591792 13.5917909,11.1666677 16.5833333,11.1666677 Z M16.5833333,13.2500011 C16.123096,13.2500011 15.75,13.6230971 15.75,14.0833344 L15.75,14.0833344 L15.75,16.3750011 C15.75,16.4900604 15.656726,16.5833344 15.5416667,16.5833344 L15.5416667,16.5833344 L14.9166667,16.5833344 C14.7565215,16.5832422 14.6104949,16.674942 14.5410161,16.8192306 C14.4715372,16.9635191 14.4909027,17.1348597 14.5908333,17.2600011 L14.5908333,17.2600011 L16.2575,19.3441677 C16.3394855,19.4385151 16.4583412,19.4926935 16.5833333,19.4926935 C16.7083255,19.4926935 16.8271812,19.4385151 16.9091667,19.3441677 L16.9091667,19.3441677 L18.5758333,17.2608344 C18.6762809,17.1357053 18.6959507,16.9640147 18.6264054,16.8194102 C18.5568601,16.6748057 18.4104584,16.5829848 18.25,16.5833344 L18.25,16.5833344 L17.625,16.5833344 C17.5099407,16.5833344 17.4166667,16.4900604 17.4166667,16.3750011 L17.4166667,16.3750011 L17.4166667,14.0833344 C17.4166667,13.6230971 17.0435706,13.2500011 16.5833333,13.2500011 Z M7.73333333,2 C8.20765884,1.99938485 8.64146816,2.26728792 8.85333333,2.69166773 L8.85333333,2.69166773 L9.6425,4.27000106 C9.71314273,4.41097644 9.85731534,4.5 10.015,4.5 L10.015,4.5 L18.25,4.5 C18.9403559,4.5 19.5,5.05964512 19.5,5.75000106 L19.5,5.75000106 L19.5,10.2791677 C19.5002299,10.3487509 19.4648617,10.4136196 19.4062473,10.4511193 C19.347633,10.488619 19.2739131,10.4935415 19.2108333,10.4641677 C18.3817869,10.1034961 17.4874361,9.9171376 16.5833333,9.91666773 C12.9031484,9.92080096 9.9207999,12.9031495 9.91666667,16.5833344 C9.9291881,16.6880898 9.89670127,16.7932417 9.8272733,16.8726788 C9.75784533,16.9521158 9.65798876,16.9983865 9.5525,17 L9.5525,17 L3.25,17 C2.55964406,17 2,16.440357 2,15.7500011 L2,15.7500011 L2,3.25000106 C2,2.55964512 2.55964406,2 3.25,2 L3.25,2 Z" id="ðŸ–-Color" fill="#5A5A5A"></path>
        <rect id="_Transparent_Rectangle_" x="0" y="0" width="24" height="24"></rect>
    </g>
</svg>