<svg width="24" height="24" viewBox="0 0 24 24" fill="none" xmlns="http://www.w3.org/2000/svg">
<g id="zip_file_1">
<path id="Shape" fill-rule="evenodd" clip-rule="evenodd" d="M20.1253 7.83333C20.2404 7.83333 20.3337 7.92661 20.3337 8.04167V20.3333C20.3337 21.2538 19.5875 22 18.667 22H5.33366C4.41318 22 3.66699 21.2538 3.66699 20.3333V3.66667C3.66699 2.74619 4.41318 2 5.33366 2H14.292C14.4071 2 14.5003 2.09327 14.5003 2.20833V5.75C14.5003 6.90059 15.4331 7.83333 16.5837 7.83333H20.1253ZM7.83366 17.9375H9.91699C10.2046 17.9375 10.4378 17.7043 10.4378 17.4167C10.4378 17.129 10.2046 16.8958 9.91699 16.8958H8.40283C8.32683 16.8958 8.25688 16.8544 8.22029 16.7878C8.18369 16.7212 8.18626 16.64 8.22699 16.5758L10.2803 13.3542C10.4719 13.0664 10.4897 12.6965 10.3267 12.3916C10.1636 12.0867 9.84608 11.8962 9.50033 11.8958H7.41699C7.12934 11.8958 6.89616 12.129 6.89616 12.4167C6.89616 12.7043 7.12934 12.9375 7.41699 12.9375H8.93116C9.00715 12.9375 9.0771 12.9789 9.1137 13.0455C9.15029 13.1121 9.14772 13.1933 9.10699 13.2575L7.05366 16.4792C6.86266 16.7671 6.84518 17.1366 7.00813 17.4413C7.17108 17.7459 7.48815 17.9365 7.83366 17.9375ZM13.1478 16.8958H13.2503C13.538 16.8958 13.7712 17.129 13.7712 17.4167C13.7712 17.7043 13.538 17.9375 13.2503 17.9375H11.5837C11.296 17.9375 11.0628 17.7043 11.0628 17.4167C11.0628 17.129 11.296 16.8958 11.5837 16.8958H11.6887C11.8033 16.8958 11.8962 16.8029 11.8962 16.6883V13.1475C11.8962 13.0315 11.8021 12.9375 11.6862 12.9375H11.5837C11.296 12.9375 11.0628 12.7043 11.0628 12.4167C11.0628 12.129 11.296 11.8958 11.5837 11.8958H13.2503C13.538 11.8958 13.7712 12.129 13.7712 12.4167C13.7712 12.7043 13.538 12.9375 13.2503 12.9375H13.1453C13.0307 12.9375 12.9378 13.0304 12.9378 13.145V16.6858C12.9378 16.8018 13.0318 16.8958 13.1478 16.8958ZM15.6478 15.4358H16.167V15.4375C17.145 15.4375 17.9378 14.6447 17.9378 13.6667C17.9378 12.6887 17.145 11.8958 16.167 11.8958H14.917C14.6293 11.8958 14.3962 12.129 14.3962 12.4167V17.4167C14.3962 17.7043 14.6293 17.9375 14.917 17.9375C15.2046 17.9375 15.4378 17.7043 15.4378 17.4167V15.6458C15.4378 15.5299 15.5318 15.4358 15.6478 15.4358ZM15.3337 5.75C15.3337 6.44036 15.8933 7 16.5837 7H19.8337C19.918 7.00015 19.9942 6.94939 20.0265 6.87144C20.0588 6.7935 20.0409 6.70376 19.9812 6.64417L15.6895 2.35583C15.6303 2.29651 15.5414 2.27839 15.4637 2.30985C15.3861 2.34131 15.3348 2.41623 15.3337 2.5V5.75ZM15.6478 12.9392H16.167C16.5697 12.9392 16.8962 13.2656 16.8962 13.6683C16.8962 14.071 16.5697 14.3975 16.167 14.3975H15.6478C15.5318 14.3975 15.4378 14.3035 15.4378 14.1875V13.1492C15.4378 13.0332 15.5318 12.9392 15.6478 12.9392Z" fill="#5A5A5A"/>
</g>
</svg>
