<svg width="24" height="24" viewBox="0 0 24 24" fill="none" xmlns="http://www.w3.org/2000/svg">
<g id="zip_file_rar">
<path id="Shape" fill-rule="evenodd" clip-rule="evenodd" d="M14.4993 5.75C14.4993 6.90059 15.4321 7.83333 16.5827 7.83333H20.1243C20.2394 7.83333 20.3327 7.92661 20.3327 8.04167V20.3333C20.3327 21.2538 19.5865 22 18.666 22H5.33268C4.41221 22 3.66602 21.2538 3.66602 20.3333V3.66667C3.66602 2.74619 4.41221 2 5.33268 2H14.291C14.4061 2 14.4993 2.09327 14.4993 2.20833V5.75ZM9.45102 17.0492L7.93102 15.5275C7.89602 15.4933 7.92352 15.4283 8.00435 15.4283C8.94803 15.3413 9.65575 14.5265 9.60975 13.5799C9.56375 12.6333 8.78036 11.8909 7.83268 11.8958H6.58268C6.29503 11.8958 6.06185 12.129 6.06185 12.4167V17.4167C6.06185 17.7043 6.29503 17.9375 6.58268 17.9375C6.87033 17.9375 7.10352 17.7043 7.10352 17.4167V16.2667C7.10352 16.2192 7.15268 16.2225 7.17685 16.25C7.20102 16.2775 8.71435 17.7842 8.71435 17.7842C8.84564 17.9158 9.03717 17.9673 9.21678 17.9194C9.39639 17.8715 9.5368 17.7314 9.58511 17.5519C9.63343 17.3724 9.58231 17.1808 9.45102 17.0492ZM13.7702 17.4167C13.7702 17.7043 13.537 17.9375 13.2493 17.9375C12.9617 17.9375 12.7285 17.7043 12.7285 17.4167V15.645C12.7285 15.5304 12.6356 15.4375 12.521 15.4375H11.4793C11.3638 15.4375 11.2702 15.5311 11.2702 15.6467V17.4167C11.2702 17.7043 11.037 17.9375 10.7493 17.9375C10.4617 17.9375 10.2285 17.7043 10.2285 17.4167V13.6667C10.2285 12.6887 11.0213 11.8958 11.9993 11.8958C12.9774 11.8958 13.7702 12.6887 13.7702 13.6667V17.4167ZM17.9431 13.5799C17.8971 12.6333 17.1137 11.8909 16.166 11.8958H14.916C14.6284 11.8958 14.3952 12.129 14.3952 12.4167V17.4167C14.3952 17.7043 14.6284 17.9375 14.916 17.9375C15.2037 17.9375 15.4368 17.7043 15.4368 17.4167V16.265C15.4368 16.2175 15.486 16.2192 15.5102 16.2483C15.5343 16.2775 17.0477 17.7842 17.0477 17.7842C17.179 17.9158 17.3705 17.9673 17.5501 17.9194C17.7297 17.8715 17.8701 17.7314 17.9184 17.5519C17.9668 17.3724 17.9156 17.1808 17.7843 17.0492L16.2643 15.5275C16.2293 15.4933 16.2543 15.4283 16.3377 15.4283C17.2814 15.3413 17.9891 14.5265 17.9431 13.5799ZM15.3327 5.75C15.3327 6.44036 15.8923 7 16.5827 7H19.8327C19.9171 7.00015 19.9932 6.94939 20.0255 6.87144C20.0578 6.7935 20.0399 6.70376 19.9802 6.64417L15.6885 2.35583C15.6294 2.29651 15.5404 2.27839 15.4628 2.30985C15.3851 2.34131 15.3339 2.41623 15.3327 2.5V5.75ZM11.9993 12.9375C11.597 12.9384 11.2711 13.2643 11.2702 13.6667V14.1858C11.2702 14.3018 11.3642 14.3958 11.4802 14.3958H12.521C12.6356 14.3958 12.7285 14.3029 12.7285 14.1883V13.6667C12.7276 13.2643 12.4017 12.9384 11.9993 12.9375ZM7.83268 12.9375C8.23501 12.9384 8.56093 13.2643 8.56185 13.6667C8.56093 14.069 8.23501 14.3949 7.83268 14.3958H7.31102C7.19642 14.3958 7.10352 14.3029 7.10352 14.1883V13.145C7.10352 13.0304 7.19642 12.9375 7.31102 12.9375H7.83268ZM15.4368 13.145C15.4368 13.0304 15.5297 12.9375 15.6443 12.9375H16.166C16.5687 12.9375 16.8952 13.264 16.8952 13.6667C16.8952 14.0694 16.5687 14.3958 16.166 14.3958H15.6443C15.5297 14.3958 15.4368 14.3029 15.4368 14.1883V13.145Z" fill="#5A5A5A"/>
</g>
</svg>
