<svg width="24" height="24" viewBox="0 0 24 24" fill="none" xmlns="http://www.w3.org/2000/svg">
<g id="zip_file_add">
<path id="Shape" fill-rule="evenodd" clip-rule="evenodd" d="M16.795 9.94C12.2425 10.025 9.91667 12.9617 9.91667 16.5833C9.91546 17.7939 10.246 18.9816 10.8725 20.0175C10.913 20.0806 10.9159 20.1608 10.88 20.2266C10.844 20.2924 10.775 20.3333 10.7 20.3333H3.25C2.55964 20.3333 2 19.7737 2 19.0833V3.25C2 2.55964 2.55964 2 3.25 2H12.6608C12.9921 2.00007 13.3098 2.13165 13.5442 2.36583L16.6342 5.45583C16.8683 5.69017 16.9999 6.00788 17 6.33917V9.73583C16.9986 9.84835 16.9075 9.9391 16.795 9.94ZM6.16667 16.5833C6.16667 17.0436 6.53976 17.4167 7 17.4167C7.46024 17.4167 7.83333 17.0436 7.83333 16.5833C7.83333 16.1231 7.46024 15.75 7 15.75C6.53976 15.75 6.16667 16.1231 6.16667 16.5833ZM7 14.5C6.53976 14.5 6.16667 14.1269 6.16667 13.6667C6.16667 13.2064 6.53976 12.8333 7 12.8333C7.46024 12.8333 7.83333 13.2064 7.83333 13.6667C7.83334 14.1253 7.46278 14.4977 7.00417 14.5H7ZM6.16667 10.75C6.16667 11.2102 6.53976 11.5833 7 11.5833H7.00417C7.46278 11.581 7.83334 11.2086 7.83333 10.75C7.83333 10.2898 7.46024 9.91667 7 9.91667C6.53976 9.91667 6.16667 10.2898 6.16667 10.75ZM8.25 7.5C7.93866 7.85481 7.48954 8.05827 7.0175 8.05833C6.53871 8.06935 6.07887 7.87128 5.75796 7.51579C5.43705 7.16031 5.28689 6.68267 5.34667 6.2075L5.755 3.60167C5.78699 3.39911 5.9616 3.24995 6.16667 3.25H7.83333C8.03867 3.25001 8.21338 3.39962 8.245 3.6025L8.64917 6.195V6.2075C8.70822 6.67456 8.56546 7.14465 8.25667 7.5H8.25ZM16.5833 11.1667C13.5918 11.1667 11.1667 13.5918 11.1667 16.5833C11.1667 19.5749 13.5918 22 16.5833 22C19.5749 22 22 19.5749 22 16.5833C21.9963 13.5933 19.5734 11.1703 16.5833 11.1667ZM18.6667 17.2083H17.4167C17.3016 17.2083 17.2083 17.3016 17.2083 17.4167V18.6667C17.2083 19.0118 16.9285 19.2917 16.5833 19.2917C16.2382 19.2917 15.9583 19.0118 15.9583 18.6667V17.4167C15.9583 17.3016 15.8651 17.2083 15.75 17.2083H14.5C14.1548 17.2083 13.875 16.9285 13.875 16.5833C13.875 16.2382 14.1548 15.9583 14.5 15.9583H15.75C15.8651 15.9583 15.9583 15.8651 15.9583 15.75V14.5C15.9583 14.1548 16.2382 13.875 16.5833 13.875C16.9285 13.875 17.2083 14.1548 17.2083 14.5V15.75C17.2083 15.8651 17.3016 15.9583 17.4167 15.9583H18.6667C19.0118 15.9583 19.2917 16.2382 19.2917 16.5833C19.2917 16.9285 19.0118 17.2083 18.6667 17.2083Z" fill="#5A5A5A"/>
</g>
</svg>
