<?xml version="1.0" encoding="UTF-8"?>
<svg width="24px" height="24px" viewBox="0 0 24 24" version="1.1" xmlns="http://www.w3.org/2000/svg" xmlns:xlink="http://www.w3.org/1999/xlink">
    <title>10. Files and Folders/zip_file_download</title>
    <g id="10.-Files-and-Folders/zip_file_download" stroke="none" stroke-width="1" fill="none" fill-rule="evenodd">
        <path d="M16.5833333,11.1666667 C19.5748757,11.1666667 22,13.5917909 22,16.5833333 C22,19.5748757 19.5748757,22 16.5833333,22 C13.5933138,21.9963268 11.1703399,19.5733529 11.1666667,16.5833333 C11.1666667,13.5917909 13.5917909,11.1666667 16.5833333,11.1666667 Z M12.6608333,2 C12.9921227,2 13.3098347,2.13165146 13.5441667,2.36583333 L13.5441667,2.36583333 L16.6341667,5.45583333 C16.8683485,5.69016532 17,6.00787733 17,6.33916667 L17,6.33916667 L17,9.73583333 C16.9986424,9.84834857 16.9075198,9.93910074 16.795,9.94 C12.2425,10.025 9.91666667,12.9616667 9.91666667,16.5833333 C9.91545537,17.7938954 10.2460404,18.9816379 10.8725,20.0175 C10.9130454,20.0805883 10.9159058,20.1607811 10.8799584,20.2265978 C10.844011,20.2924145 10.7749937,20.3333333 10.7,20.3333333 L10.7,20.3333333 L3.25,20.3333333 C2.55964406,20.3333333 2,19.7736893 2,19.0833333 L2,19.0833333 L2,3.25 C2,2.55964406 2.55964406,2 3.25,2 L3.25,2 Z M16.5833333,13.25 C16.123096,13.25 15.75,13.623096 15.75,14.0833333 L15.75,14.0833333 L15.75,16.375 C15.75,16.4900593 15.656726,16.5833333 15.5416667,16.5833333 L15.5416667,16.5833333 L14.9166667,16.5833333 C14.7565215,16.5832411 14.6104949,16.674941 14.5410161,16.8192295 C14.4715372,16.9635181 14.4909027,17.1348587 14.5908333,17.26 L14.5908333,17.26 L16.2575,19.3441667 C16.3394855,19.438514 16.4583412,19.4926925 16.5833333,19.4926925 C16.7083255,19.4926925 16.8271812,19.438514 16.9091667,19.3441667 L16.9091667,19.3441667 L18.5758333,17.2608333 C18.6762809,17.1357042 18.6959507,16.9640137 18.6264054,16.8194092 C18.5568601,16.6748047 18.4104584,16.5829837 18.25,16.5833333 L18.25,16.5833333 L17.625,16.5833333 C17.5099407,16.5833333 17.4166667,16.4900593 17.4166667,16.375 L17.4166667,16.375 L17.4166667,14.0833333 C17.4166667,13.623096 17.0435706,13.25 16.5833333,13.25 Z M7,15.75 C6.53976271,15.75 6.16666667,16.123096 6.16666667,16.5833333 C6.16666667,17.0435706 6.53976271,17.4166667 7,17.4166667 C7.46023729,17.4166667 7.83333333,17.0435706 7.83333333,16.5833333 C7.83333333,16.123096 7.46023729,15.75 7,15.75 Z M7,12.8333333 C6.53976271,12.8333333 6.16666667,13.2064294 6.16666667,13.6666667 C6.16666667,14.126904 6.53976271,14.5 7,14.5 L7,14.5 C7.46277594,14.4977069 7.83333333,14.1252817 7.83333333,13.6666667 C7.83333333,13.2064294 7.46023729,12.8333333 7,12.8333333 Z M7,9.91666667 C6.53976271,9.91666667 6.16666667,10.2897627 6.16666667,10.75 C6.16666667,11.2102373 6.53976271,11.5833333 7,11.5833333 L7,11.5833333 C7.46277594,11.5810403 7.83333333,11.208615 7.83333333,10.75 C7.83333333,10.2897627 7.46023729,9.91666667 7,9.91666667 Z M7.83333333,3.24999999 L6.16666667,3.24999999 C5.96160365,3.24995018 5.78698982,3.39911422 5.755,3.60166667 L5.755,3.60166667 L5.34666667,6.2075 C5.28688796,6.68266711 5.43704507,7.1603057 5.75795976,7.51579275 C6.07887445,7.87127979 6.53871421,8.06935344 7.0175,8.05833333 C7.4895406,8.05827017 7.93866428,7.8548132 8.25,7.5 L8.25,7.5 C8.56546154,7.14464839 8.70821659,6.6745569 8.64916667,6.2075 L8.64916667,6.2075 L8.64916667,6.195 L8.245,3.6025 C8.21337872,3.39961643 8.03866635,3.24999999 7.83333333,3.24999999 L7.83333333,3.24999999 Z" id="ðŸ–-Color" fill="#5A5A5A"></path>
        <rect id="_Transparent_Rectangle_" x="0" y="0" width="24" height="24"></rect>
    </g>
</svg>