<svg id="user" xmlns="http://www.w3.org/2000/svg" width="28" height="42" viewBox="0 0 28 42">
  <path id="Path_1462" data-name="Path 1462"
        d="M26.667,12.333A9.333,9.333,0,1,1,17.333,3,9.333,9.333,0,0,1,26.667,12.333Zm-4.667,0a4.667,4.667,0,1,1-4.667-4.667A4.667,4.667,0,0,1,22,12.333Z"
        transform="translate(-3.333 -3)" fill="#ffcb3d" fill-rule="evenodd"/>
  <path id="Path_1463" data-name="Path 1463"
        d="M29.333,19A2.333,2.333,0,0,0,27,16.667H13A2.333,2.333,0,0,0,10.667,19V33H6V19a7,7,0,0,1,7-7H27a7,7,0,0,1,7,7V33H29.333Z"
        transform="translate(-6 9)" fill="#ffcb3d"/>
</svg>
