<?xml version="1.0" encoding="UTF-8"?>
<svg width="16px" height="14px" viewBox="0 0 16 14" version="1.1" xmlns="http://www.w3.org/2000/svg" xmlns:xlink="http://www.w3.org/1999/xlink" fill="currentColor">
    <title>twitter</title>
    <defs>
        <path d="M7.80984229,4.9972018 C7.80984229,4.9972018 5.33755293,5.57054172 2.57880611,2.34577027 C2.57880611,2.34577027 1.50395313,4.45977531 3.36720163,5.74947138 C3.36720163,5.74947138 2.75837328,5.85699918 2.25622271,5.49892736 C2.25622271,5.49892736 2.04116711,7.32604992 4.26269994,8.04261858 L3.08031916,8.04261858 C3.08031916,8.04261858 3.40311507,9.51166932 5.48099416,9.83404021 C5.48099416,9.83404021 4.62119678,10.9805076 1.82632402,10.9088932 C1.82632402,10.9088932 3.40311507,12.1269749 5.80379006,12.0910615 C5.80379006,12.0910615 10.2462182,12.3061171 12.3602232,7.28992398 C12.8800118,6.05632937 12.8260354,4.889674 12.7901219,4.31612157 L14.1516449,3.09825236 L12.7901219,3.34900889 C12.7901219,3.34900889 13.7217462,2.66835367 13.8294865,2.02339938 L12.3245223,2.63244023 C12.3245223,2.63244023 11.1959054,1.61135115 9.27889303,2.02339938 C9.27868052,2.02339938 7.52338483,2.38168371 7.80984229,4.9972018 Z M9.21099649,0.278652485 C10.5074581,0.0237419355 11.6718194,0.208663879 12.6524059,0.681922804 C12.7058758,0.707728915 12.7575377,0.733746437 12.8073907,0.759869205 L13.7682973,0.371001902 C14.757922,-0.0294872879 15.8037687,0.808188252 15.6298536,1.86083715 C16.1011108,2.37853027 16.1758779,3.24352687 15.539005,3.8132036 L14.5534607,4.69476354 C14.5655533,5.77874821 14.4168847,6.75062334 13.9604094,7.83395889 C13.14661,9.7649737 11.9796533,11.2172477 10.5519776,12.2274084 C9.54286933,12.9414092 8.46317352,13.39478 7.37505943,13.6387499 C6.67175989,13.7964391 6.07512316,13.8456374 5.63612236,13.8346819 C4.29600882,13.84981 3.06161553,13.566391 1.96027943,13.0842813 C1.304992,12.7974293 0.823590308,12.5010838 0.534288752,12.2775964 C-0.5115806,11.4696553 0.0838451987,9.79538466 1.40500588,9.8292374 C1.65863375,9.83573623 1.89619351,9.83201788 2.11837324,9.81912768 C1.69768211,9.32034955 1.47437599,8.81879368 1.38368961,8.4060781 C1.35219379,8.26273997 1.34433324,8.12068264 1.3571984,7.98352441 C1.26989162,7.87819266 1.18850872,7.76890308 1.11307261,7.65584438 C0.578510774,6.85467803 0.420788421,6.0310611 0.465062203,5.32780639 C0.470172869,5.25837942 0.470172869,5.25837942 0.474776134,5.21680501 C0.49881782,5.0125457 0.564440172,4.82817161 0.660803047,4.66848588 C0.37771367,3.76666263 0.44197588,2.85982025 0.708676771,2.00601377 C0.795419837,1.72831769 0.886741042,1.51112744 0.960850671,1.36536971 C1.40241205,0.496913278 2.58481198,0.355965182 3.21814809,1.09628835 C4.21534275,2.26193533 5.20031305,2.95499979 6.1397051,3.29083019 C6.25624886,3.3324943 6.36821415,3.36749372 6.47532261,3.39650946 C6.77434535,1.50901005 8.01677213,0.380109722 9.21099649,0.278652485 Z M2.82700549,4.29404879 C2.82727916,4.29402477 2.82584903,4.29419137 2.82403345,4.29442795 L2.82700549,4.29404879 Z" id="path-1"></path>
    </defs>
    <g id="Page-2" stroke="none" stroke-width="1" fill="none" fill-rule="evenodd">
        <g id="Setting-Features" transform="translate(-1130.000000, -3358.000000)">
            <g id="footer" transform="translate(-44.000000, 2781.000000)">
                <g id="Legal-Stuff-Copy" transform="translate(1174.000000, 540.000000)">
                    <g id="icon/social/facebook_24px-copy" transform="translate(0.000000, 37.000000)">
                        <mask id="mask-2" fill="white">
                            <use xlink:href="#path-1"></use>
                        </mask>
                        <use id="icon/social/twitter_24px" fill="#37474F" fill-rule="nonzero" xlink:href="#path-1"></use>
                    </g>
                </g>
            </g>
        </g>
    </g>
</svg>
