<?xml version="1.0" encoding="UTF-8"?>
<svg width="24px" height="24px" viewBox="0 0 24 24" version="1.1" xmlns="http://www.w3.org/2000/svg" xmlns:xlink="http://www.w3.org/1999/xlink">
    <title>2. Library Essentials/chart</title>
    <g id="2.-Library-Essentials/chart" stroke="none" stroke-width="1" fill="none" fill-rule="evenodd">
        <path d="M21.1666667,20.3333333 C21.626904,20.3333333 22,20.7064294 22,21.1666667 C22,21.626904 21.626904,22 21.1666667,22 L21.1666667,22 L2.83333333,22 C2.37309604,22 2,21.626904 2,21.1666667 C2,20.7064294 2.37309604,20.3333333 2.83333333,20.3333333 L2.83333333,20.3333333 Z M6.86083333,11.5833333 C7.16666667,11.5833333 7.41666667,11.77 7.41666667,12 L7.41666667,12 L7.41666667,18.6666667 C7.41666667,18.8967853 7.23011865,19.0833333 7,19.0833333 L7,19.0833333 L4.5,19.0833333 C4.26988135,19.0833333 4.08333333,18.8967853 4.08333333,18.6666667 L4.08333333,18.6666667 L4.08333333,12 C4.08333333,11.77 4.33166667,11.5833333 4.63916667,11.5833333 L4.63916667,11.5833333 Z M13.5275,14.0833333 C13.8333333,14.0833333 14.0833333,14.27 14.0833333,14.5 L14.0833333,14.5 L14.0833333,18.6666667 C14.0833333,18.8967853 13.8967853,19.0833333 13.6666667,19.0833333 L13.6666667,19.0833333 L11.1666667,19.0833333 C10.936548,19.0833333 10.75,18.8967853 10.75,18.6666667 L10.75,18.6666667 L10.75,14.5 C10.75,14.27 10.9983333,14.0833333 11.3058333,14.0833333 L11.3058333,14.0833333 Z M19.7775,8.25 C20.0833333,8.25 20.3333333,8.42333333 20.3333333,8.6375 L20.3333333,8.6375 L20.3333333,18.6966667 C20.3247492,18.9183634 20.1383861,19.0913083 19.9166667,19.0833333 L19.9166667,19.0833333 L17.4166667,19.0833333 C17.1949472,19.0913083 17.0085841,18.9183634 17,18.6966667 L17,18.6966667 L17,8.6375 C17,8.42333333 17.2483333,8.25 17.5558333,8.25 L17.5558333,8.25 Z M18.25,2 C19.1704746,2 19.9166667,2.74619208 19.9166667,3.66666667 C19.9166667,4.58714125 19.1704746,5.33333333 18.25,5.33333333 C18.1242543,5.33275512 17.9990894,5.31623447 17.8775,5.28416667 C17.8091479,5.26709009 17.7367914,5.28557076 17.685,5.33333333 L17.685,5.33333333 L13.7066667,9.0475 C13.6549168,9.0954323 13.6310611,9.16637147 13.6433333,9.23583333 C13.6583101,9.32310419 13.666114,9.41145509 13.6666667,9.5 C13.6428117,10.3609698 12.9668717,11.0619471 12.1073383,11.1170869 C11.2478049,11.1722268 10.4878374,10.5633644 10.3541667,9.7125 C10.3448424,9.64362858 10.3025539,9.58361634 10.2408333,9.55166667 L10.2408333,9.55166667 L6.35416667,7.60833333 C6.29166738,7.57769441 6.21807344,7.57987728 6.1575,7.61416667 C5.52313027,7.97715452 4.72602253,7.88277164 4.19396664,7.38167118 C3.66191075,6.88057073 3.51997412,6.09054359 3.84433095,5.43557964 C4.16868778,4.78061569 4.88309334,4.41467364 5.60414216,4.53414638 C6.32519097,4.65361913 6.88339014,5.23042289 6.97916667,5.955 C6.98861125,6.02361634 7.03090423,6.08332408 7.0925,6.115 L7.0925,6.115 L10.9791667,8.05916667 C11.041666,8.08980559 11.1152599,8.08762272 11.1758333,8.05333333 C11.4265976,7.90920828 11.7107687,7.83335271 12,7.83333333 C12.1257521,7.83459413 12.2508666,7.85138803 12.3725,7.88333333 C12.4409927,7.90019094 12.5133687,7.88139198 12.565,7.83333333 L12.565,7.83333333 L16.5433333,4.11916667 C16.5950774,4.07158227 16.6189587,4.00088103 16.6066667,3.93166667 C16.591689,3.84411567 16.5838853,3.75548785 16.5833333,3.66666667 C16.5833333,2.74619208 17.3295254,2 18.25,2 Z" id="ðŸ–-Color" fill="#5A5A5A"></path>
        <rect id="_Transparent_Rectangle_" x="0" y="0" width="24" height="24"></rect>
    </g>
</svg>