<svg width="24" height="24" viewBox="0 0 24 24" fill="none" xmlns="http://www.w3.org/2000/svg">
<g id="chart">
<path id="Shape" fill-rule="evenodd" clip-rule="evenodd" d="M18.25 5.33333C18.1243 5.33276 17.9991 5.31623 17.8775 5.28417C17.8091 5.26709 17.7368 5.28557 17.685 5.33333L13.7067 9.0475C13.6549 9.09543 13.6311 9.16637 13.6433 9.23583C13.6583 9.3231 13.6661 9.41146 13.6667 9.5C13.6428 10.361 12.9669 11.0619 12.1073 11.1171C11.2478 11.1722 10.4878 10.5634 10.3542 9.7125C10.3448 9.64363 10.3026 9.58362 10.2408 9.55167L6.35417 7.60833C6.29167 7.57769 6.21807 7.57988 6.1575 7.61417C5.52313 7.97715 4.72602 7.88277 4.19397 7.38167C3.66191 6.88057 3.51997 6.09054 3.84433 5.43558C4.16869 4.78062 4.88309 4.41467 5.60414 4.53415C6.32519 4.65362 6.88339 5.23042 6.97917 5.955C6.98861 6.02362 7.0309 6.08332 7.0925 6.115L10.9792 8.05917C11.0417 8.08981 11.1153 8.08762 11.1758 8.05333C11.4266 7.90921 11.7108 7.83335 12 7.83333C12.1258 7.83459 12.2509 7.85139 12.3725 7.88333C12.441 7.90019 12.5134 7.88139 12.565 7.83333L16.5433 4.11917C16.5951 4.07158 16.619 4.00088 16.6067 3.93167C16.5917 3.84412 16.5839 3.75549 16.5833 3.66667C16.5833 2.74619 17.3295 2 18.25 2C19.1705 2 19.9167 2.74619 19.9167 3.66667C19.9167 4.58714 19.1705 5.33333 18.25 5.33333ZM19.9167 19.0833H17.4167C17.1949 19.0913 17.0086 18.9184 17 18.6967V8.6375C17 8.42333 17.2483 8.25 17.5558 8.25H19.7775C20.0833 8.25 20.3333 8.42333 20.3333 8.6375V18.6967C20.3247 18.9184 20.1384 19.0913 19.9167 19.0833ZM4.63917 11.5833C4.33167 11.5833 4.08333 11.77 4.08333 12V18.6667C4.08333 18.8968 4.26988 19.0833 4.5 19.0833H7C7.23012 19.0833 7.41667 18.8968 7.41667 18.6667V12C7.41667 11.77 7.16667 11.5833 6.86083 11.5833H4.63917ZM11.3058 14.0833C10.9983 14.0833 10.75 14.27 10.75 14.5V18.6667C10.75 18.8968 10.9365 19.0833 11.1667 19.0833H13.6667C13.8968 19.0833 14.0833 18.8968 14.0833 18.6667V14.5C14.0833 14.27 13.8333 14.0833 13.5275 14.0833H11.3058ZM22 21.1667C22 20.7064 21.6269 20.3333 21.1667 20.3333H2.83333C2.3731 20.3333 2 20.7064 2 21.1667C2 21.6269 2.3731 22 2.83333 22H21.1667C21.6269 22 22 21.6269 22 21.1667Z" fill="#5A5A5A"/>
</g>
</svg>
