<svg width="24" height="24" viewBox="0 0 24 24" fill="none" xmlns="http://www.w3.org/2000/svg">
<g id="component_context_button">
<path id="Shape" fill-rule="evenodd" clip-rule="evenodd" d="M21.9995 13.0004V8.0004C21.9995 6.8994 21.1095 6.0004 19.9995 6.0004H3.99951C2.89951 6.0004 1.99951 6.8994 1.99951 8.0004V13.0004C1.99951 14.1004 2.89951 15.0004 3.99951 15.0004H9.49951C9.49951 11.9704 11.9705 9.5004 14.9995 9.5004C18.0105 9.5004 20.4595 11.9304 20.4995 14.9304C21.3695 14.7104 21.9995 13.9304 21.9995 13.0004ZM16.4759 14.482C16.5929 14.365 16.6929 14.224 16.7759 14.059C16.8579 13.894 16.8989 13.713 16.8989 13.515C16.8989 13.249 16.8219 13.01 16.6679 12.8C16.5129 12.589 16.2999 12.424 16.0289 12.305C15.7559 12.185 15.4479 12.124 15.1009 12.124C14.7929 12.124 14.4849 12.174 14.1779 12.273C13.8719 12.372 13.5989 12.508 13.3599 12.685C13.2679 12.753 13.2039 12.826 13.1639 12.9C13.1239 12.975 13.1029 13.068 13.1029 13.179C13.1029 13.345 13.1499 13.485 13.2429 13.6C13.3369 13.714 13.4499 13.771 13.5839 13.771C13.6949 13.771 13.8409 13.721 14.0229 13.62L14.2139 13.524C14.3639 13.438 14.4989 13.372 14.6179 13.328C14.7379 13.283 14.8589 13.259 14.9819 13.259C15.1299 13.259 15.2479 13.294 15.3339 13.364C15.4189 13.433 15.4609 13.526 15.4609 13.643C15.4609 13.76 15.4299 13.867 15.3689 13.963C15.3079 14.059 15.2149 14.173 15.0929 14.307C14.9229 14.482 14.7899 14.655 14.6939 14.823C14.5979 14.99 14.5499 15.199 14.5499 15.45C14.5499 15.615 14.5879 15.743 14.6659 15.833C14.7429 15.923 14.8509 15.969 14.9889 15.969C15.1009 15.969 15.1989 15.937 15.2809 15.872C15.3639 15.809 15.4159 15.718 15.4369 15.601C15.4639 15.49 15.5239 15.381 15.6169 15.278C15.7099 15.173 15.8439 15.05 16.0209 14.907C16.2069 14.741 16.3589 14.6 16.4759 14.482ZM15.0049 17.879C15.2289 17.879 15.4149 17.804 15.5609 17.656C15.7079 17.505 15.7809 17.323 15.7809 17.104C15.7809 16.885 15.7079 16.702 15.5609 16.552C15.4149 16.404 15.2289 16.329 15.0049 16.329C14.7869 16.329 14.6039 16.404 14.4579 16.552C14.3119 16.702 14.2379 16.885 14.2379 17.104C14.2379 17.323 14.3119 17.505 14.4579 17.656C14.6039 17.804 14.7869 17.879 15.0049 17.879ZM10.5019 15.001C10.5019 12.516 12.5159 10.501 15.0019 10.501C17.4869 10.501 19.5019 12.516 19.5019 15.001C19.5019 17.487 17.4869 19.501 15.0019 19.501C12.5159 19.501 10.5019 17.487 10.5019 15.001Z" fill="#5A5A5A"/>
</g>
</svg>
