<?xml version="1.0" encoding="UTF-8"?>
<svg width="24px" height="24px" viewBox="0 0 24 24" version="1.1" xmlns="http://www.w3.org/2000/svg" xmlns:xlink="http://www.w3.org/1999/xlink">
    <title>2. Library Essentials/component_info_numeric</title>
    <g id="2.-Library-Essentials/component_info_numeric" stroke="none" stroke-width="1" fill="none" fill-rule="evenodd">
        <path d="M19.5002,1.9997 C20.8812,1.9997 22.0002,3.1187 22.0002,4.4997 L22.0002,4.4997 L22.0002,19.4997 C22.0002,20.8807 20.8812,21.9997 19.5002,21.9997 L19.5002,21.9997 L4.5002,21.9997 C3.1192,21.9997 2.0002,20.8807 2.0002,19.4997 L2.0002,19.4997 L2.0002,4.4997 C2.0002,3.1187 3.1192,1.9997 4.5002,1.9997 L4.5002,1.9997 Z M19.5002,3.6667 L4.5002,3.6667 C4.0402,3.6667 3.6672,4.0397 3.6672,4.4997 L3.6672,4.4997 L3.6672,19.4997 C3.6672,19.9597 4.0402,20.3337 4.5002,20.3337 L4.5002,20.3337 L19.5002,20.3337 C19.9602,20.3337 20.3332,19.9597 20.3332,19.4997 L20.3332,19.4997 L20.3332,4.4997 C20.3332,4.0397 19.9602,3.6667 19.5002,3.6667 L19.5002,3.6667 Z M8.219,7.6616 C9.26,7.6616 10.057,8.0336 10.613,8.7776 C11.17,9.5226 11.447,10.5946 11.447,11.9936 C11.447,13.4016 11.172,14.4786 10.619,15.2226 C10.068,15.9666 9.268,16.3386 8.219,16.3386 C7.172,16.3386 6.371,15.9666 5.82,15.2226 C5.268,14.4786 4.992,13.4016 4.992,11.9936 C4.992,10.5946 5.268,9.5226 5.82,8.7776 C6.371,8.0336 7.172,7.6616 8.219,7.6616 Z M15.912,7.7221 C16.233,7.7221 16.49,7.8181 16.686,8.0101 C16.881,8.2021 16.981,8.4631 16.981,8.7901 L16.981,14.4781 L17.963,14.4781 C18.324,14.4781 18.588,14.5501 18.756,14.6941 C18.924,14.8391 19.008,15.0541 19.008,15.3421 C19.008,15.9341 18.66,16.2301 17.963,16.2301 L13.801,16.2301 C13.104,16.2301 12.756,15.9341 12.756,15.3421 C12.756,15.0541 12.84,14.8391 13.008,14.6941 C13.176,14.5501 13.44,14.4781 13.801,14.4781 L14.772,14.4781 L14.772,10.1461 L13.813,10.7111 C13.676,10.7911 13.535,10.8301 13.393,10.8301 C13.168,10.8301 12.977,10.7321 12.817,10.5361 C12.656,10.3401 12.576,10.1221 12.576,9.8821 C12.576,9.5541 12.715,9.3061 12.996,9.1381 L14.916,8.0221 C15.268,7.8221 15.6,7.7221 15.912,7.7221 Z M8.219,9.3296 C7.836,9.3296 7.561,9.5356 7.393,9.9476 C7.223,10.3596 7.139,11.0426 7.139,11.9936 C7.139,12.9456 7.223,13.6306 7.393,14.0466 C7.561,14.4626 7.836,14.6706 8.219,14.6706 C8.604,14.6706 8.879,14.4626 9.047,14.0466 C9.215,13.6306 9.299,12.9456 9.299,11.9936 C9.299,11.0506 9.215,10.3696 9.047,9.9536 C8.879,9.5386 8.604,9.3296 8.219,9.3296 Z" id="ðŸ–-Color" fill="#5A5A5A"></path>
        <rect id="_Transparent_Rectangle_" x="0" y="0" width="24" height="24"></rect>
    </g>
</svg>