<?xml version="1.0" encoding="UTF-8"?>
<svg width="24px" height="24px" viewBox="0 0 24 24" version="1.1" xmlns="http://www.w3.org/2000/svg" xmlns:xlink="http://www.w3.org/1999/xlink">
    <title>2. Library Essentials/component_memo_edit</title>
    <g id="2.-Library-Essentials/component_memo_edit" stroke="none" stroke-width="1" fill="none" fill-rule="evenodd">
        <path d="M17,2 C17.4602373,2 17.8333333,2.37309604 17.8333333,2.83333333 L17.8333333,2.83333333 L17.8333333,3.875 C17.8333333,3.99005932 17.9266073,4.08333333 18.0416667,4.08333333 L18.0416667,4.08333333 L19.5,4.08333333 C20.4204746,4.08333333 21.1666667,4.82952542 21.1666667,5.75 L21.1666667,5.75 L21.1666667,20.3333333 C21.1666667,21.2538079 20.4204746,22 19.5,22 L19.5,22 L4.5,22 C3.57952542,22 2.83333333,21.2538079 2.83333333,20.3333333 L2.83333333,20.3333333 L2.83333333,5.75 C2.83333333,4.82952542 3.57952542,4.08333333 4.5,4.08333333 L4.5,4.08333333 L5.95833333,4.08333333 C6.07339266,4.08333333 6.16666667,3.99005932 6.16666667,3.875 L6.16666667,3.875 L6.16666667,2.83333333 C6.16666667,2.37309604 6.53976271,2 7,2 C7.46023729,2 7.83333333,2.37309604 7.83333333,2.83333333 L7.83333333,2.83333333 L7.83333333,3.875 C7.83333333,3.99005932 7.92660734,4.08333333 8.04166667,4.08333333 L8.04166667,4.08333333 L10.9583333,4.08333333 C11.0733927,4.08333333 11.1666667,3.99005932 11.1666667,3.875 L11.1666667,3.875 L11.1666667,2.83333333 C11.1666667,2.37309604 11.5397627,2 12,2 C12.4602373,2 12.8333333,2.37309604 12.8333333,2.83333333 L12.8333333,2.83333333 L12.8333333,3.875 C12.8333333,3.99005932 12.9266073,4.08333333 13.0416667,4.08333333 L13.0416667,4.08333333 L15.9583333,4.08333333 C16.0733927,4.08333333 16.1666667,3.99005932 16.1666667,3.875 L16.1666667,3.875 L16.1666667,2.83333333 C16.1666667,2.37309604 16.5397627,2 17,2 Z M5.95833333,5.75 L4.70833333,5.75 C4.59327401,5.75 4.5,5.84327401 4.5,5.95833333 L4.5,5.95833333 L4.5,20.125 C4.5,20.2400593 4.59327401,20.3333333 4.70833333,20.3333333 L4.70833333,20.3333333 L19.2916667,20.3333333 C19.406726,20.3333333 19.5,20.2400593 19.5,20.125 L19.5,20.125 L19.4966667,5.95833333 C19.4966667,5.84327401 19.4033927,5.75 19.2883333,5.75 L19.2883333,5.75 L18.0383333,5.75 C17.9237342,5.75 17.8308333,5.84290091 17.8308333,5.9575 L17.8308333,5.9575 L17.8308333,6.58333333 C17.8308333,7.04357062 17.4577373,7.41666667 16.9975,7.41666667 C16.5372627,7.41666667 16.1641667,7.04357062 16.1641667,6.58333333 L16.1641667,6.58333333 L16.1641667,5.95833333 C16.1641667,5.84327401 16.0708927,5.75 15.9558333,5.75 L15.9558333,5.75 L13.0391667,5.75 C12.9250278,5.75 12.8325,5.84252782 12.8325,5.95666667 L12.8325,5.95666667 L12.8325,6.58333333 C12.8325,7.04357062 12.459404,7.41666667 11.9991667,7.41666667 C11.5389294,7.41666667 11.1658333,7.04357062 11.1658333,6.58333333 L11.1658333,6.58333333 L11.1658333,5.95833333 C11.1658333,5.84327401 11.0725593,5.75 10.9575,5.75 L10.9575,5.75 L8.04083333,5.75 C7.92623425,5.75 7.83333333,5.84290091 7.83333333,5.9575 L7.83333333,5.9575 L7.83333333,6.58333333 C7.83333333,7.04357062 7.46023729,7.41666667 7,7.41666667 C6.53976271,7.41666667 6.16666667,7.04357062 6.16666667,6.58333333 L6.16666667,6.58333333 L6.16666667,5.95833333 C6.16666667,5.84327401 6.07339266,5.75 5.95833333,5.75 L5.95833333,5.75 Z M14.0833333,16.5833333 C14.5435706,16.5833333 14.9166667,16.9564294 14.9166667,17.4166667 C14.9166667,17.876904 14.5435706,18.25 14.0833333,18.25 L14.0833333,18.25 L7.41666667,18.25 C6.95642938,18.25 6.58333333,17.876904 6.58333333,17.4166667 C6.58333333,16.9564294 6.95642938,16.5833333 7.41666667,16.5833333 L7.41666667,16.5833333 Z M16.5833333,13.25 C17.0435706,13.25 17.4166667,13.623096 17.4166667,14.0833333 C17.4166667,14.5435706 17.0435706,14.9166667 16.5833333,14.9166667 L16.5833333,14.9166667 L7.41666667,14.9166667 C6.95642938,14.9166667 6.58333333,14.5435706 6.58333333,14.0833333 C6.58333333,13.623096 6.95642938,13.25 7.41666667,13.25 L7.41666667,13.25 Z M16.5833333,9.91666667 C17.0435706,9.91666667 17.4166667,10.2897627 17.4166667,10.75 C17.4166667,11.2102373 17.0435706,11.5833333 16.5833333,11.5833333 L16.5833333,11.5833333 L7.41666667,11.5833333 C6.95642938,11.5833333 6.58333333,11.2102373 6.58333333,10.75 C6.58333333,10.2897627 6.95642938,9.91666667 7.41666667,9.91666667 L7.41666667,9.91666667 Z" id="ðŸ–-Color" fill="#5A5A5A"></path>
        <rect id="_Transparent_Rectangle_" x="0" y="0" width="24" height="24"></rect>
    </g>
</svg>