<?xml version="1.0" encoding="UTF-8"?>
<svg width="24px" height="24px" viewBox="0 0 24 24" version="1.1" xmlns="http://www.w3.org/2000/svg" xmlns:xlink="http://www.w3.org/1999/xlink">
    <title>2. Library Essentials/component_currency_edit</title>
    <g id="2.-Library-Essentials/component_currency_edit" stroke="none" stroke-width="1" fill="none" fill-rule="evenodd">
        <path d="M16.7907355,10.44725 C17.4447355,10.44725 18.0207355,10.85825 18.2077355,11.45925 L18.2077355,11.45925 L18.5607355,12.57225 C18.6187355,12.75525 18.8127355,12.86325 19.0067355,12.82125 L19.0067355,12.82125 L20.1817355,12.56025 C20.8177355,12.42025 21.4747355,12.69525 21.7997355,13.23825 C22.1257355,13.78125 22.0437355,14.46425 21.5987355,14.92325 L21.5987355,14.92325 L20.7767355,15.77225 C20.6407355,15.91325 20.6407355,16.13125 20.7767355,16.27325 L20.7767355,16.27325 L21.5997355,17.12525 C22.0427355,17.58425 22.1237355,18.26625 21.7987355,18.80925 C21.4737355,19.35125 20.8187355,19.62725 20.1827355,19.48825 L20.1827355,19.48825 L19.0067355,19.22725 C18.8137355,19.18525 18.6187355,19.29325 18.5617355,19.47625 L18.5617355,19.47625 L18.2087355,20.59025 C18.0207355,21.19025 17.4457355,21.60125 16.7917355,21.60125 C16.1387355,21.60125 15.5627355,21.19025 15.3747355,20.59025 L15.3747355,20.59025 L15.0227355,19.47625 C14.9647355,19.29325 14.7707355,19.18525 14.5777355,19.22725 L14.5777355,19.22725 L13.4017355,19.48825 C12.7657355,19.62725 12.1107355,19.35125 11.7847355,18.80925 C11.4587355,18.26625 11.5397355,17.58425 11.9847355,17.12525 L11.9847355,17.12525 L12.8077355,16.27325 C12.9427355,16.13125 12.9427355,15.91325 12.8077355,15.77225 L12.8077355,15.77225 L11.9847355,14.92125 C11.5387355,14.46325 11.4567355,13.78025 11.7837355,13.23625 C12.1087355,12.69425 12.7647355,12.41825 13.4017355,12.55825 L13.4017355,12.55825 L14.5767355,12.82125 C14.7697355,12.86025 14.9627355,12.75325 15.0217355,12.57125 L15.0217355,12.57125 L15.3737355,11.45925 C15.5617355,10.85825 16.1377355,10.44725 16.7907355,10.44725 Z M16.7917355,13.62425 C15.4117355,13.62425 14.2907355,14.69825 14.2907355,16.02525 C14.2907355,17.35025 15.4117355,18.42525 16.7917355,18.42525 C18.1727355,18.42525 19.2917355,17.35025 19.2917355,16.02525 C19.2917355,14.69825 18.1727355,13.62425 16.7917355,13.62425 Z M16.7921355,14.82495 C17.4821355,14.82495 18.0421355,15.36195 18.0421355,16.02495 C18.0421355,16.68795 17.4821355,17.22495 16.7921355,17.22495 C16.1021355,17.22495 15.5421355,16.68795 15.5421355,16.02495 C15.5421355,15.36195 16.1021355,14.82495 16.7921355,14.82495 Z M15.4229355,2.39875 C16.5229355,2.39875 17.4229355,3.28875 17.4229355,4.38775 L17.4229355,4.38775 L17.4229355,8.50775 C17.2129355,8.46775 17.0019355,8.44875 16.7919355,8.44875 C16.4519355,8.44875 16.1329355,8.49875 15.8219355,8.58775 L15.8219355,8.58775 L15.8219355,4.38775 C15.8219355,4.17775 15.6429355,3.99875 15.4229355,3.99875 L15.4229355,3.99875 L3.99193552,3.99875 C3.77293552,3.99875 3.60293552,4.17775 3.60293552,4.38775 L3.60293552,4.38775 L3.60293552,15.20875 C3.60293552,15.41875 3.77293552,15.59775 3.99193552,15.59775 L3.99193552,15.59775 L10.0229355,15.59775 C10.0929355,15.74875 10.1929355,15.88775 10.2919355,16.02875 C10.0229355,16.37775 9.83193552,16.77875 9.71293552,17.19875 L9.71293552,17.19875 L3.99193552,17.19875 C2.89293552,17.19875 2.00193552,16.30875 2.00193552,15.20875 L2.00193552,15.20875 L2.00193552,4.38775 C2.00193552,3.28875 2.89293552,2.39875 3.99193552,2.39875 L3.99193552,2.39875 Z M7.37903552,5.46575 L7.37903552,6.73575 L9.68503552,5.87175 L9.68503552,6.89575 L7.37903552,7.75375 L7.37903552,8.62975 L9.68503552,7.76575 L9.68503552,8.79175 L7.37903552,9.64975 L7.37903552,12.55775 C7.64903552,12.55775 7.90003552,12.48175 8.13303552,12.33175 C8.36503552,12.17975 8.56603552,11.97375 8.73703552,11.71175 C8.90803552,11.44975 9.04203552,11.13975 9.14003552,10.78475 C9.23703552,10.42875 9.28603552,10.04675 9.28603552,9.63775 L10.8650355,9.63775 C10.8650355,10.25375 10.7780355,10.83475 10.6060355,11.37975 C10.4330355,11.92675 10.1660355,12.40375 9.80403552,12.81075 C9.44203552,13.21775 8.98203552,13.54075 8.42203552,13.77675 C7.86103552,14.01275 7.19603552,14.13075 6.42503552,14.13075 L5.74003552,14.13075 L5.74003552,10.26875 L4.76903552,10.62775 L4.76903552,9.60175 L5.74003552,9.25075 L5.74003552,8.36875 L4.76903552,8.72575 L4.76903552,7.70675 L5.74003552,7.34875 L5.74003552,5.46575 L7.37903552,5.46575 Z" id="ðŸ–-Color" fill="#5A5A5A"></path>
        <rect id="_Transparent_Rectangle_" x="0" y="0" width="24" height="24"></rect>
    </g>
</svg>