<svg width="24" height="24" viewBox="0 0 24 24" fill="none" xmlns="http://www.w3.org/2000/svg">
<g id="component_combo_box">
<path id="Shape" fill-rule="evenodd" clip-rule="evenodd" d="M22 7.98994V3.98994C22 2.88994 21.109 1.98994 20 1.98994H16.21C16.7 2.51994 17 3.23994 17 4.00994V5.65994C17.05 5.68994 17.09 5.71994 17.12 5.75994L17.42 6.04994L18.72 4.30994C18.97 3.97994 19.45 3.90994 19.79 4.15994C20.12 4.40994 20.189 4.88994 19.939 5.22994L18.109 7.66994C17.979 7.83994 17.77 7.94994 17.55 7.96994C17.35 7.97994 17.149 7.91994 17 7.77994V9.98994H20C21.109 9.98994 22 9.09994 22 7.98994ZM3.707 6.98504C3.707 7.81504 4.377 8.48504 5.207 8.48504C6.037 8.48504 6.707 7.81504 6.707 6.98504C6.707 6.15504 6.037 5.48504 5.207 5.48504C4.377 5.48504 3.707 6.15504 3.707 6.98504ZM3.707 12.355C3.707 13.185 4.377 13.855 5.207 13.855C6.037 13.855 6.707 13.185 6.707 12.355C6.707 11.535 6.037 10.855 5.207 10.855C4.377 10.855 3.707 11.535 3.707 12.355ZM3.707 17.735C3.707 18.565 4.377 19.235 5.207 19.235C6.037 19.235 6.707 18.565 6.707 17.735C6.707 16.904 6.037 16.235 5.207 16.235C4.377 16.235 3.707 16.904 3.707 17.735ZM4 2.01004H14C15.109 2.01004 16 2.91004 16 4.01004V20.01C16 21.11 15.109 22.01 14 22.01H4C2.899 22.01 2 21.11 2 20.01V4.01004C2 2.91004 2.899 2.01004 4 2.01004Z" fill="#5A5A5A"/>
</g>
</svg>
