<?xml version="1.0" encoding="UTF-8"?>
<svg width="24px" height="24px" viewBox="0 0 24 24" version="1.1" xmlns="http://www.w3.org/2000/svg" xmlns:xlink="http://www.w3.org/1999/xlink">
    <title>2. Library Essentials/component_grid</title>
    <g id="2.-Library-Essentials/component_grid" stroke="none" stroke-width="1" fill="none" fill-rule="evenodd">
        <path d="M9.91666667,12.799375 C10.6066667,12.799375 11.1666667,13.359375 11.1666667,14.049375 L11.1666667,20.3502083 C11.1666667,21.0410417 10.6066667,21.6002083 9.91666667,21.6002083 L3.25,21.6002083 C2.55916667,21.6002083 2,21.0410417 2,20.3502083 L2,14.049375 C2,13.359375 2.55916667,12.799375 3.25,12.799375 L9.91666667,12.799375 Z M20.75,12.799375 C21.44,12.799375 22,13.359375 22,14.049375 L22,20.3502083 C22,21.0410417 21.44,21.6002083 20.75,21.6002083 L14.0833333,21.6002083 C13.3925,21.6002083 12.8333333,21.0410417 12.8333333,20.3502083 L12.8333333,14.049375 C12.8333333,13.359375 13.3925,12.799375 14.0833333,12.799375 L20.75,12.799375 Z M9.91666667,2.39979167 C10.6066667,2.39979167 11.1666667,2.95979167 11.1666667,3.64979167 L11.1666667,9.94979167 C11.1666667,10.640625 10.6066667,11.1997917 9.91666667,11.1997917 L3.25,11.1997917 C2.55916667,11.1997917 2,10.640625 2,9.94979167 L2,3.64979167 C2,2.95979167 2.55916667,2.39979167 3.25,2.39979167 L9.91666667,2.39979167 Z M20.75,2.39979167 C21.44,2.39979167 22,2.95979167 22,3.64979167 L22,9.94979167 C22,10.640625 21.44,11.1997917 20.75,11.1997917 L14.0833333,11.1997917 C13.3925,11.1997917 12.8333333,10.640625 12.8333333,9.94979167 L12.8333333,3.64979167 C12.8333333,2.95979167 13.3925,2.39979167 14.0833333,2.39979167 L20.75,2.39979167 Z" id="ðŸ–-Color" fill="#5A5A5A"></path>
        <rect id="_Transparent_Rectangle_" x="0" y="0" width="24" height="24"></rect>
    </g>
</svg>