<svg width="24" height="24" viewBox="0 0 24 24" fill="none" xmlns="http://www.w3.org/2000/svg">
<g id="component_bind_panel">
<path id="Shape" fill-rule="evenodd" clip-rule="evenodd" d="M19.5 2.99951C20.881 2.99951 22 4.11951 22 5.49951V17.5835C22 18.9645 20.881 20.0835 19.5 20.0835H4.5C3.119 20.0835 2 18.9645 2 17.5835V5.49951C2 4.11951 3.119 2.99951 4.5 2.99951H19.5ZM19.5 18.4165H10.125H8.458H4.5C4.04 18.4165 3.667 18.0435 3.667 17.5835V7.37451C3.667 7.26051 3.76 7.16651 3.875 7.16651H8.458H10.125H20.125C20.24 7.16651 20.333 7.26051 20.333 7.37451V11.9585V13.6245V17.5835C20.333 18.0435 19.96 18.4165 19.5 18.4165ZM10.747 4.25051C10.453 4.25051 10.184 4.40951 10.042 4.66651H10.045C9.964 4.79051 9.918 4.93551 9.913 5.08351C9.917 5.23051 9.962 5.37551 10.042 5.49951C10.184 5.75651 10.453 5.91651 10.747 5.91651C11.04 5.91651 11.311 5.75651 11.452 5.49951C11.532 5.37551 11.576 5.23051 11.58 5.08351C11.576 4.93551 11.532 4.79151 11.452 4.66651C11.311 4.40951 11.04 4.25051 10.747 4.25051ZM7.83 4.25051C7.537 4.25051 7.267 4.40951 7.125 4.66651H7.128C7.048 4.79151 7.004 4.93551 7 5.08351C7.004 5.23051 7.048 5.37551 7.128 5.49951C7.27 5.75651 7.54 5.91651 7.833 5.91651C8.127 5.91651 8.396 5.75651 8.538 5.49951C8.618 5.37551 8.663 5.23051 8.667 5.08351C8.662 4.93551 8.616 4.79051 8.535 4.66651C8.394 4.40951 8.123 4.25051 7.83 4.25051ZM4.917 4.24951C4.588 4.25051 4.291 4.44351 4.156 4.74351H4.16C4.11 4.85051 4.084 4.96551 4.083 5.08351C4.087 5.23051 4.132 5.37551 4.212 5.49951C4.354 5.75651 4.623 5.91651 4.917 5.91651C5.21 5.91651 5.48 5.75651 5.622 5.49951C5.702 5.37551 5.746 5.23051 5.75 5.08351C5.746 4.93551 5.702 4.79151 5.622 4.66651C5.478 4.41151 5.209 4.25351 4.917 4.24951ZM9.3488 13.6628C9.0238 13.6628 8.7588 13.3988 8.7588 13.0738C8.7588 12.7488 9.0238 12.4838 9.3488 12.4838H14.9498C15.2758 12.4838 15.5388 12.7488 15.5388 13.0738C15.5388 13.3988 15.2758 13.6628 14.9498 13.6628H9.3488ZM10.0566 14.6783C9.6906 14.9773 9.2316 15.1393 8.7586 15.1373C7.6186 15.1373 6.6956 14.2133 6.6956 13.0743C6.6956 11.9343 7.6186 11.0103 8.7586 11.0103C9.2316 11.0083 9.6906 11.1703 10.0566 11.4693C10.3096 11.6733 10.6816 11.6343 10.8856 11.3803C11.0906 11.1273 11.0516 10.7553 10.7976 10.5513C9.4736 9.48131 7.5476 9.61731 6.3876 10.8633C5.2266 12.1083 5.2266 14.0383 6.3876 15.2843C7.5476 16.5303 9.4736 16.6653 10.7976 15.5953C10.9616 15.4633 11.0426 15.2533 11.0096 15.0453C10.9766 14.8373 10.8356 14.6623 10.6386 14.5863C10.4426 14.5113 10.2196 14.5453 10.0566 14.6783ZM13.795 10.5526C14.373 10.0856 15.092 9.83161 15.834 9.83061C17.259 9.83161 18.517 10.7626 18.934 12.1246C19.351 13.4876 18.829 14.9626 17.648 15.7606C16.467 16.5586 14.904 16.4906 13.795 15.5966C13.632 15.4636 13.551 15.2536 13.584 15.0456C13.616 14.8376 13.758 14.6626 13.954 14.5866C14.151 14.5116 14.373 14.5466 14.537 14.6796C14.903 14.9766 15.362 15.1396 15.834 15.1376C16.974 15.1376 17.897 14.2136 17.897 13.0736C17.897 11.9346 16.974 11.0106 15.834 11.0106C15.361 11.0086 14.903 11.1706 14.537 11.4686C14.373 11.6016 14.151 11.6366 13.955 11.5596C13.758 11.4846 13.616 11.3096 13.584 11.1016C13.551 10.8936 13.632 10.6846 13.795 10.5526Z" fill="#5A5A5A"/>
</g>
</svg>
