<svg width="24" height="24" viewBox="0 0 24 24" fill="none" xmlns="http://www.w3.org/2000/svg">
<g id="component_checkbox_list">
<path id="Shape" fill-rule="evenodd" clip-rule="evenodd" d="M20.902 18.6025H9.88104C9.29404 18.6025 8.81804 19.0785 8.81804 19.6645C8.81804 20.2515 9.29404 20.7285 9.88104 20.7285H20.902C21.489 20.7285 21.964 20.2515 21.964 19.6645C21.964 19.0785 21.489 18.6025 20.902 18.6025ZM7.54204 16.6895C7.07104 16.3365 6.40504 16.4325 6.05204 16.9025L4.23804 19.3265L3.82804 18.9165C3.56104 18.6405 3.16604 18.5305 2.79404 18.6265C2.42204 18.7245 2.13104 19.0145 2.03504 19.3865C1.93704 19.7585 2.04804 20.1545 2.32504 20.4205L3.60004 21.6965C3.82104 21.9105 4.12204 22.0195 4.42804 21.9975C4.73404 21.9745 5.01604 21.8225 5.20304 21.5795L7.75504 18.1765C8.10604 17.7065 8.01004 17.0405 7.54204 16.6895ZM20.902 4.9765H9.88104C9.29404 4.9765 8.81804 5.4525 8.81804 6.0395C8.81804 6.6255 9.29404 7.1025 9.88104 7.1025H20.902C21.489 7.1025 21.964 6.6255 21.964 6.0395C21.964 5.4525 21.489 4.9765 20.902 4.9765ZM7.54204 2.2125C7.07104 1.8605 6.40504 1.9565 6.05204 2.4255L4.23804 4.8495L3.82804 4.4405C3.40804 4.0605 2.76404 4.0765 2.36304 4.4765C1.96304 4.8765 1.94604 5.5205 2.32504 5.9405L3.60004 7.2165C3.82004 7.4315 4.12104 7.5415 4.42704 7.5205C4.73404 7.4985 5.01604 7.3465 5.20304 7.1025L7.75504 3.7005C8.10604 3.2305 8.01004 2.5645 7.54204 2.2125ZM20.902 12.2145H9.88104C9.29404 12.2145 8.81804 12.6905 8.81804 13.2775C8.81804 13.8645 9.29404 14.3405 9.88104 14.3405H20.902C21.489 14.3405 21.964 13.8645 21.964 13.2775C21.964 12.6905 21.489 12.2145 20.902 12.2145ZM7.75504 10.9385L5.20304 14.3405C5.01604 14.5845 4.73404 14.7365 4.42704 14.7585C4.12104 14.7805 3.82004 14.6695 3.60004 14.4545L2.32504 13.1785C1.94604 12.7585 1.96304 12.1145 2.36304 11.7145C2.76404 11.3145 3.40804 11.2985 3.82804 11.6785L4.23804 12.0875L6.05204 9.6635C6.40504 9.1945 7.07104 9.0985 7.54204 9.4505C8.01004 9.8035 8.10604 10.4685 7.75504 10.9385Z" fill="#5A5A5A"/>
</g>
</svg>
