<?xml version="1.0" encoding="UTF-8"?>
<svg width="24px" height="24px" viewBox="0 0 24 24" version="1.1" xmlns="http://www.w3.org/2000/svg" xmlns:xlink="http://www.w3.org/1999/xlink">
    <title>2. Library Essentials/component_panel</title>
    <g id="2.-Library-Essentials/component_panel" stroke="none" stroke-width="1" fill="none" fill-rule="evenodd">
        <path d="M22,5.95833333 C22,4.57762146 20.8807119,3.45833333 19.5,3.45833333 L4.5,3.45833333 C3.11928813,3.45833333 2,4.57762146 2,5.95833333 L2,18.0416667 C2,19.4223785 3.11928813,20.5416667 4.5,20.5416667 L19.5,20.5416667 C20.8807119,20.5416667 22,19.4223785 22,18.0416667 L22,5.95833333 Z M20.125,7.625 C20.2400593,7.625 20.3333333,7.71827401 20.3333333,7.83333333 L20.3333333,12.4166667 C20.3333333,12.531726 20.2400593,12.625 20.125,12.625 L10.125,12.625 C10.0099407,12.625 9.91666667,12.531726 9.91666667,12.4166667 L9.91666667,7.83333333 C9.91666667,7.71827401 10.0099407,7.625 10.125,7.625 L20.125,7.625 Z M10.0416667,5.125 C10.1832541,4.86812283 10.453353,4.70858718 10.7466667,4.70858718 C11.0399803,4.70858718 11.3100792,4.86812283 11.4516667,5.125 C11.5318387,5.24949515 11.5762348,5.39363823 11.58,5.54166667 C11.5762348,5.6896951 11.5318387,5.83383818 11.4516667,5.95833333 C11.3100792,6.2152105 11.0399803,6.37474615 10.7466667,6.37474615 C10.453353,6.37474615 10.1832541,6.2152105 10.0416667,5.95833333 C9.96149465,5.83383818 9.91709858,5.6896951 9.91333333,5.54166667 C9.91809438,5.39331649 9.96365146,5.24914853 10.045,5.125 L10.0416667,5.125 Z M7.125,5.125 C7.26658748,4.86812283 7.53668635,4.70858718 7.83,4.70858718 C8.12331365,4.70858718 8.39341252,4.86812283 8.535,5.125 C8.61634854,5.24914853 8.66190562,5.39331649 8.66666667,5.54166667 C8.66290142,5.6896951 8.61850535,5.83383818 8.53833333,5.95833333 C8.39674585,6.2152105 8.12664698,6.37474615 7.83333333,6.37474615 C7.54001969,6.37474615 7.26992082,6.2152105 7.12833333,5.95833333 C7.04816132,5.83383818 7.00376525,5.6896951 7,5.54166667 C7.00376525,5.39363823 7.04816132,5.24949515 7.12833333,5.125 L7.125,5.125 Z M4.15666667,5.20166667 C4.29065846,4.90183269 4.58825517,4.70865588 4.91666667,4.70833333 C5.2091154,4.71170591 5.47767894,4.8704314 5.62166667,5.125 C5.70183868,5.24949515 5.74623475,5.39363823 5.75,5.54166667 C5.74623475,5.6896951 5.70183868,5.83383818 5.62166667,5.95833333 C5.48007918,6.2152105 5.20998031,6.37474615 4.91666667,6.37474615 C4.62335302,6.37474615 4.35325415,6.2152105 4.21166667,5.95833333 C4.13149465,5.83383818 4.08709858,5.6896951 4.08333333,5.54166667 C4.08409901,5.4241339 4.11025129,5.30815424 4.16,5.20166667 L4.15666667,5.20166667 Z M8.66666667,18.6666667 C8.66666667,18.781726 8.57339266,18.875 8.45833333,18.875 L4.5,18.875 C4.03976271,18.875 3.66666667,18.501904 3.66666667,18.0416667 L3.66666667,7.83333333 C3.66666667,7.71827401 3.75994068,7.625 3.875,7.625 L8.45833333,7.625 C8.57339266,7.625 8.66666667,7.71827401 8.66666667,7.83333333 L8.66666667,18.6666667 Z M20.3333333,18.0416667 C20.3333333,18.501904 19.9602373,18.875 19.5,18.875 L10.125,18.875 C10.0099407,18.875 9.91666667,18.781726 9.91666667,18.6666667 L9.91666667,14.0833333 C9.91666667,13.968274 10.0099407,13.875 10.125,13.875 L20.125,13.875 C20.2400593,13.875 20.3333333,13.968274 20.3333333,14.0833333 L20.3333333,18.0416667 Z" id="ðŸ–-Color" fill="#5A5A5A"></path>
        <rect id="_Transparent_Rectangle_" x="0" y="0" width="24" height="24"></rect>
    </g>
</svg>