<svg width="24" height="24" viewBox="0 0 24 24" fill="none" xmlns="http://www.w3.org/2000/svg">
<g id="component_listbox">
<path id="Shape" fill-rule="evenodd" clip-rule="evenodd" d="M17.5055 7.1845H6.48451C5.90451 7.1845 5.42551 6.7745 5.42551 6.2745C5.42551 5.7745 5.90451 5.3645 6.48451 5.3645H17.5055C18.0955 5.3645 18.5745 5.7745 18.5745 6.2745C18.5745 6.7745 18.0955 7.1845 17.5055 7.1845ZM17.5055 11.0005H6.48451C5.90451 11.0005 5.42551 10.5915 5.42551 10.0915C5.42551 9.5915 5.90451 9.1815 6.48451 9.1815H17.5055C18.0955 9.1815 18.5745 9.5915 18.5745 10.0915C18.5745 10.5915 18.0955 11.0005 17.5055 11.0005ZM17.5055 14.8185H6.48451C5.90451 14.8185 5.42551 14.4085 5.42551 13.9085C5.42551 13.4085 5.90451 12.9985 6.48451 12.9985H17.5055C18.0955 12.9985 18.5745 13.4085 18.5745 13.9085C18.5745 14.4085 18.0955 14.8185 17.5055 14.8185ZM17.5055 18.6355H6.48451C5.90451 18.6355 5.42551 18.2255 5.42551 17.7255C5.42551 17.2255 5.90451 16.8155 6.48451 16.8155H17.5055C18.0955 16.8155 18.5745 17.2255 18.5745 17.7255C18.5745 18.2255 18.0955 18.6355 17.5055 18.6355ZM19.4995 1.9995H4.49951C3.11951 1.9995 1.99951 3.3105 1.99951 4.9265V19.0735C1.99951 20.6895 3.11951 21.9995 4.49951 21.9995H19.4995C20.8805 21.9995 21.9995 20.6895 21.9995 19.0735V4.9265C21.9995 3.3105 20.8805 1.9995 19.4995 1.9995Z" fill="#5A5A5A"/>
</g>
</svg>
