<svg width="24" height="24" viewBox="0 0 24 24" fill="none" xmlns="http://www.w3.org/2000/svg">
<g id="component_hidden_edit">
<path id="Shape" fill-rule="evenodd" clip-rule="evenodd" d="M4.75197 2.29529L4.57197 2.31429L4.73197 3.01529V3.73429H8.91197V2.29529H4.75197ZM14.812 3.76529L15.132 2.35429C16.382 2.64529 17.252 3.73429 17.252 5.01529V6.49529H15.802V5.01529C15.802 4.42529 15.392 3.89529 14.812 3.76529ZM3.49197 2.59529C2.58197 3.06429 2.02197 3.99529 2.02197 5.01529V7.00529H3.47197V5.01529C3.47197 4.53529 3.73197 4.10429 4.16197 3.87529L3.49197 2.59529ZM15.802 8.69429V7.43529H17.252V8.59529C17.092 8.56429 16.932 8.55529 16.772 8.55529C16.432 8.55529 16.112 8.60429 15.802 8.69429ZM2.02197 12.1143H3.47197V7.94429H2.02197V12.1143ZM21.5785 15.0257C22.0235 14.5677 22.1055 13.8837 21.7805 13.3407C21.4545 12.7987 20.7985 12.5227 20.1615 12.6637L18.9865 12.9247C18.7935 12.9667 18.5995 12.8587 18.5405 12.6757L18.1875 11.5617C18.0005 10.9617 17.4245 10.5497 16.7705 10.5497C16.1185 10.5497 15.5425 10.9617 15.3535 11.5617L15.0015 12.6747C14.9425 12.8567 14.7505 12.9637 14.5575 12.9247L13.3815 12.6617C12.7455 12.5217 12.0885 12.7967 11.7635 13.3397C11.4375 13.8837 11.5185 14.5667 11.9645 15.0247L12.7885 15.8757C12.9235 16.0167 12.9235 16.2347 12.7885 16.3767L11.9645 17.2287C11.5205 17.6877 11.4395 18.3697 11.7655 18.9127C12.0905 19.4547 12.7455 19.7307 13.3815 19.5917L14.5575 19.3307C14.7515 19.2887 14.9455 19.3957 15.0025 19.5797L15.3545 20.6937C15.5435 21.2937 16.1185 21.7047 16.7715 21.7047C17.4255 21.7047 18.0015 21.2937 18.1885 20.6937L18.5415 19.5797C18.5995 19.3957 18.7935 19.2887 18.9865 19.3307L20.1625 19.5917C20.7985 19.7307 21.4545 19.4547 21.7795 18.9127C22.1045 18.3697 22.0235 17.6877 21.5795 17.2287L20.7565 16.3767C20.6215 16.2347 20.6215 16.0167 20.7565 15.8757L21.5785 15.0257ZM16.7715 18.5287C15.3915 18.5287 14.2715 17.4537 14.2715 16.1287C14.2715 14.8017 15.3915 13.7277 16.7715 13.7277C18.1525 13.7277 19.2725 14.8017 19.2725 16.1287C19.2725 17.4537 18.1525 18.5287 16.7715 18.5287ZM16.7719 17.3284C17.4619 17.3284 18.0219 16.7904 18.0219 16.1284C18.0219 15.4654 17.4619 14.9284 16.7719 14.9284C16.0819 14.9284 15.5219 15.4654 15.5219 16.1284C15.5219 16.7904 16.0819 17.3284 16.7719 17.3284ZM9.40197 17.2743H5.23197V15.8353H9.40197V17.2743ZM3.47197 14.5553V13.0643H2.02197V14.5553C2.02197 15.8253 2.88197 16.9153 4.12197 17.2053L4.45197 15.7953C3.87197 15.6653 3.47197 15.1543 3.47197 14.5553ZM14.032 3.73429H9.85197V2.29529H14.032V3.73429Z" fill="#5A5A5A"/>
</g>
</svg>
