<?xml version="1.0" encoding="UTF-8"?>
<svg width="24px" height="24px" viewBox="0 0 24 24" version="1.1" xmlns="http://www.w3.org/2000/svg" xmlns:xlink="http://www.w3.org/1999/xlink">
    <title>2. Library Essentials/component_info_date_time</title>
    <g id="2.-Library-Essentials/component_info_date_time" stroke="none" stroke-width="1" fill="none" fill-rule="evenodd">
        <path d="M16.5833333,2 C17.0435706,2 17.4166667,2.37309604 17.4166667,2.83333333 L17.4166667,2.83333333 L17.4166667,4.29166667 C17.4166667,4.40672599 17.5099407,4.5 17.625,4.5 L17.625,4.5 L19.9166667,4.5 C20.8371412,4.5 21.5833333,5.24619208 21.5833333,6.16666667 L21.5833333,6.16666667 L21.5833333,20.3333333 C21.5833333,21.2538079 20.8371412,22 19.9166667,22 L19.9166667,22 L4.08333333,22 C3.16285875,22 2.41666667,21.2538079 2.41666667,20.3333333 L2.41666667,20.3333333 L2.41666667,6.16666667 C2.41666667,5.24619208 3.16285875,4.5 4.08333333,4.5 L4.08333333,4.5 L5.33333333,4.5 C5.56345198,4.5 5.75,4.68654802 5.75,4.91666667 L5.75,4.91666667 L5.75,6.79166667 C5.75,7.13684464 6.02982203,7.41666667 6.375,7.41666667 C6.72017797,7.41666667 7,7.13684464 7,6.79166667 L7,6.79166667 L7,2.83333333 C7,2.37309604 7.37309604,2 7.83333333,2 C8.29357062,2 8.66666667,2.37309604 8.66666667,2.83333333 L8.66666667,2.83333333 L8.66666667,4.2925 C8.66712561,4.40723375 8.76026533,4.5 8.875,4.5 L8.875,4.5 L14.0833333,4.5 C14.313452,4.5 14.5,4.68654802 14.5,4.91666667 L14.5,4.91666667 L14.5,6.79166667 C14.5,7.13684464 14.779822,7.41666667 15.125,7.41666667 C15.470178,7.41666667 15.75,7.13684464 15.75,6.79166667 L15.75,6.79166667 L15.75,2.83333333 C15.75,2.37309604 16.123096,2 16.5833333,2 Z M19.5,9.5 L4.5,9.5 C4.26988135,9.5 4.08333333,9.68654802 4.08333333,9.91666667 L4.08333333,9.91666667 L4.08333333,19.9166667 C4.08333333,20.1467853 4.26988135,20.3333333 4.5,20.3333333 L4.5,20.3333333 L19.5,20.3333333 C19.7301186,20.3333333 19.9166667,20.1467853 19.9166667,19.9166667 L19.9166667,19.9166667 L19.9166667,9.91666667 C19.9166667,9.68654802 19.7301186,9.5 19.5,9.5 L19.5,9.5 Z M8.71916667,11.4416667 C9.09522772,11.1408676 9.61063921,11.0828433 10.0441667,11.2925 C10.4740267,11.5025648 10.7475694,11.9382308 10.75,12.4166667 L10.75,12.4166667 L10.75,17.8333333 C10.75,18.2935706 10.376904,18.6666667 9.91666667,18.6666667 C9.45642938,18.6666667 9.08333333,18.2935706 9.08333333,17.8333333 L9.08333333,17.8333333 L9.08333333,13.285 L8.35416667,13.8683333 C7.99472134,14.1559816 7.47014831,14.0977786 7.18250001,13.7383333 C6.89485171,13.378888 6.95305468,12.854315 7.3125,12.5666667 L7.3125,12.5666667 Z M15.3333333,11.1666603 C15.7543957,11.1653286 16.1478379,11.3760679 16.3800446,11.7273162 C16.6122512,12.0785644 16.6520156,12.5231166 16.4858333,12.91 L16.4858333,12.91 L14.0083333,18.1883333 C13.8074816,18.5990406 13.3168466,18.7761118 12.9,18.5883333 C12.4835497,18.3926738 12.3044862,17.8965188 12.5,17.48 L12.5,17.48 L14.6766667,12.8333333 L12.8333333,12.8333333 C12.373096,12.8333333 12,12.4602373 12,12 C12,11.5397627 12.373096,11.1666603 12.8333333,11.1666603 L12.8333333,11.1666603 Z" id="ðŸ–-Color" fill="#5A5A5A"></path>
        <rect id="_Transparent_Rectangle_" x="0" y="0" width="24" height="24"></rect>
    </g>
</svg>