<svg width="24" height="24" viewBox="0 0 24 24" fill="none" xmlns="http://www.w3.org/2000/svg">
<g id="component_iframe">
<path id="Shape" fill-rule="evenodd" clip-rule="evenodd" d="M19.5 3.4585C20.881 3.4585 22 4.5775 22 5.9585V18.0415C22 19.4225 20.881 20.5415 19.5 20.5415H4.5C3.119 20.5415 2 19.4225 2 18.0415V5.9585C2 4.5775 3.119 3.4585 4.5 3.4585H19.5ZM10.75 4.7085C10.457 4.7085 10.187 4.8685 10.045 5.1255C9.965 5.2495 9.921 5.3935 9.917 5.5415C9.921 5.6895 9.965 5.8335 10.045 5.9585C10.187 6.2145 10.457 6.3755 10.75 6.3755C11.043 6.3755 11.313 6.2145 11.455 5.9585C11.535 5.8335 11.579 5.6895 11.583 5.5415C11.579 5.3935 11.535 5.2495 11.455 5.1255C11.313 4.8685 11.043 4.7085 10.75 4.7085ZM7.833 4.7085C7.54 4.7085 7.27 4.8685 7.128 5.1255C7.048 5.2495 7.004 5.3935 7 5.5415C7.004 5.6895 7.048 5.8335 7.128 5.9585C7.27 6.2145 7.54 6.3755 7.833 6.3755C8.127 6.3755 8.396 6.2145 8.538 5.9585C8.618 5.8335 8.663 5.6895 8.667 5.5415C8.663 5.3935 8.618 5.2495 8.538 5.1255C8.396 4.8685 8.127 4.7085 7.833 4.7085ZM4.917 4.7085C4.59 4.7095 4.294 4.9035 4.16 5.2015C4.11 5.3085 4.084 5.4245 4.083 5.5415C4.087 5.6895 4.132 5.8335 4.212 5.9585C4.354 6.2145 4.623 6.3755 4.917 6.3755C5.21 6.3755 5.48 6.2145 5.622 5.9585C5.702 5.8335 5.746 5.6895 5.75 5.5415C5.746 5.3935 5.702 5.2495 5.622 5.1255C5.478 4.8705 5.209 4.7115 4.917 4.7085ZM19.5 18.8755C19.96 18.8755 20.333 18.5015 20.333 18.0415V7.8335C20.333 7.7185 20.24 7.6255 20.125 7.6255H3.875C3.76 7.6255 3.667 7.7185 3.667 7.8335V18.0415C3.667 18.5015 4.04 18.8755 4.5 18.8755H19.5ZM12.1245 16.201C12.0525 16.523 11.7675 16.751 11.4375 16.752C11.3855 16.752 11.3345 16.746 11.2845 16.735C10.9055 16.65 10.6665 16.274 10.7505 15.896L11.8755 10.829C11.9645 10.455 12.3375 10.223 12.7125 10.306C13.0875 10.389 13.3275 10.758 13.2495 11.134L12.1245 16.201ZM9.4665 10.559C9.6535 10.559 9.8325 10.633 9.9635 10.766C10.0965 10.898 10.1705 11.076 10.1705 11.263C10.1705 11.45 10.0965 11.628 9.9635 11.76L8.4095 13.316C8.2985 13.426 8.2985 13.604 8.4095 13.714L9.9635 15.27C10.1475 15.446 10.2205 15.708 10.1565 15.954C10.0915 16.2 9.8995 16.392 9.6535 16.456C9.4075 16.521 9.1455 16.447 8.9685 16.264L6.7165 14.012C6.5845 13.88 6.5105 13.702 6.5105 13.515C6.5105 13.328 6.5845 13.149 6.7165 13.018L8.9685 10.766C9.1005 10.633 9.2805 10.559 9.4665 10.559ZM14.0365 15.27C13.9035 15.401 13.8295 15.58 13.8295 15.767C13.8295 15.953 13.9035 16.132 14.0365 16.264C14.3105 16.539 14.7555 16.539 15.0315 16.264L17.2835 14.012C17.4155 13.88 17.4895 13.702 17.4895 13.515C17.4895 13.328 17.4155 13.149 17.2835 13.018L15.0315 10.766C14.8545 10.583 14.5925 10.51 14.3465 10.574C14.1005 10.638 13.9085 10.83 13.8435 11.076C13.7795 11.322 13.8525 11.584 14.0365 11.76L15.5905 13.316C15.7015 13.426 15.7015 13.604 15.5905 13.714L14.0365 15.27Z" fill="#5A5A5A"/>
</g>
</svg>
