<svg width="24" height="24" viewBox="0 0 24 24" fill="none" xmlns="http://www.w3.org/2000/svg">
<g id="component_dropdown">
<path id="Shape" fill-rule="evenodd" clip-rule="evenodd" d="M18.4602 6.2802L19.9002 4.4902C20.1102 4.2302 20.0702 3.8502 19.8102 3.6402C19.5492 3.4402 19.1702 3.4802 18.9602 3.7402L17.6292 5.4002L16.1902 3.7192C15.9692 3.4692 15.5892 3.4402 15.3392 3.6602C15.0892 3.8702 15.0602 4.2502 15.2802 4.5002L16.8302 6.3102C17.0302 6.5502 17.3202 6.6802 17.6292 6.6802H17.6502C17.9692 6.6802 18.2592 6.5302 18.4602 6.2802ZM4.00024 2.0002H20.0002C21.1102 2.0002 22.0002 2.9002 22.0002 4.0002V6.0002C22.0002 7.1002 21.1102 8.0002 20.0002 8.0002H4.00024C2.90024 8.0002 2.00024 7.1002 2.00024 6.0002V4.0002C2.00024 2.9002 2.90024 2.0002 4.00024 2.0002ZM6.48954 12.5H17.5095C18.1005 12.5 18.5795 12.09 18.5795 11.59C18.5795 11.09 18.1005 10.68 17.5095 10.68H6.48954C5.90954 10.68 5.42954 11.09 5.42954 11.59C5.42954 12.09 5.90954 12.5 6.48954 12.5ZM6.48954 16.32H17.5095C18.1005 16.32 18.5795 15.91 18.5795 15.41C18.5795 14.91 18.1005 14.5 17.5095 14.5H6.48954C5.90954 14.5 5.42954 14.91 5.42954 15.41C5.42954 15.91 5.90954 16.32 6.48954 16.32ZM6.48954 20.14H17.5095C18.1005 20.14 18.5795 19.73 18.5795 19.23C18.5795 18.73 18.1005 18.32 17.5095 18.32H6.48954C5.90954 18.32 5.42954 18.73 5.42954 19.23C5.42954 19.73 5.90954 20.14 6.48954 20.14ZM3.99954 9H19.9995C20.3505 9 20.6905 8.94 20.9995 8.82V20C20.9995 21.1 20.1105 22 18.9995 22H4.99954C3.90054 22 2.99954 21.1 2.99954 20V8.82C3.31054 8.94 3.65054 9 3.99954 9Z" fill="#5A5A5A"/>
</g>
</svg>
