<svg width="24" height="24" viewBox="0 0 24 24" fill="none" xmlns="http://www.w3.org/2000/svg">
<g id="component_tree">
<path id="Shape" fill-rule="evenodd" clip-rule="evenodd" d="M19.2917 22H10.1251C9.50351 22.0001 8.97626 21.5436 8.88758 20.9283C8.87304 20.8259 8.78523 20.7498 8.68175 20.75H5.12508C4.20461 20.75 3.45841 20.0038 3.45841 19.0833V2.83333C3.45841 2.3731 3.83151 2 4.29175 2C4.75199 2 5.12508 2.3731 5.12508 2.83333V7C5.12508 7.23012 5.31163 7.41667 5.54175 7.41667H8.68175C8.78523 7.41686 8.87304 7.34079 8.88758 7.23833C8.97626 6.62312 9.50351 6.16652 10.1251 6.16667H19.2917C19.9821 6.16667 20.5417 6.72631 20.5417 7.41667V9.08333C20.5417 9.77369 19.9821 10.3333 19.2917 10.3333H10.1251C9.50351 10.3335 8.97626 9.87688 8.88758 9.26167C8.87304 9.15921 8.78523 9.08314 8.68175 9.08333H5.54175C5.31163 9.08333 5.12508 9.26988 5.12508 9.5V12.8333C5.12508 13.0635 5.31163 13.25 5.54175 13.25H8.68175C8.78523 13.2502 8.87304 13.1741 8.88758 13.0717C8.97626 12.4565 9.50351 11.9999 10.1251 12H19.2917C19.9821 12 20.5417 12.5596 20.5417 13.25V14.9167C20.5417 15.2482 20.4101 15.5661 20.1756 15.8006C19.9412 16.035 19.6233 16.1667 19.2917 16.1667H10.1251C9.50351 16.1668 8.97626 15.7102 8.88758 15.095C8.87304 14.9925 8.78523 14.9165 8.68175 14.9167H5.54175C5.31163 14.9167 5.12508 15.1032 5.12508 15.3333V18.6667C5.12508 18.8968 5.31163 19.0833 5.54175 19.0833H8.68175C8.78523 19.0835 8.87304 19.0075 8.88758 18.905C8.97626 18.2898 9.50351 17.8332 10.1251 17.8333H19.2917C19.9821 17.8333 20.5417 18.393 20.5417 19.0833V20.75C20.5417 21.4404 19.9821 22 19.2917 22Z" fill="#5A5A5A"/>
</g>
</svg>
