<svg width="24" height="24" viewBox="0 0 24 24" fill="none" xmlns="http://www.w3.org/2000/svg">
<g id="component_tabs">
<path id="Shape" fill-rule="evenodd" clip-rule="evenodd" d="M3.99897 3.31647C2.89554 3.31647 2 4.21201 2 5.31544L2.005 6.69073V18.6846C2.005 19.789 2.90054 20.6835 4.00397 20.6835H19.9957C21.1002 20.6835 21.9947 19.789 21.9947 18.6846V6.69173H22L21.995 5.31544C21.995 4.21201 21.0995 3.31647 19.996 3.31647H17.6932C16.5898 3.31647 15.6942 4.21201 15.6942 5.31544L15.6992 6.69073H15.1519L15.1469 5.31544C15.1469 4.21201 14.2514 3.31647 13.148 3.31647H10.8461C9.74271 3.31647 8.84717 4.21201 8.84717 5.31544L8.85217 6.69073H8.30475L8.29976 5.31544C8.29976 4.21201 7.40422 3.31647 6.30079 3.31647H3.99897ZM6.70058 5.32143L6.70558 6.69673L6.71157 8.29091H8.30475H20.3955V18.6846C20.3955 18.9054 20.2166 19.0843 19.9957 19.0843H4.00397C3.78308 19.0843 3.60417 18.9054 3.60417 18.6846V6.68573L3.59918 5.31544C3.59918 5.09555 3.77908 4.91664 3.99897 4.91664H6.30079C6.52167 4.91664 6.70058 5.09555 6.70058 5.32143Z" fill="#5A5A5A"/>
</g>
</svg>
