<svg width="24" height="24" viewBox="0 0 24 24" fill="none" xmlns="http://www.w3.org/2000/svg">
<g id="component_criteria">
<path id="Shape" fill-rule="evenodd" clip-rule="evenodd" d="M16.056 10.4486L12.322 15.4276C12.048 15.7846 11.635 16.0076 11.187 16.0396C10.74 16.0726 10.298 15.9126 9.97601 15.5996L8.10901 13.7326C7.70401 13.3426 7.54101 12.7636 7.68401 12.2186C7.82701 11.6746 8.25101 11.2506 8.79501 11.1066C9.33901 10.9656 9.91701 11.1276 10.308 11.5316L10.909 12.1306L13.565 8.5826C14.081 7.8956 15.056 7.7566 15.744 8.2706C16.431 8.7866 16.571 9.7616 16.056 10.4486ZM21.542 10.8276L20.503 9.7216L20.855 8.2436C21.053 7.3646 20.542 6.4796 19.681 6.2126L18.226 5.7796L17.792 4.3236C17.526 3.4626 16.641 2.9506 15.76 3.1496L14.279 3.4976L13.173 2.4586C12.51 1.8466 11.489 1.8466 10.827 2.4586L9.72101 3.4976L8.24401 3.1496C7.36401 2.9536 6.48101 3.4636 6.21201 4.3236L5.78001 5.7776L4.32201 6.2126C3.46101 6.4806 2.95101 7.3646 3.14901 8.2436L3.49601 9.7226L2.45701 10.8286C1.84701 11.4916 1.84701 12.5116 2.45701 13.1756L3.49601 14.2796L3.14501 15.7586C2.94801 16.6376 3.45801 17.5216 4.32001 17.7906L5.77501 18.2226L6.20701 19.6776C6.47401 20.5396 7.35901 21.0516 8.24001 20.8516L9.72101 20.5036L10.827 21.5476C11.491 22.1566 12.51 22.1566 13.173 21.5476L14.279 20.5036L15.756 20.8546C16.636 21.0526 17.52 20.5426 17.787 19.6806L18.221 18.2266L19.677 17.7936C20.538 17.5256 21.049 16.6396 20.851 15.7606L20.503 14.2786L21.542 13.1726C22.152 12.5096 22.152 11.4896 21.542 10.8276Z" fill="#5A5A5A"/>
</g>
</svg>
