<?xml version="1.0" encoding="UTF-8"?>
<svg width="24px" height="24px" viewBox="0 0 24 24" version="1.1" xmlns="http://www.w3.org/2000/svg" xmlns:xlink="http://www.w3.org/1999/xlink">
    <title>2. Library Essentials/component_html</title>
    <g id="2.-Library-Essentials/component_html" stroke="none" stroke-width="1" fill="none" fill-rule="evenodd">
        <path d="M5.00389694,19.699826 L11.7063277,22.0650786 C11.8963582,22.1321889 12.1036418,22.1321889 12.2936723,22.0650786 L18.9961031,19.699826 C19.3050653,19.5904294 19.5278728,19.3187129 19.5746287,18.994307 L21.9901494,2.89789038 C22.0284215,2.64389841 21.9540564,2.38584211 21.7864903,2.19116729 C21.6189243,1.99649246 21.3748108,1.88458867 21.1179515,1.88458867 L2.88204847,1.88458867 C2.62518922,1.88458867 2.38107573,1.99649246 2.21350967,2.19116729 C2.04594361,2.38584211 1.97157854,2.64389841 2.00985057,2.89789038 L4.42537134,18.9987165 C4.47364451,19.3214563 4.69619143,19.5911587 5.00389694,19.699826 Z M6.66274856,4.99680949 C6.9132324,4.7003888 7.2817958,4.52966198 7.66987697,4.53028334 L16.8504433,4.53028334 C17.3375026,4.53028334 17.7323421,4.92512457 17.7323421,5.41218382 C17.7323421,5.89924307 17.3375026,6.2940826 16.8504433,6.2940826 L8.45123929,6.2940826 C8.38629645,6.29426942 8.32471183,6.32296592 8.28279662,6.3725716 C8.24132297,6.42130826 8.22327529,6.48576426 8.23341029,6.54895135 L8.71757272,9.45128025 C8.75292192,9.66390589 8.93680482,9.81981472 9.15234882,9.81991394 L15.4605708,9.81991394 C15.8440413,9.8198994 16.208648,9.98628795 16.4599169,10.2759663 C16.7111858,10.5656447 16.8243877,10.9501034 16.7701905,11.3297247 L16.0002929,16.7172443 C15.926146,17.2342801 15.5547053,17.6592772 15.0522517,17.8019798 L12.3633423,18.5709956 C12.2451636,18.6048088 12.1229188,18.6223147 12,18.6230278 C11.8783072,18.6230278 11.7572008,18.6061738 11.6401853,18.5727594 L8.93981122,17.8019798 C8.44784375,17.6609447 8.08136546,17.2487855 7.99882521,16.7437013 L7.60373456,14.3740393 C7.54146931,14.0587171 7.65568189,13.7344896 7.90182827,13.5278087 C8.14797465,13.3211278 8.48707176,13.2647262 8.78686841,13.3806012 C9.08666506,13.4964762 9.29968139,13.7662761 9.34283896,14.0847765 L9.64709404,15.9058975 C9.67465512,16.0743358 9.79694631,16.2117416 9.96105001,16.258657 L11.8800618,16.807198 C11.9589766,16.8301277 12.0427872,16.8301277 12.121702,16.807198 L14.0204301,16.2648303 C14.1874554,16.2168708 14.3107377,16.0752861 14.335268,15.9032518 L14.9173212,11.8376984 C14.9259455,11.7743724 14.9068897,11.7103987 14.8650199,11.6621133 C14.8231501,11.6138279 14.7625194,11.5859052 14.6986103,11.5854753 L8.40538055,11.5854753 C7.75760758,11.5878173 7.20422672,11.1189392 7.10017035,10.4795742 L6.36466677,6.07008031 C6.30121976,5.68588851 6.410266,5.29325751 6.66274856,4.99680949 Z" id="ðŸ–-Color" fill="#5A5A5A"></path>
        <rect id="_Transparent_Rectangle_" x="0" y="0" width="24" height="24"></rect>
    </g>
</svg>