<svg width="24" height="24" viewBox="0 0 24 24" fill="none" xmlns="http://www.w3.org/2000/svg">
<g id="component_memo_edit">
<path id="Shape" fill-rule="evenodd" clip-rule="evenodd" d="M21.1666 5.75C21.1666 4.82953 20.4204 4.08333 19.4999 4.08333H18.0416C17.9265 4.08333 17.8333 3.99006 17.8333 3.875V2.83333C17.8333 2.3731 17.4602 2 16.9999 2C16.5397 2 16.1666 2.3731 16.1666 2.83333V3.875C16.1666 3.99006 16.0733 4.08333 15.9583 4.08333H13.0416C12.9265 4.08333 12.8333 3.99006 12.8333 3.875V2.83333C12.8333 2.3731 12.4602 2 11.9999 2C11.5397 2 11.1666 2.3731 11.1666 2.83333V3.875C11.1666 3.99006 11.0733 4.08333 10.9583 4.08333H8.04159C7.92653 4.08333 7.83325 3.99006 7.83325 3.875V2.83333C7.83325 2.3731 7.46016 2 6.99992 2C6.53968 2 6.16659 2.3731 6.16659 2.83333V3.875C6.16659 3.99006 6.07331 4.08333 5.95825 4.08333H4.49992C3.57944 4.08333 2.83325 4.82953 2.83325 5.75V20.3333C2.83325 21.2538 3.57944 22 4.49992 22H19.4999C20.4204 22 21.1666 21.2538 21.1666 20.3333V5.75ZM19.4999 20.125C19.4999 20.2401 19.4066 20.3333 19.2916 20.3333H4.70825C4.59319 20.3333 4.49992 20.2401 4.49992 20.125V5.95833C4.49992 5.84327 4.59319 5.75 4.70825 5.75H5.95825C6.07331 5.75 6.16659 5.84327 6.16659 5.95833V6.58333C6.16659 7.04357 6.53968 7.41667 6.99992 7.41667C7.46016 7.41667 7.83325 7.04357 7.83325 6.58333V5.9575C7.83325 5.8429 7.92615 5.75 8.04075 5.75H10.9574C11.0725 5.75 11.1658 5.84327 11.1658 5.95833V6.58333C11.1658 7.04357 11.5388 7.41667 11.9991 7.41667C12.4593 7.41667 12.8324 7.04357 12.8324 6.58333V5.95667C12.8324 5.84253 12.9249 5.75 13.0391 5.75H15.9558C16.0708 5.75 16.1641 5.84327 16.1641 5.95833V6.58333C16.1641 7.04357 16.5372 7.41667 16.9974 7.41667C17.4577 7.41667 17.8308 7.04357 17.8308 6.58333V5.9575C17.8308 5.8429 17.9237 5.75 18.0383 5.75H19.2883C19.4033 5.75 19.4966 5.84327 19.4966 5.95833L19.4999 20.125ZM16.5833 9.91667C17.0435 9.91667 17.4166 10.2898 17.4166 10.75C17.4166 11.2102 17.0435 11.5833 16.5833 11.5833H7.41659C6.95635 11.5833 6.58325 11.2102 6.58325 10.75C6.58325 10.2898 6.95635 9.91667 7.41659 9.91667H16.5833ZM16.5833 13.25C17.0435 13.25 17.4166 13.6231 17.4166 14.0833C17.4166 14.5436 17.0435 14.9167 16.5833 14.9167H7.41659C6.95635 14.9167 6.58325 14.5436 6.58325 14.0833C6.58325 13.6231 6.95635 13.25 7.41659 13.25H16.5833ZM14.0833 16.5833H7.41659C6.95635 16.5833 6.58325 16.9564 6.58325 17.4167C6.58325 17.8769 6.95635 18.25 7.41659 18.25H14.0833C14.5435 18.25 14.9166 17.8769 14.9166 17.4167C14.9166 16.9564 14.5435 16.5833 14.0833 16.5833Z" fill="#5A5A5A"/>
</g>
</svg>
