<svg width="24" height="24" viewBox="0 0 24 24" fill="none" xmlns="http://www.w3.org/2000/svg">
<g id="component_file_uploader">
<path id="Shape" fill-rule="evenodd" clip-rule="evenodd" d="M16.795 9.94C12.2425 10.025 9.91667 12.9617 9.91667 16.5833C9.91546 17.7939 10.246 18.9816 10.8725 20.0175C10.913 20.0806 10.9159 20.1608 10.88 20.2266C10.844 20.2924 10.775 20.3333 10.7 20.3333H3.25C2.55964 20.3333 2 19.7737 2 19.0833V3.25C2 2.55964 2.55964 2 3.25 2H12.6608C12.9921 2.00007 13.3098 2.13165 13.5442 2.36583L16.6342 5.45583C16.8683 5.69017 16.9999 6.00788 17 6.33917V9.73583C16.9986 9.84835 16.9075 9.9391 16.795 9.94ZM16.5833 11.1667C13.5918 11.1667 11.1667 13.5918 11.1667 16.5833C11.1667 19.5749 13.5918 22 16.5833 22C19.5749 22 22 19.5749 22 16.5833C21.9963 13.5933 19.5734 11.1703 16.5833 11.1667ZM18.5758 15.9067C18.6758 16.0318 18.6951 16.2031 18.6257 16.3474C18.5562 16.4917 18.4101 16.5834 18.25 16.5833H17.625C17.5099 16.5833 17.4167 16.6766 17.4167 16.7917V19.0833C17.4167 19.5436 17.0436 19.9167 16.5833 19.9167C16.1231 19.9167 15.75 19.5436 15.75 19.0833V16.7917C15.75 16.6766 15.6567 16.5833 15.5417 16.5833H14.9167C14.7562 16.5837 14.6098 16.4919 14.5403 16.3473C14.4707 16.2027 14.4904 16.031 14.5908 15.9058L16.2575 13.8225C16.3395 13.7282 16.4583 13.674 16.5833 13.674C16.7083 13.674 16.8272 13.7282 16.9092 13.8225L18.5758 15.9067Z" fill="#5A5A5A"/>
</g>
</svg>
