<?xml version="1.0" encoding="UTF-8"?>
<svg width="24px" height="24px" viewBox="0 0 24 24" version="1.1" xmlns="http://www.w3.org/2000/svg" xmlns:xlink="http://www.w3.org/1999/xlink">
    <title>2. Library Essentials/component_autocomplete</title>
    <g id="2.-Library-Essentials/component_autocomplete" stroke="none" stroke-width="1" fill="none" fill-rule="evenodd">
        <path d="M14.783325,13.2428874 C15.049325,12.9778874 15.478325,12.9778874 15.743325,13.2428874 L15.743325,13.2428874 L18.781325,16.2848874 L21.801325,19.3048874 C22.066325,19.5698874 22.066325,19.9988874 21.801325,20.2638874 C21.536325,20.5278874 21.109325,20.5278874 20.843325,20.2648874 L20.843325,20.2648874 L17.823325,17.2448874 L14.783325,14.2018874 C14.519325,13.9368874 14.519325,13.5078874 14.783325,13.2428874 Z M13.178925,3.53798741 C14.0798724,3.53798741 14.8174735,4.22996525 14.89262,5.11056126 L14.898925,5.25898741 L14.898925,6.97898741 C14.898925,7.45298741 14.513925,7.83898741 14.039925,7.83898741 C13.6005404,7.83898741 13.2386942,7.510088 13.1856255,7.08667426 L13.178925,6.97898741 L13.178925,5.25898741 L9.523925,5.25898741 C9.426425,5.25898741 9.34281389,5.32495963 9.31707315,5.41523741 L9.308925,5.47198741 L9.308925,16.2239874 C9.308925,16.3223207 9.37628611,16.4060707 9.46702685,16.4312559 L9.523925,16.4389874 L11.029925,16.4389874 C11.504925,16.4389874 11.888925,16.8239874 11.888925,17.2979874 C11.888925,17.7364489 11.5617297,18.0982241 11.1377916,18.1512874 L11.029925,18.1579874 L5.869925,18.1579874 C5.393925,18.1579874 5.008925,17.7729874 5.008925,17.2979874 C5.008925,16.8604489 5.33697234,16.4987448 5.76182805,16.445687 L5.869925,16.4389874 L7.374925,16.4389874 C7.47409167,16.4389874 7.55659167,16.3716263 7.58133704,16.2808856 L7.588925,16.2239874 L7.588925,5.47398741 C7.588925,5.37482074 7.52295278,5.2916263 7.4320963,5.26664945 L7.374925,5.25898741 L3.718925,5.25898741 L3.718925,6.97898741 C3.718925,7.45298741 3.334925,7.83898741 2.859925,7.83898741 C2.42054038,7.83898741 2.0595463,7.510088 2.00660866,7.08667426 L1.999925,6.97898741 L1.999925,5.25898741 C1.999925,4.35898741 2.69100533,3.61964115 3.57065659,3.5443083 L3.718925,3.53798741 L13.178925,3.53798741 Z M14.710425,14.7218874 C14.9406472,14.8178874 15.0634127,15.0632207 15.0112974,15.2991604 L14.983425,15.3868874 L14.465425,16.6408874 C14.351425,16.8898874 14.060425,17.0048874 13.807425,16.8998874 C13.5816472,16.8065541 13.4577954,16.5694183 13.4997817,16.3373744 L13.523425,16.2508874 L14.045425,14.9968874 C14.153425,14.7388874 14.450425,14.6158874 14.710425,14.7218874 Z M13.782525,13.5325874 C13.895525,13.6075874 13.973525,13.7245874 13.999525,13.8565874 C14.025525,13.9895874 13.998525,14.1265874 13.924525,14.2385874 C13.864525,14.3281874 13.777645,14.3960274 13.677709,14.4334034 L13.600525,14.4555874 L12.269525,14.7195874 C11.993525,14.7745874 11.726525,14.5955874 11.670525,14.3205874 C11.6216361,14.0752541 11.7576361,13.8362417 11.9816032,13.7475284 L12.069525,13.7215874 L13.400525,13.4575874 C13.533525,13.4305874 13.670525,13.4585874 13.782525,13.5325874 Z M18.294225,12.0540874 C18.439225,12.1640874 18.513225,12.3440874 18.490225,12.5240874 C18.4693917,12.6740874 18.383975,12.8060319 18.2588593,12.8863559 L18.179225,12.9280874 L16.926225,13.4450874 C16.802225,13.4970874 16.661225,13.4980874 16.536225,13.4460874 C16.411225,13.3950874 16.313225,13.2960874 16.261225,13.1710874 C16.1661139,12.9399763 16.2527312,12.6796306 16.4550576,12.5487774 L16.536225,12.5060874 L17.790225,11.9870874 C17.958225,11.9180874 18.151225,11.9420874 18.294225,12.0540874 Z M13.005025,10.9575874 C13.113825,10.9575874 13.218145,10.9915074 13.304673,11.0542274 L13.366025,11.1065874 L14.325025,12.0655874 C14.524025,12.2645874 14.524025,12.5865874 14.325025,12.7855874 C14.1481361,12.9624763 13.874062,12.9821306 13.6755764,12.8445504 L13.605025,12.7855874 L12.646025,11.8265874 C12.550025,11.7305874 12.497025,11.6015874 12.497025,11.4665874 C12.497025,11.3315874 12.550025,11.2025874 12.646025,11.1065874 C12.742025,11.0105874 12.871025,10.9575874 13.005025,10.9575874 Z M15.7704316,10.1222995 L15.861625,10.1324874 C16.1069583,10.1822652 16.2740694,10.4003393 16.2688459,10.6413269 L16.258625,10.7324874 L15.994625,12.0604874 C15.962625,12.2414874 15.834625,12.3914874 15.660625,12.4524874 C15.486625,12.5124874 15.293625,12.4734874 15.155625,12.3514874 C15.040625,12.2498207 14.9790972,12.1030152 14.9849306,11.9527374 L14.996625,11.8624874 L15.261625,10.5294874 C15.3044028,10.3155985 15.4772423,10.1603886 15.6813369,10.1283173 L15.7704316,10.1222995 Z" id="ðŸ–-Color" fill="#5A5A5A"></path>
        <rect id="_Transparent_Rectangle_" x="0" y="0" width="24" height="24"></rect>
    </g>
</svg>