<?xml version="1.0" encoding="UTF-8"?>
<svg width="24px" height="24px" viewBox="0 0 24 24" version="1.1" xmlns="http://www.w3.org/2000/svg" xmlns:xlink="http://www.w3.org/1999/xlink">
    <title>2. Library Essentials/component_bind_panel</title>
    <g id="2.-Library-Essentials/component_bind_panel" stroke="none" stroke-width="1" fill="none" fill-rule="evenodd">
        <path d="M19.5,2.9995 C20.881,2.9995 22,4.1195 22,5.4995 L22,5.4995 L22,17.5835 C22,18.9645 20.881,20.0835 19.5,20.0835 L19.5,20.0835 L4.5,20.0835 C3.119,20.0835 2,18.9645 2,17.5835 L2,17.5835 L2,5.4995 C2,4.1195 3.119,2.9995 4.5,2.9995 L4.5,2.9995 Z M20.125,7.1665 L3.875,7.1665 C3.76,7.1665 3.667,7.2605 3.667,7.3745 L3.667,17.5835 C3.667,18.0435 4.04,18.4165 4.5,18.4165 L19.5,18.4165 C19.96,18.4165 20.333,18.0435 20.333,17.5835 L20.333,7.3745 C20.333,7.2605 20.24,7.1665 20.125,7.1665 Z M6.3876,10.8633 C7.5476,9.6173 9.4736,9.4813 10.7976,10.5513 C11.0516,10.7553 11.0906,11.1273 10.8856,11.3803 C10.6816,11.6343 10.3096,11.6733 10.0566,11.4693 C9.6906,11.1703 9.2316,11.0083 8.7586,11.0103 C7.6186,11.0103 6.6956,11.9343 6.6956,13.0743 C6.6956,14.2133 7.6186,15.1373 8.7586,15.1373 C9.2316,15.1393 9.6906,14.9773 10.0566,14.6783 C10.2196,14.5453 10.4426,14.5113 10.6386,14.5863 C10.8356,14.6623 10.9766,14.8373 11.0096,15.0453 C11.0426,15.2533 10.9616,15.4633 10.7976,15.5953 C9.4736,16.6653 7.5476,16.5303 6.3876,15.2843 C5.2266,14.0383 5.2266,12.1083 6.3876,10.8633 Z M15.834,9.8306 C17.259,9.8316 18.517,10.7626 18.934,12.1246 C19.351,13.4876 18.829,14.9626 17.648,15.7606 C16.467,16.5586 14.904,16.4906 13.795,15.5966 C13.632,15.4636 13.551,15.2536 13.584,15.0456 C13.616,14.8376 13.758,14.6626 13.954,14.5866 C14.151,14.5116 14.373,14.5466 14.537,14.6796 C14.903,14.9766 15.362,15.1396 15.834,15.1376 C16.974,15.1376 17.897,14.2136 17.897,13.0736 C17.897,11.9346 16.974,11.0106 15.834,11.0106 C15.361,11.0086 14.903,11.1706 14.537,11.4686 C14.373,11.6016 14.151,11.6366 13.955,11.5596 C13.758,11.4846 13.616,11.3096 13.584,11.1016 C13.551,10.8936 13.632,10.6846 13.795,10.5526 C14.373,10.0856 15.092,9.8316 15.834,9.8306 Z M14.9498,12.4838 C15.2758,12.4838 15.5388,12.7488 15.5388,13.0738 C15.5388,13.3988 15.2758,13.6628 14.9498,13.6628 L14.9498,13.6628 L9.3488,13.6628 C9.0238,13.6628 8.7588,13.3988 8.7588,13.0738 C8.7588,12.7488 9.0238,12.4838 9.3488,12.4838 L9.3488,12.4838 Z M10.747,4.2505 C10.453,4.2505 10.184,4.4095 10.042,4.6665 L10.042,4.6665 C9.964,4.7905 9.918,4.9355 9.913,5.0835 C9.917,5.2305 9.962,5.3755 10.042,5.4995 C10.184,5.7565 10.453,5.9165 10.747,5.9165 C11.04,5.9165 11.311,5.7565 11.452,5.4995 C11.532,5.3755 11.576,5.2305 11.58,5.0835 C11.576,4.9355 11.532,4.7915 11.452,4.6665 C11.311,4.4095 11.04,4.2505 10.747,4.2505 Z M7.83,4.2505 C7.537,4.2505 7.267,4.4095 7.125,4.6665 L7.125,4.6665 C7.048,4.7915 7.004,4.9355 7,5.0835 C7.004,5.2305 7.048,5.3755 7.128,5.4995 C7.27,5.7565 7.54,5.9165 7.833,5.9165 C8.127,5.9165 8.396,5.7565 8.538,5.4995 C8.618,5.3755 8.663,5.2305 8.667,5.0835 C8.662,4.9355 8.616,4.7905 8.535,4.6665 C8.394,4.4095 8.123,4.2505 7.83,4.2505 Z M4.917,4.2495 C4.588,4.2505 4.291,4.4435 4.156,4.7435 L4.156,4.7435 C4.11,4.8505 4.084,4.9655 4.083,5.0835 C4.087,5.2305 4.132,5.3755 4.212,5.4995 C4.354,5.7565 4.623,5.9165 4.917,5.9165 C5.21,5.9165 5.48,5.7565 5.622,5.4995 C5.702,5.3755 5.746,5.2305 5.75,5.0835 C5.746,4.9355 5.702,4.7915 5.622,4.6665 C5.478,4.4115 5.209,4.2535 4.917,4.2495 Z" id="ðŸ–-Color" fill="#5A5A5A"></path>
        <rect id="_Transparent_Rectangle_" x="0" y="0" width="24" height="24"></rect>
    </g>
</svg>