<?xml version="1.0" encoding="UTF-8"?>
<svg width="24px" height="24px" viewBox="0 0 24 24" version="1.1" xmlns="http://www.w3.org/2000/svg" xmlns:xlink="http://www.w3.org/1999/xlink">
    <title>2. Library Essentials/component_button</title>
    <g id="2.-Library-Essentials/component_button" stroke="none" stroke-width="1" fill="none" fill-rule="evenodd">
        <path d="M11.0496,9.578275 C11.1666,9.459275 11.3406,9.415275 11.5006,9.463275 L11.5006,9.463275 L19.1896,11.771275 C19.4126,11.837275 19.5776,12.026275 19.6136,12.256275 C19.6506,12.486275 19.5516,12.716275 19.3606,12.849275 L19.3606,12.849275 L17.5436,14.108275 C17.5066,14.134275 17.4836,14.174275 17.4796,14.219275 C17.4756,14.264275 17.4916,14.308275 17.5236,14.340275 L17.5236,14.340275 L20.3496,17.165275 C20.5866,17.401275 20.5866,17.785275 20.3496,18.021275 L20.3496,18.021275 L19.4936,18.879275 C19.2566,19.114275 18.8736,19.114275 18.6366,18.879275 L18.6366,18.879275 L15.8106,16.052275 C15.7786,16.020275 15.7346,16.004275 15.6906,16.009275 C15.6456,16.013275 15.6046,16.036275 15.5786,16.073275 L15.5786,16.073275 L14.3206,17.890275 C14.1876,18.081275 13.9576,18.180275 13.7276,18.143275 C13.4976,18.106275 13.3096,17.941275 13.2426,17.719275 L13.2426,17.719275 L10.9346,10.029275 C10.8876,9.869275 10.9316,9.696275 11.0496,9.578275 Z M20,4.944475 C21.11,4.944475 22,5.844475 22,6.944475 L22,11.944475 C22,13.044475 21.11,13.944475 20,13.944475 L19.54,13.944475 L19.931,13.674475 C20.431,13.324475 20.7,12.704475 20.601,12.104475 C20.511,11.494475 20.07,10.994475 19.48,10.814475 L11.79,8.504475 C11.65,8.464475 11.511,8.444475 11.37,8.444475 C10.99,8.444475 10.61,8.604475 10.341,8.874475 C9.971,9.244475 9.82,9.794475 9.98,10.314475 L11.07,13.944475 L4,13.944475 C2.9,13.944475 2,13.044475 2,11.944475 L2,6.944475 C2,5.844475 2.9,4.944475 4,4.944475 L20,4.944475 Z" id="ðŸ–-Color" fill="#5A5A5A"></path>
        <rect id="_Transparent_Rectangle_" x="0" y="0" width="24" height="24"></rect>
    </g>
</svg>