<svg width="24" height="24" viewBox="0 0 24 24" fill="none" xmlns="http://www.w3.org/2000/svg">
<g id="component_panel">
<path id="Shape" fill-rule="evenodd" clip-rule="evenodd" d="M22 5.95834C22 4.57763 20.8807 3.45834 19.5 3.45834H4.5C3.11929 3.45834 2 4.57763 2 5.95834V18.0417C2 19.4224 3.11929 20.5417 4.5 20.5417H19.5C20.8807 20.5417 22 19.4224 22 18.0417V5.95834ZM20.125 7.62501C20.2401 7.62501 20.3333 7.71828 20.3333 7.83334V12.4167C20.3333 12.5317 20.2401 12.625 20.125 12.625H10.125C10.0099 12.625 9.91667 12.5317 9.91667 12.4167V7.83334C9.91667 7.71828 10.0099 7.62501 10.125 7.62501H20.125ZM10.0417 5.12501C10.1833 4.86813 10.4534 4.7086 10.7467 4.7086C11.04 4.7086 11.3101 4.86813 11.4517 5.12501C11.5318 5.24951 11.5762 5.39365 11.58 5.54168C11.5762 5.68971 11.5318 5.83385 11.4517 5.95834C11.3101 6.21522 11.04 6.37476 10.7467 6.37476C10.4534 6.37476 10.1833 6.21522 10.0417 5.95834C9.96149 5.83385 9.9171 5.68971 9.91333 5.54168C9.91809 5.39333 9.96365 5.24916 10.045 5.12501H10.0417ZM7.125 5.12501C7.26659 4.86813 7.53669 4.7086 7.83 4.7086C8.12331 4.7086 8.39341 4.86813 8.535 5.12501C8.61635 5.24916 8.66191 5.39333 8.66667 5.54168C8.6629 5.68971 8.61851 5.83385 8.53833 5.95834C8.39675 6.21522 8.12665 6.37476 7.83333 6.37476C7.54002 6.37476 7.26992 6.21522 7.12833 5.95834C7.04816 5.83385 7.00377 5.68971 7 5.54168C7.00377 5.39365 7.04816 5.24951 7.12833 5.12501H7.125ZM4.15667 5.20168C4.29066 4.90184 4.58826 4.70867 4.91667 4.70834C5.20912 4.71172 5.47768 4.87044 5.62167 5.12501C5.70184 5.24951 5.74623 5.39365 5.75 5.54168C5.74623 5.68971 5.70184 5.83385 5.62167 5.95834C5.48008 6.21522 5.20998 6.37476 4.91667 6.37476C4.62335 6.37476 4.35325 6.21522 4.21167 5.95834C4.13149 5.83385 4.0871 5.68971 4.08333 5.54168C4.0841 5.42414 4.11025 5.30816 4.16 5.20168H4.15667ZM8.66667 18.6667C8.66667 18.7817 8.57339 18.875 8.45833 18.875H4.5C4.03976 18.875 3.66667 18.5019 3.66667 18.0417V7.83334C3.66667 7.71828 3.75994 7.62501 3.875 7.62501H8.45833C8.57339 7.62501 8.66667 7.71828 8.66667 7.83334V18.6667ZM20.3333 18.0417C20.3333 18.5019 19.9602 18.875 19.5 18.875H10.125C10.0099 18.875 9.91667 18.7817 9.91667 18.6667V14.0833C9.91667 13.9683 10.0099 13.875 10.125 13.875H20.125C20.2401 13.875 20.3333 13.9683 20.3333 14.0833V18.0417Z" fill="#5A5A5A"/>
</g>
</svg>
