<?xml version="1.0" encoding="UTF-8"?>
<svg width="24px" height="24px" viewBox="0 0 24 24" version="1.1" xmlns="http://www.w3.org/2000/svg" xmlns:xlink="http://www.w3.org/1999/xlink">
    <title>2. Library Essentials/component_criteria</title>
    <g id="2.-Library-Essentials/component_criteria" stroke="none" stroke-width="1" fill="none" fill-rule="evenodd">
        <path d="M16.0562,10.4486 L12.3222,15.4276 C12.0482,15.7846 11.6352,16.0076 11.1872,16.0396 C10.7402,16.0726 10.2982,15.9126 9.9762,15.5996 L8.1092,13.7326 C7.7042,13.3426 7.5412,12.7636 7.6842,12.2186 C7.8272,11.6746 8.2512,11.2506 8.7952,11.1066 C9.3392,10.9656 9.9172,11.1276 10.3082,11.5316 L10.9092,12.1306 L13.5652,8.5826 C14.0812,7.8956 15.0562,7.7566 15.7442,8.2706 C16.4312,8.7866 16.5712,9.7616 16.0562,10.4486 M21.5422,10.8276 L20.5032,9.7216 L20.8552,8.2436 C21.0532,7.3646 20.5422,6.4796 19.6812,6.2126 L18.2262,5.7796 L17.7922,4.3236 C17.5262,3.4626 16.6412,2.9506 15.7602,3.1496 L14.2792,3.4976 L13.1732,2.4586 C12.5102,1.8466 11.4892,1.8466 10.8272,2.4586 L9.7212,3.4976 L8.2442,3.1496 C7.3642,2.9536 6.4812,3.4636 6.2122,4.3236 L5.7802,5.7776 L4.3222,6.2126 C3.4612,6.4806 2.9512,7.3646 3.1492,8.2436 L3.4962,9.7226 L2.4572,10.8286 C1.8472,11.4916 1.8472,12.5116 2.4572,13.1756 L3.4962,14.2796 L3.1452,15.7586 C2.9482,16.6376 3.4582,17.5216 4.3202,17.7906 L5.7752,18.2226 L6.2072,19.6776 C6.4742,20.5396 7.3592,21.0516 8.2402,20.8516 L9.7212,20.5036 L10.8272,21.5476 C11.4912,22.1566 12.5102,22.1566 13.1732,21.5476 L14.2792,20.5036 L15.7562,20.8546 C16.6362,21.0526 17.5202,20.5426 17.7872,19.6806 L18.2212,18.2266 L19.6772,17.7936 C20.5382,17.5256 21.0492,16.6396 20.8512,15.7606 L20.5032,14.2786 L21.5422,13.1726 C22.1522,12.5096 22.1522,11.4896 21.5422,10.8276" id="ðŸ–-Color" fill="#5A5A5A"></path>
        <rect id="_Transparent_Rectangle_" x="0" y="0" width="24" height="24"></rect>
    </g>
</svg>