<?xml version="1.0" encoding="UTF-8"?>
<svg width="24px" height="24px" viewBox="0 0 24 24" version="1.1" xmlns="http://www.w3.org/2000/svg" xmlns:xlink="http://www.w3.org/1999/xlink">
    <title>2. Library Essentials/component_checkbox_list</title>
    <g id="2.-Library-Essentials/component_checkbox_list" stroke="none" stroke-width="1" fill="none" fill-rule="evenodd">
        <path d="M20.9021,18.6025 L9.8811,18.6025 C9.2941,18.6025 8.8181,19.0785 8.8181,19.6645 C8.8181,20.2515 9.2941,20.7285 9.8811,20.7285 L20.9021,20.7285 C21.4891,20.7285 21.9641,20.2515 21.9641,19.6645 C21.9641,19.0785 21.4891,18.6025 20.9021,18.6025 M7.5421,16.6895 C7.0711,16.3365 6.4051,16.4325 6.0521,16.9025 L4.2381,19.3265 L3.8281,18.9165 C3.5611,18.6405 3.1661,18.5305 2.7941,18.6265 C2.4221,18.7245 2.1311,19.0145 2.0351,19.3865 C1.9371,19.7585 2.0481,20.1545 2.3251,20.4205 L3.6001,21.6965 C3.8211,21.9105 4.1221,22.0195 4.4281,21.9975 C4.7341,21.9745 5.0161,21.8225 5.2031,21.5795 L7.7551,18.1765 C8.1061,17.7065 8.0101,17.0405 7.5421,16.6895 M20.9021,4.9765 L9.8811,4.9765 C9.2941,4.9765 8.8181,5.4525 8.8181,6.0395 C8.8181,6.6255 9.2941,7.1025 9.8811,7.1025 L20.9021,7.1025 C21.4891,7.1025 21.9641,6.6255 21.9641,6.0395 C21.9641,5.4525 21.4891,4.9765 20.9021,4.9765 M7.5421,2.2125 C7.0711,1.8605 6.4051,1.9565 6.0521,2.4255 L4.2381,4.8495 L3.8281,4.4405 C3.4081,4.0605 2.7641,4.0765 2.3631,4.4765 C1.9631,4.8765 1.9461,5.5205 2.3251,5.9405 L3.6001,7.2165 C3.8201,7.4315 4.1211,7.5415 4.4271,7.5205 C4.7341,7.4985 5.0161,7.3465 5.2031,7.1025 L7.7551,3.7005 C8.1061,3.2305 8.0101,2.5645 7.5421,2.2125 M20.9021,12.2145 L9.8811,12.2145 C9.2941,12.2145 8.8181,12.6905 8.8181,13.2775 C8.8181,13.8645 9.2941,14.3405 9.8811,14.3405 L20.9021,14.3405 C21.4891,14.3405 21.9641,13.8645 21.9641,13.2775 C21.9641,12.6905 21.4891,12.2145 20.9021,12.2145 M7.7551,10.9385 L5.2031,14.3405 C5.0161,14.5845 4.7341,14.7365 4.4271,14.7585 C4.1211,14.7805 3.8201,14.6695 3.6001,14.4545 L2.3251,13.1785 C1.9461,12.7585 1.9631,12.1145 2.3631,11.7145 C2.7641,11.3145 3.4081,11.2985 3.8281,11.6785 L4.2381,12.0875 L6.0521,9.6635 C6.4051,9.1945 7.0711,9.0985 7.5421,9.4505 C8.0101,9.8035 8.1061,10.4685 7.7551,10.9385" id="ðŸ–-Color" fill="#5A5A5A"></path>
        <rect id="_Transparent_Rectangle_" x="0" y="0" width="24" height="24"></rect>
    </g>
</svg>