<?xml version="1.0" encoding="UTF-8"?>
<svg width="24px" height="24px" viewBox="0 0 24 24" version="1.1" xmlns="http://www.w3.org/2000/svg" xmlns:xlink="http://www.w3.org/1999/xlink">
    <title>2. Library Essentials/component_dialog</title>
    <g id="2.-Library-Essentials/component_dialog" stroke="none" stroke-width="1" fill="none" fill-rule="evenodd">
        <path d="M20.6956522,2.86978819 L3.30434783,2.86978819 C2.58397641,2.86978819 2,3.45376461 2,4.17413602 L2,15.9593534 C2.00266927,16.300288 2.14244916,16.6257998 2.38782976,16.8625103 C2.63321036,17.0992207 2.96353777,17.2272058 3.30434783,17.2176143 L5.91304348,17.2176143 L5.91304348,20.6958751 C5.91320955,20.857395 6.00290078,21.0055108 6.14595522,21.0805049 C6.28900966,21.155499 6.46184715,21.1450099 6.59478261,21.0532665 L12.1356522,17.2176143 L20.6956522,17.2176143 C21.4160236,17.2176143 22,16.6336379 22,15.9132665 L22,4.17413602 C22,3.45376461 21.4160236,2.86978819 20.6956522,2.86978819 Z M10.0408696,13.7393534 C10.0408696,13.3791677 10.3328578,13.0871795 10.6930435,13.0871795 L11.78,13.0871795 L11.78,9.39152732 C11.78,9.27146542 11.6826706,9.17413602 11.5626087,9.17413602 L10.6930435,9.17413602 C10.3328578,9.17413602 10.0408696,8.88214781 10.0408696,8.52196211 C10.0408696,8.1617764 10.3328578,7.86978819 10.6930435,7.86978819 L11.5626087,7.86978819 C12.4026447,7.87074659 13.0833894,8.55149131 13.0843478,9.39152732 L13.0843478,13.0871795 L14.173913,13.0871795 C14.5340987,13.0871795 14.826087,13.3791677 14.826087,13.7393534 C14.826087,14.0995391 14.5340987,14.3915325 14.173913,14.3915325 L10.6956522,14.3915325 C10.5222333,14.392221 10.3556794,14.3238164 10.2328083,14.2014348 C10.1099371,14.0790532 10.0408696,13.9127736 10.0408696,13.7393534 L10.0408696,13.7393534 Z M11.5652174,5.91326645 C11.5652174,5.43301885 11.954535,5.04370124 12.4347826,5.04370124 C12.9150302,5.04370124 13.3043478,5.43301885 13.3043478,5.91326645 C13.3043478,6.39351406 12.9150302,6.78283167 12.4347826,6.78283167 C11.954535,6.78283167 11.5652174,6.39351406 11.5652174,5.91326645 Z" id="ðŸ–-Color" fill="#5A5A5A"></path>
        <rect id="_Transparent_Rectangle_" x="0" y="0" width="24" height="24"></rect>
    </g>
</svg>