<?xml version="1.0" encoding="UTF-8"?>
<svg width="24px" height="24px" viewBox="0 0 24 24" version="1.1" xmlns="http://www.w3.org/2000/svg" xmlns:xlink="http://www.w3.org/1999/xlink">
    <title>2. Library Essentials/component_dropdown</title>
    <g id="2.-Library-Essentials/component_dropdown" stroke="none" stroke-width="1" fill="none" fill-rule="evenodd">
        <path d="M20.9996,8.82 L20.9996,20 C20.9996,21.1 20.1106,22 18.9996,22 L18.9996,22 L4.9996,22 C3.9006,22 2.9996,21.1 2.9996,20 L2.9996,20 L2.9996,8.82 C3.3106,8.94 3.6506,9 3.9996,9 L3.9996,9 L19.9996,9 C20.3506,9 20.6906,8.94 20.9996,8.82 L20.9996,8.82 Z M17.5096,18.32 L6.4896,18.32 C5.9096,18.32 5.4296,18.73 5.4296,19.23 C5.4296,19.73 5.9096,20.14 6.4896,20.14 L6.4896,20.14 L17.5096,20.14 C18.1006,20.14 18.5796,19.73 18.5796,19.23 C18.5796,18.73 18.1006,18.32 17.5096,18.32 L17.5096,18.32 Z M17.5096,14.5 L6.4896,14.5 C5.9096,14.5 5.4296,14.91 5.4296,15.41 C5.4296,15.91 5.9096,16.32 6.4896,16.32 L6.4896,16.32 L17.5096,16.32 C18.1006,16.32 18.5796,15.91 18.5796,15.41 C18.5796,14.91 18.1006,14.5 17.5096,14.5 L17.5096,14.5 Z M17.5096,10.68 L6.4896,10.68 C5.9096,10.68 5.4296,11.09 5.4296,11.59 C5.4296,12.09 5.9096,12.5 6.4896,12.5 L6.4896,12.5 L17.5096,12.5 C18.1006,12.5 18.5796,12.09 18.5796,11.59 C18.5796,11.09 18.1006,10.68 17.5096,10.68 L17.5096,10.68 Z M20.0003,2.0002 C21.1103,2.0002 22.0003,2.9002 22.0003,4.0002 L22.0003,4.0002 L22.0003,6.0002 C22.0003,7.1002 21.1103,8.0002 20.0003,8.0002 L20.0003,8.0002 L4.0003,8.0002 C2.9003,8.0002 2.0003,7.1002 2.0003,6.0002 L2.0003,6.0002 L2.0003,4.0002 C2.0003,2.9002 2.9003,2.0002 4.0003,2.0002 L4.0003,2.0002 Z M16.1903,3.7192 C15.9693,3.4692 15.5893,3.4402 15.3393,3.6602 C15.0893,3.8702 15.0603,4.2502 15.2803,4.5002 L15.2803,4.5002 L16.8303,6.3102 C17.0303,6.5502 17.3203,6.6802 17.6293,6.6802 L17.6293,6.6802 L17.6503,6.6802 C17.9693,6.6802 18.2593,6.5302 18.4603,6.2802 L18.4603,6.2802 L19.9003,4.4902 C20.1103,4.2302 20.0703,3.8502 19.8103,3.6402 C19.5493,3.4402 19.1703,3.4802 18.9603,3.7402 L18.9603,3.7402 L17.6293,5.4002 Z" id="ðŸ–-Color" fill="#5A5A5A"></path>
        <rect id="_Transparent_Rectangle_" x="0" y="0" width="24" height="24"></rect>
    </g>
</svg>