<?xml version="1.0" encoding="UTF-8"?>
<svg width="24px" height="24px" viewBox="0 0 24 24" version="1.1" xmlns="http://www.w3.org/2000/svg" xmlns:xlink="http://www.w3.org/1999/xlink">
    <title>2. Library Essentials/component_numeric_edit</title>
    <g id="2.-Library-Essentials/component_numeric_edit" stroke="none" stroke-width="1" fill="none" fill-rule="evenodd">
        <path d="M14.685,12.6897544 L20.894,15.7927544 C21.05,15.8717544 21.141,16.0377544 21.122,16.2107544 C21.103,16.3837544 20.979,16.5277544 20.81,16.5707544 L18.81,17.0707544 C18.661,17.1077544 18.545,17.2237544 18.508,17.3727544 L18.008,19.3727544 C17.965,19.5417544 17.821,19.6657544 17.648,19.6847544 C17.475,19.7037544 17.309,19.6127544 17.23,19.4567544 L14.128,13.2487544 C14.048,13.0887544 14.079,12.8957544 14.205,12.7687544 C14.332,12.6417544 14.525,12.6107544 14.685,12.6897544 Z M19.5,4.31275443 C20.881,4.31275443 22,5.43175443 22,6.81275443 L22,12.6457544 C22,13.1067544 21.627,13.4797544 21.167,13.4797544 C20.706,13.4797544 20.333,13.1067544 20.333,12.6457544 L20.333,6.81275443 C20.333,6.35275443 19.96,5.97975443 19.5,5.97975443 L4.5,5.97975443 C4.04,5.97975443 3.667,6.35275443 3.667,6.81275443 L3.667,12.6457544 C3.667,13.1067544 4.04,13.4797544 4.5,13.4797544 L11.583,13.4797544 C12.044,13.4797544 12.417,13.8527544 12.417,14.3127544 C12.417,14.7727544 12.044,15.1457544 11.583,15.1457544 L4.5,15.1457544 C3.119,15.1457544 2,14.0267544 2,12.6457544 L2,6.81275443 C2,5.43175443 3.119,4.31275443 4.5,4.31275443 L19.5,4.31275443 Z M6.9741,7.00585443 C7.6281,7.00585443 8.1291,7.23985443 8.4771,7.70585443 C8.8271,8.17385443 9.0011,8.84685443 9.0011,9.72485443 C9.0011,10.6098544 8.8281,11.2848544 8.4811,11.7518544 C8.1361,12.2188544 7.6331,12.4518544 6.9741,12.4518544 C6.3171,12.4518544 5.8141,12.2188544 5.4691,11.7518544 C5.1221,11.2848544 4.9491,10.6098544 4.9491,9.72485443 C4.9491,8.84685443 5.1221,8.17385443 5.4691,7.70585443 C5.8141,7.23985443 6.3171,7.00585443 6.9741,7.00585443 Z M11.8048,7.04415443 C12.0048,7.04415443 12.1668,7.10415443 12.2898,7.22515443 C12.4118,7.34515443 12.4748,7.50915443 12.4748,7.71415443 L12.4748,11.2841544 L13.0918,11.2841544 C13.3188,11.2841544 13.4848,11.3301544 13.5898,11.4201544 C13.6938,11.5111544 13.7468,11.6471544 13.7468,11.8271544 C13.7468,12.1981544 13.5288,12.3851544 13.0918,12.3851544 L10.4788,12.3851544 C10.0408,12.3851544 9.8228,12.1981544 9.8228,11.8271544 C9.8228,11.6471544 9.8758,11.5111544 9.9818,11.4201544 C10.0868,11.3301544 10.2518,11.2841544 10.4788,11.2841544 L11.0878,11.2841544 L11.0878,8.56615443 L10.4858,8.92015443 C10.4008,8.97015443 10.3128,8.99415443 10.2228,8.99415443 C10.0818,8.99415443 9.9618,8.93315443 9.8608,8.81015443 C9.7608,8.68815443 9.7098,8.55015443 9.7098,8.39915443 C9.7098,8.19315443 9.7968,8.03815443 9.9738,7.93315443 L11.1788,7.23215443 C11.3998,7.10715443 11.6088,7.04415443 11.8048,7.04415443 Z M6.9741,8.05285443 C6.7341,8.05285443 6.5611,8.18185443 6.4561,8.44085443 C6.3491,8.69985443 6.2971,9.12785443 6.2971,9.72485443 C6.2971,10.3238544 6.3491,10.7528544 6.4561,11.0138544 C6.5611,11.2748544 6.7341,11.4058544 6.9741,11.4058544 C7.2161,11.4058544 7.3891,11.2748544 7.4941,11.0138544 C7.5991,10.7528544 7.6521,10.3238544 7.6521,9.72485443 C7.6521,9.13285443 7.5991,8.70585443 7.4941,8.44485443 C7.3891,8.18385443 7.2161,8.05285443 6.9741,8.05285443 Z" id="ðŸ–-Color" fill="#5A5A5A"></path>
        <rect id="_Transparent_Rectangle_" x="0" y="0" width="24" height="24"></rect>
    </g>
</svg>