<?xml version="1.0" encoding="UTF-8"?>
<svg width="24px" height="24px" viewBox="0 0 24 24" version="1.1" xmlns="http://www.w3.org/2000/svg" xmlns:xlink="http://www.w3.org/1999/xlink">
    <title>2. Library Essentials/component_radio_button</title>
    <g id="2.-Library-Essentials/component_radio_button" stroke="none" stroke-width="1" fill="none" fill-rule="evenodd">
        <path d="M8.8647,8.27485 C8.9847,8.27485 9.1147,8.27485 9.2347,8.29485 C12.7347,8.47485 15.5247,11.26485 15.7047,14.76485 C15.7247,14.88485 15.7247,15.01485 15.7247,15.13485 C15.7247,15.32485 15.7147,15.51485 15.6947,15.69585 C15.4147,19.22485 12.4647,21.99485 8.8647,21.99485 C5.0747,21.99485 2.0047,18.92485 2.0047,15.13485 C2.0047,11.53485 4.7747,8.58485 8.3047,8.30485 C8.4847,8.28485 8.6747,8.27485 8.8647,8.27485 Z M8.8647,10.35485 C8.7147,10.35485 8.5547,10.36485 8.4047,10.37485 C5.9747,10.60485 4.0847,12.64485 4.0847,15.13485 C4.0847,17.77485 6.2247,19.91485 8.8647,19.91485 C11.3547,19.91485 13.3957,18.02485 13.6247,15.59485 C13.6347,15.44585 13.6457,15.28485 13.6457,15.13485 C13.6457,15.03485 13.6457,14.94585 13.6247,14.85485 C13.5047,12.43485 11.5647,10.49485 9.1457,10.37485 C9.0547,10.35485 8.9647,10.35485 8.8647,10.35485 Z M8.8659,11.63185 C10.8009,11.63185 12.3689,13.19885 12.3689,15.13385 C12.3689,17.06885 10.8009,18.63685 8.8659,18.63685 C6.9319,18.63685 5.3639,17.06885 5.3639,15.13385 C5.3639,13.19885 6.9319,11.63185 8.8659,11.63185 Z M15.1343,2.00515 C15.2543,2.00515 15.3843,2.00515 15.5043,2.02515 C19.0043,2.20515 21.7943,4.99515 21.9743,8.49515 C21.9953,8.61515 21.9953,8.74515 21.9953,8.86515 C21.9953,9.05515 21.9853,9.24515 21.9643,9.42515 C21.7243,12.42515 19.5653,14.87515 16.7043,15.53515 C16.7243,15.40515 16.7243,15.27415 16.7243,15.13515 C16.7243,14.98515 16.7243,14.82515 16.7043,14.66515 C16.6843,14.24515 16.6243,13.83515 16.5253,13.43415 C18.3553,12.88515 19.7043,11.28515 19.8953,9.32515 C19.9053,9.17515 19.9143,9.01515 19.9143,8.86515 C19.9143,8.76515 19.9143,8.67515 19.8953,8.58515 C19.7753,6.16515 17.8343,4.22415 15.4143,4.10515 C15.3253,4.08515 15.2353,4.08515 15.1343,4.08515 C14.9853,4.08515 14.8253,4.09515 14.6743,4.10515 C12.7143,4.29515 11.1153,5.64515 10.5653,7.47415 C10.1643,7.37515 9.7543,7.31515 9.3343,7.29515 C9.1743,7.27515 9.0143,7.27515 8.8653,7.27515 C8.7243,7.27515 8.5943,7.27515 8.4643,7.28515 C9.1343,4.43515 11.5753,2.27515 14.5753,2.03515 C14.7543,2.01515 14.9453,2.00515 15.1343,2.00515 Z" id="ðŸ–-Color" fill="#5A5A5A"></path>
        <rect id="_Transparent_Rectangle_" x="0" y="0" width="24" height="24"></rect>
    </g>
</svg>