<svg width="24" height="24" viewBox="0 0 24 24" fill="none" xmlns="http://www.w3.org/2000/svg">
<g id="component_date_time_edit">
<path id="Shape" fill-rule="evenodd" clip-rule="evenodd" d="M17.4197 9.32607V4.79797C17.4197 4.35605 17.0466 3.99781 16.5862 3.99781H14.5025C14.3874 3.99781 14.2941 3.90825 14.2941 3.79777V2.99761C14.2941 2.66617 14.0142 2.39749 13.669 2.39749C13.3237 2.39749 13.0439 2.66617 13.0439 2.99761V5.99821C13.0439 6.32964 12.764 6.59833 12.4187 6.59833C12.0735 6.59833 11.7936 6.32964 11.7936 5.99821V4.39789C11.7936 4.17693 11.607 3.99781 11.3769 3.99781H7.83449C7.71941 3.99781 7.62612 3.90825 7.62612 3.79777V2.99761C7.62612 2.66617 7.34624 2.39749 7.00099 2.39749C6.65575 2.39749 6.37587 2.66617 6.37587 2.99761V5.99821C6.37587 6.32964 6.09599 6.59833 5.75075 6.59833C5.4055 6.59833 5.12562 6.32964 5.12562 5.99821V4.39789C5.12562 4.17693 4.93904 3.99781 4.70887 3.99781H2.8335C2.37317 3.99781 2 4.35605 2 4.79797V15.6001C2 16.4839 2.74634 17.2004 3.667 17.2004H9.97575C9.89796 16.6696 9.89796 16.1309 9.97575 15.6001H4.08375C3.85358 15.6001 3.667 15.421 3.667 15.2V8.39868C3.667 8.17773 3.85358 7.9986 4.08375 7.9986H15.336C15.5661 7.9986 15.7527 8.17773 15.7527 8.39868V9.45409C16.2783 9.2352 16.8646 9.19016 17.4197 9.32607ZM18.044 16.0258C18.044 16.6887 17.4843 17.226 16.7938 17.226C16.1033 17.226 15.5435 16.6887 15.5435 16.0258C15.5435 15.3629 16.1033 14.8256 16.7938 14.8256C17.4843 14.8256 18.044 15.3629 18.044 16.0258ZM21.6006 14.924C22.0458 14.466 22.1275 13.7826 21.8019 13.2397C21.4763 12.6968 20.8198 12.4215 20.1836 12.5611L19.0084 12.8228C18.8148 12.8646 18.6204 12.7561 18.5625 12.5739L18.2099 11.4601C18.022 10.8595 17.4461 10.4483 16.7929 10.4483C16.1397 10.4483 15.5639 10.8595 15.376 11.4601L15.0234 12.5731C14.9645 12.7542 14.7716 12.8624 14.5783 12.8228L13.4031 12.5595C12.767 12.4199 12.1104 12.6952 11.7848 13.2381C11.4592 13.781 11.5409 14.4644 11.9862 14.9224L12.8096 15.7737C12.9446 15.9156 12.9446 16.1328 12.8096 16.2746L11.9862 17.1268C11.5422 17.5851 11.4613 18.2677 11.7865 18.8101C12.1118 19.3525 12.7673 19.6281 13.4031 19.4897L14.5792 19.228C14.7726 19.1859 14.967 19.2946 15.0243 19.4769L15.3768 20.5907C15.5647 21.1913 16.1406 21.6025 16.7938 21.6025C17.447 21.6025 18.0229 21.1913 18.2107 20.5907L18.5633 19.4769C18.6202 19.2943 18.8149 19.1855 19.0084 19.228L20.1844 19.4897C20.8202 19.6281 21.4758 19.3525 21.801 18.8101C22.1263 18.2677 22.0453 17.5851 21.6014 17.1268L20.7779 16.2746C20.6429 16.1328 20.6429 15.9156 20.7779 15.7737L21.6006 14.924ZM16.7938 18.4263C15.4128 18.4263 14.2933 17.3515 14.2933 16.0258C14.2933 14.7001 15.4128 13.6253 16.7938 13.6253C18.1748 13.6253 19.2943 14.7001 19.2943 16.0258C19.2943 17.3515 18.1748 18.4263 16.7938 18.4263Z" fill="#5A5A5A"/>
</g>
</svg>
