<?xml version="1.0" encoding="UTF-8"?>
<svg width="24px" height="24px" viewBox="0 0 24 24" version="1.1" xmlns="http://www.w3.org/2000/svg" xmlns:xlink="http://www.w3.org/1999/xlink">
    <title>2. Library Essentials/component_tabs</title>
    <g id="2.-Library-Essentials/component_tabs" stroke="none" stroke-width="1" fill="none" fill-rule="evenodd">
        <path d="M6.3007851,3.31647202 C7.40421683,3.31647202 8.29975563,4.21201081 8.29975563,5.31544255 L8.29975563,5.31544255 L8.30475305,6.69073427 L8.852,6.69047202 L8.84717371,5.31544255 C8.84717371,4.2621668 9.66315017,3.39831417 10.6970294,3.3219583 L10.8461442,3.31647202 L13.1479588,3.31647202 C14.2513905,3.31647202 15.1469293,4.21201081 15.1469293,5.31544255 L15.1469293,5.31544255 L15.151,6.69047202 L15.699,6.69047202 L15.6942475,5.31544255 C15.6942475,4.2621668 16.5102239,3.39831417 17.5441032,3.3219583 L17.693218,3.31647202 L19.996032,3.31647202 C21.0994638,3.31647202 21.9950026,4.21201081 21.9950026,5.31544255 L21.9950026,5.31544255 L22,6.69173376 L21.994,6.69147202 L21.9947027,18.6845575 C21.9947027,19.7387873 21.1796369,20.6017726 20.1449712,20.6780476 L19.9957322,20.683528 L4.00396796,20.683528 C2.90053622,20.683528 2.00499743,19.7889887 2.00499743,18.6845575 L2.00499743,18.6845575 L2.00499743,6.69073427 L2,5.31544255 C2,4.21201081 2.8955388,3.31647202 3.99897053,3.31647202 L3.99897053,3.31647202 Z M6.3007851,4.91664793 L3.99897053,4.91664793 C3.77908377,4.91664793 3.59917642,5.09555579 3.59917642,5.31544255 L3.59917642,5.31544255 L3.60417385,6.68573685 L3.60417385,18.6845575 C3.60417385,18.9054437 3.78308171,19.0843516 4.00396796,19.0843516 L4.00396796,19.0843516 L19.9957322,19.0843516 C20.2166184,19.0843516 20.3955263,18.9054437 20.3955263,18.6845575 L20.3955263,18.6845575 L20.3955263,8.29091018 L6.71157354,8.29091018 L6.70557663,6.69673118 L6.7005792,5.32143946 C6.7005792,5.09555579 6.52167134,4.91664793 6.3007851,4.91664793 L6.3007851,4.91664793 Z" id="ðŸ–-Color" fill="#5A5A5A"></path>
        <rect id="_Transparent_Rectangle_" x="0" y="0" width="24" height="24"></rect>
    </g>
</svg>