<?xml version="1.0" encoding="UTF-8"?>
<svg width="24px" height="24px" viewBox="0 0 24 24" version="1.1" xmlns="http://www.w3.org/2000/svg" xmlns:xlink="http://www.w3.org/1999/xlink">
    <title>2. Library Essentials/component_context_button</title>
    <g id="2.-Library-Essentials/component_context_button" stroke="none" stroke-width="1" fill="none" fill-rule="evenodd">
        <path d="M15.002,10.501 C17.487,10.501 19.502,12.516 19.502,15.001 C19.502,17.487 17.487,19.501 15.002,19.501 C12.516,19.501 10.502,17.487 10.502,15.001 C10.502,12.516 12.516,10.501 15.002,10.501 Z M15.005,16.329 C14.787,16.329 14.604,16.404 14.458,16.552 C14.312,16.702 14.238,16.885 14.238,17.104 C14.238,17.323 14.312,17.505 14.458,17.656 C14.604,17.804 14.787,17.879 15.005,17.879 C15.229,17.879 15.415,17.804 15.561,17.656 C15.708,17.505 15.781,17.323 15.781,17.104 C15.781,16.885 15.708,16.702 15.561,16.552 C15.415,16.404 15.229,16.329 15.005,16.329 Z M15.101,12.124 C14.793,12.124 14.485,12.174 14.178,12.273 C13.872,12.372 13.599,12.508 13.36,12.685 C13.268,12.753 13.204,12.826 13.164,12.9 C13.124,12.975 13.103,13.068 13.103,13.179 C13.103,13.345 13.15,13.485 13.243,13.6 C13.337,13.714 13.45,13.771 13.584,13.771 C13.6728,13.771 13.784,13.739 13.918112,13.674488 L14.023,13.62 L14.214,13.524 C14.364,13.438 14.499,13.372 14.618,13.328 C14.738,13.283 14.859,13.259 14.982,13.259 C15.13,13.259 15.248,13.294 15.334,13.364 C15.419,13.433 15.461,13.526 15.461,13.643 C15.461,13.76 15.43,13.867 15.369,13.963 C15.308,14.059 15.215,14.173 15.093,14.307 C14.923,14.482 14.79,14.655 14.694,14.823 C14.598,14.99 14.55,15.199 14.55,15.45 C14.55,15.615 14.588,15.743 14.666,15.833 C14.743,15.923 14.851,15.969 14.989,15.969 C15.101,15.969 15.199,15.937 15.281,15.872 C15.364,15.809 15.416,15.718 15.437,15.601 C15.464,15.49 15.524,15.381 15.617,15.278 C15.71,15.173 15.844,15.05 16.021,14.907 C16.207,14.741 16.359,14.6 16.476,14.482 C16.593,14.365 16.693,14.224 16.776,14.059 C16.858,13.894 16.899,13.713 16.899,13.515 C16.899,13.249 16.822,13.01 16.668,12.8 C16.513,12.589 16.3,12.424 16.029,12.305 C15.756,12.185 15.448,12.124 15.101,12.124 Z M19.9996,6.0004 C21.1096,6.0004 21.9996,6.8994 21.9996,8.0004 L21.9996,13.0004 C21.9996,13.9304 21.3696,14.7104 20.4996,14.9304 C20.4596,11.9304 18.0106,9.5004 14.9996,9.5004 C11.9706,9.5004 9.4996,11.9704 9.4996,15.0004 L3.9996,15.0004 C2.8996,15.0004 1.9996,14.1004 1.9996,13.0004 L1.9996,8.0004 C1.9996,6.8994 2.8996,6.0004 3.9996,6.0004 L19.9996,6.0004 Z" id="ðŸ–-Color" fill="#5A5A5A"></path>
        <rect id="_Transparent_Rectangle_" x="0" y="0" width="24" height="24"></rect>
    </g>
</svg>