<?xml version="1.0" encoding="UTF-8"?>
<svg width="24px" height="24px" viewBox="0 0 24 24" version="1.1" xmlns="http://www.w3.org/2000/svg" xmlns:xlink="http://www.w3.org/1999/xlink">
    <title>2. Library Essentials/component_text_edit</title>
    <g id="2.-Library-Essentials/component_text_edit" stroke="none" stroke-width="1" fill="none" fill-rule="evenodd">
        <path d="M19.9166667,3.87499996 C20.376904,3.87499996 20.75,4.24809604 20.75,4.70833333 C20.75,5.16857062 20.376904,5.54166667 19.9166667,5.54166667 C18.5440131,5.5609301 17.4359301,6.66901314 17.4166667,8.04166667 L17.4166667,8.04166667 L17.4166667,15.9583333 C17.4189222,16.0981802 17.4331407,16.2375777 17.4591667,16.375 C17.6620081,17.5750596 18.6995906,18.454665 19.9166667,18.4583333 C20.376904,18.4583333 20.75,18.8314294 20.75,19.2916667 C20.75,19.751904 20.376904,20.125 19.9166667,20.125 C18.6938385,20.1251761 17.5328915,19.5872209 16.7425,18.6541667 C16.7024635,18.6079644 16.6444676,18.5812438 16.5833333,18.5808333 C16.5223179,18.5807064 16.4643647,18.6075478 16.425,18.6541667 C15.634209,19.5871657 14.4730444,20.125 13.25,20.125 C12.7897627,20.125 12.4166667,19.751904 12.4166667,19.2916667 C12.4166667,18.8314294 12.7897627,18.4583333 13.25,18.4583333 C14.4670761,18.454665 15.5046586,17.5750596 15.7075,16.375 C15.7335259,16.2375777 15.7477445,16.0981802 15.75,15.9583333 L15.75,15.9583333 L15.75,8.04166667 C15.7307366,6.66901314 14.6226535,5.5609301 13.25,5.54166667 C12.7897627,5.54166667 12.4166667,5.16857062 12.4166667,4.70833333 C12.4166667,4.24809604 12.7897627,3.87499996 13.25,3.87499996 C14.4728282,3.87482388 15.6337752,4.4127791 16.4241667,5.34583333 C16.464,5.39230534 16.522126,5.41908594 16.5833333,5.41916667 C16.6443488,5.41929363 16.7023019,5.39245216 16.7416667,5.34583333 C17.5324577,4.41283429 18.6936222,3.87499996 19.9166667,3.87499996 Z M13.6666667,8.04166667 C14.126904,8.04166667 14.5,8.41476271 14.5,8.875 L14.5,8.875 L14.5,14.7083333 C14.5,15.1685706 14.126904,15.5416667 13.6666667,15.5416667 L13.6666667,15.5416667 L2.90916667,15.5416667 C2.4282456,15.5619024 2.02162087,15.1891941 2,14.7083333 L2,14.7083333 L2,8.875 C2.02162087,8.39413922 2.4282456,8.02143094 2.90916667,8.04166667 L2.90916667,8.04166667 Z M21.0908333,8.04166667 C21.5717544,8.02143094 21.9783791,8.39413922 22,8.875 L22,8.875 L22,14.7083333 C21.9783791,15.1891941 21.5717544,15.5619024 21.0908333,15.5416667 L21.0908333,15.5416667 L19.5,15.5416667 C19.0397627,15.5416667 18.6666667,15.1685706 18.6666667,14.7083333 L18.6666667,14.7083333 L18.6666667,8.875 C18.6666667,8.41476271 19.0397627,8.04166667 19.5,8.04166667 L19.5,8.04166667 Z" id="ðŸ–-Color" fill="#5A5A5A"></path>
        <rect id="_Transparent_Rectangle_" x="0" y="0" width="24" height="24"></rect>
    </g>
</svg>