<?xml version="1.0" encoding="UTF-8"?>
<svg width="24px" height="24px" viewBox="0 0 24 24" version="1.1" xmlns="http://www.w3.org/2000/svg" xmlns:xlink="http://www.w3.org/1999/xlink">
    <title>2. Library Essentials/component_file_uploader</title>
    <g id="2.-Library-Essentials/component_file_uploader" stroke="none" stroke-width="1" fill="none" fill-rule="evenodd">
        <path d="M16.5833333,11.1666667 C19.5733529,11.1703399 21.9963268,13.5933138 22,16.5833333 C22,19.5748757 19.5748757,22 16.5833333,22 C13.5917909,22 11.1666667,19.5748757 11.1666667,16.5833333 C11.1666667,13.5917909 13.5917909,11.1666667 16.5833333,11.1666667 Z M12.6608333,2 C12.9921227,2 13.3098347,2.13165146 13.5441667,2.36583333 L13.5441667,2.36583333 L16.6341667,5.45583333 C16.8683485,5.69016532 17,6.00787733 17,6.33916667 L17,6.33916667 L17,9.73583333 C16.9986424,9.84834857 16.9075198,9.93910074 16.795,9.94 C12.2425,10.025 9.91666667,12.9616667 9.91666667,16.5833333 C9.91545537,17.7938954 10.2460404,18.9816379 10.8725,20.0175 C10.9130454,20.0805883 10.9159058,20.1607811 10.8799584,20.2265978 C10.844011,20.2924145 10.7749937,20.3333333 10.7,20.3333333 L10.7,20.3333333 L3.25,20.3333333 C2.55964406,20.3333333 2,19.7736893 2,19.0833333 L2,19.0833333 L2,3.25 C2,2.55964406 2.55964406,2 3.25,2 L3.25,2 Z M16.5833333,13.6739742 C16.4583412,13.6739742 16.3394855,13.7281526 16.2575,13.8225 L16.2575,13.8225 L14.5908333,15.9058333 C14.4903858,16.0309625 14.4707159,16.202653 14.5402613,16.3472575 C14.6098066,16.491862 14.7562083,16.5836829 14.9166667,16.5833333 L14.9166667,16.5833333 L15.5416667,16.5833333 C15.656726,16.5833333 15.75,16.6766073 15.75,16.7916667 L15.75,16.7916667 L15.75,19.0833333 C15.75,19.5435706 16.123096,19.9166667 16.5833333,19.9166667 C17.0435706,19.9166667 17.4166667,19.5435706 17.4166667,19.0833333 L17.4166667,19.0833333 L17.4166667,16.7916667 C17.4166667,16.6766073 17.5099407,16.5833333 17.625,16.5833333 L17.625,16.5833333 L18.25,16.5833333 C18.4101452,16.5834255 18.5561717,16.4917257 18.6256506,16.3474371 C18.6951294,16.2031486 18.675764,16.031808 18.5758333,15.9066667 L18.5758333,15.9066667 L16.9091667,13.8225 C16.8271812,13.7281526 16.7083255,13.6739742 16.5833333,13.6739742 Z" id="ðŸ–-Color" fill="#5A5A5A"></path>
        <rect id="_Transparent_Rectangle_" x="0" y="0" width="24" height="24"></rect>
    </g>
</svg>