<svg width="24" height="24" viewBox="0 0 24 24" fill="none" xmlns="http://www.w3.org/2000/svg">
<g id="component_percent_edit">
<path id="Shape" fill-rule="evenodd" clip-rule="evenodd" d="M14.686 12.6903C14.525 12.6103 14.332 12.6423 14.206 12.7693C14.079 12.8953 14.048 13.0883 14.128 13.2493L17.231 19.4563C17.309 19.6133 17.476 19.7043 17.648 19.6853C17.821 19.6663 17.965 19.5423 18.008 19.3733L18.508 17.3733C18.545 17.2243 18.662 17.1073 18.811 17.0703L20.811 16.5703C20.98 16.5273 21.104 16.3833 21.123 16.2103C21.142 16.0383 21.051 15.8713 20.894 15.7933L14.686 12.6903ZM22 6.81226C22 5.43226 20.881 4.31226 19.5 4.31226H4.5C3.12 4.31226 2 5.43226 2 6.81226V12.6463C2 14.0273 3.12 15.1463 4.5 15.1463H11.584C12.044 15.1463 12.417 14.7733 12.417 14.3123C12.417 13.8523 12.044 13.4793 11.584 13.4793H4.5C4.04 13.4793 3.667 13.1063 3.667 12.6463V6.81226C3.667 6.35226 4.04 5.97926 4.5 5.97926H19.5C19.961 5.97926 20.334 6.35226 20.334 6.81226V12.6463C20.334 13.1063 20.707 13.4793 21.167 13.4793C21.627 13.4793 22 13.1063 22 12.6463V6.81226ZM11.2266 10.9133C11.2266 11.2373 11.1976 11.4663 11.1396 11.6013C11.0816 11.7363 10.9896 11.8033 10.8636 11.8033C10.7366 11.8033 10.6446 11.7363 10.5866 11.6013C10.5296 11.4663 10.4996 11.2373 10.4996 10.9133C10.4996 10.5943 10.5296 10.3673 10.5866 10.2323C10.6446 10.0973 10.7366 10.0303 10.8636 10.0303C10.9846 10.0303 11.0756 10.0993 11.1356 10.2363C11.1956 10.3733 11.2266 10.5993 11.2266 10.9133ZM9.3136 10.9053C9.3136 11.4823 9.4506 11.9243 9.7256 12.2323C9.9996 12.5403 10.3796 12.6943 10.8636 12.6943C11.3476 12.6943 11.7266 12.5413 12.0016 12.2363C12.2766 11.9313 12.4136 11.4903 12.4136 10.9133C12.4136 10.3413 12.2766 9.90326 12.0016 9.59726C11.7266 9.29126 11.3476 9.13926 10.8636 9.13926C10.3796 9.13926 9.9996 9.29126 9.7256 9.59726C9.4506 9.90326 9.3136 10.3383 9.3136 10.9053ZM7.4776 12.7103C7.3816 12.7713 7.2846 12.8013 7.1846 12.8013C7.0526 12.8013 6.9376 12.7513 6.8376 12.6533C6.7396 12.5543 6.6906 12.4333 6.6906 12.2893C6.6906 12.1633 6.7286 12.0353 6.8056 11.9023L9.6346 7.02026C9.7056 6.89926 9.7896 6.80826 9.8856 6.74726C9.9826 6.68726 10.0786 6.65726 10.1786 6.65726C10.3166 6.65726 10.4336 6.70526 10.5296 6.80126C10.6246 6.89826 10.6736 7.02026 10.6736 7.16826C10.6736 7.29526 10.6356 7.42426 10.5576 7.55626L7.7296 12.4383C7.6586 12.5593 7.5746 12.6503 7.4776 12.7103ZM6.8636 8.49626C6.8636 8.82126 6.8336 9.05026 6.7766 9.18426C6.7186 9.31926 6.6266 9.38726 6.4996 9.38726C6.3736 9.38726 6.2826 9.31926 6.2246 9.18426C6.1666 9.05026 6.1376 8.82126 6.1376 8.49626C6.1376 8.18226 6.1666 7.95826 6.2246 7.82426C6.2826 7.68926 6.3736 7.62226 6.4996 7.62226C6.6216 7.62226 6.7116 7.68926 6.7726 7.82426C6.8326 7.95826 6.8636 8.18226 6.8636 8.49626ZM4.9496 8.48826C4.9496 9.06526 5.0866 9.50826 5.3626 9.81626C5.6366 10.1233 6.0166 10.2783 6.4996 10.2783C6.9846 10.2783 7.3646 10.1243 7.6386 9.82026C7.9136 9.51426 8.0506 9.07426 8.0506 8.49626C8.0506 7.92426 7.9136 7.48626 7.6386 7.18026C7.3646 6.87526 6.9846 6.72326 6.4996 6.72326C6.0166 6.72326 5.6366 6.87526 5.3626 7.18026C5.0866 7.48626 4.9496 7.92126 4.9496 8.48826Z" fill="#5A5A5A"/>
</g>
</svg>
