<svg width="24" height="24" viewBox="0 0 24 24" fill="none" xmlns="http://www.w3.org/2000/svg">
<g id="component_password_edit">
<path id="Shape" fill-rule="evenodd" clip-rule="evenodd" d="M14.685 12.6903C14.525 12.6103 14.332 12.6423 14.205 12.7693C14.079 12.8953 14.048 13.0883 14.128 13.2493L17.23 19.4563C17.309 19.6133 17.475 19.7043 17.648 19.6853C17.821 19.6663 17.965 19.5423 18.008 19.3733L18.508 17.3733C18.545 17.2243 18.661 17.1073 18.81 17.0703L20.81 16.5703C20.979 16.5273 21.103 16.3833 21.122 16.2103C21.141 16.0383 21.05 15.8713 20.894 15.7933L14.685 12.6903ZM22 6.81226C22 5.43226 20.881 4.31226 19.5 4.31226H4.5C3.119 4.31226 2 5.43226 2 6.81226V12.6463C2 14.0273 3.119 15.1463 4.5 15.1463H11.583C12.044 15.1463 12.417 14.7733 12.417 14.3123C12.417 13.8523 12.044 13.4793 11.583 13.4793H4.5C4.04 13.4793 3.667 13.1063 3.667 12.6463V6.81226C3.667 6.35226 4.04 5.97926 4.5 5.97926H19.5C19.96 5.97926 20.333 6.35226 20.333 6.81226V12.6463C20.333 13.1063 20.706 13.4793 21.167 13.4793C21.627 13.4793 22 13.1063 22 12.6463V6.81226ZM9.2376 9.72436C9.2376 9.56136 9.1916 9.42236 9.0996 9.30636C9.0086 9.19136 8.8776 9.13736 8.7076 9.14336L8.0156 9.19436L8.4026 8.63336C8.4626 8.53936 8.4946 8.44736 8.4946 8.35936C8.4946 8.20236 8.4236 8.06836 8.2856 7.95236C8.1456 7.83636 7.9956 7.77836 7.8306 7.77836C7.6346 7.77836 7.4926 7.87036 7.4036 8.05336L7.0986 8.68536L6.7836 8.05336C6.6946 7.87636 6.5516 7.78836 6.3556 7.78836C6.1916 7.78836 6.0406 7.84636 5.9016 7.96136C5.7626 8.07736 5.6926 8.21036 5.6926 8.35936C5.6926 8.44736 5.7236 8.53936 5.7856 8.63336L6.1706 9.19436L5.4786 9.14336C5.3156 9.13736 5.1876 9.19236 5.0916 9.31236C4.9956 9.43036 4.9496 9.57136 4.9496 9.73536C4.9496 9.89736 4.9956 10.0354 5.0866 10.1464C5.1776 10.2584 5.3086 10.3114 5.4786 10.3054L6.1816 10.2534L5.7856 10.8344C5.7306 10.9094 5.7036 10.9934 5.7036 11.0894C5.7036 11.2444 5.7726 11.3824 5.9116 11.5004C6.0506 11.6204 6.2026 11.6804 6.3656 11.6804C6.5546 11.6804 6.6946 11.5914 6.7836 11.4144L7.0986 10.7834L7.4036 11.4144C7.4446 11.5034 7.5016 11.5694 7.5776 11.6144C7.6516 11.6584 7.7336 11.6804 7.8216 11.6804C7.9846 11.6804 8.1376 11.6214 8.2806 11.5064C8.4226 11.3914 8.4946 11.2554 8.4946 11.0994C8.4946 11.0114 8.4626 10.9224 8.4026 10.8344L8.0046 10.2534L8.7076 10.3054C8.8776 10.3184 9.0086 10.2674 9.0996 10.1524C9.1916 10.0364 9.2376 9.89436 9.2376 9.72436ZM14.0068 9.30636C14.0988 9.42236 14.1448 9.56136 14.1448 9.72436C14.1448 9.89436 14.0988 10.0364 14.0068 10.1524C13.9148 10.2674 13.7838 10.3184 13.6138 10.3054L12.9108 10.2534L13.3098 10.8344C13.3698 10.9224 13.4008 11.0114 13.4008 11.0994C13.4008 11.2554 13.3288 11.3914 13.1868 11.5064C13.0438 11.6214 12.8918 11.6804 12.7288 11.6804C12.6408 11.6804 12.5588 11.6584 12.4838 11.6144C12.4088 11.5694 12.3518 11.5034 12.3108 11.4144L12.0058 10.7834L11.6898 11.4144C11.6008 11.5914 11.4618 11.6804 11.2718 11.6804C11.1088 11.6804 10.9578 11.6204 10.8188 11.5004C10.6788 11.3824 10.6098 11.2444 10.6098 11.0894C10.6098 10.9934 10.6368 10.9094 10.6918 10.8344L11.0888 10.2534L10.3858 10.3054C10.2158 10.3114 10.0848 10.2584 9.9928 10.1464C9.9018 10.0354 9.8568 9.89736 9.8568 9.73536C9.8568 9.57136 9.9028 9.43036 9.9988 9.31236C10.0938 9.19236 10.2228 9.13736 10.3858 9.14336L11.0778 9.19436L10.6918 8.63336C10.6298 8.53936 10.5998 8.44736 10.5998 8.35936C10.5998 8.21036 10.6688 8.07736 10.8088 7.96136C10.9468 7.84636 11.0988 7.78836 11.2618 7.78836C11.4578 7.78836 11.6008 7.87636 11.6898 8.05336L12.0058 8.68536L12.3108 8.05336C12.3998 7.87036 12.5418 7.77836 12.7378 7.77836C12.9018 7.77836 13.0528 7.83636 13.1918 7.95236C13.3308 8.06836 13.4008 8.20236 13.4008 8.35936C13.4008 8.44736 13.3698 8.53936 13.3098 8.63336L12.9218 9.19436L13.6138 9.14336C13.7838 9.13736 13.9148 9.19136 14.0068 9.30636ZM18.9954 9.72436C18.9954 9.56136 18.9494 9.42236 18.8574 9.30636C18.7664 9.19136 18.6354 9.13736 18.4654 9.14336L17.7734 9.19436L18.1604 8.63336C18.2204 8.53936 18.2524 8.44736 18.2524 8.35936C18.2524 8.20236 18.1814 8.06836 18.0434 7.95236C17.9034 7.83636 17.7534 7.77836 17.5884 7.77836C17.3924 7.77836 17.2504 7.87036 17.1614 8.05336L16.8564 8.68536L16.5414 8.05336C16.4524 7.87636 16.3094 7.78836 16.1134 7.78836C15.9494 7.78836 15.7984 7.84636 15.6594 7.96136C15.5204 8.07736 15.4504 8.21036 15.4504 8.35936C15.4504 8.44736 15.4814 8.53936 15.5434 8.63336L15.9284 9.19436L15.2364 9.14336C15.0734 9.13736 14.9454 9.19236 14.8494 9.31236C14.7534 9.43036 14.7074 9.57136 14.7074 9.73536C14.7074 9.89736 14.7534 10.0354 14.8444 10.1464C14.9354 10.2584 15.0664 10.3114 15.2364 10.3054L15.9394 10.2534L15.5434 10.8344C15.4884 10.9094 15.4614 10.9934 15.4614 11.0894C15.4614 11.2444 15.5304 11.3824 15.6694 11.5004C15.8084 11.6204 15.9604 11.6804 16.1234 11.6804C16.3124 11.6804 16.4524 11.5914 16.5414 11.4144L16.8564 10.7834L17.1614 11.4144C17.2024 11.5034 17.2594 11.5694 17.3354 11.6144C17.4094 11.6584 17.4914 11.6804 17.5794 11.6804C17.7424 11.6804 17.8954 11.6214 18.0384 11.5064C18.1804 11.3914 18.2524 11.2554 18.2524 11.0994C18.2524 11.0114 18.2204 10.9224 18.1604 10.8344L17.7624 10.2534L18.4654 10.3054C18.6354 10.3184 18.7664 10.2674 18.8574 10.1524C18.9494 10.0364 18.9954 9.89436 18.9954 9.72436Z" fill="#5A5A5A"/>
</g>
</svg>
