<svg width="24" height="24" viewBox="0 0 24 24" fill="none" xmlns="http://www.w3.org/2000/svg">
<g id="component_radio_button">
<path id="Shape" fill-rule="evenodd" clip-rule="evenodd" d="M21.9742 8.49516C21.7942 4.99516 19.0042 2.20516 15.5042 2.02516C15.3842 2.00516 15.2542 2.00516 15.1342 2.00516C14.9452 2.00516 14.7542 2.01516 14.5752 2.03516C11.5752 2.27516 9.13424 4.43516 8.46424 7.28516C8.59424 7.27516 8.72424 7.27516 8.86524 7.27516C9.01424 7.27516 9.17424 7.27516 9.33424 7.29516C9.75424 7.31516 10.1642 7.37516 10.5652 7.47416C11.1152 5.64516 12.7142 4.29516 14.6742 4.10516C14.8252 4.09516 14.9852 4.08516 15.1342 4.08516C15.2352 4.08516 15.3252 4.08516 15.4142 4.10516C17.8342 4.22416 19.7752 6.16516 19.8952 8.58516C19.9142 8.67516 19.9142 8.76516 19.9142 8.86516C19.9142 9.01516 19.9052 9.17516 19.8952 9.32516C19.7042 11.2852 18.3552 12.8852 16.5252 13.4342C16.6242 13.8352 16.6842 14.2452 16.7042 14.6652C16.7242 14.8252 16.7242 14.9852 16.7242 15.1352C16.7242 15.2742 16.7242 15.4052 16.7042 15.5352C19.5652 14.8752 21.7242 12.4252 21.9642 9.42516C21.9852 9.24516 21.9952 9.05516 21.9952 8.86516C21.9952 8.74516 21.9952 8.61516 21.9742 8.49516ZM13.6246 15.5949C13.3956 18.0249 11.3546 19.9149 8.86464 19.9149C6.22464 19.9149 4.08464 17.7749 4.08464 15.1349C4.08464 12.6449 5.97464 10.6049 8.40464 10.3749C8.55464 10.3649 8.71464 10.3549 8.86464 10.3549C8.96464 10.3549 9.05464 10.3549 9.14564 10.3749C11.5646 10.4949 13.5046 12.4349 13.6246 14.8549C13.6456 14.9459 13.6456 15.0349 13.6456 15.1349C13.6456 15.2821 13.635 15.4399 13.6252 15.5866L13.6246 15.5949ZM15.7046 14.7649C15.5246 11.2649 12.7346 8.47486 9.23464 8.29486C9.11464 8.27486 8.98464 8.27486 8.86464 8.27486C8.67464 8.27486 8.48464 8.28486 8.30464 8.30486C4.77464 8.58486 2.00464 11.5349 2.00464 15.1349C2.00464 18.9249 5.07464 21.9949 8.86464 21.9949C12.4646 21.9949 15.4146 19.2249 15.6946 15.6959C15.7146 15.5149 15.7246 15.3249 15.7246 15.1349C15.7246 15.0149 15.7246 14.8849 15.7046 14.7649ZM8.86584 18.6369C10.8008 18.6369 12.3688 17.0689 12.3688 15.1339C12.3688 13.1989 10.8008 11.6319 8.86584 11.6319C6.93184 11.6319 5.36384 13.1989 5.36384 15.1339C5.36384 17.0689 6.93184 18.6369 8.86584 18.6369Z" fill="#5A5A5A"/>
</g>
</svg>
