<svg width="24" height="24" viewBox="0 0 24 24" fill="none" xmlns="http://www.w3.org/2000/svg">
<g id="component_grid">
<path id="Shape" fill-rule="evenodd" clip-rule="evenodd" d="M9.91667 2.3998H3.25C2.55917 2.3998 2 2.9598 2 3.6498V9.9498C2 10.6406 2.55917 11.1998 3.25 11.1998H9.91667C10.6067 11.1998 11.1667 10.6406 11.1667 9.9498V3.6498C11.1667 2.9598 10.6067 2.3998 9.91667 2.3998ZM20.75 2.3998H14.0833C13.3925 2.3998 12.8333 2.9598 12.8333 3.6498V9.9498C12.8333 10.6406 13.3925 11.1998 14.0833 11.1998H20.75C21.44 11.1998 22 10.6406 22 9.9498V3.6498C22 2.9598 21.44 2.3998 20.75 2.3998ZM3.25 12.7994H9.91667C10.6067 12.7994 11.1667 13.3594 11.1667 14.0494V20.3502C11.1667 21.041 10.6067 21.6002 9.91667 21.6002H3.25C2.55917 21.6002 2 21.041 2 20.3502V14.0494C2 13.3594 2.55917 12.7994 3.25 12.7994ZM20.75 12.7994H14.0833C13.3925 12.7994 12.8333 13.3594 12.8333 14.0494V20.3502C12.8333 21.041 13.3925 21.6002 14.0833 21.6002H20.75C21.44 21.6002 22 21.041 22 20.3502V14.0494C22 13.3594 21.44 12.7994 20.75 12.7994Z" fill="#5A5A5A"/>
</g>
</svg>
