<?xml version="1.0" encoding="UTF-8"?>
<svg width="24px" height="24px" viewBox="0 0 24 24" version="1.1" xmlns="http://www.w3.org/2000/svg" xmlns:xlink="http://www.w3.org/1999/xlink">
    <title>2. Library Essentials/component_checkbox</title>
    <g id="2.-Library-Essentials/component_checkbox" stroke="none" stroke-width="1" fill="none" fill-rule="evenodd">
        <path d="M13.7671,8.2662 C14.8501,8.2662 15.7251,9.1502 15.7251,10.2332 L15.7251,10.2332 L15.7251,20.0422 C15.7251,21.1252 14.8501,22.0002 13.7671,22.0002 L13.7671,22.0002 L3.9581,22.0002 C2.8741,22.0002 1.9991,21.1252 1.9991,20.0422 L1.9991,20.0422 L1.9991,10.2332 C1.9991,9.1502 2.8741,8.2662 3.9581,8.2662 L3.9581,8.2662 Z M12.0831,11.9002 C11.4831,11.4502 10.6331,11.5662 10.1921,12.1662 L10.1921,12.1662 L7.8831,15.2502 L7.3581,14.7242 C6.8251,14.2412 6.0081,14.2662 5.4991,14.7752 C4.9921,15.2832 4.9661,16.0992 5.4501,16.6332 L5.4501,16.6332 L7.0751,18.2502 C7.3501,18.5252 7.7331,18.6672 8.1241,18.6412 C8.5081,18.6082 8.8741,18.4172 9.1081,18.1082 L9.1081,18.1082 L12.3501,13.7832 C12.8001,13.1912 12.6751,12.3422 12.0831,11.9002 Z M20.0335,2.0005 C21.1165,2.0005 21.9995,2.8755 21.9995,3.9585 L21.9995,13.7665 C21.9995,14.8495 21.1165,15.7335 20.0335,15.7335 L16.5585,15.7335 L16.5585,10.2335 C16.5585,8.6915 15.3085,7.4335 13.7675,7.4335 L8.2675,7.4335 L8.2675,3.9585 C8.2675,2.8755 9.1425,2.0005 10.2255,2.0005 L20.0335,2.0005 Z" id="ðŸ–-Color" fill="#5A5A5A"></path>
        <rect id="_Transparent_Rectangle_" x="0" y="0" width="24" height="24"></rect>
    </g>
</svg>