<?xml version="1.0" encoding="UTF-8"?>
<svg width="24px" height="24px" viewBox="0 0 24 24" version="1.1" xmlns="http://www.w3.org/2000/svg" xmlns:xlink="http://www.w3.org/1999/xlink">
    <title>2. Library Essentials/component_info_text</title>
    <g id="2.-Library-Essentials/component_info_text" stroke="none" stroke-width="1" fill="none" fill-rule="evenodd">
        <path d="M19.5002,1.9996 C20.8812,1.9996 22.0002,3.1186 22.0002,4.4996 L22.0002,4.4996 L22.0002,19.4996 C22.0002,20.8806 20.8812,21.9996 19.5002,21.9996 L19.5002,21.9996 L4.5002,21.9996 C3.1192,21.9996 2.0002,20.8806 2.0002,19.4996 L2.0002,19.4996 L2.0002,4.4996 C2.0002,3.1186 3.1192,1.9996 4.5002,1.9996 L4.5002,1.9996 Z M19.5002,3.6666 L4.5002,3.6666 C4.0402,3.6666 3.6672,4.0396 3.6672,4.4996 L3.6672,4.4996 L3.6672,19.4996 C3.6672,19.9596 4.0402,20.3336 4.5002,20.3336 L4.5002,20.3336 L19.5002,20.3336 C19.9602,20.3336 20.3332,19.9596 20.3332,19.4996 L20.3332,19.4996 L20.3332,4.4996 C20.3332,4.0396 19.9602,3.6666 19.5002,3.6666 L19.5002,3.6666 Z M14.4065,8.0797 C14.6905,8.0797 14.9205,8.1567 15.0945,8.3097 C15.2705,8.4627 15.3575,8.6667 15.3575,8.9227 L15.3575,11.0987 C15.5175,10.8647 15.7425,10.6787 16.0305,10.5397 C16.3175,10.4017 16.6335,10.3327 16.9765,10.3327 C17.4425,10.3327 17.8545,10.4457 18.2115,10.6717 C18.5695,10.8977 18.8475,11.2207 19.0475,11.6397 C19.2495,12.0587 19.3485,12.5457 19.3485,13.0997 C19.3485,13.6527 19.2495,14.1447 19.0475,14.5757 C18.8475,15.0057 18.5675,15.3397 18.2065,15.5767 C17.8455,15.8127 17.4355,15.9317 16.9765,15.9317 C16.6185,15.9317 16.2935,15.8577 15.9975,15.7137 C15.7025,15.5667 15.4775,15.3667 15.3245,15.1117 C15.3025,15.3587 15.2065,15.5547 15.0355,15.6967 C14.8635,15.8387 14.6385,15.9097 14.3625,15.9097 C14.0705,15.9097 13.8385,15.8277 13.6685,15.6637 C13.4965,15.4997 13.4115,15.2827 13.4115,15.0137 L13.4115,8.9547 C13.4115,8.6997 13.5025,8.4897 13.6845,8.3257 C13.8665,8.1617 14.1065,8.0797 14.4065,8.0797 Z M8.6757,8.0689 C8.8947,8.0689 9.0977,8.1219 9.2887,8.2269 C9.4777,8.3329 9.6197,8.4839 9.7147,8.6809 L12.6017,14.6079 C12.6677,14.7469 12.7007,14.8829 12.7007,15.0129 C12.7007,15.2539 12.6037,15.4579 12.4107,15.6259 C12.2177,15.7939 11.9977,15.8779 11.7487,15.8779 C11.5817,15.8779 11.4277,15.8339 11.2897,15.7459 C11.1517,15.6579 11.0417,15.5269 10.9617,15.3519 L10.4697,14.2479 L6.9257,14.2479 L6.4227,15.3519 C6.3427,15.5269 6.2317,15.6579 6.0887,15.7459 C5.9477,15.8339 5.7917,15.8779 5.6247,15.8779 C5.3757,15.8779 5.1537,15.7939 4.9527,15.6259 C4.7517,15.4579 4.6517,15.2539 4.6517,15.0129 C4.6517,14.8829 4.6837,14.7469 4.7497,14.6079 L7.6367,8.6809 C7.7317,8.4839 7.8727,8.3329 8.0577,8.2269 C8.2447,8.1219 8.4497,8.0689 8.6757,8.0689 Z M16.3845,11.7867 C16.0435,11.7867 15.7805,11.9017 15.5985,12.1317 C15.4165,12.3607 15.3245,12.6907 15.3245,13.1207 C15.3245,13.5597 15.4165,13.8937 15.5985,14.1277 C15.7805,14.3607 16.0395,14.4767 16.3745,14.4767 C16.7105,14.4767 16.9685,14.3587 17.1505,14.1217 C17.3335,13.8857 17.4245,13.5437 17.4245,13.0997 C17.4245,12.6767 17.3355,12.3517 17.1575,12.1257 C16.9775,11.8997 16.7205,11.7867 16.3845,11.7867 Z M8.6977,10.2999 L7.6037,12.7379 L9.7917,12.7379 L8.6977,10.2999 Z" id="ðŸ–-Color" fill="#5A5A5A"></path>
        <rect id="_Transparent_Rectangle_" x="0" y="0" width="24" height="24"></rect>
    </g>
</svg>