<?xml version="1.0" encoding="UTF-8"?>
<svg width="24px" height="24px" viewBox="0 0 24 24" version="1.1" xmlns="http://www.w3.org/2000/svg" xmlns:xlink="http://www.w3.org/1999/xlink">
    <title>2. Library Essentials/component_combo_box</title>
    <g id="2.-Library-Essentials/component_combo_box" stroke="none" stroke-width="1" fill="none" fill-rule="evenodd">
        <path d="M14,2.01005 C15.109,2.01005 16,2.91005 16,4.01005 L16,4.01005 L16,20.01005 C16,21.11005 15.109,22.01005 14,22.01005 L14,22.01005 L4,22.01005 C2.899,22.01005 2,21.11005 2,20.01005 L2,20.01005 L2,4.01005 C2,2.91005 2.899,2.01005 4,2.01005 L4,2.01005 Z M5.207,16.23505 C4.377,16.23505 3.707,16.90405 3.707,17.73505 C3.707,18.56505 4.377,19.23505 5.207,19.23505 C6.037,19.23505 6.707,18.56505 6.707,17.73505 C6.707,16.90405 6.037,16.23505 5.207,16.23505 Z M5.207,10.85505 C4.377,10.85505 3.707,11.53505 3.707,12.35505 C3.707,13.18505 4.377,13.85505 5.207,13.85505 C6.037,13.85505 6.707,13.18505 6.707,12.35505 C6.707,11.53505 6.037,10.85505 5.207,10.85505 Z M20,1.98995 C21.109,1.98995 22,2.88995 22,3.98995 L22,7.98995 C22,9.09995 21.109,9.98995 20,9.98995 L17,9.98995 L17,7.77995 C17.149,7.91995 17.35,7.97995 17.55,7.96995 C17.77,7.94995 17.979,7.83995 18.109,7.66995 L19.939,5.22995 C20.189,4.88995 20.12,4.40995 19.79,4.15995 C19.45,3.90995 18.97,3.97995 18.72,4.30995 L17.42,6.04995 L17.12,5.75995 C17.09,5.71995 17.05,5.68995 17,5.65995 L17,4.00995 C17,3.23995 16.7,2.51995 16.21,1.98995 L20,1.98995 Z M5.207,5.48505 C4.377,5.48505 3.707,6.15505 3.707,6.98505 C3.707,7.81505 4.377,8.48505 5.207,8.48505 C6.037,8.48505 6.707,7.81505 6.707,6.98505 C6.707,6.15505 6.037,5.48505 5.207,5.48505 Z" id="ðŸ–-Color" fill="#5A5A5A"></path>
        <rect id="_Transparent_Rectangle_" x="0" y="0" width="24" height="24"></rect>
    </g>
</svg>