<svg width="24" height="24" viewBox="0 0 24 24" fill="none" xmlns="http://www.w3.org/2000/svg">
<g id="component_info_date_time">
<path id="Shape" fill-rule="evenodd" clip-rule="evenodd" d="M17.6248 4.5H19.9165C20.837 4.5 21.5832 5.24619 21.5832 6.16667V20.3333C21.5832 21.2538 20.837 22 19.9165 22H4.08317C3.1627 22 2.4165 21.2538 2.4165 20.3333V6.16667C2.4165 5.24619 3.1627 4.5 4.08317 4.5H5.33317C5.56329 4.5 5.74984 4.68655 5.74984 4.91667V6.79167C5.74984 7.13684 6.02966 7.41667 6.37484 7.41667C6.72002 7.41667 6.99984 7.13684 6.99984 6.79167V2.83333C6.99984 2.3731 7.37293 2 7.83317 2C8.29341 2 8.6665 2.3731 8.6665 2.83333V4.2925C8.66696 4.40723 8.7601 4.5 8.87484 4.5H14.0832C14.3133 4.5 14.4998 4.68655 14.4998 4.91667V6.79167C14.4998 7.13684 14.7797 7.41667 15.1248 7.41667C15.47 7.41667 15.7498 7.13684 15.7498 6.79167V2.83333C15.7498 2.3731 16.1229 2 16.5832 2C17.0434 2 17.4165 2.3731 17.4165 2.83333V4.29167C17.4165 4.40673 17.5098 4.5 17.6248 4.5ZM19.4998 20.3333C19.73 20.3333 19.9165 20.1468 19.9165 19.9167V9.91667C19.9165 9.68655 19.73 9.5 19.4998 9.5H4.49984C4.26972 9.5 4.08317 9.68655 4.08317 9.91667V19.9167C4.08317 20.1468 4.26972 20.3333 4.49984 20.3333H19.4998ZM10.044 11.2925C9.61048 11.0828 9.09507 11.1409 8.719 11.4417L7.31234 12.5667C6.95289 12.8543 6.89469 13.3789 7.18234 13.7383C7.46999 14.0978 7.99456 14.156 8.354 13.8683L9.08317 13.285V17.8333C9.08317 18.2936 9.45627 18.6667 9.9165 18.6667C10.3767 18.6667 10.7498 18.2936 10.7498 17.8333V12.4167C10.7474 11.9382 10.4739 11.5026 10.044 11.2925ZM12.8332 11.1667H15.3332C15.7542 11.1653 16.1477 11.3761 16.3799 11.7273C16.6121 12.0786 16.6519 12.5231 16.4857 12.91L14.0082 18.1883C13.8073 18.599 13.3167 18.7761 12.8998 18.5883C12.4834 18.3927 12.3043 17.8965 12.4998 17.48L14.6765 12.8333H12.8332C12.3729 12.8333 11.9998 12.4602 11.9998 12C11.9998 11.5398 12.3729 11.1667 12.8332 11.1667Z" fill="#5A5A5A"/>
</g>
</svg>
