<svg width="24" height="24" viewBox="0 0 24 24" fill="none" xmlns="http://www.w3.org/2000/svg">
<g id="component_info_numeric">
<path id="Shape" fill-rule="evenodd" clip-rule="evenodd" d="M22.0002 4.49969C22.0002 3.11869 20.8812 1.99969 19.5002 1.99969H4.50024C3.11924 1.99969 2.00024 3.11869 2.00024 4.49969V19.4997C2.00024 20.8807 3.11924 21.9997 4.50024 21.9997H19.5002C20.8812 21.9997 22.0002 20.8807 22.0002 19.4997V4.49969ZM20.3332 19.4997C20.3332 19.9597 19.9602 20.3337 19.5002 20.3337H4.50024C4.04024 20.3337 3.66724 19.9597 3.66724 19.4997V4.49969C3.66724 4.03969 4.04024 3.66669 4.50024 3.66669H19.5002C19.9602 3.66669 20.3332 4.03969 20.3332 4.49969V19.4997ZM9.04704 14.0466C9.21504 13.6306 9.29904 12.9456 9.29904 11.9936C9.29904 11.0506 9.21504 10.3696 9.04704 9.95359C8.87904 9.53859 8.60404 9.32959 8.21904 9.32959C7.83604 9.32959 7.56104 9.53559 7.39304 9.94759C7.22304 10.3596 7.13904 11.0426 7.13904 11.9936C7.13904 12.9456 7.22304 13.6306 7.39304 14.0466C7.56104 14.4626 7.83604 14.6706 8.21904 14.6706C8.60404 14.6706 8.87904 14.4626 9.04704 14.0466ZM5.82004 15.2226C5.26804 14.4786 4.99204 13.4016 4.99204 11.9936C4.99204 10.5946 5.26804 9.52259 5.82004 8.7776C6.37104 8.0336 7.17204 7.66159 8.21904 7.66159C9.26004 7.66159 10.057 8.0336 10.613 8.7776C11.17 9.52259 11.447 10.5946 11.447 11.9936C11.447 13.4016 11.172 14.4786 10.619 15.2226C10.068 15.9666 9.26804 16.3386 8.21904 16.3386C7.17204 16.3386 6.37104 15.9666 5.82004 15.2226ZM19.008 15.3421C19.008 15.0541 18.924 14.8391 18.756 14.6941C18.588 14.5501 18.324 14.4781 17.963 14.4781H16.981V8.79009C16.981 8.4631 16.881 8.2021 16.686 8.0101C16.49 7.8181 16.233 7.7221 15.912 7.7221C15.6 7.7221 15.268 7.82209 14.916 8.0221L12.996 9.13809C12.715 9.3061 12.576 9.5541 12.576 9.8821C12.576 10.1221 12.656 10.3401 12.817 10.5361C12.977 10.7321 13.168 10.8301 13.393 10.8301C13.535 10.8301 13.676 10.7911 13.813 10.7111L14.772 10.1461V14.4781H13.801C13.44 14.4781 13.176 14.5501 13.008 14.6941C12.84 14.8391 12.756 15.0541 12.756 15.3421C12.756 15.9341 13.104 16.2301 13.801 16.2301H17.963C18.66 16.2301 19.008 15.9341 19.008 15.3421Z" fill="#5A5A5A"/>
</g>
</svg>
