<svg width="24" height="24" viewBox="0 0 24 24" fill="none" xmlns="http://www.w3.org/2000/svg">
<g id="component_currency_edit">
<path id="Shape" fill-rule="evenodd" clip-rule="evenodd" d="M3.99195 2.39874H15.423C16.523 2.39874 17.423 3.28874 17.423 4.38774V8.50774C17.213 8.46774 17.002 8.44874 16.792 8.44874C16.452 8.44874 16.133 8.49874 15.822 8.58774V4.38774C15.822 4.17774 15.643 3.99874 15.423 3.99874H3.99195C3.77295 3.99874 3.60295 4.17774 3.60295 4.38774V15.2087C3.60295 15.4187 3.77295 15.5977 3.99195 15.5977H10.023C10.0888 15.7398 10.1813 15.8713 10.2745 16.0038C10.2803 16.0121 10.2861 16.0204 10.292 16.0287C10.023 16.3777 9.83195 16.7787 9.71295 17.1987H3.99195C2.89295 17.1987 2.00195 16.3087 2.00195 15.2087V4.38774C2.00195 3.28874 2.89295 2.39874 3.99195 2.39874ZM7.37905 12.5577V9.64974L9.68505 8.79174V7.76574L7.37905 8.62974V7.75374L9.68505 6.89574V5.87174L7.37905 6.73574V5.46574H5.74005V7.34874L4.76905 7.70674V8.72574L5.74005 8.36874V9.25074L4.76905 9.60174V10.6277L5.74005 10.2687V14.1307H6.42505C7.19605 14.1307 7.86105 14.0127 8.42205 13.7767C8.98205 13.5407 9.44205 13.2177 9.80405 12.8107C10.1661 12.4037 10.4331 11.9267 10.6061 11.3797C10.7781 10.8347 10.8651 10.2537 10.8651 9.63774H9.28605C9.28605 10.0467 9.23705 10.4287 9.14005 10.7847C9.04205 11.1397 8.90805 11.4497 8.73705 11.7117C8.56605 11.9737 8.36505 12.1797 8.13305 12.3317C7.90005 12.4817 7.64905 12.5577 7.37905 12.5577ZM18.0422 16.0249C18.0422 16.6879 17.4822 17.2249 16.7922 17.2249C16.1022 17.2249 15.5422 16.6879 15.5422 16.0249C15.5422 15.3619 16.1022 14.8249 16.7922 14.8249C17.4822 14.8249 18.0422 15.3619 18.0422 16.0249ZM21.5988 14.9232C22.0438 14.4642 22.1258 13.7812 21.7998 13.2382C21.4748 12.6952 20.8178 12.4202 20.1818 12.5602L19.0068 12.8212C18.8128 12.8632 18.6188 12.7552 18.5608 12.5722L18.2078 11.4592C18.0208 10.8582 17.4448 10.4472 16.7908 10.4472C16.1378 10.4472 15.5618 10.8582 15.3738 11.4592L15.0218 12.5712C14.9628 12.7532 14.7698 12.8602 14.5768 12.8212L13.4018 12.5582C12.7648 12.4182 12.1088 12.6942 11.7838 13.2362C11.4568 13.7802 11.5388 14.4632 11.9848 14.9212L12.8078 15.7722C12.9428 15.9132 12.9428 16.1312 12.8078 16.2732L11.9848 17.1252C11.5398 17.5842 11.4588 18.2662 11.7848 18.8092C12.1108 19.3512 12.7658 19.6272 13.4018 19.4882L14.5778 19.2272C14.7708 19.1852 14.9648 19.2932 15.0228 19.4762L15.3748 20.5902C15.5628 21.1902 16.1388 21.6012 16.7918 21.6012C17.4458 21.6012 18.0208 21.1902 18.2088 20.5902L18.5618 19.4762C18.6188 19.2932 18.8138 19.1852 19.0068 19.2272L20.1828 19.4882C20.8188 19.6272 21.4738 19.3512 21.7988 18.8092C22.1238 18.2662 22.0428 17.5842 21.5998 17.1252L20.7768 16.2732C20.6408 16.1312 20.6408 15.9132 20.7768 15.7722L21.5988 14.9232ZM16.7918 18.4252C15.4118 18.4252 14.2908 17.3502 14.2908 16.0252C14.2908 14.6982 15.4118 13.6242 16.7918 13.6242C18.1728 13.6242 19.2918 14.6982 19.2918 16.0252C19.2918 17.3502 18.1728 18.4252 16.7918 18.4252Z" fill="#5A5A5A"/>
</g>
</svg>
