<svg width="24" height="24" viewBox="0 0 24 24" fill="none" xmlns="http://www.w3.org/2000/svg">
<g id="component_message_control">
<path id="Shape" fill-rule="evenodd" clip-rule="evenodd" d="M13.8762 11.3825C13.9823 11.4051 14.0887 11.346 14.1212 11.2464C14.4052 10.0486 15.5147 9.19862 16.7944 9.19862C18.0741 9.19862 19.1835 10.0486 19.4675 11.2464C19.5 11.3459 19.6066 11.4048 19.7126 11.3817L19.7576 11.3713C19.8522 11.3507 19.9193 11.2699 19.9193 11.1768V3.59741C19.9193 2.93514 19.3605 2.39801 18.6706 2.39713H3.2503C2.55978 2.39713 2 2.93451 2 3.59741V13.2421C2.00256 13.5558 2.13655 13.8554 2.37176 14.0732C2.60697 14.291 2.92361 14.4088 3.2503 14.4H4.5006V17.2007C4.50055 17.3582 4.59681 17.5011 4.74649 17.5657C4.89616 17.6303 5.07139 17.6045 5.19409 17.4999L8.82579 14.4H10.2136C10.2774 14.3999 10.3376 14.3719 10.3771 14.3238C10.4166 14.2758 10.431 14.2131 10.4162 14.1535C10.0919 12.8532 11.3439 10.8375 13.8762 11.3825ZM18.0438 16.0252C18.0438 16.6881 17.484 17.2255 16.7935 17.2255C16.103 17.2255 15.5432 16.6881 15.5432 16.0252C15.5432 15.3623 16.103 14.8249 16.7935 14.8249C17.484 14.8249 18.0438 15.3623 18.0438 16.0252ZM21.6013 14.9233C22.0453 14.465 22.1262 13.7824 21.801 13.2399C21.4757 12.6975 20.8201 12.422 20.1843 12.5603L19.0082 12.822C18.8151 12.8637 18.6212 12.7551 18.5639 12.5731L18.2105 11.4593C18.0227 10.8587 17.4467 10.4475 16.7935 10.4475C16.1403 10.4475 15.5644 10.8587 15.3765 11.4593L15.0231 12.5731C14.9655 12.7548 14.7719 12.8633 14.5788 12.822L13.4035 12.5595C12.7677 12.4212 12.1122 12.6967 11.7869 13.2391C11.4616 13.7816 11.5426 14.4642 11.9865 14.9225L12.8101 15.7739C12.9451 15.9157 12.9451 16.133 12.8101 16.2748L11.9865 17.127C11.5426 17.5854 11.4616 18.268 11.7869 18.8104C12.1122 19.3528 12.7677 19.6284 13.4035 19.49L14.5797 19.2283C14.7729 19.1858 14.9674 19.2947 15.0239 19.4772L15.3774 20.5911C15.5652 21.1916 16.1411 21.6029 16.7944 21.6029C17.4476 21.6029 18.0235 21.1916 18.2114 20.5911L18.5648 19.4772C18.621 19.2945 18.8157 19.1854 19.0091 19.2283L20.1852 19.49C20.821 19.6284 21.4765 19.3528 21.8018 18.8104C22.1271 18.268 22.0461 17.5854 21.6022 17.127L20.7795 16.2748C20.6445 16.133 20.6445 15.9157 20.7795 15.7739L21.6013 14.9233ZM19.2941 16.0252C19.2941 17.351 18.1746 18.4257 16.7935 18.4257C15.4125 18.4257 14.2929 17.351 14.2929 16.0252C14.2929 14.6994 15.4125 13.6246 16.7935 13.6246C17.4567 13.6246 18.0928 13.8775 18.5617 14.3277C19.0307 14.7779 19.2941 15.3885 19.2941 16.0252Z" fill="#5A5A5A"/>
</g>
</svg>
