<svg width="24" height="24" viewBox="0 0 24 24" fill="none" xmlns="http://www.w3.org/2000/svg">
<g id="component_simple_image">
<path id="Shape" fill-rule="evenodd" clip-rule="evenodd" d="M15.5776 2.24417L20.0892 6.75583C20.2455 6.91208 20.3334 7.124 20.3334 7.345V20.3333C20.3334 21.2538 19.5872 22 18.6667 22H5.33341C4.41294 22 3.66675 21.2538 3.66675 20.3333V3.66667C3.66675 2.74619 4.41294 2 5.33341 2H14.9884C15.2094 2.00005 15.4213 2.08788 15.5776 2.24417ZM18.2501 20.3333C18.4802 20.3333 18.6667 20.1468 18.6667 19.9167V7.8625C18.6667 7.75221 18.623 7.64642 18.5451 7.56833L14.7651 3.78833C14.687 3.71044 14.5812 3.66669 14.4709 3.66667H5.75008C5.51996 3.66667 5.33341 3.85321 5.33341 4.08333V19.9167C5.33341 20.1468 5.51996 20.3333 5.75008 20.3333H18.2501ZM17.0001 15.3333C17.0001 16.9442 15.6942 18.25 14.0834 18.25C12.4726 18.25 11.1667 16.9442 11.1667 15.3333C11.1667 13.7225 12.4726 12.4167 14.0834 12.4167C15.6942 12.4167 17.0001 13.7225 17.0001 15.3333ZM12.3354 11.9538C12.3224 12.0117 12.2849 12.0611 12.2326 12.0892C11.2513 12.6504 10.5771 13.6261 10.3992 14.7425C10.3852 14.8424 10.3001 14.9168 10.1992 14.9175H6.94258C6.86915 14.9175 6.80113 14.8789 6.76352 14.8159C6.72592 14.7528 6.7243 14.6746 6.75925 14.61L9.80508 8.95417C9.83907 8.89183 9.90226 8.85089 9.97305 8.84534C10.0438 8.83979 10.1126 8.87039 10.1559 8.92667L12.3001 11.7875C12.3355 11.8352 12.3484 11.8959 12.3354 11.9538Z" fill="#5A5A5A"/>
</g>
</svg>
