<svg width="24" height="24" viewBox="0 0 24 24" fill="none" xmlns="http://www.w3.org/2000/svg">
<g id="component_button">
<path id="Shape" fill-rule="evenodd" clip-rule="evenodd" d="M22 11.9445V6.94448C22 5.84448 21.11 4.94448 20 4.94448H4C2.9 4.94448 2 5.84448 2 6.94448V11.9445C2 13.0445 2.9 13.9445 4 13.9445H11.07L9.98 10.3145C9.82 9.79448 9.971 9.24448 10.341 8.87448C10.61 8.60448 10.99 8.44448 11.37 8.44448C11.511 8.44448 11.65 8.46448 11.79 8.50448L19.48 10.8145C20.07 10.9945 20.511 11.4945 20.601 12.1045C20.7 12.7045 20.431 13.3245 19.931 13.6745L19.54 13.9445H20C21.11 13.9445 22 13.0445 22 11.9445ZM17.5236 14.3403L20.3496 17.1653C20.5866 17.4013 20.5866 17.7853 20.3496 18.0213L19.4936 18.8793C19.2566 19.1143 18.8736 19.1143 18.6366 18.8793L15.8106 16.0523C15.7786 16.0203 15.7346 16.0043 15.6906 16.0093C15.6456 16.0133 15.6046 16.0363 15.5786 16.0733L14.3206 17.8903C14.1876 18.0813 13.9576 18.1803 13.7276 18.1433C13.4976 18.1063 13.3096 17.9413 13.2426 17.7193L10.9346 10.0293C10.8876 9.86928 10.9316 9.69628 11.0496 9.57828C11.1666 9.45928 11.3406 9.41528 11.5006 9.46328L19.1896 11.7713C19.4126 11.8373 19.5776 12.0263 19.6136 12.2563C19.6506 12.4863 19.5516 12.7163 19.3606 12.8493L17.5436 14.1083C17.5066 14.1343 17.4836 14.1743 17.4796 14.2193C17.4756 14.2643 17.4916 14.3083 17.5236 14.3403Z" fill="#5A5A5A"/>
</g>
</svg>
