<svg width="24" height="24" viewBox="0 0 24 24" fill="none" xmlns="http://www.w3.org/2000/svg">
<g id="component_autocomplete">
<path id="Shape" fill-rule="evenodd" clip-rule="evenodd" d="M2.86 7.83899C3.335 7.83899 3.719 7.45299 3.719 6.97899V5.25899H7.375C7.494 5.25899 7.589 5.35499 7.589 5.47399V16.224C7.589 16.342 7.494 16.439 7.375 16.439H5.87C5.394 16.439 5.009 16.824 5.009 17.298C5.009 17.773 5.394 18.158 5.87 18.158H11.03C11.505 18.158 11.889 17.773 11.889 17.298C11.889 16.824 11.505 16.439 11.03 16.439H9.524C9.406 16.439 9.309 16.342 9.309 16.224V5.47199C9.31 5.35399 9.407 5.25899 9.524 5.25899H13.179V6.97899C13.179 7.45299 13.564 7.83899 14.04 7.83899C14.514 7.83899 14.899 7.45299 14.899 6.97899V5.25899C14.899 4.30899 14.13 3.53799 13.179 3.53799H3.719C2.77 3.53799 2 4.30899 2 5.25899V6.97899C2 7.45299 2.384 7.83899 2.86 7.83899ZM14.9967 11.8625C14.9567 12.0425 15.0177 12.2295 15.1557 12.3515C15.2937 12.4735 15.4867 12.5125 15.6607 12.4525C15.8347 12.3915 15.9627 12.2415 15.9947 12.0605L16.2587 10.7325C16.3147 10.4575 16.1377 10.1885 15.8617 10.1325C15.5867 10.0765 15.3167 10.2545 15.2617 10.5295L14.9967 11.8625ZM12.6461 11.1066C12.5501 11.2026 12.4971 11.3316 12.4971 11.4666C12.4971 11.6016 12.5501 11.7306 12.6461 11.8266L13.6051 12.7856C13.8041 12.9846 14.1261 12.9846 14.3251 12.7856C14.5241 12.5866 14.5241 12.2646 14.3251 12.0656L13.3661 11.1066C13.2701 11.0106 13.1411 10.9576 13.0051 10.9576C12.8711 10.9576 12.7421 11.0106 12.6461 11.1066ZM16.5363 13.4461C16.4113 13.3951 16.3133 13.2961 16.2613 13.1711C16.1543 12.9111 16.2773 12.6141 16.5363 12.5061L17.7903 11.9871C17.9583 11.9181 18.1513 11.9421 18.2943 12.0541C18.4393 12.1641 18.5133 12.3441 18.4903 12.5241C18.4653 12.7041 18.3473 12.8581 18.1793 12.9281L16.9263 13.4451C16.8023 13.4971 16.6613 13.4981 16.5363 13.4461ZM13.9996 13.8566C13.9736 13.7246 13.8956 13.6076 13.7826 13.5326C13.6706 13.4586 13.5336 13.4306 13.4006 13.4576L12.0696 13.7216C11.7946 13.7766 11.6156 14.0446 11.6706 14.3206C11.7266 14.5956 11.9936 14.7746 12.2696 14.7196L13.6006 14.4556C13.7326 14.4286 13.8496 14.3506 13.9246 14.2386C13.9986 14.1266 14.0256 13.9896 13.9996 13.8566ZM14.0455 14.9969C14.1535 14.7389 14.4505 14.6159 14.7105 14.7219C14.9695 14.8299 15.0925 15.1269 14.9835 15.3869L14.4655 16.6409C14.3515 16.8899 14.0605 17.0049 13.8075 16.8999C13.5535 16.7949 13.4285 16.5079 13.5235 16.2509L14.0455 14.9969ZM21.8014 19.3049C22.0664 19.5699 22.0664 19.9989 21.8014 20.2639C21.5364 20.5279 21.1094 20.5279 20.8434 20.2649L17.8234 17.2449L14.7834 14.2019C14.5194 13.9369 14.5194 13.5079 14.7834 13.2429C15.0494 12.9779 15.4784 12.9779 15.7434 13.2429L18.7814 16.2849L21.8014 19.3049Z" fill="#5A5A5A"/>
</g>
</svg>
