<svg width="24" height="24" viewBox="0 0 24 24" fill="none" xmlns="http://www.w3.org/2000/svg">
<g id="component_info_text">
<path id="Shape" fill-rule="evenodd" clip-rule="evenodd" d="M22.0002 4.4996C22.0002 3.1186 20.8812 1.9996 19.5002 1.9996H4.50024C3.11924 1.9996 2.00024 3.1186 2.00024 4.4996V19.4996C2.00024 20.8806 3.11924 21.9996 4.50024 21.9996H19.5002C20.8812 21.9996 22.0002 20.8806 22.0002 19.4996V4.4996ZM20.3332 19.4996C20.3332 19.9596 19.9602 20.3336 19.5002 20.3336H4.50024C4.04024 20.3336 3.66724 19.9596 3.66724 19.4996V4.4996C3.66724 4.0396 4.04024 3.6666 4.50024 3.6666H19.5002C19.9602 3.6666 20.3332 4.0396 20.3332 4.4996V19.4996ZM7.60374 12.7379H9.79174L8.69774 10.2999L7.60374 12.7379ZM12.7007 15.0129C12.7007 15.2539 12.6037 15.4579 12.4107 15.6259C12.2177 15.7939 11.9977 15.8779 11.7487 15.8779C11.5817 15.8779 11.4277 15.8339 11.2897 15.7459C11.1517 15.6579 11.0417 15.5269 10.9617 15.3519L10.4697 14.2479H6.92574L6.42274 15.3519C6.34274 15.5269 6.23174 15.6579 6.08874 15.7459C5.94774 15.8339 5.79174 15.8779 5.62474 15.8779C5.37574 15.8779 5.15374 15.7939 4.95274 15.6259C4.75174 15.4579 4.65174 15.2539 4.65174 15.0129C4.65174 14.8829 4.68374 14.7469 4.74974 14.6079L7.63674 8.6809C7.73174 8.4839 7.87274 8.3329 8.05774 8.2269C8.24474 8.1219 8.44974 8.0689 8.67574 8.0689C8.89474 8.0689 9.09774 8.1219 9.28874 8.2269C9.47774 8.3329 9.61974 8.4839 9.71474 8.6809L12.6017 14.6079C12.6677 14.7469 12.7007 14.8829 12.7007 15.0129ZM17.4245 13.0997C17.4245 13.5437 17.3335 13.8857 17.1505 14.1217C16.9685 14.3587 16.7105 14.4767 16.3745 14.4767C16.0395 14.4767 15.7805 14.3607 15.5985 14.1277C15.4165 13.8937 15.3245 13.5597 15.3245 13.1207C15.3245 12.6907 15.4165 12.3607 15.5985 12.1317C15.7805 11.9017 16.0435 11.7867 16.3845 11.7867C16.7205 11.7867 16.9775 11.8997 17.1575 12.1257C17.3355 12.3517 17.4245 12.6767 17.4245 13.0997ZM19.0475 11.6397C18.8475 11.2207 18.5695 10.8977 18.2115 10.6717C17.8545 10.4457 17.4425 10.3327 16.9765 10.3327C16.6335 10.3327 16.3175 10.4017 16.0305 10.5397C15.7425 10.6787 15.5175 10.8647 15.3575 11.0987V8.9227C15.3575 8.6667 15.2705 8.4627 15.0945 8.3097C14.9205 8.1567 14.6905 8.0797 14.4065 8.0797C14.1065 8.0797 13.8665 8.1617 13.6845 8.3257C13.5025 8.4897 13.4115 8.6997 13.4115 8.9547V15.0137C13.4115 15.2827 13.4965 15.4997 13.6685 15.6637C13.8385 15.8277 14.0705 15.9097 14.3625 15.9097C14.6385 15.9097 14.8635 15.8387 15.0355 15.6967C15.2065 15.5547 15.3025 15.3587 15.3245 15.1117C15.4775 15.3667 15.7025 15.5667 15.9975 15.7137C16.2935 15.8577 16.6185 15.9317 16.9765 15.9317C17.4355 15.9317 17.8455 15.8127 18.2065 15.5767C18.5675 15.3397 18.8475 15.0057 19.0475 14.5757C19.2495 14.1447 19.3485 13.6527 19.3485 13.0997C19.3485 12.5457 19.2495 12.0587 19.0475 11.6397Z" fill="#5A5A5A"/>
</g>
</svg>
