<svg width="24" height="24" viewBox="0 0 24 24" fill="none" xmlns="http://www.w3.org/2000/svg">
<g id="component_scheduler">
<path id="Shape" fill-rule="evenodd" clip-rule="evenodd" d="M12.3158 6.84211C12.3158 4.16789 14.4837 2 17.1579 2C19.8308 2.00325 21.9968 4.16923 22 6.84211C22 9.51633 19.8321 11.6842 17.1579 11.6842C14.4837 11.6842 12.3158 9.51633 12.3158 6.84211ZM14 6.84211C14 8.58617 15.4138 10 17.1579 10C18.9012 9.99815 20.3139 8.5854 20.3158 6.84211C20.3158 5.09805 18.9019 3.68421 17.1579 3.68421C15.4138 3.68421 14 5.09805 14 6.84211ZM9.99999 6.61474C10.4468 6.73612 10.8747 6.91861 11.2716 7.15706C11.3789 9.12824 12.4648 10.9152 14.165 11.9183C14.1955 12.1901 14.2107 12.4634 14.2105 12.7368V13.2808C14.2129 15.0725 14.6299 16.8393 15.429 18.443C15.4945 18.5735 15.4876 18.7286 15.4109 18.8528C15.3342 18.977 15.1986 19.0526 15.0526 19.0526H2.42104C2.27505 19.0526 2.13948 18.977 2.06278 18.8528C1.98609 18.7286 1.97921 18.5735 2.04462 18.443C2.84412 16.8395 3.26121 15.0726 3.26315 13.2808V12.7368C3.26315 9.79537 5.01388 7.28085 7.47367 6.61474V5.57895C7.47367 4.88133 8.03921 4.31579 8.73683 4.31579C9.43446 4.31579 9.99999 4.88133 9.99999 5.57895V6.61474ZM7.05262 20.3158C7.05262 20.0833 7.24113 19.8947 7.47367 19.8947H9.99999C10.2325 19.8947 10.421 20.0833 10.421 20.3158C10.421 21.246 9.667 22 8.73683 22C7.80667 22 7.05262 21.246 7.05262 20.3158ZM17.7895 6.21053H18.4211C18.7699 6.21053 19.0526 6.4933 19.0526 6.84211C19.0526 7.19092 18.7699 7.47369 18.4211 7.47369H17.1579C16.8091 7.47369 16.5263 7.19092 16.5263 6.84211V5.1579C16.5263 4.80909 16.8091 4.52632 17.1579 4.52632C17.5067 4.52632 17.7895 4.80909 17.7895 5.1579V6.21053Z" fill="#5A5A5A"/>
</g>
</svg>
