<svg width="24" height="24" viewBox="0 0 24 24" fill="none" xmlns="http://www.w3.org/2000/svg">
<g id="component_html">
<path id="Shape" fill-rule="evenodd" clip-rule="evenodd" d="M5.0039 19.6998L11.7063 22.0651C11.8964 22.1322 12.1036 22.1322 12.2937 22.0651L18.9961 19.6998C19.3051 19.5904 19.5279 19.3187 19.5746 18.9943L21.9901 2.89788C22.0284 2.64389 21.9541 2.38584 21.7865 2.19116C21.6189 1.99649 21.3748 1.88454 21.118 1.88458H2.88205C2.62519 1.88454 2.38108 1.99649 2.21351 2.19116C2.04594 2.38584 1.97158 2.64389 2.00985 2.89788L4.42537 18.9987C4.47364 19.3215 4.69619 19.5912 5.0039 19.6998ZM6.66275 4.9968C6.91323 4.70038 7.2818 4.52966 7.66988 4.53028H16.8504C17.3375 4.53028 17.7323 4.92512 17.7323 5.41218C17.7323 5.89924 17.3375 6.29408 16.8504 6.29408H8.45124C8.3863 6.29426 8.32471 6.32296 8.2828 6.37257C8.24132 6.4213 8.22328 6.48576 8.23341 6.54895L8.71757 9.45127C8.75292 9.6639 8.9368 9.81981 9.15235 9.81991H15.4606C15.844 9.81989 16.2086 9.98628 16.4599 10.276C16.7112 10.5656 16.8244 10.9501 16.7702 11.3297L16.0003 16.7172C15.9261 17.2343 15.5547 17.6593 15.0523 17.802L12.3633 18.571C12.2452 18.6048 12.1229 18.6223 12 18.623C11.8783 18.6231 11.7572 18.6062 11.6402 18.5728L8.93981 17.802C8.44784 17.6609 8.08137 17.2488 7.99883 16.7437L7.60373 14.374C7.54147 14.0587 7.65568 13.7345 7.90183 13.5278C8.14797 13.3211 8.48707 13.2647 8.78687 13.3806C9.08667 13.4965 9.29968 13.7663 9.34284 14.0848L9.64709 15.9059C9.67465 16.0743 9.79695 16.2117 9.96105 16.2587L11.8801 16.8072C11.959 16.8301 12.0428 16.8301 12.1217 16.8072L14.0204 16.2648C14.1875 16.2169 14.3107 16.0753 14.3353 15.9032L14.9173 11.8377C14.9259 11.7744 14.9069 11.7104 14.865 11.6621C14.8232 11.6138 14.7625 11.5859 14.6986 11.5855H8.40538C7.75761 11.5878 7.20423 11.1189 7.10017 10.4796L6.36467 6.07007C6.30122 5.68588 6.41027 5.29325 6.66275 4.9968Z" fill="#5A5A5A"/>
</g>
</svg>
