<svg width="24" height="24" viewBox="0 0 24 24" fill="none" xmlns="http://www.w3.org/2000/svg">
<g id="component_numeric_edit">
<path id="Shape" fill-rule="evenodd" clip-rule="evenodd" d="M14.205 12.7687C14.332 12.6417 14.525 12.6107 14.685 12.6897L20.894 15.7927C21.05 15.8717 21.141 16.0377 21.122 16.2107C21.103 16.3837 20.979 16.5277 20.81 16.5707L18.81 17.0707C18.661 17.1077 18.545 17.2237 18.508 17.3727L18.008 19.3727C17.965 19.5417 17.821 19.6657 17.648 19.6847C17.475 19.7037 17.309 19.6127 17.23 19.4567L14.128 13.2487C14.048 13.0887 14.079 12.8957 14.205 12.7687ZM19.5 4.31274C20.881 4.31274 22 5.43174 22 6.81274V12.6457C22 13.1067 21.627 13.4797 21.167 13.4797C20.706 13.4797 20.333 13.1067 20.333 12.6457V6.81274C20.333 6.35274 19.96 5.97974 19.5 5.97974H4.5C4.04 5.97974 3.667 6.35274 3.667 6.81274V12.6457C3.667 13.1067 4.04 13.4797 4.5 13.4797H11.583C12.044 13.4797 12.417 13.8527 12.417 14.3127C12.417 14.7727 12.044 15.1457 11.583 15.1457H4.5C3.119 15.1457 2 14.0267 2 12.6457V6.81274C2 5.43174 3.119 4.31274 4.5 4.31274H19.5ZM7.4941 11.0138C7.5991 10.7528 7.6521 10.3238 7.6521 9.72484C7.6521 9.13284 7.5991 8.70584 7.4941 8.44484C7.3891 8.18384 7.2161 8.05284 6.9741 8.05284C6.7341 8.05284 6.5611 8.18184 6.4561 8.44084C6.3491 8.69984 6.2971 9.12784 6.2971 9.72484C6.2971 10.3238 6.3491 10.7528 6.4561 11.0138C6.5611 11.2748 6.7341 11.4058 6.9741 11.4058C7.2161 11.4058 7.3891 11.2748 7.4941 11.0138ZM5.4691 11.7518C5.1221 11.2848 4.9491 10.6098 4.9491 9.72484C4.9491 8.84684 5.1221 8.17384 5.4691 7.70584C5.8141 7.23984 6.3171 7.00584 6.9741 7.00584C7.6281 7.00584 8.1291 7.23984 8.4771 7.70584C8.8271 8.17384 9.0011 8.84684 9.0011 9.72484C9.0011 10.6098 8.8281 11.2848 8.4811 11.7518C8.1361 12.2188 7.6331 12.4518 6.9741 12.4518C6.3171 12.4518 5.8141 12.2188 5.4691 11.7518ZM13.7468 11.8271C13.7468 11.6471 13.6938 11.5111 13.5898 11.4201C13.4848 11.3301 13.3188 11.2841 13.0918 11.2841H12.4748V7.71414C12.4748 7.50914 12.4118 7.34514 12.2898 7.22514C12.1668 7.10414 12.0048 7.04414 11.8048 7.04414C11.6088 7.04414 11.3998 7.10714 11.1788 7.23214L9.9738 7.93314C9.7968 8.03814 9.7098 8.19314 9.7098 8.39914C9.7098 8.55014 9.7608 8.68814 9.8608 8.81014C9.9618 8.93314 10.0818 8.99414 10.2228 8.99414C10.3128 8.99414 10.4008 8.97014 10.4858 8.92014L11.0878 8.56614V11.2841H10.4788C10.2518 11.2841 10.0868 11.3301 9.9818 11.4201C9.8758 11.5111 9.8228 11.6471 9.8228 11.8271C9.8228 12.1981 10.0408 12.3851 10.4788 12.3851H13.0918C13.5288 12.3851 13.7468 12.1981 13.7468 11.8271Z" fill="#5A5A5A"/>
</g>
</svg>
