<?xml version="1.0" encoding="UTF-8"?>
<svg width="24px" height="24px" viewBox="0 0 24 24" version="1.1" xmlns="http://www.w3.org/2000/svg" xmlns:xlink="http://www.w3.org/1999/xlink">
    <title>2. Library Essentials/component_scheduler</title>
    <g id="2.-Library-Essentials/component_scheduler" stroke="none" stroke-width="1" fill="none" fill-rule="evenodd">
        <path d="M9.99999178,19.8947422 C10.2325329,19.8947422 10.4210447,20.0832541 10.4210447,20.3157952 C10.4210447,21.2459596 9.66699745,22.0000068 8.73683302,22.0000068 C7.8066686,22.0000068 7.05262134,21.2459596 7.05262134,20.3157952 C7.05262134,20.0832541 7.24113316,19.8947422 7.47367426,19.8947422 L7.47367426,19.8947422 Z M8.73683302,4.31578421 C9.43445634,4.31578421 10,4.88131965 10,5.57894297 L10,5.57894297 L10,6.61473315 C10.4467949,6.73610987 10.8746964,6.91860563 11.2715716,7.15704932 C11.3788807,9.1282321 12.4648211,10.9151667 14.1650473,11.9183157 C14.1955391,12.1900897 14.210721,12.4633635 14.210521,12.7368426 L14.210521,12.7368426 L14.210521,13.280843 C14.2128856,15.0725246 14.6299466,16.8393417 15.4290481,18.4429518 C15.494452,18.5734725 15.487578,18.7285583 15.4108827,18.8527806 C15.3341875,18.9770029 15.1986177,19.0526364 15.0526268,19.0526364 L15.0526268,19.0526364 L2.42103923,19.0526364 C2.27504834,19.0526364 2.13947859,18.9770029 2.06278334,18.8527806 C1.98608809,18.7285583 1.979214,18.5734725 2.04461792,18.4429518 C2.84412404,16.839488 3.26120784,15.0725746 3.26314507,13.280843 L3.26314507,13.280843 L3.26314507,12.7368426 C3.26314507,9.79536691 5.01388311,7.28083887 7.47367426,6.61473315 L7.47367426,6.61473315 L7.47367426,5.57894297 C7.47367426,4.88131965 8.0392097,4.31578421 8.73683302,4.31578421 Z M17.1578914,1.99999315 C19.8307676,2.00324116 21.996752,4.16922553 22,6.84210173 C22,9.51632446 19.8321141,11.6842103 17.1578914,11.6842103 C14.4836687,11.6842103 12.3157828,9.51632446 12.3157828,6.84210173 C12.3157828,4.16787901 14.4836687,1.99999315 17.1578914,1.99999315 Z M17.1578914,3.68420483 C15.4138331,3.68420483 13.9999945,5.09804343 13.9999945,6.84210173 C13.9999945,8.58616003 15.4138331,9.99999863 17.1578914,9.99999863 C18.9011801,9.99814209 20.3139318,8.58539045 20.3157883,6.84210173 C20.3157883,5.09804343 18.9019497,3.68420483 17.1578914,3.68420483 Z M17.1578914,4.52631067 C17.5067031,4.52631067 17.7894708,4.80907839 17.7894708,5.15789005 L17.7894708,5.15789005 L17.7894708,6.21052235 L18.4210502,6.21052235 C18.7698618,6.21052235 19.0526296,6.49329007 19.0526296,6.84210173 C19.0526296,7.19091339 18.7698618,7.47368111 18.4210502,7.47368111 L18.4210502,7.47368111 L17.1578914,7.47368111 C16.8090798,7.47368111 16.526312,7.19091339 16.526312,6.84210173 L16.526312,6.84210173 L16.526312,5.15789005 C16.526312,4.80907839 16.8090798,4.52631067 17.1578914,4.52631067 Z" id="ðŸ–-Color" fill="#5A5A5A"></path>
        <rect id="_Transparent_Rectangle_" x="0" y="0" width="24" height="24"></rect>
    </g>
</svg>