<?xml version="1.0" encoding="UTF-8"?>
<svg width="24px" height="24px" viewBox="0 0 24 24" version="1.1" xmlns="http://www.w3.org/2000/svg" xmlns:xlink="http://www.w3.org/1999/xlink">
    <title>2. Library Essentials/component_date_time_edit</title>
    <g id="2.-Library-Essentials/component_date_time_edit" stroke="none" stroke-width="1" fill="none" fill-rule="evenodd">
        <path d="M16.7929381,10.4483091 C17.4461281,10.4483091 18.0220198,10.8595317 18.2098862,11.4600985 L18.2098862,11.4600985 L18.5624563,12.5739198 C18.6204103,12.7560749 18.8148158,12.8645641 19.0083782,12.8227692 L19.0083782,12.8227692 L20.1836116,12.5611172 C20.8197595,12.4214799 21.4763346,12.6968059 21.8019109,13.2397294 C22.1274873,13.7826528 22.0457952,14.4659883 21.6005597,14.9239865 L21.6005597,14.9239865 L20.7778963,15.7737553 C20.6429031,15.9155754 20.6429031,16.1328348 20.7778963,16.2746548 L20.7778963,16.2746548 L21.6013932,17.1268241 C22.0453256,17.5851545 22.1262699,18.2677277 21.8010103,18.8101229 C21.4757508,19.352518 20.8202378,19.6280821 20.1844451,19.4896934 L20.1844451,19.4896934 L19.0083782,19.2280414 C18.8148936,19.1854723 18.6201952,19.2943284 18.5632898,19.4768908 L18.5632898,19.4768908 L18.2107197,20.590712 C18.0228533,21.1912789 17.4469616,21.6025014 16.7937716,21.6025014 C16.1405816,21.6025014 15.56469,21.1912789 15.3768235,20.590712 L15.3768235,20.590712 L15.0242535,19.4768908 C14.967002,19.2945903 14.7725831,19.1858905 14.5791651,19.2280414 L14.5791651,19.2280414 L13.4030982,19.4896934 C12.7673054,19.6280821 12.1117925,19.352518 11.7865329,18.8101229 C11.4612734,18.2677277 11.5422176,17.5851545 11.9861501,17.1268241 L11.9861501,17.1268241 L12.809647,16.2746548 C12.9446401,16.1328348 12.9446401,15.9155754 12.809647,15.7737553 L12.809647,15.7737553 L11.9861501,14.9223862 C11.5409146,14.464388 11.4592225,13.7810525 11.7847988,13.2381291 C12.1103752,12.6952056 12.7669503,12.4198796 13.4030982,12.5595169 L13.4030982,12.5595169 L14.5783316,12.8227692 C14.7715918,12.8623998 14.9644898,12.7542035 15.02342,12.5731196 L15.02342,12.5731196 L15.37599,11.4600985 C15.5638565,10.8595317 16.1397481,10.4483091 16.7929381,10.4483091 Z M16.7937716,13.6253286 C15.4127855,13.6253286 14.293275,14.7000587 14.293275,16.0258054 C14.293275,17.3515521 15.4127855,18.4262821 16.7937716,18.4262821 C18.1747578,18.4262821 19.2942683,17.3515521 19.2942683,16.0258054 C19.2942683,14.7000587 18.1747578,13.6253286 16.7937716,13.6253286 Z M16.7937716,14.825567 C17.4842647,14.825567 18.04402,15.362932 18.04402,16.0258054 C18.04402,16.6886787 17.4842647,17.2260438 16.7937716,17.2260438 C16.1032786,17.2260438 15.5435233,16.6886787 15.5435233,16.0258054 C15.5435233,15.362932 16.1032786,14.825567 16.7937716,14.825567 Z M13.6689843,2.39749856 C14.0142309,2.39749856 14.2941085,2.66618107 14.2941085,2.99761775 L14.2941085,2.99761775 L14.2941085,3.79777667 C14.2941085,3.90825557 14.387401,3.99781641 14.5024832,3.99781641 L14.5024832,3.99781641 L16.5862304,3.99781641 C17.0465591,3.99781641 17.4197293,4.35605976 17.4197293,4.79797533 L17.4197293,4.79797533 L17.4197293,9.32607469 C16.8646436,9.19017003 16.2782506,9.235205 15.7527315,9.45410012 L15.7527315,9.45410012 L15.7527315,8.3986905 C15.7527315,8.17773271 15.5661465,7.99861103 15.3359821,7.99861103 L15.3359821,7.99861103 L4.0837472,7.99861103 C3.85358284,7.99861103 3.66699776,8.17773271 3.66699776,8.3986905 L3.66699776,8.3986905 L3.66699776,15.2000414 C3.66699776,15.4209991 3.85358284,15.6001208 4.0837472,15.6001208 L4.0837472,15.6001208 L9.97575079,15.6001208 C9.89795912,16.1309464 9.89795912,16.6696131 9.97575079,17.2004387 L9.97575079,17.2004387 L3.66699776,17.2004387 C2.74634032,17.2004387 2,16.483952 2,15.6001208 L2,15.6001208 L2,4.79797533 C2,4.35605976 2.37317016,3.99781641 2.83349888,3.99781641 L2.83349888,3.99781641 L4.70887136,3.99781641 C4.93903572,3.99781641 5.1256208,4.17693808 5.1256208,4.39789587 L5.1256208,4.39789587 L5.1256208,5.99821372 C5.1256208,6.3296504 5.40549842,6.59833291 5.75074496,6.59833291 C6.0959915,6.59833291 6.37586912,6.3296504 6.37586912,5.99821372 L6.37586912,5.99821372 L6.37586912,2.99761775 C6.37586912,2.66618107 6.65574674,2.39749856 7.00099328,2.39749856 C7.34623982,2.39749856 7.62611744,2.66618107 7.62611744,2.99761775 L7.62611744,2.99761775 L7.62611744,3.79777667 C7.62611744,3.90825557 7.71940998,3.99781641 7.83449216,3.99781641 L7.83449216,3.99781641 L11.3768624,3.99781641 C11.6070268,3.99781641 11.7936118,4.17693808 11.7936118,4.39789587 L11.7936118,4.39789587 L11.7936118,5.99821372 C11.7936118,6.3296504 12.0734895,6.59833291 12.418736,6.59833291 C12.7639825,6.59833291 13.0438602,6.3296504 13.0438602,5.99821372 L13.0438602,5.99821372 L13.0438602,2.99761775 C13.0438602,2.66618107 13.3237378,2.39749856 13.6689843,2.39749856 Z" id="ðŸ–-Color" fill="#5A5A5A"></path>
        <rect id="_Transparent_Rectangle_" x="0" y="0" width="24" height="24"></rect>
    </g>
</svg>