<?xml version="1.0" encoding="UTF-8"?>
<svg width="24px" height="24px" viewBox="0 0 24 24" version="1.1" xmlns="http://www.w3.org/2000/svg" xmlns:xlink="http://www.w3.org/1999/xlink">
    <title>2. Library Essentials/component_password_edit</title>
    <g id="2.-Library-Essentials/component_password_edit" stroke="none" stroke-width="1" fill="none" fill-rule="evenodd">
        <path d="M14.685,12.6902548 L20.894,15.7932548 C21.05,15.8712548 21.141,16.0382548 21.122,16.2102548 C21.103,16.3832548 20.979,16.5272548 20.81,16.5702548 L18.81,17.0702548 C18.661,17.1072548 18.545,17.2242548 18.508,17.3732548 L18.008,19.3732548 C17.965,19.5422548 17.821,19.6662548 17.648,19.6852548 C17.475,19.7042548 17.309,19.6132548 17.23,19.4562548 L14.128,13.2492548 C14.048,13.0882548 14.079,12.8952548 14.205,12.7692548 C14.332,12.6422548 14.525,12.6102548 14.685,12.6902548 Z M19.5,4.31225477 C20.881,4.31225477 22,5.43225477 22,6.81225477 L22,12.6462548 C22,13.1062548 21.627,13.4792548 21.167,13.4792548 C20.706,13.4792548 20.333,13.1062548 20.333,12.6462548 L20.333,6.81225477 C20.333,6.35225477 19.96,5.97925477 19.5,5.97925477 L4.5,5.97925477 C4.04,5.97925477 3.667,6.35225477 3.667,6.81225477 L3.667,12.6462548 C3.667,13.1062548 4.04,13.4792548 4.5,13.4792548 L11.583,13.4792548 C12.044,13.4792548 12.417,13.8522548 12.417,14.3122548 C12.417,14.7732548 12.044,15.1462548 11.583,15.1462548 L4.5,15.1462548 C3.119,15.1462548 2,14.0272548 2,12.6462548 L2,6.81225477 C2,5.43225477 3.119,4.31225477 4.5,4.31225477 L19.5,4.31225477 Z M7.8306,7.77835477 C7.9956,7.77835477 8.1456,7.83635477 8.2856,7.95235477 C8.4236,8.06835477 8.4946,8.20235477 8.4946,8.35935477 C8.4946,8.44735477 8.4626,8.53935477 8.4026,8.63335477 L8.0156,9.19435477 L8.7076,9.14335477 C8.8776,9.13735477 9.0086,9.19135477 9.0996,9.30635477 C9.1916,9.42235477 9.2376,9.56135477 9.2376,9.72435477 C9.2376,9.89435477 9.1916,10.0363548 9.0996,10.1523548 C9.0086,10.2673548 8.8776,10.3183548 8.7076,10.3053548 L8.0046,10.2533548 L8.4026,10.8343548 C8.4626,10.9223548 8.4946,11.0113548 8.4946,11.0993548 C8.4946,11.2553548 8.4226,11.3913548 8.2806,11.5063548 C8.1376,11.6213548 7.9846,11.6803548 7.8216,11.6803548 C7.7336,11.6803548 7.6516,11.6583548 7.5776,11.6143548 C7.5016,11.5693548 7.4446,11.5033548 7.4036,11.4143548 L7.0986,10.7833548 L6.7836,11.4143548 C6.6946,11.5913548 6.5546,11.6803548 6.3656,11.6803548 C6.2026,11.6803548 6.0506,11.6203548 5.9116,11.5003548 C5.7726,11.3823548 5.7036,11.2443548 5.7036,11.0893548 C5.7036,10.9933548 5.7306,10.9093548 5.7856,10.8343548 L6.1816,10.2533548 L5.4786,10.3053548 C5.3086,10.3113548 5.1776,10.2583548 5.0866,10.1463548 C4.9956,10.0353548 4.9496,9.89735477 4.9496,9.73535477 C4.9496,9.57135477 4.9956,9.43035477 5.0916,9.31235477 C5.1876,9.19235477 5.3156,9.13735477 5.4786,9.14335477 L6.1706,9.19435477 L5.7856,8.63335477 C5.7236,8.53935477 5.6926,8.44735477 5.6926,8.35935477 C5.6926,8.21035477 5.7626,8.07735477 5.9016,7.96135477 C6.0406,7.84635477 6.1916,7.78835477 6.3556,7.78835477 C6.5516,7.78835477 6.6946,7.87635477 6.7836,8.05335477 L7.0986,8.68535477 L7.4036,8.05335477 C7.4926,7.87035477 7.6346,7.77835477 7.8306,7.77835477 Z M12.7378,7.77835477 C12.9018,7.77835477 13.0528,7.83635477 13.1918,7.95235477 C13.3308,8.06835477 13.4008,8.20235477 13.4008,8.35935477 C13.4008,8.44735477 13.3698,8.53935477 13.3098,8.63335477 L12.9218,9.19435477 L13.6138,9.14335477 C13.7838,9.13735477 13.9148,9.19135477 14.0068,9.30635477 C14.0988,9.42235477 14.1448,9.56135477 14.1448,9.72435477 C14.1448,9.89435477 14.0988,10.0363548 14.0068,10.1523548 C13.9148,10.2673548 13.7838,10.3183548 13.6138,10.3053548 L12.9108,10.2533548 L13.3098,10.8343548 C13.3698,10.9223548 13.4008,11.0113548 13.4008,11.0993548 C13.4008,11.2553548 13.3288,11.3913548 13.1868,11.5063548 C13.0438,11.6213548 12.8918,11.6803548 12.7288,11.6803548 C12.6408,11.6803548 12.5588,11.6583548 12.4838,11.6143548 C12.4088,11.5693548 12.3518,11.5033548 12.3108,11.4143548 L12.0058,10.7833548 L11.6898,11.4143548 C11.6008,11.5913548 11.4618,11.6803548 11.2718,11.6803548 C11.1088,11.6803548 10.9578,11.6203548 10.8188,11.5003548 C10.6788,11.3823548 10.6098,11.2443548 10.6098,11.0893548 C10.6098,10.9933548 10.6368,10.9093548 10.6918,10.8343548 L11.0888,10.2533548 L10.3858,10.3053548 C10.2158,10.3113548 10.0848,10.2583548 9.9928,10.1463548 C9.9018,10.0353548 9.8568,9.89735477 9.8568,9.73535477 C9.8568,9.57135477 9.9028,9.43035477 9.9988,9.31235477 C10.0938,9.19235477 10.2228,9.13735477 10.3858,9.14335477 L11.0778,9.19435477 L10.6918,8.63335477 C10.6298,8.53935477 10.5998,8.44735477 10.5998,8.35935477 C10.5998,8.21035477 10.6688,8.07735477 10.8088,7.96135477 C10.9468,7.84635477 11.0988,7.78835477 11.2618,7.78835477 C11.4578,7.78835477 11.6008,7.87635477 11.6898,8.05335477 L12.0058,8.68535477 L12.3108,8.05335477 C12.3998,7.87035477 12.5418,7.77835477 12.7378,7.77835477 Z M17.5884,7.77835477 C17.7534,7.77835477 17.9034,7.83635477 18.0434,7.95235477 C18.1814,8.06835477 18.2524,8.20235477 18.2524,8.35935477 C18.2524,8.44735477 18.2204,8.53935477 18.1604,8.63335477 L17.7734,9.19435477 L18.4654,9.14335477 C18.6354,9.13735477 18.7664,9.19135477 18.8574,9.30635477 C18.9494,9.42235477 18.9954,9.56135477 18.9954,9.72435477 C18.9954,9.89435477 18.9494,10.0363548 18.8574,10.1523548 C18.7664,10.2673548 18.6354,10.3183548 18.4654,10.3053548 L17.7624,10.2533548 L18.1604,10.8343548 C18.2204,10.9223548 18.2524,11.0113548 18.2524,11.0993548 C18.2524,11.2553548 18.1804,11.3913548 18.0384,11.5063548 C17.8954,11.6213548 17.7424,11.6803548 17.5794,11.6803548 C17.4914,11.6803548 17.4094,11.6583548 17.3354,11.6143548 C17.2594,11.5693548 17.2024,11.5033548 17.1614,11.4143548 L16.8564,10.7833548 L16.5414,11.4143548 C16.4524,11.5913548 16.3124,11.6803548 16.1234,11.6803548 C15.9604,11.6803548 15.8084,11.6203548 15.6694,11.5003548 C15.5304,11.3823548 15.4614,11.2443548 15.4614,11.0893548 C15.4614,10.9933548 15.4884,10.9093548 15.5434,10.8343548 L15.9394,10.2533548 L15.2364,10.3053548 C15.0664,10.3113548 14.9354,10.2583548 14.8444,10.1463548 C14.7534,10.0353548 14.7074,9.89735477 14.7074,9.73535477 C14.7074,9.57135477 14.7534,9.43035477 14.8494,9.31235477 C14.9454,9.19235477 15.0734,9.13735477 15.2364,9.14335477 L15.9284,9.19435477 L15.5434,8.63335477 C15.4814,8.53935477 15.4504,8.44735477 15.4504,8.35935477 C15.4504,8.21035477 15.5204,8.07735477 15.6594,7.96135477 C15.7984,7.84635477 15.9494,7.78835477 16.1134,7.78835477 C16.3094,7.78835477 16.4524,7.87635477 16.5414,8.05335477 L16.8564,8.68535477 L17.1614,8.05335477 C17.2504,7.87035477 17.3924,7.77835477 17.5884,7.77835477 Z" id="ðŸ–-Color" fill="#5A5A5A"></path>
        <rect id="_Transparent_Rectangle_" x="0" y="0" width="24" height="24"></rect>
    </g>
</svg>