<?xml version="1.0" encoding="UTF-8"?>
<svg width="24px" height="24px" viewBox="0 0 24 24" version="1.1" xmlns="http://www.w3.org/2000/svg" xmlns:xlink="http://www.w3.org/1999/xlink">
    <title>2. Library Essentials/component_tree</title>
    <g id="2.-Library-Essentials/component_tree" stroke="none" stroke-width="1" fill="none" fill-rule="evenodd">
        <path d="M4.70833335,22 L13.875,22 C14.4965746,22 15.023822,21.5435497 15.1125,20.9283333 C15.1270453,20.8258802 15.2148531,20.7498038 15.3183333,20.75 L18.875,20.75 C19.7954746,20.75 20.5416667,20.0038079 20.5416667,19.0833333 L20.5416667,2.83333333 C20.5416667,2.37309604 20.1685706,2 19.7083333,2 C19.248096,2 18.875,2.37309604 18.875,2.83333333 L18.875,7 C18.875,7.23011864 18.688452,7.41666666 18.4583333,7.41666666 L15.3183333,7.41666666 C15.2148531,7.41686283 15.1270453,7.34078641 15.1125,7.23833332 C15.023822,6.62311692 14.4965746,6.16652419 13.875,6.16666666 L4.70833335,6.16666666 C4.01797741,6.16666666 3.45833335,6.72631072 3.45833335,7.41666666 L3.45833335,9.08333332 C3.45833335,9.77368926 4.01797741,10.3333333 4.70833335,10.3333333 L13.875,10.3333333 C14.4965746,10.3334758 15.023822,9.87688306 15.1125,9.26166665 C15.1270453,9.15921357 15.2148531,9.08313715 15.3183333,9.08333332 L18.4583333,9.08333332 C18.688452,9.08333332 18.875,9.26988134 18.875,9.5 L18.875,12.8333333 C18.875,13.063452 18.688452,13.25 18.4583333,13.25 L15.3183333,13.25 C15.2148531,13.2501962 15.1270453,13.1741197 15.1125,13.0716666 C15.023822,12.4564502 14.4965746,11.9998575 13.875,12 L4.70833335,12 C4.01797741,12 3.45833335,12.559644 3.45833335,13.25 L3.45833335,14.9166666 C3.45833335,15.2481873 3.5900294,15.5661296 3.82444987,15.8005501 C4.05887034,16.0349706 4.37681273,16.1666666 4.70833335,16.1666666 L13.875,16.1666666 C14.4965746,16.1668091 15.023822,15.7102164 15.1125,15.095 C15.1270453,14.9925469 15.2148531,14.9164705 15.3183333,14.9166666 L18.4583333,14.9166666 C18.688452,14.9166666 18.875,15.1032147 18.875,15.3333333 L18.875,18.6666666 C18.875,18.8967853 18.688452,19.0833333 18.4583333,19.0833333 L15.3183333,19.0833333 C15.2148531,19.0835295 15.1270453,19.0074531 15.1125,18.905 C15.023822,18.2897836 14.4965746,17.8331908 13.875,17.8333333 L4.70833335,17.8333333 C4.01797741,17.8333333 3.45833335,18.3929774 3.45833335,19.0833333 L3.45833335,20.75 C3.45833335,21.4403559 4.01797741,22 4.70833335,22 Z" id="ðŸ–-Color" fill="#5A5A5A" transform="translate(12.000000, 12.000000) scale(-1, 1) translate(-12.000000, -12.000000) "></path>
        <rect id="_Transparent_Rectangle_" x="0" y="0" width="24" height="24"></rect>
    </g>
</svg>