<?xml version="1.0" encoding="UTF-8"?>
<svg width="24px" height="24px" viewBox="0 0 24 24" version="1.1" xmlns="http://www.w3.org/2000/svg" xmlns:xlink="http://www.w3.org/1999/xlink">
    <title>2. Library Essentials/component_listbox</title>
    <g id="2.-Library-Essentials/component_listbox" stroke="none" stroke-width="1" fill="none" fill-rule="evenodd">
        <path d="M17.5054,7.1845 L6.4844,7.1845 C5.9044,7.1845 5.4254,6.7745 5.4254,6.2745 C5.4254,5.7745 5.9044,5.3645 6.4844,5.3645 L17.5054,5.3645 C18.0954,5.3645 18.5744,5.7745 18.5744,6.2745 C18.5744,6.7745 18.0954,7.1845 17.5054,7.1845 M17.5054,11.0005 L6.4844,11.0005 C5.9044,11.0005 5.4254,10.5915 5.4254,10.0915 C5.4254,9.5915 5.9044,9.1815 6.4844,9.1815 L17.5054,9.1815 C18.0954,9.1815 18.5744,9.5915 18.5744,10.0915 C18.5744,10.5915 18.0954,11.0005 17.5054,11.0005 M17.5054,14.8185 L6.4844,14.8185 C5.9044,14.8185 5.4254,14.4085 5.4254,13.9085 C5.4254,13.4085 5.9044,12.9985 6.4844,12.9985 L17.5054,12.9985 C18.0954,12.9985 18.5744,13.4085 18.5744,13.9085 C18.5744,14.4085 18.0954,14.8185 17.5054,14.8185 M17.5054,18.6355 L6.4844,18.6355 C5.9044,18.6355 5.4254,18.2255 5.4254,17.7255 C5.4254,17.2255 5.9044,16.8155 6.4844,16.8155 L17.5054,16.8155 C18.0954,16.8155 18.5744,17.2255 18.5744,17.7255 C18.5744,18.2255 18.0954,18.6355 17.5054,18.6355 M19.4994,1.9995 L4.4994,1.9995 C3.1194,1.9995 1.9994,3.3105 1.9994,4.9265 L1.9994,19.0735 C1.9994,20.6895 3.1194,21.9995 4.4994,21.9995 L19.4994,21.9995 C20.8804,21.9995 21.9994,20.6895 21.9994,19.0735 L21.9994,4.9265 C21.9994,3.3105 20.8804,1.9995 19.4994,1.9995" id="ðŸ–-Color" fill="#5A5A5A"></path>
        <rect id="_Transparent_Rectangle_" x="0" y="0" width="24" height="24"></rect>
    </g>
</svg>