<svg width="24" height="24" viewBox="0 0 24 24" fill="none" xmlns="http://www.w3.org/2000/svg">
<g id="component_checkbox">
<path id="Shape" fill-rule="evenodd" clip-rule="evenodd" d="M21.9994 13.7665V3.9585C21.9994 2.8755 21.1164 2.0005 20.0334 2.0005H10.2254C9.14242 2.0005 8.26742 2.8755 8.26742 3.9585V7.4335H13.7674C15.3084 7.4335 16.5584 8.6915 16.5584 10.2335V15.7335H20.0334C21.1164 15.7335 21.9994 14.8495 21.9994 13.7665ZM9.10802 18.1082L12.35 13.7832C12.8 13.1912 12.675 12.3422 12.083 11.9002C11.483 11.4502 10.633 11.5662 10.192 12.1662L7.88302 15.2502L7.35802 14.7242C6.82502 14.2412 6.00802 14.2662 5.49902 14.7752C4.99202 15.2832 4.96602 16.0992 5.45002 16.6332L7.07502 18.2502C7.35002 18.5252 7.73302 18.6672 8.12402 18.6412C8.50802 18.6082 8.87402 18.4172 9.10802 18.1082ZM3.95802 8.2662H13.767C14.85 8.2662 15.725 9.1502 15.725 10.2332V20.0422C15.725 21.1252 14.85 22.0002 13.767 22.0002H3.95802C2.87402 22.0002 1.99902 21.1252 1.99902 20.0422V10.2332C1.99902 9.1502 2.87402 8.2662 3.95802 8.2662Z" fill="#5A5A5A"/>
</g>
</svg>
