<?xml version="1.0" encoding="UTF-8"?>
<svg width="24px" height="24px" viewBox="0 0 24 24" version="1.1" xmlns="http://www.w3.org/2000/svg" xmlns:xlink="http://www.w3.org/1999/xlink">
    <title>2. Library Essentials/component_simple_image</title>
    <g id="2.-Library-Essentials/component_simple_image" stroke="none" stroke-width="1" fill="none" fill-rule="evenodd">
        <path d="M14.9883333,2 C15.209329,2 15.4212561,2.08787552 15.5775,2.24416667 L15.5775,2.24416667 L20.0891667,6.75583333 C20.2454578,6.91207728 20.3333333,7.12400432 20.3333333,7.345 L20.3333333,7.345 L20.3333333,20.3333333 C20.3333333,21.2538079 19.5871412,22 18.6666667,22 L18.6666667,22 L5.33333333,22 C4.41285875,22 3.66666667,21.2538079 3.66666667,20.3333333 L3.66666667,20.3333333 L3.66666667,3.66666667 C3.66666667,2.74619208 4.41285875,2 5.33333333,2 L5.33333333,2 Z M14.4708333,3.66666667 L5.75,3.66666667 C5.51988135,3.66666667 5.33333333,3.85321469 5.33333333,4.08333333 L5.33333333,4.08333333 L5.33333333,19.9166667 C5.33333333,20.1467853 5.51988135,20.3333333 5.75,20.3333333 L5.75,20.3333333 L18.25,20.3333333 C18.4801186,20.3333333 18.6666667,20.1467853 18.6666667,19.9166667 L18.6666667,19.9166667 L18.6666667,7.8625 C18.6666667,7.75220629 18.6228908,7.64642128 18.545,7.56833333 L18.545,7.56833333 L14.765,3.78833333 C14.6869121,3.71044254 14.581127,3.66666667 14.4708333,3.66666667 L14.4708333,3.66666667 Z M14.0833333,12.4166667 C15.6941639,12.4166667 17,13.7225028 17,15.3333333 C17,16.9441639 15.6941639,18.25 14.0833333,18.25 C12.4725028,18.25 11.1666667,16.9441639 11.1666667,15.3333333 C11.1666667,13.7225028 12.4725028,12.4166667 14.0833333,12.4166667 Z M9.97296393,8.84533785 C10.0437497,8.83978932 10.1125456,8.87038542 10.1558333,8.92666667 L10.1558333,8.92666667 L12.3,11.7875 C12.3353846,11.8351599 12.3482753,11.8958599 12.3353137,11.9537868 C12.3223521,12.0117138 12.2848219,12.0611317 12.2325,12.0891667 C11.2511835,12.6504206 10.5770339,13.626099 10.3991667,14.7425 C10.3851174,14.8423565 10.3000044,14.9168304 10.1991667,14.9175 L10.1991667,14.9175 L6.9425,14.9175 C6.86907147,14.9175 6.80104381,14.8789235 6.76344123,14.8158537 C6.72583865,14.7527839 6.72421467,14.6745764 6.75916667,14.61 L6.75916667,14.61 L9.805,8.95416667 C9.83898975,8.89182804 9.90217819,8.85088637 9.97296393,8.84533785 Z" id="ðŸ–-Color" fill="#5A5A5A"></path>
        <rect id="_Transparent_Rectangle_" x="0" y="0" width="24" height="24"></rect>
    </g>
</svg>