<?xml version="1.0" encoding="UTF-8"?>
<svg width="24px" height="24px" viewBox="0 0 24 24" version="1.1" xmlns="http://www.w3.org/2000/svg" xmlns:xlink="http://www.w3.org/1999/xlink">
    <title>2. Library Essentials/component_hidden_edit</title>
    <g id="2.-Library-Essentials/component_hidden_edit" stroke="none" stroke-width="1" fill="none" fill-rule="evenodd">
        <path d="M16.770482,10.5497 C17.424482,10.5497 18.000482,10.9617 18.187482,11.5617 L18.187482,11.5617 L18.540482,12.6757 C18.599482,12.8587 18.793482,12.9667 18.986482,12.9247 L18.986482,12.9247 L20.161482,12.6637 C20.798482,12.5227 21.454482,12.7987 21.780482,13.3407 C22.105482,13.8837 22.023482,14.5677 21.578482,15.0257 L21.578482,15.0257 L20.756482,15.8757 C20.621482,16.0167 20.621482,16.2347 20.756482,16.3767 L20.756482,16.3767 L21.579482,17.2287 C22.023482,17.6877 22.104482,18.3697 21.779482,18.9127 C21.454482,19.4547 20.798482,19.7307 20.162482,19.5917 L20.162482,19.5917 L18.986482,19.3307 C18.793482,19.2887 18.599482,19.3957 18.541482,19.5797 L18.541482,19.5797 L18.188482,20.6937 C18.001482,21.2937 17.425482,21.7047 16.771482,21.7047 C16.118482,21.7047 15.543482,21.2937 15.354482,20.6937 L15.354482,20.6937 L15.002482,19.5797 C14.945482,19.3957 14.751482,19.2887 14.557482,19.3307 L14.557482,19.3307 L13.381482,19.5917 C12.745482,19.7307 12.090482,19.4547 11.765482,18.9127 C11.439482,18.3697 11.520482,17.6877 11.964482,17.2287 L11.964482,17.2287 L12.788482,16.3767 C12.923482,16.2347 12.923482,16.0167 12.788482,15.8757 L12.788482,15.8757 L11.964482,15.0247 C11.518482,14.5667 11.437482,13.8837 11.763482,13.3397 C12.088482,12.7967 12.745482,12.5217 13.381482,12.6617 L13.381482,12.6617 L14.557482,12.9247 C14.750482,12.9637 14.942482,12.8567 15.001482,12.6747 L15.001482,12.6747 L15.353482,11.5617 C15.542482,10.9617 16.118482,10.5497 16.770482,10.5497 Z M16.771482,13.7277 C15.391482,13.7277 14.271482,14.8017 14.271482,16.1287 C14.271482,17.4537 15.391482,18.5287 16.771482,18.5287 C18.152482,18.5287 19.272482,17.4537 19.272482,16.1287 C19.272482,14.8017 18.152482,13.7277 16.771482,13.7277 Z M16.771882,14.9284 C17.461882,14.9284 18.021882,15.4654 18.021882,16.1284 C18.021882,16.7904 17.461882,17.3284 16.771882,17.3284 C16.081882,17.3284 15.521882,16.7904 15.521882,16.1284 C15.521882,15.4654 16.081882,14.9284 16.771882,14.9284 Z M9.40198205,15.8353 L9.40198205,17.2743 L5.23198205,17.2743 L5.23198205,15.8353 L9.40198205,15.8353 Z M3.47198205,13.0643 L3.47198205,14.5553 C3.47198205,15.1543 3.87198205,15.6653 4.45198205,15.7953 L4.45198205,15.7953 L4.12198205,17.2053 C2.88198205,16.9153 2.02198205,15.8253 2.02198205,14.5553 L2.02198205,14.5553 L2.02198205,13.0643 L3.47198205,13.0643 Z M3.47198205,7.9443 L3.47198205,12.1143 L2.02198205,12.1143 L2.02198205,7.9443 L3.47198205,7.9443 Z M17.251982,7.4353 L17.251982,8.5953 C17.091982,8.5643 16.931982,8.5553 16.771982,8.5553 C16.431982,8.5553 16.111982,8.6043 15.801982,8.6943 L15.801982,8.6943 L15.801982,7.4353 L17.251982,7.4353 Z M3.49198205,2.5953 L4.16198205,3.8753 C3.73198205,4.1043 3.47198205,4.5353 3.47198205,5.0153 L3.47198205,5.0153 L3.47198205,7.0053 L2.02198205,7.0053 L2.02198205,5.0153 C2.02198205,3.9953 2.58198205,3.0643 3.49198205,2.5953 L3.49198205,2.5953 Z M15.131982,2.3543 C16.381982,2.6453 17.251982,3.7343 17.251982,5.0153 L17.251982,5.0153 L17.251982,6.4953 L15.801982,6.4953 L15.801982,5.0153 C15.801982,4.4253 15.391982,3.8953 14.811982,3.7653 L14.811982,3.7653 Z M8.91198205,2.2953 L8.91198205,3.7343 L4.73198205,3.7343 L4.73198205,3.0153 L4.57198205,2.3143 L4.75198205,2.2953 L8.91198205,2.2953 Z M14.031982,2.2953 L14.031982,3.7343 L9.85198205,3.7343 L9.85198205,2.2953 L14.031982,2.2953 Z" id="ðŸ–-Color" fill="#5A5A5A"></path>
        <rect id="_Transparent_Rectangle_" x="0" y="0" width="24" height="24"></rect>
    </g>
</svg>