<?xml version="1.0" encoding="UTF-8"?>
<svg width="24px" height="24px" viewBox="0 0 24 24" version="1.1" xmlns="http://www.w3.org/2000/svg" xmlns:xlink="http://www.w3.org/1999/xlink">
    <title>2. Library Essentials/component_percent_edit</title>
    <g id="2.-Library-Essentials/component_percent_edit" stroke="none" stroke-width="1" fill="none" fill-rule="evenodd">
        <path d="M14.686,12.6902548 L20.894,15.7932548 C21.051,15.8712548 21.142,16.0382548 21.123,16.2102548 C21.104,16.3832548 20.98,16.5272548 20.811,16.5702548 L18.811,17.0702548 C18.662,17.1072548 18.545,17.2242548 18.508,17.3732548 L18.008,19.3732548 C17.965,19.5422548 17.821,19.6662548 17.648,19.6852548 C17.476,19.7042548 17.309,19.6132548 17.231,19.4562548 L14.128,13.2492548 C14.048,13.0882548 14.079,12.8952548 14.206,12.7692548 C14.332,12.6422548 14.525,12.6102548 14.686,12.6902548 Z M19.5,4.31225477 C20.881,4.31225477 22,5.43225477 22,6.81225477 L22,12.6462548 C22,13.1062548 21.627,13.4792548 21.167,13.4792548 C20.707,13.4792548 20.334,13.1062548 20.334,12.6462548 L20.334,6.81225477 C20.334,6.35225477 19.961,5.97925477 19.5,5.97925477 L4.5,5.97925477 C4.04,5.97925477 3.667,6.35225477 3.667,6.81225477 L3.667,12.6462548 C3.667,13.1062548 4.04,13.4792548 4.5,13.4792548 L11.584,13.4792548 C12.044,13.4792548 12.417,13.8522548 12.417,14.3122548 C12.417,14.7732548 12.044,15.1462548 11.584,15.1462548 L4.5,15.1462548 C3.12,15.1462548 2,14.0272548 2,12.6462548 L2,6.81225477 C2,5.43225477 3.12,4.31225477 4.5,4.31225477 L19.5,4.31225477 Z M10.1786,6.65725477 C10.3166,6.65725477 10.4336,6.70525477 10.5296,6.80125477 C10.6246,6.89825477 10.6736,7.02025477 10.6736,7.16825477 C10.6736,7.29525477 10.6356,7.42425477 10.5576,7.55625477 L7.7296,12.4382548 C7.6586,12.5592548 7.5746,12.6502548 7.4776,12.7102548 C7.3816,12.7712548 7.2846,12.8012548 7.1846,12.8012548 C7.0526,12.8012548 6.9376,12.7512548 6.8376,12.6532548 C6.7396,12.5542548 6.6906,12.4332548 6.6906,12.2892548 C6.6906,12.1632548 6.7286,12.0352548 6.8056,11.9022548 L9.6346,7.02025477 C9.7056,6.89925477 9.7896,6.80825477 9.8856,6.74725477 C9.9826,6.68725477 10.0786,6.65725477 10.1786,6.65725477 Z M10.8636,9.13925477 C11.3476,9.13925477 11.7266,9.29125477 12.0016,9.59725477 C12.2766,9.90325477 12.4136,10.3412548 12.4136,10.9132548 C12.4136,11.4902548 12.2766,11.9312548 12.0016,12.2362548 C11.7266,12.5412548 11.3476,12.6942548 10.8636,12.6942548 C10.3796,12.6942548 9.9996,12.5402548 9.7256,12.2322548 C9.4506,11.9242548 9.3136,11.4822548 9.3136,10.9052548 C9.3136,10.3382548 9.4506,9.90325477 9.7256,9.59725477 C9.9996,9.29125477 10.3796,9.13925477 10.8636,9.13925477 Z M10.8636,10.0302548 C10.7366,10.0302548 10.6446,10.0972548 10.5866,10.2322548 C10.5296,10.3672548 10.4996,10.5942548 10.4996,10.9132548 C10.4996,11.2372548 10.5296,11.4662548 10.5866,11.6012548 C10.6446,11.7362548 10.7366,11.8032548 10.8636,11.8032548 C10.9896,11.8032548 11.0816,11.7362548 11.1396,11.6012548 C11.1976,11.4662548 11.2266,11.2372548 11.2266,10.9132548 C11.2266,10.5992548 11.1956,10.3732548 11.1356,10.2362548 C11.0756,10.0992548 10.9846,10.0302548 10.8636,10.0302548 Z M6.4996,6.72325477 C6.9846,6.72325477 7.3646,6.87525477 7.6386,7.18025477 C7.9136,7.48625477 8.0506,7.92425477 8.0506,8.49625477 C8.0506,9.07425477 7.9136,9.51425477 7.6386,9.82025477 C7.3646,10.1242548 6.9846,10.2782548 6.4996,10.2782548 C6.0166,10.2782548 5.6366,10.1232548 5.3626,9.81625477 C5.0866,9.50825477 4.9496,9.06525477 4.9496,8.48825477 C4.9496,7.92125477 5.0866,7.48625477 5.3626,7.18025477 C5.6366,6.87525477 6.0166,6.72325477 6.4996,6.72325477 Z M6.4996,7.62225477 C6.3736,7.62225477 6.2826,7.68925477 6.2246,7.82425477 C6.1666,7.95825477 6.1376,8.18225477 6.1376,8.49625477 C6.1376,8.82125477 6.1666,9.05025477 6.2246,9.18425477 C6.2826,9.31925477 6.3736,9.38725477 6.4996,9.38725477 C6.6266,9.38725477 6.7186,9.31925477 6.7766,9.18425477 C6.8336,9.05025477 6.8636,8.82125477 6.8636,8.49625477 C6.8636,8.18225477 6.8326,7.95825477 6.7726,7.82425477 C6.7116,7.68925477 6.6216,7.62225477 6.4996,7.62225477 Z" id="ðŸ–-Color" fill="#5A5A5A"></path>
        <rect id="_Transparent_Rectangle_" x="0" y="0" width="24" height="24"></rect>
    </g>
</svg>