<?xml version="1.0" encoding="UTF-8"?>
<svg width="24px" height="24px" viewBox="0 0 24 24" version="1.1" xmlns="http://www.w3.org/2000/svg" xmlns:xlink="http://www.w3.org/1999/xlink">
    <title>2. Library Essentials/component_message_control</title>
    <g id="2.-Library-Essentials/component_message_control" stroke="none" stroke-width="1" fill="none" fill-rule="evenodd">
        <path d="M16.7935224,10.4474477 C17.4467382,10.4474477 18.0226526,10.8586865 18.2105265,11.459277 L18.2105265,11.459277 L18.563944,12.5731422 C18.6211808,12.755075 18.8150678,12.8636808 19.0082164,12.8220015 L19.0082164,12.8220015 L20.1843298,12.5603392 C20.8201477,12.421945 21.4756865,12.69752 21.8009589,13.2399365 C22.1262313,13.7823531 22.0452839,14.4649533 21.6013339,14.9233018 L21.6013339,14.9233018 L20.7794715,15.7739044 C20.644473,15.91573 20.644473,16.132998 20.7794715,16.2748236 L20.7794715,16.2748236 L21.6021674,17.1270266 C22.0461174,17.5853751 22.1270648,18.2679753 21.8017924,18.8103918 C21.47652,19.3528084 20.8209812,19.6283834 20.1851633,19.4899892 L20.1851633,19.4899892 L19.00905,19.2283269 C18.8157007,19.1853897 18.6209724,19.2944668 18.5647775,19.4771861 L18.5647775,19.4771861 L18.21136,20.5910514 C18.0234862,21.1916419 17.4475718,21.6028807 16.794356,21.6028807 C16.1411402,21.6028807 15.5652258,21.1916419 15.3773519,20.5910514 L15.3773519,20.5910514 L15.0239344,19.4771861 C14.9673893,19.2947306 14.7729443,19.1858122 14.579662,19.2283269 L14.579662,19.2283269 L13.4035486,19.4899892 C12.7677307,19.6283834 12.1121919,19.3528084 11.7869195,18.8103918 C11.4616471,18.2679753 11.5425945,17.5853751 11.9865445,17.1270266 L11.9865445,17.1270266 L12.8100739,16.2748236 C12.9450724,16.132998 12.9450724,15.91573 12.8100739,15.7739044 L12.8100739,15.7739044 L11.9865445,14.9225016 C11.5425945,14.4641531 11.4616471,13.7815529 11.7869195,13.2391364 C12.1121919,12.6967198 12.7677307,12.4211448 13.4035486,12.559539 L13.4035486,12.559539 L14.5788284,12.8220015 C14.7719102,12.863268 14.9655225,12.754816 15.0231009,12.5731422 L15.0231009,12.5731422 L15.3765184,11.459277 C15.5643922,10.8586865 16.1403066,10.4474477 16.7935224,10.4474477 Z M16.7935224,13.6245926 C15.4124817,13.6245926 14.292927,14.6993651 14.292927,16.0251642 C14.292927,17.3509633 15.4124817,18.4257358 16.7935224,18.4257358 C18.1745631,18.4257358 19.2941178,17.3509633 19.2941178,16.0251642 C19.2941178,15.388493 19.030663,14.7778982 18.5617104,14.3277037 C18.0927578,13.8775092 17.4567216,13.6245926 16.7935224,13.6245926 Z M18.6706361,2.39711927 C19.3605053,2.3980023 19.9192667,2.93513001 19.9192667,3.59740507 L19.9192667,3.59740507 L19.9192667,11.1768098 C19.9192667,11.2699396 19.8521756,11.3506852 19.7575615,11.3712561 L19.7575615,11.3712561 L19.7125508,11.3816585 C19.6066354,11.4047845 19.4999805,11.3459284 19.4674925,11.2464263 C19.1835216,10.0485445 18.0740545,9.19861381 16.794356,9.19861381 C15.5146574,9.19861381 14.4051903,10.0485445 14.1212195,11.2464263 C14.0887371,11.345992 13.9822527,11.4051017 13.8761611,11.3824587 C11.3438915,10.837529 10.0919267,12.8532089 10.4161706,14.1535185 C10.4309596,14.2130447 10.416554,14.2757949 10.3770702,14.3238384 C10.3375864,14.371882 10.277368,14.3999334 10.2136224,14.3999772 L10.2136224,14.3999772 L8.82579193,14.3999772 L5.19409387,17.4999153 C5.07138905,17.6045209 4.89616285,17.630263 4.74648728,17.5656722 C4.59681171,17.5010814 4.50055152,17.3581825 4.50059541,17.2006441 L4.50059541,17.2006441 L4.50059541,14.3999772 L3.2502977,14.3999772 C2.92361028,14.4088035 2.60697112,14.2910292 2.37175871,14.0732037 C2.13654629,13.8553782 2.00255866,13.555836 2,13.2421015 L2,13.2421015 L2,3.59740507 C2,2.93450553 2.55977735,2.39711927 3.2502977,2.39711927 L3.2502977,2.39711927 Z M16.7935224,14.8248784 C17.4840428,14.8248784 18.0438201,15.3622647 18.0438201,16.0251642 C18.0438201,16.6880637 17.4840428,17.22545 16.7935224,17.22545 C16.1030021,17.22545 15.5432247,16.6880637 15.5432247,16.0251642 C15.5432247,15.3622647 16.1030021,14.8248784 16.7935224,14.8248784 Z" id="ðŸ–-Color" fill="#5A5A5A"></path>
        <rect id="_Transparent_Rectangle_" x="0" y="0" width="24" height="24"></rect>
    </g>
</svg>