<svg width="24" height="24" viewBox="0 0 24 24" fill="none" xmlns="http://www.w3.org/2000/svg">
<g id="component_text_edit">
<path id="Shape" fill-rule="evenodd" clip-rule="evenodd" d="M19.9167 5.54167C18.544 5.56093 17.4359 6.66901 17.4167 8.04167V15.9583C17.4189 16.0982 17.4331 16.2376 17.4592 16.375C17.662 17.5751 18.6996 18.4547 19.9167 18.4583C20.3769 18.4583 20.75 18.8314 20.75 19.2917C20.75 19.7519 20.3769 20.125 19.9167 20.125C18.6938 20.1252 17.5329 19.5872 16.7425 18.6542C16.7025 18.608 16.6445 18.5812 16.5833 18.5808C16.5223 18.5807 16.4644 18.6075 16.425 18.6542C15.6342 19.5872 14.473 20.1251 13.25 20.125C12.7898 20.125 12.4167 19.7519 12.4167 19.2917C12.4167 18.8314 12.7898 18.4583 13.25 18.4583C14.4671 18.4547 15.5047 17.5751 15.7075 16.375C15.7335 16.2376 15.7477 16.0982 15.75 15.9583V8.04167C15.7307 6.66901 14.6227 5.56093 13.25 5.54167C12.7898 5.54167 12.4167 5.16857 12.4167 4.70833C12.4167 4.2481 12.7898 3.875 13.25 3.875C14.4728 3.87482 15.6338 4.41278 16.4242 5.34583C16.464 5.39231 16.5221 5.41909 16.5833 5.41917C16.6443 5.41929 16.7023 5.39245 16.7417 5.34583C17.5325 4.41283 18.6936 3.87492 19.9167 3.875C20.3769 3.875 20.75 4.2481 20.75 4.70833C20.75 5.16857 20.3769 5.54167 19.9167 5.54167ZM2.90917 8.04167C2.42825 8.02143 2.02162 8.39414 2 8.875V14.7083C2.02162 15.1892 2.42825 15.5619 2.90917 15.5417H13.6667C14.1269 15.5417 14.5 15.1686 14.5 14.7083V8.875C14.5 8.41476 14.1269 8.04167 13.6667 8.04167H2.90917ZM21.0908 8.04167H19.5C19.0398 8.04167 18.6667 8.41476 18.6667 8.875V14.7083C18.6667 15.1686 19.0398 15.5417 19.5 15.5417H21.0908C21.5718 15.5619 21.9784 15.1892 22 14.7083V8.875C21.9784 8.39414 21.5718 8.02143 21.0908 8.04167Z" fill="#5A5A5A"/>
</g>
</svg>
