<svg width="24" height="24" viewBox="0 0 24 24" fill="none" xmlns="http://www.w3.org/2000/svg">
<g id="component_dialog">
<path id="Shape" fill-rule="evenodd" clip-rule="evenodd" d="M20.6957 2.86978H3.30435C2.58398 2.86978 2 3.45376 2 4.17413V15.9593C2.00267 16.3003 2.14245 16.6258 2.38783 16.8625C2.63321 17.0992 2.96354 17.2272 3.30435 17.2176H5.91304V20.6959C5.91321 20.8574 6.0029 21.0055 6.14596 21.0805C6.28901 21.1555 6.46185 21.145 6.59478 21.0533L12.1357 17.2176H20.6957C21.416 17.2176 22 16.6336 22 15.9133V4.17413C22 3.45376 21.416 2.86978 20.6957 2.86978ZM10.0409 13.7393C10.0409 13.3792 10.3329 13.0872 10.693 13.0872H11.78V9.39152C11.78 9.27146 11.6827 9.17413 11.5626 9.17413H10.693C10.3329 9.17413 10.0409 8.88214 10.0409 8.52196C10.0409 8.16177 10.3329 7.86978 10.693 7.86978H11.5626C12.4026 7.87074 13.0834 8.55148 13.0843 9.39152V13.0872H14.1739C14.5341 13.0872 14.8261 13.3792 14.8261 13.7393C14.8261 14.0995 14.5341 14.3915 14.1739 14.3915H10.6957C10.5222 14.3922 10.3557 14.3238 10.2328 14.2014C10.1099 14.079 10.0409 13.9128 10.0409 13.7393ZM11.5652 5.91326C11.5652 5.43301 11.9545 5.04369 12.4348 5.04369C12.915 5.04369 13.3043 5.43301 13.3043 5.91326C13.3043 6.39351 12.915 6.78282 12.4348 6.78282C11.9545 6.78282 11.5652 6.39351 11.5652 5.91326Z" fill="#5A5A5A"/>
</g>
</svg>
