<?xml version="1.0" encoding="UTF-8"?>
<svg width="24px" height="24px" viewBox="0 0 24 24" version="1.1" xmlns="http://www.w3.org/2000/svg" xmlns:xlink="http://www.w3.org/1999/xlink">
    <title>2. Library Essentials/email</title>
    <g id="2.-Library-Essentials/email" stroke="none" stroke-width="1" fill="none" fill-rule="evenodd">
        <path d="M21.8627313,6.84870843 L21.9066646,6.86000214 C21.9633326,6.88336893 22.000224,6.93870595 22,7.00000212 L22,7.00000212 L22,17.0000003 C22,17.9204747 21.2538059,18.6666667 20.3333314,18.6666667 L20.3333314,18.6666667 L3.6666665,18.6666667 C2.74619201,18.6666667 2,17.9204747 2,17.0000003 L2,17.0000003 L2,7.00000212 C2.00066773,6.93938161 2.037371,6.88498213 2.09333332,6.86166881 C2.15026344,6.83698704 2.21651407,6.84990591 2.25999997,6.8941688 L2.25999997,6.8941688 L7.42666611,12.0608345 C7.50781467,12.1424261 7.50781467,12.2742429 7.42666611,12.3558345 L7.42666611,12.3558345 L3.22416654,16.5583337 C2.98719069,16.8034584 2.99039307,17.1932782 3.23136407,17.4344765 C3.47233508,17.6756749 3.86215175,17.6792448 4.10749978,17.4425002 L4.10749978,17.4425002 L8.30999935,13.240001 C8.39159092,13.1588524 8.52340775,13.1588524 8.60499932,13.240001 L8.60499932,13.240001 L10.3808325,15.0125007 C11.2756801,15.9068481 12.7259845,15.9068481 13.6208321,15.0125007 L13.6208321,15.0125007 L15.3949986,13.2383343 C15.4340837,13.1991503 15.4871539,13.1771286 15.5424986,13.1771286 C15.5978433,13.1771286 15.6509135,13.1991503 15.6899986,13.2383343 L15.6899986,13.2383343 L19.8924982,17.4408336 C20.0494966,17.6032307 20.2819036,17.6682798 20.500394,17.6109794 C20.7188843,17.5536791 20.8894561,17.3829464 20.9465504,17.1644021 C21.0036448,16.9458579 20.9383765,16.7135123 20.7758314,16.556667 L20.7758314,16.556667 L16.5733318,12.3541678 C16.4921833,12.2725762 16.4921833,12.1407594 16.5733318,12.0591679 L16.5733318,12.0591679 L21.739998,6.89250214 C21.7837142,6.84866953 21.8496827,6.83580568 21.9066646,6.86000214 Z M20.3333314,5.33333453 C20.4133741,5.33333453 20.4933104,5.33916787 20.5724981,5.35083575 C20.7286349,5.37352656 20.8585624,5.48246234 20.9081382,5.63224828 C20.957714,5.78203422 20.9184333,5.94697413 20.8066647,6.05833562 L20.8066647,6.05833562 L12.7349989,14.1300008 C12.3278005,14.536008 11.6688641,14.536008 11.2616657,14.1300008 L11.2616657,14.1300008 L3.19166654,6.05833562 C3.079898,5.94697413 3.04061726,5.78203422 3.09019306,5.63224828 C3.13976886,5.48246234 3.26969633,5.37352656 3.42583319,5.35083575 C3.50557121,5.33908638 3.58606755,5.33323716 3.6666665,5.33333453 L3.6666665,5.33333453 Z" id="ðŸ–-Color" fill="#5A5A5A"></path>
        <rect id="_Transparent_Rectangle_" x="0" y="0" width="24" height="24"></rect>
    </g>
</svg>