<svg width="24" height="24" viewBox="0 0 24 24" fill="none" xmlns="http://www.w3.org/2000/svg">
<g id="email">
<path id="Shape" fill-rule="evenodd" clip-rule="evenodd" d="M12.735 14.13C12.3278 14.536 11.6689 14.536 11.2617 14.13L3.19167 6.05834C3.0799 5.94697 3.04062 5.78203 3.09019 5.63225C3.13977 5.48246 3.2697 5.37353 3.42583 5.35084C3.50557 5.33909 3.58607 5.33324 3.66667 5.33334H20.3333C20.4134 5.33332 20.4933 5.33917 20.5725 5.35084C20.7286 5.37353 20.8586 5.48246 20.9081 5.63225C20.9577 5.78203 20.9184 5.94697 20.8067 6.05834L12.735 14.13ZM21.74 6.8925C21.7837 6.84867 21.8497 6.83581 21.9067 6.86C21.9633 6.88337 22.0002 6.93871 22 7V17C22 17.9205 21.2538 18.6667 20.3333 18.6667H3.66667C2.74619 18.6667 2 17.9205 2 17V7C2.00067 6.93938 2.03737 6.88498 2.09333 6.86167C2.15026 6.83699 2.21651 6.84991 2.26 6.89417L7.42667 12.0608C7.50781 12.1424 7.50781 12.2742 7.42667 12.3558L3.22417 16.5583C2.98719 16.8035 2.99039 17.1933 3.23136 17.4345C3.47234 17.6757 3.86215 17.6792 4.1075 17.4425L8.31 13.24C8.39159 13.1589 8.52341 13.1589 8.605 13.24L10.3808 15.0125C11.2757 15.9068 12.726 15.9068 13.6208 15.0125L15.395 13.2383C15.4341 13.1991 15.4872 13.1771 15.5425 13.1771C15.5978 13.1771 15.6509 13.1991 15.69 13.2383L19.8925 17.4408C20.0495 17.6032 20.2819 17.6683 20.5004 17.611C20.7189 17.5537 20.8895 17.3829 20.9466 17.1644C21.0036 16.9459 20.9384 16.7135 20.7758 16.5567L16.5733 12.3542C16.4922 12.2726 16.4922 12.1408 16.5733 12.0592L21.74 6.8925Z" fill="#5A5A5A"/>
</g>
</svg>
