<?xml version="1.0" encoding="UTF-8"?>
<svg width="24px" height="24px" viewBox="0 0 24 24" version="1.1" xmlns="http://www.w3.org/2000/svg" xmlns:xlink="http://www.w3.org/1999/xlink">
    <title>2. Library Essentials/globe</title>
    <g id="2.-Library-Essentials/globe" stroke="none" stroke-width="1" fill="none" fill-rule="evenodd">
        <path d="M12,2 C6.4771525,2 2,6.4771525 2,12 C2,17.5228475 6.4771525,22 12,22 C17.5228475,22 22,17.5228475 22,12 C21.9939876,6.47964483 17.5203552,2.00601237 12,2 Z M10.0327273,7.78545455 C10.4817673,6.78204973 11.0648626,5.84420412 11.7660606,4.99757576 C11.8236235,4.92766229 11.9094385,4.88715834 12,4.88715834 C12.0905615,4.88715834 12.1763765,4.92766229 12.2339394,4.99757576 C12.9357113,5.84379077 13.5188573,6.78171788 13.9672727,7.78545455 C14.0084745,7.87918463 13.9997687,7.98735272 13.9441068,8.07328682 C13.888445,8.15922093 13.7932926,8.21139524 13.6909091,8.21212121 L10.3090909,8.21212121 C10.2067277,8.21180508 10.1114429,8.15983156 10.0557576,8.07393939 C9.99880217,7.9881987 9.99009623,7.87914542 10.0327273,7.78545455 L10.0327273,7.78545455 Z M5.69818182,7.79878788 C6.34109444,6.8383628 7.19362285,6.03639758 8.19151515,5.45333333 C8.30908579,5.38502263 8.45776401,5.40339058 8.55517505,5.49826046 C8.6525861,5.59313035 8.67487676,5.74127123 8.60969697,5.86060606 C8.26481781,6.48577713 7.97054436,7.13755634 7.72969697,7.80969697 C7.64360048,8.05103928 7.41502744,8.21215658 7.15878788,8.21212126 L5.91878788,8.21212126 C5.82072515,8.21217906 5.73061822,8.15816968 5.68444472,8.07165778 C5.63827121,7.98514588 5.64355324,7.88022509 5.69818182,7.79878788 L5.69818182,7.79878788 Z M4.51272727,13.1515152 C4.39524441,12.3883332 4.39524441,11.6116668 4.51272727,10.8484848 C4.55872187,10.5533815 4.81284894,10.3357541 5.11151515,10.3357541 L6.43757576,10.3357541 C6.60730602,10.3351859 6.76949821,10.4058142 6.88470006,10.5304626 C6.9999019,10.655111 7.05755529,10.8223556 7.04363636,10.9915152 C7.0169697,11.3212121 7.00242424,11.6569697 7.00242424,12.0024242 C7.00242424,12.3478788 7.0169697,12.6836364 7.04363636,13.0121212 C7.05791411,13.181481 7.00042204,13.3490535 6.88517948,13.4739764 C6.76993693,13.5988993 6.60753523,13.6696917 6.43757576,13.6690947 L5.11151515,13.6690947 C4.81126875,13.6687052 4.55656304,13.4485446 4.51272727,13.1515152 Z M8.55636364,18.4993939 C8.45893766,18.5942265 8.31027528,18.6125615 8.19272727,18.5442424 C7.2164805,17.9732858 6.37900151,17.1929359 5.74060606,16.2593939 C5.67716271,16.1665046 5.67039419,16.0461152 5.72302581,15.9466999 C5.77565743,15.8472847 5.87902771,15.785204 5.99151515,15.7854538 L7.16,15.7854538 C7.41623957,15.7854192 7.6448126,15.9465365 7.73090909,16.1878788 C7.97198401,16.8595371 8.26625054,17.5108956 8.61090909,18.1357576 C8.67756818,18.2560784 8.65520532,18.406158 8.55636364,18.5018182 L8.55636364,18.4993939 Z M13.9672727,16.2109091 C13.5190178,17.214731 12.9358587,18.1526791 12.2339394,18.9987879 C12.1763765,19.0687013 12.0905615,19.1092053 12,19.1092053 C11.9094385,19.1092053 11.8236235,19.0687013 11.7660606,18.9987879 C11.0641413,18.1526791 10.4809822,17.214731 10.0327273,16.2109091 C9.99139595,16.1173255 10.0000742,16.0092052 10.055803,15.9234121 C10.1115319,15.8376189 10.206787,15.7857366 10.3090909,15.7854543 L13.6909091,15.7854543 C13.7933866,15.785323 13.8888715,15.8374057 13.9442424,15.9236364 C14.0021038,16.0095119 14.0108392,16.1193945 13.9672727,16.2133333 L13.9672727,16.2109091 Z M14.8157576,13.1272727 C14.7804811,13.434756 14.5191906,13.6662594 14.209697,13.6642555 L9.78787879,13.6642555 C9.47838514,13.6662594 9.21709463,13.434756 9.18181818,13.1272727 C9.09616092,12.376577 9.09616092,11.6185745 9.18181818,10.8678788 C9.21709463,10.5603955 9.47838514,10.3288921 9.78787879,10.330896 L14.2121212,10.330896 C14.5216149,10.3288921 14.7829054,10.5603955 14.8181818,10.8678788 C14.9038391,11.6185745 14.9038391,12.376577 14.8181818,13.1272727 L14.8157576,13.1272727 Z M15.4448485,5.49090909 C15.5422745,5.39607657 15.6909368,5.37774154 15.8084848,5.44606061 C16.7849737,6.0166918 17.6225182,6.79710273 18.2606061,7.73090909 C18.3240494,7.82379842 18.3308179,7.9441878 18.2781863,8.04360309 C18.2255547,8.14301838 18.1221844,8.20509898 18.009697,8.20484924 L16.8412121,8.20484924 C16.5849726,8.20488385 16.3563995,8.04376655 16.270303,7.80242424 C16.0294556,7.13028361 15.7351822,6.4785044 15.390303,5.85333333 C15.3284588,5.73603189 15.3500664,5.59214461 15.4436364,5.49818182 L15.4448485,5.49090909 Z M18.3030303,16.1927273 C17.660259,17.1535931 16.8077199,17.9559829 15.809697,18.5393939 C15.691875,18.608444 15.5424235,18.5901528 15.4447316,18.4947263 C15.3470397,18.3992997 15.3252478,18.2503184 15.3915152,18.1309091 C15.7361737,17.5060471 16.0304402,16.8546886 16.2715152,16.1830303 C16.3576116,15.941688 16.5861847,15.7805707 16.8424242,15.7806061 L18.0824242,15.7806061 C18.1800806,15.7808456 18.2697194,15.8346855 18.3158068,15.9207829 C18.3618943,16.0068803 18.356987,16.1113302 18.3030303,16.1927273 L18.3030303,16.1927273 Z M19.4884848,10.8387879 C19.6059677,11.6019698 19.6059677,12.3786362 19.4884848,13.1418182 C19.4424903,13.4369216 19.1883632,13.6545492 18.889697,13.6545492 L17.5624242,13.6545492 C17.3924648,13.6551462 17.2300631,13.5843538 17.1148205,13.4594309 C16.999578,13.334508 16.9420859,13.1669355 16.9563636,12.9975758 C16.9830303,12.6690909 16.9975758,12.3321212 16.9975758,11.9878788 C16.9975758,11.6436364 16.9830303,11.3066667 16.9563636,10.9769697 C16.9424447,10.8078102 17.0000981,10.6405656 17.1152999,10.5159172 C17.2305018,10.3912688 17.392694,10.3206404 17.5624242,10.3212087 L18.8884848,10.3212087 C19.1919364,10.3222787 19.4478257,10.5476062 19.4872727,10.8484848 L19.4884848,10.8387879 Z" id="ðŸ–-Color" fill="#5A5A5A"></path>
        <rect id="_Transparent_Rectangle_" x="0" y="0" width="24" height="24"></rect>
    </g>
</svg>