<svg width="24" height="24" viewBox="0 0 24 24" fill="none" xmlns="http://www.w3.org/2000/svg">
<g id="globe">
<path id="Shape" fill-rule="evenodd" clip-rule="evenodd" d="M12 2C6.47715 2 2 6.47715 2 12C2 17.5228 6.47715 22 12 22C17.5228 22 22 17.5228 22 12C21.994 6.47964 17.5204 2.00601 12 2ZM10.0327 7.78545C10.4818 6.78205 11.0649 5.8442 11.7661 4.99758C11.8236 4.92766 11.9094 4.88716 12 4.88716C12.0906 4.88716 12.1764 4.92766 12.2339 4.99758C12.9357 5.84379 13.5189 6.78172 13.9673 7.78545C14.0085 7.87918 13.9998 7.98735 13.9441 8.07329C13.8884 8.15922 13.7933 8.2114 13.6909 8.21212H10.3091C10.2067 8.21181 10.1114 8.15983 10.0558 8.07394C9.9988 7.9882 9.9901 7.87915 10.0327 7.78545ZM5.69818 7.79879C6.34109 6.83836 7.19362 6.0364 8.19151 5.45333C8.30909 5.38502 8.45776 5.40339 8.55517 5.49826C8.65259 5.59313 8.67488 5.74127 8.6097 5.86061C8.26482 6.48578 7.97054 7.13756 7.7297 7.8097C7.6436 8.05104 7.41503 8.21216 7.15879 8.21212H5.91879C5.82073 8.21218 5.73062 8.15817 5.68444 8.07166C5.63827 7.98515 5.64355 7.88023 5.69818 7.79879ZM4.51273 13.1515C4.39524 12.3883 4.39524 11.6117 4.51273 10.8485C4.55872 10.5534 4.81285 10.3358 5.11152 10.3358H6.43758C6.60731 10.3352 6.7695 10.4058 6.8847 10.5305C6.9999 10.6551 7.05756 10.8224 7.04364 10.9915C7.01697 11.3212 7.00242 11.657 7.00242 12.0024C7.00242 12.3479 7.01697 12.6836 7.04364 13.0121C7.05791 13.1815 7.00042 13.3491 6.88518 13.474C6.76994 13.5989 6.60754 13.6697 6.43758 13.6691H5.11152C4.81127 13.6687 4.55656 13.4485 4.51273 13.1515ZM8.55636 18.4994C8.45894 18.5942 8.31028 18.6126 8.19273 18.5442C7.21648 17.9733 6.379 17.1929 5.74061 16.2594C5.67716 16.1665 5.67039 16.0461 5.72303 15.9467C5.77566 15.8473 5.87903 15.7852 5.99152 15.7855H7.16C7.41624 15.7854 7.64481 15.9465 7.73091 16.1879C7.97198 16.8595 8.26625 17.5109 8.61091 18.1358C8.67757 18.2561 8.65521 18.4062 8.55636 18.5018V18.4994ZM13.9673 16.2109C13.519 17.2147 12.9359 18.1527 12.2339 18.9988C12.1764 19.0687 12.0906 19.1092 12 19.1092C11.9094 19.1092 11.8236 19.0687 11.7661 18.9988C11.0641 18.1527 10.481 17.2147 10.0327 16.2109C9.9914 16.1173 10.0001 16.0092 10.0558 15.9234C10.1115 15.8376 10.2068 15.7857 10.3091 15.7855H13.6909C13.7934 15.7853 13.8889 15.8374 13.9442 15.9236C14.0021 16.0095 14.0108 16.1194 13.9673 16.2133V16.2109ZM14.8158 13.1273C14.7805 13.4348 14.5192 13.6663 14.2097 13.6642H9.78788C9.47838 13.6663 9.21709 13.4348 9.18182 13.1273C9.09616 12.3766 9.09616 11.6186 9.18182 10.8679C9.21709 10.5604 9.47838 10.3289 9.78788 10.3309H14.2121C14.5216 10.3289 14.7829 10.5604 14.8182 10.8679C14.9038 11.6186 14.9038 12.3766 14.8182 13.1273H14.8158ZM15.4448 5.49091C15.5423 5.39608 15.6909 5.37774 15.8085 5.44606C16.785 6.01669 17.6225 6.7971 18.2606 7.73091C18.324 7.8238 18.3308 7.94419 18.2782 8.0436C18.2256 8.14302 18.1222 8.2051 18.0097 8.20485H16.8412C16.585 8.20488 16.3564 8.04377 16.2703 7.80242C16.0295 7.13028 15.7352 6.4785 15.3903 5.85333C15.3285 5.73603 15.3501 5.59214 15.4436 5.49818L15.4448 5.49091ZM18.303 16.1927C17.6603 17.1536 16.8077 17.956 15.8097 18.5394C15.6919 18.6084 15.5424 18.5902 15.4447 18.4947C15.347 18.3993 15.3252 18.2503 15.3915 18.1309C15.7362 17.506 16.0304 16.8547 16.2715 16.183C16.3576 15.9417 16.5862 15.7806 16.8424 15.7806H18.0824C18.1801 15.7808 18.2697 15.8347 18.3158 15.9208C18.3619 16.0069 18.357 16.1113 18.303 16.1927ZM19.4885 10.8388C19.606 11.602 19.606 12.3786 19.4885 13.1418C19.4425 13.4369 19.1884 13.6545 18.8897 13.6545H17.5624C17.3925 13.6551 17.2301 13.5844 17.1148 13.4594C16.9996 13.3345 16.9421 13.1669 16.9564 12.9976C16.983 12.6691 16.9976 12.3321 16.9976 11.9879C16.9976 11.6436 16.983 11.3067 16.9564 10.977C16.9424 10.8078 17.0001 10.6406 17.1153 10.5159C17.2305 10.3913 17.3927 10.3206 17.5624 10.3212H18.8885C19.1919 10.3223 19.4478 10.5476 19.4873 10.8485L19.4885 10.8388Z" fill="#5A5A5A"/>
</g>
</svg>
