<?xml version="1.0" encoding="UTF-8"?>
<svg width="24px" height="24px" viewBox="0 0 24 24" version="1.1" xmlns="http://www.w3.org/2000/svg" xmlns:xlink="http://www.w3.org/1999/xlink">
    <title>2. Library Essentials/hierarchy</title>
    <g id="2.-Library-Essentials/hierarchy" stroke="none" stroke-width="1" fill="none" fill-rule="evenodd">
        <path d="M20.4425518,17.1884941 C20.3687671,17.1588806 20.3185358,17.089619 20.3133691,17.0103698 C20.1028472,13.9578095 17.5639104,11.5879337 14.5001506,11.5842379 L13.041637,11.5842379 C12.9265634,11.5842379 12.8332779,11.4910733 12.8332779,11.3761488 L12.8332779,6.9946243 C12.833304,6.91078608 12.8835096,6.8350836 12.9607937,6.80234995 C14.0612353,6.34482071 14.6852618,5.17509486 14.4516712,4.0077279 C14.2180806,2.84036095 13.191835,2 11.9998415,2 C10.8078481,2 9.78160251,2.84036095 9.54801192,4.0077279 C9.31442134,5.17509486 9.93844775,6.34482071 11.0388894,6.80234995 C11.1161735,6.8350836 11.1663791,6.91078608 11.1664052,6.9946243 L11.1664052,11.3753165 C11.1664052,11.4902409 11.0731197,11.5834056 10.9580461,11.5834056 L9.08281432,11.5834056 C6.10270385,11.6192179 3.70086989,14.0331216 3.68381363,17.0095375 C3.67879152,17.0894307 3.62867489,17.159503 3.554631,17.1901588 C2.45233982,17.6400767 1.82071357,18.8039413 2.04497971,19.971914 C2.26924586,21.1398867 3.28716698,21.9878367 4.47791522,21.9986011 C5.66866346,22.0093654 6.70178727,21.1799569 6.9471867,20.0162299 C7.19258612,18.852503 6.58215893,17.6774103 5.48820333,17.2076383 C5.40681229,17.1719372 5.35674187,17.088928 5.36318788,17.0003816 C5.37206865,14.946442 7.02639617,13.2779694 9.08281432,13.2489509 L10.9580461,13.2489509 C11.0731197,13.2489509 11.1664052,13.3421156 11.1664052,13.45704 L11.1664052,17.0053757 C11.1663791,17.0892139 11.1161735,17.1649164 11.0388894,17.19765 C9.93844775,17.6551793 9.31442134,18.8249051 9.54801192,19.9922721 C9.78160251,21.1596391 10.8078481,22 11.9998415,22 C13.191835,22 14.2180806,21.1596391 14.4516712,19.9922721 C14.6852618,18.8249051 14.0612353,17.6551793 12.9607937,17.19765 C12.88323,17.1647987 12.8329686,17.088684 12.8332779,17.0045433 L12.8332779,13.4562077 C12.8332779,13.3412832 12.9265634,13.2481185 13.041637,13.2481185 L14.5001506,13.2481185 C16.6364977,13.2542254 18.4210165,14.8752634 18.6289943,16.9987168 C18.6379602,17.0886437 18.587783,17.17407 18.5048123,17.2101354 C17.412687,17.6830602 16.8058331,18.8593644 17.054157,20.0220344 C17.302481,21.1847044 18.3371211,22.011325 19.5274147,21.9980314 C20.7177084,21.9847378 21.7335802,21.1352165 21.9558077,19.9672912 C22.1780353,18.799366 21.5449936,17.6369093 20.4425518,17.1884941 L20.4425518,17.1884941 Z" id="ðŸ–-Color" fill="#5A5A5A"></path>
        <rect id="_Transparent_Rectangle_" x="0" y="0" width="24" height="24"></rect>
    </g>
</svg>