<svg width="24" height="24" viewBox="0 0 24 24" fill="none" xmlns="http://www.w3.org/2000/svg">
<g id="hierarchy">
<path id="Shape" fill-rule="evenodd" clip-rule="evenodd" d="M20.4426 17.1885C20.3688 17.1589 20.3185 17.0896 20.3134 17.0104C20.1028 13.9578 17.5639 11.5879 14.5002 11.5842H13.0416C12.9266 11.5842 12.8333 11.4911 12.8333 11.3761V6.99462C12.8333 6.91079 12.8835 6.83508 12.9608 6.80235C14.0612 6.34482 14.6853 5.17509 14.4517 4.00773C14.2181 2.84036 13.1918 2 11.9998 2C10.8078 2 9.7816 2.84036 9.54801 4.00773C9.31442 5.17509 9.93845 6.34482 11.0389 6.80235C11.1162 6.83508 11.1664 6.91079 11.1664 6.99462V11.3753C11.1664 11.4902 11.0731 11.5834 10.958 11.5834H9.08281C6.1027 11.6192 3.70087 14.0331 3.68381 17.0095C3.67879 17.0894 3.62867 17.1595 3.55463 17.1902C2.45234 17.6401 1.82071 18.8039 2.04498 19.9719C2.26925 21.1399 3.28717 21.9878 4.47792 21.9986C5.66866 22.0094 6.70179 21.18 6.94719 20.0162C7.19259 18.8525 6.58216 17.6774 5.4882 17.2076C5.40681 17.1719 5.35674 17.0889 5.36319 17.0004C5.37207 14.9464 7.0264 13.278 9.08281 13.249H10.958C11.0731 13.249 11.1664 13.3421 11.1664 13.457V17.0054C11.1664 17.0892 11.1162 17.1649 11.0389 17.1976C9.93845 17.6552 9.31442 18.8249 9.54801 19.9923C9.7816 21.1596 10.8078 22 11.9998 22C13.1918 22 14.2181 21.1596 14.4517 19.9923C14.6853 18.8249 14.0612 17.6552 12.9608 17.1976C12.8832 17.1648 12.833 17.0887 12.8333 17.0045V13.4562C12.8333 13.3413 12.9266 13.2481 13.0416 13.2481H14.5002C16.6365 13.2542 18.421 14.8753 18.629 16.9987C18.638 17.0886 18.5878 17.1741 18.5048 17.2101C17.4127 17.6831 16.8058 18.8594 17.0542 20.022C17.3025 21.1847 18.3371 22.0113 19.5274 21.998C20.7177 21.9847 21.7336 21.1352 21.9558 19.9673C22.178 18.7994 21.545 17.6369 20.4426 17.1885Z" fill="#5A5A5A"/>
</g>
</svg>
