<svg width="24" height="24" viewBox="0 0 24 24" fill="none" xmlns="http://www.w3.org/2000/svg">
<g id="home">
<path id="Shape" fill-rule="evenodd" clip-rule="evenodd" d="M18.4284 22C18.8229 22 19.1426 21.6269 19.1426 21.1667V13.2506C19.1426 13.0204 19.3025 12.8339 19.4997 12.8339H21.2852C21.5851 12.8342 21.8533 12.6158 21.9564 12.2872C22.0595 11.9586 21.9757 11.5898 21.7466 11.364L12.4621 2.19791C12.1955 1.93403 11.8045 1.93403 11.5379 2.19791L2.25342 11.364C2.02407 11.59 1.94032 11.9592 2.04384 12.288C2.14735 12.6167 2.41602 12.8349 2.71622 12.8339H4.5017C4.69892 12.8339 4.8588 13.0204 4.8588 13.2506V21.1667C4.8588 21.6269 5.17855 22 5.57299 22H18.4284Z" fill="#5A5A5A"/>
</g>
</svg>
