<?xml version="1.0" encoding="UTF-8"?>
<svg width="24px" height="24px" viewBox="0 0 24 24" version="1.1" xmlns="http://www.w3.org/2000/svg" xmlns:xlink="http://www.w3.org/1999/xlink">
    <title>2. Library Essentials/home</title>
    <g id="2.-Library-Essentials/home" stroke="none" stroke-width="1" fill="none" fill-rule="evenodd">
        <path d="M18.4284442,22 C18.8228816,22 19.1426363,21.6269274 19.1426363,21.1667191 L19.1426363,13.2505505 C19.1426363,13.0204463 19.3025136,12.83391 19.4997323,12.83391 L21.2852125,12.83391 C21.5851448,12.8341844 21.8532682,12.6157807 21.9564087,12.2871774 C22.0595493,11.9585741 21.975729,11.5897926 21.7465805,11.3640025 L12.4620838,2.19791255 C12.1955419,1.93402915 11.8044612,1.93402915 11.5379193,2.19791255 L2.25342255,11.3640025 C2.02407208,11.5899891 1.94032447,11.9591913 2.0438371,12.2879622 C2.14734972,12.616733 2.41602474,12.8348867 2.71621901,12.83391 L4.50169915,12.83391 C4.69891784,12.83391 4.85879518,13.0204463 4.85879518,13.2505505 L4.85879518,21.1667191 C4.85879518,21.6269274 5.17854985,22 5.57298723,22 L18.4284442,22 Z" id="ðŸ–-Color" fill="#5A5A5A"></path>
        <rect id="_Transparent_Rectangle_" x="0" y="0" width="24" height="24"></rect>
    </g>
</svg>