<svg width="24" height="24" viewBox="0 0 24 24" fill="none" xmlns="http://www.w3.org/2000/svg">
<g id="lock">
<path id="Shape" fill-rule="evenodd" clip-rule="evenodd" d="M18.579 9.91667H17.9211V7.625C17.9211 4.5184 15.2702 2 12.0001 2C8.72997 2 6.07903 4.5184 6.07903 7.625V9.91667H5.42113C4.45221 9.91667 3.66675 10.6629 3.66675 11.5833V20.3333C3.66675 21.2538 4.45221 22 5.42113 22H18.579C19.5479 22 20.3334 21.2538 20.3334 20.3333V11.5833C20.3334 10.6629 19.5479 9.91667 18.579 9.91667ZM10.2457 14.9167C10.2418 14.1069 10.8512 13.4117 11.6902 13.2687C12.5292 13.1256 13.355 13.5762 13.6477 14.3367C13.9405 15.0972 13.6155 15.9476 12.8773 16.3525V18.25C12.8773 18.7102 12.4845 19.0833 12.0001 19.0833C11.5156 19.0833 11.1229 18.7102 11.1229 18.25V16.3525C10.5817 16.0569 10.2474 15.5097 10.2457 14.9167ZM8.27201 7.625C8.27201 5.66899 9.94112 4.08333 12.0001 4.08333C14.059 4.08333 15.7282 5.66899 15.7282 7.625V9.5C15.7282 9.73012 15.5318 9.91667 15.2896 9.91667H8.71061C8.46838 9.91667 8.27201 9.73012 8.27201 9.5V7.625Z" fill="#5A5A5A"/>
</g>
</svg>
