<?xml version="1.0" encoding="UTF-8"?>
<svg width="24px" height="24px" viewBox="0 0 24 24" version="1.1" xmlns="http://www.w3.org/2000/svg" xmlns:xlink="http://www.w3.org/1999/xlink">
    <title>2. Library Essentials/lock</title>
    <g id="2.-Library-Essentials/lock" stroke="none" stroke-width="1" fill="none" fill-rule="evenodd">
        <path d="M18.5789474,9.91666667 L17.9210526,9.91666667 L17.9210526,7.625 C17.9210526,4.51839828 15.2701071,2 12,2 C8.72989293,2 6.07894737,4.51839828 6.07894737,7.625 L6.07894737,9.91666667 L5.42105263,9.91666667 C4.45213202,9.91666667 3.66666667,10.6628588 3.66666667,11.5833333 L3.66666667,20.3333333 C3.66666667,21.2538079 4.45213202,22 5.42105263,22 L18.5789474,22 C19.547868,22 20.3333333,21.2538079 20.3333333,20.3333333 L20.3333333,11.5833333 C20.3333333,10.6628588 19.547868,9.91666667 18.5789474,9.91666667 Z M10.2455959,14.9166667 C10.2417617,14.1069067 10.8511375,13.4116886 11.6901251,13.2686685 C12.5291126,13.1256485 13.3549087,13.5762166 13.6476551,14.3367295 C13.9404014,15.0972424 13.6153773,15.9476076 12.877193,16.3525 L12.877193,18.25 C12.877193,18.7102373 12.4844603,19.0833333 12,19.0833333 C11.5155397,19.0833333 11.122807,18.7102373 11.122807,18.25 L11.122807,16.3525 C10.5816583,16.0568814 10.2473633,15.5096906 10.2455959,14.9166667 Z M8.27192982,7.625 C8.27192982,5.66899153 9.94104372,4.08333339 12,4.08333339 C14.0589563,4.08333339 15.7280702,5.66899153 15.7280702,7.625 L15.7280702,9.5 C15.7280702,9.73011865 15.5317038,9.91666667 15.2894737,9.91666667 L8.71052632,9.91666667 C8.46829616,9.91666667 8.27192982,9.73011865 8.27192982,9.5 L8.27192982,7.625 Z" id="ðŸ–-Color" fill="#5A5A5A"></path>
        <rect id="_Transparent_Rectangle_" x="0" y="0" width="24" height="24"></rect>
    </g>
</svg>