<?xml version="1.0" encoding="UTF-8"?>
<svg width="24px" height="24px" viewBox="0 0 24 24" version="1.1" xmlns="http://www.w3.org/2000/svg" xmlns:xlink="http://www.w3.org/1999/xlink">
    <title>2. Library Essentials/tasked</title>
    <g id="2.-Library-Essentials/tasked" stroke="none" stroke-width="1" fill="none" fill-rule="evenodd">
        <path d="M10.6482124,6.83591705 C11.568687,6.83591705 12.3148791,7.58210914 12.3148791,8.50258372 L12.3147132,10.7089171 L14.5017132,10.7089171 L14.5026068,9.38929776 C14.5026068,8.46882317 15.2487989,7.72263109 16.1692735,7.72263109 C16.4816397,7.72263109 16.787719,7.8104135 17.052605,7.97596725 L21.2297286,10.5866695 C22.0102895,11.07452 22.2475781,12.1027707 21.7597276,12.8833316 C21.625593,13.0979468 21.4443438,13.279196 21.2297286,13.4133305 L17.052605,16.0240327 C16.2720441,16.5118833 15.2437935,16.2745947 14.755943,15.4940338 C14.5903892,15.2291478 14.5026068,14.9230684 14.5026068,14.6107022 L14.5017132,13.2909171 L12.3147132,13.2909171 L12.3148791,15.4974163 C12.3148791,16.4178909 11.568687,17.1640829 10.6482124,17.1640829 L3.65337986,17.1640829 C2.73290527,17.1640829 1.98671319,16.4178909 1.98671319,15.4974163 L1.98671319,8.50258372 C1.98671319,7.58210914 2.73290527,6.83591705 3.65337986,6.83591705 L10.6482124,6.83591705 Z" id="ðŸ–-Color" fill="#5A5A5A"></path>
        <rect id="_Transparent_Rectangle_" x="0" y="0" width="24" height="24"></rect>
    </g>
</svg>