<?xml version="1.0" encoding="UTF-8"?>
<svg width="48px" height="44px" viewBox="0 0 48 44" version="1.1" xmlns="http://www.w3.org/2000/svg" xmlns:xlink="http://www.w3.org/1999/xlink">
    <title>mail-open</title>
    <defs>
        <linearGradient x1="50%" y1="0%" x2="50%" y2="83.4544362%" id="linearGradient-1">
            <stop stop-color="#4FC68A" offset="0%"></stop>
            <stop stop-color="#139554" offset="100%"></stop>
        </linearGradient>
    </defs>
    <g id="Page-2" stroke="none" stroke-width="1" fill="none" fill-rule="evenodd">
        <g id="Diagnose-Features" transform="translate(-846.000000, -1836.000000)" fill="url(#linearGradient-1)">
            <g id="section3" transform="translate(-7.000000, 1668.000000)">
                <g id="Shape" transform="translate(853.000000, 168.000000)">
                    <path d="M0.320303927,18.1451654 C-0.362941796,16.7701793 0.0468892232,15.1685017 1.5498499,14.0653201 L18.3874756,1.7064086 C21.4872691,-0.568802865 26.5129245,-0.568802865 29.6124535,1.7064086 L46.450185,14.0653201 C47.9532515,15.1686182 48.3630825,16.7705483 47.6794135,18.145748 C47.7654013,18.3370366 47.8117024,18.5413367 47.8117024,18.7537932 L47.8117024,40.1159682 C47.8117024,42.261119 45.4426727,44 42.5201463,44 L5.47935946,44 C2.5569124,44 0.187803362,42.261119 0.187803362,40.1159682 L0.187803362,18.7537932 C0.187803362,18.5411425 0.23431614,18.3366482 0.320303927,18.1451654 Z M5.29156213,16.8117385 L22.1291349,4.45282691 C23.1623112,3.69443086 24.8376179,3.69443086 25.8707942,4.45282691 L42.7085257,16.8117385 L42.6283586,16.8117385 L42.6283586,16.8706204 L25.8707942,29.1705723 C24.8376179,29.9291237 23.1623112,29.9291237 22.1291349,29.1705723 L5.29156213,16.8117385 Z M42.5201463,22.4428466 L29.6124535,31.9171654 C26.5129245,34.1922371 21.4872691,34.1922371 18.3874756,31.9171654 L5.47935946,22.4424582 L5.47935946,40.1159682 L42.5201463,40.1159682 L42.5201463,22.4428466 Z"></path>
                </g>
            </g>
        </g>
    </g>
</svg>