<svg fill="none" height="32" viewBox="0 0 32 32" width="32" xmlns="http://www.w3.org/2000/svg">
  <g filter="url(#filter0_d)">
    <path clip-rule="evenodd"
          d="M11.1311 10.7439L10.5192 11.3558L11.3351 12.9876L12.3549 13.1915L15.0913 15.9279L11.2853 19.7339C10.9474 20.0718 10.9474 20.6198 11.2853 20.9577C11.6233 21.2957 12.1712 21.2957 12.5092 20.9577L15.4994 17.9675L15.5098 17.9782L15.5165 17.9849L18.3721 20.8405C18.9917 21.4601 19.9963 21.4601 20.6159 20.8405C21.2354 20.221 21.2354 19.2164 20.6159 18.5968L17.7602 15.7412C17.7545 15.7354 17.7487 15.7297 17.7428 15.7241L18.543 14.9239C19.3831 15.2798 20.3912 15.1154 21.076 14.4306C21.7608 13.7458 21.9253 12.7376 21.5693 11.8975L20.2601 13.2067C19.9222 13.5447 19.3743 13.5447 19.0363 13.2067C18.6983 12.8688 18.6983 12.3209 19.0363 11.9829L20.3455 10.6737C19.5054 10.3178 18.4973 10.4822 17.8125 11.167C17.1277 11.8518 16.9632 12.86 17.3192 13.7L15.7032 15.316L12.9669 12.5796L12.7629 11.5598L11.1311 10.7439Z"
          fill="url(#paint0_linear)" fill-rule="evenodd"/>
  </g>
  <defs>
    <filter color-interpolation-filters="sRGB" filterUnits="userSpaceOnUse" height="30.8141" id="filter0_d"
            width="31.2328" x="0.51918" y="0.491089">
      <feFlood flood-opacity="0" result="BackgroundImageFix"/>
      <feColorMatrix in="SourceAlpha" type="matrix" values="0 0 0 0 0 0 0 0 0 0 0 0 0 0 0 0 0 0 127 0"/>
      <feOffset/>
      <feGaussianBlur stdDeviation="5"/>
      <feColorMatrix type="matrix" values="0 0 0 0 0 0 0 0 0 0 0 0 0 0 0 0 0 0 0.25 0"/>
      <feBlend in2="BackgroundImageFix" mode="normal" result="effect1_dropShadow"/>
      <feBlend in="SourceGraphic" in2="effect1_dropShadow" mode="normal" result="shape"/>
    </filter>
    <linearGradient gradientUnits="userSpaceOnUse" id="paint0_linear" x1="25.5448" x2="15.767" y1="15.8858"
                    y2="6.10797">
      <stop stop-color="white" stop-opacity="0.65"/>
      <stop offset="1" stop-color="white" stop-opacity="0.803158"/>
    </linearGradient>
  </defs>
</svg>
