<svg width="50" height="50" viewBox="0 0 50 50" fill="none" xmlns="http://www.w3.org/2000/svg">
<path fill-rule="evenodd" clip-rule="evenodd" d="M7.5065 39.8179C7.63085 39.9751 7.63085 40.1971 7.5065 40.3543L5.4166 42.9962C5.00898 43.4803 4.89713 44.1479 5.1247 44.7384C5.35228 45.3289 5.88321 45.7488 6.51029 45.8341C7.13737 45.9195 7.7612 45.6568 8.13833 45.1486L9.96438 42.8417C10.1095 42.6587 10.3734 42.6235 10.5615 42.7618C16.1881 46.9199 23.8981 46.8112 29.4053 42.4963C29.5851 42.3537 29.845 42.3766 29.9972 42.5483C30.6759 43.3104 32.3839 45.2267 32.3856 45.2267C33.0293 45.9305 34.1167 45.9929 34.8366 45.3673C35.5516 44.73 35.6153 43.6339 34.9789 42.9181L32.3752 39.9933C32.2396 39.84 32.2295 39.6129 32.3509 39.4482C36.1659 34.3155 36.4483 27.37 33.0626 21.9445C32.9897 21.8295 32.8681 21.7544 32.7327 21.7405C32.5973 21.7266 32.463 21.7756 32.3683 21.8733L29.5164 24.7339C29.3859 24.8648 29.3563 25.0656 29.4435 25.2286C31.9808 30.1292 30.4543 36.153 25.8892 39.2537C21.3241 42.3543 15.1618 41.553 11.5416 37.3879C7.92139 33.2228 7.98625 27.0089 11.6926 22.9202C15.3989 18.8316 21.5767 18.159 26.076 21.3543C26.1798 21.4283 26.2458 21.5442 26.2565 21.6712C26.2672 21.7983 26.2215 21.9236 26.1316 22.0139L24.8748 23.2706C24.7286 23.4163 24.4999 23.4388 24.3281 23.3244C22.466 22.0727 20.1699 21.645 17.982 22.1424C14.0179 23.0375 11.2968 26.6871 11.5704 30.7418C11.8441 34.7965 15.0308 38.0475 19.0792 38.4019C23.1277 38.7563 26.8309 36.1086 27.8049 32.1631C28.1845 30.63 28.1122 29.0197 27.5966 27.5268C27.5435 27.3877 27.4233 27.2851 27.2776 27.2546C27.1319 27.224 26.9807 27.2697 26.8762 27.3758L23.1998 31.0539C23.1505 31.102 23.1141 31.1617 23.0939 31.2275C22.5591 32.9281 20.8231 33.9472 19.0774 33.5853C17.3318 33.2233 16.1441 31.598 16.3295 29.8249C16.5149 28.0519 18.0132 26.7074 19.7959 26.7144C20.0013 26.7147 20.2063 26.7327 20.4086 26.7682C20.5672 26.7976 20.6965 26.9122 20.7449 27.0659C20.7932 27.2197 20.7527 27.3877 20.6395 27.5025L19.1016 29.0404C18.8574 29.2843 18.7201 29.6152 18.7201 29.9604C18.7201 30.3055 18.8574 30.6365 19.1016 30.8803C19.615 31.377 20.4298 31.377 20.9433 30.8803L33.6597 18.1622C33.7413 18.081 33.8518 18.0355 33.9669 18.0355H39.7575C39.9755 18.0357 40.1856 17.9539 40.346 17.8063L45.5534 13.0208C45.7792 12.8128 45.8784 12.501 45.8142 12.2008C45.75 11.9006 45.532 11.6566 45.2409 11.5592L40.3356 9.92411C40.2065 9.8802 40.1052 9.77888 40.0613 9.64985L38.4244 4.74277C38.3273 4.45099 38.083 4.23242 37.7822 4.16822C37.4815 4.10608 37.1702 4.20546 36.9612 4.43032L32.1739 9.6377C32.0273 9.79794 31.9462 10.0073 31.9465 10.2244V16.015C31.9457 16.13 31.9003 16.2402 31.8198 16.3222L30.1517 17.9903C29.9946 18.146 29.7457 18.1587 29.5736 18.0198C23.3931 13.0352 14.4552 13.485 8.80634 19.065C3.15746 24.645 2.59803 33.5767 7.5065 39.8179Z" fill="url(#paint0_linear)"/>
<defs>
<linearGradient id="paint0_linear" x1="8.25158" y1="4.96756" x2="8.25158" y2="38.4914" gradientUnits="userSpaceOnUse">
<stop stop-color="#6CA7EF"/>
<stop offset="1" stop-color="#6F82F2"/>
</linearGradient>
</defs>
</svg>
