<?xml version="1.0" encoding="UTF-8"?>
<svg width="634px" height="776px" viewBox="0 0 634 776" version="1.1" xmlns="http://www.w3.org/2000/svg" xmlns:xlink="http://www.w3.org/1999/xlink">
    <title>Group 8</title>
    <defs>
        <linearGradient x1="50%" y1="0%" x2="50%" y2="83.4544362%" id="linearGradient-1">
            <stop stop-color="#96F1C3" offset="0%"></stop>
            <stop stop-color="#58E39D" offset="100%"></stop>
        </linearGradient>
        <path d="M634,0 L633.999447,734.172443 C601.097879,768.401426 581.648475,776 541.261012,776 C507.701273,776 477.722017,751.910936 451.323244,703.732808 L451.323244,703.732808 L0,0 L634,0 Z" id="path-2"></path>
        <path d="M3.144,2.682 L2.872,2.641 C1.929,2.243 1.376,2.058 1.371,2.056 C1.082,1.959 0.926,1.647 1.022,1.358 C1.1,1.127 1.315,0.98 1.546,0.98 C1.603,0.98 1.662,0.99 1.72,1.009 C1.744,1.017 2.313,1.208 3.302,1.624 C3.582,1.743 3.714,2.066 3.596,2.347 C3.514,2.539 3.338,2.661 3.144,2.682 L3.144,2.682 Z" id="path-4"></path>
    </defs>
    <g id="Page-2" stroke="none" stroke-width="1" fill="none" fill-rule="evenodd">
        <g id="Message-Registry-Features" transform="translate(-806.000000, -2297.000000)">
            <g id="section4" transform="translate(102.000000, 2297.000000)">
                <g transform="translate(77.000000, 0.000000)" id="Group-8">
                    <g transform="translate(627.000000, 0.000000)">
                        <g id="section4-bg" transform="translate(317.000000, 388.000000) scale(1, -1) translate(-317.000000, -388.000000) ">
                            <mask id="mask-3" fill="white">
                                <use xlink:href="#path-2"></use>
                            </mask>
                            <use id="Combined-Shape" fill="url(#linearGradient-1)" xlink:href="#path-2"></use>
                        </g>
                        <g id="Group" transform="translate(83.000000, 224.000000)">
                            <path d="M456.302,350.302 C456.302,365.386 354.156,377.613 228.151,377.613 C102.147,377.613 -1.70530257e-13,365.386 -1.70530257e-13,350.302 C-1.70530257e-13,335.219 102.147,322.991 228.151,322.991 C354.156,322.991 456.302,335.219 456.302,350.302" id="Fill-4" fill="#C5FFE2"></path>
                            <path d="M172.021,22.141 C172.021,23.219 171.581,24.202 170.866,24.914 C170.158,25.629 169.176,26.069 168.097,26.069 L84.114,26.069 C81.957,26.069 80.19,24.302 80.19,22.141 C80.19,21.062 80.63,20.079 81.345,19.367 C82.053,18.651 83.036,18.211 84.114,18.211 L88.084,18.211 C89.651,14.568 93.272,12.022 97.486,12.022 C100.323,12.022 102.887,13.177 104.745,15.04 C107.219,10.844 111.782,8.025 117.007,8.025 C118.443,8.025 119.825,8.243 121.13,8.637 C123.863,3.498 129.264,1.97175609e-13 135.49,1.97175609e-13 C142.967,1.97175609e-13 149.256,5.048 151.155,11.917 C152.532,11.229 154.086,10.835 155.736,10.835 C160.398,10.835 164.331,13.948 165.568,18.211 L168.097,18.211 C170.254,18.211 172.021,19.979 172.021,22.141 C145.136333,15.325 131.694,11.917 131.694,11.917" id="Fill-5" fill="#C5FFE2"></path>
                            <path d="M340.194,22.14 C340.194,23.219 339.754,24.202 339.038,24.914 C338.331,25.629 337.348,26.069 336.27,26.069 L252.287,26.069 C250.13,26.069 248.363,24.302 248.363,22.14 C248.363,21.062 248.803,20.079 249.519,19.367 C250.225,18.651 251.208,18.211 252.287,18.211 L256.256,18.211 C257.825,14.568 261.445,12.022 265.658,12.022 C268.495,12.022 271.06,13.177 272.918,15.04 C275.392,10.844 279.955,8.025 285.18,8.025 C286.616,8.025 287.998,8.243 289.303,8.637 C292.035,3.498 297.437,1.97175609e-13 303.662,1.97175609e-13 C311.14,1.97175609e-13 317.429,5.048 319.327,11.918 C320.705,11.229 322.259,10.835 323.908,10.835 C328.572,10.835 332.504,13.948 333.741,18.211 L336.27,18.211 C338.427,18.211 340.194,19.979 340.194,22.14" id="Fill-7" fill="#C5FFE2"></path>
                            <path d="M76.158,104.305 C76.051,104.44 75.941,104.565 75.827,104.678 C72.578,107.897 66.944,95.568 72.15,83.23 C77.356,70.892 73.067,54.592 66.085,53.957 C59.104,53.321 65.174,64.166 56.175,62.501 C47.176,60.837 45.789,36.864 34.176,38.188 C24.012,39.343 30.526,57.099 35.575,64.581 C40.339,71.642 38.925,78.824 33.576,77.253 C28.229,75.686 22.884,83.108 30.845,94.637 C38.806,106.165 49.588,117.639 44.399,118.962 C39.21,120.288 28.415,108.956 23.817,122.367 C21.761,128.361 34.822,149.106 63.809,150.748 L76.158,137.373 L76.158,104.305" id="Fill-8" fill="#FFD570"></path>
                            <path d="M72.761,137.373 C60.524,104.894 39.955,55.132 39.705,54.527 C39.547,54.146 39.727,53.707 40.11,53.548 C40.493,53.39 40.93,53.573 41.088,53.956 C41.34,54.565 62.135,104.869 74.362,137.373 L72.761,137.373" id="Fill-9" fill="#F4B829"></path>
                            <path d="M57.277,97.793 L57.232,97.788 C56.774,97.718 45.917,96.042 38.56,92.014 C38.197,91.815 38.064,91.36 38.263,90.997 C38.462,90.634 38.917,90.501 39.28,90.7 C46.401,94.599 57.347,96.29 57.457,96.306 C57.866,96.368 58.147,96.75 58.085,97.159 C58.025,97.553 57.669,97.829 57.277,97.793" id="Fill-11" fill="#F4B829"></path>
                            <path d="M76.158,120.828 C73.001,124.621 69.623,127.542 69.566,127.59 C69.252,127.86 69.216,128.333 69.485,128.647 C69.617,128.801 69.798,128.888 69.986,128.905 C70.18,128.923 70.382,128.865 70.541,128.728 C70.751,128.548 73.37,126.283 76.158,123.143 L76.158,120.828" id="Fill-12" fill="#A4BDD9"></path>
                            <path d="M60.646,135.356 C56.379,134.968 51.681,134.15 47.816,132.505 C47.436,132.343 47.259,131.903 47.42,131.522 C47.582,131.142 48.023,130.964 48.403,131.126 C57.626,135.051 72.389,134.058 72.537,134.048 C72.948,134.019 73.308,134.33 73.337,134.742 C73.367,135.155 73.056,135.513 72.643,135.542 C72.274,135.569 66.927,135.928 60.646,135.356" id="Fill-13" fill="#A4BDD9"></path>
                            <path d="M234.424,39.705 C234.825,22.434 232.022,6.007 223.843,10.798 C215.657,15.594 221.015,43.77 234.173,61.553 L237.202,68.672 C227.839,55.545 210.481,45.21 204.12,50.145 C197.801,55.048 209.981,60.878 221.993,64.348 C231.138,66.989 236.519,70.814 239.054,73.024 L253.362,106.649 C238.475,85.904 211.059,69.62 200.996,77.427 C190.968,85.208 210.294,94.459 229.355,99.964 C243.759,104.125 252.283,110.139 256.343,113.657 L259.196,120.361 C260.436,120.049 261.674,119.73 262.909,119.402 L245.888,79.398 C246.507,75.79 247.914,70.804 251.035,64.882 C256.866,53.82 261.11,41.001 253.195,42.155 C246.325,43.156 241.966,57.925 242.798,72.135 L236.911,58.3 C235.821,53.709 234.251,47.159 234.424,39.705" id="Fill-21" fill="#F4B829"></path>
                            <path d="M31.141,231.281 C26.985,214.513 19.959,199.402 13.329,206.176 C6.692,212.956 19.273,238.73 36.646,252.426 L41.441,258.498 C28.955,248.296 9.489,242.892 4.651,249.325 C-0.157,255.718 13.128,258.139 25.631,258.326 C35.148,258.47 41.345,260.744 44.372,262.209 L67.021,290.887 C47.202,274.788 16.468,266.289 8.813,276.469 C1.185,286.613 22.264,290.454 42.102,290.752 C57.093,290.978 66.9,294.537 71.741,296.863 L76.257,302.581 C77.371,301.954 78.482,301.32 79.588,300.679 L52.642,266.561 C52.291,262.917 52.337,257.736 53.79,251.202 C56.505,238.996 57.228,225.513 49.895,228.707 C43.532,231.48 43.21,246.876 47.751,260.367 L38.432,248.567 C36.172,244.426 32.935,238.519 31.141,231.281" id="Fill-22" fill="#F4B829"></path>
                            <path d="M406.527,116.682 L406.527,305.555 C406.527,313.341 400.215,319.652 392.427,319.652 L70.545,319.652 C62.757,319.652 56.446,313.341 56.446,305.555 L56.446,116.682 C56.446,108.894 62.757,102.582 70.545,102.582 L392.427,102.582 C400.215,102.582 406.527,108.894 406.527,116.682" id="Fill-23" fill="#3D3B6A"></path>
                            <path d="M406.527,211.115 L406.527,305.554 C406.527,313.341 400.215,319.652 392.428,319.652 L70.544,319.652 C62.758,319.652 56.446,313.341 56.446,305.554 L56.446,211.115 L406.527,211.115" id="Fill-24" fill="#2F2D4F"></path>
                            <path d="M390.976,126.281 L390.976,295.953 C390.976,300.944 386.93,304.994 381.938,304.994 L81.038,304.994 C78.37,304.994 75.97,303.838 74.316,301.991 C72.872,300.396 71.997,298.274 71.997,295.953 L71.997,126.281 C71.997,121.289 76.046,117.24 81.038,117.24 L381.938,117.24 C383.607,117.24 385.168,117.693 386.51,118.484 C389.181,120.054 390.976,122.961 390.976,126.281" id="Fill-25" fill="#FFFFFE"></path>
                            <path d="M390.976,126.281 L390.976,295.953 C390.976,300.944 386.93,304.994 381.938,304.994 L81.038,304.994 C78.37,304.994 75.97,303.838 74.316,301.991 C72.872,300.396 71.997,298.274 71.997,295.953 L71.997,126.281 C71.997,121.289 76.046,117.24 81.038,117.24 L381.938,117.24 C383.607,117.24 385.168,117.693 386.51,118.484 C389.181,120.054 390.976,122.961 390.976,126.281" id="Fill-26" fill="#FFFFFE"></path>
                            <path d="M82.184,189.524 L82.184,189.524 C82.184,190.877 83.281,191.974 84.633,191.974 L136.575,191.974 C137.928,191.974 139.024,190.877 139.024,189.524 C139.024,188.172 137.928,187.075 136.575,187.075 L84.633,187.075 C83.281,187.075 82.184,188.172 82.184,189.524" id="Fill-27" fill="#C8D4E3"></path>
                            <path d="M82.184,202.022 L82.184,202.022 C82.184,203.375 83.281,204.472 84.633,204.472 L136.575,204.472 C137.928,204.472 139.024,203.375 139.024,202.022 C139.024,200.671 137.928,199.574 136.575,199.574 L84.633,199.574 C83.281,199.574 82.184,200.671 82.184,202.022" id="Fill-28" fill="#C8D4E3"></path>
                            <path d="M82.184,214.187 L82.184,214.187 C82.184,215.354 83.266,216.3 84.6,216.3 L135.84,216.3 C137.174,216.3 138.256,215.354 138.256,214.187 C138.256,213.019 137.174,212.072 135.84,212.072 L84.6,212.072 C83.266,212.072 82.184,213.019 82.184,214.187" id="Fill-29" fill="#C8D4E3"></path>
                            <path d="M82.184,232.867 L82.184,232.867 C82.184,234.22 83.281,235.316 84.633,235.316 L136.575,235.316 C137.928,235.316 139.024,234.22 139.024,232.867 C139.024,231.515 137.928,230.418 136.575,230.418 L84.633,230.418 C83.281,230.418 82.184,231.515 82.184,232.867" id="Fill-30" fill="#C8D4E3"></path>
                            <path d="M82.184,245.365 L82.184,245.365 C82.184,246.719 83.281,247.814 84.633,247.814 L136.575,247.814 C137.928,247.814 139.024,246.719 139.024,245.365 C139.024,244.013 137.928,242.917 136.575,242.917 L84.633,242.917 C83.281,242.917 82.184,244.013 82.184,245.365" id="Fill-31" fill="#C8D4E3"></path>
                            <path d="M82.184,257.864 L82.184,257.864 C82.184,259.217 83.281,260.313 84.633,260.313 L136.575,260.313 C137.928,260.313 139.024,259.217 139.024,257.864 C139.024,256.512 137.928,255.415 136.575,255.415 L84.633,255.415 C83.281,255.415 82.184,256.512 82.184,257.864" id="Fill-32" fill="#C8D4E3"></path>
                            <path d="M390.976,126.281 L390.976,135.716 L71.997,135.716 L71.997,126.281 C71.997,121.289 76.046,117.24 81.038,117.24 L381.938,117.24 C383.607,117.24 385.168,117.693 386.51,118.484 C389.181,120.054 390.976,122.961 390.976,126.281" id="Fill-39" fill="#C8D4E3"></path>
                            <path d="M389.344,121.109 L73.628,121.109 C75.259,118.77 77.969,117.241 81.039,117.241 L381.937,117.241 C385.006,117.241 387.718,118.77 389.344,121.109" id="Fill-40" fill="#201E39"></path>
                            <polyline id="Fill-44" fill="#C8D4E3" points="315.567 181.022 315.567 295.796 149.329 295.796 149.329 181.022 156.974 181.022 156.904 180.959 156.987 181.022 315.567 181.022"></polyline>
                            <polygon id="Fill-45" fill="#5C7DCD" points="149.412 291.131 315.567 291.131 315.567 176.357 149.412 176.357"></polygon>
                            <polygon id="Fill-46" fill="#7095EE" points="149.412 286.928 315.567 286.928 315.567 172.155 149.412 172.155"></polygon>
                            <polyline id="Fill-49" fill="#5C7DCD" points="216.483 231.552 154.225 286.928 149.412 286.928 149.412 284.002 212.904 227.531 216.483 231.552"></polyline>
                            <polyline id="Fill-50" fill="#5C7DCD" points="315.567 284.391 315.567 286.928 310.319 286.928 248.061 231.552 251.64 227.531 315.567 284.391"></polyline>
                            <path d="M315.562,172.154 L237.961,241.17 C234.839,243.949 230.132,243.949 227.008,241.17 L149.407,172.154 L315.562,172.154" id="Fill-51" fill="#5C7DCD"></path>
                            <path d="M290.391,153.817 L290.391,194.541 L274.415,208.747 L268.909,213.646 L246.311,233.743 L240.805,238.642 L237.961,241.17 C234.839,243.949 230.132,243.949 227.008,241.17 L224.164,238.642 L218.658,233.743 L210.112,226.144 L204.606,221.245 L196.06,213.646 L190.554,208.747 L174.588,194.548 L174.588,153.817 C174.588,150.149 177.561,147.176 181.229,147.176 L283.75,147.176 C287.419,147.176 290.391,150.149 290.391,153.817" id="Fill-52" fill="#C8D4E3"></path>
                            <path d="M216.538,163.033 L188.481,163.033 C187.26,163.033 186.269,162.042 186.269,160.821 L186.269,160.348 C186.269,159.126 187.26,158.135 188.482,158.135 L216.538,158.135 C217.76,158.135 218.751,159.126 218.751,160.348 L218.751,160.821 C218.751,162.042 217.76,163.033 216.538,163.033" id="Fill-53" fill="#A4BDD9"></path>
                            <path d="M279.976,176.149 L188.718,176.149 C187.366,176.149 186.269,175.053 186.269,173.7 C186.269,172.348 187.366,171.251 188.718,171.251 L279.976,171.251 C281.328,171.251 282.425,172.348 282.425,173.7 C282.425,175.053 281.328,176.149 279.976,176.149" id="Fill-54" fill="#A4BDD9"></path>
                            <path d="M279.976,188.647 L188.718,188.647 C187.366,188.647 186.269,187.552 186.269,186.198 C186.269,184.846 187.366,183.75 188.718,183.75 L279.976,183.75 C281.328,183.75 282.425,184.846 282.425,186.198 C282.425,187.552 281.328,188.647 279.976,188.647" id="Fill-55" fill="#A4BDD9"></path>
                            <path d="M279.976,201.146 L188.718,201.146 C187.366,201.146 186.269,200.05 186.269,198.697 C186.269,197.345 187.366,196.248 188.718,196.248 L279.976,196.248 C281.328,196.248 282.425,197.345 282.425,198.697 C282.425,200.05 281.328,201.146 279.976,201.146" id="Fill-56" fill="#A4BDD9"></path>
                            <polyline id="Fill-57" fill="#A4BDD9" points="274.415 208.747 268.909 213.646 196.06 213.646 190.554 208.747 274.415 208.747"></polyline>
                            <polyline id="Fill-58" fill="#A4BDD9" points="260.364 221.245 254.857 226.144 210.112 226.144 204.606 221.245 260.364 221.245"></polyline>
                            <polyline id="Fill-59" fill="#A4BDD9" points="246.311 233.743 240.805 238.642 224.164 238.642 218.658 233.743 246.311 233.743"></polyline>
                            <path d="M289.228,160.274 L288.331,160.274 C280.385,160.274 273.944,153.833 273.944,145.886 L273.944,144.989 C273.944,137.043 280.385,130.602 288.331,130.602 L289.228,130.602 C297.174,130.602 303.616,137.043 303.616,144.989 L303.616,145.887 C303.616,153.833 297.174,160.274 289.228,160.274" id="Fill-60" fill="#415091"></path>
                            <path d="M291.851,160.274 L290.954,160.274 C283.008,160.274 276.567,153.833 276.567,145.886 L276.567,144.989 C276.567,137.043 283.008,130.602 290.954,130.602 L291.851,130.602 C299.797,130.602 306.239,137.043 306.239,144.989 L306.239,145.887 C306.239,153.833 299.797,160.274 291.851,160.274" id="Fill-61" fill="#59649F"></path>
                            <path d="M439.228,312.105 L439.228,313.312 C439.228,319.319 437.301,324.876 434.03,329.395 C429.04,336.296 420.921,340.785 411.754,340.785 L51.218,340.785 C42.051,340.785 33.932,336.296 28.943,329.395 C25.672,324.876 23.744,319.319 23.744,313.312 L23.744,312.105 L439.228,312.105" id="Fill-62" fill="#2F2D4F"></path>
                            <path d="M184.92,312.105 L184.92,312.38 C184.92,314.556 186.377,316.319 188.173,316.319 L272.992,316.319 C274.789,316.319 276.246,314.556 276.246,312.38 L276.246,312.105 L184.92,312.105" id="Fill-63" fill="#FFFFFE"></path>
                            <path d="M434.03,329.395 C429.04,336.296 420.921,340.785 411.754,340.785 L51.218,340.785 C42.051,340.785 33.932,336.296 28.943,329.395 L434.03,329.395" id="Fill-64" fill="#201E39"></path>
                            <polyline id="Fill-65" fill="#EB9E78" points="55.319 294.371 51.679 302.159 59.373 302.279 62.341 295.191 55.319 294.371"></polyline>
                            <path d="M54.101,301.672 C54.101,301.672 52.521,299.55 51.266,299.641 C50.011,299.731 40.33,307.429 37.013,308.063 C33.696,308.699 34.004,312.078 35.392,312.078 C39.39,312.078 61.407,311.919 61.407,311.919 C61.407,311.919 62.116,304.225 61.272,301.871 C60.427,299.518 56.696,302.23 54.101,301.672" id="Fill-66" fill="#59649F"></path>
                            <path d="M48.75,307.043 C48.867,307.078 48.999,307.067 49.114,307.002 C49.336,306.875 49.414,306.592 49.287,306.368 C49.245,306.294 48.232,304.535 46.868,303.848 C45.054,302.932 43.64,303.957 43.58,304.001 C43.375,304.153 43.332,304.445 43.485,304.651 C43.637,304.857 43.929,304.9 44.135,304.747 C44.173,304.719 45.158,304.027 46.45,304.678 C47.561,305.237 48.471,306.813 48.48,306.829 C48.541,306.937 48.64,307.01 48.75,307.043" id="Fill-67" fill="#FFFFFE"></path>
                            <path d="M50.135,305.735 C50.252,305.771 50.383,305.759 50.498,305.693 C50.721,305.566 50.799,305.283 50.672,305.06 C50.63,304.985 49.616,303.227 48.253,302.539 C46.438,301.622 45.025,302.648 44.966,302.692 C44.76,302.845 44.717,303.137 44.87,303.343 C45.022,303.548 45.314,303.592 45.52,303.438 C45.558,303.41 46.544,302.719 47.835,303.369 C48.951,303.932 49.855,305.504 49.864,305.521 C49.926,305.628 50.025,305.702 50.135,305.735" id="Fill-68" fill="#FFFFFE"></path>
                            <path d="M46.873,308.105 C46.991,308.141 47.121,308.129 47.236,308.064 C47.459,307.937 47.537,307.653 47.41,307.431 C47.367,307.355 46.355,305.597 44.991,304.909 C43.176,303.992 41.763,305.019 41.703,305.063 C41.497,305.215 41.454,305.507 41.608,305.712 C41.76,305.918 42.052,305.962 42.258,305.808 C42.296,305.78 43.282,305.089 44.573,305.739 C45.689,306.302 46.593,307.874 46.602,307.89 C46.664,307.998 46.763,308.072 46.873,308.105" id="Fill-69" fill="#FFFFFE"></path>
                            <path d="M53.126,296.91 L56.535,298.021 L58.43,298.135 L61.686,298.325 C65.989,294.922 77.597,284.681 79.858,278.642 C79.858,278.642 90.695,308.125 111.343,308.125 C112.683,308.125 113.242,296.091 109.875,292.496 C109.875,292.496 90.843,257.025 78.504,260.79 C72.979,262.477 67.389,270.521 53.126,296.91" id="Fill-70" fill="#2F2D4F"></path>
                            <path d="M56.535,298.021 L58.43,298.135 C71.096,288.543 76.964,280.422 79.665,275.219 C79.758,275.038 79.91,274.98 80.012,274.982 C80.1,274.984 80.164,275.033 80.205,275.136 C86.271,289.414 93.549,297.982 98.588,302.659 C104.079,307.755 108.095,309.434 108.262,309.505 L108.494,308.938 L108.726,308.373 C108.687,308.355 104.702,306.682 99.36,301.708 C94.427,297.117 87.293,288.697 81.33,274.657 C81.103,274.116 80.626,273.781 80.059,273.76 C79.448,273.735 78.876,274.087 78.58,274.654 C75.856,279.901 69.822,288.191 56.535,298.021" id="Fill-71" fill="#201E39"></path>
                            <path d="M65.102,296.003 C64.56,297.017 63.628,298.448 62.739,299.14 C62.739,299.14 55.445,298.804 51.898,297.021 L53.489,293.313 C53.489,293.313 59.295,295.433 65.102,296.003" id="Fill-72" fill="#3D3B6A"></path>
                            <path d="M110.827,232.188 C110.827,232.188 96.692,249.062 90.755,251.834 C88.149,253.051 85.575,253.48 83.674,253.548 C83.036,253.571 81.376,253.437 81.285,253.435 L81.271,253.437 C74.218,252.563 65.928,250.439 55.555,246.216 L57.101,241.411 C57.101,241.411 63.334,242.735 70.97,243.281 C73.786,243.48 80.283,243.776 82.684,244.165 C83.28,243.898 83.865,243.608 84.436,243.296 C94.976,237.607 101.933,226.024 101.933,226.024 C105.268,227.276 109.098,229.616 110.827,232.188" id="Fill-73" fill="#3469E9"></path>
                            <path d="M57.364,241.03 C57.364,241.03 55.919,237.383 53.954,236.341 C51.99,235.3 46.398,231.635 45.204,232.731 C44.01,233.828 44.258,239.096 49.27,243.498 C52.464,246.303 55.681,246.185 55.681,246.185 L57.364,241.03" id="Fill-74" fill="#EB9E78"></path>
                            <path d="M44.846,236.082 L53.1,243.793 C53.41,244.085 53.97,244.169 54.354,243.983 L59.412,241.537 C59.569,241.46 59.673,241.351 59.716,241.227 L59.728,241.187 L59.976,240.341 L58.634,239.832 L45.648,234.899 L44.944,234.635 L44.68,235.527 L44.66,235.589 L44.657,235.611 C44.627,235.769 44.691,235.938 44.846,236.082" id="Fill-75" fill="#2F2D4F"></path>
                            <path d="M54.605,243.126 L59.666,240.679 C60.048,240.494 60.106,240.11 59.797,239.821 L51.542,232.11 C51.233,231.821 50.673,231.736 50.291,231.921 L45.231,234.368 C44.849,234.553 44.791,234.937 45.1,235.226 L53.354,242.937 C53.664,243.226 54.224,243.311 54.605,243.126" id="Fill-76" fill="#3D3B6A"></path>
                            <path d="M53.991,241.744 L57.912,239.849 C58.294,239.664 58.352,239.28 58.043,238.991 L51.623,232.994 C51.314,232.705 50.754,232.62 50.372,232.805 L46.451,234.7 C46.07,234.885 46.011,235.269 46.321,235.558 L52.741,241.555 C53.05,241.844 53.61,241.929 53.991,241.744" id="Fill-77" fill="#4F5683"></path>
                            <path d="M54.095,234.496 C54.095,234.496 52.92,234.679 52.8,235.689 C52.681,236.701 53.774,236.299 54.477,236.076 C55.18,235.854 55.814,236.077 55.911,236.191 C56.218,236.554 56.165,234.196 54.095,234.496" id="Fill-78" fill="#EB9E78"></path>
                            <path d="M48.84,239.985 C48.84,239.985 46.994,236.953 45.58,235.297 C44.638,234.193 44.157,235.794 44.802,236.91 C45.447,238.026 46.718,240.3 48.84,239.985" id="Fill-79" fill="#EB9E78"></path>
                            <path d="M120.75,214.71 C120.75,214.71 129.658,214.755 133.718,218.427 C137.779,222.098 133.904,229.557 129.498,230.513 C125.093,231.468 111.339,229.838 109.908,227.48 C108.478,225.123 109.386,214.892 120.75,214.71" id="Fill-80" fill="#59649F"></path>
                            <path d="M134.798,294.652 L139.129,266.73 L138.19,228.211 L127.83,224.708 L127.273,224.52 L124.949,223.733 L123.103,223.109 L112.164,224.616 L110.385,224.86 L109.757,224.946 L101.932,226.023 C101.859,250.78 104.235,256.127 99.659,276.265 C97.358,283.859 105.805,310.76 134.798,294.652" id="Fill-81" fill="#3469E9"></path>
                            <path d="M120.007,230.62 C127.845,230.591 129.663,223.685 129.681,223.614 C129.72,223.459 129.626,223.303 129.47,223.264 C129.317,223.224 129.159,223.318 129.12,223.474 C129.052,223.742 127.383,230.015 120.008,230.042 L119.886,230.042 C119.731,230.05 119.596,230.169 119.595,230.329 C119.595,230.489 119.723,230.619 119.883,230.62 L120.007,230.62" id="Fill-82" fill="#415091"></path>
                            <path d="M112.644,229.538 C112.801,229.537 112.929,229.411 112.932023,229.253 C112.934,229.094 112.807,228.963 112.648,228.96 C112.544,228.957 110.266,228.865 109.677,225.785 C109.647,225.629 109.497,225.525 109.339,225.556 C109.182,225.586 109.079,225.737 109.11,225.894 C109.79,229.455 112.61,229.538 112.638,229.538 L112.644,229.538" id="Fill-83" fill="#415091"></path>
                            <path d="M125.298,268.616 C125.298,268.616 126.571,278.333 123.979,283.088 C123.979,283.088 111.09,283.99 101.719,280.307 C101.719,280.307 104.06,273.523 104.096,266.901 L125.298,268.616" id="Fill-84" fill="#415091"></path>
                            <path d="M118.415,258.332007 L118.44,258.331 C118.599,258.316 118.717,258.176 118.702,258.017 C118.054,250.813 120.753,232.626 120.78,232.443 C120.804,232.285 120.695,232.138 120.537,232.114 C120.379,232.091 120.232,232.199 120.208,232.357 C120.181,232.541 117.472,250.797 118.126,258.068 C118.14,258.22 118.266,258.333 118.415,258.332007" id="Fill-85" fill="#FFFFFE"></path>
                            <path d="M108.883,256.921007 L108.908,256.92 C109.066,256.906 109.184,256.766 109.17,256.606 C108.521,249.402 111.312,231.073 111.34,230.889 C111.364,230.73 111.256,230.583 111.098,230.56 C110.94,230.535 110.793,230.644 110.768,230.802 C110.74,230.986 107.939,249.386 108.594,256.658 C108.607,256.809 108.734,256.922 108.883,256.921007" id="Fill-86" fill="#FFFFFE"></path>
                            <path d="M145.996,304.4 C145.996,304.4 142.786,308.752 143.051,311.004 C143.316,313.256 146.222,317.499 148.545,317.704 C150.868,317.908 145.876,312.251 147.054,312.434 C148.48,312.654 158.105,320.552 160.137,320.552 C162.168,320.552 157.746,316.882 156.024,315.954 C156.024,315.954 160.578,317.991 161.638,319.051 C162.698,320.11 163.468,317.837 158.169,314.614 C158.169,314.614 163.029,317.373 163.36,317.417 C164.441,317.561 161.357,313.944 158.701,312.637 C158.701,312.637 162.597,314.534 162.993,314.542 C163.541,314.554 162.366,313.279 159.474,311.676 C156.873,310.234 152.611,303.614 152.611,303.614 L145.996,304.4" id="Fill-87" fill="#EB9E78"></path>
                            <path d="M138.19,228.211 C138.19,228.211 148.991,248.959 151.451,270.661 L152.611,303.614 C152.611,303.614 151.5,305.963 145.996,304.4 L140.672,271.452 L136.592,256.376 C136.592,256.376 134.738,237.823 138.19,228.211" id="Fill-88" fill="#3469E9"></path>
                            <path d="M105.012,205.777 C106.16,212.269 112.352,216.601 118.844,215.453 C125.335,214.306 129.667,208.113 128.52,201.622 C127.372,195.131 121.179,190.799 114.688,191.946 C108.197,193.094 103.865,199.286 105.012,205.777" id="Fill-89" fill="#201E39"></path>
                            <path d="M104.832,203.637 C104.832,203.637 101.341,203.306 101.209,199.998 C101.096,197.182 104.641,198.394 103.977,196.295 C103.314,194.196 102.338,192.355 105.022,191.325 C107.371,190.426 107.706,192.085 110.471,189.104 C113.739,185.58 117.806,191.682 121.208,191.285 C126.225,190.7 127.348,193.397 128.234,195.558 C129.119,197.719 127.486,199.632 127.486,199.632 L104.832,203.637" id="Fill-90" fill="#201E39"></path>
                            <path d="M107.569,208.718 C107.569,208.718 105.268,206.564 104.246,208.861 C103.225,211.159 106.254,216.876 109.382,214.797 L107.569,208.718" id="Fill-91" fill="#E5745F"></path>
                            <path d="M108.31,213.054 C108.185,213.076 108.055,213.014 107.998,212.894 C107.141,211.115 105.068,210.698 105.047,210.694 C104.89,210.664 104.786,210.513 104.816,210.355 C104.846,210.197 104.998,210.094 105.156,210.123 C105.252,210.142 107.536,210.593 108.522,212.642 C108.592,212.786 108.531,212.96 108.386,213.029 L108.31,213.054" id="Fill-92" fill="#E0574D"></path>
                            <path d="M106.186,212.457 L106.023,212.439 C105.875,212.377 105.805,212.206 105.867,212.059 C105.878,212.033 106.129,211.449 106.789,211.002 C106.922,210.911 107.103,210.946 107.193,211.079 C107.283,211.212 107.249,211.393 107.116,211.483 C106.605,211.83 106.406,212.279 106.404,212.283 C106.364,212.378 106.281,212.44 106.186,212.457" id="Fill-93" fill="#E0574D"></path>
                            <path d="M123.078,217.679 L124.144,223.708 C124.144,223.708 122.135,226.804 119.74,227.442 C117.348,228.084 115.36,225.459 115.36,225.459 L114.335,219.661 L123.078,217.679" id="Fill-94" fill="#EB9E78"></path>
                            <path d="M123.078,217.679 L123.551,220.354 C122.24,222.453 119.422,223.418 115.022,223.542 L114.335,219.661 L123.078,217.679" id="Fill-95" fill="#E5745F"></path>
                            <path d="M126.698,201.071 C127,203.434 127.294,206.403 127.262,208.825 C127.253,209.43 127.224,210.002 127.171,210.519 C126.688,215.186 124.861,223.365 115.415,221.763 C111.243,221.056 108.652,217.006 107.055,212.704 C105.972,209.782 105.349,206.747 105.004,204.56 C104.654,202.327 105.509,200.078 107.251,198.64 C111.97,194.739 117.7,194.869 121.591,195.626 C124.292,196.149 126.349,198.347 126.698,201.071" id="Fill-96" fill="#EB9E78"></path>
                            <path d="M112.174,208.715 C112.288,209.358 112.048,209.938 111.639,210.012 C111.23,210.084 110.806,209.62 110.692,208.977 C110.578,208.333 110.818,207.753 111.227,207.681 C111.637,207.608 112.06,208.071 112.174,208.715" id="Fill-97" fill="#201E39"></path>
                            <path d="M120.85,207.182 C120.964,207.825 120.724,208.405 120.315,208.478 C119.906,208.55 119.482,208.087 119.368,207.443 C119.254,206.8 119.494,206.22 119.903,206.146 C120.312,206.074 120.736,206.538 120.85,207.182" id="Fill-98" fill="#201E39"></path>
                            <path d="M108.39,205.693 C108.39,205.693 111.259,203.93 113.815,204.535 L113.812,205.673 C113.812,205.673 111.138,205.554 108.786,206.938 C108.539,206.457 108.283,206.251 108.39,205.693" id="Fill-99" fill="#201E39"></path>
                            <path d="M122.503,203.198 C122.503,203.198 119.204,202.524 117.011,203.971 L117.404,205.038 C117.404,205.038 119.874,204.009 122.558,204.503 C122.625,203.967 122.796,203.686 122.503,203.198" id="Fill-100" fill="#201E39"></path>
                            <path d="M117.089,212.575 C117.573,212.489 118.018,212.217 118.087,212.173 C118.223,212.088 118.263,211.908 118.178,211.772 C118.093,211.637 117.913,211.596 117.777,211.682 C117.537,211.832 116.945,212.106 116.647,211.993 C116.59,211.971 116.508,211.922 116.459,211.751 C116.179,210.77 115.86,207.368 115.857,207.334 C115.842,207.174 115.7,207.057 115.541,207.071 C115.38,207.086 115.263,207.228 115.278,207.388 C115.291,207.529 115.605,210.877 115.9,211.911 C116.011,212.3 116.255,212.466 116.44,212.536 C116.643,212.613 116.87,212.613 117.089,212.575" id="Fill-101" fill="#E5745F"></path>
                            <path d="M113.796,214.964 C114.238,216.101 115.399,218.13 118.02,217.667 C120.647,217.202 121.034,215.092 121.046,213.683 L113.796,214.964" id="Fill-102" fill="#FFFFFE"></path>
                            <path d="M118.249,219.168 C118.991,219.037 119.553,218.551 119.576,218.53 C119.697,218.424 119.709,218.24 119.603,218.12 C119.497,217.999 119.314,217.986 119.193,218.093 C119.189,218.097 118.725,218.493 118.148,218.596 C117.617,218.689 117.056,218.475 117.051,218.473 C116.902,218.413 116.733,218.486 116.673,218.636 C116.614,218.784 116.687,218.954 116.836,219.013 C116.865,219.024 117.549,219.292 118.249,219.168" id="Fill-103" fill="#E5745F"></path>
                            <path d="M107.612,210.681 C107.187,209.537 106.703,208.051 106.72,207.242 C106.755,205.81 107.757,204.794 107.139,203.528 C106.521,202.257 107.677,200.574 108.674,200.153 C109.668,199.73 112.185,199.817 114.371,198.262 C116.459,196.775 120.556,196.851 121.461,198.198 C122.555,199.831 121.522,200.187 123.992,201.724 C124.975,202.337 124.319,204.497 124.403,205.812 C124.443,206.416 124.485,206.707 124.62,207.34 L124.686,207.662 L127.238,207.211 C127.165,205.162 126.937,202.93 126.699,201.069 C126.35,198.346 124.291,196.151 121.591,195.626 C117.699,194.869 111.971,194.737 107.25,198.64 C105.509,200.08 104.653,202.326 105.005,204.56 C105.278,206.294 105.726,208.563 106.442,210.887 L107.612,210.681" id="Fill-104" fill="#201E39"></path>
                            <path d="M126.302,208.513 C126.176,207.848 126.105,207.172 126.105,206.494 C126.106,205.567 126.222,204.706 127.076,204.169 C127.762,203.736 128.552,203.591 129.261,204.325 C131.009,206.134 130.595,212.794 126.945,211.913 L126.302,208.513" id="Fill-105" fill="#EB9E78"></path>
                            <path d="M127.271,209.937 C127.389,209.891 127.468,209.77 127.454,209.637 C127.261,207.673 128.815,206.239 128.831,206.225 C128.95,206.117 128.959,205.933 128.851,205.814 C128.744,205.694 128.56,205.686 128.441,205.793 C128.368,205.858 126.653,207.432 126.876,209.694 C126.891,209.855 127.033,209.971 127.194,209.955 L127.271,209.937" id="Fill-106" fill="#E5745F"></path>
                            <path d="M128.775,208.322 L128.905,208.222 C128.999,208.092 128.97,207.91 128.84,207.815 C128.818,207.8 128.3,207.432 127.502,207.393 C127.343,207.385 127.206,207.509 127.198,207.669 C127.19,207.829 127.314,207.966 127.474,207.974 C128.091,208.004 128.494,208.284 128.498,208.287 L128.775,208.322" id="Fill-107" fill="#E5745F"></path>
                            <path d="M135.522,300.896 C135.334,301.749 135.007,302.62 134.504,303.489 C132.993,306.098 129.895,308.701 124.143,310.792 C112.22,315.123 89.421,313.089 89.421,313.089 C89.697,321.982 68.501,351.946 68.501,351.946 L67.46,351.273 L66.48,350.639 L62.394,347.997 C62.394,347.997 76.395,297.668 85.915,296.227 C119.596,291.131 134.798,294.651 134.798,294.651 C135.528,296.333 136.046,298.545 135.522,300.896" id="Fill-108" fill="#3D3B6A"></path>
                            <path d="M135.522,300.896 C135.334,301.749 135.007,302.62 134.504,303.489 C129.595,307.459 120.859,309.761 108.467,310.349 C99.315,310.779 90.984,310.089 88.782,309.88 C86.606,325.195 70.783,346.862 67.46,351.273 C67.145,351.69 66.945,351.951 66.875,352.042 C66.761,352.191 66.589,352.269 66.416,352.269 C66.292,352.269 66.166,352.228 66.06,352.145 C65.807,351.951 65.761,351.585 65.957,351.333 C65.975,351.31 66.161,351.069 66.48,350.639 C69.628,346.442 85.897,324.107 87.704,309.179 C87.741,308.861 88.027,308.637 88.341,308.671 C88.715,308.712 125.582,312.568 135.522,300.896" id="Fill-109" fill="#2F2D4F"></path>
                            <polyline id="Fill-110" fill="#EB9E78" points="63.183 347.996 58.2 353.827 64.151 357.392 68.501 351.945 63.183 347.996"></polyline>
                            <path d="M69.986,351.825 C69.253,353.539 68.741,354.091 67.582,354.937 C67.582,354.937 63.832,353.218 59.981,349.859 L62.394,346.601 C62.394,346.601 65.244,348.426 69.986,351.825" id="Fill-111" fill="#4F5683"></path>
                            <path d="M59.89,354.228 C59.89,354.228 59.585,351.6 58.452,351.05 C57.321,350.5 45.087,352.318 41.897,351.209 C38.707,350.1 37.282,353.179 38.485,353.873 C41.946,355.874 61.087,366.755 61.087,366.755 C61.087,366.755 65.552,360.448 65.999,357.988 C66.446,355.528 61.857,356.008 59.89,354.228" id="Fill-112" fill="#59649F"></path>
                            <path d="M52.569,356.199 C52.654,356.289 52.772,356.345 52.905,356.346014 C53.161,356.348 53.37,356.141 53.372,355.885 C53.373,355.799 53.376,353.769 52.539,352.491 C51.427,350.79 49.69,350.97 49.616,350.979 C49.362,351.008 49.179,351.238 49.208,351.493 C49.237,351.748 49.468,351.931 49.723,351.901 C49.77,351.896 50.969,351.791 51.762,353 C52.444,354.041 52.443,355.86 52.443,355.879 C52.442,356.003 52.491,356.116 52.569,356.199" id="Fill-113" fill="#FFFFFE"></path>
                            <path d="M54.423,355.76 C54.507,355.85 54.626,355.905 54.758,355.906004 C55.014,355.907 55.224,355.701 55.2260004,355.444 C55.2260004,355.358 55.23,353.329 54.393,352.052 C53.281,350.35 51.544,350.53 51.47,350.539 C51.216,350.568 51.032,350.799 51.062,351.054 C51.091,351.309 51.322,351.491 51.577,351.462 C51.624,351.457 52.824,351.352 53.616,352.561 C54.301,353.605 54.297,355.42 54.296,355.438 C54.296,355.563 54.344,355.676 54.423,355.76" id="Fill-114" fill="#FFFFFE"></path>
                            <path d="M50.412,356.18 C50.497,356.269 50.616,356.325014 50.748,356.325014 C51.004,356.327 51.214,356.121 51.2160004,355.864 C51.2160004,355.778 51.22,353.748 50.383,352.471 C49.271,350.769 47.533,350.949 47.46,350.958 C47.205,350.987 47.022,351.218 47.052,351.473 C47.081,351.728 47.311,351.91 47.567,351.881 C47.614,351.876 48.813,351.771 49.606,352.98 C50.29,354.025 50.286,355.84 50.286,355.857 C50.285,355.982 50.334,356.096 50.412,356.18" id="Fill-115" fill="#FFFFFE"></path>
                            <polyline id="Fill-184" fill="#415091" points="282.117 37.009 277.672 53.809 301.992 60.245 306.438 43.445 282.117 37.009"></polyline>
                            <polyline id="Fill-186" fill="#333F85" points="277.77 53.438 277.672 53.809 278.44 54.012 289.698 48.318 289.329 47.591 277.77 53.438"></polyline>
                            <polyline id="Fill-187" fill="#59649F" points="306.439 43.445 291.416 51.042 282.118 37.009 306.439 43.445"></polyline>
                            <path d="M9.933,209.361 C9.933,211.662 11.805,213.534 14.106,213.534 C16.407,213.534 18.279,211.662 18.279,209.361 C18.279,207.061 16.407,205.188 14.106,205.188 C11.805,205.188 9.933,207.061 9.933,209.361 Z M20.187,209.361 C20.187,212.714 17.459,215.442 14.106,215.442 C10.753,215.442 8.026,212.714 8.026,209.361 C8.026,206.009 10.753,203.281 14.106,203.281 C17.459,203.281 20.187,206.009 20.187,209.361 L20.187,209.361 Z" id="Fill-198" fill="#7095EE"></path>
                            <path d="M16.119,178.457 C16.119,180.758 17.991,182.63 20.292,182.63 C22.593,182.63 24.465,180.758 24.465,178.457 C24.465,176.156 22.593,174.284 20.292,174.284 C17.991,174.284 16.119,176.156 16.119,178.457 Z M26.373,178.457 C26.373,181.81 23.645,184.538 20.292,184.538 C16.939,184.538 14.212,181.81 14.212,178.457 C14.212,175.104 16.939,172.376 20.292,172.376 C23.645,172.376 26.373,175.104 26.373,178.457 L26.373,178.457 Z" id="Fill-199" fill="#7095EE"></path>
                            <path d="M38.788,163.813 C38.788,164.34 38.362,164.767 37.835,164.767 L33.628,164.767 C33.101,164.767 32.675,164.34 32.675,163.813 C32.675,163.287 33.101,162.86 33.628,162.86 L37.835,162.86 C38.362,162.86 38.788,163.287 38.788,163.813" id="Fill-200" fill="#59649F"></path>
                            <path d="M46.149,163.813 C46.149,164.34 45.722,164.767 45.196,164.767 L40.989,164.767 C40.463,164.767 40.035,164.34 40.035,163.813 C40.035,163.287 40.463,162.86 40.989,162.86 L45.196,162.86 C45.722,162.86 46.149,163.287 46.149,163.813" id="Fill-201" fill="#59649F"></path>
                            <path d="M40.366,157.909 L40.366,161.688 C40.366,162.214 39.939,162.642 39.412,162.642 C38.885,162.642 38.458,162.214 38.458,161.688 L38.458,157.909 C38.458,157.383 38.885,156.956 39.412,156.956 C39.939,156.956 40.366,157.383 40.366,157.909" id="Fill-202" fill="#59649F"></path>
                            <path d="M40.366,165.939 L40.366,169.718 C40.366,170.244 39.939,170.671 39.412,170.671 C38.885,170.671 38.458,170.244 38.458,169.718 L38.458,165.939 C38.458,165.412 38.885,164.985 39.412,164.985 C39.939,164.985 40.366,165.412 40.366,165.939" id="Fill-203" fill="#59649F"></path>
                            <path d="M31.929,196.29 C31.929,196.817 31.502,197.244 30.975,197.244 L26.769,197.244 C26.242,197.244 25.815,196.817 25.815,196.29 C25.815,195.764 26.242,195.337 26.769,195.337 L30.975,195.337 C31.502,195.337 31.929,195.764 31.929,196.29" id="Fill-204" fill="#415091"></path>
                            <path d="M39.29,196.29 C39.29,196.817 38.863,197.244 38.336,197.244 L34.13,197.244 C33.603,197.244 33.176,196.817 33.176,196.29 C33.176,195.764 33.603,195.337 34.13,195.337 L38.336,195.337 C38.863,195.337 39.29,195.764 39.29,196.29" id="Fill-205" fill="#415091"></path>
                            <path d="M33.507,190.386 L33.507,194.165 C33.507,194.691 33.08,195.118 32.553,195.118 C32.026,195.118 31.599,194.691 31.599,194.165 L31.599,190.386 C31.599,189.859 32.026,189.433 32.553,189.433 C33.08,189.433 33.507,189.859 33.507,190.386" id="Fill-206" fill="#415091"></path>
                            <path d="M33.507,198.416 L33.507,202.194 C33.507,202.721 33.08,203.148 32.553,203.148 C32.026,203.148 31.599,202.721 31.599,202.194 L31.599,198.416 C31.599,197.89 32.026,197.462 32.553,197.462 C33.08,197.462 33.507,197.89 33.507,198.416" id="Fill-207" fill="#415091"></path>
                            <path d="M116.112,64.718 L116.112,83.554 C116.112,86.044 118.132,88.064 120.622,88.064 L154.823,88.064 L165.148,91.769 C166.209,92.15 167.224,91.107 166.817,90.059 L162.911,79.972 L162.911,64.718 C162.911,62.228 160.891,60.208 158.399,60.208 L120.622,60.208 C118.132,60.208 116.112,62.228 116.112,64.718" id="Fill-208" fill="#3469E9"></path>
                            <path d="M145.824,74.671 C145.824,76.473 147.284,77.934 149.087,77.934 C150.888,77.934 152.349,76.473 152.349,74.671 C152.349,72.87 150.888,71.409 149.087,71.409 C147.284,71.409 145.824,72.87 145.824,74.671" id="Fill-209" fill="#FFFFFF"></path>
                            <path d="M135.496,74.671 C135.496,76.473 136.957,77.934 138.759,77.934 C140.561,77.934 142.021,76.473 142.021,74.671 C142.021,72.87 140.561,71.409 138.759,71.409 C136.957,71.409 135.496,72.87 135.496,74.671" id="Fill-210" fill="#FFFFFF"></path>
                            <path d="M125.169,74.671 C125.169,76.473 126.629,77.934 128.431,77.934 C130.233,77.934 131.694,76.473 131.694,74.671 C131.694,72.87 130.233,71.409 128.431,71.409 C126.629,71.409 125.169,72.87 125.169,74.671" id="Fill-211" fill="#FFFFFF"></path>
                            <path d="M436.078,47.24 C436.078,48.319 435.639,49.302 434.923,50.013 C434.216,50.73 433.233,51.169 432.155,51.169 L348.172,51.169 C346.015,51.169 344.247,49.401 344.247,47.24 C344.247,46.162 344.687,45.179 345.404,44.467 C346.11,43.751 347.093,43.312 348.172,43.312 L352.141,43.312 C353.709,39.668 357.329,37.122 361.543,37.122 C364.38,37.122 366.945,38.277 368.803,40.14 C371.277,35.944 375.839,33.125 381.065,33.125 C382.5,33.125 383.883,33.343 385.188,33.737 C387.92,28.599 393.322,25.1 399.547,25.1 C407.024,25.1 413.314,30.148 415.212,37.018 C416.589,36.329 418.144,35.935 419.793,35.935 C424.455,35.935 428.389,39.048 429.626,43.312 L432.155,43.312 C434.311,43.312 436.078,45.079 436.078,47.24" id="Fill-6" fill="#C5FFE2"></path>
                            <path d="M394.256,278.997 C394.364,279.132 394.473,279.257 394.587,279.369 C397.837,282.59 403.47,270.261 398.264,257.922 C393.059,245.584 397.348,229.284 404.329,228.648 C411.311,228.014 405.241,238.857 414.24,237.193 C423.24,235.529 424.625,211.557 436.239,212.879 C446.403,214.035 439.889,231.791 434.84,239.272 C430.076,246.334 431.49,253.516 436.838,251.945 C442.186,250.378 447.531,257.801 439.57,269.329 C431.609,280.856 420.826,292.331 426.016,293.654 C431.204,294.98 441.999,283.647 446.598,297.059 C448.654,303.053 444.213,308.201 438.673,312.064 L394.256,312.064 L394.256,278.997" id="Fill-14" fill="#FFD570"></path>
                            <path d="M397.654,312.064 C409.891,279.586 430.459,229.824 430.709,229.219 C430.868,228.838 430.688,228.398 430.305,228.24 C429.921,228.082 429.485,228.265 429.326,228.647 C429.075,229.257 408.28,279.562 396.053,312.064 L397.654,312.064" id="Fill-15" fill="#F4B829"></path>
                            <path d="M415.891,264.495 C416.014,264.483 416.136,264.442 416.244,264.368 C416.586,264.135 416.675,263.669 416.442,263.326 C416.377,263.232 409.976,253.79 408.076,246.98 C407.965,246.581 407.551,246.349 407.154,246.46 C406.755,246.571 406.522,246.984 406.633,247.383 C408.6,254.431 414.935,263.776 415.203,264.171 C415.363,264.403 415.629,264.519 415.891,264.495" id="Fill-16" fill="#F4B829"></path>
                            <path d="M413.137,272.485 L413.182,272.48 C413.641,272.41 424.497,270.734 431.855,266.706 C432.217,266.508 432.351,266.052 432.152,265.688 C431.953,265.326 431.498,265.193 431.135,265.392 C424.013,269.291 413.068,270.981 412.958,270.998 C412.549,271.06 412.268,271.441 412.329,271.851 C412.389,272.245 412.745,272.521 413.137,272.485" id="Fill-17" fill="#F4B829"></path>
                            <path d="M394.256,295.521 C397.413,299.313 400.791,302.233 400.849,302.282 C401.162,302.552 401.199,303.025 400.929,303.339 C400.797,303.493 400.616,303.58 400.429,303.598 C400.234,303.615 400.033,303.558 399.873,303.42 C399.663,303.24 397.044,300.976 394.256,297.834 L394.256,295.521" id="Fill-18" fill="#A4BDD9"></path>
                            <path d="M409.769,310.048 C414.036,309.66 418.734,308.842 422.598,307.197 C422.979,307.035 423.156,306.596 422.994,306.215 C422.832,305.834 422.392,305.656 422.011,305.818 C412.788,309.743 398.026,308.75 397.877,308.74 C397.466,308.71 397.107,309.021 397.077,309.435 C397.048,309.847 397.359,310.205 397.772,310.234 C398.141,310.261 403.488,310.62 409.769,310.048" id="Fill-19" fill="#F4B829"></path>
                            <path d="M441.241,117.766 C445.398,100.998 452.423,85.887 459.054,92.661 C465.691,99.44 453.11,125.215 435.738,138.91 L430.942,144.982 C443.428,134.78 462.894,129.375 467.732,135.809 C472.539,142.202 459.254,144.623 446.752,144.811 C437.236,144.954 431.037,147.229 428.011,148.693 L405.362,177.371 C425.18,161.272 455.915,152.773 463.57,162.953 C471.198,173.097 450.118,176.938 430.281,177.236 C415.289,177.462 405.483,181.021 400.642,183.348 L396.126,189.065 C395.012,188.438 393.901,187.805 392.794,187.163 L419.741,153.045 C420.092,149.402 420.046,144.221 418.592,137.686 C415.878,125.48 415.155,111.997 422.488,115.192 C428.851,117.964 429.173,133.36 424.632,146.851 L433.95,135.052 C436.21,130.91 439.448,125.003 441.241,117.766" id="Fill-20" fill="#F4B829"></path>
                            <path d="M323.592,189.524 L323.592,189.524 C323.592,190.877 324.689,191.974 326.041,191.974 L377.984,191.974 C379.336,191.974 380.433,190.877 380.433,189.524 C380.433,188.172 379.336,187.075 377.984,187.075 L326.041,187.075 C324.689,187.075 323.592,188.172 323.592,189.524" id="Fill-33" fill="#C8D4E3"></path>
                            <path d="M323.592,202.022 L323.592,202.022 C323.592,203.375 324.689,204.472 326.041,204.472 L377.984,204.472 C379.336,204.472 380.433,203.375 380.433,202.022 C380.433,200.671 379.336,199.574 377.984,199.574 L326.041,199.574 C324.689,199.574 323.592,200.671 323.592,202.022" id="Fill-34" fill="#C8D4E3"></path>
                            <path d="M323.592,214.187 L323.592,214.187 C323.592,215.354 324.674,216.3 326.008,216.3 L377.247,216.3 C378.581,216.3 379.663,215.354 379.663,214.187 C379.663,213.019 378.581,212.072 377.247,212.072 L326.008,212.072 C324.674,212.072 323.592,213.019 323.592,214.187" id="Fill-35" fill="#C8D4E3"></path>
                            <path d="M323.592,232.867 L323.592,232.867 C323.592,234.22 324.689,235.316 326.041,235.316 L377.984,235.316 C379.336,235.316 380.433,234.22 380.433,232.867 C380.433,231.515 379.336,230.418 377.984,230.418 L326.041,230.418 C324.689,230.418 323.592,231.515 323.592,232.867" id="Fill-36" fill="#C8D4E3"></path>
                            <path d="M323.592,245.365 L323.592,245.365 C323.592,246.719 324.689,247.814 326.041,247.814 L377.984,247.814 C379.336,247.814 380.433,246.719 380.433,245.365 C380.433,244.013 379.336,242.917 377.984,242.917 L326.041,242.917 C324.689,242.917 323.592,244.013 323.592,245.365" id="Fill-37" fill="#C8D4E3"></path>
                            <path d="M323.592,257.864 L323.592,257.864 C323.592,259.217 324.689,260.313 326.041,260.313 L377.984,260.313 C379.336,260.313 380.433,259.217 380.433,257.864 C380.433,256.512 379.336,255.415 377.984,255.415 L326.041,255.415 C324.689,255.415 323.592,256.512 323.592,257.864" id="Fill-38" fill="#C8D4E3"></path>
                            <path d="M357.873,127.441 C357.873,129.187 356.459,130.602 354.713,130.602 C352.968,130.602 351.553,129.187 351.553,127.441 C351.553,125.696 352.968,124.281 354.713,124.281 C356.459,124.281 357.873,125.696 357.873,127.441" id="Fill-41" fill="#59649F"></path>
                            <path d="M368.116,127.441 C368.116,129.187 366.701,130.602 364.956,130.602 C363.21,130.602 361.795,129.187 361.795,127.441 C361.795,125.696 363.21,124.281 364.956,124.281 C366.701,124.281 368.116,125.696 368.116,127.441" id="Fill-42" fill="#3D3B6A"></path>
                            <path d="M377.864,127.441 C377.864,129.187 376.45,130.602 374.703,130.602 C372.958,130.602 371.543,129.187 371.543,127.441 C371.543,125.696 372.958,124.281 374.703,124.281 C376.45,124.281 377.864,125.696 377.864,127.441" id="Fill-43" fill="#415091"></path>
                            <text id="!" font-family="LucidaGrande, Lucida Grande" font-size="24.0871" font-weight="normal" fill="#FFFFFE">
                                <tspan x="287.621" y="149.111794">!</tspan>
                            </text>
                            <path d="M335.2,345.149 L333.809,351.515 C333.809,351.515 337.623,354.345 340.319,352.813 L341.72,346.598 L335.2,345.149" id="Fill-116" fill="#EB9E78"></path>
                            <path d="M335.111,351.134 C335.111,351.134 334.043,348.967 332.902,348.841 C331.76,348.714 321.794,354.021 318.711,354.043 C315.628,354.064 315.146,357.812 316.249,358.435 C317.507,359.145 339.707,362.482 339.707,362.482 C339.707,362.482 341.883,354.752 341.515,352.499 C341.147,350.247 337.347,352.063 335.111,351.134" id="Fill-117" fill="#59649F"></path>
                            <path d="M329.417,355.069 C329.517,355.121 329.636,355.133 329.75,355.093 C329.971,355.016 330.088,354.774 330.011,354.553 C329.986,354.479 329.367,352.731 328.256,351.89 C326.781,350.767 325.34,351.453 325.28,351.482 C325.07,351.586 324.983,351.84 325.086,352.051 C325.189,352.261 325.444,352.348 325.654,352.244 C325.693,352.226 326.692,351.768 327.744,352.565 C328.649,353.252 329.204,354.816 329.21,354.832 C329.247,354.939 329.324,355.021 329.417,355.069" id="Fill-118" fill="#FFFFFE"></path>
                            <path d="M330.877,354.125 C330.977,354.176 331.096,354.188 331.21,354.147 C331.431,354.07 331.548,353.829 331.471,353.607 C331.445,353.533 330.827,351.786 329.717,350.944 C328.239,349.82 326.801,350.507 326.74,350.537 C326.53,350.641 326.443,350.895 326.546,351.105 C326.649,351.315 326.904,351.402 327.114,351.299 C327.154,351.28 328.153,350.822 329.204,351.619 C330.113,352.31 330.664,353.871 330.669,353.887 C330.707,353.994 330.783,354.076 330.877,354.125" id="Fill-119" fill="#FFFFFE"></path>
                            <path d="M327.556,355.712 C327.656,355.764 327.775,355.775 327.889,355.735 C328.11,355.658 328.227,355.416 328.15,355.195 C328.124,355.121 327.506,353.374 326.396,352.531 C324.918,351.408 323.48,352.095 323.419,352.125 C323.208,352.228 323.122,352.482 323.226,352.692 C323.328,352.902 323.582,352.989 323.793,352.886 C323.832,352.868 324.831,352.41 325.883,353.207 C326.791,353.896 327.344,355.459 327.349,355.475 C327.386,355.581 327.462,355.664 327.556,355.712" id="Fill-120" fill="#FFFFFE"></path>
                            <path d="M366.691,247.891 C366.12,250.343 365.551,252.867 364.972,255.455 C361.561,270.747 357.868,288.329 352.44,305.928 C350.457,321.709 347.001,331.734 342.35,347.624 C341.889,347.715 341.219,347.732 340.441,347.688 C340.152,347.669 339.844,347.643 339.527,347.597 C337.59,347.361 335.274,346.729 333.808,345.624 C333.808,345.624 336.631,326.387 340.54,304.733 C342.621,293.179 346.314,264.884 348.069,251.185 C348.666,246.479 349.037,243.502 349.037,243.502 L363.84,247.185 L364.085,247.239 L364.718,247.402 L366.691,247.891" id="Fill-121" fill="#3469E9"></path>
                            <path d="M366.691,247.891 C366.12,250.343 365.551,252.867 364.972,255.455 L348.069,251.185 C348.666,246.479 349.037,243.502 349.037,243.502 L363.84,247.185 L364.085,247.239 L364.718,247.402 L366.691,247.891" id="Fill-122" fill="#2F2D4F"></path>
                            <path d="M364.716,247.393 L364.716,247.402 L350.691,305.657 C350.672,305.811 347.958,324.885 340.439,347.688 C340.149,347.669 339.841,347.643 339.525,347.597 C347.053,324.795 349.777,305.684 349.804,305.484 L363.838,247.185 L364.082,247.239 L364.716,247.393" id="Fill-123" fill="#2F2D4F"></path>
                            <polyline id="Fill-124" fill="#EB9E78" points="377.015 344.611 377.58 352.974 383.689 351.511 383.689 344.611 377.015 344.611"></polyline>
                            <path d="M379.724,351.245 C379.724,351.245 382.967,350.384 383.864,350.402 C384.76,350.422 390.757,357.143 392.779,357.541 C396.445,358.263 396.443,363.987 394.211,364.27 C387.756,365.084 376.719,362.346 376.719,362.346 C376.719,362.346 375.71,354.998 376.155,352.693 C376.599,350.389 377.92,351.921 379.724,351.245" id="Fill-125" fill="#59649F"></path>
                            <path d="M385.061,357.522 C384.946,357.548 384.821,357.527 384.715,357.457 C384.51,357.318 384.456,357.041 384.594,356.837 C384.64,356.769 385.739,355.152 387.096,354.592 C388.902,353.843 390.186,354.929 390.24,354.976 C390.426,355.137 390.447,355.419 390.284,355.605 C390.123,355.792 389.841,355.813 389.654,355.651 C389.619,355.621 388.724,354.888 387.438,355.418 C386.331,355.875 385.345,357.321 385.335,357.336 C385.269,357.436 385.169,357.499 385.061,357.522" id="Fill-126" fill="#FFFFFE"></path>
                            <path d="M383.826,356.168 C383.711,356.193 383.586,356.173 383.481,356.102 C383.276,355.964 383.222,355.687 383.36,355.481 C383.406,355.413 384.504,353.798 385.862,353.236 C387.669,352.487 388.95,353.573 389.004,353.62 C389.192,353.781 389.212,354.063 389.05,354.251 C388.889,354.438 388.606,354.458 388.419,354.296 C388.384,354.267 387.489,353.532 386.202,354.063 C385.092,354.522 384.111,355.966 384.101,355.98 C384.034,356.08 383.935,356.144 383.826,356.168" id="Fill-127" fill="#FFFFFE"></path>
                            <path d="M386.785,358.677 C386.67,358.702 386.545,358.682 386.44,358.61 C386.236,358.473 386.181,358.195 386.319,357.99 C386.365,357.922 387.463,356.307 388.821,355.745 C390.628,354.996 391.91,356.082 391.964,356.129 C392.151,356.29 392.171,356.572 392.009,356.759 C391.848,356.945 391.566,356.966 391.379,356.804 C391.344,356.774 390.448,356.04 389.162,356.571 C388.051,357.03 387.071,358.475 387.061,358.489 C386.993,358.589 386.894,358.652 386.785,358.677" id="Fill-128" fill="#FFFFFE"></path>
                            <path d="M384.522,345.516 C383.092,346.131 381.029,346.313 379.038,346.275 C378.731,346.275 378.423,346.267 378.124,346.239 C377.392,346.213 376.686,346.149 376.043,346.077 L367.293,255.347 L366.578,247.891 L368.261,247.764 L369.166,247.7 L384.178,246.605 C384.178,246.605 384.169,248.434 384.169,251.41 C384.159,261.636 384.214,285.451 384.793,295.739 C385.535,309.032 384.522,345.516 384.522,345.516" id="Fill-129" fill="#3469E9"></path>
                            <path d="M384.178,246.605 C384.178,246.605 384.169,248.434 384.169,251.41 L367.293,255.347 L366.578,247.891 L368.261,247.764 L369.166,247.7 L384.178,246.605" id="Fill-130" fill="#2F2D4F"></path>
                            <path d="M379.036,346.276 C378.728,346.276 378.421,346.267 378.122,346.239 L368.259,247.764 L369.164,247.7 L379.036,346.276" id="Fill-131" fill="#2F2D4F"></path>
                            <path d="M380.533,194.869 L384.57,207.833 L388.989,220.157 C389.7,222.737 392.547,224.065 394.981,222.954 L395.108,222.896 C399.312,220.908 396.994,212.665 396.994,212.665 L396.2,212.604 C395.876,211.698 395.004,209.396 393.893,206.503 C393.759,206.147 393.618,205.781 393.476,205.411 C393.24,204.796 392.994,204.161 392.745,203.511 C392.39,202.591 392.024,201.642 391.654,200.686 C388.929,193.619 386.672,185.95 386.672,185.95 L384.791,180.366 L380.533,194.869" id="Fill-132" fill="#EB9E78"></path>
                            <path d="M392.472,215.495 C392.472,215.495 393.05,206.104 395.054,204.106 C397.058,202.109 398.888,201.348 400.767,201.415 C402.647,201.483 404.414,201.716 404.298,202.489 C404.298,202.489 408.616,201.837 410.543,202.956 C412.47,204.074 404.834,205.054 402.567,205.113 C400.3,205.172 399.102,206.438 399.01,207.79 C398.918,209.142 397.611,218.091 397.611,218.091 L392.472,215.495" id="Fill-133" fill="#EB9E78"></path>
                            <path d="M381.158,198.316 C381.158,198.316 388.291,221.088 389.924,222.635 C391.556,224.182 395.226,225.766 397.228,221.599 C399.23,217.432 399.63,206.305 399.63,206.305 L394.65,203.987 L393.871,206.44 L384.871,180.309 C384.871,180.309 381.674,196.598 381.158,198.316" id="Fill-134" fill="#5A88F6"></path>
                            <path d="M391.869,215.304 L391.921,215.307006 C392.082,215.308 392.224,215.191 392.25,215.027 C392.865,211.12 393.461,208.171 393.871,206.44 C393.737,206.085 393.644,205.739 393.502,205.369 C393.118,206.895 392.34,210.188 391.594,214.924 C391.566,215.105 391.689,215.274 391.869,215.304" id="Fill-135" fill="#415091"></path>
                            <path d="M390.185,203.097 L418.799,203.288 C419.875,203.296 420.753,202.43 420.760055,201.354 L420.760055,201.336 C420.768,200.26 419.901,199.382 418.825,199.375 L390.211,199.184 C389.135,199.176 388.257,200.042 388.248958,201.119 L388.248958,201.136 C388.242,202.212 389.109,203.09 390.185,203.097" id="Fill-136" fill="#2F2D4F"></path>
                            <path d="M420.741,203.302 L427.004,180.457 C427.357,179.174 426.396,177.906 425.066,177.897 L411.619,177.807939 C410.712,177.801 409.911,178.399 409.66,179.271 L402.771,203.182 L420.741,203.302" id="Fill-137" fill="#3D3B6A"></path>
                            <path d="M409.659,179.271 L402.827,202.984 L401.29,202.975 L408.122,179.261 C408.375,178.389 409.175,177.79 410.082,177.795955 L411.618,177.807 C410.711,177.801 409.912,178.399 409.659,179.271" id="Fill-138" fill="#2F2D4F"></path>
                            <path d="M413.034,191.558 C412.675,193.065 413.607,194.295 415.116,194.30605 C416.626,194.315 418.141,193.102 418.5,191.595 C418.86,190.088 417.928,188.857 416.418,188.848 C414.908,188.837 413.394,190.051 413.034,191.558" id="Fill-139" fill="#4F5683"></path>
                            <path d="M305.059,171.353 C304.497,171.419 303.958,171.357 303.5,171.117 C302.29,170.483 301.284,169.855 300.703,169.473 C300.359,169.236 300.16,169.1 300.16,169.1 L300.137,169.109 C300.004,169.132 299.352,169.227 298.256,168.604 C297.023,167.895 296.38,166.699 296.536,166.042 C296.688,165.386 297.543,165.216 297.543,165.216 C297.543,165.216 297.113,164.592 297.325,163.912 C297.538,163.227 298.904,162.877 298.904,162.877 C298.904,162.877 298.521,162.018 299.205,161.455 C299.858,160.912 301.308,161.942 301.436,162.022 C301.242,161.819 296.896,157.265 298.185,157.23586 C299.503,157.208 304.081,161.398 304.299,161.493 C304.511,161.592 305.626,161.517 306.708,161.663 C307.79,161.805 308.324,162.301 308.811,163.936 C309.297,165.57 309.143,168.209 309.143,168.209 C309.478,168.459 310.126,169.042 310.513,169.326 L310.776,169.469 C311.588,169.937 324.34,177.064 328.426,180.254 L328.436,180.259 C328.582,180.372 328.814,180.466 329.12,180.552 C333.321,181.689 351.42,180.324 351.42,180.324 L352.356,190.223 C352.356,190.223 334.181,191.3 325.516,186.986 C318.68,183.585 307.725,173.343 307.725,173.343 L305.059,171.353" id="Fill-140" fill="#EB9E78"></path>
                            <path d="M306.542,166.022 L306.69,166.024 C306.851,165.985 306.95,165.823 306.912,165.662 L306.587,164.294 L306.441,164.102 L306.2,164.079 C306.185,164.084 304.637,164.583 303.506,163.955 C303.16,163.763 302.952,163.542 302.905,163.316 C302.851,163.062 303.011,162.847 303.012,162.844 C303.112,162.713 303.088,162.525 302.958,162.424 C302.828,162.323 302.642,162.344 302.539,162.473 C302.505,162.516 302.21,162.907 302.314,163.428 C302.396,163.84 302.699,164.194 303.214,164.48 C304.248,165.055 305.498,164.869 306.074,164.735 L306.327,165.801 C306.354,165.912 306.439,165.994 306.542,166.022" id="Fill-141" fill="#E5745F"></path>
                            <path d="M300.134,169.106 L300.158,169.099 C300.158,169.099 300.356,169.239 300.704,169.469 C301.374,169.005 301.604,168.297 301.798,167.702 C301.966,167.185 302.113,166.737 302.479,166.48 C302.857,166.216 303.074,165.87 303.192,165.515 C303.31,165.175 303.333,164.825 303.32,164.533 C303.316,164.424 303.308,164.322 303.296,164.234 C303.267,164.002 303.224,163.848 303.218,163.828 C303.172,163.667 303.006,163.574 302.847,163.62 C302.688,163.665 302.595,163.831 302.64,163.99 L302.656,164.061 C302.697,164.242 302.78,164.739 302.651,165.217 C302.574,165.505 302.419,165.788 302.133,165.989 C301.604,166.359 301.411,166.947 301.226,167.516 C301.016,168.161 300.816,168.775 300.134,169.106" id="Fill-142" fill="#E5745F"></path>
                            <path d="M304.749,168.034 C304.858,168.063 304.979,168.029 305.057,167.938 C305.163,167.811 305.148,167.622 305.021,167.514 C305.006,167.501 303.507,166.207 303.774,164.519 C303.8,164.355 303.687,164.201 303.524,164.175 C303.36,164.149 303.206,164.261 303.18,164.425 C302.86,166.451 304.561,167.912 304.633,167.974 L304.749,168.034" id="Fill-143" fill="#E5745F"></path>
                            <path d="M385.696,246.883 C378.546,248.537 372.768,249.382 367.061,249.434 L366.852,249.434 C361.144,249.382 355.37,248.537 348.217,246.883 C347.216,234.063 351.596,225.948 351.109,211.579 C351.106,211.455 351.1,211.328 351.096,211.204 C351.074,210.584 351.046,209.969 351.017,209.355 C350.959,208.189 350.891,207.038 350.811,205.903 C350.768,205.281 350.722,204.664 350.674,204.055 C349.688,191.64 347.72,181.804 348.787,180.458 C349.946,178.996 352.892,177.271 355.885,175.671 C358.726,174.155 361.607,172.751 363.05,171.789 C364.482,172.414 365.623,172.754 366.852,172.749 L366.957,172.745 L367.061,172.749 C368.289,172.754 369.431,172.414 370.865,171.789 C372.204,172.68 374.728,173.924 377.301,175.28 C380.431,176.929 383.634,178.744 384.871,180.309 C385.984,181.713 383.99,192.468 383.106,205.668 C383.067,206.262 383.03,206.857 382.994,207.46 C382.918,208.761 382.856,210.082 382.81,211.418 L382.804,211.579 C382.785,212.106 382.775,212.626 382.769,213.137 C382.629,226.551 386.659,234.534 385.696,246.883" id="Fill-144" fill="#5A88F6"></path>
                            <path d="M378.529,230.677 L378.527,230.677 C371.32,230.646 365.169,227.366 361.278,224.62 C357.07,221.651 354.519,218.643 354.493,218.612 C354.37,218.467 354.389,218.247 354.535,218.124 C354.682,218.001 354.901,218.02 355.024,218.166 C355.049,218.195 357.553,221.147 361.693,224.065 C365.499,226.748 371.511,229.953 378.53,229.983 C378.721,229.984 378.876,230.141 378.875005,230.332 C378.874,230.523 378.719,230.677 378.529,230.677" id="Fill-145" fill="#415091"></path>
                            <path d="M371.018,233.126 C364.764,233.126 358.528,229.563 358.244,229.398 C358.078,229.302 358.022,229.09 358.118,228.925 C358.214,228.759 358.426,228.702 358.592,228.798 C358.665,228.84 366.003,233.03 372.509,232.357 C372.701,232.336 372.87,232.477 372.89,232.667 C372.909,232.857 372.771,233.027 372.58,233.048 C372.062,233.101 371.539,233.126 371.018,233.126" id="Fill-146" fill="#415091"></path>
                            <path d="M365.481,189.315 C365.318,189.315 365.172,189.199 365.141,189.033 C365.105,188.845 365.229,188.663 365.416,188.628 C374.203,186.961 376.851,181.309 376.877,181.251 C376.955,181.077 377.161,180.999 377.336,181.078 C377.51,181.157 377.588,181.362 377.509,181.537 C377.398,181.782 374.683,187.575 365.546,189.309 L365.481,189.315" id="Fill-147" fill="#415091"></path>
                            <path d="M367.684,178.486 C362.638,179.006 360.789,172.897 360.771,172.834 C360.732,172.702 360.808,172.563 360.941,172.524 C361.074,172.486 361.212,172.562 361.251,172.694 C361.323,172.939 363.073,178.702 367.925,177.951 C372.171,177.296 371.935,172.532 371.923,172.329 C371.914,172.191 372.018,172.072 372.158,172.064 C372.295,172.056 372.413,172.161 372.422,172.299 C372.425,172.353 372.7,177.72 368.001,178.445 C367.894,178.462 367.788,178.476 367.684,178.486" id="Fill-148" fill="#FFFFFE"></path>
                            <path d="M357.401,158.11 C357.401,158.11 353.248,151.011 356.75,145.53 C360.252,140.049 367.691,140.566 369.617,140.997 C371.544,141.428 382.637,146.629 375.927,159.243 L357.401,158.11" id="Fill-149" fill="#201E39"></path>
                            <path d="M358.095,156.101 C358.095,156.101 356.414,153.859 355.164,155.713 C353.914,157.566 355.681,163.04 358.741,161.704 L358.095,156.101" id="Fill-150" fill="#E5745F"></path>
                            <path d="M358.074,160.012 C357.96,160.012 357.857,159.938 357.825,159.823 C357.35,158.133 355.599,157.448 355.581,157.441 C355.449,157.391 355.381,157.241 355.432,157.108 C355.483,156.975 355.631,156.907 355.765,156.958 C355.847,156.989 357.776,157.737 358.323,159.684 C358.361,159.821 358.281,159.964 358.143,160.002 L358.074,160.012" id="Fill-151" fill="#E0574D"></path>
                            <path d="M356.306,159.161 L356.166,159.12 C356.046,159.042 356.011,158.882 356.088,158.762 C356.102,158.742 356.411,158.27 357.059,157.98 C357.189,157.921 357.342,157.98 357.401,158.11 C357.459,158.241 357.401,158.394 357.271,158.452 C356.77,158.676 356.526,159.039 356.524,159.042 L356.306,159.161" id="Fill-152" fill="#E0574D"></path>
                            <path d="M375.417,156.101 C375.417,156.101 377.098,153.859 378.348,155.713 C379.598,157.566 377.83,163.04 374.771,161.704 L375.417,156.101" id="Fill-153" fill="#E5745F"></path>
                            <path d="M375.439,160.012 C375.552,160.012 375.656,159.938 375.688,159.823 C376.162,158.133 377.913,157.448 377.93,157.441 C378.064,157.391 378.131,157.241 378.08,157.108 C378.03,156.975 377.88,156.907 377.747,156.958 C377.665,156.989 375.736,157.737 375.19,159.684 C375.152,159.821 375.232,159.964 375.369,160.002 L375.439,160.012" id="Fill-154" fill="#E0574D"></path>
                            <path d="M377.206,159.161 L377.346,159.12 C377.466,159.042 377.5,158.882 377.423,158.762 C377.41,158.742 377.101,158.27 376.452,157.98 C376.324,157.921 376.169,157.98 376.112,158.11 C376.053,158.241 376.112,158.394 376.241,158.452 C376.742,158.676 376.987,159.039 376.989,159.042 L377.206,159.161" id="Fill-155" fill="#E0574D"></path>
                            <path d="M370.894,166.346 L370.894,171.79 C370.894,171.79 369.271,174.562 367.075,174.75 C364.882,174.942 362.933,172.364 362.933,172.364 L362.933,166.729 L370.894,166.346" id="Fill-156" fill="#EB9E78"></path>
                            <path d="M370.894,166.346 L370.894,168.762 C369.421,170.396 366.804,170.805 362.933,170.233 L362.933,166.729 L370.894,166.346" id="Fill-157" fill="#E5745F"></path>
                            <path d="M376.633,152.367 C376.532,154.482 376.33,157.127 375.927,159.243 C375.825,159.77 375.712,160.267 375.585,160.711 C374.44,164.722 371.575,171.601 363.553,168.736 C360.01,167.471 358.368,163.525 357.636,159.511 C357.14,156.786 357.065,154.032 357.101,152.064 C357.14,150.055 358.237,148.219 359.985,147.229 C364.719,144.544 369.715,145.545 373.004,146.809 C375.288,147.686 376.749,149.928 376.633,152.367" id="Fill-158" fill="#EB9E78"></path>
                            <path d="M364.594,144.617 C364.594,144.617 375.179,161.595 376.639,155.368 C378.707,146.543 372.384,141.083 364.594,144.617" id="Fill-159" fill="#201E39"></path>
                            <path d="M364.155,144.616 C357.11,144.667 353.607,152.671 356.873,153.619 C361.419,154.938 365.362,148.503 366.575,146.271 C365.758,145.733 364.941,145.196 364.155,144.616" id="Fill-160" fill="#201E39"></path>
                            <path d="M376.987,140.809 C376.987,144.656 373.867,147.775 370.021,147.775 C366.173,147.775 363.054,144.656 363.054,140.809 C363.054,136.961 366.173,133.842 370.021,133.842 C373.867,133.842 376.987,136.961 376.987,140.809" id="Fill-161" fill="#201E39"></path>
                            <path d="M358.332,152.859 C358.332,152.859 358.88,154.988 358.132,156.42 C357.383,157.852 357.794,160.306 358.132,163.064 C358.132,163.064 356.943,161.383 356.873,158.689 C356.804,155.996 357.244,153.754 356.873,152.677 L358.332,152.859" id="Fill-162" fill="#201E39"></path>
                            <path d="M374.964,152.859 C374.964,152.859 374.416,154.988 375.164,156.42 C375.913,157.852 375.502,160.306 375.164,163.064 C375.164,163.064 376.354,161.383 376.423,158.689 C376.492,155.996 376.052,153.754 376.423,152.677 L374.964,152.859" id="Fill-163" fill="#201E39"></path>
                            <path d="M363.224,156.42 C363.224,157.001 362.924,157.472 362.555,157.472 C362.185,157.472 361.886,157.001 361.886,156.42 C361.886,155.839 362.185,155.368 362.555,155.368 C362.924,155.368 363.224,155.839 363.224,156.42" id="Fill-164" fill="#201E39"></path>
                            <path d="M371.484,156.42 C371.484,157.001 371.184,157.472 370.815,157.472 C370.446,157.472 370.146,157.001 370.146,156.42 C370.146,155.839 370.446,155.368 370.815,155.368 C371.184,155.368 371.484,155.839 371.484,156.42" id="Fill-165" fill="#201E39"></path>
                            <path d="M361.23,153.288 C361.785,153.131 362.908,152.863 364.091,152.858997 C364.403,152.858 364.641,153.135 364.586,153.442 L364.584,153.45 C364.54,153.694 364.322,153.868 364.074,153.856 C363.268,153.818 361.154,153.932 360.156,154.336 C360.135,154.163 360.238,153.973 360.383,153.804 C360.603,153.548 360.905,153.379 361.23,153.288" id="Fill-166" fill="#201E39"></path>
                            <path d="M372.037,153.31 C371.482,153.152 370.36,152.884 369.176,152.880997 C368.865,152.88 368.626,153.157 368.681,153.463 L368.682,153.471 C368.727,153.716 368.946,153.889 369.194,153.877 C369.999,153.84 372.114,153.953 373.112,154.358 C373.132,154.184 373.03,153.994 372.884,153.826 C372.664,153.57 372.362,153.401 372.037,153.31" id="Fill-167" fill="#201E39"></path>
                            <path d="M366.846,161.22 C366.648,161.22 366.45,161.186 366.283,161.086 C366.133,160.996 365.945,160.813 365.908,160.455 C365.809,159.504 366.052,156.525 366.063,156.399 C366.075,156.256 366.2,156.15 366.342,156.162 C366.485,156.174 366.59,156.299 366.578,156.441 C366.575,156.472 366.328,159.499 366.422,160.402 C366.439,160.559 366.502,160.614 366.549,160.643 C366.792,160.788 367.353,160.639 367.586,160.544 C367.719,160.49 367.869,160.554 367.923,160.687 C367.977,160.818 367.914,160.969 367.783,161.023 C367.715,161.051 367.283,161.22 366.846,161.22" id="Fill-168" fill="#E5745F"></path>
                            <path d="M363.562,162.854 C363.757,163.837 364.408,165.646 366.596,165.646 C368.79,165.646 369.406,163.993 369.617,162.854 L363.562,162.854" id="Fill-169" fill="#FFFFFE"></path>
                            <path d="M366.565,167.156 C365.933,167.156 365.375,166.815 365.352,166.801 C365.231,166.726 365.193,166.566 365.268,166.445 C365.343,166.324 365.501,166.286 365.623,166.36 C365.628,166.363 366.083,166.638 366.565,166.638 C367.086,166.638 367.553,166.362 367.558,166.359 C367.681,166.286 367.839,166.326 367.912,166.448 C367.987,166.57 367.948,166.729 367.825,166.802 C367.802,166.816 367.234,167.156 366.565,167.156" id="Fill-170" fill="#E5745F"></path>
                            <path d="M310.521,169.038 L306.92,173.789 C306.92,173.789 320.486,185.413 327.189,187.711 C333.891,190.01 349.441,192.141 349.441,192.141 C350.572,188.25 350.044,184.355 348.787,180.458 C348.787,180.458 332.78,180.837 328.18,178.518 C318.326,173.546 310.521,169.038 310.521,169.038" id="Fill-171" fill="#5A88F6"></path>
                            <g id="Group-174" transform="translate(302.512000, 50.667000)">
                                <mask id="mask-5" fill="white">
                                    <use xlink:href="#path-4"></use>
                                </mask>
                                <g id="Clip-173"></g>
                                <polygon id="Fill-172" fill="#C8D4E3" mask="url(#mask-5)" points="0.926 2.682 3.714 2.682 3.714 0.98 0.926 0.98"></polygon>
                            </g>
                            <path d="M335.352,86.405 C335.116,86.405 334.897,86.253 334.824,86.015 C334.505,84.98 334.154,83.947 333.779,82.946 C333.672,82.661 333.817,82.343 334.102,82.236 C334.166,82.212 334.231,82.201 334.296,82.201 C334.52,82.201 334.729,82.337 334.812,82.559 C335.195,83.581 335.554,84.635 335.878,85.691 C335.968,85.982 335.805,86.291 335.513,86.381 L335.408,86.402 C335.389,86.404 335.37,86.405 335.352,86.405" id="Fill-175" fill="#C8D4E3"></path>
                            <path d="M336.905,92.765 C336.644,92.765 336.412,92.58 336.363,92.314 C336.165,91.246 335.936,90.179 335.684,89.142 C335.612,88.846 335.792,88.547 336.089,88.475 C336.133,88.464 336.177,88.459 336.22,88.459 C336.468,88.459 336.694,88.628 336.756,88.88 C337.013,89.937 337.246,91.025 337.448,92.113 C337.503,92.413 337.306,92.701 337.006,92.756 L336.963,92.762 C336.944,92.764 336.924,92.765 336.905,92.765" id="Fill-176" fill="#C8D4E3"></path>
                            <path d="M337.751,99.26 C337.466,99.26 337.225,99.04 337.202,98.751 C337.157,98.173 337.103,97.589 337.042,97.018 C336.99,96.522 336.931,96.019 336.866,95.52 C336.826,95.218 337.04,94.941 337.342,94.901 L337.356,94.9 C337.375,94.898 337.395,94.897 337.414,94.897 C337.687,94.897 337.925,95.1 337.96,95.377 C338.027,95.885 338.087,96.398 338.14,96.902 C338.201,97.483 338.256,98.077 338.302,98.665 C338.325,98.963 338.107,99.226 337.81,99.257 L337.795,99.258 C337.78,99.259 337.766,99.26 337.751,99.26" id="Fill-177" fill="#C8D4E3"></path>
                            <path d="M333.052,80.274 C332.841,80.274 332.639,80.153 332.548,79.948 C332.108,78.964 331.631,77.984 331.131,77.033 C330.99,76.764 331.093,76.43 331.363,76.288 C331.445,76.245 331.533,76.225 331.619,76.225 C331.818,76.225 332.009,76.332 332.108,76.52 C332.618,77.491 333.106,78.493 333.555,79.498 C333.68,79.776 333.555,80.102 333.277,80.227 L333.11,80.271 C333.09,80.273 333.071,80.274 333.052,80.274" id="Fill-178" fill="#C8D4E3"></path>
                            <path d="M311.439,56.324 C311.343,56.324 311.246,56.299 311.158,56.247 C310.219,55.691 309.263,55.164 308.316,54.679 C308.044,54.541 307.937,54.208 308.075,53.937 C308.173,53.746 308.366,53.636 308.567,53.636 C308.652,53.636 308.737,53.656 308.818,53.697 C309.785,54.191 310.762,54.73 311.72,55.297 C311.983,55.452 312.069,55.79 311.913,56.053 C311.822,56.209 311.664,56.303 311.496,56.321 C311.477,56.323 311.458,56.324 311.439,56.324" id="Fill-179" fill="#C8D4E3"></path>
                            <path d="M316.874,59.989 C316.757,59.989 316.639,59.952 316.538,59.876 C315.682,59.222 314.795,58.585 313.902,57.982 C313.65,57.811 313.582,57.469 313.753,57.216 C313.86,57.058 314.034,56.973 314.211,56.973 C314.317,56.973 314.424,57.003 314.519,57.067 C315.43,57.682 316.334,58.332 317.208,58.999 C317.45,59.183 317.497,59.529 317.312,59.772 C317.216,59.897 317.077,59.97 316.932,59.986 C316.913,59.988 316.893,59.989 316.874,59.989" id="Fill-180" fill="#C8D4E3"></path>
                            <path d="M326.242,69.117 C326.08,69.117 325.92,69.046 325.811,68.91 C325.139,68.072 324.432,67.242 323.706,66.444 C323.501,66.218 323.518,65.869 323.743,65.664 C323.849,65.568 323.982,65.521 324.114,65.521 C324.264,65.521 324.414,65.582 324.523,65.702 C325.263,66.517 325.987,67.364 326.672,68.22 C326.863,68.459 326.824,68.806 326.586,68.996 C326.501,69.064 326.402,69.104 326.3,69.114 C326.281,69.116 326.262,69.117 326.242,69.117" id="Fill-181" fill="#C8D4E3"></path>
                            <path d="M321.836,64.268 C321.698,64.268 321.559,64.216 321.451,64.112 C320.683,63.364 319.878,62.627 319.059,61.921 C318.828,61.722 318.802,61.374 319.001,61.143 C319.11,61.016 319.264,60.951 319.419,60.951 C319.547,60.951 319.675,60.995 319.78,61.085 C320.616,61.805 321.437,62.558 322.222,63.321 C322.44,63.534 322.445,63.883 322.232,64.102 C322.139,64.198 322.019,64.252 321.895,64.265 C321.875,64.267 321.856,64.268 321.836,64.268" id="Fill-182" fill="#C8D4E3"></path>
                            <path d="M330.004,74.479 C329.818,74.479 329.637,74.385 329.532,74.215 C328.972,73.296 328.374,72.384 327.756,71.503 C327.581,71.254 327.642,70.91 327.891,70.735 C327.987,70.667 328.098,70.635 328.208,70.635 C328.381,70.635 328.553,70.717 328.66,70.87 C329.291,71.77 329.902,72.702 330.474,73.64 C330.633,73.9 330.551,74.239 330.291,74.398 L330.062,74.476 C330.043,74.478 330.023,74.479 330.004,74.479" id="Fill-183" fill="#C8D4E3"></path>
                            <polyline id="Fill-185" fill="#333F85" points="294.32 49.541 301.288 60.058 301.992 60.245 302.106 59.816 294.999 49.091 294.32 49.541"></polyline>
                            <path d="M375.92,63.429 C373.619,63.429 371.747,65.301 371.747,67.602 C371.747,69.903 373.619,71.775 375.92,71.775 C378.221,71.775 380.093,69.903 380.093,67.602 C380.093,65.301 378.221,63.429 375.92,63.429 Z M375.92,73.683 C372.568,73.683 369.84,70.955 369.84,67.602 C369.84,64.25 372.568,61.521 375.92,61.521 C379.273,61.521 382.001,64.25 382.001,67.602 C382.001,70.955 379.273,73.683 375.92,73.683 L375.92,73.683 Z" id="Fill-188" fill="#59649F"></path>
                            <path d="M406.825,69.615 C404.524,69.615 402.652,71.487 402.652,73.788 C402.652,76.089 404.524,77.961 406.825,77.961 C409.125,77.961 410.997,76.089 410.997,73.788 C410.997,71.487 409.125,69.615 406.825,69.615 Z M406.825,79.869 C403.472,79.869 400.744,77.141 400.744,73.788 C400.744,70.435 403.472,67.708 406.825,67.708 C410.177,67.708 412.906,70.435 412.906,73.788 C412.906,77.141 410.177,79.869 406.825,79.869 L406.825,79.869 Z" id="Fill-189" fill="#415091"></path>
                            <path d="M421.468,92.285 C420.942,92.285 420.515,91.857 420.515,91.331 L420.515,87.124 C420.515,86.598 420.942,86.17 421.468,86.17 C421.994,86.17 422.422,86.598 422.422,87.124 L422.422,91.331 C422.422,91.857 421.994,92.285 421.468,92.285" id="Fill-190" fill="#59649F"></path>
                            <path d="M421.468,99.646 C420.942,99.646 420.515,99.218 420.515,98.691 L420.515,94.485 C420.515,93.959 420.942,93.532 421.468,93.532 C421.994,93.532 422.422,93.959 422.422,94.485 L422.422,98.691 C422.422,99.218 421.994,99.646 421.468,99.646" id="Fill-191" fill="#59649F"></path>
                            <path d="M427.372,93.862 L423.594,93.862 C423.067,93.862 422.64,93.435 422.64,92.908 C422.64,92.381 423.067,91.954 423.594,91.954 L427.372,91.954 C427.899,91.954 428.326,92.381 428.326,92.908 C428.326,93.435 427.899,93.862 427.372,93.862" id="Fill-192" fill="#59649F"></path>
                            <path d="M419.343,93.862 L415.564,93.862 C415.037,93.862 414.611,93.435 414.611,92.908 C414.611,92.381 415.037,91.954 415.564,91.954 L419.343,91.954 C419.869,91.954 420.296,92.381 420.296,92.908 C420.296,93.435 419.869,93.862 419.343,93.862" id="Fill-193" fill="#59649F"></path>
                            <path d="M388.991,85.425 C388.464,85.425 388.037,84.998 388.037,84.471 L388.037,80.265 C388.037,79.738 388.464,79.311 388.991,79.311 C389.518,79.311 389.945,79.738 389.945,80.265 L389.945,84.471 C389.945,84.998 389.518,85.425 388.991,85.425" id="Fill-194" fill="#415091"></path>
                            <path d="M388.991,92.786 C388.464,92.786 388.037,92.359 388.037,91.832 L388.037,87.626 C388.037,87.099 388.464,86.672 388.991,86.672 C389.518,86.672 389.945,87.099 389.945,87.626 L389.945,91.832 C389.945,92.359 389.518,92.786 388.991,92.786" id="Fill-195" fill="#415091"></path>
                            <path d="M394.896,87.002 L391.116,87.002 C390.59,87.002 390.163,86.576 390.163,86.049 C390.163,85.522 390.59,85.095 391.116,85.095 L394.896,85.095 C395.422,85.095 395.849,85.522 395.849,86.049 C395.849,86.576 395.422,87.002 394.896,87.002" id="Fill-196" fill="#415091"></path>
                            <path d="M386.866,87.002 L383.087,87.002 C382.561,87.002 382.133,86.576 382.133,86.049 C382.133,85.522 382.561,85.095 383.087,85.095 L386.866,85.095 C387.392,85.095 387.82,85.522 387.82,86.049 C387.82,86.576 387.392,87.002 386.866,87.002" id="Fill-197" fill="#415091"></path>
                        </g>
                    </g>
                </g>
            </g>
        </g>
    </g>
</svg>