<svg width="50" height="50" viewBox="0 0 50 50" fill="none" xmlns="http://www.w3.org/2000/svg">
<path fill-rule="evenodd" clip-rule="evenodd" d="M41.4931 4.16669H8.50703C6.10996 4.16669 4.16675 6.1099 4.16675 8.50697V41.4931C4.16675 42.6442 4.62403 43.7482 5.43799 44.5621C6.25195 45.3761 7.35591 45.8334 8.50703 45.8334H41.4931C42.6443 45.8334 43.7482 45.3761 44.5622 44.5621C45.3761 43.7482 45.8334 42.6442 45.8334 41.4931V8.50697C45.8334 7.35585 45.3761 6.25189 44.5622 5.43792C43.7482 4.62396 42.6443 4.16669 41.4931 4.16669ZM36.2848 20.6597H28.4723C27.5135 20.6597 26.7362 19.8825 26.7362 18.9236C26.7362 17.9648 27.5135 17.1875 28.4723 17.1875H36.2848C37.2436 17.1875 38.0209 17.9648 38.0209 18.9236C38.0209 19.8825 37.2436 20.6597 36.2848 20.6597ZM38.0209 34.5486C38.0209 35.5075 37.2436 36.2847 36.2848 36.2847H28.4723C27.5135 36.2847 26.7362 35.5075 26.7362 34.5486C26.7362 33.5898 27.5135 32.8125 28.4723 32.8125H36.2848C37.2436 32.8125 38.0209 33.5898 38.0209 34.5486ZM23.7848 13.8889L18.5765 20.8334C18.2754 21.2376 17.8135 21.491 17.3108 21.5278H17.1876C16.7272 21.5277 16.2857 21.3447 15.9602 21.0191L13.356 18.4149C12.6776 17.7371 12.6772 16.6376 13.3551 15.9592C14.033 15.2809 15.1325 15.2805 15.8108 15.9584L17.0001 17.1476L21.007 11.8056C21.5823 11.0385 22.6705 10.8831 23.4376 11.4584C24.2046 12.0337 24.3601 13.1218 23.7848 13.8889ZM23.7848 31.25L18.5765 38.1945C18.2685 38.5882 17.8082 38.8331 17.3096 38.8685C16.811 38.9039 16.3207 38.7265 15.9601 38.3802L13.356 35.7761C12.698 35.0948 12.7075 34.012 13.3771 33.3424C14.0468 32.6727 15.1296 32.6633 15.8108 33.3212L17.0001 34.5104L21.007 29.1667C21.5823 28.3996 22.6705 28.2442 23.4376 28.8195C24.2046 29.3948 24.3601 30.483 23.7848 31.25Z" fill="url(#paint0_linear)"/>
<defs>
<linearGradient id="paint0_linear" x1="8.25158" y1="4.98357" x2="8.25158" y2="38.4806" gradientUnits="userSpaceOnUse">
<stop stop-color="#6CA7EF"/>
<stop offset="1" stop-color="#6F82F2"/>
</linearGradient>
</defs>
</svg>
