<svg fill="none" height="58" viewBox="0 0 58 58" width="58" xmlns="http://www.w3.org/2000/svg">
  <path clip-rule="evenodd"
        d="M29.5031 20.441C29.5031 25.7241 25.2203 30.0069 19.9372 30.0069C14.654 30.0069 10.3712 25.7241 10.3712 20.441C10.3712 15.1578 14.654 10.875 19.9372 10.875C25.2203 10.875 29.5031 15.1578 29.5031 20.441ZM31.1888 26.0577C32.0669 24.3156 32.5243 22.3919 32.524 20.441C32.5211 18.4893 32.0604 16.5655 31.1787 14.8242C30.9863 14.4329 31.0676 13.9623 31.3801 13.6582C33.1507 11.8818 35.554 10.8808 38.0622 10.875C43.3453 10.875 47.6281 15.1578 47.6281 20.441C47.6281 25.7241 43.3453 30.0069 38.0622 30.0069C35.5575 29.9985 33.1583 28.9977 31.3902 27.2238C31.0776 26.9197 30.9964 26.449 31.1888 26.0577ZM33.2752 31.8053C34.8169 31.2818 36.434 31.0144 38.0622 31.0139C46.4003 31.0228 53.1575 37.7799 53.1663 46.1181C53.1663 46.6742 52.7155 47.125 52.1594 47.125H39.0691C38.513 47.125 38.0622 46.6742 38.0622 46.1181C38.0607 41.3819 36.1966 36.8363 32.8724 33.4628C32.6307 33.2145 32.5337 32.8594 32.6155 32.5227C32.6973 32.186 32.9465 31.9151 33.2752 31.8053ZM19.9372 31.0139C28.279 31.0139 35.0413 37.7763 35.0413 46.1181C35.0413 46.6742 34.5905 47.125 34.0344 47.125H5.83995C5.28383 47.125 4.83301 46.6742 4.83301 46.1181C4.83301 37.7763 11.5954 31.0139 19.9372 31.0139Z"
        fill="#666161" fill-rule="evenodd"/>
</svg>
