<svg width="24" height="24" viewBox="0 0 24 24" fill="none" xmlns="http://www.w3.org/2000/svg">
<g id="bluetooth">
<path id="Shape" fill-rule="evenodd" clip-rule="evenodd" d="M16.3936 8.28979C16.6006 8.44505 16.7238 8.68769 16.7269 8.94646C16.7304 9.20571 16.6131 9.45182 16.4094 9.61229L13.2527 12.1006L16.4102 14.6006C16.6129 14.7611 16.7295 15.0065 16.7261 15.2649C16.7227 15.5234 16.5995 15.7656 16.3927 15.9206L11.8152 19.354C11.5627 19.5433 11.2249 19.5738 10.9426 19.4326C10.6602 19.2915 10.4819 19.0029 10.4819 18.6873V14.2831L7.33691 16.764C6.97517 17.0488 6.45097 16.9865 6.16608 16.6248C5.88119 16.263 5.9435 15.7388 6.30525 15.454L10.4819 12.1615V12.0331L6.33441 8.75146C6.09042 8.57041 5.9643 8.27091 6.00528 7.96986C6.04625 7.6688 6.24783 7.41391 6.53133 7.30465C6.81484 7.1954 7.13534 7.24909 7.36775 7.44479L10.4819 9.90812V5.52062C10.4819 5.20498 10.6602 4.91643 10.9426 4.77527C11.2249 4.63411 11.5627 4.66457 11.8152 4.85396L16.3936 8.28979ZM14.3965 15.2325C14.3973 15.1669 14.3672 15.1048 14.3152 15.0648L12.4827 13.6181C12.4196 13.569 12.3342 13.5596 12.2619 13.594C12.1901 13.6288 12.1444 13.7016 12.1444 13.7815V16.604C12.1447 16.6828 12.1896 16.7548 12.2602 16.7898C12.3304 16.8256 12.4149 16.8181 12.4777 16.7706L14.3111 15.3981C14.364 15.3594 14.3957 15.2981 14.3965 15.2325ZM12.4819 10.5815C12.4186 10.6306 12.3328 10.6393 12.261 10.6038C12.1891 10.5684 12.1438 10.4949 12.1444 10.4148V7.60396C12.1447 7.52508 12.1896 7.45315 12.2602 7.41812C12.3304 7.38237 12.4149 7.38981 12.4777 7.43729L14.3052 8.80729C14.3574 8.84684 14.388 8.90851 14.388 8.97396C14.388 9.0394 14.3574 9.10108 14.3052 9.14062L12.4819 10.5815ZM4.76775 11.354H2.54525C2.08501 11.354 1.71191 11.7271 1.71191 12.1873C1.71191 12.6475 2.08501 13.0206 2.54525 13.0206H4.76775C5.22798 13.0206 5.60108 12.6475 5.60108 12.1873C5.60108 11.7271 5.22798 11.354 4.76775 11.354ZM20.8786 11.354H18.6561C18.1958 11.354 17.8227 11.7271 17.8227 12.1873C17.8227 12.6475 18.1958 13.0206 18.6561 13.0206H20.8786C21.3388 13.0206 21.7119 12.6475 21.7119 12.1873C21.7119 11.7271 21.3388 11.354 20.8786 11.354Z" fill="#5A5A5A"/>
</g>
</svg>
