<?xml version="1.0" encoding="UTF-8"?>
<svg width="24px" height="24px" viewBox="0 0 24 24" version="1.1" xmlns="http://www.w3.org/2000/svg" xmlns:xlink="http://www.w3.org/1999/xlink">
    <title>9.Phones/bluetooth</title>
    <g id="9.Phones/bluetooth" stroke="none" stroke-width="1" fill="none" fill-rule="evenodd">
        <path d="M10.9425245,4.77527457 C11.2248445,4.63411456 11.5626878,4.66457787 11.8152025,4.85396389 L11.8152025,4.85396389 L16.3935358,8.28979723 C16.6005832,8.44505344 16.7237495,8.687691 16.7269457,8.94646389 C16.7303789,9.20571511 16.6130201,9.45182977 16.4093691,9.61229723 L16.4093691,9.61229723 L13.2527025,12.1006306 L16.4102025,14.6006306 C16.6128098,14.7611013 16.7294912,15.0064988 16.7260649,15.2649341 C16.7226387,15.5233695 16.5994927,15.7655875 16.3927025,15.9206306 L16.3927025,15.9206306 L11.8152025,19.3539639 C11.5626878,19.5433499 11.2248445,19.5738132 10.9425245,19.4326532 C10.6602044,19.2914932 10.4818691,19.0029406 10.4818691,18.6872924 L10.4818691,18.6872924 L10.4818691,14.2831306 L7.33686912,16.7639639 C6.97512261,17.0488508 6.45092268,16.9865437 6.16603581,16.6247972 C5.88114893,16.2630507 5.94345596,15.7388508 6.30520246,15.4539639 L6.30520246,15.4539639 L10.4818691,12.1614639 L10.4818691,12.0331306 L6.33436912,8.75146389 C6.09037677,8.57041205 5.96425763,8.27091708 6.00523258,7.96986378 C6.04620753,7.66881048 6.24778197,7.41391634 6.53128685,7.30465967 C6.81479173,7.19540299 7.135291,7.24910116 7.36770246,7.44479723 L7.36770246,7.44479723 L10.4818691,9.90813056 L10.4818691,5.52063056 C10.4818691,5.20498718 10.6602044,4.91643458 10.9425245,4.77527457 Z M12.4827025,13.6181306 C12.4195733,13.5689896 12.3341323,13.5596394 12.2618691,13.5939639 C12.1900051,13.6287801 12.1443691,13.7016102 12.1443691,13.7814639 L12.1443691,13.7814639 L12.1443691,16.6039639 C12.1446871,16.6828417 12.189525,16.7547758 12.2602025,16.7897972 C12.3303967,16.8255562 12.4148438,16.8181145 12.4777025,16.7706306 L12.4777025,16.7706306 L14.3110358,15.3981306 C14.3639932,15.3594457 14.3956436,15.2980826 14.3964796,15.2325057 C14.397283,15.1669287 14.3671764,15.1047938 14.3152025,15.0647972 L14.3152025,15.0647972 Z M4.76770246,11.3539639 C5.22793975,11.3539639 5.60103579,11.7270599 5.60103579,12.1872972 C5.60103579,12.6475345 5.22793975,13.0206306 4.76770246,13.0206306 L4.76770246,13.0206306 L2.54520246,13.0206306 C2.08496517,13.0206306 1.71186912,12.6475345 1.71186912,12.1872972 C1.71186912,11.7270599 2.08496517,11.3539639 2.54520246,11.3539639 L2.54520246,11.3539639 Z M20.8785358,11.3539639 C21.3387731,11.3539639 21.7118691,11.7270599 21.7118691,12.1872972 C21.7118691,12.6475345 21.3387731,13.0206306 20.8785358,13.0206306 L20.8785358,13.0206306 L18.6560358,13.0206306 C18.1957985,13.0206306 17.8227025,12.6475345 17.8227025,12.1872972 C17.8227025,11.7270599 18.1957985,11.3539639 18.6560358,11.3539639 L18.6560358,11.3539639 Z M12.4777025,7.43729723 C12.4148438,7.38981333 12.3303967,7.38237162 12.2602025,7.41813056 C12.189525,7.45315194 12.1446871,7.52508611 12.1443637,7.60396389 L12.1443637,7.60396389 L12.1443637,10.4147972 C12.1437942,10.494936 12.1890589,10.5683581 12.2609155,10.6038428 C12.3327722,10.6393276 12.4185868,10.630636 12.4818691,10.5814639 L12.4818691,10.5814639 L14.3052025,9.14063056 C14.3573516,9.10108563 14.3879851,9.03941111 14.3879851,8.97396389 C14.3879851,8.90851667 14.3573516,8.84684216 14.3052025,8.80729723 L14.3052025,8.80729723 Z" id="ðŸ–-Color" fill="#5A5A5A"></path>
        <rect id="_Transparent_Rectangle_" x="-0.144065438" y="0.0936462129" width="24" height="24"></rect>
    </g>
</svg>