<?xml version="1.0" encoding="UTF-8"?>
<svg width="24px" height="24px" viewBox="0 0 24 24" version="1.1" xmlns="http://www.w3.org/2000/svg" xmlns:xlink="http://www.w3.org/1999/xlink">
    <title>9.Phones/cellular_network_wifi_lte</title>
    <g id="9.Phones/cellular_network_wifi_lte" stroke="none" stroke-width="1" fill="none" fill-rule="evenodd">
        <path d="M5.786252,13.6653937 C6.2464893,13.6653937 6.61958534,14.0384897 6.61958534,14.498727 L6.61958534,14.498727 L6.61958534,19.9153937 C6.61958534,20.1455123 6.80613336,20.3320603 7.036252,20.3320603 L7.036252,20.3320603 L9.11958534,20.3320603 C9.57982263,20.3320603 9.95291867,20.7051564 9.95291867,21.1653937 C9.95291867,21.625631 9.57982263,21.998727 9.11958534,21.998727 L9.11958534,21.998727 L7.036252,21.998727 C6.48371765,21.998727 5.95381366,21.7792336 5.56311288,21.3885328 C5.17241209,20.997832 4.95291867,20.467928 4.95291867,19.9153937 L4.95291867,19.9153937 L4.95291867,14.498727 C4.95291867,14.0384897 5.32601471,13.6653937 5.786252,13.6653937 Z M18.286252,13.6653937 C18.7464893,13.6653937 19.1195853,14.0384897 19.1195853,14.498727 C19.1195853,14.9589643 18.7464893,15.3320603 18.286252,15.3320603 L18.286252,15.3320603 L16.2029187,15.3320603 C15.9728,15.3320603 15.786252,15.5186084 15.786252,15.748727 L15.786252,15.748727 L15.786252,16.998727 L17.036252,16.998727 C17.4964893,16.998727 17.8695853,17.3718231 17.8695853,17.8320603 C17.8695853,18.2922976 17.4964893,18.6653937 17.036252,18.6653937 L17.036252,18.6653937 L15.786252,18.6653937 L15.786252,19.9153937 C15.786252,20.1455123 15.9728,20.3320603 16.2029187,20.3320603 L16.2029187,20.3320603 L18.286252,20.3320603 C18.7464893,20.3320603 19.1195853,20.7051564 19.1195853,21.1653937 C19.1195853,21.625631 18.7464893,21.998727 18.286252,21.998727 L18.286252,21.998727 L16.2029187,21.998727 C15.6503843,21.998727 15.1204803,21.7792336 14.7297795,21.3885328 C14.3390788,20.997832 14.1195853,20.467928 14.1195853,19.9153937 L14.1195853,19.9153937 L14.1195853,15.748727 C14.1195853,14.5981338 15.0523254,13.6653937 16.2029187,13.6653937 L16.2029187,13.6653937 Z M13.286252,13.6653937 C13.7464893,13.6653937 14.1195853,14.0384897 14.1195853,14.498727 C14.1195853,14.9589643 13.7464893,15.3320603 13.286252,15.3320603 L13.286252,15.3320603 L12.4529187,15.3320603 L12.4529187,21.1653937 C12.4529187,21.625631 12.0798226,21.998727 11.6195853,21.998727 C11.159348,21.998727 10.786252,21.625631 10.786252,21.1653937 L10.786252,21.1653937 L10.786252,15.3320603 L9.95291867,15.3320603 C9.49268138,15.3320603 9.11958534,14.9589643 9.11958534,14.498727 C9.11958534,14.0384897 9.49268138,13.6653937 9.95291867,13.6653937 L9.95291867,13.6653937 Z M12.021252,8.89786371 C13.5838765,8.89288831 15.059503,9.6166817 16.0120853,10.8553937 C16.2042931,11.08981 16.2540436,11.4101119 16.1419969,11.6917861 C16.0299503,11.9734603 15.7737823,12.1720716 15.4730752,12.2104122 C15.172368,12.2487528 14.8745594,12.1207744 14.6954187,11.876227 C14.0546294,11.0487736 13.0669797,10.5644437 12.0204187,10.5644437 C10.9738576,10.5644437 9.98620789,11.0487736 9.34541867,11.876227 C9.16627799,12.1207744 8.86846936,12.2487528 8.56776219,12.2104122 C8.26705502,12.1720716 8.01088706,11.9734603 7.89884042,11.6917861 C7.78679378,11.4101119 7.83654427,11.08981 8.028752,10.8553937 C8.98177391,9.61631727 10.4580719,8.89249677 12.021252,8.89786371 Z M12.0123753,5.45056898 C14.3684478,5.44911361 16.5986245,6.51394766 18.078752,8.34706034 C18.2787108,8.57707093 18.3371541,8.89789371 18.2311493,9.18364075 C18.1251446,9.46938778 17.8716033,9.67447235 17.5700127,9.71842115 C17.2684221,9.76236994 16.9668966,9.63817157 16.783752,9.39456034 C15.6197882,7.95330064 13.8661839,7.11611233 12.0136074,7.1172454 C10.1610308,7.11837848 8.40845188,7.95771125 7.246252,9.40039368 C7.06289516,9.64272237 6.76216672,9.76603211 6.46146702,9.72218444 C6.16076732,9.67833678 5.90777448,9.47428407 5.80125349,9.18968574 C5.6947325,8.90508742 5.75157305,8.58506861 5.94958534,8.35456034 C7.42744468,6.5196186 9.65630289,5.45202733 12.0123753,5.45056898 Z M12.0238705,2.00127528 C15.2060826,2.00338823 18.2129216,3.459392 20.1879187,5.95456034 C20.4495473,6.31594062 20.3801482,6.81926709 20.030486,7.09636205 C19.6808239,7.37345702 19.1749558,7.32600958 18.8829187,6.98872701 C17.2247655,4.89000327 14.6977703,3.66495397 12.0230535,3.66316747 C9.34833667,3.66138097 6.81970725,4.88305351 5.158752,6.97956034 C4.97808551,7.2255978 4.6773592,7.35316933 4.37489149,7.31208291 C4.07242378,7.2709965 3.81662432,7.06782799 3.70813541,6.78251243 C3.5996465,6.49719688 3.65583168,6.17539875 3.85458534,5.94372701 C5.83289055,3.45118076 8.84165838,1.99916693 12.0238705,2.00127528 Z" id="ðŸ–-Color" fill="#5A5A5A"></path>
        <rect id="_Transparent_Rectangle_" x="0" y="0" width="24" height="24"></rect>
    </g>
</svg>