<svg width="24" height="24" viewBox="0 0 24 24" fill="none" xmlns="http://www.w3.org/2000/svg">
<path fill-rule="evenodd" clip-rule="evenodd" d="M20.1875 5.95457C18.2125 3.4594 15.2057 2.00339 12.0235 2.00128C8.84127 1.99917 5.8325 3.45119 3.85419 5.94373C3.65544 6.17541 3.59925 6.4972 3.70774 6.78252C3.81623 7.06783 4.07203 7.271 4.3745 7.31209C4.67697 7.35318 4.97769 7.2256 5.15836 6.97957C6.81931 4.88306 9.34794 3.66139 12.0227 3.66317C14.6974 3.66496 17.2244 4.89001 18.8825 6.98873C19.1746 7.32602 19.6804 7.37346 20.0301 7.09637C20.3798 6.81927 20.4492 6.31595 20.1875 5.95457ZM17.5696 9.71843C17.268 9.76238 16.9665 9.63818 16.7834 9.39457C15.6194 7.95331 13.8658 7.11612 12.0132 7.11725C10.1606 7.11838 8.40806 7.95772 7.24586 9.4004C7.0625 9.64273 6.76177 9.76604 6.46107 9.72219C6.16037 9.67834 5.90738 9.47429 5.80086 9.18969C5.69434 8.90509 5.75118 8.58507 5.94919 8.35457C7.42705 6.51963 9.65591 5.45203 12.012 5.45058C14.3681 5.44912 16.5982 6.51395 18.0784 8.34707C18.2783 8.57708 18.3368 8.8979 18.2308 9.18365C18.1248 9.46939 17.8712 9.67448 17.5696 9.71843ZM8.02836 10.8554C8.98138 9.61632 10.4577 8.8925 12.0209 8.8979C13.5835 8.89289 15.0591 9.61669 16.0117 10.8554C16.2039 11.0898 16.2537 11.4101 16.1416 11.6918C16.0296 11.9735 15.7734 12.1721 15.4727 12.2104C15.172 12.2488 14.8742 12.1208 14.695 11.8762C14.0542 11.0488 13.0666 10.5645 12.02 10.5645C10.9735 10.5645 9.98582 11.0488 9.34503 11.8762C9.16589 12.1208 8.86808 12.2488 8.56737 12.2104C8.26666 12.1721 8.01049 11.9735 7.89845 11.6918C7.7864 11.4101 7.83615 11.0898 8.02836 10.8554ZM7.03586 20.3321H9.11919C9.57943 20.3321 9.95253 20.7052 9.95253 21.1654C9.95253 21.6256 9.57943 21.9987 9.11919 21.9987H7.03586C6.48333 21.9987 5.95342 21.7792 5.56272 21.3885C5.17202 20.9978 4.95253 20.4679 4.95253 19.9154V14.4987C4.95253 14.0385 5.32562 13.6654 5.78586 13.6654C6.2461 13.6654 6.61919 14.0385 6.61919 14.4987V19.9154C6.61919 20.1455 6.80574 20.3321 7.03586 20.3321ZM16.2025 15.3321H18.2859C18.7461 15.3321 19.1192 14.959 19.1192 14.4987C19.1192 14.0385 18.7461 13.6654 18.2859 13.6654H16.2025C15.0519 13.6654 14.1192 14.5981 14.1192 15.7487V19.9154C14.1192 20.4679 14.3387 20.9978 14.7294 21.3885C15.1201 21.7792 15.65 21.9987 16.2025 21.9987H18.2859C18.7461 21.9987 19.1192 21.6256 19.1192 21.1654C19.1192 20.7052 18.7461 20.3321 18.2859 20.3321H16.2025C15.9724 20.3321 15.7859 20.1455 15.7859 19.9154V18.6654H17.0359C17.4961 18.6654 17.8692 18.2923 17.8692 17.8321C17.8692 17.3718 17.4961 16.9987 17.0359 16.9987H15.7859V15.7487C15.7859 15.5186 15.9724 15.3321 16.2025 15.3321ZM9.95253 13.6654H13.2859C13.7461 13.6654 14.1192 14.0385 14.1192 14.4987C14.1192 14.959 13.7461 15.3321 13.2859 15.3321H12.4525V21.1654C12.4525 21.6256 12.0794 21.9987 11.6192 21.9987C11.159 21.9987 10.7859 21.6256 10.7859 21.1654V15.3321H9.95253C9.49229 15.3321 9.11919 14.959 9.11919 14.4987C9.11919 14.0385 9.49229 13.6654 9.95253 13.6654Z" fill="#5A5A5A"/>
</svg>
