<?xml version="1.0" encoding="UTF-8"?>
<svg width="24px" height="24px" viewBox="0 0 24 24" version="1.1" xmlns="http://www.w3.org/2000/svg" xmlns:xlink="http://www.w3.org/1999/xlink">
    <title>9.Phones/cellular_network_wifi_5g</title>
    <g id="9.Phones/cellular_network_wifi_5g" stroke="none" stroke-width="1" fill="none" fill-rule="evenodd">
        <path d="M10.336252,13.6653937 C10.7964893,13.6653937 11.1695853,14.0384897 11.1695853,14.498727 C11.1695853,14.9589643 10.7964893,15.3320603 10.336252,15.3320603 L10.336252,15.3320603 L7.211252,15.3320603 C7.09619268,15.3320603 7.00291867,15.4253344 7.00291867,15.5403937 L7.00291867,15.5403937 L7.00291867,16.7903937 C7.00291867,16.905453 7.09619268,16.998727 7.211252,16.998727 L7.211252,16.998727 L8.66958534,16.998727 C10.0502972,16.998727 11.1695853,18.1180151 11.1695853,19.498727 C11.1695853,20.8794389 10.0502972,21.998727 8.66958534,21.998727 L8.66958534,21.998727 L6.16958534,21.998727 C5.70934805,21.998727 5.336252,21.625631 5.336252,21.1653937 C5.336252,20.7051564 5.70934805,20.3320603 6.16958534,20.3320603 L6.16958534,20.3320603 L8.66958534,20.3320603 C9.12982263,20.3320603 9.50291867,19.9589643 9.50291867,19.498727 C9.50291867,19.0384897 9.12982263,18.6653937 8.66958534,18.6653937 L8.66958534,18.6653937 L7.00291867,18.6653937 C6.08244409,18.6653937 5.336252,17.9192016 5.336252,16.998727 L5.336252,16.998727 L5.336252,14.498727 C5.336252,14.0384897 5.70934805,13.6653937 6.16958534,13.6653937 L6.16958534,13.6653937 Z M15.336252,13.6653937 C16.7169639,13.6653937 17.836252,14.7846818 17.836252,16.1653937 C17.836252,16.625631 17.463156,16.998727 17.0029187,16.998727 C16.5426814,16.998727 16.1695853,16.625631 16.1695853,16.1653937 C16.1695853,15.9443799 16.081788,15.7324183 15.9255077,15.576138 C15.7692273,15.4198577 15.5572657,15.3320603 15.336252,15.3320603 C14.8760147,15.3320603 14.5029187,15.7051564 14.5029187,16.1653937 L14.5029187,16.1653937 L14.5029187,19.498727 C14.5029187,19.9589643 14.8760147,20.3320603 15.336252,20.3320603 C15.7964893,20.3320603 16.1695853,19.9589643 16.1695853,19.498727 L16.1695853,19.498727 L15.7529187,19.498727 C15.2926814,19.498727 14.9195853,19.125631 14.9195853,18.6653937 C14.9195853,18.2051564 15.2926814,17.8320603 15.7529187,17.8320603 L15.7529187,17.8320603 L17.0029187,17.8320603 C17.463156,17.8320603 17.836252,18.2051564 17.836252,18.6653937 L17.836252,18.6653937 L17.836252,19.498727 C17.836252,20.8794389 16.7169639,21.998727 15.336252,21.998727 C13.9555401,21.998727 12.836252,20.8794389 12.836252,19.498727 L12.836252,19.498727 L12.836252,16.1653937 C12.836252,14.7846818 13.9555401,13.6653937 15.336252,13.6653937 Z M12.0170853,8.89773449 C13.5788218,8.89773449 15.0526308,9.62054426 16.008752,10.8553937 C16.2009597,11.08981 16.2507102,11.4101119 16.1386636,11.6917861 C16.026617,11.9734603 15.770449,12.1720716 15.4697418,12.2104122 C15.1690346,12.2487528 14.871226,12.1207744 14.6920853,11.876227 C14.0512961,11.0487736 13.0636464,10.5644437 12.0170853,10.5644437 C10.9705243,10.5644437 9.98287456,11.0487736 9.34208534,11.876227 C9.16294466,12.1207744 8.86513603,12.2487528 8.56442886,12.2104122 C8.26372168,12.1720716 8.00755372,11.9734603 7.89550708,11.6917861 C7.78346045,11.4101119 7.83321094,11.08981 8.02541867,10.8553937 C8.98153988,9.62054426 10.4553489,8.89773449 12.0170853,8.89773449 Z M12.021252,5.45036816 C14.375283,5.44707332 16.6035332,6.51261158 18.078752,8.34706034 C18.2787108,8.57707093 18.3371541,8.89789371 18.2311493,9.18364075 C18.1251446,9.46938778 17.8716033,9.67447235 17.5700127,9.71842115 C17.2684221,9.76236994 16.9668966,9.63817157 16.783752,9.39456034 C15.6197882,7.95330064 13.8661839,7.11611233 12.0136074,7.1172454 C10.1610308,7.11837848 8.40845188,7.95771125 7.246252,9.40039368 C7.06289516,9.64272237 6.76216672,9.76603211 6.46146702,9.72218444 C6.16076732,9.67833678 5.90777448,9.47428407 5.80125349,9.18968574 C5.6947325,8.90508742 5.75157305,8.58506861 5.94958534,8.35456034 C7.42626713,6.51322366 9.66093988,5.44434712 12.021252,5.45036816 Z M12.0238705,2.00127528 C15.2060826,2.00338823 18.2129216,3.459392 20.1879187,5.95456034 C20.4495473,6.31594062 20.3801482,6.81926709 20.030486,7.09636205 C19.6808239,7.37345702 19.1749558,7.32600958 18.8829187,6.98872701 C17.2247655,4.89000327 14.6977703,3.66495397 12.0230535,3.66316747 C9.34833667,3.66138097 6.81970725,4.88305351 5.158752,6.97956034 C4.97808551,7.2255978 4.6773592,7.35316933 4.37489149,7.31208291 C4.07242378,7.2709965 3.81662432,7.06782799 3.70813541,6.78251243 C3.5996465,6.49719688 3.65583168,6.17539875 3.85458534,5.94372701 C5.83289055,3.45118076 8.84165838,1.99916693 12.0238705,2.00127528 Z" id="ðŸ–-Color" fill="#5A5A5A"></path>
        <rect id="_Transparent_Rectangle_" x="0" y="0" width="24" height="24"></rect>
    </g>
</svg>