<svg width="24" height="24" viewBox="0 0 24 24" fill="none" xmlns="http://www.w3.org/2000/svg">
<g id="cellular_network_wifi_5g">
<path id="Shape" fill-rule="evenodd" clip-rule="evenodd" d="M12.0235 2.00128C15.2057 2.00339 18.2125 3.4594 20.1875 5.95457C20.4492 6.31595 20.3798 6.81927 20.0301 7.09637C19.6804 7.37346 19.1746 7.32602 18.8825 6.98873C17.2244 4.89001 14.6974 3.66496 12.0227 3.66317C9.34794 3.66139 6.81931 4.88306 5.15836 6.97957C4.97769 7.2256 4.67697 7.35318 4.3745 7.31209C4.07203 7.271 3.81623 7.06783 3.70774 6.78252C3.59925 6.4972 3.65544 6.17541 3.85419 5.94373C5.8325 3.45119 8.84127 1.99917 12.0235 2.00128ZM12.0209 5.4504C9.66055 5.44435 7.42587 6.51323 5.94919 8.35457C5.75118 8.58507 5.69434 8.90509 5.80086 9.18969C5.90738 9.47429 6.16037 9.67834 6.46107 9.72219C6.76177 9.76604 7.0625 9.64273 7.24586 9.4004C8.40806 7.95772 10.1606 7.11838 12.0132 7.11725C13.8658 7.11612 15.6194 7.95331 16.7834 9.39457C16.9665 9.63818 17.268 9.76238 17.5696 9.71843C17.8712 9.67448 18.1248 9.46939 18.2308 9.18365C18.3368 8.8979 18.2783 8.57708 18.0784 8.34707C16.6031 6.51262 14.3749 5.44708 12.0209 5.4504ZM14.6917 11.8762C14.8708 12.1208 15.1686 12.2488 15.4693 12.2104C15.7701 12.1721 16.0262 11.9735 16.1383 11.6918C16.2503 11.4101 16.2006 11.0898 16.0084 10.8554C15.0522 9.62055 13.5784 8.89774 12.0167 8.89774C10.455 8.89774 8.98115 9.62055 8.02503 10.8554C7.83282 11.0898 7.78307 11.4101 7.89511 11.6918C8.00716 11.9735 8.26333 12.1721 8.56404 12.2104C8.86474 12.2488 9.16255 12.1208 9.34169 11.8762C9.98248 11.0488 10.9701 10.5645 12.0167 10.5645C13.0633 10.5645 14.0509 11.0488 14.6917 11.8762ZM10.3359 15.3321C10.7961 15.3321 11.1692 14.959 11.1692 14.4987C11.1692 14.0385 10.7961 13.6654 10.3359 13.6654H6.16919C5.70896 13.6654 5.33586 14.0385 5.33586 14.4987V16.9987C5.33586 17.9192 6.08205 18.6654 7.00253 18.6654H8.66919C9.12943 18.6654 9.50253 19.0385 9.50253 19.4987C9.50253 19.959 9.12943 20.3321 8.66919 20.3321H6.16919C5.70896 20.3321 5.33586 20.7052 5.33586 21.1654C5.33586 21.6256 5.70896 21.9987 6.16919 21.9987H8.66919C10.0499 21.9987 11.1692 20.8794 11.1692 19.4987C11.1692 18.118 10.0499 16.9987 8.66919 16.9987H7.21086C7.0958 16.9987 7.00253 16.9055 7.00253 16.7904V15.5404C7.00253 15.4253 7.0958 15.3321 7.21086 15.3321H10.3359ZM15.9251 15.5761C15.7688 15.4199 15.5569 15.3321 15.3359 15.3321C14.8756 15.3321 14.5025 15.7052 14.5025 16.1654V19.4987C14.5025 19.959 14.8756 20.3321 15.3359 20.3321C15.7961 20.3321 16.1692 19.959 16.1692 19.4987H15.7525C15.2923 19.4987 14.9192 19.1256 14.9192 18.6654C14.9192 18.2052 15.2923 17.8321 15.7525 17.8321H17.0025C17.4628 17.8321 17.8359 18.2052 17.8359 18.6654V19.4987C17.8359 20.8794 16.7166 21.9987 15.3359 21.9987C13.9551 21.9987 12.8359 20.8794 12.8359 19.4987V16.1654C12.8359 14.7847 13.9551 13.6654 15.3359 13.6654C16.7166 13.6654 17.8359 14.7847 17.8359 16.1654C17.8359 16.6256 17.4628 16.9987 17.0025 16.9987C16.5423 16.9987 16.1692 16.6256 16.1692 16.1654C16.1692 15.9444 16.0814 15.7324 15.9251 15.5761Z" fill="#5A5A5A"/>
</g>
</svg>
