<svg width="24" height="24" viewBox="0 0 24 24" fill="none" xmlns="http://www.w3.org/2000/svg">
<g id="charging_cable">
<path id="Shape" fill-rule="evenodd" clip-rule="evenodd" d="M10.9583 6.99994H10.125C9.88119 6.99982 9.65971 6.85794 9.55768 6.63651C9.45565 6.41508 9.49169 6.15453 9.65 5.96911L12.9342 2.14494C13.0478 2.0129 13.2316 1.96548 13.3949 2.02605C13.5582 2.08663 13.6666 2.24241 13.6667 2.41661V5.12494C13.6667 5.24 13.7599 5.33328 13.875 5.33328H14.7083C14.9521 5.3334 15.1736 5.47529 15.2757 5.69672C15.3777 5.91815 15.3416 6.17869 15.1833 6.36411L11.8992 10.1883C11.7848 10.3192 11.6018 10.3665 11.4383 10.3074C11.275 10.2468 11.1666 10.0909 11.1667 9.91661V7.20828C11.1667 7.09322 11.0734 6.99994 10.9583 6.99994ZM21.7917 7.05578V4.91661C21.7917 4.57143 21.5118 4.29161 21.1667 4.29161H18.6667C18.3215 4.29161 18.0417 4.57143 18.0417 4.91661V7.05578C17.9128 7.13021 17.8333 7.26775 17.8333 7.41661V10.7499C17.8333 11.4403 18.393 11.9999 19.0833 11.9999V13.6666C19.0846 15.3692 18.4319 17.0073 17.26 18.2424C17.7788 16.2191 16.9851 14.0865 15.2698 12.8946C13.5544 11.7026 11.2789 11.7026 9.56356 12.8946C7.84821 14.0865 7.05455 16.2191 7.57333 18.2424C6.40144 17.0073 5.74871 15.3692 5.75 13.6666V11.9999C6.30253 11.9999 6.83244 11.7805 7.22314 11.3898C7.61384 10.9991 7.83333 10.4691 7.83333 9.91661V6.16661C7.83333 5.93649 7.64679 5.74994 7.41667 5.74994H7.20833V2.83328C7.20833 2.4881 6.92851 2.20828 6.58333 2.20828H3.25C2.90482 2.20828 2.625 2.4881 2.625 2.83328V5.74994H2.41667C2.18655 5.74994 2 5.93649 2 6.16661V9.91661C2 11.0672 2.93274 11.9999 4.08333 11.9999V13.6666C4.08333 18.269 7.81429 21.9999 12.4167 21.9999C17.019 21.9999 20.75 18.269 20.75 13.6666V11.9999C21.4404 11.9999 22 11.4403 22 10.7499V7.41661C22 7.26775 21.9206 7.13021 21.7917 7.05578ZM3.875 3.66661C3.875 3.55155 3.96827 3.45828 4.08333 3.45828H5.75C5.86506 3.45828 5.95833 3.55155 5.95833 3.66661V5.54161C5.95833 5.65667 5.86506 5.74994 5.75 5.74994H4.08333C3.96827 5.74994 3.875 5.65667 3.875 5.54161V3.66661ZM15.75 16.9999C15.75 15.159 14.2576 13.6666 12.4167 13.6666C10.5757 13.6666 9.08333 15.159 9.08333 16.9999C9.08333 18.8409 10.5757 20.3333 12.4167 20.3333C14.2576 20.3333 15.75 18.8409 15.75 16.9999ZM20.3333 5.54161C20.4484 5.54161 20.5417 5.63488 20.5417 5.74994V6.79161C20.5417 6.90667 20.4484 6.99994 20.3333 6.99994H19.5C19.3849 6.99994 19.2917 6.90667 19.2917 6.79161V5.74994C19.2917 5.63488 19.3849 5.54161 19.5 5.54161H20.3333Z" fill="#5A5A5A"/>
</g>
</svg>
