<?xml version="1.0" encoding="UTF-8"?>
<svg width="24px" height="24px" viewBox="0 0 24 24" version="1.1" xmlns="http://www.w3.org/2000/svg" xmlns:xlink="http://www.w3.org/1999/xlink">
    <title>9.Phones/charging_battery_almost_full_1</title>
    <g id="9.Phones/charging_battery_almost_full_1" stroke="none" stroke-width="1" fill="none" fill-rule="evenodd">
        <path d="M17.8333333,6.58333333 C18.7538079,6.58333333 19.5,7.32952542 19.5,8.25 L19.5,8.25 L19.5,9.08333333 L20.3333333,9.08333333 C21.2538079,9.08333333 22,9.82952542 22,10.75 L22,10.75 L22,13.25 C22,14.1704746 21.2538079,14.9166667 20.3333333,14.9166667 L20.3333333,14.9166667 L19.5,14.9166667 L19.5,15.75 C19.5,16.6704746 18.7538079,17.4166667 17.8333333,17.4166667 L17.8333333,17.4166667 L3.66666667,17.4166667 C2.74619208,17.4166667 2,16.6704746 2,15.75 L2,15.75 L2,8.25 C2,7.32952542 2.74619208,6.58333333 3.66666667,6.58333333 L3.66666667,6.58333333 Z M17.4166667,8.25 L4.08333333,8.25 C3.85321469,8.25 3.66666667,8.43654802 3.66666667,8.66666667 L3.66666667,8.66666667 L3.66666667,15.3333333 C3.66666667,15.563452 3.85321469,15.75 4.08333333,15.75 L4.08333333,15.75 L17.4166667,15.75 C17.6467853,15.75 17.8333333,15.563452 17.8333333,15.3333333 L17.8333333,15.3333333 L17.8333333,14.0833333 C17.8333333,13.623096 18.2064294,13.25 18.6666667,13.25 L18.6666667,13.25 L20.125,13.25 C20.2400593,13.25 20.3333333,13.156726 20.3333333,13.0416667 L20.3333333,13.0416667 L20.3333333,10.9583333 C20.3333333,10.843274 20.2400593,10.75 20.125,10.75 L20.125,10.75 L18.6666667,10.75 C18.2064294,10.75 17.8333333,10.376904 17.8333333,9.91666667 L17.8333333,9.91666667 L17.8333333,8.66666667 C17.8333333,8.43654802 17.6467853,8.25 17.4166667,8.25 L17.4166667,8.25 Z M13.1666667,9.08333333 C13.442809,9.08333333 13.6666667,9.30719096 13.6666667,9.58333333 L13.6666667,14.4166667 C13.6666667,14.692809 13.442809,14.9166667 13.1666667,14.9166667 L5,14.9166667 C4.72385763,14.9166667 4.5,14.692809 4.5,14.4166667 L4.5,9.58333333 C4.5,9.30719096 4.72385763,9.08333333 5,9.08333333 L13.1666667,9.08333333 Z" id="ðŸ–-Color" fill="#5A5A5A"></path>
        <rect id="_Transparent_Rectangle_" x="0" y="0" width="24" height="24"></rect>
    </g>
</svg>