<svg width="24" height="24" viewBox="0 0 24 24" fill="none" xmlns="http://www.w3.org/2000/svg">
<g id="charging_battery_almost_full_1">
<path id="Shape" fill-rule="evenodd" clip-rule="evenodd" d="M20.3333 9.08333H19.5V8.24999C19.5 7.32952 18.7538 6.58333 17.8333 6.58333H3.66667C2.74619 6.58333 2 7.32952 2 8.24999V15.75C2 16.6705 2.74619 17.4167 3.66667 17.4167H17.8333C18.7538 17.4167 19.5 16.6705 19.5 15.75V14.9167H20.3333C21.2538 14.9167 22 14.1705 22 13.25V10.75C22 9.82952 21.2538 9.08333 20.3333 9.08333ZM20.3333 13.0417C20.3333 13.1567 20.2401 13.25 20.125 13.25H18.6667C18.2064 13.25 17.8333 13.6231 17.8333 14.0833V15.3333C17.8333 15.5634 17.6468 15.75 17.4167 15.75H4.08333C3.85321 15.75 3.66667 15.5634 3.66667 15.3333V8.66666C3.66667 8.43654 3.85321 8.24999 4.08333 8.24999H17.4167C17.6468 8.24999 17.8333 8.43654 17.8333 8.66666V9.91666C17.8333 10.3769 18.2064 10.75 18.6667 10.75H20.125C20.2401 10.75 20.3333 10.8433 20.3333 10.9583V13.0417ZM5 9.08333C4.72386 9.08333 4.5 9.30719 4.5 9.58333V14.4167C4.5 14.6928 4.72386 14.9167 5 14.9167H13.1667C13.4428 14.9167 13.6667 14.6928 13.6667 14.4167V9.58333C13.6667 9.30719 13.4428 9.08333 13.1667 9.08333H5Z" fill="#5A5A5A"/>
</g>
</svg>
