<?xml version="1.0" encoding="UTF-8"?>
<svg width="24px" height="24px" viewBox="0 0 24 24" version="1.1" xmlns="http://www.w3.org/2000/svg" xmlns:xlink="http://www.w3.org/1999/xlink">
    <title>9.Phones/charging_battery_empty</title>
    <g id="9.Phones/charging_battery_empty" stroke="none" stroke-width="1" fill="none" fill-rule="evenodd">
        <path d="M12.0985787,5.90708819 C12.2089908,5.76855887 12.3949238,5.71498794 12.5621171,5.77353374 C12.7293104,5.83207954 12.8412065,5.98994082 12.8410787,6.16708819 L12.8410787,6.16708819 L12.8410787,10.5412549 C12.8410787,10.6563142 12.9343527,10.7495882 13.049412,10.7495882 L13.049412,10.7495882 L14.611912,10.7495882 C14.896274,10.7494046 15.1548011,10.914549 15.274181,11.1726386 C15.3935609,11.4307282 15.352012,11.7346733 15.1677453,11.9512549 L15.1677453,11.9512549 L10.2502453,18.0945882 C10.1384668,18.2314928 9.95328483,18.2843545 9.78607866,18.2270882 C9.61920994,18.1683565 9.50761787,18.0106575 9.50774533,17.8337549 L9.50774533,17.8337549 L9.50774533,13.4587549 C9.50774533,13.3436955 9.41447132,13.2504215 9.299412,13.2504215 L9.299412,13.2504215 L7.736912,13.2504215 C7.45270072,13.2502802 7.19447074,13.0850138 7.07530158,12.8269929 C6.95613243,12.568972 6.99774303,12.2652216 7.181912,12.0487549 L7.181912,12.0487549 Z M17.8410787,6.58375486 C18.7615532,6.58375486 19.5077453,7.32994694 19.5077453,8.25042153 L19.5077453,8.25042153 L19.5077453,9.08375486 L20.3410787,9.08375486 C21.2615532,9.08375486 22.0077453,9.82994694 22.0077453,10.7504215 L22.0077453,10.7504215 L22.0077453,13.2504215 C22.0077453,14.1708961 21.2615532,14.9170882 20.3410787,14.9170882 L20.3410787,14.9170882 L19.5077453,14.9170882 L19.5077453,15.7504215 C19.5077453,16.6708961 18.7615532,17.4171249 17.8410787,17.4171249 L17.8410787,17.4171249 L12.831912,17.4171249 C12.7511624,17.4185997 12.6768145,17.3733046 12.6411248,17.3008545 C12.6054351,17.2284043 12.6148346,17.1418543 12.6652453,17.0787549 L12.6652453,17.0787549 L13.6652453,15.8287549 C13.7047128,15.7793303 13.7644961,15.7505117 13.8277453,15.7504215 L13.8277453,15.7504215 L17.424412,15.7504215 C17.6545306,15.7504215 17.8410787,15.5638735 17.8410787,15.3337549 L17.8410787,15.3337549 L17.8410787,14.0837549 C17.8410787,13.6235176 18.2141747,13.2504215 18.674412,13.2504215 L18.674412,13.2504215 L20.3410787,13.2504215 L20.3410787,10.7504215 L18.674412,10.7504215 C18.2141747,10.7504215 17.8410787,10.3773255 17.8410787,9.91708819 L17.8410787,9.91708819 L17.8410787,8.66708819 C17.8410787,8.43696955 17.6545306,8.25042153 17.424412,8.25042153 L17.424412,8.25042153 L14.299412,8.25042153 C14.1843527,8.25042153 14.0910787,8.15714752 14.0910787,8.04208819 L14.0910787,8.04208819 L14.0910787,6.79208819 C14.0910787,6.67702887 14.1843527,6.58375486 14.299412,6.58375486 L14.299412,6.58375486 Z M9.516912,6.58371817 C9.59766157,6.58224332 9.67200945,6.62753847 9.70769917,6.6999886 C9.74338889,6.77243874 9.73398937,6.85898876 9.68357866,6.92208819 L9.68357866,6.92208819 L8.68357866,8.17208819 C8.64434809,8.22180901 8.58441206,8.25070125 8.52107866,8.25042153 L8.52107866,8.25042153 L4.09107866,8.25042153 C3.86096002,8.25042153 3.674412,8.43696955 3.674412,8.66708819 L3.674412,8.66708819 L3.674412,15.3337549 C3.674412,15.5638735 3.86096002,15.7504215 4.09107866,15.7504215 L4.09107866,15.7504215 L8.049412,15.7504215 C8.16447132,15.7504215 8.25774533,15.8436955 8.25774533,15.9587549 L8.25774533,15.9587549 L8.25774533,17.2087549 C8.25774533,17.3238142 8.16447132,17.4170882 8.049412,17.4170882 L8.049412,17.4170882 L3.674412,17.4170882 C2.75393741,17.4170882 2.00774533,16.6708961 2.00774533,15.7504215 L2.00774533,15.7504215 L2.00774533,8.25042153 C2.00774533,7.32994694 2.75393741,6.58371817 3.674412,6.58371817 L3.674412,6.58371817 Z" id="ðŸ–-Color" fill="#5A5A5A"></path>
        <rect id="_Transparent_Rectangle_" x="0" y="0" width="24" height="24"></rect>
    </g>
</svg>