<?xml version="1.0" encoding="UTF-8"?>
<svg width="24px" height="24px" viewBox="0 0 24 24" version="1.1" xmlns="http://www.w3.org/2000/svg" xmlns:xlink="http://www.w3.org/1999/xlink">
    <title>9.Phones/charging_flash_wave</title>
    <g id="9.Phones/charging_flash_wave" stroke="none" stroke-width="1" fill="none" fill-rule="evenodd">
        <path d="M12.7667762,6.76675107 C12.8775143,6.62390253 13.0625681,6.5691016 13.2288862,6.62990407 C13.3952043,6.69070654 13.5067937,6.85395407 13.5075434,7.03756023 L13.5075434,7.03756023 L13.5075434,11.0163717 C13.5075434,11.1362145 13.6008091,11.2333662 13.7158581,11.2333662 L13.7158581,11.2333662 L15.0324073,11.2333662 C15.3026678,11.2337944 15.5481779,11.3973994 15.6618408,11.6528131 C15.7755036,11.9082269 15.7367012,12.2091184 15.56236,12.4242322 L15.56236,12.4242322 L11.1977496,18.1103565 C11.0871107,18.2541551 10.9013544,18.3094894 10.7344576,18.248365 C10.5682209,18.1870048 10.4570834,18.0232606 10.4569824,17.8395474 L10.4569824,17.8395474 L10.4569824,13.8607359 C10.4569824,13.7408931 10.3637167,13.6437414 10.2486676,13.6437414 L10.2486676,13.6437414 L8.93211848,13.6437414 C8.66168308,13.6437033 8.41589183,13.4800526 8.30230283,13.2244028 C8.18871382,12.968753 8.22801143,12.6676575 8.40299905,12.4528754 L8.40299905,12.4528754 Z M5.83239518,5.80850328 C6.25382377,5.63629352 6.73015213,5.84607612 6.90516565,6.2809685 C7.08017917,6.71586088 6.88984626,7.21675042 6.47650435,7.40905485 C4.77223112,8.15404301 3.66338381,9.89138315 3.66338381,11.8166475 C3.66338381,13.7419119 4.77223112,15.479252 6.47650435,16.2242402 L6.47650435,16.2242402 C6.88541685,16.4146116 7.07463416,16.913637 6.90085597,17.3473772 C6.72707779,17.7811174 6.25344392,17.9919791 5.83239518,17.8230558 C3.51044104,16.806888 2,14.4392729 2,11.8157795 C2,9.19228616 3.51044104,6.82467108 5.83239518,5.80850328 Z M17.315973,5.89775031 C17.5616911,5.70800364 17.8874591,5.67374492 18.1646277,5.80850328 L18.1646277,5.80850328 C20.4881681,6.8212918 22,9.18976077 22,11.8144776 C22,14.4391944 20.4881681,16.8076633 18.1646277,17.8230558 C17.7483959,17.9747046 17.2908038,17.7623036 17.1207345,17.3385107 C16.9506652,16.9147179 17.1270069,16.4262758 17.5230183,16.2242402 C19.2272915,15.479252 20.3361388,13.7419119 20.3361388,11.8166475 C20.3361388,9.89138315 19.2272915,8.15404301 17.5230183,7.40905485 C17.2361564,7.29847729 17.0305142,7.03307152 16.9873021,6.71764904 C16.9440899,6.40222655 17.0702548,6.08749699 17.315973,5.89775031 Z M6.59149409,8.93930019 C7.00160231,8.73902491 7.49018456,8.91667356 7.69156652,9.33928686 C7.89294848,9.76190017 7.73336794,10.2746832 7.33226129,10.4938489 L7.33226129,10.4938489 C6.84916319,10.7391098 6.54339464,11.2518329 6.54339464,11.8131756 C6.54339464,12.3745183 6.84916319,12.8872414 7.33226129,13.1359742 C7.59944233,13.2738131 7.77573308,13.54966 7.79472651,13.859606 C7.81371995,14.1695521 7.67253051,14.4665091 7.42434291,14.6386163 C7.1761553,14.8107235 6.85867513,14.8318337 6.59149409,14.6939948 C5.54183804,14.1519484 4.87781663,13.0370244 4.87781663,11.8166475 C4.87781663,10.5962706 5.54183804,9.48134657 6.59149409,8.93930019 Z M16.2446284,9.33928686 C16.4460104,8.91667356 16.9345926,8.73902491 17.3447008,8.93930019 C18.3954865,9.47991612 19.0589449,10.596727 19.0545699,11.8175155 C19.0589039,13.0378544 18.395362,14.1541322 17.3447008,14.6939948 C16.9345926,14.8942701 16.4460104,14.7166215 16.2446284,14.2940082 C16.0432465,13.8713948 16.202827,13.3586118 16.6039336,13.1394461 C17.0870317,12.8907133 17.3928003,12.3779902 17.3928003,11.8166475 C17.3928003,11.2553048 17.0870317,10.7425817 16.6039336,10.4938489 C16.202827,10.2746832 16.0432465,9.76190017 16.2446284,9.33928686 Z" id="ðŸ–-Color" fill="#5A5A5A"></path>
        <rect id="_Transparent_Rectangle_" x="0" y="0" width="24" height="24"></rect>
    </g>
</svg>