<svg width="24" height="24" viewBox="0 0 24 24" fill="none" xmlns="http://www.w3.org/2000/svg">
<g id="charging_flash_wave">
<path id="Shape" fill-rule="evenodd" clip-rule="evenodd" d="M18.1646 5.80851C17.8875 5.67375 17.5617 5.70801 17.316 5.89776C17.0703 6.08751 16.9441 6.40224 16.9873 6.71766C17.0305 7.03308 17.2362 7.29849 17.523 7.40906C19.2273 8.15405 20.3361 9.89139 20.3361 11.8167C20.3361 13.7419 19.2273 15.4793 17.523 16.2242C17.127 16.4263 16.9507 16.9147 17.1207 17.3385C17.2908 17.7623 17.7484 17.9747 18.1646 17.8231C20.4882 16.8077 22 14.4392 22 11.8145C22 9.18977 20.4882 6.8213 18.1646 5.80591V5.80851ZM6.4765 16.2242C4.77223 15.4793 3.66338 13.7419 3.66338 11.8167C3.66338 9.89139 4.77223 8.15405 6.4765 7.40906C6.88985 7.21676 7.08018 6.71587 6.90517 6.28098C6.73015 5.84608 6.25382 5.6363 5.8324 5.80851C3.51044 6.82468 2 9.19229 2 11.8158C2 14.4393 3.51044 16.8069 5.8324 17.8231C6.25344 17.992 6.72708 17.7811 6.90086 17.3474C7.07463 16.9136 6.88542 16.4146 6.474 16.2216L6.4765 16.2242ZM13.7159 11.2334H15.0324C15.3027 11.2338 15.5482 11.3974 15.6618 11.6528C15.7755 11.9082 15.7367 12.2091 15.5624 12.4242L11.1978 18.1104C11.0871 18.2542 10.9014 18.3095 10.7345 18.2484C10.5682 18.187 10.4571 18.0233 10.457 17.8396V13.8607C10.457 13.7409 10.3637 13.6437 10.2487 13.6437H8.93212C8.66168 13.6437 8.41589 13.4801 8.3023 13.2244C8.18871 12.9688 8.22801 12.6677 8.403 12.4529L12.7668 6.76676C12.8775 6.62391 13.0626 6.56911 13.2289 6.62991C13.3952 6.69072 13.5068 6.85396 13.5075 7.03757V11.0164C13.5075 11.1362 13.6008 11.2334 13.7159 11.2334ZM7.33226 10.4939C7.73337 10.2747 7.89295 9.76191 7.69157 9.3393C7.49018 8.91668 7.0016 8.73903 6.59149 8.93931C5.54184 9.48136 4.87782 10.5963 4.87782 11.8167C4.87782 13.037 5.54184 14.152 6.59149 14.694C6.85868 14.8318 7.17616 14.8107 7.42434 14.6386C7.67253 14.4665 7.81372 14.1696 7.79473 13.8596C7.77573 13.5497 7.59944 13.2738 7.33226 13.136C6.84916 12.8873 6.54339 12.3745 6.54339 11.8132C6.54339 11.2518 6.84916 10.7391 7.33226 10.4904V10.4939ZM17.3447 8.93931C18.3955 9.47992 19.0589 10.5967 19.0545 11.8175C19.0589 13.0379 18.3954 14.1541 17.3447 14.694C16.9346 14.8943 16.446 14.7166 16.2446 14.294C16.0432 13.8714 16.2028 13.3586 16.6039 13.1395C17.087 12.8907 17.3928 12.378 17.3928 11.8167C17.3928 11.2553 17.087 10.7426 16.6039 10.4939C16.2028 10.2747 16.0432 9.76191 16.2446 9.3393C16.446 8.91668 16.9346 8.73903 17.3447 8.93931Z" fill="#5A5A5A"/>
</g>
</svg>
