<svg width="24" height="24" viewBox="0 0 24 24" fill="none" xmlns="http://www.w3.org/2000/svg">
<g id="charging_battery_empty">
<path id="Shape" fill-rule="evenodd" clip-rule="evenodd" d="M15.2742 11.1726C15.3936 11.4307 15.3521 11.7347 15.1678 11.9512L10.2503 18.0946C10.1385 18.2315 9.95335 18.2843 9.78615 18.2271C9.61928 18.1684 9.50768 18.0107 9.50781 17.8337V13.4587C9.50781 13.3437 9.41454 13.2504 9.29948 13.2504H7.73698C7.45277 13.2503 7.19454 13.085 7.07537 12.827C6.9562 12.569 6.99781 12.2652 7.18198 12.0487L12.0986 5.90708C12.2091 5.76855 12.395 5.71498 12.5622 5.77353C12.7294 5.83207 12.8413 5.98994 12.8411 6.16708V10.5412C12.8411 10.6563 12.9344 10.7496 13.0495 10.7496H14.612C14.8963 10.7494 15.1549 10.9145 15.2742 11.1726ZM4.09115 15.7504C3.86103 15.7504 3.67448 15.5639 3.67448 15.3337V8.66708C3.67448 8.43696 3.86103 8.25042 4.09115 8.25042H8.52115C8.58448 8.2507 8.64442 8.2218 8.68365 8.17208L9.68365 6.92208C9.73406 6.85898 9.74346 6.77243 9.70777 6.69998C9.67208 6.62753 9.59773 6.58224 9.51698 6.58375H3.67448C2.754 6.58375 2.00781 7.32994 2.00781 8.25042V15.7504C2.00781 16.6709 2.754 17.4171 3.67448 17.4171H8.04948C8.16454 17.4171 8.25781 17.3238 8.25781 17.2087V15.9587C8.25781 15.8437 8.16454 15.7504 8.04948 15.7504H4.09115ZM22.0078 10.7504C22.0078 9.82994 21.2616 9.08375 20.3411 9.08375H19.5078V8.25042C19.5078 7.32994 18.7616 6.58375 17.8411 6.58375H14.2995C14.1844 6.58375 14.0911 6.67702 14.0911 6.79208V8.04208C14.0911 8.15714 14.1844 8.25042 14.2995 8.25042H17.4245C17.6546 8.25042 17.8411 8.43696 17.8411 8.66708V9.91708C17.8411 10.3773 18.2142 10.7504 18.6745 10.7504H20.3411V13.2504H18.6745C18.2142 13.2504 17.8411 13.6235 17.8411 14.0837V15.3337C17.8411 15.5639 17.6546 15.7504 17.4245 15.7504H13.8278C13.7646 15.7505 13.7048 15.7793 13.6653 15.8287L12.6653 17.0787C12.6149 17.1418 12.6055 17.2284 12.6412 17.3008C12.6769 17.3733 12.7512 17.4186 12.832 17.4171H17.8411C18.7616 17.4171 19.5078 16.6709 19.5078 15.7504V14.9171H20.3411C21.2616 14.9171 22.0078 14.1709 22.0078 13.2504V10.7504Z" fill="#5A5A5A"/>
</g>
</svg>
