<?xml version="1.0" encoding="UTF-8"?>
<svg width="24px" height="24px" viewBox="0 0 24 24" version="1.1" xmlns="http://www.w3.org/2000/svg" xmlns:xlink="http://www.w3.org/1999/xlink">
    <title>9.Phones/charging-cable</title>
    <g id="9.Phones/charging-cable" stroke="none" stroke-width="1" fill="none" fill-rule="evenodd">
        <path d="M6.58333333,2.20829015 C6.9285113,2.20829015 7.20833333,2.48811218 7.20833333,2.83329015 L7.20833333,2.83329015 L7.20833333,5.74995682 L7.41666667,5.74995682 C7.64678531,5.74995682 7.83333333,5.93650484 7.83333333,6.16662348 L7.83333333,6.16662348 L7.83333333,9.91662348 C7.83333333,10.4691578 7.61383992,10.9990618 7.22313913,11.3897626 C6.83243834,11.7804634 6.30253435,11.9999568 5.75,11.9999568 L5.75,11.9999568 L5.75,13.6666235 C5.7487142,15.3692425 6.4014376,17.0073157 7.57333333,18.2424568 C7.05455054,16.2191091 7.84821143,14.0864816 9.56355869,12.8945691 C11.278906,11.7026566 13.5544274,11.7026566 15.2697746,12.8945691 C16.9851219,14.0864816 17.7787828,16.2191091 17.26,18.2424568 C18.4318957,17.0073157 19.0846191,15.3692425 19.0833333,13.6666235 L19.0833333,13.6666235 L19.0833333,11.9999568 C18.3929774,11.9999568 17.8333333,11.4403128 17.8333333,10.7499568 L17.8333333,10.7499568 L17.8333333,7.41662348 C17.8333371,7.2677666 17.9127528,7.13021859 18.0416667,7.05579015 L18.0416667,7.05579015 L18.0416667,4.91662348 C18.0416667,4.57144552 18.3214887,4.29162348 18.6666667,4.29162348 L18.6666667,4.29162348 L21.1666667,4.29162348 C21.5118446,4.29162348 21.7916667,4.57144552 21.7916667,4.91662348 L21.7916667,4.91662348 L21.7916667,7.05579015 C21.9205805,7.13021859 22,7.2677666 22,7.41662348 L22,7.41662348 L22,10.7499568 C22,11.4403128 21.4403559,11.9999568 20.75,11.9999568 L20.75,11.9999568 L20.75,13.6666235 C20.75,18.2689964 17.0190396,21.9999568 12.4166667,21.9999568 C7.81429375,21.9999568 4.08333333,18.2689964 4.08333333,13.6666235 L4.08333333,13.6666235 L4.08333333,11.9999568 C2.9327401,11.9999568 2,11.0672167 2,9.91662348 L2,9.91662348 L2,6.16662348 C2,5.93650484 2.18654802,5.74995682 2.41666667,5.74995682 L2.41666667,5.74995682 L2.625,5.74995682 L2.625,2.83329015 C2.625,2.48811218 2.90482203,2.20829015 3.25,2.20829015 L3.25,2.20829015 Z M12.4166667,13.6666235 C10.5757175,13.6666235 9.08333333,15.1590077 9.08333333,16.9999568 C9.08333333,18.840906 10.5757175,20.3332902 12.4166667,20.3332902 C14.2576158,20.3332902 15.75,18.840906 15.75,16.9999568 C15.75,15.1590077 14.2576158,13.6666235 12.4166667,13.6666235 Z M12.9341667,2.14495682 C13.0477885,2.01291431 13.2315605,1.96549098 13.394888,2.02606525 C13.5582156,2.08663953 13.6666223,2.24242494 13.6666667,2.41662348 L13.6666667,2.41662348 L13.6666667,5.12495682 C13.6666667,5.24001614 13.7599407,5.33329015 13.875,5.33329015 L13.875,5.33329015 L14.7083333,5.33329015 C14.9521404,5.33341298 15.173621,5.47529821 15.2756541,5.69672796 C15.3776872,5.9181577 15.3416454,6.17870728 15.1833333,6.36412348 L15.1833333,6.36412348 L11.8991667,10.1882902 C11.7848034,10.3192041 11.6018229,10.3665209 11.4383333,10.3074568 C11.2749554,10.2468106 11.1665786,10.0908942 11.1666667,9.91662348 L11.1666667,9.91662348 L11.1666667,7.20829015 C11.1666667,7.09323083 11.0733927,6.99995682 10.9583333,6.99995682 L10.9583333,6.99995682 L10.125,6.99995682 C9.88119296,6.99983398 9.65971232,6.85794876 9.55767921,6.63651901 C9.4556461,6.41508927 9.49168791,6.15453969 9.65,5.96912348 L9.65,5.96912348 Z M20.3333333,5.54162348 L19.5,5.54162348 C19.3849407,5.54162348 19.2916667,5.63489749 19.2916667,5.74995682 L19.2916667,5.74995682 L19.2916667,6.79162348 C19.2916667,6.90668281 19.3849407,6.99995682 19.5,6.99995682 L19.5,6.99995682 L20.3333333,6.99995682 C20.4483927,6.99995682 20.5416667,6.90668281 20.5416667,6.79162348 L20.5416667,6.79162348 L20.5416667,5.74995682 C20.5416667,5.63489749 20.4483927,5.54162348 20.3333333,5.54162348 L20.3333333,5.54162348 Z M5.75,3.45829015 L4.08333333,3.45829015 C3.96827401,3.45829015 3.875,3.55156416 3.875,3.66662348 L3.875,3.66662348 L3.875,5.54162348 C3.875,5.65668281 3.96827401,5.74995682 4.08333333,5.74995682 L4.08333333,5.74995682 L5.75,5.74995682 C5.86505932,5.74995682 5.95833333,5.65668281 5.95833333,5.54162348 L5.95833333,5.54162348 L5.95833333,3.66662348 C5.95833333,3.55156416 5.86505932,3.45829015 5.75,3.45829015 L5.75,3.45829015 Z" id="ðŸ–-Color" fill="#5A5A5A"></path>
        <rect id="_Transparent_Rectangle_" x="0" y="0" width="24" height="24"></rect>
    </g>
</svg>