<?xml version="1.0" encoding="UTF-8"?>
<svg width="24px" height="24px" viewBox="0 0 24 24" version="1.1" xmlns="http://www.w3.org/2000/svg" xmlns:xlink="http://www.w3.org/1999/xlink">
    <title>9.Phones/finger-tap-1 </title>
    <g id="9.Phones/finger-tap-1-" stroke="none" stroke-width="1" fill="none" fill-rule="evenodd">
        <path d="M11.8235264,6.18283277 C14.3428577,6.10478648 16.5858343,7.70403334 17.2360317,10.0419601 C17.8862292,12.3798869 16.7720791,14.8395816 14.5474867,15.977426 L14.5474867,15.977426 L15.0392904,15.977426 C17.2222431,15.9797206 18.9912797,17.6779958 18.9936699,19.7736303 L18.9936699,19.7736303 L18.9936699,21.3598925 C18.9936699,21.7048013 18.7024159,21.9844051 18.3431359,21.9844051 C17.9838558,21.9844051 17.6926018,21.7048013 17.6926018,21.3598925 L17.6926018,21.3598925 L17.6926018,19.7736303 C17.6911674,18.367433 16.5040793,17.2278284 15.0392904,17.2264513 L15.0392904,17.2264513 L13.8830746,17.2264513 C13.5237946,17.2264513 13.2325406,16.9468475 13.2325406,16.6019387 L13.2325406,16.6019387 L13.2325406,13.033057 C13.2325406,12.458209 12.7471173,11.9922026 12.1483172,11.9922026 C11.5495172,11.9922026 11.0640939,12.458209 11.0640939,13.033057 L11.0640939,13.033057 L11.0640939,18.9809156 C11.0638626,19.2333366 10.9053678,19.4608042 10.6624312,19.5573715 C10.4194945,19.6539389 10.1398904,19.6006156 9.95384913,19.4222379 L9.95384913,19.4222379 L8.9615679,18.4704806 C8.66425586,18.1979938 8.19634105,18.1979938 7.899029,18.4704806 C7.60599684,18.752307 7.60599684,19.2086914 7.899029,19.4905179 L7.899029,19.4905179 L9.38571608,20.9185702 C9.55975837,21.0742575 9.63140039,21.3087287 9.57253691,21.5300005 C9.51367344,21.7512723 9.33369268,21.9240538 9.10320122,21.9805627 C8.87270976,22.0370717 8.62846897,21.9682953 8.46629467,21.8012147 L8.46629467,21.8012147 L6.97960758,20.3739951 C6.59405845,20.0047087 6.37738543,19.5033439 6.37738543,18.9804992 C6.37738543,18.4576545 6.59405845,17.9562898 6.97960758,17.5870033 C7.74674376,16.8823944 8.94070227,16.8373893 9.76302582,17.4820852 L9.76302582,17.4820852 L9.76302582,16.1256437 C7.46664554,15.1278544 6.18962344,12.7422357 6.68145596,10.36893 C7.17328848,7.99562432 9.30419511,6.26087906 11.8235264,6.18283277 Z M21.0189991,8.57820002 C21.1417006,8.45944411 21.3265205,8.42271244 21.488251,8.48493946 C21.6529788,8.54870929 21.7605517,8.70245947 21.7597451,8.87297 L21.7597451,8.87297 L21.7597451,13.8690713 C21.7597033,14.0375455 21.6539059,14.1893926 21.4917211,14.25375 C21.3295363,14.3181074 21.1429352,14.2822883 21.0189991,14.1630086 L21.0189991,14.1630086 L18.4168631,11.6649579 C18.2475586,11.5023765 18.2475586,11.2388321 18.4168631,11.0762507 L18.4168631,11.0762507 Z M2.50876983,8.49050513 C2.66922501,8.42707814 2.85361711,8.46157448 2.97752229,8.57820002 L2.97752229,8.57820002 L5.57965837,11.0704219 C5.74896286,11.2330033 5.74896286,11.4965477 5.57965837,11.6591291 L5.57965837,11.6591291 L2.97752229,14.1571798 C2.85361711,14.2738053 2.66922501,14.3083017 2.50876983,14.2448747 C2.34831464,14.1814477 2.24268776,14.0323085 2.2402504,13.8657405 L2.2402504,13.8657405 L2.2402504,8.86963926 C2.24268776,8.70307126 2.34831464,8.55393213 2.50876983,8.49050513 Z M14.6003968,2 C14.7756676,2.00003564 14.9336867,2.10134627 15.0008693,2.25675465 C15.068052,2.41216303 15.03119,2.59111536 14.9074489,2.71027907 L14.9074489,2.71027907 L12.3053128,5.20832971 C12.223949,5.28663668 12.1134722,5.33064574 11.9982607,5.33064574 C11.8830492,5.33064574 11.7725725,5.28663668 11.6912087,5.20832971 L11.6912087,5.20832971 L9.08907257,2.71027907 C8.96533137,2.59111536 8.92846938,2.41216303 8.99565207,2.25675465 C9.06283477,2.10134627 9.22085382,2.00003564 9.39612463,2 L9.39612463,2 Z" id="ðŸ–-Color" fill="#5A5A5A"></path>
        <rect id="_Transparent_Rectangle_" x="0.155832245" y="0.348127155" width="24" height="24"></rect>
    </g>
</svg>