<svg width="24" height="24" viewBox="0 0 24 24" fill="none" xmlns="http://www.w3.org/2000/svg">
<g id="finger-tap-1">
<path id="Shape" fill-rule="evenodd" clip-rule="evenodd" d="M11.9982 5.33065C11.883 5.33065 11.7726 5.28664 11.6912 5.20833L9.08906 2.71028C8.96532 2.59112 8.92845 2.41216 8.99564 2.25675C9.06282 2.10135 9.22084 2.00004 9.39611 2H14.6004C14.7757 2.00004 14.9337 2.10135 15.0009 2.25675C15.068 2.41216 15.0312 2.59112 14.9074 2.71028L12.3053 5.20833C12.2239 5.28664 12.1135 5.33065 11.9982 5.33065ZM21.019 8.5782C21.1417 8.45944 21.3265 8.42271 21.4882 8.48494C21.653 8.54871 21.7605 8.70246 21.7597 8.87297V13.8691C21.7597 14.0375 21.6539 14.1894 21.4917 14.2537C21.3295 14.3181 21.1429 14.2823 21.019 14.163L18.4168 11.665C18.2475 11.5024 18.2475 11.2388 18.4168 11.0763L21.019 8.5782ZM2.97751 8.5782C2.8536 8.46157 2.66921 8.42708 2.50875 8.49051C2.3483 8.55393 2.24267 8.70307 2.24023 8.86964V13.8657C2.24267 14.0323 2.3483 14.1814 2.50875 14.2449C2.66921 14.3083 2.8536 14.2738 2.97751 14.1572L5.57964 11.6591C5.74895 11.4965 5.74895 11.233 5.57964 11.0704L2.97751 8.5782ZM14.5475 15.9774H15.0393C17.2222 15.9797 18.9913 17.678 18.9937 19.7736V21.3599C18.9937 21.7048 18.7024 21.9844 18.3431 21.9844C17.9838 21.9844 17.6926 21.7048 17.6926 21.3599V19.7736C17.6912 18.3674 16.5041 17.2278 15.0393 17.2265H13.8831C13.5238 17.2265 13.2325 16.9468 13.2325 16.6019V13.0331C13.2325 12.4582 12.7471 11.9922 12.1483 11.9922C11.5495 11.9922 11.0641 12.4582 11.0641 13.0331V18.9809C11.0638 19.2333 10.9054 19.4608 10.6624 19.5574C10.4195 19.6539 10.1399 19.6006 9.95383 19.4222L8.96155 18.4705C8.66424 18.198 8.19632 18.198 7.89901 18.4705C7.60598 18.7523 7.60598 19.2087 7.89901 19.4905L9.3857 20.9186C9.55974 21.0743 9.63138 21.3087 9.57252 21.53C9.51366 21.7513 9.33368 21.9241 9.10319 21.9806C8.87269 22.0371 8.62845 21.9683 8.46628 21.8012L6.97959 20.374C6.59404 20.0047 6.37737 19.5033 6.37737 18.9805C6.37737 18.4577 6.59404 17.9563 6.97959 17.587C7.74673 16.8824 8.94069 16.8374 9.76301 17.4821V16.1256C7.46663 15.1279 6.18961 12.7422 6.68144 10.3689C7.17327 7.99562 9.30418 6.26088 11.8235 6.18283C14.3428 6.10479 16.5858 7.70403 17.236 10.042C17.8862 12.3799 16.7721 14.8396 14.5475 15.9774Z" fill="#5A5A5A"/>
</g>
</svg>
