<?xml version="1.0" encoding="UTF-8"?>
<svg width="24px" height="24px" viewBox="0 0 24 24" version="1.1" xmlns="http://www.w3.org/2000/svg" xmlns:xlink="http://www.w3.org/1999/xlink">
    <title>9.Phones/mobile_phone</title>
    <g id="9.Phones/mobile_phone" stroke="none" stroke-width="1" fill="none" fill-rule="evenodd">
        <path d="M21.2782489,16.3556328 L19.1459797,14.222494 C18.6874268,13.7630988 18.0649899,13.5049424 17.4159024,13.5049424 C16.7668148,13.5049424 16.1443779,13.7630988 15.685825,14.222494 L15.251023,14.657296 C13.1080948,12.8617811 11.1286558,10.879723 9.33597599,8.73442255 L9.77077803,8.29962051 C10.724055,7.34354677 10.724055,5.79640918 9.77077803,4.84033544 L7.63416079,2.70980543 C6.66517264,1.78409946 5.13951585,1.78409946 4.1705277,2.70980543 L3.00525822,3.88029253 C1.85114005,5.04272023 1.669701,6.85493343 2.57045618,8.22309535 C6.0446076,13.4579615 10.5307798,17.9450207 15.764959,21.420207 C17.1370784,22.3122313 18.9446693,22.1314723 20.1129795,20.9854049 L21.282597,19.8149178 C21.7418866,19.3566621 22,18.7345131 22,18.0857101 C22,17.4369071 21.7418866,16.8147581 21.282597,16.3565024 L21.2782489,16.3556328 Z" id="ðŸ–-Color" fill="#5A5A5A"></path>
        <rect id="_Transparent_Rectangle_" x="0.210001966" y="0.216089289" width="24" height="24"></rect>
    </g>
</svg>