<?xml version="1.0" encoding="UTF-8"?>
<svg width="24px" height="24px" viewBox="0 0 24 24" version="1.1" xmlns="http://www.w3.org/2000/svg" xmlns:xlink="http://www.w3.org/1999/xlink">
    <title>9.Phones/mobile_phone_2</title>
    <g id="9.Phones/mobile_phone_2" stroke="none" stroke-width="1" fill="none" fill-rule="evenodd">
        <path d="M16.1785058,2 L7.82149423,2 C6.43685923,2 5.31439077,3.12246845 5.31439077,4.50710346 L5.31439077,19.4928965 C5.31439077,20.8775315 6.43685923,22 7.82149423,22 L16.1785058,22 C17.5631408,22 18.6856092,20.8775315 18.6856092,19.4928965 L18.6856092,4.50710346 C18.6856092,3.12246845 17.5631408,2 16.1785058,2 Z M12,20.7464483 C11.538455,20.7464483 11.1642988,20.3722921 11.1642988,19.9107471 C11.1642988,19.4492021 11.538455,19.075046 12,19.075046 C12.461545,19.075046 12.8357012,19.4492021 12.8357012,19.9107471 C12.8357012,20.3722921 12.461545,20.7464483 12,20.7464483 Z M17.0142069,16.9857931 C17.0142069,17.4473381 16.6400508,17.8214942 16.1785058,17.8214942 L7.82149423,17.8214942 C7.35994923,17.8214942 6.98579308,17.4473381 6.98579308,16.9857931 L6.98579308,4.92495404 C6.98579308,4.46340903 7.35994923,4.08925288 7.82149423,4.08925288 L16.1785058,4.08925288 C16.6400508,4.08925288 17.0142069,4.46340903 17.0142069,4.92495404 L17.0142069,16.9857931 Z" id="ðŸ–-Color" fill="#5A5A5A"></path>
        <rect id="_Transparent_Rectangle_" x="0" y="0" width="24" height="24"></rect>
    </g>
</svg>