<svg width="24" height="24" viewBox="0 0 24 24" fill="none" xmlns="http://www.w3.org/2000/svg">
<g id="mobile_phone_2">
<path id="Shape" fill-rule="evenodd" clip-rule="evenodd" d="M16.1786 2H7.82156C6.43692 2 5.31445 3.12247 5.31445 4.5071V19.4929C5.31445 20.8775 6.43692 22 7.82156 22H16.1786C17.5632 22 18.6857 20.8775 18.6857 19.4929V4.5071C18.6857 3.12247 17.5632 2 16.1786 2ZM12.0001 20.7464C11.5385 20.7464 11.1644 20.3723 11.1644 19.9107C11.1644 19.4492 11.5385 19.075 12.0001 19.075C12.4616 19.075 12.8358 19.4492 12.8358 19.9107C12.8358 20.3723 12.4616 20.7464 12.0001 20.7464ZM17.0143 16.9858C17.0143 17.4473 16.6401 17.8215 16.1786 17.8215H7.82156C7.36001 17.8215 6.98586 17.4473 6.98586 16.9858V4.92495C6.98586 4.46341 7.36001 4.08925 7.82156 4.08925H16.1786C16.6401 4.08925 17.0143 4.46341 17.0143 4.92495V16.9858Z" fill="#5A5A5A"/>
</g>
</svg>
