<?xml version="1.0" encoding="UTF-8"?>
<svg width="24px" height="24px" viewBox="0 0 24 24" version="1.1" xmlns="http://www.w3.org/2000/svg" xmlns:xlink="http://www.w3.org/1999/xlink">
    <title>9.Phones/phone_off</title>
    <g id="9.Phones/phone_off" stroke="none" stroke-width="1" fill="none" fill-rule="evenodd">
        <path d="M12,2 C17.5203725,2.00597071 21.9940293,6.47962754 22,12 C22,17.5228475 17.5228475,22 12,22 C6.4771525,22 2,17.5228475 2,12 C2,6.4771525 6.4771525,2 12,2 Z M18.4428497,6.83733472 C18.3822413,6.83383503 18.3230125,6.85632342 18.28,6.89916667 L18.28,6.89916667 L6.89833333,18.28 C6.85549009,18.3230125 6.83300169,18.3822413 6.83650139,18.4428497 C6.84000108,18.503458 6.86915735,18.5597047 6.91666667,18.5975 C8.67972,19.9618202 10.9170117,20.5605532 13.1258333,20.2591667 L13.1258333,20.2591667 C16.0723037,19.8601599 18.5830029,17.9194145 19.7116983,15.1677146 C20.8403937,12.4160147 20.4156867,9.27122101 18.5975,6.9175 C18.5597047,6.86999068 18.503458,6.84083442 18.4428497,6.83733472 Z M14.8916667,13.0608333 C15.3682404,12.5353554 16.1795506,12.4929291 16.7083333,12.9658333 L16.7083333,12.9658333 L18,14.2566667 C18.4744475,14.7852319 18.4327397,15.5977906 17.9066667,16.075 L17.9066667,16.075 L17.1208333,16.8616667 C16.4918957,17.535063 15.4825871,17.6878736 14.6825,17.2308333 C13.7943014,16.7078224 12.9545781,16.106546 12.1733333,15.4341667 C12.1291861,15.3958582 12.1026144,15.3411703 12.0997819,15.282788 C12.0969493,15.2244057 12.118102,15.1674023 12.1583333,15.125 L12.1583333,15.125 L14.0416667,13.2383333 L14.4133333,13.5391667 Z M17.0833333,5.40333333 C15.320833,4.03915548 13.0842206,3.4401433 10.8758333,3.74083333 C7.92821247,4.13997905 5.41730231,6.08103969 4.28860127,8.8330971 C3.15990023,11.5851545 3.58481195,14.7302835 5.40333333,17.0841667 C5.441253,17.1315611 5.49756582,17.1605591 5.55817089,17.1638996 C5.61877596,17.16724 5.67793461,17.1446065 5.72083333,17.1016667 L5.72083333,17.1016667 L9.54166667,13.2825 C9.6184498,13.2084828 9.62499728,13.0877181 9.55666667,13.0058333 C8.55958688,11.8300901 7.62897022,10.5995617 6.76916667,9.32 C6.31201381,8.51978615 6.46520509,7.51024182 7.13916667,6.88166667 L7.13916667,6.88166667 L7.92583333,6.09583333 C8.40182654,5.56867228 9.21454127,5.52581937 9.74333333,6 L9.74333333,6 L11.035,7.2875 C11.507998,7.81656093 11.4655774,8.62813421 10.94,9.105 L10.94,9.105 L10.4608333,9.58333333 C10.63,9.79583333 11.1666667,10.445 11.5741667,10.9275 C11.6117186,10.972158 11.6662771,10.9990217 11.72457,11.0015562 C11.7828629,11.0040906 11.8395471,10.9820635 11.8808333,10.9408333 L11.8808333,10.9408333 L17.1008333,5.72083333 C17.1437732,5.67793461 17.1664067,5.61877596 17.1630662,5.55817089 C17.1597258,5.49756582 17.1307278,5.441253 17.0833333,5.40333333 Z" id="ðŸ–-Color" fill="#5A5A5A"></path>
        <rect id="_Transparent_Rectangle_" x="0" y="0" width="24" height="24"></rect>
    </g>
</svg>