<svg width="24" height="24" viewBox="0 0 24 24" fill="none" xmlns="http://www.w3.org/2000/svg">
<g id="phone_signal">
<path id="Shape" fill-rule="evenodd" clip-rule="evenodd" d="M19.913 4.17392C19.6249 4.17392 19.3913 4.40751 19.3913 4.69566V19.3044C19.3913 19.5925 19.6249 19.8261 19.913 19.8261H21.4783C21.7664 19.8261 22 19.5925 22 19.3044V4.69566C22 4.40751 21.7664 4.17392 21.4783 4.17392H19.913ZM15.0435 7.30435C15.0435 7.01621 15.2771 6.78262 15.5652 6.78262H17.1304C17.4186 6.78262 17.6522 7.01621 17.6522 7.30435V19.3044C17.6522 19.5925 17.4186 19.8261 17.1304 19.8261H15.5652C15.2771 19.8261 15.0435 19.5925 15.0435 19.3044V7.30435ZM11.2174 9.39131C10.9292 9.39131 10.6957 9.6249 10.6957 9.91305V19.3044C10.6957 19.5925 10.9292 19.8261 11.2174 19.8261H12.7826C13.0708 19.8261 13.3043 19.5925 13.3043 19.3044V9.91305C13.3043 9.6249 13.0708 9.39131 12.7826 9.39131H11.2174ZM6.34783 12.5217C6.34783 12.2336 6.58142 12 6.86957 12H8.43478C8.72293 12 8.95652 12.2336 8.95652 12.5217V19.3044C8.95652 19.5925 8.72293 19.8261 8.43478 19.8261H6.86957C6.58142 19.8261 6.34783 19.5925 6.34783 19.3044V12.5217ZM2 15.1304C2 14.8423 2.23359 14.6087 2.52174 14.6087H4.08696C4.37511 14.6087 4.6087 14.8423 4.6087 15.1304V19.3044C4.6087 19.5925 4.37511 19.8261 4.08696 19.8261H2.52174C2.23359 19.8261 2 19.5925 2 19.3044V15.1304Z" fill="#5A5A5A"/>
</g>
</svg>
