<svg width="24" height="24" viewBox="0 0 24 24" fill="none" xmlns="http://www.w3.org/2000/svg">
<g id="phone_actions_add 2">
<path id="Shape" fill-rule="evenodd" clip-rule="evenodd" d="M16.5823 2.00508C13.5907 2.00508 11.1656 4.43021 11.1656 7.42175C11.1656 10.4133 13.5907 12.8384 16.5823 12.8384C19.5738 12.8384 21.9989 10.4133 21.9989 7.42175C21.9952 4.43173 19.5723 2.00876 16.5823 2.00508ZM18.6656 8.04675H17.4156C17.3005 8.04675 17.2073 8.14002 17.2073 8.25508V9.50508C17.2073 9.85026 16.9274 10.1301 16.5823 10.1301C16.2371 10.1301 15.9573 9.85026 15.9573 9.50508V8.25508C15.9573 8.14002 15.864 8.04675 15.7489 8.04675H14.4989C14.1537 8.04675 13.8739 7.76693 13.8739 7.42175C13.8739 7.07657 14.1537 6.79675 14.4989 6.79675H15.7489C15.864 6.79675 15.9573 6.70348 15.9573 6.58842V5.33842C15.9573 4.99324 16.2371 4.71342 16.5823 4.71342C16.9274 4.71342 17.2073 4.99324 17.2073 5.33842V6.58842C17.2073 6.70348 17.3005 6.79675 17.4156 6.79675H18.6656C19.0108 6.79675 19.2906 7.07657 19.2906 7.42175C19.2906 7.76693 19.0108 8.04675 18.6656 8.04675ZM13.3581 15.4701C14.1825 14.6818 15.4812 14.6818 16.3056 15.4701L18.0697 17.2376C18.8825 18.051 18.8825 19.3691 18.0697 20.1826L17.0998 21.1534C16.1137 22.1178 14.5912 22.2707 13.4331 21.5217C9.0895 18.6377 5.36627 14.9145 2.48225 10.5709C1.72191 9.41406 1.87556 7.88281 2.85058 6.90008L3.81975 5.93092C4.21047 5.5401 4.74045 5.32053 5.29308 5.32053C5.84571 5.32053 6.3757 5.5401 6.76642 5.93092L8.53475 7.69842C9.34539 8.51338 9.34539 9.83012 8.53475 10.6451L8.21392 10.9651C9.67761 12.7116 11.2919 14.3261 13.0381 15.7901L13.3581 15.4701Z" fill="#5A5A5A"/>
</g>
</svg>
