<svg width="24" height="24" viewBox="0 0 24 24" fill="none" xmlns="http://www.w3.org/2000/svg">
<g id="phone_off">
<path id="Shape" fill-rule="evenodd" clip-rule="evenodd" d="M2 12C2 6.47715 6.47715 2 12 2C17.5204 2.00597 21.994 6.47963 22 12C22 17.5228 17.5228 22 12 22C6.47715 22 2 17.5228 2 12ZM17.0833 5.40333C15.3208 4.03916 13.0842 3.44014 10.8758 3.74083C7.92821 4.13998 5.4173 6.08104 4.2886 8.8331C3.1599 11.5852 3.58481 14.7303 5.40333 17.0842C5.44125 17.1316 5.49757 17.1606 5.55817 17.1639C5.61878 17.1672 5.67793 17.1446 5.72083 17.1017L9.54167 13.2825C9.61845 13.2085 9.625 13.0877 9.55667 13.0058C8.55959 11.8301 7.62897 10.5996 6.76917 9.32C6.31201 8.51979 6.46521 7.51024 7.13917 6.88167L7.92583 6.09583C8.40183 5.56867 9.21454 5.52582 9.74333 6L11.035 7.2875C11.508 7.81656 11.4656 8.62813 10.94 9.105L10.4608 9.58333C10.63 9.79583 11.1667 10.445 11.5742 10.9275C11.6117 10.9722 11.6663 10.999 11.7246 11.0016C11.7829 11.0041 11.8395 10.9821 11.8808 10.9408L17.1008 5.72083C17.1438 5.67793 17.1664 5.61878 17.1631 5.55817C17.1597 5.49757 17.1307 5.44125 17.0833 5.40333ZM13.1258 20.2592C10.917 20.5606 8.67972 19.9618 6.91667 18.5975C6.86916 18.5597 6.84 18.5035 6.8365 18.4429C6.833 18.3822 6.85549 18.323 6.89833 18.28L18.28 6.89917C18.323 6.85632 18.3822 6.83384 18.4429 6.83733C18.5035 6.84083 18.5597 6.86999 18.5975 6.9175C20.4157 9.27122 20.8404 12.416 19.7117 15.1677C18.583 17.9194 16.0723 19.8602 13.125 20.2592H13.1258ZM16.7083 12.9658L18 14.2567C18.4744 14.7852 18.4327 15.5978 17.9067 16.075L17.1208 16.8617C16.4919 17.5351 15.4826 17.6879 14.6825 17.2308C13.7943 16.7078 12.9546 16.1065 12.1733 15.4342C12.1292 15.3959 12.1026 15.3412 12.0998 15.2828C12.0969 15.2244 12.1181 15.1674 12.1583 15.125L14.0417 13.2383L14.4133 13.5392L14.8917 13.0608C15.3682 12.5354 16.1796 12.4929 16.7083 12.9658Z" fill="#5A5A5A"/>
</g>
</svg>
