<svg width="24" height="24" viewBox="0 0 24 24" fill="none" xmlns="http://www.w3.org/2000/svg">
<g id="phone_circle">
<path id="Shape" fill-rule="evenodd" clip-rule="evenodd" d="M11.9999 2.00006C6.47712 2.00006 2 6.47719 2 12C2 17.5228 6.47712 21.9999 11.9999 21.9999C15.7324 21.9999 17.1175 20.5465 17.622 19.3265C18.049 18.3583 17.9934 17.2453 17.4719 16.3245C18.023 15.7124 18.0168 14.7812 17.4577 14.1764L16.2644 12.984C15.6136 12.383 14.5996 12.4202 13.9946 13.0674L13.8186 13.2425C12.7031 12.3179 11.6756 11.292 10.7491 10.178L10.9251 10.0028C11.5738 9.39897 11.6132 8.38466 11.0135 7.73218L9.821 6.53806C9.16891 5.93766 8.15411 5.97755 7.55117 6.62729L6.82318 7.35443C6.06575 8.07512 5.90032 9.22073 6.42292 10.1263C8.32313 13.1297 10.8669 15.6735 13.8703 17.5737C14.1983 17.7785 14.5778 17.8858 14.9644 17.8831C15.3992 17.8784 15.8241 17.7531 16.1919 17.5211C16.2871 18.0039 16.2045 18.5047 15.9592 18.9312C15.4097 19.8485 14.0413 20.3322 11.9999 20.3322C8.17012 20.3314 4.83427 17.7194 3.91482 14.0016C2.99537 10.2838 4.72925 6.41809 8.11722 4.63226C11.5052 2.84644 15.6743 3.60066 18.2218 6.46028C20.7694 9.3199 21.039 13.5481 18.8753 16.7081C18.7065 16.9537 18.6816 17.2708 18.81 17.5397C18.9383 17.8087 19.2004 17.9888 19.4975 18.0121C19.7946 18.0355 20.0816 17.8985 20.2504 17.6529C22.347 14.5914 22.5764 10.6207 20.8462 7.3381C19.1159 4.05552 15.7106 2.00064 11.9999 2.00006Z" fill="#5A5A5A"/>
</g>
</svg>
