<svg width="24" height="24" viewBox="0 0 24 24" fill="none" xmlns="http://www.w3.org/2000/svg">
<g id="phone_retro_1">
<path id="Shape" fill-rule="evenodd" clip-rule="evenodd" d="M4.41667 4.01708C9.42044 2.99375 14.5796 2.99375 19.5833 4.01708C20.9586 4.32082 21.9532 5.51781 22 6.92542V8.59208C22 9.14462 21.7805 9.67452 21.3898 10.0652C20.9991 10.4559 20.4692 10.6754 19.9167 10.6754H17.4167C16.2661 10.6754 15.3333 9.74268 15.3333 8.59208V7.91708C15.3333 7.80747 15.2492 7.71618 15.14 7.70708C13.0503 7.53292 10.9497 7.53292 8.86 7.70708C8.75076 7.71618 8.66672 7.80747 8.66667 7.91708V8.59208C8.66667 9.14462 8.44717 9.67452 8.05647 10.0652C7.66577 10.4559 7.13587 10.6754 6.58333 10.6754H4.08333C2.93274 10.6754 2 9.74268 2 8.59208V6.92542C2.04679 5.51781 3.04143 4.32082 4.41667 4.01708ZM14.5 10.8687V9.50042C14.5 9.04018 14.1269 8.66708 13.6667 8.66708C13.2064 8.66708 12.8333 9.04018 12.8333 9.50042V10.7504H11.1667V9.50042C11.1667 9.04018 10.7936 8.66708 10.3333 8.66708C9.8731 8.66708 9.5 9.04018 9.5 9.50042V10.8679C6.12778 11.4752 3.67242 14.4073 3.66667 17.8337V19.5004C3.66667 20.1908 4.22631 20.7504 4.91667 20.7504H19.0833C19.7737 20.7504 20.3333 20.1908 20.3333 19.5004V17.8337C20.3272 14.4076 17.8719 11.476 14.5 10.8687Z" fill="#5A5A5A"/>
</g>
</svg>
