<?xml version="1.0" encoding="UTF-8"?>
<svg width="24px" height="24px" viewBox="0 0 24 24" version="1.1" xmlns="http://www.w3.org/2000/svg" xmlns:xlink="http://www.w3.org/1999/xlink">
    <title>9.Phones/phone_actions_add 2</title>
    <g id="9.Phones/phone_actions_add-2" stroke="none" stroke-width="1" fill="none" fill-rule="evenodd">
        <path d="M5.29313692,5.32052858 C5.84576646,5.32052858 6.37575369,5.54009741 6.76647026,5.93091702 L6.76647026,5.93091702 L8.53480359,7.69841702 C9.34544705,8.51338004 9.34544705,9.83012066 8.53480359,10.6450837 L8.53480359,10.6450837 L8.21397026,10.9650837 C9.67766368,12.7115518 11.2919217,14.3260886 13.0381369,15.7900837 L13.0381369,15.7900837 L13.3581369,15.4700837 C14.1825309,14.681822 15.4812429,14.681822 16.3056369,15.4700837 L16.3056369,15.4700837 L18.0698036,17.2375837 C18.8825441,18.0510295 18.8825441,19.3691378 18.0698036,20.1825837 L18.0698036,20.1825837 L17.0998036,21.153417 C16.1137513,22.1177875 14.5913024,22.2707244 13.4331369,21.5217504 C9.08954833,18.6377352 5.36631876,14.9145056 2.48230359,10.570917 C1.7219665,9.41406359 1.87561327,7.88281011 2.85063692,6.90008368 L2.85063692,6.90008368 L3.81980359,5.93091702 C4.21052016,5.54009741 4.74050739,5.32052858 5.29313692,5.32052858 Z M16.5823036,2.00508368 C19.5723232,2.00875693 21.995297,4.43173079 21.9989703,7.42175035 C21.9989703,10.4132927 19.573846,12.838417 16.5823036,12.838417 C13.5907612,12.838417 11.1656369,10.4132927 11.1656369,7.42175035 C11.1656369,4.43020796 13.5907612,2.00508368 16.5823036,2.00508368 Z M16.5823036,4.71341702 C16.2371256,4.71341702 15.9573036,4.99323905 15.9573036,5.33841702 L15.9573036,5.33841702 L15.9573036,6.58841702 C15.9573036,6.70347634 15.8640296,6.79675035 15.7489703,6.79675035 L15.7489703,6.79675035 L14.4989703,6.79675035 C14.1537923,6.79675035 13.8739703,7.07657238 13.8739703,7.42175035 C13.8739703,7.76692832 14.1537923,8.04675035 14.4989703,8.04675035 L14.4989703,8.04675035 L15.7489703,8.04675035 C15.8640296,8.04675035 15.9573036,8.14002436 15.9573036,8.25508368 L15.9573036,8.25508368 L15.9573036,9.50508368 C15.9573036,9.85026165 16.2371256,10.1300837 16.5823036,10.1300837 C16.9274816,10.1300837 17.2073036,9.85026165 17.2073036,9.50508368 L17.2073036,9.50508368 L17.2073036,8.25508368 C17.2073036,8.14002436 17.3005776,8.04675035 17.4156369,8.04675035 L17.4156369,8.04675035 L18.6656369,8.04675035 C19.0108149,8.04675035 19.2906369,7.76692832 19.2906369,7.42175035 C19.2906369,7.07657238 19.0108149,6.79675035 18.6656369,6.79675035 L18.6656369,6.79675035 L17.4156369,6.79675035 C17.3005776,6.79675035 17.2073036,6.70347634 17.2073036,6.58841702 L17.2073036,6.58841702 L17.2073036,5.33841702 C17.2073036,4.99323905 16.9274816,4.71341702 16.5823036,4.71341702 Z" id="ðŸ–-Color" fill="#5A5A5A"></path>
        <rect id="_Transparent_Rectangle_" x="0.668746596" y="0.0161808829" width="24" height="24"></rect>
    </g>
</svg>