<?xml version="1.0" encoding="UTF-8"?>
<svg width="24px" height="24px" viewBox="0 0 24 24" version="1.1" xmlns="http://www.w3.org/2000/svg" xmlns:xlink="http://www.w3.org/1999/xlink">
    <title>9.Phones/phone_retro_1</title>
    <g id="9.Phones/phone_retro_1" stroke="none" stroke-width="1" fill="none" fill-rule="evenodd">
        <path d="M13.6666667,8.66708393 C14.126904,8.66708393 14.5,9.04017997 14.5,9.50041726 L14.5,9.50041726 L14.5,10.8687506 C17.8719084,11.4760136 20.3271747,14.4076016 20.3333333,17.8337506 L20.3333333,17.8337506 L20.3333333,19.5004173 C20.3333333,20.1907732 19.7736893,20.7504173 19.0833333,20.7504173 L19.0833333,20.7504173 L4.91666667,20.7504173 C4.22631073,20.7504173 3.66666667,20.1907732 3.66666667,19.5004173 L3.66666667,19.5004173 L3.66666667,17.8337506 C3.67242297,14.4072871 6.12778286,11.4752366 9.5,10.8679173 L9.5,10.8679173 L9.5,9.50041726 C9.5,9.04017997 9.87309604,8.66708393 10.3333333,8.66708393 C10.7935706,8.66708393 11.1666667,9.04017997 11.1666667,9.50041726 L11.1666667,9.50041726 L11.1666667,10.7504173 L12.8333333,10.7504173 L12.8333333,9.50041726 C12.8333333,9.04017997 13.2064294,8.66708393 13.6666667,8.66708393 Z M4.41666667,4.01708393 C9.4204369,2.99374901 14.5795631,2.99374901 19.5833333,4.01708393 L19.5833333,4.01708393 L19.7605072,4.06171144 C21.0432696,4.42530558 21.9552419,5.57901443 22,6.92541726 L22,6.92541726 L22,8.59208393 C22,9.14461828 21.7805066,9.67452227 21.3898058,10.0652231 C20.999105,10.4559238 20.469201,10.6754173 19.9166667,10.6754173 L19.9166667,10.6754173 L17.4166667,10.6754173 C16.2660734,10.6754173 15.3333333,9.74267716 15.3333333,8.59208393 L15.3333333,8.59208393 L15.3333333,7.91708393 C15.3332783,7.80746917 15.2492365,7.71618237 15.14,7.70708393 C13.0502894,7.53291537 10.9497106,7.53291537 8.86,7.70708393 C8.75076348,7.71618237 8.66672167,7.80746917 8.66666667,7.91708393 L8.66666667,7.91708393 L8.66666667,8.59208393 C8.66666667,9.14461828 8.44717325,9.67452227 8.05647246,10.0652231 C7.66577167,10.4559238 7.13586769,10.6754173 6.58333333,10.6754173 L6.58333333,10.6754173 L4.08333333,10.6754173 C2.9327401,10.6754173 2,9.74267716 2,8.59208393 L2,8.59208393 L2,6.92541726 C2.04679254,5.51781431 3.04142874,4.32082109 4.41666667,4.01708393 Z" id="ðŸ–-Color" fill="#5A5A5A"></path>
        <rect id="_Transparent_Rectangle_" x="-0.2316989" y="0.211316621" width="24" height="24"></rect>
    </g>
</svg>