<svg width="24" height="24" viewBox="0 0 24 24" fill="none" xmlns="http://www.w3.org/2000/svg">
<g id="phone_actions_warning_1">
<path id="Shape" fill-rule="evenodd" clip-rule="evenodd" d="M16.5222 2.00415C14.6157 2.00129 12.8449 2.99034 11.8475 4.61517C10.85 6.24001 10.7696 8.26669 11.6351 9.96548L10.4556 12.4437C10.3048 12.763 10.3716 13.1427 10.6223 13.3914C10.8726 13.6398 11.2509 13.7063 11.5709 13.5581L14.0474 12.3786C16.0706 13.4003 18.5139 13.0715 20.1949 11.5512C21.876 10.031 22.448 7.63292 21.6343 5.51754C20.8205 3.40217 18.7887 2.00578 16.5222 2.00415ZM16.5222 11.3042C15.8125 11.3032 15.1173 11.1036 14.515 10.7282C14.3829 10.646 14.2305 10.6024 14.0749 10.6023C13.9507 10.6028 13.8282 10.6313 13.7165 10.6857L12.9704 11.0408L13.3255 10.2906C13.4457 10.0358 13.4291 9.73766 13.2814 9.49785C12.3691 8.02036 12.5704 6.1131 13.771 4.85862C14.9716 3.60413 16.8682 3.31935 18.3843 4.16591C19.9004 5.01247 20.653 6.77651 20.2149 8.45676C19.7768 10.137 18.2587 11.309 16.5222 11.3075V11.3042ZM16.5873 10.479C17.0476 10.479 17.4208 10.1058 17.4208 9.6454C17.4208 9.18504 17.0476 8.81184 16.5873 8.81184C16.1269 8.81184 15.7537 9.18504 15.7537 9.6454C15.7537 10.1058 16.1269 10.479 16.5873 10.479ZM16.5873 8.18667C16.9325 8.18667 17.2124 7.90677 17.2124 7.5615V5.06082C17.2124 4.71555 16.9325 4.43565 16.5873 4.43565C16.242 4.43565 15.9621 4.71555 15.9621 5.06082V7.5615C15.9621 7.90677 16.242 8.18667 16.5873 8.18667ZM11.2525 15.1436C12.2662 14.1329 13.9064 14.1329 14.9201 15.1436L17.9043 18.1319C18.3456 18.573 18.5366 19.2059 18.413 19.8175C18.2895 20.4291 17.8679 20.9382 17.2899 21.1735C13.1541 22.8606 8.40992 21.9037 5.25131 18.7455C2.0927 15.5872 1.1353 10.8431 2.82185 6.7071C3.05679 6.12893 3.56573 5.70688 4.1774 5.58301C4.78907 5.45913 5.42212 5.6499 5.86351 6.0911L8.85598 9.07691C9.86661 10.0906 9.86661 11.7309 8.85598 12.7446L8.16413 13.4356C7.25319 14.5299 5.77531 14.9719 4.41311 14.5576C5.3716 16.8234 7.17515 18.6267 9.44114 19.5848C9.02748 18.2226 9.46941 16.7451 10.5631 15.8337L11.2525 15.1436Z" fill="#5A5A5A"/>
</g>
</svg>
