<svg width="24" height="24" viewBox="0 0 24 24" fill="none" xmlns="http://www.w3.org/2000/svg">
<g id="phone_actions_voice_mail">
<path id="Shape" fill-rule="evenodd" clip-rule="evenodd" d="M20.9064 16.9773L17.5104 13.4398C16.2609 12.139 14.2359 12.139 12.9864 13.4398L12.2 14.2589C11.3475 15.0652 10.8044 16.1659 10.6712 17.3573C10.644 17.7132 10.6625 18.0714 10.7264 18.4223C8.58684 17.3453 6.86054 15.5453 5.82877 13.3156C7.32632 13.562 8.84001 12.9868 9.83357 11.7939L10.6184 10.9764C11.2185 10.3513 11.5557 9.50344 11.5557 8.61935C11.5557 7.73527 11.2185 6.88739 10.6184 6.26227L7.22237 2.7231C6.66112 2.13823 5.85585 1.88523 5.07775 2.04931C4.29964 2.2134 3.65224 2.77272 3.35357 3.53893C1.39591 8.53224 2.50668 14.2617 6.17117 18.0723C8.59272 20.5672 11.8549 21.9767 15.2608 21.9998C16.9275 21.9982 18.5783 21.6611 20.1224 21.0073C20.8581 20.6963 21.3952 20.022 21.5529 19.2115C21.7106 18.4009 21.4678 17.562 20.9064 16.9773Z" fill="#5A5A5A"/>
</g>
</svg>
