<svg width="24" height="24" viewBox="0 0 24 24" fill="none" xmlns="http://www.w3.org/2000/svg">
<g id="phone">
<path id="Shape" fill-rule="evenodd" clip-rule="evenodd" d="M21.2782 16.3556L19.146 14.2225C18.6874 13.7631 18.065 13.5049 17.4159 13.5049C16.7668 13.5049 16.1444 13.7631 15.6858 14.2225L15.251 14.6573C13.1081 12.8618 11.1287 10.8797 9.33598 8.73442L9.77078 8.29962C10.7241 7.34355 10.7241 5.79641 9.77078 4.84034L7.63416 2.70981C6.66517 1.7841 5.13952 1.7841 4.17053 2.70981L3.00526 3.88029C1.85114 5.04272 1.6697 6.85493 2.57046 8.2231C6.04461 13.458 10.5308 17.945 15.765 21.4202C17.1371 22.3122 18.9447 22.1315 20.113 20.9854L21.2826 19.8149C21.7419 19.3567 22 18.7345 22 18.0857C22 17.4369 21.7419 16.8148 21.2826 16.3565L21.2782 16.3556Z" fill="#5A5A5A"/>
</g>
</svg>
