<?xml version="1.0" encoding="UTF-8"?>
<svg width="24px" height="24px" viewBox="0 0 24 24" version="1.1" xmlns="http://www.w3.org/2000/svg" xmlns:xlink="http://www.w3.org/1999/xlink">
    <title>9.Phones/phone_actions_warning_1</title>
    <g id="9.Phones/phone_actions_warning_1" stroke="none" stroke-width="1" fill="none" fill-rule="evenodd">
        <path d="M4.17739966,5.58300796 C4.78906647,5.45913244 5.42211876,5.6498962 5.86350523,6.09109844 L5.86350523,6.09109844 L8.85598488,9.07690962 C9.86661012,10.0906055 9.86661012,11.7308768 8.85598488,12.7445727 L8.85598488,12.7445727 L8.16413025,13.4355938 C7.25318573,14.5298761 5.77530755,14.9719258 4.41311119,14.5575653 C5.37159538,16.8233983 7.17515194,18.6266559 9.44114386,19.5847644 C9.02747982,18.2225665 9.46941436,16.7450736 10.5631153,15.8337453 L10.5631153,15.8337453 L11.2524693,15.1435578 C12.2661652,14.1329326 13.9064365,14.1329326 14.9201324,15.1435578 L14.9201324,15.1435578 L17.9042764,18.1318697 C18.3455653,18.5730197 18.5365758,19.205868 18.4130433,19.8174962 C18.2895109,20.4291243 17.8678562,20.9382308 17.2899429,21.1735293 C13.1540882,22.860552 8.40992008,21.9036987 5.25130975,18.7454524 C2.09269942,15.587206 1.13529948,10.8431482 2.82184554,6.70709913 C3.05678688,6.12892615 3.56573285,5.70688348 4.17739966,5.58300796 Z M16.5222343,2.0041486 C18.7887384,2.0057874 20.8205009,3.40217431 21.6342743,5.51755049 C22.4480476,7.63292667 21.8759885,10.0309892 20.1949382,11.5512238 C18.513888,13.0714585 16.0705684,13.4003121 14.0473953,12.37864 L14.0473953,12.37864 L11.5708891,13.5581271 C11.2509246,13.706264 10.8725802,13.6397711 10.6222981,13.3914151 C10.3715686,13.1427094 10.3047762,12.7629947 10.4555861,12.4436576 L10.4555861,12.4436576 L11.6350732,9.96548436 C10.7695895,8.266693 10.8500451,6.2400175 11.8474715,4.61518059 C12.8448978,2.99034368 14.6156808,2.00129665 16.5222343,2.0041486 Z M18.3843101,4.16591896 C16.8682227,3.31935885 14.9716283,3.60413965 13.7710204,4.85862182 C12.5704124,6.11310399 12.369103,8.02036507 13.2813538,9.49785732 C13.4290558,9.7376637 13.4456733,10.0358392 13.3255325,10.2905727 L13.3255325,10.2905727 L12.970436,11.0407765 L13.716472,10.68568 C13.8281517,10.6312699 13.9506747,10.6027762 14.0749027,10.602324 C14.2304807,10.6023852 14.3829366,10.6459853 14.5150223,10.7281916 C15.1172707,11.1036511 15.8125358,11.3031644 16.5222343,11.3041814 L16.5222343,11.3041814 C18.2586625,11.3090054 19.7767585,10.1370179 20.214862,8.4567649 C20.6529655,6.77651185 19.9003975,5.01247907 18.3843101,4.16591896 Z M16.587252,8.81183761 C17.0476143,8.81183761 17.4208118,9.18503504 17.4208118,9.6453974 C17.4208118,10.1057598 17.0476143,10.4789572 16.587252,10.4789572 C16.1268896,10.4789572 15.7536922,10.1057598 15.7536922,9.6453974 C15.7536922,9.18503504 16.1268896,8.81183761 16.587252,8.81183761 Z M16.587252,4.43564869 C16.9325237,4.43564869 17.2124218,4.71554677 17.2124218,5.06081854 L17.2124218,5.06081854 L17.2124218,7.56149792 C17.2124218,7.90676969 16.9325237,8.18666776 16.587252,8.18666776 C16.2419802,8.18666776 15.9620821,7.90676969 15.9620821,7.56149792 L15.9620821,7.56149792 L15.9620821,5.06081854 C15.9620821,4.71554677 16.2419802,4.43564869 16.587252,4.43564869 Z" id="ðŸ–-Color" fill="#5A5A5A"></path>
        <rect id="_Transparent_Rectangle_" x="0" y="0" width="24" height="24"></rect>
    </g>
</svg>