<svg width="24" height="24" viewBox="0 0 24 24" fill="none" xmlns="http://www.w3.org/2000/svg">
<g id="phone_type">
<path id="Shape" fill-rule="evenodd" clip-rule="evenodd" d="M20.75 2H12.4167C11.7263 2 11.1667 2.55964 11.1667 3.25V8.25C11.1667 8.94036 11.7263 9.5 12.4167 9.5H14.5V10.9942C14.5 11.1628 14.6017 11.3147 14.7575 11.3791C14.9133 11.4436 15.0926 11.4077 15.2117 11.2883L17 9.5H20.75C21.4404 9.5 22 8.94036 22 8.25V3.25C22 2.55964 21.4404 2 20.75 2ZM13.0417 5.54167C13.0417 5.08143 13.4148 4.70833 13.875 4.70833C14.3352 4.70833 14.7083 5.08143 14.7083 5.54167C14.7083 6.0019 14.3352 6.375 13.875 6.375C13.4148 6.375 13.0417 6.0019 13.0417 5.54167ZM16.7917 4.70833C16.3314 4.70833 15.9583 5.08143 15.9583 5.54167C15.9583 6.0019 16.3314 6.375 16.7917 6.375C17.2519 6.375 17.625 6.0019 17.625 5.54167C17.625 5.08143 17.2519 4.70833 16.7917 4.70833ZM19.7083 6.375C19.2481 6.375 18.875 6.0019 18.875 5.54167C18.875 5.08143 19.2481 4.70833 19.7083 4.70833C20.1686 4.70833 20.5417 5.08143 20.5417 5.54167C20.5417 6.0019 20.1686 6.375 19.7083 6.375ZM11.1667 17.4167V10.7325C11.1656 10.664 11.1989 10.5995 11.2554 10.5608C11.3119 10.5221 11.384 10.5143 11.4475 10.54C11.8239 10.6789 12.2222 10.7489 12.6233 10.7467C12.7372 10.748 12.8298 10.8387 12.8333 10.9525V19.9167C12.8333 20.4692 12.6138 20.9991 12.2231 21.3898C11.8324 21.7805 11.3025 22 10.75 22H4.08333C3.5308 22 3.0009 21.7805 2.61019 21.3898C2.21949 20.9991 2 20.4692 2 19.9167V7.41667C2 6.26607 2.93274 5.33333 4.08333 5.33333H9.70833C9.82339 5.33333 9.91667 5.42661 9.91667 5.54167V7.20833C9.91667 7.32339 9.82339 7.41667 9.70833 7.41667H4.5C4.03976 7.41667 3.66667 7.78976 3.66667 8.25V17.4167C3.66667 17.8769 4.03976 18.25 4.5 18.25H10.3333C10.7936 18.25 11.1667 17.8769 11.1667 17.4167Z" fill="#5A5A5A"/>
</g>
</svg>
