<?xml version="1.0" encoding="UTF-8"?>
<svg width="24px" height="24px" viewBox="0 0 24 24" version="1.1" xmlns="http://www.w3.org/2000/svg" xmlns:xlink="http://www.w3.org/1999/xlink">
    <title>9.Phones/phone_actions_voice_mail</title>
    <g id="9.Phones/phone_actions_voice_mail" stroke="none" stroke-width="1" fill="none" fill-rule="evenodd">
        <path d="M5.29278188,5.32027761 C5.84541141,5.32027761 6.37539865,5.53984644 6.76611521,5.93066605 L6.76611521,5.93066605 L8.53444855,7.69899938 C9.34545207,8.51348865 9.34545207,9.83034345 8.53444855,10.6448327 L8.53444855,10.6448327 L8.21361521,10.965666 C9.67775347,12.7114718 11.2919761,14.3256945 13.0377819,15.7898327 L13.0377819,15.7898327 L13.3586152,15.4689994 C13.7493318,15.0781798 14.279319,14.8586109 14.8319485,14.8586109 C15.3845781,14.8586109 15.9145653,15.0781798 16.3052819,15.4689994 L16.3052819,15.4689994 L18.0694485,17.2364994 C18.4602682,17.6272159 18.679837,18.1572032 18.679837,18.7098327 C18.679837,19.2624622 18.4602682,19.7924495 18.0694485,20.183166 L18.0694485,20.183166 L17.0994485,21.1523327 C16.1136022,22.1169708 14.5911359,22.2702555 13.4327819,21.5214994 C9.08891197,18.6364565 5.36566925,14.9120805 2.48194855,10.5673327 C1.7225795,9.41169771 1.87622743,7.88217079 2.85028188,6.90066605 L2.85028188,6.90066605 L3.81944855,5.93066605 C4.21016511,5.53984644 4.74015235,5.32027761 5.29278188,5.32027761 Z M16.5819485,2.00566605 C19.5719681,2.00933929 21.994942,4.43231315 21.9986152,7.42233271 C21.9986152,10.4138751 19.5734909,12.8389994 16.5819485,12.8389994 C13.5904062,12.8389994 11.1652819,10.4138751 11.1652819,7.42233271 C11.1652819,4.43079032 13.5904062,2.00566605 16.5819485,2.00566605 Z M16.5819485,3.67233271 C14.5108807,3.67233271 12.8319485,5.3512649 12.8319485,7.42233271 C12.8319485,9.49340053 14.5108807,11.1723327 16.5819485,11.1723327 C18.6530164,11.1723327 20.3319485,9.49340053 20.3319485,7.42233271 C20.3319485,5.3512649 18.6530164,3.67233271 16.5819485,3.67233271 Z M16.5819485,4.71399938 C16.8957467,4.71399938 17.1555317,4.94525726 17.2001719,5.24664146 L17.2069485,5.33899938 L17.2069485,6.79733271 L18.2486152,6.79733271 C18.5937932,6.79733271 18.8736152,7.07715475 18.8736152,7.42233271 C18.8736152,7.73613087 18.6423573,7.99591585 18.3409731,8.04055611 L18.2486152,8.04733271 L16.5819485,8.04733271 C16.2681504,8.04733271 16.0083654,7.81607484 15.9637252,7.51469063 L15.9569485,7.42233271 L15.9569485,5.33899938 C15.9569485,4.99382141 16.2367706,4.71399938 16.5819485,4.71399938 Z" id="ðŸ–-Color" fill="#5A5A5A"></path>
        <rect id="_Transparent_Rectangle_" x="0.0202714204" y="-0.00237573707" width="24" height="24"></rect>
    </g>
</svg>