<?xml version="1.0" encoding="UTF-8"?>
<svg width="24px" height="24px" viewBox="0 0 24 24" version="1.1" xmlns="http://www.w3.org/2000/svg" xmlns:xlink="http://www.w3.org/1999/xlink">
    <title>9.Phones/phone_type</title>
    <g id="9.Phones/phone_type" stroke="none" stroke-width="1" fill="none" fill-rule="evenodd">
        <path d="M9.70833333,5.33333333 C9.82339266,5.33333333 9.91666667,5.42660734 9.91666667,5.54166667 L9.91666667,5.54166667 L9.91666667,7.20833333 C9.91666667,7.32339266 9.82339266,7.41666667 9.70833333,7.41666667 L9.70833333,7.41666667 L4.5,7.41666667 C4.03976271,7.41666667 3.66666667,7.78976271 3.66666667,8.25 L3.66666667,8.25 L3.66666667,17.4166667 C3.66666667,17.876904 4.03976271,18.25 4.5,18.25 L4.5,18.25 L10.3333333,18.25 C10.7935706,18.25 11.1666667,17.876904 11.1666667,17.4166667 L11.1666667,17.4166667 L11.1666667,10.7325 C11.1655645,10.664014 11.1988776,10.5995386 11.255374,10.5608126 C11.3118704,10.5220866 11.3840213,10.5142706 11.4475,10.54 C11.8238566,10.6789294 12.2221594,10.7489359 12.6233333,10.7466667 C12.7371677,10.7479502 12.8297691,10.8387142 12.8333333,10.9525 L12.8333333,10.9525 L12.8333333,19.9166667 C12.8333333,20.469201 12.6138399,20.999105 12.2231391,21.3898058 C11.8324383,21.7805066 11.3025344,22 10.75,22 L10.75,22 L4.08333333,22 C3.53079898,22 3.00089499,21.7805066 2.61019421,21.3898058 C2.21949342,20.999105 2,20.469201 2,19.9166667 L2,19.9166667 L2,7.41666667 C2,6.26607344 2.9327401,5.33333333 4.08333333,5.33333333 L4.08333333,5.33333333 Z M20.75,2 C21.4403559,2 22,2.55964406 22,3.25 L22,3.25 L22,8.25 C22,8.94035594 21.4403559,9.5 20.75,9.5 L20.75,9.5 L17,9.5 L15.2116667,11.2883333 C15.0925952,11.4077062 14.9133184,11.4435532 14.7574994,11.3791456 C14.6016805,11.314738 14.5000358,11.1627724 14.5,10.9941667 L14.5,10.9941667 L14.5,9.5 L12.4166667,9.5 C11.7263107,9.5 11.1666667,8.94035594 11.1666667,8.25 L11.1666667,8.25 L11.1666667,3.25 C11.1666667,2.55964406 11.7263107,2 12.4166667,2 L12.4166667,2 Z M13.875,4.70833333 C13.4147627,4.70833333 13.0416667,5.08142938 13.0416667,5.54166667 C13.0416667,6.00190396 13.4147627,6.375 13.875,6.375 C14.3352373,6.375 14.7083333,6.00190396 14.7083333,5.54166667 C14.7083333,5.08142938 14.3352373,4.70833333 13.875,4.70833333 Z M16.7916667,4.70833333 C16.3314294,4.70833333 15.9583333,5.08142938 15.9583333,5.54166667 C15.9583333,6.00190396 16.3314294,6.375 16.7916667,6.375 C17.251904,6.375 17.625,6.00190396 17.625,5.54166667 C17.625,5.08142938 17.251904,4.70833333 16.7916667,4.70833333 Z M19.7083333,4.70833333 C19.248096,4.70833333 18.875,5.08142938 18.875,5.54166667 C18.875,6.00190396 19.248096,6.375 19.7083333,6.375 C20.1685706,6.375 20.5416667,6.00190396 20.5416667,5.54166667 C20.5416667,5.08142938 20.1685706,4.70833333 19.7083333,4.70833333 Z" id="ðŸ–-Color" fill="#5A5A5A"></path>
        <rect id="_Transparent_Rectangle_" x="0" y="0" width="24" height="24"></rect>
    </g>
</svg>