<svg width="24" height="24" viewBox="0 0 24 24" fill="none" xmlns="http://www.w3.org/2000/svg">
<g id="phone_actions_voice_mail">
<path id="Shape" fill-rule="evenodd" clip-rule="evenodd" d="M11.1649 7.42233C11.1649 4.43079 13.59 2.00567 16.5815 2.00567C19.5716 2.00934 21.9945 4.43231 21.9982 7.42233C21.9982 10.4139 19.5731 12.839 16.5815 12.839C13.59 12.839 11.1649 10.4139 11.1649 7.42233ZM12.8315 7.42233C12.8315 9.4934 14.5105 11.1723 16.5815 11.1723C18.6526 11.1723 20.3315 9.4934 20.3315 7.42233C20.3315 5.35127 18.6526 3.67233 16.5815 3.67233C14.5105 3.67233 12.8315 5.35127 12.8315 7.42233ZM18.2482 6.79733H17.2065V5.339C17.2065 4.99382 16.9267 4.714 16.5815 4.714C16.2364 4.714 15.9565 4.99382 15.9565 5.339V7.42233C15.9565 7.76751 16.2364 8.04733 16.5815 8.04733H18.2482C18.5934 8.04733 18.8732 7.76751 18.8732 7.42233C18.8732 7.07716 18.5934 6.79733 18.2482 6.79733ZM14.8315 14.8586C15.3842 14.8586 15.9142 15.0782 16.3049 15.469L18.069 17.2365C18.4599 17.6272 18.6794 18.1572 18.6794 18.7098C18.6794 19.2625 18.4599 19.7924 18.069 20.1832L17.099 21.1523C16.1132 22.117 14.5907 22.2703 13.4324 21.5215C9.0885 18.6365 5.36526 14.9121 2.48154 10.5673C1.72217 9.4117 1.87582 7.88217 2.84987 6.90067L3.81904 5.93067C4.20976 5.53985 4.73974 5.32028 5.29237 5.32028C5.845 5.32028 6.37499 5.53985 6.76571 5.93067L8.53404 7.699C9.34504 8.51349 9.34504 9.83034 8.53404 10.6448L8.21321 10.9657C9.67735 12.7115 11.2916 14.3257 13.0374 15.7898L13.3582 15.469C13.7489 15.0782 14.2789 14.8586 14.8315 14.8586Z" fill="#5A5A5A"/>
</g>
</svg>
