<?xml version="1.0" encoding="UTF-8"?>
<svg width="24px" height="24px" viewBox="0 0 24 24" version="1.1" xmlns="http://www.w3.org/2000/svg" xmlns:xlink="http://www.w3.org/1999/xlink">
    <title>9.Phones/phone_circle</title>
    <g id="9.Phones/phone_circle" stroke="none" stroke-width="1" fill="none" fill-rule="evenodd">
        <path d="M11.9999358,2.0000642 C6.47712376,2.0000642 2,6.47718796 2,12 C2,17.522812 6.47712376,21.9999358 11.9999358,21.9999358 C15.7324002,21.9999358 17.1174813,20.5464761 17.6219811,19.326504 C18.0490419,18.3583283 17.993389,17.2452692 17.471882,16.3245219 C18.0229958,15.7124265 18.0168504,14.7812054 17.457706,14.176437 L16.2644181,12.983983 C15.6135672,12.3829819 14.5995832,12.4202333 13.9945861,13.0673714 L13.8186366,13.242487 C12.703108,12.3178654 11.6755501,11.2919824 10.7491099,10.1779637 L10.9250594,10.002848 C11.5737525,9.3989691 11.6132372,8.38466148 11.0134511,7.73218217 L9.82099715,6.53806042 C9.16891432,5.93765929 8.15410596,5.97755072 7.55116516,6.627286 L6.82318451,7.35443276 C6.06575363,8.07512098 5.9003223,9.22073294 6.42292024,10.1262629 C8.32312554,13.129715 10.8668853,15.6734747 13.8703374,17.57368 C14.1983101,17.7784573 14.5777505,17.8857533 14.9643931,17.883051 C15.3991734,17.8784265 15.8241255,17.7531349 16.1918702,17.5211453 C16.2871466,18.0038506 16.2045062,18.5047281 15.9592166,18.931243 C15.4096871,19.8485153 14.0412836,20.332168 11.9999358,20.332168 C8.17011767,20.3313621 4.83426569,17.7194288 3.91482034,14.0016166 C2.99537499,10.2838044 4.72925076,6.41808592 8.11722076,4.63226208 C11.5051908,2.84643823 15.6742731,3.60066414 18.2218393,6.46028189 C20.7694056,9.31989964 21.0390216,13.5480684 18.8753086,16.7081085 C18.706538,16.9537419 18.6816315,17.2707546 18.809971,17.5397309 C18.9383105,17.8087072 19.2003982,17.9887832 19.4975082,18.0121261 C19.7946183,18.035469 20.0816126,17.8985324 20.2503832,17.652899 C22.3470217,14.5913572 22.5763629,10.6206708 20.8461515,7.33809554 C19.11594,4.05552032 15.7105869,2.00064371 11.9999358,2.0000642 Z" id="ðŸ–-Color" fill="#5A5A5A"></path>
        <rect id="_Transparent_Rectangle_" x="0" y="0" width="24" height="24"></rect>
    </g>
</svg>