<?xml version="1.0" encoding="UTF-8"?>
<svg width="24px" height="24px" viewBox="0 0 24 24" version="1.1" xmlns="http://www.w3.org/2000/svg" xmlns:xlink="http://www.w3.org/1999/xlink">
    <title>9.Phones/qr_code_scan</title>
    <g id="9.Phones/qr_code_scan" stroke="none" stroke-width="1" fill="none" fill-rule="evenodd">
        <path d="M21.1666667,17.9666667 C21.626904,17.9666667 22,18.3397627 22,18.8 L22,18.8 L22,20.37 C22,21.2702241 21.2702241,22 20.37,22 L20.37,22 L18.8,22 C18.3397627,22 17.9666667,21.626904 17.9666667,21.1666667 C17.9666667,20.7064294 18.3397627,20.3333333 18.8,20.3333333 L18.8,20.3333333 L20.1566667,20.3333333 C20.212726,20.3331211 20.2663539,20.3104147 20.3055213,20.2703073 C20.3446887,20.2301998 20.3661171,20.1760486 20.365,20.12 L20.365,20.12 L20.3333333,18.8 C20.3333333,18.3397627 20.7064294,17.9666667 21.1666667,17.9666667 Z M2.83333333,17.9666667 C3.29357062,17.9666667 3.66666667,18.3397627 3.66666667,18.8 L3.66666667,18.8 L3.66666667,20.1558333 C3.66687888,20.2118927 3.6895853,20.2655206 3.72969273,20.304688 C3.76980017,20.3438554 3.82395141,20.3652838 3.88,20.3641667 L3.88,20.3641667 L5.2,20.3333333 C5.66023729,20.3333333 6.03333333,20.7064294 6.03333333,21.1666667 C6.03333333,21.626904 5.66023729,22 5.2,22 L5.2,22 L3.63083333,22 C2.73014895,22 2,21.269851 2,20.3691667 L2,20.3691667 L2,18.8 C2,18.3397627 2.37309604,17.9666667 2.83333333,17.9666667 Z M10.75,14.9891667 C11.095178,14.9891667 11.375,15.2689887 11.375,15.6141667 L11.375,15.6141667 L11.375,16.7916667 C11.375,16.906726 11.468274,17 11.5833333,17 L11.5833333,17 L13.1933333,17 C13.5385113,17 13.8183333,17.279822 13.8183333,17.625 C13.8183333,17.970178 13.5385113,18.25 13.1933333,18.25 L13.1933333,18.25 L10.75,18.25 C10.404822,18.25 10.125,17.970178 10.125,17.625 L10.125,17.625 L10.125,15.6141667 C10.125,15.2689887 10.404822,14.9891667 10.75,14.9891667 Z M17.3333333,15.3333333 C17.6094757,15.3333333 17.8333333,15.557191 17.8333333,15.8333333 L17.8333333,17.75 C17.8333333,18.0261424 17.6094757,18.25 17.3333333,18.25 L15.4166667,18.25 C15.1405243,18.25 14.9166667,18.0261424 14.9166667,17.75 L14.9166667,15.8333333 C14.9166667,15.557191 15.1405243,15.3333333 15.4166667,15.3333333 L17.3333333,15.3333333 Z M8.58333333,15.3333333 C8.85947571,15.3333333 9.08333333,15.557191 9.08333333,15.8333333 L9.08333333,17.75 C9.08333333,18.0261424 8.85947571,18.25 8.58333333,18.25 L6.66666667,18.25 C6.39052429,18.25 6.16666667,18.0261424 6.16666667,17.75 L6.16666667,15.8333333 C6.16666667,15.557191 6.39052429,15.3333333 6.66666667,15.3333333 L8.58333333,15.3333333 Z M10.75,10.8225 C11.095178,10.8225 11.375,11.102322 11.375,11.4475 L11.375,11.4475 L11.375,13.4583333 C11.375,13.8035113 11.095178,14.0833333 10.75,14.0833333 L10.75,14.0833333 L6.58333333,14.0833333 C6.23815536,14.0833333 5.95833333,13.8035113 5.95833333,13.4583333 C5.95833333,13.1131554 6.23815536,12.8333333 6.58333333,12.8333333 L6.58333333,12.8333333 L9.91666667,12.8333333 C10.031726,12.8333333 10.125,12.7400593 10.125,12.625 L10.125,12.625 L10.125,11.4475 C10.125,11.102322 10.404822,10.8225 10.75,10.8225 Z M17.4166667,12.8333333 C17.7618446,12.8333333 18.0416667,13.1131554 18.0416667,13.4583333 C18.0416667,13.8035113 17.7618446,14.0833333 17.4166667,14.0833333 L17.4166667,14.0833333 L12.8333333,14.0833333 C12.4881554,14.0833333 12.2083333,13.8035113 12.2083333,13.4583333 C12.2083333,13.1131554 12.4881554,12.8333333 12.8333333,12.8333333 L12.8333333,12.8333333 Z M13.25,7.9425 C13.595178,7.9425 13.875,8.22232203 13.875,8.5675 L13.875,8.5675 L13.875,11.3575 C13.875,11.702678 13.595178,11.9825 13.25,11.9825 C12.904822,11.9825 12.625,11.702678 12.625,11.3575 L12.625,11.3575 L12.625,8.5675 C12.625,8.22232203 12.904822,7.9425 13.25,7.9425 Z M8.25,9.91666667 C8.59517797,9.91666667 8.875,10.1964887 8.875,10.5416667 C8.875,10.8868446 8.59517797,11.1666667 8.25,11.1666667 L8.25,11.1666667 L6.58333333,11.1666667 C6.23815536,11.1666667 5.95833333,10.8868446 5.95833333,10.5416667 C5.95833333,10.1964887 6.23815536,9.91666667 6.58333333,9.91666667 L6.58333333,9.91666667 Z M17.4166667,9.91666667 C17.7618446,9.91666667 18.0416667,10.1964887 18.0416667,10.5416667 C18.0416667,10.8868446 17.7618446,11.1666667 17.4166667,11.1666667 L17.4166667,11.1666667 L15.3333333,11.1666667 C14.9881554,11.1666667 14.7083333,10.8868446 14.7083333,10.5416667 C14.7083333,10.1964887 14.9881554,9.91666667 15.3333333,9.91666667 L15.3333333,9.91666667 Z M13.1933333,5.75 C13.5385113,5.75 13.8183333,6.02982203 13.8183333,6.375 C13.8183333,6.72017797 13.5385113,7 13.1933333,7 L13.1933333,7 L11.5833333,7 C11.468274,7 11.375,7.09327401 11.375,7.20833333 L11.375,7.20833333 L11.375,8.25916667 C11.375,8.60434464 11.095178,8.88416667 10.75,8.88416667 C10.404822,8.88416667 10.125,8.60434464 10.125,8.25916667 L10.125,8.25916667 L10.125,6.375 C10.125,6.02982203 10.404822,5.75 10.75,5.75 L10.75,5.75 Z M8.58333333,5.75 C8.85947571,5.75 9.08333333,5.97385763 9.08333333,6.25 L9.08333333,8.16666667 C9.08333333,8.44280904 8.85947571,8.66666667 8.58333333,8.66666667 L6.66666667,8.66666667 C6.39052429,8.66666667 6.16666667,8.44280904 6.16666667,8.16666667 L6.16666667,6.25 C6.16666667,5.97385763 6.39052429,5.75 6.66666667,5.75 L8.58333333,5.75 Z M17.3333333,5.75 C17.6094757,5.75 17.8333333,5.97385763 17.8333333,6.25 L17.8333333,8.16666667 C17.8333333,8.44280904 17.6094757,8.66666667 17.3333333,8.66666667 L15.4166667,8.66666667 C15.1405243,8.66666667 14.9166667,8.44280904 14.9166667,8.16666667 L14.9166667,6.25 C14.9166667,5.97385763 15.1405243,5.75 15.4166667,5.75 L17.3333333,5.75 Z M5.2,2 C5.66023729,2 6.03333333,2.37309604 6.03333333,2.83333333 C6.03333333,3.29357062 5.66023729,3.66666667 5.2,3.66666667 L5.2,3.66666667 L3.84333333,3.66666667 C3.78727401,3.66687888 3.73364611,3.6895853 3.69447869,3.72969273 C3.65531128,3.76980017 3.63388287,3.82395141 3.635,3.88 L3.635,3.88 L3.66666667,5.2 C3.66666667,5.66023729 3.29357062,6.03333333 2.83333333,6.03333333 C2.37309604,6.03333333 2,5.66023729 2,5.2 L2,5.2 L2,3.63 C2,2.72977586 2.72977586,2 3.63,2 L3.63,2 Z M20.3691667,2 C21.269851,2 22,2.73014895 22,3.63083333 L22,3.63083333 L22,5.2 C22,5.66023729 21.626904,6.03333333 21.1666667,6.03333333 C20.7064294,6.03333333 20.3333333,5.66023729 20.3333333,5.2 L20.3333333,5.2 L20.3333333,3.84416667 C20.3331211,3.78810734 20.3104147,3.73447944 20.2703073,3.69531202 C20.2301998,3.65614461 20.1760486,3.6347162 20.12,3.63583333 L20.12,3.63583333 L18.8,3.66666667 C18.3397627,3.66666667 17.9666667,3.29357062 17.9666667,2.83333333 C17.9666667,2.37309604 18.3397627,2 18.8,2 L18.8,2 Z" id="ðŸ–-Color" fill="#5A5A5A"></path>
        <rect id="_Transparent_Rectangle_" x="0" y="0" width="24" height="24"></rect>
    </g>
</svg>