<svg width="24" height="24" viewBox="0 0 24 24" fill="none" xmlns="http://www.w3.org/2000/svg">
<g id="qr_code_scan">
<path id="Shape" fill-rule="evenodd" clip-rule="evenodd" d="M2.83333 6.03333C3.29357 6.03333 3.66667 5.66024 3.66667 5.2L3.635 3.88C3.63388 3.82395 3.65531 3.7698 3.69448 3.72969C3.73365 3.68959 3.78727 3.66688 3.84333 3.66667H5.2C5.66024 3.66667 6.03333 3.29357 6.03333 2.83333C6.03333 2.3731 5.66024 2 5.2 2H3.63C2.72978 2 2 2.72978 2 3.63V5.2C2 5.66024 2.3731 6.03333 2.83333 6.03333ZM5.2 20.3333L3.88 20.3642C3.82395 20.3653 3.7698 20.3439 3.72969 20.3047C3.68959 20.2655 3.66688 20.2119 3.66667 20.1558V18.8C3.66667 18.3398 3.29357 17.9667 2.83333 17.9667C2.3731 17.9667 2 18.3398 2 18.8V20.3692C2 21.2698 2.73015 22 3.63083 22H5.2C5.66024 22 6.03333 21.6269 6.03333 21.1667C6.03333 20.7064 5.66024 20.3333 5.2 20.3333ZM18.8 2H20.3692C21.2698 2 22 2.73015 22 3.63083V5.2C22 5.66024 21.6269 6.03333 21.1667 6.03333C20.7064 6.03333 20.3333 5.66024 20.3333 5.2V3.84417C20.3331 3.78811 20.3104 3.73448 20.2703 3.69531C20.2302 3.65614 20.176 3.63472 20.12 3.63583L18.8 3.66667C18.3398 3.66667 17.9667 3.29357 17.9667 2.83333C17.9667 2.3731 18.3398 2 18.8 2ZM21.1667 17.9667C20.7064 17.9667 20.3333 18.3398 20.3333 18.8L20.365 20.12C20.3661 20.176 20.3447 20.2302 20.3055 20.2703C20.2664 20.3104 20.2127 20.3331 20.1567 20.3333H18.8C18.3398 20.3333 17.9667 20.7064 17.9667 21.1667C17.9667 21.6269 18.3398 22 18.8 22H20.37C21.2702 22 22 21.2702 22 20.37V18.8C22 18.3398 21.6269 17.9667 21.1667 17.9667ZM6.66667 5.75C6.39052 5.75 6.16667 5.97386 6.16667 6.25V8.16667C6.16667 8.44281 6.39052 8.66667 6.66667 8.66667H8.58333C8.85948 8.66667 9.08333 8.44281 9.08333 8.16667V6.25C9.08333 5.97386 8.85948 5.75 8.58333 5.75H6.66667ZM14.9167 6.25C14.9167 5.97386 15.1405 5.75 15.4167 5.75H17.3333C17.6095 5.75 17.8333 5.97386 17.8333 6.25V8.16667C17.8333 8.44281 17.6095 8.66667 17.3333 8.66667H15.4167C15.1405 8.66667 14.9167 8.44281 14.9167 8.16667V6.25ZM15.4167 15.3333C15.1405 15.3333 14.9167 15.5572 14.9167 15.8333V17.75C14.9167 18.0261 15.1405 18.25 15.4167 18.25H17.3333C17.6095 18.25 17.8333 18.0261 17.8333 17.75V15.8333C17.8333 15.5572 17.6095 15.3333 17.3333 15.3333H15.4167ZM6.16667 15.8333C6.16667 15.5572 6.39052 15.3333 6.66667 15.3333H8.58333C8.85948 15.3333 9.08333 15.5572 9.08333 15.8333V17.75C9.08333 18.0261 8.85948 18.25 8.58333 18.25H6.66667C6.39052 18.25 6.16667 18.0261 6.16667 17.75V15.8333ZM11.375 8.25917C11.375 8.60434 11.0952 8.88417 10.75 8.88417C10.4048 8.88417 10.125 8.60434 10.125 8.25917V6.375C10.125 6.02982 10.4048 5.75 10.75 5.75H13.1933C13.5385 5.75 13.8183 6.02982 13.8183 6.375C13.8183 6.72018 13.5385 7 13.1933 7H11.5833C11.4683 7 11.375 7.09327 11.375 7.20833V8.25917ZM13.25 7.9425C12.9048 7.9425 12.625 8.22232 12.625 8.5675V11.3575C12.625 11.7027 12.9048 11.9825 13.25 11.9825C13.5952 11.9825 13.875 11.7027 13.875 11.3575V8.5675C13.875 8.22232 13.5952 7.9425 13.25 7.9425ZM11.375 13.4583C11.375 13.8035 11.0952 14.0833 10.75 14.0833H6.58333C6.23816 14.0833 5.95833 13.8035 5.95833 13.4583C5.95833 13.1132 6.23816 12.8333 6.58333 12.8333H9.91667C10.0317 12.8333 10.125 12.7401 10.125 12.625V11.4475C10.125 11.1023 10.4048 10.8225 10.75 10.8225C11.0952 10.8225 11.375 11.1023 11.375 11.4475V13.4583ZM13.1933 17H11.5833C11.4683 17 11.375 16.9067 11.375 16.7917V15.6142C11.375 15.269 11.0952 14.9892 10.75 14.9892C10.4048 14.9892 10.125 15.269 10.125 15.6142V17.625C10.125 17.9702 10.4048 18.25 10.75 18.25H13.1933C13.5385 18.25 13.8183 17.9702 13.8183 17.625C13.8183 17.2798 13.5385 17 13.1933 17ZM8.25 11.1667H6.58333C6.23816 11.1667 5.95833 10.8868 5.95833 10.5417C5.95833 10.1965 6.23816 9.91667 6.58333 9.91667H8.25C8.59518 9.91667 8.875 10.1965 8.875 10.5417C8.875 10.8868 8.59518 11.1667 8.25 11.1667ZM15.3333 11.1667H17.4167C17.7618 11.1667 18.0417 10.8868 18.0417 10.5417C18.0417 10.1965 17.7618 9.91667 17.4167 9.91667H15.3333C14.9882 9.91667 14.7083 10.1965 14.7083 10.5417C14.7083 10.8868 14.9882 11.1667 15.3333 11.1667ZM12.8333 12.8333H17.4167C17.7618 12.8333 18.0417 13.1132 18.0417 13.4583C18.0417 13.8035 17.7618 14.0833 17.4167 14.0833H12.8333C12.4882 14.0833 12.2083 13.8035 12.2083 13.4583C12.2083 13.1132 12.4882 12.8333 12.8333 12.8333Z" fill="#5A5A5A"/>
</g>
</svg>
