<svg width="24" height="24" viewBox="0 0 24 24" fill="none" xmlns="http://www.w3.org/2000/svg">
<g id="ringing">
<path id="Shape" fill-rule="evenodd" clip-rule="evenodd" d="M10.7486 2.83357C10.7486 2.37333 11.1217 2.00024 11.582 2.00024C17.3323 2.00667 21.9922 6.6666 21.9986 12.4169C21.9986 12.8771 21.6255 13.2502 21.1653 13.2502C20.7051 13.2502 20.332 12.8771 20.332 12.4169C20.3265 7.5867 16.4122 3.67241 11.582 3.6669C11.1217 3.6669 10.7486 3.29381 10.7486 2.83357ZM10.7486 6.1669C10.7486 5.70667 11.1217 5.33357 11.582 5.33357C15.4921 5.33816 18.6607 8.50679 18.6653 12.4169C18.6653 12.8771 18.2922 13.2502 17.832 13.2502C17.3717 13.2502 16.9986 12.8771 16.9986 12.4169C16.995 9.42688 14.572 7.00391 11.582 7.00024C11.1217 7.00024 10.7486 6.62714 10.7486 6.1669ZM13.8736 12.4169C13.8736 12.7621 14.1535 13.0419 14.4986 13.0419C14.8438 13.0419 15.1236 12.7621 15.1236 12.4169C15.1218 10.4617 13.5372 8.87707 11.582 8.87524C11.2368 8.87524 10.957 9.15506 10.957 9.50024C10.957 9.84541 11.2368 10.1252 11.582 10.1252C12.8472 10.1262 13.8727 11.1516 13.8736 12.4169ZM11.2486 15.1602C12.2626 14.1513 13.9013 14.1513 14.9153 15.1602L17.8986 18.1486C18.3402 18.5895 18.5313 19.2225 18.4076 19.8341C18.2839 20.4458 17.8618 20.9547 17.2836 21.1894C15.0638 22.0772 12.6201 22.2402 10.302 21.6552C7.20716 20.8484 4.61066 18.746 3.17767 15.8868C1.74469 13.0275 1.61444 9.68913 2.82031 6.7269C3.0551 6.14908 3.56366 5.72723 4.17491 5.60323C4.78617 5.47924 5.41891 5.66958 5.86031 6.11024L8.85614 9.0944C9.86512 10.1084 9.86512 11.7471 8.85614 12.7611L8.16281 13.4527C7.25255 14.5474 5.77446 14.9892 4.41281 14.5736C5.37041 16.8386 7.17291 18.6414 9.43781 19.5994C9.02491 18.2374 9.46699 16.7605 10.5603 15.8494L11.2486 15.1602Z" fill="#5A5A5A"/>
</g>
</svg>
