<?xml version="1.0" encoding="UTF-8"?>
<svg width="24px" height="24px" viewBox="0 0 24 24" version="1.1" xmlns="http://www.w3.org/2000/svg" xmlns:xlink="http://www.w3.org/1999/xlink">
    <title>9.Phones/ringing</title>
    <g id="9.Phones/ringing" stroke="none" stroke-width="1" fill="none" fill-rule="evenodd">
        <path d="M4.17510641,5.60323398 C4.7863633,5.47923998 5.41910007,5.66958103 5.86049803,6.11023662 L5.86049803,6.11023662 L8.85633136,9.09440329 C9.86531071,10.1083902 9.86531071,11.747083 8.85633136,12.76107 L8.85633136,12.76107 L8.16299803,13.4527366 C7.2527413,14.5473897 5.77465373,14.9891737 4.41299803,14.57357 C5.3706043,16.8386266 7.17310017,18.6414214 9.43799803,19.5994033 C9.02510233,18.2374073 9.4671783,16.7605388 10.560498,15.8494033 L10.560498,15.8494033 L11.2488314,15.1602366 C12.2628183,14.1512573 13.9015111,14.1512573 14.915498,15.1602366 L14.915498,15.1602366 L17.8988314,18.14857 C18.3403722,18.5895377 18.5314863,19.2224677 18.407783,19.8341117 C18.2840798,20.4457557 17.8620299,20.954675 17.2838314,21.1894033 C15.063997,22.0771896 12.6202672,22.2402411 10.3021647,21.6552366 C7.20734905,20.8483946 4.6108523,18.7460395 3.17786535,15.8867693 C1.7448784,13.027499 1.61463358,9.68912692 2.82049803,6.72690329 C3.05529677,6.1490806 3.56384951,5.72722798 4.17510641,5.60323398 Z M11.5821647,2.00023662 C17.3324655,2.00666616 21.9924018,6.66660245 21.9988314,12.4169033 C21.9988314,12.8771406 21.6257353,13.2502366 21.165498,13.2502366 C20.7052607,13.2502366 20.3321647,12.8771406 20.3321647,12.4169033 C20.3266539,7.58669621 16.4123718,3.67241408 11.5821647,3.66690329 C11.1219274,3.66690329 10.7488314,3.29380724 10.7488314,2.83356995 C10.7488314,2.37333266 11.1219274,2.00023662 11.5821647,2.00023662 Z M11.5821647,5.33356995 C15.492278,5.33816199 18.660906,8.50678997 18.665498,12.4169033 C18.665498,12.8771406 18.292402,13.2502366 17.8321647,13.2502366 C17.3719274,13.2502366 16.9988314,12.8771406 16.9988314,12.4169033 C16.9951581,9.42688372 14.5721843,7.00390987 11.5821647,7.00023662 C11.1219274,7.00023662 10.7488314,6.62714058 10.7488314,6.16690329 C10.7488314,5.70666599 11.1219274,5.33356995 11.5821647,5.33356995 Z M11.5821647,8.87523662 C13.5374115,8.87707426 15.1219937,10.4616565 15.1238314,12.4169033 C15.1238314,12.7620813 14.8440093,13.0419033 14.4988314,13.0419033 C14.1536534,13.0419033 13.8738314,12.7620813 13.8738314,12.4169033 C13.8729122,11.1516317 12.8474363,10.1261558 11.5821647,10.1252366 C11.2369867,10.1252366 10.9571647,9.84541459 10.9571647,9.50023662 C10.9571647,9.15505865 11.2369867,8.87523662 11.5821647,8.87523662 Z" id="ðŸ–-Color" fill="#5A5A5A"></path>
        <rect id="_Transparent_Rectangle_" x="0" y="0" width="24" height="24"></rect>
    </g>
</svg>