<?xml version="1.0" encoding="UTF-8"?>
<svg width="24px" height="24px" viewBox="0 0 24 24" version="1.1" xmlns="http://www.w3.org/2000/svg" xmlns:xlink="http://www.w3.org/1999/xlink">
    <title>9.Phones/signal_full</title>
    <g id="9.Phones/signal_full" stroke="none" stroke-width="1" fill="none" fill-rule="evenodd">
        <path d="M9.31554357,5.33330014 C9.37285818,5.33357597 9.42746229,5.3577368 9.46621311,5.39996729 C9.50496394,5.44219778 9.52435182,5.49867312 9.51971024,5.55580014 C9.48340156,6.09934489 9.50519156,6.64521233 9.58471024,7.18413347 C9.59265139,7.24279588 9.57484611,7.30202731 9.53587562,7.34658784 C9.49690512,7.39114837 9.44057435,7.41668725 9.38137691,7.41663347 L9.38137691,7.41663347 L5.33471024,7.41663347 C4.87447295,7.41663347 4.50137691,7.78972951 4.50137691,8.2499668 L4.50137691,8.2499668 L4.50137691,17.4166335 C4.50137691,17.8768708 4.87447295,18.2499668 5.33471024,18.2499668 L5.33471024,18.2499668 L11.1680436,18.2499668 C11.6282809,18.2499668 12.0013769,17.8768708 12.0013769,17.4166335 L12.0013769,17.4166335 L12.0013769,11.5624668 C12.0018524,11.4854705 12.0449243,11.4150682 12.1132609,11.379589 C12.1815975,11.3441099 12.2639614,11.3493883 12.3272102,11.3933001 C12.7061199,11.642324 13.1110031,11.8493761 13.5347102,12.0108001 C13.6146443,12.0398497 13.6679086,12.1157512 13.6680436,12.2008001 L13.6680436,12.2008001 L13.6680436,19.9166335 C13.6680436,20.4691678 13.4485502,20.9990718 13.0578494,21.3897726 C12.6671486,21.7804734 12.1372446,21.9999668 11.5847102,21.9999668 L11.5847102,21.9999668 L4.91804357,21.9999668 C4.36550922,21.9999668 3.83560523,21.7804734 3.44490444,21.3897726 C3.05420366,20.9990718 2.83471024,20.4691678 2.83471024,19.9166335 L2.83471024,19.9166335 L2.83471024,7.41663347 C2.83471024,6.26604024 3.76745034,5.33330014 4.91804357,5.33330014 L4.91804357,5.33330014 Z M15.7513769,7.84580014 C16.5567922,7.84580014 17.2097102,8.49871821 17.2097102,9.30413347 C17.2097102,10.1095487 16.5567922,10.7624668 15.7513769,10.7624668 C14.9459616,10.7624668 14.2930436,10.1095487 14.2930436,9.30413347 C14.2930436,8.49871821 14.9459616,7.84580014 15.7513769,7.84580014 Z M12.7122102,6.13830014 C14.4632559,4.6460884 17.0386645,4.6460884 18.7897102,6.13830014 C19.0254502,6.32820327 19.1396684,6.63100982 19.0880727,6.92929558 C19.036477,7.22758135 18.8271829,7.47442863 18.5413517,7.57411347 C18.2555205,7.6737983 17.938111,7.61064114 17.7122102,7.40913347 C16.5875299,6.43130597 14.9143906,6.43130597 13.7897102,7.40913347 C13.4362567,7.69870142 12.91688,7.65594223 12.6155436,7.3124668 C12.3181499,6.96148783 12.3614191,6.43591542 12.7122102,6.13830014 Z M10.6505436,3.7849668 C13.6346982,1.40505533 17.8680557,1.40505533 20.8522102,3.7849668 C21.2112396,4.07192432 21.2701481,4.59538999 20.9838769,4.9549668 C20.6953924,5.30771176 20.1790188,5.36783241 19.8172102,5.09080014 C17.4384617,3.19408571 14.0642921,3.19408571 11.6855436,5.09080014 C11.4529844,5.28363076 11.1342758,5.33549601 10.8525749,5.22635383 C10.5708739,5.11721166 10.3703035,4.86415698 10.328369,4.56497656 C10.2864345,4.26579614 10.4097042,3.96735057 10.6505436,3.7849668 Z" id="ðŸ–-Color" fill="#5A5A5A"></path>
        <rect id="_Transparent_Rectangle_" x="0" y="0" width="24" height="24"></rect>
    </g>
</svg>