<svg width="24" height="24" viewBox="0 0 24 24" fill="none" xmlns="http://www.w3.org/2000/svg">
<g id="signal_full">
<path id="Shape" fill-rule="evenodd" clip-rule="evenodd" d="M20.8525 3.78496C17.8683 1.40505 13.6349 1.40505 10.6508 3.78496C10.41 3.96735 10.2867 4.26579 10.3286 4.56497C10.3706 4.86415 10.5711 5.11721 10.8528 5.22635C11.1345 5.33549 11.4532 5.28363 11.6858 5.0908C14.0645 3.19408 17.4387 3.19408 19.8175 5.0908C20.1793 5.36783 20.6956 5.30771 20.9841 4.95496C21.2704 4.59539 21.2115 4.07192 20.8525 3.78496ZM12.0016 17.4166V11.5625C12.0021 11.4855 12.0452 11.4151 12.1135 11.3796C12.1818 11.3441 12.2642 11.3494 12.3275 11.3933C12.7064 11.6423 13.1113 11.8494 13.535 12.0108C13.6149 12.0398 13.6682 12.1157 13.6683 12.2008V19.9166C13.6683 20.4692 13.4488 20.9991 13.0581 21.3898C12.6674 21.7805 12.1375 22 11.585 22H4.91829C4.36576 22 3.83586 21.7805 3.44516 21.3898C3.05445 20.9991 2.83496 20.4692 2.83496 19.9166V7.41663C2.83496 6.26604 3.7677 5.3333 4.91829 5.3333H9.31579C9.37311 5.33357 9.42771 5.35773 9.46646 5.39996C9.50521 5.4422 9.5246 5.49867 9.51996 5.5558C9.48365 6.09934 9.50544 6.64521 9.58496 7.18413C9.5929 7.24279 9.5751 7.30202 9.53613 7.34659C9.49716 7.39115 9.44082 7.41668 9.38163 7.41663H5.33496C4.87472 7.41663 4.50163 7.78973 4.50163 8.24996V17.4166C4.50163 17.8769 4.87472 18.25 5.33496 18.25H11.1683C11.6285 18.25 12.0016 17.8769 12.0016 17.4166ZM15.7516 10.7625C16.557 10.7625 17.21 10.1095 17.21 9.30413C17.21 8.49872 16.557 7.8458 15.7516 7.8458C14.9462 7.8458 14.2933 8.49872 14.2933 9.30413C14.2933 10.1095 14.9462 10.7625 15.7516 10.7625ZM12.7125 6.1383C14.4635 4.64609 17.0389 4.64609 18.79 6.1383C19.0257 6.3282 19.1399 6.63101 19.0883 6.92929C19.0367 7.22758 18.8274 7.47443 18.5416 7.57411C18.2558 7.6738 17.9384 7.61064 17.7125 7.40913C16.5878 6.4313 14.9146 6.4313 13.79 7.40913C13.4365 7.6987 12.9171 7.65594 12.6158 7.31246C12.3184 6.96148 12.3617 6.43591 12.7125 6.1383Z" fill="#5A5A5A"/>
</g>
</svg>
