<?xml version="1.0" encoding="UTF-8"?>
<svg width="24px" height="24px" viewBox="0 0 24 24" version="1.1" xmlns="http://www.w3.org/2000/svg" xmlns:xlink="http://www.w3.org/1999/xlink">
    <title>9.Phones/sim-card-1</title>
    <g id="9.Phones/sim-card-1" stroke="none" stroke-width="1" fill="none" fill-rule="evenodd">
        <path d="M14.0833333,2 C14.4141546,2 14.7313879,2.13159392 14.965,2.36583334 L14.965,2.36583334 L19.1316667,6.45916667 C19.366374,6.69437349 19.498745,7.01272274 19.5,7.34500001 L19.5,7.34500001 L19.5,20.75 C19.5,21.4403559 18.9403559,22 18.25,22 L18.25,22 L5.75,22 C5.05964406,22 4.5,21.4403559 4.5,20.75 L4.5,20.75 L4.5,3.25000001 C4.5,2.55964407 5.05964406,2 5.75,2 L5.75,2 Z M11.1083333,14.7083333 L7,14.7083333 L7,16.1666667 C7,16.8570226 7.55964406,17.4166667 8.25,17.4166667 L8.25,17.4166667 L11.375,17.4166667 L11.375,14.81 C11.2839027,14.7822144 11.194807,14.7482467 11.1083333,14.7083333 L11.1083333,14.7083333 Z M17,14.7083333 L12.8916667,14.7083333 C12.805193,14.7482467 12.7160973,14.7822144 12.625,14.81 L12.625,14.81 L12.625,17.4166667 L15.75,17.4166667 C16.4403559,17.4166667 17,16.8570226 17,16.1666667 L17,16.1666667 L17,14.7083333 Z M12,11.5833333 C11.3096441,11.5833333 10.75,12.1429774 10.75,12.8333333 C10.75,13.5236893 11.3096441,14.0833333 12,14.0833333 C12.6903559,14.0833333 13.25,13.5236893 13.25,12.8333333 C13.25,12.1429774 12.6903559,11.5833333 12,11.5833333 Z M10.0233333,12.2083333 L7,12.2083333 L7,13.4583333 L10.0233333,13.4583333 C9.8810934,13.053806 9.8810934,12.6128607 10.0233333,12.2083333 L10.0233333,12.2083333 Z M17,12.2083333 L13.9766667,12.2083333 C14.1189066,12.6128607 14.1189066,13.053806 13.9766667,13.4583333 L13.9766667,13.4583333 L17,13.4583333 L17,12.2083333 Z M15.75,8.25000001 L12.625,8.25000001 L12.625,10.8566667 C12.7160973,10.8844523 12.805193,10.91842 12.8916667,10.9583333 L12.8916667,10.9583333 L17,10.9583333 L17,9.50000001 C17,8.80964407 16.4403559,8.25000001 15.75,8.25000001 L15.75,8.25000001 Z M11.375,8.25000001 L8.25,8.25000001 C7.55964406,8.25000001 7,8.80964407 7,9.50000001 L7,9.50000001 L7,10.9583333 L11.1083333,10.9583333 C11.194807,10.91842 11.2839027,10.8844523 11.375,10.8566667 L11.375,10.8566667 L11.375,8.25000001 Z" id="ðŸ–-Color" fill="#5A5A5A"></path>
        <rect id="_Transparent_Rectangle_" x="0" y="0" width="24" height="24"></rect>
    </g>
</svg>