<svg width="24" height="24" viewBox="0 0 24 24" fill="none" xmlns="http://www.w3.org/2000/svg">
<g id="sim_card_1">
<path id="Shape" fill-rule="evenodd" clip-rule="evenodd" d="M19.1317 6.45917L14.965 2.36583C14.7314 2.13159 14.4142 1.99996 14.0833 2H5.75C5.05964 2 4.5 2.55964 4.5 3.25V20.75C4.5 21.4404 5.05964 22 5.75 22H18.25C18.9404 22 19.5 21.4404 19.5 20.75V7.345C19.4987 7.01272 19.3664 6.69437 19.1317 6.45917ZM17 10.9583H12.8917C12.8052 10.9184 12.7161 10.8845 12.625 10.8567V8.25H15.75C16.4404 8.25 17 8.80964 17 9.5V10.9583ZM12 14.0833C11.3096 14.0833 10.75 13.5237 10.75 12.8333C10.75 12.143 11.3096 11.5833 12 11.5833C12.6904 11.5833 13.25 12.143 13.25 12.8333C13.25 13.5237 12.6904 14.0833 12 14.0833ZM7 12.2083H10.0233C9.88109 12.6129 9.88109 13.0538 10.0233 13.4583H7V12.2083ZM17 12.2083H13.9767C14.1189 12.6129 14.1189 13.0538 13.9767 13.4583H17V12.2083ZM11.1083 10.9583C11.1948 10.9184 11.2839 10.8845 11.375 10.8567V8.25H8.25C7.55964 8.25 7 8.80964 7 9.5V10.9583H11.1083ZM7 14.7083H11.1083C11.1948 14.7482 11.2839 14.7822 11.375 14.81V17.4167H8.25C7.55964 17.4167 7 16.857 7 16.1667V14.7083ZM12.8917 14.7083C12.8052 14.7482 12.7161 14.7822 12.625 14.81V17.4167H15.75C16.4404 17.4167 17 16.857 17 16.1667V14.7083H12.8917Z" fill="#5A5A5A"/>
</g>
</svg>
