<svg width="24" height="24" viewBox="0 0 24 24" fill="none" xmlns="http://www.w3.org/2000/svg">
<g id="voice_mail">
<path id="Shape" fill-rule="evenodd" clip-rule="evenodd" d="M16.4889 7.06466C14.9227 7.31039 13.5745 8.34711 12.8878 9.83382C12.2011 11.3205 12.2648 13.0648 13.0578 14.4929C13.0974 14.5588 13.0997 14.6419 13.0637 14.71C13.0277 14.7781 12.9592 14.8206 12.8845 14.821H11.1115C11.0369 14.8206 10.9684 14.7781 10.9324 14.71C10.8964 14.6419 10.8987 14.5588 10.9382 14.4929C11.9571 12.6545 11.7477 10.3459 10.4164 8.73877C9.08514 7.13163 6.92341 6.57786 5.02839 7.35853C3.13336 8.13921 1.92 10.0834 2.00411 12.2043C2.1781 14.9274 4.36931 17.0314 6.989 16.9907H17.0071C19.6284 17.0337 21.8221 14.9291 21.9961 12.2043C22.0534 10.7155 21.4697 9.27785 20.4044 8.28362C19.339 7.28939 17.9032 6.84241 16.4889 7.06466ZM4.08288 12.0004C4.08288 10.4426 5.29522 9.17971 6.7907 9.17971C8.28619 9.17971 9.49852 10.4426 9.49852 12.0004C9.49852 13.5582 8.28619 14.821 6.7907 14.821C5.29598 14.8191 4.08472 13.5574 4.08288 12.0004ZM17.2054 14.821C15.7099 14.821 14.4976 13.5582 14.4976 12.0004C14.4976 10.4426 15.7099 9.17971 17.2054 9.17971C18.7009 9.17971 19.9132 10.4426 19.9132 12.0004C19.9114 13.5574 18.7001 14.8191 17.2054 14.821Z" fill="#5A5A5A"/>
</g>
</svg>
