<?xml version="1.0" encoding="UTF-8"?>
<svg width="24px" height="24px" viewBox="0 0 24 24" version="1.1" xmlns="http://www.w3.org/2000/svg" xmlns:xlink="http://www.w3.org/1999/xlink">
    <title>9.Phones/voice_mail</title>
    <g id="9.Phones/voice_mail" stroke="none" stroke-width="1" fill="none" fill-rule="evenodd">
        <path d="M16.4888618,7.06466311 C14.9226764,7.31039358 13.574533,8.34710617 12.8878395,9.83382336 C12.201146,11.3205406 12.2647928,13.0648115 13.0578463,14.4929408 C13.0974231,14.5588362 13.0996562,14.6418849 13.0636823,14.7099845 C13.0277084,14.7780841 12.9591643,14.820564 12.8845459,14.8210035 L11.111549,14.8210035 C11.0369306,14.820564 10.9683865,14.7780841 10.9324126,14.7099845 C10.8964387,14.6418849 10.8986718,14.5588362 10.9382486,14.4929408 C11.9570937,12.6545444 11.7477403,10.3459224 10.4164421,8.73877457 C9.08514382,7.13162672 6.92340847,6.57786221 5.02838609,7.35853431 C3.1333637,8.13920641 1.91999794,10.0833752 2.00411087,12.2043127 C2.17810104,14.9274355 4.3693075,17.0314008 6.98899812,16.9907306 L17.0070968,16.9907306 C19.6283866,17.033735 21.8220852,14.9291354 21.9961499,12.2043127 C22.0534043,10.7155374 21.4697069,9.27784859 20.4043597,8.28361858 C19.3390126,7.28938857 17.9032291,6.84240684 16.4888618,7.06466311 Z M4.08288301,12.0003583 C4.08288301,10.442559 5.29521506,9.17971308 6.79070242,9.17971308 C8.28618979,9.17971308 9.49852184,10.442559 9.49852184,12.0003583 C9.49852184,13.5581577 8.28618979,14.8210035 6.79070242,14.8210035 C5.29597633,14.8190907 4.08471928,13.5573647 4.08288301,12.0003583 Z M17.2053925,14.8210035 C15.7099051,14.8210035 14.4975731,13.5581577 14.4975731,12.0003583 C14.4975731,10.442559 15.7099051,9.17971308 17.2053925,9.17971308 C18.7008799,9.17971308 19.9132119,10.442559 19.9132119,12.0003583 C19.9113756,13.5573647 18.7001186,14.8190907 17.2053925,14.8210035 L17.2053925,14.8210035 Z" id="ðŸ–-Color" fill="#5A5A5A"></path>
        <rect id="_Transparent_Rectangle_" x="0" y="0" width="24" height="24"></rect>
    </g>
</svg>