<?xml version="1.0" encoding="UTF-8"?>
<svg width="24px" height="24px" viewBox="0 0 24 24" version="1.1" xmlns="http://www.w3.org/2000/svg" xmlns:xlink="http://www.w3.org/1999/xlink">
    <title>18. Arrows Diagrams/arrow_thick_circle_1</title>
    <g id="18.-Arrows-Diagrams/arrow_thick_circle_1" stroke="none" stroke-width="1" fill="none" fill-rule="evenodd">
        <path d="M19.0743226,5.1996272 C16.2138052,2.44911409 11.9118074,1.62629674 8.1743485,3.11485442 C4.43688958,4.60341209 2,8.11019806 2,12 C2,15.8898019 4.43688958,19.3965879 8.1743485,20.8851456 C11.9118074,22.3737033 16.2138052,21.5508859 19.0743226,18.8003728 C22.9752258,15.0426131 22.9752258,8.95738686 19.0743226,5.1996272 Z M12.5296877,14.0262139 L15.45378,14.1471699 C15.9171246,14.1715997 16.2814103,14.5372865 16.2868547,14.9834488 L16.2868547,15.3190818 C16.2866642,15.5301594 16.1983465,15.7323261 16.0417186,15.880219 C15.8850906,16.0281119 15.673268,16.109347 15.45378,16.1056965 L8.7142056,15.9839395 C8.25022365,15.97037 7.87637808,15.6137032 7.85863788,15.1676865 L7.67786066,8.74339883 C7.67154699,8.53276368 7.75429397,8.32866253 7.90720318,8.17770967 C8.06011239,8.02675681 8.27012457,7.94184441 8.48927543,7.94236546 L8.83666758,7.94236546 C9.30224233,7.94803909 9.6851594,8.29670337 9.71639447,8.74339883 L9.87801096,11.5053619 C9.9030032,11.9459302 10.1895809,12.0508656 10.513647,11.7392636 L14.3457906,8.05451014 C14.502049,7.90409446 14.7140852,7.81957774 14.935191,7.81957774 C15.1562967,7.81957774 15.3683329,7.90409446 15.5245913,8.05451014 L16.1077436,8.61523349 C16.2641759,8.76548193 16.3520733,8.96936294 16.3520733,9.1819646 C16.3520733,9.39456627 16.2641759,9.59844728 16.1077436,9.74869571 L12.2847638,13.4222347 C11.9623639,13.7362398 12.0723297,14.0069891 12.5296877,14.0262139 Z" id="ðŸ–-Color" fill="#5A5A5A"></path>
        <rect id="_Transparent_Rectangle_" x="0" y="0" width="24" height="24"></rect>
    </g>
</svg>