<svg fill="none" height="1000" viewBox="0 0 685 1000" width="685" xmlns="http://www.w3.org/2000/svg">
  <g filter="url(#filter0_d)">
    <ellipse cx="387.305" cy="510.582" fill="#FF929C" rx="247" ry="247.5"/>
  </g>
  <g filter="url(#filter1_d)">
    <ellipse cx="168.633" cy="676.096" fill="#FB5188" rx="128.5" ry="129"/>
  </g>
  <g filter="url(#filter2_d)">
    <path
      d="M515.216 536.885C521.679 539.389 525.585 545.995 524.664 552.865L487.897 827.101C486.607 836.72 476.661 842.6 467.611 839.095L348.292 792.872C340.567 789.88 336.731 781.192 339.723 773.467L436.893 522.63C439.886 514.905 448.574 511.069 456.299 514.062L515.216 536.885Z"
      fill="#F90068"/>
  </g>
  <path clip-rule="evenodd"
        d="M513.5 434.027C513.5 439.55 517.977 444.027 523.5 444.027H653.5C659.023 444.027 663.5 439.55 663.5 434.027V202.027C663.5 196.504 659.023 192.027 653.5 192.027H523.5C517.977 192.027 513.5 196.504 513.5 202.027V434.027Z"
        fill="#9774FF" fill-rule="evenodd"/>
  <path clip-rule="evenodd"
        d="M524.5 290.027C524.5 292.789 526.739 295.027 529.5 295.027H649.5C652.261 295.027 654.5 292.789 654.5 290.027V212.027C654.5 209.266 652.261 207.027 649.5 207.027H529.5C526.739 207.027 524.5 209.266 524.5 212.027V290.027Z"
        fill="#603FBF" fill-rule="evenodd"/>
  <path clip-rule="evenodd"
        d="M582.5 419.027C582.5 421.789 584.739 424.027 587.5 424.027H646.5C649.261 424.027 651.5 421.789 651.5 419.027V382.027C651.5 379.266 649.261 377.027 646.5 377.027H587.5C584.739 377.027 582.5 379.266 582.5 382.027V419.027Z"
        fill="#603FBF" fill-rule="evenodd"/>
  <path clip-rule="evenodd"
        d="M529.5 253.285C529.5 253.285 551.801 250.542 565.428 262.942C579.056 275.343 604.443 264.042 614.663 262.942C632.437 261.032 646.367 266.774 650.5 273.088V292.027H529.5V253.285Z"
        fill="#FF7380" fill-rule="evenodd"/>
  <path clip-rule="evenodd" d="M546.5 251.027H547.5V221.027H546.5V251.027Z" fill="#A687FF" fill-rule="evenodd"/>
  <path clip-rule="evenodd" d="M582.5 265.027H583.5V235.027H582.5V265.027Z" fill="#A687FF" fill-rule="evenodd"/>
  <path clip-rule="evenodd" d="M620.5 256.027H621.5V226.027H620.5V256.027Z" fill="#A687FF" fill-rule="evenodd"/>
  <path clip-rule="evenodd"
        d="M557.785 226.027H551.215C550.822 226.027 550.5 225.577 550.5 225.028C550.5 224.478 550.822 224.027 551.215 224.027H557.785C558.178 224.027 558.5 224.478 558.5 225.028C558.5 225.577 558.178 226.027 557.785 226.027Z"
        fill="#A687FF" fill-rule="evenodd"/>
  <path clip-rule="evenodd"
        d="M557.785 229.027H551.215C550.822 229.027 550.5 228.577 550.5 228.027C550.5 227.477 550.822 227.027 551.215 227.027H557.785C558.178 227.027 558.5 227.477 558.5 228.027C558.5 228.577 558.178 229.027 557.785 229.027Z"
        fill="#A687FF" fill-rule="evenodd"/>
  <path clip-rule="evenodd"
        d="M593.787 241.027H587.215C586.822 241.027 586.5 240.579 586.5 240.028C586.5 239.478 586.822 239.027 587.215 239.027H593.787C594.179 239.027 594.5 239.478 594.5 240.028C594.5 240.579 594.179 241.027 593.787 241.027Z"
        fill="#A687FF" fill-rule="evenodd"/>
  <path clip-rule="evenodd"
        d="M593.787 244.027H587.215C586.822 244.027 586.5 243.577 586.5 243.027C586.5 242.477 586.822 242.027 587.215 242.027H593.787C594.179 242.027 594.5 242.477 594.5 243.027C594.5 243.577 594.179 244.027 593.787 244.027Z"
        fill="#A687FF" fill-rule="evenodd"/>
  <path clip-rule="evenodd"
        d="M631.785 229.027H625.215C624.822 229.027 624.5 228.577 624.5 228.027C624.5 227.477 624.822 227.027 625.215 227.027H631.785C632.178 227.027 632.5 227.477 632.5 228.027C632.5 228.577 632.178 229.027 631.785 229.027Z"
        fill="#A687FF" fill-rule="evenodd"/>
  <path clip-rule="evenodd"
        d="M631.785 233.027H625.215C624.822 233.027 624.5 232.577 624.5 232.027C624.5 231.477 624.822 231.027 625.215 231.027H631.785C632.178 231.027 632.5 231.477 632.5 232.027C632.5 232.577 632.178 233.027 631.785 233.027Z"
        fill="#A687FF" fill-rule="evenodd"/>
  <path clip-rule="evenodd"
        d="M629.5 316.527C629.5 309.623 635.096 304.027 641.999 304.027C648.902 304.027 654.5 309.623 654.5 316.527C654.5 323.431 648.902 329.027 641.999 329.027C635.096 329.027 629.5 323.431 629.5 316.527Z"
        fill="#FF7380" fill-rule="evenodd"/>
  <path clip-rule="evenodd"
        d="M596.5 316.527C596.5 309.623 602.096 304.027 609 304.027C615.904 304.027 621.5 309.623 621.5 316.527C621.5 323.431 615.904 329.027 609 329.027C602.096 329.027 596.5 323.431 596.5 316.527Z"
        fill="#FF7380" fill-rule="evenodd"/>
  <path clip-rule="evenodd"
        d="M629.5 352.526C629.5 345.623 635.096 340.027 641.999 340.027C648.902 340.027 654.5 345.623 654.5 352.526C654.5 359.429 648.902 365.027 641.999 365.027C635.096 365.027 629.5 359.429 629.5 352.526Z"
        fill="#FF7380" fill-rule="evenodd"/>
  <path clip-rule="evenodd"
        d="M596.5 352.526C596.5 345.623 602.096 340.027 609 340.027C615.904 340.027 621.5 345.623 621.5 352.526C621.5 359.429 615.904 365.027 609 365.027C602.096 365.027 596.5 359.429 596.5 352.526Z"
        fill="#FF7380" fill-rule="evenodd"/>
  <path clip-rule="evenodd" d="M649.5 420.027H585.5V382.027H586.296V419.227H649.5V420.027Z" fill="#A687FF"
        fill-rule="evenodd"/>
  <path clip-rule="evenodd"
        d="M604.785 406.581C596.893 400.472 588.5 406.581 588.5 406.581V417.027H647.5V390.027C631.467 390.42 612.677 412.69 604.785 406.581Z"
        fill="#FF7380" fill-rule="evenodd"/>
  <path clip-rule="evenodd"
        d="M590.155 386.027H616.845C617.206 386.027 617.5 385.576 617.5 385.026C617.5 384.478 617.206 384.027 616.845 384.027H590.155C589.796 384.027 589.5 384.478 589.5 385.026C589.5 385.576 589.796 386.027 590.155 386.027Z"
        fill="#A687FF" fill-rule="evenodd"/>
  <path clip-rule="evenodd"
        d="M590.155 389.027H616.845C617.206 389.027 617.5 388.576 617.5 388.026C617.5 387.478 617.206 387.027 616.845 387.027H590.155C589.796 387.027 589.5 387.478 589.5 388.026C589.5 388.576 589.796 389.027 590.155 389.027Z"
        fill="#A687FF" fill-rule="evenodd"/>
  <path clip-rule="evenodd"
        d="M589.072 392.027H607.928C608.244 392.027 608.5 391.658 608.5 391.207V390.844C608.5 390.396 608.244 390.027 607.928 390.027H589.072C588.757 390.027 588.5 390.396 588.5 390.844V391.207C588.5 391.658 588.757 392.027 589.072 392.027Z"
        fill="#A687FF" fill-rule="evenodd"/>
  <path clip-rule="evenodd"
        d="M284.5 452.027C284.5 457.55 288.977 462.027 294.5 462.027H479.5C485.023 462.027 489.5 457.55 489.5 452.027V164.027C489.5 158.504 485.023 154.027 479.5 154.027H294.5C288.977 154.027 284.5 158.504 284.5 164.027V452.027Z"
        fill="#9774FF" fill-rule="evenodd"/>
  <path clip-rule="evenodd"
        d="M304.5 351.027C304.5 353.789 306.739 356.027 309.5 356.027H464.5C467.261 356.027 469.5 353.789 469.5 351.027V177.027C469.5 174.266 467.261 172.027 464.5 172.027H309.5C306.739 172.027 304.5 174.266 304.5 177.027V351.027Z"
        fill="#603FBF" fill-rule="evenodd"/>
  <path clip-rule="evenodd"
        d="M308.5 414.028C308.5 397.458 321.931 384.027 338.5 384.027C355.067 384.027 368.5 397.458 368.5 414.028C368.5 430.596 355.067 444.027 338.5 444.027C321.931 444.027 308.5 430.596 308.5 414.028Z"
        fill="#603FBF" fill-rule="evenodd"/>
  <path clip-rule="evenodd"
        d="M409.5 414.028C409.5 397.458 422.931 384.027 439.501 384.027C456.069 384.027 469.5 397.458 469.5 414.028C469.5 430.596 456.069 444.027 439.501 444.027C422.931 444.027 409.5 430.596 409.5 414.028Z"
        fill="#603FBF" fill-rule="evenodd"/>
  <path clip-rule="evenodd"
        d="M333.749 400.027H323.249C322.836 400.027 322.5 400.478 322.5 401.028C322.5 401.579 322.836 402.027 323.249 402.027H333.749C334.162 402.027 334.5 401.579 334.5 401.028C334.5 400.478 334.162 400.027 333.749 400.027Z"
        fill="#EE538B" fill-rule="evenodd"/>
  <path clip-rule="evenodd"
        d="M333.749 404.027H323.249C322.836 404.027 322.5 404.476 322.5 405.026C322.5 405.576 322.836 406.027 323.249 406.027H333.749C334.162 406.027 334.5 405.576 334.5 405.026C334.5 404.476 334.162 404.027 333.749 404.027Z"
        fill="#EE538B" fill-rule="evenodd"/>
  <path clip-rule="evenodd"
        d="M327.73 408.027H323.27C322.846 408.027 322.5 408.478 322.5 409.028C322.5 409.579 322.846 410.027 323.27 410.027H327.73C328.154 410.027 328.5 409.579 328.5 409.028C328.5 408.478 328.154 408.027 327.73 408.027Z"
        fill="#EE538B" fill-rule="evenodd"/>
  <path clip-rule="evenodd"
        d="M436.749 400.027H426.249C425.836 400.027 425.5 400.478 425.5 401.028C425.5 401.579 425.836 402.027 426.249 402.027H436.749C437.162 402.027 437.5 401.579 437.5 401.028C437.5 400.478 437.162 400.027 436.749 400.027Z"
        fill="#EE538B" fill-rule="evenodd"/>
  <path clip-rule="evenodd"
        d="M436.749 404.027H426.249C425.836 404.027 425.5 404.476 425.5 405.026C425.5 405.576 425.836 406.027 426.249 406.027H436.749C437.162 406.027 437.5 405.576 437.5 405.026C437.5 404.476 437.162 404.027 436.749 404.027Z"
        fill="#EE538B" fill-rule="evenodd"/>
  <path clip-rule="evenodd"
        d="M430.73 408.027H426.27C425.846 408.027 425.5 408.478 425.5 409.028C425.5 409.579 425.846 410.027 426.27 410.027H430.73C431.154 410.027 431.5 409.579 431.5 409.028C431.5 408.478 431.154 408.027 430.73 408.027Z"
        fill="#EE538B" fill-rule="evenodd"/>
  <path clip-rule="evenodd"
        d="M320.5 341.027C320.5 343.236 322.291 345.027 324.5 345.027H334.5C336.709 345.027 338.5 343.236 338.5 341.027V241.027C338.5 238.818 336.709 237.027 334.5 237.027H324.5C322.291 237.027 320.5 238.818 320.5 241.027V341.027Z"
        fill="#EE538B" fill-rule="evenodd"/>
  <path clip-rule="evenodd"
        d="M347.5 341.027C347.5 343.236 349.291 345.027 351.5 345.027H361.5C363.709 345.027 365.5 343.236 365.5 341.027V210.027C365.5 207.818 363.709 206.027 361.5 206.027H351.5C349.291 206.027 347.5 207.818 347.5 210.027V341.027Z"
        fill="#EE538B" fill-rule="evenodd"/>
  <path clip-rule="evenodd"
        d="M378.5 341.027C378.5 343.236 380.291 345.027 382.5 345.027H392.5C394.709 345.027 396.5 343.236 396.5 341.027V267.027C396.5 264.818 394.709 263.027 392.5 263.027H382.5C380.291 263.027 378.5 264.818 378.5 267.027V341.027Z"
        fill="#EE538B" fill-rule="evenodd"/>
  <path clip-rule="evenodd"
        d="M409.5 341.027C409.5 343.236 411.291 345.027 413.5 345.027H423.5C425.709 345.027 427.5 343.236 427.5 341.027V228.027C427.5 225.818 425.709 224.027 423.5 224.027H413.5C411.291 224.027 409.5 225.818 409.5 228.027V341.027Z"
        fill="#EE538B" fill-rule="evenodd"/>
  <path clip-rule="evenodd"
        d="M438.5 341.027C438.5 343.236 440.291 345.027 442.5 345.027H452.5C454.709 345.027 456.5 343.236 456.5 341.027V283.027C456.5 280.818 454.709 279.027 452.5 279.027H442.5C440.291 279.027 438.5 280.818 438.5 283.027V341.027Z"
        fill="#EE538B" fill-rule="evenodd"/>
  <path clip-rule="evenodd"
        d="M425.956 208.027H411.042C410.194 208.027 409.5 208.928 409.5 210.028C409.5 211.128 410.194 212.027 411.042 212.027H425.956C426.804 212.027 427.5 211.128 427.5 210.028C427.5 208.928 426.804 208.027 425.956 208.027Z"
        fill="#A687FF" fill-rule="evenodd"/>
  <path clip-rule="evenodd"
        d="M414.834 214.027H411.166C410.249 214.027 409.5 214.927 409.5 216.027C409.5 217.128 410.249 218.027 411.166 218.027H414.834C415.751 218.027 416.5 217.128 416.5 216.027C416.5 214.927 415.751 214.027 414.834 214.027Z"
        fill="#A687FF" fill-rule="evenodd"/>
  <path clip-rule="evenodd"
        d="M363.956 190.027H349.042C348.194 190.027 347.5 190.927 347.5 192.027C347.5 193.127 348.194 194.027 349.042 194.027H363.956C364.804 194.027 365.5 193.127 365.5 192.027C365.5 190.927 364.804 190.027 363.956 190.027Z"
        fill="#A687FF" fill-rule="evenodd"/>
  <path clip-rule="evenodd"
        d="M336.956 221.027H322.042C321.194 221.027 320.5 221.927 320.5 223.027C320.5 224.127 321.194 225.027 322.042 225.027H336.956C337.804 225.027 338.5 224.127 338.5 223.027C338.5 221.927 337.804 221.027 336.956 221.027Z"
        fill="#A687FF" fill-rule="evenodd"/>
  <path clip-rule="evenodd"
        d="M352.832 196.027H349.165C348.249 196.027 347.5 196.927 347.5 198.027C347.5 199.127 348.249 200.027 349.165 200.027H352.832C353.749 200.027 354.5 199.127 354.5 198.027C354.5 196.927 353.749 196.027 352.832 196.027Z"
        fill="#A687FF" fill-rule="evenodd"/>
  <path clip-rule="evenodd"
        d="M325.832 227.027H322.165C321.249 227.027 320.5 227.927 320.5 229.027C320.5 230.127 321.249 231.027 322.165 231.027H325.832C326.749 231.027 327.5 230.127 327.5 229.027C327.5 227.927 326.749 227.027 325.832 227.027Z"
        fill="#A687FF" fill-rule="evenodd"/>
  <path clip-rule="evenodd"
        d="M394.958 247.027H380.044C379.196 247.027 378.5 247.929 378.5 249.028C378.5 250.128 379.196 251.027 380.044 251.027H394.958C395.806 251.027 396.5 250.128 396.5 249.028C396.5 247.929 395.806 247.027 394.958 247.027Z"
        fill="#A687FF" fill-rule="evenodd"/>
  <path clip-rule="evenodd"
        d="M383.835 253.027H380.168C379.251 253.027 378.5 253.927 378.5 255.027C378.5 256.128 379.251 257.027 380.168 257.027H383.835C384.751 257.027 385.5 256.128 385.5 255.027C385.5 253.927 384.751 253.027 383.835 253.027Z"
        fill="#A687FF" fill-rule="evenodd"/>
  <path clip-rule="evenodd"
        d="M454.956 263.027H440.042C439.194 263.027 438.5 263.929 438.5 265.028C438.5 266.128 439.194 267.027 440.042 267.027H454.956C455.804 267.027 456.5 266.128 456.5 265.028C456.5 263.929 455.804 263.027 454.956 263.027Z"
        fill="#A687FF" fill-rule="evenodd"/>
  <path clip-rule="evenodd"
        d="M443.832 269.027H440.165C439.249 269.027 438.5 269.927 438.5 271.027C438.5 272.128 439.249 273.027 440.165 273.027H443.832C444.749 273.027 445.5 272.128 445.5 271.027C445.5 269.927 444.749 269.027 443.832 269.027Z"
        fill="#A687FF" fill-rule="evenodd"/>
  <path clip-rule="evenodd"
        d="M112.5 345.027C112.5 350.55 116.977 355.027 122.5 355.027H252.5C258.023 355.027 262.5 350.55 262.5 345.027V281.027C262.5 275.504 258.023 271.027 252.5 271.027H122.5C116.977 271.027 112.5 275.504 112.5 281.027V345.027Z"
        fill="#9774FF" fill-rule="evenodd"/>
  <path clip-rule="evenodd"
        d="M154 285.027C139.365 285.027 127.5 297.116 127.5 312.027C127.5 326.939 139.365 339.027 154 339.027C168.635 339.027 180.5 326.939 180.5 312.027C180.5 297.116 168.635 285.027 154 285.027Z"
        fill="#603FBF" fill-rule="evenodd"/>
  <path clip-rule="evenodd"
        d="M246.473 296.027H200.527C198.862 296.027 197.5 297.377 197.5 299.028C197.5 300.678 198.862 302.027 200.527 302.027H246.473C248.138 302.027 249.5 300.678 249.5 299.028C249.5 297.377 248.138 296.027 246.473 296.027Z"
        fill="#603FBF" fill-rule="evenodd"/>
  <path clip-rule="evenodd"
        d="M246.473 308.027H200.527C198.862 308.027 197.5 309.377 197.5 311.026C197.5 312.676 198.862 314.027 200.527 314.027H246.473C248.138 314.027 249.5 312.676 249.5 311.026C249.5 309.377 248.138 308.027 246.473 308.027Z"
        fill="#603FBF" fill-rule="evenodd"/>
  <path clip-rule="evenodd"
        d="M246.473 321.027H200.527C198.862 321.027 197.5 322.379 197.5 324.028C197.5 325.678 198.862 327.027 200.527 327.027H246.473C248.138 327.027 249.5 325.678 249.5 324.028C249.5 322.379 248.138 321.027 246.473 321.027Z"
        fill="#603FBF" fill-rule="evenodd"/>
  <path clip-rule="evenodd"
        d="M100.5 447.027C100.5 452.55 104.977 457.027 110.5 457.027H240.5C246.023 457.027 250.5 452.55 250.5 447.027V381.027C250.5 375.504 246.023 371.027 240.5 371.027H110.5C104.977 371.027 100.5 375.504 100.5 381.027V447.027Z"
        fill="#9774FF" fill-rule="evenodd"/>
  <path clip-rule="evenodd"
        d="M116.5 411.027C116.5 396.116 128.587 384.027 143.499 384.027C158.411 384.027 170.5 396.116 170.5 411.027C170.5 425.939 158.411 438.027 143.499 438.027C128.587 438.027 116.5 425.939 116.5 411.027Z"
        fill="#603FBF" fill-rule="evenodd"/>
  <path clip-rule="evenodd"
        d="M188.529 402.027H234.474C236.138 402.027 237.5 400.676 237.5 399.026C237.5 397.377 236.138 396.027 234.474 396.027H188.529C186.864 396.027 185.5 397.377 185.5 399.026C185.5 400.676 186.864 402.027 188.529 402.027Z"
        fill="#603FBF" fill-rule="evenodd"/>
  <path clip-rule="evenodd"
        d="M234.474 409.027H188.529C186.864 409.027 185.5 410.379 185.5 412.028C185.5 413.678 186.864 415.027 188.529 415.027H234.474C236.138 415.027 237.5 413.678 237.5 412.028C237.5 410.379 236.138 409.027 234.474 409.027Z"
        fill="#603FBF" fill-rule="evenodd"/>
  <path clip-rule="evenodd"
        d="M234.474 420.027H188.529C186.864 420.027 185.5 421.377 185.5 423.026C185.5 424.676 186.864 426.027 188.529 426.027H234.474C236.138 426.027 237.5 424.676 237.5 423.026C237.5 421.377 236.138 420.027 234.474 420.027Z"
        fill="#603FBF" fill-rule="evenodd"/>
  <path clip-rule="evenodd"
        d="M100.5 247.027C100.5 252.55 104.977 257.027 110.5 257.027H240.5C246.023 257.027 250.5 252.55 250.5 247.027V189.027C250.5 183.504 246.023 179.027 240.5 179.027H110.5C104.977 179.027 100.5 183.504 100.5 189.027V247.027Z"
        fill="#9774FF" fill-rule="evenodd"/>
  <path clip-rule="evenodd"
        d="M116.5 220.027C116.5 205.115 128.589 193.027 143.501 193.027C158.413 193.027 170.5 205.115 170.5 220.027C170.5 234.939 158.413 247.027 143.501 247.027C128.589 247.027 116.5 234.939 116.5 220.027Z"
        fill="#603FBF" fill-rule="evenodd"/>
  <path clip-rule="evenodd"
        d="M234.474 204.027H188.529C186.864 204.027 185.5 205.377 185.5 207.027C185.5 208.677 186.864 210.027 188.529 210.027H234.474C236.138 210.027 237.5 208.677 237.5 207.027C237.5 205.377 236.138 204.027 234.474 204.027Z"
        fill="#603FBF" fill-rule="evenodd"/>
  <path clip-rule="evenodd"
        d="M234.474 217.027H188.529C186.864 217.027 185.5 218.377 185.5 220.027C185.5 221.677 186.864 223.027 188.529 223.027H234.474C236.138 223.027 237.5 221.677 237.5 220.027C237.5 218.377 236.138 217.027 234.474 217.027Z"
        fill="#603FBF" fill-rule="evenodd"/>
  <path clip-rule="evenodd"
        d="M234.474 229.027H188.529C186.864 229.027 185.5 230.377 185.5 232.026C185.5 233.678 186.864 235.027 188.529 235.027H234.474C236.138 235.027 237.5 233.678 237.5 232.026C237.5 230.377 236.138 229.027 234.474 229.027Z"
        fill="#603FBF" fill-rule="evenodd"/>
  <path clip-rule="evenodd"
        d="M286.5 315.027C286.5 315.027 304.576 333.373 305.444 340.289C306.31 347.207 296.842 358.027 296.842 358.027L286.5 315.027Z"
        fill="#EE538B" fill-rule="evenodd"/>
  <path clip-rule="evenodd"
        d="M278.5 500.393C278.5 500.393 277.92 510.858 276.11 511.006C275.868 511.027 266.921 511.027 266.921 511.027L255.5 510.954C255.5 510.954 255.574 507.878 258.912 507.228C262.251 506.577 267.839 503.954 269.862 499.024C271.989 493.837 278.5 500.393 278.5 500.393Z"
        fill="#163560" fill-rule="evenodd"/>
  <path clip-rule="evenodd"
        d="M303.5 500.393C303.5 500.393 302.921 510.858 301.113 511.006C300.872 511.027 291.939 511.027 291.939 511.027L280.5 510.981C280.5 510.981 280.608 507.878 283.942 507.228C287.276 506.577 292.855 503.954 294.876 499.024C296.998 493.837 303.5 500.393 303.5 500.393Z"
        fill="#163560" fill-rule="evenodd"/>
  <path clip-rule="evenodd"
        d="M265.5 398.665C265.5 398.665 268.583 418.203 280.088 452.883C291.591 487.561 293.16 502.579 293.16 502.579C293.16 502.579 296.27 503.027 299.558 503.027C301.637 503.027 305.5 502.237 305.5 502.237C305.5 502.237 305.606 464.336 300.302 446.897C295.001 429.458 299.158 384.027 299.158 384.027L265.5 398.665Z"
        fill="#4D3299" fill-rule="evenodd"/>
  <path clip-rule="evenodd"
        d="M259.509 385.027C259.509 385.027 259.081 414.497 264.114 450.68C269.147 486.862 267.442 502.222 267.442 502.222C267.442 502.222 271.585 502.973 273.04 503.023C274.599 503.075 279.495 502.627 279.495 502.627C279.495 502.627 286.7 466.431 284.634 448.321C282.569 430.211 294.5 386.176 294.5 386.176L259.509 385.027Z"
        fill="#603FBF" fill-rule="evenodd"/>
  <path clip-rule="evenodd"
        d="M283.5 316.497L277.366 321.027L268.5 319.166C268.623 318.36 269.208 315.019 269.742 311.993C269.773 311.815 269.804 311.637 269.835 311.461C270.291 308.888 270.686 306.675 270.686 306.675L278.967 302.561L282.055 301.027C282.046 301.081 281.814 303.886 281.783 304.293C281.204 311.559 283.5 316.497 283.5 316.497Z"
        fill="#FFA6D5" fill-rule="evenodd"/>
  <path clip-rule="evenodd"
        d="M269.424 314.071C269.614 313.994 281.23 310.657 282.491 311.061C283.752 311.468 284.5 313.845 284.5 313.845L265.5 318.027C265.5 318.027 266.995 315.067 269.424 314.071Z"
        fill="#DE4A7F" fill-rule="evenodd"/>
  <path clip-rule="evenodd"
        d="M300.03 388.927C298.128 397.522 266.484 398.54 258.326 390.738C257.398 389.849 257.351 385.712 257.702 380.133C258.385 369.235 260.585 352.84 260.67 344.462C260.712 340.417 261.273 336.28 262.021 332.523C263.61 324.516 266.034 318.232 266.034 318.232C266.034 318.232 281.491 313.281 284.383 314.124C298.316 318.18 301.933 380.332 300.03 388.927Z"
        fill="#EE538B" fill-rule="evenodd"/>
  <path clip-rule="evenodd"
        d="M258.5 380.027C259.166 368.96 261.306 352.31 261.389 343.803C261.43 339.694 261.976 335.493 262.703 331.678L271.751 330.027C271.751 330.027 280.597 367.39 258.5 380.027Z"
        fill="#DE4A7F" fill-rule="evenodd"/>
  <path clip-rule="evenodd"
        d="M262.984 364.508C262.984 364.508 263.579 366.061 262.33 367.104C261.08 368.147 260.272 369.834 260.557 371.069C260.843 372.303 263.582 374.317 264.533 373.992C265.482 373.668 267.416 372.041 267.208 371.39C267 370.741 268.507 365.678 266.192 363.729C263.878 361.78 262.984 364.508 262.984 364.508Z"
        fill="#FFA6D5" fill-rule="evenodd"/>
  <path clip-rule="evenodd"
        d="M273.433 316.027C273.433 316.027 264.444 317.76 257.279 328.635C250.115 339.51 245.401 347.595 246.722 351.514C248.042 355.434 260.071 369.027 262.145 369.027C264.218 369.027 267.564 367.473 267.753 363.978C267.753 363.978 259.284 350.902 260.952 348.944C261.666 348.108 271.947 339.51 273.417 343.393C275.844 349.82 273.433 316.027 273.433 316.027Z"
        fill="#EE538B" fill-rule="evenodd"/>
  <path clip-rule="evenodd"
        d="M268.981 307.125C268.981 307.125 280.825 310.744 283.013 303.483C285.202 296.222 288.203 291.8 280.733 289.181C273.262 286.564 270.951 288.909 269.62 291.158C268.288 293.407 265.956 305.997 268.981 307.125Z"
        fill="#FFA6D5" fill-rule="evenodd"/>
  <path clip-rule="evenodd"
        d="M269.581 290.326C269.581 290.326 270.314 298.648 272.045 298.288C273.777 297.926 275.348 297.657 275.094 300.166C274.841 302.675 272.438 305.573 277.776 306.017C283.111 306.46 290.783 292.781 289.317 290.191C285.088 282.718 263.467 281.21 269.581 290.326Z"
        fill="#4D3299" fill-rule="evenodd"/>
  <path clip-rule="evenodd" d="M62.5 485.027L65.6336 500.027L70.3275 499.997L70.5 485.027H62.5Z" fill="#FFA6D5"
        fill-rule="evenodd"/>
  <path clip-rule="evenodd" d="M106.5 486.96L116.574 501.027L120.5 496.059L114.436 485.027L106.5 486.96Z" fill="#FFA6D5"
        fill-rule="evenodd"/>
  <path clip-rule="evenodd"
        d="M80.8454 290.671C79.0447 289.641 76.8878 289.53 75.3768 289.62C75.7665 289.215 76.5314 289.068 76.5314 289.068C75.5936 288.928 73.5054 289.863 73.5054 289.863C60.4842 284.812 58.4377 304.11 58.7107 308.593C58.9816 313.075 54.3363 314.54 47.5611 318.072C34.6358 324.812 33.5 333.838 33.5 333.838C33.6 333.896 33.7042 333.966 33.8168 334.043C34.4587 332.948 35.7779 330.895 36.8928 330.586C36.8491 330.685 35.5757 333.412 35.1005 334.977C38.9144 337.896 46.048 344.366 51.0206 348.951C50.9977 348.055 51.0331 346.782 51.3582 346.111L51.973 349.834C54.6322 352.294 56.4683 354.027 56.4683 354.027C56.139 350.405 72.7468 331.285 81.4122 325.558C83.5213 322.433 84.2715 316.912 84.3278 316.478C83.9631 320.855 83.2191 323.312 82.5543 324.694C89.8901 317.896 85.6199 293.402 80.8454 290.671Z"
        fill="#4D3299" fill-rule="evenodd"/>
  <path clip-rule="evenodd"
        d="M81.4996 326.412C81.546 326.431 77.0651 328.723 73.6972 327.814C70.5281 326.964 68.4565 322.918 68.5007 322.909C69.8412 322.646 70.2299 320.83 70.2012 313.027L70.8063 313.147L81.0094 315.134C81.0094 315.134 80.7775 318.295 80.7709 321.274C80.7642 323.774 80.9166 326.144 81.4996 326.412Z"
        fill="#FFA6D5" fill-rule="evenodd"/>
  <path clip-rule="evenodd"
        d="M70.5 295.027C70.5 295.027 75.3772 288.505 81.5 294.694C81.5 294.694 77.9346 293.919 70.5 295.027Z"
        fill="#FF88B0" fill-rule="evenodd"/>
  <path clip-rule="evenodd"
        d="M70.2116 313.027C70.2116 313.027 67.2879 308.516 66.5861 304.66C66.083 301.907 67.5211 291.701 78.0304 293.171C78.0304 293.171 81.0836 293.464 83.9533 295.356C86.2357 296.86 89.5286 300.107 85.8449 309.011L84.8883 312.02L70.2116 313.027Z"
        fill="#163560" fill-rule="evenodd"/>
  <path clip-rule="evenodd"
        d="M118.5 490.698L113.363 490.856L107.803 491.027C107.803 491.027 94.963 476.662 87.7606 453.632C87.5907 453.097 87.4145 452.555 87.2278 452.005C83.2847 440.455 75.1133 425.957 70.8073 412.835C70.1215 410.744 69.5048 408.778 68.9532 406.915C68.777 406.318 68.6051 405.733 68.4415 405.155C65.266 394.075 64.3473 386.8 63.5 379.027L94.5981 379.276C94.5981 379.276 99.6192 432.356 118.5 490.698Z"
        fill="#CCBBFF" fill-rule="evenodd"/>
  <path clip-rule="evenodd"
        d="M92.0496 362.294C91.973 377.074 94.1922 383.416 94.1922 383.416C94.1922 383.416 81.0511 390.175 65.432 385.199C65.2478 385.14 52.5 382.197 52.5 382.197C52.7608 381.598 55.0856 371.638 55.3402 371.089C58.6379 363.922 61.1428 360.779 61.534 358.575C62.2585 354.463 62.2751 350.205 61.9128 346.191C60.9606 335.565 58.1266 326.743 58.1266 326.743C62.3807 325.765 66.4775 324.089 70.9075 322.406C71.926 323.691 74.9298 324.987 77.6313 324.927C80.7426 324.858 81.7135 323.527 81.5997 322.027C84.916 323.894 87.5513 325.668 87.5513 325.668C90.3687 330.623 96.0843 335.433 96.4983 343.032C96.5998 344.901 92.0517 361.879 92.0496 362.294Z"
        fill="#4D3299" fill-rule="evenodd"/>
  <path clip-rule="evenodd"
        d="M63.8649 363.866C62.5167 365.801 59.9328 377.55 53.5 379.027C56.8142 370.652 59.3315 366.981 59.7247 364.406C60.4529 359.601 60.4695 354.627 60.1055 349.936C62.2587 346.113 63.8649 343.494 63.8649 343.494C64.0354 342.874 67.2872 332.689 68.3295 341.793C69.3697 350.901 65.3711 361.704 63.8649 363.866Z"
        fill="#5F9AA8" fill-rule="evenodd"/>
  <path clip-rule="evenodd"
        d="M82.2897 318.027C82.2897 318.027 69.6499 318.242 69.6417 310.12C69.6334 301.998 67.9966 296.558 76.0649 296.077C84.1352 295.597 85.708 298.692 86.3486 301.404C86.9914 304.113 85.5778 317.762 82.2897 318.027Z"
        fill="#FFA6D5" fill-rule="evenodd"/>
  <path clip-rule="evenodd"
        d="M86.1032 296.849C84.148 294.26 82.6676 294.823 81.8362 295.601C79.0952 291.135 70.4347 297.593 70.4347 297.593C69.5866 303.776 65.5 307.317 65.5 307.317C65.5 307.317 67.8098 308.873 73.1383 307.378C77.3328 306.202 80.3765 299.694 81.4816 296.974C82.2364 297.704 83.8287 299.393 84.3056 301.049C84.9359 303.242 85.222 307.758 86.4287 307.604C86.4287 307.604 89.0433 300.734 86.1032 296.849Z"
        fill="#4D3299" fill-rule="evenodd"/>
  <path clip-rule="evenodd"
        d="M65.2965 499.027C65.2965 499.027 65.7437 501.938 64.5868 505.05C64.5868 505.05 63.6745 508.946 67.7661 509.019C71.8555 509.09 72.8589 508.729 72.3961 506.34C71.9333 503.95 71.0523 499.82 71.0523 499.82L65.2965 499.027Z"
        fill="#FFA6D5" fill-rule="evenodd"/>
  <path clip-rule="evenodd"
        d="M72.4972 511.019L72.4848 511.027H64.6511L64.6387 511.019C64.2104 508.976 64.9106 505.132 64.9106 505.132C69.1981 509.292 71.8814 505.027 71.8814 505.027C72.5775 506.806 72.4972 511.019 72.4972 511.019Z"
        fill="#C45446" fill-rule="evenodd"/>
  <path clip-rule="evenodd"
        d="M129.498 507.285C129.498 507.285 122.183 499.1 119.937 495.027L114.5 497.775L126.656 509.027L129.5 508.657L129.498 507.285Z"
        fill="#FFA6D5" fill-rule="evenodd"/>
  <path clip-rule="evenodd"
        d="M133.5 511.027H123.798C122.944 510.212 122.13 508.568 121.131 506.412C120.56 505.177 119.279 504.497 117.965 504.123V511.027H115.958L114.099 503.686C112.861 501.227 113.79 498.971 114.66 497.027C115.673 497.025 118.612 497.801 123.778 504.09C125.476 506.156 127.349 506.893 129.211 506.832C129.236 506.849 129.263 506.865 129.288 506.876C132.229 508.305 133.189 510.063 133.5 511.027Z"
        fill="#C45446" fill-rule="evenodd"/>
  <path clip-rule="evenodd"
        d="M134.161 331.41C134.161 331.41 125.732 336.089 122.721 337.438C121.65 337.917 119.71 338.813 117.729 339.733C116.532 340.287 115.321 340.852 114.273 341.342C112.503 342.167 110.398 341.715 109.125 340.239C104.561 334.949 92.75 323.482 80.5504 322.044L80.5084 322.027L80.5147 322.04L80.5 322.038L80.5672 322.169C81.2516 323.861 87.9382 340.448 88.146 343.945C88.3643 347.632 89.0194 404.244 89.0194 404.244C89.0194 404.244 88.5827 406.847 93.6086 405.763C98.6325 404.677 99.9446 403.593 99.9446 403.593C99.9446 403.593 95.137 368.672 96.4491 356.525C96.7052 354.143 96.4743 351.463 95.9369 348.697C103.365 353.165 112.125 355.152 112.125 355.152C112.125 355.152 115.392 353.737 120.468 350.614C122.599 349.301 125.07 347.209 127.503 344.995C130.443 342.319 135.5 335.858 135.5 335.858L134.161 331.41Z"
        fill="#F44580" fill-rule="evenodd"/>
  <path clip-rule="evenodd"
        d="M114.5 490.857L109.054 491.027C109.054 491.027 96.4772 476.72 89.4226 453.784C89.2562 453.25 89.0836 452.711 88.9008 452.163C85.0386 440.66 77.0349 426.221 72.8173 413.152C72.1455 411.07 71.5416 409.111 71.0013 407.256C70.8287 406.662 70.6602 406.078 70.5 405.503L74.9846 402.027C74.9846 402.027 88.4509 424.309 92.6192 445.276C96.241 463.49 110.745 485.406 114.5 490.857Z"
        fill="#A687FF" fill-rule="evenodd"/>
  <path clip-rule="evenodd"
        d="M73.5433 448.432C73.6184 458.688 73.1212 482.266 71.8367 492.027H67.0719C64.4379 492.027 63.1249 491.987 63.1249 491.987C59.9044 475.017 57.6134 460.974 55.9453 448.874C54.5755 438.943 53.36 430.43 52.4245 423.1C51.4829 415.726 50.8274 409.55 50.5941 404.333C50.5575 403.512 50.5311 402.712 50.5149 401.935C50.5007 401.156 50.4967 400.398 50.5027 399.662L76.5 397.027C76.1713 414.994 73.5007 442.473 73.5433 448.432Z"
        fill="#CCBBFF" fill-rule="evenodd"/>
  <path clip-rule="evenodd"
        d="M67.5 492.027C64.7825 492.027 63.428 491.987 63.428 491.987C60.1054 475.151 57.7417 461.22 56.0208 449.215C54.6076 439.363 53.3536 430.917 52.3884 423.646C51.417 416.33 50.7408 410.202 50.5 405.027L60.3399 410.818C60.3399 410.818 54.0591 413.034 56.4563 429.818C58.8534 446.599 64.1649 489.65 67.5 492.027Z"
        fill="#A687FF" fill-rule="evenodd"/>
  <path clip-rule="evenodd"
        d="M69.176 405.006C69.176 405.006 67.2549 411.82 60.6056 410.95C53.9563 410.081 44.5 406.166 44.5 406.166C44.5 406.166 47.3412 397.355 50.8745 385.778C55.1533 371.765 60.448 353.699 62.9441 342.304C63.6448 339.111 64.1219 336.446 64.3008 334.536L69.932 324.027C69.932 324.027 78.0424 342.147 78.4854 346.716C78.9284 351.283 69.176 405.006 69.176 405.006Z"
        fill="#F44580" fill-rule="evenodd"/>
  <path clip-rule="evenodd"
        d="M92.0065 350.309C88.86 350.722 87.6513 352.384 87.2637 354.627C87.0542 355.839 86.4258 357.034 85.8937 357.88C82.7576 358.047 75.2895 358.451 69.0174 358.846L68.5 367.027C73.6534 366.39 79.9861 365.09 87.2742 362.61C87.8335 362.514 88.5353 362.168 89.4109 361.454C93.9275 357.776 96.4916 351.617 96.5 350.736C96.5083 349.853 95.1551 349.899 92.0065 350.309Z"
        fill="#FFA6D5" fill-rule="evenodd"/>
  <path clip-rule="evenodd"
        d="M69.4941 354.178C69.1962 361.662 67.4255 376.19 51.6277 383.968C51.5851 383.989 51.5426 384.01 51.5 384.027C55.7756 369.844 61.0663 351.56 63.5606 340.027C66.4614 344.338 69.6558 350.056 69.4941 354.178Z"
        fill="#D32660" fill-rule="evenodd"/>
  <path clip-rule="evenodd"
        d="M69.7618 323.027C69.7618 323.027 56.4967 323.98 53.3068 331.18C50.119 338.379 49.1037 362.329 53.1627 369.381C53.1627 369.381 58.7507 370.994 68.6316 369.122C68.7528 369.099 68.8739 369.076 68.9972 369.05C68.9972 369.05 72.1495 361.227 69.3231 359.683C69.3231 359.683 60.9901 360.126 61.8591 357.333C62.7281 354.542 69.7618 323.027 69.7618 323.027Z"
        fill="#F44580" fill-rule="evenodd"/>
  <path clip-rule="evenodd"
        d="M143.144 326.114C135.443 325.215 133.5 331.581 133.5 331.581L134.938 335.954C137.31 336.253 139.388 335.69 141.302 333.2C143.216 330.712 143.744 331.667 144.961 329.815C146.611 327.303 144.028 326.366 143.144 326.114Z"
        fill="#FFA6D5" fill-rule="evenodd"/>
  <path clip-rule="evenodd"
        d="M122.557 337.305C121.472 337.804 119.507 338.737 117.5 339.694C118.574 341.641 119.918 345.179 120.275 351.027C122.433 349.66 125.227 347.383 127.613 344.993C131.441 341.16 135.5 335.659 135.5 335.659L134.143 331.027C134.143 331.027 125.606 335.9 122.557 337.305Z"
        fill="#FFA6D5" fill-rule="evenodd"/>
  <path clip-rule="evenodd"
        d="M501.925 389.027C501.925 389.027 496.861 390.324 493.64 389.357C490.421 388.389 484.88 389.977 483.987 391.146C483.095 392.318 483.422 392.781 485.015 393.186C486.608 393.59 492.25 395.987 495.957 394.599C499.663 393.211 504.5 393.162 504.5 393.162L501.925 389.027Z"
        fill="#FFA6D5" fill-rule="evenodd"/>
  <path clip-rule="evenodd"
        d="M546.5 344.779C546.5 344.779 540.759 385.974 531.251 389.664C526.559 391.486 505.827 395.613 499.696 396.027C499.696 396.027 498.191 394.797 498.557 389.789C498.557 389.789 520.278 381.739 523.365 377.359C527.958 370.845 520.514 350.741 526.277 344.621C532.04 338.502 541.745 335.87 546.5 344.779Z"
        fill="#EE538B" fill-rule="evenodd"/>
  <path clip-rule="evenodd"
        d="M545.551 501.028V492.258H559.843C560.227 492.258 560.543 491.953 560.543 491.582V490.176C560.543 489.804 560.227 489.497 559.843 489.497H545.551V439.574C545.551 438.174 544.364 437.027 542.915 437.027H540.085C538.636 437.027 537.449 438.174 537.449 439.574V489.497H523.159C522.773 489.497 522.457 489.804 522.457 490.176V491.582C522.457 491.953 522.773 492.258 523.159 492.258H537.449V501.028C527.109 501.783 518.825 505.379 516.5 510.027H566.5C564.177 505.379 555.891 501.783 545.551 501.028Z"
        fill="#2B478B" fill-rule="evenodd"/>
  <path clip-rule="evenodd"
        d="M543.292 431.049C541.645 433.899 539.74 436.568 537.777 439.095C531.709 446.906 525.103 453.346 523.953 459.434C523.726 460.647 523.361 461.952 522.888 463.33C522.406 464.724 521.812 466.19 521.127 467.705C518.551 473.409 514.702 479.798 510.858 485.608C504.211 495.648 497.961 504.027 497.961 504.027L486.5 503.529C486.959 502.359 491.957 488.493 498.646 471.55C501.36 464.672 504.248 457.356 507.035 450.3C507.405 449.357 507.775 448.421 508.144 447.49C508.996 445.33 509.834 443.204 510.651 441.135C516.93 425.225 521.932 412.556 521.932 412.556C521.932 412.556 547.026 402.863 549.633 409.145C551.782 414.324 550.032 419.397 543.292 431.049Z"
        fill="#332266" fill-rule="evenodd"/>
  <path clip-rule="evenodd"
        d="M497.5 500.393C497.5 500.393 496.92 510.855 495.108 511.006C494.868 511.027 485.92 511.027 485.92 511.027L474.5 510.952C474.5 510.952 474.576 507.878 477.914 507.228C481.253 506.577 486.84 503.954 488.861 499.024C490.989 493.837 497.5 500.393 497.5 500.393Z"
        fill="#163560" fill-rule="evenodd"/>
  <path clip-rule="evenodd"
        d="M525.839 474.027C525.839 474.027 534.261 478.957 533.444 480.558C533.335 480.771 528.68 488.365 528.68 488.365L522.679 498.027C522.679 498.027 520.152 496.659 521.348 493.551C522.543 490.441 523.264 484.588 520.205 480.779C516.986 476.775 525.839 474.027 525.839 474.027Z"
        fill="#163560" fill-rule="evenodd"/>
  <path clip-rule="evenodd"
        d="M514.002 408.027C514.002 408.027 482.24 427.882 478.696 441.222C475.15 454.565 520.944 483.027 520.944 483.027C520.944 483.027 525.966 478.581 526.853 475.32C526.853 475.32 506.152 450.433 501.664 444.854C498.906 441.427 542.436 432.994 547.756 424.692C553.073 416.39 551.168 409.404 551.168 409.404L514.002 408.027Z"
        fill="#4D3299" fill-rule="evenodd"/>
  <path clip-rule="evenodd"
        d="M574.127 433.027H508.873C507.568 433.027 506.5 434.107 506.5 435.427V448.628C506.5 449.947 507.568 451.027 508.873 451.027H574.127C575.432 451.027 576.5 449.947 576.5 448.628V435.427C576.5 434.107 575.432 433.027 574.127 433.027Z"
        fill="#F8BAD1" fill-rule="evenodd"/>
  <path clip-rule="evenodd"
        d="M529.284 339.303C526.2 341.231 524.5 343.681 524.5 343.681C532.026 345.647 544.5 338.605 544.5 338.605C544.5 338.605 539.656 335.321 537.861 328.1C537.771 327.736 537.688 327.363 537.614 326.982C537.379 325.766 537.234 324.45 537.208 323.027L528.003 331.353C528.003 331.353 528.133 333.511 528.853 337.22C528.977 337.868 529.121 338.564 529.284 339.303Z"
        fill="#FFA6D5" fill-rule="evenodd"/>
  <path clip-rule="evenodd"
        d="M553.293 374.522C552.186 389.13 554.048 411.339 552.792 415.186C551.706 418.506 538.937 416.539 534.003 415.431C532.174 415.022 529.962 414.436 527.677 413.744C521.303 411.808 514.358 409.048 513.614 406.996C513.584 406.917 513.561 406.838 513.546 406.761C513.476 406.464 513.491 406.184 513.559 405.901C513.807 404.857 514.764 403.727 514.876 401.139C515.003 398.249 514.984 394.849 515.094 391.19C515.101 390.777 515.105 390.328 515.151 389.918L515.154 389.769C515.156 389.69 515.158 389.613 515.16 389.534C515.266 385.455 515.485 381.165 515.737 376.912C515.896 374.239 516.083 371.595 516.297 369.059C516.853 362.515 517.602 356.697 518.592 353.018C520.213 347.021 523.785 343.109 527.037 340.243L529.389 338.266C532.015 338.827 535.119 338.455 537.925 337.152C540.962 335.738 542.01 334.726 542.541 335.109C549.555 340.411 554.602 356.666 553.293 374.522Z"
        fill="#DE4A7F" fill-rule="evenodd"/>
  <path clip-rule="evenodd"
        d="M528.229 413.027C522.038 411.087 515.289 408.319 514.566 406.262C514.539 406.183 514.514 406.104 514.5 406.027C514.504 405.739 514.506 405.451 514.512 405.164C514.753 404.118 515.683 402.984 515.794 400.389C515.916 397.492 515.897 394.083 516.004 390.415C516.011 390.002 516.017 389.55 516.06 389.139L516.062 388.989C516.064 388.91 516.066 388.833 516.068 388.754L539.458 378.027C539.458 378.027 540.806 397.092 528.229 413.027Z"
        fill="#EE538B" fill-rule="evenodd"/>
  <path clip-rule="evenodd"
        d="M525.445 331.927C525.445 331.927 537.913 333.346 538.668 325.504C539.425 317.662 541.544 312.562 533.616 311.326C525.687 310.089 523.849 312.93 522.967 315.486C522.083 318.041 522.222 331.357 525.445 331.927Z"
        fill="#FFA6D5" fill-rule="evenodd"/>
  <path clip-rule="evenodd"
        d="M539.316 326.027C539.316 326.027 538.52 315.642 527.092 314.566C519.267 313.829 523.629 307.101 524.465 306.027C524.465 306.027 530.46 306.847 536.607 307.863C549.507 309.992 540.582 324.41 539.316 326.027Z"
        fill="#4D3299" fill-rule="evenodd"/>
  <path clip-rule="evenodd" d="M477.5 399.672L476.449 400.027L467.5 371.383L468.551 371.027L477.5 399.672Z"
        fill="#4A75CB" fill-rule="evenodd"/>
  <path clip-rule="evenodd" d="M508.46 398.027L476.5 398.817L476.54 401.027L508.5 400.24L508.46 398.027Z" fill="#4A75CB"
        fill-rule="evenodd"/>
  <path clip-rule="evenodd"
        d="M504.481 396.027C504.481 396.027 499.587 397.876 496.278 397.268C492.969 396.658 487.634 398.85 486.875 400.114C486.118 401.376 486.495 401.805 488.122 402.03C489.752 402.257 495.629 404.024 499.161 402.234C502.695 400.443 507.5 399.86 507.5 399.86L504.481 396.027Z"
        fill="#FFA6D5" fill-rule="evenodd"/>
  <path clip-rule="evenodd"
        d="M544.5 346.75C544.5 346.75 543.285 387.692 534.183 392.343C529.691 394.639 509.409 400.95 503.323 402.027C503.323 402.027 501.684 400.988 501.5 396.048C501.5 396.048 522.338 385.789 524.945 381.167C528.821 374.287 519.167 355.431 524.259 348.812C529.35 342.192 538.767 338.555 544.5 346.75Z"
        fill="#DE4A7F" fill-rule="evenodd"/>
  <defs>
    <filter color-interpolation-filters="sRGB" filterUnits="userSpaceOnUse" height="612" id="filter0_d" width="594"
            x="90.3047" y="263.082">
      <feFlood flood-opacity="0" result="BackgroundImageFix"/>
      <feColorMatrix in="SourceAlpha" type="matrix" values="0 0 0 0 0 0 0 0 0 0 0 0 0 0 0 0 0 0 127 0"/>
      <feOffset dy="67"/>
      <feGaussianBlur stdDeviation="25"/>
      <feColorMatrix type="matrix" values="0 0 0 0 0.0660433 0 0 0 0 0 0 0 0 0 0.254167 0 0 0 0.2 0"/>
      <feBlend in2="BackgroundImageFix" mode="normal" result="effect1_dropShadow"/>
      <feBlend in="SourceGraphic" in2="effect1_dropShadow" mode="normal" result="shape"/>
    </filter>
    <filter color-interpolation-filters="sRGB" filterUnits="userSpaceOnUse" height="338" id="filter1_d" width="337"
            x="0.132812" y="511.096">
      <feFlood flood-opacity="0" result="BackgroundImageFix"/>
      <feColorMatrix in="SourceAlpha" type="matrix" values="0 0 0 0 0 0 0 0 0 0 0 0 0 0 0 0 0 0 127 0"/>
      <feOffset dy="4"/>
      <feGaussianBlur stdDeviation="20"/>
      <feColorMatrix type="matrix" values="0 0 0 0 0.87451 0 0 0 0 0.121569 0 0 0 0 0.403922 0 0 0 0.4 0"/>
      <feBlend in2="BackgroundImageFix" mode="normal" result="effect1_dropShadow"/>
      <feBlend in="SourceGraphic" in2="effect1_dropShadow" mode="normal" result="shape"/>
    </filter>
    <filter color-interpolation-filters="sRGB" filterUnits="userSpaceOnUse" height="407.072" id="filter2_d"
            width="266.092" x="298.707" y="493.045">
      <feFlood flood-opacity="0" result="BackgroundImageFix"/>
      <feColorMatrix in="SourceAlpha" type="matrix" values="0 0 0 0 0 0 0 0 0 0 0 0 0 0 0 0 0 0 127 0"/>
      <feOffset dy="20"/>
      <feGaussianBlur stdDeviation="20"/>
      <feColorMatrix type="matrix" values="0 0 0 0 0.878431 0 0 0 0 0.129412 0 0 0 0 0.407843 0 0 0 0.2 0"/>
      <feBlend in2="BackgroundImageFix" mode="normal" result="effect1_dropShadow"/>
      <feBlend in="SourceGraphic" in2="effect1_dropShadow" mode="normal" result="shape"/>
    </filter>
  </defs>
</svg>
