<svg height="18" viewBox="0 0 18 18" width="18" xmlns="http://www.w3.org/2000/svg">
  <path
    d="M17.7108 11.0074C17.3522 12.5621 16.5839 13.9925 15.4858 15.15C14.3876 16.3075 12.9997 17.15 11.466 17.5899C9.93228 18.0298 8.30878 18.0512 6.76403 17.6518C5.21929 17.2524 3.80962 16.4467 2.68139 15.3185C1.55316 14.1903 0.74751 12.7806 0.348081 11.2359C-0.0513481 9.69115 -0.0299909 8.06765 0.409935 6.53395C0.849861 5.00025 1.69232 3.61227 2.84983 2.51412C4.00735 1.41597 5.43772 0.647685 6.99244 0.289041C7.10594 0.26298 7.22421 0.266181 7.33614 0.298343C7.44807 0.330505 7.54999 0.390574 7.63235 0.472915C7.71471 0.555255 7.7748 0.657168 7.80698 0.769091C7.83917 0.881014 7.84239 0.99928 7.81635 1.11279C7.5297 2.36252 7.56518 3.66459 7.91947 4.89686C8.27376 6.12913 8.93525 7.25122 9.84189 8.15786C10.7485 9.06451 11.8706 9.72601 13.1029 10.0803C14.3352 10.4346 15.6372 10.4701 16.887 10.1834C17.0005 10.1574 17.1187 10.1606 17.2307 10.1928C17.3426 10.225 17.4445 10.2851 17.5269 10.3674C17.6092 10.4498 17.6693 10.5517 17.7015 10.6636C17.7337 10.7756 17.7369 10.8938 17.7108 11.0074Z"
  />
</svg>
