<svg fill="none" height="298" viewBox="0 0 562 298" width="562" xmlns="http://www.w3.org/2000/svg">
  <path clip-rule="evenodd"
        d="M504.854 2.13369C499.221 -0.750344 494.711 1.06217 494.711 1.06217C477.481 -0.935593 472.453 18.9027 472.685 25.7287C472.918 32.5537 473.71 39.8858 466.014 48.7537C443.784 74.367 490.338 75.5 490.338 75.5C490.732 55.0323 515.581 62.5013 514.493 64.5728C546.352 72.1217 517.662 8.6928 504.854 2.13369Z"
        fill="#332266" fill-rule="evenodd"/>
  <path clip-rule="evenodd"
        d="M439 86.6494C439 86.6494 436.007 83.1562 433.594 83.0868C431.185 83.0202 426.717 82.0602 427.076 82.7455C427.43 83.4308 430.201 83.5001 430.469 83.9108C430.736 84.3215 426.359 84.9374 425.108 85.0068C423.86 85.0734 420.912 85.0068 421.002 85.4868C421.089 85.9641 426.314 87.9533 429.999 87.6787C433.684 87.404 438.239 88.5 438.239 88.5L439 86.6494Z"
        fill="#FFB27D" fill-rule="evenodd"/>
  <path clip-rule="evenodd"
        d="M482 88.5043C482 88.5043 480.376 91.7828 477.434 95.5459C473.885 100.076 468.413 105.311 461.544 106.343C458.262 106.839 455.052 106.117 452.103 104.78C452.096 104.78 452.093 104.78 452.093 104.78C443.749 101.003 437.476 92.3204 437.476 92.3204C436.005 88.232 438.413 85.4593 438.413 85.4593C438.413 85.4593 455.261 89.3248 456.864 88.5043C458.47 87.6874 467.827 60.2038 470.055 56.7484C472.285 53.2931 479.88 51.5 479.88 51.5L482 88.5043Z"
        fill="#F44580" fill-rule="evenodd"/>
  <path clip-rule="evenodd"
        d="M477.468 95.5754C473.9 100.094 468.399 105.314 461.492 106.344C458.192 106.838 454.965 106.118 452 104.785C452.328 104.831 460.707 105.875 464.045 99.8362C467.453 93.6742 471.137 83.8864 476.195 87.149C478.379 88.5563 478.281 92.0553 477.468 95.5754Z"
        fill="#D32660" fill-rule="evenodd"/>
  <path clip-rule="evenodd"
        d="M522.869 130.121C516.893 116.727 513.233 112.881 513.931 108.725C514.451 105.63 512.351 51.0335 512.351 51.0335C511.642 50.8139 510.219 50.6186 509.441 50.4443C506.992 49.9004 504.962 48.1813 504.117 45.8179C503.102 42.9713 502.293 38.7675 502.31 33.5L501.546 33.6506L488.673 36.1977C488.673 36.1977 488.966 40.2464 488.973 44.0598C488.973 44.0915 488.973 44.1232 488.973 44.1549C488.991 47.467 486.817 50.3885 483.632 51.3089C482.007 51.7796 480.59 52.177 480.59 52.177C480.59 52.177 475.863 65.6656 474.963 79.5169C474.059 93.3716 483.555 99.3925 474.89 127.077C466.043 155.352 526.169 137.519 522.869 130.121Z"
        fill="#FFA6D5" fill-rule="evenodd"/>
  <path clip-rule="evenodd"
        d="M486.693 40.4993C486.693 40.4993 503.798 40.7828 503.809 30.0775C503.819 19.3721 506.035 12.1988 495.116 11.5656C484.197 10.9316 482.073 15.0143 481.204 18.5865C480.336 22.1587 482.248 40.1499 486.693 40.4993Z"
        fill="#FFA6D5" fill-rule="evenodd"/>
  <path clip-rule="evenodd"
        d="M488 10.7513C488 10.7513 492.647 23.7453 499.775 25.6664C506.905 27.5878 510 25.586 510 25.586C510 25.586 504.53 21.0333 503.394 13.0862C503.394 13.0862 491.505 4.56652 488 10.7513Z"
        fill="#332266" fill-rule="evenodd"/>
  <path clip-rule="evenodd"
        d="M488 11.5837C488 11.5837 484.792 12.911 483.472 15.5004C482.179 18.0325 481.079 21.3858 481.335 25.5C481.335 25.5 478.078 16.8144 481.739 11.9009C485.623 6.69058 488 11.5837 488 11.5837Z"
        fill="#163560" fill-rule="evenodd"/>
  <path clip-rule="evenodd"
        d="M524.803 75.5514C524.803 75.5514 525.246 81.6232 524.803 88.9067C524.51 93.7357 519.473 100.207 518.761 101.807C516.969 105.82 514.948 106.473 514.948 106.473L499.312 110.191L493.814 111.5L476.476 106.473C476.476 106.473 468.581 85.0844 471.75 73.0414C474.923 61.0018 479.767 52.6387 479.767 52.6387C479.767 52.6387 493.914 66.0843 512.333 51.5L524.803 75.5514Z"
        fill="#F44580" fill-rule="evenodd"/>
  <path clip-rule="evenodd"
        d="M521 91.3448C520.7 96.1344 520.237 100.597 519.518 102.184C517.707 106.165 515.665 106.812 515.665 106.812L499.864 110.5L493 108.579C493 108.579 515.91 105.273 513.369 86.5L521 91.3448Z"
        fill="#F2CCAA" fill-rule="evenodd"/>
  <path clip-rule="evenodd"
        d="M478.932 109.5C478.932 109.5 470.554 135.698 470.013 144.616C469.475 153.537 486.028 271.322 486.695 275.431C487.323 279.306 492.113 281.775 492.113 281.775C492.113 281.775 494.315 283.079 497.457 282.189C501.82 280.951 503.196 279.471 503.196 279.471C503.196 279.471 509.72 195.466 505.681 165.459C501.646 135.449 501.6 109.5 501.6 109.5H478.932Z"
        fill="#4D3299" fill-rule="evenodd"/>
  <path clip-rule="evenodd"
        d="M514.266 109.5C514.266 109.5 527.253 126.664 528.466 138.265C529.676 149.869 530.364 190.626 532.943 201.937C535.525 213.247 545 235.016 545 270.298C545 270.298 544.014 272.321 540.974 273.397C540.002 273.743 538.696 274.075 537.434 274.362C534.926 274.928 532.35 273.719 531.204 271.451C524.798 258.742 504.39 217.758 503.344 209.25C502.602 203.229 496.157 163.385 482.102 140.001C478.729 134.389 484.174 112.068 484.174 112.068L514.266 109.5Z"
        fill="#603FBF" fill-rule="evenodd"/>
  <path clip-rule="evenodd"
        d="M477.461 106.5C477.461 106.5 480.729 109.22 487.219 109.36C494.97 109.524 514.178 107.278 514.178 107.278C514.178 107.278 515.033 109.788 514.999 112.44C514.999 112.44 491.539 118.67 477.945 113.351C477.945 113.351 476.192 109.877 477.461 106.5Z"
        fill="#233862" fill-rule="evenodd"/>
  <path clip-rule="evenodd" d="M540 110.729L515.819 132.5L487 98.2743L511.181 76.5L540 110.729Z" fill="#FF5C98"
        fill-rule="evenodd"/>
  <path clip-rule="evenodd"
        d="M510.244 110.5C510.244 110.5 500.972 111.669 501 114.037C501.032 116.409 503.313 121.28 504.455 121.495C505.601 121.71 512 114.91 512 114.91L510.244 110.5Z"
        fill="#FFB27D" fill-rule="evenodd"/>
  <path clip-rule="evenodd"
        d="M513.388 51.5C513.388 51.5 525.263 52.359 529.814 63.7803C534.364 75.2051 543 94.382 543 97.6094C543 100.837 538.179 110.781 512.272 116.5C512.272 116.5 509.591 113.591 509.752 111.29C509.752 111.29 525.924 96.9484 525.883 95.2728C525.801 92.102 523.229 87.9167 509.033 73.2539C505.17 69.2665 513.388 51.5 513.388 51.5Z"
        fill="#F44580" fill-rule="evenodd"/>
  <path clip-rule="evenodd"
        d="M261.281 294.5H261.172C260.514 294.5 259.985 293.894 260 293.162L261.773 207.183L267 206.5L262.545 293.166C262.505 293.915 261.95 294.5 261.281 294.5Z"
        fill="#8054FF" fill-rule="evenodd"/>
  <path clip-rule="evenodd"
        d="M227.1 294.5H227.004C226.441 294.5 225.987 293.894 226 293.162L227.522 207.183L232 206.5L228.182 293.166C228.147 293.915 227.674 294.5 227.1 294.5Z"
        fill="#6D47D9" fill-rule="evenodd"/>
  <path clip-rule="evenodd"
        d="M319.902 294.5H319.998C320.562 294.5 321.013 293.894 321 293.162L319.48 207.183L315 206.5L318.821 293.166C318.853 293.915 319.328 294.5 319.902 294.5Z"
        fill="#8054FF" fill-rule="evenodd"/>
  <path clip-rule="evenodd"
        d="M223 202.245V143.285C223 132.911 231.406 124.5 241.774 124.5H284.226C294.594 124.5 303 132.911 303 143.285V204.5L223 202.245Z"
        fill="#8054FF" fill-rule="evenodd"/>
  <path clip-rule="evenodd" d="M310 211.5H228.598C225.505 211.5 223 208.786 223 205.442V201.5H310V211.5Z" fill="#6D47D9"
        fill-rule="evenodd"/>
  <path clip-rule="evenodd"
        d="M320.791 211.5H258.205C255.881 211.5 254 209.493 254 207.019V205.981C254 203.507 255.881 201.5 258.205 201.5H320.791C323.115 201.5 325 203.507 325 205.981V207.019C325 209.493 323.115 211.5 320.791 211.5Z"
        fill="#8054FF" fill-rule="evenodd"/>
  <path clip-rule="evenodd"
        d="M317.703 189.192C311.734 199.514 304.23 203.5 304.23 203.5H273C273 203.5 322.256 181.315 317.703 189.192Z"
        fill="#332266" fill-rule="evenodd"/>
  <path clip-rule="evenodd"
        d="M341 197.161L319.013 257.443C319.013 257.443 315.633 257.776 312.399 256.828C309.418 255.95 306 253.657 306 253.657C306 253.657 309.457 217.001 315.908 195.961C317.561 190.56 319.413 186.189 321.456 183.733C331.454 171.693 341 197.161 341 197.161Z"
        fill="#332266" fill-rule="evenodd"/>
  <path clip-rule="evenodd"
        d="M331.09 157.627C324.787 155.611 306.803 158.201 288.738 161.705L284.956 155.521L245.938 152.5C245.938 152.5 233.062 180.81 240.108 198.851C241.146 201.504 243.204 203.204 246.713 203.259C246.716 203.263 247.281 203.259 247.284 203.259C247.284 203.259 270.505 203.245 278.046 203.245C297.453 203.245 319.114 190.018 321.915 189.466C326.504 188.555 328.338 197.652 332.923 207.201C337.512 216.754 376.039 249.499 376.039 249.499C376.039 249.499 381.96 249.558 384.407 248.648C387.039 247.671 388 246.402 388 246.402C388 246.402 345.308 162.174 331.09 157.627Z"
        fill="#603FBF" fill-rule="evenodd"/>
  <path clip-rule="evenodd"
        d="M283.4 41.7637C278.381 39.148 270.747 38.7944 269.505 38.6288C254.663 36.6485 245.727 58.0609 245.203 64.5488C244.235 76.5078 237.861 78.3315 228.89 85.8186C210.905 100.838 216.178 118.286 226.015 124.77C231.913 128.662 242.317 124.77 242.317 124.77C242.461 124.872 270.761 109.066 284.709 101.443C305.622 98.4904 296.186 48.4298 283.4 41.7637Z"
        fill="#332266" fill-rule="evenodd"/>
  <path clip-rule="evenodd"
        d="M273.208 94.317C273.271 94.3555 266.3 96.708 261.642 94.6706C257.256 92.7556 253.934 85.6245 254.001 85.621C255.995 85.53 258.185 83.8076 259.871 72.5L260.721 72.8011L275 77.8807C275 77.8807 273.966 82.4073 273.296 86.7202C272.733 90.3366 272.428 93.8059 273.208 94.317Z"
        fill="#FFA6D5" fill-rule="evenodd"/>
  <path clip-rule="evenodd"
        d="M276.281 84.4948C276.281 84.4948 257.352 81.8253 259.116 69.4628C260.88 57.0967 259.624 48.4256 271.785 49.6077C283.946 50.791 285.614 55.8774 285.981 60.1557C286.349 64.4305 281.251 84.8736 276.281 84.4948Z"
        fill="#FFA6D5" fill-rule="evenodd"/>
  <path clip-rule="evenodd"
        d="M287 52.469C287 52.469 274.397 63.4394 265.821 64.3266C257.249 65.2101 254 62.4297 254 62.4297C254 62.4297 259.056 58.1922 262.097 51.351C262.994 49.3355 264.886 47.9521 267.067 47.762C273.19 47.2283 284.794 46.9845 287 52.469Z"
        fill="#332266" fill-rule="evenodd"/>
  <path clip-rule="evenodd"
        d="M278 50.8413C278 50.8413 282.556 54.8952 283.991 57.9018C285.376 60.8056 285.792 67.7454 284.689 70.5C284.689 70.5 291.787 57.7989 287.767 51.6258C283.509 45.0839 278 50.8413 278 50.8413Z"
        fill="#233862" fill-rule="evenodd"/>
  <path clip-rule="evenodd"
        d="M289.996 123.057C289.413 162.101 289.838 153.942 285.548 157.646C284.512 158.537 281.606 159.069 277.78 159.321C265.754 160.115 244.61 158.142 243.806 155.932C241.034 148.276 242.991 145.898 240.675 134.175C240.436 132.93 240.138 131.58 239.786 130.111C237.857 122.06 235.978 119.321 242.825 106.388C249.034 94.6721 255.484 85.1662 256.064 85.509C272.443 95.1897 273.768 87.0513 273.768 87.0513C273.768 87.0513 290.284 104.01 289.996 123.057Z"
        fill="#DE9079" fill-rule="evenodd"/>
  <path clip-rule="evenodd"
        d="M332 223.604L319.287 257.444C319.287 257.444 315.836 257.774 312.534 256.834C309.49 255.964 306 253.69 306 253.69C306 253.69 309.529 217.356 316.116 196.5L332 223.604Z"
        fill="#4D3299" fill-rule="evenodd"/>
  <path clip-rule="evenodd"
        d="M273 86.5C273 86.5 290.134 89.3409 292.149 96.5601C294.159 103.776 306 146.207 306 146.207C306 146.207 297.288 147.737 293.266 143.803C289.241 139.865 279.261 107.277 279.261 107.277L273 86.5Z"
        fill="#DE9079" fill-rule="evenodd"/>
  <path clip-rule="evenodd"
        d="M277 159.323C265.332 160.106 244.818 158.161 244.037 155.982C241.348 148.434 243.246 146.089 241 134.531L246.631 118.5C246.631 118.5 245.701 136.351 250.902 141.048C256.104 145.744 272.214 150.113 274.743 154.037C275.964 155.92 276.768 157.806 277 159.323Z"
        fill="#CD856F" fill-rule="evenodd"/>
  <path clip-rule="evenodd"
        d="M263 152.013C263 152.013 275.424 149.839 277.429 150.703C279.434 151.57 284.334 154.724 284.949 155.823C285.563 156.922 280.482 154.99 278.834 154.644C277.764 154.418 274.949 155.187 273.555 155.551C267.691 157.086 264.096 156.297 264.096 156.297L263 152.013Z"
        fill="#FFA6D5" fill-rule="evenodd"/>
  <path clip-rule="evenodd"
        d="M256.402 85.5C256.402 85.5 240.898 86.478 235.534 94.1238C227.978 104.889 212.991 150.77 221.579 156.89C231.254 163.778 265.602 158.692 265.602 158.692C265.602 158.692 266.747 153.233 265.154 150.592C263.564 147.952 237.718 143.687 236.525 142.468C235.332 141.249 251.438 118.703 251.438 115.046C251.438 111.389 256.402 85.5 256.402 85.5Z"
        fill="#DE9079" fill-rule="evenodd"/>
  <path clip-rule="evenodd"
        d="M278 154.5C278 154.5 280.676 156.974 281.554 157.27C282.432 157.565 283 157.492 283 157.492L281.195 155.167L278 154.5Z"
        fill="#FFA6D5" fill-rule="evenodd"/>
  <path clip-rule="evenodd"
        d="M277 150.5L285 154.914C285 154.914 284.658 155.55 283.674 155.497C282.687 155.448 280.203 154.414 280.203 154.414L277 150.5Z"
        fill="#FFA6D5" fill-rule="evenodd"/>
  <path clip-rule="evenodd" d="M281 161.5H337.887L355 119.5H298.201L281 161.5Z" fill="#F44580" fill-rule="evenodd"/>
  <path clip-rule="evenodd" d="M339 157.5H263V161.5H338.325L339 157.5Z" fill="#F44580" fill-rule="evenodd"/>
  <path clip-rule="evenodd"
        d="M323.902 140C324.284 138.619 323.515 137.5 322.188 137.5C320.861 137.5 319.479 138.619 319.098 140C318.716 141.381 319.485 142.5 320.812 142.5C322.139 142.5 323.521 141.381 323.902 140Z"
        fill="white" fill-rule="evenodd"/>
  <path clip-rule="evenodd"
        d="M16.0926 210.5H15.9071C13.7495 210.5 12 208.774 12 206.646V125.354C12 123.226 13.7495 121.5 15.9071 121.5H16.0926C18.2505 121.5 20 123.226 20 125.354V206.646C20 208.774 18.2505 210.5 16.0926 210.5Z"
        fill="#8054FF" fill-rule="evenodd"/>
  <path clip-rule="evenodd"
        d="M17.2816 294.5H17.1701C16.5134 294.5 15.9851 293.894 16.0003 293.162L17.7744 207.183L23 206.5L18.5438 293.166C18.5055 293.915 17.9516 294.5 17.2816 294.5Z"
        fill="#6D47D9" fill-rule="evenodd"/>
  <path clip-rule="evenodd"
        d="M111.534 294.5H111.662C112.413 294.5 113.014 293.894 113 293.162L110.971 207.183L105 206.5L110.092 293.166C110.135 293.915 110.769 294.5 111.534 294.5Z"
        fill="#6D47D9" fill-rule="evenodd"/>
  <path clip-rule="evenodd"
        d="M110.772 201.5H12V205.442C12 208.786 14.5588 211.5 17.7148 211.5H110.772C113.107 211.5 115 209.493 115 207.019V205.981C115 203.507 113.107 201.5 110.772 201.5Z"
        fill="#8054FF" fill-rule="evenodd"/>
  <path clip-rule="evenodd"
        d="M38 177.99C38 177.99 38.6751 195.668 41.7861 201.593H113.492C113.492 201.593 130.721 203.379 132.293 204.546C134.275 206.011 125.391 220.579 158.69 277.5L175 277.085C175 277.085 157.947 184.766 154.915 182.432C150.381 178.935 97.3331 166.771 88.2519 166.504C79.1708 166.241 38 177.99 38 177.99Z"
        fill="#603FBF" fill-rule="evenodd"/>
  <path clip-rule="evenodd"
        d="M79.1808 75.6344C84.6924 79.0889 85 85.9695 85 85.9695C71.5581 89.484 52 74.3863 52 74.3863C52 74.3863 60.6537 68.5063 63.8586 55.583C64.0194 54.9289 64.1697 54.2607 64.299 53.5783C64.7184 51.4002 64.9805 49.0433 65.0259 46.5L81.47 61.4029C81.47 61.4029 81.2359 65.264 79.9532 71.9077C79.7295 73.0674 79.4744 74.312 79.1808 75.6344Z"
        fill="#FFA6D5" fill-rule="evenodd"/>
  <path clip-rule="evenodd"
        d="M85.9804 145.081C85.5217 148.063 86.4461 150.462 86.8909 152.683C87.0647 153.528 87.1655 154.352 87.0925 155.169C86.3627 163.421 89.3028 164.467 88.3819 167.13C88.3819 167.13 85.2402 168.969 79.4885 171.152C76.9863 172.094 73.9871 173.109 70.5361 174.065C70.3553 174.114 70.1746 174.163 69.987 174.211C56.6278 177.827 42.5805 178.598 38.6114 178.491C31.0303 178.289 29.5008 159.069 32.313 134.857C36.694 97.1434 42.6188 78.8585 58.2299 65.6488C59.2134 64.8145 58.5497 67.6476 63.7974 70.1783C68.6455 72.5109 74.4945 73.0566 79.0332 72.052L82.6024 75.7125C89.6921 86.9163 90.4358 100.213 89.8345 111.299C89.07 125.311 87.2976 136.494 85.9804 145.081Z"
        fill="#EE538B" fill-rule="evenodd"/>
  <path clip-rule="evenodd"
        d="M86.3937 61.1857C86.3937 61.1857 64.621 64.3582 62.8872 50.5437C61.1534 36.7284 57.1761 27.8337 71.0047 25.2259C84.8333 22.6184 88.2003 27.5387 89.8821 32.0066C91.5638 36.4742 92.0112 60.0048 86.3937 61.1857Z"
        fill="#FFA6D5" fill-rule="evenodd"/>
  <path clip-rule="evenodd" d="M169 162.966L170.74 163.5L185 119.03L183.26 118.5L169 162.966Z" fill="#F44580"
        fill-rule="evenodd"/>
  <path clip-rule="evenodd" d="M122.031 158.5L170 159.093L169.969 162.5L122 161.907L122.031 158.5Z" fill="#F44580"
        fill-rule="evenodd"/>
  <path clip-rule="evenodd"
        d="M55.5315 25.8629C55.3494 25.6626 54.9317 25.4991 54 25.4435C54 25.4435 54.7497 25.0043 55.7456 24.9879C55.9491 23.7512 56.6595 21.565 58.8907 21.049C58.8907 21.049 57.6876 21.6503 57.5199 22.9656C60.1223 20.4501 65.6698 18.6468 80.9808 19.9181C101.157 21.5937 94.4033 33.9014 91.7759 35.3549C89.1521 36.8083 82.605 32.72 77.7322 33.0527C72.8594 33.3854 71.8777 40.106 70.2177 41.0165C68.5578 41.9273 69.2218 40.2998 66.9942 39.317C64.7666 38.3345 64.5239 41.8737 65.1521 44.1807C65.7769 46.488 62.6818 49.5 62.6818 49.5C62.6818 49.5 62.6818 49.5 59.6046 46.2825C56.5274 43.0641 53.7144 29.5073 55.1495 26.6325C55.2744 26.3789 55.3994 26.1216 55.5315 25.8629Z"
        fill="#332266" fill-rule="evenodd"/>
  <path clip-rule="evenodd"
        d="M89.8141 167.408C89.8141 167.408 86.5772 169.279 80.6513 171.5C55 153.012 55.1396 109.25 55 108.5L87.2145 136.527L88.278 152.708C88.457 153.568 88.5608 154.406 88.4857 155.237C87.7337 163.634 90.7629 164.698 89.8141 167.408Z"
        fill="#D32660" fill-rule="evenodd"/>
  <path clip-rule="evenodd"
        d="M135 147.538C135 147.538 137.027 147.912 139.167 146.774C141.306 145.641 148.686 142.056 150.072 142.546C151.459 143.035 155.985 145.923 157.051 146.472C158.117 147.021 160 149.837 160 149.837C159.219 150.729 156.467 148.684 155.242 148.724C154.014 148.759 144.942 154.361 142.246 154.484C139.55 154.607 135.348 153.983 135.348 153.983L135 147.538Z"
        fill="#FFA6D5" fill-rule="evenodd"/>
  <path clip-rule="evenodd" d="M150 147.586C150.03 147.787 153.984 152.773 157 151.19L153.697 147.5L150 147.586Z"
        fill="#FFA6D5" fill-rule="evenodd"/>
  <path clip-rule="evenodd"
        d="M139 147.5C139 147.5 141.597 144.122 142.457 142.5C142.457 142.5 142.977 142.83 142.999 143.448C143.033 144.474 142.318 146.361 142.318 146.361L139 147.5Z"
        fill="#FFA6D5" fill-rule="evenodd"/>
  <path clip-rule="evenodd"
        d="M81.9077 82.3471C65.8593 72.6103 46.9151 89.6219 54.8784 106.581C64.1156 126.246 79.4887 150.227 91.7052 151.645C100.413 152.654 125.299 155.834 135.841 153.875C135.841 153.875 140.947 154.124 138.176 145.934C138.176 145.934 104.123 136.478 98.4642 129.141C95.4327 125.212 90.2677 117.254 82.2801 82.5759C82.2487 82.4338 82.033 82.4234 81.9077 82.3471Z"
        fill="#EE538B" fill-rule="evenodd"/>
  <path clip-rule="evenodd"
        d="M514.17 294.5H514.328C515.265 294.5 516.022 293.668 516 292.659L513.532 177.591C513.493 175.781 512.133 174.272 510.336 174.046C508.077 173.761 506.112 175.591 506.233 177.864L512.366 292.666C512.42 293.696 513.21 294.5 514.17 294.5Z"
        fill="#9774FF" fill-rule="evenodd"/>
  <path clip-rule="evenodd"
        d="M115.83 294.5H115.672C114.735 294.5 113.978 293.668 114 292.659L116.468 177.591C116.507 175.781 117.867 174.272 119.664 174.046C121.923 173.761 123.888 175.591 123.767 177.864L117.634 292.666C117.58 293.696 116.79 294.5 115.83 294.5Z"
        fill="#9774FF" fill-rule="evenodd"/>
  <path clip-rule="evenodd"
        d="M521.545 176.5H107.455C104.444 176.5 102 173.956 102 170.821V167.183C102 164.044 104.444 161.5 107.455 161.5H521.545C524.556 161.5 527 164.044 527 167.183V170.821C527 173.956 524.556 176.5 521.545 176.5Z"
        fill="#9774FF" fill-rule="evenodd"/>
  <path clip-rule="evenodd" d="M459 161.5H402.113L385 118.5H441.799L459 161.5Z" fill="#CD4475" fill-rule="evenodd"/>
  <path clip-rule="evenodd" d="M402 157.5H478V161.5H402.675L402 157.5Z" fill="#CD4475" fill-rule="evenodd"/>
  <path clip-rule="evenodd"
        d="M418.116 140C417.662 138.619 418.581 137.5 420.173 137.5C421.766 137.5 423.425 138.619 423.883 140C424.34 141.381 423.418 142.5 421.825 142.5C420.233 142.5 418.574 141.381 418.116 140Z"
        fill="white" fill-rule="evenodd"/>
  <path clip-rule="evenodd"
        d="M503.263 274.5C503.263 274.5 505.173 295.336 502.843 296.5L473 296.438C473 296.438 473 292.942 477.793 292.168C482.586 291.389 491.006 288.541 492.433 282.201C493.856 275.857 503.263 274.5 503.263 274.5Z"
        fill="#233862" fill-rule="evenodd"/>
  <path clip-rule="evenodd"
        d="M293.748 270.77C292.928 271.716 292.825 272.774 293.231 273.901C293.231 273.904 293.231 273.911 293.238 273.918C293.99 276.005 296.471 278.335 299.352 280.661C299.718 280.963 300.049 281.233 300.331 281.486C300.407 281.552 300.483 281.618 300.552 281.684C300.61 281.736 300.665 281.788 300.721 281.837C303.409 284.329 302.399 284.901 307.224 289.956C312.731 295.719 316.519 295.823 317.598 295.299C318.511 294.852 316.657 291.794 314.603 288.362C314.503 288.195 314.406 288.025 314.303 287.859C314.031 287.401 313.758 286.94 313.486 286.479C311.081 282.346 311.701 280.408 312.27 274.254C312.735 269.255 320 246.327 320 246.327L309.45 244.5C309.45 244.5 306.276 262.757 302.775 265.569C300.903 267.067 298.808 267.088 297.009 268.197C296.881 268.274 296.757 268.353 296.637 268.436C295.613 269.116 294.572 269.82 293.748 270.77Z"
        fill="#FFA6D5" fill-rule="evenodd"/>
  <path clip-rule="evenodd"
        d="M294.723 271.044C293.931 271.98 293.831 273.026 294.224 274.14C294.224 274.143 294.224 274.15 294.23 274.157C295.12 276.218 297.454 278.512 300.148 280.805C300.498 281.107 300.808 281.385 301.084 281.642C301.157 281.707 301.231 281.772 301.297 281.837C301.354 281.889 301.407 281.94 301.46 281.988C304.058 284.453 303.082 285.019 307.745 290.018C313.067 295.716 316.727 295.819 317.769 295.301C318.651 294.859 316.86 291.835 314.875 288.441C313.839 288.05 309.03 286.037 305.393 281.248C302.19 277.037 300.055 271.634 297.874 268.5C297.75 268.575 297.631 268.654 297.514 268.737C296.525 269.409 295.519 270.105 294.723 271.044Z"
        fill="#233862" fill-rule="evenodd"/>
  <path clip-rule="evenodd"
        d="M380.417 263.08C381.066 266.315 385.694 265.774 390.868 264.518C396.043 263.258 394.812 264.754 402.173 263.943C409.537 263.131 411.769 260.4 411.992 259.308C412.192 258.343 408.554 258.001 404.652 257.552C404.164 257.497 403.668 257.439 403.177 257.378C398.769 256.827 395.544 253.996 391.542 251.672C387.753 249.471 382.094 240.5 382.094 240.5L372 241.298C372 241.298 377.298 249.31 379.347 252.791C380.551 254.841 380.489 257.549 380.337 259.644C380.258 260.78 380.186 261.94 380.417 263.08Z"
        fill="#FFA6D5" fill-rule="evenodd"/>
  <path clip-rule="evenodd"
        d="M390.695 264.511C395.912 263.243 394.671 264.749 402.092 263.932C409.517 263.116 411.767 260.366 411.992 259.267C412.193 258.296 408.526 257.951 404.591 257.5L404.557 257.576C404.557 257.576 400.102 260.714 393.925 260.859C388.889 260.983 383.554 259.546 380.077 259.605C379.997 260.749 379.925 261.917 380.157 263.064C380.812 266.32 385.478 265.776 390.695 264.511Z"
        fill="#233862" fill-rule="evenodd"/>
  <path clip-rule="evenodd"
        d="M160.318 276.401C160.318 276.401 158.898 294.232 162.059 294.469C162.48 294.5 178.082 294.5 178.082 294.5L198 294.385C198 294.385 197.869 289.532 192.047 288.508C186.224 287.483 174.704 282.532 171.174 274.753C167.464 266.572 160.318 276.401 160.318 276.401Z"
        fill="#163560" fill-rule="evenodd"/>
  <path clip-rule="evenodd"
        d="M545.711 270.875C545.711 270.875 550.877 275.897 549.87 279.46C548.862 283.027 544.198 285.406 543.57 289.764C542.939 294.121 540.419 296.5 538.153 296.5C535.884 296.5 527.343 296.5 527.343 296.5C527.343 296.5 525.673 293.431 529.703 292.506C533.736 291.582 535.256 286.46 535.002 281.706C534.751 276.951 535.382 270.612 535.382 270.612L543.947 268.5L545.711 270.875Z"
        fill="#233862" fill-rule="evenodd"/>
</svg>
