<svg xmlns="http://www.w3.org/2000/svg" width="57.648" height="42" viewBox="0 0 57.648 42">
  <path id="cloud"
        d="M37.031,45.991q.317.009.637.009A21,21,0,1,0,21.273,11.875H18.082a17.062,17.062,0,0,0,0,34.125H36.457Q36.745,46,37.031,45.991Zm5.127-5.973C48.327,38,53.418,32.039,53.418,25a15.75,15.75,0,0,0-31.5,0h-5.25a20.941,20.941,0,0,1,1.526-7.875h-.112a11.813,11.813,0,0,0,0,23.625H36.457A28.074,28.074,0,0,0,42.158,40.018Z"
        transform="translate(-1.019 -4)" fill="#0090ff" fill-rule="evenodd"/>
</svg>
