<svg id="keyhole" xmlns="http://www.w3.org/2000/svg" width="42" height="42" viewBox="0 0 42 42">
  <g id="Group_673" data-name="Group 673">
    <path id="Path_705" data-name="Path 705"
          d="M17.4,19.242a6.3,6.3,0,1,0-4.2,0V25.9a2.1,2.1,0,0,0,4.2,0ZM13.2,13.3a2.1,2.1,0,1,0,2.1-2.1A2.1,2.1,0,0,0,13.2,13.3Z"
          transform="translate(5.7 3.5)" fill="#1291bf" fill-rule="evenodd"/>
    <path id="Path_706" data-name="Path 706"
          d="M23,2A21,21,0,1,0,44,23,21,21,0,0,0,23,2ZM6.2,23A16.8,16.8,0,1,0,23,6.2,16.8,16.8,0,0,0,6.2,23Z"
          transform="translate(-2 -2)" fill="#1291bf" fill-rule="evenodd"/>
  </g>
</svg>
