<svg id="Layer_1" data-name="Layer 1" xmlns="http://www.w3.org/2000/svg" xmlns:xlink="http://www.w3.org/1999/xlink"
     viewBox="0 0 772.29 770">
  <defs>
    <style>.cls-1 {
      fill: none;
    }

    .cls-2 {
      fill: url(#linear-gradient);
    }

    .cls-3 {
      fill: url(#linear-gradient-2);
    }

    .cls-4 {
      fill: url(#linear-gradient-3);
    }

    .cls-5 {
      fill: url(#linear-gradient-4);
    }

    .cls-6 {
      fill: url(#linear-gradient-5);
    }

    .cls-7 {
      fill: url(#linear-gradient-6);
    }

    .cls-8 {
      fill: url(#linear-gradient-7);
    }

    .cls-9 {
      fill: url(#linear-gradient-8);
    }

    .cls-10 {
      fill: url(#linear-gradient-9);
    }

    .cls-11 {
      fill: url(#linear-gradient-10);
    }

    .cls-12 {
      fill: #f2f2f2;
    }

    .cls-13 {
      fill: #4c73dc;
    }

    .cls-14 {
      fill: #fff;
    }

    .cls-15 {
      fill: #09089f;
    }

    .cls-16 {
      fill: #ff5c98;
    }

    .cls-17 {
      fill: #8cb3de;
    }

    .cls-18 {
      fill: #62d3bd;
    }

    .cls-19 {
      fill: #353f49;
    }

    .cls-20 {
      fill: #dfedfb;
    }

    .cls-21 {
      fill: #d6e8fc;
    }

    .cls-22 {
      fill: #163560;
    }

    .cls-23 {
      fill: #ffb27d;
    }

    .cls-24 {
      fill: #f9ddbf;
    }

    .cls-25 {
      fill: #f2ccaa;
    }

    .cls-26 {
      fill: #e8945b;
    }

    .cls-27 {
      fill: #ebf3fa;
    }

    .cls-28 {
      fill: #ed7d2b;
    }

    .cls-29 {
      fill: #f99746;
    }

    .cls-30 {
      fill: #233862;
    }

    .cls-31 {
      fill: #b0d4ff;
    }

    .cls-32 {
      fill: #95c0f4;
    }

    .cls-33 {
      fill: #2b478b;
    }

    .cls-34 {
      fill: #ed975d;
    }

    .cls-35 {
      fill: #ebf3ff;
    }

    .cls-36 {
      fill: #1c468a;
    }

    .cls-37 {
      fill: #2c3a64;
    }

    .cls-38 {
      fill: #91b8ef;
    }

    .cls-39 {
      fill: #739af0;
    }

    .cls-40 {
      fill: #c8dbf4;
    }

    .cls-41 {
      fill: #cde0fb;
    }

    .cls-42 {
      fill: #bed7fb;
    }

    .cls-43 {
      fill: #dfebfd;
    }

    .cls-44 {
      fill: #d4e4f8;
    }

    .cls-45 {
      fill: #9fc1f4;
    }

    .cls-46 {
      fill: url(#linear-gradient-11);
    }</style>
    <linearGradient id="linear-gradient" x1="82.24" y1="781.55" x2="81.84" y2="781.8"
                    gradientTransform="matrix(-617.21, -482.49, -611.1, 781.73, 528573.56, -570979.82)"
                    gradientUnits="userSpaceOnUse">
      <stop offset="0" stop-color="#f7fafd"/>
      <stop offset="1" stop-color="#def0ff"/>
    </linearGradient>
    <linearGradient id="linear-gradient-2" x1="82.18" y1="781.46" x2="81.79" y2="781.72" xlink:href="#linear-gradient"/>
    <linearGradient id="linear-gradient-3" x1="82.09" y1="781.32" x2="81.69" y2="781.57" xlink:href="#linear-gradient"/>
    <linearGradient id="linear-gradient-4" x1="82.19" y1="781.47" x2="81.79" y2="781.73" xlink:href="#linear-gradient"/>
    <linearGradient id="linear-gradient-5" x1="82.23" y1="781.54" x2="81.84" y2="781.8" xlink:href="#linear-gradient"/>
    <linearGradient id="linear-gradient-6" x1="82.14" y1="781.39" x2="81.74" y2="781.65" xlink:href="#linear-gradient"/>
    <linearGradient id="linear-gradient-7" x1="82" y1="781.18" x2="81.6" y2="781.44" xlink:href="#linear-gradient"/>
    <linearGradient id="linear-gradient-8" x1="82.25" y1="781.57" x2="81.86" y2="781.83" xlink:href="#linear-gradient"/>
    <linearGradient id="linear-gradient-9" x1="82.03" y1="781.22" x2="81.63" y2="781.48" xlink:href="#linear-gradient"/>
    <linearGradient id="linear-gradient-10" x1="82.24" y1="781.54" x2="81.84" y2="781.8" xlink:href="#linear-gradient"/>
    <linearGradient id="linear-gradient-11" x1="708.79" y1="288.58" x2="296.17" y2="554.36"
                    gradientTransform="matrix(1, 0, 0, 1, 0, 0)" xlink:href="#linear-gradient"/>
  </defs>
  <path class="cls-1"
        d="M130.32,261.62l.23,0A39,39,0,0,0,140,282.86q3.85-2.92,7.82-5.83a28.41,28.41,0,0,1-6.17-30.37l-2-1.15,2.58-4.47,1.73,1a28.42,28.42,0,0,1,39.89-8.6l9-5.85a38.82,38.82,0,0,0-24.65-8.73h0c-.42,0-.83,0-1.24,0v-.05a38.82,38.82,0,0,0-29.61,15.85l-.18.25-.65.94a38.31,38.31,0,0,0-6.44,21.38A39.09,39.09,0,0,0,130.32,261.62Z"
        transform="translate(0.28)"/>
  <path class="cls-1" d="M772,451.76V161.38l-.08,290.3Z" transform="translate(0.28)"/>
  <path class="cls-1"
        d="M191.87,241.58l3.66-2.11q2.33-2.08,4.54-4.15a39.44,39.44,0,0,0-6.19-6.84l-8.9,5.78A28.57,28.57,0,0,1,191.87,241.58Z"
        transform="translate(0.28)"/>
  <path class="cls-2" d="M200.82,236.42c-.24-.37-.5-.73-.75-1.1q-2.22,2.07-4.54,4.15Z" transform="translate(0.28)"/>
  <path class="cls-3" d="M358.81,550.72c-.39,1.47-.8,2.92-1.25,4.37h4.3v-2.93A13.71,13.71,0,0,1,358.81,550.72Z"
        transform="translate(0.28)"/>
  <path class="cls-4"
        d="M445.15,377.35a44.05,44.05,0,0,0,10,10.44,42.84,42.84,0,0,0,49.09,1.41,44.72,44.72,0,0,0,9.87-8.9,51,51,0,0,0,7.58-12.56,38.28,38.28,0,0,0,2.65-19.33,44.41,44.41,0,0,0-2.5-10.41,48.66,48.66,0,0,0-5.28-10.24,44.89,44.89,0,0,0-7.3-8.39,42.89,42.89,0,0,0-48.59-5.94,43.53,43.53,0,0,0-8.9,6.26,47.1,47.1,0,0,0-7.54,8.83c-7.1,10.84-9.15,22.72-5.91,34.35A50.21,50.21,0,0,0,445.15,377.35Z"
        transform="translate(0.28)"/>
  <path class="cls-5" d="M355.63,574.58l6.23,4.64v-9.16H353c0,.09,0,.19,0,.29A6.73,6.73,0,0,0,355.63,574.58Z"
        transform="translate(0.28)"/>
  <path class="cls-6" d="M283.9,570.06h-8.36c2.19.56,4.26,1.12,6.19,1.66C282.46,571.18,283.19,570.62,283.9,570.06Z"
        transform="translate(0.28)"/>
  <path class="cls-7"
        d="M445.81,595H453c.49-1.92,1-3.78,1.54-5.52s1-3.11,1.53-4.51l-1.69.82A41.18,41.18,0,0,1,445.81,595Z"
        transform="translate(0.28)"/>
  <path class="cls-8" d="M662.5,484.81c-.08.28-.17.57-.27.86l1.47,1.74A11,11,0,0,0,662.5,484.81Z"
        transform="translate(0.28)"/>
  <path class="cls-9"
        d="M194.29,246.14A28.43,28.43,0,0,1,147.79,277q-4,2.89-7.82,5.83a39.46,39.46,0,0,0,5.44,5.13,38.53,38.53,0,0,0,61.73-30.82,37.81,37.81,0,0,0-.82-7.77,38.41,38.41,0,0,0-2.94-8.49Z"
        transform="translate(0.28)"/>
  <path class="cls-10" d="M616.31,500.68l.45.26v-.13Z" transform="translate(0.28)"/>
  <path class="cls-11"
        d="M299,553.57c.92-1.38,1.8-2.78,2.63-4.22a53.83,53.83,0,0,0,5.22-13.58A70.35,70.35,0,0,0,309,520.35a42,42,0,0,0-.33-6.34,75.63,75.63,0,0,0-7.34-24.21,66,66,0,0,0-10.62-15.2A63.46,63.46,0,0,0,220.28,459c-.29,2.24-.65,4.47-1.1,6.68-.06.29-.12.61-.18.91l2.82,2.9c7,11,7.78,24,7.24,34.94,3.85,11.69,6.65,15.84,8.58,18.35,5.65,7.32,39.61,16.75,39.61,16.75.14.4.24.76.34,1.12.22-.09.44-.17.65-.28l.59-.31c.95-1.28,1.86-2.59,2.69-4a1.23,1.23,0,0,1,.54,1,10.49,10.49,0,0,1-.26,1.57c2.9-1.35,6.41-2.79,7.32-2.47,1.38.49,5.89,3.37,7,3.91s2.94,3.36,2.94,3.36c-.78.89-3.52-1.15-4.75-1.11a1.42,1.42,0,0,0-.36.09l2.12,2.37c-1.53.8-3.3-.09-4.67-1.18-3.25,1.67-8.18,4.38-10.05,4.47a46.44,46.44,0,0,1-6.88-.5v0c-10.77,1.77-35-1.31-43.52-2.31a12.46,12.46,0,0,1-3.55-1l.13,2.06a8.2,8.2,0,0,1,.21,2.52c-.68,7.53,1.69,9.15,1.49,11.36,2.67.29,6.91,1,12,2v-1.46a5.57,5.57,0,0,1,5.44-5.67h14.52l0-2Z"
        transform="translate(0.28)"/>
  <path class="cls-12"
        d="M130.07,257.27a38.31,38.31,0,0,1,6.44-21.38,38.71,38.71,0,0,0-6.68,21.69h0a39.5,39.5,0,0,0,.23,4.07l.26,0A39.09,39.09,0,0,1,130.07,257.27Z"
        transform="translate(0.28)"/>
  <path class="cls-12" d="M117.73,255.59c0-.32,0-.65,0-1C117.77,254.94,117.75,255.27,117.73,255.59Z"
        transform="translate(0.28)"/>
  <path class="cls-12" d="M137.16,235l.18-.25Z" transform="translate(0.28)"/>
  <path class="cls-12"
        d="M166.56,206.76h.14l.47,0v0l1,0h0a51,51,0,0,1,35.21,14l.1-.06a50.67,50.67,0,0,0-85.66,32.93A50.86,50.86,0,0,1,166.56,206.76Z"
        transform="translate(0.28)"/>
  <path class="cls-12"
        d="M213.12,233.27a51.59,51.59,0,0,0-4.16-6.49,49.73,49.73,0,0,0-4.5-5.18l-.08.05A51.84,51.84,0,0,1,213.12,233.27Z"
        transform="translate(0.28)"/>
  <path class="cls-12" d="M209.12,287.84a50.56,50.56,0,0,0,6.42-11.42l-.23-.09A51.28,51.28,0,0,1,209.12,287.84Z"
        transform="translate(0.28)"/>
  <path class="cls-12"
        d="M147.62,303.69l4.95-11.18a36.73,36.73,0,0,0,15.93,3.62h0a36.61,36.61,0,0,0,13-2.35l4,11.53c1-.34,1.92-.7,2.86-1.1a50.5,50.5,0,0,0,15-9.84l-7.85-8.72a39.23,39.23,0,0,0,9.12-14.09l.1.05a38.73,38.73,0,0,0,2.55-13.79h0a39.57,39.57,0,0,0-.94-8.42,37.81,37.81,0,0,1,.82,7.77A38.53,38.53,0,0,1,145.41,288a39.26,39.26,0,0,0,7.19,4.44l-5,11.05a51.15,51.15,0,0,1-28.85-40l-.65.08a50.9,50.9,0,0,0,29.52,40.11Z"
        transform="translate(0.28)"/>
  <path class="cls-13"
        d="M143.94,242.05l7.86,4.54a19.22,19.22,0,0,1,32.17-.47l7.9-4.54a28.57,28.57,0,0,0-6.89-7.32l-6.74,4.39-.71-1.1,6.3-4.1a28.42,28.42,0,0,0-39.89,8.6Z"
        transform="translate(0.28)"/>
  <path class="cls-13"
        d="M187.51,257.6a19.46,19.46,0,1,1-38.9,0,19.51,19.51,0,0,1,1-6.33l-8-4.61a28.42,28.42,0,1,0,52.67-.52l-7.95,4.57A19.71,19.71,0,0,1,187.51,257.6Z"
        transform="translate(0.28)"/>
  <path class="cls-14"
        d="M168.06,247.63a9.47,9.47,0,0,1,7.31,3.44l8.6-4.95a19.22,19.22,0,0,0-32.17.47l8.59,5A9.46,9.46,0,0,1,168.06,247.63Z"
        transform="translate(0.28)"/>
  <path class="cls-14"
        d="M168.06,266.58a9.48,9.48,0,0,1-9.48-9.48c0-.21,0-.41,0-.61l-9-5.22a20.12,20.12,0,0,0,18.48,26.28,20.09,20.09,0,0,0,18.28-26.84l-8.9,5.12a10.69,10.69,0,0,1,.09,1.27A9.48,9.48,0,0,1,168.06,266.58Z"
        transform="translate(0.28)"/>
  <path class="cls-15"
        d="M191.87,241.58l-7.9,4.54-8.6,4.95a9.51,9.51,0,0,1,2.07,4.76l8.9-5.12,7.95-4.57,9.09-5.23a38.23,38.23,0,0,0-2.56-4.49l-5.29,3.05Z"
        transform="translate(0.28)"/>
  <path class="cls-15" d="M158.61,256.49a9.44,9.44,0,0,1,1.78-4.94l-8.59-5-7.86-4.54-1.73-1-2.58,4.47,2,1.15,8,4.61Z"
        transform="translate(0.28)"/>
  <path class="cls-16"
        d="M168.06,247.63a9.48,9.48,0,0,0-9.45,8.86c0,.2,0,.4,0,.61a9.48,9.48,0,1,0,18.95,0,10.69,10.69,0,0,0-.09-1.27,9.44,9.44,0,0,0-9.38-8.2Z"
        transform="translate(0.28)"/>
  <path class="cls-17"
        d="M168.19,218.87h0a38.82,38.82,0,0,1,24.65,8.73l10.56-6.88a51,51,0,0,0-35.21-14h0l-1,0,.39,12.07-.61,0v.05C167.36,218.89,167.77,218.87,168.19,218.87Z"
        transform="translate(0.28)"/>
  <path class="cls-17" d="M166.56,206.76h0Z" transform="translate(0.28)"/>
  <path class="cls-17"
        d="M204.38,221.65l-10.5,6.83a39.44,39.44,0,0,1,6.19,6.84c.25.37.51.73.75,1.1a38.36,38.36,0,0,1,5.5,13,39.57,39.57,0,0,1,.94,8.42h0a38.73,38.73,0,0,1-2.55,13.79L215.43,276c0,.1-.08.2-.12.3l.23.09.33.13a51.07,51.07,0,0,0-2.75-43.28A51.84,51.84,0,0,0,204.38,221.65Z"
        transform="translate(0.28)"/>
  <path class="cls-13"
        d="M140,282.86a39,39,0,0,1-9.42-21.27l-.23,0-.26,0c0,.17,0,.34.05.51l-11.36,1.34a51.15,51.15,0,0,0,28.85,40l5-11.05A39.32,39.32,0,0,1,140,282.86Z"
        transform="translate(0.28)"/>
  <path class="cls-15"
        d="M168.5,296.13h0a36.73,36.73,0,0,1-15.93-3.62l-4.95,11.18v0a48.39,48.39,0,0,0,37.9,1.65l0-.07-4-11.53A36.61,36.61,0,0,1,168.5,296.13Z"
        transform="translate(0.28)"/>
  <path class="cls-16"
        d="M130.11,262.16c0-.17,0-.34-.05-.51a39.5,39.5,0,0,1-.23-4.07h0a38.71,38.71,0,0,1,6.68-21.69l.65-.94.18-.25A38.82,38.82,0,0,1,167,218.85l.61,0-.39-12.07v0l-.47,0h-.14a50.86,50.86,0,0,0-48.72,46.83c0,.34,0,.68-.06,1s0,.66,0,1c0,1.12-.06,2.23,0,3.36,0,1.55.16,3.1.34,4.63h.06l.65-.08Z"
        transform="translate(0.28)"/>
  <path class="cls-18"
        d="M215.43,276l-10.72-4.42-.1-.05a39.23,39.23,0,0,1-9.12,14.09l7.85,8.72.12.14a50.55,50.55,0,0,0,5.66-6.67,51.28,51.28,0,0,0,6.19-11.51C215.35,276.23,215.4,276.13,215.43,276Z"
        transform="translate(0.28)"/>
  <polygon class="cls-16"
           points="216.15 212.95 216.72 212.59 218.71 205.73 207.69 212.25 206.74 218.7 207.69 218.12 216 212.72 216.15 212.95"/>
  <polygon class="cls-16"
           points="221.02 214.43 216.89 213.71 207.73 219.78 213.79 221.69 215.09 220.8 223.69 214.9 221.02 214.43"/>
  <polygon class="cls-19"
           points="193.12 227.6 184.11 233.45 177.81 237.55 178.52 238.65 185.26 234.26 194.16 228.48 204.66 221.65 204.74 221.6 216.71 213.81 216.15 212.95 216 212.72 207.69 218.12 203.78 220.66 203.68 220.72 193.12 227.6"/>
  <path class="cls-20"
        d="M425.26,438.24l16.68,7.24a4.63,4.63,0,0,0,5.84-2l6-10.82a4.59,4.59,0,0,1,4-2.36,4.45,4.45,0,0,1,1.16.15,80.9,80.9,0,0,0,21.27,2.87c1.38,0,2.78,0,4.16-.11h.26a4.49,4.49,0,0,1,4.25,3l7.15,19.06a4.58,4.58,0,0,0,1.65,2.11,4.49,4.49,0,0,0,2.51.78,4.69,4.69,0,0,0,1.11-.14l19.42-5.08a4.54,4.54,0,0,0,3.34-5.19l-3.64-21.82a4.64,4.64,0,0,1,2.14-4.76,78.22,78.22,0,0,0,10-7.4c1.71-1.48,3.37-3,4.93-4.64a4.62,4.62,0,0,1,4.72-1.16l19.94,6.63a4.68,4.68,0,0,0,5.78-2.61l7.6-18,.18-.42a4.68,4.68,0,0,0-2-5.87l-14.08-8a4.54,4.54,0,0,1-2.15-5.24A82,82,0,0,0,560,342.37a4.78,4.78,0,0,1,0-1.31,4.72,4.72,0,0,1,2.92-3.59l12.62-4.79a4.75,4.75,0,0,0,3-3.9,5.56,5.56,0,0,0-.12-1.63l-4.94-19.31a4.7,4.7,0,0,0-5.36-3.49l-17.69,3a4.51,4.51,0,0,1-4.5-1.91c-1.61-2.27-3.15-4.27-4.73-6.12a80.62,80.62,0,0,0-10.21-10l0,0a4.72,4.72,0,0,1-1.5-5.13l5.7-17.46.27-.88a4.61,4.61,0,0,0-2.53-5.67l-18.19-7.84a4.75,4.75,0,0,0-6,2.05l-8.82,15.81a4.59,4.59,0,0,1-4,2.39,4.41,4.41,0,0,1-.89-.09,82.47,82.47,0,0,0-14.79-1.37,79.92,79.92,0,0,0-10.14.65,3.31,3.31,0,0,1-.55,0,4.6,4.6,0,0,1-4.32-3l-5.66-15.08a4.83,4.83,0,0,0-1.76-2.25,4.67,4.67,0,0,0-3.84-.67l-19.23,5a4.53,4.53,0,0,0-3.3,5.15l3.5,21a4.78,4.78,0,0,1-.28,2.59,4.67,4.67,0,0,1-1.6,2.05c-1.77,1.3-3.54,2.7-5.23,4.18a81.27,81.27,0,0,0-8.81,8.89,4.51,4.51,0,0,1-3.45,1.64,4.34,4.34,0,0,1-1.43-.24l-20.79-6.93a4.63,4.63,0,0,0-5.71,2.59l-7.81,18.42a4.73,4.73,0,0,0,1.43,5.5l.05,0a5.39,5.39,0,0,0,.5.33l17.4,9.87a4.63,4.63,0,0,1,2.35,4.54,4.1,4.1,0,0,1-.06.49l0,.15c-.09.42-.17.85-.22,1.29a82.34,82.34,0,0,0-1.38,17.31,4.49,4.49,0,0,1-3,4.4l-15.79,6a4.63,4.63,0,0,0-2.5,2.25,4.82,4.82,0,0,0-.37,3.38l1.09,4.29,3.85,15a4.63,4.63,0,0,0,4.5,3.52,6.51,6.51,0,0,0,.76-.07l17.43-3a3.91,3.91,0,0,1,.76-.07,4.53,4.53,0,0,1,3.88,2.3,82.37,82.37,0,0,0,8.77,12.45,80.58,80.58,0,0,0,8,8.13L426,416.88l-4.89,15a4.48,4.48,0,0,0,0,2.78,4.07,4.07,0,0,0,.22.58l.82.39A11.78,11.78,0,0,1,425.26,438.24Zm19-109.72a47.1,47.1,0,0,1,7.54-8.83,43.53,43.53,0,0,1,8.9-6.26,42.89,42.89,0,0,1,48.59,5.94,44.89,44.89,0,0,1,7.3,8.39A48.66,48.66,0,0,1,521.88,338a44.41,44.41,0,0,1,2.5,10.41,38.28,38.28,0,0,1-2.65,19.33,51,51,0,0,1-7.58,12.56,44.72,44.72,0,0,1-9.87,8.9,42.84,42.84,0,0,1-49.09-1.41,44.05,44.05,0,0,1-10-10.44,50.21,50.21,0,0,1-6.79-14.48C435.12,351.24,437.17,339.36,444.27,328.52Z"
        transform="translate(0.28)"/>
  <path class="cls-21"
        d="M361.86,598.92v-19.7l-6.23-4.64a6.73,6.73,0,0,1-2.62-4.23c0-.1,0-.2,0-.29H283.9c-.71.56-1.44,1.12-2.17,1.66,6.35,1.77,11,3.32,12.22,4.25,1.48,1.14,6.31,23.79,10.86,46.62,1.63-1,3.24-2,4.82-3.06,2.77-1.85,5.49-3.83,8.09-5.9a7,7,0,0,1,4.26-1.48,6.74,6.74,0,0,1,2.89.65L353,626.23a6.89,6.89,0,0,0,6.38-.21,7,7,0,0,0,2.59-2.55l4.15-7.18.21-11.49A5.82,5.82,0,0,1,361.86,598.92Z"
        transform="translate(0.28)"/>
  <polygon class="cls-21" points="370.73 608.76 372.93 604.97 370.9 604.97 370.73 608.76"/>
  <path class="cls-21"
        d="M271.38,598c-.77-.58-5.37-1.31-9.82-1.89l-4.4,82.39,28-3.66a6.73,6.73,0,0,0,5.86-7l-.41-9.81C265.84,611.8,273.2,599.37,271.38,598Z"
        transform="translate(0.28)"/>
  <path class="cls-21"
        d="M153.07,603.19l-.59,1.25-9.93,21.17a6.75,6.75,0,0,0-.57,4.08,6.55,6.55,0,0,0,1.87,3.59,6.33,6.33,0,0,0,1.39,1.08l11.09,6.55.74-35.95A5.82,5.82,0,0,1,153.07,603.19Z"
        transform="translate(0.28)"/>
  <path class="cls-21"
        d="M252.63,595.08h-2a4.35,4.35,0,0,1,3.54,4.38v1a4.35,4.35,0,0,1-3.92,4.43l1.72,73.15a6.87,6.87,0,0,0,1.36.49l1.78-83.22Z"
        transform="translate(0.28)"/>
  <path class="cls-21"
        d="M152.4,595V519a3.86,3.86,0,0,1,3.89-3.84h.19a3.87,3.87,0,0,1,3.9,3.84v76h20.68c-2.77-5.43-3.58-20.29-3.71-23-7-1.17-8.42-20-5.69-43.46,4.37-37.62,10.28-55.86,25.85-69,.44-.37.55,0,1,.72a35.87,35.87,0,0,0,4.61-10.76c.1-.37.17-.76.26-1.14a10.71,10.71,0,0,1-1.22-3.89l-.15-1.1-.06.06-3.07-3.21c-3.07-3.21-5.87-16.73-4.44-19.6l.38-.77c-.18-.2-.6-.36-1.53-.42a3.91,3.91,0,0,1,1.74-.45c.2-1.23.91-3.41,3.14-3.93a2.68,2.68,0,0,0-1.37,1.91c2.6-2.51,8.13-4.3,23.4-3,20.13,1.68,13.39,13.95,10.77,15.4a2.7,2.7,0,0,1-1.17.31c.94,8,.47,24.48-4.2,25.46a40.69,40.69,0,0,1-4.92.31c-.11,1.23-.25,2.46-.4,3.69A63.46,63.46,0,0,1,290.7,474.6a66,66,0,0,1,10.62,15.2A75.63,75.63,0,0,1,308.66,514a42,42,0,0,1,.33,6.34,70.35,70.35,0,0,1-2.17,15.42,53.83,53.83,0,0,1-5.22,13.58c-.83,1.44-1.71,2.84-2.63,4.22l9.95.12,13.3-41.49,1.74.53-13.59,42.36h47.19c.45-1.45.86-2.9,1.25-4.37-.12-.07-.25-.14-.36-.22-4.9-3.49-2.11-20,2.59-35.41-7-8-8.71-22.62,6.69-35.48,6.78-5.66,12.07-8.08,14.65-14.1h-.63l-26.55,1.17h-.27a6.73,6.73,0,0,1-6-3.65c-1.94-3.63-3.85-6.85-5.83-9.86a120.07,120.07,0,0,0-13.18-16.63l0,0a7,7,0,0,1-1.27-7.81l11.55-24.59.57-1.24a6.82,6.82,0,0,0-2.69-8.79l-25.3-14.9a7,7,0,0,0-9.17,1.91l-15.85,21.59a6.83,6.83,0,0,1-5.5,2.81,6.57,6.57,0,0,1-2.11-.34A118.73,118.73,0,0,0,244,399.47h-.34a6.88,6.88,0,0,1-6.62-5.3L231.44,371a7,7,0,0,0-7.69-5.33l-29.15,3.77a6.72,6.72,0,0,0-5.81,7l1.32,31.46a7,7,0,0,1-3.6,6.47c-2.85,1.58-5.7,3.32-8.45,5.16a121.57,121.57,0,0,0-14.56,11.42,6.65,6.65,0,0,1-4.56,1.81,6.24,6.24,0,0,1-2.87-.67l-29.29-14a6.83,6.83,0,0,0-8.85,2.76l-14.84,25.59a7,7,0,0,0-.84,4.38,6.85,6.85,0,0,0,1.93,4l0,0a4.58,4.58,0,0,0,.71.61l23.76,17.74a6.86,6.86,0,0,1,2.63,7.1v0a3.28,3.28,0,0,1-.19.68l0,.16a18.09,18.09,0,0,0-.58,1.9,120.77,120.77,0,0,0-5.18,25.17,6.54,6.54,0,0,1-1.61,3.78,6.7,6.7,0,0,1-3.55,2.13l-24.3,6a6.88,6.88,0,0,0-4.09,2.84,7.13,7.13,0,0,0-1.16,4.89l.82,6.51,2.93,22.71A6.89,6.89,0,0,0,101.2,563h.27l26.16-1.15H128A6.62,6.62,0,0,1,134,566a121.86,121.86,0,0,0,10.62,19.91c2.09,3.19,4.35,6.26,6.74,9.23V595Z"
        transform="translate(0.28)"/>
  <path class="cls-21"
        d="M162.11,605l-2,38.2,10.54,6.23a6.73,6.73,0,0,0,3.39.91,7,7,0,0,0,5.55-2.79l10.8-14.78a6.86,6.86,0,0,1,5.5-2.78,6.59,6.59,0,0,1,2.52.5,118.94,118.94,0,0,0,36.87,8.76,6.87,6.87,0,0,1,3.93,1.59,6.46,6.46,0,0,1,2.15,3.58l7,29.33c0,.07,0,.14.08.22l-4.06-69Z"
        transform="translate(0.28)"/>
  <path class="cls-22"
        d="M618.08,445.38l.08,1.3a4.09,4.09,0,0,0,.34.29c.1-.3.19-.61.29-.91l3-.87a7.37,7.37,0,0,0,5.32-7.13V438c0-1.24,0-2.5-.07-3.64-1.34.1-2.2.08-2.2.08-3.07-.24-4.93-8.91-5.5-15.41-.6-1.82-2.6-8.87.55-13.11,3.88-5.2,6.25-.32,6.25-.32a9.52,9.52,0,0,0-1.59.89,14.37,14.37,0,0,1,2-.58c-.29-.71-.45-1.14-.45-1.14,3.49-6.17,15.36,2.33,15.36,2.33a21.28,21.28,0,0,0,6.59,12.47s-1.9,1.21-6.11.83c0,1.16-.07,2.38-.07,3.65a8,8,0,0,1-1.5,4.8,37.31,37.31,0,0,0,1.81,10.89,7.27,7.27,0,0,0,5.31,4.62c.78.17,2.2.37,2.9.59,0,0,0,.19,0,.54l.53,1c.3-.69.49-1.09.49-1.09s9.09.65,14.39,8.48c6.1-14.14-13.08-52.7-22.91-57.72h0a12.89,12.89,0,0,0-10.11-1.07c-17.19-2-22.2,17.79-22,24.6s1,14.12-6.66,23c-8.83,10.17-6.77,16.47-1.1,20.37,2.22-5.81,4.24-11,5.13-12.4C610.51,447.17,618.08,445.38,618.08,445.38Z"
        transform="translate(0.28)"/>
  <path class="cls-23"
        d="M571.92,476.88c-2.41-.07-6.86-1-6.51-.34s3.12.75,3.39,1.16-4.1,1-5.35,1.1-4.19,0-4.09.48,5.29,2.46,9,2.18a32.21,32.21,0,0,1,7.13.6,7.09,7.09,0,0,1,1-2.48C575.45,478.55,573.55,476.93,571.92,476.88Z"
        transform="translate(0.28)"/>
  <path class="cls-24"
        d="M598.53,500.19c.42,0,.84-.06,1.26-.11a18.66,18.66,0,0,0,6.28-2.21,18.93,18.93,0,0,1-6.33,2.21C599.34,500.13,598.94,500.17,598.53,500.19Z"
        transform="translate(0.28)"/>
  <path class="cls-24"
        d="M602.29,493.59c2.29-4.14,4.7-9.91,7.57-12.25-.75-5.1-1-10.34.11-14.48a91.34,91.34,0,0,1,8-20.35l.19.17-.08-1.3s-7.57,1.79-9.8,5.23c-.89,1.38-2.91,6.59-5.13,12.4-3.32,8.72-7.06,18.78-8,19.27-1.6.82-18.41-3-18.41-3s-.14.22-.22.33a7.11,7.11,0,0,0-.71,6.51s6.25,8.66,14.57,12.43h0l.06,0C591.63,498.67,599.17,499.23,602.29,493.59Z"
        transform="translate(0.28)"/>
  <path class="cls-25"
        d="M609.86,481.34c-2.87,2.34-5.28,8.11-7.57,12.25-3.12,5.64-10.66,5.08-11.86,5l-.16,0a16.89,16.89,0,0,0,8.26,1.67c.41,0,.81-.06,1.21-.11a18.93,18.93,0,0,0,6.33-2.21,28.66,28.66,0,0,0,6.35-4.86A96.9,96.9,0,0,1,609.86,481.34Z"
        transform="translate(0.28)"/>
  <path class="cls-23" d="M622.59,502.5a2.2,2.2,0,0,0-.44.28,21.89,21.89,0,0,0,2.32.26Z" transform="translate(0.28)"/>
  <path class="cls-23" d="M620.75,502l-4-1.15v.13a15.36,15.36,0,0,0,3.52,1.42C620.43,502.22,620.58,502.09,620.75,502Z"
        transform="translate(0.28)"/>
  <path class="cls-23"
        d="M647.57,444.32a7.27,7.27,0,0,1-5.31-4.62,37.31,37.31,0,0,1-1.81-10.89,10.33,10.33,0,0,1-3.34,2.88c-2,3.28-5.07,6.56-9.65,6.7,0-1.4,0-2.83-.08-4.1l-.3,0c0,1.14.07,2.4.07,3.64v.1a7.37,7.37,0,0,1-5.32,7.13l-3,.87c-.1.3-.19.61-.29.91,2.71,2.22,15.65,11.31,32-1.59l0,.07c0-.35,0-.54,0-.54C649.77,444.69,648.35,444.49,647.57,444.32Z"
        transform="translate(0.28)"/>
  <path class="cls-26"
        d="M627.46,438.39c4.58-.14,7.68-3.42,9.65-6.7a25.13,25.13,0,0,1-9.73,2.6C627.42,435.56,627.46,437,627.46,438.39Z"
        transform="translate(0.28)"/>
  <path class="cls-23"
        d="M637.11,431.69a10.33,10.33,0,0,0,3.34-2.88A8,8,0,0,0,642,424c0-1.27,0-2.49.07-3.65a24.28,24.28,0,0,1-4.09-.75c-5.82-1.57-10-10.53-11.3-13.74a14.37,14.37,0,0,0-2,.58,9.9,9.9,0,0,0-2.92,3,19,19,0,0,0-2.14,10s-.06-.16-.15-.45c.57,6.5,2.43,15.17,5.5,15.41,0,0,.86,0,2.2-.08l.3,0A25.13,25.13,0,0,0,637.11,431.69Zm-8.93-4.84s-.35.66-4,.56c0,0-3.07-.09-3-.82A21.26,21.26,0,0,1,628.18,426.85Zm-4,2.56a3.53,3.53,0,0,1-3-1.7,15.12,15.12,0,0,1,7,.29A5.15,5.15,0,0,1,624.18,429.41Z"
        transform="translate(0.28)"/>
  <path class="cls-22"
        d="M637.93,419.61a24.28,24.28,0,0,0,4.09.75c4.21.38,6.11-.83,6.11-.83a21.28,21.28,0,0,1-6.59-12.47s-11.87-8.5-15.36-2.33c0,0,.16.43.45,1.14C628,409.08,632.11,418,637.93,419.61Z"
        transform="translate(0.28)"/>
  <path class="cls-22"
        d="M621.67,409.47a9.9,9.9,0,0,1,2.92-3,9.52,9.52,0,0,1,1.59-.89s-2.37-4.88-6.25.32c-3.15,4.24-1.15,11.29-.55,13.11.09.29.15.45.15.45A19,19,0,0,1,621.67,409.47Z"
        transform="translate(0.28)"/>
  <path class="cls-27" d="M621.2,427.71a3.53,3.53,0,0,0,3,1.7,5.15,5.15,0,0,0,4-1.41A15.12,15.12,0,0,0,621.2,427.71Z"
        transform="translate(0.28)"/>
  <path class="cls-24"
        d="M616.31,500.68l.45.13,4,1.15a4.27,4.27,0,0,1,5.91,1.13c1.79,0,4-.11,6.35-.27l-1.84-.51s.88-.13,2.27-.47L625.19,492l24.11-21.72,12.93,15.36c.1-.29.19-.58.27-.86-2-3.28-6.25-8.35-15.34-17.74-3.27-3.38,2.16-16.69,3.86-20.6l-.53-1,0-.07c-16.3,12.9-29.24,3.81-32,1.59a4.09,4.09,0,0,1-.34-.29l-.19-.17a91.34,91.34,0,0,0-8,20.35c-1.08,4.14-.86,9.38-.11,14.48A96.9,96.9,0,0,0,612.42,493c1.19,4.28,2.27,7.2,2.27,7.2l.92.26.06-.24A7.61,7.61,0,0,0,616.31,500.68Z"
        transform="translate(0.28)"/>
  <path class="cls-24" d="M625.4,503.09h.16a2.49,2.49,0,0,0-1.87-.86,2.39,2.39,0,0,0-1.1.27l1.88.54Z"
        transform="translate(0.28)"/>
  <path class="cls-25" d="M631.17,502.31l1.84.51,1.19-.08-.76-.9C632.05,502.18,631.17,502.31,631.17,502.31Z"
        transform="translate(0.28)"/>
  <path class="cls-28"
        d="M616.21,555.09H630a119.86,119.86,0,0,0-9.71-21.44c-2.63-4.38.11-18.93,1.44-25.08a29.17,29.17,0,0,1-5.59-1.5l-.12-.3c-2.29,7.45-7.37,24.61-7.79,31.48-.1,1.73.44,7.56,1.38,15.85h6.59Z"
        transform="translate(0.28)"/>
  <path class="cls-28"
        d="M634.65,570.06H611.53c4.72,37.86,12.89,95.82,13.35,98.67.63,3.87,5.41,6.33,5.41,6.33l.39.18c1.62-6.11,10.73-7.43,10.73-7.43l.16,1.91c.6-8.33,2.28-32.58,3.1-57.23-1.77-4.41-2.95-7.89-3.18-9.77A272,272,0,0,0,634.65,570.06Z"
        transform="translate(0.28)"/>
  <path class="cls-29"
        d="M682,661.82l1,1.41c-.07-35-9.46-56.56-12-67.8s-3.25-51.94-4.46-63.51c-.42-4-2.26-8.69-4.47-13.09l-8.15,7.34L644,514.42c-.66.5-1.19.82-1.44.77-1-.19-2.87-3.93-3.34-6.45l-.07-.08a64.56,64.56,0,0,1-17.45-.09c-1.33,6.15-4.07,20.7-1.44,25.08A119.86,119.86,0,0,1,630,555.09h29.63a5.57,5.57,0,0,1,5.44,5.67v3.63a5.56,5.56,0,0,1-5.44,5.67h-8l1.31,61.17c6.13,13.15,13.06,27,16.34,33.54a5.52,5.52,0,0,0,3.89,2.91c.07-1.25.15-2.5.27-3.75Z"
        transform="translate(0.28)"/>
  <path class="cls-29"
        d="M644.3,570.06h-9.65a272,272,0,0,1,6.84,32.66c.23,1.88,1.41,5.36,3.18,9.77.65,1.62,1.38,3.37,2.17,5.21Z"
        transform="translate(0.28)"/>
  <path class="cls-14"
        d="M624.17,427.41c3.66.1,4-.56,4-.56a21.26,21.26,0,0,0-7-.26C621.1,427.32,624.17,427.41,624.17,427.41Z"
        transform="translate(0.28)"/>
  <path class="cls-30"
        d="M625.4,503.09l-.93,0a21.89,21.89,0,0,1-2.32-.26,2.46,2.46,0,0,0-.95,1.94,2.49,2.49,0,1,0,4.36-1.63Z"
        transform="translate(0.28)"/>
  <path class="cls-30"
        d="M621.74,508.57a64.56,64.56,0,0,0,17.45.09l-5-5.92-1.19.08c-2.36.16-4.56.26-6.35.27a3.85,3.85,0,1,1-7.46,1.63,3.81,3.81,0,0,1,1.08-2.36,15.36,15.36,0,0,1-3.52-1.42l-.45-.26a7.61,7.61,0,0,1-.64-.45l-.06.24a9.42,9.42,0,0,0,.42,6.3l.12.3A29.17,29.17,0,0,0,621.74,508.57Z"
        transform="translate(0.28)"/>
  <path class="cls-14"
        d="M623.19,501.23a3.76,3.76,0,0,0-2.44.73c-.17.13-.32.26-.47.4a3.81,3.81,0,0,0-1.08,2.36,4.08,4.08,0,1,0,4-3.49Zm3,3.49a2.49,2.49,0,1,1-5,0,2.46,2.46,0,0,1,.95-1.94,2.2,2.2,0,0,1,.44-.28,2.39,2.39,0,0,1,1.1-.27,2.51,2.51,0,0,1,2.49,2.49Z"
        transform="translate(0.28)"/>
  <path class="cls-16"
        d="M650.39,510.21s-.36-.4-.82-1a63.62,63.62,0,0,1-5.53,5.22l9.89,11.75,8.15-7.34,16-14.38-3.38-4C670.14,503.86,662.62,507.51,650.39,510.21Z"
        transform="translate(0.28)"/>
  <path class="cls-16"
        d="M639.15,507.75c0-2.36,9.22-3.53,9.22-3.53l.1.26c2.9-2.58,15.54-14,15.5-15.44a6,6,0,0,0-.27-1.63l-1.47-1.74L649.3,470.31,625.19,492l8.25,9.81.76.9,5,5.92.07.08A5.25,5.25,0,0,1,639.15,507.75Z"
        transform="translate(0.28)"/>
  <path class="cls-23"
        d="M649.57,509.2c-.77-1.05-1.79-2.74-1.69-4.19l.59-.53-.1-.26s-9.25,1.17-9.22,3.53a5.25,5.25,0,0,0,.11,1c.47,2.52,2.34,6.26,3.34,6.45.25,0,.78-.27,1.44-.77A63.62,63.62,0,0,0,649.57,509.2Z"
        transform="translate(0.28)"/>
  <path class="cls-24"
        d="M651.51,445.38s-.19.4-.49,1.09c-1.7,3.91-7.13,17.22-3.86,20.6,9.09,9.39,13.39,14.46,15.34,17.74a11,11,0,0,1,1.2,2.6A6,6,0,0,1,664,489c0,1.48-12.6,12.86-15.5,15.44l-.59.53c-.1,1.45.92,3.14,1.69,4.19.46.61.82,1,.82,1,12.23-2.7,19.75-6.35,24.28-9.78,5-3.81,6.37-7.37,6.37-9.06,0-3.22-8.61-22.35-13.15-33.75a19.32,19.32,0,0,0-2-3.76C660.6,446,651.51,445.38,651.51,445.38Z"
        transform="translate(0.28)"/>
  <path class="cls-31" d="M398.76,686.42v0a1.25,1.25,0,0,0,1.17,1.31H400a1.33,1.33,0,0,0,1.26-1.33L405.49,605h-5.05Z"
        transform="translate(0.28)"/>
  <path class="cls-32"
        d="M367.45,605a6.13,6.13,0,0,1-1.15-.17l-.21,11.49-1.24,70.13a1.19,1.19,0,0,0,1,1.33h.1a1.26,1.26,0,0,0,1.08-1.33l3.42-77.66.17-3.79Z"
        transform="translate(0.28)"/>
  <path class="cls-31"
        d="M456.1,650.84h-.23l1.57,35.58a1.25,1.25,0,0,0,1.07,1.33h.1a1.18,1.18,0,0,0,1-1.33l-.68-38.37-1,2.74C457.3,650.84,456.7,650.85,456.1,650.84Z"
        transform="translate(0.28)"/>
  <path class="cls-31"
        d="M379,525.51c-3.33,5.38-6.17,10.06-5.64,10.6s3.44,1.13,7.42,2a69,69,0,0,0-1.29-10.29C379.35,527.11,379.18,526.32,379,525.51Z"
        transform="translate(0.28)"/>
  <path class="cls-31" d="M429,532.33l-.55-1.27c0,1,0,1.87-.05,2.73Z" transform="translate(0.28)"/>
  <path class="cls-31" d="M361.86,552.16v2.93h19.48c.12-.35.24-.7.35-1C374.46,554.24,366.9,553.88,361.86,552.16Z"
        transform="translate(0.28)"/>
  <path class="cls-31" d="M361.86,595h18.79a6.71,6.71,0,0,1-1.73-2.64c-2.6-6.68-2.47-14.76-1.28-22.29H361.86V595Z"
        transform="translate(0.28)"/>
  <path class="cls-32"
        d="M392.78,600.5v-1a4.31,4.31,0,0,1,.88-2.72h-8.15a6.61,6.61,0,0,1-4.86-1.76H361.86v3.93a5.82,5.82,0,0,0,4.44,5.88,6.13,6.13,0,0,0,1.15.17H397A4.34,4.34,0,0,1,392.78,600.5Z"
        transform="translate(0.28)"/>
  <path class="cls-31"
        d="M448.64,595h-2.83a23.49,23.49,0,0,1-2.93,2H411.73l.57-.26H393.66a4.31,4.31,0,0,0-.88,2.72v1A4.34,4.34,0,0,0,397,605h53.76c.7-3.45,1.45-6.82,2.26-10Z"
        transform="translate(0.28)"/>
  <path class="cls-30"
        d="M442.88,597a23.49,23.49,0,0,0,2.93-2,41.18,41.18,0,0,0,8.56-9.21c-8.37,4-23.58,11-37.61,11H412.3l-.57.26Z"
        transform="translate(0.28)"/>
  <path class="cls-30"
        d="M460.52,583a32.33,32.33,0,0,0-4.46,2q-.8,2.1-1.53,4.51c-.53,1.74-1,3.6-1.54,5.52-.81,3.16-1.56,6.53-2.26,10-4,19.76-6.08,42-6.08,42h0c.07-.66,3.58-36.41,10.09-57l15.45,26.36,4.19-11.49a23.47,23.47,0,0,1-2.88-4.19C466.92,591.15,465.09,582.08,460.52,583Z"
        transform="translate(0.28)"/>
  <path class="cls-30" d="M456.1,650.84c-.3,0-.59,0-.89,0h0l.66,0Z" transform="translate(0.28)"/>
  <path class="cls-33"
        d="M377.64,570.06c-1.19,7.53-1.32,15.61,1.28,22.29a6.71,6.71,0,0,0,1.73,2.64,6.61,6.61,0,0,0,4.86,1.76h31.25c14,0,29.24-6.93,37.61-11l1.69-.82a32.33,32.33,0,0,1,4.46-2c4.57-.91,6.4,8.16,11,17.69a23.47,23.47,0,0,0,2.88,4.19c10.14,12.51,40.13,38,40.13,38h1.27c-2.35-3.71-5.3-8.17-5.3-8.17l10.07-.8a76.43,76.43,0,0,0,4.88,6.78,7.75,7.75,0,0,0,1-.89s-22.13-43.65-39.79-69.72Z"
        transform="translate(0.28)"/>
  <path class="cls-33"
        d="M420.12,554.1l.68-1.66a42.9,42.9,0,0,1-4.3.48c-2,.13-4.17.18-6.49.18-3.46,0-7.21-.14-10.79-.4-3.78.46-10.49,1.16-17.53,1.35-.11.34-.23.69-.35,1h20.42v-1Z"
        transform="translate(0.28)"/>
  <path class="cls-30" d="M412.16,481.72,412,481l-.18,1.3A3.57,3.57,0,0,0,412.16,481.72Z" transform="translate(0.28)"/>
  <path class="cls-30" d="M393,480c-.07.41-.18,1-.31,1.68.25-.35.48-.67.7-.95C393.27,480.45,393.14,480.2,393,480Z"
        transform="translate(0.28)"/>
  <path class="cls-30"
        d="M367.73,479.61c-15.4,12.86-13.69,27.5-6.69,35.48,3.51-11.58,8.1-22.6,11.33-27.2,5.35-7.63,20.81-8.6,20.81-8.6l0,.08c1.89-.31,3.9-2.49,5.48-13.05l.47.17a10.17,10.17,0,0,1-.23-4.2c.2-1.39.36-2.73.5-4-4.7-.37-6.6-2-6.6-2a33.79,33.79,0,0,0,8.08-11,6,6,0,0,1,4.95-3.58c4-.35,10.3-.56,14.82.85,1.79-.38,3.94.09,5.83,3,3.34,5.13-1,14.76-2.55,17.84-1.86,6.81-4.91,14.18-7.9,14h0a30.53,30.53,0,0,1-3.29-.71c-.22,1.19-.45,2.48-.65,3.76,2.33.43,16.92,3.36,18.77,10l.14.51c9.29-11.61,3.42-42.43-5.71-52.59a11.78,11.78,0,0,0-3.15-2.58l-.82-.39c-5-2.25-11.87-2.58-13.05-2.73-14.8-2-23.72,19.38-24.24,25.85a22.21,22.21,0,0,1-1.62,7.12C379.8,471.53,374.51,474,367.73,479.61Z"
        transform="translate(0.28)"/>
  <path class="cls-23"
        d="M393.43,480.73c.76-1,1.27-1.52,1.41-1.43,11.46,6.77,15.52,4.8,16.93,3L412,481l-.22-.73.33,0c.2-1.28.43-2.57.65-3.76l-.95-.26c-.16,1-.32,2-.46,3-4.34-.86-7-4.17-8.64-7.52a10.86,10.86,0,0,1-3.55-5.28l-.47-.17c-1.58,10.56-3.59,12.74-5.48,13.05L393,480C393.14,480.2,393.27,480.45,393.43,480.73Z"
        transform="translate(0.28)"/>
  <path class="cls-34"
        d="M411.3,479.29c.14-1,.3-2,.46-3a25.34,25.34,0,0,1-9.1-4.55C404.29,475.12,407,478.43,411.3,479.29Z"
        transform="translate(0.28)"/>
  <path class="cls-23"
        d="M402.66,471.77a25.34,25.34,0,0,0,9.1,4.55l.95.26a30.53,30.53,0,0,0,3.29.71h0c3,.23,6-7.14,7.9-14-.32.62-.52,1-.52,1,1.1-2.75.69-9.68-.7-12.57a12.55,12.55,0,0,0-1.27-2C417,453,410,457.61,404.57,458.17a27.92,27.92,0,0,1-5.19.09c-.14,1.3-.3,2.64-.5,4a10.17,10.17,0,0,0,.23,4.2A10.86,10.86,0,0,0,402.66,471.77Z"
        transform="translate(0.28)"/>
  <path class="cls-30"
        d="M404.57,458.17c5.41-.56,12.42-5.14,16.85-8.43a41.58,41.58,0,0,0-4.7-5,8.53,8.53,0,0,1,3.91-2.22c-4.52-1.41-10.83-1.2-14.82-.85a6,6,0,0,0-4.95,3.58,33.79,33.79,0,0,1-8.08,11s1.9,1.61,6.6,2A27.92,27.92,0,0,0,404.57,458.17Z"
        transform="translate(0.28)"/>
  <path class="cls-30"
        d="M416.72,444.72a41.58,41.58,0,0,1,4.7,5,12.55,12.55,0,0,1,1.27,2c1.39,2.89,1.8,9.82.7,12.57,0,0,.2-.37.52-1,1.55-3.08,5.89-12.71,2.55-17.84-1.89-2.91-4-3.38-5.83-3A8.53,8.53,0,0,0,416.72,444.72Z"
        transform="translate(0.28)"/>
  <path class="cls-14" d="M422.22,548.07l.28.22.07-.18h-.19Z" transform="translate(0.28)"/>
  <path class="cls-14"
        d="M383.07,518.92c-1.31,2.16-2.73,4.43-4.07,6.59.18.81.35,1.6.49,2.33a69,69,0,0,1,1.29,10.29l.28.06a69.11,69.11,0,0,0-1.25-10Z"
        transform="translate(0.28)"/>
  <path class="cls-14" d="M417.55,548.25l-.27,0,1,.21C418,548.36,417.75,548.29,417.55,548.25Z"
        transform="translate(0.28)"/>
  <path class="cls-14"
        d="M416.85,548.22a16.75,16.75,0,0,0-2.74.47,14,14,0,0,1,1.61,4.23c-1.74.12-3.67.17-5.71.18,2.32,0,4.53-.05,6.49-.18a42.9,42.9,0,0,0,4.3-.48l.56-1.36a3.41,3.41,0,0,1-1.1-.21A21.21,21.21,0,0,1,416.85,548.22Z"
        transform="translate(0.28)"/>
  <path class="cls-14" d="M421.47,550.79l.52-1.26c-.59-.15-1.27-.36-1.93-.56Z" transform="translate(0.28)"/>
  <path class="cls-14"
        d="M394.84,479.3c-.14-.09-.65.43-1.41,1.43-.22.28-.45.6-.7.95-1.23,6.49-4.5,24.12-4.5,27.08,0,1-1.18,3.35-2.86,6.29,0,5.22.43,16.13,4.32,19.64s13.67,6.77,19.52,9.84c3-.37,6-.59,6.94-.21.26.11.57.27.91.45l-1.34-1.65,7.25,4,5.46-13.34c0-.86,0-1.77.05-2.73-4.56-10.63-10.5-30-10.5-30l-5.82-19.29a3.57,3.57,0,0,1-.39.6C410.36,484.1,406.3,486.07,394.84,479.3Z"
        transform="translate(0.28)"/>
  <path class="cls-33"
        d="M454.74,590c-6.51,20.61-10,56.36-10.09,57v0c.42.27.86.53,1.29.78,1.3-5.09,2.15-10,2.15-10l10.52,1.83s-1.63,5.15-3.4,11.09c.3,0,.59,0,.89,0,.6,0,1.2,0,1.8-.05l1-2.74,11.65-31-.39-.68Z"
        transform="translate(0.28)"/>
  <path class="cls-14"
        d="M412.06,480.34l-.33,0,.22.73.21.7L418,501s5.94,19.42,10.5,30l.55,1.27,7.84-19.13h.35L431,490.83l-.14-.51C429,483.7,414.39,480.77,412.06,480.34Z"
        transform="translate(0.28)"/>
  <path class="cls-35"
        d="M389.69,534.69c-3.89-3.51-4.34-14.42-4.32-19.64-.7,1.21-1.48,2.52-2.3,3.87l-3.26,9.27a69.11,69.11,0,0,1,1.25,10c8.1,1.81,19.8,4.27,20.85,6a5.13,5.13,0,0,1,.53,1.31c1.24-.21,4-.66,6.77-1C403.36,541.46,393.53,538.17,389.69,534.69Z"
        transform="translate(0.28)"/>
  <path class="cls-35"
        d="M414.11,548.69l-1.82.47c-5.85,1.53-9.44.75-9.44.75l-.13-.52a21.39,21.39,0,0,1-.36,2.9s-1.18.17-3.14.41c3.58.26,7.33.4,10.79.4,2,0,4-.06,5.71-.18A14,14,0,0,0,414.11,548.69Z"
        transform="translate(0.28)"/>
  <path class="cls-23"
        d="M418.91,547l-1.85-2.26c-.34-.18-.65-.34-.91-.45-.9-.38-3.9-.16-6.94.21-2.75.33-5.53.78-6.77,1a12.9,12.9,0,0,1,.28,3.87l.13.52s3.59.78,9.44-.75l1.82-.47a16.75,16.75,0,0,1,2.74-.47l-.13-.11.56.12.27,0c.2,0,.45.11.73.19l1.63.34.15.19c.66.2,1.34.41,1.93.56l.51-1.24-.28-.22A17.65,17.65,0,0,1,418.91,547Z"
        transform="translate(0.28)"/>
  <path class="cls-14"
        d="M381.69,554.05c7-.19,13.75-.89,17.53-1.35,2-.24,3.14-.41,3.14-.41a21.39,21.39,0,0,0,.36-2.9,12.9,12.9,0,0,0-.28-3.87,5.13,5.13,0,0,0-.53-1.31c-1.05-1.75-12.75-4.21-20.85-6l-.28-.06c-4-.89-7-1.62-7.42-2s2.31-5.22,5.64-10.6c1.34-2.16,2.76-4.43,4.07-6.59.82-1.35,1.6-2.66,2.3-3.87,1.68-2.94,2.86-5.31,2.86-6.29,0-3,3.27-20.59,4.5-27.08.13-.71.24-1.27.31-1.68l.12-.63,0-.08s-15.46,1-20.81,8.6c-3.23,4.6-7.82,15.62-11.33,27.2-4.7,15.46-7.49,31.92-2.59,35.41.11.08.24.15.36.22a13.71,13.71,0,0,0,3.05,1.44C366.9,553.88,374.46,554.24,381.69,554.05Z"
        transform="translate(0.28)"/>
  <path class="cls-23"
        d="M419.91,548.78l-1.63-.34-1-.21-.56-.12.13.11a21.21,21.21,0,0,0,3.41,2.65,3.41,3.41,0,0,0,1.1.21l.11-.29L420.06,549Z"
        transform="translate(0.28)"/>
  <path class="cls-23" d="M417.06,544.77l1.85,2.26a17.65,17.65,0,0,0,3.31,1l.16,0h.19l.4-1-7.25-4Z"
        transform="translate(0.28)"/>
  <path class="cls-29"
        d="M429,532.33l-.6,1.46L423,547.13l-.4,1-.07.18-.51,1.24-.52,1.26-.11.29-.56,1.36-.68,1.66h56.74l16.66-40.9H436.87Zm28.68,1.32a3.46,3.46,0,0,1,3.08-2.49,1.86,1.86,0,0,1,.74.13,1.81,1.81,0,0,1,1,2.36,3.46,3.46,0,0,1-3.08,2.49,1.79,1.79,0,0,1-1.71-2.49Z"
        transform="translate(0.28)"/>
  <polygon class="cls-28"
           points="420.4 554.1 402.04 554.1 402.04 555.09 419.99 555.09 476.73 555.09 477.17 555.09 477.84 554.1 477.14 554.1 420.4 554.1"/>
  <path class="cls-14"
        d="M458.69,536a1.82,1.82,0,0,0,.73.13,3.46,3.46,0,0,0,3.08-2.49,1.81,1.81,0,0,0-1-2.36,1.86,1.86,0,0,0-.74-.13,3.46,3.46,0,0,0-3.08,2.49A1.81,1.81,0,0,0,458.69,536Z"
        transform="translate(0.28)"/>
  <path class="cls-31" d="M156.48,515.2h-.19A3.86,3.86,0,0,0,152.4,519v76h8V519A3.87,3.87,0,0,0,156.48,515.2Z"
        transform="translate(0.28)"/>
  <path class="cls-32"
        d="M157.1,605h0l-.74,35.95-.94,45.51h0a1.24,1.24,0,0,0,1.17,1.32h.11a1.33,1.33,0,0,0,1.26-1.33l2.22-43.25,2-38.2Z"
        transform="translate(0.28)"/>
  <path class="cls-31"
        d="M249.92,605h-5.47l4.06,69,.73,12.48a1.42,1.42,0,0,0,1.44,1.33h.13a1.32,1.32,0,0,0,1.33-1.31v0l-.2-8.34-1.72-73.15Z"
        transform="translate(0.28)"/>
  <path class="cls-31"
        d="M157.1,605h92.82l.3,0a4.35,4.35,0,0,0,3.92-4.43v-1a4.35,4.35,0,0,0-3.54-4.38H181.11l-.05-.09H151.4v3.93a5.88,5.88,0,0,0,5.67,6Z"
        transform="translate(0.28)"/>
  <path class="cls-13"
        d="M229,561h0a67.35,67.35,0,0,1-9.14,4.08l-.7-.53-.46.18c-2.49.94-5.48,1.95-8.93,2.91l-.54.14a130.79,130.79,0,0,1-31.3,4.27,5.61,5.61,0,0,1-.59-.06c.13,2.72.94,17.58,3.71,23l.05.09h71.52l2.45.27.54-25.29h-9a5.56,5.56,0,0,1-5.44-5.67v-2.17c-5.08-1-9.32-1.72-12-2A2.88,2.88,0,0,1,229,561Z"
        transform="translate(0.28)"/>
  <path class="cls-13"
        d="M281.73,571.72c-1.93-.54-4-1.1-6.19-1.66H263l-1.39,26.08c4.45.58,9.05,1.31,9.82,1.89,1.82,1.34-5.54,13.77,19.2,60q3.19,6,7.14,12.73l1.54,0,.08-1s7.13-9.8,10.83-1.64a14,14,0,0,0,1.4,2.38l2.41-.06s-4.43-24-9.17-47.79c-4.55-22.83-9.38-45.48-10.86-46.62C292.74,575,288.08,573.49,281.73,571.72Z"
        transform="translate(0.28)"/>
  <path class="cls-23"
        d="M203.06,464a24.49,24.49,0,0,0,15.2,1.86l.74.76c.06-.3.12-.62.18-.91.45-2.21.81-4.44,1.1-6.68.15-1.23.29-2.46.4-3.69h-.52c-.09.9-.3,2.43-.76,5-7.62-2.39-11.69-6-14-9.37a10.19,10.19,0,0,1-2.06-2.66c-.09.38-.16.77-.26,1.14a35.87,35.87,0,0,1-4.61,10.76A10,10,0,0,0,203.06,464Z"
        transform="translate(0.28)"/>
  <path class="cls-31"
        d="M209.24,567.77l.54-.14c3.45-1,6.44-2,8.93-2.91l.46-.18c-24.87-18.73-24.74-61.57-24.88-62.31l1.38,1.2c-.52-1.05-1-2.09-1.5-3.11-7.95-16.92,11-33.89,27-24.18.12.08.34.09.37.23,2.87,12.49,5.38,21.5,7.56,28.1.54-10.94-.28-24-7.24-34.94l-2.82-2.9-.74-.76a24.49,24.49,0,0,1-15.2-1.86,10,10,0,0,1-4.55-3.8c-.45-.73-.56-1.09-1-.72-15.57,13.17-21.48,31.41-25.85,69-2.73,23.5-1.36,42.29,5.69,43.46a5.61,5.61,0,0,0,.59.06A130.79,130.79,0,0,0,209.24,567.77Z"
        transform="translate(0.28)"/>
  <path class="cls-34"
        d="M219.4,460.34c.46-2.56.67-4.09.76-5-4.54,0-10.87-.81-14.72-4.38C207.71,454.32,211.78,458,219.4,460.34Z"
        transform="translate(0.28)"/>
  <path class="cls-23"
        d="M205.44,451c3.85,3.57,10.18,4.35,14.72,4.38h.52a40.69,40.69,0,0,0,4.92-.31c4.67-1,5.14-17.42,4.2-25.46-3.08.18-8.59-2.89-12.84-2.6-4.86.33-5.84,7-7.49,7.94s-1-.71-3.22-1.69-2.46,2.55-1.84,4.85c.58,2.12-2,4.83-2.4,5.24l.15,1.1a10.71,10.71,0,0,0,1.22,3.89A10.19,10.19,0,0,0,205.44,451Z"
        transform="translate(0.28)"/>
  <polygon class="cls-36"
           points="322.5 512.2 309.2 553.69 309.27 553.69 309.26 555.09 310.65 555.09 324.24 512.73 322.5 512.2"/>
  <polygon class="cls-36"
           points="309.2 553.69 299.25 553.57 261.43 553.1 261.41 555.09 309.26 555.09 309.27 553.69 309.2 553.69"/>
  <path class="cls-37"
        d="M204.41,438.08c-.62-2.3-.38-5.84,1.84-4.85s1.56,2.6,3.22,1.69,2.63-7.61,7.49-7.94c4.25-.29,9.76,2.78,12.84,2.6a2.7,2.7,0,0,0,1.17-.31c2.62-1.45,9.36-13.72-10.77-15.4-15.27-1.26-20.8.53-23.4,3a2.68,2.68,0,0,1,1.37-1.91c-2.23.52-2.94,2.7-3.14,3.93a3.91,3.91,0,0,0-1.74.45c.93.06,1.35.22,1.53.42l-.38.77c-1.43,2.87,1.37,16.39,4.44,19.6l3.07,3.21.06-.06C202.42,442.91,205,440.2,204.41,438.08Z"
        transform="translate(0.28)"/>
  <path class="cls-38"
        d="M195.67,503.43l-1.38-1.2c.14.74,0,43.58,24.88,62.31l.7.53A67.35,67.35,0,0,0,229,561h0a2.88,2.88,0,0,0,.17-.78c.2-2.21-2.17-3.83-1.49-11.36a8.2,8.2,0,0,0-.21-2.52l-.13-2.06C216.52,539.62,204.05,520.47,195.67,503.43Z"
        transform="translate(0.28)"/>
  <path class="cls-23"
        d="M274.92,547.49l-.5.08v0a46.44,46.44,0,0,0,6.88.5c1.87-.09,6.8-2.8,10.05-4.47a11.52,11.52,0,0,1-2.31-2.41l3.69-.09,1.17,1.31a1.42,1.42,0,0,1,.36-.09c1.23,0,4,2,4.75,1.11,0,0-1.88-2.81-2.94-3.36s-5.58-3.42-7-3.91c-.91-.32-4.42,1.12-7.32,2.47a10.27,10.27,0,0,1-.42,1.33l-3.31,1.14c.27-.34.51-.69.76-1l-.59.31c-.21.11-.43.19-.65.28C279.52,547.7,274.92,547.49,274.92,547.49Z"
        transform="translate(0.28)"/>
  <path class="cls-23" d="M289.05,541.22a11.52,11.52,0,0,0,2.31,2.41c1.37,1.09,3.14,2,4.67,1.18l-2.12-2.37-1.17-1.31Z"
        transform="translate(0.28)"/>
  <path class="cls-23"
        d="M281.38,540a10.27,10.27,0,0,0,.42-1.33,10.49,10.49,0,0,0,.26-1.57,1.23,1.23,0,0,0-.54-1c-.83,1.37-1.74,2.68-2.69,4-.25.34-.49.69-.76,1Z"
        transform="translate(0.28)"/>
  <path class="cls-31"
        d="M221.5,476.37c0-.14-.25-.15-.37-.23-16-9.71-34.91,7.26-27,24.18.48,1,1,2.06,1.5,3.11,8.38,17,20.85,36.19,31.68,40.84a12.46,12.46,0,0,0,3.55,1c8.55,1,32.75,4.08,43.52,2.31l.5-.08s4.6.21,2.67-6.8c-.1-.36-.2-.72-.34-1.12,0,0-34-9.43-39.61-16.75-1.93-2.51-4.73-6.66-8.58-18.35C226.88,497.87,224.37,488.86,221.5,476.37Z"
        transform="translate(0.28)"/>
  <path class="cls-39"
        d="M644.3,570.06l2.54,47.64,3.65,68.23a1.85,1.85,0,0,0,1.8,1.82h.15a1.73,1.73,0,0,0,1.67-1.8v0l-1.17-54.69-1.31-61.17Z"
        transform="translate(0.28)"/>
  <path class="cls-39"
        d="M263,570.06h-7.33l-.54,25.29-1.78,83.22-.16,7.35v0a1.73,1.73,0,0,0,1.67,1.8H255a1.86,1.86,0,0,0,1.8-1.82l.4-7.4,4.4-82.39Z"
        transform="translate(0.28)"/>
  <path class="cls-39"
        d="M644.3,570.06h15.34a5.56,5.56,0,0,0,5.44-5.67v-3.63a5.57,5.57,0,0,0-5.44-5.67H598.45l.8,2H542.51l-.79-2H246.61a5.57,5.57,0,0,0-5.44,5.67v3.63a5.56,5.56,0,0,0,5.44,5.67H644.3Z"
        transform="translate(0.28)"/>
  <path class="cls-24"
        d="M644.17,292.69a.65.65,0,0,0,.28.08c.21,0,.37-.15.49-.46a7.41,7.41,0,0,0-.43-4.53,5.53,5.53,0,0,0-1.37,3.35A1.68,1.68,0,0,0,644.17,292.69Z"
        transform="translate(0.28)"/>
  <path class="cls-24"
        d="M621.92,293.63a2.29,2.29,0,0,0,.73.13,1.26,1.26,0,0,0,1.15-.68c.69-1.18.44-3.47-.57-5.3a5.82,5.82,0,0,0-2,3.69C621.1,292.57,621.38,293.45,621.92,293.63Z"
        transform="translate(0.28)"/>
  <path class="cls-24"
        d="M648.93,287.13l-.18.21a2.08,2.08,0,0,0-1.37-.49,3.7,3.7,0,0,0-1.6.42,6.06,6.06,0,0,0-1.08.7c.88,1.61,1.14,3.84.58,5a1.24,1.24,0,0,1-1.1.75,1.61,1.61,0,0,1-.53-.1,2.2,2.2,0,0,1-1.61-2,5.23,5.23,0,0,1,1.91-3.73,3.69,3.69,0,0,0-1-1.08,1,1,0,0,0-.54-.16,2.44,2.44,0,0,0-1.26.48,9.81,9.81,0,0,0-2.23,2.27,7.66,7.66,0,0,1,1,4.86,1.89,1.89,0,0,1-1.93,1.52,3.75,3.75,0,0,1-.82-.1,1.19,1.19,0,0,1-.93-1,2.14,2.14,0,0,1,0-.62.59.59,0,0,0,0,.14.64.64,0,0,0,.55.54,3.84,3.84,0,0,0,.76.08,1.45,1.45,0,0,0,1.55-1,5.69,5.69,0,0,0-.9-4,13.11,13.11,0,0,0-1.37,2.08,15.6,15.6,0,0,1,1.43-2.52,5.07,5.07,0,0,0-2.55-2.51,2.33,2.33,0,0,0-.59-.08c-1.27,0-3.09,1.07-4.51,2.66a10.83,10.83,0,0,1,.74,1.23c.78,1.48,1.33,3.37.57,4.25a1.21,1.21,0,0,1-1,.4,3.07,3.07,0,0,1-1-.22,2.42,2.42,0,0,1-1.54-3,3.05,3.05,0,0,1,.13-.32,7.63,7.63,0,0,1,1.36-2.34c-1.23-1.62-2.66-2.55-3.94-2.55l-.34,0a4.78,4.78,0,0,0-2.12.81c1,1.86,1.22,4.22.53,5.49a1.61,1.61,0,0,1-1.46.93,2.6,2.6,0,0,1-.83-.16c-.73-.26-1.11-1.28-1-2.58a6.08,6.08,0,0,1,2-3.83,5,5,0,0,0-1.09-1.24,3.74,3.74,0,0,0-2.33-.89,3.92,3.92,0,0,0-1.8.53l.64-.11,9,52.87h12.21Zm-12.14,4.72a6.93,6.93,0,0,0-.62,2.14h0A4.27,4.27,0,0,1,636.79,291.85Z"
        transform="translate(0.28)"/>
  <path class="cls-24"
        d="M630.49,294.58a2.66,2.66,0,0,0,.88.18.72.72,0,0,0,.57-.21c.48-.54.2-2.06-.68-3.7a12,12,0,0,0-.66-1.08,7,7,0,0,0-1.23,2.1C628.9,293.21,629.28,294.13,630.49,294.58Z"
        transform="translate(0.28)"/>
  <path class="cls-24"
        d="M608.63,313.71v11.57A13.4,13.4,0,0,0,622,338.65h3.16l-8.93-52.55h0a4.69,4.69,0,0,1,3.06-1.3,4.25,4.25,0,0,1,2.65,1,5.32,5.32,0,0,1,1.2,1.35,5.34,5.34,0,0,1,2.34-.88,2.75,2.75,0,0,1,.4,0c1.43,0,3,1,4.33,2.68,1.52-1.67,3.44-2.76,4.88-2.76a2.67,2.67,0,0,1,.75.11,5.51,5.51,0,0,1,2.75,2.57,9.7,9.7,0,0,1,2.22-2.21,3,3,0,0,1,1.58-.58,1.52,1.52,0,0,1,.85.26,4.14,4.14,0,0,1,1.18,1.18,6.33,6.33,0,0,1,1.12-.73,4,4,0,0,1,1.85-.49,2.61,2.61,0,0,1,1.62.54l.19-1,1.94.35-9.85,52.52h2.08a13.4,13.4,0,0,0,13.35-13.38V313.69a34.77,34.77,0,0,1,8-22,41.44,41.44,0,0,0-39.43-67.08c-.54.1-1.07.2-1.6.32a41.49,41.49,0,0,0-22.94,66.81A34.59,34.59,0,0,1,608.63,313.71Z"
        transform="translate(0.28)"/>
  <path class="cls-32" d="M635.25,356.6a6.35,6.35,0,0,0,5.51-2.6l-10,2.6Z" transform="translate(0.28)"/>
  <path class="cls-32"
        d="M641.09,339.65h0c-12.19,3.76-17.36,5.34-19.56,6l-.16-1.14-.15-1.15c2.87-.86,9.08-2.76,15.34-4.69h-9.48l.12.68-1.87.32-.17-1H620.2l.64,4.31L621,344l.16,1.05.59,4,0,.28c4.56-1.26,13.17-3.67,20.35-5.68l-.15,1.14h0l-.16,1.16c-11.06,3.11-16.76,4.69-19.72,5.5l.2,1.35a3.62,3.62,0,0,0,1.16,2.09,5.72,5.72,0,0,0,1,.78l0,0a5.65,5.65,0,0,0,.66.31c4.29-1.1,10.52-2.72,16.14-4.18l.11-.83h0l.73-5.42.16-1.14h0l.15-1.13.58-4.26-2,.62Z"
        transform="translate(0.28)"/>
  <path class="cls-39" d="M641.09,339.64l2-.62h0l0-.37h-1.87Z" transform="translate(0.28)"/>
  <path class="cls-39"
        d="M639.27,338.65h-2.73c-6.26,1.93-12.47,3.83-15.34,4.69l.15,1.15.16,1.14c2.2-.65,7.37-2.23,19.56-6l-1.92-.34Z"
        transform="translate(0.28)"/>
  <path class="cls-39"
        d="M642,344.79h0l.15-1.14c-7.18,2-15.79,4.42-20.35,5.68l-.59.16.15,1v0l.16,1.07.6-.17c3-.81,8.66-2.39,19.72-5.5Z"
        transform="translate(0.28)"/>
  <path class="cls-39"
        d="M624.19,356.27a6.16,6.16,0,0,0,1,.71h0l0,0a7.72,7.72,0,0,0,1.6.6l3.87-1,10-2.6,1.07-.28.15-1.05h0l.16-1-.78.2c-5.62,1.46-11.85,3.08-16.14,4.18Z"
        transform="translate(0.28)"/>
  <path class="cls-14" d="M627.18,339.33l-.12-.68-9-52.87-.64.11a3.66,3.66,0,0,0-.81.61l-.41-.4h0l8.93,52.55.17,1Z"
        transform="translate(0.28)"/>
  <path class="cls-14" d="M648.93,287.13l-9.66,51.52-.12.65,1.92.34h0l.18-1,9.85-52.52-1.94-.35-.19,1,.13.1Z"
        transform="translate(0.28)"/>
  <path class="cls-14" d="M636.79,291.85a4.27,4.27,0,0,0-.63,2.14h0A6.93,6.93,0,0,1,636.79,291.85Z"
        transform="translate(0.28)"/>
  <path class="cls-14"
        d="M617.44,285.89a3.92,3.92,0,0,1,1.8-.53,3.74,3.74,0,0,1,2.33.89,5,5,0,0,1,1.09,1.24,6.08,6.08,0,0,0-2,3.83c-.14,1.3.24,2.32,1,2.58a2.6,2.6,0,0,0,.83.16,1.61,1.61,0,0,0,1.46-.93c.69-1.27.46-3.63-.53-5.49a4.78,4.78,0,0,1,2.12-.81l.34,0c1.28,0,2.71.93,3.94,2.55a7.63,7.63,0,0,0-1.36,2.34,3.05,3.05,0,0,0-.13.32,2.42,2.42,0,0,0,1.54,3,3.07,3.07,0,0,0,1,.22,1.21,1.21,0,0,0,1-.4c.76-.88.21-2.77-.57-4.25a10.83,10.83,0,0,0-.74-1.23c1.42-1.59,3.24-2.66,4.51-2.66a2.33,2.33,0,0,1,.59.08,5.07,5.07,0,0,1,2.55,2.51,15.6,15.6,0,0,0-1.43,2.52,13.11,13.11,0,0,1,1.37-2.08,5.69,5.69,0,0,1,.9,4,1.45,1.45,0,0,1-1.55,1,3.84,3.84,0,0,1-.76-.08.64.64,0,0,1-.55-.54.59.59,0,0,1,0-.14,2.14,2.14,0,0,0,0,.62,1.19,1.19,0,0,0,.93,1,3.75,3.75,0,0,0,.82.1,1.89,1.89,0,0,0,1.93-1.52,7.66,7.66,0,0,0-1-4.86,9.81,9.81,0,0,1,2.23-2.27,2.44,2.44,0,0,1,1.26-.48,1,1,0,0,1,.54.16,3.69,3.69,0,0,1,1,1.08A5.23,5.23,0,0,0,642,291.6a2.2,2.2,0,0,0,1.61,2,1.61,1.61,0,0,0,.53.1,1.24,1.24,0,0,0,1.1-.75c.56-1.14.3-3.37-.58-5a6.06,6.06,0,0,1,1.08-.7,3.7,3.7,0,0,1,1.6-.42,2.08,2.08,0,0,1,1.37.49l.18-.21.19-.23-.13-.1a2.61,2.61,0,0,0-1.62-.54,4,4,0,0,0-1.85.49,6.33,6.33,0,0,0-1.12.73,4.14,4.14,0,0,0-1.18-1.18,1.52,1.52,0,0,0-.85-.26,3,3,0,0,0-1.58.58,9.7,9.7,0,0,0-2.22,2.21,5.51,5.51,0,0,0-2.75-2.57,2.67,2.67,0,0,0-.75-.11c-1.44,0-3.36,1.09-4.88,2.76-1.32-1.71-2.9-2.68-4.33-2.68a2.75,2.75,0,0,0-.4,0,5.34,5.34,0,0,0-2.34.88,5.32,5.32,0,0,0-1.2-1.35,4.25,4.25,0,0,0-2.65-1,4.69,4.69,0,0,0-3.06,1.3h0l.41.4A3.66,3.66,0,0,1,617.44,285.89Zm27.07,1.89a7.41,7.41,0,0,1,.43,4.53c-.12.31-.28.46-.49.46a.65.65,0,0,1-.28-.08,1.68,1.68,0,0,1-1-1.56A5.53,5.53,0,0,1,644.51,287.78Zm-13.91,2a12,12,0,0,1,.66,1.08c.88,1.64,1.16,3.16.68,3.7a.72.72,0,0,1-.57.21,2.66,2.66,0,0,1-.88-.18c-1.21-.45-1.59-1.37-1.12-2.71A7,7,0,0,1,630.6,289.77Zm-7.37-2c1,1.83,1.26,4.12.57,5.3a1.26,1.26,0,0,1-1.15.68,2.29,2.29,0,0,1-.73-.13c-.54-.18-.82-1.06-.7-2.16A5.82,5.82,0,0,1,623.23,287.78Z"
        transform="translate(0.28)"/>
  <rect class="cls-21" x="338.4" y="332.41" width="5.98" height="15.96"/>
  <path class="cls-21"
        d="M338.9,330.91h4.42c.43,0,.78-.11.78-.25s-.35-.25-.78-.25H338.9c-.43,0-.78.12-.78.25S338.47,330.91,338.9,330.91Z"
        transform="translate(0.28)"/>
  <polygon class="cls-21"
           points="333.41 318.44 332.37 318.44 326.48 318.44 325.43 318.44 325.43 349.37 333.41 349.37 333.41 318.44"/>
  <path class="cls-21"
        d="M333.13,318c0-.28-.47-.5-1.05-.5H326.2c-.58,0-1.05.22-1.05.5s.47.49,1.05.49h5.89C332.66,318.44,333.13,318.22,333.13,318Z"
        transform="translate(0.28)"/>
  <rect class="cls-21" x="314.46" y="298.5" width="7.98" height="50.87"/>
  <path class="cls-21"
        d="M315.23,297.5h5.89c.57,0,1-.23,1-.5s-.47-.5-1.05-.5h-5.88c-.58,0-1.05.22-1.05.5S314.65,297.5,315.23,297.5Z"
        transform="translate(0.28)"/>
  <polygon class="cls-21"
           points="310.47 306.48 309.43 306.48 303.54 306.48 302.49 306.48 302.49 349.37 310.47 349.37 310.47 306.48"/>
  <path class="cls-21"
        d="M310.19,306c0-.28-.47-.5-1.05-.5h-5.88c-.58,0-1.05.22-1.05.5s.47.49,1.05.49h5.89C309.72,306.47,310.19,306.25,310.19,306Z"
        transform="translate(0.28)"/>
  <rect class="cls-21" x="291.52" y="284.53" width="7.98" height="64.83"/>
  <path class="cls-21"
        d="M292.29,282.54h5.88c.58,0,1.05-.23,1.05-.5s-.47-.5-1.05-.5h-5.88c-.58,0-1.05.22-1.05.5S291.71,282.54,292.29,282.54Z"
        transform="translate(0.28)"/>
  <rect class="cls-21" x="279.55" y="294.51" width="7.98" height="53.86"/>
  <path class="cls-21"
        d="M280.32,293.51h5.89c.57,0,1-.23,1-.5s-.47-.5-1.05-.5h-5.88c-.58,0-1.05.22-1.05.5S279.74,293.51,280.32,293.51Z"
        transform="translate(0.28)"/>
  <rect class="cls-21" x="763.31" y="488.01" width="3.99" height="14.96"/>
  <path class="cls-21" d="M763.56,487h2.94a.5.5,0,1,0,0-1h-2.94a.5.5,0,1,0,0,1Z" transform="translate(0.28)"/>
  <rect class="cls-21" x="755.33" y="476.04" width="4.99" height="27.93"/>
  <path class="cls-21" d="M755.71,475h3.68a.51.51,0,1,0,0-1h-3.68a.52.52,0,1,0,0,1Z" transform="translate(0.28)"/>
  <polygon class="cls-21"
           points="754.34 456.09 753.68 456.09 750 456.09 749.35 456.09 749.35 503.97 754.34 503.97 754.34 456.09"/>
  <path class="cls-21"
        d="M754.06,455.59a.61.61,0,0,0-.66-.5h-3.68a.6.6,0,0,0-.65.5.6.6,0,0,0,.65.5h3.68A.61.61,0,0,0,754.06,455.59Z"
        transform="translate(0.28)"/>
  <polygon class="cls-21"
           points="746.36 464.07 745.7 464.07 742.02 464.07 741.37 464.07 741.37 503.97 746.36 503.97 746.36 464.07"/>
  <path class="cls-21"
        d="M746.08,463.57a.61.61,0,0,0-.66-.5h-3.68a.6.6,0,0,0-.65.5.6.6,0,0,0,.65.5h3.68A.61.61,0,0,0,746.08,463.57Z"
        transform="translate(0.28)"/>
  <rect class="cls-21" x="734.39" y="443.12" width="4.99" height="60.84"/>
  <path class="cls-21" d="M734.76,442.13h3.68a.52.52,0,1,0,0-1h-3.68a.52.52,0,1,0,0,1Z" transform="translate(0.28)"/>
  <rect class="cls-21" x="727.4" y="453.1" width="4.99" height="50.87"/>
  <path class="cls-21"
        d="M727.78,452.1h3.68a.59.59,0,0,0,.65-.5.6.6,0,0,0-.65-.5h-3.68a.61.61,0,0,0-.66.5A.6.6,0,0,0,727.78,452.1Z"
        transform="translate(0.28)"/>
  <path class="cls-18"
        d="M582.1,514.2H525.44l15.88,39.9h56.73Zm-21.92,21.94a4.06,4.06,0,0,1-3.7-2.49c-.46-1.38.46-2.49,2-2.49a4.07,4.07,0,0,1,3.7,2.49C562.69,535,561.77,536.14,560.18,536.14Z"
        transform="translate(0.28)"/>
  <polygon class="cls-18" points="542.79 557.09 599.53 557.09 598.73 555.09 542 555.09 542.79 557.09"/>
  <polygon class="cls-33"
           points="598.73 555.09 616.49 555.09 616.49 554.1 609.9 554.1 598.33 554.1 541.6 554.1 540.68 554.1 541.36 555.09 542 555.09 598.73 555.09"/>
  <path class="cls-14"
        d="M558.53,531.16c-1.59,0-2.51,1.11-2,2.49a4.06,4.06,0,0,0,3.7,2.49c1.59,0,2.51-1.11,2.05-2.49A4.07,4.07,0,0,0,558.53,531.16Z"
        transform="translate(0.28)"/>
  <path class="cls-40"
        d="M707,589s30.68,10,42.13,22.4c2.77-1.67,20.3-13,11.06-28.09,0,0-8-10-16.58-12.58,0,0,4.57,24.3,0,24.88s-3.15-27.45-3.15-27.45-22.59-10.87-31.45-10c0,0,14,23.73,9.44,23.16s-20.31-24.59-20.31-24.59-23.16-4.29-26.88,9.44,2.29,20.58,5.72,21.44,25.45.58,24.88,3.44-15.44,7.43-23.74,4.86c0,0,9.15,22.59,21.16,21.44s15.73-8.58,23.16-9.14,12.87,1.42,9.16,3.43-16.3.65-22.31,5.76-10.86,8.25.29,10.53,31.16.86,35.17-7.72l3.07-6.57C743.27,607.73,732.34,599.34,707,589Z"
        transform="translate(0.28)"/>
  <path class="cls-40"
        d="M749.11,611.41C737.66,599,707,589,707,589c25.36,10.33,36.29,18.72,40.82,24.63,4.83,6.3,2.37,9.78,2.37,9.78,2.36,1.38,6.68,11.47,6.68,11.47v-3a31.75,31.75,0,0,1-3.93-14.43A16.39,16.39,0,0,0,749.11,611.41Z"
        transform="translate(0.28)"/>
  <path class="cls-41"
        d="M496.71,185a5.3,5.3,0,0,0,5.79,3.78,5.31,5.31,0,0,1-3.79-2.21l30.8-28.22-42-12.48-.57-2.07a5.23,5.23,0,0,1,3.49-6.45l41.15-12-43,12.25h0A5.27,5.27,0,0,0,485,144Z"
        transform="translate(0.28)"/>
  <path class="cls-41"
        d="M565.52,120.66l0,.06-26,33.06,39,8.78a4.9,4.9,0,0,0-.16-.85l-11.77-40.95a5.3,5.3,0,0,0-5.63-3.77A5.08,5.08,0,0,1,565.52,120.66Z"
        transform="translate(0.28)"/>
  <path class="cls-42"
        d="M534.73,159.85l-5.22-1.55-30.8,28.22a5.31,5.31,0,0,0,3.79,2.21,5.14,5.14,0,0,0,2-.17l72.12-20.74A5.37,5.37,0,0,0,580.5,163l-2-.45-39-8.78Z"
        transform="translate(0.28)"/>
  <path class="cls-43"
        d="M486.94,143.75l.57,2.07,42,12.48,5.22,1.55,4.78-6.07,26-33.06,0-.06a5.15,5.15,0,0,0-6.29-3.5l-27.65,8.1-41.15,12A5.23,5.23,0,0,0,486.94,143.75Z"
        transform="translate(0.28)"/>
  <path class="cls-30"
        d="M630.68,675.24c0,.08-.06.16-.08.25-1.42,6.32-9.82,9.17-14.6,9.94s-4.78,4.26-4.78,4.26l29.77.06c1.89-.94,1-14.85.58-20l-.16-1.91S632.3,669.13,630.68,675.24Z"
        transform="translate(0.28)"/>
  <path class="cls-23"
        d="M458.61,639.71l-10.52-1.83s-.85,4.86-2.15,10c-1.21,4.76-2.82,9.71-4.51,11.07-1.87,1.49-4,1.51-5.75,2.62l-.37.24a13.44,13.44,0,0,0-2.88,2.33,2.93,2.93,0,0,0-.52,3.12h0c.75,2.09,3.22,4.41,6.1,6.73.36.3.69.57,1,.82l.22.2.17.15c2.68,2.49,1.68,3.06,6.49,8.1,4.23,4.43,7.44,5.5,9.18,5.53-1.73-.11-4.74-1.26-8.66-5.46-4.65-5-3.68-5.55-6.27-8a2.06,2.06,0,0,1-.16-.15l-.22-.2c-.27-.25-.58-.53-.93-.83-2.69-2.29-5-4.58-5.9-6.63v0a2.94,2.94,0,0,1,.5-3.09,13,13,0,0,1,2.78-2.3l.36-.24c2.18,3.13,4.31,8.52,7.5,12.72a22.6,22.6,0,0,0,9.16,7.05l-.27-.46-.82-1.37c-2.4-4.12-1.78-6.06-1.21-12.2.24-2.62,2.36-10.17,4.31-16.75h0C457,644.86,458.61,639.71,458.61,639.71Z"
        transform="translate(0.28)"/>
  <path class="cls-30"
        d="M444,674.54c-3.19-4.2-5.32-9.59-7.5-12.72l-.36.24a13,13,0,0,0-2.78,2.3,2.94,2.94,0,0,0-.5,3.09v0c.88,2,3.21,4.34,5.9,6.63.35.3.66.58.93.83l.22.2a2.06,2.06,0,0,0,.16.15c2.59,2.46,1.62,3,6.27,8,3.92,4.2,6.93,5.35,8.66,5.46a2.69,2.69,0,0,0,1.34-.19c.88-.44-.91-3.45-2.89-6.84l-.3-.13A22.6,22.6,0,0,1,444,674.54Z"
        transform="translate(0.28)"/>
  <path class="cls-23"
        d="M529.13,657.84a29.57,29.57,0,0,1-6.15,1,28.16,28.16,0,0,0,6.32-1,12.61,12.61,0,0,1,4.56-.48A12.55,12.55,0,0,0,529.13,657.84Z"
        transform="translate(0.28)"/>
  <path class="cls-23"
        d="M540.5,657.26a28.47,28.47,0,0,1-6,.18,27.94,27.94,0,0,0,6-.16c7.34-.81,9.58-3.54,9.79-4.63,0,0,0,0,0,0C550.11,653.75,547.85,656.46,540.5,657.26Z"
        transform="translate(0.28)"/>
  <path class="cls-23"
        d="M510.48,634.69s2.95,4.46,5.3,8.17c.79,1.25,1.51,2.42,2,3.29,1.19,2,1.14,4.72,1,6.81,3.47,0,8.64,1.36,13.55,1.24a20.9,20.9,0,0,0,10.6-3.28l0,0-1.4-.16c-4.39-.55-7.61-3.38-11.6-5.69a20,20,0,0,1-4.54-4.37,76.43,76.43,0,0,1-4.88-6.78Z"
        transform="translate(0.28)"/>
  <path class="cls-30"
        d="M532.35,654.2c-4.91.12-10.08-1.23-13.55-1.24h-.26a12.46,12.46,0,0,0,.08,3.45c.37,1.85,2,2.46,4.36,2.42a29.57,29.57,0,0,0,6.15-1,12.55,12.55,0,0,1,4.73-.47l.69.07a28.47,28.47,0,0,0,6-.18c7.35-.8,9.61-3.51,9.86-4.62v0c.2-1-3.46-1.31-7.38-1.76l0,0,0,0A20.9,20.9,0,0,1,532.35,654.2Z"
        transform="translate(0.28)"/>
  <path class="cls-22"
        d="M299.34,669.7l-.08,1c-.24,3.82-.87,16.77,1.81,17,.42,0,16,0,16,0l19.86-.11s-.13-4.84-5.93-5.86c-5.19-.92-14.9-5-19.42-11.34a14,14,0,0,1-1.4-2.38C306.47,659.9,299.34,669.7,299.34,669.7Z"
        transform="translate(0.28)"/>
  <path class="cls-44" d="M772,670.24V644.86H762A44.21,44.21,0,0,0,772,670.24Z" transform="translate(0.28)"/>
  <path class="cls-44" d="M761.88,643.87H772v-2H761.84C761.84,642.54,761.86,643.21,761.88,643.87Z"
        transform="translate(0.28)"/>
  <path class="cls-44" d="M761.84,686.76H772v-5h-4.89A5.13,5.13,0,0,0,761.84,686.76Z" transform="translate(0.28)"/>
  <polygon class="cls-45"
           points="761.12 643.87 761.12 644.86 762.23 644.86 772.29 644.86 772.29 643.87 762.16 643.87 761.12 643.87"/>
  <path class="cls-30"
        d="M683.75,664.19l-.72-1-1-1.41-8.55,2.11c-.12,1.25-.2,2.5-.27,3.75-.13,2.44-.18,4.88-.11,7.31.26,4.75-1.26,9.85-5.28,10.78s-2.35,4-2.35,4h10.78c2.26,0,4.77-2.38,5.4-6.72s5.28-6.73,6.28-10.28S683.75,664.19,683.75,664.19Z"
        transform="translate(0.28)"/>
  <path class="cls-46"
        d="M772,0H464.48C268.85,82.37,292,135.75,220.74,214.43l2.67.47-8.59,5.9q-2.83,3-5.86,6a51.59,51.59,0,0,1,4.16,6.49,51.07,51.07,0,0,1,2.75,43.28l-.33-.13a57.14,57.14,0,0,1-12.08,18.09l-.12-.14a50.5,50.5,0,0,1-15,9.84c-.94.4-1.9.76-2.86,1.1l0,.07a48.39,48.39,0,0,1-37.9-1.65l0,0A51.09,51.09,0,0,1,130.1,290.6C-146.86,513.11,63.52,848,332.89,711,465.37,643.62,509.19,849.67,729,734A322.5,322.5,0,0,0,772,707.15V686.76H761.84a5.13,5.13,0,0,1,5.28-5H772V670.24A44.21,44.21,0,0,1,762,644.86h-1.11v-1h1c0-.66,0-1.33,0-2H772V451.76l-.08-.08.08-290.3Zm-16.3,474.05h3.68a.51.51,0,1,1,0,1h-3.68a.52.52,0,1,1,0-1Zm-.66,2h5V504h-5Zm-6-20h.65a.6.6,0,0,1-.65-.5.6.6,0,0,1,.65-.5h3.68a.61.61,0,0,1,.66.5.61.61,0,0,1-.66.5h.66V504h-5Zm-8,8h.65a.6.6,0,0,1-.65-.5.6.6,0,0,1,.65-.5h3.68a.61.61,0,0,1,.66.5.61.61,0,0,1-.66.5h.66V504h-5Zm-6.33-22.94h3.68a.52.52,0,1,1,0,1h-3.68a.52.52,0,1,1,0-1Zm-.65,2h5V504h-5Zm-6.33,8h3.68a.6.6,0,0,1,.65.5.59.59,0,0,1-.65.5h-3.68a.6.6,0,0,1-.66-.5A.61.61,0,0,1,727.78,451.1Zm-.66,2h5V504h-5ZM623.64,224.93c.53-.12,1.06-.22,1.6-.32a41.44,41.44,0,0,1,39.43,67.08,34.77,34.77,0,0,0-8,22v11.58a13.4,13.4,0,0,1-13.35,13.38h-.21l0,.37h0l-.58,4.26-.15,1.13h0l-.16,1.14-.73,5.42h0l-.11.83.78-.2-.16,1h0l-.15,1.05-1.07.28a6.35,6.35,0,0,1-5.51,2.6h-4.51l-3.87,1a7.72,7.72,0,0,1-1.6-.6l0,0h0a6.16,6.16,0,0,1-1-.71l1-.27a5.65,5.65,0,0,1-.66-.31l0,0a5.72,5.72,0,0,1-1-.78,3.62,3.62,0,0,1-1.16-2.09l-.2-1.35-.6.17-.16-1.07v0l-.15-1,.59-.16,0-.28-.59-4L621,344l-.16-1.05-.64-4.31H622a13.4,13.4,0,0,1-13.35-13.37V313.71a34.59,34.59,0,0,0-7.93-22,41.49,41.49,0,0,1,22.94-66.81ZM488.55,137.51h0l43-12.25,27.65-8.1a5.12,5.12,0,0,1,1.68-.17,5.3,5.3,0,0,1,5.63,3.77l11.77,41a4.9,4.9,0,0,1,.16.85l2,.45a5.37,5.37,0,0,1-3.86,4.81l-72.12,20.74a5.14,5.14,0,0,1-2,.17,5.3,5.3,0,0,1-5.79-3.78L485,144A5.27,5.27,0,0,1,488.55,137.51ZM338.9,330.41h4.42c.43,0,.78.12.78.25s-.35.25-.78.25H338.9c-.43,0-.78-.11-.78-.25S338.47,330.41,338.9,330.41Zm-.78,2h6v16h-6Zm-13-14h1.05c-.58,0-1.05-.22-1.05-.49s.47-.5,1.05-.5h5.88c.58,0,1.05.22,1.05.5s-.47.49-1,.49h1v30.92h-8Zm-9.92-21.94h5.88c.58,0,1.05.22,1.05.5s-.47.5-1,.5h-5.89c-.58,0-1.05-.23-1.05-.5S314.65,296.5,315.23,296.5Zm-1.05,2h8v50.86h-8Zm-12,8h1.05c-.58,0-1.05-.22-1.05-.49s.47-.5,1.05-.5h5.88c.58,0,1.05.22,1.05.5s-.47.49-1,.49h1v42.89h-8Zm-9.92-24.93h5.88c.58,0,1.05.22,1.05.5s-.47.5-1.05.5h-5.88c-.58,0-1.05-.23-1.05-.5S291.71,281.54,292.29,281.54Zm-1.05,3h8v64.83h-8Zm-10.92,8h5.88c.58,0,1.05.22,1.05.5s-.47.5-1,.5h-5.89c-.58,0-1.05-.23-1.05-.5S279.74,292.51,280.32,292.51Zm-1.05,2h8v53.86h-8ZM687.89,672.75c-1,3.55-5.65,5.93-6.28,10.28s-3.14,6.72-5.4,6.72H665.43s-1.67-3.06,2.35-4,5.54-6,5.28-10.78c-.07-2.43,0-4.87.11-7.31a5.52,5.52,0,0,1-3.89-2.91c-3.28-6.5-10.21-20.39-16.34-33.54l1.17,54.69v0a1.73,1.73,0,0,1-1.67,1.8h-.15a1.85,1.85,0,0,1-1.8-1.82l-3.65-68.23c-.79-1.84-1.52-3.59-2.17-5.21-.82,24.65-2.5,48.9-3.1,57.23.4,5.18,1.31,19.09-.58,20l-29.77-.06s0-3.49,4.78-4.26,13.18-3.62,14.6-9.94c0-.09.06-.17.08-.25l-.39-.18s-4.78-2.46-5.41-6.33c-.46-2.85-8.63-60.81-13.35-98.67H486.65c17.66,26.07,39.79,69.72,39.79,69.72a7.75,7.75,0,0,1-1,.89A20,20,0,0,0,530,645c4,2.31,7.21,5.14,11.6,5.69l1.4.16,0,0c3.92.45,7.58.8,7.38,1.76v0s0,0,0,0c-.21,1.09-2.45,3.82-9.79,4.63a27.94,27.94,0,0,1-6,.16l-.69-.07a12.61,12.61,0,0,0-4.56.48,28.16,28.16,0,0,1-6.32,1c-2.33,0-4-.57-4.36-2.42a12.46,12.46,0,0,1-.08-3.45h.26c.15-2.09.2-4.77-1-6.81-.52-.87-1.24-2-2-3.29h-1.27s-30-25.49-40.13-38l-4.19,11.49.39.68-11.65,31,.68,38.37a1.18,1.18,0,0,1-1,1.33h-.1a1.25,1.25,0,0,1-1.07-1.33l-1.57-35.58-.66,0c-1.95,6.58-4.07,14.13-4.31,16.75-.57,6.14-1.19,8.08,1.21,12.2l.82,1.37.27.46.3.13c2,3.39,3.77,6.4,2.89,6.84a2.69,2.69,0,0,1-1.34.19c-1.74,0-4.95-1.1-9.18-5.53-4.81-5-3.81-5.61-6.49-8.1l-.17-.15-.22-.2c-.28-.25-.61-.52-1-.82-2.88-2.32-5.35-4.64-6.1-6.73h0a2.93,2.93,0,0,1,.52-3.12,13.44,13.44,0,0,1,2.88-2.33l.37-.24c1.79-1.11,3.88-1.13,5.75-2.62,1.69-1.36,3.3-6.31,4.51-11.07-.43-.25-.87-.51-1.29-.78v0h0s2.1-22.29,6.08-42H405.49l-4.19,81.45a1.33,1.33,0,0,1-1.26,1.33h-.11a1.25,1.25,0,0,1-1.17-1.31v0L400.44,605H372.65l-2.2,3.79L367,686.42a1.26,1.26,0,0,1-1.08,1.33h-.1a1.19,1.19,0,0,1-1-1.33l1.24-70.13-4.15,7.18a7,7,0,0,1-2.59,2.55,6.89,6.89,0,0,1-6.38.21l-28.1-13.43a6.74,6.74,0,0,0-2.89-.65,7,7,0,0,0-4.26,1.48c-2.6,2.07-5.32,4-8.09,5.9-1.58,1.06-3.19,2.07-4.82,3.06,4.74,23.8,9.17,47.79,9.17,47.79l-2.41.06c4.52,6.38,14.23,10.42,19.42,11.34,5.8,1,5.93,5.86,5.93,5.86l-19.86.11s-15.57,0-16,0c-2.68-.2-2.05-13.15-1.81-17l-1.54,0q-4-6.75-7.14-12.73l.41,9.81a6.73,6.73,0,0,1-5.86,7l-28,3.66-.4,7.4a1.86,1.86,0,0,1-1.8,1.82h-.15a1.73,1.73,0,0,1-1.67-1.8v0l.16-7.35a6.87,6.87,0,0,1-1.36-.49l.2,8.34v0a1.32,1.32,0,0,1-1.33,1.31h-.13a1.42,1.42,0,0,1-1.44-1.33l-.73-12.48c0-.08-.06-.15-.08-.22l-7-29.33a6.46,6.46,0,0,0-2.15-3.58,6.87,6.87,0,0,0-3.93-1.59,118.94,118.94,0,0,1-36.87-8.76,6.59,6.59,0,0,0-2.52-.5,6.86,6.86,0,0,0-5.5,2.78l-10.8,14.78a7,7,0,0,1-5.55,2.79,6.73,6.73,0,0,1-3.39-.91l-10.54-6.23-2.22,43.25a1.33,1.33,0,0,1-1.26,1.33h-.11a1.24,1.24,0,0,1-1.17-1.32h0l.94-45.51-11.09-6.55a6.33,6.33,0,0,1-1.39-1.08,6.55,6.55,0,0,1-1.87-3.59,6.75,6.75,0,0,1,.57-4.08l9.93-21.17.59-1.25a5.85,5.85,0,0,1-1.67-4.27v-3.83c-2.39-3-4.65-6-6.74-9.23A121.86,121.86,0,0,1,134,566a6.62,6.62,0,0,0-6.08-4.13h-.33L101.47,563h-.27a6.89,6.89,0,0,1-6.84-6.05l-2.93-22.71-.82-6.51a7.13,7.13,0,0,1,1.16-4.89A6.88,6.88,0,0,1,95.86,520l24.3-6a6.7,6.7,0,0,0,3.55-2.13,6.54,6.54,0,0,0,1.61-3.78A120.77,120.77,0,0,1,130.5,483a18.09,18.09,0,0,1,.58-1.9l0-.16a3.28,3.28,0,0,0,.19-.68v0a6.86,6.86,0,0,0-2.63-7.1l-23.76-17.74a4.58,4.58,0,0,1-.71-.61l0,0a6.85,6.85,0,0,1-1.93-4,7,7,0,0,1,.84-4.38l14.84-25.59a6.83,6.83,0,0,1,8.85-2.76l29.29,14a6.24,6.24,0,0,0,2.87.67,6.65,6.65,0,0,0,4.56-1.81,121.57,121.57,0,0,1,14.56-11.42c2.75-1.84,5.6-3.58,8.45-5.16a7,7,0,0,0,3.6-6.47l-1.32-31.46a6.72,6.72,0,0,1,5.81-7l29.15-3.77a7,7,0,0,1,7.69,5.33l5.57,23.2a6.88,6.88,0,0,0,6.62,5.3H244a118.73,118.73,0,0,1,36.17,5.68,6.57,6.57,0,0,0,2.11.34,6.83,6.83,0,0,0,5.5-2.81l15.85-21.59a7,7,0,0,1,9.17-1.91l25.3,14.9a6.82,6.82,0,0,1,2.69,8.79l-.57,1.24L328.64,428.7a7,7,0,0,0,1.27,7.81l0,0a120.07,120.07,0,0,1,13.18,16.63c2,3,3.89,6.23,5.83,9.86a6.73,6.73,0,0,0,6,3.65h.27l26.55-1.17h.63a22.21,22.21,0,0,0,1.62-7.12c.52-6.47,9.44-27.83,24.24-25.85,1.18.15,8.07.48,13.05,2.73a4.07,4.07,0,0,1-.22-.58,4.48,4.48,0,0,1,0-2.78l4.89-15,1.19-3.66a80.58,80.58,0,0,1-8-8.13,82.37,82.37,0,0,1-8.77-12.45,4.53,4.53,0,0,0-3.88-2.3,3.91,3.91,0,0,0-.76.07l-17.43,3a6.51,6.51,0,0,1-.76.07,4.63,4.63,0,0,1-4.5-3.52l-3.85-15-1.09-4.29a4.82,4.82,0,0,1,.37-3.38,4.63,4.63,0,0,1,2.5-2.25l15.79-6a4.49,4.49,0,0,0,3-4.4,82.34,82.34,0,0,1,1.38-17.31c.05-.44.13-.87.22-1.29l0-.15a4.1,4.1,0,0,0,.06-.49,4.63,4.63,0,0,0-2.35-4.54L381.74,321a5.39,5.39,0,0,1-.5-.33l-.05,0a4.73,4.73,0,0,1-1.43-5.5l7.81-18.42a4.63,4.63,0,0,1,5.71-2.59L414.07,301a4.61,4.61,0,0,0,1.43.24,4.51,4.51,0,0,0,3.45-1.64,81.27,81.27,0,0,1,8.81-8.89c1.69-1.48,3.46-2.88,5.23-4.18a4.67,4.67,0,0,0,1.6-2.05,4.78,4.78,0,0,0,.28-2.59l-3.5-21a4.53,4.53,0,0,1,3.3-5.15l19.23-5a4.67,4.67,0,0,1,3.84.67,4.83,4.83,0,0,1,1.76,2.25l5.66,15.08a4.6,4.6,0,0,0,4.32,3,3.31,3.31,0,0,0,.55,0,79.92,79.92,0,0,1,10.14-.65A82.47,82.47,0,0,1,495,272.48a4.41,4.41,0,0,0,.89.09,4.59,4.59,0,0,0,4-2.39l8.82-15.81a4.75,4.75,0,0,1,6-2.05l18.19,7.84a4.61,4.61,0,0,1,2.53,5.67l-.27.88-5.7,17.46a4.72,4.72,0,0,0,1.5,5.13l0,0a80.62,80.62,0,0,1,10.21,10c1.58,1.85,3.12,3.85,4.73,6.12a4.51,4.51,0,0,0,4.5,1.91l17.69-3a4.7,4.7,0,0,1,5.36,3.49l4.94,19.31a5.56,5.56,0,0,1,.12,1.63,4.75,4.75,0,0,1-3,3.9l-12.62,4.79a4.72,4.72,0,0,0-2.92,3.59,4.78,4.78,0,0,0,0,1.31,82,82,0,0,1-2.47,32.06,4.54,4.54,0,0,0,2.15,5.24l14.08,8a4.68,4.68,0,0,1,2,5.87l-.18.42-7.6,18a4.68,4.68,0,0,1-5.78,2.61L542.2,407.9a4.62,4.62,0,0,0-4.72,1.16c-1.56,1.6-3.22,3.16-4.93,4.64a78.22,78.22,0,0,1-10,7.4,4.64,4.64,0,0,0-2.14,4.76l3.64,21.82a4.54,4.54,0,0,1-3.34,5.19L501.32,458a4.69,4.69,0,0,1-1.11.14,4.49,4.49,0,0,1-2.51-.78,4.58,4.58,0,0,1-1.65-2.11l-7.15-19.06a4.49,4.49,0,0,0-4.25-3h-.26c-1.38.07-2.78.11-4.16.11A80.9,80.9,0,0,1,459,430.43a4.45,4.45,0,0,0-1.16-.15,4.59,4.59,0,0,0-4,2.36l-6,10.82a4.63,4.63,0,0,1-5.84,2l-16.68-7.24c9.13,10.16,15,41,5.71,52.59l6.25,22.37h56.3l-16.66,40.9h.7l-.67,1h64.19l-.68-1h.92l-15.88-39.9H582.1l15.95,39.9h11.57c-.94-8.29-1.48-14.12-1.38-15.85.42-6.87,5.5-24,7.79-31.48a9.42,9.42,0,0,1-.42-6.3l-.92-.26s-1.08-2.92-2.27-7.2a28.66,28.66,0,0,1-6.35,4.86,18.66,18.66,0,0,1-6.28,2.21c-.42.05-.84.09-1.26.11a16.89,16.89,0,0,1-8.26-1.67l.16,0-.06,0h0c-8.32-3.77-14.57-12.43-14.57-12.43a7,7,0,0,1-.33-4,32.21,32.21,0,0,0-7.13-.6c-3.68.28-8.88-1.7-9-2.18s2.84-.41,4.09-.48,5.62-.69,5.35-1.1-3-.47-3.39-1.16,4.1.27,6.51.34c1.63.05,3.53,1.67,4.58,2.7.08-.11.14-.22.22-.33s16.81,3.85,18.41,3c1-.49,4.7-10.55,8-19.27-5.67-3.9-7.73-10.2,1.1-20.37,7.68-8.85,6.89-16.16,6.66-23s4.78-26.6,22-24.6A12.89,12.89,0,0,1,643,396.14h0c9.83,5,29,43.58,22.91,57.72a19.32,19.32,0,0,1,2,3.76C672.43,469,681,488.15,681,491.37c0,1.69-1.34,5.25-6.37,9.06l3.38,4-16,14.38c2.21,4.4,4,9.08,4.47,13.09,1.21,11.57,1.89,52.23,4.46,63.51s12,32.84,12,67.8l.72,1S688.9,669.2,687.89,672.75Zm61.22-61.34a16.39,16.39,0,0,1,3.81,6.08,31.75,31.75,0,0,0,3.93,14.43v3s-4.32-10.09-6.68-11.47c0,0,2.46-3.48-2.37-9.78l-3.07,6.57c-4,8.58-24,10-35.17,7.72s-6.29-5.42-.29-10.53,18.59-3.76,22.31-5.76-1.72-4-9.16-3.43-11.15,8-23.16,9.14-21.16-21.44-21.16-21.44c8.3,2.57,23.17-2,23.74-4.86s-21.45-2.58-24.88-3.44-9.43-7.71-5.72-21.44,26.88-9.44,26.88-9.44,15.74,24,20.31,24.59S709,558.16,709,558.16c8.86-.86,31.45,10,31.45,10s-1.43,28,3.15,27.45,0-24.88,0-24.88c8.58,2.57,16.58,12.58,16.58,12.58C769.41,598.36,751.88,609.74,749.11,611.41ZM767,503h-4V488h4Zm-.52-16h-2.94a.5.5,0,1,1,0-1h2.94a.5.5,0,1,1,0,1Z"
        transform="translate(0.28)"/>
</svg>
