<svg xmlns="http://www.w3.org/2000/svg" width="72.874" height="82.038" viewBox="0 0 72.874 82.038">
  <g id="Group_612" transform="translate(-0.19 -0.21)" opacity="0.491">
    <g id="Group_602" transform="translate(9 62)">
      <path id="Path_1456"
            d="M0,10.118C.005,4.532,4.95,0,11.051,0S22.1,4.532,22.1,10.118,17.152,20.23,11.051,20.235.005,15.7,0,10.118Z"
            transform="translate(0.488 0.013)" fill="#ef4923"/>
    </g>
    <g id="Group_603">
      <path id="Path_1457"
            d="M10.677,19.622C4.783,19.617.005,15.227,0,9.811S4.78,0,10.677,0,21.355,4.392,21.355,9.811,16.572,19.618,10.677,19.622Z"
            transform="translate(0.19 0.21)" fill="#f3c04c"/>
    </g>
    <g id="Group_611" transform="translate(48 13)">
      <g id="Group_606" transform="translate(10.574)">
        <g id="Group_604">
          <path id="Path_1458"
                d="M1.734,10.328A1.676,1.676,0,0,1,0,8.717v-7.1A1.677,1.677,0,0,1,1.734,0,1.677,1.677,0,0,1,3.468,1.613v7.1A1.556,1.556,0,0,1,2.96,9.856a1.8,1.8,0,0,1-1.226.472Z"
                transform="translate(0.286 0.559)" fill="#f3c04c"/>
        </g>
        <g id="Group_605" transform="translate(0 12.803)">
          <path id="Path_1459"
                d="M1.734,10.328A1.676,1.676,0,0,1,0,8.717v-7.1A1.677,1.677,0,0,1,1.734,0,1.677,1.677,0,0,1,3.468,1.613v7.1A1.556,1.556,0,0,1,2.96,9.856a1.8,1.8,0,0,1-1.226.472Z"
                transform="translate(0.286 0.193)" fill="#f3c04c"/>
        </g>
      </g>
      <g id="Group_610" transform="translate(0 9.78)">
        <g id="Group_608" transform="translate(14.64)">
          <g id="Group_607">
            <path id="Path_1460"
                  d="M8.6,3.224H1.734A1.677,1.677,0,0,1,0,1.611,1.676,1.676,0,0,1,1.734,0H8.6a1.676,1.676,0,0,1,1.734,1.611A1.677,1.677,0,0,1,8.6,3.224Z"
                  transform="translate(0.085 0.555)" fill="#f3c04c"/>
          </g>
        </g>
        <g id="Group_609">
          <path id="Path_1461"
                d="M8.606,3.224H1.736A1.678,1.678,0,0,1,0,1.611,1.678,1.678,0,0,1,1.736,0H8.606A1.676,1.676,0,0,1,10.34,1.611,1.677,1.677,0,0,1,8.606,3.224Z"
                transform="translate(0.123 0.555)" fill="#f3c04c"/>
        </g>
      </g>
    </g>
  </g>
</svg>
