<svg width="24" height="24" viewBox="0 0 24 24" fill="none" xmlns="http://www.w3.org/2000/svg">
<g id="charger_1">
<path id="Shape" fill-rule="evenodd" clip-rule="evenodd" d="M16.7923 7H18.6673C19.3577 7 19.9173 7.55964 19.9173 8.25C19.9173 8.94036 19.3577 9.5 18.6673 9.5H5.33398C4.64363 9.5 4.08398 8.94036 4.08398 8.25C4.08398 7.55964 4.64363 7 5.33398 7H7.20898C7.32404 7 7.41732 6.90673 7.41732 6.79167V3.25C7.41732 2.55964 7.97696 2 8.66732 2C9.35767 2 9.91732 2.55964 9.91732 3.25V6.79167C9.91732 6.90673 10.0106 7 10.1257 7H13.8757C13.9907 7 14.084 6.90673 14.084 6.79167V3.25C14.084 2.55964 14.6436 2 15.334 2C16.0243 2 16.584 2.55964 16.584 3.25V6.79167C16.584 6.90673 16.6773 7 16.7923 7ZM7.00065 10.75H17.0007C17.2308 10.75 17.4173 10.9365 17.4173 11.1667V13.25C17.4123 15.0868 16.0742 16.6481 14.2598 16.9342C14.1585 16.9502 14.084 17.0375 14.084 17.14V18.25C14.0841 18.8716 13.6275 19.3988 13.0123 19.4875C12.9099 19.5028 12.8341 19.5906 12.834 19.6942V21.1667C12.834 21.6269 12.4609 22 12.0007 22C11.5404 22 11.1673 21.6269 11.1673 21.1667V19.6933C11.1676 19.5897 11.0916 19.5016 10.989 19.4867C10.3741 19.398 9.91759 18.8713 9.91732 18.25V17.1392C9.91734 17.0366 9.84276 16.9493 9.74148 16.9333C7.9274 16.6473 6.5894 15.0865 6.58398 13.25V11.1667C6.58398 10.9365 6.77053 10.75 7.00065 10.75Z" fill="#5A5A5A"/>
</g>
</svg>
