<svg width="24" height="24" viewBox="0 0 24 24" fill="none" xmlns="http://www.w3.org/2000/svg">
<g id="desktop_monitor_remove">
<path id="Shape" fill-rule="evenodd" clip-rule="evenodd" d="M16.5833 2C13.5918 2 11.1667 4.42512 11.1667 7.41667C11.1667 10.4082 13.5918 12.8333 16.5833 12.8333C19.5749 12.8333 22 10.4082 22 7.41667C21.9963 4.42665 19.5734 2.00367 16.5833 2ZM14.3742 8.74167L15.5525 7.56333C15.6336 7.48203 15.6336 7.35047 15.5525 7.26917L14.3742 6.09167C14.1372 5.84654 14.1404 5.45672 14.3814 5.21552C14.6223 4.97433 15.0122 4.97076 15.2575 5.2075L16.4358 6.38583C16.4749 6.42502 16.528 6.44704 16.5833 6.44704C16.6387 6.44704 16.6917 6.42502 16.7308 6.38583L17.9092 5.2075C18.0662 5.0451 18.2986 4.98005 18.5171 5.03735C18.7356 5.09465 18.9061 5.26539 18.9632 5.48393C19.0203 5.70248 18.955 5.93482 18.7925 6.09167L17.6142 7.27C17.5331 7.35131 17.5331 7.48286 17.6142 7.56417L18.7925 8.7425C18.9098 8.85972 18.9757 9.01875 18.9757 9.18458C18.9757 9.35041 18.9098 9.50945 18.7925 9.62667C18.547 9.86677 18.1547 9.86677 17.9092 9.62667L16.7308 8.44833C16.6917 8.40915 16.6387 8.38713 16.5833 8.38713C16.528 8.38713 16.4749 8.40915 16.4358 8.44833L15.2575 9.62667C15.0094 9.86034 14.6223 9.86034 14.3742 9.62667C14.2569 9.50945 14.191 9.35041 14.191 9.18458C14.191 9.01875 14.2569 8.85972 14.3742 8.7425V8.74167ZM15.4067 14.0495C15.4531 14.0104 15.5144 13.9939 15.5742 14.0042C15.908 14.0566 16.2454 14.0834 16.5833 14.0842C16.6164 14.0842 16.6492 14.0825 16.6819 14.0808C16.7144 14.0792 16.7468 14.0775 16.7792 14.0775C16.8367 14.0744 16.8929 14.0949 16.935 14.1342C16.9766 14.1736 17.0001 14.2285 17 14.2858V17.4167C17 18.3371 16.2538 19.0833 15.3333 19.0833H10.5417C10.4266 19.0833 10.3333 19.1766 10.3333 19.2917V20.125C10.3333 20.2401 10.4266 20.3333 10.5417 20.3333H12.8333C13.2936 20.3333 13.6667 20.7064 13.6667 21.1667C13.6667 21.6269 13.2936 22 12.8333 22H6.16667C5.70643 22 5.33333 21.6269 5.33333 21.1667C5.33333 20.7064 5.70643 20.3333 6.16667 20.3333H8.45833C8.57339 20.3333 8.66667 20.2401 8.66667 20.125V19.2917C8.66667 19.1766 8.57339 19.0833 8.45833 19.0833H3.66667C2.74619 19.0833 2 18.3371 2 17.4167V8.66667C2 7.74619 2.74619 7 3.66667 7H9.72333C9.77993 6.9992 9.8343 7.02202 9.87337 7.06298C9.91243 7.10395 9.93265 7.15934 9.92917 7.21583C9.91304 7.62024 9.93677 8.02525 10 8.425C10.0102 8.48581 9.99276 8.54799 9.9525 8.59468C9.91225 8.64138 9.85331 8.66776 9.79167 8.66667H3.875C3.76059 8.66666 3.66758 8.75893 3.66667 8.87333V15.9567C3.66667 16.0717 3.75994 16.165 3.875 16.165H15.125C15.2401 16.165 15.3333 16.0717 15.3333 15.9567V14.2067C15.3334 14.146 15.3603 14.0885 15.4067 14.0495Z" fill="#5A5A5A"/>
</g>
</svg>
