<svg width="24" height="24" viewBox="0 0 24 24" fill="none" xmlns="http://www.w3.org/2000/svg">
<g id="desktop_computer_1">
<path id="Shape" fill-rule="evenodd" clip-rule="evenodd" d="M12.2925 17.6992C12.2683 17.7451 12.2708 17.8006 12.2992 17.8442L13.3883 19.4767C13.4739 19.6045 13.482 19.7691 13.4094 19.9048C13.3369 20.0405 13.1955 20.1251 13.0417 20.125H8.45833C8.30449 20.1251 8.1631 20.0405 8.09055 19.9048C8.01801 19.7691 8.02613 19.6045 8.11167 19.4767L9.13083 17.9483C9.17314 17.8844 9.17694 17.8025 9.14073 17.7349C9.10452 17.6674 9.03414 17.6251 8.9575 17.625H3.66667C2.74619 17.625 2 16.8788 2 15.9583V5.54167C2 4.62119 2.74619 3.875 3.66667 3.875H18.25C19.1705 3.875 19.9167 4.62119 19.9167 5.54167V6.375C19.9167 6.83524 19.5436 7.20833 19.0833 7.20833C18.6231 7.20833 18.25 6.83524 18.25 6.375V5.95833C18.25 5.72821 18.0635 5.54167 17.8333 5.54167H4.08333C3.85321 5.54167 3.66667 5.72821 3.66667 5.95833V15.5417C3.66667 15.7718 3.85321 15.9583 4.08333 15.9583H12.4167C12.8769 15.9583 13.25 16.3314 13.25 16.7917C13.25 17.2519 12.8769 17.625 12.4167 17.625C12.3648 17.625 12.3171 17.6535 12.2925 17.6992ZM14.5 9.29166C14.5 8.83142 14.8731 8.45833 15.3333 8.45833H21.1667C21.6269 8.45833 22 8.83142 22 9.29166V19.2917C22 19.7519 21.6269 20.125 21.1667 20.125H15.3333C14.8731 20.125 14.5 19.7519 14.5 19.2917V9.29166ZM18.6667 11.1658H20.3333C20.6785 11.1658 20.9583 10.886 20.9583 10.5408C20.9583 10.1957 20.6785 9.91583 20.3333 9.91583H18.6667C18.3215 9.91583 18.0417 10.1957 18.0417 10.5408C18.0417 10.886 18.3215 11.1658 18.6667 11.1658ZM20.5417 17.6242C20.5417 17.9694 20.2618 18.2492 19.9167 18.2492H16.5833C16.2382 18.2492 15.9583 17.9694 15.9583 17.6242C15.9583 17.279 16.2382 16.9992 16.5833 16.9992H19.9167C20.0826 16.9992 20.2417 17.0651 20.3589 17.1825C20.4761 17.2999 20.5419 17.4583 20.5417 17.6242Z" fill="#5A5A5A"/>
</g>
</svg>
