<svg width="24" height="24" viewBox="0 0 24 24" fill="none" xmlns="http://www.w3.org/2000/svg">
<g id="desktop_monitor_settings">
<path id="Shape" fill-rule="evenodd" clip-rule="evenodd" d="M20.7742 8.22619C20.6389 8.08482 20.6389 7.86757 20.7742 7.72619L21.5967 6.87339C22.0494 6.41654 22.1298 5.72615 21.7933 5.18459C21.4742 4.63725 20.8138 4.36166 20.1792 4.51099L19.0033 4.77339C18.8105 4.81343 18.6177 4.70546 18.5592 4.52459L18.2058 3.41099C18.018 2.81055 17.4422 2.39941 16.7892 2.39941C16.1361 2.39941 15.5603 2.81055 15.3725 3.41099L15.0192 4.52459C14.9599 4.70495 14.7677 4.81263 14.575 4.77339L13.3983 4.51099C12.764 4.36235 12.1043 4.63781 11.785 5.18459C11.4483 5.72598 11.5284 6.41635 11.9808 6.87339L12.805 7.72619C12.9402 7.86757 12.9402 8.08482 12.805 8.22619L11.9825 9.0782C11.5387 9.53643 11.4577 10.2189 11.7829 10.7612C12.1081 11.3034 12.7635 11.579 13.3992 11.4406L14.575 11.179C14.7681 11.1373 14.9619 11.2459 15.0192 11.4278L15.3725 12.5406C15.5593 13.142 16.1354 13.5542 16.7892 13.5542C17.4429 13.5542 18.019 13.142 18.2058 12.5406L18.5592 11.4278C18.6153 11.2451 18.81 11.1361 19.0033 11.179L20.18 11.4406C20.8157 11.579 21.471 11.3034 21.7962 10.7612C22.1214 10.2189 22.0405 9.53643 21.5967 9.0782L20.7742 8.22619ZM14.2908 7.97579C14.2908 6.65031 15.4101 5.57579 16.7908 5.57579C18.1715 5.57579 19.2908 6.65031 19.2908 7.97579C19.2908 9.30128 18.1715 10.3758 16.7908 10.3758C15.4101 10.3758 14.2908 9.30128 14.2908 7.97579ZM18.0408 7.97579C18.0408 8.63854 17.4812 9.1758 16.7908 9.1758C16.1005 9.1758 15.5408 8.63854 15.5408 7.97579C15.5408 7.31305 16.1005 6.77579 16.7908 6.77579C17.4812 6.77579 18.0408 7.31305 18.0408 7.97579ZM15.63 14.4982C15.5656 14.4684 15.4898 14.4726 15.4294 14.5092C15.3689 14.5457 15.3323 14.6096 15.3325 14.6782V15.7982C15.3325 15.9087 15.2392 15.9982 15.1242 15.9982H3.87417C3.75911 15.9982 3.66583 15.9087 3.66583 15.7982V8.99819C3.6672 8.88868 3.76008 8.80059 3.87417 8.80059H10.5517C10.6262 8.80041 10.695 8.76236 10.7325 8.70059C10.8659 8.48514 11.0275 8.28699 11.2133 8.11099C11.2869 8.0344 11.2869 7.91639 11.2133 7.83979C11.0414 7.67634 10.8901 7.49402 10.7625 7.29659C10.7247 7.23638 10.6566 7.19986 10.5833 7.20059H3.66667C2.74619 7.20059 2 7.91694 2 8.80059V17.2006C2 18.0843 2.74619 18.8006 3.66667 18.8006H8.45833C8.57339 18.8006 8.66667 18.8901 8.66667 19.0006V19.8006C8.66667 19.9111 8.57339 20.0006 8.45833 20.0006H6.16667C5.70643 20.0006 5.33333 20.3588 5.33333 20.8006C5.33333 21.2424 5.70643 21.6006 6.16667 21.6006H12.8333C13.2936 21.6006 13.6667 21.2424 13.6667 20.8006C13.6667 20.3588 13.2936 20.0006 12.8333 20.0006H10.5417C10.4266 20.0006 10.3333 19.9111 10.3333 19.8006V19.0006C10.3333 18.8901 10.4266 18.8006 10.5417 18.8006H15.3333C16.2538 18.8006 17 18.0843 17 17.2006V14.9486C16.9998 14.8951 16.9773 14.8438 16.9376 14.8063C16.8978 14.7687 16.8441 14.748 16.7883 14.7486C16.3874 14.751 15.9912 14.6654 15.63 14.4982Z" fill="#5A5A5A"/>
</g>
</svg>
