<svg width="24" height="24" viewBox="0 0 24 24" fill="none" xmlns="http://www.w3.org/2000/svg">
<g id="desktop_monitor_download">
<path id="Shape" fill-rule="evenodd" clip-rule="evenodd" d="M16.5833 2C13.5918 2 11.1667 4.42512 11.1667 7.41667C11.1667 10.4082 13.5918 12.8333 16.5833 12.8333C19.5749 12.8333 22 10.4082 22 7.41667C21.9963 4.42665 19.5734 2.00367 16.5833 2ZM18.25 7.41667C18.4101 7.41657 18.5562 7.50827 18.6257 7.65256C18.6951 7.79685 18.6758 7.96819 18.5758 8.09333L16.9092 10.1767C16.8301 10.2759 16.7102 10.3336 16.5833 10.3336C16.4565 10.3336 16.3366 10.2759 16.2575 10.1767L14.5908 8.09333C14.4909 7.96819 14.4715 7.79685 14.541 7.65256C14.6105 7.50827 14.7565 7.41657 14.9167 7.41667H15.75C15.8651 7.41667 15.9583 7.32339 15.9583 7.20833V4.91667C15.9583 4.57149 16.2382 4.29167 16.5833 4.29167C16.9285 4.29167 17.2083 4.57149 17.2083 4.91667V7.20833C17.2083 7.32339 17.3016 7.41667 17.4167 7.41667H18.25ZM15.4067 14.0495C15.4531 14.0104 15.5144 13.9939 15.5742 14.0042C15.908 14.0566 16.2454 14.0834 16.5833 14.0842C16.6164 14.0842 16.6492 14.0825 16.6819 14.0808C16.7144 14.0792 16.7468 14.0775 16.7792 14.0775C16.8367 14.0744 16.8929 14.0949 16.935 14.1342C16.9766 14.1736 17.0001 14.2285 17 14.2858V17.4167C17 18.3371 16.2538 19.0833 15.3333 19.0833H10.5417C10.4266 19.0833 10.3333 19.1766 10.3333 19.2917V20.125C10.3333 20.2401 10.4266 20.3333 10.5417 20.3333H12.8333C13.2936 20.3333 13.6667 20.7064 13.6667 21.1667C13.6667 21.6269 13.2936 22 12.8333 22H6.16667C5.70643 22 5.33333 21.6269 5.33333 21.1667C5.33333 20.7064 5.70643 20.3333 6.16667 20.3333H8.45833C8.57339 20.3333 8.66667 20.2401 8.66667 20.125V19.2917C8.66667 19.1766 8.57339 19.0833 8.45833 19.0833H3.66667C2.74619 19.0833 2 18.3371 2 17.4167V8.66667C2 7.74619 2.74619 7 3.66667 7H9.72333C9.77993 6.9992 9.8343 7.02202 9.87337 7.06298C9.91243 7.10395 9.93265 7.15934 9.92917 7.21583C9.91304 7.62024 9.93677 8.02525 10 8.425C10.0105 8.48586 9.99318 8.54822 9.95286 8.59499C9.91254 8.64177 9.85341 8.66806 9.79167 8.66667H3.875C3.76059 8.66666 3.66758 8.75893 3.66667 8.87333V15.9567C3.66667 16.0717 3.75994 16.165 3.875 16.165H15.125C15.2401 16.165 15.3333 16.0717 15.3333 15.9567V14.2067C15.3334 14.146 15.3603 14.0885 15.4067 14.0495Z" fill="#5A5A5A"/>
</g>
</svg>
