<svg width="24" height="24" viewBox="0 0 24 24" fill="none" xmlns="http://www.w3.org/2000/svg">
<g id="desktop_monitor_warning">
<path id="Shape" fill-rule="evenodd" clip-rule="evenodd" d="M16.5837 2.00049C17.0309 2.00049 17.4415 2.24765 17.6508 2.64284L21.8633 10.6712C22.0579 11.0422 22.043 11.4881 21.8242 11.8453C21.603 12.2002 21.2148 12.4162 20.7967 12.417H12.3708C11.9525 12.4164 11.564 12.1999 11.3433 11.8445C11.1245 11.4873 11.1096 11.0413 11.3042 10.6703L15.5167 2.64284C15.726 2.24765 16.1365 2.00049 16.5837 2.00049ZM17.2083 5.75034C17.2083 5.40517 16.9285 5.12534 16.5833 5.12534C16.2382 5.12534 15.9583 5.40517 15.9583 5.75034V8.25034C15.9583 8.59552 16.2382 8.87534 16.5833 8.87534C16.9285 8.87534 17.2083 8.59552 17.2083 8.25034V5.75034ZM15.75 10.1253C15.75 9.66511 16.1231 9.29201 16.5833 9.29201C17.0436 9.29201 17.4167 9.66511 17.4167 10.1253C17.4167 10.5856 17.0436 10.9587 16.5833 10.9587C16.1231 10.9587 15.75 10.5856 15.75 10.1253ZM15.125 16.167C15.2401 16.167 15.3333 16.0737 15.3333 15.9587V13.8745C15.3331 13.8192 15.355 13.7661 15.3941 13.727C15.4332 13.6878 15.4863 13.666 15.5417 13.6662H16.7917C16.9067 13.6662 17 13.7595 17 13.8745V17.4162C17 18.3367 16.2538 19.0828 15.3333 19.0828H10.5417C10.4863 19.0826 10.4332 19.1045 10.3941 19.1436C10.355 19.1827 10.3331 19.2359 10.3333 19.2912V20.1245C10.3331 20.1798 10.355 20.233 10.3941 20.2721C10.4332 20.3112 10.4863 20.3331 10.5417 20.3328H12.8333C13.2936 20.3328 13.6667 20.7059 13.6667 21.1662C13.6667 21.6264 13.2936 21.9995 12.8333 21.9995H6.16667C5.70643 21.9995 5.33333 21.6264 5.33333 21.1662C5.33333 20.7059 5.70643 20.3328 6.16667 20.3328H8.45833C8.57339 20.3328 8.66667 20.2396 8.66667 20.1245V19.2912C8.66667 19.1761 8.57339 19.0828 8.45833 19.0828H3.66667C2.74619 19.0828 2 18.3367 2 17.4162V8.66618C2 7.7457 2.74619 6.99951 3.66667 6.99951H11.4742C11.547 6.99964 11.6145 7.03781 11.6521 7.10016C11.6898 7.16251 11.6921 7.23999 11.6583 7.30451L11.0025 8.55451C10.966 8.62291 10.895 8.66579 10.8175 8.66618H3.87583C3.82037 8.66595 3.76712 8.68795 3.72798 8.72724C3.68883 8.76654 3.66705 8.81988 3.6675 8.87534V15.9587C3.66728 16.014 3.68916 16.0671 3.72827 16.1062C3.76739 16.1454 3.82051 16.1672 3.87583 16.167H15.125Z" fill="#5A5A5A"/>
</g>
</svg>
