<svg width="24" height="24" viewBox="0 0 24 24" fill="none" xmlns="http://www.w3.org/2000/svg">
<g id="hard_drive">
<path id="Shape" fill-rule="evenodd" clip-rule="evenodd" d="M20.2609 11.7826H3.73913C3.33847 11.7828 2.94204 11.8645 2.57391 12.0226C2.49798 12.0555 2.40993 12.0422 2.34706 11.9884C2.28418 11.9346 2.25748 11.8497 2.27826 11.7696L3.7487 5.96696C4.08777 4.80433 5.13729 3.99252 6.34783 3.95653H17.6522C18.863 3.99215 19.913 4.80403 20.2522 5.96696L21.7217 11.7696C21.7425 11.8497 21.7158 11.9346 21.6529 11.9884C21.5901 12.0422 21.502 12.0555 21.4261 12.0226C21.058 11.8645 20.6615 11.7828 20.2609 11.7826ZM2 18.3044V14.8261C2.00287 13.8668 2.77982 13.0898 3.73913 13.087H20.2609C21.2204 13.0894 21.9976 13.8666 22 14.8261V18.3044C21.9971 19.2637 21.2202 20.0406 20.2609 20.0435H3.73913C2.78002 20.0401 2.00334 19.2635 2 18.3044ZM19.8261 14.8261C19.8261 14.3458 19.4368 13.9565 18.9565 13.9565C18.4763 13.9565 18.087 14.3458 18.087 14.8261C18.087 15.3063 18.4763 15.6957 18.9565 15.6957C19.4368 15.6957 19.8261 15.3063 19.8261 14.8261ZM4.6087 16.7817H19.3913C19.7515 16.7817 20.0435 17.0737 20.0435 17.4339C20.0435 17.7941 19.7515 18.0861 19.3913 18.0861H4.6087C4.24851 18.0861 3.95652 17.7941 3.95652 17.4339C3.95652 17.0737 4.24851 16.7817 4.6087 16.7817Z" fill="#5A5A5A"/>
</g>
</svg>
