<svg width="24" height="24" viewBox="0 0 24 24" fill="none" xmlns="http://www.w3.org/2000/svg">
<g id="keyboard_gaming">
<path id="Shape" fill-rule="evenodd" clip-rule="evenodd" d="M19.9167 12.8333H16.8425C16.7871 12.8332 16.734 12.811 16.695 12.7717L16.045 12.1217C15.9667 12.0436 15.8606 11.9998 15.75 12H8.25C8.13942 11.9998 8.03329 12.0436 7.955 12.1217L7.305 12.7717C7.26599 12.811 7.21291 12.8332 7.1575 12.8333H4.70833C4.59327 12.8333 4.5 12.7401 4.5 12.625V12.4167C4.5 11.4962 5.24619 10.75 6.16667 10.75H17.4167C18.7564 10.75 19.9944 10.0353 20.6643 8.875C21.3341 7.71475 21.3341 6.28525 20.6643 5.125C19.9944 3.96475 18.7564 3.25 17.4167 3.25H12C11.7699 3.25 11.5833 3.06345 11.5833 2.83333C11.5833 2.3731 11.2102 2 10.75 2C10.2898 2 9.91667 2.3731 9.91667 2.83333C9.91667 3.98393 10.8494 4.91667 12 4.91667H17.4167C18.5673 4.91667 19.5 5.84941 19.5 7C19.5 8.15059 18.5673 9.08333 17.4167 9.08333H6.16667C4.32572 9.08333 2.83333 10.5757 2.83333 12.4167V13.25C2.83436 13.2546 2.83234 13.2593 2.82833 13.2617C2.30818 13.6531 2.00157 14.2657 2 14.9167V19.0833C2 20.2339 2.93274 21.1667 4.08333 21.1667H7.1575C7.21281 21.1665 7.26591 21.1884 7.305 21.2275L7.955 21.8775C8.03316 21.9559 8.1393 22 8.25 22H15.75C15.8607 22 15.9668 21.9559 16.045 21.8775L16.695 21.2275C16.7341 21.1884 16.7872 21.1665 16.8425 21.1667H19.9167C20.4692 21.1667 20.9991 20.9472 21.3898 20.5565C21.7805 20.1658 22 19.6359 22 19.0833V14.9167C22 14.3641 21.7805 13.8342 21.3898 13.4435C20.9991 13.0528 20.4692 12.8333 19.9167 12.8333ZM17.2083 15.3333H16.7917C16.5615 15.3333 16.375 15.1468 16.375 14.9167C16.375 14.6865 16.5615 14.5 16.7917 14.5H17.2083C17.4385 14.5 17.625 14.6865 17.625 14.9167C17.625 15.1468 17.4385 15.3333 17.2083 15.3333ZM17.625 16.5833C17.625 16.8135 17.4385 17 17.2083 17H16.7917C16.5615 17 16.375 16.8135 16.375 16.5833C16.375 16.3532 16.5615 16.1667 16.7917 16.1667H17.2083C17.4385 16.1667 17.625 16.3532 17.625 16.5833ZM14.7083 15.3333H14.2917C14.0615 15.3333 13.875 15.1468 13.875 14.9167C13.875 14.6865 14.0615 14.5 14.2917 14.5H14.7083C14.9385 14.5 15.125 14.6865 15.125 14.9167C15.125 15.1468 14.9385 15.3333 14.7083 15.3333ZM15.125 16.5833C15.125 16.8135 14.9385 17 14.7083 17H14.2917C14.0615 17 13.875 16.8135 13.875 16.5833C13.875 16.3532 14.0615 16.1667 14.2917 16.1667H14.7083C14.9385 16.1667 15.125 16.3532 15.125 16.5833ZM12.2083 15.3333H11.7917C11.5615 15.3333 11.375 15.1468 11.375 14.9167C11.375 14.6865 11.5615 14.5 11.7917 14.5H12.2083C12.4385 14.5 12.625 14.6865 12.625 14.9167C12.625 15.1468 12.4385 15.3333 12.2083 15.3333ZM12.625 16.5833C12.625 16.8135 12.4385 17 12.2083 17H11.7917C11.5615 17 11.375 16.8135 11.375 16.5833C11.375 16.3532 11.5615 16.1667 11.7917 16.1667H12.2083C12.4385 16.1667 12.625 16.3532 12.625 16.5833ZM10.125 14.9167C10.125 15.1468 9.93845 15.3333 9.70833 15.3333H9.29167C9.06155 15.3333 8.875 15.1468 8.875 14.9167C8.875 14.6865 9.06155 14.5 9.29167 14.5H9.70833C9.93845 14.5 10.125 14.6865 10.125 14.9167ZM9.29167 16.1667H9.70833C9.93845 16.1667 10.125 16.3532 10.125 16.5833C10.125 16.8135 9.93845 17 9.70833 17H9.29167C9.06155 17 8.875 16.8135 8.875 16.5833C8.875 16.3532 9.06155 16.1667 9.29167 16.1667ZM15.75 18.6667C15.9801 18.6667 16.1667 18.8532 16.1667 19.0833C16.1667 19.3135 15.9801 19.5 15.75 19.5H8.25C8.01988 19.5 7.83333 19.3135 7.83333 19.0833C7.83333 18.8532 8.01988 18.6667 8.25 18.6667H15.75ZM7.20833 17H6.79167C6.56155 17 6.375 16.8135 6.375 16.5833C6.375 16.3532 6.56155 16.1667 6.79167 16.1667H7.20833C7.43845 16.1667 7.625 16.3532 7.625 16.5833C7.625 16.8135 7.43845 17 7.20833 17ZM7.20833 15.3333H6.79167C6.56155 15.3333 6.375 15.1468 6.375 14.9167C6.375 14.6865 6.56155 14.5 6.79167 14.5H7.20833C7.43845 14.5 7.625 14.6865 7.625 14.9167C7.625 15.1468 7.43845 15.3333 7.20833 15.3333Z" fill="#5A5A5A"/>
</g>
</svg>
