<svg width="24" height="24" viewBox="0 0 24 24" fill="none" xmlns="http://www.w3.org/2000/svg">
<g id="laptop">
<path id="Shape" fill-rule="evenodd" clip-rule="evenodd" d="M21.6158 19.3957L19.8286 13.583C19.769 13.4046 19.6705 13.2418 19.54 13.1064C19.8912 12.7003 20.0854 12.1819 20.0873 11.6451V4.26978C20.0868 3.66705 19.8468 3.08921 19.4202 2.66349C18.9935 2.23778 18.4151 1.99909 17.8124 1.99999H6.18091C4.92892 2.00281 3.91508 3.01779 3.91368 4.26978V11.6451C3.91539 12.1814 4.10889 12.6994 4.45921 13.1055C4.32881 13.241 4.23025 13.4038 4.1707 13.5821L2.40559 19.331C2.11981 19.9027 2.15036 20.5816 2.48634 21.1252C2.82233 21.6689 3.41584 21.9999 4.05496 22H19.9375C20.5775 22.0024 21.1724 21.6708 21.5069 21.1251C21.8389 20.606 21.88 19.9524 21.6158 19.3957ZM14.9835 19.7847C14.9045 19.8944 14.7782 19.9601 14.643 19.9617H9.36048C9.22377 19.9616 9.09544 19.8958 9.01553 19.7849C8.93563 19.6739 8.91388 19.5314 8.95708 19.4017L9.46772 17.8698C9.52557 17.6961 9.68804 17.5788 9.87112 17.5787H14.1264C14.3098 17.5785 14.4727 17.6958 14.5307 17.8698L15.0413 19.4017C15.0829 19.5322 15.0592 19.6747 14.9775 19.7847H14.9835ZM5.61581 4.26978C5.61581 3.95627 5.86995 3.70212 6.18346 3.70212H17.8124C18.1256 3.70259 18.3792 3.9566 18.3792 4.26978V11.6451C18.3792 11.9583 18.1256 12.2123 17.8124 12.2128H6.18091C5.8674 12.2128 5.61325 11.9586 5.61325 11.6451L5.61581 4.26978Z" fill="#5A5A5A"/>
</g>
</svg>
