<svg width="24" height="24" viewBox="0 0 24 24" fill="none" xmlns="http://www.w3.org/2000/svg">
<g id="monitor_alternate">
<path id="Shape" fill-rule="evenodd" clip-rule="evenodd" d="M20.75 2H3.25C2.55964 2 2 2.55964 2 3.25V16.5833C2 17.2737 2.55964 17.8333 3.25 17.8333H20.75C21.4404 17.8333 22 17.2737 22 16.5833V3.25C22 2.55964 21.4404 2 20.75 2ZM3.66667 14.0833V4.08333C3.66667 3.85321 3.85321 3.66666 4.08333 3.66666H19.9167C20.1468 3.66666 20.3333 3.85321 20.3333 4.08333V14.0833C20.3333 14.3135 20.1468 14.5 19.9167 14.5H4.08333C3.85321 14.5 3.66667 14.3135 3.66667 14.0833ZM13.9575 19.2342L15.7075 21.3442C15.7968 21.4715 15.8077 21.6379 15.7358 21.7758C15.664 21.9138 15.5213 22.0002 15.3658 22H8.63333C8.47768 22.0005 8.33474 21.9142 8.26269 21.7762C8.19063 21.6382 8.20149 21.4716 8.29083 21.3442L10.0408 19.2342C10.12 19.1386 10.2376 19.0833 10.3617 19.0833H13.6367C13.7607 19.0833 13.8783 19.1386 13.9575 19.2342Z" fill="#5A5A5A"/>
</g>
</svg>
