<svg width="24" height="24" viewBox="0 0 24 24" fill="none" xmlns="http://www.w3.org/2000/svg">
<g id="mouse">
<path id="Shape" fill-rule="evenodd" clip-rule="evenodd" d="M21.1667 3.0975C20.7064 3.0975 20.3333 3.4706 20.3333 3.93083V8.66C20.3333 10.3917 19.3333 11.1667 18.3333 11.1667C17.3333 11.1667 16.3333 10.3908 16.3333 8.65917V6.69C16.3383 3.21917 13.3517 2 11.3483 2C9.0725 2 6.77583 3.365 6.59833 5.9725C6.59092 6.08135 6.50077 6.16605 6.39167 6.16667H4.91667C3.30584 6.16667 2 7.4725 2 9.08333V16.5833C2 19.5749 4.42512 22 7.41667 22C10.4082 22 12.8333 19.5749 12.8333 16.5833V9.08333C12.8333 7.4725 11.5275 6.16667 9.91667 6.16667H8.49167C8.43108 6.1673 8.37324 6.14143 8.33333 6.09583C8.29345 6.05007 8.27523 5.98933 8.28333 5.92917C8.48833 4.38333 9.96167 3.66667 11.3483 3.66667C11.6733 3.66667 14.6717 3.785 14.6717 6.68917V8.66C14.6717 11.4 16.515 12.8342 18.3383 12.8342C20.1617 12.8342 22 11.4 22 8.66V3.93083C22 3.4706 21.6269 3.0975 21.1667 3.0975ZM8.66667 11.2642C8.63691 11.9263 8.07902 12.4407 7.41667 12.4167C6.75276 12.4406 6.1942 11.9238 6.16667 11.26V9.4075C6.19376 8.7434 6.75245 8.22605 7.41667 8.25C8.08089 8.22605 8.63958 8.7434 8.66667 9.4075V11.2642Z" fill="#5A5A5A"/>
</g>
</svg>
