<svg width="24" height="24" viewBox="0 0 24 24" fill="none" xmlns="http://www.w3.org/2000/svg">
<g id="printer">
<path id="Shape" fill-rule="evenodd" clip-rule="evenodd" d="M21.1387 10.6108L19.6796 6.95333C19.492 6.47708 19.0314 6.16473 18.5196 6.16667H16.7921C16.7367 6.16689 16.6836 6.14501 16.6445 6.10589C16.6054 6.06677 16.5835 6.01365 16.5837 5.95833V4.38167C16.5835 4.15012 16.4868 3.92912 16.3171 3.77167L14.6504 2.22333C14.4962 2.07986 14.2935 2.00006 14.0829 2H8.24956C7.78933 2 7.41623 2.3731 7.41623 2.83333V5.95833C7.41623 6.07339 7.32296 6.16667 7.2079 6.16667H5.4804C4.96891 6.16447 4.50856 6.47655 4.32123 6.9525L2.86123 10.6108C2.84265 10.673 2.83421 10.7377 2.83623 10.8025L3.5829 16.7392C3.66124 17.3627 4.19031 17.8311 4.81873 17.8333H5.92206C5.9869 17.8329 6.0482 17.8628 6.08778 17.9142C6.12736 17.9655 6.14066 18.0324 6.12373 18.095L5.36206 20.9517C5.2953 21.2017 5.34847 21.4685 5.50598 21.6739C5.66349 21.8792 5.90745 21.9997 6.16623 22H17.4162C17.675 21.9997 17.919 21.8792 18.0765 21.6739C18.234 21.4685 18.2872 21.2017 18.2204 20.9517L17.4587 18.095C17.4421 18.0323 17.4557 17.9655 17.4954 17.9142C17.5351 17.8629 17.5964 17.833 17.6612 17.8333H19.1812C19.8115 17.8332 20.3431 17.3638 20.4212 16.7383L21.1662 10.7983C21.1642 10.735 21.1549 10.6721 21.1387 10.6108ZM14.7087 7.83333H9.29206C9.23674 7.83356 9.18362 7.81168 9.1445 7.77256C9.10539 7.73344 9.08351 7.68032 9.08373 7.625V3.875C9.08351 3.81968 9.10539 3.76656 9.1445 3.72744C9.18362 3.68832 9.23674 3.66644 9.29206 3.66667H13.6746C13.727 3.66675 13.7775 3.68636 13.8162 3.72167L14.8504 4.68167C14.8929 4.72135 14.917 4.77686 14.9171 4.835V7.62583C14.9166 7.74057 14.8235 7.83333 14.7087 7.83333ZM19.0837 12.8333C19.0837 13.2936 18.7106 13.6667 18.2504 13.6667C17.7902 13.6667 17.4171 13.2936 17.4171 12.8333C17.4171 12.3731 17.7902 12 18.2504 12C18.7103 12.0005 19.0829 12.3734 19.0829 12.8333H19.0837ZM8.4329 15.905C8.4571 15.814 8.53956 15.7507 8.63373 15.7508H14.9496C15.0437 15.7507 15.1262 15.814 15.1504 15.905L16.2621 20.0717C16.2789 20.1343 16.2656 20.2013 16.2261 20.2528C16.1866 20.3042 16.1253 20.3343 16.0604 20.3342H7.5229C7.458 20.3343 7.39673 20.3042 7.35719 20.2528C7.31765 20.2013 7.30436 20.1343 7.32123 20.0717L8.4329 15.905Z" fill="#5A5A5A"/>
</g>
</svg>
