<svg width="24" height="24" viewBox="0 0 24 24" fill="none" xmlns="http://www.w3.org/2000/svg">
<g id="smart_watch_circle_alternate">
<path id="Shape" fill-rule="evenodd" clip-rule="evenodd" d="M19.9149 12C19.9132 9.2599 18.4948 6.71549 16.1649 5.27333C16.1201 5.24525 16.0876 5.20115 16.0741 5.15L15.3174 2.31083C15.2694 2.12787 15.1041 2.00023 14.9149 2H9.08157C8.89287 2.00003 8.72775 2.12686 8.67907 2.30917L7.92157 5.14917C7.90865 5.20037 7.87639 5.24458 7.83157 5.2725C5.50273 6.7161 4.08594 9.26128 4.08594 12.0013C4.08594 14.7412 5.50273 17.2864 7.83157 18.73C7.87641 18.7581 7.90888 18.8022 7.9224 18.8533L8.67907 21.6925C8.72838 21.8741 8.89335 22.0002 9.08157 22H14.9149C15.1028 21.9998 15.2673 21.8738 15.3166 21.6925L16.0957 18.8367C16.1094 18.786 16.1419 18.7425 16.1866 18.715C18.5046 17.2698 19.9139 14.7317 19.9149 12ZM13.2224 18.1325C10.5222 18.6705 7.78793 17.3781 6.48965 14.95C5.19137 12.522 5.6349 9.53044 7.58179 7.58355C9.52867 5.63666 12.5203 5.19313 14.9483 6.49141C17.3763 7.78969 18.6687 10.5239 18.1307 13.2242C17.6346 15.7009 15.699 17.6372 13.2224 18.1342V18.1325Z" fill="#5A5A5A"/>
</g>
</svg>
