<svg width="24" height="24" viewBox="0 0 24 24" fill="none" xmlns="http://www.w3.org/2000/svg">
<g id="tablet">
<path id="Shape" fill-rule="evenodd" clip-rule="evenodd" d="M6.16732 2H17.834C18.9846 2 19.9173 2.93274 19.9173 4.08333V19.9167C19.9173 21.0673 18.9846 22 17.834 22H6.16732C5.61478 22 5.08488 21.7805 4.69418 21.3898C4.30348 20.9991 4.08398 20.4692 4.08398 19.9167V4.08333C4.08398 2.93274 5.01672 2 6.16732 2ZM7.00065 4.91667C6.54041 4.91667 6.16732 5.28976 6.16732 5.75V17.4167C6.16732 17.8769 6.54041 18.25 7.00065 18.25H17.0007C17.4609 18.25 17.834 17.8769 17.834 17.4167V5.75C17.834 5.28976 17.4609 4.91667 17.0007 4.91667H7.00065ZM7.62565 7.95917C7.62565 7.54495 7.96144 7.20917 8.37565 7.20917H8.95898C9.3732 7.20917 9.70898 7.54495 9.70898 7.95917V8.5425C9.70898 8.95671 9.3732 9.2925 8.95898 9.2925H8.37565C7.96144 9.2925 7.62565 8.95671 7.62565 8.5425V7.95917ZM11.709 7.20917C11.2948 7.20917 10.959 7.54495 10.959 7.95917V8.5425C10.959 8.95671 11.2948 9.2925 11.709 9.2925H12.2923C12.7065 9.2925 13.0423 8.95671 13.0423 8.5425V7.95917C13.0423 7.54495 12.7065 7.20917 12.2923 7.20917H11.709ZM14.2923 7.95917C14.2923 7.54495 14.6281 7.20917 15.0423 7.20917H15.6257C16.0399 7.20917 16.3757 7.54495 16.3757 7.95917V8.5425C16.3757 8.95671 16.0399 9.2925 15.6257 9.2925H15.0423C14.6281 9.2925 14.2923 8.95671 14.2923 8.5425V7.95917ZM8.37565 10.5425C7.96144 10.5425 7.62565 10.8783 7.62565 11.2925V11.8758C7.62565 12.29 7.96144 12.6258 8.37565 12.6258H8.95898C9.3732 12.6258 9.70898 12.29 9.70898 11.8758V11.2925C9.70898 10.8783 9.3732 10.5425 8.95898 10.5425H8.37565ZM10.959 11.2925C10.959 10.8783 11.2948 10.5425 11.709 10.5425H12.2923C12.7065 10.5425 13.0423 10.8783 13.0423 11.2925V11.8758C13.0423 12.29 12.7065 12.6258 12.2923 12.6258H11.709C11.2948 12.6258 10.959 12.29 10.959 11.8758V11.2925ZM8.37565 13.8758C7.96144 13.8758 7.62565 14.2116 7.62565 14.6258V15.2092C7.62565 15.6234 7.96144 15.9592 8.37565 15.9592H8.95898C9.3732 15.9592 9.70898 15.6234 9.70898 15.2092V14.6258C9.70898 14.2116 9.3732 13.8758 8.95898 13.8758H8.37565ZM10.959 14.6258C10.959 14.2116 11.2948 13.8758 11.709 13.8758H12.2923C12.7065 13.8758 13.0423 14.2116 13.0423 14.6258V15.2092C13.0423 15.6234 12.7065 15.9592 12.2923 15.9592H11.709C11.2948 15.9592 10.959 15.6234 10.959 15.2092V14.6258ZM15.0423 10.5425C14.6281 10.5425 14.2923 10.8783 14.2923 11.2925V11.8758C14.2923 12.29 14.6281 12.6258 15.0423 12.6258H15.6257C16.0399 12.6258 16.3757 12.29 16.3757 11.8758V11.2925C16.3757 10.8783 16.0399 10.5425 15.6257 10.5425H15.0423Z" fill="#5A5A5A"/>
</g>
</svg>
