<svg width="24" height="24" viewBox="0 0 24 24" fill="none" xmlns="http://www.w3.org/2000/svg">
<g id="touchpad">
<path id="Shape" fill-rule="evenodd" clip-rule="evenodd" d="M7.4715 3.68757C7.9364 3.68757 8.31327 3.31069 8.31327 2.8458C8.31327 2.3809 7.9364 2.00403 7.4715 2.00403C4.45121 2.00774 2.00371 4.45524 2 7.47553C2 7.94042 2.37687 8.3173 2.84177 8.3173C3.30667 8.3173 3.68354 7.94042 3.68354 7.47553C3.68354 5.3835 5.37947 3.68757 7.4715 3.68757ZM7.89239 4.52934C8.35728 4.52934 8.73415 4.90621 8.73415 5.37111C8.73415 5.836 8.35728 6.21287 7.89239 6.21287C6.96259 6.21287 6.20885 6.96662 6.20885 7.89641C6.20885 8.36131 5.83197 8.73818 5.36708 8.73818C4.90218 8.73818 4.52531 8.36131 4.52531 7.89641C4.52531 6.03683 6.0328 4.52934 7.89239 4.52934ZM12.5693 15.8225C11.6368 15.8737 10.8059 16.4277 10.4 17.2687C10.2102 17.6842 10.1453 18.146 10.2131 18.5978C10.2222 18.6584 10.2045 18.7199 10.1645 18.7662C10.1246 18.8126 10.0664 18.8394 10.0052 18.8394H9.57677C8.64697 18.8394 7.89323 18.0857 7.89323 17.1559V9.15907C7.89323 8.22927 8.64697 7.47553 9.57677 7.47553H19.678C20.6078 7.47553 21.3615 8.22927 21.3615 9.15907V15.9193C21.3615 15.9854 21.3304 16.0475 21.2776 16.0872C21.2248 16.1269 21.1565 16.1396 21.093 16.1213C20.641 15.9934 19.7655 15.7577 19.4095 15.6626C19.3175 15.6381 19.2536 15.5548 19.2537 15.4597V13.5809C19.2537 11.8375 17.8405 10.4242 16.0971 10.4242C14.3538 10.4242 12.9405 11.8375 12.9405 13.5809V15.6011C12.9405 15.7145 12.8509 15.8075 12.7376 15.8116C12.6837 15.8133 12.6257 15.8175 12.5693 15.8225ZM18.3615 16.4715L20.6915 17.0818C21.1771 17.1928 21.5886 17.5131 21.8154 17.9566C22.0422 18.4 22.0609 18.9212 21.8666 19.3798L21.1721 21.5583C21.0653 21.8894 20.7108 22.0717 20.3794 21.9659C20.048 21.8602 19.8646 21.5062 19.9692 21.1745L20.7193 18.7662C20.7498 18.5424 20.5943 18.3358 20.3708 18.3032L17.4128 17.5279C17.1352 17.4553 16.9416 17.2046 16.9414 16.9177V13.5784C16.9414 13.1135 16.5645 12.7366 16.0996 12.7366C15.6347 12.7366 15.2579 13.1135 15.2579 13.5784V18.5557C15.2577 18.8319 15.0781 19.076 14.8144 19.1581C14.5507 19.2403 14.2642 19.1416 14.1072 18.9143C13.8575 18.4265 13.353 18.1222 12.805 18.129C12.732 18.1361 12.668 18.1807 12.636 18.2467C12.604 18.3127 12.6087 18.3905 12.6484 18.4522C13.0752 19.1172 14.31 21.0103 14.31 21.0103C14.4988 21.3003 14.419 21.6881 14.1311 21.88C13.8433 22.0719 13.4546 21.9964 13.2595 21.7107L11.576 19.1854C11.2282 18.7716 11.1432 18.1972 11.3563 17.7005C11.6081 17.2068 12.1072 16.8877 12.661 16.8663C13.0179 16.8388 13.3764 16.8932 13.709 17.0254C13.7737 17.0508 13.8468 17.0425 13.9041 17.0032C13.9614 16.9639 13.9956 16.8988 13.9952 16.8293V13.5741C13.9952 12.4119 14.9374 11.4697 16.0996 11.4697C17.2619 11.4697 18.2041 12.4119 18.2041 13.5741V16.2678C18.2043 16.3635 18.2689 16.4471 18.3615 16.4715Z" fill="#5A5A5A"/>
</g>
</svg>
