<svg width="24" height="24" viewBox="0 0 24 24" fill="none" xmlns="http://www.w3.org/2000/svg">
<g id="usb_port_1">
<path id="Shape" fill-rule="evenodd" clip-rule="evenodd" d="M19.3728 7.15979C19.3728 6.62297 18.9197 6.18766 18.3605 6.1872H16.0481C15.4889 6.18766 15.0358 6.62297 15.0358 7.15979V9.37974C15.0368 9.91591 15.4895 10.3502 16.0481 10.3507H16.1539C16.2565 10.3507 16.3399 10.4303 16.3404 10.5289C16.0223 11.1047 15.5577 11.5939 14.9898 11.9511L13.1813 12.8188C13.1143 12.851 13.0347 12.8477 12.9708 12.8101C12.9069 12.7725 12.8678 12.7059 12.8673 12.6339V5.56352C12.8673 5.44854 12.9644 5.35534 13.0842 5.35534H15.0358C15.2115 5.35564 15.37 5.2542 15.4372 5.09843C15.5045 4.94265 15.4672 4.76331 15.3429 4.64422L12.307 1.7298C12.2257 1.65149 12.1152 1.60748 12 1.60748C11.8847 1.60748 11.7743 1.65149 11.6929 1.7298L8.65705 4.64422C8.5333 4.76339 8.49644 4.94234 8.56363 5.09775C8.63081 5.25316 8.78883 5.35447 8.9641 5.35451H10.9157C11.0355 5.35451 11.1326 5.44771 11.1326 5.56268V13.9229C11.1328 13.9981 11.0908 14.0676 11.0227 14.1047C10.9546 14.1418 10.8709 14.1407 10.8038 14.1019L8.14269 12.5648C7.84719 12.423 7.66122 12.1325 7.66302 11.8154V11.5514C7.66325 11.4732 7.70871 11.4017 7.78099 11.3657C8.67394 10.9284 9.13831 9.96057 8.90407 9.02488C8.66984 8.08919 7.79806 7.42958 6.79563 7.42958C5.79321 7.42958 4.92143 8.08919 4.68719 9.02488C4.45296 9.96057 4.91732 10.9284 5.81028 11.3657C5.88395 11.4024 5.92965 11.4759 5.92825 11.5556V11.8195C5.91845 12.7449 6.45171 13.5968 7.30739 14.0228L11.0276 16.1737C11.0928 16.2112 11.1327 16.2789 11.1326 16.3519V16.6108C11.1328 16.6948 11.0804 16.7706 10.9999 16.8032C9.85459 17.2609 9.20514 18.4311 9.44825 19.5989C9.69136 20.7668 10.7594 21.6075 12 21.6075C13.2405 21.6075 14.3086 20.7668 14.5517 19.5989C14.7948 18.4311 14.1453 17.2609 13.0001 16.8032C12.9196 16.7704 12.8674 16.6947 12.8673 16.6108V14.9613C12.8676 14.8825 12.9138 14.8104 12.987 14.7748L15.7627 13.4424C16.467 13.1035 18.0682 11.6688 18.0682 10.5713V10.5605C18.0682 10.4455 18.1653 10.3523 18.2851 10.3523H18.357C18.6262 10.353 18.8845 10.2508 19.0751 10.0683C19.2657 9.88588 19.3728 9.63812 19.3728 9.37974V7.15979Z" fill="#5A5A5A"/>
</g>
</svg>
