<svg width="24" height="24" viewBox="0 0 24 24" fill="none" xmlns="http://www.w3.org/2000/svg">
<g id="webcam">
<path id="Shape" fill-rule="evenodd" clip-rule="evenodd" d="M20 10.0008C20 14.4191 16.4183 18.0008 12 18.0008C7.58375 17.9959 4.0049 14.4171 4 10.0008C4 5.58256 7.58172 2.00084 12 2.00084C16.4183 2.00084 20 5.58256 20 10.0008ZM12.8889 4.22306C12.8889 3.73214 12.4909 3.33417 12 3.33417C11.7643 3.33417 11.5382 3.42782 11.3715 3.59452C11.2048 3.76122 11.1111 3.98731 11.1111 4.22306C11.1111 4.71398 11.5091 5.11195 12 5.11195C12.4909 5.11195 12.8889 4.71398 12.8889 4.22306ZM12 6.44528C13.9637 6.44528 15.5556 8.03716 15.5556 10.0008C15.5556 11.9645 13.9637 13.5564 12 13.5564C10.0363 13.5564 8.44444 11.9645 8.44444 10.0008C8.44444 8.03716 10.0363 6.44528 12 6.44528ZM17.5785 17.6983C17.7086 17.7412 17.8116 17.8416 17.8578 17.9706L19.0853 21.4071C19.1339 21.5432 19.1132 21.6944 19.03 21.8125C18.9467 21.9306 18.8112 22.0009 18.6667 22.0008H5.33333C5.18882 22.0009 5.05332 21.9306 4.97004 21.8125C4.88676 21.6944 4.86611 21.5432 4.91467 21.4071L6.14222 17.9706C6.18843 17.8418 6.29139 17.7415 6.42133 17.6986C6.5513 17.6543 6.69454 17.6737 6.808 17.7511C9.95948 19.8223 14.0405 19.8223 17.192 17.7511C17.3058 17.6748 17.4484 17.6554 17.5785 17.6983Z" fill="#5A5A5A"/>
</g>
</svg>
