<?xml version="1.0" encoding="UTF-8"?>
<svg width="48px" height="48px" viewBox="0 0 48 48" version="1.1" xmlns="http://www.w3.org/2000/svg" xmlns:xlink="http://www.w3.org/1999/xlink">
    <title>edit-markup</title>
    <defs>
        <linearGradient x1="50%" y1="0%" x2="50%" y2="83.4544362%" id="linearGradient-1">
            <stop stop-color="#4FC68A" offset="0%"></stop>
            <stop stop-color="#139554" offset="100%"></stop>
        </linearGradient>
    </defs>
    <g id="Page-2" stroke="none" stroke-width="1" fill="none" fill-rule="evenodd">
        <g id="Raporlama-Servisi" transform="translate(-1155.000000, -2620.000000)" fill="url(#linearGradient-1)">
            <g id="section4" transform="translate(-10.000000, 2455.000000)">
                <g id="card1" transform="translate(102.000000, 88.000000)">
                    <g id="edit-markup" transform="translate(1063.000000, 77.000000)">
                        <path d="M24,48 C37.2548,48 48,37.2548 48,24 C48,10.74516 37.2548,0 24,0 C10.74516,0 0,10.74516 0,24 C0,37.2548 10.74516,48 24,48 Z M37.1586,39 C41.3516,35.3404826 44,29.9612116 44,23.9646341 C44,12.9384661 35.0456,4 24,4 C12.9543,4 4,12.9384661 4,23.9646341 C4,29.8773601 6.57486,35.1897496 10.66634,38.8452741 L13.99998,21.9158633 L18.34052,21.9158633 L24,12.1306172 L29.6594,21.9158633 L34,21.9158633 L37.1586,39 Z M32,42.2594669 L30.2672024,26 L17.7326803,26 L16,42.2594669 C18.4419289,43.3778113 21.1496329,44 23.9999609,44 C26.8502889,44 29.5578951,43.3778113 32,42.2594669 Z" id="Shape"></path>
                    </g>
                </g>
            </g>
        </g>
    </g>
</svg>