<?xml version="1.0" encoding="UTF-8"?>
<svg width="46px" height="46px" viewBox="0 0 46 46" version="1.1" xmlns="http://www.w3.org/2000/svg" xmlns:xlink="http://www.w3.org/1999/xlink">
    <title>disc</title>
    <defs>
        <linearGradient x1="50%" y1="0%" x2="50%" y2="83.4544362%" id="linearGradient-1">
            <stop stop-color="#4FC68A" offset="0%"></stop>
            <stop stop-color="#139554" offset="100%"></stop>
        </linearGradient>
    </defs>
    <g id="Page-2" stroke="none" stroke-width="1" fill="none" fill-rule="evenodd">
        <g id="Raporlama-Servisi" transform="translate(-532.000000, -2620.000000)" fill="url(#linearGradient-1)">
            <g id="section4" transform="translate(-10.000000, 2455.000000)">
                <g id="card1" transform="translate(102.000000, 88.000000)">
                    <g id="disc" transform="translate(440.000000, 77.000000)">
                        <path d="M23.5,17 C19.91005,17 17,19.91005 17,23.5 C17,27.08995 19.91005,30 23.5,30 C27.08995,30 30,27.08995 30,23.5 C30,19.91005 27.08995,17 23.5,17 Z M21.3333333,23.5 C21.3333333,24.69665 22.30335,25.6666667 23.5,25.6666667 C24.69665,25.6666667 25.6666667,24.69665 25.6666667,23.5 C25.6666667,22.30335 24.69665,21.3333333 23.5,21.3333333 C22.30335,21.3333333 21.3333333,22.30335 21.3333333,23.5 Z" id="Shape"></path>
                        <path d="M9,23 C9,15.26802 15.26802,9 23,9 L23,13 C17.47716,13 13,17.47716 13,23 L9,23 Z" id="Path" fill-rule="nonzero"></path>
                        <path d="M23,33 C28.5228,33 33,28.5228 33,23 L37,23 C37,30.732 30.732,37 23,37 L23,33 Z" id="Path" fill-rule="nonzero"></path>
                        <path d="M23,0 C10.2974555,0 0,10.2974555 0,23 C0,35.7024818 10.2974555,46 23,46 C35.7024818,46 46,35.7024818 46,23 C46,10.2974555 35.7024818,0 23,0 Z M4.18181818,23 C4.18181818,33.3930727 12.6070109,41.8181818 23,41.8181818 C33.3930727,41.8181818 41.8181818,33.3930727 41.8181818,23 C41.8181818,12.6070109 33.3930727,4.18181818 23,4.18181818 C12.6070109,4.18181818 4.18181818,12.6070109 4.18181818,23 Z" id="Shape"></path>
                    </g>
                </g>
            </g>
        </g>
    </g>
</svg>