<svg xmlns="http://www.w3.org/2000/svg" width="1262" height="566" viewBox="0 0 1262 566">
  <g id="background-images" opacity="0.202">
    <text id="_011100010" data-name="011100010" transform="translate(810)" fill="#9796be" font-size="21.943"
          font-family="LucidaGrande, Lucida Grande" letter-spacing="0em">
      <tspan x="0" y="21">011100010</tspan>
    </text>
    <text id="_101000101" data-name="101000101" transform="translate(810 55)" fill="#9796be" font-size="21.943"
          font-family="LucidaGrande, Lucida Grande" letter-spacing="0em">
      <tspan x="0" y="21">101000101</tspan>
    </text>
    <text id="_001001101" data-name="001001101" transform="translate(810)" fill="#9796be" font-size="21.943"
          font-family="LucidaGrande, Lucida Grande" letter-spacing="0em">
      <tspan x="0" y="21">001001101</tspan>
    </text>
    <path id="Fill_4" data-name="Fill 4"
          d="M206.956,132.952V131.9H2.088V2.1H205.912V132.952h1.044v0H208V0H0V134H208v-1.048h-1.044"
          transform="translate(204 28)" fill="#cbcadc"/>
    <path id="Fill_5" data-name="Fill 5"
          d="M206.956,25.954V24.907H2.088V2.093H205.912V25.954h1.044v0H208V0H0V27H208V25.954h-1.044"
          transform="translate(204 28)" fill="#cbcadc"/>
    <path id="Fill_6" data-name="Fill 6"
          d="M31.152,57.292,1.176,31.575a3.4,3.4,0,0,1,0-5.147L31.152.706a2.921,2.921,0,0,1,4.152.351,3.02,3.02,0,0,1-.346,4.211L10.3,26.427a3.4,3.4,0,0,0,0,5.147L34.958,52.732a3.018,3.018,0,0,1,.346,4.209,2.916,2.916,0,0,1-4.152.351"
          transform="translate(245 77)" fill="#cbcadc"/>
    <path id="Fill_7" data-name="Fill 7"
          d="M.7,56.94h0a3.019,3.019,0,0,1,.346-4.211L25.7,31.575a3.4,3.4,0,0,0,0-5.147L1.043,5.272A3.019,3.019,0,0,1,.7,1.061v0A2.92,2.92,0,0,1,4.85.707l29.972,25.72a3.4,3.4,0,0,1,0,5.147L4.85,57.293A2.918,2.918,0,0,1,.7,56.94"
          transform="translate(335 77)" fill="#cbcadc"/>
    <path id="Fill_8" data-name="Fill 8"
          d="M1.84,84.787h0A2.98,2.98,0,0,1,.21,80.929L31.361,1.867a2.906,2.906,0,0,1,3.8-1.654,2.983,2.983,0,0,1,1.632,3.857L5.642,83.133a2.911,2.911,0,0,1-3.8,1.654"
          transform="translate(288 63)" fill="#cbcadc"/>
    <path id="Fill_9" data-name="Fill 9" d="M13,6.5A6.5,6.5,0,1,1,6.5,0,6.5,6.5,0,0,1,13,6.5"
          transform="translate(216 34)" fill="#e88dab"/>
    <path id="Fill_10" data-name="Fill 10" d="M13,6.5A6.5,6.5,0,1,1,6.5,0,6.5,6.5,0,0,1,13,6.5"
          transform="translate(241 34)" fill="#cbcadc"/>
    <path id="Fill_11" data-name="Fill 11" d="M13,6.5A6.5,6.5,0,1,1,6.5,0,6.5,6.5,0,0,1,13,6.5"
          transform="translate(267 34)" fill="#f5bb3d"/>
    <path id="Fill_12" data-name="Fill 12"
          d="M206.956,132.952V131.9H2.088V2.1H205.912V132.952h1.044v0H208V0H0V134H208v-1.048h-1.044"
          transform="translate(0 432)" fill="#cbcadc"/>
    <path id="Fill_13" data-name="Fill 13"
          d="M206.956,25.954V24.907H2.088V2.093H205.912V25.954h1.044v0H208V0H0V27H208V25.954h-1.044"
          transform="translate(0 432)" fill="#cbcadc"/>
    <path id="Fill_14" data-name="Fill 14" d="M13,6.5A6.5,6.5,0,1,1,6.5,0,6.5,6.5,0,0,1,13,6.5"
          transform="translate(13 440)" fill="#e88dab"/>
    <path id="Fill_15" data-name="Fill 15" d="M13,6.5A6.5,6.5,0,1,1,6.5,0,6.5,6.5,0,0,1,13,6.5"
          transform="translate(37 440)" fill="#cbcadc"/>
    <path id="Fill_16" data-name="Fill 16" d="M13,6.5A6.5,6.5,0,1,1,6.5,0,6.5,6.5,0,0,1,13,6.5"
          transform="translate(63 440)" fill="#f5bb3d"/>
    <path id="Fill_22" data-name="Fill 22"
          d="M27.671,72h0L10.051,62.484l2.891-5.432a4.8,4.8,0,0,0-.319-5,27.711,27.711,0,0,1-1.575-2.559A4.758,4.758,0,0,0,6.884,46.97l-.147,0-6.116.2L0,27.049l6.139-.186a4.748,4.748,0,0,0,4.135-2.8c.224-.475.44-.908.661-1.325.239-.444.484-.878.729-1.288a4.791,4.791,0,0,0,.037-5L8.455,11.171,25.442.562l3.234,5.245a4.705,4.705,0,0,0,4.04,2.237c.144,0,.291-.006.435-.019.8-.069,1.6-.1,2.4-.1.191,0,.384,0,.574.006h.1a4.746,4.746,0,0,0,4.2-2.5L43.329,0l17.62,9.516-2.893,5.43a4.808,4.808,0,0,0,.318,5,27.612,27.612,0,0,1,1.565,2.551A4.76,4.76,0,0,0,64.1,25.021l.146,0,6.131-.19L71,44.95l-6.133.192a4.74,4.74,0,0,0-4.122,2.8c-.218.462-.443.911-.669,1.333s-.47.856-.728,1.288a4.82,4.82,0,0,0-.035,5.022l3.229,5.243L45.557,71.438,42.336,66.2a4.711,4.711,0,0,0-4.049-2.24c-.14,0-.283.006-.423.018-.787.068-1.593.1-2.4.1-.2,0-.4,0-.593-.006h-.108a4.736,4.736,0,0,0-4.2,2.5L27.672,72Zm7.837-52.484a16.336,16.336,0,0,0-14.437,8.69,16.573,16.573,0,0,0,6.693,22.336,16.294,16.294,0,0,0,22.163-6.751,16.458,16.458,0,0,0-14.42-24.276Z"
          transform="translate(126 177)" fill="#cbcadc"/>
    <path id="Fill_24" data-name="Fill 24"
          d="M40.374,63H22.626V57.524a4.241,4.241,0,0,0-2.335-3.779,24.263,24.263,0,0,1-2.3-1.338,4.275,4.275,0,0,0-2.35-.709,4.125,4.125,0,0,0-2.074.559L8.867,55,0,39.5l4.725-2.741a4.268,4.268,0,0,0,2.066-3.947c-.022-.429-.033-.872-.033-1.317s.011-.886.033-1.315a4.253,4.253,0,0,0-2.053-3.93L0,23.5,8.867,8l4.717,2.741a4.134,4.134,0,0,0,2.069.556,4.277,4.277,0,0,0,2.356-.713A24.6,24.6,0,0,1,20.3,9.253a4.242,4.242,0,0,0,2.331-3.777V0H40.374V5.476a4.24,4.24,0,0,0,2.331,3.777,24.918,24.918,0,0,1,2.286,1.336,4.276,4.276,0,0,0,2.356.713,4.126,4.126,0,0,0,2.068-.556L54.133,8,63,23.5,58.281,26.24a4.251,4.251,0,0,0-2.057,3.934c.022.474.033.908.033,1.326s-.011.844-.033,1.317a4.255,4.255,0,0,0,2.064,3.947L63,39.5,54.133,55l-4.7-2.739a4.125,4.125,0,0,0-2.074-.559,4.275,4.275,0,0,0-2.35.709,24.266,24.266,0,0,1-2.3,1.338,4.241,4.241,0,0,0-2.335,3.779V63ZM31.507,16.857a14.4,14.4,0,0,0-10.281,4.287A14.675,14.675,0,0,0,31.507,46.158,14.364,14.364,0,0,0,41.78,41.863a14.744,14.744,0,0,0,0-20.72A14.374,14.374,0,0,0,31.507,16.857Z"
          transform="translate(465 55)" fill="#cbcadc"/>
    <path id="Fill_25" data-name="Fill 25"
          d="M40.375,63H22.625V57.526a4.243,4.243,0,0,0-2.333-3.779,24.971,24.971,0,0,1-2.3-1.34,4.272,4.272,0,0,0-2.349-.709,4.125,4.125,0,0,0-2.073.559L8.867,55,0,39.5l4.725-2.741a4.255,4.255,0,0,0,2.066-3.946c-.022-.474-.033-.905-.033-1.317s.011-.844.033-1.317a4.248,4.248,0,0,0-2.051-3.93L0,23.5,8.867,8l4.719,2.741a4.126,4.126,0,0,0,2.069.556,4.264,4.264,0,0,0,2.354-.714A25.357,25.357,0,0,1,20.3,9.255a4.248,4.248,0,0,0,2.328-3.779V0h17.75V5.476A4.248,4.248,0,0,0,42.7,9.255a24.931,24.931,0,0,1,2.286,1.334,4.27,4.27,0,0,0,2.356.714,4.128,4.128,0,0,0,2.07-.556L54.131,8,63,23.5,58.279,26.24a4.253,4.253,0,0,0-2.057,3.934c.022.43.033.877.033,1.327s-.011.886-.033,1.317a4.268,4.268,0,0,0,2.066,3.947L63,39.5,54.131,55l-4.7-2.739a4.125,4.125,0,0,0-2.073-.559,4.272,4.272,0,0,0-2.349.709,25.19,25.19,0,0,1-2.3,1.34,4.24,4.24,0,0,0-2.333,3.779V63ZM31.506,16.857a14.4,14.4,0,0,0-10.28,4.288,14.675,14.675,0,0,0,10.28,25.013A14.367,14.367,0,0,0,41.78,41.864a14.741,14.741,0,0,0,0-20.719A14.376,14.376,0,0,0,31.506,16.857Z"
          transform="translate(72 109)" fill="#cbcadc"/>
    <path id="Fill_76" data-name="Fill 76"
          d="M100,37C100,16.566,77.614,0,50,0S0,16.566,0,37,22.386,74,50,74s50-16.564,50-37"
          transform="translate(569 62)" fill="#f5bb3d"/>
    <path id="Fill_77" data-name="Fill 77" d="M0,6.468,26,0,16.4,21,0,6.468" transform="translate(646 66)"
          fill="#f5bb3d"/>
    <path id="Fill_78" data-name="Fill 78" d="M12,6a6,6,0,1,0-6,6,6,6,0,0,0,6-6" transform="translate(590 92)"
          fill="#0b0c21"/>
    <path id="Fill_79" data-name="Fill 79" d="M12,6a6,6,0,1,0-6,6,6,6,0,0,0,6-6" transform="translate(612 92)"
          fill="#0b0c21"/>
    <path id="Fill_80" data-name="Fill 80" d="M12,6a6,6,0,1,0-6,6,6,6,0,0,0,6-6" transform="translate(637 92)"
          fill="#0b0c21"/>
    <path id="Fill_87" data-name="Fill 87" d="M0,127H176V0H0Z" transform="translate(379 294)" fill="#cbcadc"/>
    <path id="Fill_88" data-name="Fill 88"
          d="M71,36.012A35.542,35.542,0,0,1,6.858,57.554h15.5V32.079H0A35.776,35.776,0,0,1,35.394,0,35.814,35.814,0,0,1,71,36.012"
          transform="translate(470 325)" fill="#fffffe"/>
    <path id="Fill_89" data-name="Fill 89"
          d="M77,26H0V0H70.052a37.705,37.705,0,0,0-.212,4.014A37.232,37.232,0,0,0,77,26" transform="translate(399 357)"
          fill="#fffffe"/>
    <path id="Fill_93" data-name="Fill 93" d="M0,6H171V0H0Z" transform="translate(579 294)" fill="#9796be"/>
    <path id="Fill_94" data-name="Fill 94" d="M0,6H171V0H0Z" transform="translate(579 308)" fill="#9796be"/>
    <path id="Fill_95" data-name="Fill 95" d="M0,6H171V0H0Z" transform="translate(579 324)" fill="#9796be"/>
    <path id="Fill_96" data-name="Fill 96" d="M0,6H171V0H0Z" transform="translate(579 338)" fill="#9796be"/>
    <path id="Fill_97" data-name="Fill 97" d="M0,6H99V0H0Z" transform="translate(579 352)" fill="#9796be"/>
    <path id="Fill_98" data-name="Fill 98" d="M0,6H171V0H0Z" transform="translate(579 369)" fill="#9796be"/>
    <path id="Fill_99" data-name="Fill 99" d="M0,6H171V0H0Z" transform="translate(579 383)" fill="#9796be"/>
    <path id="Fill_100" data-name="Fill 100" d="M0,6H171V0H0Z" transform="translate(579 397)" fill="#9796be"/>
    <path id="Fill_101" data-name="Fill 101" d="M0,6H128V0H0Z" transform="translate(579 412)" fill="#9796be"/>
    <path id="Fill_110" data-name="Fill 110" d="M174.777,149,0,125.327,20.225,0,195,23.673,174.777,149"
          transform="translate(773 282)" fill="#f5bb3d"/>
    <path id="Fill_112" data-name="Fill 112" d="M62,55,0,46.651,38.835,0,62,55" transform="translate(801 331)"
          fill="#e88dab"/>
    <path id="Fill_113" data-name="Fill 113" d="M12,6A6,6,0,1,1,6,0a6,6,0,0,1,6,6" transform="translate(345 215)"
          fill="#e88dab"/>
    <path id="Fill_114" data-name="Fill 114" d="M12,6A6,6,0,1,1,6,0a6,6,0,0,1,6,6" transform="translate(366 215)"
          fill="#fffffe"/>
    <path id="Fill_115" data-name="Fill 115" d="M12,6A6,6,0,1,1,6,0a6,6,0,0,1,6,6" transform="translate(387 215)"
          fill="#f5bb3d"/>
    <path id="Fill_118" data-name="Fill 118" d="M0,21H21V0H0Z" transform="translate(408 253)" fill="#f5bb3d"/>
    <path id="Fill_119" data-name="Fill 119" d="M0,21H21V0H0Z" transform="translate(436 253)" fill="#e88dab"/>
    <path id="Fill_135" data-name="Fill 135"
          d="M53.515,5.455C45.143,4.378,9.575-.346.3.02c-.327.013-.43.447-.08.513C8.8,2.16,44,5.744,53.426,6c.7.02.791-.454.088-.544"
          transform="translate(820 223)" fill="#0b0c21"/>
    <path id="Fill_197" data-name="Fill 197"
          d="M72.613,20.684A38.488,38.488,0,1,1,20.65,4.389a38.349,38.349,0,0,1,51.963,16.3"
          transform="translate(169 391)" fill="#cbcadc"/>
    <path id="Fill_198" data-name="Fill 198" d="M26.4,7.512A14,14,0,1,1,7.512,1.6,14,14,0,0,1,26.4,7.512"
          transform="translate(190 407)" fill="#fffffe"/>
    <path id="Fill_199" data-name="Fill 199"
          d="M47.179,12.725a17.07,17.07,0,0,1,.821,1.7A38.257,38.257,0,0,1,30.014,32.728,41.474,41.474,0,0,1,3.863,36.265a17.619,17.619,0,0,1-1-1.607c-6.4-11.585-1.69-25.9,10.552-31.964S40.775,1.14,47.179,12.725"
          transform="translate(196 431)" fill="#fffffe"/>
    <path id="Fill_17" data-name="Fill 17"
          d="M206.956,1.048h-1.044V131.9H2.086V2.1h204.87V1.048h0V0H0V134H208V0h-1.044V1.048"
          transform="translate(1054 241)" fill="#cbcadc"/>
    <path id="Fill_18" data-name="Fill 18"
          d="M206.956,1.047h-1.044v23.86H2.086V2.094h204.87V1.047h0V0H0V27H208V0h-1.044V1.047"
          transform="translate(1054 240)" fill="#cbcadc"/>
    <path id="Fill_19" data-name="Fill 19" d="M13,6.5A6.5,6.5,0,1,1,6.5,0,6.5,6.5,0,0,1,13,6.5"
          transform="translate(1067 249)" fill="#e88dab"/>
    <path id="Fill_20" data-name="Fill 20" d="M13,6.5A6.5,6.5,0,1,1,6.5,0,6.5,6.5,0,0,1,13,6.5"
          transform="translate(1092 249)" fill="#cbcadc"/>
    <path id="Fill_111" data-name="Fill 111" d="M62,92,0,83.743,44.086,0,62,92" transform="translate(872 321)"
          fill="#e88dab"/>
    <path id="Fill_21" data-name="Fill 21" d="M13,6.5A6.5,6.5,0,1,1,6.5,0,6.5,6.5,0,0,1,13,6.5"
          transform="translate(1117 249)" fill="#f5bb3d"/>
    <path id="Fill_23" data-name="Fill 23"
          d="M57.038,86H31.962V78.526a5.774,5.774,0,0,0-3.295-5.159,34.664,34.664,0,0,1-3.247-1.828A6.173,6.173,0,0,0,22.1,70.57a6,6,0,0,0-2.931.763l-6.644,3.74L0,53.925l6.673-3.742A5.763,5.763,0,0,0,9.593,44.8c-.031-.588-.047-1.193-.047-1.8s.016-1.209.047-1.8a5.746,5.746,0,0,0-2.9-5.365L0,32.072,12.527,10.927l6.663,3.742a5.986,5.986,0,0,0,2.923.76,6.2,6.2,0,0,0,3.329-.974,34.82,34.82,0,0,1,3.23-1.823,5.771,5.771,0,0,0,3.29-5.157V0H57.038V7.475a5.771,5.771,0,0,0,3.291,5.157,35.177,35.177,0,0,1,3.23,1.823,6.2,6.2,0,0,0,3.33.974,5.977,5.977,0,0,0,2.922-.76l6.665-3.742L89,32.072l-6.665,3.747a5.749,5.749,0,0,0-2.907,5.37c.03.579.046,1.188.046,1.812s-.015,1.22-.046,1.8a5.775,5.775,0,0,0,2.917,5.389L89,53.925,76.475,75.074l-6.646-3.74A6,6,0,0,0,66.9,70.57a6.179,6.179,0,0,0-3.318.969,34.875,34.875,0,0,1-3.247,1.828,5.775,5.775,0,0,0-3.3,5.159V86ZM44.51,23.011a20.9,20.9,0,0,0-7.993,1.57,20.521,20.521,0,0,0-6.53,4.283,19.9,19.9,0,0,0-4.4,6.354,19.563,19.563,0,0,0,0,15.569,19.937,19.937,0,0,0,4.4,6.36,20.53,20.53,0,0,0,6.53,4.29,21.085,21.085,0,0,0,15.984,0,20.494,20.494,0,0,0,6.524-4.29,19.927,19.927,0,0,0,4.4-6.36,19.6,19.6,0,0,0,0-15.569,19.892,19.892,0,0,0-4.4-6.354A20.485,20.485,0,0,0,52.5,24.581,20.881,20.881,0,0,0,44.51,23.011Z"
          transform="translate(1123 440)" fill="#cbcadc"/>
  </g>
</svg>
