<?xml version="1.0" encoding="UTF-8"?>
<svg width="24px" height="24px" viewBox="0 0 24 24" version="1.1" xmlns="http://www.w3.org/2000/svg" xmlns:xlink="http://www.w3.org/1999/xlink">
    <title>4. Travel/plane</title>
    <g id="4.-Travel/plane" stroke="none" stroke-width="1" fill="none" fill-rule="evenodd">
        <path d="M19.0652401,5.80304527 C20.1478803,5.35459964 21.3890985,5.86841688 21.8380066,6.95086532 C22.286355,8.03289084 21.7721176,9.27420614 20.6893376,9.72278281 L20.6893376,9.72278281 L17.0005224,11.0972803 C16.8997042,11.1347474 16.8168673,11.2090882 16.7687511,11.3052803 L16.7687511,11.3052803 L13.5859276,17.6726252 C13.5032834,17.8375446 13.3691727,17.9710592 13.2038869,18.0529679 L13.2038869,18.0529679 L10.9031529,19.2033349 C10.5908595,19.3592807 10.2149408,19.3081826 9.95560409,19.0745358 C9.69626743,18.8408891 9.60637311,18.4723176 9.72901452,18.1455067 L9.72901452,18.1455067 L11.3896181,13.7146836 C11.4195604,13.6359759 11.3999323,13.5470038 11.3396536,13.4881997 C11.2793748,13.4293957 11.1899439,13.4119769 11.1120018,13.4438592 L11.1120018,13.4438592 L6.34328498,15.3523647 C6.02814012,15.4783868 5.66822093,15.4046001 5.42808527,15.1647403 L5.42808527,15.1647403 L2.2486577,11.9853127 C2.04925827,11.7859028 1.96188876,11.5004966 2.01549096,11.223637 C2.06909316,10.9467774 2.25667034,10.714603 2.51608619,10.6040234 L2.51608619,10.6040234 L4.7285263,9.65571345 C4.95820202,9.55856374 5.21875629,9.56599929 5.44251792,9.67608895 L5.44251792,9.67608895 L7.45969279,10.6846764 C7.57199064,10.7410578 7.70349742,10.7447885 7.81881104,10.6948641 L7.81881104,10.6948641 L19.0584483,5.80304527 Z M9.00992904,4.7715354 C9.21822004,4.68577749 9.45195619,4.68577749 9.6602472,4.7715354 L9.6602472,4.7715354 L14.1496499,6.62655522 C14.2279159,6.65989639 14.278712,6.73674874 14.278712,6.82182046 C14.278712,6.90689219 14.2279159,6.98374454 14.1496499,7.01708571 L14.1496499,7.01708571 L10.6246877,8.55119135 C10.5186244,8.59624913 10.3988001,8.59624913 10.2927368,8.55119135 L10.2927368,8.55119135 L6.98171743,7.18093872 C6.66573759,7.04933608 6.45925422,6.73998029 6.45925422,6.39690631 C6.45925422,6.05383233 6.66573759,5.74447654 6.98256641,5.61287391 L6.98256641,5.61287391 Z" id="ðŸ–-Color" fill="#5A5A5A"></path>
        <rect id="_Transparent_Rectangle_" fill-opacity="0" fill="#D8D8D8" x="0" y="0" width="24" height="24"></rect>
    </g>
</svg>