<svg width="24" height="24" viewBox="0 0 24 24" fill="none" xmlns="http://www.w3.org/2000/svg">
<g id="plane">
<path id="Shape" fill-rule="evenodd" clip-rule="evenodd" d="M10.2927 8.55119L6.98172 7.18094H6.98257C6.66574 7.04934 6.45925 6.73998 6.45925 6.39691C6.45925 6.05383 6.66574 5.74448 6.98257 5.61287L9.00993 4.77153C9.21822 4.68578 9.45196 4.68578 9.66025 4.77153L14.1497 6.62655C14.2279 6.6599 14.2787 6.73675 14.2787 6.82182C14.2787 6.90689 14.2279 6.98374 14.1497 7.01709L10.6247 8.55119C10.5186 8.59625 10.3988 8.59625 10.2927 8.55119ZM19.0652 5.80304C20.1479 5.3546 21.3891 5.86842 21.838 6.95086V6.95002C22.2864 8.03289 21.7721 9.27421 20.6893 9.72278L17.0005 11.0973C16.8997 11.1347 16.8169 11.2091 16.7688 11.3053L13.5859 17.6726C13.5033 17.8375 13.3692 17.9711 13.2039 18.053L10.9032 19.2033C10.5909 19.3593 10.2149 19.3082 9.9556 19.0745C9.69627 18.8409 9.60637 18.4723 9.72901 18.1455L11.3896 13.7147C11.4196 13.636 11.3999 13.547 11.3397 13.4882C11.2794 13.4294 11.1899 13.412 11.112 13.4439L6.34329 15.3524C6.02814 15.4784 5.66822 15.4046 5.42809 15.1647L2.24866 11.9853C2.04926 11.7859 1.96189 11.5005 2.01549 11.2236C2.06909 10.9468 2.25667 10.7146 2.51609 10.604L4.72853 9.65571C4.9582 9.55856 5.21876 9.566 5.44252 9.67609L7.45969 10.6847C7.57199 10.7411 7.7035 10.7448 7.81881 10.6949L19.0584 5.80304H19.0652Z" fill="#5A5A5A"/>
</g>
</svg>
