<!-- Generated by IcoMoon.io -->
<svg version="1.1" xmlns="http://www.w3.org/2000/svg" width="24" height="24" viewBox="0 0 24 24">
  <title>asc-number</title>
  <path
    d="M13.236 20.031c0.748 0 1.354 0.606 1.354 1.354 0 0.355-0.139 0.696-0.388 0.949l-1.194 1.215c-0.581 0.591-1.53 0.599-2.121 0.018l-0.018-0.018-1.194-1.215c-0.524-0.533-0.517-1.39 0.016-1.914 0.253-0.249 0.594-0.388 0.949-0.388h2.597zM18.669 6c1.378 0 2.445 0.466 3.199 1.397s1.132 2.262 1.132 3.991c0 1.156-0.176 2.167-0.528 3.032s-0.858 1.527-1.517 1.988c-0.659 0.461-1.426 0.691-2.302 0.691-0.573 0-1.152-0.097-1.736-0.292s-1.082-0.466-1.494-0.814c-0.141-0.113-0.244-0.233-0.309-0.361s-0.098-0.284-0.098-0.468c0-0.266 0.073-0.494 0.219-0.683s0.324-0.284 0.536-0.284c0.131 0 0.244 0.018 0.34 0.054s0.224 0.1 0.385 0.192c0.402 0.246 0.762 0.438 1.079 0.576s0.641 0.207 0.973 0.207c0.624 0 1.119-0.292 1.487-0.875s0.576-1.402 0.626-2.456c-0.231 0.389-0.558 0.698-0.981 0.929s-0.895 0.345-1.419 0.345c-0.624 0-1.18-0.148-1.668-0.445s-0.87-0.711-1.147-1.243c-0.277-0.532-0.415-1.136-0.415-1.811 0-0.706 0.156-1.338 0.468-1.896s0.745-0.993 1.298-1.305c0.553-0.312 1.177-0.468 1.871-0.468zM3.909 6.077c0.332 0 0.604 0.105 0.815 0.315s0.317 0.494 0.317 0.852v0 7.798h1.404l0.142 0.004c0.64 0.039 0.96 0.355 0.96 0.948 0 0.645-0.367 0.967-1.102 0.967v0l-5.305-0.004c-0.649-0.040-0.973-0.361-0.973-0.963 0-0.635 0.372-0.952 1.117-0.952v0h1.404v-6.278l-1.328 0.814-0.113 0.060c-0.113 0.052-0.226 0.078-0.34 0.078-0.252 0-0.465-0.107-0.641-0.322s-0.264-0.455-0.264-0.721c0-0.358 0.156-0.629 0.468-0.814v0l2.385-1.458 0.176-0.099c0.293-0.149 0.587-0.224 0.88-0.224zM12.662 11.941l0.148 0.005c0.616 0.040 0.924 0.34 0.924 0.901 0 0.604-0.357 0.906-1.072 0.906v0h-2.958l-0.148-0.005c-0.616-0.040-0.924-0.34-0.924-0.901 0-0.604 0.357-0.906 1.072-0.906v0h2.958zM18.804 7.857c-0.473 0-0.853 0.159-1.139 0.476s-0.43 0.737-0.43 1.259c0 0.512 0.143 0.926 0.43 1.243s0.667 0.476 1.139 0.476c0.473 0 0.855-0.159 1.147-0.476s0.438-0.732 0.438-1.243c0-0.512-0.146-0.929-0.438-1.251s-0.674-0.484-1.147-0.484z"></path>
</svg>
