<!-- Generated by IcoMoon.io -->
<svg version="1.1" xmlns="http://www.w3.org/2000/svg" width="24" height="24" viewBox="0 0 24 24">
  <title>asc-alphabet</title>
  <path
    d="M13.065 19.235c0.702 0 1.27 0.569 1.27 1.27 0 0.344-0.14 0.674-0.388 0.913l-1.217 1.176c-0.581 0.562-1.503 0.562-2.085 0l-1.217-1.176c-0.505-0.488-0.518-1.292-0.031-1.796 0.239-0.248 0.569-0.388 0.913-0.388h2.754zM18.806 9c1.085 0 1.888 0.255 2.41 0.764s0.783 1.289 0.783 2.337v0 3.29l-0.006 0.133c-0.023 0.257-0.117 0.463-0.28 0.617-0.191 0.18-0.457 0.269-0.798 0.269-0.321 0-0.58-0.095-0.776-0.284s-0.294-0.434-0.294-0.735v0-0.102l-0.071 0.149c-0.154 0.289-0.381 0.521-0.683 0.695-0.352 0.204-0.763 0.306-1.235 0.306-0.502 0-0.957-0.097-1.363-0.291s-0.728-0.466-0.964-0.815c-0.236-0.349-0.354-0.738-0.354-1.165 0-0.524 0.138-0.937 0.414-1.238s0.721-0.519 1.333-0.655c0.613-0.136 1.451-0.204 2.516-0.204v0h0.392v-0.262l-0.006-0.168c-0.023-0.322-0.114-0.562-0.273-0.72-0.186-0.184-0.495-0.277-0.926-0.277s-1.055 0.146-1.868 0.437c-0.231 0.107-0.427 0.16-0.588 0.16-0.221 0-0.397-0.075-0.527-0.226s-0.196-0.347-0.196-0.59c0-0.194 0.045-0.354 0.136-0.48s0.236-0.243 0.437-0.349c0.352-0.184 0.781-0.33 1.288-0.437s1.007-0.16 1.499-0.16zM6.725 9.175l0.15 0.008c0.242 0.026 0.44 0.115 0.595 0.269 0.186 0.184 0.279 0.408 0.279 0.67 0 0.291-0.105 0.544-0.316 0.757v0l-3.51 3.8h3.058l0.141 0.004c0.589 0.037 0.883 0.312 0.883 0.826 0 0.544-0.341 0.815-1.024 0.815v0h-4.881l-0.146-0.008c-0.236-0.026-0.433-0.115-0.592-0.269-0.191-0.184-0.286-0.403-0.286-0.655 0-0.291 0.105-0.544 0.316-0.757v0l3.525-3.815h-2.892l-0.141-0.004c-0.589-0.036-0.883-0.306-0.883-0.811 0-0.553 0.341-0.83 1.024-0.83v0h4.7zM19.831 13.135h-0.256l-0.237 0.002c-0.688 0.011-1.179 0.074-1.473 0.187-0.326 0.126-0.49 0.354-0.49 0.684 0 0.272 0.093 0.493 0.279 0.662s0.419 0.255 0.7 0.255c0.442 0 0.798-0.143 1.070-0.429s0.407-0.658 0.407-1.114v0-0.247zM12.765 11.562l0.147 0.004c0.615 0.038 0.922 0.323 0.922 0.855 0 0.573-0.357 0.859-1.070 0.859v0h-2.953l-0.147-0.004c-0.615-0.038-0.922-0.323-0.922-0.855 0-0.573 0.357-0.859 1.070-0.859v0h2.953z"></path>
</svg>
