<!-- Generated by IcoMoon.io -->
<svg version="1.1" xmlns="http://www.w3.org/2000/svg" width="24" height="24" viewBox="0 0 24 24">
  <title>bold-g</title>
  <path
    d="M13.884 20c0.766 0 1.465-0.192 2.098-0.575s1.127-0.904 1.483-1.562c0.356-0.658 0.535-1.388 0.535-2.192 0-0.858-0.214-1.635-0.641-2.329s-1.016-1.224-1.764-1.589c0.552-0.365 0.998-0.836 1.336-1.411s0.508-1.155 0.508-1.74c0-0.84-0.196-1.612-0.588-2.315s-0.927-1.26-1.604-1.671c-0.677-0.411-1.425-0.616-2.245-0.616v0h-7.002v16h7.884zM12.682 10.301h-3.341v-3.425h3.341c0.463 0 0.86 0.169 1.189 0.507s0.494 0.744 0.494 1.219c0 0.475-0.165 0.877-0.494 1.205s-0.726 0.493-1.189 0.493v0zM13.269 17.151h-3.929v-3.425h3.929c0.463 0 0.855 0.169 1.176 0.507s0.481 0.744 0.481 1.219c0 0.475-0.16 0.877-0.481 1.205s-0.713 0.493-1.176 0.493v0z"></path>
</svg>
