<!-- Generated by IcoMoon.io -->
<svg version="1.1" xmlns="http://www.w3.org/2000/svg" width="24" height="24" viewBox="0 0 24 24">
  <title>des-alphabet</title>
  <path
    d="M12.659 19.235c0.706 0 1.278 0.572 1.278 1.278 0 0.34-0.136 0.666-0.377 0.906l-1.141 1.134c-0.585 0.581-1.529 0.581-2.114 0l-1.141-1.134c-0.501-0.497-0.503-1.306-0.006-1.807 0.24-0.241 0.566-0.377 0.906-0.377h2.595zM4.532 9c1.055 0 1.837 0.255 2.345 0.764s0.762 1.289 0.762 2.337v0 3.29l-0.006 0.133c-0.023 0.257-0.114 0.463-0.273 0.617-0.186 0.18-0.445 0.269-0.777 0.269-0.313 0-0.564-0.095-0.755-0.284s-0.286-0.434-0.286-0.735v0-0.102l-0.069 0.149c-0.15 0.289-0.371 0.521-0.664 0.695-0.342 0.204-0.742 0.306-1.202 0.306-0.488 0-0.931-0.097-1.326-0.291s-0.708-0.466-0.938-0.815c-0.23-0.349-0.344-0.738-0.344-1.165 0-0.524 0.134-0.937 0.403-1.238s0.701-0.519 1.297-0.655c0.596-0.136 1.412-0.204 2.447-0.204v0h0.381v-0.262l-0.006-0.168c-0.022-0.322-0.111-0.562-0.266-0.72-0.181-0.184-0.481-0.277-0.901-0.277s-1.026 0.146-1.817 0.437c-0.225 0.107-0.415 0.16-0.572 0.16-0.215 0-0.386-0.075-0.513-0.226s-0.19-0.347-0.19-0.59c0-0.194 0.044-0.354 0.132-0.48s0.23-0.243 0.425-0.349c0.342-0.184 0.76-0.33 1.253-0.437s0.979-0.16 1.458-0.16zM20.754 9.175l0.146 0.008c0.235 0.026 0.428 0.115 0.579 0.269 0.181 0.184 0.271 0.408 0.271 0.67 0 0.291-0.103 0.544-0.308 0.757v0l-3.415 3.8h2.975l0.137 0.004c0.573 0.037 0.859 0.312 0.859 0.826 0 0.544-0.332 0.815-0.997 0.815v0h-4.748l-0.142-0.008c-0.229-0.026-0.421-0.115-0.576-0.269-0.186-0.184-0.278-0.403-0.278-0.655 0-0.291 0.103-0.544 0.308-0.757v0l3.429-3.815h-2.814l-0.137-0.004c-0.573-0.036-0.859-0.306-0.859-0.811 0-0.553 0.332-0.83 0.997-0.83v0h4.572zM5.528 13.135h-0.249l-0.255 0.002c-0.657 0.012-1.126 0.075-1.408 0.187-0.318 0.126-0.476 0.354-0.476 0.684 0 0.272 0.090 0.493 0.271 0.662s0.408 0.255 0.681 0.255c0.43 0 0.777-0.143 1.040-0.429s0.396-0.658 0.396-1.114v0-0.247zM13.105 11.562l0.143 0.004c0.598 0.038 0.897 0.323 0.897 0.855 0 0.573-0.347 0.859-1.040 0.859v0h-2.872l-0.143-0.004c-0.598-0.038-0.897-0.323-0.897-0.855 0-0.573 0.347-0.859 1.040-0.859v0h2.872z"></path>
</svg>
