<!-- Generated by IcoMoon.io -->
<svg version="1.1" xmlns="http://www.w3.org/2000/svg" width="24" height="24" viewBox="0 0 24 24">
  <title>email</title>
  <path
    d="M19.272 18c0.455 0 0.857-0.172 1.205-0.517s0.522-0.742 0.522-1.193v0-10.58c0-0.451-0.174-0.848-0.522-1.193s-0.75-0.517-1.205-0.517v0h-14.545c-0.455 0-0.857 0.172-1.205 0.517s-0.522 0.742-0.522 1.193v0 10.58c0 0.451 0.174 0.848 0.522 1.193s0.75 0.517 1.205 0.517v0h14.545zM11.175 11.73l-5.909-3.889c-0.211-0.139-0.338-0.374-0.338-0.627v-0.451c0-0.255 0.206-0.461 0.461-0.461 0.090 0 0.178 0.026 0.253 0.076l5.945 3.912c0.25 0.165 0.574 0.165 0.825 0l5.945-3.912c0.213-0.14 0.498-0.081 0.638 0.132 0.049 0.075 0.076 0.163 0.076 0.253v0.451c0 0.252-0.127 0.488-0.338 0.627l-5.909 3.889c-0.5 0.329-1.149 0.329-1.649 0z"></path>
</svg>
