<!-- Generated by IcoMoon.io -->
<svg version="1.1" xmlns="http://www.w3.org/2000/svg" width="24" height="24" viewBox="0 0 24 24">
  <title>hamburger</title>
  <path
    d="M18.412 16.209c0.817 0 1.48 0.662 1.48 1.48v0.066c0 0.817-0.662 1.48-1.48 1.48h-12.823c-0.817 0-1.48-0.662-1.48-1.48v-0.066c0-0.817 0.662-1.48 1.48-1.48h12.823zM18.412 10.159c0.817 0 1.48 0.662 1.48 1.48v0.066c0 0.817-0.662 1.48-1.48 1.48h-12.823c-0.817 0-1.48-0.662-1.48-1.48v-0.066c0-0.817 0.662-1.48 1.48-1.48h12.823zM18.412 4.109c0.817 0 1.48 0.662 1.48 1.48v0.066c0 0.817-0.662 1.48-1.48 1.48h-12.823c-0.817 0-1.48-0.662-1.48-1.48v-0.066c0-0.817 0.662-1.48 1.48-1.48h12.823z"></path>
</svg>
