<!-- Generated by IcoMoon.io -->
<svg version="1.1" xmlns="http://www.w3.org/2000/svg" width="24" height="24" viewBox="0 0 24 24">
  <title>hamburger-g</title>
  <path
    d="M18.253 16.425c0.797 0 1.443 0.646 1.443 1.443v0.064c0 0.797-0.646 1.443-1.443 1.443h-12.506c-0.797 0-1.443-0.646-1.443-1.443v-0.064c0-0.797 0.646-1.443 1.443-1.443h12.506zM18.253 10.525c0.797 0 1.443 0.646 1.443 1.443v0.064c0 0.797-0.646 1.443-1.443 1.443h-12.506c-0.797 0-1.443-0.646-1.443-1.443v-0.064c0-0.797 0.646-1.443 1.443-1.443h12.506zM18.253 4.625c0.797 0 1.443 0.646 1.443 1.443v0.064c0 0.797-0.646 1.443-1.443 1.443h-12.506c-0.797 0-1.443-0.646-1.443-1.443v-0.064c0-0.797 0.646-1.443 1.443-1.443h12.506z"></path>
</svg>
