<!-- Generated by IcoMoon.io -->
<svg version="1.1" xmlns="http://www.w3.org/2000/svg" width="24" height="24" viewBox="0 0 24 24">
  <title>icon-list</title>
  <path
    d="M19.875 10.875c0.316 0 0.583-0.108 0.8-0.325s0.325-0.483 0.325-0.8v0-5.625c0-0.316-0.108-0.583-0.325-0.8s-0.483-0.325-0.8-0.325v0h-5.625c-0.316 0-0.583 0.108-0.8 0.325s-0.325 0.483-0.325 0.8v0 5.625c0 0.316 0.108 0.583 0.325 0.8s0.483 0.325 0.8 0.325v0h5.625zM9.75 10.875c0.316 0 0.583-0.108 0.8-0.325s0.325-0.483 0.325-0.8v0-5.625c0-0.316-0.108-0.583-0.325-0.8s-0.483-0.325-0.8-0.325v0h-5.625c-0.316 0-0.583 0.108-0.8 0.325s-0.325 0.483-0.325 0.8v0 5.625c0 0.316 0.108 0.583 0.325 0.8s0.483 0.325 0.8 0.325v0h5.625zM19.875 21c0.316 0 0.583-0.108 0.8-0.325s0.325-0.483 0.325-0.8v0-5.625c0-0.316-0.108-0.583-0.325-0.8s-0.483-0.325-0.8-0.325v0h-5.625c-0.316 0-0.583 0.108-0.8 0.325s-0.325 0.483-0.325 0.8v0 5.625c0 0.316 0.108 0.583 0.325 0.8s0.483 0.325 0.8 0.325v0h5.625zM9.75 21c0.316 0 0.583-0.108 0.8-0.325s0.325-0.483 0.325-0.8v0-5.625c0-0.316-0.108-0.583-0.325-0.8s-0.483-0.325-0.8-0.325v0h-5.625c-0.316 0-0.583 0.108-0.8 0.325s-0.325 0.483-0.325 0.8v0 5.625c0 0.316 0.108 0.583 0.325 0.8s0.483 0.325 0.8 0.325v0h5.625z"></path>
</svg>
