<!-- Generated by IcoMoon.io -->
<svg version="1.1" xmlns="http://www.w3.org/2000/svg" width="24" height="24" viewBox="0 0 24 24">
  <title>info</title>
  <path
    d="M12 3c1.242 0 2.411 0.234 3.507 0.703s2.051 1.11 2.865 1.925c0.814 0.814 1.456 1.77 1.925 2.865s0.703 2.265 0.703 3.507c0 1.242-0.234 2.411-0.703 3.507s-1.11 2.051-1.925 2.865c-0.814 0.814-1.77 1.456-2.865 1.925s-2.265 0.703-3.507 0.703c-1.242 0-2.411-0.234-3.507-0.703s-2.051-1.11-2.865-1.925c-0.814-0.814-1.456-1.77-1.925-2.865s-0.703-2.265-0.703-3.507c0-1.242 0.234-2.411 0.703-3.507s1.11-2.051 1.925-2.865c0.814-0.814 1.77-1.456 2.865-1.925s2.265-0.703 3.507-0.703zM12 10.313h-1.125l-0.089 0.007c-0.115 0.018-0.217 0.071-0.307 0.16-0.111 0.111-0.167 0.243-0.167 0.396s0.056 0.284 0.167 0.396c0.111 0.111 0.243 0.167 0.396 0.167v0h0.563v4.5h-0.563l-0.089 0.007c-0.115 0.018-0.217 0.071-0.307 0.16-0.111 0.111-0.167 0.243-0.167 0.396s0.056 0.284 0.167 0.396c0.111 0.111 0.243 0.167 0.396 0.167v0h2.25l0.089-0.007c0.115-0.018 0.218-0.071 0.307-0.16 0.111-0.111 0.167-0.243 0.167-0.396s-0.056-0.284-0.167-0.396c-0.111-0.111-0.243-0.167-0.396-0.167v0h-0.563v-5.063l-0.007-0.089c-0.018-0.115-0.071-0.217-0.16-0.307-0.111-0.111-0.243-0.167-0.396-0.167v0zM12 6.938c-0.316 0-0.583 0.108-0.8 0.325s-0.325 0.483-0.325 0.8c0 0.316 0.108 0.583 0.325 0.8s0.483 0.325 0.8 0.325c0.316 0 0.583-0.108 0.8-0.325s0.325-0.483 0.325-0.8c0-0.316-0.108-0.583-0.325-0.8s-0.483-0.325-0.8-0.325z"></path>
</svg>
