<!-- Generated by IcoMoon.io -->
<svg version="1.1" xmlns="http://www.w3.org/2000/svg" width="24" height="24" viewBox="0 0 24 24">
  <title>new</title>
  <path
    d="M17.375 20c0.433 0 0.813-0.163 1.137-0.49s0.487-0.708 0.487-1.144v-9.516c0-0.396-0.157-0.776-0.436-1.058l-4.324-4.35c-0.282-0.283-0.664-0.442-1.064-0.442h-5.551c-0.433 0-0.813 0.163-1.137 0.49s-0.488 0.708-0.488 1.144v13.731c0 0.436 0.162 0.817 0.488 1.144s0.704 0.49 1.137 0.49h9.75zM16.798 8.885h-2.898c-0.414 0-0.75-0.336-0.75-0.75v-2.918c0-0.207 0.168-0.375 0.375-0.375 0.1 0 0.196 0.040 0.266 0.111l3.273 3.293c0.146 0.147 0.145 0.384-0.002 0.53-0.070 0.070-0.165 0.109-0.264 0.109z"></path>
</svg>
