<!-- Generated by IcoMoon.io -->
<svg version="1.1" xmlns="http://www.w3.org/2000/svg" width="24" height="24" viewBox="0 0 24 24">
  <title>person</title>
  <path
    d="M19.892 20c0.305 0 0.566-0.109 0.783-0.326s0.326-0.478 0.326-0.783v-1.707c0-0.328-0.185-0.595-0.554-0.801s-0.554-0.308-0.554-0.308l-4.909-2.34c0.387-0.305 0.716-0.672 0.985-1.1s0.487-0.874 0.651-1.337c0.164-0.463 0.282-0.918 0.352-1.364s0.106-0.839 0.106-1.179v-2.815c0-0.469-0.15-0.938-0.449-1.408s-0.686-0.891-1.161-1.267c-0.475-0.375-1.015-0.68-1.619-0.915s-1.217-0.352-1.839-0.352c-0.622 0-1.238 0.117-1.848 0.352s-1.152 0.54-1.628 0.915c-0.475 0.375-0.859 0.798-1.152 1.267s-0.44 0.938-0.44 1.408v2.815c0 0.305 0.035 0.677 0.106 1.117s0.191 0.891 0.361 1.355c0.17 0.463 0.39 0.918 0.66 1.364s0.604 0.827 1.003 1.144l-4.944 2.34c0 0-0.188 0.109-0.563 0.326s-0.563 0.478-0.563 0.783v1.707c0 0.305 0.109 0.566 0.326 0.783s0.484 0.326 0.801 0.326h15.765z"></path>
</svg>
