<!-- Generated by IcoMoon.io -->
<svg version="1.1" xmlns="http://www.w3.org/2000/svg" width="24" height="24" viewBox="0 0 24 24">
  <title>logo-refresh</title>
  <path
    d="M7.688 3.982c0.264-0.101 0.549-0.106 0.824-0.014 0.313 0.104 0.564 0.313 0.735 0.625 0.155 0.308 0.183 0.646 0.074 0.971-0.105 0.312-0.314 0.563-0.615 0.726-0.688 0.358-1.283 0.827-1.791 1.41-0.503 0.577-0.869 1.227-1.103 1.956-0.234 0.731-0.318 1.472-0.252 2.227 0.066 0.759 0.273 1.477 0.611 2.142 0.196 0.36 0.423 0.696 0.68 1.009 0.255 0.31 0.537 0.589 0.847 0.837l0.157 0.121 0.162 0.116 0.112 0.071-0.020-0.076-0.012-0.076-0.007-0.077-0.001-0.156c0.016-0.317 0.162-0.598 0.377-0.756l0.284-0.174c0.268-0.148 0.569-0.19 0.863-0.108 0.225 0.062 0.418 0.186 0.564 0.356l0.1 0.136 1.7 2.651-0 0.013 0.034 0.051 0.454 0.001-0.373 0.191 0.020 0.059 0.025 0.136c0.015 0.136 0.007 0.272-0.026 0.404-0.040 0.159-0.117 0.304-0.224 0.428-0.042 0.049-0.087 0.095-0.16 0.153l-0.189 0.137-0.163 0.081-2.574 1.326c-0.259 0.129-0.547 0.156-0.823 0.070-0.221-0.069-0.407-0.2-0.586-0.454l-0.107-0.168-0.079-0.167c-0.087-0.228-0.103-0.474-0.036-0.715 0.070-0.25 0.218-0.46 0.422-0.601l0.046-0.028-0.069-0.033c-0.257-0.131-0.506-0.274-0.747-0.428l-0.356-0.241-0.344-0.258c-0.455-0.359-0.866-0.762-1.232-1.209-0.365-0.445-0.685-0.929-0.963-1.459-0.251-0.488-0.452-0.992-0.603-1.512-0.151-0.521-0.249-1.050-0.293-1.585-0.044-0.532-0.038-1.066 0.019-1.603 0.057-0.545 0.175-1.083 0.347-1.599 0.165-0.532 0.385-1.036 0.658-1.512 0.269-0.468 0.579-0.908 0.929-1.319 0.353-0.414 0.743-0.791 1.171-1.129 0.323-0.255 0.667-0.486 1.031-0.691l0.357-0.19 0.146-0.067zM13.857 2.12c0.256-0.127 0.539-0.152 0.817-0.079 0.247 0.065 0.458 0.201 0.654 0.48l0.097 0.151-0.013 0.006c0.188 0.301 0.209 0.655 0.066 0.977-0.042 0.094-0.094 0.181-0.158 0.263l-0.107 0.119-0.098 0.083 0.366 0.17c0.259 0.129 0.509 0.271 0.75 0.426l0.354 0.242 0.34 0.261c0.44 0.357 0.843 0.759 1.207 1.203 0.367 0.448 0.684 0.937 0.946 1.459 0.251 0.488 0.452 0.992 0.603 1.512 0.151 0.521 0.249 1.050 0.293 1.585 0.044 0.532 0.038 1.066-0.019 1.603-0.057 0.545-0.175 1.083-0.347 1.599-0.164 0.528-0.379 1.032-0.644 1.51-0.264 0.477-0.57 0.92-0.917 1.329-0.346 0.407-0.729 0.78-1.15 1.118-0.424 0.34-0.882 0.636-1.381 0.891-0.085 0.042-0.17 0.076-0.256 0.101-0.107 0.031-0.218 0.045-0.331 0.045-0.228 0-0.447-0.063-0.645-0.182-0.207-0.124-0.369-0.3-0.477-0.515-0.155-0.308-0.183-0.646-0.074-0.971 0.105-0.312 0.314-0.563 0.615-0.726 0.685-0.356 1.269-0.822 1.758-1.401s0.85-1.232 1.085-1.965c0.235-0.733 0.321-1.472 0.26-2.223-0.061-0.75-0.269-1.468-0.625-2.157-0.379-0.725-0.878-1.339-1.502-1.848-0.176-0.144-0.359-0.276-0.551-0.395l-0.319-0.184c0.047 0.103 0.078 0.207 0.095 0.312l0.015 0.16-0.006 0.163c-0.031 0.305-0.179 0.572-0.388 0.723l-0.247 0.151c-0.266 0.166-0.576 0.211-0.879 0.127-0.225-0.062-0.418-0.186-0.564-0.356l-0.1-0.136-1.367-2.133-0.070 0-0.203-0.405-0.017-0.060c-0.111-0.148-0.182-0.319-0.203-0.504-0.015-0.136-0.007-0.272 0.026-0.404 0.040-0.159 0.117-0.304 0.224-0.428 0.056-0.065 0.118-0.125 0.243-0.216l0.107-0.074 0.163-0.081 2.574-1.326z"></path>
</svg>
