<!-- Generated by IcoMoon.io -->
<svg version="1.1" xmlns="http://www.w3.org/2000/svg" width="24" height="24" viewBox="0 0 24 24">
  <title>save</title>
  <path
    d="M18.096 20c0.514 0 0.96-0.189 1.337-0.567s0.567-0.824 0.567-1.337v0-11.333l-3.763-3.763h-11.333c-0.529 0-0.978 0.189-1.349 0.567s-0.555 0.824-0.555 1.337v0 13.192c0 0.514 0.185 0.96 0.555 1.337s0.82 0.567 1.349 0.567v0h13.192zM13.583 8.667h-7.929c-0.414 0-0.75-0.336-0.75-0.75v-2.263c0-0.414 0.336-0.75 0.75-0.75h7.929c0.414 0 0.75 0.336 0.75 0.75v2.263c0 0.414-0.336 0.75-0.75 0.75zM11.5 18.096c-0.499 0-0.967-0.128-1.405-0.385s-0.786-0.604-1.043-1.043c-0.257-0.438-0.385-0.907-0.385-1.405s0.128-0.967 0.385-1.405c0.257-0.438 0.604-0.786 1.043-1.043s0.907-0.385 1.405-0.385c0.499 0 0.967 0.128 1.405 0.385s0.786 0.604 1.043 1.043c0.257 0.438 0.385 0.907 0.385 1.405s-0.128 0.967-0.385 1.405c-0.257 0.438-0.604 0.786-1.043 1.043s-0.907 0.385-1.405 0.385z"></path>
</svg>
