<!-- Generated by IcoMoon.io -->
<svg version="1.1" xmlns="http://www.w3.org/2000/svg" width="24" height="24" viewBox="0 0 24 24">
  <title>search-filter</title>
  <path
    d="M8.5 16c0.828 0 1.5 0.672 1.5 1.5s-0.672 1.5-1.5 1.5h-3c-0.828 0-1.5-0.672-1.5-1.5s0.672-1.5 1.5-1.5h3zM13 10c0.828 0 1.5 0.672 1.5 1.5s-0.672 1.5-1.5 1.5h-7.5c-0.828 0-1.5-0.672-1.5-1.5s0.672-1.5 1.5-1.5h7.5zM17.5 4c0.828 0 1.5 0.672 1.5 1.5s-0.672 1.5-1.5 1.5h-12c-0.828 0-1.5-0.672-1.5-1.5s0.672-1.5 1.5-1.5h12z"></path>
</svg>
