<!-- Generated by IcoMoon.io -->
<svg version="1.1" xmlns="http://www.w3.org/2000/svg" width="24" height="24" viewBox="0 0 24 24">
  <title>settings</title>
  <path
    d="M12.563 3c0.316 0 0.58 0.12 0.791 0.36s0.346 0.489 0.404 0.747v0l0.316 1.477c0.176 0.059 0.349 0.123 0.519 0.193s0.337 0.146 0.501 0.229v0l1.266-0.809c0.234-0.152 0.51-0.237 0.826-0.255s0.586 0.085 0.809 0.308v0l0.791 0.791c0.223 0.223 0.316 0.486 0.281 0.791s-0.129 0.574-0.281 0.809v0l-0.773 1.301c0.082 0.164 0.161 0.331 0.237 0.501s0.138 0.349 0.185 0.536v0l1.441 0.316c0.27 0.047 0.524 0.179 0.765 0.396s0.36 0.483 0.36 0.8v0 1.125c0 0.305-0.12 0.551-0.36 0.738s-0.495 0.316-0.765 0.387v0l-1.459 0.352c-0.059 0.176-0.12 0.343-0.185 0.501s-0.138 0.313-0.22 0.466v0l0.773 1.301c0.152 0.234 0.246 0.504 0.281 0.809s-0.059 0.568-0.281 0.791v0l-0.791 0.791c-0.223 0.223-0.492 0.325-0.809 0.308s-0.592-0.103-0.826-0.255v0l-1.266-0.809c-0.164 0.082-0.328 0.158-0.492 0.229s-0.34 0.135-0.527 0.193v0l-0.316 1.459c-0.047 0.27-0.179 0.524-0.396 0.765s-0.483 0.36-0.8 0.36v0h-1.125c-0.305 0-0.551-0.12-0.738-0.36s-0.316-0.495-0.387-0.765v0l-0.352-1.441c-0.188-0.059-0.375-0.126-0.563-0.202s-0.369-0.161-0.545-0.255v0l-1.301 0.826c-0.223 0.152-0.495 0.237-0.817 0.255s-0.589-0.085-0.8-0.308v0l-0.809-0.791c-0.211-0.223-0.299-0.486-0.264-0.791s0.123-0.574 0.264-0.809v0l0.826-1.371c-0.070-0.141-0.138-0.284-0.202-0.431s-0.12-0.302-0.167-0.466v0l-1.459-0.352c-0.27-0.070-0.524-0.199-0.765-0.387s-0.36-0.434-0.36-0.738v0-1.125c0-0.316 0.12-0.583 0.36-0.8s0.495-0.349 0.765-0.396v0l1.441-0.316c0.047-0.164 0.105-0.328 0.176-0.492s0.141-0.322 0.211-0.475v0l-0.826-1.371c-0.141-0.234-0.229-0.504-0.264-0.809s0.053-0.568 0.264-0.791v0l0.809-0.791c0.211-0.223 0.478-0.325 0.8-0.308s0.595 0.103 0.817 0.255v0l1.301 0.826c0.176-0.094 0.354-0.179 0.536-0.255s0.366-0.144 0.554-0.202v0l0.369-1.441c0.059-0.27 0.182-0.524 0.369-0.765s0.439-0.36 0.756-0.36v0zM12 8.625c-0.926 0-1.72 0.328-2.382 0.984s-0.993 1.453-0.993 2.391c0 0.938 0.331 1.734 0.993 2.391s1.456 0.984 2.382 0.984c0.938 0 1.737-0.328 2.399-0.984s0.993-1.453 0.993-2.391c0-0.938-0.331-1.734-0.993-2.391s-1.462-0.984-2.399-0.984z"></path>
</svg>
