<!-- Generated by IcoMoon.io -->
<svg version="1.1" xmlns="http://www.w3.org/2000/svg" width="24" height="24" viewBox="0 0 24 24">
  <title>share</title>
  <path
    d="M18.666 4.005l0.086 0.021c0.194 0.072 0.294 0.287 0.222 0.482v0l-5.342 14.5c-0.075 0.204-0.193 0.389-0.347 0.542-0.586 0.586-1.536 0.586-2.121 0v0l-1.703-1.703c-0.527-0.527-0.587-1.362-0.141-1.959v0l4.989-6.672c0.1-0.133 0.1-0.316 0-0.449-0.124-0.166-0.359-0.2-0.525-0.076v0l-6.672 4.989c-0.597 0.447-1.432 0.387-1.959-0.141v0l-1.703-1.703c-0.153-0.153-0.272-0.338-0.347-0.542-0.286-0.777 0.112-1.64 0.889-1.926v0l14.499-5.342c0.084-0.031 0.176-0.031 0.259 0z"></path>
</svg>
