<!-- Generated by IcoMoon.io -->
<svg version="1.1" xmlns="http://www.w3.org/2000/svg" width="24" height="24" viewBox="0 0 24 24">
  <title>shared-g</title>
  <path
    d="M10.215 5.969c0.54 0 1.068 0.099 1.583 0.296s0.975 0.452 1.376 0.765c0.402 0.313 0.726 0.664 0.972 1.053s0.369 0.78 0.369 1.174v0 2.349c0 0.568-0.117 1.276-0.351 2.122s-0.687 1.531-1.358 2.053v0l3.616 1.931c0 0 0.162 0.087 0.486 0.261s0.486 0.4 0.486 0.678v0 1.409c0 0.267-0.096 0.49-0.288 0.67s-0.42 0.27-0.684 0.27v0h-12.451c-0.264 0-0.492-0.090-0.684-0.27s-0.288-0.403-0.288-0.67v0-1.409c0-0.255 0.162-0.476 0.486-0.661s0.486-0.278 0.486-0.278v0l3.724-1.948c-0.684-0.522-1.158-1.218-1.421-2.088s-0.396-1.56-0.396-2.070v0-2.349c0-0.394 0.126-0.786 0.378-1.174s0.582-0.739 0.99-1.053c0.408-0.313 0.873-0.568 1.394-0.765s1.047-0.296 1.574-0.296zM14.821 3c0.54 0 1.068 0.099 1.583 0.296s0.975 0.452 1.376 0.765c0.402 0.313 0.726 0.664 0.972 1.053 0.211 0.333 0.331 0.668 0.361 1.005l0.008 0.169v2.349c0 0.568-0.117 1.276-0.351 2.122-0.211 0.762-0.598 1.392-1.163 1.891l-0.195 0.161 3.616 1.931c0 0 0.162 0.087 0.486 0.261 0.283 0.152 0.443 0.344 0.478 0.577l0.008 0.102v1.409c0 0.267-0.096 0.49-0.288 0.67-0.16 0.15-0.345 0.237-0.555 0.262l-0.129 0.008-2.191-0.001c-0.177-0.576-0.602-1.042-1.184-1.355l-2.508-1.341 0.080-0.14c0.175-0.339 0.316-0.7 0.422-1.082 0.266-0.962 0.403-1.791 0.403-2.506v-2.349c0-0.679-0.206-1.336-0.595-1.949-0.34-0.537-0.782-1.016-1.318-1.433-0.525-0.409-1.118-0.739-1.775-0.99-0.355-0.136-0.716-0.237-1.082-0.304 0.168-0.183 0.359-0.356 0.571-0.519 0.408-0.313 0.873-0.568 1.394-0.765s1.047-0.296 1.574-0.296z"></path>
</svg>
