<!-- Generated by IcoMoon.io -->
<svg version="1.1" xmlns="http://www.w3.org/2000/svg" width="24" height="24" viewBox="0 0 24 24">
  <title>small-cross</title>
  <path
    d="M16.579 7.421c0.561 0.561 0.561 1.471 0 2.032l-3.047 3.048 3.047 3.048c0.561 0.561 0.561 1.471 0 2.032s-1.471 0.561-2.032 0l-3.048-3.047-3.048 3.047c-0.561 0.561-1.471 0.561-2.032 0s-0.561-1.471 0-2.032l3.047-3.048-3.047-3.048c-0.561-0.561-0.561-1.471 0-2.032s1.471-0.561 2.032 0l3.048 3.047 3.048-3.047c0.561-0.561 1.471-0.561 2.032 0z"></path>
</svg>
