<!-- Generated by IcoMoon.io -->
<svg version="1.1" xmlns="http://www.w3.org/2000/svg" width="24" height="24" viewBox="0 0 24 24">
  <title>tab-settings</title>
  <path
    d="M13.25 2c0.828 0 1.5 0.672 1.5 1.5l0.001 0.284c0.825 0.213 1.605 0.539 2.321 0.962l0.201-0.201c0.586-0.586 1.536-0.586 2.121 0l1.061 1.061c0.586 0.586 0.586 1.536 0 2.121l-0.201 0.201c0.423 0.716 0.75 1.496 0.962 2.321l0.284 0.001c0.828 0 1.5 0.672 1.5 1.5v1.5c0 0.828-0.672 1.5-1.5 1.5h-0.284c-0.213 0.826-0.539 1.606-0.963 2.322l0.201 0.201c0.586 0.586 0.586 1.536 0 2.121l-1.061 1.061c-0.586 0.586-1.536 0.586-2.121 0l-0.201-0.201c-0.716 0.423-1.496 0.75-2.321 0.962l-0.001 0.284c0 0.828-0.672 1.5-1.5 1.5h-1.5c-0.828 0-1.5-0.672-1.5-1.5v-0.284c-0.826-0.213-1.606-0.539-2.322-0.963l-0.201 0.201c-0.586 0.586-1.536 0.586-2.121 0l-1.061-1.061c-0.586-0.586-0.586-1.536 0-2.121l0.201-0.201c-0.423-0.716-0.75-1.496-0.963-2.322h-0.284c-0.828 0-1.5-0.672-1.5-1.5v-1.5c0-0.828 0.672-1.5 1.5-1.5l0.284-0.001c0.213-0.825 0.539-1.605 0.962-2.321l-0.201-0.201c-0.586-0.586-0.586-1.536 0-2.121l1.061-1.061c0.586-0.586 1.536-0.586 2.121 0l0.201 0.201c0.716-0.423 1.496-0.75 2.322-0.963v-0.284c0-0.828 0.672-1.5 1.5-1.5h1.5zM12.5 6.5c-3.314 0-6 2.686-6 6s2.686 6 6 6c3.314 0 6-2.686 6-6s-2.686-6-6-6z"></path>
</svg>
