<!-- Generated by IcoMoon.io -->
<svg version="1.1" xmlns="http://www.w3.org/2000/svg" width="24" height="24" viewBox="0 0 24 24">
  <title>tasked-glyph</title>
  <path
    d="M8.926 6c1.657 0 3 1.343 3 3l-0.001 1.5h3.017l0.001-2.312c0-0.828 0.672-1.5 1.5-1.5 0.283 0 0.559 0.080 0.799 0.23l6.061 3.812c0.701 0.441 0.912 1.367 0.471 2.068-0.12 0.19-0.281 0.351-0.471 0.471l-6.061 3.812c-0.701 0.441-1.627 0.23-2.068-0.471-0.15-0.239-0.23-0.516-0.23-0.799l-0.001-2.312h-3.017l0.001 1.5c0 1.657-1.343 3-3 3h-5.926c-1.657 0-3-1.343-3-3v-6c0-1.657 1.343-3 3-3h5.926z"></path>
</svg>
