<!-- Generated by IcoMoon.io -->
<svg version="1.1" xmlns="http://www.w3.org/2000/svg" width="24" height="24" viewBox="0 0 24 24">
  <title>underlined-g</title>
  <path
    d="M12 18.573c1.246 0 2.396-0.298 3.45-0.893s1.888-1.404 2.502-2.427c0.614-1.022 0.921-2.138 0.921-3.347v0-8.907h-2.832v8.907c0 0.693-0.183 1.333-0.55 1.92s-0.861 1.053-1.485 1.4c-0.623 0.347-1.292 0.52-2.007 0.52s-1.384-0.173-2.007-0.52c-0.623-0.347-1.113-0.813-1.471-1.4s-0.536-1.227-0.536-1.92v0-8.907h-2.859v8.907c0 1.209 0.307 2.324 0.921 3.347s1.448 1.831 2.502 2.427c1.054 0.596 2.204 0.893 3.45 0.893zM20 23v-2.24h-16v2.24h16z"></path>
</svg>
