<svg xmlns="http://www.w3.org/2000/svg" xmlns:xlink="http://www.w3.org/1999/xlink" width="24" height="24" viewBox="0 0 24 24">
    <defs>
        <path id="prefix__a" d="M9 0c.552 0 1 .448 1 1v2.715h-.8V1c0-.11-.09-.2-.2-.2H1C.89.8.8.89.8 1v9c0 .11.09.2.2.2h8c.11 0 .2-.09.2-.2v-.685h.8V10c0 .552-.448 1-1 1H1c-.552 0-1-.448-1-1V1c0-.552.448-1 1-1h8zm2.097 6.115v.8h-1.1v1.1h-.8v-1.1h-1.1v-.8h1.1v-1.1h.8v1.1h1.1z"/>
    </defs>
    <g fill="none" fill-rule="evenodd" transform="translate(6 6)">
        <mask id="prefix__b" fill="#fff">
            <use xlink:href="#prefix__a"/>
        </mask>
        <g fill="#82869D" mask="url(#prefix__b)">
            <path d="M0 0H24V24H0z" transform="translate(-6 -6)"/>
        </g>
    </g>
</svg>
