<!-- Generated by IcoMoon.io -->
<svg version="1.1" xmlns="http://www.w3.org/2000/svg" width="24" height="24" viewBox="0 0 24 24">
  <title>add-new</title>
  <path
    d="M9.914 3.499c-0.063 0.829-0.096 1.82-0.096 3.001 0 3.314 2.605 6 5.818 6 1.166 0 2.125-0.048 2.91-0.139l-0.001 6.139c0 0.828-0.651 1.5-1.455 1.5h-11.636c-0.803 0-1.455-0.672-1.455-1.5v-13.5c0-0.828 0.651-1.5 1.455-1.5l4.46-0.001zM15.636 2c0.803 0 1.455 0.651 1.455 1.455l-0 1.545h1.409c0.828 0 1.5 0.672 1.5 1.5s-0.672 1.5-1.5 1.5h-1.409l0 1.545c0 0.803-0.651 1.455-1.455 1.455s-1.455-0.651-1.455-1.455l-0-1.545h-1.409c-0.828 0-1.5-0.672-1.5-1.5s0.672-1.5 1.5-1.5h1.409l0-1.545c0-0.803 0.651-1.455 1.455-1.455z"></path>
</svg>
