<svg xmlns="http://www.w3.org/2000/svg" xmlns:xlink="http://www.w3.org/1999/xlink" width="24" height="24" viewBox="0 0 24 24">
    <defs>
        <path id="prefix__a" d="M6 0c.552 0 1 .448 1 1v4h4c.552 0 1 .448 1 1s-.448 1-1 1H7v4c0 .552-.448 1-1 1s-1-.448-1-1V6.999L1 7c-.552 0-1-.448-1-1s.448-1 1-1l4-.001V1c0-.552.448-1 1-1z"/>
    </defs>
    <g fill="none" fill-rule="evenodd" transform="translate(6 6)">
        <mask id="prefix__b" fill="#fff">
            <use xlink:href="#prefix__a"/>
        </mask>
        <use fill="#D8D8D8" xlink:href="#prefix__a"/>
        <g fill="#0090FF" mask="url(#prefix__b)">
            <path d="M0 0H24V24H0z" transform="translate(-6 -6)"/>
        </g>
    </g>
</svg>
