<svg xmlns="http://www.w3.org/2000/svg" xmlns:xlink="http://www.w3.org/1999/xlink" width="18" height="18" viewBox="0 0 18 18">
    <defs>
        <path id="prefix__a" d="M3.429 3.857c.116 0 .216-.042.3-.127l3-3c.086-.085.128-.185.128-.301 0-.116-.042-.217-.127-.302C6.645.042 6.545 0 6.429 0h-6C.313 0 .212.042.127.127.042.212 0 .312 0 .43c0 .116.042.216.127.3l3 3c.085.086.186.128.302.128z"/>
    </defs>
    <g fill="none" fill-rule="evenodd" transform="translate(6 7)">
        <mask id="prefix__b" fill="#fff">
            <use xlink:href="#prefix__a"/>
        </mask>
        <g fill="#4A4A4A" mask="url(#prefix__b)">
            <path d="M0 0H18V18H0z" transform="translate(-6 -7)"/>
        </g>
    </g>
</svg>
