<svg xmlns="http://www.w3.org/2000/svg" xmlns:xlink="http://www.w3.org/1999/xlink" width="18" height="18" viewBox="0 0 18 18">
    <defs>
        <path id="prefix__a" d="M2.429 5.857c.116 0 .216-.042.3-.127l3-3c.086-.085.128-.185.128-.301 0-.116-.042-.217-.127-.302C5.645 2.042 5.545 2 5.429 2h-6c-.117 0-.217.042-.302.127-.085.085-.127.186-.127.302 0 .116.042.216.127.3l3 3c.085.086.186.128.302.128z"/>
    </defs>
    <g fill="none" fill-rule="evenodd" transform="translate(7 5)">
        <mask id="prefix__b" fill="#fff">
            <use xlink:href="#prefix__a"/>
        </mask>
        <g fill="#4A4A4A" mask="url(#prefix__b)">
            <path d="M0 0H18V18H0z" transform="translate(-7 -5)"/>
        </g>
    </g>
</svg>
