<svg xmlns="http://www.w3.org/2000/svg" width="24" height="24" viewBox="0 0 24 24">
    <defs>
        <linearGradient id="prefix__a" x1="50%" x2="50%" y1="100%" y2="0%">
            <stop offset="0%" stop-color="#FFF" stop-opacity="0"/>
            <stop offset="100%" stop-color="#FFF"/>
        </linearGradient>
    </defs>
    <g fill="none" fill-rule="evenodd">
        <path fill="#7500FF" d="M9.5 4c1.982 0 3.664 1.281 4.265 3.06.239-.04.484-.06.735-.06 2.358 0 4.293 1.814 4.484 4.122C20.717 11.56 22 13.13 22 15c0 2.21-1.79 4-4 4H6c-2.21 0-4-1.79-4-4 0-1.864 1.275-3.43 3-3.874V8.5C5 6.015 7.015 4 9.5 4z"/>
        <path fill="url(#prefix__a)" d="M12 10l4 5h-2v7h-4v-7H8l4-5z"/>
    </g>
</svg>
