<svg xmlns="http://www.w3.org/2000/svg" xmlns:xlink="http://www.w3.org/1999/xlink" width="24" height="24" viewBox="0 0 24 24">
    <defs>
        <filter id="prefix__a" width="105.2%" height="115.9%" x="-2.6%" y="-11.9%" filterUnits="objectBoundingBox">
            <feOffset dy="-1" in="SourceAlpha" result="shadowOffsetOuter1"/>
            <feColorMatrix in="shadowOffsetOuter1" values="0 0 0 0 0.97254902 0 0 0 0 0.733814103 0 0 0 0 0.109803922 0 0 0 1 0"/>
        </filter>
        <path id="prefix__b" d="M2.04 4.8h6c.623 0 1.23-.202 1.728-.576l.864-.648C11.131 3.202 11.737 3 12.36 3h6c.795 0 1.44.645 1.44 1.44v10.08c0 .596-.484 1.08-1.08 1.08H1.68c-.596 0-1.08-.484-1.08-1.08V6.24c0-.795.645-1.44 1.44-1.44z"/>
    </defs>
    <g fill="none" fill-rule="evenodd" transform="translate(2 3)">
        <path fill="#EA8127" d="M1.44 0h6.784c.63 0 1.243.207 1.745.59l1.202.915c.251.191.558.295.873.295h6.916c.795 0 1.44.645 1.44 1.44v11.52c0 .795-.645 1.44-1.44 1.44H1.44C.645 16.2 0 15.555 0 14.76V1.44C0 .645.645 0 1.44 0z"/>
        <use fill="#000" filter="url(#prefix__a)" xlink:href="#prefix__b"/>
        <use fill="#F89E1C" xlink:href="#prefix__b"/>
    </g>
</svg>
