<!-- Generated by IcoMoon.io -->
<svg version="1.1" xmlns="http://www.w3.org/2000/svg" width="24" height="24" viewBox="0 0 24 24">
  <title>bin</title>
  <path
    d="M17.713 7.348c0.082 0 0.177-0.153 0.287-0.46-0.055-0.251-0.109-0.446-0.164-0.586-0.082-0.223-0.341-0.377-0.778-0.46l-2.169-0.251c-0.191-0.028-0.327-0.126-0.409-0.293-0.055-0.112-0.116-0.258-0.184-0.439s-0.123-0.307-0.164-0.377c-0.041-0.070-0.089-0.153-0.143-0.251s-0.109-0.16-0.164-0.188c-0.055-0.028-0.123-0.042-0.205-0.042h-4.216c-0.082 0-0.15 0.014-0.205 0.042s-0.109 0.084-0.164 0.167c-0.055 0.084-0.096 0.167-0.123 0.251s-0.075 0.209-0.143 0.377c-0.068 0.167-0.13 0.321-0.184 0.46-0.082 0.167-0.218 0.265-0.409 0.293l-2.169 0.293c-0.437 0.084-0.696 0.237-0.778 0.46l-0.164 0.544c-0.055 0.251-0.075 0.391-0.061 0.418s0.13 0.042 0.348 0.042h12.361zM16.352 18.646l0.911-9.331c0.027-0.279 0-0.453-0.082-0.523s-0.287-0.105-0.614-0.105h-10.069c-0.327 0-0.532 0.042-0.614 0.126s-0.109 0.251-0.082 0.502l0.821 9.288c0.068 0.772 0.713 1.364 1.488 1.368l6.742 0.030c0.775 0.003 1.424-0.583 1.5-1.354z"></path>
</svg>
