<!-- Generated by IcoMoon.io -->
<svg version="1.1" xmlns="http://www.w3.org/2000/svg" width="24" height="24" viewBox="0 0 24 24">
  <title>cal-view-glyph</title>
  <path
    d="M16.5 2c0.828 0 1.5 0.672 1.5 1.5v1.769l1.875 0c0.316 0 0.583 0.111 0.8 0.334 0.186 0.191 0.292 0.419 0.319 0.684l0.007 0.136v14.423c0 0.312-0.108 0.583-0.325 0.811-0.186 0.196-0.408 0.308-0.667 0.336l-0.133 0.007h-15.75c-0.316 0-0.583-0.114-0.8-0.343-0.186-0.196-0.292-0.422-0.319-0.68l-0.007-0.131v-14.423c0-0.325 0.108-0.598 0.325-0.82 0.186-0.191 0.408-0.3 0.667-0.327l0.133-0.007 1.875-0v-1.769c0-0.828 0.672-1.5 1.5-1.5s1.5 0.672 1.5 1.5v1.769h6v-1.769c0-0.828 0.672-1.5 1.5-1.5zM17.063 15.077h-1.125c-0.152 0-0.284 0.057-0.396 0.171s-0.167 0.249-0.167 0.406v1.154c0 0.156 0.056 0.291 0.167 0.406s0.243 0.171 0.396 0.171h1.125c0.152 0 0.284-0.057 0.396-0.171s0.167-0.249 0.167-0.406v-1.154c0-0.156-0.056-0.291-0.167-0.406s-0.243-0.171-0.396-0.171zM12.563 15.077h-1.125c-0.152 0-0.284 0.057-0.396 0.171s-0.167 0.249-0.167 0.406v1.154c0 0.156 0.056 0.291 0.167 0.406s0.243 0.171 0.396 0.171h1.125c0.152 0 0.284-0.057 0.396-0.171s0.167-0.249 0.167-0.406v-1.154c0-0.156-0.056-0.291-0.167-0.406s-0.243-0.171-0.396-0.171zM8.063 15.077h-1.125c-0.152 0-0.284 0.057-0.396 0.171s-0.167 0.249-0.167 0.406v1.154c0 0.156 0.056 0.291 0.167 0.406s0.243 0.171 0.396 0.171h1.125c0.152 0 0.284-0.057 0.396-0.171s0.167-0.249 0.167-0.406v-1.154c0-0.156-0.056-0.291-0.167-0.406s-0.243-0.171-0.396-0.171zM17.063 10.462h-1.125c-0.152 0-0.284 0.057-0.396 0.171s-0.167 0.249-0.167 0.406v1.154c0 0.156 0.056 0.291 0.167 0.406s0.243 0.171 0.396 0.171h1.125c0.152 0 0.284-0.057 0.396-0.171s0.167-0.249 0.167-0.406v-1.154c0-0.156-0.056-0.291-0.167-0.406s-0.243-0.171-0.396-0.171zM12.563 10.462h-1.125c-0.152 0-0.284 0.057-0.396 0.171s-0.167 0.249-0.167 0.406v1.154c0 0.156 0.056 0.291 0.167 0.406s0.243 0.171 0.396 0.171h1.125c0.152 0 0.284-0.057 0.396-0.171s0.167-0.249 0.167-0.406v-1.154c0-0.156-0.056-0.291-0.167-0.406s-0.243-0.171-0.396-0.171zM8.063 10.462h-1.125c-0.152 0-0.284 0.057-0.396 0.171s-0.167 0.249-0.167 0.406v1.154c0 0.156 0.056 0.291 0.167 0.406s0.243 0.171 0.396 0.171h1.125c0.152 0 0.284-0.057 0.396-0.171s0.167-0.249 0.167-0.406v-1.154c0-0.156-0.056-0.291-0.167-0.406s-0.243-0.171-0.396-0.171z"></path>
</svg>
