<!-- Generated by IcoMoon.io -->
<svg version="1.1" xmlns="http://www.w3.org/2000/svg" width="24" height="24" viewBox="0 0 24 24">
  <title>copy</title>
  <path
    d="M7 7.5v7.702c0 0.754 0.297 1.439 0.839 1.975 0.539 0.533 1.223 0.823 1.974 0.823h4.687v1.702c0 0.297-0.096 0.562-0.289 0.795l-0.104 0.114c-0.225 0.223-0.482 0.35-0.771 0.381l-0.147 0.008h-7.875c-0.35 0-0.656-0.13-0.919-0.389-0.225-0.223-0.354-0.477-0.386-0.763l-0.008-0.146v-10.904c0-0.346 0.131-0.649 0.394-0.909 0.225-0.223 0.482-0.35 0.771-0.381l0.147-0.008h1.688zM14.307 3c0.316 0 0.619 0.125 0.844 0.347v0l3.493 3.455c0.228 0.225 0.356 0.533 0.356 0.853v0 7.547c0 0.346-0.131 0.649-0.394 0.909s-0.569 0.389-0.919 0.389v0h-7.875c-0.35 0-0.656-0.13-0.919-0.389s-0.394-0.563-0.394-0.909v0-10.904c0-0.346 0.131-0.649 0.394-0.909s0.569-0.389 0.919-0.389v0zM14.575 4.457c-0.166 0-0.3 0.134-0.3 0.3v0 2.316c0 0.331 0.269 0.6 0.6 0.6v0h2.345c0.080 0 0.157-0.032 0.213-0.089 0.117-0.118 0.115-0.308-0.002-0.424v0l-2.645-2.616c-0.056-0.056-0.132-0.087-0.211-0.087z"></path>
</svg>
