<svg xmlns="http://www.w3.org/2000/svg" xmlns:xlink="http://www.w3.org/1999/xlink" width="24" height="24" viewBox="0 0 24 24">
    <defs>
        <path id="prefix__a" d="M11.25 12c.21 0 .389-.074.533-.223.145-.148.217-.324.217-.527V1.875c0-.21-.072-.389-.217-.533-.144-.145-.322-.217-.533-.217h-3v-.75c0-.102-.037-.19-.111-.264C8.064.037 7.977 0 7.875 0c-.102 0-.19.037-.264.111C7.537.186 7.5.273 7.5.375v.75h-3v-.75c0-.102-.037-.19-.111-.264C4.314.037 4.227 0 4.125 0c-.102 0-.19.037-.264.111-.074.075-.111.162-.111.264v.75h-3c-.21 0-.389.072-.533.217-.145.144-.217.322-.217.533v9.375c0 .203.072.379.217.527.144.149.322.223.533.223h10.5zm0-.75H.75V1.875h3v.375c0 .102.037.19.111.264.075.074.162.111.264.111.102 0 .19-.037.264-.111.074-.075.111-.162.111-.264v-.375h3v.375c0 .102.037.19.111.264.075.074.162.111.264.111.102 0 .19-.037.264-.111.074-.075.111-.162.111-.264v-.375h3v9.375zM9.375 6c.102 0 .19-.037.264-.111.074-.075.111-.162.111-.264v-.75c0-.102-.037-.19-.111-.264-.075-.074-.162-.111-.264-.111h-.75c-.102 0-.19.037-.264.111-.074.075-.111.162-.111.264v.75c0 .102.037.19.111.264.075.074.162.111.264.111h.75zm-3 0c.102 0 .19-.037.264-.111.074-.075.111-.162.111-.264v-.75c0-.102-.037-.19-.111-.264-.075-.074-.162-.111-.264-.111h-.75c-.102 0-.19.037-.264.111-.074.075-.111.162-.111.264v.75c0 .102.037.19.111.264.075.074.162.111.264.111h.75zm-3 0c.102 0 .19-.037.264-.111.074-.075.111-.162.111-.264v-.75c0-.102-.037-.19-.111-.264-.075-.074-.162-.111-.264-.111h-.75c-.102 0-.19.037-.264.111-.074.075-.111.162-.111.264v.75c0 .102.037.19.111.264.075.074.162.111.264.111h.75zm6 3c.102 0 .19-.037.264-.111.074-.075.111-.162.111-.264v-.75c0-.102-.037-.19-.111-.264-.075-.074-.162-.111-.264-.111h-.75c-.102 0-.19.037-.264.111-.074.075-.111.162-.111.264v.75c0 .102.037.19.111.264.075.074.162.111.264.111h.75zm-3 0c.102 0 .19-.037.264-.111.074-.075.111-.162.111-.264v-.75c0-.102-.037-.19-.111-.264-.075-.074-.162-.111-.264-.111h-.75c-.102 0-.19.037-.264.111-.074.075-.111.162-.111.264v.75c0 .102.037.19.111.264.075.074.162.111.264.111h.75zm-3 0c.102 0 .19-.037.264-.111.074-.075.111-.162.111-.264v-.75c0-.102-.037-.19-.111-.264-.075-.074-.162-.111-.264-.111h-.75c-.102 0-.19.037-.264.111-.074.075-.111.162-.111.264v.75c0 .102.037.19.111.264.075.074.162.111.264.111h.75z"/>
    </defs>
    <g fill="none" fill-rule="evenodd" transform="translate(6 6)">
        <mask id="prefix__b" fill="#fff">
            <use xlink:href="#prefix__a"/>
        </mask>
        <use fill="#000" fill-rule="nonzero" xlink:href="#prefix__a"/>
        <g fill="#82869D" mask="url(#prefix__b)">
            <path d="M0 0H24V24H0z" transform="translate(-6 -6)"/>
        </g>
    </g>
</svg>
