<!-- Generated by IcoMoon.io -->
<svg version="1.1" xmlns="http://www.w3.org/2000/svg" width="24" height="24" viewBox="0 0 24 24">
  <title>des-number</title>
  <path
    d="M13.21 20.031c0.747 0 1.353 0.606 1.353 1.353 0 0.356-0.14 0.697-0.39 0.95l-1.203 1.22c-0.582 0.59-1.531 0.596-2.121 0.015-0.005-0.005-0.010-0.010-0.015-0.015l-1.203-1.22c-0.525-0.532-0.519-1.388 0.013-1.913 0.253-0.25 0.594-0.39 0.95-0.39h2.617zM3.664 6c1.383 0 2.453 0.466 3.21 1.397s1.136 2.262 1.136 3.991c0 1.156-0.177 2.167-0.53 3.032s-0.861 1.527-1.522 1.988c-0.661 0.461-1.431 0.691-2.309 0.691-0.575 0-1.156-0.097-1.741-0.292s-1.085-0.466-1.499-0.814c-0.141-0.113-0.245-0.233-0.31-0.361s-0.098-0.284-0.098-0.468c0-0.266 0.073-0.494 0.22-0.683s0.326-0.284 0.538-0.284c0.131 0 0.245 0.018 0.341 0.054s0.225 0.1 0.386 0.192c0.404 0.246 0.765 0.438 1.083 0.576s0.644 0.207 0.977 0.207c0.626 0 1.123-0.292 1.491-0.875s0.578-1.402 0.628-2.456c-0.232 0.389-0.56 0.698-0.984 0.929s-0.898 0.345-1.423 0.345c-0.626 0-1.184-0.148-1.673-0.445s-0.873-0.711-1.151-1.243c-0.278-0.532-0.416-1.136-0.416-1.811 0-0.706 0.156-1.338 0.469-1.896s0.747-0.993 1.302-1.305c0.555-0.312 1.181-0.468 1.878-0.468zM20.351 6.077c0.333 0 0.606 0.105 0.818 0.315s0.318 0.494 0.318 0.852v0 7.798h1.408l0.142 0.004c0.642 0.039 0.963 0.355 0.963 0.948 0 0.645-0.368 0.967-1.105 0.967v0l-5.323-0.004c-0.651-0.040-0.976-0.361-0.976-0.963 0-0.635 0.373-0.952 1.12-0.952v0h1.408v-6.278l-1.332 0.814-0.114 0.060c-0.114 0.052-0.227 0.078-0.341 0.078-0.252 0-0.467-0.107-0.644-0.322s-0.265-0.455-0.265-0.721c0-0.358 0.156-0.629 0.469-0.814v0l2.392-1.458 0.177-0.099c0.294-0.149 0.589-0.224 0.883-0.224zM13.385 11.941l0.148 0.005c0.618 0.040 0.927 0.34 0.927 0.901 0 0.604-0.358 0.906-1.075 0.906v0h-2.968l-0.148-0.005c-0.618-0.040-0.927-0.34-0.927-0.901 0-0.604 0.358-0.906 1.075-0.906v0h2.968zM3.801 7.857c-0.474 0-0.856 0.159-1.143 0.476s-0.432 0.737-0.432 1.259c0 0.512 0.144 0.926 0.432 1.243s0.669 0.476 1.143 0.476c0.474 0 0.858-0.159 1.151-0.476s0.439-0.732 0.439-1.243c0-0.512-0.146-0.929-0.439-1.251s-0.676-0.484-1.151-0.484z"></path>
</svg>
