<!-- Generated by IcoMoon.io -->
<svg version="1.1" xmlns="http://www.w3.org/2000/svg" width="24" height="24" viewBox="0 0 24 24">
  <title>double-large-chevron-down</title>
  <path
    d="M20.541 10.952c0.588 0.588 0.586 1.544-0.005 2.135v0l-7.487 7.487-0.132 0.118c-0.593 0.47-1.457 0.433-2.003-0.113v0l-7.456-7.456-0.117-0.131c-0.468-0.592-0.427-1.455 0.122-2.003v0l0.132-0.118c0.593-0.47 1.457-0.433 2.003 0.113v0l6.39 6.391 6.418-6.418 0.132-0.118c0.593-0.47 1.457-0.433 2.003 0.113zM20.541 3.421c0.588 0.588 0.586 1.544-0.005 2.135v0l-7.487 7.487-0.132 0.118c-0.593 0.47-1.457 0.433-2.003-0.113v0l-7.456-7.456-0.117-0.131c-0.468-0.592-0.427-1.455 0.122-2.003v0l0.132-0.118c0.593-0.47 1.457-0.433 2.003 0.113v0l6.39 6.391 6.418-6.418 0.132-0.118c0.593-0.47 1.457-0.433 2.003 0.113z"></path>
</svg>
