<!-- Generated by IcoMoon.io -->
<svg version="1.1" xmlns="http://www.w3.org/2000/svg" width="24" height="24" viewBox="0 0 24 24">
  <title>double-large-chevron-left</title>
  <path
    d="M13.048 20.541c-0.588 0.588-1.544 0.586-2.135-0.005v0l-7.487-7.487-0.118-0.132c-0.47-0.593-0.433-1.457 0.113-2.003v0l7.456-7.456 0.131-0.117c0.592-0.468 1.455-0.427 2.003 0.122v0l0.118 0.132c0.47 0.593 0.433 1.457-0.113 2.003v0l-6.391 6.39 6.418 6.418 0.118 0.132c0.47 0.593 0.433 1.457-0.113 2.003zM20.579 20.541c-0.588 0.588-1.544 0.586-2.135-0.005v0l-7.487-7.487-0.118-0.132c-0.47-0.593-0.433-1.457 0.113-2.003v0l7.456-7.456 0.131-0.117c0.592-0.468 1.455-0.427 2.003 0.122v0l0.118 0.132c0.47 0.593 0.433 1.457-0.113 2.003v0l-6.391 6.39 6.418 6.418 0.118 0.132c0.47 0.593 0.433 1.457-0.113 2.003z"></path>
</svg>
