<svg xmlns="http://www.w3.org/2000/svg" xmlns:xlink="http://www.w3.org/1999/xlink" width="24" height="24" viewBox="0 0 24 24">
    <defs>
        <path id="prefix__a" d="M5.293 1.293c.39-.39 1.024-.39 1.414 0l4.95 4.95.078.087c.31.392.284.964-.078 1.327l-4.95 4.95-.087.077c-.393.311-.964.285-1.327-.077l-.078-.088c-.31-.392-.285-.964.078-1.327L9.536 6.95 5.293 2.707l-.078-.087c-.31-.393-.285-.964.078-1.327zm-5 0c.39-.39 1.024-.39 1.414 0l4.95 4.95.078.087c.31.392.284.964-.078 1.327l-4.95 4.95-.087.077c-.393.311-.964.285-1.327-.077l-.078-.088c-.31-.392-.285-.964.078-1.327L4.536 6.95.293 2.707.215 2.62c-.31-.393-.285-.964.078-1.327z"/>
    </defs>
    <g fill="none" fill-rule="evenodd" transform="translate(6 5)">
        <mask id="prefix__b" fill="#fff">
            <use xlink:href="#prefix__a"/>
        </mask>
        <g fill="#0090FF" mask="url(#prefix__b)">
            <path d="M0 0H24V24H0z" transform="rotate(90 11.5 6.5)"/>
        </g>
    </g>
</svg>
