<svg xmlns="http://www.w3.org/2000/svg" xmlns:xlink="http://www.w3.org/1999/xlink" width="24" height="24" viewBox="0 0 24 24">
    <defs>
        <path id="prefix__a" d="M8.322.076c.064.04.118.095.159.16l1.598 2.556c.146.234.075.542-.16.689-.079.05-.17.076-.264.076l-.599-.001v3.5h3.5v-.597c0-.063.012-.124.035-.182l.042-.083c.146-.234.455-.306.689-.16l2.556 1.599c.065.04.119.094.16.159.146.234.074.542-.16.689l-2.556 1.598c-.08.05-.172.076-.265.076-.276 0-.5-.224-.5-.5l-.001-.599h-3.5v3.5h.599c.062 0 .124.012.181.035l.084.042c.234.146.305.455.159.689L8.48 15.878c-.04.065-.095.119-.16.16-.233.146-.542.074-.688-.16l-1.598-2.556c-.05-.08-.076-.172-.076-.265 0-.276.224-.5.5-.5l.597-.001v-3.5h-3.5v.599c0 .276-.223.5-.5.5-.093 0-.185-.027-.264-.076L.235 8.48c-.234-.147-.305-.455-.159-.69.04-.064.095-.118.16-.158l2.556-1.598c.234-.147.542-.075.689.159.05.08.076.171.076.265l-.001.597h3.5v-3.5h-.597c-.276 0-.5-.223-.5-.5 0-.093.026-.185.076-.264L7.633.235c.146-.234.455-.305.689-.159z"/>
    </defs>
    <g fill="none" fill-rule="evenodd" transform="translate(4 4)">
        <mask id="prefix__b" fill="#fff">
            <use xlink:href="#prefix__a"/>
        </mask>
        <use fill="#BFC3DC" xlink:href="#prefix__a"/>
        <g fill="#82869D" mask="url(#prefix__b)">
            <path d="M0 0H24V24H0z" transform="translate(-4 -4)"/>
        </g>
    </g>
</svg>
