<svg xmlns="http://www.w3.org/2000/svg" xmlns:xlink="http://www.w3.org/1999/xlink" width="24" height="24" viewBox="0 0 24 24">
    <defs>
        <path id="prefix__a" d="M3.375 8.941c.016 0 .031-.002.047-.005.015-.004.031-.006.047-.006.008 0 .133-.041.375-.123.242-.082.52-.172.832-.27.312-.098.613-.193.902-.287.29-.094.48-.152.574-.176.024-.008.045-.02.065-.035.02-.016.04-.031.064-.047l.15-.15.7-.694c.512-.507 1.072-1.06 1.681-1.658.61-.597 1.18-1.158 1.711-1.681.532-.524.84-.832.926-.926.196-.203.34-.406.434-.61.094-.203.14-.406.14-.609-.007-.21-.06-.414-.158-.61-.097-.195-.244-.386-.44-.574-.163-.156-.34-.275-.527-.357C10.711.041 10.516 0 10.313 0c-.305 0-.565.072-.78.217-.215.144-.353.248-.416.31-.047.04-.34.33-.879.873-.539.543-1.125 1.13-1.758 1.758-.506.503-.976.971-1.41 1.405L3.973 5.66c-.024.024-.041.047-.053.07-.012.024-.022.047-.03.07l-.187.634c-.086.296-.176.6-.27.908-.093.308-.177.582-.251.82-.064.204-.1.324-.11.359l-.002.01c-.015.055-.015.112 0 .17.016.059.043.108.082.147.032.03.067.054.106.07.039.016.078.023.117.023zm.656-.984c.102-.328.205-.67.31-1.025.106-.356.186-.631.241-.827l1.037-1.03 1.676-1.67 1.582-1.583.768-.767c.015-.016.087-.07.216-.164.13-.094.28-.141.451-.141.102 0 .202.023.3.07.097.047.197.118.298.211.117.11.205.219.264.328.058.11.092.215.1.317 0 .101-.03.209-.088.322-.059.113-.15.232-.276.357-.047.055-.185.196-.416.422-.23.227-.549.541-.955.944L8.057 5.186 6.059 7.16l-.235.223-.79.252c-.356.113-.69.22-1.003.322zM9.375 12c.21 0 .389-.072.533-.217.145-.144.217-.322.217-.533V5.766l-.75.714v4.77H.75V1.875h5.273l.762-.727-.023-.023H.75c-.203 0-.379.074-.527.223-.149.148-.223.324-.223.527v9.375c0 .21.074.389.223.533.148.145.324.217.527.217h8.625z"/>
    </defs>
    <g fill="none" fill-rule="evenodd" transform="translate(6 6)">
        <mask id="prefix__b" fill="#fff">
            <use xlink:href="#prefix__a"/>
        </mask>
        <g fill="#82869D" mask="url(#prefix__b)">
            <path d="M0 0H24V24H0z" transform="translate(-6 -6)"/>
        </g>
    </g>
</svg>
