<svg xmlns="http://www.w3.org/2000/svg" xmlns:xlink="http://www.w3.org/1999/xlink" width="24" height="24" viewBox="0 0 24 24">
    <defs>
        <path id="prefix__a" d="M.375 12.023c.023 0 .045-.002.064-.005.02-.004.038-.01.053-.018.008 0 .16-.049.457-.146.297-.098.631-.206 1.002-.323.371-.117.733-.232 1.084-.345.352-.114.582-.186.692-.217.03-.008.06-.02.087-.035.028-.016.053-.036.077-.059l1.218-1.207c.743-.734 1.557-1.541 2.444-2.42l2.478-2.455c.766-.758 1.203-1.195 1.313-1.313.226-.234.398-.474.515-.72.118-.246.172-.498.164-.756-.007-.242-.07-.483-.187-.72-.117-.24-.293-.468-.527-.686-.204-.196-.416-.344-.64-.446C10.448.051 10.216 0 9.974 0c-.375 0-.692.088-.95.264-.257.175-.425.302-.503.38-.055.047-.471.461-1.249 1.243-.777.781-1.623 1.629-2.537 2.543L2.232 6.932l-1.13 1.13c-.024.024-.043.05-.059.077-.016.027-.031.056-.047.088-.039.156-.111.412-.217.767-.105.356-.215.72-.328 1.096l-.299.99c-.086.285-.132.432-.14.44-.016.07-.016.14 0 .21.015.07.05.13.105.176.031.04.07.069.117.088.047.02.094.03.141.03zm10.348-9c-.055-.156-.137-.328-.246-.515-.11-.188-.254-.371-.434-.551-.188-.187-.371-.338-.55-.451-.18-.113-.345-.201-.493-.264l.035-.035.024-.023c.015-.024.11-.098.287-.223.175-.125.384-.188.627-.188.14 0 .279.032.416.094.136.063.267.156.392.281.156.149.276.297.358.446.082.148.123.293.123.433 0 .141-.04.29-.117.446-.079.156-.196.312-.352.468-.008.008-.018.02-.03.036-.011.015-.025.03-.04.046zm-6.809 6.75c-.062-.14-.146-.294-.252-.462-.105-.168-.236-.334-.392-.498-.196-.196-.39-.352-.58-.47-.192-.116-.366-.206-.522-.269l.93-.93.394-.394c.555-.555 1.135-1.137 1.74-1.746.606-.61 1.194-1.2 1.764-1.77.57-.57 1.04-1.035 1.406-1.394.094.023.243.082.446.176.203.093.422.254.656.48.234.234.392.467.475.697.082.23.126.377.134.44-.367.36-.834.82-1.4 1.383L6.96 6.756c-.602.598-1.178 1.168-1.729 1.71-.55.544-.99.98-1.318 1.307zM.902 11.098c.11-.352.24-.766.393-1.243.152-.476.271-.859.357-1.148.11.023.262.084.457.182.196.097.403.256.621.474.165.164.29.332.375.504.086.172.149.317.188.434-.258.086-.629.21-1.113.375-.485.164-.91.304-1.278.422z"/>
    </defs>
    <g fill="none" fill-rule="evenodd" transform="translate(6 6)">
        <mask id="prefix__b" fill="#fff">
            <use xlink:href="#prefix__a"/>
        </mask>
        <g fill="#82869D" mask="url(#prefix__b)">
            <path d="M0 0H24V24H0z" transform="translate(-6 -6)"/>
        </g>
    </g>
</svg>
