<svg xmlns="http://www.w3.org/2000/svg" xmlns:xlink="http://www.w3.org/1999/xlink" width="24" height="24" viewBox="0 0 24 24">
    <defs>
        <path id="prefix__a" d="M11.063 8.25c.312 0 .546-.14.703-.422.156-.281.234-.578.234-.89V.89c0-.016-.004-.032-.012-.047.008-.04.01-.076.006-.112-.004-.035-.014-.068-.03-.1-.046-.21-.146-.368-.298-.474C11.514.053 11.312 0 11.062 0h-9.75C1.087 0 .865.041.65.123.436.205.27.324.152.48.137.488.125.498.117.51L.094.54C.054.585.027.634.012.685c-.016.05-.016.103 0 .158C.004.859 0 .875 0 .89v6.046c0 .313.14.61.422.891.281.281.578.422.89.422h9.75zM6 4.793L.95.762c.062-.008.124-.012.187-.012h9.925L6 4.793zM11.063 7.5h-9.75c-.102 0-.221-.068-.358-.205C.818 7.158.75 7.039.75 6.938V1.57l5.004 3.996c.039.032.078.055.117.07.04.016.082.024.129.024s.09-.008.129-.023c.039-.016.078-.04.117-.07L11.25 1.57v5.367c0 .102-.006.221-.018.358-.011.137-.068.205-.17.205z"/>
    </defs>
    <g fill="none" fill-rule="evenodd" transform="translate(6 8)">
        <mask id="prefix__b" fill="#fff">
            <use xlink:href="#prefix__a"/>
        </mask>
        <g fill="#82869D" mask="url(#prefix__b)">
            <path d="M0 0H24V24H0z" transform="translate(-6 -8)"/>
        </g>
    </g>
</svg>
