<svg xmlns="http://www.w3.org/2000/svg" xmlns:xlink="http://www.w3.org/1999/xlink" width="14" height="14" viewBox="0 0 14 14">
    <defs>
        <path id="prefix__a" d="M11.25 12.75c.203 0 .379-.072.527-.217.149-.144.223-.322.223-.533V6.346c0-.02-.004-.037-.012-.053-.008-.063-.023-.125-.047-.188-.023-.062-.054-.117-.093-.164l-.012-.011c-.016-.024-.035-.047-.059-.07l-.07-.07L6.82 1.065C6.61.856 6.344.75 6.023.75c-.32 0-.585.105-.796.316L.34 5.754c-.055.055-.125.14-.211.258-.086.117-.129.242-.129.375V12c0 .21.074.389.223.533.148.145.324.217.527.217h10.5zM8.32 8.8L6.727 7.384c-.22-.172-.471-.26-.756-.264-.285-.004-.545.088-.78.276L3.715 8.754.879 6.246l.316-.305h.024l4.535-4.347c.039-.032.082-.057.129-.076.047-.02.094-.03.14-.03.047 0 .094.01.141.03.047.02.09.044.129.076l4.23 4.043h-.011l.644.644-2.836 2.52zM.75 11.485V7.137l2.414 2.12L.75 11.485zm10.5-.035L8.871 9.316l2.379-2.109v4.242zm-.504.551H1.29l2.649-2.426c.007-.008.019-.017.035-.03.015-.01.027-.024.035-.04l.001-.002.01-.01L5.673 7.97c.039-.032.084-.057.135-.076.05-.02.103-.03.158-.03.055 0 .107.008.158.024.05.015.092.039.123.07l4.5 4.043z"/>
    </defs>
    <g fill="none" fill-rule="evenodd" transform="translate(1)">
        <mask id="prefix__b" fill="#fff">
            <use xlink:href="#prefix__a"/>
        </mask>
        <g fill="#0090FF" mask="url(#prefix__b)">
            <path d="M0 0H14V14H0z" transform="translate(-1)"/>
        </g>
    </g>
</svg>
