<!-- Generated by IcoMoon.io -->
<svg version="1.1" xmlns="http://www.w3.org/2000/svg" width="24" height="24" viewBox="0 0 24 24">
  <title>eye</title>
  <path
    d="M12.035 6c0.936 0 1.851 0.127 2.746 0.382s1.728 0.626 2.5 1.113c0.772 0.487 1.474 1.085 2.105 1.793s1.146 1.516 1.544 2.422c0.012 0.011 0.018 0.020 0.018 0.026v0 0.026l0.009 0.009c0.006 0.006 0.009 0.014 0.009 0.026v0 0.034c0 0.011 0.006 0.028 0.018 0.051 0 0.023 0.003 0.045 0.009 0.068s0.009 0.045 0.009 0.068c0 0.023-0.003 0.048-0.009 0.076s-0.009 0.054-0.009 0.076c-0.012 0.011-0.018 0.023-0.018 0.034v0 0.051l-0.009 0.009c-0.006 0.006-0.009 0.009-0.009 0.009v0 0.025c0 0.006-0.006 0.014-0.018 0.025-0.398 0.907-0.912 1.711-1.544 2.414s-1.339 1.295-2.123 1.776c-0.784 0.482-1.623 0.85-2.518 1.105s-1.81 0.382-2.746 0.382c-0.936 0-1.851-0.127-2.746-0.382s-1.734-0.623-2.518-1.105c-0.784-0.482-1.491-1.074-2.123-1.776s-1.152-1.507-1.561-2.414v0-0.051c0 0-0.003-0.003-0.009-0.009s-0.009-0.014-0.009-0.026v0-0.034c0-0.011-0.006-0.028-0.018-0.051 0-0.023-0.003-0.045-0.009-0.068s-0.009-0.045-0.009-0.068c0-0.023 0.003-0.048 0.009-0.076s0.009-0.054 0.009-0.076c0.012-0.011 0.018-0.023 0.018-0.034v0-0.051c0 0 0.003-0.003 0.009-0.009v0l0.009-0.009v-0.051c0.409-0.907 0.933-1.714 1.57-2.422s1.348-1.306 2.132-1.793c0.784-0.487 1.626-0.858 2.526-1.113s1.819-0.382 2.754-0.382zM12.053 8.754c-0.924 0-1.716 0.32-2.377 0.96s-0.991 1.408-0.991 2.303c0 0.907 0.33 1.677 0.991 2.312s1.453 0.952 2.377 0.952c0.936 0 1.731-0.317 2.386-0.952s0.982-1.405 0.982-2.312c0-0.895-0.327-1.663-0.982-2.303s-1.45-0.96-2.386-0.96z"></path>
</svg>
