<!-- Generated by IcoMoon.io -->
<svg version="1.1" xmlns="http://www.w3.org/2000/svg" width="24" height="24" viewBox="0 0 24 24">
  <title>eyedropper</title>
  <path
    d="M7.901 19.563l8.010-7.972 0.668 0.657c0.371 0.365 0.966 0.365 1.336 0 0.364-0.358 0.369-0.943 0.011-1.307-0.003-0.003-0.006-0.006-0.009-0.009l-1.168-1.154 2.967-2.969c0.196-0.196 0.291-0.423 0.283-0.68s-0.102-0.476-0.283-0.657l-2.197-2.199c-0.181-0.181-0.404-0.272-0.668-0.272s-0.487 0.091-0.668 0.272l-2.967 2.969-1.154-1.169c-0.358-0.363-0.942-0.367-1.305-0.009-0.003 0.003-0.007 0.007-0.010 0.010-0.365 0.371-0.365 0.966 0 1.337l0.657 0.669-7.967 8.016c-0.279 0.281-0.436 0.661-0.436 1.057v3.847h3.843c0.397 0 0.777-0.157 1.058-0.437zM5.809 17.189c-0.5-0.501-0.5-1.312 0-1.813l5.799-5.803c0.5-0.5 1.311-0.501 1.811-0.001 0 0 0 0 0.001 0.001 0.5 0.501 0.5 1.313 0 1.813l-5.799 5.803c-0.5 0.5-1.311 0.501-1.811 0.001-0-0-0-0-0.001-0.001z"></path>
</svg>
