<svg xmlns="http://www.w3.org/2000/svg" xmlns:xlink="http://www.w3.org/1999/xlink" width="24" height="24" viewBox="0 0 24 24">
    <defs>
        <path id="prefix__a" d="M13.5 5.001L14 5c.552 0 1 .448 1 1s-.448 1-1 1h-.085c.055.157.085.325.085.5v13c0 .634-.393 1.175-.948 1.395l-.052.018v.587c0 .78-.595 1.42-1.356 1.493L11.5 24c-.828 0-1.5-.672-1.5-1.5v-.587l-.052-.018c-.513-.203-.887-.68-.941-1.25L9 20.5v-13c0-.175.03-.343.085-.5H9c-.552 0-1-.448-1-1s.448-1 1-1h.5V1c0-1.054.816-1.918 1.85-1.995L11.5-1c1.105 0 2 .895 2 2v4.001zM12.5 7h-2c-.276 0-.5.224-.5.5v13c0 .276.224.5.5.5h.5v1.5c0 .276.224.5.5.5s.5-.224.5-.5V21h.5c.276 0 .5-.224.5-.5v-13c0-.276-.224-.5-.5-.5z"/>
    </defs>
    <g fill="none" fill-rule="evenodd">
        <mask id="prefix__b" fill="#fff">
            <use xlink:href="#prefix__a"/>
        </mask>
        <g fill="#0090FF" mask="url(#prefix__b)">
            <path d="M0 0H24V24H0z"/>
        </g>
    </g>
</svg>
