<svg xmlns="http://www.w3.org/2000/svg" xmlns:xlink="http://www.w3.org/1999/xlink" width="14" height="14" viewBox="0 0 14 14">
    <defs>
        <path id="prefix__a" d="M9.629 12.727c.07-.032.129-.079.176-.141.047-.063.07-.133.07-.211v-6.41c0-.719-.129-1.395-.387-2.027-.258-.633-.607-1.186-1.049-1.659-.441-.472-.957-.845-1.546-1.119C6.303.887 5.672.75 5 .75c-.672 0-1.303.137-1.893.41-.59.274-1.105.647-1.546 1.12C1.119 2.751.77 3.304.51 3.937.255 4.57.126 5.245.126 5.965v6.41c0 .078.023.148.07.21.047.063.106.11.176.142.024.007.045.013.065.017.02.004.04.006.064.006.055 0 .105-.01.152-.03.047-.019.09-.048.13-.087l1.417-1.57 1.102 1.535c.039.047.084.084.135.111.05.027.107.041.17.041.062 0 .119-.014.17-.041.05-.027.095-.064.134-.111l1.102-1.489 1.101 1.489c.032.047.074.084.13.111.054.027.109.041.163.041.063 0 .121-.014.176-.041.055-.027.098-.064.129-.111l1.125-1.524 1.383 1.547c.047.063.11.104.187.123.078.02.153.014.223-.017zm-3.223-.985l-1.09-1.488c-.03-.047-.074-.084-.128-.111-.055-.028-.11-.041-.165-.041-.062 0-.12.013-.175.04-.055.028-.098.065-.13.112l-1.113 1.488-1.078-1.488c-.03-.047-.072-.084-.123-.111-.05-.028-.103-.041-.158-.041h-.023c-.047 0-.096.01-.147.029-.05.02-.092.049-.123.088L.875 11.402V5.965c0-.61.11-1.186.328-1.729.219-.543.514-1.017.885-1.423.371-.407.807-.727 1.307-.961C3.895 1.617 4.43 1.5 5 1.5c.57 0 1.105.117 1.605.352.5.234.936.554 1.307.96.371.407.666.881.885 1.424.219.543.328 1.12.328 1.729v5.426l-1.043-1.16c-.039-.047-.084-.08-.135-.1-.05-.02-.103-.03-.158-.03-.055 0-.107.014-.158.042-.05.027-.092.064-.123.11l-1.102 1.49zm.469-5.367c.203 0 .379-.074.527-.223.149-.148.223-.324.223-.527s-.074-.379-.223-.527c-.148-.149-.324-.223-.527-.223s-.379.074-.527.223c-.149.148-.223.324-.223.527s.074.379.223.527c.148.149.324.223.527.223zm-3.75 0c.203 0 .379-.074.527-.223.149-.148.223-.324.223-.527s-.074-.379-.223-.527c-.148-.149-.324-.223-.527-.223s-.379.074-.527.223c-.149.148-.223.324-.223.527s.074.379.223.527c.148.149.324.223.527.223z"/>
    </defs>
    <g fill="none" fill-rule="evenodd" transform="translate(2)">
        <mask id="prefix__b" fill="#fff">
            <use xlink:href="#prefix__a"/>
        </mask>
        <g fill="#0090FF" mask="url(#prefix__b)">
            <path d="M0 0H14V14H0z" transform="translate(-2)"/>
        </g>
    </g>
</svg>
