<svg xmlns="http://www.w3.org/2000/svg" xmlns:xlink="http://www.w3.org/1999/xlink" width="24" height="24" viewBox="0 0 24 24">
    <defs>
        <path id="prefix__a" d="M11.367 10.137c.172 0 .32-.06.445-.182.126-.121.188-.271.188-.451v-.938c0-.187-.105-.34-.316-.457l-.317-.175-2.39-1.313c.437-.344.738-.803.902-1.377.164-.574.246-1.049.246-1.424V2.238c0-.265-.082-.531-.246-.797-.164-.265-.379-.504-.645-.714C8.97.516 8.666.342 8.326.205 7.986.068 7.641 0 7.29 0c-.453 0-.894.11-1.324.328-.43.219-.781.488-1.055.809l.48.023c.165.008.32.035.47.082.195-.148.415-.265.661-.351.247-.086.502-.13.768-.13.547 0 1.031.176 1.453.528.422.352.633.668.633.95V3.82c0 .29-.064.666-.193 1.131-.13.465-.354.826-.674 1.084-.102.078-.178.176-.229.293-.05.117-.068.238-.052.363.007.125.046.24.117.346.07.106.16.19.27.252l2.39 1.3c.016.009.03.015.04.018.013.004.022.01.03.018.031.008.063.021.094.041l.082.053v.668H9.738c.11.086.19.191.24.316.051.125.1.27.147.434h1.242zm-2.625 1.875c.172 0 .32-.06.445-.182.126-.121.188-.271.188-.451v-.95c0-.187-.105-.34-.316-.456l-.317-.176-2.355-1.3c.437-.352.732-.813.884-1.384.153-.57.229-1.047.229-1.43V4.103c0-.266-.08-.53-.24-.791-.16-.262-.371-.498-.633-.71-.262-.21-.56-.382-.897-.515-.335-.133-.68-.2-1.03-.2-.345 0-.686.067-1.026.2-.34.133-.643.305-.908.516-.266.21-.48.447-.645.709-.164.261-.246.525-.246.79v1.583c0 .343.086.808.258 1.394.172.586.48 1.055.926 1.406L.633 9.797l-.317.187c-.21.125-.316.274-.316.446v.949c0 .18.063.33.188.451.124.121.273.182.445.182h8.11zm-.117-.75H.75v-.668l.088-.059c.035-.023.068-.039.1-.047.007-.008.015-.013.023-.017.008-.004.016-.006.023-.006L3.41 9.14c.11-.055.2-.135.27-.24.07-.106.11-.221.117-.346.015-.125-.002-.246-.053-.364-.05-.117-.123-.214-.217-.293-.32-.25-.55-.607-.691-1.072-.14-.465-.211-.846-.211-1.142V4.102c0-.274.213-.586.639-.938.425-.352.904-.527 1.435-.527.547 0 1.026.175 1.436.527.41.352.615.664.615.938v1.582c0 .296-.059.677-.176 1.142-.117.465-.336.822-.656 1.072-.102.079-.178.176-.229.293-.05.118-.068.239-.052.364.008.125.047.24.117.345.07.106.16.19.27.252l2.355 1.301c.016.008.03.016.04.024.013.007.022.011.03.011l.094.047c.031.016.059.035.082.059v.668z"/>
    </defs>
    <g fill="none" fill-rule="evenodd" transform="translate(6 6)">
        <mask id="prefix__b" fill="#fff">
            <use xlink:href="#prefix__a"/>
        </mask>
        <g fill="#82869D" mask="url(#prefix__b)">
            <path d="M0 0H24V24H0z" transform="translate(-6 -6)"/>
        </g>
    </g>
</svg>
