<svg xmlns="http://www.w3.org/2000/svg" xmlns:xlink="http://www.w3.org/1999/xlink" width="24" height="24" viewBox="0 0 24 24">
    <defs>
        <path id="prefix__a" d="M14.5 12c.828 0 1.5.672 1.5 1.5s-.672 1.5-1.5 1.5h-13C.672 15 0 14.328 0 13.5S.672 12 1.5 12h13zm0-6c.828 0 1.5.672 1.5 1.5S15.328 9 14.5 9h-13C.672 9 0 8.328 0 7.5S.672 6 1.5 6h13zm0-6c.828 0 1.5.672 1.5 1.5S15.328 3 14.5 3h-13C.672 3 0 2.328 0 1.5S.672 0 1.5 0h13z"/>
    </defs>
    <g fill="none" fill-rule="evenodd" transform="translate(4 4)">
        <mask id="prefix__b" fill="#fff">
            <use xlink:href="#prefix__a"/>
        </mask>
        <use fill="#FFF" xlink:href="#prefix__a"/>
        <g fill="#82869D" mask="url(#prefix__b)">
            <path d="M0 0H24V24H0z" transform="translate(-4 -4)"/>
        </g>
    </g>
</svg>
