<!-- Generated by IcoMoon.io -->
<svg version="1.1" xmlns="http://www.w3.org/2000/svg" width="24" height="24" viewBox="0 0 24 24">
  <title>icon-list-glyph</title>
  <path
    d="M20.75 10.75c0.352 0 0.648-0.12 0.889-0.361s0.361-0.537 0.361-0.889v0-6.25c0-0.352-0.12-0.648-0.361-0.889s-0.537-0.361-0.889-0.361v0h-6.25c-0.352 0-0.648 0.12-0.889 0.361s-0.361 0.537-0.361 0.889v0 6.25c0 0.352 0.12 0.648 0.361 0.889s0.537 0.361 0.889 0.361v0h6.25zM9.5 10.75c0.352 0 0.648-0.12 0.889-0.361s0.361-0.537 0.361-0.889v0-6.25c0-0.352-0.12-0.648-0.361-0.889s-0.537-0.361-0.889-0.361v0h-6.25c-0.352 0-0.648 0.12-0.889 0.361s-0.361 0.537-0.361 0.889v0 6.25c0 0.352 0.12 0.648 0.361 0.889s0.537 0.361 0.889 0.361v0h6.25zM20.75 22c0.352 0 0.648-0.12 0.889-0.361s0.361-0.537 0.361-0.889v0-6.25c0-0.352-0.12-0.648-0.361-0.889s-0.537-0.361-0.889-0.361v0h-6.25c-0.352 0-0.648 0.12-0.889 0.361s-0.361 0.537-0.361 0.889v0 6.25c0 0.352 0.12 0.648 0.361 0.889s0.537 0.361 0.889 0.361v0h6.25zM9.5 22c0.352 0 0.648-0.12 0.889-0.361s0.361-0.537 0.361-0.889v0-6.25c0-0.352-0.12-0.648-0.361-0.889s-0.537-0.361-0.889-0.361v0h-6.25c-0.352 0-0.648 0.12-0.889 0.361s-0.361 0.537-0.361 0.889v0 6.25c0 0.352 0.12 0.648 0.361 0.889s0.537 0.361 0.889 0.361v0h6.25z"></path>
</svg>
