<svg xmlns="http://www.w3.org/2000/svg" xmlns:xlink="http://www.w3.org/1999/xlink" width="24" height="24" viewBox="0 0 24 24">
    <defs>
        <path id="prefix__a" d="M.347.797C.71.434 1.282.408 1.674.719l.087.078 4.243 4.242L10.247.797c.362-.363.934-.389 1.327-.078l.087.078c.362.362.388.934.078 1.327l-.078.087-4.95 4.95c-.363.362-.934.388-1.327.078l-.087-.078-4.95-4.95c-.39-.39-.39-1.024 0-1.414z"/>
    </defs>
    <g fill="none" fill-rule="evenodd" transform="translate(6 9)">
        <mask id="prefix__b" fill="#fff">
            <use xlink:href="#prefix__a"/>
        </mask>
        <g fill="#0090FF" mask="url(#prefix__b)">
            <path d="M0 0H24V24H0z" transform="rotate(90 13.5 4.5)"/>
        </g>
    </g>
</svg>
