<svg xmlns="http://www.w3.org/2000/svg" xmlns:xlink="http://www.w3.org/1999/xlink" width="28" height="28" viewBox="0 0 28 28">
    <defs>
        <path id="prefix__a" d="M13.125 14c.246 0 .453-.087.622-.26.169-.173.253-.378.253-.615V2.187c0-.246-.084-.453-.253-.622-.169-.168-.376-.252-.622-.252h-3.5V.438c0-.119-.043-.222-.13-.308C9.41.043 9.306 0 9.188 0c-.119 0-.222.043-.308.13-.087.086-.13.189-.13.307v.875h-3.5V.438c0-.118-.043-.22-.13-.307C5.034.043 4.931 0 4.812 0c-.118 0-.22.043-.307.13-.087.086-.13.189-.13.307v.875h-3.5c-.246 0-.453.085-.622.253-.169.169-.253.376-.253.623v10.937c0 .237.084.442.253.615.169.173.376.26.622.26h12.25zm0-.875H.875V2.187h3.5v.438c0 .118.043.221.13.308.086.086.189.13.308.13.118 0 .22-.044.307-.13.087-.087.13-.19.13-.308v-.438h3.5v.438c0 .118.043.221.13.308.086.086.189.13.307.13.119 0 .222-.044.308-.13.087-.087.13-.19.13-.308v-.438h3.5v10.938zM10.937 7c.119 0 .222-.043.308-.13.087-.086.13-.189.13-.308v-.875c0-.118-.043-.22-.13-.307-.086-.087-.189-.13-.307-.13h-.876c-.118 0-.22.043-.307.13-.087.086-.13.189-.13.308v.875c0 .118.043.22.13.307.086.087.189.13.307.13h.876zm-3.5 0c.119 0 .222-.043.308-.13.087-.086.13-.189.13-.308v-.875c0-.118-.043-.22-.13-.307-.086-.087-.189-.13-.308-.13h-.875c-.118 0-.22.043-.307.13-.087.086-.13.189-.13.308v.875c0 .118.043.22.13.307.086.087.189.13.308.13h.875zm-3.5 0c.119 0 .222-.043.308-.13.087-.086.13-.189.13-.308v-.875c0-.118-.043-.22-.13-.307-.086-.087-.189-.13-.308-.13h-.874c-.119 0-.222.043-.308.13-.087.086-.13.189-.13.308v.875c0 .118.043.22.13.307.086.087.189.13.308.13h.874zm7 3.5c.119 0 .222-.043.308-.13.087-.086.13-.189.13-.307v-.876c0-.118-.043-.22-.13-.307-.086-.087-.189-.13-.307-.13h-.876c-.118 0-.22.043-.307.13-.087.086-.13.189-.13.307v.876c0 .118.043.22.13.307.086.087.189.13.307.13h.876zm-3.5 0c.119 0 .222-.043.308-.13.087-.086.13-.189.13-.307v-.876c0-.118-.043-.22-.13-.307-.086-.087-.189-.13-.308-.13h-.875c-.118 0-.22.043-.307.13-.087.086-.13.189-.13.307v.876c0 .118.043.22.13.307.086.087.189.13.308.13h.875zm-3.5 0c.119 0 .222-.043.308-.13.087-.086.13-.189.13-.307v-.876c0-.118-.043-.22-.13-.307-.086-.087-.189-.13-.308-.13h-.874c-.119 0-.222.043-.308.13-.087.086-.13.189-.13.307v.876c0 .118.043.22.13.307.086.087.189.13.308.13h.874z"/>
    </defs>
    <g fill="none" fill-rule="evenodd" transform="translate(7 7)">
        <mask id="prefix__b" fill="#fff">
            <use xlink:href="#prefix__a"/>
        </mask>
        <g fill="#82869D" mask="url(#prefix__b)">
            <path d="M0 0H28V28H0z" transform="translate(-7 -7)"/>
        </g>
    </g>
</svg>
