<svg xmlns="http://www.w3.org/2000/svg" xmlns:xlink="http://www.w3.org/1999/xlink" width="24" height="24" viewBox="0 0 24 24">
    <defs>
        <path id="prefix__a" d="M11.66 7.211c-.362.363-.934.389-1.326.078l-.087-.078-4.243-4.243-4.243 4.243C1.4 7.574.827 7.6.434 7.29L.347 7.21C-.016 6.848-.04 6.277.27 5.884l.078-.087 4.95-4.95C5.659.484 6.23.46 6.624.77l.087.078 4.95 4.95c.39.39.39 1.024 0 1.414z"/>
    </defs>
    <g fill="none" fill-rule="evenodd" transform="translate(6 7)">
        <mask id="prefix__b" fill="#fff">
            <use xlink:href="#prefix__a"/>
        </mask>
        <g fill="#0090FF" mask="url(#prefix__b)">
            <path d="M0 0H24V24H0z" transform="rotate(-90 5.5 11.5)"/>
        </g>
    </g>
</svg>
