<svg xmlns="http://www.w3.org/2000/svg" xmlns:xlink="http://www.w3.org/1999/xlink" width="17" height="17" viewBox="0 0 17 17">
    <defs>
        <path id="prefix__a" d="M11.305 14.085c.078-.034.142-.086.194-.155.052-.069.077-.146.077-.232V6.635c0-.792-.142-1.537-.426-2.234-.284-.697-.669-1.306-1.155-1.827-.487-.52-1.055-.932-1.705-1.233C7.64 1.04 6.945.889 6.205.889s-1.436.15-2.085.452c-.65.301-1.219.712-1.705 1.233-.486.52-.871 1.13-1.156 1.827-.284.697-.426 1.442-.426 2.234v7.063c0 .086.026.163.078.232.051.07.116.12.193.155.026.009.05.015.072.02.021.004.045.006.07.006.06 0 .117-.01.168-.032.052-.022.1-.054.142-.097l1.563-1.73 1.214 1.691c.043.052.092.093.148.123.056.03.118.045.187.045.07 0 .132-.015.188-.045.055-.03.105-.071.148-.123l1.214-1.64 1.214 1.64c.034.052.081.093.142.123.06.03.12.045.18.045.07 0 .134-.015.194-.045s.108-.071.142-.123l1.24-1.678 1.523 1.704c.052.069.12.114.207.136.086.021.168.015.245-.02zm-3.55-1.084l-1.202-1.64c-.034-.052-.081-.093-.142-.123-.06-.03-.12-.045-.18-.045-.07 0-.134.015-.194.045s-.108.071-.142.123L4.668 13 3.48 11.36c-.034-.052-.08-.093-.135-.123-.056-.03-.114-.045-.175-.045h-.025c-.052 0-.106.01-.162.032-.056.022-.1.054-.135.097L1.66 12.626V6.635c0-.672.12-1.306.361-1.905.241-.598.566-1.12.975-1.569.409-.447.889-.8 1.44-1.058.55-.259 1.14-.388 1.769-.388.628 0 1.218.13 1.769.388.55.258 1.03.61 1.44 1.058.408.448.733.971.974 1.57.241.598.362 1.232.362 1.904v5.978L9.6 11.335c-.042-.052-.092-.088-.148-.11-.056-.021-.114-.032-.174-.032-.06 0-.118.015-.174.045-.056.03-.101.071-.136.123L7.754 13zm.516-5.914c.224 0 .417-.082.58-.246.164-.163.246-.357.246-.58 0-.224-.082-.418-.245-.582-.164-.163-.357-.245-.581-.245-.224 0-.418.082-.581.245-.164.164-.246.358-.246.581 0 .224.082.418.246.581.163.164.357.246.58.246zm-4.132 0c.224 0 .417-.082.58-.246.164-.163.246-.357.246-.58 0-.224-.082-.418-.245-.582-.164-.163-.357-.245-.581-.245-.224 0-.418.082-.581.245-.164.164-.245.358-.245.581 0 .224.081.418.245.581.163.164.357.246.58.246z"/>
    </defs>
    <g fill="none" fill-rule="evenodd" transform="translate(2 1)">
        <mask id="prefix__b" fill="#fff">
            <use xlink:href="#prefix__a"/>
        </mask>
        <g fill="#0090FF" mask="url(#prefix__b)">
            <path d="M0 0H16.056V16.056H0z" transform="translate(-2 -1)"/>
        </g>
    </g>
</svg>
