<!-- Generated by IcoMoon.io -->
<svg version="1.1" xmlns="http://www.w3.org/2000/svg" width="24" height="24" viewBox="0 0 24 24">
  <title>link</title>
  <path
    d="M16.667 15c0.917 0 1.701-0.326 2.354-0.979s0.979-1.437 0.979-2.354v-1.333c0-0.917-0.326-1.701-0.979-2.354s-1.437-0.979-2.354-0.979h-2l0.25 0.208c0.194 0.139 0.403 0.375 0.625 0.708s0.375 0.694 0.458 1.083h0.667c0.389 0 0.708 0.125 0.958 0.375s0.375 0.569 0.375 0.958v1.333c0 0.389-0.125 0.708-0.375 0.958s-0.569 0.375-0.958 0.375h-4.667c-0.389 0-0.708-0.125-0.958-0.375s-0.375-0.569-0.375-0.958v-0.333c0-0.552-0.448-1-1-1s-1 0.448-1 1v0.333c0 0.417 0.097 0.861 0.292 1.333 0.611 1.333 1.625 2 3.042 2h4.667zM9.333 15l-0.25-0.208c-0.194-0.139-0.403-0.375-0.625-0.708s-0.375-0.694-0.458-1.083h-0.667c-0.389 0-0.708-0.125-0.958-0.375s-0.375-0.569-0.375-0.958v-1.333c0-0.389 0.125-0.708 0.375-0.958s0.569-0.375 0.958-0.375h4.667c0.389 0 0.708 0.125 0.958 0.375s0.375 0.569 0.375 0.958v0.333c0 0.552 0.448 1 1 1s1-0.448 1-1v-0.333c0-0.472-0.083-0.917-0.25-1.333-0.25-0.583-0.66-1.062-1.229-1.437s-1.188-0.563-1.854-0.563h-4.667c-0.917 0-1.701 0.326-2.354 0.979s-0.979 1.437-0.979 2.354v1.333c0 0.917 0.326 1.701 0.979 2.354s1.437 0.979 2.354 0.979h2z"></path>
</svg>
