<!-- Generated by IcoMoon.io -->
<svg version="1.1" xmlns="http://www.w3.org/2000/svg" width="24" height="24" viewBox="0 0 24 24">
  <title>logo-org</title>
  <path
    d="M12.5 1c1.105 0 2 0.918 2 2.051v2.051c0 0.955-0.637 1.758-1.499 1.986l-0.001 3.141 3 0.001c2.397 0 4.355 1.921 4.492 4.344l0.008 0.271 0.001 0.065c0.862 0.228 1.499 1.031 1.499 1.986v2.051c0 1.133-0.895 2.051-2 2.051h-2c-1.105 0-2-0.918-2-2.051v-2.051c0-0.956 0.637-1.759 1.5-1.987l0-0.065c0-0.789-0.579-1.439-1.325-1.528l-0.175-0.010-3-0.001 0.001 1.604c0.862 0.228 1.499 1.031 1.499 1.986v2.051c0 1.133-0.895 2.051-2 2.051h-2c-1.105 0-2-0.918-2-2.051v-2.051c0-0.956 0.637-1.759 1.5-1.987l0-1.604-3 0.001c-0.769 0-1.403 0.594-1.49 1.359l-0.010 0.179 0.001 0.065c0.862 0.228 1.499 1.031 1.499 1.986v2.051c0 1.133-0.895 2.051-2 2.051h-2c-1.105 0-2-0.918-2-2.051v-2.051c0-0.956 0.637-1.759 1.5-1.987l0-0.065c0-2.458 1.873-4.467 4.236-4.608l0.264-0.008 3-0.001-0-3.141c-0.863-0.228-1.5-1.031-1.5-1.987v-2.051c0-1.133 0.895-2.051 2-2.051h2z"></path>
</svg>
