<svg xmlns="http://www.w3.org/2000/svg" xmlns:xlink="http://www.w3.org/1999/xlink" width="24" height="24" viewBox="0 0 24 24">
    <defs>
        <path id="prefix__a" d="M2 9c.552 0 1 .448 1 1v1c0 .552-.448 1-1 1H1c-.552 0-1-.448-1-1v-1c0-.552.448-1 1-1h1zm9 0c.552 0 1 .448 1 1v1c0 .552-.448 1-1 1h-1c-.552 0-1-.448-1-1v-1c0-.552.448-1 1-1h1zM6.5 0c.552 0 1 .448 1 1v1c0 .552-.448 1-1 1h-.1l-.001 2.599L9.5 5.6c.728 0 1.326.555 1.394 1.265L10.9 7v2h-.8V7c0-.298-.218-.546-.503-.592L9.5 6.4l-3.101-.001L6.4 9h.1c.552 0 1 .448 1 1v1c0 .552-.448 1-1 1h-1c-.552 0-1-.448-1-1v-1c0-.552.448-1 1-1h.1l-.001-2.601L2.5 6.4c-.298 0-.546.218-.592.503L1.9 7v2h-.8V7c0-.728.555-1.326 1.265-1.394L2.5 5.6l3.099-.001L5.6 3h-.1c-.552 0-1-.448-1-1V1c0-.552.448-1 1-1h1zM2 9.8H1c-.092 0-.17.062-.193.147L.8 10v1c0 .092.062.17.147.193L1 11.2h1c.092 0 .17-.062.193-.147L2.2 11v-1c0-.092-.062-.17-.147-.193L2 9.8zm9 0h-1c-.092 0-.17.062-.193.147L9.8 10v1c0 .092.062.17.147.193L10 11.2h1c.092 0 .17-.062.193-.147L11.2 11v-1c0-.092-.062-.17-.147-.193L11 9.8zm-4.5 0h-1c-.092 0-.17.062-.193.147L5.3 10v1c0 .092.062.17.147.193l.053.007h1c.092 0 .17-.062.193-.147L6.7 11v-1c0-.092-.062-.17-.147-.193L6.5 9.8zm0-9h-1c-.092 0-.17.062-.193.147L5.3 1v1c0 .092.062.17.147.193L5.5 2.2h1c.092 0 .17-.062.193-.147L6.7 2V1c0-.092-.062-.17-.147-.193L6.5.8z"/>
    </defs>
    <g fill="none" fill-rule="evenodd" transform="translate(6 6)">
        <mask id="prefix__b" fill="#fff">
            <use xlink:href="#prefix__a"/>
        </mask>
        <g fill="#82869D" mask="url(#prefix__b)">
            <path d="M0 0H24V24H0z" transform="translate(-6 -6)"/>
        </g>
    </g>
</svg>
