<svg xmlns="http://www.w3.org/2000/svg" xmlns:xlink="http://www.w3.org/1999/xlink" width="24" height="24" viewBox="0 0 24 24">
    <defs>
        <path id="prefix__a" d="M11.25 12.738c.203 0 .377-.072.521-.217.145-.144.217-.318.217-.521v-1.137c0-.218-.123-.396-.369-.533l-.369-.205-3.27-1.559c.258-.203.477-.447.657-.732.18-.285.324-.582.433-.89.11-.31.188-.612.235-.909.047-.297.07-.558.07-.785V3.375c0-.313-.1-.625-.299-.938-.199-.312-.457-.593-.773-.843-.317-.25-.676-.453-1.078-.61C6.822.828 6.415.75 6 .75c-.414 0-.824.078-1.23.234-.407.157-.768.36-1.084.61-.317.25-.573.531-.768.843-.195.313-.293.626-.293.938V5.25c0 .203.023.451.07.744.047.293.127.594.24.902.114.31.26.612.44.909.18.297.402.55.668.761L.75 10.125l-.375.217c-.25.144-.375.318-.375.521V12c0 .203.072.377.217.521.144.145.322.217.533.217h10.5zM.75 12v-.762c0-.156.041-.263.123-.322.082-.059.147-.096.193-.111L4.36 9.246c.118-.055.213-.135.287-.24.075-.106.124-.22.147-.346.016-.133-.002-.26-.053-.38-.05-.122-.127-.221-.228-.3-.39-.312-.678-.753-.862-1.324-.183-.57-.275-1.039-.275-1.406V3.375c0-.195.076-.402.229-.621.152-.219.353-.422.603-.61.25-.187.531-.341.844-.462C5.363 1.56 5.68 1.5 6 1.5c.313 0 .627.06.943.182.317.12.598.273.844.457.246.183.447.384.604.603.156.219.234.43.234.633V5.25c0 .36-.084.826-.252 1.4-.168.575-.455 1.018-.861 1.33-.102.079-.178.178-.229.3-.05.12-.068.247-.053.38.016.133.063.252.141.358.078.105.176.185.293.24l3.27 1.547c.007 0 .06.025.158.076.097.05.146.178.146.38v.727L.75 12z"/>
    </defs>
    <g fill="none" fill-rule="evenodd" transform="translate(6 5)">
        <mask id="prefix__b" fill="#fff">
            <use xlink:href="#prefix__a"/>
        </mask>
        <g fill="#82869D" mask="url(#prefix__b)">
            <path d="M0 0H24V24H0z" transform="translate(-6 -5)"/>
        </g>
    </g>
</svg>
