<!-- Generated by IcoMoon.io -->
<svg version="1.1" xmlns="http://www.w3.org/2000/svg" width="24" height="24" viewBox="0 0 24 24">
  <title>print</title>
  <path
    d="M16.5 3c0.828 0 1.5 0.672 1.5 1.5v1.5h1.5c0.828 0 1.5 0.672 1.5 1.5v6c0 0.828-0.672 1.5-1.5 1.5h-1.5v4.5c0 0.828-0.672 1.5-1.5 1.5h-9c-0.828 0-1.5-0.672-1.5-1.5v-4.5h-1.5c-0.828 0-1.5-0.672-1.5-1.5v-6c0-0.828 0.672-1.5 1.5-1.5h1.5v-1.5c0-0.828 0.672-1.5 1.5-1.5h9zM16.5 13.5h-9v6h9v-6zM16.5 9c-0.828 0-1.5 0.672-1.5 1.5s0.672 1.5 1.5 1.5c0.828 0 1.5-0.672 1.5-1.5s-0.672-1.5-1.5-1.5zM16.5 4.5h-9v3h9v-3z"></path>
</svg>
