<svg height="24" viewBox="0 0 27 24" width="27" xmlns="http://www.w3.org/2000/svg"
     xmlns:xlink="http://www.w3.org/1999/xlink">
  <defs>
    <path
      d="M.898 3.59c.263 0 .482.176.527.41l.009.09v5c0 1.868 1.57 3.394 3.547 3.494l.206.005h1.798v-1.588c0-.371.412-.603.756-.457l.078.04 3.217 2c.318.199.318.635 0 .833l-3.217 2c-.356.221-.834-.017-.834-.416v-1.412H5.187c-2.589 0-4.702-1.901-4.82-4.288L.362 9.09v-5c0-.276.24-.5.536-.5zM8.297.584C8.653.363 9.13.6 9.13 1v1.411h1.799c2.588 0 4.701 1.902 4.82 4.289l.005.211v5c0 .277-.24.5-.536.5-.263 0-.482-.176-.528-.41l-.008-.09v-5c0-1.868-1.57-3.395-3.547-3.494l-.206-.006h-1.8l.001 1.589c0 .37-.411.603-.756.456l-.077-.04-3.217-2c-.319-.198-.319-.634 0-.832z"
      id="prefix__a"/>
  </defs>
  <g fill="none" fill-rule="evenodd" transform="translate(5.594 4)">
    <mask fill="#fff" id="prefix__b">
      <use xlink:href="#prefix__a"/>
    </mask>
    <use fill="#0090FF" fill-rule="nonzero" xlink:href="#prefix__a"/>
    <g fill="#0090FF" mask="url(#prefix__b)">
      <path d="M0 0H25.735V24H0z" transform="translate(-5 -4)"/>
    </g>
  </g>
</svg>
