<!-- Generated by IcoMoon.io -->
<svg version="1.1" xmlns="http://www.w3.org/2000/svg" width="24" height="24" viewBox="0 0 24 24">
  <title>row-list-glyph</title>
  <path
    d="M19.5 16c0.828 0 1.5 0.672 1.5 1.5s-0.672 1.5-1.5 1.5h-15c-0.828 0-1.5-0.672-1.5-1.5s0.672-1.5 1.5-1.5h15zM19.5 10c0.828 0 1.5 0.672 1.5 1.5s-0.672 1.5-1.5 1.5h-15c-0.828 0-1.5-0.672-1.5-1.5s0.672-1.5 1.5-1.5h15zM19.5 4c0.828 0 1.5 0.672 1.5 1.5s-0.672 1.5-1.5 1.5h-15c-0.828 0-1.5-0.672-1.5-1.5s0.672-1.5 1.5-1.5h15z"></path>
</svg>
