<!-- Generated by IcoMoon.io -->
<svg version="1.1" xmlns="http://www.w3.org/2000/svg" width="24" height="24" viewBox="0 0 24 24">
  <title>saved-offline-glyph</title>
  <path
    d="M11.573 0c2.762 0 5.083 1.889 5.74 4.446l0.241-0c2.455 0 4.445 1.99 4.445 4.445s-1.99 4.445-4.445 4.445l-4.555-0.001v2.963l1.678 0.001c0.828 0 1.5 0.672 1.5 1.5 0 0.299-0.089 0.591-0.257 0.839l-3.178 4.709c-0.463 0.687-1.396 0.868-2.082 0.404-0.159-0.108-0.297-0.245-0.404-0.404l-3.178-4.709c-0.463-0.687-0.282-1.619 0.404-2.082 0.248-0.167 0.54-0.257 0.839-0.257l1.678-0.001v-2.963l-5.296 0.001c-2.046 0-3.704-1.658-3.704-3.704s1.658-3.704 3.704-3.704h0.796c0-3.273 2.654-5.927 5.927-5.927h0.146z"></path>
</svg>
