<svg xmlns="http://www.w3.org/2000/svg" xmlns:xlink="http://www.w3.org/1999/xlink" width="24" height="24" viewBox="0 0 24 24">
    <defs>
        <path id="prefix__a" d="M11.66 12c.102 0 .192-.04.27-.117.07-.07.105-.158.105-.264 0-.105-.035-.193-.105-.264L8.285 7.687c.336-.406.602-.865.797-1.376.195-.512.293-1.053.293-1.623 0-.649-.123-1.258-.37-1.829-.245-.57-.581-1.066-1.007-1.488C7.572.95 7.074.615 6.504.37S5.328 0 4.688 0C4.038 0 3.43.123 2.859.37 2.29.614 1.791.95 1.365 1.37.94 1.793.605 2.29.363 2.86S0 4.04 0 4.688c0 .648.121 1.257.363 1.828.242.57.576 1.066 1.002 1.488.426.422.924.756 1.494 1.002s1.18.369 1.829.369c.585 0 1.14-.102 1.664-.305.523-.203.992-.484 1.406-.843l3.633 3.656c.078.078.168.117.27.117zM4.687 8.637c-.546 0-1.06-.104-1.54-.31-.481-.208-.899-.491-1.254-.85-.356-.36-.637-.778-.844-1.254-.207-.477-.31-.989-.31-1.535 0-.547.103-1.06.31-1.536.207-.476.488-.894.844-1.254.355-.359.773-.642 1.253-.85.481-.206.995-.31 1.542-.31.539 0 1.048.104 1.529.31.48.208.898.491 1.254.85.355.36.636.778.843 1.254.207.477.311.989.311 1.535 0 .547-.104 1.06-.31 1.536-.208.476-.489.894-.844 1.254-.356.359-.774.642-1.254.85-.48.206-.99.31-1.53.31z"/>
    </defs>
    <g fill="none" fill-rule="evenodd" transform="translate(6 6)">
        <mask id="prefix__b" fill="#fff">
            <use xlink:href="#prefix__a"/>
        </mask>
        <g fill="#82869D" mask="url(#prefix__b)">
            <path d="M0 0H24V24H0z" transform="translate(-6 -6)"/>
        </g>
    </g>
</svg>
