<!-- Generated by IcoMoon.io -->
<svg version="1.1" xmlns="http://www.w3.org/2000/svg" width="24" height="24" viewBox="0 0 24 24">
  <title>search-g</title>
  <path
    d="M19.615 21c0.375 0 0.7-0.137 0.974-0.411s0.411-0.599 0.411-0.974c0-0.382-0.133-0.707-0.4-0.974v0l-3.71-3.71c0.894-1.291 1.341-2.73 1.341-4.316 0-1.031-0.2-2.017-0.6-2.959s-0.941-1.752-1.623-2.434c-0.681-0.681-1.493-1.222-2.434-1.623s-1.927-0.6-2.959-0.6c-1.031 0-2.017 0.2-2.959 0.6s-1.752 0.941-2.434 1.623c-0.681 0.681-1.222 1.493-1.623 2.434s-0.6 1.927-0.6 2.959c0 1.031 0.2 2.017 0.6 2.959s0.941 1.752 1.623 2.434c0.681 0.681 1.493 1.222 2.434 1.623s1.927 0.6 2.959 0.6c1.587 0 3.025-0.447 4.316-1.341v0l3.71 3.7c0.26 0.274 0.584 0.411 0.974 0.411zM10.615 15.462c-1.334 0-2.475-0.474-3.424-1.422s-1.422-2.090-1.422-3.424c0-1.334 0.474-2.475 1.422-3.424s2.090-1.422 3.424-1.422c1.334 0 2.475 0.474 3.424 1.422s1.422 2.090 1.422 3.424c0 1.334-0.476 2.477-1.428 3.429-0.945 0.945-2.084 1.417-3.418 1.417z"></path>
</svg>
