<svg xmlns="http://www.w3.org/2000/svg" xmlns:xlink="http://www.w3.org/1999/xlink" width="24" height="24" viewBox="0 0 24 24">
    <defs>
        <path id="prefix__a" d="M6.769 11.977c.07 0 .138-.026.205-.077.066-.05.119-.13.158-.24L11.925.48c.062-.148.078-.265.047-.351C11.94.043 11.87 0 11.76 0c-.04 0-.08.006-.123.018-.043.011-.088.025-.135.04L.312 4.806c-.196.086-.3.2-.31.345-.013.145.071.276.251.393l3.164 1.969c.188.117.389.283.604.498.214.215.377.416.486.603l1.898 3.106c.055.086.114.15.176.193.063.043.125.065.188.065zM4.308 7.23c-.086-.078-.17-.15-.252-.216-.082-.067-.162-.123-.24-.17L1.249 5.25l8.602-3.656L4.308 7.23zm2.402 3.493L5.175 8.227c-.04-.079-.088-.157-.147-.235-.058-.078-.123-.156-.193-.234l5.555-5.649-3.68 8.614z"/>
    </defs>
    <g fill="none" fill-rule="evenodd" transform="translate(5 6)">
        <mask id="prefix__b" fill="#fff">
            <use xlink:href="#prefix__a"/>
        </mask>
        <g fill="#82869D" mask="url(#prefix__b)">
            <path d="M0 0H24V24H0z" transform="translate(-5 -6)"/>
        </g>
    </g>
</svg>
