<?xml version="1.0" encoding="UTF-8"?>
<svg width="17px" height="17px" viewBox="0 0 17 17" version="1.1" xmlns="http://www.w3.org/2000/svg">
  <!-- Generator: Sketch 64 (93537) - https://sketch.com -->
  <title>Untitled</title>
  <desc>Created with Sketch.</desc>
  <g id="Page-1" stroke="none" stroke-width="1" fill="none" fill-rule="evenodd" opacity="0.25">
    <g id="Group-76"
       transform="translate(8.485281, 8.485281) rotate(-45.000000) translate(-8.485281, -8.485281) translate(2.485281, 2.485281)"
       fill="#000000">
      <path
        d="M6,0 C7.1045695,-2.02906125e-16 8,0.8954305 8,2 L8,4 L10,4 C11.1045695,4 12,4.8954305 12,6 C12,7.1045695 11.1045695,8 10,8 L8,8 L8,10 C8,11.1045695 7.1045695,12 6,12 C4.8954305,12 4,11.1045695 4,10 L4,8 L2,8 C0.8954305,8 6.2512947e-16,7.1045695 4.8985872e-16,6 C3.54587969e-16,4.8954305 0.8954305,4 2,4 L4,4 L4,2 C4,0.8954305 4.8954305,2.02906125e-16 6,0 Z"
        id="Combined-Shape"></path>
    </g>
  </g>
</svg>
