<svg xmlns="http://www.w3.org/2000/svg" xmlns:xlink="http://www.w3.org/1999/xlink" width="24" height="24" viewBox="0 0 24 24">
    <defs>
        <path id="prefix__a" d="M5.303 5.546c-.173.174-.443.193-.638.058l-.069-.058L.354 1.303C.158 1.108.158.791.354.596.527.423.797.403.99.538l.07.058 3.89 3.89L8.839.595c.173-.173.443-.193.638-.058l.069.058c.174.174.193.443.058.638l-.058.07-4.243 4.242z"/>
    </defs>
    <g fill="none" fill-rule="evenodd" transform="translate(7 10)">
        <mask id="prefix__b" fill="#fff">
            <use xlink:href="#prefix__a"/>
        </mask>
        <g fill="#0090FF" mask="url(#prefix__b)">
            <path d="M0 0H24V24H0z" transform="rotate(90 13.5 3.5)"/>
        </g>
    </g>
</svg>
