<svg xmlns="http://www.w3.org/2000/svg" width="24" height="24" viewBox="0 0 24 24">
    <path fill="#B6BAD0" fill-rule="evenodd" d="M12.5 5c.552 0 1 .448 1 1v.19c.55.14 1.07.358 1.547.64l.135-.133c.39-.39 1.024-.39 1.414 0l.707.707c.39.39.39 1.023 0 1.414l-.133.135c.282.477.5.996.64 1.546l.19.001c.552 0 1 .448 1 1v1c0 .552-.448 1-1 1h-.189c-.142.55-.36 1.07-.641 1.547l.133.135c.39.39.39 1.024 0 1.414l-.707.707c-.39.39-1.023.39-1.414 0l-.135-.133c-.477.282-.996.5-1.546.64L13.5 18c0 .552-.448 1-1 1h-1c-.552 0-1-.448-1-1v-.189c-.55-.142-1.07-.36-1.547-.641l-.135.133c-.39.39-1.024.39-1.414 0l-.707-.707c-.39-.39-.39-1.023 0-1.414l.133-.135c-.282-.477-.5-.997-.641-1.547H6c-.552 0-1-.448-1-1v-1c0-.552.448-1 1-1h.19c.14-.55.358-1.07.64-1.547l-.133-.135c-.39-.39-.39-1.024 0-1.414l.707-.707c.39-.39 1.023-.39 1.414 0l.135.133c.477-.282.997-.5 1.547-.641V6c0-.552.448-1 1-1h1zM12 7c-2.761 0-5 2.239-5 5s2.239 5 5 5 5-2.239 5-5-2.239-5-5-5z" opacity=".797"/>
</svg>
