<!-- Generated by IcoMoon.io -->
<svg version="1.1" xmlns="http://www.w3.org/2000/svg" width="24" height="24" viewBox="0 0 24 24">
  <title>table-refresh</title>
  <path
    d="M2.498 4.97c0.727 0 1.345 0.534 1.483 1.327v0l0.015 0.206v7.666c0 2.446 1.871 4.461 4.226 4.592v0l0.267 0.008 2.512-0 0-1.669c0-0.576 0.591-0.934 1.075-0.691l0.089 0.053 4.494 3.066c0.413 0.282 0.442 0.879 0.088 1.205l-0.088 0.070-4.494 3.066c-0.468 0.32-1.087 0.015-1.158-0.532l-0.007-0.105-0-1.398-2.512 0c-3.923 0-7.162-3.095-7.467-7.074l-0.015-0.25-0.008-0.342v-7.666c0-0.847 0.671-1.533 1.498-1.533zM13.998 7.901c0 0.576-0.591 0.934-1.075 0.691l-0.089-0.053-4.494-3.066c-0.413-0.282-0.442-0.879-0.088-1.205l0.088-0.070 4.494-3.066c0.468-0.32 1.087-0.015 1.158 0.532l0.007 0.105-0.001 1.397 2.513 0.001c3.923 0 7.162 3.095 7.467 7.074l0.015 0.25 0.008 0.342v7.666c0 0.847-0.671 1.533-1.498 1.533-0.727 0-1.345-0.534-1.483-1.327v0l-0.015-0.206v-7.666c0-2.446-1.871-4.461-4.226-4.592v0l-0.267-0.008-2.513-0.001 0.001 1.67z"></path>
</svg>
