<svg height="24" viewBox="0 0 24 24" width="24" xmlns="http://www.w3.org/2000/svg"
     xmlns:xlink="http://www.w3.org/1999/xlink">
  <defs>
    <path
      d="M1.429 2.956l.176-.003c.336-.015.63-.142.88-.38.25-.239.398-.526.445-.862.007-.008.013-.02.017-.035.004-.016.006-.028.006-.035v-.317l-.023-.088c-.008-.027-.012-.052-.012-.076-.07-.305-.215-.558-.434-.762C2.266.195 2.004.07 1.7.023c-.008 0-.017-.003-.03-.011l-.015-.01L1.64 0h-.329c-.039.008-.078.018-.117.03-.039.011-.078.02-.117.029C.781.152.545.299.37.498c-.176.2-.29.451-.346.756l-.017.035C.002 1.297 0 1.31 0 1.324v.317c.008.039.018.082.03.129l.029.128c.101.344.295.612.58.803.285.192.607.276.966.252l-.176.003zM1.594 7.3c.328-.016.619-.143.873-.381.254-.238.408-.525.463-.861l.017-.041c.004-.012.006-.022.006-.03V5.66c-.008-.031-.015-.066-.023-.105l-.012-.056-.012-.05c-.086-.344-.271-.617-.556-.82-.286-.203-.616-.297-.99-.281-.329.015-.622.142-.88.38-.257.239-.41.526-.457.862 0 .015-.003.03-.011.04-.008.013-.012.022-.012.03v.328c.008.032.016.067.023.106l.024.105c.086.344.271.617.557.82.285.204.615.297.99.282zm.047 4.347c.023-.007.046-.013.07-.017l.035-.007.035-.01c.305-.063.56-.206.768-.428.207-.223.334-.487.38-.791l.018-.036c.004-.007.006-.02.006-.035v-.316c-.008-.047-.017-.094-.03-.14-.01-.048-.025-.09-.04-.13-.102-.343-.293-.611-.574-.802-.282-.192-.606-.272-.973-.24-.328.015-.617.142-.867.38-.25.238-.399.526-.446.861-.007.008-.013.02-.017.036C.002 9.988 0 10 0 10.008v.316l.023.088.024.088c.07.297.213.547.428.75.214.203.474.328.779.375l.035.018c.008.003.02.005.035.005h.317z"
      id="prefix__a"/>
  </defs>
  <g fill="none" fill-rule="evenodd" transform="translate(10.5 6)">
    <mask fill="#fff" id="prefix__b">
      <use xlink:href="#prefix__a"/>
    </mask>
    <g fill="#0090FF" mask="url(#prefix__b)">
      <path d="M0 0H24V24H0z" transform="translate(-10.5 -6)"/>
    </g>
  </g>
</svg>
