<svg fill="none" height="39" viewBox="0 0 47 39" width="47" xmlns="http://www.w3.org/2000/svg">
  <path
    d="M24.5 10C23.1193 10 22 11.1193 22 12.5C22 13.8807 23.1193 15 24.5 15H34.5C35.8807 15 37 13.8807 37 12.5C37 11.1193 35.8807 10 34.5 10H24.5Z"
    fill="#3545E5"/>
  <path
    d="M24.5 32C23.1193 32 22 33.1193 22 34.5C22 35.8807 23.1193 37 24.5 37H34.5C35.8807 37 37 35.8807 37 34.5C37 33.1193 35.8807 32 34.5 32H24.5Z"
    fill="#3545E5"/>
  <path
    d="M24.5 2C23.1193 2 22 3.1193 22 4.5C22 5.8807 23.1193 7 24.5 7H44.5C45.8808 7 47 5.8807 47 4.5C47 3.1193 45.8808 2 44.5 2H24.5Z"
    fill="#3545E5"/>
  <path
    d="M24.5 24C23.1193 24 22 25.1193 22 26.5C22 27.8807 23.1193 29 24.5 29H44.5C45.8808 29 47 27.8807 47 26.5C47 25.1193 45.8808 24 44.5 24H24.5Z"
    fill="#3545E5"/>
  <path
    d="M2.42857 0C1.0873 0 0 1.08729 0 2.42856V14.5714C0 15.9127 1.0873 17 2.42857 17H14.5714C15.9127 17 17 15.9127 17 14.5714V2.42856C17 1.08729 15.9127 0 14.5714 0H2.42857Z"
    fill="#3545E5"/>
  <path
    d="M2.42857 22C1.0873 22 0 23.0873 0 24.4286V36.5714C0 37.9127 1.0873 39 2.42857 39H14.5714C15.9127 39 17 37.9127 17 36.5714V24.4286C17 23.0873 15.9127 22 14.5714 22H2.42857Z"
    fill="#3545E5"/>
</svg>
