<svg fill="none" height="49" viewBox="0 0 49 49" width="49" xmlns="http://www.w3.org/2000/svg">
  <path clip-rule="evenodd"
        d="M24.5 41.65C33.9717 41.65 41.65 33.9717 41.65 24.5C41.65 15.0283 33.9717 7.35 24.5 7.35C15.0283 7.35 7.34998 15.0283 7.34998 24.5C7.34998 33.9717 15.0283 41.65 24.5 41.65ZM24.5 49C38.0309 49 49 38.0309 49 24.5C49 10.969 38.0309 0 24.5 0C10.969 0 0 10.969 0 24.5C0 38.0309 10.969 49 24.5 49Z"
        fill="#3545E5" fill-rule="evenodd" opacity="0.841648"/>
  <path d="M0 24.9804C0 11.1841 11.1841 0 24.9804 0V7.49412C15.323 7.49412 7.49412 15.323 7.49412 24.9804H0Z"
        fill="#A1C2F5"/>
</svg>
