<svg fill="none" height="39" viewBox="0 0 22 39" width="22" xmlns="http://www.w3.org/2000/svg">
  <path
    d="M4.41834 0C1.97816 0 0 1.9401 0 4.33333C0 5.93727 0.888527 7.3377 2.20917 8.08695V30.9131C0.888527 31.6624 0 33.0627 0 34.6667C0 37.06 1.97816 39 4.41834 39C6.05374 39 7.48157 38.1286 8.2455 36.8333H10.9542C15.8344 36.8333 19.7908 32.953 19.7908 28.1667V25.4202C21.1115 24.671 22 23.2706 22 21.6667C22 19.2734 20.0219 17.3333 17.5817 17.3333C15.1414 17.3333 13.1633 19.2734 13.1633 21.6667C13.1633 23.2706 14.0519 24.671 15.3725 25.4202V28.1667C15.3725 30.56 13.3944 32.5 10.9542 32.5H8.2455C7.85757 31.8422 7.29821 31.2936 6.6275 30.9131V8.08695C7.94814 7.3377 8.83667 5.93727 8.83667 4.33333C8.83667 1.9401 6.85858 0 4.41834 0Z"
    fill="#2130CC"/>
</svg>
