<svg fill="none" height="45" viewBox="0 0 49 45" width="49" xmlns="http://www.w3.org/2000/svg">
  <path clip-rule="evenodd"
        d="M7.11732 30.8264C10.0216 32.8915 13.3485 33.8864 16.6441 33.8924C17.7768 37.035 19.8354 39.8691 22.7397 41.9342C30.2891 47.3018 40.6944 45.4388 45.9807 37.7728C51.2668 30.107 49.4322 19.5412 41.8826 14.1735C38.9785 12.1085 35.6515 11.1137 32.356 11.1076C31.2231 7.9651 29.1646 5.13085 26.2603 3.06587C18.7109 -2.30184 8.30551 -0.43879 3.0193 7.22709C-2.26688 14.893 -0.432127 25.4588 7.11732 30.8264ZM9.85205 26.8606C11.6307 28.1254 13.6313 28.8282 15.6494 29.0056C15.4438 25.3383 16.4058 21.577 18.6416 18.3348C20.8774 15.0923 24.0292 12.888 27.4933 11.8299C26.6389 9.96492 25.3043 8.29632 23.5257 7.03169C18.1332 3.1976 10.7008 4.52834 6.92489 10.004C3.14904 15.4796 4.45957 23.0268 9.85205 26.8606ZM39.148 18.1392C37.3693 16.8746 35.3688 16.1719 33.3505 15.9945C33.5563 19.6618 32.5941 23.423 30.3582 26.6653C28.1224 29.9078 24.9708 32.112 21.5068 33.1701C22.3612 35.035 23.6957 36.7036 25.4743 37.9684C30.8667 41.8023 38.2993 40.4716 42.0752 34.996C45.8508 29.5205 44.5404 21.9733 39.148 18.1392Z"
        fill="#3545E5" fill-rule="evenodd"/>
</svg>
