<svg fill="none" height="39" viewBox="0 0 49 39" width="49" xmlns="http://www.w3.org/2000/svg">
  <path clip-rule="evenodd"
        d="M9.8 0C4.38761 0 0 4.36522 0 9.75V29.25C0 34.6347 4.38761 39 9.8 39H39.2C44.6123 39 49 34.6347 49 29.25V9.75C49 4.36522 44.6123 0 39.2 0H9.8ZM29.4 4.875H19.6V34.125H29.4V4.875ZM34.3 4.875V34.125H39.2C41.9063 34.125 44.1 31.9425 44.1 29.25V9.75C44.1 7.05761 41.9063 4.875 39.2 4.875H34.3ZM9.8 34.125H14.7V4.875H9.8C7.0938 4.875 4.9 7.05761 4.9 9.75V29.25C4.9 31.9425 7.0938 34.125 9.8 34.125Z"
        fill="#2130CC" fill-rule="evenodd"/>
</svg>
