<?xml version="1.0" encoding="UTF-8"?>
<svg width="648px" height="457px" viewBox="0 0 648 457" version="1.1" xmlns="http://www.w3.org/2000/svg" xmlns:xlink="http://www.w3.org/1999/xlink">
    <title>section 2 img</title>
    <defs>
        <linearGradient x1="50%" y1="0%" x2="50%" y2="100%" id="linearGradient-1">
            <stop stop-color="#FCD283" offset="0%"></stop>
            <stop stop-color="#F5BB3D" offset="100%"></stop>
        </linearGradient>
        <linearGradient x1="0.000608541053%" y1="49.9946809%" x2="99.9999403%" y2="49.9946809%" id="linearGradient-2">
            <stop stop-color="#214F95" offset="3.27%"></stop>
            <stop stop-color="#0E408C" offset="100%"></stop>
        </linearGradient>
        <linearGradient x1="-0.00108038894%" y1="49.9994214%" x2="100.00026%" y2="49.9994214%" id="linearGradient-3">
            <stop stop-color="#214F95" offset="3.27%"></stop>
            <stop stop-color="#0E408C" offset="100%"></stop>
        </linearGradient>
        <linearGradient x1="-0.000240076825%" y1="50.0015492%" x2="99.9973191%" y2="50.0015492%" id="linearGradient-4">
            <stop stop-color="#214F95" offset="3.27%"></stop>
            <stop stop-color="#0E408C" offset="100%"></stop>
        </linearGradient>
        <linearGradient x1="0.00122942361%" y1="50.0229148%" x2="100.003502%" y2="50.0229148%" id="linearGradient-5">
            <stop stop-color="#7B8BFF" offset="4.27%"></stop>
            <stop stop-color="#6F80FF" offset="100%"></stop>
        </linearGradient>
        <linearGradient x1="0.00571725572%" y1="49.98971%" x2="99.9955301%" y2="49.98971%" id="linearGradient-6">
            <stop stop-color="#7B8BFF" offset="4.27%"></stop>
            <stop stop-color="#6F80FF" offset="100%"></stop>
        </linearGradient>
        <linearGradient x1="-0.0300094888%" y1="49.9355552%" x2="99.9912065%" y2="49.9355552%" id="linearGradient-7">
            <stop stop-color="#214F95" offset="3.27%"></stop>
            <stop stop-color="#0E408C" offset="100%"></stop>
        </linearGradient>
        <linearGradient x1="-3.61117495e-05%" y1="50.0000953%" x2="99.9977939%" y2="50.0000953%" id="linearGradient-8">
            <stop stop-color="#7B8BFF" offset="4.27%"></stop>
            <stop stop-color="#6F80FF" offset="100%"></stop>
        </linearGradient>
        <linearGradient x1="-0.00397031022%" y1="50.0006164%" x2="99.9999047%" y2="50.0006164%" id="linearGradient-9">
            <stop stop-color="#214F95" offset="3.27%"></stop>
            <stop stop-color="#0E408C" offset="100%"></stop>
        </linearGradient>
        <linearGradient x1="-0.00527460612%" y1="49.9962713%" x2="99.9891698%" y2="49.9962713%" id="linearGradient-10">
            <stop stop-color="#214F95" offset="3.27%"></stop>
            <stop stop-color="#0E408C" offset="100%"></stop>
        </linearGradient>
        <linearGradient x1="0.00194373315%" y1="50.0147925%" x2="99.9915268%" y2="50.0147925%" id="linearGradient-11">
            <stop stop-color="#214F95" offset="3.27%"></stop>
            <stop stop-color="#0E408C" offset="100%"></stop>
        </linearGradient>
        <linearGradient x1="-0.00155009835%" y1="50.0066461%" x2="99.99934%" y2="50.0066461%" id="linearGradient-12">
            <stop stop-color="#214F95" offset="3.27%"></stop>
            <stop stop-color="#0E408C" offset="100%"></stop>
        </linearGradient>
        <linearGradient x1="0.00943396226%" y1="49.9966777%" x2="99.9967186%" y2="49.9966777%" id="linearGradient-13">
            <stop stop-color="#7B8BFF" offset="4.27%"></stop>
            <stop stop-color="#6F80FF" offset="100%"></stop>
        </linearGradient>
        <linearGradient x1="-0.015503876%" y1="50.003329%" x2="100.009302%" y2="50.003329%" id="linearGradient-14">
            <stop stop-color="#7B8BFF" offset="4.27%"></stop>
            <stop stop-color="#6F80FF" offset="100%"></stop>
        </linearGradient>
        <linearGradient x1="0.000705716302%" y1="50.0469169%" x2="99.9934133%" y2="50.0469169%" id="linearGradient-15">
            <stop stop-color="#7B8BFF" offset="4.27%"></stop>
            <stop stop-color="#6F80FF" offset="100%"></stop>
        </linearGradient>
        <linearGradient x1="-0.00331999316%" y1="49.998924%" x2="99.9993487%" y2="49.998924%" id="linearGradient-16">
            <stop stop-color="#214F95" offset="3.27%"></stop>
            <stop stop-color="#0E408C" offset="100%"></stop>
        </linearGradient>
        <linearGradient x1="0.0020276039%" y1="50.0076984%" x2="99.9943168%" y2="50.0076984%" id="linearGradient-17">
            <stop stop-color="#7B8BFF" offset="4.27%"></stop>
            <stop stop-color="#6F80FF" offset="100%"></stop>
        </linearGradient>
        <linearGradient x1="0.00943525229%" y1="50.1024209%" x2="99.9974019%" y2="50.1024209%" id="linearGradient-18">
            <stop stop-color="#214F95" offset="3.27%"></stop>
            <stop stop-color="#0E408C" offset="100%"></stop>
        </linearGradient>
        <linearGradient x1="50%" y1="0%" x2="50%" y2="83.4544362%" id="linearGradient-19">
            <stop stop-color="#96F1C3" offset="0%"></stop>
            <stop stop-color="#58E39D" offset="100%"></stop>
        </linearGradient>
        <linearGradient x1="50%" y1="0%" x2="50%" y2="83.4544362%" id="linearGradient-20">
            <stop stop-color="#4FC68A" offset="0%"></stop>
            <stop stop-color="#139554" offset="100%"></stop>
        </linearGradient>
        <linearGradient x1="0.00656365377%" y1="49.972067%" x2="99.9948038%" y2="49.972067%" id="linearGradient-21">
            <stop stop-color="#214F95" offset="3.27%"></stop>
            <stop stop-color="#0E408C" offset="100%"></stop>
        </linearGradient>
        <linearGradient x1="0.00106390965%" y1="50.0037659%" x2="100.004049%" y2="50.0037659%" id="linearGradient-22">
            <stop stop-color="#7B8BFF" offset="4.27%"></stop>
            <stop stop-color="#6F80FF" offset="100%"></stop>
        </linearGradient>
        <linearGradient x1="-0.00474976931%" y1="50.0090379%" x2="99.9969417%" y2="50.0090379%" id="linearGradient-23">
            <stop stop-color="#7B8BFF" offset="4.27%"></stop>
            <stop stop-color="#6F80FF" offset="100%"></stop>
        </linearGradient>
        <linearGradient x1="-0.0013421117%" y1="49.9945306%" x2="100.001414%" y2="49.9945306%" id="linearGradient-24">
            <stop stop-color="#7B8BFF" offset="4.27%"></stop>
            <stop stop-color="#6F80FF" offset="100%"></stop>
        </linearGradient>
        <linearGradient x1="0.00301331831%" y1="49.9986428%" x2="100.007214%" y2="49.9986428%" id="linearGradient-25">
            <stop stop-color="#7B8BFF" offset="4.27%"></stop>
            <stop stop-color="#6F80FF" offset="100%"></stop>
        </linearGradient>
        <linearGradient x1="0.00346251165%" y1="50.0219178%" x2="99.999201%" y2="50.0219178%" id="linearGradient-26">
            <stop stop-color="#214F95" offset="3.27%"></stop>
            <stop stop-color="#0E408C" offset="100%"></stop>
        </linearGradient>
        <linearGradient x1="50.0015135%" y1="11975.6%" x2="50.0015135%" y2="11492.6999%" id="linearGradient-27">
            <stop stop-color="#214F95" offset="3.27%"></stop>
            <stop stop-color="#0E408C" offset="100%"></stop>
        </linearGradient>
        <linearGradient x1="0.000979991833%" y1="49.9993164%" x2="100.002001%" y2="49.9993164%" id="linearGradient-28">
            <stop stop-color="#214F95" offset="3.27%"></stop>
            <stop stop-color="#0E408C" offset="100%"></stop>
        </linearGradient>
        <linearGradient x1="-0.00228655424%" y1="50.0142292%" x2="99.9949777%" y2="50.0142292%" id="linearGradient-29">
            <stop stop-color="#214F95" offset="3.27%"></stop>
            <stop stop-color="#0E408C" offset="100%"></stop>
        </linearGradient>
        <linearGradient x1="-0.00529025887%" y1="50.0106944%" x2="99.9837765%" y2="50.0106944%" id="linearGradient-30">
            <stop stop-color="#7B8BFF" offset="4.27%"></stop>
            <stop stop-color="#6F80FF" offset="100%"></stop>
        </linearGradient>
        <linearGradient x1="-0.0424570912%" y1="49.9851814%" x2="99.9457995%" y2="49.9851814%" id="linearGradient-31">
            <stop stop-color="#7B8BFF" offset="4.27%"></stop>
            <stop stop-color="#6F80FF" offset="100%"></stop>
        </linearGradient>
        <linearGradient x1="0.00911743253%" y1="49.996648%" x2="99.9883297%" y2="49.996648%" id="linearGradient-32">
            <stop stop-color="#7B8BFF" offset="4.27%"></stop>
            <stop stop-color="#6F80FF" offset="100%"></stop>
        </linearGradient>
    </defs>
    <g id="Page-2" stroke="none" stroke-width="1" fill="none" fill-rule="evenodd">
        <g id="Setting-Features" transform="translate(-102.000000, -986.000000)">
            <g id="section2" transform="translate(102.000000, 931.000000)">
                <g id="ccc" transform="translate(0.000000, 49.000000)">
                    <path d="M569.028609,455.450854 C569.028609,455.450854 629.463067,348.910196 607.815963,267.608641 C606.872007,264.075025 605.764811,260.569791 604.465984,257.107131 C602.123839,251.842185 600.966961,246.697864 600.718551,241.659977 C600.470142,236.622091 601.130201,231.690638 602.414833,226.844333 C606.545526,215.086899 612.053117,203.201744 619.249892,192.622183 C621.648817,189.095662 624.232275,185.711054 627.021558,182.532218 C655.673808,147.522454 657.263628,91.8289731 617.468442,63.1839757 C597.574398,49.9222715 574.358765,56.5566714 555.217047,66.4124805 C551.384445,68.3850614 547.72218,70.4853635 544.272838,72.5856655 C530.418691,78.361496 515.279913,83.3993826 499.722387,86.8336602 C494.541277,87.9689586 489.317582,88.9197709 484.122277,89.5370894 C434.426202,95.0078085 389.854459,67.9593245 352.763387,38.342228 C349.455993,36.4547944 346.035041,34.7660381 342.47214,33.3256282 C324.65054,26.1306747 303.195065,25.1727667 274.003412,37.0721129 C180.580186,75.1542781 208.813689,170.632872 98.3637724,162.331003 C-12.0861438,154.029133 -12.916541,266.111466 16.1473587,318.413243 C45.2112584,370.715021 76.7734469,423.854081 56.0064211,447.929502 C35.2464928,472.004924 218.380999,455.124456 232.49775,456.78483 C246.621599,458.445203 569.028609,455.450854 569.028609,455.450854 Z" id="Path" fill="url(#linearGradient-1)" fill-rule="nonzero" opacity="0.331124442"></path>
                    <path d="M615.054697,463 L23.9453029,463 C22.8732564,463 22,462.158815 22,461.12614 L22,455.87386 C22,454.841185 22.8732564,454 23.9453029,454 L615.054697,454 C616.126744,454 617,454.841185 617,455.87386 L617,461.12614 C617,462.158815 616.126744,463 615.054697,463 Z" id="Path" fill="url(#linearGradient-2)" fill-rule="nonzero"></path>
                    <g id="Group" transform="translate(377.000000, 29.000000)" fill-rule="nonzero">
                        <path d="M0.609657534,64.9328571 L0.609657534,85.9814286 C0.609657534,87.179949 1.58085616,88.1515306 2.77890411,88.1515306 L12.5759589,88.1515306 C13.9583219,93.5909694 16.1701027,98.69 19.0907877,103.306786 C19.0907877,103.306786 19.0907877,103.306786 19.0907877,103.306786 L12.3420205,110.058214 C11.4984247,110.902143 11.4984247,112.277959 12.3420205,113.121888 L27.2219178,128.007653 C28.0655137,128.851582 29.4407877,128.851582 30.2843836,128.007653 L37.2316438,121.057653 C37.2316438,121.057653 37.2387329,121.057653 37.2387329,121.064745 C41.910411,123.86602 47.0641438,125.95102 52.5297945,127.192092 C52.5297945,127.192092 52.5368836,127.192092 52.5368836,127.192092 L52.5368836,136.737704 C52.5368836,137.936224 53.5080822,138.907806 54.7061301,138.907806 L75.7464041,138.907806 C76.9444521,138.907806 77.9156507,137.936224 77.9156507,136.737704 L77.9156507,126.922602 C77.9156507,126.922602 77.9227397,126.922602 77.9227397,126.922602 C83.3600342,125.539694 88.4570548,123.327041 93.0720205,120.42648 C93.0720205,120.42648 93.0720205,120.42648 93.0720205,120.42648 L99.8207877,127.177908 C100.664384,128.021837 102.039658,128.021837 102.883253,127.177908 L117.763151,112.292143 C118.606747,111.448214 118.606747,110.072398 117.763151,109.228469 L110.808801,102.271378 C113.601884,97.5836735 115.707329,92.435 116.926644,86.960102 L126.482671,86.960102 C127.680719,86.960102 128.651918,85.9885204 128.651918,84.79 L128.651918,63.7414286 C128.651918,62.5429082 127.680719,61.5713265 126.482671,61.5713265 L116.65726,61.5713265 C115.274897,56.1318878 113.084384,51.0328571 110.163699,46.4160714 L116.919555,39.657551 C117.763151,38.8136224 117.763151,37.4378061 116.919555,36.5938776 L102.039658,21.7081122 C101.196062,20.8641837 99.8207877,20.8641837 98.9771918,21.7081122 L92.0370205,28.6510204 L92.0370205,28.6510204 C87.3440753,25.8710204 82.1974315,23.7647449 76.7246918,22.5236735 L76.7246918,12.9709694 C76.7246918,11.772449 75.7534932,10.8008673 74.5554452,10.8008673 L53.5151712,10.8008673 C52.3171233,10.8008673 51.3459247,11.772449 51.3459247,12.9709694 L51.3459247,22.7860714 C45.9157192,24.1689796 40.7974315,26.3816327 36.1824658,29.2821939 L29.4407877,22.5378571 C28.5971918,21.6939286 27.2219178,21.6939286 26.3783219,22.5378571 L11.4984247,37.4236224 C10.6548288,38.267551 10.6548288,39.6433673 11.4984247,40.4872959 L18.4456849,47.4372959 L18.4456849,47.4372959 C15.6526027,52.125 13.5471575,57.2807653 12.3065753,62.7485714 L2.77181507,62.7485714 C1.57376712,62.7627551 0.609657534,63.7343367 0.609657534,64.9328571 Z M36.4802055,64.7768367 C39.2520205,56.3517347 45.9582534,49.607398 54.3587671,46.7848469 C78.5820205,38.6363265 100.791986,60.7557653 92.7388356,85.0311224 C89.9457534,93.4633163 83.2182534,100.193469 74.7893836,102.987653 C50.6086644,111.00852 28.5121233,88.9812755 36.4802055,64.7768367 Z" id="Shape" fill="#FFD53C"></path>
                        <path d="M137.300548,30.9913265 L137.300548,40.4092857 C137.300548,41.6078061 138.271747,42.5793878 139.469795,42.5793878 L143.787021,42.5793878 C144.538459,45.5225 145.736507,48.2883163 147.317363,50.7917347 C147.317363,50.7917347 147.317363,50.7917347 147.317363,50.7917347 L144.361233,53.7490306 C143.517637,54.5929592 143.517637,55.9687755 144.361233,56.8127041 L151.017842,63.4719388 C151.861438,64.3158673 153.236712,64.3158673 154.080308,63.4719388 L157.142774,60.4082653 C157.142774,60.4082653 157.142774,60.4082653 157.149863,60.4082653 C159.680651,61.9259184 162.473733,63.0535204 165.436952,63.7272449 C165.436952,63.7272449 165.436952,63.7272449 165.436952,63.7272449 L165.436952,67.9043367 C165.436952,69.1028571 166.408151,70.0744388 167.606199,70.0744388 L177.020445,70.0744388 C178.218493,70.0744388 179.189692,69.1028571 179.189692,67.9043367 L179.189692,63.5783163 C179.189692,63.5783163 179.189692,63.5783163 179.189692,63.5783163 C182.131644,62.8265816 184.89637,61.6280612 187.398801,60.0607653 C187.398801,60.0607653 187.398801,60.0607653 187.398801,60.0607653 L190.354932,63.0180612 C191.198527,63.8619898 192.573801,63.8619898 193.417397,63.0180612 L200.074007,56.3588265 C200.917603,55.514898 200.917603,54.1390816 200.074007,53.2951531 L197.011541,50.2314796 C198.528596,47.692602 199.662842,44.8984184 200.329212,41.9411224 L204.518836,41.9411224 C205.716884,41.9411224 206.688082,40.9695408 206.688082,39.7710204 L206.688082,30.3530612 C206.688082,29.1545408 205.716884,28.1829592 204.518836,28.1829592 L200.187432,28.1829592 C199.435993,25.2398469 198.252123,22.4740306 196.671267,19.9706122 L199.627397,17.0133163 C200.470993,16.1693878 200.470993,14.7935714 199.627397,13.9496429 L192.970788,7.29040816 C192.127192,6.44647959 190.751918,6.44647959 189.908322,7.29040816 L186.845856,10.3540816 C184.30089,8.85061224 181.514897,7.70882653 178.551678,7.03510204 L178.551678,2.85091837 C178.551678,1.65239796 177.580479,0.680816327 176.382432,0.680816327 L166.968185,0.680816327 C165.770137,0.680816327 164.798938,1.65239796 164.798938,2.85091837 L164.798938,7.17693878 C161.856986,7.92158163 159.085171,9.12719388 156.58274,10.6944898 L153.633699,7.74428571 C152.790103,6.90035714 151.414829,6.90035714 150.571233,7.74428571 L143.914623,14.4035204 C143.071027,15.247449 143.071027,16.6232653 143.914623,17.4671939 L146.977089,20.5308673 L146.977089,20.5308673 C145.460034,23.0697449 144.318699,25.8639286 143.652329,28.8283163 L139.476884,28.8283163 C138.271747,28.8283163 137.300548,29.799898 137.300548,30.9913265 Z M156.738699,29.9204592 C158.241575,25.3533163 161.871164,21.7010204 166.429418,20.1691837 C179.551233,15.7580612 191.588425,27.7361735 187.228664,40.8915306 C185.71161,45.4586735 182.067842,49.1038776 177.5025,50.6215306 C164.394863,54.9688265 152.421473,43.0332653 156.738699,29.9204592 Z" id="Shape" fill="#D1D6E8"></path>
                    </g>
                    <g id="Group" transform="translate(103.000000, 91.000000)" fill-rule="nonzero">
                        <g>
                            <g id="Path">
                                <path d="M355.388902,6.43759878 L355.388902,226.371185 C355.388902,229.862644 352.553693,232.688389 349.050539,232.688389 L6.57285429,232.688389 C3.0697006,232.688389 0.22738523,229.862644 0.22738523,226.371185 L0.22738523,6.43759878 C0.22738523,2.94613982 3.0697006,0.11331307 6.57285429,0.11331307 L349.057645,0.11331307 C350.493014,0.11331307 351.807585,0.58781155 352.866347,1.39516717 C354.401198,2.54246201 355.388902,4.37671733 355.388902,6.43759878 Z" fill="url(#linearGradient-3)"></path>
                                <path d="M350.940679,10.7151672 L350.940679,228.849909 L4.67560878,228.849909 C4.66850299,228.849909 4.66139721,228.842827 4.66139721,228.835745 L4.66139721,4.62458967 C4.66139721,4.6175076 4.66850299,4.61042553 4.67560878,4.61042553 L344.758643,4.61042553 C346.158483,4.61042553 347.444631,5.07075988 348.47497,5.84270517 C349.981397,6.95458967 350.940679,8.72510638 350.940679,10.7151672 Z" fill="#FFFFFF"></path>
                                <path d="M355.396008,18.3992097 L0.22738523,18.3992097 L0.22738523,4.06510638 C0.22738523,1.88382979 2.00383234,0.11331307 4.19241517,0.11331307 L351.438084,0.11331307 C353.626667,0.11331307 355.403114,1.88382979 355.403114,4.06510638 L355.403114,18.3992097 L355.396008,18.3992097 Z" fill="url(#linearGradient-4)"></path>
                            </g>
                            <g transform="translate(284.942116, 5.665653)" fill="#F9FBFC" id="Oval">
                                <ellipse cx="3.18339321" cy="2.98155015" rx="2.87073852" ry="2.86115502"></ellipse>
                                <ellipse cx="23.3638323" cy="2.98155015" rx="2.87073852" ry="2.86115502"></ellipse>
                                <ellipse cx="43.5442715" cy="2.98155015" rx="2.87073852" ry="2.86115502"></ellipse>
                            </g>
                        </g>
                        <g transform="translate(73.900200, 55.948328)">
                            <g transform="translate(0.000000, 90.650456)" id="Path">
                                <path d="M205.961277,7.81860182 L1.85461078,7.81860182 C0.966387226,7.81860182 0.241596806,7.096231 0.241596806,6.21097264 L0.241596806,1.69969605 C0.241596806,0.81443769 0.966387226,0.0920668693 1.85461078,0.0920668693 L205.954172,0.0920668693 C206.842395,0.0920668693 207.567237,0.81443769 207.567237,1.69969605 L207.567237,6.21097264 C207.574291,7.096231 206.849501,7.81860182 205.961277,7.81860182 Z" fill="#E9EEF4"></path>
                                <path d="M102.664431,7.81860182 L1.85461078,7.81860182 C0.966387226,7.81860182 0.241596806,7.096231 0.241596806,6.21097264 L0.241596806,1.69969605 C0.241596806,0.81443769 0.966387226,0.0920668693 1.85461078,0.0920668693 L102.664431,0.0920668693 C103.552655,0.0920668693 104.277497,0.81443769 104.277497,1.69969605 L104.277497,6.21097264 C104.284551,7.096231 103.55976,7.81860182 102.664431,7.81860182 Z" fill="url(#linearGradient-5)"></path>
                            </g>
                            <text id="UPDATE" fill="#004493" font-family="Helvetica" font-size="23.0452" font-weight="normal">
                                <tspan x="67.4973868" y="137.391952">UPDA</tspan>
                                <tspan x="67.4973868" y="165.391952">TE</tspan>
                            </text>
                            <g transform="translate(69.636727, 0.000000)">
                                <path d="M66.2756886,28.1937082 L62.1969661,28.1937082 C61.5361277,25.2829787 60.4134132,22.5422188 58.9211976,20.0493313 L61.9127345,17.0677812 C62.7583234,16.2250152 62.7583234,14.8510942 61.9127345,14.0083283 L55.4038323,7.52115502 C54.5582435,6.67838906 53.1797206,6.67838906 52.3341317,7.52115502 L49.4491816,10.3964742 C46.9834731,8.85258359 44.2548503,7.67696049 41.3556886,6.94042553 L41.3556886,2.73367781 C41.3556886,1.53680851 40.3821956,0.56656535 39.1813174,0.56656535 L29.9864271,0.56656535 C28.7855489,0.56656535 27.8120559,1.53680851 27.8120559,2.73367781 L27.8120559,6.79878419 C24.8915768,7.45741641 22.1416367,8.57638298 19.6403992,10.056535 L19.6403992,10.056535 L16.6488623,7.08206687 C15.8032735,6.23930091 14.4247505,6.23930091 13.5791617,7.08206687 L7.07025948,13.5692401 C6.22467066,14.4120061 6.22467066,15.7859271 7.07025948,16.628693 L9.96231537,19.5110942 C8.4061477,21.9685714 7.23369261,24.681003 6.49469062,27.5704863 L2.26674651,27.5704863 C1.06586826,27.5704863 0.0923752495,28.5407295 0.0923752495,29.7375988 L0.0923752495,38.9088754 C0.0923752495,40.1057447 1.06586826,41.0759878 2.26674651,41.0759878 L6.35257485,41.0759878 C7.00630739,43.9867173 8.12902196,46.7203951 9.62123752,49.2203647 L6.6297006,52.2019149 C5.78411178,53.0446809 5.78411178,54.4186018 6.6297006,55.2613678 L13.1386028,61.748541 C13.9841916,62.591307 15.3627146,62.591307 16.2083034,61.748541 L19.0932535,58.8732219 C19.0932535,58.8732219 19.0932535,58.8732219 19.0932535,58.8732219 C21.5589621,60.4171125 24.280479,61.5927356 27.1796407,62.3292705 C27.1796407,62.3292705 27.1796407,62.3292705 27.1796407,62.3292705 L27.1796407,66.5360182 C27.1796407,67.7328875 28.1531337,68.7031307 29.354012,68.7031307 L38.556008,68.7031307 C39.7568862,68.7031307 40.7303792,67.7328875 40.7303792,66.5360182 L40.7303792,62.4709119 C40.7303792,62.4709119 40.7303792,62.4709119 40.7303792,62.4709119 C43.6508583,61.8122796 46.4007984,60.7003951 48.8949301,59.2131611 C48.8949301,59.2131611 48.8949301,59.2131611 48.9020359,59.2131611 L51.8935729,62.1947112 C52.7391617,63.0374772 54.1176846,63.0374772 54.9632735,62.1947112 L61.4721756,55.707538 C62.3177645,54.864772 62.3177645,53.4908511 61.4721756,52.6480851 L58.5872255,49.772766 C58.5872255,49.772766 58.5872255,49.772766 58.5872255,49.772766 C60.1433932,47.3152888 61.3300599,44.6028571 62.0619561,41.7133739 L66.2756886,41.7133739 C67.4765669,41.7133739 68.4500599,40.7431307 68.4500599,39.5462614 L68.4500599,30.3749848 C68.4500599,29.1639514 67.4765669,28.1937082 66.2756886,28.1937082 Z M28.8423952,49.5815502 C24.3444311,48.0943161 20.756008,44.5107903 19.2637924,40.0278419 C14.9647904,27.117234 26.8243513,15.353921 39.7568862,19.6881459 C44.2477445,21.1895441 47.8219561,24.7730699 49.2999601,29.2560182 C53.5492216,42.1382979 41.7536128,53.8520365 28.8423952,49.5815502 Z" id="Shape" fill="url(#linearGradient-6)"></path>
                                <path d="M43.4803194,29.6455319 C44.8659481,31.6143465 45.5481038,34.0293313 45.3846707,36.3805775 C45.270978,38.7318237 44.2832735,40.9768389 42.7555289,42.6977812 C41.2135729,44.4116413 39.1102595,45.5518541 36.8932535,45.9484498 C34.6762475,46.2954711 32.3526547,45.962614 30.4340918,44.8790578 C28.5084232,43.8309119 26.9522555,42.1382979 26.1421956,40.1624012 C25.7229541,39.1779939 25.4742515,38.1369301 25.3960878,37.0817021 C25.3392415,36.0264742 25.4529341,34.9641641 25.7229541,33.9655927 C26.2487824,31.9472036 27.5420359,30.183769 29.1763673,28.9798176 C30.3772455,28.0874772 31.7841916,27.5563222 33.2337725,27.3509422 L33.2337725,29.4613982 L40.0411178,25.5450152 L33.2337725,21.6286322 L33.2337725,23.6328571 C30.9741317,23.9940426 28.8139721,24.9076292 27.101477,26.373617 C24.9839521,28.1653799 23.4562076,30.6299392 22.937485,33.3140426 C22.6674651,34.6525532 22.6248303,36.01231 22.7811577,37.3508207 C22.9659082,38.6893313 23.3709381,39.9853495 23.9749301,41.1751368 C25.1615968,43.5759574 27.2009581,45.4881155 29.5742914,46.5858359 C31.9547305,47.7189666 34.6833533,47.9243465 37.1845908,47.3506991 C39.6858283,46.7416413 41.9383633,45.2898176 43.4874251,43.313921 C45.0222754,41.3309422 45.8962874,38.8593009 45.8607585,36.3947416 C45.8678643,33.9301824 44.9867465,31.5151976 43.4803194,29.6455319 Z" id="Path" fill="url(#linearGradient-7)"></path>
                            </g>
                        </g>
                    </g>
                    <g id="Group" transform="translate(250.000000, 186.000000)" fill-rule="nonzero">
                        <path d="M295.986667,227.382632 C288.229009,243.341053 273.937838,254.176579 256.372793,260.621053 C225.89018,271.804737 192.382793,269.872105 160.604865,267.591316 C139.986577,266.113421 119.147658,262.745526 104.849369,246.275526 C73.6052252,210.280263 101.404685,160.131316 127.033423,129.941053 C139.908288,114.771316 151.587477,98.6352632 164.36982,83.43 C176.518739,68.9778947 192.888108,58.6326316 209.193423,49.4668421 C212.83027,47.4205263 216.467117,45.4452632 220.061261,43.5197368 C239.256126,33.2242105 263.831532,33.9063158 283.168739,43.9460526 C315.30964,60.6363158 318.426937,99.6797368 314.142432,131.653421 C311.914775,148.265526 308.505676,164.671579 306.512883,181.326316 C304.633964,196.957895 302.961441,213.03 295.986667,227.382632 Z" id="Path" fill="url(#linearGradient-8)"></path>
                        <path d="M122.172432,196.211842 C123.111892,196.588421 130.25036,207.836053 170.995856,204.645789 C211.741351,201.455526 229.206757,183.088421 225.448919,174.462632 C221.691081,165.836842 208.360721,158.902105 208.360721,158.902105 L122.172432,196.211842 Z" id="Path" fill="#6B83FF" opacity="0.5"></path>
                        <g id="Path">
                            <g transform="translate(0.000000, 137.131579)">
                                <polygon fill="#EAC59D" points="41.6066667 97.1786842 35.7777477 102.855789 42.6030631 113.243684 51.6204505 106.010526"></polygon>
                                <path d="M205.200721,14.5444737 C198.617387,27 176.468919,32.6344737 157.252703,35.2776316 C141.317477,37.4802632 127.424865,37.6152632 126.07973,37.8639474 C123.104775,38.4039474 109.169459,61.2260526 98.7855856,71.955 C88.4017117,82.6839474 51.6062162,107.502632 51.6062162,107.502632 L39.9768468,97.3278947 C39.9768468,97.3278947 85.682973,41.5657895 99.7677477,27.4973684 C113.838288,13.4289474 152.014505,3.44605263 152.014505,3.44605263 C152.014505,3.44605263 217.257117,-8.22078947 205.200721,14.5444737 Z" fill="url(#linearGradient-9)"></path>
                                <path d="M175.70027,12.3986842 L157.252703,35.2776316 C141.317477,37.4802632 127.424865,37.6152632 126.07973,37.8639474 C123.104775,38.4039474 109.169459,61.2260526 98.7855856,71.955 C88.4017117,82.6839474 51.6062162,107.502632 51.6062162,107.502632 L39.9768468,97.3278947 C59.612973,100.908947 62.1466667,95.8926316 77.4271171,82.8757895 C92.7075676,69.8802632 103.58964,41.1394737 111.731622,34.5102632 C119.873604,27.9023684 139.523964,24.5273684 140.527477,20.7686842 C141.523874,17.01 131.887297,14.2744737 131.887297,14.2744737 L146.036126,12.2068421 L175.70027,12.3986842 Z" fill="#7B8BFF" opacity="0.3"></path>
                                <polygon fill="#EAC59D" points="34.1621622 81.1776316 25.5789189 82.4139474 27.1304505 95.6652632 38.5391892 93.7894737"></polygon>
                                <path d="M25.9561261,82.2221053 C25.9561261,82.2221053 21.4794595,82.5276316 20.7179279,82.3073684 C19.9635135,82.0942105 4.49801802,72.8076316 2.6618018,72.5944737 C2.49099099,72.5731579 0.74018018,72.6157895 0.704594595,72.9994737 C0.334504505,76.6728947 5.39477477,97.6973684 6.86801802,98.3794737 C8.49072072,99.1326316 27.6286486,95.7860526 27.6286486,95.7860526 L25.9561261,82.2221053 Z" fill="url(#linearGradient-10)"></path>
                                <path d="M36.4752252,101.427632 C36.4752252,101.427632 33.1017117,104.390526 32.3686486,104.674737 C31.6355856,104.966053 13.7075676,106.983947 12.1204505,107.921842 C11.970991,108.007105 10.6116216,109.108421 10.8109009,109.435263 C12.7538739,112.575789 29.5787387,126.189474 31.1658559,125.841316 C32.9166667,125.457632 46.0690991,111.183158 46.0690991,111.183158 L36.4752252,101.427632 Z" fill="url(#linearGradient-11)"></path>
                                <path d="M219.34955,36.6205263 C211.442432,63.0307895 130.150721,61.7802632 130.150721,61.7802632 C130.150721,61.7802632 113.838288,73.6247368 96.2874775,81.7673684 C78.7437838,89.91 35.0375676,95.0826316 35.0375676,95.0826316 L32.083964,79.5789474 C60.9936937,72.1823684 111.126667,37.3594737 117.311441,34.3894737 C120.91982,32.6628947 143.495315,22.95 161.537207,15.2052632 C172.113243,10.6792105 181.137748,6.82815789 183.899189,5.64157895 C184.454324,5.41421053 184.76036,5.27921053 184.76036,5.27921053 C184.76036,5.27921053 185.393784,5.35736842 186.48982,5.52789474 C194.375586,6.82105263 226.295856,13.4502632 219.34955,36.6205263 Z" fill="url(#linearGradient-12)"></path>
                                <path d="M219.34955,36.6205263 C211.442432,63.0307895 130.150721,61.7802632 130.150721,61.7802632 C130.150721,61.7802632 113.838288,73.6247368 96.2874775,81.7673684 C78.7437838,89.91 35.0375676,95.0826316 35.0375676,95.0826316 L32.083964,79.5789474 C44.2186486,94.4076316 55.0224324,88.3752632 78.6726126,82.1297368 C102.337027,75.8842105 124.741712,53.8863158 129.004865,52.7707895 C133.268018,51.6410526 139.637838,50.8168421 163.501532,50.0707895 C187.343874,49.3247368 205.556577,41.2744737 205.748739,34.7021053 C205.940901,28.1510526 193.735045,25.1384211 187.343874,22.1471053 C180.952703,19.1415789 160.490991,16.7044737 160.490991,16.7044737 L161.544324,15.2123684 L167.821622,6.39473684 L183.906306,5.64868421 L186.496937,5.535 C194.375586,6.82105263 226.295856,13.4502632 219.34955,36.6205263 Z" fill="#7B8BFF" opacity="0.3"></path>
                            </g>
                            <g transform="translate(102.486486, 0.000000)">
                                <path d="M59.6627928,55.0515789 C56.694955,55.3713158 54.2751351,57.5952632 53.2573874,60.3805263 C48.7024324,72.8715789 34.1265766,114.984474 43.1581982,118.807105 C53.7698198,123.304737 64.4668468,85.2205263 66.1536036,73.8378947 C67.5627928,64.3452632 66.8368468,54.2842105 59.6627928,55.0515789 Z" fill="#EAC59D"></path>
                                <path d="M54.0118018,55.7123684 C54.0118018,55.7123684 48.069009,58.8315789 45.4926126,70.9247368 C42.9162162,83.0178947 30.8811712,147.540789 30.8811712,147.540789 C30.8811712,147.540789 54.9512613,152.223158 55.5775676,147.853421 C56.1967568,143.476579 54.0118018,55.7123684 54.0118018,55.7123684 Z" fill="#27A465"></path>
                                <polygon fill="url(#linearGradient-13)" opacity="0.5" points="48.4604505 87.7002632 39.7846847 149.722105 57.1362162 145.508684"></polygon>
                                <path d="M110.841982,57.2115789 C113.80982,56.9060526 116.642432,58.5757895 118.215315,61.0839474 C125.282613,72.3528947 148.356306,110.486842 140.328198,116.107105 C130.890901,122.715 112.457568,87.7144737 108.422162,76.9286842 C105.062883,67.9476316 103.667928,57.9576316 110.841982,57.2115789 Z" fill="#EAC59D"></path>
                                <path d="M92.2520721,85.9878947 C90.3233333,85.6681579 88.3376577,87.3165789 87.9248649,89.5476316 C87.5974775,91.3239474 87.1846847,95.7007895 87.2131532,98.7631579 C87.2843243,106.344474 86.9854054,113.4 89.4692793,114.579474 C91.9531532,115.758947 94.5509009,111.140526 95.2768468,103.651579 C95.9387387,96.8802632 98.3087387,88.6097368 96.6718018,87.345 C95.8533333,86.7126316 93.9388288,86.2721053 92.2520721,85.9878947 Z" fill="#EAC59D"></path>
                                <path d="M44.5531532,150.66 L60.160991,149.061316 L83.0354054,148.251316 L85.8964865,148.571053 L93.0207207,145.700526 L109.930991,143.966842 L114.656757,143.476579 L114.706577,142.346842 C114.706577,142.346842 114.82045,140.257895 114.991261,136.740789 C115.112252,134.325 115.261712,131.248421 115.425405,127.702895 C115.788378,119.382632 116.215405,108.54 116.45027,97.9531579 C116.813243,82.1652632 116.784775,66.9386842 115.603333,61.4107895 C112.792072,48.3015789 92.1595495,51.1863158 92.1595495,51.1863158 L92.123964,51.1863158 L67.1571171,52.9839474 C67.1571171,52.9839474 53.7057658,52.7494737 51.4852252,58.5544737 C48.8020721,65.5247368 44.5531532,150.66 44.5531532,150.66 Z" fill="#FFFFFF"></path>
                                <path d="M117.446667,163.548947 L113.731532,162.454737 L81.5123423,153.004737 C81.2276577,142.389474 80.6013514,111.041053 80.3593694,98.2942105 C80.3451351,97.4415789 80.3166667,96.6244737 80.3451351,95.8855263 C81.4411712,65.9368421 92.1026126,51.1863158 92.1026126,51.1863158 L92.1453153,51.1863158 C92.1453153,51.1863158 112.763604,48.3015789 115.581982,61.4107895 C116.763423,66.9386842 116.791892,82.1723684 116.421802,97.9602632 C116.194054,108.54 115.774144,119.382632 115.404054,127.71 C115.24036,131.241316 115.090901,134.317895 114.96991,136.740789 C114.806216,140.265 114.685225,142.346842 114.685225,142.346842 L117.446667,163.548947 Z" fill="#3ABF7C"></path>
                                <path d="M117.446667,163.548947 L113.731532,162.454737 C108.343874,140.513684 111.788559,127.120263 112.621261,116.789211 C113.994865,100.106053 108.621441,87.4160526 108.265586,86.7126316 L116.322162,97.3989474 C116.322162,97.3989474 116.364865,97.605 116.428919,97.9531579 C116.201171,108.532895 115.781261,119.375526 115.411171,127.702895 C115.247477,131.234211 115.098018,134.310789 114.977027,136.733684 C114.813333,140.257895 114.692342,142.339737 114.692342,142.339737 L117.446667,163.548947 Z" fill="url(#linearGradient-14)" opacity="0.5"></path>
                                <path d="M85.1563063,143.867368 L85.1563063,146.496316 C85.1563063,147.725526 85.1563063,148.890789 85.1563063,148.890789 L93.0136036,145.686316 L114.977027,136.726579 C115.098018,134.310789 115.247477,131.234211 115.411171,127.688684 C105.667838,132.648158 85.1563063,143.419737 85.1563063,143.867368 Z" fill="url(#linearGradient-15)" opacity="0.5"></path>
                                <path d="M139.737477,114.21 C139.580901,116.760789 138.000901,118.998947 135.801712,120.313421 C124.962342,126.821842 85.5335135,150.091579 81.0283784,146.872895 C75.7972973,143.135526 131.118649,106.969737 134.243063,108.348158 C136.677117,109.421053 139.986577,110.103158 139.737477,114.21 Z" fill="#EAC59D"></path>
                                <path d="M85.5690991,141.288158 C85.5690991,141.288158 80.8504505,139.632632 76.0677477,140.478158 C72.5163063,141.103421 67.7976577,145.991842 68.246036,148.109211 C68.6944144,150.226579 70.7227928,149.658158 74.7083784,147.455526 C78.8363063,145.167632 78.3025225,149.224737 82.2596396,148.350789 C86.2167568,147.476842 86.8145946,145.387895 86.8145946,145.387895" fill="#EAC59D"></path>
                                <path d="M92.1097297,51.1934211 C82.3806306,59.9328947 68.5164865,53.6447368 67.3706306,53.0976316 C67.3706306,53.0976316 67.3706306,53.1118421 67.3563964,53.0976316 C67.3065766,53.0834211 67.2923423,53.0621053 67.2923423,53.0621053 C72.1533333,51.4207895 72.3312613,45.1326316 72.3312613,45.1326316 C64.2889189,46.8876316 57.6415315,30.24 56.3462162,26.4955263 C55.0722523,22.7368421 50.8446847,8.93131579 68.6659459,6.71447368 C86.472973,4.48342105 86.6010811,25.8986842 86.9498198,34.3184211 C87.2985586,42.7665789 92.9068468,50.4615789 92.1097297,51.1934211 Z" fill="#EAC59D"></path>
                                <path d="M87.1206306,36.585 C87.1206306,36.585 93.2627027,5.56342105 78.8505405,1.32868421 C65.6340541,-2.55789474 61.4278378,3.82973684 54.5242342,12.5834211 C47.6206306,21.3371053 39.1156757,22.4597368 39.1156757,22.4597368 C39.1156757,22.4597368 52.5741441,31.6894737 60.8015315,25.8489474 C67.819009,20.8681579 76.0748649,18.8218421 77.3986486,22.9286842 C78.7295495,27.0355263 77.3986486,31.2844737 78.9928829,31.2844737 C80.5871171,31.2844737 81.3842342,23.7244737 83.377027,25.3160526 C85.3698198,26.9076316 81.0141441,35.1284211 87.1206306,36.585 Z" fill="url(#linearGradient-16)"></path>
                                <path d="M78.879009,43.2923684 C78.879009,43.2923684 76.8363964,52.3444737 67.3706306,53.0905263 C67.3706306,53.0905263 67.3706306,53.1047368 67.3563964,53.0905263 C67.3065766,53.0763158 67.2923423,53.055 67.2923423,53.055 C72.1533333,51.4136842 72.3312613,45.1255263 72.3312613,45.1255263 C72.3312613,45.1255263 76.0606306,44.9194737 78.879009,43.2923684 Z" fill="#EAC59D" opacity="0.3"></path>
                                <path d="M109.183694,53.7584211 C109.183694,53.7584211 117.468018,55.3215789 125.282613,70.2994737 C133.097207,85.2773684 147.011171,107.751316 141.538108,116.952632 C136.065045,126.161053 100.586216,140.201053 100.586216,140.201053 L94.8,132.399474 C94.8,132.399474 124.805766,111.176053 124.805766,110.550789 C124.805766,109.925526 110.116036,87.9276316 110.116036,87.9276316 L109.183694,53.7584211 Z" fill="#3ABF7C"></path>
                                <path d="M58.887027,97.5907895 C59.435045,75.5928947 66.5094595,55.35 67.335045,53.0763158 L67.4845045,52.7778947 L67.15,52.7707895 C66.5877477,52.7565789 53.5278378,52.6002632 51.2788288,58.4763158 C48.6241441,65.4039474 44.5175676,147.171316 44.3467568,150.645789 L44.3325225,150.894474 L60.1823423,149.267368 L60.3887387,149.246053 L60.3745045,149.04 C59.5987387,137.763947 58.6236937,112.405263 58.8727928,98.3368421 C58.8656757,98.0952632 58.8727928,97.8394737 58.887027,97.5907895 Z" fill="#3ABF7C"></path>
                                <path d="M66.9364865,52.9128947 L55.0651351,78.9465789 L55.0295495,79.0247368 L56.275045,82.6057895 L54.5598198,86.2010526 L58.8514414,99.3386842 L58.887027,97.5836842 C59.435045,75.5857895 66.5094595,55.3428947 67.335045,53.0692105 L66.9364865,52.9128947 Z" fill="#27A465"></path>
                                <g transform="translate(0.000000, 112.263158)">
                                    <path d="M56.396036,42.6528947 C56.1327027,42.3189474 15.3658559,39.0931579 15.3658559,39.0931579 L0.448378378,0.198947368 C0.412792793,0.113684211 0.398558559,0.0852631579 0.398558559,0.0852631579 C-0.199279279,0.0355263158 40.29,0.895263158 40.29,0.895263158 L56.2394595,42.2265789 L56.396036,42.6528947 Z" fill="#C7D4F9"></path>
                                    <path d="M56.396036,42.6528947 C56.1327027,42.3189474 15.3658559,39.0931579 15.3658559,39.0931579 L0.448378378,0.198947368 C1.59423423,2.60052632 20.3763063,40.8978947 55.1434234,42.1697368 C55.5063964,42.1839474 55.8764865,42.2052632 56.2394595,42.2194737 L56.396036,42.6528947 Z" fill="#C7D4F9"></path>
                                    <polygon fill="#B9C8FC" points="86.2523423 40.8552632 56.3035135 42.5178947 55.3355856 40.0097368 54.2324324 37.1676316 85.9391892 35.4197368 86.1028829 38.1481579"></polygon>
                                    <polygon fill="#B9C8FC" points="40.2828829 0.895263158 41.7917117 1.02315789 57.5632432 42.4539474 56.3106306 42.5107895"></polygon>
                                    <path d="M86.2523423,40.8552632 L56.3035135,42.5178947 L55.3355856,40.0097368 C62.9651351,39.5621053 80.5657658,38.5176316 86.1028829,38.1481579 L86.2523423,40.8552632 Z" fill="#B9C8FC"></path>
                                </g>
                                <path d="M11.301982,140.819211 C11.301982,140.819211 17.3871171,139.035789 18.3052252,143.327368 C19.2233333,147.618947 14.6541441,149.558684 14.6541441,149.558684 C14.6541441,149.558684 10.7041441,144.080526 11.301982,140.819211 Z" fill="#EAC59D"></path>
                                <path d="M24.1341441,133.436842 C24.7533333,135.127895 26.376036,136.094211 27.7567568,135.589737 C29.1374775,135.085263 29.7495495,133.301842 29.1232432,131.610789 C28.5040541,129.919737 26.8813514,128.953421 25.5006306,129.457895 C24.127027,129.962368 23.514955,131.745789 24.1341441,133.436842 Z" fill="#FFFFFF"></path>
                            </g>
                        </g>
                    </g>
                    <g id="Group" transform="translate(46.000000, 211.000000)" fill="#FFFFFF" fill-rule="nonzero">
                        <path d="M16.285814,7.78571429 C13.6688372,7.71428571 10.9797674,8.45 8.80976744,10.0571429 C6.65418605,11.6428571 4.9527907,13.95 4.25348837,16.6 C3.89302326,17.9142857 3.74883721,19.3071429 3.82093023,20.6928571 C3.92906977,22.0785714 4.25348837,23.4428571 4.80139535,24.7357143 C5.8755814,27.3357143 7.93023256,29.55 10.467907,30.9285714 C12.9983721,32.35 16.0695349,32.7928571 18.9965116,32.3357143 C21.9234884,31.8214286 24.6990698,30.3214286 26.7393023,28.0714286 C28.7506977,25.8142857 30.0483721,22.8714286 30.2069767,19.7785714 C30.4304651,16.7 29.522093,13.5285714 27.6981395,10.9428571 C29.6951163,13.4 30.855814,16.5714286 30.8413953,19.7928571 C30.8918605,23.0214286 29.7383721,26.2642857 27.7125581,28.8642857 C25.657907,31.4571429 22.6948837,33.3571429 19.3930233,34.1571429 C16.0983721,34.9 12.4865116,34.6357143 9.35046512,33.15 C6.2144186,31.7071429 3.52534884,29.2 1.96093023,26.05 C1.16790698,24.4857143 0.634418605,22.7857143 0.382093023,21.0285714 C0.165813953,19.2714286 0.230697674,17.4857143 0.583953488,15.7285714 C1.26883721,12.2071429 3.28744186,8.96428571 6.07744186,6.62142857 C8.87465116,4.25 12.5586047,2.91428571 16.2930233,2.77857143 L16.2930233,7.78571429 L16.285814,7.78571429 Z" id="Path"></path>
                        <polygon id="Path" points="23.1562791 5.54285714 14.1662791 0.4 14.1662791 10.6857143"></polygon>
                    </g>
                    <g id="Group" transform="translate(544.000000, 156.000000)" fill="#FFFFFF" fill-rule="nonzero">
                        <path d="M24.1165909,8.65422222 C22.3552273,6.77688889 19.9879545,5.41866667 17.3670455,5.04177778 C14.7743182,4.65777778 11.9843182,5.09155556 9.65931818,6.47111111 C8.48977273,7.14666667 7.42590909,8.02133333 6.50295455,9.04533333 C5.60818182,10.0906667 4.8825,11.2853333 4.36113636,12.5795556 C3.29022727,15.1608889 3.16340909,18.1475556 3.95954545,20.8924444 C4.72045455,23.6586667 6.53113636,26.1048889 8.87022727,27.8328889 C11.2515909,29.5111111 14.2177273,30.3928889 17.1909091,30.2293333 C20.15,30.0444444 23.1090909,28.8782222 25.3706818,26.8088889 C27.6745455,24.7964444 29.2597727,21.9306667 29.7952273,18.8373333 C29.4640909,21.9591111 28.055,25.0026667 25.7934091,27.2568889 C23.5811364,29.568 20.5163636,31.0471111 17.3036364,31.4595556 C14.0768182,31.8506667 10.7020455,31.1182222 7.85568182,29.3831111 C5.05863636,27.6053333 2.74772727,24.9031111 1.62045455,21.6675556 C0.457954545,18.4604444 0.352272727,14.8195556 1.46545455,11.5128889 C2.00795455,9.856 2.82522727,8.28444444 3.875,6.87644444 C4.95295455,5.48977778 6.24227273,4.27377778 7.70772727,3.28533333 C10.6386364,1.28 14.2881818,0.412444444 17.8602273,0.704 C21.4463636,0.981333333 24.9268182,2.61688889 27.5970455,5.12 L24.1165909,8.65422222 Z" id="Path"></path>
                        <polygon id="Path" points="30.4222727 11.8613333 27.8013636 1.97688889 20.6290909 9.216"></polygon>
                    </g>
                    <g id="Group" transform="translate(184.000000, 12.000000)" fill="#D1D6E8" fill-rule="nonzero">
                        <path d="M23.4311111,24.2160465 C25.3084444,22.4137209 26.6666667,19.9913953 27.0435556,17.3095349 C27.4275556,14.6565116 26.9937778,11.8016279 25.6142222,9.42255814 C24.9386667,8.22581395 24.064,7.1372093 23.04,6.1927907 C21.9946667,5.2772093 20.8,4.53465116 19.5057778,4.00116279 C16.9244444,2.90534884 13.9377778,2.7755814 11.1928889,3.59023256 C8.42666667,4.36883721 5.98044444,6.22162791 4.25244444,8.61511628 C2.57422222,11.0518605 1.69244444,14.0869767 1.856,17.1293023 C2.04088889,20.1572093 3.20711111,23.1851163 5.27644444,25.4993023 C7.28888889,27.8567442 10.1546667,29.4788372 13.248,30.0267442 C10.1262222,29.687907 7.08977778,28.2460465 4.82844444,25.9318605 C2.51733333,23.6681395 1.03822222,20.532093 0.625777778,17.2446512 C0.234666667,13.9427907 0.967111111,10.4895349 2.70222222,7.57697674 C4.48,4.71488372 7.18222222,2.35023256 10.4177778,1.19674419 C13.6248889,0.00720930233 17.2657778,-0.100930233 20.5724444,1.03813953 C22.2293333,1.59325581 23.8008889,2.42953488 25.2088889,3.50372093 C26.5955556,4.60674419 27.8115556,5.92604651 28.8,7.4255814 C30.8053333,10.4246512 31.6728889,14.1590698 31.3813333,17.814186 C31.104,21.4837209 29.4684444,25.0451163 26.9653333,27.7774419 L23.4311111,24.2160465 Z" id="Path"></path>
                        <polygon id="Path" points="20.2168889 30.6683721 30.1084444 27.9865116 22.8693333 20.6474419"></polygon>
                    </g>
                    <g id="Group" transform="translate(155.000000, 357.000000)">
                        <g opacity="0.2" transform="translate(3.552632, 3.577007)" fill="url(#linearGradient-17)" fill-rule="nonzero" id="Path">
                            <path d="M2.65026316,90.5626708 C2.65026316,90.5626708 -3.62368421,74.008281 5.69842105,65.1301489 C15.0276316,56.2520168 20.6194737,54.0342723 20.6123684,45.4923788 C20.6194737,36.9504854 15.0205263,34.7327409 5.69842105,25.8546088 C-3.62368421,16.9764766 2.65026316,0.422086861 2.65026316,0.422086861 L45.1681579,0.422086861 C45.1681579,0.422086861 51.4421053,16.9764766 42.12,25.8546088 C32.7907895,34.7327409 27.1989474,36.9504854 27.2060526,45.4923788 C27.1989474,54.0342723 32.7978947,56.2520168 42.12,65.1301489 C51.4421053,74.008281 45.1681579,90.5626708 45.1681579,90.5626708 L2.65026316,90.5626708 Z"></path>
                        </g>
                        <g transform="translate(3.552632, 3.577007)" id="Path" stroke-width="0.75">
                            <g>
                                <path d="M45.1681579,0.436394891 C45.1681579,0.436394891 51.4421053,16.9907847 42.12,25.8689168 C32.7907895,34.7470489 27.1989474,36.9647934 27.2060459,45.5066869 C27.1989474,54.0485803 32.7978947,56.2663248 42.12,65.1444569 C51.4421053,74.0225891 45.1681579,90.5769788 45.1681579,90.5769788" stroke="#83C1EA"></path>
                                <path d="M2.65026316,0.436394891 C2.65026316,0.436394891 -3.62368421,16.9907847 5.69842105,25.8689168 C15.0276316,34.7470489 20.6194737,36.9647934 20.6123752,45.5066869 C20.6194737,54.0485803 15.0205263,56.2663248 5.69842105,65.1444569 C-3.62368421,74.0225891 2.65026316,90.5769788 2.65026316,90.5769788" stroke="#6D86FF"></path>
                            </g>
                            <path d="M45.1681579,0.436394891 C45.1681579,0.436394891 51.4421053,16.9907847 42.12,25.8689168 C32.7907895,34.7470489 27.1989474,36.9647934 27.2060459,45.5066869 C27.1989474,54.0485803 32.7978947,56.2663248 42.12,65.1444569 C51.4421053,74.0225891 45.1681579,90.5769788 45.1681579,90.5769788" stroke="#6D86FF"></path>
                        </g>
                        <path d="M52.6713158,4.09209635 L2.30210526,4.09209635 C1.86157895,4.09209635 1.50631579,3.73439562 1.50631579,3.29084672 L1.50631579,1.05164015 C1.50631579,0.608091241 1.86157895,0.250390511 2.30210526,0.250390511 L52.6713158,0.250390511 C53.1118421,0.250390511 53.4671053,0.608091241 53.4671053,1.05164015 L53.4671053,3.29084672 C53.4671053,3.73439562 53.1118421,4.09209635 52.6713158,4.09209635 Z" id="Path" fill="url(#linearGradient-18)" fill-rule="nonzero"></path>
                        <g id="XMLID_8_" transform="translate(0.000000, 22.892847)">
                            <g id="Group" fill-rule="nonzero">
                                <path d="M46.1842105,4.51418321 L46.1628947,4.56426131 C45.7721053,5.06504234 45.3386842,5.54436131 44.8555263,6.00221825 C43.74,7.06101241 42.6742105,8.02680438 41.6652632,8.9210562 C30.0481579,10.9527964 20.5768421,8.16988467 14.3597368,5.21527664 C35.0360526,-0.279006569 44.8484211,3.8703219 46.1842105,4.51418321 Z" id="Path" fill="url(#linearGradient-19)"></path>
                                <path d="M29.1315789,51.6019073 C29.6289474,51.7163715 32.4142105,52.417465 34.3681579,54.4277431 C39.3915789,59.6215577 46.6744737,68.8144664 48.8913158,66.4035635 C48.33,69.1936292 47.6336842,71.0894431 47.6123684,71.1395212 L7.31131579,71.1395212 C7.26868421,71.0322109 6.13184211,67.9345226 5.60605263,63.8138102 C9.59921053,68.3709175 18.6655263,57.1462686 21.1452632,54.7711358 C23.6321053,52.3816949 25.5505263,51.3586708 25.5505263,51.3586708 L25.8205263,51.3515168 L25.1242105,29.410154 L25.1242105,29.403 C25.2734211,28.5159022 25.3515789,27.5572642 25.3515789,26.5127781 C25.3515789,19.4303036 21.8131579,16.3683854 15.9513158,11.289035 C14.2034211,9.77953796 12.2352632,8.06972847 10.0610526,6.00221825 C8.33447368,4.36394891 7.18342105,2.41805693 6.45868421,0.350546715 C7.24736842,1.00156204 10.0042105,3.14776642 14.3526316,5.21527664 C20.5697368,8.16988467 30.0410526,10.9527964 41.6581579,8.9210562 C40.7060526,9.76522993 39.8036842,10.5521715 38.9581579,11.281881 C33.0963158,16.3540774 29.5578947,19.4159956 29.5578947,26.4984701 C29.5578947,27.2925657 29.6005263,28.0437372 29.6928947,28.7448307 L29.1315789,51.6019073 Z" id="Path" fill="url(#linearGradient-20)"></path>
                                <path d="M51.8542105,74.4876 L1.485,74.4876 C1.04447368,74.4876 0.689210526,74.1298993 0.689210526,73.6863504 L0.689210526,71.4471438 C0.689210526,71.0035949 1.04447368,70.6458942 1.485,70.6458942 L51.8542105,70.6458942 C52.2947368,70.6458942 52.65,71.0035949 52.65,71.4471438 L52.65,73.6863504 C52.65,74.1298993 52.2947368,74.4876 51.8542105,74.4876 Z" id="Path" fill="url(#linearGradient-21)"></path>
                            </g>
                            <g id="Group" transform="translate(4.973684, 0.000000)">
                                <path d="M2.33763158,71.1466752 L42.6386842,71.1466752 C42.66,71.0894431 43.3563158,69.2007832 43.9176316,66.4107175" id="Path"></path>
                                <path d="M24.7263158,28.7519847 C24.6410526,28.0508912 24.5913158,27.2997197 24.5913158,26.5056241 C24.5913158,19.4231496 28.1297368,16.3612314 33.9915789,11.289035 C34.8371053,10.5521715 35.7394737,9.77238394 36.6915789,8.92821022 C37.7005263,8.03395839 38.7663158,7.06816642 39.8818421,6.00937226 C40.365,5.55151533 40.7984211,5.07219635 41.1892105,4.57141533" id="Path"></path>
                                <path d="M2.33763158,71.1466752 C2.33763158,71.1466752 2.33763158,71.1466752 2.33763158,71.1466752 C2.295,71.039365 1.15815789,67.9416766 0.632368421,63.8138102" id="Path"></path>
                                <path d="M1.44947368,0.243236496 C1.46368421,0.279006569 1.47789474,0.321930657 1.49210526,0.35770073 C2.22394737,2.41805693 3.36789474,4.36394891 5.09447368,6.00937226 C7.26868421,8.07688248 9.24394737,9.78669197 10.9847368,11.2961891 C16.8465789,16.3683854 20.385,19.4303036 20.385,26.5199321 C20.385,27.5644182 20.3068421,28.5230562 20.1576316,29.410154" id="Path"></path>
                                <path d="M1.25763158,0.157388321 C1.25763158,0.157388321 1.33578947,0.228928467 1.49210526,0.35770073 C2.28078947,1.00871606 5.03763158,3.15492044 9.38605263,5.22243066 C15.6031579,8.17703869 25.0744737,10.9599504 36.6915789,8.92821022 C36.7057895,8.92821022 36.72,8.92821022 36.7413158,8.9210562" id="Path"></path>
                                <path d="M41.3739474,4.59287737 C41.3739474,4.59287737 41.3171053,4.56426131 41.2176316,4.51418321 C39.8818421,3.8703219 30.0694737,-0.279006569 9.38605263,5.21527664 C9.315,5.23673869 9.23684211,5.25104672 9.16578947,5.27250876" id="Path"></path>
                                <polyline id="Path" points="24.7405263 28.1224314 24.7263158 28.7519847 24.1578947 51.6019073 24.0797368 54.7711358"></polyline>
                                <polyline id="Path" points="20.1434211 29.0381453 20.1505263 29.403 20.1505263 29.403 20.8468421 51.3515168 20.9178947 53.6336474"></polyline>
                                <path d="M24.0797368,51.5875993 C24.0797368,51.5875993 24.1081579,51.5947533 24.1578947,51.6019073 C24.6552632,51.7163715 27.4405263,52.417465 29.3944737,54.4277431 C34.4178947,59.6215577 41.7007895,68.8144664 43.9176316,66.4035635 C44.0739474,66.2318672 44.2089474,65.9957847 44.3155263,65.688162" id="Path"></path>
                                <path d="M20.5839474,51.3586708 C20.5839474,51.3586708 18.6584211,52.3816949 16.1786842,54.7711358 C13.7060526,57.1462686 4.63263158,68.3709175 0.639473684,63.8138102 C0.611052632,63.7851942 0.589736842,63.7565781 0.568421053,63.727962" id="Path"></path>
                            </g>
                        </g>
                    </g>
                    <g id="Group" transform="translate(41.000000, 282.000000)" fill-rule="nonzero">
                        <g transform="translate(0.000000, 61.123967)" id="Path">
                            <path d="M51.6058537,53.8175207 C51.5146152,53.8175207 51.4233768,53.838843 51.3110834,53.838843 C41.8994895,53.6327273 25.3291889,4.52033058 1.45279637,7.32066116 C1.19311779,7.34198347 0.933439213,7.37752066 0.673760635,7.41305785 C0.673760635,7.41305785 23.3640537,-3.52528926 34.7969295,2.45917355 C54.1394744,12.5943802 55.6975458,53.4408264 51.6058537,53.8175207 Z" fill="url(#linearGradient-22)"></path>
                            <path d="M53.0656684,83.533719 C53.0516317,83.533719 53.037595,83.533719 53.0305767,83.533719 C52.7147514,83.5123967 52.4691095,83.2352066 52.4901645,82.9082645 C52.5392929,82.1335537 56.939792,11.1373554 18.9144262,5.84231405 C18.5986009,5.79966942 18.374014,5.50115702 18.416124,5.18132231 C18.4582341,4.8614876 18.7319493,4.61983471 19.0688296,4.67669421 C58.1539648,10.1209917 53.6903006,82.1975207 53.6411722,82.9793388 C53.6271356,83.2920661 53.3744753,83.533719 53.0656684,83.533719 Z" fill="#627AF4"></path>
                        </g>
                        <g transform="translate(61.761392, 78.181818)" id="Path">
                            <path d="M53.2621819,7.15719008 C53.2411269,7.15719008 53.2060352,7.15719008 53.1849801,7.13586777 C29.027854,3.31206612 12.2540216,52.914876 2.73715258,53.5545455 C2.58976744,53.5758678 2.4423823,53.5758678 2.30903384,53.5545455 C-1.76160333,53.1991736 -0.203531859,12.3527273 19.139013,2.21752066 C30.2771185,-3.61768595 52.1462658,6.62413223 53.2270902,7.13586777 C53.2411269,7.15719008 53.2621819,7.15719008 53.2621819,7.15719008 Z" fill="url(#linearGradient-23)"></path>
                            <path d="M0.856237474,83.2778512 C0.554448856,83.2778512 0.294770278,83.0361983 0.280733598,82.7305785 C0.231605218,81.9487603 -4.23205899,9.8722314 34.8530762,4.42793388 C35.1899565,4.37107438 35.4636718,4.60561983 35.5057818,4.93256198 C35.5478919,5.25239669 35.3303233,5.55090909 35.0074797,5.59355372 C-3.01788618,10.888595 1.38261297,81.8847934 1.43174135,82.6595041 C1.45279637,82.9793388 1.20715447,83.2636364 0.891329174,83.2849587 C0.884310834,83.2778512 0.870274154,83.2778512 0.856237474,83.2778512 Z" fill="#627AF4"></path>
                        </g>
                        <g transform="translate(13.334846, 0.000000)" id="Path">
                            <path d="M41.3029306,81.9132231 L41.3029306,81.991405 C41.2818756,82.1406612 41.2678389,82.218843 41.2678389,82.218843 C41.2678389,82.218843 28.5295519,71.9343802 22.7113481,44.6133884 C15.1245226,9.09752066 1.38261297,1.84793388 1.38261297,1.84793388 L0.617613916,1.44991736 C0.877292494,1.39305785 1.12293439,1.35752066 1.38261297,1.31487603 C19.7215353,-2.1322314 33.61083,6.88710744 38.8886217,28.4723967 C44.7629722,52.4031405 41.6959576,78.8641322 41.3029306,81.9132231 Z" fill="url(#linearGradient-24)"></path>
                            <path d="M43.7733863,157.927273 L43.7733863,157.927273 C43.4505426,157.927273 43.1908641,157.664298 43.1908641,157.344463 L43.2049007,156.925124 C43.6400378,142.660496 46.5035205,22.6869421 13.3769559,7.95322314 C13.0821857,7.82528926 12.9488372,7.47702479 13.0821857,7.1785124 C13.2085158,6.88 13.5524144,6.75206612 13.8471847,6.88 C46.9597126,21.613719 45.0787975,133.562975 44.3629268,156.960661 L44.3559085,157.344463 C44.3559085,157.671405 44.0962299,157.927273 43.7733863,157.927273 Z" fill="#627AF4"></path>
                        </g>
                        <g transform="translate(57.550388, 16.347107)" id="Path">
                            <path d="M44.6927888,1.3077686 L43.9137531,1.68446281 C43.9137531,1.68446281 30.1928985,8.93404959 22.606073,44.4712397 C16.9001626,71.1383471 4.63912271,81.5720661 4.06361883,82.041157 C4.04256381,82.0624793 4.04256381,82.0624793 4.04256381,82.0624793 C4.04256381,82.0624793 0.175458499,53.774876 6.40774438,28.3160331 C11.7627378,6.48909091 25.9327661,-2.47338843 44.5875137,1.29355372 C44.6226054,1.29355372 44.6576971,1.3077686 44.6927888,1.3077686 Z" fill="url(#linearGradient-25)"></path>
                            <path d="M1.27031953,142.973223 C0.954494233,142.973223 0.694815655,142.710248 0.687797315,142.390413 C0.449173757,104.159504 2.98279448,19.4104132 31.4561997,6.74495868 C31.7509699,6.61702479 32.0948686,6.74495868 32.2211987,7.04347107 C32.3545472,7.34198347 32.2141804,7.69024793 31.9264284,7.81818182 C4.07765551,20.2064463 1.61421819,104.39405 1.85284175,142.383306 C1.85284175,142.70314 1.59316317,142.966116 1.27031953,142.973223 C1.27031953,142.973223 1.27031953,142.973223 1.27031953,142.973223 Z" fill="#627AF4"></path>
                        </g>
                        <path d="M83.6165022,132.091736 L31.3649612,132.091736 C31.2386311,132.091736 31.1403744,131.992231 31.1403744,131.864298 L31.1403744,124.536529 C31.1403744,124.408595 31.2386311,124.309091 31.3649612,124.309091 L83.6165022,124.309091 C83.7428323,124.309091 83.8410891,124.408595 83.8410891,124.536529 L83.8410891,131.864298 C83.8410891,131.992231 83.7428323,132.091736 83.6165022,132.091736 Z" id="Path" fill="url(#linearGradient-26)"></path>
                        <path d="M80.6758177,131.409421 L34.3056457,131.409421 L36.5094044,152.298182 C37.6533938,163.158347 46.7070524,171.395868 57.4872225,171.395868 L57.4872225,171.395868 C68.274411,171.395868 77.3210512,163.158347 78.4650407,152.298182 L80.6758177,131.409421 Z" id="Path" fill="url(#linearGradient-27)"></path>
                    </g>
                    <g id="Group" transform="translate(250.000000, 0.000000)" stroke="#D1D6E8">
                        <circle id="Oval" stroke-width="1.00001236" transform="translate(37.773503, 38.115886) rotate(-76.602990) translate(-37.773503, -38.115886) " cx="37.7735031" cy="38.1158859" r="31.258905"></circle>
                        <line x1="37.7466667" y1="69.3711111" x2="37.7466667" y2="6.84703704" id="Path"></line>
                        <path d="M37.5144444,6.68518519 C37.5144444,6.68518519 21.8640741,19.4785185 21.8640741,38.0633333 C21.8640741,56.6481481 36.8037037,69.4414815 36.8037037,69.4414815" id="Path"></path>
                        <path d="M37.7959259,6.68518519 C37.7959259,6.68518519 53.4462963,19.4785185 53.4462963,38.0633333 C53.4462963,56.6481481 38.5066667,69.4414815 38.5066667,69.4414815" id="Path"></path>
                        <line x1="6.48814815" y1="38.1125926" x2="69.0051852" y2="38.1125926" id="Path"></line>
                        <g transform="translate(11.259259, 20.407407)" id="Path">
                            <line x1="0.351851852" y1="0.598148148" x2="52.63" y2="0.598148148"></line>
                            <line x1="0.38" y1="34.7137037" x2="52.6018519" y2="34.7137037"></line>
                        </g>
                    </g>
                    <g id="Group" transform="translate(44.000000, 69.000000)" fill-rule="nonzero">
                        <g>
                            <g id="Path">
                                <path d="M174.445122,3.2508642 L174.445122,112.204938 C174.445122,113.937778 173.057927,115.334074 171.336382,115.334074 L3.34349593,115.334074 C1.62195122,115.334074 0.227642276,113.937778 0.227642276,112.204938 L0.227642276,3.2508642 C0.227642276,1.51802469 1.62195122,0.114567901 3.34349593,0.114567901 L171.343496,0.114567901 C172.047764,0.114567901 172.695122,0.350864198 173.214431,0.751851852 C173.961382,1.31753086 174.445122,2.22691358 174.445122,3.2508642 Z" fill="url(#linearGradient-28)"></path>
                                <path d="M170.888211,6.22246914 L170.888211,112.52716 L3.79878049,112.52716 C3.79878049,112.52716 3.79166667,112.52716 3.79166667,112.52 L3.79166667,3.2508642 C3.79166667,3.2508642 3.79166667,3.2437037 3.79878049,3.2437037 L167.90752,3.2437037 C168.583333,3.2437037 169.202236,3.46567901 169.700203,3.84518519 C170.418699,4.38938272 170.888211,5.24864198 170.888211,6.22246914 Z" fill="#FFFFFF"></path>
                                <path d="M174.452236,9.17259259 L0.234756098,9.17259259 L0.234756098,3.88814815 C0.234756098,1.80444444 1.91361789,0.114567901 3.98373984,0.114567901 L170.710366,0.114567901 C172.780488,0.114567901 174.45935,1.80444444 174.45935,3.88814815 L174.45935,9.17259259 L174.452236,9.17259259 Z" fill="url(#linearGradient-29)"></path>
                            </g>
                            <g transform="translate(139.430894, 2.864198)" fill="#F9FBFC">
                                <ellipse id="Oval" cx="2.0203252" cy="1.48222222" rx="1.40853659" ry="1.41777778"></ellipse>
                                <path d="M13.3313008,1.48222222 C13.3313008,2.26271605 12.6981707,2.9 11.9227642,2.9 C11.1473577,2.9 10.5142276,2.26271605 10.5142276,1.48222222 C10.5142276,0.701728395 11.1473577,0.0644444444 11.9227642,0.0644444444 C12.6981707,0.0572839506 13.3313008,0.694567901 13.3313008,1.48222222 Z" id="Path"></path>
                                <ellipse id="Oval" cx="21.8180894" cy="1.48222222" rx="1.40853659" ry="1.41777778"></ellipse>
                            </g>
                        </g>
                        <g transform="translate(31.300813, 21.481481)">
                            <path d="M84.2134146,19.5123457 C84.2134146,19.5123457 84.2134146,19.5123457 84.2134146,19.5123457 C84.2560976,18.9753086 84.2916667,18.4382716 84.2916667,17.8940741 C84.2916667,8.3491358 76.601626,0.608641975 67.1189024,0.608641975 C59.4288618,0.608641975 52.9268293,5.69259259 50.7357724,12.702716 C50.3373984,12.6669136 49.9319106,12.6382716 49.5264228,12.6382716 C46.4674797,12.6382716 43.6575203,13.7266667 41.4664634,15.5382716 C38.9623984,14.1061728 36.074187,13.2683951 32.9867886,13.2683951 C24.777439,13.2683951 17.9268293,19.0683951 16.226626,26.8088889 C16.2195122,26.8088889 16.2195122,26.8017284 16.2123984,26.8017284 C15.1595528,26.5081481 14.0497967,26.3577778 12.9115854,26.3577778 C5.8902439,26.3577778 0.206300813,32.0790123 0.206300813,39.1464198 C0.206300813,43.3997531 2.2550813,47.1590123 5.42073171,49.4861728 L10.2723577,49.4861728 L20.4166667,49.4861728 L21.0426829,49.4861728 L43.2662602,49.4861728 L54.804878,49.4861728 L64.671748,49.4861728 L72.2550813,49.4861728 L86.945122,49.4861728 L95.5101626,49.4861728 C98.9247967,46.3355556 101.058943,41.8101235 101.058943,36.7762963 C101.044715,27.3530864 93.5396341,19.6841975 84.2134146,19.5123457 Z" id="Path" fill="url(#linearGradient-30)"></path>
                            <g transform="translate(40.548780, 52.987654)">
                                <rect id="Rectangle" fill="url(#linearGradient-31)" x="6.13922764" y="0.229135802" width="7.875" height="14.0130864"></rect>
                                <polygon id="Path" fill="url(#linearGradient-32)" points="10.0731707 22.2762963 0.320121951 9.45901235 19.8262195 9.45901235"></polygon>
                            </g>
                        </g>
                    </g>
                </g>
            </g>
        </g>
    </g>
</svg>