<svg width="24" height="24" viewBox="0 0 24 24" fill="none" xmlns="http://www.w3.org/2000/svg">
<g id="amazon_1">
<path id="Shape" fill-rule="evenodd" clip-rule="evenodd" d="M5.33959 12.5851C5.24668 13.6042 5.60227 14.6133 6.31357 15.349C7.02488 16.0847 8.02137 16.4741 9.04305 16.4157C10.6165 16.51 12.1383 15.8375 13.1279 14.6106C13.5098 15.225 13.9876 15.7743 14.5431 16.2377C14.7368 16.3324 14.9664 16.3162 15.1449 16.1953C15.6618 15.7631 16.5686 14.9919 17.0347 14.5597C17.2193 14.3911 17.238 14.1069 17.0771 13.9156C16.4703 13.312 16.1288 12.4918 16.1279 11.6359V7.76297C16.1279 7.61922 16.1289 7.47645 16.1299 7.33486V7.33466C16.14 5.86528 16.1492 4.52272 15.0516 3.52561C13.9947 2.6813 12.6752 2.23445 11.3228 2.26287C8.55999 2.26287 6.27181 3.39001 5.7718 6.06802C5.73858 6.18349 5.75809 6.30773 5.82511 6.40744C5.89213 6.50716 5.99981 6.57215 6.11927 6.58498L8.52609 6.8816C8.75835 6.83479 8.93335 6.64263 8.9583 6.40701C9.17413 5.47823 10.0228 4.83635 10.9753 4.88156C11.5118 4.86544 12.0242 5.10435 12.3567 5.52564C12.6609 6.19959 12.7667 6.94628 12.6618 7.67822C8.80576 7.97484 5.33959 8.61044 5.33959 12.5851ZM12.1787 12.8054C11.3312 14.4411 8.94983 14.4495 8.94983 12.1614C8.90133 11.0352 9.68908 10.0451 10.7973 9.83928C11.4051 9.71534 12.0246 9.6585 12.6448 9.66978V10.1867C12.7526 11.0866 12.5904 11.9981 12.1787 12.8054ZM16.9839 16.0682C17.8822 15.5089 19.9246 16.0767 20.3229 16.1953C20.3314 16.2 20.3621 16.2097 20.4097 16.2247C20.7911 16.345 22.2533 16.8062 21.967 17.7631C21.8145 18.2716 21.0009 20.8395 19.5432 21.6107C19.1308 21.8152 18.6306 21.6531 18.4165 21.2456C18.2024 20.8381 18.3527 20.3342 18.7551 20.1106C19.0689 19.893 19.3249 19.6021 19.5009 19.2632C17.0749 20.3315 14.4565 20.8939 11.8058 20.9157C8.44919 20.9517 5.15748 19.9901 2.34801 18.153C2.10428 17.9728 1.97517 17.6763 2.00932 17.3752C2.04347 17.074 2.23569 16.814 2.51357 16.693C2.79145 16.572 3.11277 16.6084 3.35651 16.7886C3.64465 17.0089 10.1193 21.5768 19.0602 17.636C18.6543 17.528 18.2318 17.4964 17.8144 17.5428C17.4197 17.766 16.9193 17.639 16.6788 17.2547C16.5567 17.0582 16.5202 16.8203 16.5778 16.5962C16.6354 16.3722 16.7821 16.1814 16.9839 16.0682Z" fill="#5A5A5A"/>
</g>
</svg>
