<svg width="24" height="24" viewBox="0 0 24 24" fill="none" xmlns="http://www.w3.org/2000/svg">
<g id="apple">
<path id="Shape" fill-rule="evenodd" clip-rule="evenodd" d="M15.6959 2.47893C15.6429 3.46846 15.2696 4.41393 14.6323 5.17274C13.9978 5.93515 13.0971 6.4276 12.1128 6.55017C11.9883 6.56272 11.8645 6.52117 11.7727 6.4361C11.681 6.35103 11.6302 6.23063 11.6333 6.10555C11.6998 5.13781 12.0827 4.21879 12.7231 3.4902C13.3678 2.76122 14.2243 2.25216 15.1728 2.03431C15.3041 2.0074 15.4405 2.04239 15.5426 2.1292C15.6448 2.21602 15.7013 2.34499 15.6959 2.47893ZM18.5728 9.74962C17.5073 10.5436 16.8801 11.7947 16.8815 13.1234C16.8786 14.6729 17.7392 16.0949 19.1133 16.8111C19.3024 16.9144 19.3876 17.1404 19.3138 17.3429C19.0127 18.1649 18.6116 18.9466 18.1194 19.6705C17.3174 20.8213 16.4369 21.9721 15.1641 21.9982C14.5416 22.011 14.1256 21.832 13.6927 21.6457C13.2403 21.451 12.7696 21.2485 12.0257 21.2485C11.2555 21.2485 10.7806 21.4534 10.3182 21.6529C9.90645 21.8305 9.50469 22.0038 8.91338 22.0244C7.65801 22.068 6.70776 20.769 5.91443 19.6182C4.32778 17.2295 3.08113 12.9578 4.75496 10.046C5.54862 8.60588 7.04316 7.69127 8.68671 7.6399C9.37094 7.6399 10.0552 7.91389 10.6565 8.15466C11.1277 8.34337 11.548 8.51168 11.8774 8.51168C12.1701 8.51168 12.5624 8.35757 13.0197 8.17797C13.7337 7.8975 14.6059 7.55486 15.5041 7.6399C16.7033 7.69649 17.8301 8.23008 18.6338 9.12193C18.7116 9.21214 18.7491 9.33026 18.7376 9.44883C18.7261 9.56741 18.6665 9.67609 18.5728 9.74962Z" fill="#5A5A5A"/>
</g>
</svg>
