<svg width="24" height="24" viewBox="0 0 24 24" fill="none" xmlns="http://www.w3.org/2000/svg">
<g id="facebook_1">
<path id="Shape" fill-rule="evenodd" clip-rule="evenodd" d="M18.2917 14.1333C18.2662 14.3437 18.0869 14.5015 17.875 14.5H16.1667C15.9365 14.5 15.75 14.6865 15.75 14.9167V21.5833C15.75 21.8135 15.9365 22 16.1667 22H21.1667C21.6269 22 22 21.6269 22 21.1667V2.83333C22 2.3731 21.6269 2 21.1667 2H2.83333C2.3731 2 2 2.3731 2 2.83333V21.1667C2 21.6269 2.3731 22 2.83333 22H12C12.2301 22 12.4167 21.8135 12.4167 21.5833V14.9167C12.4167 14.6865 12.2301 14.5 12 14.5H10.3333C10.1032 14.5 9.91667 14.3135 9.91667 14.0833V11.5833C9.91667 11.3532 10.1032 11.1667 10.3333 11.1667H12C12.2301 11.1667 12.4167 10.9801 12.4167 10.75V9.65833C12.4167 7.03958 14.5396 4.91667 17.1583 4.91667H18.25C18.3605 4.91667 18.4665 4.96057 18.5446 5.03871C18.6228 5.11685 18.6667 5.22283 18.6667 5.33333V7.83333C18.6667 8.06345 18.4801 8.25 18.25 8.25H17.1583C16.3805 8.25 15.75 8.88053 15.75 9.65833V10.75C15.75 10.9801 15.9365 11.1667 16.1667 11.1667H18.1917C18.3114 11.1658 18.4257 11.2165 18.5055 11.3058C18.5852 11.3951 18.6227 11.5145 18.6083 11.6333L18.2917 14.1333Z" fill="#5A5A5A"/>
</g>
</svg>
