<svg width="24" height="24" viewBox="0 0 24 24" fill="none" xmlns="http://www.w3.org/2000/svg">
<g id="facebook">
<path id="Shape" fill-rule="evenodd" clip-rule="evenodd" d="M17.116 7.975C17.038 7.88617 16.9259 7.83467 16.8077 7.83333H13.666V6.65833C13.666 6.425 13.716 6.15833 14.091 6.15833H16.591C16.7022 6.16307 16.8095 6.11709 16.8827 6.03333C16.9561 5.95714 16.9979 5.85583 16.9993 5.75V2.41667C16.9993 2.18655 16.8128 2 16.5827 2H12.9743C8.97435 2 8.66602 5.41667 8.66602 6.45833V7.83333H6.58268C6.35256 7.83333 6.16602 8.01988 6.16602 8.25V11.5833C6.16602 11.8135 6.35256 12 6.58268 12H8.66602V21.5833C8.66602 21.8135 8.85256 22 9.08268 22H13.2493C13.4795 22 13.666 21.8135 13.666 21.5833V12H16.4577C16.6725 12.0011 16.8529 11.8387 16.8743 11.625L17.2243 8.29167C17.2341 8.17561 17.1948 8.06078 17.116 7.975Z" fill="#5A5A5A"/>
</g>
</svg>
