<svg width="24" height="24" viewBox="0 0 24 24" fill="none" xmlns="http://www.w3.org/2000/svg">
<g id="github_1">
<path id="Shape" fill-rule="evenodd" clip-rule="evenodd" d="M12.4001 1.99559C7.56371 1.99409 3.44424 5.65606 2.68524 10.6315C1.92623 15.607 4.75303 20.4188 9.35162 21.979H9.58927C9.82381 21.9942 10.0533 21.9037 10.2195 21.7306C10.3856 21.5575 10.4725 21.3185 10.4579 21.0742V20.8949C10.4579 20.7498 10.4579 20.5535 10.4579 19.9645C10.4417 19.8515 10.3826 19.75 10.294 19.6828C10.1976 19.6015 10.0711 19.5701 9.94984 19.5974C7.75363 20.0925 7.28652 18.6584 7.25374 18.5645C6.97873 17.8057 6.48673 17.1532 5.84423 16.6951C5.80574 16.6604 5.76463 16.629 5.72131 16.6012C5.81654 16.5478 5.92547 16.5269 6.03271 16.5414C6.45167 16.6021 6.80938 16.8872 6.97512 17.2926C7.634 18.4876 9.08262 18.9252 10.253 18.2828C10.3757 18.227 10.4644 18.1122 10.4907 17.9755C10.5221 17.5806 10.6843 17.2095 10.9496 16.9255C11.0699 16.8143 11.1165 16.6399 11.0689 16.4799C11.0212 16.3198 10.888 16.2037 10.7283 16.1829C8.78618 15.9524 6.80303 15.2439 6.80303 11.7526C6.78666 10.8758 7.09476 10.026 7.66348 9.37947C7.77043 9.25643 7.79919 9.07996 7.73724 8.92705C7.50949 8.26423 7.51239 7.53916 7.74543 6.87834C8.50249 7.01813 9.21307 7.35591 9.81053 7.86001C9.91052 7.93353 10.0372 7.95553 10.1547 7.91977C10.8867 7.71292 11.6416 7.60674 12.4001 7.60392C13.1614 7.60459 13.9193 7.7108 14.6537 7.91977C14.7686 7.95281 14.8917 7.93091 14.9897 7.86001C15.5881 7.3575 16.2982 7.01991 17.0548 6.87834C17.2778 7.53562 17.2778 8.2527 17.0548 8.90997C16.9928 9.06289 17.0216 9.23936 17.1285 9.3624C17.6914 10.0025 17.999 10.8419 17.989 11.7099C17.989 15.2012 15.9976 15.9012 14.0473 16.1317C13.8837 16.1494 13.7462 16.2673 13.698 16.431C13.6497 16.5947 13.7002 16.7726 13.826 16.8829C14.1934 17.2778 14.3761 17.8207 14.3259 18.3682V21.0827C14.3177 21.3529 14.4259 21.6128 14.6209 21.7912C14.8696 21.9852 15.1917 22.0453 15.4895 21.9534C20.056 20.3621 22.8446 15.5603 22.078 10.6084C21.3115 5.65645 17.2153 2.01111 12.4001 1.99559Z" fill="#5A5A5A"/>
</g>
</svg>
