<svg width="24" height="24" viewBox="0 0 24 24" fill="none" xmlns="http://www.w3.org/2000/svg">
<g id="google">
<path id="Shape" fill-rule="evenodd" clip-rule="evenodd" d="M7.64833 8.2578C7.50192 8.41494 7.25417 8.43599 7.08145 8.30598L4.49711 6.29851C4.39852 6.23447 4.33303 6.13291 4.3171 6.01941C4.30118 5.9059 4.33634 5.79125 4.41374 5.7043C6.26312 3.63465 8.93731 2.41798 11.7716 2.35674C14.6058 2.29549 17.334 3.39542 19.2778 5.3831C19.3568 5.45849 19.4011 5.56111 19.4011 5.66816C19.4011 5.77522 19.3568 5.87784 19.2778 5.95322L16.8436 8.15341C16.7653 8.22942 16.6588 8.27217 16.5476 8.27217C16.4365 8.27217 16.3299 8.22942 16.2517 8.15341C15.1312 7.00529 13.5619 6.36289 11.9262 6.38274C10.2904 6.40258 8.73839 7.08286 7.64833 8.2578ZM6.48121 13.8145C6.53371 13.9661 6.48787 14.1332 6.3645 14.2401L3.76349 16.4964C3.66771 16.5802 3.53698 16.6164 3.40964 16.5944C3.2823 16.5724 3.17279 16.4947 3.11324 16.384C1.67944 13.7106 1.63313 10.5435 2.98819 7.83221C3.04397 7.72324 3.14797 7.64445 3.27107 7.61793C3.39417 7.59141 3.52311 7.62001 3.62177 7.69571L6.34783 9.7915C6.4841 9.89717 6.53738 10.0736 6.48121 10.2331C6.06899 11.3939 6.06899 12.6537 6.48121 13.8145ZM22.0039 10.7952C22.0039 10.5735 21.8173 10.3937 21.5871 10.3937H13.2505C13.0203 10.3937 12.8337 10.5735 12.8337 10.7952V14.0072C12.8337 14.2289 13.0203 14.4087 13.2505 14.4087H17.2854C17.0399 14.8989 16.7195 15.3509 16.335 15.7497C16.1919 15.9025 16.1919 16.1349 16.335 16.2877L18.5609 18.6966C18.6397 18.7777 18.7499 18.8237 18.8652 18.8237C18.9805 18.8237 19.0907 18.7777 19.1695 18.6966C20.8657 17.0247 21.8731 14.8158 22.0039 12.4815V10.7952ZM14.451 17.0907C14.6167 17.0175 14.8125 17.0565 14.9345 17.187L17.2187 19.7004C17.3006 19.79 17.3368 19.9102 17.3174 20.0281C17.2981 20.1461 17.2253 20.2496 17.1187 20.3106C13.0336 22.6438 7.80842 21.8889 4.61382 18.5039C4.53491 18.4285 4.49053 18.3259 4.49053 18.2189C4.49053 18.1118 4.53491 18.0092 4.61382 17.9338L7.11479 15.7818C7.27687 15.6288 7.53627 15.6288 7.69835 15.7818C9.40359 17.6041 12.1467 18.1358 14.451 17.0907Z" fill="#5A5A5A"/>
</g>
</svg>
