<svg width="24" height="24" viewBox="0 0 24 24" fill="none" xmlns="http://www.w3.org/2000/svg">
<g id="linkedin">
<path id="Shape" fill-rule="evenodd" clip-rule="evenodd" d="M7.20037 4.38095C7.20037 5.69592 6.14291 6.7619 4.83847 6.7619C3.53402 6.7619 2.47656 5.69592 2.47656 4.38095C2.47656 3.06599 3.53402 2 4.83847 2C6.14291 2 7.20037 3.06599 7.20037 4.38095ZM2.47656 9.23809C2.47656 8.9225 2.7324 8.66667 3.04799 8.66667H6.66704C6.98263 8.66667 7.23847 8.9225 7.23847 9.2381V21.4286C7.23847 21.7442 6.98263 22 6.66704 22H3.04799C2.7324 22 2.47656 21.7442 2.47656 21.4286V9.23809ZM21.048 22H18.1908C17.9279 22 17.7147 21.7868 17.7147 21.5238V14.381C17.7147 13.066 16.6487 12 15.3337 12C14.0187 12 12.9528 13.066 12.9528 14.381V21.5238C12.9528 21.7868 12.7396 22 12.4766 22H9.61942C9.35643 22 9.14323 21.7868 9.14323 21.5238V9.14286C9.14323 8.87986 9.35643 8.66667 9.61942 8.66667H12.4766C12.7396 8.66667 12.9528 8.87986 12.9528 9.14286C12.9521 9.30621 13.0532 9.45271 13.2061 9.51007C13.3591 9.56742 13.5316 9.52351 13.6385 9.4C14.4288 8.58845 15.5255 8.14907 16.6575 8.19048C19.4956 8.19048 21.5242 9.93333 21.5242 13.5238V21.5238C21.5242 21.7868 21.311 22 21.048 22Z" fill="#5A5A5A"/>
</g>
</svg>
