<svg width="24" height="24" viewBox="0 0 24 24" fill="none" xmlns="http://www.w3.org/2000/svg">
<g id="pinterest">
<path id="Shape" fill-rule="evenodd" clip-rule="evenodd" d="M7.45481 21.6712C7.47554 21.8186 7.5819 21.9397 7.72546 21.9792H7.82812C7.96369 21.9748 8.08882 21.9053 8.1641 21.7925C9.06335 20.6805 9.75562 19.4161 10.208 18.0594C10.292 17.7514 10.5719 16.6409 10.7773 15.8476C10.7974 15.7708 10.8553 15.7095 10.9308 15.685C11.0063 15.6605 11.0891 15.676 11.1506 15.7262C11.8242 16.2554 12.6552 16.5444 13.5117 16.5475C17.1515 16.5475 19.7927 13.2157 19.7927 8.63339C19.7927 5.35761 17.0488 1.97917 12.4571 1.97917C7.33349 2.00716 4.20703 5.68425 4.20703 9.20268C4.20703 11.3959 5.1403 13.0758 6.6522 13.7011C6.82492 13.786 7.02745 13.7854 7.19963 13.6993C7.37181 13.6132 7.49384 13.4516 7.52948 13.2624L7.75346 12.3291C7.86491 12.0336 7.78335 11.7 7.54814 11.4892C7.07641 10.9118 6.83387 10.1809 6.86685 9.436C6.85829 8.04425 7.41833 6.70934 8.41733 5.7403C9.41632 4.77125 10.7677 4.2521 12.1585 4.30301C14.893 4.30301 16.5915 5.86157 16.5915 8.37207C16.5915 11.6385 15.1636 14.1024 13.2691 14.1024C12.7908 14.128 12.3258 13.94 11.9998 13.5891C11.7157 13.2244 11.6189 12.7477 11.7385 12.3011C11.8599 11.7972 12.0185 11.2745 12.1772 10.7612C12.4686 9.9587 12.6507 9.12056 12.7185 8.26941C12.7612 7.78214 12.594 7.29979 12.259 6.94339C11.924 6.58699 11.4529 6.39037 10.9639 6.40287C9.62 6.40287 8.57474 7.73745 8.57474 9.492C8.57402 10.0622 8.67515 10.6279 8.87339 11.1626C8.90012 11.2508 8.90012 11.345 8.87339 11.4332L7.49215 17.3221C7.2254 18.7585 7.21276 20.2305 7.45481 21.6712Z" fill="#5A5A5A"/>
</g>
</svg>
