<svg width="24" height="24" viewBox="0 0 24 24" fill="none" xmlns="http://www.w3.org/2000/svg">
<g id="skype">
<path id="Shape" fill-rule="evenodd" clip-rule="evenodd" d="M11.9994 21.4162C12.4807 21.4165 12.9613 21.38 13.437 21.307C13.5335 21.2915 13.6324 21.3074 13.719 21.3525C15.476 22.2804 17.5911 22.2172 19.2896 21.1862C20.988 20.1552 22.0201 18.3079 22.0077 16.3211C22.0093 15.3677 21.7715 14.4292 21.3162 13.5915C21.268 13.5059 21.2489 13.4069 21.2616 13.3095C21.6397 10.6217 20.8384 7.90153 19.0637 5.84785C17.2889 3.79417 14.7137 2.60708 11.9994 2.59154C11.5303 2.59298 11.062 2.62948 10.5983 2.70072C10.5018 2.71624 10.4029 2.70029 10.3162 2.65523C8.1071 1.50002 5.40282 1.92106 3.64947 3.69322C1.89612 5.46538 1.50395 8.174 2.68267 10.3707C2.72772 10.4574 2.74367 10.5563 2.72816 10.6527C2.3323 13.3499 3.12699 16.086 4.9061 18.1514C6.6852 20.2169 9.27342 21.4081 11.9994 21.4162ZM12.0904 5.63041C14.9655 5.80328 16.6396 7.06796 16.8125 8.25985C16.8647 8.62798 16.7448 8.99967 16.4872 9.26785C16.2297 9.53604 15.8632 9.67094 15.4932 9.63372C14.1922 9.63372 14.0557 7.89592 11.8539 7.89592C10.8439 7.89592 10.0342 8.31444 10.0342 9.23338C10.0342 11.1441 17.2128 10.034 17.2128 14.2466C17.2128 16.6759 15.2749 18.2681 12.3907 18.2681C9.85222 18.2681 7.29556 17.1126 7.31376 15.1201C7.29377 14.5504 7.70516 14.0567 8.26909 13.9737C9.76123 13.9737 9.75213 16.2028 12.1359 16.2028C13.81 16.2028 14.3741 15.2929 14.3741 14.6469C14.3741 12.345 7.15909 13.7371 7.15909 9.42445C7.15909 7.08616 9.07885 5.46664 12.0904 5.63041Z" fill="#5A5A5A"/>
</g>
</svg>
