<svg width="24" height="24" viewBox="0 0 24 24" fill="none" xmlns="http://www.w3.org/2000/svg">
<g id="twitter">
<path id="Shape" fill-rule="evenodd" clip-rule="evenodd" d="M21.7989 7.18749C21.9245 7.08311 21.9806 6.91693 21.9441 6.75778C21.9075 6.59864 21.7844 6.47364 21.6259 6.43458L20.9422 6.2615C20.8163 6.22999 20.7112 6.14364 20.6559 6.02626C20.6005 5.90889 20.6008 5.77287 20.6566 5.65571L21.0374 4.8855C21.1108 4.73308 21.0887 4.55184 20.9808 4.42156C20.8728 4.29128 20.6989 4.23586 20.5354 4.27971L18.8046 4.76434C18.6739 4.80248 18.5328 4.77683 18.4238 4.69511C17.6748 4.13336 16.7639 3.8297 15.8276 3.8297C13.4378 3.8297 11.5006 5.76698 11.5006 8.15675V8.4683C11.5014 8.57834 11.4194 8.67145 11.3102 8.68465C8.87836 8.97024 6.55041 7.7327 4.04072 4.84223C3.92957 4.71964 3.75918 4.66953 3.59936 4.71242C3.45551 4.77854 3.35925 4.91794 3.34839 5.07589C3.00176 6.49978 3.1419 7.99875 3.74648 9.33371C3.78295 9.40589 3.77611 9.49238 3.72876 9.55794C3.68142 9.6235 3.60146 9.65718 3.52147 9.64526L2.55221 9.45487C2.41251 9.43241 2.27064 9.47967 2.17233 9.58144C2.07401 9.6832 2.03166 9.82661 2.05893 9.96546C2.21028 11.3108 2.96492 12.5144 4.10995 13.2367C4.18459 13.2729 4.232 13.3485 4.232 13.4314C4.232 13.5144 4.18459 13.59 4.10995 13.6261L3.65128 13.8079C3.53866 13.853 3.45017 13.9434 3.40739 14.0569C3.3646 14.1705 3.37146 14.2968 3.42628 14.405C3.94114 15.5316 4.97616 16.3338 6.19559 16.5512C6.28116 16.5823 6.33813 16.6636 6.33813 16.7546C6.33813 16.8456 6.28116 16.9269 6.19559 16.958C5.01895 17.4446 3.75623 17.6889 2.48298 17.6763C2.244 17.6285 2.01153 17.7835 1.96373 18.0224C1.91594 18.2614 2.07092 18.4939 2.3099 18.5417C4.51457 19.5873 6.91491 20.1564 9.35434 20.2119C11.5001 20.2446 13.6076 19.6425 15.4122 18.4811C18.4271 16.4686 20.2336 13.0798 20.2239 9.45487V8.70196C20.225 8.57477 20.2819 8.4545 20.3797 8.3731L21.7989 7.18749Z" fill="#5A5A5A"/>
</g>
</svg>
