<svg width="24" height="24" viewBox="0 0 24 24" fill="none" xmlns="http://www.w3.org/2000/svg">
<g id="whatsapp">
<path id="Shape" fill-rule="evenodd" clip-rule="evenodd" d="M12 2.075C6.50632 2.07484 2.04121 6.50646 2.00001 12C1.9979 14.0195 2.62085 15.9902 3.78334 17.6417L2.65834 20.975C2.60884 21.1242 2.64751 21.2885 2.75834 21.4C2.86899 21.5121 3.03254 21.5538 3.18334 21.5083L6.68334 20.4C9.75468 22.3281 13.6292 22.4424 16.8088 20.6986C19.9884 18.9548 21.9748 15.6263 22 12C21.9588 6.50646 17.4937 2.07484 12 2.075ZM18 16.0083C17.4313 17.0899 16.3052 17.7623 15.0833 17.75C14.0849 17.6361 13.1129 17.3543 12.2083 16.9167C10.1781 15.9873 8.45726 14.4949 7.25001 12.6167C5.65834 10.5083 5.58334 8.53333 7.11667 6.9C7.53098 6.50897 8.10534 6.33604 8.66667 6.43333C9.10512 6.48544 9.48599 6.75929 9.675 7.15833L9.99167 7.925C10.225 8.48333 10.475 9.08333 10.5167 9.18333C10.6502 9.44505 10.6502 9.75494 10.5167 10.0167C10.304 10.4407 10.0224 10.8265 9.68334 11.1583C10.1114 11.8099 10.6118 12.4109 11.175 12.95C11.8473 13.5333 12.6175 13.9932 13.45 14.3083C13.6833 14.0083 14.1417 13.475 14.2833 13.25C14.5144 12.866 15.0077 12.7335 15.4 12.95C15.7167 13.0667 17.4917 13.9333 17.4917 13.9333C17.7171 14.0098 17.9145 14.152 18.0583 14.3417C18.3382 14.8677 18.316 15.5031 18 16.0083Z" fill="#5A5A5A"/>
</g>
</svg>
