<svg width="24" height="24" viewBox="0 0 24 24" fill="none" xmlns="http://www.w3.org/2000/svg">
<g id="yahoo">
<path id="Shape" fill-rule="evenodd" clip-rule="evenodd" d="M18.0225 9.49787H19.6906C19.8569 9.49845 20.0077 9.40011 20.0742 9.24766L20.8165 7.57957C20.8729 7.45041 20.8602 7.30151 20.7829 7.18374C20.7055 7.06597 20.5738 6.99525 20.4329 6.99574H12.9849C12.8631 6.9966 12.7479 7.05063 12.6693 7.14362C12.5907 7.23662 12.5567 7.35931 12.5762 7.47948L12.8681 9.14757C12.9007 9.34839 13.0734 9.49642 13.2768 9.49787H14.2193L11.9423 11.4996L11.1667 10.482C10.9002 10.117 10.6097 9.73589 10.3134 9.34723L10.3134 9.34719C9.93282 8.84798 9.54273 8.33624 9.18164 7.82978H10.7496C10.98 7.82978 11.1667 7.64308 11.1667 7.41276V5.74467C11.1667 5.51436 10.98 5.32765 10.7496 5.32765H2.40921C2.17889 5.32765 1.99219 5.51436 1.99219 5.74467V7.41276C1.99219 7.64308 2.17889 7.82978 2.40921 7.82978H4.79457C5.67866 8.66383 8.38096 12.0751 9.49858 13.5263V16.2453C8.66454 16.4121 7.53858 16.6206 7.28836 16.6373C7.08907 16.6519 6.92815 16.8058 6.9047 17.0043L6.76292 18.2053C6.74853 18.3243 6.78603 18.4437 6.86585 18.5331C6.94567 18.6225 7.06009 18.6732 7.17994 18.6723H14.9199C15.0556 18.6731 15.1831 18.6077 15.2618 18.4972L16.0959 17.2962C16.1818 17.1807 16.202 17.029 16.1494 16.895C16.0969 16.761 15.9789 16.6635 15.8373 16.6373L13.6688 16.2369V13.543L18.0225 9.49787ZM21.9258 10.7489C21.8507 10.6485 21.7342 10.5872 21.6089 10.5821C21.4087 10.5821 19.432 10.382 19.1902 10.3403C19.0683 10.3197 18.9434 10.3532 18.8482 10.432C18.7518 10.5123 18.6966 10.6318 18.6981 10.7573V16.0868C18.6974 16.3047 18.8645 16.4864 19.0817 16.5038L20.2327 16.5956C20.4204 16.5945 20.5843 16.4682 20.6331 16.287L21.9675 11.1159C22.0115 10.9938 21.9961 10.8581 21.9258 10.7489ZM19.2235 17.0293L20.0576 17.1043H20.0159C20.13 17.1146 20.2348 17.1714 20.3058 17.2613C20.3768 17.3512 20.4077 17.4664 20.3912 17.5798L20.2828 18.3137C20.2539 18.5178 20.0802 18.6703 19.8741 18.6723L19.1568 18.614C18.9396 18.5965 18.7724 18.4148 18.7731 18.1969V17.4463C18.7724 17.3293 18.8208 17.2173 18.9066 17.1377C18.993 17.0597 19.1075 17.0206 19.2235 17.0293Z" fill="#5A5A5A"/>
</g>
</svg>
