<svg width="24" height="24" viewBox="0 0 24 24" fill="none" xmlns="http://www.w3.org/2000/svg">
<g id="youtube_clip">
<path id="Shape" fill-rule="evenodd" clip-rule="evenodd" d="M18.7167 4.91667H5.28333C3.47 4.91667 2 6.38666 2 8.2V15.8C2 17.6133 3.47 19.0833 5.28333 19.0833H18.7167C20.53 19.0833 22 17.6133 22 15.8V8.2C22 6.38666 20.53 4.91667 18.7167 4.91667ZM15.7833 12L10.1417 15.6333C10.0135 15.7155 9.85078 15.7213 9.71714 15.6484C9.5835 15.5755 9.50025 15.4356 9.5 15.2833V8.06667C9.50025 7.91444 9.5835 7.77446 9.71714 7.70157C9.85078 7.62867 10.0135 7.63446 10.1417 7.71667L15.7833 11.325C15.9022 11.4018 15.9739 11.5335 15.9739 11.675C15.9739 11.8165 15.9022 11.9482 15.7833 12.025V12Z" fill="#5A5A5A"/>
</g>
</svg>
