<?xml version="1.0" encoding="UTF-8"?>
<svg width="16px" height="16px" viewBox="0 0 16 16" version="1.1" xmlns="http://www.w3.org/2000/svg" xmlns:xlink="http://www.w3.org/1999/xlink" fill="currentColor">
    <title>instagram</title>
    <defs>
        <path d="M8,3.83870968 C5.74193548,3.83870968 3.87096774,5.67741935 3.87096774,7.96774194 C3.87096774,10.2580645 5.70967742,12.0967742 8,12.0967742 C10.2903226,12.0967742 12.1290323,10.2258065 12.1290323,7.96774194 C12.1290323,5.70967742 10.2580645,3.83870968 8,3.83870968 Z M8,10.6129032 C6.5483871,10.6129032 5.35483871,9.41935484 5.35483871,7.96774194 C5.35483871,6.51612903 6.5483871,5.32258065 8,5.32258065 C9.4516129,5.32258065 10.6451613,6.51612903 10.6451613,7.96774194 C10.6451613,9.41935484 9.4516129,10.6129032 8,10.6129032 Z M12.2903226,4.67741935 C12.8069761,4.67741935 13.2258065,4.25858896 13.2258065,3.74193548 C13.2258065,3.22528201 12.8069761,2.80645161 12.2903226,2.80645161 C11.7736691,2.80645161 11.3548387,3.22528201 11.3548387,3.74193548 C11.3548387,4.25858896 11.7736691,4.67741935 12.2903226,4.67741935 Z M14.7096774,1.32258065 C13.8709677,0.451612903 12.6774194,0 11.3225806,0 L4.67741935,0 C1.87096774,0 0,1.87096774 0,4.67741935 L0,11.2903226 C0,12.6774194 0.451612903,13.8709677 1.35483871,14.7419355 C2.22580645,15.5806452 3.38709677,16 4.70967742,16 L11.2903226,16 C12.6774194,16 13.8387097,15.5483871 14.6774194,14.7419355 C15.5483871,13.9032258 16,12.7096774 16,11.3225806 L16,4.67741935 C16,3.32258065 15.5483871,2.16129032 14.7096774,1.32258065 Z M14.5806452,11.3225806 C14.5806452,12.3225806 14.2258065,13.1290323 13.6451613,13.6774194 C13.0645161,14.2258065 12.2580645,14.516129 11.2903226,14.516129 L4.70967742,14.516129 C3.74193548,14.516129 2.93548387,14.2258065 2.35483871,13.6774194 C1.77419355,13.0967742 1.48387097,12.2903226 1.48387097,11.2903226 L1.48387097,4.67741935 C1.48387097,3.70967742 1.77419355,2.90322581 2.35483871,2.32258065 C2.90322581,1.77419355 3.74193548,1.48387097 4.70967742,1.48387097 L11.3548387,1.48387097 C12.3225806,1.48387097 13.1290323,1.77419355 13.7096774,2.35483871 C14.2580645,2.93548387 14.5806452,3.74193548 14.5806452,4.67741935 L14.5806452,11.3225806 L14.5806452,11.3225806 Z" id="path-1"></path>
    </defs>
    <g id="Page-2" stroke="none" stroke-width="1" fill="none" fill-rule="evenodd">
        <g id="Setting-Features" transform="translate(-1130.000000, -3393.000000)">
            <g id="footer" transform="translate(-44.000000, 2781.000000)">
                <g id="Legal-Stuff-Copy" transform="translate(1174.000000, 540.000000)">
                    <g id="icon/social/facebook_24px-copy-2" transform="translate(0.000000, 72.000000)">
                        <mask id="mask-2" fill="white">
                            <use xlink:href="#path-1"></use>
                        </mask>
                        <use id="icon/social/instagram_24px" fill="#37474F" fill-rule="nonzero" xlink:href="#path-1"></use>
                    </g>
                </g>
            </g>
        </g>
    </g>
</svg>
