<svg xmlns="http://www.w3.org/2000/svg" width="882.111" height="774.306" viewBox="0 0 882.111 774.306">
  <defs>
    <clipPath id="a">
      <rect width="102" height="18" fill="none"/>
    </clipPath>
  </defs>
  <g transform="translate(149.91 302.063)">
    <g transform="matrix(0.966, -0.259, 0.259, 0.966, -904.763, 15.068)">
      <path d="M0,0H752.459a0,0,0,0,1,0,0V518a4,4,0,0,1-4,4H4a4,4,0,0,1-4-4V0A0,0,0,0,1,0,0Z"
            transform="translate(760.806 155.161)" fill="#f9fafc"/>
      <path d="M4,0H748.459a4,4,0,0,1,4,4V78a0,0,0,0,1,0,0H0a0,0,0,0,1,0,0V4A4,4,0,0,1,4,0Z"
            transform="translate(760.806 77.161)" fill="#c8d1db" opacity="0.54"/>
      <g transform="translate(783.806 108.161)" clip-path="url(#a)">
        <g transform="translate(-67 -73)">
          <circle cx="2.5" cy="2.5" r="2.5" transform="translate(67 73)" fill="#aab0bb"/>
        </g>
        <g transform="translate(-58 -73)">
          <circle cx="2.5" cy="2.5" r="2.5" transform="translate(67 73)" fill="#aab0bb"/>
        </g>
        <g transform="translate(-49 -73)">
          <circle cx="2.5" cy="2.5" r="2.5" transform="translate(67 73)" fill="#aab0bb"/>
        </g>
        <g transform="translate(-40 -73)">
          <circle cx="2.5" cy="2.5" r="2.5" transform="translate(67 73)" fill="#aab0bb"/>
        </g>
        <g transform="translate(-31 -73)">
          <circle cx="2.5" cy="2.5" r="2.5" transform="translate(67 73)" fill="#aab0bb"/>
        </g>
        <g transform="translate(-22 -73)">
          <circle cx="2.5" cy="2.5" r="2.5" transform="translate(67 73)" fill="#aab0bb"/>
        </g>
        <g transform="translate(-13 -73)">
          <circle cx="2.5" cy="2.5" r="2.5" transform="translate(67 73)" fill="#aab0bb"/>
        </g>
        <g transform="translate(-4 -73)">
          <circle cx="2.5" cy="2.5" r="2.5" transform="translate(67 73)" fill="#aab0bb"/>
        </g>
        <g transform="translate(5 -73)">
          <circle cx="2.5" cy="2.5" r="2.5" transform="translate(67 73)" fill="#aab0bb"/>
        </g>
        <g transform="translate(14 -73)">
          <circle cx="2.5" cy="2.5" r="2.5" transform="translate(67 73)" fill="#aab0bb"/>
        </g>
        <g transform="translate(23 -73)">
          <circle cx="2.5" cy="2.5" r="2.5" transform="translate(67 73)" fill="#aab0bb"/>
        </g>
        <g transform="translate(32 -73)">
          <circle cx="2.5" cy="2.5" r="2.5" transform="translate(67 73)" fill="#aab0bb"/>
        </g>
      </g>
      <g transform="translate(822.54 221.893)">
        <rect width="137" height="24" rx="12" transform="translate(182.618)" fill="#aab0bb"/>
        <g transform="translate(0 0)">
          <g transform="translate(187.266)">
            <rect width="137" height="24" rx="12" fill="#aab0bb"/>
          </g>
          <path
            d="M128.114,114.213V16.9A13.942,13.942,0,0,0,114.213,3H16.9A13.942,13.942,0,0,0,3,16.9v97.311a13.942,13.942,0,0,0,13.9,13.9h97.311A13.942,13.942,0,0,0,128.114,114.213ZM41.229,75.983,58.606,96.905,82.934,65.557l31.279,41.7H16.9Z"
            transform="translate(-3 -2.575)" fill="#aab0bb"/>
        </g>
        <g transform="translate(174.725 56)">
          <path d="M11.5,0h56a11.5,11.5,0,0,1,0,23h-56a11.5,11.5,0,0,1,0-23Z" fill="#e2e6eb"/>
          <rect width="259" height="23" rx="11.5" transform="translate(101)" fill="#e2e6eb"/>
          <rect width="344" height="24" rx="12" transform="translate(0 38)" fill="#e2e6eb"/>
          <rect width="73" height="23" rx="11.5" transform="translate(382)" fill="#e2e6eb"/>
          <rect width="48" height="24" rx="12" transform="translate(211 77)" fill="#e2e6eb"/>
          <rect width="189" height="24" rx="12" transform="translate(0 77)" fill="#e2e6eb"/>
          <rect width="172" height="24" rx="12" transform="translate(283 77)" fill="#e2e6eb"/>
          <rect width="87" height="24" rx="12" transform="translate(368 38)" fill="#e2e6eb"/>
        </g>
      </g>
      <g transform="translate(822.54 439.161)">
        <rect width="137" height="24" rx="12" transform="translate(182.618)" fill="#aab0bb"/>
        <g transform="translate(0 0)">
          <g transform="translate(187.266)">
            <rect width="137" height="24" rx="12" fill="#aab0bb"/>
          </g>
          <path
            d="M128.114,114.213V16.9A13.942,13.942,0,0,0,114.213,3H16.9A13.942,13.942,0,0,0,3,16.9v97.311a13.942,13.942,0,0,0,13.9,13.9h97.311A13.942,13.942,0,0,0,128.114,114.213ZM41.229,75.983,58.606,96.905,82.934,65.557l31.279,41.7H16.9Z"
            transform="translate(-3 -2.8)" fill="#aab0bb"/>
        </g>
        <g transform="translate(174.725 56)">
          <rect width="79" height="23" rx="11.5" fill="#e2e6eb"/>
          <rect width="259" height="23" rx="11.5" transform="translate(101)" fill="#e2e6eb"/>
          <rect width="344" height="24" rx="12" transform="translate(0 38)" fill="#e2e6eb"/>
          <rect width="73" height="23" rx="11.5" transform="translate(382)" fill="#e2e6eb"/>
          <rect width="48" height="24" rx="12" transform="translate(211 77)" fill="#e2e6eb"/>
          <rect width="189" height="24" rx="12" transform="translate(0 77)" fill="#e2e6eb"/>
          <rect width="172" height="24" rx="12" transform="translate(283 77)" fill="#e2e6eb"/>
          <rect width="87" height="24" rx="12" transform="translate(368 38)" fill="#e2e6eb"/>
        </g>
      </g>
    </g>
    <g transform="translate(336.735 292.09)">
      <rect width="14.893" height="13.163" transform="translate(44.527 94.936)" fill="#fff"/>
      <rect width="14.893" height="12.955" transform="translate(44.527 72.152)" fill="#fff"/>
      <g transform="translate(37.659 86.474)">
        <ellipse cx="9.641" cy="19.672" rx="9.641" ry="19.672" transform="translate(0)" fill="#3f3d56"/>
        <path d="M251.174,580.442c3.861-23.167.039-46.251,0-46.481l-.751.127c.039.229,3.839,23.192,0,46.229Z"
              transform="translate(-242.424 -528.572)" fill="#6c63ff"/>
        <rect width="9.887" height="0.762" transform="matrix(-0.882, -0.472, 0.472, -0.882, 9.513, 20.776)"
              fill="#6c63ff"/>
        <rect width="0.762" height="9.887" transform="matrix(-0.472, -0.882, 0.882, -0.472, 10.356, 23.114)"
              fill="#6c63ff"/>
      </g>
      <g transform="translate(0)">
        <ellipse cx="25.804" cy="52.65" rx="25.804" ry="52.65" fill="#3abf7c"/>
        <path d="M313.757,424.747c10.317-61.9.1-123.578,0-124.193l-.751.127c.1.615,10.3,62.169,0,123.941Z"
              transform="translate(-290.966 -286.021)" fill="#3f3d56"/>
        <rect width="26.462" height="0.762" transform="matrix(-0.882, -0.472, 0.472, -0.882, 25.76, 55.044)"
              fill="#3f3d56"/>
        <rect width="0.762" height="26.462" transform="translate(27.415 61.302) rotate(-118.156)" fill="#3f3d56"/>
      </g>
      <ellipse cx="18.857" cy="38.475" rx="18.857" ry="38.475" transform="translate(51.608 37.332)" fill="#3abf7c"/>
      <path d="M179.947,492.163c7.542-45.253.076-90.341,0-90.791l-.751.127c.076.449,7.52,45.416,0,90.538Z"
            transform="translate(-111.582 -353.437)" fill="#3f3d56"/>
      <rect width="19.338" height="0.762" transform="matrix(-0.882, -0.472, 0.472, -0.882, 70.384, 77.647)"
            fill="#3f3d56"/>
      <rect width="0.762" height="19.338" transform="matrix(-0.472, -0.882, 0.882, -0.472, 71.69, 82.223)"
            fill="#3f3d56"/>
    </g>
    <g transform="translate(-113.213 170.09)">
      <path d="M114.951,0l115.03,199.622H-.08Z" transform="translate(0.272 61.314)" fill="#1291bf"/>
      <path d="M114.951,0l115.03,199.622H-.08Z" transform="translate(247.967 61.314)" fill="#1291bf"/>
      <path d="M150.416,0,300.852,261.065H-.02Z" transform="translate(97.354)" fill="#107ba2"/>
    </g>
    <g transform="translate(-129.084 194.053)">
      <ellipse cx="61.283" cy="61.283" rx="61.283" ry="61.283" transform="translate(0 0)" fill="#ffe200"/>
      <path d="M223.678,512.356h-3.46V344.041a57.937,57.937,0,0,1,1.73-14.051h0a57.935,57.935,0,0,1,1.73,14.051Z"
            transform="translate(-160.418 -275.625)" fill="#3f3d56"/>
      <path d="M222.255,431.791l-1.822-2.941,25.6-15.862a10.9,10.9,0,0,1,5.919-1.633h0a10.9,10.9,0,0,1-4.1,4.574Z"
            transform="translate(-160.531 -318.389)" fill="#3f3d56"/>
      <path d="M199.048,404.3l1.822-2.941L183.255,390.44a6.555,6.555,0,0,0-4.682-.867h0a6.555,6.555,0,0,0,2.86,3.807Z"
            transform="translate(-138.529 -306.881)" fill="#3f3d56"/>
      <path d="M199.048,545.975l1.822-2.941-17.615-10.916a6.554,6.554,0,0,0-4.682-.867h0a6.554,6.554,0,0,0,2.86,3.807Z"
            transform="translate(-138.529 -381.345)" fill="#3f3d56"/>
    </g>
  </g>
</svg>
