<svg xmlns="http://www.w3.org/2000/svg" width="733.886" height="626.334" viewBox="0 0 733.886 626.334">
  <defs>
    <style>.a {
      fill: rgba(179, 215, 255, 0.16);
      opacity: 0.7;
    }

    .b {
      fill: #d8d5db;
    }

    .c, .n {
      fill: #fff;
    }

    .d {
      fill: #e2e6eb;
    }

    .e {
      fill: #717171;
    }

    .f {
      fill: #37ba9b;
    }

    .g {
      fill: #18908e;
    }

    .h {
      fill: #11767c;
    }

    .i {
      fill: #223851;
    }

    .j {
      fill: #d3d3d3;
    }

    .k {
      fill: #242143;
    }

    .l {
      fill: #ffdfc4;
    }

    .m {
      fill: #ffd800;
    }

    .n {
      fill-rule: evenodd;
    }

    .o {
      fill: #00de91;
    }

    .p {
      fill: #ffc1a0;
    }

    .q {
      fill: #414040;
    }

    .r {
      fill: #ec4c77;
    }

    .s {
      fill: #891010;
    }

    .t {
      fill: #634c72;
    }

    .u {
      fill: #ff7292;
    }

    .v {
      fill: #ffcda8;
    }

    .w {
      fill: #e74b73;
    }

    .x {
      fill: #4f4db8;
    }

    .y {
      fill: #0095f9;
    }

    .z {
      fill: #40305f;
    }

    .aa {
      fill: #43c59e;
    }

    .ab {
      fill: #19a184;
    }

    .ac {
      fill: #56cfaa;
    }

    .ad {
      fill: #64d9b5;
    }

    .ae {
      fill: #4d8dff;
    }

    .af {
      fill: #0a4cfe;
    }

    .ag {
      fill: #99d7ff;
    }

    .ah {
      fill: #0033bf;
    }

    .ai {
      filter: url(#a);
    }</style>
    <filter id="a" x="174.68" y="0" width="310" height="504.647" filterUnits="userSpaceOnUse">
      <feOffset input="SourceAlpha"/>
      <feGaussianBlur stdDeviation="10" result="b"/>
      <feFlood flood-color="#b3d7ff"/>
      <feComposite operator="in" in2="b"/>
      <feComposite in="SourceGraphic"/>
    </filter>
  </defs>
  <g transform="translate(0 30)">
    <g transform="translate(0.343 27.207)">
      <path class="a"
            d="M908.633,295.311C798.59,278.039,719.576,191.1,701.262,363.57S828,771,828,771h562s92.77-362.656,6.434-469.018c-88.55-109.089-187.287-123.053-270.782-57.972S1018.675,312.583,908.633,295.311Z"
            transform="translate(-699.663 -204.879)"/>
      <path class="a"
            d="M884.556,281.475C787.2,266.845,717.287,193.207,701.084,339.29S817.658,685.715,817.658,685.715h490.475s86.352-306.192,8.007-398.59-165.7-104.225-239.576-49.1S981.916,296.1,884.556,281.475Z"
            transform="translate(-657.376 -119.594)"/>
    </g>
    <path class="b"
          d="M330.789,516.1h-.017c-5.508-.068-11.147-.359-16.762-.865a1.247,1.247,0,0,1-.684-.256.479.479,0,0,1-.194-.483c.069-.333.477-.565.991-.565a1.874,1.874,0,0,1,.187.01c5.459.494,11.012.78,16.5.849.579.011,1.037.311,1.02.671S331.356,516.1,330.789,516.1Zm16.72-.451c-.537,0-.986-.252-1.044-.586-.058-.357.358-.682.928-.723,5.455-.361,10.962-.948,16.368-1.745a1.682,1.682,0,0,1,.254-.019,1.035,1.035,0,0,1,1,.507.445.445,0,0,1-.122.5,1.122,1.122,0,0,1-.647.29c-5.428.8-11.022,1.4-16.628,1.776A.779.779,0,0,1,347.508,515.646ZM297.8,513.152a2.17,2.17,0,0,1-.259-.021c-5.289-.877-10.676-1.966-16.01-3.238a.988.988,0,0,1-.59-.346.426.426,0,0,1-.021-.5,1.139,1.139,0,0,1,.971-.422,1.579,1.579,0,0,1,.375.045c5.326,1.264,10.642,2.338,15.8,3.191a1.122,1.122,0,0,1,.643.309.436.436,0,0,1,.1.487A1.065,1.065,0,0,1,297.8,513.152Zm82.237-2.258a1.127,1.127,0,0,1-.978-.435.431.431,0,0,1,.034-.5,1,1,0,0,1,.593-.337c2.462-.558,4.945-1.168,7.381-1.812l1.926-.511.015,0c2.006-.532,4.081-1.083,6.119-1.628a1.628,1.628,0,0,1,.407-.05,1.182,1.182,0,0,1,.964.392.439.439,0,0,1,.005.512.915.915,0,0,1-.549.347c-2.652.712-5.369,1.436-8.076,2.153-2.564.675-5.082,1.292-7.482,1.833A1.669,1.669,0,0,1,380.038,510.894Zm-113.462-5.145a1.563,1.563,0,0,1-.468-.068c-4.97-1.533-9.937-3.23-14.764-5.045a.777.777,0,0,1-.474-.4.451.451,0,0,1,.114-.5,1.266,1.266,0,0,1,.9-.32,1.547,1.547,0,0,1,.54.094c4.882,1.828,9.8,3.508,14.615,4.993.52.163.729.547.475.874A1.213,1.213,0,0,1,266.576,505.749Zm144.336-2.981a1.2,1.2,0,0,1-.962-.392c-.226-.331.017-.719.543-.865,5.535-1.513,10.534-2.9,15.281-4.233a1.59,1.59,0,0,1,.426-.057,1.184,1.184,0,0,1,.954.387c.234.329,0,.717-.518.865-5.494,1.54-10.5,2.926-15.308,4.238A1.581,1.581,0,0,1,410.912,502.768ZM237.85,495.014a1.53,1.53,0,0,1-.593-.121c-4.533-2-9.053-4.126-13.435-6.329a.654.654,0,0,1-.388-.44.5.5,0,0,1,.221-.483,1.419,1.419,0,0,1,.826-.242,1.434,1.434,0,0,1,.646.143c4.505,2.261,8.988,4.373,13.325,6.276a.719.719,0,0,1,.434.426.474.474,0,0,1-.175.492A1.329,1.329,0,0,1,237.85,495.014Zm203.558-.812a1.182,1.182,0,0,1-.944-.383.429.429,0,0,1-.033-.5.888.888,0,0,1,.541-.361c5.108-1.482,10.2-2.982,15.149-4.459a1.592,1.592,0,0,1,.442-.06,1.217,1.217,0,0,1,.955.369.43.43,0,0,1,.044.5.888.888,0,0,1-.538.378c-4.794,1.433-9.76,2.892-15.182,4.459A1.457,1.457,0,0,1,441.408,494.2Zm30.239-9.049a1.2,1.2,0,0,1-.936-.361.436.436,0,0,1-.055-.5.858.858,0,0,1,.523-.377c5.726-1.783,10.472-3.286,14.938-4.731a1.516,1.516,0,0,1,.467-.071,1.263,1.263,0,0,1,.939.354c.261.323.059.72-.451.886-5,1.614-10.036,3.208-14.965,4.736A1.557,1.557,0,0,1,471.647,485.153Zm-259.938-3.232a1.419,1.419,0,0,1-.694-.168c-4.146-2.329-8.256-4.76-12.214-7.225a.57.57,0,0,1-.315-.462.563.563,0,0,1,.307-.466,1.378,1.378,0,0,1,.735-.193,1.421,1.421,0,0,1,.735.188c3.86,2.4,7.948,4.821,12.148,7.183a.509.509,0,0,1,.075.927A1.42,1.42,0,0,1,211.709,481.922Zm289.7-6.392a1.237,1.237,0,0,1-.921-.341c-.273-.317-.086-.717.418-.891,4.983-1.682,9.911-3.387,14.648-5.066a1.548,1.548,0,0,1,.513-.085,1.283,1.283,0,0,1,.916.331c.279.319.1.712-.4.9-4.676,1.655-9.615,3.363-14.681,5.077A1.575,1.575,0,0,1,501.409,475.529ZM187.9,467.167a1.407,1.407,0,0,1-.761-.209c-3.689-2.5-7.442-5.147-11.152-7.869a.525.525,0,0,1-.244-.487.614.614,0,0,1,.361-.435,1.506,1.506,0,0,1,.685-.156,1.331,1.331,0,0,1,.787.23c3.534,2.595,7.267,5.228,11.093,7.827a.541.541,0,0,1,.278.471.594.594,0,0,1-.336.456A1.448,1.448,0,0,1,187.9,467.167Zm342.66-1.98a1.279,1.279,0,0,1-.9-.32c-.295-.31-.13-.714.367-.9,5.035-1.881,9.83-3.723,14.253-5.475a1.627,1.627,0,0,1,.559-.1,1.293,1.293,0,0,1,.889.3c.3.308.153.714-.327.906-4.833,1.9-9.646,3.751-14.3,5.49A1.521,1.521,0,0,1,530.56,465.187Zm28.314-11.2a1.324,1.324,0,0,1-.868-.293.463.463,0,0,1-.154-.493.728.728,0,0,1,.446-.413c4.6-1.932,9.219-3.938,13.743-5.962a1.427,1.427,0,0,1,.6-.124,1.327,1.327,0,0,1,.855.276c.338.3.233.708-.233.917-4.5,2.013-9.148,4.026-13.8,5.984A1.545,1.545,0,0,1,558.874,453.985Zm-392.728-2.776a1.378,1.378,0,0,1-.819-.246c-3.379-2.678-6.817-5.488-10.216-8.352a.479.479,0,0,1-.192-.486.685.685,0,0,1,.409-.431,1.54,1.54,0,0,1,.624-.125,1.352,1.352,0,0,1,.847.262c3.393,2.868,6.813,5.665,10.167,8.314.358.283.283.7-.169.922A1.48,1.48,0,0,1,166.147,451.209ZM586.1,441.772a1.3,1.3,0,0,1-.828-.257.492.492,0,0,1-.207-.487.667.667,0,0,1,.4-.43c4.6-2.216,9-4.409,13.075-6.518a1.433,1.433,0,0,1,.662-.154,1.352,1.352,0,0,1,.8.238c.37.285.311.69-.134.922-4.265,2.21-8.684,4.413-13.134,6.549A1.453,1.453,0,0,1,586.1,441.772Zm-439.912-7.418a1.3,1.3,0,0,1-.861-.283c-3.172-2.856-6.331-5.789-9.388-8.719a.452.452,0,0,1-.157-.481.752.752,0,0,1,.458-.425,1.508,1.508,0,0,1,.561-.1,1.326,1.326,0,0,1,.885.3c2.943,2.817,6.091,5.738,9.355,8.681a.473.473,0,0,1,.174.493.71.71,0,0,1-.434.419A1.5,1.5,0,0,1,146.191,434.354ZM611.9,428.4a1.381,1.381,0,0,1-.786-.22c-.382-.267-.344-.68.084-.922,4.209-2.364,8.313-4.769,12.2-7.147a1.408,1.408,0,0,1,.726-.183,1.423,1.423,0,0,1,.746.193.561.561,0,0,1,.3.471.572.572,0,0,1-.319.457c-3.915,2.4-8.039,4.812-12.257,7.182A1.48,1.48,0,0,1,611.9,428.4ZM127.8,416.8a1.294,1.294,0,0,1-.886-.309c-2.929-2.967-5.846-6-8.669-9-.287-.317-.118-.721.376-.9a1.5,1.5,0,0,1,.52-.089,1.286,1.286,0,0,1,.91.325c2.959,3.152,5.867,6.172,8.644,8.975a.455.455,0,0,1,.125.5.767.767,0,0,1-.468.4A1.478,1.478,0,0,1,127.8,416.8Zm508.021-3.071a1.394,1.394,0,0,1-.71-.178.582.582,0,0,1-.33-.452.538.538,0,0,1,.279-.47c3.761-2.526,7.487-5.158,11.077-7.822a1.542,1.542,0,0,1,1.472-.078.633.633,0,0,1,.37.45.515.515,0,0,1-.245.477c-3.579,2.654-7.328,5.3-11.143,7.869A1.421,1.421,0,0,1,635.821,413.732ZM110.829,398.7a1.252,1.252,0,0,1-.912-.335c-2.628-2.954-5.323-6.062-8.009-9.237a.447.447,0,0,1-.078-.5.82.82,0,0,1,.505-.386,1.713,1.713,0,0,1,.489-.071,1.22,1.22,0,0,1,.922.343c2.874,3.384,5.489,6.4,7.994,9.211a.441.441,0,0,1,.093.5.807.807,0,0,1-.495.392A1.5,1.5,0,0,1,110.829,398.7Zm546.544-.99a1.536,1.536,0,0,1-.635-.131c-.454-.215-.545-.627-.2-.917,3.4-2.812,6.655-5.671,9.69-8.5a1.319,1.319,0,0,1,.872-.29,1.51,1.51,0,0,1,.583.112c.477.2.6.614.275.912-3.085,2.88-6.365,5.758-9.747,8.555A1.356,1.356,0,0,1,657.373,397.711Zm18.659-17.394a1.523,1.523,0,0,1-.536-.09c-.5-.189-.663-.582-.367-.9,2.87-3.04,5.584-6.123,8.067-9.163a1.21,1.21,0,0,1,.922-.357,1.559,1.559,0,0,1,.482.074c.513.165.72.56.461.88-2.562,3.127-5.3,6.233-8.135,9.232A1.253,1.253,0,0,1,676.032,380.317Zm-580.9-.168a1.223,1.223,0,0,1-.936-.357c-2.573-3.2-5.068-6.376-7.416-9.431a.433.433,0,0,1-.044-.5.888.888,0,0,1,.538-.375,1.686,1.686,0,0,1,.459-.063,1.194,1.194,0,0,1,.937.368c2.593,3.374,5.01,6.452,7.39,9.409a.443.443,0,0,1,.061.5.852.852,0,0,1-.522.379A1.565,1.565,0,0,1,95.137,380.149Zm596.178-18.484a1.514,1.514,0,0,1-.427-.057c-.522-.14-.762-.526-.534-.859,2.176-3.1,4.274-6.357,6.236-9.687a1.157,1.157,0,0,1,.984-.429,1.64,1.64,0,0,1,.362.04c.535.127.809.505.61.844-1.9,3.245-4.016,6.527-6.278,9.755A1.187,1.187,0,0,1,691.315,361.665Zm-610.7-.435a1.188,1.188,0,0,1-.945-.383c-2.412-3.3-4.719-6.531-6.854-9.593-.226-.33.018-.718.543-.865a1.652,1.652,0,0,1,.412-.051,1.2,1.2,0,0,1,.968.393c2.285,3.28,4.583,6.5,6.83,9.572.24.327.011.717-.51.87A1.6,1.6,0,0,1,80.615,361.23ZM702.867,342a1.584,1.584,0,0,1-.3-.027c-.55-.1-.861-.471-.694-.817,1.608-3.352,3.066-6.743,4.331-10.08a1.066,1.066,0,0,1,1.022-.5,1.824,1.824,0,0,1,.24.016c.56.089.909.444.778.791-1.3,3.414-2.774,6.831-4.373,10.154A1.11,1.11,0,0,1,702.867,342Zm-635.661-.016a1.163,1.163,0,0,1-.962-.4c-2.007-3.01-4.075-6.195-6.32-9.735a.427.427,0,0,1,.01-.5.963.963,0,0,1,.576-.35,1.555,1.555,0,0,1,.381-.046,1.18,1.18,0,0,1,.974.408c1.942,3.07,4,6.249,6.3,9.718a.431.431,0,0,1,0,.5.94.94,0,0,1-.564.351A1.5,1.5,0,0,1,67.206,341.986ZM54.834,322.475a1.126,1.126,0,0,1-.971-.424c-1.882-3.113-3.833-6.421-5.8-9.833-.2-.339.082-.717.628-.844a1.7,1.7,0,0,1,.346-.036,1.142,1.142,0,0,1,.99.434c1.879,3.266,3.825,6.568,5.786,9.814.2.34-.07.718-.6.843A1.517,1.517,0,0,1,54.834,322.475Zm655.8-.849c-.056,0-.114,0-.184-.01-.567-.068-.945-.408-.844-.759.958-3.362,1.8-6.838,2.492-10.332.059-.323.512-.576,1.032-.576.044,0,.088,0,.13.006.579.047.979.369.91.733-.69,3.492-1.533,6.99-2.507,10.4A1.029,1.029,0,0,1,710.634,321.626ZM43.505,302.755a1.128,1.128,0,0,1-.986-.439c-1.844-3.376-3.63-6.727-5.309-9.96a.436.436,0,0,1,.066-.5,1.048,1.048,0,0,1,.611-.325,1.635,1.635,0,0,1,.319-.031,1.112,1.112,0,0,1,.993.451c1.846,3.543,3.579,6.794,5.3,9.939.183.339-.11.712-.652.833A1.926,1.926,0,0,1,43.505,302.755Zm671.233-1.928h-.066c-.576-.026-1.011-.342-.971-.7.394-3.5.656-7.016.778-10.436.009-.373.429-.624,1.07-.639.57.006,1.028.306,1.02.67-.123,3.475-.388,7.007-.786,10.5C715.75,300.56,715.291,300.827,714.739,300.827ZM33.148,282.8a1.1,1.1,0,0,1-.995-.461l-.251-.508c-1.722-3.515-3.319-6.9-4.749-10.07a.44.44,0,0,1,.091-.5,1.091,1.091,0,0,1,.629-.31,1.8,1.8,0,0,1,.288-.023,1.066,1.066,0,0,1,1,.473c1.554,3.415,3.151,6.8,4.748,10.049l.235.5a.43.43,0,0,1-.065.491,1.066,1.066,0,0,1-.621.326A1.493,1.493,0,0,1,33.148,282.8Zm682.193-2.934h-.059c-.553,0-1.011-.274-1.044-.623a90.771,90.771,0,0,0-1.479-10.4.486.486,0,0,1,.21-.481,1.26,1.26,0,0,1,.693-.247l.108,0c.563,0,.99.228,1.062.568a92.093,92.093,0,0,1,1.5,10.489C716.361,279.538,715.918,279.848,715.341,279.87Zm-691.6-17.746a1.084,1.084,0,0,1-1.011-.492c-1.457-3.49-2.827-6.919-4.072-10.191-.132-.353.213-.708.769-.791a1.616,1.616,0,0,1,.242-.018,1.081,1.081,0,0,1,1.02.5c1.415,3.688,2.744,7.014,4.063,10.17.143.355-.183.707-.743.8A2.521,2.521,0,0,1,23.743,262.124Zm687.4-3.044a1.021,1.021,0,0,1-1.019-.534c-1.043-3.358-2.284-6.785-3.687-10.185-.142-.35.2-.708.752-.8a1.585,1.585,0,0,1,.253-.02,1.092,1.092,0,0,1,1.017.492c1.445,3.5,2.694,6.954,3.712,10.263.109.354-.262.7-.828.766A1.319,1.319,0,0,1,711.144,259.08ZM15.96,241.707a1.045,1.045,0,0,1-1.02-.519c-1.193-3.46-2.318-6.926-3.344-10.3a.454.454,0,0,1,.151-.486,1.2,1.2,0,0,1,.677-.279,1.377,1.377,0,0,1,.233-.02,1.012,1.012,0,0,1,.987.538c1.055,3.462,2.177,6.918,3.335,10.274a.452.452,0,0,1-.14.492,1.163,1.163,0,0,1-.662.283A1.447,1.447,0,0,1,15.96,241.707Zm686.825-2.929a1.11,1.11,0,0,1-.995-.45c-1.667-3.265-3.518-6.586-5.5-9.871a.438.438,0,0,1,.029-.5.978.978,0,0,1,.582-.34,1.453,1.453,0,0,1,.386-.051,1.138,1.138,0,0,1,.959.428c1.968,3.254,3.83,6.6,5.535,9.933a.443.443,0,0,1-.065.5,1.046,1.046,0,0,1-.612.326A1.718,1.718,0,0,1,702.785,238.778ZM9.647,221.091a1.024,1.024,0,0,1-1.028-.55c-.929-3.445-1.792-6.94-2.567-10.39a.485.485,0,0,1,.2-.487,1.241,1.241,0,0,1,.686-.252A1.46,1.46,0,0,1,7.1,209.4c.5,0,.949.247,1.022.563.759,3.37,1.62,6.855,2.558,10.359a.467.467,0,0,1-.175.487,1.234,1.234,0,0,1-.677.267l-.024,0C9.746,221.087,9.7,221.091,9.647,221.091Zm681.332-1.939a1.2,1.2,0,0,1-.962-.392c-2.187-3.164-4.533-6.363-6.972-9.51a.434.434,0,0,1-.046-.5.878.878,0,0,1,.531-.374,1.5,1.5,0,0,1,.457-.069,1.23,1.23,0,0,1,.939.367c2.439,3.152,4.8,6.369,7.014,9.562.226.337-.012.716-.543.865A1.857,1.857,0,0,1,690.979,219.152ZM4.94,200.3c-.533,0-.979-.25-1.037-.581-.624-3.341-1.2-6.859-1.712-10.458-.051-.361.372-.681.943-.713.041,0,.082,0,.121,0,.568,0,.967.234,1.017.6.469,3.341,1.042,6.85,1.7,10.431a.491.491,0,0,1-.215.477,1.293,1.293,0,0,1-.7.246A.98.98,0,0,1,4.94,200.3Zm671.418-.025a1.24,1.24,0,0,1-.919-.346c-2.625-3.057-5.379-6.129-8.185-9.132-.282-.307-.113-.709.376-.9a1.452,1.452,0,0,1,.521-.093,1.269,1.269,0,0,1,.908.329c2.86,3.061,5.625,6.148,8.218,9.173a.437.437,0,0,1,.08.5.825.825,0,0,1-.508.386A1.528,1.528,0,0,1,676.359,200.276Zm-16.921-18.117a1.283,1.283,0,0,1-.886-.3c-2.916-2.882-6.007-5.825-9.187-8.749-.319-.3-.2-.71.275-.912a1.466,1.466,0,0,1,.583-.114,1.322,1.322,0,0,1,.872.286c3.208,2.952,6.31,5.908,9.221,8.787.306.307.163.714-.319.906A1.561,1.561,0,0,1,659.437,182.158ZM2.048,179.387H1.989c-.552,0-1.011-.272-1.044-.619-.341-3.623-.588-7.159-.736-10.51a.549.549,0,0,1,.283-.47,1.366,1.366,0,0,1,.728-.206h.033c.56,0,1.03.287,1.046.639.148,3.358.4,6.88.736,10.468C3.068,179.048,2.625,179.36,2.048,179.387Zm638.537-14.581a1.289,1.289,0,0,1-.844-.268c-3.384-2.908-6.761-5.729-10.04-8.383-.349-.286-.263-.7.193-.921a1.458,1.458,0,0,1,.637-.138,1.324,1.324,0,0,1,.826.258c3.261,2.637,6.651,5.468,10.075,8.415.334.293.233.7-.226.911A1.482,1.482,0,0,1,640.585,164.806ZM1.044,158.4c-.576,0-1.044-.3-1.044-.66.025-3.491.149-7.029.367-10.515.026-.359.462-.631,1.015-.631l.073,0a1.375,1.375,0,0,1,.727.212.535.535,0,0,1,.275.47c-.218,3.472-.342,6.994-.367,10.468C2.09,158.1,1.621,158.4,1.044,158.4ZM620.1,148.192a1.372,1.372,0,0,1-.811-.241c-3.507-2.684-7.13-5.382-10.768-8.021a.513.513,0,0,1-.248-.473.625.625,0,0,1,.366-.449,1.416,1.416,0,0,1,.677-.161,1.383,1.383,0,0,1,.8.229c3.716,2.7,7.351,5.4,10.8,8.048a.5.5,0,0,1,.232.476.644.644,0,0,1-.383.445A1.462,1.462,0,0,1,620.1,148.192ZM2.4,137.425H2.316c-.572-.031-1-.346-.962-.7.441-3.519,1-7.043,1.664-10.474.064-.342.493-.573,1.068-.573l.093,0a1.271,1.271,0,0,1,.692.241.5.5,0,0,1,.218.487c-.66,3.441-1.216,6.945-1.655,10.415C3.4,137.16,2.947,137.425,2.4,137.425ZM598.192,132.3a1.384,1.384,0,0,1-.769-.215c-3.87-2.664-7.709-5.244-11.411-7.67a.541.541,0,0,1-.283-.465.575.575,0,0,1,.316-.458,1.484,1.484,0,0,1,.733-.182,1.358,1.358,0,0,1,.746.2c3.724,2.435,7.575,5.023,11.445,7.692a.529.529,0,0,1,.273.471.6.6,0,0,1-.348.452A1.391,1.391,0,0,1,598.192,132.3Zm-23.141-15.183a1.355,1.355,0,0,1-.734-.194c-3.9-2.435-7.938-4.9-11.989-7.313a.505.505,0,0,1-.033-.928,1.419,1.419,0,0,1,.757-.2,1.383,1.383,0,0,1,.713.18c4.047,2.415,8.092,4.883,12.022,7.335a.5.5,0,0,1,0,.927A1.359,1.359,0,0,1,575.051,117.118ZM6.438,116.6c-.05,0-.1,0-.149-.008l-.027,0a1.211,1.211,0,0,1-.675-.264.473.473,0,0,1-.178-.491c.923-3.464,1.992-6.941,3.178-10.332a1.068,1.068,0,0,1,1.038-.515,1.75,1.75,0,0,1,.206.012c.563.079.919.429.795.781-1.157,3.313-2.22,6.768-3.16,10.269A1.024,1.024,0,0,1,6.438,116.6Zm544.346-13.963a1.412,1.412,0,0,1-.7-.173c-4.164-2.372-8.386-4.723-12.548-6.989a.606.606,0,0,1-.354-.439.523.523,0,0,1,.253-.484,1.335,1.335,0,0,1,.776-.223,1.511,1.511,0,0,1,.7.16c3.973,2.16,8.089,4.451,12.582,7.005a.507.507,0,0,1,.068.928A1.384,1.384,0,0,1,550.783,102.636ZM13.644,96.109a1.623,1.623,0,0,1-.284-.021c-.558-.1-.884-.465-.728-.812,1.549-3.47,3.226-6.853,4.984-10.054a1.154,1.154,0,0,1,.99-.448,1.487,1.487,0,0,1,.338.038c.542.12.835.495.652.834-1.78,3.237-3.445,6.6-4.949,9.986A1.081,1.081,0,0,1,13.644,96.109Zm511.774-7.282a1.5,1.5,0,0,1-.668-.147c-4.293-2.236-8.667-4.462-13-6.617a.654.654,0,0,1-.388-.437.5.5,0,0,1,.221-.48,1.371,1.371,0,0,1,.823-.246,1.476,1.476,0,0,1,.64.136c4.429,2.2,8.818,4.431,13.042,6.633.443.232.507.645.141.922A1.374,1.374,0,0,1,525.418,88.826ZM24.57,76.288a1.724,1.724,0,0,1-.4-.047.946.946,0,0,1-.567-.361.428.428,0,0,1,.007-.5c2.177-3.251,4.557-6.466,7.073-9.556a1.2,1.2,0,0,1,.929-.361,1.549,1.549,0,0,1,.475.073.856.856,0,0,1,.52.379.438.438,0,0,1-.06.5c-2.477,3.042-4.837,6.229-7.014,9.472A1.163,1.163,0,0,1,24.57,76.288Zm474.589-.519a1.511,1.511,0,0,1-.628-.13c-4.7-2.226-9.216-4.324-13.426-6.236a.7.7,0,0,1-.418-.428.474.474,0,0,1,.185-.483,1.316,1.316,0,0,1,.846-.274,1.486,1.486,0,0,1,.616.127c4.367,1.98,8.895,4.083,13.459,6.251.458.214.548.625.2.917A1.356,1.356,0,0,1,499.159,75.769ZM472.065,63.484a1.575,1.575,0,0,1-.594-.116c-4.455-1.929-9.124-3.9-13.877-5.862a.741.741,0,0,1-.451-.414.462.462,0,0,1,.15-.492,1.327,1.327,0,0,1,.883-.292,1.529,1.529,0,0,1,.564.1c4.62,1.9,9.3,3.879,13.91,5.872a.73.73,0,0,1,.444.428.465.465,0,0,1-.167.484A1.332,1.332,0,0,1,472.065,63.484ZM39.793,57.627a1.516,1.516,0,0,1-.551-.1c-.488-.19-.642-.594-.343-.9,2.926-2.983,6.087-5.925,9.4-8.744a1.356,1.356,0,0,1,.846-.261,1.5,1.5,0,0,1,.618.125.68.68,0,0,1,.412.427.48.48,0,0,1-.2.484c-3.268,2.786-6.4,5.7-9.3,8.655A1.226,1.226,0,0,1,39.793,57.627Zm404.265-5.68a1.535,1.535,0,0,1-.551-.1c-4.646-1.818-9.453-3.65-14.288-5.443a.788.788,0,0,1-.486-.405.442.442,0,0,1,.119-.491,1.2,1.2,0,0,1,.888-.326,1.555,1.555,0,0,1,.542.1c4.77,1.768,9.594,3.6,14.338,5.459.485.195.631.6.325.906A1.281,1.281,0,0,1,444.058,51.947Zm-28.841-10.7a1.541,1.541,0,0,1-.51-.084c-4.778-1.675-9.723-3.357-14.7-5-.512-.169-.71-.566-.442-.886a1.255,1.255,0,0,1,.936-.352,1.526,1.526,0,0,1,.477.075c4.932,1.63,9.893,3.318,14.747,5.019a.818.818,0,0,1,.495.4.439.439,0,0,1-.094.495A1.242,1.242,0,0,1,415.217,41.249ZM59.665,40.777a1.393,1.393,0,0,1-.694-.168.6.6,0,0,1-.348-.439.532.532,0,0,1,.264-.483c3.731-2.634,7.68-5.172,11.737-7.545a1.5,1.5,0,0,1,1.472.026.545.545,0,0,1,.285.471.589.589,0,0,1-.335.456c-4.035,2.372-7.938,4.882-11.6,7.462A1.335,1.335,0,0,1,59.665,40.777Zm325.9-9.305a1.554,1.554,0,0,1-.459-.068c-5.046-1.56-10.126-3.076-15.1-4.506-.524-.154-.753-.544-.51-.87a1.206,1.206,0,0,1,.953-.385,1.563,1.563,0,0,1,.435.06c4.861,1.4,9.957,2.921,15.147,4.521.514.161.728.555.477.88A1.237,1.237,0,0,1,385.563,31.472ZM84.085,26.49a1.324,1.324,0,0,1-.828-.252.494.494,0,0,1-.208-.488.67.67,0,0,1,.4-.434c4.428-2.136,9.066-4.164,13.785-6.03a1.576,1.576,0,0,1,.558-.1,1.288,1.288,0,0,1,.888.3.457.457,0,0,1,.134.5.753.753,0,0,1-.46.4c-4.68,1.855-9.267,3.862-13.635,5.968A1.494,1.494,0,0,1,84.085,26.49Zm271.031-3.778a1.609,1.609,0,0,1-.409-.052c-5.288-1.408-10.5-2.736-15.492-3.946a.969.969,0,0,1-.575-.347.433.433,0,0,1-.018-.5,1.18,1.18,0,0,1,.986-.412,1.682,1.682,0,0,1,.368.04c5.052,1.225,10.283,2.558,15.549,3.961.536.141.781.519.56.859A1.2,1.2,0,0,1,355.117,22.712ZM112.343,15.325a1.2,1.2,0,0,1-.928-.361c-.259-.32-.053-.715.459-.881,4.95-1.579,10.1-3.049,15.3-4.369a1.433,1.433,0,0,1,.391-.053,1.168,1.168,0,0,1,.963.414c.217.334-.041.718-.576.854-5.136,1.3-10.227,2.756-15.132,4.322A1.634,1.634,0,0,1,112.343,15.325Zm211.54-.2a1.582,1.582,0,0,1-.351-.037c-5.093-1.126-10.429-2.235-15.859-3.3a1.063,1.063,0,0,1-.62-.328.428.428,0,0,1-.065-.49,1.1,1.1,0,0,1,.986-.462,1.531,1.531,0,0,1,.317.033c5.193,1.009,10.554,2.121,15.935,3.305a1.028,1.028,0,0,1,.6.337.433.433,0,0,1,.044.5A1.137,1.137,0,0,1,323.883,15.12ZM291.889,8.885a1.579,1.579,0,0,1-.275-.021c-5.344-.907-10.8-1.753-16.21-2.515a1.156,1.156,0,0,1-.655-.288.463.463,0,0,1-.139-.5,1.012,1.012,0,0,1,1-.51,1.777,1.777,0,0,1,.248.018c5.368.756,10.856,1.606,16.311,2.526.556.1.882.462.727.806A1.081,1.081,0,0,1,291.889,8.885ZM143.3,7.44a1.1,1.1,0,0,1-.995-.461.434.434,0,0,1,.07-.5,1.052,1.052,0,0,1,.615-.319c5.238-1.037,10.692-1.973,16.21-2.782a1.6,1.6,0,0,1,.238-.018,1.063,1.063,0,0,1,1.017.505.449.449,0,0,1-.129.493,1.157,1.157,0,0,1-.649.293c-5.445.8-10.849,1.728-16.059,2.757A1.649,1.649,0,0,1,143.3,7.44ZM259.218,4.3a1.824,1.824,0,0,1-.183-.011c-5.37-.6-10.922-1.132-16.5-1.571a1.3,1.3,0,0,1-.7-.249.49.49,0,0,1-.211-.485c.072-.34.5-.569,1.063-.569l.107,0c5.446.426,11.035.958,16.611,1.582a1.206,1.206,0,0,1,.67.27.473.473,0,0,1,.174.49A1.03,1.03,0,0,1,259.218,4.3ZM175.886,2.708c-.517,0-.963-.241-1.037-.56a.487.487,0,0,1,.2-.488,1.252,1.252,0,0,1,.688-.256C181.1.915,186.729.547,192.464.309A1.684,1.684,0,0,1,192.637.3c.579,0,.911.313.939.622a.513.513,0,0,1-.253.472,1.326,1.326,0,0,1-.717.22c-5.6.234-11.177.6-16.569,1.085A1.314,1.314,0,0,1,175.886,2.708ZM226,1.7h-.075c-5.562-.24-11.164-.372-16.652-.393-.586,0-1.046-.288-1.046-.655S208.691,0,209.268,0c5.539.021,11.192.153,16.8.393.568.025,1,.34.971.7C227,1.436,226.541,1.7,226,1.7Z"
          transform="translate(0 56.997)"/>
    <g transform="translate(204.68)">
      <g class="ai" transform="matrix(1, 0, 0, 1, -204.68, -30)">
        <rect class="c" width="250" height="444.647" rx="15" transform="translate(204.68 30)"/>
      </g>
      <rect class="d" width="64" height="32" rx="6" transform="translate(93 384)"/>
      <g transform="translate(30 30.031)">
        <path class="d"
              d="M6.551,59.384H52.783a6.553,6.553,0,0,0,6.551-6.556V6.556A6.553,6.553,0,0,0,52.783,0H6.551A6.554,6.554,0,0,0,0,6.556V52.828a6.554,6.554,0,0,0,6.551,6.556"
              transform="translate(66.957 0)"/>
        <rect class="e" width="140" height="15" rx="7" transform="translate(25 86.969)"/>
        <g transform="translate(0 129.969)">
          <rect class="d" width="190" height="15" rx="7"/>
          <rect class="d" width="190" height="15" rx="7" transform="translate(0 28)"/>
          <rect class="d" width="190" height="15" rx="7" transform="translate(0 56)"/>
          <rect class="d" width="87" height="15" rx="7" transform="translate(0 84)"/>
        </g>
      </g>
      <path class="d" d="M20.328,11v2H7.5l3.242,3.242L9.328,17.657,3.672,12,9.328,6.343l1.414,1.414L7.5,11Z"
            transform="translate(25.941 23.709)"/>
    </g>
    <g transform="translate(600.806 456.538)">
      <g transform="translate(21.388 0)">
        <path class="f"
              d="M10.337,133.57c1.557,0,4.573-1.782,5.59-14,2.229-26.777-.817-46.787,2.237-68.587C19.609,40.674,9.47,0,9.47,0S1.878,17.433.393,28.875c-.7,5.371,2.4,19.5.531,30.45C-1.826,75.445,2.246,88.2,4.262,111.106,6.4,135.375,7.78,133.57,10.337,133.57Z"
              transform="matrix(1, 0.017, -0.017, 1, 2.332, 0)"/>
        <path class="g"
              d="M11.253,119.613c3.428-22.4,2.84-34.182,3.58-44.332,1.552-21.291,1.5-24.507,1.359-32.392C15.914,26.978,6.994,0,6.994,0S9.367,32.078,8.047,60.285C6.87,85.433,4.119,82.451,4.588,109.322c.118,6.747.324,11.874.594,15.688.141,1.99-.762,7.645-5.02,9.23-1.728.643,11.007.851,11.373,1.472.92,1.562,3.517-1.952,2.517-2.8C11.044,130.345,10.9,121.938,11.253,119.613Z"
              transform="matrix(1, 0.017, -0.017, 1, 4.806, 0.043)"/>
      </g>
      <g transform="translate(4.316 19.023) rotate(-8)">
        <path class="f"
              d="M4.514,117.441c.679,0,1.994-1.566,2.436-12.3C7.92,81.593,6.59,64,7.92,44.831,8.549,35.763,4.123,0,4.123,0S.814,15.327.167,25.388C-.136,30.11,1.215,42.537.4,52.161-.8,66.334.981,77.547,1.862,97.69,2.8,119.028,3.4,117.441,4.514,117.441Z"
              transform="matrix(1, 0.017, -0.017, 1, 2.05, 0)"/>
        <path class="g"
              d="M4.844,104.774c1.474-19.617,1.22-29.941,1.538-38.832.667-18.65.642-21.467.582-28.373C6.843,23.632,3,0,3,0s1.025,28.1.459,52.806c-.5,22.028-1.689,19.417-1.485,42.954.051,5.91.141,10.4.257,13.742.061,1.743-.327,6.7-2.161,8.084-.744.563,4.74.746,4.9,1.29.4,1.369,1.514-1.71,1.084-2.456C4.755,114.175,4.691,106.81,4.844,104.774Z"
              transform="matrix(1, 0.017, -0.017, 1, 3.071, 0.009)"/>
      </g>
      <g transform="matrix(0.966, -0.259, 0.259, 0.966, 0.98, 79.933)">
        <path class="f"
              d="M4.514,57.962c.679,0,1.994-.773,2.436-6.073.97-11.619-.36-20.3.969-29.763C8.548,17.651,4.123,0,4.123,0S.814,7.564.167,12.529c-.3,2.331,1.048,8.464.235,13.213-1.2,6.995.579,12.529,1.46,22.47C2.8,58.744,3.4,57.962,4.514,57.962Z"
              transform="matrix(1, 0.017, -0.017, 1, 1.012, 0.003)"/>
        <path class="g"
              d="M5.506,51.71C6.98,42.029,3.36,38.4,3.677,34.015c.667-9.2,1.509-9.1,1.449-12.51C5.006,14.626,3.661,0,3.661,0S.672,16.781.106,28.975c-.5,10.872.936,6.578,1.141,18.194.051,2.917,1.528,5.225,1.645,6.873.061.86-.327,3.3-2.161,3.99-.744.278,4.74.369,4.9.637.4.676,1.514-.844,1.084-1.212C5.417,56.35,5.353,52.715,5.506,51.71Z"
              transform="matrix(1, 0.017, -0.017, 1, 1.363, 0)"/>
      </g>
      <g transform="matrix(0.914, -0.407, 0.407, 0.914, 0, 113.121)">
        <path class="f"
              d="M5.341,26.085c.679,0,2.306-.942,1.69-13.787A51.66,51.66,0,0,0,4.954,0S.757,7.1.11,9.337c-.3,1.049.027,5.879.907,10.353C1.95,24.43,4.226,26.085,5.341,26.085Z"
              transform="matrix(1, 0.017, -0.017, 1, 0.455, 0)"/>
        <path class="g"
              d="M5.5,23.272c1.474-4.357-.317-12.06-.377-13.594A87.8,87.8,0,0,0,3.663,0S.673,7.551.107,13.039C-.4,17.931,1.043,16,1.246,21.227,1.3,22.54,2.563,25.808.729,26.116c-.744.125,4.946,1.382,5.1,1.5a43.425,43.425,0,0,0,5.831,1.348C10.368,28.467,5.351,23.724,5.5,23.272Z"
              transform="matrix(1, 0.017, -0.017, 1, 1.632, 0.019)"/>
      </g>
      <g transform="translate(45.348 36.596) rotate(9)">
        <path class="f"
              d="M8.853,96.9c1.248,0-.492-2,.323-10.853C10.965,66.627,9.161,58.809,11.61,43,12.769,35.521,7.317,0,7.317,0S1.232,12.642.041,20.94c-.559,3.895,4.808,24.707,4.775,34.027-.046,12.827-2.453,13.36-.427,27.8C6.045,94.569,6.8,96.9,8.853,96.9Z"
              transform="matrix(1, 0.017, -0.017, 1, 1.691, 0.692)"/>
        <path class="g"
              d="M5.982,82.192c2.009-28.33,2.142-38.264,4.025-49.777C11.171,25.3,3,0,3,0s1.956,24.013.6,44.526C2.393,62.815-.424,60.647.054,80.188.845,112.535,5.34,91.238,5.982,82.192Z"
              transform="matrix(1, 0.017, -0.017, 1, 5.799, 0)"/>
      </g>
      <g transform="matrix(0.921, 0.391, -0.391, 0.921, 61.005, 92.656)">
        <path class="f"
              d="M6.451,42.727c1.567,0-2.632-2.893-1.608-6.8,2.246-8.563,1.993-10,5.068-16.969C11.367,15.661,4.517,0,4.517,0A59.376,59.376,0,0,1,1.963,9.328c-.7,1.718.464,9.063.423,13.173-.058,5.656-4.089,7.63-1.544,14C2.923,41.7,3.877,42.728,6.451,42.727Z"
              transform="matrix(1, 0.017, -0.017, 1, 0.746, 0.003)"/>
        <path class="g"
              d="M3.318,38.528c-.4-5.659,2.591-16.406,4.3-21.006C8.779,14.383,1.67,0,1.67,0S4.953,10.264,3.6,19.31C2.392,27.375-.424,26.419.054,35.036c.463,8.351,2.107,9.536,5.318,8.106C6.469,42.654,3.464,40.6,3.318,38.528Z"
              transform="matrix(1, 0.017, -0.017, 1, 3.196, 0)"/>
      </g>
      <g transform="translate(57.352 35.422) rotate(14)">
        <path class="f"
              d="M4.408,100.444c-.217-.809,1.7-.328,2.727-9.672,2.248-20.485-.018-28.733,3.059-45.41C11.649,37.472,4.8,0,4.8,0S1.633,17.114.135,25.868c-.7,4.109,1.565,22.288,1.522,32.12C1.6,71.52-1.425,72.082,1.12,87.314,3.2,99.765,4.892,102.249,4.408,100.444Z"
              transform="matrix(1, 0.017, -0.017, 1, 7.158, 0)"/>
        <path class="g"
              d="M14.095,85.416c2.011-29.707,2.145-40.123,4.029-52.2C19.288,25.756,9.79,0,9.79,0s3.281,24.41,1.926,45.92C10.507,65.1,7.691,62.824,8.167,83.315,8.325,90.088,3.123,98.66.093,100.937c-1.288.968,11.234.581,13.21-3.419.775-1.569,1.45-2.522,1.351-4.473C14.516,90.342,13.95,87.547,14.095,85.416Z"
              transform="matrix(1, 0.017, -0.017, 1, 1.769, 0.084)"/>
      </g>
      <path class="h"
            d="M2.04,36.88c1.688,0,3.876-8.971,3.055-10.675-1.369-2.841.6-9.311,0-14.258C4.588,7.759,2.037,0,2.037,0A26.811,26.811,0,0,0,0,9.412,62.716,62.716,0,0,0,.817,20.478C1.494,24.955.352,36.88,2.04,36.88Z"
            transform="translate(21.875 100.494) rotate(-7)"/>
      <path class="h"
            d="M3.263,21.595c4.758-.839-.933-.262-.593-3.364.439-4.006,1.8-9.977,1.2-12.268C3.363,4.023,1.774,0,1.774,0A78.594,78.594,0,0,0,.848,7.9a73.014,73.014,0,0,1-.224,7.359C.24,19.106-1.494,22.434,3.263,21.595Z"
            transform="matrix(0.985, 0.174, -0.174, 0.985, 32.647, 114.838)"/>
      <path class="h"
            d="M2.968,16.341c2.111-.373.809-1.408,1.2-3.755a17.259,17.259,0,0,0-.5-8.075A46.363,46.363,0,0,0,1.263,0S-.655,1.83.236,6.888C.7,9.514.857,16.714,2.968,16.341Z"
            transform="translate(40.09 119.832) rotate(19)"/>
      <path class="i"
            d="M27.89,1.869c15.233,0,27.582-.918,27.582-1.287S37.561,0,22.328,0,0,.522,0,.892,12.657,1.869,27.89,1.869Z"
            transform="translate(0.402 134.951)"/>
    </g>
    <g transform="translate(430.322 197.661)">
      <path class="j" d="M0,33.114H6.617V0H0Z" transform="translate(108.059 81.046)"/>
      <path class="k"
            d="M0,26.545l10.436.088.192-3.081c3.95,2.873,17.651,3.386,28.93,3.273-13.414-6.773-26.231-14.5-27.151-15.4a.167.167,0,0,1-.029-.043c-.73-.864-1.617-6.649-1.791-11.289L.31,0,2.14,13.687a2.183,2.183,0,0,0-.235.355C.236,16.94,0,26.545,0,26.545"
            transform="translate(116.4 368.135)"/>
      <path class="l"
            d="M2.191,16.853a2.7,2.7,0,0,0-.281.437c4.332.171,10-2.133,12.531-3.278-.873-1.064-1.935-8.187-2.144-13.9L0,0Z"
            transform="translate(116.771 361.927)"/>
      <path class="c" d="M1.756,6.685l3.781-5.47L3.781,0,0,5.47Z" transform="translate(137.09 379.913)"/>
      <path class="c" d="M1.757,6.686,5.538,1.214,3.781,0,0,5.47Z" transform="translate(134.19 378.146)"/>
      <path class="c" d="M1.756,6.685l3.781-5.47L3.781,0,0,5.47Z" transform="translate(130.958 376.432)"/>
      <path class="k"
            d="M33.765,26.545l-8.9.088L24.7,23.552C21.334,26.426,9.65,26.939.031,26.825c0,0,22.369-14.5,23.154-15.4a.17.17,0,0,0,.025-.043c.622-.864,1.379-6.649,1.528-11.289L33.5,0,31.94,13.687a2.245,2.245,0,0,1,.2.355c1.424,2.9,1.625,12.5,1.625,12.5"
            transform="translate(49.08 368.135)"/>
      <path class="l"
            d="M12.251,16.853a2.7,2.7,0,0,1,.281.437C8.2,17.461,2.534,15.157,0,14.012.873,12.948,1.935,5.825,2.144.112L14.442,0Z"
            transform="translate(68.032 361.927)"/>
      <path class="c" d="M3.781,6.685,0,1.214,1.757,0,5.536,5.47Z" transform="translate(62.75 376.432)"/>
      <path class="k"
            d="M64.021-1.866S83.239,174.209,81.244,185.6l-37.5,3.517L39.726,30.6l-7.486,2.269L26.173,189.121l-34.52-7.252L8.039,12.452Z"
            transform="translate(67.41 200.051)"/>
      <g transform="translate(0 29.671) rotate(-8)">
        <rect class="c" width="213.192" height="33" rx="4" transform="translate(0 0)"/>
        <path class="m" d="M0,0H34a4,4,0,0,1,4,4V29a4,4,0,0,1-4,4H0a0,0,0,0,1,0,0V0A0,0,0,0,1,0,0Z"
              transform="translate(175.192 0)"/>
        <g transform="translate(185.056 7.532)">
          <path class="n"
                d="M18.319,14.433a8,8,0,1,0-1.412,1.412l.042.045,4.243,4.243a1,1,0,0,0,1.414-1.414l-4.243-4.243Zm-2.076-9.15a6,6,0,1,1-8.485,0A6,6,0,0,1,16.243,5.283Z"
                transform="translate(-4 -1.525)"/>
        </g>
      </g>
      <path class="o" d="M-10.349,93.288,5.678-.173,53.592-6.3,68.08,79.739" transform="translate(76.566 123.566)"/>
      <path class="l"
            d="M17.515,17.231A30.786,30.786,0,0,1,0,17.344,17.441,17.441,0,0,0,1.9,10.2c.112-1.142.166-2.291.181-3.37A53.222,53.222,0,0,0,1.847.684L14.5,0l.321,1.784,1.431,8.184Z"
            transform="translate(95.964 104.517)"/>
      <path class="p"
            d="M14.346,8.184A63.767,63.767,0,0,1,0,8.412C.112,7.27.165,6.121.181,5.042c0,0,9.3-1.782,12.734-5.042Z"
            transform="translate(97.866 106.3)"/>
      <path class="l" d="M3.494,0S-6.332,34.34,6.972,40.636c13.964,6.61,23.681-12.26,23.681-12.26L33.842,4.309Z"
            transform="translate(86.13 69.368)"/>
      <path class="q"
            d="M40.87,44.136C45.806,39.685,48.4,33.1,49.325,26.519c.551-3.912.519-8.124-1.481-11.53s-4.921-4.944-13.757-7.775S15.323,5.459,12.5,3.662C11.267,2.876,10.466.967,11.563,0,8.618,1.383.742,8.83.181,11.8a10.952,10.952,0,0,0,2.025,8.558,14.1,14.1,0,0,0,7.9,4.826,34.017,34.017,0,0,0,9.382.668,91.068,91.068,0,0,1,.222,17.024,8.277,8.277,0,0,1,2.078-3.189,2.817,2.817,0,0,1,3.525-.116,3.61,3.61,0,0,1,.8,2.923,9.223,9.223,0,0,1-1.72,5.019,5.785,5.785,0,0,1-4.608,2.365C18.29,58.491,27.216,61.833,28.113,62.2a6.733,6.733,0,0,1,.141-3.52,6.811,6.811,0,0,0,3.632,2.676c-.879-1.613-.134-3.632.876-5.166,2.613-3.968,4.579-8.872,8.107-12.053"
            transform="translate(83.447 54.496)"/>
      <path class="l"
            d="M22.681,10.692l-2-3.587L18.538.882,13.64,0,9.424,3.679S3.432,4.921,2.41,7.3,2.2,20.856,2.2,20.856l3.125,2.949L5,26.7,0,63.215H12.9l3.875-35.5.428-2.383,6.385-5.123Z"
            transform="translate(39.501 39.7)"/>
      <path class="o" d="M15.661,29.579l4.772-42.719L6.689-14.4,2.084,34.252,49.358,69.18l5.594-27.289"
            transform="translate(36.771 82.118)"/>
      <path class="l"
            d="M0,11.708l1.554-3.8L2.928,1.467,7.683,0l4.628,3.144s6.1.508,7.4,2.748S21.56,19.319,21.56,19.319l-2.745,3.306.669,2.832L28.857,61.1l-12.8,1.56L7.919,27.9l-.713-2.314L.25,21.269Z"
            transform="translate(144.053 24.733)"/>
      <path class="o" d="M44.38,30.839,33.5-7.684l14.346-3.257L60.224,33.8,7.061,82.342,0,58.472"
            transform="translate(117.626 65.094)"/>
    </g>
    <g transform="translate(297.52 227.777)">
      <path class="r" d="M12.394,0,0,13.21H21.815l5.163-6.917V13.21h5.646V0Z" transform="translate(63.095 351.689)"/>
      <path class="r" d="M12.132,0,0,10.07H21.353L26.407,4.8V10.07h5.527V0Z"
            transform="translate(107.54 356.779) rotate(-3)"/>
      <path class="p"
            d="M47.479,28.381,32.3,5.786,15.636,0l-.344,2.84L25.08,9.123,14.175,12.085,2.036,2.565,0,4.756,12.66,17.293l16.634-1.336,7.627,14.995Z"
            transform="translate(42.08 87.053)"/>
      <path class="r" d="M18.83-1.633s27.416,44.922,23.57,49.4-47.52-5.9-47.52-5.9Z"
            transform="translate(109.306 78.198)"/>
      <path class="l"
            d="M17.665,17.379A31.049,31.049,0,0,1,0,17.493a17.637,17.637,0,0,0,1.918-7.209c.113-1.152.168-2.311.182-3.4a53.717,53.717,0,0,0-.237-6.2L14.622,0l.323,1.8,1.443,8.256Z"
            transform="translate(97.129 51.703)"/>
      <path class="p"
            d="M14.47,8.256A64.324,64.324,0,0,1,0,8.486c.113-1.152.168-2.311.184-3.4,0,0,9.376-1.8,12.843-5.087Z"
            transform="translate(99.046 53.5)"/>
      <path class="l" d="M0,4.02s-.277,36.025,14.35,38.545C29.7,45.21,34.05,24.248,34.05,24.248L30.653,0Z"
            transform="translate(83.23 17.872)"/>
      <path class="p" d="M.366,3.672A2.4,2.4,0,1,0,1.128.365,2.4,2.4,0,0,0,.366,3.672"
            transform="translate(89.559 42.99)"/>
      <path class="s"
            d="M4.277.114,0,2.281S4.262,6.619,14.017,6.115c8.4-.432,12.106-4.282,12.106-4.282L21.942,0A41.214,41.214,0,0,1,4.277.114"
            transform="translate(92.852 69.082)"/>
      <path class="k"
            d="M73.388,204.005l-37.8-1.855L39.277,21.307l-3.9.851L25.919,202.151l-38.653,1.855L8.946,9.548l55.63-8.467"
            transform="translate(75.462 153.538)"/>
      <path class="t"
            d="M6.551,59.384H52.783a6.553,6.553,0,0,0,6.551-6.556V6.556A6.553,6.553,0,0,0,52.783,0H6.551A6.554,6.554,0,0,0,0,6.556V52.828a6.554,6.554,0,0,0,6.551,6.556"
            transform="translate(5.116 38.255)"/>
      <path class="c"
            d="M13.182,17.615a9.183,9.183,0,1,1,7.338,0A16.86,16.86,0,0,1,33.7,34.066v1.012H0V34.066A16.861,16.861,0,0,1,13.182,17.615"
            transform="translate(17.933 49.112)"/>
      <path class="u" d="M32.391,8.164v0Z" transform="translate(68.433 346.773)"/>
      <path class="r"
            d="M-9.314,97.556S-2.605,5.752,1.814,2.369C7.045-1.634,13.19.647,13.19.647l13.061.8L31.23.2s5.648-1.312,9.133,5.189c1.928,3.6,21.254,82.332,21.254,82.332"
            transform="translate(87.746 70.716)"/>
      <path class="l"
            d="M47.479,28.382,32.3,5.787,15.636,0l-.344,2.84L25.08,9.124,14.174,12.085,2.036,2.565,0,4.757,12.66,17.294l16.634-1.336,7.627,14.993Z"
            transform="translate(0 87.555)"/>
      <path class="r"
            d="M61.264,0S50.948,4.4,48.077,15.171,33.009,59.158,33.009,59.158L9.043,28.294-1.79,34.613s31.053,51.213,34.8,51.006,22.193-28.53,27.9-49.431A71.089,71.089,0,0,0,61.264,0"
            transform="translate(30.693 71.786)"/>
      <path class="k"
            d="M4.356,27.39c-.159-.432,0-1.581-.163-2.013A17.359,17.359,0,0,1,17.773,39.6,17.364,17.364,0,0,1,8.707,57.053c10.358,1.149,21.009,1.5,31.033-1.346s21-9.344,25.374-18.813c-1.262.763-4.421-.168-5.47-1.207-6.2-6.139-8.141-15.217-11.328-23.34C47.132,9.325,45.669,6.284,43.184,4.2s-6.227-2.979-9.03-1.345C32.079.485,27.747-.134,24.606.023A27.237,27.237,0,0,0,.74,18.206,10.416,10.416,0,0,0,.151,23.6a5.64,5.64,0,0,0,4.2,3.791"
            transform="translate(79.05 0)"/>
    </g>
    <g transform="translate(150.814 229.009)">
      <path class="v"
            d="M-33.873,32.635l7.27-7.414A23.128,23.128,0,0,1-32.924,9.128c.158-9.94,15.01-10.728,21.331-7.256S1.837,15.6,1.837,15.6H-3.534L-2.27,28.374-11.593,26.8l-4.424,15.777Z"
            transform="translate(113.145 3.66)"/>
      <path class="w" d="M-9.183,0-5.39,10.572H.5S-5.855,2.59-9.183,0" transform="translate(115.001 8.685)"/>
      <path class="x"
            d="M-3.861,5.068-.331,18.386s-1.637-5.343-5.347-4.415,1.091,9.209,1.091,9.209l-17.749-1.029s-3.669-4.2-2.84-12.374S-10.155-1.121-4.26.4,1.37,2.475,1.37,2.475Z"
            transform="translate(104.447)"/>
      <path class="y"
            d="M-44.855,12.117-64.283,0-71.8,10.4s-31.023-5.788-37.082-4.344-35.388,42.82-32.962,45.967,24.72,8.954,24.72,8.954L-124.391,95.1l72.713,21.536V78.887s20.357,46.461,26.66,49.367,11.392-5.083,14.057-14.037S7.7,54.2,7.7,54.2l-8-4.838L-18.958,76.71s-2.667-25.409-4.85-28.556S-49.5,25.65-49.5,25.65Z"
            transform="translate(141.982 34.116)"/>
      <path class="v"
            d="M-14.321,11.631l2.252-3.56s-3.41-6.495.379-7.25A41.406,41.406,0,0,1-5.246,0s-5.1,1.513-4.54,3.279S-.575,1.45.372,1.134.563,9.207-1.52,10.217-8.025,9.207-8.025,9.207l-2.1,4.964Z"
            transform="translate(158.081 73.106)"/>
      <path class="z"
            d="M-79.447,0l-20.929,216.981L-68.211,222-52.428,48.592l7.177,3.5L-38.075,222s23.881,3.583,43.52,0L-15.334,18.991Z"
            transform="translate(100.376 130.206)"/>
      <path class="z" d="M-9.937.711,1.7,11.985-22.219,6.347-25.45,4.241v3.55l-5.818-1.444V0Z"
            transform="translate(100.571 353.006)"/>
      <path class="z" d="M-15.2,3.872,1.7,16.779-22.2,6.408l-2.929,2.949L-31.268,7.2V0Z"
            transform="translate(36.259 346.599)"/>
    </g>
    <g transform="translate(90.894 534.853)">
      <path class="aa" d="M4.495,26c2.483,0,4.5.088,4.5-7.091S4.5,0,4.5,0,0,11.73,0,18.909,2.012,26,4.495,26Z"
            transform="translate(90.542 43.762) rotate(74)"/>
      <path class="ab"
            d="M1.5,25.981c2.48,0,4.491.088,4.493-7.087S1.51,0,1.51,0,.361,12.308.36,19.483-.976,25.982,1.5,25.981Z"
            transform="translate(91.454 46.2) rotate(74)"/>
      <path class="aa"
            d="M8.99,40.991c4.967,0,8.994.137,9-11.183S9.005,0,9.005,0,0,18.5,0,29.815,4.023,40.993,8.99,40.991Z"
            transform="translate(88.72 22.908) rotate(59)"/>
      <path class="ab"
            d="M1.542,40.983c4.923,0,8.656.661,10.263-10.35S1.557,0,1.557,0s3.507,16.621,3.5,27.938S-3.381,40.985,1.542,40.983Z"
            transform="translate(93.26 29.472) rotate(59)"/>
      <path class="ab"
            d="M1.448,16.475c2.416.791,4.338,1.369,7.253-3.87C10.643,9.59,11.744,5.457,12,0A18.07,18.07,0,0,0,2.686,7.591C-.229,13.244-.968,15.5,1.448,16.475Z"
            transform="matrix(0.978, 0.208, -0.208, 0.978, 67.682, 22.628)"/>
      <path class="ab"
            d="M10.548,16.472c-2.416.792-4.339,1.37-7.251-3.867C1.355,9.589.256,5.457,0,0A18.05,18.05,0,0,1,9.313,7.588C12.225,13.239,12.964,15.5,10.548,16.472Z"
            transform="matrix(0.966, 0.259, -0.259, 0.966, 37.19, 16.435)"/>
      <path class="aa" d="M8.993,50.967c4.97,0,9,.171,9-13.9S9.011,0,9.011,0,.005,23,0,37.07,4.024,50.969,8.993,50.967Z"
            transform="matrix(0.875, 0.485, -0.485, 0.875, 69.267, 6.531)"/>
      <path class="ab"
            d="M2.05,50.967c4.942,0,8.947.171,8.952-13.9S2.068,0,2.068,0,6.863,22.768,4.615,36.4-2.891,50.969,2.05,50.967Z"
            transform="matrix(0.875, 0.485, -0.485, 0.875, 75.823, 10.224)"/>
      <path class="aa"
            d="M4.825,20.98C1.064,20.979,0,20.536,0,14.611S5.177,0,5.177,0s6.815,9.682,6.817,15.607S8.587,20.982,4.825,20.98Z"
            transform="matrix(0.602, -0.799, 0.799, 0.602, 0.795, 45.643)"/>
      <path class="ab"
            d="M7.695,23.993C3.975,23.992,0,21.538,0,15.448S6.377,0,6.377,0s-.392,7.3-.39,13.394S11.415,23.995,7.695,23.993Z"
            transform="matrix(0.602, -0.799, 0.799, 0.602, 0, 47.041)"/>
      <path class="aa"
            d="M10,30.991c-5.52,0-9.995.1-10-8.456S9.986,0,9.986,0s10,13.985,10,22.543S15.518,30.993,10,30.991Z"
            transform="matrix(0.602, -0.799, 0.799, 0.602, 4.398, 40.831)"/>
      <path class="ab"
            d="M9.934,32.954C4.484,32.952,0,31.776,0,23.088S10.286,0,10.286,0,3.2,16.764,5.91,25.36,15.384,32.956,9.934,32.954Z"
            transform="matrix(0.602, -0.799, 0.799, 0.602, 4.007, 41.034)"/>
      <path class="aa"
            d="M10,43.971c-5.522,0-10,.147-10-12S9.987,0,9.987,0,19.992,19.84,20,31.982,15.524,43.972,10,43.971Z"
            transform="matrix(0.891, -0.454, 0.454, 0.891, 14.899, 20.63)"/>
      <path class="ab"
            d="M10.234,43.94c-5.59,0-10.23.785-10.234-11.4S9.71,0,9.71,0,2.222,20.661,4.393,32.892,15.824,43.942,10.234,43.94Z"
            transform="matrix(0.891, -0.454, 0.454, 0.891, 15.463, 20.814)"/>
      <path class="ac"
            d="M7.972,55.956c7.192,0,13.022.189,13.025-15.263S7.983,0,7.983,0,0,19.738,0,35.19.78,55.957,7.972,55.956Z"
            transform="translate(49.865 0) rotate(14)"/>
      <path class="ab"
            d="M7.926,42.915c4.211.34,13.995-.559,13-16.048A70.689,70.689,0,0,0,13.688,0s8.24,33.145-2.62,39.274C-1.786,46.528.1,23.1.1,28.016.093,43.48,3.716,42.575,7.926,42.915Z"
            transform="translate(46.294 13.795) rotate(14)"/>
      <path class="ab"
            d="M1.449,16.472c2.416.792,4.339,1.37,7.251-3.867C10.641,9.589,11.74,5.457,12,0A18.05,18.05,0,0,0,2.683,7.588C-.229,13.239-.968,15.5,1.449,16.472Z"
            transform="matrix(0.966, -0.259, 0.259, 0.966, 42.794, 39.523)"/>
      <path class="ad"
            d="M7.443,27.985C3.334,27.983,0,28.078,0,20.35S7.431,0,7.431,0,11.992,9.872,12,17.6,11.551,27.987,7.443,27.985Z"
            transform="matrix(0.799, -0.602, 0.602, 0.799, 25.577, 35.11)"/>
      <path class="ab"
            d="M7.507,27.985c-4.144,0-7.5.093-7.507-7.635S7.5,0,7.5,0A155.1,155.1,0,0,0,5.85,18.651C5.853,26.379,11.652,27.987,7.507,27.985Z"
            transform="matrix(0.799, -0.602, 0.602, 0.799, 25.275, 35.207)"/>
      <path class="i" d="M35.194,3C54.417,3,70,1.526,70,.934S47.4,0,28.175,0,0,.838,0,1.43,15.971,3,35.194,3Z"
            transform="translate(12.786 55.665)"/>
    </g>
    <g transform="translate(152.826 111.791)">
      <g transform="translate(0 34.915)">
        <path class="ae"
              d="M125.08,0H7.425A7.419,7.419,0,0,0,0,7.414v41.86a7.423,7.423,0,0,0,7.425,7.419H14.59l8.08,10.786a3.6,3.6,0,0,0,6.355-1.2l2.62-9.582H125.08a7.419,7.419,0,0,0,7.42-7.419V7.414A7.414,7.414,0,0,0,125.08,0"/>
        <path class="c" d="M0,3.748H104.025V1.25H0Z" transform="translate(11.559 9.734)"/>
        <path class="c" d="M0,3.748H68.69V1.25H0Z" transform="translate(11.559 21.554)"/>
        <path class="c" d="M0,3.748H85.86V1.25H0Z" transform="translate(11.559 33.374)"/>
      </g>
    </g>
    <g transform="matrix(0.766, -0.643, 0.643, 0.766, 49.453, 72.738)">
      <path class="af" d="M52.139,25.382,10.255,0,0,10.464Z" transform="translate(0 16.257)"/>
      <path class="ag" d="M0,19.641.6,0,41.891,13.76Z" transform="translate(10.249 27.878)"/>
      <path class="ag" d="M0,0,41.935,41.639.051,16.257Z" transform="translate(10.205)"/>
      <path class="ah" d="M0,0,10.847,1.158,10.76,4.01Z" transform="translate(0 26.721)"/>
    </g>
  </g>
</svg>
