<svg xmlns="http://www.w3.org/2000/svg" width="22" height="16" viewBox="0 0 22 16">
  <defs>
    <style>.a {
      fill: #fff;
    }</style>
  </defs>
  <path class="a"
        d="M11,16h0c-.057,0-5.74-.056-7.48-.229-.084-.016-.185-.029-.3-.043A3.193,3.193,0,0,1,1.094,14.8,5.048,5.048,0,0,1,.22,12.541,35.962,35.962,0,0,1,0,8.861V7.132a36.013,36.013,0,0,1,.22-3.68,5.049,5.049,0,0,1,.874-2.258A2.987,2.987,0,0,1,3.161.246L3.3.231C6.342,0,10.95,0,11,0h.01c.046,0,4.653,0,7.7.231l.14.015a2.979,2.979,0,0,1,2.065.947,5.059,5.059,0,0,1,.874,2.258A35.963,35.963,0,0,1,22,7.132V8.859a35.987,35.987,0,0,1-.22,3.68,5.057,5.057,0,0,1-.874,2.26,2.986,2.986,0,0,1-2.065.949l-.141.015C15.654,15.991,11.046,16,11,16ZM8.555,4.572v6.857l6.111-3.417Z"/>
</svg>
