<svg width="24" height="24" viewBox="0 0 24 24" fill="none" xmlns="http://www.w3.org/2000/svg">
<g id="code_file_sync">
<path id="Shape" fill-rule="evenodd" clip-rule="evenodd" d="M21.5117 4.79979L19.5 2.86939C19.1875 2.56883 18.7632 2.39988 18.3208 2.39979H8.66667C7.74619 2.39979 7 3.11614 7 3.99979V9.8222C6.99906 9.9301 7.08846 10.0188 7.20084 10.0214C7.50417 10.0286 8.065 10.0542 8.43834 10.095C8.49691 10.1014 8.55554 10.0834 8.59926 10.0454C8.64297 10.0074 8.66753 9.95319 8.66667 9.8966V4.39979C8.66667 4.17888 8.85322 3.99979 9.08334 3.99979H18.1492C18.2595 3.99982 18.3653 4.04182 18.4433 4.11659L20.2117 5.81339C20.29 5.88875 20.3338 5.99096 20.3333 6.09739V16.7998C20.3333 17.0207 20.1468 17.1998 19.9167 17.1998H14.2017C14.1007 17.2004 14.0153 17.2718 14.0008 17.3678C13.9384 17.7649 13.8368 18.1555 13.6975 18.5342C13.6736 18.5942 13.6821 18.6616 13.72 18.7145C13.758 18.7674 13.8206 18.799 13.8875 18.799H20.3333C21.2538 18.799 22 18.0827 22 17.199V5.93179C22.0001 5.50721 21.8245 5.09998 21.5117 4.79979ZM15.6017 12.1598C15.8481 12.3799 16.2317 12.3736 16.47 12.1454L16.4842 12.1302L18.7067 9.8454C18.9307 9.61466 18.9307 9.25693 18.7067 9.0262L16.485 6.7414C16.2491 6.4992 15.8533 6.48631 15.6008 6.7126C15.4758 6.819 15.4017 6.97007 15.3961 7.13041C15.3904 7.29075 15.4536 7.44629 15.5708 7.5606L17.395 9.4398L15.5717 11.3118C15.3365 11.5541 15.3499 11.9334 15.6017 12.1598ZM14.2475 12.1454C14.2442 12.1486 14.1992 12.1798 14.1533 12.2086C14.1275 12.2246 14.0833 12.1878 14.0833 12.1878C14.0849 11.5412 13.6793 10.9577 13.0567 10.711C12.736 10.5852 12.3818 10.561 12.0458 10.6422C11.9747 10.6601 11.8992 10.6395 11.8483 10.5886L11.1267 9.8462C10.9026 9.61519 10.9026 9.2572 11.1267 9.0262L13.3483 6.7454L13.3633 6.7302C13.6038 6.49422 13.9976 6.48901 14.2447 6.71854C14.4918 6.94807 14.4994 7.32612 14.2617 7.5646L12.4383 9.4398L14.2625 11.3118C14.4927 11.548 14.4861 11.917 14.2475 12.1454ZM11.8083 17.2798C11.3856 17.1407 10.9239 17.3465 10.7617 17.7462C10.5714 18.3497 10.2012 18.8865 9.69667 19.2902C8.26593 20.3717 6.20756 20.2068 4.98333 18.9126C4.9099 18.8314 4.91502 18.7094 4.995 18.6342L6.425 17.2614C6.54378 17.147 6.57925 16.9753 6.51492 16.826C6.45058 16.6768 6.29907 16.5794 6.13084 16.579H2.41667C2.18655 16.579 2 16.7581 2 16.979V20.5446C2.00004 20.7065 2.10168 20.8523 2.2575 20.9142C2.41332 20.976 2.5926 20.9416 2.71167 20.827L3.52333 20.047C3.56272 20.0093 3.61645 19.9888 3.67202 19.9902C3.7276 19.9915 3.78017 20.0147 3.8175 20.0542C5.03495 21.306 6.84807 21.8516 8.59203 21.4909C10.336 21.1302 11.7542 19.9162 12.3267 18.2942C12.4747 17.8767 12.2428 17.423 11.8083 17.2798ZM12.1217 11.9054C12.2407 11.7908 12.42 11.7564 12.5758 11.8182C12.7317 11.88 12.8333 12.0259 12.8333 12.1878V15.7534C12.8333 15.9743 12.6468 16.1534 12.4167 16.1534H8.7025C8.53426 16.153 8.38275 16.0556 8.31842 15.9064C8.25409 15.7571 8.28956 15.5854 8.40834 15.471L9.78667 14.1486C9.8669 14.0723 9.87128 13.9492 9.79667 13.8678C8.56661 12.5896 6.51808 12.4379 5.09833 13.5198C4.59776 13.9202 4.22968 14.452 4.03917 15.0502C3.882 15.4655 3.40387 15.6799 2.97125 15.529C2.53863 15.3781 2.31533 14.9191 2.4725 14.5038C3.04794 12.8882 4.46107 11.6789 6.19872 11.3149C7.93638 10.9509 9.74583 11.4852 10.97 12.7238C11.0075 12.7629 11.0601 12.7856 11.1154 12.7866C11.1708 12.7877 11.2242 12.767 11.2633 12.7294L12.1217 11.9054Z" fill="#5A5A5A"/>
</g>
</svg>
