<?xml version="1.0" encoding="UTF-8"?>
<svg width="24px" height="24px" viewBox="0 0 24 24" version="1.1" xmlns="http://www.w3.org/2000/svg" xmlns:xlink="http://www.w3.org/1999/xlink">
    <title>17. Building and Construction/apartment</title>
    <g id="17.-Building-and-Construction/apartment" stroke="none" stroke-width="1" fill="none" fill-rule="evenodd">
        <path d="M12.2083333,7.625 C13.8191639,7.625 15.125,8.93083615 15.125,10.5416667 C15.125,10.8868446 15.404822,11.1666667 15.75,11.1666667 L15.75,11.1666667 L20.7591667,11.1666667 C20.9892853,11.1666667 21.1758333,11.3532147 21.1758333,11.5833333 L21.1758333,11.5833333 L21.1758333,21.1666667 C21.1758333,21.626904 20.8027373,22 20.3425,22 L20.3425,22 L13.6666667,22 C13.436548,22 13.25,21.813452 13.25,21.5833333 L13.25,21.5833333 L13.25,19.0833333 C13.25,18.3929774 12.6903559,17.8333333 12,17.8333333 C11.3096441,17.8333333 10.75,18.3929774 10.75,19.0833333 L10.75,19.0833333 L10.75,21.5833333 C10.75,21.813452 10.563452,22 10.3333333,22 L10.3333333,22 L3.67666667,22 C3.21642938,22 2.84333333,21.626904 2.84333333,21.1666667 L2.84333333,21.1666667 L2.84333333,11.5833333 C2.84333333,11.3532147 3.02988135,11.1666667 3.26,11.1666667 L3.26,11.1666667 L8.25,11.1666667 C8.59517797,11.1666667 8.875,10.8868446 8.875,10.5416667 C8.875,8.93083615 10.1808361,7.625 11.7916667,7.625 L11.7916667,7.625 Z M7.84333333,17.8333333 L5.34333333,17.8333333 C5.11321469,17.8333333 4.92666667,18.0198814 4.92666667,18.25 L4.92666667,18.25 L4.92666667,19.9166667 C4.92666667,20.1467853 5.11321469,20.3333333 5.34333333,20.3333333 L5.34333333,20.3333333 L7.84333333,20.3333333 C8.07345198,20.3333333 8.26,20.1467853 8.26,19.9166667 L8.26,19.9166667 L8.26,18.25 C8.26,18.0198814 8.07345198,17.8333333 7.84333333,17.8333333 L7.84333333,17.8333333 Z M18.6566667,17.8333333 L16.1566667,17.8333333 C15.926548,17.8333333 15.74,18.0198814 15.74,18.25 L15.74,18.25 L15.74,19.9166667 C15.74,20.1467853 15.926548,20.3333333 16.1566667,20.3333333 L16.1566667,20.3333333 L18.6566667,20.3333333 C18.8867853,20.3333333 19.0733333,20.1467853 19.0733333,19.9166667 L19.0733333,19.9166667 L19.0733333,18.25 C19.0733333,18.0198814 18.8867853,17.8333333 18.6566667,17.8333333 L18.6566667,17.8333333 Z M7.83333333,13.25 L5.33333333,13.25 C5.10321469,13.25 4.91666667,13.436548 4.91666667,13.6666667 L4.91666667,13.6666667 L4.91666667,15.3333333 C4.91666667,15.563452 5.10321469,15.75 5.33333333,15.75 L5.33333333,15.75 L7.83333333,15.75 C8.06345198,15.75 8.25,15.563452 8.25,15.3333333 L8.25,15.3333333 L8.25,13.6666667 C8.25,13.436548 8.06345198,13.25 7.83333333,13.25 L7.83333333,13.25 Z M18.6666667,13.25 L16.1666667,13.25 C15.936548,13.25 15.75,13.436548 15.75,13.6666667 L15.75,13.6666667 L15.75,15.3333333 C15.75,15.563452 15.936548,15.75 16.1666667,15.75 L16.1666667,15.75 L18.6666667,15.75 C18.8967853,15.75 19.0833333,15.563452 19.0833333,15.3333333 L19.0833333,15.3333333 L19.0833333,13.6666667 C19.0833333,13.436548 18.8967853,13.25 18.6666667,13.25 L18.6666667,13.25 Z M12,9.91666667 C11.3096441,9.91666667 10.75,10.4763107 10.75,11.1666667 L10.75,11.1666667 L10.75,13.6666667 C10.75,13.8967853 10.936548,14.0833333 11.1666667,14.0833333 L11.1666667,14.0833333 L12.8333333,14.0833333 C13.063452,14.0833333 13.25,13.8967853 13.25,13.6666667 L13.25,13.6666667 L13.25,11.1666667 C13.25,10.4763107 12.6903559,9.91666667 12,9.91666667 Z M17.9716667,1.99998697 C18.2995804,2.00050332 18.5967169,2.19326696 18.7308333,2.4925 L18.7308333,2.4925 L21.9166667,8.72333333 L21.9266667,8.7425 C22.0421985,9.00026705 22.0192857,9.29901177 21.8657966,9.53614578 C21.7123074,9.77327979 21.4491404,9.91651574 21.1666667,9.91666667 L21.1666667,9.91666667 L16.6716667,9.91666667 C16.4784044,9.91634557 16.3107303,9.78317228 16.2666667,9.595 C15.8241744,7.71048702 14.1440974,6.37746494 12.2083333,6.375 L12.2083333,6.375 L11.7916667,6.375 C9.8559026,6.37746494 8.17582561,7.71048702 7.73333333,9.595 C7.68926974,9.78317228 7.5215956,9.91634557 7.32833333,9.91666667 L7.32833333,9.91666667 L2.83333333,9.91666667 C2.55085955,9.91651574 2.28769257,9.77327979 2.13420341,9.53614578 C1.98071426,9.29901177 1.9578015,9.00026705 2.07333333,8.7425 L2.07333333,8.7425 L5.27833333,2.4725 C5.41513971,2.18251971 5.70770688,1.99820239 6.02833333,1.99998697 L6.02833333,1.99998697 Z" id="ðŸ–-Color" fill="#5A5A5A"></path>
        <rect id="_Transparent_Rectangle_" x="0" y="0" width="24" height="24"></rect>
    </g>
</svg>