<?xml version="1.0" encoding="UTF-8"?>
<svg width="24px" height="24px" viewBox="0 0 24 24" version="1.1" xmlns="http://www.w3.org/2000/svg" xmlns:xlink="http://www.w3.org/1999/xlink">
    <title>17. Building and Construction/building_cloudy</title>
    <g id="17.-Building-and-Construction/building_cloudy" stroke="none" stroke-width="1" fill="none" fill-rule="evenodd">
        <path d="M6.5,18.25 C6.77614237,18.25 7,18.4738576 7,18.75 L7,21.5 C7,21.7761424 6.77614237,22 6.5,22 L3.33333333,22 C3.05719096,22 2.83333333,21.7761424 2.83333333,21.5 L2.83333333,18.75 C2.83333333,18.4738576 3.05719096,18.25 3.33333333,18.25 L6.5,18.25 Z M21.5833333,2 C21.813452,2 22,2.18654802 22,2.41666667 L22,2.41666667 L22,21.5833333 C22,21.813452 21.813452,22 21.5833333,22 L21.5833333,22 L15.75,22 C15.5198814,22 15.3333333,21.813452 15.3333333,21.5833333 L15.3333333,21.5833333 L15.3333333,2.41666667 C15.3333333,2.18654802 15.5198814,2 15.75,2 L15.75,2 Z M10.8725,10.455 C11.0352083,10.2923409 11.2989584,10.2923409 11.4616667,10.455 L11.4616667,10.455 L14.3783333,13.3716667 C14.4564283,13.4499589 14.5001975,13.5560843 14.5000007,13.6666667 L14.5000007,13.6666667 L14.5000007,21.5833333 C14.5000007,21.813452 14.313452,22 14.0833333,22 L14.0833333,22 L8.25,22 C8.01988135,22 7.83333333,21.813452 7.83333333,21.5833333 L7.83333333,21.5833333 L7.83333333,13.6666667 C7.83333333,13.5559646 7.87743278,13.4498224 7.95583333,13.3716667 L7.95583333,13.3716667 Z M9.91666667,18.0416667 C9.5714887,18.0416667 9.29166667,18.3214887 9.29166667,18.6666667 L9.29166667,18.6666667 L9.29166667,19.5 C9.29166667,19.845178 9.5714887,20.125 9.91666667,20.125 C10.2618446,20.125 10.5416667,19.845178 10.5416667,19.5 L10.5416667,19.5 L10.5416667,18.6666667 C10.5416667,18.3214887 10.2618446,18.0416667 9.91666667,18.0416667 Z M12.4166667,18.0416667 C12.0714887,18.0416667 11.7916667,18.3214887 11.7916667,18.6666667 L11.7916667,18.6666667 L11.7916667,19.5 C11.7916667,19.845178 12.0714887,20.125 12.4166667,20.125 C12.7618446,20.125 13.0416667,19.845178 13.0416667,19.5 L13.0416667,19.5 L13.0416667,18.6666667 C13.0416667,18.3214887 12.7618446,18.0416667 12.4166667,18.0416667 Z M6.58333333,14.0833328 C6.81345198,14.0833328 7,14.2698814 7,14.5 L7,14.5 L7,17 C7,17.2301186 6.81345198,17.4166667 6.58333333,17.4166667 L6.58333333,17.4166667 L2.83333333,17.4166667 C2.55463185,17.4166667 2.29436867,17.2773874 2.13981154,17.045468 C1.98525442,16.8135485 1.95686659,16.5197182 2.06416667,16.2625 L2.06416667,16.2625 L2.75833333,14.5958333 C2.88793171,14.2851614 3.19171385,14.0829687 3.52833333,14.0833328 L3.52833333,14.0833328 Z M17.4166667,15.125 C17.0714887,15.125 16.7916667,15.404822 16.7916667,15.75 L16.7916667,15.75 L16.7916667,16.5833333 C16.7916667,16.9285113 17.0714887,17.2083333 17.4166667,17.2083333 C17.7618446,17.2083333 18.0416667,16.9285113 18.0416667,16.5833333 L18.0416667,16.5833333 L18.0416667,15.75 C18.0416667,15.404822 17.7618446,15.125 17.4166667,15.125 Z M19.9166667,15.125 C19.5714887,15.125 19.2916667,15.404822 19.2916667,15.75 L19.2916667,15.75 L19.2916667,16.5833333 C19.2916667,16.9285113 19.5714887,17.2083333 19.9166667,17.2083333 C20.2618446,17.2083333 20.5416667,16.9285113 20.5416667,16.5833333 L20.5416667,16.5833333 L20.5416667,15.75 C20.5416667,15.404822 20.2618446,15.125 19.9166667,15.125 Z M9.91666667,14.2916667 C9.5714887,14.2916667 9.29166667,14.5714887 9.29166667,14.9166667 L9.29166667,14.9166667 L9.29166667,15.75 C9.29166667,16.095178 9.5714887,16.375 9.91666667,16.375 C10.2618446,16.375 10.5416667,16.095178 10.5416667,15.75 L10.5416667,15.75 L10.5416667,14.9166667 C10.5416667,14.5714887 10.2618446,14.2916667 9.91666667,14.2916667 Z M12.4166667,14.2916667 C12.0714887,14.2916667 11.7916667,14.5714887 11.7916667,14.9166667 L11.7916667,14.9166667 L11.7916667,15.75 C11.7916667,16.095178 12.0714887,16.375 12.4166667,16.375 C12.7618446,16.375 13.0416667,16.095178 13.0416667,15.75 L13.0416667,15.75 L13.0416667,14.9166667 C13.0416667,14.5714887 12.7618446,14.2916667 12.4166667,14.2916667 Z M17.4166667,11.375 C17.0714887,11.375 16.7916667,11.654822 16.7916667,12 L16.7916667,12 L16.7916667,12.8333333 C16.7916667,13.1785113 17.0714887,13.4583333 17.4166667,13.4583333 C17.7618446,13.4583333 18.0416667,13.1785113 18.0416667,12.8333333 L18.0416667,12.8333333 L18.0416667,12 C18.0416667,11.654822 17.7618446,11.375 17.4166667,11.375 Z M19.9166667,11.375 C19.5714887,11.375 19.2916667,11.654822 19.2916667,12 L19.2916667,12 L19.2916667,12.8333333 C19.2916667,13.1785113 19.5714887,13.4583333 19.9166667,13.4583333 C20.2618446,13.4583333 20.5416667,13.1785113 20.5416667,12.8333333 L20.5416667,12.8333333 L20.5416667,12 C20.5416667,11.654822 20.2618446,11.375 19.9166667,11.375 Z M17.4166667,7.625 C17.0714887,7.625 16.7916667,7.90482203 16.7916667,8.25 L16.7916667,8.25 L16.7916667,9.08333333 C16.7916667,9.4285113 17.0714887,9.70833333 17.4166667,9.70833333 C17.7618446,9.70833333 18.0416667,9.4285113 18.0416667,9.08333333 L18.0416667,9.08333333 L18.0416667,8.25 C18.0416667,7.90482203 17.7618446,7.625 17.4166667,7.625 Z M19.9166667,7.625 C19.5714887,7.625 19.2916667,7.90482203 19.2916667,8.25 L19.2916667,8.25 L19.2916667,9.08333333 C19.2916667,9.4285113 19.5714887,9.70833333 19.9166667,9.70833333 C20.2618446,9.70833333 20.5416667,9.4285113 20.5416667,9.08333333 L20.5416667,9.08333333 L20.5416667,8.25 C20.5416667,7.90482203 20.2618446,7.625 19.9166667,7.625 Z M7.04416667,2.20833333 C8.11387529,2.21149892 9.10879309,2.75760522 9.68583333,3.65833333 C10.8922357,3.82325832 11.7875242,4.85994813 11.7750397,6.07750758 C11.7625551,7.29506702 10.8461972,8.31318069 9.63666667,8.45333333 C9.60902622,8.45680012 9.58119,8.4584703 9.55333333,8.45833333 L9.55333333,8.45833333 L4.25416667,8.45833333 C3.71654995,8.49076085 3.18983919,8.29706529 2.80132026,7.92405547 C2.41280134,7.55104566 2.19782156,7.03265787 2.20833333,6.49416667 C2.20817516,5.50216037 2.94654815,4.66519476 3.93083333,4.54166667 C4.3370217,3.16000862 5.60404043,2.21042285 7.04416667,2.20833333 Z M17.4166667,3.875 C17.0714887,3.875 16.7916667,4.15482203 16.7916667,4.5 L16.7916667,4.5 L16.7916667,5.33333333 C16.7916667,5.6785113 17.0714887,5.95833333 17.4166667,5.95833333 C17.7618446,5.95833333 18.0416667,5.6785113 18.0416667,5.33333333 L18.0416667,5.33333333 L18.0416667,4.5 C18.0416667,4.15482203 17.7618446,3.875 17.4166667,3.875 Z M19.9166667,3.875 C19.5714887,3.875 19.2916667,4.15482203 19.2916667,4.5 L19.2916667,4.5 L19.2916667,5.33333333 C19.2916667,5.6785113 19.5714887,5.95833333 19.9166667,5.95833333 C20.2618446,5.95833333 20.5416667,5.6785113 20.5416667,5.33333333 L20.5416667,5.33333333 L20.5416667,4.5 C20.5416667,4.15482203 20.2618446,3.875 19.9166667,3.875 Z" id="ðŸ–-Color" fill="#5A5A5A"></path>
        <rect id="_Transparent_Rectangle_" x="0" y="0" width="24" height="24"></rect>
    </g>
</svg>