<?xml version="1.0" encoding="UTF-8"?>
<svg width="24px" height="24px" viewBox="0 0 24 24" version="1.1" xmlns="http://www.w3.org/2000/svg" xmlns:xlink="http://www.w3.org/1999/xlink">
    <title>17. Building and Construction/building_house</title>
    <g id="17.-Building-and-Construction/building_house" stroke="none" stroke-width="1" fill="none" fill-rule="evenodd">
        <path d="M10.740374,16.5225997 C10.8715708,16.5225997 10.9951111,16.5818991 11.0738293,16.6826583 L11.0738293,16.6826583 L12.7502758,18.8290434 C12.8043881,18.8983072 12.8336396,18.9825514 12.8336396,19.0691312 L12.8336396,19.0691312 L12.8336396,20.8073669 C12.8336396,21.0283617 12.6470233,21.2075133 12.4168205,21.2075133 L12.4168205,21.2075133 L3.24679978,21.2075133 C3.01659694,21.2075133 2.82998066,21.0283617 2.82998066,20.8073669 L2.82998066,20.8073669 L2.82998066,19.2067815 C2.82998066,18.9857868 3.01659694,18.8066352 3.24679978,18.8066352 L3.24679978,18.8066352 L8.49872072,18.8066352 C8.62991758,18.8066352 8.7534579,18.7473358 8.83217601,18.6465766 L8.83217601,18.6465766 L10.4069187,16.6826583 C10.4856368,16.5818991 10.6091771,16.5225997 10.740374,16.5225997 Z M18.2522882,4.71765394 C18.3859601,4.71765394 18.5115224,4.77919921 18.5899117,4.88314252 L18.5899117,4.88314252 L21.0866582,8.18995202 C21.1381021,8.2581661 21.1658538,8.34022285 21.1658538,8.42443778 L21.1658538,8.42443778 L21.1658538,18.4024873 C21.1658538,18.6234821 20.9792375,18.8026337 20.7490347,18.8026337 L20.7490347,18.8026337 L15.7472052,18.8026337 C15.5170024,18.8026337 15.3303861,18.6234821 15.3303861,18.4024873 L15.3303861,18.4024873 L15.3303861,8.42443778 C15.331166,8.33970045 15.3604019,8.25746564 15.4137499,8.18995202 L15.4137499,8.18995202 L17.9146647,4.88314252 C17.9930539,4.77919921 18.1186162,4.71765394 18.2522882,4.71765394 Z M10.749544,14.0008774 C10.8797353,14.0048271 11.0015931,14.0633188 11.0829993,14.160936 L11.0829993,14.160936 L13.583914,17.3621068 C13.7220357,17.5389026 13.6847125,17.7897149 13.5005502,17.9223117 C13.3163879,18.0549085 13.0551251,18.0190782 12.9170034,17.8422824 L12.9170034,17.8422824 L11.0829993,15.4942236 C11.0042812,15.3934644 10.8807408,15.3341651 10.749544,15.3341651 C10.6183471,15.3341651 10.4948068,15.3934644 10.4160887,15.4942236 L10.4160887,15.4942236 L8.58208454,17.8422824 C8.50336642,17.9430416 8.37982611,18.0023645 8.24862924,18.0023645 L8.24862924,18.0023645 L2.41316154,18.0023645 C2.2552821,18.0023645 2.11095301,17.9167087 2.04034718,17.7811455 C1.96974135,17.6455823 1.98497858,17.4833582 2.07970624,17.3621068 L2.07970624,17.3621068 L4.58062097,14.160936 C4.65933909,14.0601768 4.78287941,14.0008774 4.91407627,14.0008774 L4.91407627,14.0008774 Z M14.0840969,7.99868206 C14.3142998,7.99868206 14.5009161,8.17783368 14.5009161,8.39882841 L14.5009161,8.39882841 L14.5009161,16.6018287 C14.5009161,16.6879463 14.4435138,16.764402 14.3584114,16.7916348 C14.273309,16.8188676 14.1796023,16.7907667 14.1257789,16.7218726 L14.1257789,16.7218726 L11.7499099,13.6807603 C11.5137555,13.3784828 11.1431346,13.2005847 10.749544,13.2005847 L10.749544,13.2005847 L8.24862924,13.2005847 C8.0184264,13.2005847 7.83181012,13.0214331 7.83181012,12.8004383 L7.83181012,12.8004383 L7.83181012,8.39882841 C7.83181012,8.17783368 8.0184264,7.99868206 8.24862924,7.99868206 L8.24862924,7.99868206 Z M17.0018308,14.8011701 C16.771628,14.8011701 16.5850117,14.9803217 16.5850117,15.2013165 L16.5850117,15.2013165 L16.5850117,16.0016092 C16.5850117,16.2226039 16.771628,16.4017555 17.0018308,16.4017555 C17.2320336,16.4017555 17.4186499,16.2226039 17.4186499,16.0016092 L17.4186499,16.0016092 L17.4186499,15.2013165 C17.4186499,14.9803217 17.2320336,14.8011701 17.0018308,14.8011701 Z M19.5027455,14.8011701 C19.2725427,14.8011701 19.0859264,14.9803217 19.0859264,15.2013165 L19.0859264,15.2013165 L19.0859264,16.0016092 C19.0859264,16.2226039 19.2725427,16.4017555 19.5027455,16.4017555 C19.7329484,16.4017555 19.9195647,16.2226039 19.9195647,16.0016092 L19.9195647,16.0016092 L19.9195647,15.2013165 C19.9195647,14.9803217 19.7329484,14.8011701 19.5027455,14.8011701 Z M17.0018308,11.5999993 C16.771628,11.5999993 16.5850117,11.7791509 16.5850117,12.0001456 L16.5850117,12.0001456 L16.5850117,12.8004383 C16.5850117,13.0214331 16.771628,13.2005847 17.0018308,13.2005847 C17.2320336,13.2005847 17.4186499,13.0214331 17.4186499,12.8004383 L17.4186499,12.8004383 L17.4186499,12.0001456 C17.4186499,11.7791509 17.2320336,11.5999993 17.0018308,11.5999993 Z M19.5027455,11.5999993 C19.2725427,11.5999993 19.0859264,11.7791509 19.0859264,12.0001456 L19.0859264,12.0001456 L19.0859264,12.8004383 C19.0859264,13.0214331 19.2725427,13.2005847 19.5027455,13.2005847 C19.7329484,13.2005847 19.9195647,13.0214331 19.9195647,12.8004383 L19.9195647,12.8004383 L19.9195647,12.0001456 C19.9195647,11.7791509 19.7329484,11.5999993 19.5027455,11.5999993 Z M17.0018308,8.39882841 C16.771628,8.39882841 16.5850117,8.57798004 16.5850117,8.79897477 L16.5850117,8.79897477 L16.5850117,9.59926748 C16.5850117,9.82026221 16.771628,9.99941384 17.0018308,9.99941384 C17.2320336,9.99941384 17.4186499,9.82026221 17.4186499,9.59926748 L17.4186499,9.59926748 L17.4186499,8.79897477 C17.4186499,8.57798004 17.2320336,8.39882841 17.0018308,8.39882841 Z M19.5027455,8.39882841 C19.2725427,8.39882841 19.0859264,8.57798004 19.0859264,8.79897477 L19.0859264,8.79897477 L19.0859264,9.59926748 C19.0859264,9.82026221 19.2725427,9.99941384 19.5027455,9.99941384 C19.7329484,9.99941384 19.9195647,9.82026221 19.9195647,9.59926748 L19.9195647,9.59926748 L19.9195647,8.79897477 C19.9195647,8.57798004 19.7329484,8.39882841 19.5027455,8.39882841 Z M18.2522882,1.9964867 C18.3838895,1.99945748 18.5067972,2.06022308 18.5857435,2.161347 L18.5857435,2.161347 L21.9202964,6.56295693 C22.0520046,6.74155077 22.0075261,6.98309807 21.8262855,7.10971526 C21.645045,7.23633244 21.3919489,7.20267484 21.2533858,7.03352904 L21.2533858,7.03352904 L18.5924126,3.52184462 C18.51395,3.41854579 18.3887947,3.35745748 18.2556227,3.35745748 C18.1224508,3.35745748 17.9972955,3.41854579 17.9188329,3.52184462 L17.9188329,3.52184462 L15.3795708,6.86866875 C15.2226838,7.07585204 14.9719721,7.19838935 14.7051574,7.19838935 L14.7051574,7.19838935 L7.87766023,7.19838935 C7.55562021,7.19838935 7.26241077,7.02022914 7.12448089,6.74086234 C6.98655102,6.46149554 7.02857289,6.13084689 7.23242423,5.89151134 L7.23242423,5.89151134 L10.3018802,2.29019413 C10.4601816,2.10433743 10.6970351,1.9964867 10.9471162,1.9964867 L10.9471162,1.9964867 Z" id="ðŸ–-Color" fill="#5A5A5A"></path>
        <rect id="_Transparent_Rectangle_" x="0" y="0" width="24" height="24"></rect>
    </g>
</svg>