<?xml version="1.0" encoding="UTF-8"?>
<svg width="24px" height="24px" viewBox="0 0 24 24" version="1.1" xmlns="http://www.w3.org/2000/svg" xmlns:xlink="http://www.w3.org/1999/xlink">
    <title>17. Building and Construction/construction_cone</title>
    <g id="17.-Building-and-Construction/construction_cone" stroke="none" stroke-width="1" fill="none" fill-rule="evenodd">
        <path d="M17.0683333,17 C17.2547579,17.0000554 17.4184592,17.1239374 17.4691667,17.3033333 L17.4691667,17.3033333 L18.2425,20.03 C18.2932075,20.2093959 18.4569087,20.3332779 18.6433333,20.3333333 L18.6433333,20.3333333 L21.1666667,20.3333333 C21.626904,20.3333333 22,20.7064294 22,21.1666667 C22,21.626904 21.626904,22 21.1666667,22 L21.1666667,22 L2.83333333,22 C2.37309604,22 2,21.626904 2,21.1666667 C2,20.7064294 2.37309604,20.3333333 2.83333333,20.3333333 L2.83333333,20.3333333 L5.355,20.3333333 C5.5414246,20.3332779 5.70512585,20.2093959 5.75583333,20.03 L5.75583333,20.03 L6.52666667,17.3033333 C6.57737415,17.1239374 6.7410754,17.0000554 6.9275,17 L6.9275,17 Z M14.9416667,9.49999939 C15.1280913,9.50005542 15.2917925,9.62393744 15.3425,9.80333333 L15.3425,9.80333333 L16.5208333,13.97 C16.556334,14.0955962 16.5309321,14.2305705 16.4522035,14.334669 C16.3734749,14.4387675 16.250517,14.4999994 16.12,14.4999994 L16.12,14.4999994 L7.87,14.4999994 C7.73948298,14.4999994 7.61652505,14.4387675 7.53779645,14.334669 C7.45906785,14.2305705 7.43366603,14.0955962 7.46916667,13.97 L7.46916667,13.97 L8.64583333,9.80333333 C8.69662468,9.62363975 8.86076638,9.49968212 9.0475,9.49999939 L9.0475,9.49999939 Z M12,2 C12.6678287,2.00207848 13.2538494,2.44541589 13.4375,3.0875 L13.4375,3.0875 L14.4008333,6.47 C14.436334,6.59559618 14.4109321,6.73057049 14.3322035,6.83466901 C14.2534749,6.93876753 14.130517,7 14,7 L14,7 L9.98916667,7 C9.85864964,7 9.73569172,6.93876753 9.65696312,6.83466901 C9.57823452,6.73057049 9.5528327,6.59559618 9.58833333,6.47 L9.58833333,6.47 L10.5391667,3.105 C10.7255588,2.45235146 11.3212592,2.00175324 12,2 Z" id="ðŸ–-Color" fill="#5A5A5A"></path>
        <rect id="_Transparent_Rectangle_" x="0" y="0" width="24" height="24"></rect>
    </g>
</svg>