<?xml version="1.0" encoding="UTF-8"?>
<svg width="24px" height="24px" viewBox="0 0 24 24" version="1.1" xmlns="http://www.w3.org/2000/svg" xmlns:xlink="http://www.w3.org/1999/xlink">
    <title>17. Building and Construction/construction_brick</title>
    <g id="17.-Building-and-Construction/construction_brick" stroke="none" stroke-width="1" fill="none" fill-rule="evenodd">
        <path d="M6.26995845,17.8583521 C6.55754784,17.8583521 6.7906851,18.0914894 6.7906851,18.3790788 L6.7906851,21.4600447 C6.7906851,21.7476341 6.55754784,21.9807714 6.26995845,21.9807714 L2.52072664,21.9807714 C2.23313726,21.9807714 2,21.7476341 2,21.4600447 L2,18.3790788 C2,18.0914894 2.23313726,17.8583521 2.52072664,17.8583521 L6.26995845,17.8583521 Z M21.4751764,17.8583521 C21.7627657,17.8583521 21.995903,18.0914894 21.995903,18.3790788 L21.995903,21.4600447 C21.995903,21.7476341 21.7627657,21.9807714 21.4751764,21.9807714 L16.8927819,21.9807714 C16.6051925,21.9807714 16.3720553,21.7476341 16.3720553,21.4600447 L16.3720553,18.3790788 C16.3720553,18.0914894 16.6051925,17.8583521 16.8927819,17.8583521 L21.4751764,17.8583521 Z M8.99106759,17.8583521 C9.17768802,17.8585194 9.34143134,17.9879509 9.39181881,18.1751275 C9.47436252,18.4811729 9.63100523,18.7599955 9.84672561,18.9848574 C10.381819,19.5224473 11.1719209,19.6785319 11.8588133,19.3823454 L11.8588133,19.3823454 L14.5549276,18.2896874 C14.6830783,18.237848 14.8275303,18.2552053 14.9409849,18.3360757 C15.0544395,18.4169461 15.1223113,18.5509158 15.1223113,18.6941184 L15.1223113,18.6941184 L15.1223113,21.5468325 C15.1223113,21.7864903 14.9358015,21.9807714 14.70573,21.9807714 L14.70573,21.9807714 L8.45701035,21.9807714 C8.22693884,21.9807714 8.04042903,21.7864903 8.04042903,21.5468325 L8.04042903,21.5468325 L8.04042903,18.292291 C8.04042903,18.0526332 8.22693884,17.8583521 8.45701035,17.8583521 L8.45701035,17.8583521 Z M20.0854611,2.3190013 C20.3944325,2.03544882 20.8251564,1.94513792 21.2153832,2.08208783 C21.6056101,2.21903775 21.8960551,2.56244253 21.9773105,2.98294492 C22.0585658,3.40344731 21.918287,3.837163 21.6093155,4.12071547 L21.6093155,4.12071547 L18.6499219,6.92135692 C18.5109799,7.0478683 18.3445514,7.13723065 18.1650213,7.18172024 L18.1650213,7.18172024 L19.9729842,9.35141458 C20.3484895,9.80277181 20.3050042,10.484939 19.8755041,10.8806151 L19.8755041,10.8806151 L18.6740836,11.9845556 L19.0798338,12.4072121 C19.5380285,12.8716803 19.7224074,13.5561472 19.5630681,14.2011154 C19.4227276,14.7511826 19.0022114,15.1755316 18.4699588,15.304188 L18.4699588,15.304188 L11.4089055,18.1681845 C11.1861979,18.2913639 10.9123965,18.2487337 10.7340001,18.0631035 C10.5556038,17.8774734 10.5143849,17.5923096 10.632398,17.3601903 L10.632398,17.3601903 L13.3901663,9.97368292 C13.5269818,9.43168295 13.9347183,9.00928197 14.4557812,8.86974244 C15.069958,8.70671099 15.720983,8.89725489 16.1637646,9.36964001 L16.1637646,9.36964001 L16.5995087,9.82267219 C16.6806687,9.90739179 16.7246336,10.0232672 16.7210054,10.1428934 C16.7173771,10.2625196 16.666478,10.3752731 16.5803459,10.4544872 L16.5803459,10.4544872 L15.3855907,11.5497489 C15.1270824,11.7878931 15.1024801,12.1990953 15.330602,12.4688314 C15.443039,12.6045246 15.605455,12.6841686 15.7774952,12.6879745 C15.9495354,12.6917804 16.1150511,12.619391 16.2329171,12.4887926 L16.2329171,12.4887926 L18.5832689,10.3269092 C18.753158,10.169281 18.7702198,9.89882599 18.6215944,9.71939474 L18.6215944,9.71939474 L17.1385649,7.93850963 C16.8152339,7.54843916 16.7035879,7.01431836 16.841959,6.51952953 C16.6295095,6.03862917 16.7445983,5.46953204 17.1252343,5.11877487 L17.1252343,5.11877487 Z M10.1158371,13.5189635 C10.2533116,13.5189635 10.3819225,13.5896633 10.4595581,13.7078452 C10.5371937,13.8260271 10.5538567,13.9764979 10.5040909,14.1099882 L10.5040909,14.1099882 L9.58761203,16.5565355 L2,16.5565355 L2,13.9529023 C2,13.7132445 2.18650981,13.5189635 2.41658131,13.5189635 L2.41658131,13.5189635 Z M11.7313395,9.17957479 C11.868814,9.17957479 11.9974249,9.25027462 12.0750605,9.3684565 C12.1526961,9.48663838 12.169359,9.63710921 12.1195932,9.77059953 L12.1195932,9.77059953 L11.3114255,11.9402939 C11.249216,12.107163 11.0950213,12.217115 10.9231717,12.2171469 L10.9231717,12.2171469 L8.45701035,12.2171469 C8.22693884,12.2171469 8.04042903,12.0228658 8.04042903,11.783208 L8.04042903,11.783208 L8.04042903,9.61351366 C8.04042903,9.37385584 8.22693884,9.17957479 8.45701035,9.17957479 L8.45701035,9.17957479 Z M6.26995845,9.17957479 C6.55754784,9.17957479 6.7906851,9.41271205 6.7906851,9.70030143 L6.7906851,11.6964202 C6.7906851,11.9840096 6.55754784,12.2171469 6.26995845,12.2171469 L2.52072664,12.2171469 C2.23313726,12.2171469 2,11.9840096 2,11.6964202 L2,9.70030143 C2,9.41271205 2.23313726,9.17957479 2.52072664,9.17957479 L6.26995845,9.17957479 Z M11.4772249,3.75533895 C11.7648142,3.75533895 11.9979515,3.9884762 11.9979515,4.27606559 L11.9979515,7.35703155 C11.9979515,7.64462093 11.7648142,7.87775819 11.4772249,7.87775819 L2.52072664,7.87775819 C2.23313726,7.87775819 2,7.64462093 2,7.35703155 L2,4.27606559 C2,3.9884762 2.23313726,3.75533895 2.52072664,3.75533895 L11.4772249,3.75533895 Z" id="ðŸ–-Color" fill="#5A5A5A"></path>
        <rect id="_Transparent_Rectangle_" x="0" y="0" width="24" height="24"></rect>
    </g>
</svg>