<?xml version="1.0" encoding="UTF-8"?>
<svg width="24px" height="24px" viewBox="0 0 24 24" version="1.1" xmlns="http://www.w3.org/2000/svg" xmlns:xlink="http://www.w3.org/1999/xlink">
    <title>17. Building and Construction/electricity_tower</title>
    <g id="17.-Building-and-Construction/electricity_tower" stroke="none" stroke-width="1" fill="none" fill-rule="evenodd">
        <path d="M6.58125475,2 C6.24339176,2 5.93885141,2.20365162 5.81012562,2.51603135 L2.89233972,9.60208283 C2.78633808,9.8593176 2.81564777,10.1524786 2.97047796,10.3836358 C3.12530814,10.6147931 3.38524941,10.753476 3.66346885,10.7533578 L7.93510741,10.7533578 C8.00301051,10.7533867 8.0666423,10.7864936 8.10563784,10.842083 C8.14463338,10.8976724 8.15410296,10.9687738 8.13101589,11.0326316 L4.5463075,20.8864114 C4.42839126,21.2324864 4.54825957,21.6150707 4.84256894,21.8319904 C5.13687831,22.0489101 5.53779914,22.0501718 5.83346791,21.8351086 L12.0833653,17.0891215 C12.1573744,17.0332651 12.2594521,17.0332651 12.3334612,17.0891215 L18.5858596,21.8409442 C18.8813153,22.0544415 19.2807855,22.0528727 19.5745552,21.8370613 C19.8683249,21.6212499 19.9892527,21.2405199 19.8738537,20.8947479 L16.3208241,11.0326316 C16.297737,10.9687738 16.3072066,10.8976724 16.3462021,10.842083 C16.3851977,10.7864936 16.4488295,10.7533867 16.5167326,10.7533578 L20.3365311,10.7533578 C20.6147506,10.753476 20.8746919,10.6147931 21.029522,10.3836358 C21.1843522,10.1524786 21.2136619,9.8593176 21.1076603,9.60208283 L18.1898744,2.51603135 C18.0611486,2.20365162 17.7566082,2 17.4187452,2 L6.58125475,2 Z M13.5656005,6.63094313 C13.4950209,6.55048327 13.4971868,6.42955018 13.5706025,6.35166933 L14.1408212,5.74310256 C14.1993521,5.6809496 14.2898705,5.66077956 14.3692525,5.69220162 C14.4486346,5.72362368 14.5008248,5.80028255 14.5009593,5.88565724 L14.5009593,7.14614075 C14.5006857,7.23281368 14.4467982,7.31027031 14.3656282,7.34066274 C14.2844582,7.37105517 14.1929507,7.34803867 14.1358193,7.28285986 L13.5656005,6.63094313 Z M13.1946249,8.74008551 C13.2486653,8.80159864 13.2616803,8.88905578 13.2278932,8.96363903 C13.1941061,9.03822228 13.1197775,9.0861117 13.0378981,9.08605161 L11.4873033,9.08605161 C11.4042827,9.0859286 11.329253,9.03654404 11.2963094,8.96033936 C11.2633659,8.88413468 11.2787922,8.79564559 11.3355785,8.73508359 L12.1375528,7.87975549 C12.1777372,7.83679436 12.2342625,7.81290032 12.2930776,7.81401304 C12.3518926,7.81512576 12.4074737,7.84114073 12.4460044,7.88559107 L13.1946249,8.74008551 Z M12.49519,5.06034066 C12.4548411,5.10320532 12.3983027,5.12709107 12.3394427,5.12613916 C12.2805827,5.12518724 12.2248463,5.09948573 12.1859046,5.05533874 L11.2747218,4.01327235 C11.2206814,3.95175922 11.2076664,3.86430208 11.2414535,3.78971883 C11.2752406,3.71513558 11.3495692,3.66724615 11.4314486,3.66730564 L13.3196729,3.66730564 C13.4028448,3.66709663 13.4781788,3.71635807 13.5113351,3.79263571 C13.5444914,3.86891335 13.5291215,3.95760187 13.4722314,4.01827427 L12.49519,5.06034066 Z M9.91586714,5.54802773 C9.91579451,5.46120239 9.96955762,5.38342818 10.0508089,5.35281981 C10.1320602,5.32221144 10.2237752,5.34518225 10.2810073,5.41047497 L11.0671422,6.30915303 C11.1373308,6.38975571 11.1351702,6.51038925 11.0621402,6.58842682 L10.2760054,7.42708185 C10.2174745,7.48923481 10.1269561,7.50940486 10.047574,7.47798279 C9.968192,7.44656073 9.91600175,7.36990186 9.91586714,7.28452717 L9.91586714,5.54802773 Z M15.0845165,12.5282053 C15.1153332,12.6136968 15.0869579,12.7092945 15.0144897,12.7641291 L12.3334612,14.8032446 C12.2594521,14.8591009 12.1573744,14.8591009 12.0833653,14.8032446 L9.42401188,12.7833031 C9.3512398,12.7282922 9.32312359,12.6320874 9.35481867,12.5465456 L9.91586721,10.8567308 C9.91564284,10.8292464 9.92646183,10.8028225 9.94589687,10.7833874 C9.96533192,10.7639524 9.99175581,10.7531334 10.0192402,10.7533544 L14.3133874,10.7533544 C14.4125554,10.7530119 14.4981179,10.8228588 14.5176324,10.9200884 L15.0845165,12.5282053 Z M7.08644854,3.79652254 C7.11853598,3.71841599 7.19458173,3.66738962 7.27902241,3.66730631 L8.04014771,3.66730631 C8.15525118,3.66730631 8.24856098,3.76061611 8.24856098,3.87571958 L8.24856098,8.87763827 C8.24856098,8.99274175 8.15525118,9.08605155 8.04014771,9.08605155 L5.21906557,9.08605155 C5.14976441,9.08557352 5.08519565,9.05081385 5.04663789,8.99322758 C5.00808012,8.93564132 5.00053601,8.86269993 5.0264917,8.79844123 L7.08644854,3.79652254 Z M7.64666344,18.366278 C7.5731047,18.4218693 7.47176033,18.4225203 7.39749358,18.3678784 C7.32322684,18.3132366 7.29369014,18.2162897 7.32487333,18.1295205 L8.60869913,14.5981659 C8.63164452,14.5362069 8.68260985,14.4887979 8.74606401,14.4703863 C8.80951817,14.4519747 8.87794391,14.4647418 8.93048923,14.5047968 L10.6119676,15.782787 C10.6641368,15.8223471 10.694782,15.8840453 10.694782,15.9495176 C10.694782,16.01499 10.6641368,16.0766882 10.6119676,16.1162483 L7.64666344,18.366278 Z M15.5013431,14.4889574 C15.5541453,14.4486179 15.6230183,14.4358746 15.6867584,14.4546507 C15.7504985,14.4734269 15.801465,14.5214717 15.8239668,14.5839938 L17.104458,18.142859 C17.1350314,18.2295081 17.1052516,18.325956 17.0311493,18.3802849 C16.9570469,18.4346139 16.856108,18.4340037 16.7826679,18.3787828 L13.8006907,16.1129137 C13.7485215,16.0733535 13.7178763,16.0116554 13.7178763,15.946183 C13.7178763,15.8807107 13.7485215,15.8190125 13.8006907,15.7794524 L15.5013431,14.4889574 Z M16.3766789,9.08605155 C16.2615754,9.08605155 16.1682656,8.99274175 16.1682656,8.87763827 L16.1682656,3.87571958 C16.1682656,3.76061611 16.2615754,3.66730631 16.3766789,3.66730631 L16.7209776,3.66730631 C16.8054183,3.66738962 16.881464,3.71841599 16.9135515,3.79652254 L18.9735083,8.79844123 C18.999464,8.86269993 18.9919199,8.93564132 18.9533621,8.99322758 C18.9148044,9.05081385 18.8502356,9.08557352 18.7809344,9.08605155 L16.3766789,9.08605155 Z" id="ðŸ–-Color" fill="#5A5A5A"></path>
        <rect id="_Transparent_Rectangle_" x="0" y="0" width="24" height="24"></rect>
    </g>
</svg>