<?xml version="1.0" encoding="UTF-8"?>
<svg width="24px" height="24px" viewBox="0 0 24 24" version="1.1" xmlns="http://www.w3.org/2000/svg" xmlns:xlink="http://www.w3.org/1999/xlink">
    <title>17. Building and Construction/heavy_equipment_hook</title>
    <g id="17.-Building-and-Construction/heavy_equipment_hook" stroke="none" stroke-width="1" fill="none" fill-rule="evenodd">
        <path d="M21.2120061,9.48490407 C21.5878541,9.48485294 21.9131338,9.21262744 21.9941571,8.83032461 C22.0751805,8.44802177 21.8901597,8.05844545 21.5492656,7.89356935 L9.63863844,2.14073161 C8.86249336,1.84261788 7.9910404,2.03324821 7.39558247,2.6314001 L2.97435894,8.11303502 C2.77362406,8.36142902 2.72943147,8.70855761 2.86107546,9.00286613 C2.99271944,9.29717464 3.27629521,9.48522061 3.58799497,9.48490407 L5.99126922,9.48490407 C6.10187686,9.48490407 6.19154207,9.57830533 6.19154207,9.69352162 L6.19154207,14.349031 L4.30096633,16.0939083 C3.95152447,16.4378062 3.7470268,16.9118471 3.73219142,17.4123712 L3.73219142,20.333017 L3.58799497,20.333017 C3.14556439,20.333017 2.78690355,20.7066221 2.78690355,21.1674872 C2.78690355,21.6283524 3.14556439,22.0019575 3.58799497,22.0019575 L13.201092,22.0019575 C13.6435225,22.0019575 14.0021834,21.6283524 14.0021834,21.1674872 C14.0021834,20.7066221 13.6435225,20.333017 13.201092,20.333017 L13.1450156,20.333017 L13.1450156,17.4123712 C13.130549,16.9182754 12.9347207,16.4487747 12.5978701,16.100584 L10.5975449,14.1863093 L10.5975449,9.69352162 C10.5975449,9.57830533 10.6872101,9.48490407 10.7978177,9.48490407 L17.8073676,9.48490407 C17.9179753,9.48490407 18.0076405,9.57830533 18.0076405,9.69352162 L18.0076405,14.8739128 C18.0076501,15.5375113 18.38508,16.1380573 18.9689502,16.4034967 C19.1522305,16.48682 19.2484329,16.6981906 19.1943515,16.898736 C19.1402702,17.0992814 18.9524764,17.2275512 18.7543526,17.1992709 C18.5562288,17.1709907 18.4084832,16.9948259 18.4081862,16.7865185 C18.4081862,16.3256534 18.0495253,15.9520483 17.6070948,15.9520483 C17.1646642,15.9520483 16.8060034,16.3256534 16.8060034,16.7865185 C16.8062883,17.8283742 17.5444381,18.7102878 18.5352504,18.8525577 C19.5260628,18.9948277 20.4657419,18.3538322 20.7366158,17.3509121 C21.0074896,16.3479919 20.5265047,15.2906551 19.6098233,14.8739128 L19.6098233,9.69352162 C19.6098233,9.57830533 19.6994885,9.48490407 19.8100962,9.48490407 L21.2120061,9.48490407 Z M7.44044359,5.16985853 C7.4946632,5.10298192 7.58319642,5.07847619 7.66213377,5.10849535 C7.74107112,5.13851452 7.79362278,5.21667355 7.79372491,5.30420823 L7.79372491,7.60734606 C7.79372491,7.72256235 7.7040597,7.81596455 7.59345205,7.81596455 L5.73652215,7.81596455 C5.65852476,7.81620559 5.587488,7.76925534 5.55447565,7.69564384 C5.52146331,7.62203233 5.53248171,7.53515256 5.5827126,7.47299635 L7.44044359,5.16985853 Z M5.33357316,17.4365709 C5.34166861,17.4047326 5.35183937,17.3735066 5.36401464,17.3431102 L6.19154207,16.5795699 L6.19154207,20.3346859 L5.33437426,20.3346859 L5.33357316,17.4365709 Z M11.4915629,17.3080624 C11.512907,17.3406772 11.5301382,17.3760145 11.5428327,17.4132057 L11.5428327,20.3338515 L10.5975449,20.3338515 L10.5975449,16.4385445 L11.4915629,17.3080624 Z M8.99536203,20.333017 L7.79372491,20.333017 L7.79372491,9.69352162 C7.79372491,9.57830533 7.88339012,9.48490407 7.99399776,9.48490407 L8.79508918,9.48490407 C8.90569682,9.48490407 8.99536203,9.57830533 8.99536203,9.69352162 L8.99536203,20.333017 Z M9.5961806,7.81596361 C9.48557295,7.81596361 9.39590772,7.72256235 9.39590772,7.60734606 L9.39590772,4.18935601 C9.39590772,4.11815619 9.43070467,4.05185573 9.4882902,4.01349918 C9.54587572,3.97514262 9.61826426,3.97002733 9.68029519,3.99993127 L17.5798577,7.81596361 L9.5961806,7.81596361 Z" id="ðŸ–-Color" fill="#5A5A5A"></path>
        <rect id="_Transparent_Rectangle_" x="0" y="0" width="24" height="24"></rect>
    </g>
</svg>