<?xml version="1.0" encoding="UTF-8"?>
<svg width="24px" height="24px" viewBox="0 0 24 24" version="1.1" xmlns="http://www.w3.org/2000/svg" xmlns:xlink="http://www.w3.org/1999/xlink">
    <title>17. Building and Construction/heavy_equipment_tractor</title>
    <g id="17.-Building-and-Construction/heavy_equipment_tractor" stroke="none" stroke-width="1" fill="none" fill-rule="evenodd">
        <path d="M16.7368421,13.1578947 C19.1785221,13.1578947 21.1578947,15.1372674 21.1578947,17.5789474 C21.1551103,20.019473 19.1773678,21.9972156 16.7368421,22 C14.2951622,22 12.3157895,20.0206273 12.3157895,17.5789474 C12.3157895,15.1372674 14.2951622,13.1578947 16.7368421,13.1578947 Z M4.94736842,16.5263158 C6.45811515,16.5281717 7.68235457,17.7524112 7.68421053,19.2631579 C7.68421053,20.7746741 6.45888458,22 4.94736842,22 C3.43585226,22 2.21052632,20.7746741 2.21052632,19.2631579 C2.21052632,17.7516417 3.43585226,16.5263158 4.94736842,16.5263158 Z M4.94736842,18.2105263 C4.36601605,18.2105263 3.89473684,18.6818055 3.89473684,19.2631579 C3.89473684,19.8445103 4.36601605,20.3157895 4.94736842,20.3157895 L4.94736842,20.3157895 C5.529234,20.3153247 6,19.8441816 6,19.2631579 C6,18.6818055 5.52872079,18.2105263 4.94736842,18.2105263 Z M20.1052632,3.68589474 C20.5578937,3.69026149 20.93703,4.02975425 20.9911579,4.47915789 L20.9911579,4.47915789 L21.7406316,11.216 C21.7675789,11.4593684 21.7894737,11.8585263 21.7894737,12.1027368 L21.7894737,12.1027368 L21.7894737,13.6050526 C21.7894737,13.7810848 21.679881,13.9385101 21.5148342,13.999722 C21.3497874,14.0609339 21.164081,14.0130114 21.0492632,13.8795789 C19.5018792,12.0732182 16.9931063,11.4218808 14.7624319,12.2473675 C12.5317575,13.0728542 11.0513541,15.2004321 11.0526316,17.5789474 C11.0534082,18.1100845 11.128812,18.638478 11.2766316,19.1486316 C11.313101,19.2756344 11.2878357,19.412391 11.2083957,19.51798 C11.1289558,19.6235689 11.0045562,19.6858947 10.8724211,19.6858947 L10.8724211,19.6858947 L9.37263158,19.6858947 C9.14009063,19.6858947 8.95157895,19.4973831 8.95157895,19.2648421 C8.95151095,17.9261595 8.28178143,16.6762574 7.16722759,15.9347448 C6.05267375,15.1932322 4.64107191,15.0584247 3.40631579,15.5755789 C3.2595193,15.6372333 3.0905008,15.6108106 2.96952527,15.5072955 C2.84854974,15.4037803 2.79631115,15.2408799 2.83452632,15.0863158 L2.83452632,15.0863158 L3.6,11.9932632 C3.71255842,11.5715642 4.08996668,11.2747841 4.52631579,11.2648421 L4.52631579,11.2648421 L10.944,11.2648421 L12.8496842,4.4 C12.9753518,3.98363607 13.3546626,3.69541423 13.7894737,3.68589474 L13.7894737,3.68589474 Z M16.7368421,15.4736842 C15.5741374,15.4736842 14.6315789,16.4162426 14.6315789,17.5789474 C14.6315789,18.7416521 15.5741374,19.6842105 16.7368421,19.6842105 C17.2951926,19.6842105 17.8306745,19.4624067 18.225488,19.0675932 C18.6203014,18.6727798 18.8421053,18.1372979 18.8421053,17.5789474 C18.8421053,16.4162426 17.8995468,15.4736842 16.7368421,15.4736842 Z M18.0757895,5.36842105 L14.848,5.36842105 C14.6648751,5.36854413 14.5028278,5.48701569 14.4471579,5.66147368 L14.4471579,5.66147368 L12.9675789,10.2930526 C12.9267395,10.4210347 12.9494224,10.5608222 13.0286352,10.6693238 C13.107848,10.7778254 13.234081,10.842015 13.3684211,10.8421053 C13.4220706,10.8419111 13.475205,10.8316271 13.5250526,10.8117895 L13.5250526,10.8117895 L18.2324211,8.92884211 C18.3921085,8.86484552 18.4968421,8.7101391 18.4968421,8.53810526 L18.4968421,8.53810526 L18.4968421,5.78947368 C18.4968421,5.55693274 18.3083304,5.36842105 18.0757895,5.36842105 L18.0757895,5.36842105 Z M7.89473684,2 C8.35981874,2 8.73684211,2.37702337 8.73684211,2.84210526 L8.73684211,2.84210526 L8.73684211,6.28294737 C9.24147012,6.46136031 9.57887116,6.93844538 9.57894737,7.47368421 L9.57894737,7.47368421 L9.57894737,9.57894737 C9.57894737,9.81148832 9.39043568,10 9.15789474,10 L9.15789474,10 L6.63157895,10 C6.399038,10 6.21052632,9.81148832 6.21052632,9.57894737 L6.21052632,9.57894737 L6.21052632,7.47368421 C6.21060252,6.93844538 6.54800356,6.46136031 7.05263158,6.28294737 L7.05263158,6.28294737 L7.05263158,3.68421053 L6.63157895,3.68421053 C6.16649705,3.68421053 5.78947368,3.30718716 5.78947368,2.84210526 C5.78947368,2.37702337 6.16649705,2 6.63157895,2 L6.63157895,2 Z" id="ðŸ–-Color" fill="#5A5A5A"></path>
        <rect id="_Transparent_Rectangle_" x="0" y="0" width="24" height="24"></rect>
    </g>
</svg>