<?xml version="1.0" encoding="UTF-8"?>
<svg width="24px" height="24px" viewBox="0 0 24 24" version="1.1" xmlns="http://www.w3.org/2000/svg" xmlns:xlink="http://www.w3.org/1999/xlink">
    <title>17. Building and Construction/heavy_equipment_wood</title>
    <g id="17.-Building-and-Construction/heavy_equipment_wood" stroke="none" stroke-width="1" fill="none" fill-rule="evenodd">
        <path d="M7.65217373,15.91304 C8.61266809,15.91304 9.39130261,16.6916745 9.39130261,17.6521689 C9.39130261,18.6126632 8.61266809,19.3912978 7.65217373,19.3912978 C6.69167936,19.3912978 5.91304484,18.6126632 5.91304484,17.6521689 C5.91304484,16.6916745 6.69167936,15.91304 7.65217373,15.91304 Z M18.086947,15.91304 C19.0474414,15.91304 19.8260759,16.6916745 19.8260759,17.6521689 C19.8260759,18.6126632 19.0474414,19.3912978 18.086947,19.3912978 C17.1264527,19.3912978 16.3478182,18.6126632 16.3478182,17.6521689 C16.3478182,16.6916745 17.1264527,15.91304 18.086947,15.91304 Z M9.39130261,8.08696 C9.6314262,8.08696 9.82608483,8.28161864 9.82608483,8.52174223 L9.82608483,8.52174223 L9.82608483,13.7391289 C9.82608483,13.9792525 10.0207435,14.1739111 10.2608671,14.1739111 L10.2608671,14.1739111 L21.1304226,14.1739111 C21.6106698,14.1739111 21.9999959,14.5632284 21.9999959,15.0434756 L21.9999959,15.0434756 L21.9999959,17.2173867 C21.9999959,17.4575103 21.8053284,17.6521689 21.5652048,17.6521689 L21.5652048,17.6521689 L20.9043358,17.6521689 C20.7909398,17.6516258 20.6968486,17.5643364 20.6878143,17.4512995 C20.5823603,16.0929591 19.4493747,15.0445231 18.086947,15.0445231 C16.7245194,15.0445231 15.5915338,16.0929591 15.4860798,17.4512995 C15.4774493,17.5645316 15.3831188,17.6520431 15.2695583,17.6521689 L15.2695583,17.6521689 L10.4695625,17.6521689 C10.3561665,17.6516258 10.2620753,17.5643364 10.253041,17.4512995 C10.147587,16.0929591 9.0146014,15.0445231 7.65217373,15.0445231 C6.28974605,15.0445231 5.15676049,16.0929591 5.05130647,17.4512995 C5.04267594,17.5645316 4.94834544,17.6520431 4.83478493,17.6521689 L4.83478493,17.6521689 L2.86956929,17.6521689 C2.3893221,17.6521689 1.9999959,17.2628516 1.9999959,16.7826044 L1.9999959,16.7826044 L1.9999959,13.4069553 C1.99817215,12.9121099 2.27817897,12.459376 2.72174333,12.2399998 L2.72174333,12.2399998 L4.67826333,11.2617398 L5.3147845,9.03304612 C5.47623872,8.47419153 5.98698994,8.08882584 6.56869643,8.08696 L6.56869643,8.08696 Z M13.5217337,10.6956533 C13.6417955,10.6956533 13.7391248,10.7929827 13.7391248,10.9130444 L13.7391248,10.9130444 L13.7391248,12.6521733 C13.7391248,12.7722351 13.6417955,12.8695644 13.5217337,12.8695644 L13.5217337,12.8695644 L12.2173871,12.8695644 C11.6170781,12.8695644 11.1304315,12.3829179 11.1304315,11.7826089 C11.1304315,11.1822999 11.6170781,10.6956533 12.2173871,10.6956533 L12.2173871,10.6956533 Z M18.2608599,10.6956533 C18.4049341,10.6956533 18.5217293,10.8124485 18.5217293,10.9565227 L18.5217293,12.6086951 C18.5217293,12.7527693 18.4049341,12.8695644 18.2608599,12.8695644 L14.8695586,12.8695644 C14.7254845,12.8695644 14.6086893,12.7527693 14.6086893,12.6086951 L14.6086893,10.9565227 C14.6086893,10.8124485 14.7254845,10.6956533 14.8695586,10.6956533 L18.2608599,10.6956533 Z M20.9130315,10.6956533 C21.5133405,10.6956533 21.999987,11.1822999 21.999987,11.7826089 C21.999987,12.3829179 21.5133405,12.8695644 20.9130315,12.8695644 L20.9130315,12.8695644 L19.6086848,12.8695644 C19.488623,12.8695644 19.3912937,12.7722351 19.3912937,12.6521733 L19.3912937,12.6521733 L19.3912937,10.9130444 C19.3912937,10.7929827 19.488623,10.6956533 19.6086848,10.6956533 L19.6086848,10.6956533 Z M13.5217337,7.65217778 C13.6417955,7.65217778 13.7391248,7.7495071 13.7391248,7.86956889 L13.7391248,7.86956889 L13.7391248,9.60869778 C13.7391248,9.72875958 13.6417955,9.82608889 13.5217337,9.82608889 L13.5217337,9.82608889 L12.2173871,9.82608889 C11.6170781,9.82608889 11.1304315,9.33944231 11.1304315,8.73913334 C11.1304315,8.13882436 11.6170781,7.65217778 12.2173871,7.65217778 L12.2173871,7.65217778 Z M18.2608599,7.65217778 C18.4049341,7.65217778 18.5217293,7.76897296 18.5217293,7.91304712 L18.5217293,9.56521956 C18.5217293,9.70929371 18.4049341,9.82608889 18.2608599,9.82608889 L14.8695586,9.82608889 C14.7254845,9.82608889 14.6086893,9.70929371 14.6086893,9.56521956 L14.6086893,7.91304712 C14.6086893,7.76897296 14.7254845,7.65217778 14.8695586,7.65217778 L18.2608599,7.65217778 Z M20.9130315,7.65217778 C21.5133405,7.65217778 21.999987,8.13882436 21.999987,8.73913334 C21.999987,9.33944231 21.5133405,9.82608889 20.9130315,9.82608889 L20.9130315,9.82608889 L19.6086848,9.82608889 C19.488623,9.82608889 19.3912937,9.72875958 19.3912937,9.60869778 L19.3912937,9.60869778 L19.3912937,7.86956889 C19.3912937,7.7495071 19.488623,7.65217778 19.6086848,7.65217778 L19.6086848,7.65217778 Z M20.9130315,4.60870223 C21.5133405,4.60870223 21.999987,5.09534881 21.999987,5.69565778 C21.999987,6.29596676 21.5133405,6.78261334 20.9130315,6.78261334 L20.9130315,6.78261334 L19.6086848,6.78261334 C19.488623,6.78261334 19.3912937,6.68528402 19.3912937,6.56522223 L19.3912937,6.56522223 L19.3912937,4.82609334 C19.3912937,4.70603155 19.488623,4.60870223 19.6086848,4.60870223 L19.6086848,4.60870223 Z M18.2608599,4.60870223 C18.4049341,4.60870223 18.5217293,4.72549741 18.5217293,4.86957156 L18.5217293,6.52174401 C18.5217293,6.66581816 18.4049341,6.78261334 18.2608599,6.78261334 L14.8695586,6.78261334 C14.7254845,6.78261334 14.6086893,6.66581816 14.6086893,6.52174401 L14.6086893,4.86957156 C14.6086893,4.72549741 14.7254845,4.60870223 14.8695586,4.60870223 L18.2608599,4.60870223 Z M13.5217337,4.60870223 C13.6417955,4.60870223 13.7391248,4.70603155 13.7391248,4.82609334 L13.7391248,4.82609334 L13.7391248,6.56522223 C13.7391248,6.68528402 13.6417955,6.78261334 13.5217337,6.78261334 L13.5217337,6.78261334 L12.2173871,6.78261334 C11.6170781,6.78261334 11.1304315,6.29596676 11.1304315,5.69565778 C11.1304315,5.09534881 11.6170781,4.60870223 12.2173871,4.60870223 L12.2173871,4.60870223 Z" id="ðŸ–-Color" fill="#5A5A5A"></path>
        <rect id="_Transparent_Rectangle_" x="0" y="0" width="24" height="24"></rect>
    </g>
</svg>