<?xml version="1.0" encoding="UTF-8"?>
<svg width="24px" height="24px" viewBox="0 0 24 24" version="1.1" xmlns="http://www.w3.org/2000/svg" xmlns:xlink="http://www.w3.org/1999/xlink">
    <title>17. Building and Construction/house_fire_1</title>
    <g id="17.-Building-and-Construction/house_fire_1" stroke="none" stroke-width="1" fill="none" fill-rule="evenodd">
        <path d="M10.0275,8.93 C10.3638732,8.59578164 10.9069601,8.59578164 11.2433333,8.93 C12.3683333,10.1325 17.9075,16.0108333 17.9075,16.0108333 C18.1360672,16.2525946 18.19893,16.6071438 18.0674128,16.9127492 C17.9358956,17.2183547 17.6352032,17.416448 17.3025,17.4166667 L17.3025,17.4166667 L16.0525,17.4166667 C15.8223814,17.4166667 15.6358333,17.6032147 15.6358333,17.8333333 L15.6358333,17.8333333 L15.6358333,21.1666667 C15.6358333,21.626904 15.2627373,22 14.8025,22 L14.8025,22 L6.46916667,22 C6.00892938,22 5.63583333,21.626904 5.63583333,21.1666667 L5.63583333,21.1666667 L5.63583333,17.8333333 C5.63583333,17.6032147 5.44928531,17.4166667 5.21916667,17.4166667 L5.21916667,17.4166667 L3.96916667,17.4166667 C3.63690913,17.4168388 3.33629812,17.2196221 3.20414939,16.9147749 C3.07200066,16.6099277 3.1335691,16.2557092 3.36083333,16.0133333 C3.36083333,16.0133333 9.44416667,9.55083333 10.0275,8.93 Z M11.4691667,13.25 L9.8025,13.25 C9.57238135,13.25 9.38583333,13.436548 9.38583333,13.6666667 L9.38583333,13.6666667 L9.38583333,15.3333333 C9.38583333,15.563452 9.57238135,15.75 9.8025,15.75 L9.8025,15.75 L11.4691667,15.75 C11.6992853,15.75 11.8858333,15.563452 11.8858333,15.3333333 L11.8858333,15.3333333 L11.8858333,13.6666667 C11.8858333,13.436548 11.6992853,13.25 11.4691667,13.25 L11.4691667,13.25 Z M20.1606265,2.00308473 L20.2598721,2.01217213 C20.5253084,2.05795657 20.7315533,2.26864775 20.7716667,2.535 C21.1282253,4.73682811 20.5833807,6.98949321 19.26,8.785 C19.2086838,8.84903769 19.1997406,8.93723456 19.2371577,9.01026979 C19.2745748,9.08330501 19.3513808,9.12757127 19.4333333,9.12333333 C19.5743916,9.11788525 19.7142838,9.09550251 19.85,9.05666667 L19.85,9.05666667 C20.0340131,9.00524034 20.235779,9.03970612 20.3932616,9.1540607 C20.5507442,9.26841528 20.6459674,9.44960547 20.6508333,9.64416667 C20.7410953,11.0261968 20.1755056,12.3700898 19.1241667,13.2716667 C18.5905562,13.6442419 17.9689769,13.8711585 17.3208333,13.93 C17.1899111,13.945253 17.0594921,13.8976594 16.9691667,13.8016667 C16.4141667,13.2126488 15.7635991,12.5220366 15.1116939,11.8297608 L14.6779263,11.3690938 C13.4542166,10.0693867 12.3004464,8.84297619 11.8516667,8.36333333 C11.5369663,8.02585913 11.0964377,7.83395767 10.635,7.83333333 L10.635,7.83333333 L10.4820984,7.84005121 C10.0771307,7.87652824 9.69739572,8.06018026 9.41666667,8.35916667 L9.41666667,8.35916667 L8.62583333,9.20583333 C8.56849629,9.26659706 8.48625973,9.29739529 8.40311336,9.28924368 C8.319967,9.28109208 8.24527763,9.23490896 8.20083333,9.16416667 C7.67452414,8.24957434 7.53560908,7.16255649 7.815,6.145 C8.34782436,4.74367311 9.46896916,3.64690101 10.8816667,3.145 C11.2656759,3.02677357 11.6017839,2.78878221 11.8408333,2.46583333 C11.9398578,2.26348241 12.1401183,2.13008153 12.365,2.11666667 C12.5907371,2.10154551 12.8066296,2.21125086 12.9275,2.4025 C13.1785912,2.78945233 13.3410758,3.22710769 13.4033333,3.68416667 C13.4116828,3.7522863 13.4531738,3.81187118 13.5141667,3.84333333 C13.575003,3.87505096 13.647497,3.87505096 13.7083333,3.84333333 C15.2288444,3.12486558 16.9272756,2.8701009 18.5916667,3.11083333 C19.0371938,3.03647098 19.4163126,2.74486519 19.6025,2.33333333 C19.7295256,2.09581046 19.9944359,1.96638769 20.2598721,2.01217213 Z" id="ðŸ–-Color" fill="#5A5A5A"></path>
        <rect id="_Transparent_Rectangle_" x="0" y="0" width="24" height="24"></rect>
    </g>
</svg>