<?xml version="1.0" encoding="UTF-8"?>
<svg width="24px" height="24px" viewBox="0 0 24 24" version="1.1" xmlns="http://www.w3.org/2000/svg" xmlns:xlink="http://www.w3.org/1999/xlink">
    <title>17. Building and Construction/traffic_light</title>
    <g id="17.-Building-and-Construction/traffic_light" stroke="none" stroke-width="1" fill="none" fill-rule="evenodd">
        <path d="M21.1666667,2 L8.04166667,2 C7.58142938,2 7.20833333,2.37309604 7.20833333,2.83333333 L7.20833333,3.45833333 C7.20833333,3.68845198 7.02178531,3.875 6.79166667,3.875 C5.29665688,3.87683662 4.08516996,5.08832355 4.08333333,6.58333333 L4.08333333,19.5 C4.08333333,19.7301186 3.89678531,19.9166667 3.66666667,19.9166667 L3.04166667,19.9166667 C2.46637005,19.9166667 2,20.3830367 2,20.9583333 C2,21.5336299 2.46637005,22 3.04166667,22 L7.20833333,22 C7.78362995,22 8.25,21.5336299 8.25,20.9583333 C8.25,20.3830367 7.78362995,19.9166667 7.20833333,19.9166667 L6.58333333,19.9166667 C6.35321469,19.9166667 6.16666667,19.7301186 6.16666667,19.5 L6.16666667,6.58333333 C6.16666667,6.23815536 6.4464887,5.95833333 6.79166667,5.95833333 C7.02178531,5.95833333 7.20833333,6.14488135 7.20833333,6.375 L7.20833333,7.83333333 C7.20833333,8.29357062 7.58142938,8.66666667 8.04166667,8.66666667 L21.1666667,8.66666667 C21.626904,8.66666667 22,8.29357062 22,7.83333333 L22,2.83333333 C22,2.37309604 21.626904,2 21.1666667,2 Z M10.3333333,6.58333333 C9.6429774,6.58333333 9.08333333,6.02368927 9.08333333,5.33333333 C9.08333333,4.6429774 9.6429774,4.08333333 10.3333333,4.08333333 C11.0236893,4.08333333 11.5833333,4.6429774 11.5833333,5.33333333 C11.5833333,6.02368927 11.0236893,6.58333333 10.3333333,6.58333333 L10.3333333,6.58333333 Z M14.5,6.58333333 C13.8096441,6.58333333 13.25,6.02368927 13.25,5.33333333 C13.25,4.6429774 13.8096441,4.08333333 14.5,4.08333333 C15.1903559,4.08333333 15.75,4.6429774 15.75,5.33333333 C15.75,6.02368927 15.1903559,6.58333333 14.5,6.58333333 L14.5,6.58333333 Z M18.6666667,6.58333333 C17.9763107,6.58333333 17.4166667,6.02368927 17.4166667,5.33333333 C17.4166667,4.6429774 17.9763107,4.08333333 18.6666667,4.08333333 C19.3570226,4.08333333 19.9166667,4.6429774 19.9166667,5.33333333 C19.9166667,6.02368927 19.3570226,6.58333333 18.6666667,6.58333333 L18.6666667,6.58333333 Z" id="ðŸ–-Color" fill="#5A5A5A"></path>
        <rect id="_Transparent_Rectangle_" x="0" y="0" width="24" height="24"></rect>
    </g>
</svg>