<?xml version="1.0" encoding="utf-8"?>
<!-- Generator: Adobe Illustrator 24.2.1, SVG Export Plug-In . SVG Version: 6.00 Build 0)  -->
<svg version="1.1" id="Layer_1" xmlns="http://www.w3.org/2000/svg" xmlns:xlink="http://www.w3.org/1999/xlink" x="0px"
     y="0px"
     viewBox="0 0 635 686" style="enable-background:new 0 0 635 686;" xml:space="preserve">
<style type="text/css">
	.st0 {
    opacity: 0.4747;
    fill-rule: evenodd;
    clip-rule: evenodd;
    fill: #FAEC9A;
    enable-background: new;
  }

  .st1 {
    opacity: 0.2015;
    fill-rule: evenodd;
    clip-rule: evenodd;
    fill: #FFDE1B;
    enable-background: new;
  }
</style>
  <g id="Page-1">
	<g id="IDM-V2" transform="translate(-68.000000, -1680.000000)">
		<g id="Group" transform="translate(68.000000, 1680.000000)">
			<path id="Path-3" class="st0" d="M200.5,440.7c-76.6-77.7-106-222.6-70.7-285.6s111.2-27.7,142.5-63S411.9-64,459.8,43.8
				s30.1,288,15,357.4c-10,46.3-15,75.9-15,88.9C338,509,251.6,492.5,200.5,440.7z"/>
      <path id="Path-3-Copy-2" class="st1" d="M116.4,280.6c62-121.1,115.3-182.2,160.2-183.3c67.2-1.7,62.6,146.1,106.1,154.5
				c43.5,8.5,274.8-1.2,215.4,90.7c-59.4,91.9-158.1,116-219.9,137.4s-139.2,68.7-227.3,1.6C92.1,436.7,80.6,369.7,116.4,280.6z"/>
      <g id="exploded_mockup-kopya">

					<image style="overflow:visible;enable-background:new    ;" width="636" height="766"
                 xlink:href="A7D827E487C2AE59.png" transform="matrix(0.7894 0 0 0.7894 51.9885 56.7881)">
				</image>
			</g>
		</g>
	</g>
</g>
</svg>
