<svg xmlns="http://www.w3.org/2000/svg" width="30.796" height="26.045" viewBox="0 0 30.796 26.045" fill="currentColor">
  <path id="_" data-name="‘‘"
        d="M17.295-51.44v5.229a9.1,9.1,0,0,0-3.726.94,4.137,4.137,0,0,0-1.812,2.461,17.2,17.2,0,0,0-.547,4.939h6.084V-25.4H4.888v-11.86q0-7.417,3.162-10.8T17.295-51.44Zm18.389,0v5.229a9.1,9.1,0,0,0-3.726.94,4.137,4.137,0,0,0-1.812,2.461,17.2,17.2,0,0,0-.547,4.939h6.084V-25.4H23.276v-11.86q0-7.417,3.162-10.8T35.684-51.44Z"
        transform="translate(-4.888 51.44)" fill="#fdbd28"/>
</svg>
