<?xml version="1.0" encoding="UTF-8"?>
<svg width="104px" height="108px" viewBox="0 0 104 108" version="1.1" xmlns="http://www.w3.org/2000/svg">
  <title>icon background copy 5</title>
  <defs>
    <linearGradient x1="50%" y1="0%" x2="50%" y2="83.4544362%" id="linearGradient-1">
      <stop stop-color="#9986F9" offset="0%"></stop>
      <stop stop-color="#7163D5" offset="100%"></stop>
    </linearGradient>
    <linearGradient x1="50%" y1="0%" x2="50%" y2="83.4544362%" id="linearGradient-2">
      <stop stop-color="#9986F9" offset="0%"></stop>
      <stop stop-color="#7163D5" offset="100%"></stop>
    </linearGradient>
    <linearGradient x1="50%" y1="0%" x2="50%" y2="83.4544362%" id="linearGradient-3">
      <stop stop-color="#9986F9" offset="0%"></stop>
      <stop stop-color="#7163D5" offset="100%"></stop>
    </linearGradient>
  </defs>
  <g id="Page-1" stroke="none" stroke-width="1" fill="none" fill-rule="evenodd" opacity="0.5">
    <g id="IDM-V2" transform="translate(-148.000000, -2649.000000)">
      <g id="Group-5" transform="translate(71.000000, 2610.000000)">
        <path
          d="M121.084321,52.8481676 L158.617633,74.4541552 C175.581842,84.2195738 181.793945,105.647075 172.683528,122.971857 C163.174435,141.054778 142.29764,150.003656 122.644357,144.421245 L105.444922,139.535835 C85.0774027,133.750548 73.256168,112.549511 79.0414549,92.1819917 C79.7661696,89.6305814 80.7537009,87.1612661 81.9881814,84.8137219 L94.7887467,60.4715871 C99.672703,51.1840346 111.160981,47.6142146 120.448533,52.4981708 C120.662672,52.6107778 120.87464,52.7274647 121.084321,52.8481676 Z"
          id="Rectangle" fill="url(#linearGradient-1)" opacity="0.168503534"></path>
        <path
          d="M127.653086,66.6572309 L173.484025,81.4062563 C178.651018,83.0690656 181.49172,88.6057141 179.82891,93.772707 C178.615831,97.5422155 175.259023,100.215516 171.313632,100.554119 L141.704041,103.095287 C129.817391,104.115429 119.269066,111.120085 113.717323,121.679975 L104.418962,139.366252 C101.621853,144.686592 95.0413601,146.732075 89.7210195,143.934966 C86.3446144,142.159859 84.1439923,138.746627 83.9207518,134.938572 L81.9911215,102.022787 C80.8598783,82.725951 95.586001,66.1657207 114.882837,65.0344775 C119.203305,64.7811976 123.533277,65.33142 127.653086,66.6572309 Z"
          id="Rectangle-Copy-51" fill="url(#linearGradient-2)" opacity="0.184035528"></path>
        <path
          d="M83.1227006,45.3873699 L115.233072,60.4112941 C121.410143,63.3014459 124.074717,70.6518823 121.184566,76.8289533 C119.386135,80.6727084 115.739937,83.3236883 111.528913,83.8491271 L90.3438306,86.4925375 C77.2821665,88.1223324 66.2393973,96.9427256 61.763247,109.32123 L53.1739884,133.07427 C51.4537598,137.831451 46.202782,140.293388 41.4456011,138.573159 C37.9447017,137.30721 35.5582732,134.04828 35.4082881,130.328546 L33.3184477,78.4990828 C32.5396678,59.184811 47.5656529,42.8961742 66.8799248,42.1173943 C72.477863,41.8916772 78.0481908,43.0130887 83.1227006,45.3873699 Z"
          id="Rectangle-Copy-52" fill="url(#linearGradient-3)" opacity="0.172177269"
          transform="translate(92.500000, 99.000000) rotate(151.000000) translate(-92.500000, -99.000000) "></path>
      </g>
    </g>
  </g>
</svg>
