<svg id="layout-pin" xmlns="http://www.w3.org/2000/svg" width="19.929" height="20.064" viewBox="0 0 19.929 20.064"
     fill="currentColor">
  <path id="layout-pin-2" data-name="layout-pin"
        d="M16.931,4.016H14.766a3,3,0,0,0-5.67,0H6.931a3,3,0,0,0-3,3v2.2a3,3,0,0,0,0,5.608v2.2a3,3,0,0,0,3,3H9.085a3,3,0,0,0,5.692,0h2.154a3,3,0,0,0,3-3V14.845a3,3,0,0,0,0-5.657V7.016A3,3,0,0,0,16.931,4.016Zm-11,10.853v2.147a1,1,0,0,0,1,1H9.119a3,3,0,0,1,5.623,0h2.188a1,1,0,0,0,1-1v-2.17a3,3,0,0,1,0-5.66V7.016a1,1,0,0,0-1-1H14.754a3,3,0,0,1-5.647,0H6.931a1,1,0,0,0-1,1V9.163a3,3,0,0,1,0,5.706Z"
        transform="translate(-2 -2)" fill-rule="evenodd"/>
</svg>
