<?xml version="1.0" encoding="UTF-8"?>
<svg width="38px" height="33px" viewBox="0 0 38 33" version="1.1" xmlns="http://www.w3.org/2000/svg" xmlns:xlink="http://www.w3.org/1999/xlink">
    <title>carousel</title>
    <g id="Page-2" stroke="none" stroke-width="1" fill="none" fill-rule="evenodd">
        <g id="Report-Designer-Features" transform="translate(-102.000000, -2739.000000)" fill="#3ABF7C">
            <g id="section4" transform="translate(102.000000, 2450.012037)">
                <g id="carousel" transform="translate(0.000000, 288.987963)">
                    <path d="M5.18181818,0 C2.31998636,0 0,2.41767 0,5.4 L0,12.6 C0,15.58242 2.31998636,18 5.18181818,18 L32.8181818,18 C35.6801,18 38,15.58242 38,12.6 L38,5.4 C38,2.41767 35.6801,0 32.8181818,0 L5.18181818,0 Z M32.8181818,3.6 L5.18181818,3.6 C4.22788,3.6 3.45454545,4.405896 3.45454545,5.4 L3.45454545,12.6 C3.45454545,13.59414 4.22788,14.4 5.18181818,14.4 L32.8181818,14.4 C33.7721545,14.4 34.5454545,13.59414 34.5454545,12.6 L34.5454545,5.4 C34.5454545,4.405878 33.7721545,3.6 32.8181818,3.6 Z" id="Shape"></path>
                    <path d="M11,31 C11,29.8954 11.761124,29 12.7,29 L26.3,29 C27.23891,29 28,29.8954 28,31 C28,32.1046 27.23891,33 26.3,33 L12.7,33 C11.761124,33 11,32.1046 11,31 Z" id="Path" fill-rule="nonzero"></path>
                    <path d="M6.75,22 C5.78351,22 5,22.8954 5,24 C5,25.1046 5.78351,26 6.75,26 L31.25,26 C32.216525,26 33,25.1046 33,24 C33,22.8954 32.216525,22 31.25,22 L6.75,22 Z" id="Path" fill-rule="nonzero"></path>
                </g>
            </g>
        </g>
    </g>
</svg>