<?xml version="1.0" encoding="UTF-8"?>
<svg width="35px" height="43px" viewBox="0 0 35 43" version="1.1" xmlns="http://www.w3.org/2000/svg" xmlns:xlink="http://www.w3.org/1999/xlink">
    <title>copy (1)</title>
    <g id="Page-2" stroke="none" stroke-width="1" fill="none" fill-rule="evenodd">
        <g id="Report-Designer-Features" transform="translate(-103.000000, -2904.000000)" fill="#3ABF7C">
            <g id="section4" transform="translate(102.000000, 2450.012037)">
                <g id="copy-(1)" transform="translate(1.000000, 453.987963)">
                    <polygon id="Path" fill-rule="nonzero" points="20 12 8 12 8 8 20 8"></polygon>
                    <polygon id="Path" fill-rule="nonzero" points="20 20 8 20 8 16 20 16"></polygon>
                    <polygon id="Path" fill-rule="nonzero" points="8 27 20 27 20 23 8 23"></polygon>
                    <path d="M0,35.1818182 L0,0 L27.2222222,0 L27.2222222,7.81818182 L35,7.81818182 L35,43 L7.77777778,43 L7.77777778,35.1818182 L0,35.1818182 Z M23.3333333,31.2727273 L23.3333333,3.90909091 L3.88888889,3.90909091 L3.88888889,31.2727273 L23.3333333,31.2727273 Z M27.2222222,11.7272727 L27.2222222,35.1818182 L11.6666667,35.1818182 L11.6666667,39.0909091 L31.1111111,39.0909091 L31.1111111,11.7272727 L27.2222222,11.7272727 Z" id="Shape"></path>
                </g>
            </g>
        </g>
    </g>
</svg>