<?xml version="1.0" encoding="UTF-8"?>
<svg width="33px" height="38px" viewBox="0 0 33 38" version="1.1" xmlns="http://www.w3.org/2000/svg" xmlns:xlink="http://www.w3.org/1999/xlink">
    <title>ring</title>
    <g id="Page-2" stroke="none" stroke-width="1" fill="none" fill-rule="evenodd">
        <g id="Report-Designer-Features" transform="translate(-698.000000, -1956.000000)" fill="#38B678">
            <g id="section3" transform="translate(102.000000, 1692.000000)">
                <g id="ring" transform="translate(596.000000, 264.000000)">
                    <path d="M8,4.100495 C8.77692611,3.245935 9.62929677,2.524935 10.5335336,1.9375125 C14.5102185,-0.6458375 19.4898451,-0.6458375 23.4663551,1.9375125 C24.3706714,2.524935 25.2229625,3.245935 26,4.100495 L16.9999523,14 L8,4.100495 Z M17,9 L13,4.92155929 C15.5227677,3.69281357 18.4773869,3.69281357 21,4.92155929 L17,9 Z" id="Shape"></path>
                    <path d="M0,20.5446912 C0,15.0793119 2.3743335,10.2006054 6.091338,7 L8.440212,9.48486794 C5.3137095,12.0385272 3.3,16.0427925 3.3,20.5446912 C3.3,28.2569703 9.209838,34.5089382 16.5,34.5089382 C23.790195,34.5089382 29.7,28.2569703 29.7,20.5446912 C29.7,16.0427925 27.68634,12.0385622 24.559755,9.48490285 L26.908695,7 C30.62565,10.2006403 33,15.0793293 33,20.5446912 C33,30.1849092 25.61262,38 16.5,38 C7.3872975,38 0,30.1849092 0,20.5446912 Z" id="Path" fill-rule="nonzero"></path>
                </g>
            </g>
        </g>
    </g>
</svg>