<?xml version="1.0" encoding="UTF-8"?>
<svg height="51px" version="1.1" viewBox="0 0 37 51" width="37px" xmlns="http://www.w3.org/2000/svg">
  <title>bell</title>
  <defs>
    <linearGradient x1="50%" y1="0%" x2="50%" y2="83.4544362%" id="linearGradient-1">
      <stop stop-color="#4FC68A" offset="0%"></stop>
      <stop stop-color="#139554" offset="100%"></stop>
    </linearGradient>
  </defs>
  <g id="Page-2" stroke="none" stroke-width="1" fill="none" fill-rule="evenodd">
    <g id="Diagnose-Features" transform="translate(-1157.000000, -1834.000000)" fill="url(#linearGradient-1)">
      <g id="section3" transform="translate(-7.000000, 1668.000000)">
                <g id="Shape" transform="translate(1164.000000, 166.000000)">
                    <path d="M23.125,4.63636364 L23.125,5.30835818 C29.8115938,7.30326955 34.6875,13.5126355 34.6875,20.8636364 L34.6875,37.0909091 L37,37.0909091 L37,41.7272727 L0,41.7272727 L0,37.0909091 L2.3125,37.0909091 L2.3125,20.8636364 C2.3125,13.5126355 7.18842938,7.30326955 13.875,5.30835818 L13.875,4.63636364 C13.875,2.07576955 15.9456125,0 18.5,0 C21.0543875,0 23.125,2.07576955 23.125,4.63636364 Z M6.9375,37.0909091 L30.0625,37.0909091 L30.0625,20.8636364 C30.0625,14.4621627 24.8857375,9.27272727 18.5,9.27272727 C12.1142163,9.27272727 6.9375,14.4621627 6.9375,20.8636364 L6.9375,37.0909091 Z M23.125,46.3636364 L23.125,44.0454545 L13.875,44.0454545 L13.875,46.3636364 C13.875,48.9243 15.9456125,51 18.5,51 C21.0543875,51 23.125,48.9243 23.125,46.3636364 Z"></path>
                </g>
            </g>
        </g>
    </g>
</svg>
