<svg xmlns="http://www.w3.org/2000/svg" width="19" height="16" viewBox="0 0 19 16">
  <defs>
    <style>.a {
      fill: #fff;
    }</style>
  </defs>
  <path class="a"
        d="M19,1.894a7.59,7.59,0,0,1-2.239.636A4.032,4.032,0,0,0,18.474.3,7.642,7.642,0,0,1,16,1.275,3.826,3.826,0,0,0,13.154,0a3.971,3.971,0,0,0-3.9,4.038,4.134,4.134,0,0,0,.1.921A10.944,10.944,0,0,1,1.323.739,4.127,4.127,0,0,0,.8,2.77,4.078,4.078,0,0,0,2.529,6.131,3.771,3.771,0,0,1,.763,5.626v.051a4.01,4.01,0,0,0,3.126,3.96,3.788,3.788,0,0,1-1.76.069,3.926,3.926,0,0,0,3.641,2.806A7.658,7.658,0,0,1,.929,14.241,7.824,7.824,0,0,1,0,14.185,10.76,10.76,0,0,0,5.975,16c7.17,0,11.09-6.155,11.09-11.493,0-.175,0-.349-.012-.523A8.118,8.118,0,0,0,19,1.894Z"/>
</svg>
