<svg height="24" viewBox="0 0 24 24" width="24" xmlns="http://www.w3.org/2000/svg"
     xmlns:xlink="http://www.w3.org/1999/xlink">
  <defs>
    <path
      d="M7.219 12.023c.203 0 .38-.07.533-.21.152-.141.236-.313.252-.516l.879-8.672h.515c.102 0 .19-.037.264-.111.074-.075.111-.162.111-.264 0-.102-.037-.19-.11-.264-.075-.074-.163-.111-.265-.111H6.762V.855c0-.242-.086-.445-.258-.609C6.332.082 6.129 0 5.894 0H3.88c-.234 0-.438.082-.61.246-.171.164-.257.367-.257.61v1.019H.375c-.102 0-.19.037-.264.111C.037 2.061 0 2.148 0 2.25c0 .102.037.19.111.264.075.074.162.111.264.111h.516l.867 8.672c.023.203.111.375.263.515.153.141.33.211.534.211h4.664zM6.012 1.875h-2.25V.855c0-.03.011-.058.035-.082.023-.023.05-.035.082-.035h2.016c.03 0 .058.012.082.035.023.024.035.051.035.082v1.02zm1.207 9.398H2.555c-.008 0-.018-.005-.03-.017-.011-.012-.017-.022-.017-.03l-.856-8.601h6.47l-.856 8.602c0 .015-.006.027-.018.035-.012.008-.021.011-.03.011z"
      id="prefix__a"/>
  </defs>
  <g fill="none" fill-rule="evenodd" transform="translate(7 6)">
    <mask fill="#fff" id="prefix__b">
      <use xlink:href="#prefix__a"/>
    </mask>
    <g fill="#FF3E51" mask="url(#prefix__b)">
      <path d="M0 0H24V24H0z" transform="translate(-7 -6)"/>
    </g>
  </g>
</svg>
