<svg height="24" viewBox="0 0 25 24" width="25" xmlns="http://www.w3.org/2000/svg"
     xmlns:xlink="http://www.w3.org/1999/xlink">
  <defs>
    <path
      d="M.385 12.023c.024 0 .046-.002.066-.005.02-.004.038-.01.054-.018.008 0 .165-.049.47-.146.304-.098.647-.206 1.028-.323l1.112-.345c.36-.114.597-.186.71-.217.032-.008.062-.02.09-.035.028-.016.054-.036.078-.059l1.25-1.207c.763-.734 1.598-1.541 2.508-2.42l2.544-2.455c.786-.758 1.235-1.195 1.347-1.313.233-.234.41-.474.53-.72.12-.246.176-.498.168-.756-.008-.242-.072-.483-.193-.72-.12-.24-.3-.468-.54-.686-.21-.196-.428-.344-.656-.446C10.722.051 10.484 0 10.235 0c-.385 0-.71.088-.974.264-.265.175-.437.302-.517.38-.056.047-.483.461-1.281 1.243-.798.781-1.666 1.629-2.604 2.543L2.291 6.932l-1.16 1.13c-.025.024-.045.05-.06.077-.017.027-.033.056-.049.088-.04.156-.114.412-.222.767-.108.356-.22.72-.337 1.096l-.307.99c-.088.285-.136.432-.144.44-.016.07-.016.14 0 .21.016.07.052.13.108.176.032.04.072.069.12.088.049.02.097.03.145.03zm10.62-9c-.056-.156-.14-.328-.253-.515-.112-.188-.26-.371-.445-.551-.192-.187-.38-.338-.565-.451-.184-.113-.353-.201-.505-.264l.036-.035.024-.023c.016-.024.114-.098.295-.223.18-.125.395-.188.643-.188.144 0 .287.032.427.094.14.063.275.156.403.281.16.149.283.297.367.446.084.148.126.293.126.433 0 .141-.04.29-.12.446-.08.156-.2.312-.361.468-.008.008-.018.02-.03.036-.012.015-.026.03-.042.046zm-6.988 6.75c-.064-.14-.15-.294-.259-.462-.108-.168-.242-.334-.402-.498-.2-.196-.4-.352-.596-.47-.196-.116-.375-.206-.535-.269l.954-.93.405-.394c.57-.555 1.165-1.137 1.786-1.746.622-.61 1.225-1.2 1.81-1.77.586-.57 1.067-1.035 1.443-1.394.097.023.249.082.457.176.209.093.433.254.674.48.24.234.403.467.487.697.084.23.13.377.138.44-.376.36-.856.82-1.437 1.383l-1.798 1.74c-.617.598-1.209 1.168-1.774 1.71-.565.544-1.016.98-1.353 1.307zm-3.09 1.325c.111-.352.246-.766.402-1.243.156-.476.279-.859.367-1.148.112.023.268.084.469.182.2.097.413.256.637.474.169.164.297.332.385.504.088.172.153.317.193.434-.265.086-.646.21-1.143.375-.497.164-.934.304-1.31.422z"
      id="prefix__a"/>
  </defs>
  <g fill="none" fill-rule="evenodd" transform="translate(6.395 6)">
    <mask fill="#fff" id="prefix__b">
      <use xlink:href="#prefix__a"/>
    </mask>
    <g fill="#0090FF" mask="url(#prefix__b)">
      <path d="M0 0H24.632V24H0z" transform="translate(-6.158 -6)"/>
    </g>
  </g>
</svg>
