<svg height="24" viewBox="0 0 24 24" width="24" xmlns="http://www.w3.org/2000/svg"
     xmlns:xlink="http://www.w3.org/1999/xlink">
  <defs>
    <path
      d="M6.012 8.273c.625 0 1.236-.087 1.834-.263.597-.176 1.158-.43 1.681-.762.524-.332.996-.74 1.418-1.225.422-.484.766-1.039 1.032-1.664.007-.007.011-.013.011-.017v-.018l.006-.006.006-.005v-.036c0-.007.004-.015.012-.023 0-.016.002-.033.006-.053.003-.02.005-.037.005-.053 0-.015-.002-.03-.005-.046-.004-.016-.006-.032-.006-.047-.008-.016-.012-.028-.012-.035v-.024c0-.008-.002-.014-.006-.017l-.006-.006v-.018c0-.004-.004-.01-.011-.018-.266-.624-.61-1.181-1.032-1.67-.422-.488-.89-.9-1.406-1.236C9.023.695 8.467.44 7.87.264 7.271.088 6.66 0 6.035 0s-1.238.088-1.84.264c-.601.175-1.164.431-1.687.767-.524.336-.998.748-1.424 1.237-.426.488-.775 1.045-1.049 1.67v.035l-.006.006-.006.005v.036c0 .007-.003.015-.011.023 0 .016-.002.033-.006.053-.004.02-.006.037-.006.052 0 .016.002.032.006.047.004.016.006.032.006.047.008.016.011.028.011.035v.024c0 .008.002.013.006.017l.006.006v.035c.274.625.621 1.18 1.043 1.664.422.485.895.893 1.418 1.225.524.332 1.084.586 1.682.762.597.176 1.209.263 1.834.263zm0-.75c-.532 0-1.055-.07-1.57-.21-.516-.141-1.003-.352-1.46-.633-.457-.282-.877-.633-1.26-1.055-.382-.422-.699-.914-.949-1.477.25-.562.567-1.054.95-1.476.382-.422.804-.776 1.265-1.06.461-.286.951-.5 1.471-.645C4.979.822 5.504.75 6.035.75c.531 0 1.055.072 1.57.217.516.144 1.002.36 1.46.644.456.285.873.639 1.248 1.06.374.423.687.915.937 1.477-.25.563-.564 1.055-.943 1.477-.38.422-.797.773-1.254 1.055-.457.28-.946.492-1.465.633-.52.14-1.045.21-1.576.21zm.035-1.125c.625 0 1.156-.218 1.594-.656.437-.437.656-.969.656-1.594 0-.617-.219-1.146-.656-1.587-.438-.442-.97-.663-1.594-.663-.617 0-1.147.221-1.588.663-.441.441-.662.97-.662 1.587 0 .625.22 1.157.662 1.594.441.438.97.656 1.588.656zm0-.75c-.406 0-.76-.148-1.06-.445-.301-.297-.452-.652-.452-1.066 0-.414.147-.768.44-1.06.293-.294.646-.44 1.06-.44.414 0 .768.146 1.06.44.294.292.44.646.44 1.06 0 .414-.144.77-.433 1.066-.29.297-.641.445-1.055.445z"
      id="prefix__a"/>
  </defs>
  <g fill="none" fill-rule="evenodd" transform="translate(6 8)">
    <mask fill="#fff" id="prefix__b">
      <use xlink:href="#prefix__a"/>
    </mask>
    <g fill="#0090FF" mask="url(#prefix__b)">
      <path d="M0 0H24V24H0z" transform="translate(-6 -8)"/>
    </g>
  </g>
</svg>
