<svg height="24" viewBox="0 0 24 24" width="24" xmlns="http://www.w3.org/2000/svg"
     xmlns:xlink="http://www.w3.org/1999/xlink">
  <defs>
    <path
      d="M8.05 6.387c.313 0 .62-.06.92-.182.301-.121.57-.299.803-.533l1.512-1.512c.242-.242.422-.512.54-.808.116-.297.175-.602.175-.914 0-.313-.059-.62-.176-.92-.117-.301-.297-.569-.539-.803-.234-.242-.502-.422-.803-.54C10.182.06 9.875 0 9.562 0c-.312 0-.619.059-.92.176-.3.117-.568.297-.802.539L6.328 2.18c-.375.375-.601.82-.68 1.336-.078.515-.007 1 .211 1.453l.586-.586c-.086-.29-.095-.584-.029-.885.066-.3.213-.564.44-.791l1.511-1.465c.164-.156.348-.277.551-.363.203-.086.418-.129.645-.129.226 0 .44.043.644.129.203.086.387.207.55.363.329.328.493.727.493 1.196 0 .468-.164.863-.492 1.183L9.246 5.145c-.156.156-.338.277-.545.363-.207.086-.424.129-.65.129h-.164c-.055 0-.11-.004-.164-.012l-.598.598c.148.062.3.105.457.129.156.023.313.035.469.035zM3.728 8.695c.046 0 .093-.01.14-.029.047-.02.09-.049.13-.088l4.546-4.57c.07-.078.105-.168.105-.27 0-.101-.035-.187-.105-.258-.078-.078-.168-.117-.27-.117-.101 0-.191.04-.27.117L3.47 8.05c-.078.079-.117.169-.117.27 0 .102.039.188.117.258.031.04.07.068.117.088.047.02.094.03.14.03zM2.437 12c.313 0 .62-.059.92-.176.301-.117.569-.297.803-.539L5.672 9.82c.367-.36.59-.775.668-1.248.078-.472.023-.931-.164-1.377l-.598.586c.063.274.059.541-.012.803-.07.262-.21.498-.421.709l-1.512 1.465c-.164.156-.348.277-.551.363-.203.086-.418.129-.644.129-.227 0-.442-.043-.645-.129-.203-.086-.387-.207-.55-.363C.913 10.43.75 10.03.75 9.563c0-.47.164-.864.492-1.184L2.72 6.844c.156-.157.338-.278.545-.364.207-.085.424-.128.65-.128.078 0 .154.005.229.017.074.012.146.03.216.053l.586-.586c-.164-.078-.332-.137-.504-.176-.171-.039-.347-.058-.527-.058-.312 0-.62.06-.92.181-.3.121-.568.299-.803.533L.715 7.84c-.242.242-.422.512-.54.808C.06 8.945 0 9.25 0 9.563c0 .312.059.619.176.92.117.3.297.568.539.802.234.242.502.422.803.54.3.116.607.175.92.175z"
      id="prefix__a"/>
  </defs>
  <g fill="none" fill-rule="evenodd" transform="translate(6 6)">
    <mask fill="#fff" id="prefix__b">
      <use xlink:href="#prefix__a"/>
    </mask>
    <g fill="#0090FF" mask="url(#prefix__b)">
      <path d="M0 0H24V24H0z" transform="translate(-6 -6)"/>
    </g>
  </g>
</svg>
