<svg height="24" viewBox="0 0 24 24" width="24" xmlns="http://www.w3.org/2000/svg"
     xmlns:xlink="http://www.w3.org/1999/xlink">
  <defs>
    <path
      d="M9.75 12V9.75h1.418c.227 0 .422-.082.586-.246.164-.164.246-.363.246-.598V3.82c0-.226-.082-.422-.246-.586-.164-.164-.36-.246-.586-.246H9.75V0h-7.5v2.988H.832c-.227 0-.422.082-.586.246-.164.164-.246.36-.246.586v5.086c0 .235.082.434.246.598.164.164.36.246.586.246H2.25V12h7.5zM9 2.988H3V.738h6v2.25zM11.168 9H9.75V6.363h-7.5v2.625H.832c-.023 0-.043-.008-.059-.023C.758 8.949.75 8.93.75 8.906V3.82c0-.023.008-.043.023-.058.016-.016.036-.024.059-.024h10.336c.023 0 .043.008.059.024.015.015.023.035.023.058v5.086c0 .024-.008.045-.023.065-.016.02-.036.029-.059.029zM9.75 5.238c.102 0 .19-.035.264-.105.074-.07.111-.16.111-.27 0-.101-.037-.19-.111-.263-.075-.075-.162-.112-.264-.112h-.375c-.102 0-.19.037-.264.112-.074.074-.111.162-.111.263 0 .11.037.2.111.27.075.07.162.105.264.105h.375zM9 11.25H3V7.113h6v4.137z"
      id="prefix__a"/>
  </defs>
  <g fill="none" fill-rule="evenodd" transform="translate(6 6)">
    <mask fill="#fff" id="prefix__b">
      <use xlink:href="#prefix__a"/>
    </mask>
    <g fill="#0090FF" mask="url(#prefix__b)">
      <path d="M0 0H24V24H0z" transform="translate(-6 -6)"/>
    </g>
  </g>
</svg>
