<svg fill="none" height="31" viewBox="0 0 36 31" width="36" xmlns="http://www.w3.org/2000/svg">
  <path clip-rule="evenodd"
        d="M11 14C14.8659 14 18 10.866 18 7C18 3.13401 14.8659 0 11 0C7.13401 0 4 3.13401 4 7C4 10.866 7.13401 14 11 14ZM11 10C12.6569 10 14 8.65685 14 7C14 5.34314 12.6569 4 11 4C9.34314 4 8 5.34314 8 7C8 8.65685 9.34314 10 11 10Z"
        fill="#707070" fill-rule="evenodd"/>
  <path
    d="M16.5 18.5556C17.5126 18.5556 18.3333 19.3515 18.3333 20.3333V31H22V20.3333C22 17.3877 19.5377 15 16.5 15H5.5C2.46244 15 0 17.3877 0 20.3333V31H3.66667V20.3333C3.66667 19.3515 4.48749 18.5556 5.5 18.5556H16.5Z"
    fill="#707070"/>
  <path d="M36 14H25V17H36V14Z" fill="#008FFF"/>
  <path d="M25 21H36V24H25V21Z" fill="#707070"/>
  <path d="M36 7H25V10H36V7Z" fill="#707070"/>
</svg>
