<svg fill="none" height="35" viewBox="0 0 35 35" width="35" xmlns="http://www.w3.org/2000/svg">
  <path d="M21.4375 8.75L23.625 6.5625L17.0625 0L10.5 6.5625L12.6875 8.75L17.0625 4.37501L21.4375 8.75Z"
        fill="#008FFF"/>
  <path d="M6.5625 23.625L8.75 21.5833L4.37501 17.5L8.75 13.4167L6.5625 11.375L0 17.5L6.5625 23.625Z" fill="#707070"/>
  <path d="M10.5 28.4376L17.0625 35L23.625 28.4376L21.4375 26.25L17.0625 30.6251L12.6875 26.25L10.5 28.4376Z"
        fill="#008FFF"/>
  <path d="M26.25 13.4167L30.6251 17.5L26.25 21.5833L28.4376 23.625L35 17.5L28.4376 11.375L26.25 13.4167Z"
        fill="#707070"/>
  <path clip-rule="evenodd"
        d="M17.5 11.375C20.8827 11.375 23.625 14.1173 23.625 17.5C23.625 20.8827 20.8827 23.625 17.5 23.625C14.1173 23.625 11.375 20.8827 11.375 17.5C11.375 14.1173 14.1173 11.375 17.5 11.375ZM17.9375 14C19.6289 14 21 15.3711 21 17.0625C21 18.7539 19.6289 20.125 17.9375 20.125C16.2461 20.125 14.875 18.7539 14.875 17.0625C14.875 15.3711 16.2461 14 17.9375 14Z"
        fill="#707070" fill-rule="evenodd"/>
</svg>
