<svg fill="none" height="35" viewBox="0 0 35 35" width="35" xmlns="http://www.w3.org/2000/svg">
  <path d="M4.39394 4.39394H13.1818V0H0V13.1818H4.39394V4.39394Z" fill="#707070"/>
  <path d="M13.1818 30.6061H4.39394V21.8182H0V35H13.1818V30.6061Z" fill="#707070"/>
  <path d="M21.8184 4.39394H30.6062V13.1818H35.0002V0H21.8184V4.39394Z" fill="#707070"/>
  <path d="M21.8184 30.6061H30.6062V21.8182H35.0002V35H21.8184V30.6061Z" fill="#707070"/>
  <path
    d="M17.7273 10C13.4596 10 10 13.4596 10 17.7273C10 21.9949 13.4596 25.4545 17.7273 25.4545C21.9949 25.4545 25.4545 21.9949 25.4545 17.7273C25.4545 13.4596 21.9949 10 17.7273 10Z"
    fill="#008FFF"/>
</svg>
