<svg xmlns="http://www.w3.org/2000/svg" width="65" height="68" viewBox="0 0 65 68">
  <path id="Fill_6" data-name="Fill 6"
        d="M35.332,68h0a1.425,1.425,0,0,1-1.377-1.1l-1.513-6.367a1.423,1.423,0,0,0-1.308-1.121,25.436,25.436,0,0,1-7.929-1.9,1.4,1.4,0,0,0-.542-.108,1.467,1.467,0,0,0-1.184.6l-2.323,3.208a1.491,1.491,0,0,1-1.193.605,1.449,1.449,0,0,1-.731-.2l-5.472-3.265a1.3,1.3,0,0,1-.3-.235,1.463,1.463,0,0,1-.279-1.664l2.136-4.6.523-1.12a26.087,26.087,0,0,1-2.2-2.914A26.611,26.611,0,0,1,9.352,43.5a1.426,1.426,0,0,0-1.307-.9l-.072,0-5.624.249H2.29A1.487,1.487,0,0,1,.819,41.546L.19,36.615.013,35.2a1.516,1.516,0,0,1,1.13-1.68l5.226-1.291a1.434,1.434,0,0,0,1.108-1.283,26.586,26.586,0,0,1,1.114-5.466,4.438,4.438,0,0,1,.131-.431l.006-.017a.845.845,0,0,0,.041-.152A1.5,1.5,0,0,0,8.2,23.339l-5.108-3.85a1.069,1.069,0,0,1-.155-.134l-.007-.007A1.524,1.524,0,0,1,2.7,17.537l3.191-5.558a1.475,1.475,0,0,1,1.272-.742,1.46,1.46,0,0,1,.631.144l6.3,3.046a1.369,1.369,0,0,0,.617.146,1.428,1.428,0,0,0,.981-.4,26.272,26.272,0,0,1,3.13-2.479c.593-.4,1.2-.776,1.818-1.12a1.527,1.527,0,0,0,.774-1.4l-.283-6.831A1.46,1.46,0,0,1,22.377.832L28.646.014A1.491,1.491,0,0,1,30.3,1.169l1.2,5.036a1.48,1.48,0,0,0,1.424,1.151h.067A25.341,25.341,0,0,1,40.774,8.59a1.409,1.409,0,0,0,.456.076,1.468,1.468,0,0,0,1.183-.611l3.406-4.688a1.5,1.5,0,0,1,1.973-.413l5.441,3.234a1.487,1.487,0,0,1,.579,1.908l-.122.27L51.206,13.7a1.529,1.529,0,0,0,.273,1.7l0,.005a26.169,26.169,0,0,1,2.835,3.613c.424.65.834,1.35,1.253,2.139a1.45,1.45,0,0,0,1.29.793h.058l5.71-.254.07,0a1.509,1.509,0,0,1,1.487,1.33l.8,6.355a1.69,1.69,0,0,1-.026.525,1.514,1.514,0,0,1-1.087,1.127L59.7,32.049a1.5,1.5,0,0,0-1.063,1.03,1.7,1.7,0,0,0-.061.416,26.42,26.42,0,0,1-2.037,10.125,1.486,1.486,0,0,0,.284,1.591,1.534,1.534,0,0,0,.187.167l4.14,3.114a1.513,1.513,0,0,1,.4,1.951l-.073.131-3.1,5.419a1.48,1.48,0,0,1-1.931.6l-6.042-2.918a1.448,1.448,0,0,0-.621-.139,1.478,1.478,0,0,0-.915.321c-.562.45-1.147.881-1.74,1.281A24.961,24.961,0,0,1,43.676,57.1a1.487,1.487,0,0,0-.864,1.429l.3,7.106a1.459,1.459,0,0,1-1.26,1.519l-6.336.838A1.419,1.419,0,0,1,35.332,68ZM32.99,19A13.679,13.679,0,0,0,22.377,24.17a18.084,18.084,0,0,0-1.853,2.74,14.667,14.667,0,0,0-1.463,7.568c.029.245.063.483.1.706a15.5,15.5,0,0,0,5.027,9.487A13.5,13.5,0,0,0,33.022,48a13.317,13.317,0,0,0,6.813-1.889A15.586,15.586,0,0,0,45.4,40.246,15.134,15.134,0,0,0,47,33.761a9.827,9.827,0,0,0-.074-1.418,17.247,17.247,0,0,0-1.585-5.413A13.787,13.787,0,0,0,32.99,19Z"
        transform="translate(0 0)" fill="#f8aa1c" opacity="0.21"/>
</svg>
