<svg fill="none" height="372" viewBox="0 0 385 372" width="385" xmlns="http://www.w3.org/2000/svg">
  <path clip-rule="evenodd"
        d="M120.642 347.775C120.642 347.775 -8.30291 277.994 1.02024 230.743C10.3434 183.492 82.3899 169.287 96.0008 138.938C109.612 108.588 112.977 -40.2614 246 11.0775C379.022 62.4164 312.664 124.982 319.836 168.927C327.009 212.872 352.087 268.362 285.016 328.582C217.944 388.803 120.642 347.775 120.642 347.775Z"
        fill="#B0E2B5" fill-rule="evenodd" opacity="0.485561"/>
  <mask height="299" id="mask0" mask-type="alpha" maskUnits="userSpaceOnUse" width="289" x="96" y="73">
    <path clip-rule="evenodd"
          d="M96.7306 276.79C96.7306 276.79 88.9653 333.342 147.763 336.497C206.561 339.653 227.342 354.116 238.031 365.609C248.718 377.106 263.212 372.23 296.829 344.26C330.443 316.293 371.492 319.027 379.628 297.452C387.762 275.872 395.473 234.527 312.205 213.948C228.935 193.367 296.608 114.561 286.622 85.8265C276.639 57.0918 155.69 78.2281 124.916 148.868C94.1422 219.509 96.7306 276.79 96.7306 276.79Z"
          fill="white" fill-rule="evenodd"/>
  </mask>
  <g mask="url(#mask0)">
    <path clip-rule="evenodd"
          d="M96.7306 276.79C96.7306 276.79 88.9653 333.342 147.763 336.497C206.561 339.653 227.342 354.116 238.031 365.609C248.718 377.106 263.212 372.23 296.829 344.26C330.443 316.293 371.492 319.027 379.628 297.452C387.762 275.872 395.473 234.527 312.205 213.948C228.935 193.367 296.608 114.561 286.622 85.8265C276.639 57.0918 155.69 78.2281 124.916 148.868C94.1422 219.509 96.7306 276.79 96.7306 276.79Z"
          fill="#E5F5EC" fill-rule="evenodd" opacity="0.546526"/>
  </g>
  <path clip-rule="evenodd"
        d="M275.206 157.693C269.276 162.437 275.819 153.337 275.099 149.141C274.376 144.946 267.253 133.257 262.743 139.052C258.233 144.847 252.713 146.382 254.223 144.967C255.732 143.553 260.751 138.233 258.832 133.831C256.911 129.429 247.404 129.4 247.404 129.4L247.442 129.609L247.399 129.4C247.399 129.4 238.67 133.207 238.617 138.015C238.567 142.825 245.253 145.722 247.193 146.423C249.133 147.124 243.455 147.905 237.055 144.367C230.651 140.832 228.654 154.41 229.623 158.553C230.593 162.698 240.151 168.465 232.854 166.459C225.556 164.454 232.524 177.603 237.528 182.014C242.53 186.426 253.612 179.334 256.512 174.324L256.472 174.132L256.517 174.322C261.134 177.776 274.081 179.896 276.965 173.851C279.846 167.809 281.135 152.95 275.206 157.693Z"
        fill="#F9DDBF" fill-rule="evenodd"/>
  <path clip-rule="evenodd"
        d="M248.392 134.4L252.179 151.069L255.792 167.771L262.738 201.229L269.294 234.768L272.433 251.565L275.392 268.4L271.602 251.734L267.991 235.032L261.046 201.571L254.494 168.032L251.355 151.235L248.392 134.4Z"
        fill="#F9DDBF" fill-rule="evenodd"/>
  <path clip-rule="evenodd"
        d="M259.59 220.894C254.425 223.586 260.652 217.776 260.671 214.598C260.688 211.422 256.847 201.884 252.622 205.537C248.396 209.194 243.976 209.584 245.319 208.746C246.662 207.908 251.214 204.672 250.348 201.182C249.482 197.693 242.236 196.4 242.236 196.4V196.561L242.232 196.4C242.232 196.4 235.058 198.03 234.366 201.556C233.674 205.082 238.379 208.1 239.76 208.876C241.144 209.649 236.711 209.465 232.309 206.013C227.907 202.561 224.541 212.267 224.718 215.441C224.892 218.614 231.398 224.125 226.106 221.678C220.815 219.229 224.341 229.817 227.557 233.726C230.773 237.636 240.185 233.905 243.076 230.613L243.074 230.467L243.081 230.613C246.132 233.766 255.716 237.051 258.736 232.997C261.757 228.942 264.756 218.201 259.59 220.894Z"
        fill="#F9DDBF" fill-rule="evenodd"/>
  <path clip-rule="evenodd"
        d="M242.454 200.4C242.818 209.143 243.122 217.891 243.354 226.639L243.954 252.885L244.292 279.14C244.372 287.893 244.378 296.645 244.328 305.4C243.962 296.657 243.658 287.912 243.426 279.162L242.83 252.913L242.494 226.66C242.412 217.908 242.406 209.155 242.454 200.4Z"
        fill="#F9DDBF" fill-rule="evenodd"/>
  <path clip-rule="evenodd"
        d="M315.656 120.794C309.623 122.809 317.385 117.541 318.013 114.022C318.639 110.504 316.356 99.2158 311.145 102.474C305.929 105.73 301.133 105.334 302.731 104.657C304.326 103.983 309.805 101.25 309.547 97.2204C309.287 93.191 301.795 90.4028 301.795 90.4028L301.761 90.5787L301.79 90.4004C301.79 90.4004 293.813 90.8607 292.399 94.637C290.988 98.4133 295.435 102.643 296.767 103.758C298.098 104.877 293.395 103.84 289.352 99.1892C285.309 94.5406 279.859 104.662 279.441 108.209C279.02 111.759 284.919 119.085 279.732 115.381C274.545 111.677 276.293 124.071 278.982 129.004C281.671 133.937 292.44 131.568 296.156 128.465L296.18 128.303L296.161 128.465C298.819 132.53 308.432 137.969 312.432 134.043C316.432 130.118 321.689 118.779 315.656 120.794Z"
        fill="#F9DDBF" fill-rule="evenodd"/>
  <path clip-rule="evenodd"
        d="M301.392 93.4004L299.055 113.583L296.544 133.74L291.242 174.02L285.547 214.242L282.559 234.334L279.392 254.4L281.724 234.218L284.237 214.061L289.541 173.781L295.241 133.559L298.226 113.466L301.392 93.4004Z"
        fill="#F9DDBF" fill-rule="evenodd"/>
  <path clip-rule="evenodd"
        d="M228.855 127.576C224.688 130.321 229.513 124.762 229.286 121.972C229.06 119.185 225.081 111.111 221.784 114.632C218.487 118.153 214.775 118.826 215.85 117.992C216.923 117.156 220.526 113.978 219.526 110.984C218.528 107.988 212.298 107.4 212.298 107.4L212.31 107.539L212.295 107.4C212.295 107.4 206.35 109.366 206.032 112.508C205.716 115.652 209.926 117.948 211.158 118.522C212.387 119.098 208.62 119.268 204.631 116.571C200.643 113.874 198.536 122.636 198.929 125.403C199.32 128.176 205.246 132.52 200.58 130.768C195.914 129.021 199.708 138.041 202.727 141.227C205.747 144.412 213.426 140.437 215.621 137.334L215.607 137.205L215.626 137.332C218.448 139.868 226.811 142.031 229.055 138.25C231.301 134.469 233.019 124.827 228.855 127.576Z"
        fill="#F9DDBF" fill-rule="evenodd"/>
  <path clip-rule="evenodd"
        d="M212.392 110.4C214.381 125.121 216.303 139.849 218.141 154.589L223.543 198.821L228.642 243.088C230.304 257.849 231.883 272.62 233.392 287.4C231.4 272.679 229.478 257.951 227.64 243.214L222.241 198.982L217.143 154.713C215.479 139.951 213.903 125.181 212.392 110.4Z"
        fill="#F9DDBF" fill-rule="evenodd"/>
  <path clip-rule="evenodd"
        d="M329.513 189.951C321.339 192.098 332.047 185.857 333.131 181.337C334.218 176.819 331.985 161.98 324.813 165.805C317.643 169.629 311.287 168.743 313.458 167.989C315.63 167.234 323.121 164.11 323.064 158.859C323.008 153.607 313.231 149.403 313.231 149.403L313.177 149.628L313.224 149.4C313.224 149.4 302.576 149.377 300.426 154.174C298.273 158.969 303.895 164.804 305.587 166.358C307.276 167.911 301.092 166.203 296.042 159.85C290.992 153.494 283.014 166.217 282.204 170.794C281.393 175.373 288.719 185.344 282.081 180.132C275.443 174.918 276.879 191.149 280.108 197.767C283.336 204.382 297.838 202.142 303.009 198.399L303.051 198.191L303.016 198.399C306.263 203.888 318.669 211.699 324.274 206.911C329.877 202.121 337.687 187.805 329.513 189.951Z"
        fill="#F9DDBF" fill-rule="evenodd"/>
  <path clip-rule="evenodd"
        d="M312.392 156.4L309.194 173.237L305.815 190.038L298.77 223.58L291.319 257.039L287.447 273.737L283.392 290.4L286.587 273.564L289.966 256.763L297.013 223.221L304.467 189.764L308.339 173.063L312.392 156.4Z"
        fill="#F9DDBF" fill-rule="evenodd"/>
  <mask height="156" id="mask1" mask-type="alpha" maskUnits="userSpaceOnUse" width="264" x="121" y="216">
    <path clip-rule="evenodd"
          d="M320.176 216.4C356.27 226.608 373.205 241.025 380.183 255.548C387.665 271.125 383.693 286.825 379.616 297.594C371.461 319.127 330.313 316.399 296.618 344.312C262.921 372.228 248.392 377.095 237.68 365.62C226.966 354.149 206.135 339.714 147.196 336.564C136.572 335.997 128.116 333.697 121.392 330.309"
          fill="white" fill-rule="evenodd"/>
  </mask>
  <g mask="url(#mask1)">
    <path clip-rule="evenodd"
          d="M96.7306 276.663C96.7306 276.663 88.9653 333.29 147.763 336.45C206.56 339.61 227.342 354.092 238.031 365.601C248.717 377.114 263.211 372.231 296.828 344.224C330.442 316.219 371.491 318.956 379.628 297.352C383.694 286.548 387.657 270.796 380.193 255.169C372.727 239.543 353.838 224.04 312.204 213.737C228.934 193.128 296.607 114.216 286.622 85.443C279.622 65.2711 191.574 28.1565 144.804 56.9489C124.864 69.2234 134.115 127.424 124.916 148.57C94.1422 219.305 96.7306 276.663 96.7306 276.663Z"
          fill="url(#paint0_linear)" fill-rule="evenodd"/>
  </g>
  <path clip-rule="evenodd"
        d="M229.417 202.349C229.417 202.349 250.344 233.429 257.01 241.517C263.672 249.606 307.392 264.316 307.392 264.316L288.38 275.4C288.38 275.4 255.742 260.833 245.919 255.45C236.095 250.067 216.558 223.735 216.558 223.735L209.392 209.401L219.936 199.4L229.417 202.349Z"
        fill="#F7D0CD" fill-rule="evenodd"/>
  <path clip-rule="evenodd"
        d="M219.923 199.4L209.392 209.142L216.549 223.105C216.549 223.105 220.464 228.249 225.666 234.4C217.385 216.4 229.392 202.272 229.392 202.272L219.923 199.4Z"
        fill="#EDA19F" fill-rule="evenodd"/>
  <path clip-rule="evenodd"
        d="M303.39 251.4L199.392 310.943H199.396V315.969L247.093 344.4L355.392 282.398L303.39 251.4Z" fill="#35498C"
        fill-rule="evenodd"/>
  <path clip-rule="evenodd"
        d="M156.418 146.4C156.418 146.4 138.507 138.937 134.23 114.531C129.953 90.1228 142.944 76.9691 152.764 77.1286C152.764 77.1286 161.002 66.5094 180.964 71.7405C200.925 76.9691 201.558 65.4004 205.995 65.4004C210.429 65.4004 213.614 95.0373 194.833 103.119L161.162 121.028C161.162 121.028 161.162 128.953 161.954 131.645C162.746 134.341 156.418 146.4 156.418 146.4Z"
        fill="#35498C" fill-rule="evenodd"/>
  <path clip-rule="evenodd"
        d="M209.392 76.4004C208.252 80.5442 202.452 93.4866 193.54 95.5167C184.629 97.542 180.232 91.4828 180.232 91.4828C166.687 107.251 142.331 105.058 138.529 101.48C134.849 98.0149 135.66 91.9055 135.715 91.5186C133.478 97.4513 132.603 105.115 134.228 114.418C138.505 138.911 156.416 146.4 156.416 146.4C156.416 146.4 162.745 134.299 161.952 131.593C161.16 128.891 161.16 120.938 161.16 120.938L194.832 102.966C205.983 98.151 209.389 85.7125 209.392 76.4004Z"
        fill="#2A2C65" fill-rule="evenodd"/>
  <path clip-rule="evenodd"
        d="M129.274 228.899C129.274 228.899 148.997 286.161 150.909 313.4C150.909 313.4 151.186 313.367 151.655 313.306L217.025 276.131C217.554 261.351 218.068 229.651 214.292 203.019C211.437 182.868 208.993 162.684 198.516 156.919C188.041 151.152 155.348 154.211 155.348 154.211C155.348 154.211 121.894 172.418 116.189 185.941C116.189 185.941 109.189 199.941 108.392 225.997C108.392 225.997 126.132 229.469 129.274 228.899Z"
        fill="#DA3886" fill-rule="evenodd"/>
  <path clip-rule="evenodd"
        d="M155.515 277.13C145.714 269.046 129.392 228.4 129.392 228.4C129.396 228.417 149.17 286.003 151.087 313.4C151.087 313.4 151.366 313.367 151.836 313.305L217.392 275.911C217.392 275.911 165.317 285.211 155.515 277.13Z"
        fill="#CA1877" fill-rule="evenodd"/>
  <path clip-rule="evenodd"
        d="M178.746 175.296C188.564 170.798 180.822 159.713 173.865 152.4C164.077 152.412 155.495 153.211 155.495 153.211C155.495 153.211 121.936 171.464 116.213 185.021C116.213 185.021 109.191 199.056 108.392 225.178C108.392 225.178 115.26 226.518 121.218 227.4C121.218 227.393 123.842 192.115 130.077 180.954C136.314 169.795 153.817 163.383 153.817 163.383C153.817 163.383 163.626 182.223 178.746 175.296Z"
        fill="#CA1877" fill-rule="evenodd"/>
  <path clip-rule="evenodd"
        d="M177.701 175.601C190.669 170.654 180.792 150.639 180.792 150.639L180.616 142.626L155.581 138.4L154.392 153.346C155.126 161.23 164.734 180.55 177.701 175.601Z"
        fill="#F7D0CD" fill-rule="evenodd"/>
  <path clip-rule="evenodd"
        d="M167.121 164.799C162.18 157.327 167.416 141.067 167.416 141.067C167.416 141.067 167.319 140.714 167.148 140.156L156.597 138.4L155.392 153.346C156.136 161.23 165.881 180.55 179.033 175.601C181.675 174.606 183.349 172.992 184.392 171.066C181.675 172.874 172.045 172.247 167.121 164.799Z"
        fill="#EDA19F" fill-rule="evenodd"/>
  <path clip-rule="evenodd"
        d="M193.791 92.1569C193.791 92.1569 198.029 133.416 183.993 144.507C183.993 144.507 158.006 154.046 149.771 130.304C149.771 130.304 138.13 126.15 136.553 116.479C134.93 106.522 146.057 108.349 147.833 115.007L152.904 89.0138L167.51 87.4004L179.824 92.8113L193.791 92.1569Z"
        fill="#F7D0CD" fill-rule="evenodd"/>
  <path clip-rule="evenodd"
        d="M185.313 91.3683L179.85 92.8116L167.529 87.4004L152.914 89.0139L147.84 115.005C146.063 108.35 134.929 106.523 136.553 116.48C138.131 126.149 149.779 130.306 149.779 130.306C155.223 145.996 168.422 147.149 176.751 146.128C161.524 144.188 157.434 132.992 157.059 127.305C156.684 121.582 156.252 113.977 174.9 110.04C174.9 110.04 182.453 107.413 182.453 101.905C182.453 101.905 188.544 106.583 194.392 102.546C193.305 96.1586 186.328 94.3029 186.328 94.3029L185.313 91.3683Z"
        fill="#EDA19F" fill-rule="evenodd"/>
  <path clip-rule="evenodd"
        d="M198.392 155.4C198.392 155.4 222.82 166.077 233.392 197.132C233.392 197.132 225.058 205.268 214.479 208.295C204.529 211.138 198.392 155.4 198.392 155.4Z"
        fill="#DA3886" fill-rule="evenodd"/>
  <path clip-rule="evenodd"
        d="M211.392 186.4C212.169 191.365 212.852 196.541 213.558 201.719C213.856 203.914 214.118 206.15 214.366 208.4C214.369 208.398 214.373 208.4 214.376 208.398C216.488 207.794 218.499 206.985 220.392 206.091C212.802 194.58 211.392 186.4 211.392 186.4Z"
        fill="#CA1877" fill-rule="evenodd"/>
  <path clip-rule="evenodd"
        d="M148.46 115.4C148.46 115.4 176.186 112.319 182.448 99.7992C182.448 99.7992 188.657 104.459 195.472 103.033C195.472 103.033 198.346 93.6191 197.061 91.5583C195.776 89.4999 192.506 85.8542 185.469 84.9024C178.433 83.9529 161.732 79.8312 159.805 80.4666C157.878 81.0996 153.06 83.7934 150.172 86.8037C147.28 89.8164 145.515 92.6673 145.195 94.7281C144.871 96.7889 144.392 103.602 144.392 103.602C144.392 103.602 148.351 111.831 148.46 115.4Z"
        fill="#35498C" fill-rule="evenodd"/>
  <path clip-rule="evenodd"
        d="M351.087 279.4L247.09 339.338L199.392 310.719V315.78L247.09 344.4L355.392 281.984L351.087 279.4Z"
        fill="#647AAD" fill-rule="evenodd"/>
  <path clip-rule="evenodd"
        d="M223.462 294.974C221.406 291.98 211.92 291.032 203.857 291.347C195.791 291.665 190.891 297.395 190.891 297.395C190.891 297.395 166.542 287.088 156.422 283.3C146.303 279.516 134.761 275.394 133.652 269.803C132.548 264.22 135.955 248.449 135.962 248.411C132.365 236.708 129.547 228.461 129.547 228.461C127.438 228.845 118.722 227.386 113.29 226.4C113.29 226.4 111.269 270.05 113.29 281.409C115.313 292.769 181.405 306.492 186.465 308.385C191.522 310.278 197.691 309.333 200.379 307.123C203.066 304.915 217.927 309.489 220.933 306.651C223.937 303.811 225.518 297.973 223.462 294.974Z"
        fill="#F7D0CD" fill-rule="evenodd"/>
  <path clip-rule="evenodd"
        d="M133.051 264.4C133.532 257.555 135.387 248.63 135.392 248.601C131.901 236.797 129.166 228.479 129.166 228.479C127.121 228.866 118.663 227.394 113.392 226.4C113.392 226.4 123.432 236.955 128.033 247.22C132.636 257.483 133.051 264.4 133.051 264.4Z"
        fill="#EDA19F" fill-rule="evenodd"/>
  <path clip-rule="evenodd"
        d="M192.691 95.4953C183.787 97.5513 179.395 91.4004 179.395 91.4004C169.408 103.212 153.549 105.091 144.392 103.806C145.176 105.547 148.114 112.249 148.206 115.4C148.206 115.4 175.535 112.261 181.708 99.5055C181.708 99.5055 187.828 104.253 194.545 102.8C194.545 102.8 196.109 97.5004 196.392 93.917C195.225 94.6322 193.996 95.1923 192.691 95.4953Z"
        fill="#2A2C65" fill-rule="evenodd"/>
  <path clip-rule="evenodd" d="M247.392 266.09L252.885 269.4L361.392 206.711L355.896 203.4L247.392 266.09Z"
        fill="#728DBA" fill-rule="evenodd"/>
  <path clip-rule="evenodd"
        d="M247.392 266.724V344.856L252.69 348.4L361.392 286.206V207.4L252.69 270.032L247.392 266.724Z" fill="#35498C"
        fill-rule="evenodd"/>
  <path clip-rule="evenodd" d="M251.392 270.681V348.4L247.392 344.885V267.4L251.392 270.681Z" fill="#5264A0"
        fill-rule="evenodd"/>
  <path clip-rule="evenodd"
        d="M318.392 276.4C318.392 280.817 315.482 284.4 311.893 284.4C308.302 284.4 305.392 280.817 305.392 276.4C305.392 271.982 308.302 268.4 311.893 268.4C315.482 268.4 318.392 271.982 318.392 276.4Z"
        fill="#5264A0" fill-rule="evenodd"/>
  <defs>
    <linearGradient gradientUnits="userSpaceOnUse" id="paint0_linear" x1="256.156" x2="445.063" y1="469.166"
                    y2="378.601">
      <stop stop-color="#FFFFFE"/>
      <stop offset="1" stop-color="#DBE9F0"/>
    </linearGradient>
  </defs>
</svg>
