<?xml version="1.0" encoding="UTF-8"?>
<svg width="35px" height="30px" viewBox="0 0 35 30" version="1.1" xmlns="http://www.w3.org/2000/svg">
  <title>mail</title>
  <g id="Page-2" stroke="none" stroke-width="1" fill="none" fill-rule="evenodd">
    <g id="Cloud-Control-Service" transform="translate(-143.000000, -1264.000000)" fill="#008FFF">
      <g id="section2" transform="translate(1.000000, 799.000000)">
        <g id="card4" transform="translate(96.000000, 422.000000)">
          <g id="mail" transform="translate(46.000000, 43.000000)">
            <path
              d="M0.0189972222,3.44604375 C0.0189972222,2.41051875 0.889544444,1.57104375 1.96344167,1.57104375 L33.0555556,1.57104375 C34.1294722,1.57104375 35,2.41051875 35,3.44604375 L35,24.6789375 C35,26.7500625 33.2589444,28.4289375 31.1111111,28.4289375 L3.88888889,28.4289375 C1.74111389,28.4289375 0,26.7500625 0,24.6789375 L0,4.05395625 C0,3.96466875 0.006475,3.87684375 0.0189972222,3.790875 L0.0189972222,3.44604375 Z M3.88888889,7.61559375 L3.88888889,24.6789375 L31.1111111,24.6789375 L31.1111111,7.61623125 L21.6251389,16.7634375 C19.3470278,18.9601875 15.6535556,18.9601875 13.3755417,16.7634375 L3.88888889,7.61559375 Z M6.94617778,5.2603875 L28.0544444,5.2603875 L18.8753056,14.1118125 C18.116,14.844 16.8847778,14.844 16.1254722,14.1118125 L6.94617778,5.2603875 Z"
              id="Shape"></path>
          </g>
        </g>
      </g>
    </g>
  </g>
</svg>
