<?xml version="1.0" encoding="UTF-8"?>
<svg width="35px" height="32px" viewBox="0 0 35 32" version="1.1" xmlns="http://www.w3.org/2000/svg">
  <title>options</title>
  <g id="Page-2" stroke="none" stroke-width="1" fill="none" fill-rule="evenodd">
    <g id="Cloud-Control-Service" transform="translate(-994.000000, -1003.000000)">
      <g id="section2" transform="translate(1.000000, 799.000000)">
        <g id="card3" transform="translate(947.000000, 156.000000)">
          <g id="options" transform="translate(46.000000, 48.000000)">
            <path
              d="M7.77777778,0 C11.4019111,0 14.4470278,2.39956706 15.3105556,5.64705882 L31.1111111,5.64705882 L31.1111111,9.41176471 L15.3105556,9.41176471 C14.4470278,12.6592565 11.4019111,15.0588235 7.77777778,15.0588235 C3.48222778,15.0588235 0,11.6877929 0,7.52941176 C0,3.37103059 3.48222778,0 7.77777778,0 Z M7.77777778,11.2941176 C9.92555278,11.2941176 11.6666667,9.60860235 11.6666667,7.52941176 C11.6666667,5.45022118 9.92555278,3.76470588 7.77777778,3.76470588 C5.63000278,3.76470588 3.88888889,5.45022118 3.88888889,7.52941176 C3.88888889,9.60860235 5.63000278,11.2941176 7.77777778,11.2941176 Z"
              id="Shape" fill="#707070"></path>
            <path
              d="M27.2222222,32 C23.5981667,32 20.5529722,29.6003765 19.6894444,26.3529412 L3.88888889,26.3529412 L3.88888889,22.5882353 L19.6894444,22.5882353 C20.5529722,19.3408 23.5981667,16.9411765 27.2222222,16.9411765 C31.5176944,16.9411765 35,20.3122824 35,24.4705882 C35,28.6288941 31.5176944,32 27.2222222,32 Z M27.2222222,28.2352941 C29.3700556,28.2352941 31.1111111,26.5498353 31.1111111,24.4705882 C31.1111111,22.3913412 29.3700556,20.7058824 27.2222222,20.7058824 C25.0743889,20.7058824 23.3333333,22.3913412 23.3333333,24.4705882 C23.3333333,26.5498353 25.0743889,28.2352941 27.2222222,28.2352941 Z"
              id="Shape" fill="#008FFF"></path>
          </g>
        </g>
      </g>
    </g>
  </g>
</svg>
