<?xml version="1.0" encoding="UTF-8"?>
<svg width="35px" height="27px" viewBox="0 0 35 27" version="1.1" xmlns="http://www.w3.org/2000/svg">
  <title>Shape</title>
  <g id="Page-2" stroke="none" stroke-width="1" fill="none" fill-rule="evenodd">
    <g id="Cloud-Control-Service" transform="translate(-144.000000, -1001.000000)" fill="#707070">
      <g id="section2" transform="translate(1.000000, 799.000000)">
        <g id="card1" transform="translate(96.000000, 156.000000)">
          <path
            d="M68.8559091,72.993925 C68.9841364,72.997975 69.1126818,73 69.2418636,73 C76.2709773,73 81.9691364,66.9558813 81.9691364,59.5 C81.9691364,52.0441525 76.2709773,46 69.2418636,46 C65.2225909,46 61.6384318,47.9761975 59.3060318,51.0625 L57.3717886,51.0625 C51.6606636,51.0625 47.0308795,55.9733781 47.0308795,62.03125 C47.0308795,68.0892063 51.6606636,73 57.3717886,73 L68.5081364,73 C68.6245909,73 68.7404091,72.997975 68.8559091,72.993925 Z M71.9634318,69.1541875 C75.7023864,67.8568375 78.7873182,64.0250313 78.7873182,59.5 C78.7873182,53.9081144 74.5136591,49.375 69.2418636,49.375 C63.9700682,49.375 59.6963932,53.9081144 59.6963932,59.5 L56.514575,59.5 C56.514575,57.7097313 56.8431136,56.0008506 57.4397205,54.4375 L57.3717886,54.4375 C53.4179341,54.4375 50.2126977,57.8373063 50.2126977,62.03125 C50.2126977,66.2251938 53.4179341,69.625 57.3717886,69.625 L68.5081364,69.625 C69.3826591,69.625 70.7110682,69.4586125 71.9634318,69.1541875 Z"
            id="Shape"></path>
        </g>
      </g>
    </g>
  </g>
</svg>
