<?xml version="1.0" encoding="UTF-8"?>
<svg width="24px" height="24px" viewBox="0 0 24 24" version="1.1" xmlns="http://www.w3.org/2000/svg" xmlns:xlink="http://www.w3.org/1999/xlink">
    <title>11. Computers and Devices/charger_1</title>
    <g id="11.-Computers-and-Devices/charger_1" stroke="none" stroke-width="1" fill="none" fill-rule="evenodd">
        <path d="M17,10.75 C17.2301186,10.75 17.4166667,10.936548 17.4166667,11.1666667 L17.4166667,11.1666667 L17.4166667,13.25 C17.4116595,15.0867999 16.0735594,16.6480933 14.2591667,16.9341667 C14.1578904,16.9501616 14.0833084,17.0374685 14.0833333,17.14 L14.0833333,17.14 L14.0833333,18.25 C14.0834758,18.8715746 13.6268831,19.398822 13.0116667,19.4875 C12.9092678,19.5027613 12.8334397,19.5906368 12.8333333,19.6941667 L12.8333333,19.6941667 L12.8333333,21.1666667 C12.8333333,21.626904 12.4602373,22 12,22 C11.5397627,22 11.1666667,21.626904 11.1666667,21.1666667 L11.1666667,21.1666667 L11.1666667,19.6933333 C11.1669177,19.5896708 11.0909159,19.5015938 10.9883333,19.4866667 C10.3734301,19.3980339 9.91693845,18.8712582 9.91666667,18.25 L9.91666667,18.25 L9.91666667,17.1391667 C9.91669158,17.0366352 9.84210956,16.9493282 9.74083333,16.9333333 C7.92675125,16.6473101 6.588749,15.0864841 6.58333333,13.25 L6.58333333,13.25 L6.58333333,11.1666667 C6.58333333,10.936548 6.76988135,10.75 7,10.75 L7,10.75 Z M15.3333333,2 C16.0236893,2 16.5833333,2.55964406 16.5833333,3.25 L16.5833333,3.25 L16.5833333,6.79166667 C16.5833333,6.90672599 16.6766073,7 16.7916667,7 L16.7916667,7 L18.6666667,7 C19.3570226,7 19.9166667,7.55964406 19.9166667,8.25 C19.9166667,8.94035594 19.3570226,9.5 18.6666667,9.5 L18.6666667,9.5 L5.33333333,9.5 C4.6429774,9.5 4.08333333,8.94035594 4.08333333,8.25 C4.08333333,7.55964406 4.6429774,7 5.33333333,7 L5.33333333,7 L7.20833333,7 C7.32339266,7 7.41666667,6.90672599 7.41666667,6.79166667 L7.41666667,6.79166667 L7.41666667,3.25 C7.41666667,2.55964406 7.97631073,2 8.66666667,2 C9.3570226,2 9.91666667,2.55964406 9.91666667,3.25 L9.91666667,3.25 L9.91666667,6.79166667 C9.91666667,6.90672599 10.0099407,7 10.125,7 L10.125,7 L13.875,7 C13.9900593,7 14.0833333,6.90672599 14.0833333,6.79166667 L14.0833333,6.79166667 L14.0833333,3.25 C14.0833333,2.55964406 14.6429774,2 15.3333333,2 Z" id="ðŸ–-Color" fill="#5A5A5A"></path>
        <rect id="_Transparent_Rectangle_" x="0" y="0" width="24" height="24"></rect>
    </g>
</svg>