<?xml version="1.0" encoding="UTF-8"?>
<svg width="24px" height="24px" viewBox="0 0 24 24" version="1.1" xmlns="http://www.w3.org/2000/svg" xmlns:xlink="http://www.w3.org/1999/xlink">
    <title>11. Computers and Devices/desktop_monitor_approve</title>
    <g id="11.-Computers-and-Devices/desktop_monitor_approve" stroke="none" stroke-width="1" fill="none" fill-rule="evenodd">
        <path d="M9.72333333,6.99997949 C9.77993081,6.99919665 9.83430164,7.02202152 9.87336595,7.06298369 C9.91243026,7.10394587 9.93265207,7.15933756 9.92916667,7.21583333 C9.91304113,7.62023675 9.93676666,8.02524545 10,8.425 C10.0104745,8.4858617 9.99318228,8.54821846 9.95285904,8.59499342 C9.9125358,8.64176838 9.85340742,8.66805947 9.79166667,8.66666667 L9.79166667,8.66666667 L3.875,8.66666667 C3.76058842,8.66666301 3.66758196,8.75892542 3.66666667,8.87333333 L3.66666667,8.87333333 L3.66666667,15.9566667 C3.66666667,16.071726 3.75994068,16.165 3.875,16.165 L3.875,16.165 L15.125,16.165 C15.2400593,16.165 15.3333333,16.071726 15.3333333,15.9566667 L15.3333333,15.9566667 L15.3333333,14.2066667 C15.3334323,14.1460143 15.3602765,14.088493 15.4066993,14.0494593 C15.4531222,14.0104255 15.5143975,13.9938532 15.5741667,14.0041667 C15.9080136,14.0566108 16.2453932,14.083356 16.5833333,14.0841667 C16.6491667,14.0841667 16.7141667,14.0775 16.7791667,14.0775 C16.836656,14.0744099 16.8929237,14.0948709 16.935,14.1341667 C16.9766175,14.1736213 17,14.2284864 17,14.2858333 L17,14.2858333 L17,17.4166667 C17,18.3371412 16.2538079,19.0833333 15.3333333,19.0833333 L15.3333333,19.0833333 L10.5416667,19.0833333 C10.4266073,19.0833333 10.3333333,19.1766073 10.3333333,19.2916667 L10.3333333,19.2916667 L10.3333333,20.125 C10.3333333,20.2400593 10.4266073,20.3333333 10.5416667,20.3333333 L10.5416667,20.3333333 L12.8333333,20.3333333 C13.2935706,20.3333333 13.6666667,20.7064294 13.6666667,21.1666667 C13.6666667,21.626904 13.2935706,22 12.8333333,22 L12.8333333,22 L6.16666667,22 C5.70642938,22 5.33333333,21.626904 5.33333333,21.1666667 C5.33333333,20.7064294 5.70642938,20.3333333 6.16666667,20.3333333 L6.16666667,20.3333333 L8.45833333,20.3333333 C8.57339266,20.3333333 8.66666667,20.2400593 8.66666667,20.125 L8.66666667,20.125 L8.66666667,19.2916667 C8.66666667,19.1766073 8.57339266,19.0833333 8.45833333,19.0833333 L8.45833333,19.0833333 L3.66666667,19.0833333 C2.74619208,19.0833333 2,18.3371412 2,17.4166667 L2,17.4166667 L2,8.66666667 C2,7.74619208 2.74619208,6.99997949 3.66666667,6.99997949 L3.66666667,6.99997949 Z M16.5833333,2 C19.5733529,2.00367325 21.9963268,4.4266471 22,7.41666667 C22,10.4082091 19.5748757,12.8333333 16.5833333,12.8333333 C13.5917909,12.8333333 11.1666667,10.4082091 11.1666667,7.41666667 C11.1666667,4.42512427 13.5917909,2 16.5833333,2 Z M19.1866667,5.46333333 C18.9104808,5.26007424 18.522157,5.31692931 18.3158333,5.59083333 L18.3158333,5.59083333 L16.1833333,8.435 C16.1109151,8.53152715 16.0002054,8.59191722 15.8798418,8.60054887 C15.7594783,8.60918052 15.6412842,8.56520586 15.5558333,8.48 L15.5558333,8.48 L14.6391667,7.56333333 C14.4812255,7.40539217 14.2510212,7.34370912 14.0352696,7.4015196 C13.819518,7.45933007 13.6509967,7.62785129 13.5931863,7.84360293 C13.5353758,8.05935458 13.5970588,8.28955884 13.755,8.4475 L13.755,8.4475 L15.005,9.6975 C15.2626516,9.95112296 15.6167265,10.0820286 15.9773965,10.0570064 C16.3380665,10.0319842 16.6706726,9.85343878 16.8908333,9.56666667 L16.8908333,9.56666667 L19.3116667,6.3375 C19.518292,6.06123445 19.4623813,5.66985984 19.1866667,5.4625 L19.1866667,5.4625 Z" id="ðŸ–-Color" fill="#5A5A5A"></path>
        <rect id="_Transparent_Rectangle_" x="0" y="0" width="24" height="24"></rect>
    </g>
</svg>