<?xml version="1.0" encoding="UTF-8"?>
<svg width="24px" height="24px" viewBox="0 0 24 24" version="1.1" xmlns="http://www.w3.org/2000/svg" xmlns:xlink="http://www.w3.org/1999/xlink">
    <title>11. Computers and Devices/desktop_computer_1</title>
    <g id="11.-Computers-and-Devices/desktop_computer_1" stroke="none" stroke-width="1" fill="none" fill-rule="evenodd">
        <path d="M18.25,3.87499993 C19.1704746,3.87499993 19.9166667,4.62119201 19.9166667,5.5416666 L19.9166667,5.5416666 L19.9166667,6.37499993 C19.9166667,6.83523722 19.5435706,7.20833326 19.0833333,7.20833326 C18.623096,7.20833326 18.25,6.83523722 18.25,6.37499993 L18.25,6.37499993 L18.25,5.95833326 C18.25,5.72821462 18.063452,5.5416666 17.8333333,5.5416666 L17.8333333,5.5416666 L4.08333333,5.5416666 C3.85321469,5.5416666 3.66666667,5.72821462 3.66666667,5.95833326 L3.66666667,5.95833326 L3.66666667,15.5416666 C3.66666667,15.7717852 3.85321469,15.9583333 4.08333333,15.9583333 L4.08333333,15.9583333 L12.4166667,15.9583333 C12.876904,15.9583333 13.25,16.3314293 13.25,16.7916666 C13.25,17.2519039 12.876904,17.6249999 12.4166667,17.6249999 C12.3647747,17.6249587 12.3170642,17.6534569 12.2925,17.6991666 C12.2682753,17.7451353 12.270826,17.8006147 12.2991667,17.8441666 L12.2991667,17.8441666 L13.3883333,19.4766666 C13.47387,19.6045379 13.4819865,19.7691376 13.4094451,19.9048039 C13.3369038,20.0404702 13.1955094,20.1250001 13.0416667,20.1250001 L13.0416667,20.1250001 L8.45833333,20.1250001 C8.30449062,20.1250001 8.16309622,20.0404702 8.09055486,19.9048039 C8.01801349,19.7691376 8.02613004,19.6045379 8.11166667,19.4766666 L8.11166667,19.4766666 L9.13083333,17.9483333 C9.17314008,17.8844255 9.17694107,17.8024493 9.14072956,17.7349009 C9.10451805,17.6673525 9.03414228,17.6251412 8.9575,17.6249999 L8.9575,17.6249999 L3.66666667,17.6249999 C2.74619208,17.6249999 2,16.8788078 2,15.9583333 L2,15.9583333 L2,5.5416666 C2,4.62119201 2.74619208,3.87499993 3.66666667,3.87499993 L3.66666667,3.87499993 Z M21.1666667,8.45833326 C21.626904,8.45833326 22,8.83142931 22,9.2916666 L22,9.2916666 L22,19.2916666 C22,19.7519039 21.626904,20.1249999 21.1666667,20.1249999 L21.1666667,20.1249999 L15.3333333,20.1249999 C14.873096,20.1249999 14.5,19.7519039 14.5,19.2916666 L14.5,19.2916666 L14.5,9.2916666 C14.5,8.83142931 14.873096,8.45833326 15.3333333,8.45833326 L15.3333333,8.45833326 Z M19.9166667,16.9991666 L16.5833333,16.9991666 C16.2381554,16.9991666 15.9583333,17.2789886 15.9583333,17.6241666 C15.9583333,17.9693446 16.2381554,18.2491666 16.5833333,18.2491666 L16.5833333,18.2491666 L19.9166667,18.2491666 C20.2618446,18.2491666 20.5416672,17.9693446 20.5416672,17.6241666 L20.5416672,17.6241666 L20.533999,17.5265441 C20.5135284,17.3970929 20.4526907,17.2764318 20.3589033,17.1825194 C20.2416691,17.0651289 20.0825715,16.9991666 19.9166667,16.9991666 L19.9166667,16.9991666 Z M20.3333333,9.91583326 L18.6666667,9.91583326 C18.3214887,9.91583326 18.0416667,10.1956553 18.0416667,10.5408333 C18.0416667,10.8860112 18.3214887,11.1658333 18.6666667,11.1658333 L18.6666667,11.1658333 L20.3333333,11.1658333 C20.6785113,11.1658333 20.9583333,10.8860112 20.9583333,10.5408333 C20.9583333,10.1956553 20.6785113,9.91583326 20.3333333,9.91583326 L20.3333333,9.91583326 Z" id="ðŸ–-Color" fill="#5A5A5A"></path>
        <rect id="_Transparent_Rectangle_" x="0" y="0" width="24" height="24"></rect>
    </g>
</svg>