<?xml version="1.0" encoding="UTF-8"?>
<svg width="24px" height="24px" viewBox="0 0 24 24" version="1.1" xmlns="http://www.w3.org/2000/svg" xmlns:xlink="http://www.w3.org/1999/xlink">
    <title>11. Computers and Devices/desktop_monitor_remove</title>
    <g id="11.-Computers-and-Devices/desktop_monitor_remove" stroke="none" stroke-width="1" fill="none" fill-rule="evenodd">
        <path d="M9.72333333,6.99997949 C9.77993081,6.99919665 9.83430164,7.02202152 9.87336595,7.06298369 C9.91243026,7.10394587 9.93265207,7.15933756 9.92916667,7.21583333 C9.91304113,7.62023675 9.93676666,8.02524545 10,8.425 C10.0101612,8.48580923 9.99275551,8.547988 9.95250024,8.59468411 C9.91224497,8.64138022 9.85330938,8.66775739 9.79166667,8.66666667 L9.79166667,8.66666667 L3.875,8.66666667 C3.76058842,8.66666301 3.66758196,8.75892542 3.66666667,8.87333333 L3.66666667,8.87333333 L3.66666667,15.9566667 C3.66666667,16.071726 3.75994068,16.165 3.875,16.165 L3.875,16.165 L15.125,16.165 C15.2400593,16.165 15.3333333,16.071726 15.3333333,15.9566667 L15.3333333,15.9566667 L15.3333333,14.2066667 C15.3334323,14.1460143 15.3602765,14.088493 15.4066993,14.0494593 C15.4531222,14.0104255 15.5143975,13.9938532 15.5741667,14.0041667 C15.9080136,14.0566108 16.2453932,14.083356 16.5833333,14.0841667 C16.6491667,14.0841667 16.7141667,14.0775 16.7791667,14.0775 C16.836656,14.0744099 16.8929237,14.0948709 16.935,14.1341667 C16.9766175,14.1736213 17,14.2284864 17,14.2858333 L17,14.2858333 L17,17.4166667 C17,18.3371412 16.2538079,19.0833333 15.3333333,19.0833333 L15.3333333,19.0833333 L10.5416667,19.0833333 C10.4266073,19.0833333 10.3333333,19.1766073 10.3333333,19.2916667 L10.3333333,19.2916667 L10.3333333,20.125 C10.3333333,20.2400593 10.4266073,20.3333333 10.5416667,20.3333333 L10.5416667,20.3333333 L12.8333333,20.3333333 C13.2935706,20.3333333 13.6666667,20.7064294 13.6666667,21.1666667 C13.6666667,21.626904 13.2935706,22 12.8333333,22 L12.8333333,22 L6.16666667,22 C5.70642938,22 5.33333333,21.626904 5.33333333,21.1666667 C5.33333333,20.7064294 5.70642938,20.3333333 6.16666667,20.3333333 L6.16666667,20.3333333 L8.45833333,20.3333333 C8.57339266,20.3333333 8.66666667,20.2400593 8.66666667,20.125 L8.66666667,20.125 L8.66666667,19.2916667 C8.66666667,19.1766073 8.57339266,19.0833333 8.45833333,19.0833333 L8.45833333,19.0833333 L3.66666667,19.0833333 C2.74619208,19.0833333 2,18.3371412 2,17.4166667 L2,17.4166667 L2,8.66666667 C2,7.74619208 2.74619208,6.99997949 3.66666667,6.99997949 L3.66666667,6.99997949 Z M16.5833333,2 C19.5733529,2.00367325 21.9963268,4.4266471 22,7.41666667 C22,10.4082091 19.5748757,12.8333333 16.5833333,12.8333333 C13.5917909,12.8333333 11.1666667,10.4082091 11.1666667,7.41666667 C11.1666667,4.42512427 13.5917909,2 16.5833333,2 Z M18.5170625,5.03735408 C18.2985722,4.98005368 18.0661652,5.04510283 17.9091667,5.2075 L17.9091667,5.2075 L16.7308333,6.38583333 C16.6917482,6.42501738 16.638678,6.44703908 16.5833333,6.44703908 C16.5279886,6.44703908 16.4749184,6.42501738 16.4358333,6.38583333 L16.4358333,6.38583333 L15.2575,5.2075 C15.0121519,4.97075537 14.6223352,4.97432533 14.3813642,5.21552369 C14.1403932,5.45672205 14.1371908,5.84654196 14.3741667,6.09166667 L14.3741667,6.09166667 L15.5525,7.26916667 C15.6335523,7.35047286 15.6335523,7.48202714 15.5525,7.56333333 L15.5525,7.56333333 L14.3741667,8.74166667 C14.2568698,8.85972173 14.1909668,9.01875363 14.1909668,9.18458333 C14.1909668,9.35041304 14.2568698,9.50944494 14.3741667,9.62666667 C14.6222516,9.86033559 15.009415,9.86033559 15.2575,9.62666667 L15.2575,9.62666667 L16.4358333,8.44833333 C16.4749184,8.40914929 16.5279886,8.38712759 16.5833333,8.38712759 C16.638678,8.38712759 16.6917482,8.40914929 16.7308333,8.44833333 L16.7308333,8.44833333 L17.9091667,9.62666667 C18.1546637,9.86676918 18.547003,9.86676918 18.7925,9.62666667 C18.9097969,9.50944494 18.9756999,9.35041304 18.9756999,9.18458333 C18.9756999,9.01875363 18.9097969,8.85972173 18.7925,8.7425 L18.7925,8.7425 L17.6141667,7.56416667 C17.5331144,7.48286047 17.5331144,7.3513062 17.6141667,7.27 L17.6141667,7.27 L18.7925,6.09166667 C18.9550451,5.93482136 19.0203134,5.70247579 18.9632191,5.4839315 C18.9061247,5.26538721 18.7355529,5.09465447 18.5170625,5.03735408 Z" id="ðŸ–-Color" fill="#5A5A5A"></path>
        <rect id="_Transparent_Rectangle_" x="0" y="0" width="24" height="24"></rect>
    </g>
</svg>