<?xml version="1.0" encoding="UTF-8"?>
<svg width="24px" height="24px" viewBox="0 0 24 24" version="1.1" xmlns="http://www.w3.org/2000/svg" xmlns:xlink="http://www.w3.org/1999/xlink">
    <title>11. Computers and Devices/desktop_monitor_settings</title>
    <g id="11.-Computers-and-Devices/desktop_monitor_settings" stroke="none" stroke-width="1" fill="none" fill-rule="evenodd">
        <path d="M10.5833183,7.20058346 C10.6565389,7.1998637 10.7246956,7.23638304 10.762485,7.29659422 C10.8900374,7.49401759 11.0413566,7.67633902 11.2133183,7.83979422 C11.2869122,7.91639045 11.2869122,8.034398 11.2133183,8.11099422 C11.027443,8.28698523 10.865847,8.48513498 10.732485,8.70059422 C10.6949466,8.7623562 10.6261374,8.80040737 10.5516516,8.80059422 L10.5516516,8.80059422 L3.87415163,8.80059422 C3.76006159,8.80058634 3.66718738,8.88867567 3.66581829,8.99819422 L3.66581829,8.99819422 L3.66581829,15.7981942 C3.66581829,15.9086512 3.75909231,15.9981942 3.87415163,15.9981942 L3.87415163,15.9981942 L15.1241516,15.9981942 C15.239211,15.9981942 15.332485,15.9086512 15.332485,15.7981942 L15.332485,15.7981942 L15.332485,14.6781942 C15.3323009,14.6095967 15.3688959,14.5457345 15.4293473,14.5091589 C15.4897987,14.4725833 15.5656004,14.4684408 15.629985,14.4981942 C15.9911559,14.6653608 16.3873694,14.7510114 16.7883183,14.7485942 C16.8440805,14.7479539 16.8978003,14.7687167 16.9375446,14.8062704 C16.9772889,14.8438241 16.9997668,14.8950591 16.999985,14.9485942 L16.999985,14.9485942 L16.999985,17.2005942 C16.999985,18.0842498 16.2537929,18.8005942 15.3333183,18.8005942 L15.3333183,18.8005942 L10.5416516,18.8005942 C10.4265923,18.8005942 10.3333183,18.8901373 10.3333183,19.0005942 L10.3333183,19.0005942 L10.3333183,19.8005942 C10.3333183,19.9110512 10.4265923,20.0005942 10.5416516,20.0005942 L10.5416516,20.0005942 L12.8333183,20.0005942 C13.2935556,20.0005942 13.6666516,20.3587664 13.6666516,20.8005942 C13.6666516,21.242422 13.2935556,21.6005942 12.8333183,21.6005942 L12.8333183,21.6005942 L6.16665163,21.6005942 C5.70641434,21.6005942 5.33331829,21.242422 5.33331829,20.8005942 C5.33331829,20.3587664 5.70641434,20.0005942 6.16665163,20.0005942 L6.16665163,20.0005942 L8.45831829,20.0005942 C8.57337762,20.0005942 8.66665163,19.9110512 8.66665163,19.8005942 L8.66665163,19.8005942 L8.66665163,19.0005942 C8.66665163,18.8901373 8.57337762,18.8005942 8.45831829,18.8005942 L8.45831829,18.8005942 L3.66665163,18.8005942 C2.74617705,18.8005942 1.99998496,18.0842498 1.99998496,17.2005942 L1.99998496,17.2005942 L1.99998496,8.80059422 C1.99998496,7.91693862 2.74617705,7.20058346 3.66665163,7.20058346 L3.66665163,7.20058346 Z M16.7891516,2.39940578 C17.4422119,2.39940578 18.0179892,2.81054669 18.2058183,3.41099422 L18.2058183,3.41099422 L18.5591516,4.52459422 C18.6177238,4.70545763 18.8104824,4.81343133 19.0033183,4.77339422 L19.0033183,4.77339422 L20.1791516,4.51099422 C20.8137617,4.36166043 21.4741671,4.63725098 21.7933183,5.18459422 C22.1297714,5.72615072 22.0493738,6.41653481 21.5966516,6.87339422 L21.5966516,6.87339422 L20.7741516,7.72619422 C20.6389027,7.86757366 20.6389027,8.08481478 20.7741516,8.22619422 L20.7741516,8.22619422 L21.5966516,9.07819422 C22.0404959,9.53643361 22.1214241,10.2188713 21.7962291,10.7611587 C21.4710342,11.3034461 20.8156514,11.5789554 20.179985,11.4405942 L20.179985,11.4405942 L19.0033183,11.1789942 C18.810015,11.1360672 18.6153331,11.2451184 18.5591516,11.4277942 L18.5591516,11.4277942 L18.2058183,12.5405942 C18.0189781,13.1419891 17.4428738,13.5541729 16.7891516,13.5541729 C16.1354295,13.5541729 15.5593252,13.1419891 15.372485,12.5405942 L15.372485,12.5405942 L15.0191516,11.4277942 C14.9619285,11.2459048 14.7680876,11.1373248 14.574985,11.1789942 L14.574985,11.1789942 L13.3991516,11.4405942 C12.7634852,11.5789554 12.1081024,11.3034461 11.7829075,10.7611587 C11.4577125,10.2188713 11.5386407,9.53643361 11.982485,9.07819422 L11.982485,9.07819422 L12.804985,8.22619422 C12.9402339,8.08481478 12.9402339,7.86757366 12.804985,7.72619422 L12.804985,7.72619422 L11.9808183,6.87339422 C11.5283674,6.41634425 11.4483123,5.72597686 11.784985,5.18459422 C12.104244,4.63780664 12.7639994,4.36234517 13.3983183,4.51099422 L13.3983183,4.51099422 L14.574985,4.77339422 C14.767688,4.81263351 14.9599213,4.704954 15.0191516,4.52459422 L15.0191516,4.52459422 L15.372485,3.41099422 C15.5603141,2.81054669 16.1360914,2.39940578 16.7891516,2.39940578 Z M16.7908183,5.57579422 C15.4101064,5.57579422 14.2908183,6.65031082 14.2908183,7.97579422 C14.2908183,9.30127762 15.4101064,10.3757942 16.7908183,10.3757942 C18.1715302,10.3757942 19.2908183,9.30127762 19.2908183,7.97579422 C19.2908183,6.65031082 18.1715302,5.57579422 16.7908183,5.57579422 Z M16.7908183,6.77579422 C17.4811742,6.77579422 18.0408183,7.31305252 18.0408183,7.97579422 C18.0408183,8.63853592 17.4811742,9.17579422 16.7908183,9.17579422 C16.1004624,9.17579422 15.5408183,8.63853592 15.5408183,7.97579422 C15.5408183,7.31305252 16.1004624,6.77579422 16.7908183,6.77579422 Z" id="ðŸ–-Color" fill="#5A5A5A"></path>
        <rect id="_Transparent_Rectangle_" x="0" y="0" width="24" height="24"></rect>
    </g>
</svg>