<?xml version="1.0" encoding="UTF-8"?>
<svg width="24px" height="24px" viewBox="0 0 24 24" version="1.1" xmlns="http://www.w3.org/2000/svg" xmlns:xlink="http://www.w3.org/1999/xlink">
    <title>11. Computers and Devices/desktop_monitor_warning</title>
    <g id="11.-Computers-and-Devices/desktop_monitor_warning" stroke="none" stroke-width="1" fill="none" fill-rule="evenodd">
        <path d="M11.4744613,6.9995106 C11.5472963,6.9995106 11.6147733,7.03780564 11.6524218,7.10015578 C11.6900704,7.16250591 11.6924236,7.23999075 11.658628,7.3045106 L11.658628,7.3045106 L11.0027946,8.5545106 C10.9663407,8.62290753 10.8952987,8.66578871 10.8177946,8.66617726 L10.8177946,8.66617726 L3.87612796,8.66617726 C3.82066125,8.66595271 3.76741354,8.68794464 3.72827069,8.72724406 C3.68912785,8.76654348 3.66734865,8.81987856 3.66779463,8.87534393 L3.66779463,8.87534393 L3.66779463,15.9586773 C3.667572,16.0139986 3.68944985,16.0671185 3.72856829,16.1062369 C3.76768673,16.1453554 3.82080658,16.1672332 3.87612796,16.1670106 L3.87612796,16.1670106 L15.1252946,16.1670106 C15.2403539,16.1670106 15.333628,16.0737366 15.333628,15.9586773 L15.333628,15.9586773 L15.333628,13.8745106 C15.3334053,13.8191892 15.3552832,13.7660694 15.3944016,13.7269509 C15.4335201,13.6878325 15.4866399,13.6659546 15.5419613,13.6661773 L15.5419613,13.6661773 L16.7919613,13.6661773 C16.9070206,13.6661773 17.0002946,13.7594513 17.0002946,13.8745106 L17.0002946,13.8745106 L17.0002946,17.4161773 C17.0002946,18.3366518 16.2541025,19.0828439 15.333628,19.0828439 L15.333628,19.0828439 L10.5419613,19.0828439 C10.4866399,19.0826213 10.4335201,19.1044991 10.3944016,19.1436176 C10.3552832,19.182736 10.3334053,19.2358559 10.333628,19.2911773 L10.333628,19.2911773 L10.333628,20.1245106 C10.3334053,20.179832 10.3552832,20.2329518 10.3944016,20.2720703 C10.4335201,20.3111887 10.4866399,20.3330666 10.5419613,20.3328439 L10.5419613,20.3328439 L12.833628,20.3328439 C13.2938653,20.3328439 13.6669613,20.70594 13.6669613,21.1661773 C13.6669613,21.6264146 13.2938653,21.9995106 12.833628,21.9995106 L12.833628,21.9995106 L6.16696129,21.9995106 C5.706724,21.9995106 5.33362796,21.6264146 5.33362796,21.1661773 C5.33362796,20.70594 5.706724,20.3328439 6.16696129,20.3328439 L6.16696129,20.3328439 L8.45862796,20.3328439 C8.57368728,20.3328439 8.66696129,20.2395699 8.66696129,20.1245106 L8.66696129,20.1245106 L8.66696129,19.2911773 C8.66696129,19.1761179 8.57368728,19.0828439 8.45862796,19.0828439 L8.45862796,19.0828439 L3.66696129,19.0828439 C2.74648671,19.0828439 2.00029463,18.3366518 2.00029463,17.4161773 L2.00029463,17.4161773 L2.00029463,8.66617726 C2.00029463,7.74570268 2.74648671,6.9995106 3.66696129,6.9995106 L3.66696129,6.9995106 Z M16.5840446,2.0004894 C17.0312449,2.0004894 17.4418251,2.24764727 17.651128,2.64284393 L17.651128,2.64284393 L21.863628,10.6711773 C22.0581471,11.0421786 22.0432715,11.48813 21.8244613,11.8453439 C21.6033398,12.200212 21.2150826,12.4162253 20.7969613,12.4170106 L20.7969613,12.4170106 L12.371128,12.4170106 C11.9527591,12.4163647 11.5643216,12.1999361 11.343628,11.8445106 C11.1248178,11.4872967 11.1099422,11.0413453 11.3044613,10.6703439 L11.3044613,10.6703439 L15.5169613,2.64284393 C15.7262642,2.24764727 16.1368443,2.0004894 16.5840446,2.0004894 Z M16.583628,9.2920106 C16.1233907,9.2920106 15.7502946,9.66510664 15.7502946,10.1253439 C15.7502946,10.5855812 16.1233907,10.9586773 16.583628,10.9586773 C17.0438653,10.9586773 17.4169613,10.5855812 17.4169613,10.1253439 C17.4169613,9.66510664 17.0438653,9.2920106 16.583628,9.2920106 Z M16.583628,5.12534393 C16.23845,5.12534393 15.958628,5.40516596 15.958628,5.75034393 L15.958628,5.75034393 L15.958628,8.25034393 C15.958628,8.5955219 16.23845,8.87534393 16.583628,8.87534393 C16.9288059,8.87534393 17.208628,8.5955219 17.208628,8.25034393 L17.208628,8.25034393 L17.208628,5.75034393 C17.208628,5.40516596 16.9288059,5.12534393 16.583628,5.12534393 Z" id="ðŸ–-Color" fill="#5A5A5A"></path>
        <rect id="_Transparent_Rectangle_" x="0" y="0" width="24" height="24"></rect>
    </g>
</svg>