<?xml version="1.0" encoding="UTF-8"?>
<svg width="24px" height="24px" viewBox="0 0 24 24" version="1.1" xmlns="http://www.w3.org/2000/svg" xmlns:xlink="http://www.w3.org/1999/xlink">
    <title>11. Computers and Devices/hard_drive</title>
    <g id="11.-Computers-and-Devices/hard_drive" stroke="none" stroke-width="1" fill="none" fill-rule="evenodd">
        <path d="M20.2608696,13.0869565 C21.2203731,13.0893463 21.9976102,13.8665834 22,14.826087 L22,14.826087 L22,18.3043478 C21.997135,19.2636538 21.2201755,20.0406132 20.2608696,20.0434783 L20.2608696,20.0434783 L3.73913043,20.0434783 C2.78002184,20.0401389 2.00333938,19.2634564 2,18.3043478 L2,18.3043478 L2,14.826087 C2.00286504,13.866781 2.77982446,13.0898216 3.73913043,13.0869565 L3.73913043,13.0869565 Z M19.3913043,16.7817391 L4.60869565,16.7817391 C4.24850995,16.7817391 3.95652174,17.0737273 3.95652174,17.433913 C3.95652174,17.7940987 4.24850995,18.086087 4.60869565,18.086087 L4.60869565,18.086087 L19.3913043,18.086087 C19.7514901,18.086087 20.0434783,17.7940987 20.0434783,17.433913 C20.0434783,17.0737273 19.7514901,16.7817391 19.3913043,16.7817391 L19.3913043,16.7817391 Z M18.9565217,13.9565217 C18.4762741,13.9565217 18.0869565,14.3458393 18.0869565,14.826087 C18.0869565,15.3063346 18.4762741,15.6956522 18.9565217,15.6956522 C19.4367693,15.6956522 19.826087,15.3063346 19.826087,14.826087 C19.826087,14.3458393 19.4367693,13.9565217 18.9565217,13.9565217 Z M17.6521739,3.95652174 C18.8630374,3.9921465 19.9129966,4.80402136 20.2521739,5.96695652 L20.2521739,5.96695652 L21.7217391,11.7695652 C21.7425167,11.8496709 21.7158162,11.9346137 21.6529437,11.9884252 C21.5900711,12.0422367 21.5020247,12.0555038 21.426087,12.0226087 C21.0579553,11.8644824 20.661525,11.7828296 20.2608696,11.7826087 L20.2608696,11.7826087 L3.73913043,11.7826087 C3.33847499,11.7828296 2.94204469,11.8644824 2.57391304,12.0226087 C2.49797526,12.0555038 2.40992885,12.0422367 2.34705631,11.9884252 C2.28418377,11.9346137 2.25748325,11.8496709 2.27826087,11.7695652 L2.27826087,11.7695652 L3.74869565,5.96695652 C4.08777392,4.80431901 5.13728722,3.99251749 6.34782609,3.95652174 L6.34782609,3.95652174 Z" id="ðŸ–-Color" fill="#5A5A5A"></path>
        <rect id="_Transparent_Rectangle_" x="0" y="0" width="24" height="24"></rect>
    </g>
</svg>