<?xml version="1.0" encoding="UTF-8"?>
<svg width="24px" height="24px" viewBox="0 0 24 24" version="1.1" xmlns="http://www.w3.org/2000/svg" xmlns:xlink="http://www.w3.org/1999/xlink">
    <title>11. Computers and Devices/keyboard_gaming</title>
    <g id="11.-Computers-and-Devices/keyboard_gaming" stroke="none" stroke-width="1" fill="none" fill-rule="evenodd">
        <path d="M19.9166667,12.8333333 L16.8425,12.8333333 C16.7870889,12.8332113 16.7340093,12.8110198 16.695,12.7716667 L16.045,12.1216667 C15.9667077,12.0435717 15.8605824,11.9998025 15.75,12 L8.25,12 C8.13941761,11.9998025 8.03329228,12.0435717 7.955,12.1216667 L7.305,12.7716667 C7.26599065,12.8110198 7.21291106,12.8332113 7.1575,12.8333333 L4.70833333,12.8333333 C4.59327401,12.8333333 4.5,12.7400593 4.5,12.625 L4.5,12.4166667 C4.5,11.4961921 5.24619208,10.75 6.16666667,10.75 L17.4166667,10.75 C18.7564126,10.75 19.994389,10.0352541 20.664262,8.87500002 C21.334135,7.71474597 21.334135,6.28525403 20.664262,5.12499998 C19.994389,3.96474594 18.7564126,3.24999998 17.4166667,3.25 L12,3.25 C11.7698814,3.25 11.5833333,3.06345198 11.5833333,2.83333333 C11.5833333,2.37309604 11.2102373,2 10.75,2 C10.2897627,2 9.91666667,2.37309604 9.91666667,2.83333333 C9.91666667,3.98392656 10.8494068,4.91666667 12,4.91666667 L17.4166667,4.91666667 C18.5672599,4.91666667 19.5,5.84940677 19.5,7 C19.5,8.15059323 18.5672599,9.08333333 17.4166667,9.08333333 L6.16666667,9.08333333 C4.3257175,9.08333333 2.83333333,10.5757175 2.83333333,12.4166667 L2.83333333,13.25 C2.83435795,13.2545603 2.83234226,13.2592636 2.82833333,13.2616667 C2.30817731,13.6530871 2.0015671,14.2656906 2,14.9166667 L2,19.0833333 C2,20.2339266 2.9327401,21.1666667 4.08333333,21.1666667 L7.1575,21.1666667 C7.21280932,21.1664758 7.26590596,21.1883744 7.305,21.2275 L7.955,21.8775 C8.03315569,21.9559006 8.13929789,22 8.25,22 L15.75,22 C15.8607021,22 15.9668443,21.9559006 16.045,21.8775 L16.695,21.2275 C16.734094,21.1883744 16.7871907,21.1664758 16.8425,21.1666667 L19.9166667,21.1666667 C20.469201,21.1666667 20.999105,20.9471732 21.3898058,20.5564725 C21.7805066,20.1657717 22,19.6358677 22,19.0833333 L22,14.9166667 C22,14.3641323 21.7805066,13.8342283 21.3898058,13.4435275 C20.999105,13.0528268 20.469201,12.8333333 19.9166667,12.8333333 Z M17.2083333,15.3333333 L16.7916667,15.3333333 C16.561548,15.3333333 16.375,15.1467853 16.375,14.9166667 C16.375,14.686548 16.561548,14.5 16.7916667,14.5 L17.2083333,14.5 C17.438452,14.5 17.625,14.686548 17.625,14.9166667 C17.625,15.1467853 17.438452,15.3333333 17.2083333,15.3333333 Z M17.625,16.5833333 C17.625,16.813452 17.438452,17 17.2083333,17 L16.7916667,17 C16.561548,17 16.375,16.813452 16.375,16.5833333 C16.375,16.3532147 16.561548,16.1666667 16.7916667,16.1666667 L17.2083333,16.1666667 C17.438452,16.1666667 17.625,16.3532147 17.625,16.5833333 Z M14.7083333,15.3333333 L14.2916667,15.3333333 C14.061548,15.3333333 13.875,15.1467853 13.875,14.9166667 C13.875,14.686548 14.061548,14.5 14.2916667,14.5 L14.7083333,14.5 C14.938452,14.5 15.125,14.686548 15.125,14.9166667 C15.125,15.1467853 14.938452,15.3333333 14.7083333,15.3333333 Z M15.125,16.5833333 C15.125,16.813452 14.938452,17 14.7083333,17 L14.2916667,17 C14.061548,17 13.875,16.813452 13.875,16.5833333 C13.875,16.3532147 14.061548,16.1666667 14.2916667,16.1666667 L14.7083333,16.1666667 C14.938452,16.1666667 15.125,16.3532147 15.125,16.5833333 Z M12.2083333,15.3333333 L11.7916667,15.3333333 C11.561548,15.3333333 11.375,15.1467853 11.375,14.9166667 C11.375,14.686548 11.561548,14.5 11.7916667,14.5 L12.2083333,14.5 C12.438452,14.5 12.625,14.686548 12.625,14.9166667 C12.625,15.1467853 12.438452,15.3333333 12.2083333,15.3333333 Z M12.625,16.5833333 C12.625,16.813452 12.438452,17 12.2083333,17 L11.7916667,17 C11.561548,17 11.375,16.813452 11.375,16.5833333 C11.375,16.3532147 11.561548,16.1666667 11.7916667,16.1666667 L12.2083333,16.1666667 C12.438452,16.1666667 12.625,16.3532147 12.625,16.5833333 Z M10.125,14.9166667 C10.125,15.1467853 9.93845198,15.3333333 9.70833333,15.3333333 L9.29166667,15.3333333 C9.06154802,15.3333333 8.875,15.1467853 8.875,14.9166667 C8.875,14.686548 9.06154802,14.5 9.29166667,14.5 L9.70833333,14.5 C9.93845198,14.5 10.125,14.686548 10.125,14.9166667 Z M9.29166667,16.1666667 L9.70833333,16.1666667 C9.93845198,16.1666667 10.125,16.3532147 10.125,16.5833333 C10.125,16.813452 9.93845198,17 9.70833333,17 L9.29166667,17 C9.06154802,17 8.875,16.813452 8.875,16.5833333 C8.875,16.3532147 9.06154802,16.1666667 9.29166667,16.1666667 Z M15.75,18.6666667 C15.9801186,18.6666667 16.1666667,18.8532147 16.1666667,19.0833333 C16.1666667,19.313452 15.9801186,19.5 15.75,19.5 L8.25,19.5 C8.01988135,19.5 7.83333333,19.313452 7.83333333,19.0833333 C7.83333333,18.8532147 8.01988135,18.6666667 8.25,18.6666667 L15.75,18.6666667 Z M7.20833333,17 L6.79166667,17 C6.56154802,17 6.375,16.813452 6.375,16.5833333 C6.375,16.3532147 6.56154802,16.1666667 6.79166667,16.1666667 L7.20833333,16.1666667 C7.43845198,16.1666667 7.625,16.3532147 7.625,16.5833333 C7.625,16.813452 7.43845198,17 7.20833333,17 Z M7.20833333,15.3333333 L6.79166667,15.3333333 C6.56154802,15.3333333 6.375,15.1467853 6.375,14.9166667 C6.375,14.686548 6.56154802,14.5 6.79166667,14.5 L7.20833333,14.5 C7.43845198,14.5 7.625,14.686548 7.625,14.9166667 C7.625,15.1467853 7.43845198,15.3333333 7.20833333,15.3333333 Z" id="ðŸ–-Color" fill="#5A5A5A"></path>
        <rect id="_Transparent_Rectangle_" x="0" y="0" width="24" height="24"></rect>
    </g>
</svg>