<?xml version="1.0" encoding="UTF-8"?>
<svg width="24px" height="24px" viewBox="0 0 24 24" version="1.1" xmlns="http://www.w3.org/2000/svg" xmlns:xlink="http://www.w3.org/1999/xlink">
    <title>11. Computers and Devices/laptop</title>
    <g id="11.-Computers-and-Devices/laptop" stroke="none" stroke-width="1" fill="none" fill-rule="evenodd">
        <path d="M21.616092,19.3957277 L19.8288594,13.5829664 C19.7693116,13.4046305 19.6707503,13.2418153 19.540349,13.1063711 C19.8915397,12.7003349 20.0856754,12.1819351 20.0875826,11.6450956 L20.0875826,4.26978247 C20.0871316,3.66705122 19.8471483,3.08921046 19.4204742,2.66349413 C18.9938001,2.2377778 18.4154215,1.9990936 17.8126908,1.99999452 L6.18121086,1.99999452 C4.92922348,2.00280975 3.91538223,3.01779272 3.91397865,4.26978247 L3.91397865,11.6450956 C3.91569086,12.1814111 4.10919109,12.6994242 4.45951013,13.10552 C4.32910881,13.2409642 4.23054747,13.4037794 4.17099972,13.5821154 L2.40589477,19.3310469 C2.12010648,19.9027059 2.15065887,20.5815764 2.48664254,21.1252527 C2.8226262,21.6689291 3.41613934,21.9999945 4.05525514,21.9999945 L19.9377955,21.9999945 C20.5778115,22.0024461 21.1727327,21.6707873 21.5071559,21.125088 C21.8391728,20.605962 21.8803412,19.9524137 21.616092,19.3957277 Z M14.9837569,19.7846635 C14.9048341,19.8943853 14.7784802,19.9600893 14.6433317,19.9616847 L9.36078275,19.9616847 C9.22407341,19.9615809 9.0957386,19.8958014 9.01583201,19.7848762 C8.93592543,19.6739511 8.91417862,19.5313894 8.95737882,19.4016851 L9.46801671,17.8697715 C9.52587008,17.6960722 9.68834023,17.5788469 9.87142064,17.5787075 L14.1267363,17.5787075 C14.31013,17.5784803 14.473039,17.6957749 14.5309913,17.8697715 L15.0416292,19.4016851 C15.0832253,19.5321778 15.0594691,19.6747151 14.9777995,19.7846635 L14.9837569,19.7846635 Z M5.61610493,4.26978247 C5.61610493,3.956273 5.87025458,3.70212336 6.18376405,3.70212336 L17.8126908,3.70212336 C18.1258679,3.70259289 18.3794988,3.95660506 18.3794988,4.26978247 L18.3794988,11.6450956 C18.3794988,11.9582731 18.1258679,12.2122852 17.8126908,12.2127548 L6.18121086,12.2127548 C5.86770139,12.2127548 5.61355174,11.9586051 5.61355174,11.6450956 L5.61610493,4.26978247 Z" id="ðŸ–-Color" fill="#5A5A5A"></path>
        <rect id="_Transparent_Rectangle_" x="0" y="0" width="24" height="24"></rect>
    </g>
</svg>