<?xml version="1.0" encoding="UTF-8"?>
<svg width="24px" height="24px" viewBox="0 0 24 24" version="1.1" xmlns="http://www.w3.org/2000/svg" xmlns:xlink="http://www.w3.org/1999/xlink">
    <title>11. Computers and Devices/monitor_alternate</title>
    <g id="11.-Computers-and-Devices/monitor_alternate" stroke="none" stroke-width="1" fill="none" fill-rule="evenodd">
        <path d="M13.6366667,19.0833313 C13.7607337,19.0833313 13.8783452,19.1386285 13.9575,19.2341646 L13.9575,19.2341646 L15.7075,21.3441646 C15.796757,21.4714963 15.807683,21.6379352 15.735838,21.7758427 C15.6639929,21.9137501 15.521333,22.000176 15.3658333,22 L15.3658333,22 L8.63333333,22 C8.47768393,22.0004879 8.33473897,21.9141824 8.26268658,21.7762135 C8.19063419,21.6382446 8.20148936,21.471619 8.29083333,21.3441646 L8.29083333,21.3441646 L10.0408333,19.2341646 C10.1199881,19.1386285 10.2375996,19.0833313 10.3616667,19.0833313 L10.3616667,19.0833313 Z M20.75,1.99999793 C21.4403559,1.99999793 22,2.559642 22,3.24999793 L22,3.24999793 L22,16.5833313 C22,17.2736872 21.4403559,17.8333313 20.75,17.8333313 L20.75,17.8333313 L3.25,17.8333313 C2.55964406,17.8333313 2,17.2736872 2,16.5833313 L2,16.5833313 L2,3.24999793 C2,2.559642 2.55964406,1.99999793 3.25,1.99999793 L3.25,1.99999793 Z M19.9166667,3.6666646 L4.08333333,3.6666646 C3.85321469,3.6666646 3.66666667,3.85321262 3.66666667,4.08333127 L3.66666667,4.08333127 L3.66666667,14.0833313 C3.66666667,14.3134499 3.85321469,14.4999979 4.08333333,14.4999979 L4.08333333,14.4999979 L19.9166667,14.4999979 C20.1467853,14.4999979 20.3333333,14.3134499 20.3333333,14.0833313 L20.3333333,14.0833313 L20.3333333,4.08333127 C20.3333333,3.85321262 20.1467853,3.6666646 19.9166667,3.6666646 L19.9166667,3.6666646 Z" id="ðŸ–-Color" fill="#5A5A5A"></path>
        <rect id="_Transparent_Rectangle_" x="0" y="0" width="24" height="24"></rect>
    </g>
</svg>