<?xml version="1.0" encoding="UTF-8"?>
<svg width="24px" height="24px" viewBox="0 0 24 24" version="1.1" xmlns="http://www.w3.org/2000/svg" xmlns:xlink="http://www.w3.org/1999/xlink">
    <title>11. Computers and Devices/mouse</title>
    <g id="11.-Computers-and-Devices/mouse" stroke="none" stroke-width="1" fill="none" fill-rule="evenodd">
        <path d="M21.1666667,3.0975 C20.7064294,3.0975 20.3333333,3.47059604 20.3333333,3.93083333 L20.3333333,8.66 C20.3333333,10.3916667 19.3333333,11.1666667 18.3333333,11.1666667 C17.3333333,11.1666667 16.3333333,10.3908333 16.3333333,8.65916667 L16.3333333,6.69 C16.3383333,3.21916667 13.3516667,2 11.3483333,2 C9.0725,2 6.77583333,3.365 6.59833333,5.9725 C6.59091588,6.08135365 6.50077097,6.16604624 6.39166667,6.16666667 L4.91666667,6.16666667 C3.30583615,6.16666667 2,7.47250281 2,9.08333333 L2,16.5833333 C2,19.5748757 4.42512427,22 7.41666667,22 C10.4082091,22 12.8333333,19.5748757 12.8333333,16.5833333 L12.8333333,9.08333333 C12.8333333,7.47250281 11.5274972,6.16666667 9.91666667,6.16666667 L8.49166667,6.16666667 C8.43107835,6.16730534 8.37323774,6.14142928 8.33333333,6.09583333 C8.29344921,6.05006705 8.27522802,5.98932978 8.28333333,5.92916667 C8.48833333,4.38333333 9.96166667,3.66666667 11.3483333,3.66666667 C11.6733333,3.66666667 14.6716667,3.785 14.6716667,6.68916667 L14.6716667,8.66 C14.6716667,11.4 16.515,12.8341667 18.3383333,12.8341667 C20.1616667,12.8341667 22,11.4 22,8.66 L22,3.93083333 C22,3.47059604 21.626904,3.0975 21.1666667,3.0975 Z M8.66666667,11.2641667 C8.63691213,11.9262856 8.0790193,12.4406628 7.41666667,12.4166667 C6.75275783,12.4406201 6.19420211,11.9237699 6.16666667,11.26 L6.16666667,9.4075 C6.19375701,8.74339997 6.75244582,8.22605413 7.41666667,8.25 C8.08088751,8.22605413 8.63957633,8.74339997 8.66666667,9.4075 L8.66666667,11.2641667 Z" id="ðŸ–-Color" fill="#5A5A5A"></path>
        <rect id="_Transparent_Rectangle_" x="0" y="0" width="24" height="24"></rect>
    </g>
</svg>