<?xml version="1.0" encoding="UTF-8"?>
<svg width="24px" height="24px" viewBox="0 0 24 24" version="1.1" xmlns="http://www.w3.org/2000/svg" xmlns:xlink="http://www.w3.org/1999/xlink">
    <title>11. Computers and Devices/printer</title>
    <g id="11.-Computers-and-Devices/printer" stroke="none" stroke-width="1" fill="none" fill-rule="evenodd">
        <path d="M21.1391667,10.6108333 L19.68,6.95333333 C19.4924384,6.47708232 19.0318502,6.16472938 18.52,6.16666667 L16.7925,6.16666667 C16.7371786,6.16688929 16.6840588,6.14501145 16.6449403,6.105893 C16.6058219,6.06677456 16.583944,6.01365472 16.5841667,5.95833333 L16.5841667,4.38166667 C16.5838858,4.15011569 16.4872763,3.92912127 16.3175,3.77166667 L14.6508333,2.22333333 C14.4966811,2.07985702 14.2939239,2 14.0833333,2 L8.25,2 C7.78976271,2 7.41666667,2.37309604 7.41666667,2.83333333 L7.41666667,5.95833333 C7.41666667,6.07339266 7.32339266,6.16666667 7.20833333,6.16666667 L5.48083333,6.16666667 C4.96935094,6.16446881 4.50900098,6.47655365 4.32166667,6.9525 L2.86166667,10.6108333 C2.84308692,10.6729635 2.83464528,10.7376827 2.83666667,10.8025 L3.58333333,16.7391667 C3.66167268,17.3626866 4.19074865,17.8311132 4.81916667,17.8333333 L5.9225,17.8333333 C5.98733258,17.8329076 6.04863783,17.8628097 6.08821521,17.9141622 C6.1277926,17.9655146 6.1410926,18.0324144 6.12416667,18.095 L5.3625,20.9516667 C5.29573379,21.2016886 5.34891074,21.4685402 5.50641736,21.67387 C5.66392398,21.8791999 5.90788374,21.9997038 6.16666667,22 L17.4166667,22 C17.6754496,21.9997038 17.9194094,21.8791999 18.076916,21.67387 C18.2344226,21.4685402 18.2875995,21.2016886 18.2208333,20.9516667 L17.4591667,18.095 C17.4425622,18.032304 17.4561041,17.9654514 17.4957982,17.9141594 C17.5354923,17.8628674 17.5968101,17.8329878 17.6616667,17.8333333 L19.1816667,17.8333333 C19.811953,17.8331555 20.3435112,17.3637553 20.4216667,16.7383333 L21.1666667,10.7983333 C21.1645878,10.7349974 21.1553627,10.6720988 21.1391667,10.6108333 Z M14.7091667,7.83333502 L9.2925,7.83333502 C9.23717862,7.83355596 9.18405877,7.81167811 9.14494033,7.77255967 C9.10582189,7.73344123 9.08394404,7.68032138 9.08416498,7.625 L9.08416498,3.875 C9.08394404,3.81967862 9.10582189,3.76655877 9.14494033,3.72744033 C9.18405877,3.68832189 9.23717862,3.66644404 9.2925,3.66666498 L13.675,3.66666498 C13.7274174,3.66675195 13.7779234,3.68636016 13.8166667,3.72166667 L14.8508333,4.68166667 C14.8933217,4.72134654 14.9175,4.77686436 14.9175,4.835 L14.9175,7.62583333 C14.9170411,7.74056709 14.8239013,7.83333502 14.7091667,7.83333502 L14.7091667,7.83333502 Z M19.0841667,12.8333333 C19.0841667,13.2935706 18.7110706,13.6666667 18.2508333,13.6666667 C17.790596,13.6666667 17.4175,13.2935706 17.4175,12.8333333 C17.4175,12.373096 17.790596,12 18.2508333,12 C18.7107452,12.0004599 19.0833336,12.3734213 19.0833333,12.8333333 L19.0841667,12.8333333 Z M8.43333333,15.905 C8.45753808,15.8139918 8.53999477,15.7506952 8.63416667,15.7508331 L14.95,15.7508331 C15.0441719,15.7506952 15.1266286,15.8139918 15.1508333,15.905 L16.2625,20.0716667 C16.2793745,20.1343357 16.266079,20.2012891 16.2265397,20.2527556 C16.1870003,20.3042221 16.1257343,20.3343219 16.0608333,20.3341673 L7.52333333,20.3341673 C7.45843236,20.3343219 7.39716636,20.3042221 7.35762701,20.2527556 C7.31808767,20.2012891 7.30479218,20.1343357 7.32166667,20.0716667 L8.43333333,15.905 Z" id="ðŸ–-Color" fill="#5A5A5A"></path>
        <rect id="_Transparent_Rectangle_" x="0" y="0" width="24" height="24"></rect>
    </g>
</svg>