<?xml version="1.0" encoding="UTF-8"?>
<svg width="24px" height="24px" viewBox="0 0 24 24" version="1.1" xmlns="http://www.w3.org/2000/svg" xmlns:xlink="http://www.w3.org/1999/xlink">
    <title>11. Computers and Devices/smart_watch_circle_alternate</title>
    <g id="11.-Computers-and-Devices/smart_watch_circle_alternate" stroke="none" stroke-width="1" fill="none" fill-rule="evenodd">
        <path d="M19.9144824,11.9999999 C19.9128244,9.25990149 18.4943592,6.71549007 16.1644824,5.27333324 C16.1196418,5.24524804 16.087167,5.20115383 16.0736491,5.14999991 L15.3169824,2.31083324 C15.2689329,2.12786554 15.103654,2.00022775 14.9144824,1.99999991 L9.08114907,1.99999991 C8.89245449,1.99999991 8.72733227,2.12686026 8.67864907,2.30916658 L7.92114907,5.14916658 C7.90822836,5.20037 7.87597042,5.24457532 7.83114907,5.27249991 C5.5023151,6.71610361 4.08551759,9.26127558 4.08551759,12.0012499 C4.08551759,14.7412242 5.5023151,17.2863962 7.83114907,18.7299999 C7.87598967,18.7580851 7.90846447,18.8021793 7.92198241,18.8533332 L8.67864907,21.6924999 C8.7279626,21.8741449 8.89292926,21.9999999 9.08114907,21.9999999 L14.9144824,21.9999999 C15.1023926,21.9997992 15.2669167,21.8738461 15.3161491,21.6924999 L16.0953157,18.8366666 C16.1089827,18.7860176 16.1414731,18.7424983 16.1861491,18.7149999 C18.5042084,17.2698066 19.9134484,14.7316628 19.9144824,11.9999999 Z M13.2219824,18.1324999 C10.5217352,18.6704757 7.78750599,17.3780532 6.48922813,14.9500442 C5.19095026,12.5220352 5.63447664,9.53043871 7.58136559,7.58354976 C9.52825454,5.63666081 12.519851,5.19313443 14.94786,6.49141229 C17.375869,7.78969016 18.6682916,10.5239193 18.1303157,13.2241666 C17.6341591,15.7009456 15.6985928,17.6371691 13.2219824,18.1341666 L13.2219824,18.1324999 Z" id="ðŸ–-Color" fill="#5A5A5A"></path>
        <rect id="_Transparent_Rectangle_" x="0" y="0" width="24" height="24"></rect>
    </g>
</svg>