<?xml version="1.0" encoding="UTF-8"?>
<svg width="24px" height="24px" viewBox="0 0 24 24" version="1.1" xmlns="http://www.w3.org/2000/svg" xmlns:xlink="http://www.w3.org/1999/xlink">
    <title>11. Computers and Devices/tablet</title>
    <g id="11.-Computers-and-Devices/tablet" stroke="none" stroke-width="1" fill="none" fill-rule="evenodd">
        <path d="M17.8333333,2 C18.9839266,2 19.9166667,2.9327401 19.9166667,4.08333333 L19.9166667,4.08333333 L19.9166667,19.9166667 C19.9166667,21.0672599 18.9839266,22 17.8333333,22 L17.8333333,22 L6.16666667,22 C5.61413231,22 5.08422833,21.7805066 4.69352754,21.3898058 C4.30282675,20.999105 4.08333333,20.469201 4.08333333,19.9166667 L4.08333333,19.9166667 L4.08333333,4.08333333 C4.08333333,2.9327401 5.01607344,2 6.16666667,2 L6.16666667,2 Z M17,4.91666667 L7,4.91666667 C6.53976271,4.91666667 6.16666667,5.28976271 6.16666667,5.75 L6.16666667,5.75 L6.16666667,17.4166667 C6.16666667,17.876904 6.53976271,18.25 7,18.25 L7,18.25 L17,18.25 C17.4602373,18.25 17.8333333,17.876904 17.8333333,17.4166667 L17.8333333,17.4166667 L17.8333333,5.75 C17.8333333,5.28976271 17.4602373,4.91666667 17,4.91666667 L17,4.91666667 Z M8.95833333,13.8758333 C9.3725469,13.8758333 9.70833333,14.2116198 9.70833333,14.6258333 L9.70833333,15.2091667 C9.70833333,15.6233802 9.3725469,15.9591667 8.95833333,15.9591667 L8.375,15.9591667 C7.96078644,15.9591667 7.625,15.6233802 7.625,15.2091667 L7.625,14.6258333 C7.625,14.2116198 7.96078644,13.8758333 8.375,13.8758333 L8.95833333,13.8758333 Z M12.2916667,13.8758333 C12.7058802,13.8758333 13.0416667,14.2116198 13.0416667,14.6258333 L13.0416667,15.2091667 C13.0416667,15.6233802 12.7058802,15.9591667 12.2916667,15.9591667 L11.7083333,15.9591667 C11.2941198,15.9591667 10.9583333,15.6233802 10.9583333,15.2091667 L10.9583333,14.6258333 C10.9583333,14.2116198 11.2941198,13.8758333 11.7083333,13.8758333 L12.2916667,13.8758333 Z M8.95833333,10.5425 C9.3725469,10.5425 9.70833333,10.8782864 9.70833333,11.2925 L9.70833333,11.8758333 C9.70833333,12.2900469 9.3725469,12.6258333 8.95833333,12.6258333 L8.375,12.6258333 C7.96078644,12.6258333 7.625,12.2900469 7.625,11.8758333 L7.625,11.2925 C7.625,10.8782864 7.96078644,10.5425 8.375,10.5425 L8.95833333,10.5425 Z M12.2916667,10.5425 C12.7058802,10.5425 13.0416667,10.8782864 13.0416667,11.2925 L13.0416667,11.8758333 C13.0416667,12.2900469 12.7058802,12.6258333 12.2916667,12.6258333 L11.7083333,12.6258333 C11.2941198,12.6258333 10.9583333,12.2900469 10.9583333,11.8758333 L10.9583333,11.2925 C10.9583333,10.8782864 11.2941198,10.5425 11.7083333,10.5425 L12.2916667,10.5425 Z M15.625,10.5425 C16.0392136,10.5425 16.375,10.8782864 16.375,11.2925 L16.375,11.8758333 C16.375,12.2900469 16.0392136,12.6258333 15.625,12.6258333 L15.0416667,12.6258333 C14.6274531,12.6258333 14.2916667,12.2900469 14.2916667,11.8758333 L14.2916667,11.2925 C14.2916667,10.8782864 14.6274531,10.5425 15.0416667,10.5425 L15.625,10.5425 Z M8.95833333,7.20916667 C9.3725469,7.20916667 9.70833333,7.5449531 9.70833333,7.95916667 L9.70833333,8.5425 C9.70833333,8.95671356 9.3725469,9.2925 8.95833333,9.2925 L8.375,9.2925 C7.96078644,9.2925 7.625,8.95671356 7.625,8.5425 L7.625,7.95916667 C7.625,7.5449531 7.96078644,7.20916667 8.375,7.20916667 L8.95833333,7.20916667 Z M12.2916667,7.20916667 C12.7058802,7.20916667 13.0416667,7.5449531 13.0416667,7.95916667 L13.0416667,8.5425 C13.0416667,8.95671356 12.7058802,9.2925 12.2916667,9.2925 L11.7083333,9.2925 C11.2941198,9.2925 10.9583333,8.95671356 10.9583333,8.5425 L10.9583333,7.95916667 C10.9583333,7.5449531 11.2941198,7.20916667 11.7083333,7.20916667 L12.2916667,7.20916667 Z M15.625,7.20916667 C16.0392136,7.20916667 16.375,7.5449531 16.375,7.95916667 L16.375,8.5425 C16.375,8.95671356 16.0392136,9.2925 15.625,9.2925 L15.0416667,9.2925 C14.6274531,9.2925 14.2916667,8.95671356 14.2916667,8.5425 L14.2916667,7.95916667 C14.2916667,7.5449531 14.6274531,7.20916667 15.0416667,7.20916667 L15.625,7.20916667 Z" id="ðŸ–-Color" fill="#5A5A5A"></path>
        <rect id="_Transparent_Rectangle_" x="0" y="0" width="24" height="24"></rect>
    </g>
</svg>