<?xml version="1.0" encoding="UTF-8"?>
<svg width="24px" height="24px" viewBox="0 0 24 24" version="1.1" xmlns="http://www.w3.org/2000/svg" xmlns:xlink="http://www.w3.org/1999/xlink">
    <title>11. Computers and Devices/touchpad</title>
    <g id="11.-Computers-and-Devices/touchpad" stroke="none" stroke-width="1" fill="none" fill-rule="evenodd">
        <path d="M16.099636,11.4697212 C17.2618769,11.4697212 18.2040593,12.4119036 18.2040593,13.5741445 L18.2040593,13.5741445 L18.2040593,16.2678063 C18.2043277,16.3635264 18.2689135,16.447108 18.3614702,16.4715144 L18.3614702,16.4715144 L20.6914876,17.0817972 C21.177082,17.1927568 21.5886122,17.5130556 21.8153936,17.9565464 C22.042175,18.4000372 22.0609239,18.9211868 21.8665976,19.3798274 L21.8665976,19.3798274 L21.1721379,21.5583264 C21.0653215,21.889406 20.7108024,22.0716847 20.379383,21.9659273 C20.0479636,21.8601699 19.8645524,21.5062355 19.9692496,21.1744796 L19.9692496,21.1744796 L20.719266,18.7661776 C20.7498031,18.5423765 20.5942879,18.3357741 20.3707735,18.3032045 L20.3707735,18.3032045 L17.4127962,17.5279349 C17.1352479,17.4552518 16.9416098,17.2045595 16.9414053,16.9176522 L16.9414053,16.9176522 L16.9414053,13.5783533 C16.9414053,13.1134569 16.5645324,12.736584 16.099636,12.736584 C15.6347397,12.736584 15.2578667,13.1134569 15.2578667,13.5783533 L15.2578667,13.5783533 L15.2578667,18.5557353 C15.257722,18.8319306 15.0780599,19.075969 14.8143718,19.1581424 C14.5506837,19.2403159 14.2641917,19.1415457 14.1071681,18.914329 C13.8574876,18.4264617 13.3529554,18.1221769 12.8049509,18.1289582 C12.7319771,18.1360845 12.6679731,18.1806789 12.6360104,18.2466664 C12.6040477,18.3126539 12.6087347,18.3905205 12.6483818,18.4521976 C13.0751589,19.1171954 14.3100345,21.0103346 14.3100345,21.0103346 C14.4987644,21.3002871 14.4189771,21.6881243 14.1311172,21.8800308 C13.8432574,22.0719374 13.4545663,21.9964191 13.2595064,21.7106867 L13.2595064,21.7106867 L11.5759677,19.1853787 C11.2281862,18.771629 11.1431987,18.1972301 11.3562659,17.7004976 C11.6081453,17.2067831 12.1071689,16.88773 12.6610084,16.8663042 C13.017901,16.8388066 13.3763581,16.893223 13.7090112,17.0253986 C13.7737004,17.050798 13.846773,17.0424815 13.9041004,17.0031954 C13.9614277,16.9639093 13.9955548,16.8987625 13.9952127,16.8292664 L13.9952127,16.8292664 L13.9952127,13.5741445 C13.9952127,12.4119036 14.9373951,11.4697212 16.099636,11.4697212 Z M19.6779974,7.47552577 C20.6077901,7.47552577 21.361536,8.22927169 21.361536,9.1590644 L21.361536,9.1590644 L21.361536,15.9193138 C21.361536,15.985355 21.3303855,16.04753 21.2776121,16.0872341 C21.2248387,16.1269382 21.1564877,16.1395658 21.0930116,16.1213384 C20.6409815,15.9933895 19.7655414,15.7576941 19.409473,15.6625741 C19.3175435,15.6381243 19.2536061,15.5548329 19.2537457,15.4597077 L19.2537457,15.4597077 L19.2537457,13.5808786 C19.2537457,11.8375173 17.8404721,10.4242437 16.0971107,10.4242437 C14.3537494,10.4242437 12.9404758,11.8375173 12.9404758,13.5808786 L12.9404758,13.5808786 L12.9404758,15.601125 C12.9405492,15.7144536 12.8508646,15.8074875 12.7376094,15.8115673 C12.6837361,15.8132508 12.6256541,15.8174597 12.5692555,15.8225103 C11.6368285,15.8737253 10.8059172,16.4276662 10.400016,17.26867 C10.2102221,17.6842461 10.1452982,18.1460248 10.2131432,18.5978237 C10.2222028,18.658363 10.2044535,18.7198467 10.1645232,18.7662435 C10.1245929,18.8126402 10.0664396,18.8394115 10.0052262,18.8394115 L10.0052262,18.8394115 L9.57676561,18.8394115 C8.64697289,18.8394115 7.89322698,18.0856656 7.89322698,17.1558729 L7.89322698,17.1558729 L7.89322698,9.1590644 C7.89322698,8.22927169 8.64697289,7.47552577 9.57676561,7.47552577 L9.57676561,7.47552577 Z M7.89238521,4.52933317 C8.35728156,4.52933317 8.73415452,4.90620613 8.73415452,5.37110248 C8.73415452,5.83599884 8.35728156,6.2128718 7.89238521,6.2128718 C6.96259249,6.2128718 6.20884658,6.96661772 6.20884658,7.89641043 C6.20884658,8.36130678 5.83197362,8.73817974 5.36707726,8.73817974 C4.9021809,8.73817974 4.52530795,8.36130678 4.52530795,7.89641043 C4.52530795,6.036825 6.03279978,4.52933317 7.89238521,4.52933317 Z M7.47150055,2.00402522 C7.9363969,2.00402522 8.31326986,2.38089818 8.31326986,2.84579454 C8.31326986,3.31069089 7.9363969,3.68756385 7.47150055,3.68756385 C5.37946695,3.68756385 3.68353863,5.38349217 3.68353863,7.47552577 C3.68353863,7.94042212 3.30666567,8.31729508 2.84176932,8.31729508 C2.37687296,8.31729508 2,7.94042212 2,7.47552577 C2.00371043,4.4552377 4.45121248,2.00773565 7.47150055,2.00402522 Z" id="ðŸ–-Color" fill="#5A5A5A"></path>
        <rect id="_Transparent_Rectangle_" x="0" y="0" width="24" height="24"></rect>
    </g>
</svg>