<?xml version="1.0" encoding="UTF-8"?>
<svg width="24px" height="24px" viewBox="0 0 24 24" version="1.1" xmlns="http://www.w3.org/2000/svg" xmlns:xlink="http://www.w3.org/1999/xlink">
    <title>11. Computers and Devices/usb_port_1</title>
    <g id="11.-Computers-and-Devices/usb_port_1" stroke="none" stroke-width="1" fill="none" fill-rule="evenodd">
        <path d="M19.3728002,7.15977934 C19.3728002,6.62296074 18.9197445,6.18765438 18.3605587,6.18719477 L16.0481029,6.18719477 C15.488917,6.18765438 15.0358611,6.62296074 15.0358613,7.15977934 L15.0358613,9.37973692 C15.0368175,9.91590515 15.4895937,10.3501978 16.0481029,10.3506561 L16.1539242,10.3506561 C16.2565811,10.350655 16.3399351,10.4303027 16.3404126,10.5288522 C16.0223391,11.1046549 15.5577661,11.5938977 14.9898898,11.9510906 L13.1813863,12.818756 C13.1143733,12.8509946 13.034769,12.8477232 12.970871,12.8101046 C12.9069731,12.772486 12.8678435,12.7058553 12.8673919,12.6338983 L12.8673919,5.56350827 C12.8673919,5.44853746 12.9644776,5.3553352 13.0842389,5.3553352 L15.0358613,5.3553352 C15.2115151,5.35563691 15.3700125,5.25419401 15.4372748,5.09841907 C15.5045371,4.94264412 15.4672799,4.76330282 15.3429166,4.64421601 L12.3070594,1.72979308 C12.2256947,1.65148528 12.1152169,1.60747576 12.0000041,1.60747576 C11.8847914,1.60747576 11.7743135,1.65148528 11.6929489,1.72979308 L8.65709164,4.64421601 C8.53334915,4.76338096 8.49648677,4.94233517 8.56367017,5.09774517 C8.63085357,5.25315518 8.78887427,5.35446687 8.96414691,5.35450251 L10.9157694,5.35450251 C11.0355307,5.35450251 11.1326164,5.44770477 11.1326164,5.56267558 L11.1326164,13.9229059 C11.1328838,13.9980972 11.090893,14.0675832 11.0227668,14.1046842 C10.9546406,14.1417851 10.8709681,14.1407341 10.8038764,14.1019348 L8.14273069,12.5647848 C7.84723825,12.423039 7.66126212,12.1324723 7.66306525,11.8153618 L7.66306525,11.5513983 C7.66329612,11.4732417 7.7087546,11.4016847 7.78102999,11.365708 C8.67398951,10.9284254 9.13835143,9.96056021 8.90411553,9.0248714 C8.66987964,8.08918259 7.79810426,7.42957631 6.79567747,7.42957631 C5.79325069,7.42957631 4.9214753,8.08918259 4.68723941,9.0248714 C4.45300351,9.96056021 4.91736543,10.9284254 5.81032496,11.365708 C5.88399778,11.4023662 5.92969483,11.4759116 5.92828969,11.5555618 L5.92828969,11.8195253 C5.91849687,12.7448472 6.45175566,13.5967734 7.30743626,14.022829 L11.0276624,16.1736731 C11.0928817,16.2111956 11.1327441,16.2788762 11.1326164,16.3518693 L11.1326164,16.6108366 C11.1328209,16.6947755 11.0804929,16.7706203 10.999906,16.8031885 C9.854636,17.2609023 9.20518883,18.4311 9.44829512,19.5989379 C9.69140141,20.7667758 10.7594528,21.6074758 12.0000041,21.6074758 C13.2405554,21.6074758 14.3086068,20.7667758 14.5517131,19.5989379 C14.7948194,18.4311 14.1453723,17.2609023 13.0001022,16.8031885 C12.9196699,16.7704416 12.867419,16.6947086 12.8673919,16.6108366 L12.8673919,14.9612732 C12.8676331,14.8824512 12.9138666,14.8104075 12.9870914,14.7747501 L15.7627323,13.4424425 C16.4670512,13.1035367 18.068249,11.668808 18.068249,10.5713196 L18.068249,10.5604946 C18.068249,10.4455237 18.1653347,10.3523215 18.285096,10.3523215 L18.3570891,10.3523215 C18.6262329,10.3529851 18.8845901,10.2508097 19.0751481,10.0683428 C19.265706,9.88587581 19.3728002,9.63811579 19.3728002,9.37973692 L19.3728002,7.15977934 Z" id="ðŸ–-Color" fill="#5A5A5A"></path>
        <rect id="_Transparent_Rectangle_" x="0" y="0" width="24" height="24"></rect>
    </g>
</svg>