<?xml version="1.0" encoding="UTF-8"?>
<svg width="24px" height="24px" viewBox="0 0 24 24" version="1.1" xmlns="http://www.w3.org/2000/svg" xmlns:xlink="http://www.w3.org/1999/xlink">
    <title>11. Computers and Devices/webcam</title>
    <g id="11.-Computers-and-Devices/webcam" stroke="none" stroke-width="1" fill="none" fill-rule="evenodd">
        <path d="M6.42133333,17.6986111 C6.55129594,17.6542942 6.69453707,17.6737223 6.808,17.7510556 C9.9594835,19.8222808 14.0405165,19.8222808 17.192,17.7510556 C17.3058135,17.674833 17.4484161,17.65535 17.5785046,17.6982497 C17.7085931,17.7411494 17.8116322,17.8416383 17.8577778,17.9706111 L17.8577778,17.9706111 L19.0853333,21.4070556 C19.1338904,21.5431688 19.1132373,21.6943921 19.0299604,21.8125004 C18.9466835,21.9306086 18.8111817,22.0008333 18.6666667,22.0008333 L18.6666667,22.0008333 L5.33333333,22.0008333 C5.18881831,22.0008333 5.05331649,21.9306086 4.97003959,21.8125004 C4.88676269,21.6943921 4.86610962,21.5431688 4.91466667,21.4070556 L4.91466667,21.4070556 L6.14222222,17.9706111 C6.18842687,17.8418124 6.29138528,17.7414771 6.42133333,17.6986111 Z M12,2.00083334 C16.418278,2.00083334 20,5.58255534 20,10.0008333 C20,14.4191113 16.418278,18.0008333 12,18.0008333 C7.58375273,17.9959346 4.00489878,14.4170806 4,10.0008333 C4,5.58255534 7.581722,2.00083334 12,2.00083334 Z M12,6.44527778 C10.0363209,6.44527778 8.44444444,8.03715422 8.44444444,10.0008333 C8.44444444,11.9645124 10.0363209,13.5563889 12,13.5563889 C13.9636791,13.5563889 15.5555556,11.9645124 15.5555556,10.0008333 C15.5555556,8.03715422 13.9636791,6.44527778 12,6.44527778 Z M12,3.33416667 C11.764252,3.33416667 11.5381596,3.42781719 11.3714606,3.5945162 C11.2047616,3.7612152 11.1111111,3.98730757 11.1111111,4.22305556 C11.1111111,4.71397533 11.5090802,5.11194445 12,5.11194445 C12.4909198,5.11194445 12.8888889,4.71397533 12.8888889,4.22305556 C12.8888889,3.73213578 12.4909198,3.33416667 12,3.33416667 Z" id="ðŸ–-Color" fill="#5A5A5A"></path>
        <rect id="_Transparent_Rectangle_" x="0" y="0" width="24" height="24"></rect>
    </g>
</svg>