<?xml version="1.0" encoding="UTF-8"?>
<svg width="45px" height="64px" viewBox="0 0 45 64" version="1.1" xmlns="http://www.w3.org/2000/svg" xmlns:xlink="http://www.w3.org/1999/xlink">
    <title>awards (1)</title>
    <g id="Page-2" stroke="none" stroke-width="1" fill="none" fill-rule="evenodd">
        <g id="Keşif-Servisi" transform="translate(-807.000000, -1683.000000)" fill="#FFB300">
            <g id="section3" transform="translate(-192.000000, 1650.000000)">
                <g id="awards-(1)" transform="translate(999.000000, 33.000000)">
                    <path d="M45,22.4 C45,30.01184 41.18625,36.73728 35.3571429,40.78496 L35.3571429,64 L27.0456429,64 L22.5,59.47456 L17.9543571,64 L9.64285714,64 L9.64285714,40.78496 C3.81381429,36.73728 0,30.01184 0,22.4 C0,10.028832 10.0736036,0 22.5,0 C34.9264286,0 45,10.028832 45,22.4 Z M38,22 C38,30.83648 30.83648,38 22,38 C13.163456,38 6,30.83648 6,22 C6,13.163456 13.163456,6 22,6 C30.83648,6 38,13.163456 38,22 Z M16,56.9996788 L22.5,50.575643 L29,57 L29,44 C26.940475,44.6057866 24.75875,44.931164 22.5,44.931164 C20.24125,44.931164 18.059525,44.6057866 16,44 L16,56.9996788 Z" id="Shape"></path>
                </g>
            </g>
        </g>
    </g>
</svg>