<svg width="24" height="24" viewBox="0 0 24 24" fill="none" xmlns="http://www.w3.org/2000/svg">
<g id="drawer_send">
<path id="Shape" fill-rule="evenodd" clip-rule="evenodd" d="M10.4158 12.285C10.379 12.482 10.2071 12.6248 10.0067 12.625C9.77816 12.6255 9.59191 12.4418 9.58917 12.2133C9.5875 12.0467 9.565 8.04667 12.0317 5.54667C13.2434 4.3434 14.8758 3.65873 16.5833 3.6375V2.625C16.5838 2.46626 16.6744 2.32157 16.817 2.25186C16.9596 2.18214 17.1295 2.19952 17.255 2.29667L21.005 5.21333C21.1064 5.29228 21.1657 5.41359 21.1657 5.54208C21.1657 5.67058 21.1064 5.79189 21.005 5.87083L17.255 8.7875C17.1293 8.88525 16.959 8.90285 16.816 8.83286C16.673 8.76288 16.5824 8.61753 16.5825 8.45833V7.46417C13.6474 7.41611 11.0776 9.42507 10.4158 12.285ZM19.4317 10.5633L21.9033 15.1467C21.9621 15.2704 21.995 15.4048 22 15.5417V20.5417C22 21.232 21.4404 21.7917 20.75 21.7917H3.25C2.55964 21.7917 2 21.232 2 20.5417V15.5417C2.0096 15.4046 2.04405 15.2705 2.10167 15.1458L4.55167 10.5625C4.82318 10.042 5.35958 9.71351 5.94667 9.70833H7.41667C7.8769 9.70833 8.25 10.0814 8.25 10.5417C8.25 11.0019 7.8769 11.375 7.41667 11.375H6.07C5.99264 11.3751 5.92173 11.4181 5.88583 11.4867L4.14917 14.82C4.11537 14.8845 4.11772 14.962 4.15537 15.0244C4.19302 15.0867 4.2605 15.1249 4.33333 15.125H7.41667C8.10702 15.125 8.66667 15.6846 8.66667 16.375C8.66667 17.0654 9.22631 17.625 9.91667 17.625H14.0833C14.7737 17.625 15.3333 17.0654 15.3333 16.375C15.3333 15.6846 15.893 15.125 16.5833 15.125H19.6483C19.7218 15.125 19.7898 15.0864 19.8274 15.0234C19.865 14.9603 19.8666 14.8821 19.8317 14.8175L18.0242 11.4842C17.9877 11.4169 17.9174 11.375 17.8408 11.375H16.1667C15.7064 11.375 15.3333 11.0019 15.3333 10.5417C15.3333 10.0814 15.7064 9.70833 16.1667 9.70833H18.0333C18.6215 9.71355 19.159 10.0422 19.4317 10.5633Z" fill="#5A5A5A"/>
</g>
</svg>
