<svg width="24" height="24" viewBox="0 0 24 24" fill="none" xmlns="http://www.w3.org/2000/svg">
<g id="email_action_reply_all_1">
<path id="Shape" fill-rule="evenodd" clip-rule="evenodd" d="M11.3942 9.6975C11.037 10.0507 10.4622 10.0507 10.105 9.6975L3.04085 2.63917C2.94539 2.54013 2.91323 2.39607 2.95751 2.26583C2.99892 2.13325 3.1126 2.03608 3.25001 2.01583C3.31872 2.00562 3.38806 2.00033 3.45751 2H18.0408C18.1109 2.00025 18.1808 2.00554 18.25 2.01583C18.3868 2.0354 18.5008 2.13052 18.5446 2.26159C18.5883 2.39266 18.5543 2.5372 18.4567 2.635L11.3942 9.6975ZM12.8333 13.25C12.8332 12.7828 12.5725 12.3546 12.1575 12.14C11.7438 11.9273 11.2461 11.962 10.8658 12.23L8.83335 13.6667H3.45835C3.07151 13.6669 2.70044 13.5133 2.42691 13.2398C2.15337 12.9662 1.99979 12.5952 2.00001 12.2083V3.45833C1.9992 3.40342 2.03235 3.3537 2.08335 3.33333C2.13283 3.31346 2.18944 3.32604 2.22585 3.365L9.33335 10.4708C10.1163 11.2519 11.3837 11.2519 12.1667 10.4708L19.2742 3.365C19.3121 3.32741 19.3688 3.31621 19.4181 3.33659C19.4674 3.35698 19.4997 3.40496 19.5 3.45833V12.2083C19.5002 12.5952 19.3467 12.9662 19.0731 13.2398C18.7996 13.5133 18.4285 13.6669 18.0417 13.6667H16.1667V13.25C16.1664 12.7702 15.8916 12.3329 15.4594 12.1246C15.0271 11.9162 14.5138 11.9737 14.1383 12.2725L12.8333 13.3108V13.25ZM10.7425 16.8267C10.4712 16.5801 10.3218 16.2269 10.3338 15.8606C10.3459 15.4942 10.5181 15.1515 10.805 14.9233L12 13.9733V13.25C12 13.0942 11.9131 12.9515 11.7747 12.8799C11.6364 12.8084 11.4696 12.82 11.3425 12.91L7.59251 15.5617C7.48506 15.637 7.41939 15.7586 7.4153 15.8898C7.4112 16.021 7.46914 16.1464 7.57168 16.2283L11.3217 19.2592C11.4469 19.3602 11.6191 19.3801 11.7641 19.3103C11.9091 19.2405 12.0009 19.0934 12 18.9325V17.97L10.7425 16.8267ZM15.3333 13.25V14.3575C21.9217 14.6367 22 21.5133 22 21.5833C22.0008 21.8004 21.8347 21.9818 21.6183 22H21.5833C21.3799 22 21.2063 21.8531 21.1725 21.6525C21.1442 21.485 20.4358 17.6608 15.3333 17.4633V18.9325C15.3333 19.0973 15.236 19.2466 15.0853 19.3133C14.9346 19.38 14.7587 19.3516 14.6367 19.2408L11.3033 16.21C11.213 16.1278 11.1633 16.0102 11.1673 15.8881C11.1713 15.7661 11.2286 15.6519 11.3242 15.5758L14.6575 12.9242C14.7827 12.8248 14.9537 12.8057 15.0976 12.8751C15.2416 12.9445 15.3332 13.0902 15.3333 13.25Z" fill="#5A5A5A"/>
</g>
</svg>
