<svg width="24" height="24" viewBox="0 0 24 24" fill="none" xmlns="http://www.w3.org/2000/svg">
<g id="email_action_send_2">
<path id="Shape" fill-rule="evenodd" clip-rule="evenodd" d="M10.4574 10.0313C10.8289 10.4027 11.4311 10.4027 11.8026 10.0313L19.1721 2.66176C19.2742 2.55991 19.3097 2.40911 19.2641 2.27239C19.2184 2.13567 19.0992 2.03658 18.9565 2.01654C18.8843 2.00538 18.8113 1.99986 18.7382 2.00002H3.52087C3.44838 1.99995 3.37599 2.00547 3.30435 2.01654C3.16199 2.03722 3.04351 2.13651 2.99826 2.27306C2.95375 2.40966 2.98932 2.55969 3.09043 2.66176L10.4574 10.0313ZM17 10.6957C18.1507 10.6965 19.279 11.0146 20.2608 11.6148V3.52176C20.2608 3.46533 20.2264 3.41464 20.1739 3.39393C20.1223 3.37278 20.0632 3.38441 20.0234 3.42349L12.6087 10.8383C11.7917 11.6533 10.4691 11.6533 9.65216 10.8383L2.23565 3.42349C2.19601 3.38416 2.1366 3.37253 2.08505 3.39402C2.0335 3.41551 1.99995 3.46591 2 3.52176V12.6522C1.99977 13.0558 2.16002 13.443 2.44545 13.7285C2.73088 14.0139 3.11808 14.1741 3.52174 14.1739H11.3722C12.4408 12.0448 14.6177 10.6993 17 10.6957ZM17 12C14.2386 12 12 14.2386 12 17C12 19.7614 14.2386 22 17 22C19.7614 22 22 19.7614 22 17C22.0034 15.6728 21.4778 14.399 20.5393 13.4606C19.6009 12.5222 18.3271 11.9965 17 12ZM19.88 17.34L17.7061 19.0791C17.5755 19.1834 17.3967 19.2036 17.2461 19.1311C17.0956 19.0586 16.9999 18.9062 17 18.7391V17.6521H14.3913C14.0311 17.6521 13.7391 17.3602 13.7391 17C13.7391 16.6398 14.0311 16.3478 14.3913 16.3478H17V15.2608C16.9999 15.0937 17.0956 14.9414 17.2461 14.8689C17.3967 14.7964 17.5755 14.8166 17.7061 14.9208L19.88 16.66C19.9835 16.7425 20.0438 16.8676 20.0438 17C20.0438 17.1323 19.9835 17.2575 19.88 17.34Z" fill="#5A5A5A"/>
</g>
</svg>
