<svg width="24" height="24" viewBox="0 0 24 24" fill="none" xmlns="http://www.w3.org/2000/svg">
<g id="email_action_clock">
<path id="Shape" fill-rule="evenodd" clip-rule="evenodd" d="M11.3942 9.69666C11.0382 10.0526 10.461 10.0526 10.105 9.69666L3.04083 2.63833C2.94535 2.53965 2.91317 2.3958 2.9575 2.26583C2.9989 2.13324 3.11258 2.03608 3.25 2.01583C3.31866 2.00522 3.38803 1.99993 3.4575 2H18.0408C18.1109 1.99984 18.1808 2.00514 18.25 2.01583C18.3868 2.03504 18.501 2.13 18.5447 2.26102C18.5885 2.39204 18.5544 2.53656 18.4567 2.63416L11.3942 9.69666ZM19.2092 10.4642C18.3807 10.1036 17.4869 9.91722 16.5833 9.91666C14.0814 9.92041 11.7921 11.3247 10.655 13.5533C10.619 13.6228 10.5474 13.6664 10.4692 13.6667H3.45833C3.07149 13.6669 2.70043 13.5133 2.42689 13.2398C2.15335 12.9662 1.99978 12.5952 2 12.2083V3.45833C1.99995 3.40481 2.03211 3.35652 2.08151 3.33592C2.13091 3.31532 2.18785 3.32646 2.22583 3.36416L9.33333 10.47C10.1163 11.2511 11.3837 11.2511 12.1667 10.47L19.2725 3.36416C19.3105 3.32671 19.3673 3.31556 19.4167 3.33583C19.467 3.35568 19.5 3.40426 19.5 3.45833V10.2725C19.4997 10.3425 19.4644 10.4077 19.4059 10.4463C19.3475 10.4848 19.2736 10.4915 19.2092 10.4642ZM11.1667 16.5833C11.1667 13.5918 13.5918 11.1667 16.5833 11.1667C19.5734 11.1703 21.9963 13.5933 22 16.5833C22 19.5749 19.5749 22 16.5833 22C13.5918 22 11.1667 19.5749 11.1667 16.5833ZM13.1188 18.0184C13.6992 19.4197 15.0666 20.3333 16.5833 20.3333C18.6535 20.331 20.331 18.6534 20.3333 16.5833C20.3333 15.0666 19.4197 13.6992 18.0184 13.1188C16.6171 12.5384 15.0042 12.8592 13.9317 13.9317C12.8592 15.0042 12.5384 16.6171 13.1188 18.0184ZM17.4167 15.9583H18.25C18.5952 15.9583 18.875 16.2382 18.875 16.5833C18.875 16.9285 18.5952 17.2083 18.25 17.2083H16.5833C16.2382 17.2083 15.9583 16.9285 15.9583 16.5833V14.5C15.9583 14.1548 16.2382 13.875 16.5833 13.875C16.9285 13.875 17.2083 14.1548 17.2083 14.5V15.75C17.2083 15.8651 17.3016 15.9583 17.4167 15.9583Z" fill="#5A5A5A"/>
</g>
</svg>
