<svg width="24" height="24" viewBox="0 0 24 24" fill="none" xmlns="http://www.w3.org/2000/svg">
<g id="email_action_reply_all">
<path id="Shape" fill-rule="evenodd" clip-rule="evenodd" d="M9.70743 6.80834L3.90742 11.5833L9.55909 16.2408C9.90765 16.5351 9.95479 17.055 9.66486 17.4072C9.37494 17.7594 8.85572 17.813 8.49993 17.5275L2.45742 12.55C2.16903 12.3126 2.00195 11.9586 2.00195 11.585C2.00195 11.2114 2.16903 10.8575 2.45742 10.62L8.64826 5.52167C9.00405 5.23617 9.52327 5.28979 9.8132 5.64199C10.1031 5.99419 10.056 6.51404 9.70743 6.80834ZM13.8641 8.67917C15.9001 8.77866 17.8389 9.58019 19.3508 10.9475C21.1083 12.6192 21.9999 15.0758 21.9999 18.25C22.0035 18.4449 21.8714 18.6163 21.682 18.6624C21.4925 18.7086 21.2964 18.6172 21.2099 18.4425C18.6941 13.5433 15.0491 14.0117 13.8216 14.3383C13.7303 14.3622 13.6666 14.4448 13.6666 14.5392V16.555C13.6666 16.8724 13.4819 17.1608 13.1937 17.2936C12.9054 17.4265 12.5662 17.3795 12.3249 17.1733L6.53159 12.2183C6.34645 12.06 6.23986 11.8286 6.23986 11.585C6.23986 11.3414 6.34645 11.11 6.53159 10.9517L12.3083 6.01334C12.5524 5.80463 12.8956 5.75695 13.1874 5.89121C13.4792 6.02546 13.6663 6.31715 13.6666 6.63834V8.47167C13.6669 8.58231 13.7536 8.67342 13.8641 8.67917Z" fill="#5A5A5A"/>
</g>
</svg>
