<svg width="24" height="24" viewBox="0 0 24 24" fill="none" xmlns="http://www.w3.org/2000/svg">
<g id="email_action_warning">
<path id="Shape" fill-rule="evenodd" clip-rule="evenodd" d="M10.105 9.69667C10.461 10.0526 11.0382 10.0526 11.3942 9.69667L18.4567 2.63417C18.555 2.53714 18.5893 2.39251 18.545 2.26167C18.4658 2.0225 18.2417 2 18.0417 2H3.45834C3.2575 2 3.0325 2.0225 2.95834 2.26167C2.91528 2.39256 2.94942 2.53654 3.04667 2.63417L10.105 9.69667ZM16.5833 10.3333C17.4951 10.3316 18.3324 10.8363 18.7567 11.6433L19.1058 12.31C19.1495 12.3961 19.2466 12.441 19.3405 12.4184C19.4344 12.3957 19.5004 12.3116 19.5 12.215V3.45833C19.5 3.40426 19.467 3.35568 19.4167 3.33583C19.367 3.31565 19.3101 3.32677 19.2717 3.36417L12.1667 10.47C11.3837 11.2511 10.1163 11.2511 9.33334 10.47L2.22667 3.36417C2.18876 3.32587 2.13143 3.31434 2.08167 3.33502C2.0319 3.35569 1.99961 3.40445 2 3.45833V12.2083C1.99978 12.5953 2.15347 12.9665 2.42719 13.2401C2.70091 13.5136 3.07218 13.6671 3.45917 13.6667H13.2225C13.2999 13.6665 13.3708 13.6235 13.4067 13.555L14.4067 11.645C14.8312 10.8364 15.6701 10.3308 16.5833 10.3333ZM16.5842 11.5836C17.0314 11.5836 17.4421 11.8307 17.6517 12.2258L21.8642 20.2542C22.0574 20.6252 22.0425 21.0702 21.825 21.4275C21.6036 21.7826 21.2151 21.9988 20.7967 22H12.3708C11.9531 21.9988 11.5652 21.7828 11.3442 21.4283C11.1259 21.071 11.1107 20.6255 11.3042 20.2542L15.5167 12.2258C15.7262 11.8307 16.1369 11.5836 16.5842 11.5836ZM17.2083 15.3333C17.2083 14.9882 16.9285 14.7083 16.5833 14.7083C16.2382 14.7083 15.9583 14.9882 15.9583 15.3333V17.8333C15.9583 18.1785 16.2382 18.4583 16.5833 18.4583C16.9285 18.4583 17.2083 18.1785 17.2083 17.8333V15.3333ZM16.5833 20.5417C16.1231 20.5417 15.75 20.1686 15.75 19.7083C15.75 19.2481 16.1231 18.875 16.5833 18.875C17.0436 18.875 17.4167 19.2481 17.4167 19.7083C17.4167 20.1686 17.0436 20.5417 16.5833 20.5417Z" fill="#5A5A5A"/>
</g>
</svg>
