<?xml version="1.0" encoding="UTF-8"?>
<svg width="24px" height="24px" viewBox="0 0 24 24" version="1.1" xmlns="http://www.w3.org/2000/svg" xmlns:xlink="http://www.w3.org/1999/xlink">
    <title>12. Emails/email_action_sync_1</title>
    <g id="12.-Emails/email_action_sync_1" stroke="none" stroke-width="1" fill="none" fill-rule="evenodd">
        <path d="M15.2975,16.6883333 C15.4658913,16.6883333 15.6177079,16.7897587 15.6822537,16.9452883 C15.7467994,17.100818 15.7113842,17.27991 15.5925,17.3991667 L15.5925,17.3991667 L14.1575,18.8341667 C14.078886,18.9128544 14.0759511,19.0394196 14.1508333,19.1216667 C14.9600178,20.0226239 16.1864123,20.426699 17.3726729,20.1832052 C18.5589336,19.9397115 19.5269886,19.0852 19.9158333,17.9383333 C20.0649502,17.5027188 20.5389687,17.2704665 20.9745833,17.4195834 C21.4101979,17.5687002 21.6424502,18.0427187 21.4933333,18.4783333 C20.9203318,20.1672702 19.5023205,21.4311048 17.7588451,21.8067803 C16.0153697,22.1824557 14.2027072,21.6147506 12.985,20.3116667 C12.9456452,20.2714021 12.8917197,20.2487037 12.8354167,20.2487037 C12.7791136,20.2487037 12.7251881,20.2714021 12.6858333,20.3116667 L12.6858333,20.3116667 L11.8783333,21.1191667 C11.7627632,21.2310247 11.5931327,21.2663779 11.4425,21.21 L11.4425,21.21 L11.4241667,21.21 C11.2823033,21.1295829 11.1868196,20.9868209 11.1666667,20.825 L11.1666667,20.825 L11.1666667,17.105 C11.1666667,16.8748814 11.3532147,16.6883333 11.5833333,16.6883333 L11.5833333,16.6883333 Z M15.3625106,11.2118522 C17.1010598,10.8322689 18.9115252,11.3894363 20.1358333,12.6808333 C20.1751578,12.7208385 20.2289034,12.7433712 20.285,12.7433712 C20.3410966,12.7433712 20.3948422,12.7208385 20.4341667,12.6808333 L20.4341667,12.6808333 L21.2883333,11.8258333 C21.4180249,11.7280294 21.5853114,11.6948791 21.7425,11.7358333 C21.8983262,11.8002437 22,11.9522198 22,12.1208333 L22,12.1208333 L22,15.8383333 C22,16.068452 21.813452,16.2550007 21.5833333,16.2550007 L21.5833333,16.2550007 L17.8691667,16.2550007 C17.7004093,16.2553019 17.5481346,16.1537809 17.4835131,15.9978861 C17.4188915,15.8419912 17.454686,15.6625118 17.5741667,15.5433333 L17.5741667,15.5433333 L18.9575,14.16 C19.0368304,14.0811664 19.0394103,13.9536444 18.9633333,13.8716667 C18.1501005,12.9796268 16.9258631,12.5839964 15.744396,12.8314196 C14.5629289,13.0788428 13.6003064,13.932446 13.2133333,15.0758333 C13.1170205,15.3576266 12.8776888,15.566632 12.5854923,15.6241192 C12.2932958,15.6816065 11.992626,15.5788419 11.7967423,15.3545359 C11.6008586,15.1302299 11.5395205,14.8184599 11.6358333,14.5366667 C12.2104764,12.8524986 13.6239615,11.5914354 15.3625106,11.2118522 Z M19.3804448,3.40134299 L19.4184936,3.41092088 C19.467892,3.43151871 19.4999998,3.47981264 19.4999998,3.53333333 L19.4999998,3.53333333 L19.4999998,10.1191667 C19.4999998,10.1888236 19.4652771,10.253895 19.4073448,10.2925724 C19.3494125,10.3312497 19.2759832,10.3384149 19.2116667,10.3116667 C18.3791915,9.96322651 17.4857885,9.78363947 16.5833333,9.78333333 C13.9648011,9.78447415 11.5747411,11.2744237 10.4208333,13.625 C10.3854767,13.6962645 10.3128862,13.7414319 10.2333333,13.7416669 L10.2333333,13.7416669 L3.45833333,13.7416669 C3.0714915,13.7418879 2.70043015,13.5883136 2.42689163,13.314775 C2.1533531,13.0412365 1.99977876,12.6701752 1.99999976,12.2833333 L1.99999976,12.2833333 L1.99999976,3.53333333 C2.00022033,3.47933387 2.03318855,3.43087059 2.08333333,3.41083333 C2.13219441,3.39061219 2.18842399,3.40179234 2.22583333,3.43916667 L2.22583333,3.43916667 L9.33333333,10.545 C10.116276,11.3261004 11.383724,11.3261004 12.1666667,10.545 L12.1666667,10.545 L19.2741667,3.43916667 C19.3121557,3.40146652 19.3690953,3.39032304 19.4184936,3.41092088 Z M18.0408333,2.07499994 C18.110825,2.07499994 18.1807275,2.07999279 18.25,2.09 C18.3867854,2.10956347 18.5007968,2.20469136 18.5445452,2.33576025 C18.5882937,2.46682914 18.554278,2.6113658 18.4566667,2.70916667 L18.4566667,2.70916667 L11.3941667,9.77166667 C11.0370246,10.1248766 10.4621421,10.1248766 10.105,9.77166667 L10.105,9.77166667 L3.04166667,2.70916667 C2.94462843,2.6108952 2.91120294,2.46635226 2.95524617,2.33545576 C2.99928941,2.20455926 3.11329353,2.10962251 3.25,2.09 C3.31872198,2.08007217 3.38806464,2.07499994 3.4575,2.07499994 L3.4575,2.07499994 Z" id="ðŸ–-Color" fill="#5A5A5A"></path>
        <rect id="_Transparent_Rectangle_" x="0" y="0" width="24" height="24"></rect>
    </g>
</svg>