<?xml version="1.0" encoding="UTF-8"?>
<svg width="24px" height="24px" viewBox="0 0 24 24" version="1.1" xmlns="http://www.w3.org/2000/svg" xmlns:xlink="http://www.w3.org/1999/xlink">
    <title>12. Emails/email_action_reply</title>
    <g id="12.-Emails/email_action_reply" stroke="none" stroke-width="1" fill="none" fill-rule="evenodd">
        <path d="M18.92545,10.7990062 C16.1881793,8.37173528 12.4481821,8.20537177 10.8718196,8.25991718 C10.8100671,8.26239993 10.7499844,8.23952585 10.7055177,8.19660432 C10.661051,8.15368279 10.6360672,8.09444638 10.6363653,8.03264463 L10.6363653,5.69446455 C10.6354125,5.34177717 10.4305543,5.02146714 10.1107848,4.8726828 C9.79101536,4.72389847 9.41404608,4.77349221 9.14363912,4.99991962 L2.33091693,10.787188 C2.12130489,10.9599432 1.99999316,11.2173781 1.99999316,11.4890057 C1.99847297,11.755271 2.1153955,12.0084366 2.31909876,12.1799143 L9.14909366,18.2135461 C9.42077872,18.4374603 9.79732406,18.4843742 10.1156457,18.3339692 C10.4339673,18.1835641 10.6368271,17.8628848 10.6363653,17.5108194 L10.6363653,14.7517305 C10.636422,14.6439304 10.7124911,14.5511262 10.8181833,14.5299125 C12.5527275,14.1662764 18.2136323,13.477186 21.1454483,18.9753637 C21.2441134,19.1581752 21.4541621,19.2508343 21.655697,19.2004506 C21.8572319,19.1500669 21.9989647,18.9694624 21.9999932,18.7617275 C21.9999932,15.2880938 20.9654485,12.6099139 18.92545,10.7990062 Z" id="ðŸ–-Color" fill="#5A5A5A"></path>
        <rect id="_Transparent_Rectangle_" x="0" y="0" width="24" height="24"></rect>
    </g>
</svg>