<svg width="24" height="24" viewBox="0 0 24 24" fill="none" xmlns="http://www.w3.org/2000/svg">
<g id="email_action_lock">
<path id="Shape" fill-rule="evenodd" clip-rule="evenodd" d="M10.105 9.69666C10.461 10.0526 11.0382 10.0526 11.3942 9.69666L18.4567 2.63416C18.5544 2.53656 18.5885 2.39204 18.5447 2.26102C18.501 2.13 18.3868 2.03504 18.25 2.01583C18.1808 2.00514 18.1109 1.99984 18.0408 2H3.4575C3.38803 1.99993 3.31866 2.00522 3.25 2.01583C3.11252 2.03635 2.99872 2.13335 2.95667 2.26583C2.91484 2.39489 2.94752 2.53649 3.04167 2.63416L10.105 9.69666ZM17.8333 9.70833C18.3066 9.70849 18.7763 9.79053 19.2217 9.95083C19.2855 9.97362 19.3565 9.96389 19.4119 9.92475C19.4673 9.88562 19.5001 9.82198 19.5 9.75416V3.45833C19.5 3.40426 19.467 3.35568 19.4167 3.33583C19.3673 3.31556 19.3105 3.32671 19.2725 3.36416L12.1667 10.47C11.3837 11.2511 10.1163 11.2511 9.33333 10.47L2.22583 3.36416C2.18785 3.32646 2.13091 3.31532 2.08151 3.33592C2.03211 3.35652 1.99995 3.40481 2 3.45833V12.2083C1.99978 12.5952 2.15335 12.9662 2.42689 13.2398C2.70043 13.5133 3.07149 13.6669 3.45833 13.6667H13.4942C13.6015 13.6667 13.6914 13.5852 13.7017 13.4783C13.9025 11.3452 15.6908 9.71349 17.8333 9.70833ZM20.75 13.875V14.9167C21.4404 14.9167 22 15.4763 22 16.1667V20.75C22 21.4404 21.4404 22 20.75 22H14.9167C14.2263 22 13.6667 21.4404 13.6667 20.75V16.1667C13.6667 15.4763 14.2263 14.9167 14.9167 14.9167V13.875C14.9167 12.2642 16.2225 10.9583 17.8333 10.9583C19.4442 10.9583 20.75 12.2642 20.75 13.875ZM19.0833 13.875C19.0833 13.1846 18.5237 12.625 17.8333 12.625C17.143 12.625 16.5833 13.1846 16.5833 13.875V14.9167H19.0833V13.875ZM18.6667 18.875C18.6667 19.3352 18.2936 19.7083 17.8333 19.7083C17.3731 19.7083 17 19.3352 17 18.875C17 18.4148 17.3731 18.0417 17.8333 18.0417C18.2936 18.0417 18.6667 18.4148 18.6667 18.875Z" fill="#5A5A5A"/>
</g>
</svg>
