<svg width="24" height="24" viewBox="0 0 24 24" fill="none" xmlns="http://www.w3.org/2000/svg">
<g id="email_action_sync_1">
<path id="Shape" fill-rule="evenodd" clip-rule="evenodd" d="M11.3942 9.77166C11.037 10.1249 10.4621 10.1249 10.105 9.77166L3.04167 2.70916C2.94463 2.61089 2.9112 2.46635 2.95525 2.33545C2.99929 2.20456 3.11329 2.10962 3.25 2.09C3.31872 2.08007 3.38807 2.07506 3.4575 2.075H18.0408C18.1108 2.07498 18.1807 2.07999 18.25 2.09C18.3868 2.10956 18.5008 2.20469 18.5445 2.33576C18.5883 2.46683 18.5543 2.61136 18.4567 2.70916L11.3942 9.77166ZM19.2117 10.3117C18.3792 9.96322 17.4858 9.78364 16.5833 9.78333C13.9648 9.78447 11.5747 11.2744 10.4208 13.625C10.3855 13.6963 10.3129 13.7414 10.2333 13.7417H3.45833C3.07149 13.7419 2.70043 13.5883 2.42689 13.3148C2.15335 13.0412 1.99978 12.6702 2 12.2833V3.53333C2.00022 3.47933 2.03319 3.43087 2.08333 3.41083C2.1322 3.39061 2.18842 3.40179 2.22583 3.43916L9.33333 10.545C10.1163 11.3261 11.3837 11.3261 12.1667 10.545L19.2742 3.43916C19.3122 3.40146 19.3691 3.39032 19.4185 3.41092C19.4679 3.43152 19.5 3.47981 19.5 3.53333V10.1192C19.5 10.1888 19.4653 10.2539 19.4073 10.2926C19.3494 10.3312 19.276 10.3384 19.2117 10.3117ZM11.8783 21.1192L12.6858 20.3117C12.7252 20.2714 12.7791 20.2487 12.8354 20.2487C12.8917 20.2487 12.9456 20.2714 12.985 20.3117C14.2027 21.6147 16.0154 22.1825 17.7588 21.8068C19.5023 21.4311 20.9203 20.1673 21.4933 18.4783C21.6425 18.0427 21.4102 17.5687 20.9746 17.4196C20.539 17.2705 20.065 17.5027 19.9158 17.9383C19.527 19.0852 18.5589 19.9397 17.3727 20.1832C16.1864 20.4267 14.96 20.0226 14.1508 19.1217C14.076 19.0394 14.0789 18.9129 14.1575 18.8342L15.5925 17.3992C15.7114 17.2799 15.7468 17.1008 15.6823 16.9453C15.6177 16.7898 15.4659 16.6884 15.2975 16.6883H11.5833C11.3532 16.6883 11.1667 16.8749 11.1667 17.105V20.825C11.1868 20.9868 11.2823 21.1296 11.4242 21.21H11.4425C11.5931 21.2664 11.7628 21.231 11.8783 21.1192ZM20.285 12.7434C20.3411 12.7434 20.3948 12.7208 20.4342 12.6808L21.2883 11.8258C21.418 11.728 21.5853 11.6949 21.7425 11.7358C21.8983 11.8002 22 11.9522 22 12.1208V15.8383C22 16.0684 21.8135 16.255 21.5833 16.255H17.8692C17.7004 16.2553 17.5481 16.1538 17.4835 15.9979C17.4189 15.842 17.4547 15.6625 17.5742 15.5433L18.9575 14.16C19.0368 14.0812 19.0394 13.9536 18.9633 13.8717C18.1501 12.9796 16.9259 12.584 15.7444 12.8314C14.5629 13.0788 13.6003 13.9324 13.2133 15.0758C13.117 15.3576 12.8777 15.5666 12.5855 15.6241C12.2933 15.6816 11.9926 15.5788 11.7967 15.3545C11.6009 15.1302 11.5395 14.8185 11.6358 14.5367C12.2105 12.8525 13.624 11.5914 15.3625 11.2118C17.1011 10.8323 18.9115 11.3894 20.1358 12.6808C20.1752 12.7208 20.2289 12.7434 20.285 12.7434Z" fill="#5A5A5A"/>
</g>
</svg>
