<?xml version="1.0" encoding="UTF-8"?>
<svg width="24px" height="24px" viewBox="0 0 24 24" version="1.1" xmlns="http://www.w3.org/2000/svg" xmlns:xlink="http://www.w3.org/1999/xlink">
    <title>12. Emails/email_action_warning</title>
    <g id="12.-Emails/email_action_warning" stroke="none" stroke-width="1" fill="none" fill-rule="evenodd">
        <path d="M16.5841667,11.5836388 C17.0314304,11.5836388 17.4421108,11.8306989 17.6516667,12.2258333 L17.6516667,12.2258333 L21.8641667,20.2541667 C22.057369,20.6251763 22.0425138,21.0702004 21.825,21.4275 C21.6035823,21.7825811 21.2151247,21.9988456 20.7966667,22 L20.7966667,22 L12.3708333,22 C11.95305,21.9987693 11.565244,21.7828319 11.3441667,21.4283333 C11.1259135,21.0710212 11.1107361,20.6255035 11.3041667,20.2541667 L11.3041667,20.2541667 L15.5166667,12.2258333 C15.7262226,11.8306989 16.1369029,11.5836388 16.5841667,11.5836388 Z M16.5833333,18.875 C16.123096,18.875 15.75,19.248096 15.75,19.7083333 C15.75,20.1685706 16.123096,20.5416667 16.5833333,20.5416667 C17.0435706,20.5416667 17.4166667,20.1685706 17.4166667,19.7083333 C17.4166667,19.248096 17.0435706,18.875 16.5833333,18.875 Z M16.5833333,14.7083333 C16.2381554,14.7083333 15.9583333,14.9881554 15.9583333,15.3333333 L15.9583333,15.3333333 L15.9583333,17.8333333 C15.9583333,18.1785113 16.2381554,18.4583333 16.5833333,18.4583333 C16.9285113,18.4583333 17.2083333,18.1785113 17.2083333,17.8333333 L17.2083333,17.8333333 L17.2083333,15.3333333 C17.2083333,14.9881554 16.9285113,14.7083333 16.5833333,14.7083333 Z M19.3655354,3.32589533 L19.4166667,3.33583333 C19.4669625,3.3556821 19.4999965,3.40426256 19.4999965,3.45833333 L19.4999965,3.45833333 L19.4999965,12.215 C19.5003844,12.311565 19.4343597,12.3957373 19.340482,12.4183632 C19.2466043,12.4409891 19.149483,12.3961375 19.1058333,12.31 L19.1058333,12.31 L18.7566667,11.6433333 L18.6664096,11.4860148 C18.2204441,10.7712389 17.4343147,10.331696 16.5833333,10.3333333 C15.6700609,10.3308494 14.8311611,10.8363733 14.4066667,11.645 L14.4066667,11.645 L13.4066667,13.555 C13.3707717,13.6235285 13.2998601,13.6665246 13.2225,13.6666676 L13.2225,13.6666676 L3.45916667,13.6666676 C3.07218051,13.6671093 2.70090491,13.5136326 2.42718605,13.2400701 C2.15346718,12.9665075 1.99977849,12.5953197 1.99999653,12.2083333 L1.99999653,12.2083333 L1.99999653,3.45833333 C1.99961121,3.40444589 2.03189764,3.35569103 2.08166281,3.33501653 C2.13142798,3.31434203 2.1887571,3.3258669 2.22666667,3.36416667 L2.22666667,3.36416667 L9.33333333,10.47 C10.116276,11.2511004 11.383724,11.2511004 12.1666667,10.47 L12.1666667,10.47 L19.2716667,3.36416667 C19.310085,3.32676587 19.3669954,3.31564545 19.4166667,3.33583333 Z M18.0416667,2 C18.2416667,2 18.4658333,2.0225 18.545,2.26166667 C18.5892801,2.39250567 18.5549815,2.5371421 18.4566667,2.63416667 L18.4566667,2.63416667 L11.3941667,9.69666667 C11.038153,10.0526115 10.4610137,10.0526115 10.105,9.69666667 L10.105,9.69666667 L3.04666667,2.63416667 C2.9494196,2.53654444 2.9152757,2.39256025 2.95833333,2.26166667 C3.0325,2.0225 3.2575,2 3.45833333,2 L3.45833333,2 Z" id="ðŸ–-Color" fill="#5A5A5A"></path>
        <rect id="_Transparent_Rectangle_" x="0" y="0" width="24" height="24"></rect>
    </g>
</svg>