<?xml version="1.0" encoding="UTF-8"?>
<svg width="24px" height="24px" viewBox="0 0 24 24" version="1.1" xmlns="http://www.w3.org/2000/svg" xmlns:xlink="http://www.w3.org/1999/xlink">
    <title>12. Emails/email_action_send_2</title>
    <g id="12.-Emails/email_action_send_2" stroke="none" stroke-width="1" fill="none" fill-rule="evenodd">
        <path d="M16.9999992,11.9999829 C18.3271332,11.9965243 19.600921,12.5221914 20.5393558,13.4606262 C21.4777906,14.399061 22.0034577,15.6728488 21.9999992,16.9999829 C21.9999992,19.7614104 19.7614095,21.9999829 16.9999992,21.9999829 C14.2385716,21.9999829 11.9999992,19.7614104 11.9999992,16.9999829 C11.9999992,14.2385724 14.2385716,11.9999829 16.9999992,11.9999829 Z M17.7060763,14.9208646 C17.5754943,14.8165893 17.3967044,14.7963819 17.2461427,14.8688814 C17.095581,14.941381 16.9998944,15.0937563 16.9999906,15.260864 L16.9999906,15.260864 L16.9999906,16.3478186 L14.3912994,16.3478186 C14.0311143,16.3478186 13.7391266,16.6398063 13.7391266,16.9999914 C13.7391266,17.3601765 14.0311143,17.6521642 14.3912994,17.6521642 L14.3912994,17.6521642 L16.9999906,17.6521642 L16.9999906,18.7391188 C16.9998944,18.9062266 17.095581,19.0586018 17.2461427,19.1311014 C17.3967044,19.2036009 17.5754943,19.1833935 17.7060763,19.0791183 L17.7060763,19.0791183 L19.8799856,17.3399908 C19.983488,17.2574962 20.0437773,17.1323475 20.0437773,16.9999914 C20.0437773,16.8676354 19.983488,16.7424867 19.8799856,16.659992 L19.8799856,16.659992 Z M20.1342318,3.38412667 L20.1738981,3.39392798 C20.2263807,3.4146397 20.2608545,3.46533227 20.2608545,3.52175385 L20.2608545,3.52175385 L20.2608545,11.6147833 C19.2790253,11.0145499 18.150759,10.6965292 16.9999906,10.6956545 C14.6177502,10.699337 12.4407983,12.0447956 11.3721742,14.1739096 L11.3721742,14.1739096 L3.52175301,14.1739096 C3.11809267,14.1741402 2.73089889,14.013889 2.44546787,13.728458 C2.16003686,13.443027 1.99978565,13.0558332 2.00001626,12.6521728 L2.00001626,12.6521728 L2.00001626,3.52175385 C2.00001626,3.46590627 2.03352048,3.41551269 2.08506649,3.39401933 C2.13661249,3.37252598 2.19602763,3.38415393 2.23566828,3.42349315 L2.23566828,3.42349315 L9.65217719,10.8382629 C10.4691594,11.6533228 11.7917116,11.6533228 12.6086938,10.8382629 L12.6086938,10.8382629 L20.0234636,3.42349315 C20.0631658,3.38440683 20.1223567,3.37277394 20.1738981,3.39392798 Z M18.7382484,2.00001389 C18.8113203,1.99985542 18.8842941,2.00537933 18.9565089,2.01653906 C19.0992586,2.03658342 19.2183762,2.13567314 19.264071,2.27238901 C19.3097658,2.40910488 19.2741693,2.55990499 19.1721607,2.66175534 L19.1721607,2.66175534 L11.8026083,10.0313078 C11.4311163,10.4027279 10.8288851,10.4027279 10.4573932,10.0313078 L10.4573932,10.0313078 L3.09044941,2.66175534 C2.98933747,2.55968696 2.9537611,2.40966209 2.99827565,2.27306036 C3.04352552,2.13651 3.16200353,2.03721736 3.30436208,2.01653906 C3.37600326,2.00546893 3.44839206,2.00001389 3.52088345,2.00001389 L3.52088345,2.00001389 Z" id="ðŸ–-Color" fill="#5A5A5A"></path>
        <rect id="_Transparent_Rectangle_" x="0" y="0" width="24" height="24"></rect>
    </g>
</svg>