<?xml version="1.0" encoding="UTF-8"?>
<svg width="24px" height="24px" viewBox="0 0 24 24" version="1.1" xmlns="http://www.w3.org/2000/svg" xmlns:xlink="http://www.w3.org/1999/xlink">
    <title>12. Emails/email_action_reply_1</title>
    <g id="12.-Emails/email_action_reply_1" stroke="none" stroke-width="1" fill="none" fill-rule="evenodd">
        <path d="M14.6575,12.9241667 C14.7826521,12.8247503 14.9536442,12.8056873 15.0976182,12.8751002 C15.2415921,12.944513 15.3331708,13.0901669 15.3333333,13.25 L15.3333333,13.25 L15.3333333,14.3575 C21.9216667,14.6358333 22.0000026,21.5125 22.0000026,21.5833333 C22.0007672,21.8004489 21.834683,21.9817635 21.6183333,22 L21.6183333,22 L21.5833333,22 C21.3796592,21.9999062 21.2059025,21.8525832 21.1725,21.6516667 C21.1441667,21.485 20.4358333,17.6608333 15.3333333,17.4625 L15.3333333,17.4625 L15.3333333,18.9316667 C15.3332425,19.0964803 15.2360114,19.2457516 15.0852989,19.3124546 C14.9345864,19.3791575 14.7587196,19.3507548 14.6366667,19.24 L14.6366667,19.24 L11.3033333,16.21 C11.2130008,16.1278242 11.1632653,16.010157 11.1672749,15.8881047 C11.1712845,15.7660525 11.2286355,15.6519032 11.3241667,15.5758333 L11.3241667,15.5758333 Z M19.3786531,3.32644039 L19.4166667,3.33583333 C19.4669625,3.3556821 19.4999998,3.40426256 19.4999998,3.45833333 L19.4999998,3.45833333 L19.4999998,12.2083333 C19.5002212,12.5951752 19.3466469,12.9662365 19.0731084,13.239775 C18.7995698,13.5133136 18.4285085,13.6668879 18.0416667,13.6666669 L18.0416667,13.6666669 L16.1666667,13.6666669 L16.1666667,13.25 C16.1667028,12.7701998 15.8921039,12.3327198 15.46,12.1241667 C15.0267861,11.9140441 14.5113989,11.9714174 14.135,12.2716667 L14.135,12.2716667 L12.385,13.6666669 L3.45833333,13.6666669 C3.0714915,13.6668879 2.70043015,13.5133136 2.42689163,13.239775 C2.1533531,12.9662365 1.99977876,12.5951752 1.99999976,12.2083333 L1.99999976,12.2083333 L1.99999976,3.45833333 C1.99999976,3.40481264 2.03210803,3.35651871 2.08150637,3.33592088 C2.13090471,3.31532304 2.18784431,3.32646652 2.22583333,3.36416667 L2.22583333,3.36416667 L9.33333333,10.47 C10.116276,11.2511004 11.383724,11.2511004 12.1666667,10.47 L12.1666667,10.47 L19.2725,3.36416667 C19.310548,3.32670888 19.3672727,3.31556067 19.4166667,3.33583333 Z M18.0408333,1.99999669 C18.1108607,1.99984482 18.180794,2.00513857 18.25,2.01583333 C18.386802,2.03504254 18.5009566,2.13000369 18.5447475,2.26102329 C18.5885384,2.39204289 18.5544251,2.53655992 18.4566667,2.63416667 L18.4566667,2.63416667 L11.3941667,9.69666667 C11.038153,10.0526115 10.4610137,10.0526115 10.105,9.69666667 L10.105,9.69666667 L3.04083333,2.63833333 C2.94534593,2.53964748 2.91316514,2.39579934 2.9575,2.26583333 C2.99890277,2.13324528 3.11258199,2.03608355 3.25,2.01583333 C3.31865625,2.00522444 3.38802897,1.99999669 3.4575,1.99999669 L3.4575,1.99999669 Z" id="ðŸ–-Color" fill="#5A5A5A"></path>
        <rect id="_Transparent_Rectangle_" x="0" y="0" width="24" height="24"></rect>
    </g>
</svg>