<?xml version="1.0" encoding="UTF-8"?>
<svg width="24px" height="24px" viewBox="0 0 24 24" version="1.1" xmlns="http://www.w3.org/2000/svg" xmlns:xlink="http://www.w3.org/1999/xlink">
    <title>12. Emails/email_action_lock</title>
    <g id="12.-Emails/email_action_lock" stroke="none" stroke-width="1" fill="none" fill-rule="evenodd">
        <path d="M17.8333333,10.9583333 C19.4441639,10.9583333 20.75,12.2641695 20.75,13.875 L20.75,13.875 L20.75,14.9166667 C21.4403559,14.9166667 22,15.4763107 22,16.1666667 L22,16.1666667 L22,20.75 C22,21.4403559 21.4403559,22 20.75,22 L20.75,22 L14.9166667,22 C14.2263107,22 13.6666667,21.4403559 13.6666667,20.75 L13.6666667,20.75 L13.6666667,16.1666667 C13.6666667,15.4763107 14.2263107,14.9166667 14.9166667,14.9166667 L14.9166667,14.9166667 L14.9166667,13.875 C14.9166667,12.2641695 16.2225028,10.9583333 17.8333333,10.9583333 Z M17.8333333,18.0416667 C17.373096,18.0416667 17,18.4147627 17,18.875 C17,19.3352373 17.373096,19.7083333 17.8333333,19.7083333 C18.2935706,19.7083333 18.6666667,19.3352373 18.6666667,18.875 C18.6666667,18.4147627 18.2935706,18.0416667 17.8333333,18.0416667 Z M17.8333333,12.625 C17.1429774,12.625 16.5833333,13.1846441 16.5833333,13.875 L16.5833333,13.875 L16.5833333,14.9166667 L19.0833333,14.9166667 L19.0833333,13.875 C19.0833333,13.1846441 18.5236893,12.625 17.8333333,12.625 Z M19.3786531,3.32644039 L19.4166667,3.33583333 C19.4669625,3.3556821 19.4999998,3.40426256 19.4999998,3.45833333 L19.4999998,3.45833333 L19.4999998,9.75416667 C19.4999998,9.82198163 19.4672738,9.88562353 19.4118895,9.9247574 C19.3565051,9.96389128 19.2855391,9.97361937 19.2216667,9.95083333 C18.7763378,9.7905361 18.3066334,9.70849289 17.8333333,9.70833333 C15.6907542,9.71349041 13.9025278,11.3451838 13.7016667,13.4783333 C13.69136,13.5851993 13.6015285,13.6666669 13.4941667,13.6666669 L13.4941667,13.6666669 L3.45833333,13.6666669 C3.0714915,13.6668879 2.70043015,13.5133136 2.42689163,13.239775 C2.1533531,12.9662365 1.99977876,12.5951752 1.99999976,12.2083333 L1.99999976,12.2083333 L1.99999976,3.45833333 C1.99999976,3.40481264 2.03210803,3.35651871 2.08150637,3.33592088 C2.13090471,3.31532304 2.18784431,3.32646652 2.22583333,3.36416667 L2.22583333,3.36416667 L9.33333333,10.47 C10.116276,11.2511004 11.383724,11.2511004 12.1666667,10.47 L12.1666667,10.47 L19.2725,3.36416667 C19.310548,3.32670888 19.3672727,3.31556067 19.4166667,3.33583333 Z M18.0408333,1.99999669 C18.1108607,1.99984482 18.180794,2.00513857 18.25,2.01583333 C18.386802,2.03504254 18.5009566,2.13000369 18.5447475,2.26102329 C18.5885384,2.39204289 18.5544251,2.53655992 18.4566667,2.63416667 L18.4566667,2.63416667 L11.3941667,9.69666667 C11.038153,10.0526115 10.4610137,10.0526115 10.105,9.69666667 L10.105,9.69666667 L3.04166667,2.63416667 C2.94751972,2.53648921 2.91484268,2.3948887 2.95666667,2.26583333 C2.99871991,2.13334757 3.11252353,2.03635585 3.25,2.01583333 C3.31865625,2.00522444 3.38802897,1.99999669 3.4575,1.99999669 L3.4575,1.99999669 Z" id="ðŸ–-Color" fill="#5A5A5A"></path>
        <rect id="_Transparent_Rectangle_" x="0" y="0" width="24" height="24"></rect>
    </g>
</svg>