<svg width="24" height="24" viewBox="0 0 24 24" fill="none" xmlns="http://www.w3.org/2000/svg">
<g id="email_action_send">
<path id="Shape" fill-rule="evenodd" clip-rule="evenodd" d="M21.7313 11.5408L15.5034 5.31937C15.2408 5.05689 14.8461 4.97839 14.5031 5.12045C14.1601 5.26251 13.9364 5.59716 13.9363 5.96841V8.76197C13.9363 8.88873 13.8336 8.99148 13.7068 8.99148H2.91998C2.41297 8.99148 2.00195 9.40249 2.00195 9.90951V14.0406C2.00195 14.5476 2.41297 14.9587 2.91998 14.9587H13.7068C13.8336 14.9587 13.9363 15.0614 13.9363 15.1882V18.0341C13.9363 18.2783 14.0337 18.5125 14.2068 18.6848C14.38 18.8571 14.6147 18.9533 14.8589 18.9521C15.0911 18.9512 15.3141 18.8616 15.4823 18.7015L21.7074 12.8656C21.891 12.6957 21.9973 12.4583 22.0018 12.2083C22.0063 11.9583 21.9086 11.7172 21.7313 11.5408Z" fill="#5A5A5A"/>
</g>
</svg>
