<svg width="24" height="24" viewBox="0 0 24 24" fill="none" xmlns="http://www.w3.org/2000/svg">
<g id="email_action_remove">
<path id="Shape" fill-rule="evenodd" clip-rule="evenodd" d="M10.105 9.69667C10.461 10.0526 11.0382 10.0526 11.3942 9.69667L18.4567 2.63417C18.5543 2.53674 18.5885 2.39254 18.545 2.26167C18.465 2.0225 18.2417 2 18.0408 2H3.4575C3.2575 2 3.0325 2.0225 2.95333 2.26167C2.91067 2.39258 2.94477 2.53635 3.04167 2.63417L10.105 9.69667ZM16.5833 9.91667C17.4869 9.91722 18.3807 10.1036 19.2092 10.4642C19.2736 10.4915 19.3475 10.4848 19.4059 10.4463C19.4644 10.4077 19.4997 10.3425 19.5 10.2725V3.45833C19.5 3.40426 19.467 3.35568 19.4167 3.33583C19.3673 3.31556 19.3105 3.32671 19.2725 3.36417L12.1667 10.47C11.3837 11.2511 10.1163 11.2511 9.33333 10.47L2.22583 3.36417C2.18785 3.32647 2.13091 3.31532 2.08151 3.33592C2.03211 3.35652 1.99995 3.40481 2 3.45833V12.2083C1.99978 12.5952 2.15335 12.9662 2.42689 13.2398C2.70043 13.5133 3.07149 13.6669 3.45833 13.6667H10.4692C10.5474 13.6664 10.619 13.6228 10.655 13.5533C11.7921 11.3247 14.0814 9.92041 16.5833 9.91667ZM16.5833 11.1667C13.5918 11.1667 11.1667 13.5918 11.1667 16.5833C11.1667 19.5749 13.5918 22 16.5833 22C19.5749 22 22 19.5749 22 16.5833C21.9963 13.5933 19.5734 11.1703 16.5833 11.1667ZM14.3742 15.2575C14.1447 15.0112 14.1515 14.6275 14.3895 14.3895C14.6275 14.1515 15.0112 14.1447 15.2575 14.3742L16.4358 15.5525C16.5176 15.6332 16.6491 15.6332 16.7308 15.5525L17.9092 14.3742C18.065 14.207 18.2996 14.1381 18.5211 14.1947C18.7425 14.2512 18.9154 14.4241 18.972 14.6456C19.0285 14.867 18.9597 15.1017 18.7925 15.2575L17.6142 16.4358C17.5335 16.5176 17.5335 16.6491 17.6142 16.7308L18.7925 17.9092C18.9597 18.065 19.0285 18.2996 18.972 18.5211C18.9154 18.7425 18.7425 18.9154 18.5211 18.972C18.2996 19.0285 18.065 18.9597 17.9092 18.7925L16.7308 17.6142C16.6491 17.5335 16.5176 17.5335 16.4358 17.6142L15.2575 18.7925C15.1017 18.9597 14.867 19.0285 14.6456 18.972C14.4241 18.9154 14.2512 18.7425 14.1947 18.5211C14.1381 18.2996 14.207 18.065 14.3742 17.9092L15.5525 16.7308C15.6332 16.6491 15.6332 16.5176 15.5525 16.4358L14.3742 15.2575Z" fill="#5A5A5A"/>
</g>
</svg>
