<svg width="24" height="24" viewBox="0 0 24 24" fill="none" xmlns="http://www.w3.org/2000/svg">
<g id="email_action_add">
<path id="Shape" fill-rule="evenodd" clip-rule="evenodd" d="M10.105 9.69667C10.461 10.0526 11.0382 10.0526 11.3942 9.69667L18.4567 2.63417C18.5543 2.53674 18.5885 2.39254 18.545 2.26167C18.465 2.0225 18.2408 2 18.0408 2H3.4575C3.2575 2 3.0325 2.0225 2.9575 2.26167C2.91317 2.39163 2.94535 2.53548 3.04083 2.63417L10.105 9.69667ZM16.5833 9.91667C17.4869 9.91722 18.3807 10.1036 19.2092 10.4642C19.2736 10.4915 19.3475 10.4848 19.4059 10.4463C19.4644 10.4077 19.4997 10.3425 19.5 10.2725V3.45833C19.5 3.40426 19.467 3.35568 19.4167 3.33583C19.3673 3.31556 19.3105 3.32671 19.2725 3.36417L12.1667 10.47C11.3837 11.2511 10.1163 11.2511 9.33333 10.47L2.22583 3.36417C2.18785 3.32647 2.13091 3.31532 2.08151 3.33592C2.03211 3.35652 1.99995 3.40481 2 3.45833V12.2083C1.99978 12.5952 2.15335 12.9662 2.42689 13.2398C2.70043 13.5133 3.07149 13.6669 3.45833 13.6667H10.4692C10.5474 13.6664 10.619 13.6228 10.655 13.5533C11.7921 11.3247 14.0814 9.92041 16.5833 9.91667ZM16.5833 11.1667C13.5918 11.1667 11.1667 13.5918 11.1667 16.5833C11.1667 19.5749 13.5918 22 16.5833 22C19.5749 22 22 19.5749 22 16.5833C21.9963 13.5933 19.5734 11.1703 16.5833 11.1667ZM17.2083 18.6667C17.2083 19.0118 16.9285 19.2917 16.5833 19.2917C16.2382 19.2917 15.9583 19.0118 15.9583 18.6667V17.4167C15.9583 17.3016 15.8651 17.2083 15.75 17.2083H14.5C14.1548 17.2083 13.875 16.9285 13.875 16.5833C13.875 16.2382 14.1548 15.9583 14.5 15.9583H15.75C15.8651 15.9583 15.9583 15.8651 15.9583 15.75V14.5C15.9583 14.1548 16.2382 13.875 16.5833 13.875C16.9285 13.875 17.2083 14.1548 17.2083 14.5V15.75C17.2083 15.8651 17.3016 15.9583 17.4167 15.9583H18.6667C19.0118 15.9583 19.2917 16.2382 19.2917 16.5833C19.2917 16.9285 19.0118 17.2083 18.6667 17.2083H17.4167C17.3016 17.2083 17.2083 17.3016 17.2083 17.4167V18.6667Z" fill="#5A5A5A"/>
</g>
</svg>
