<?xml version="1.0" encoding="UTF-8"?>
<svg width="24px" height="24px" viewBox="0 0 24 24" version="1.1" xmlns="http://www.w3.org/2000/svg" xmlns:xlink="http://www.w3.org/1999/xlink">
    <title>12. Emails/email_action_reply_all_1</title>
    <g id="12.-Emails/email_action_reply_all_1" stroke="none" stroke-width="1" fill="none" fill-rule="evenodd">
        <path d="M14.6575,12.9241667 C14.7826521,12.8247503 14.9536442,12.8056873 15.0976182,12.8751002 C15.2415921,12.944513 15.3331708,13.0901669 15.3333333,13.25 L15.3333333,13.25 L15.3333333,14.3575 C21.9216667,14.6366667 22.0000026,21.5133333 22.0000026,21.5833333 C22.0007672,21.8004489 21.834683,21.9817635 21.6183333,22 L21.6183333,22 L21.5833333,22 C21.3799259,22 21.2062656,21.8530853 21.1725,21.6525 C21.1441667,21.485 20.4358333,17.6608333 15.3333333,17.4633333 L15.3333333,17.4633333 L15.3333333,18.9325 C15.3332425,19.0973136 15.2360114,19.246585 15.0852989,19.3132879 C14.9345864,19.3799908 14.7587196,19.3515881 14.6366667,19.2408333 L14.6366667,19.2408333 L11.3033333,16.21 C11.2130008,16.1278242 11.1632653,16.010157 11.1672749,15.8881047 C11.1712845,15.7660525 11.2286355,15.6519032 11.3241667,15.5758333 L11.3241667,15.5758333 Z M11.3425,12.91 C11.4696203,12.8199605 11.6363494,12.8083513 11.7747213,12.8799048 C11.9130931,12.9514584 12.000007,13.0942223 12.000007,13.25 L12.000007,13.25 L12.000007,13.9733333 L10.805,14.9233333 C10.5181167,15.1515395 10.3458662,15.4941731 10.3338352,15.8605545 C10.3218043,16.2269359 10.4712059,16.5801316 10.7425,16.8266667 L10.7425,16.8266667 L12.000007,17.97 L12.000007,18.9325 C12.0009334,19.0934232 11.9091139,19.2404979 11.7641246,19.3103208 C11.6191353,19.3801436 11.4468991,19.3602308 11.3216667,19.2591667 L11.3216667,19.2591667 L7.57166667,16.2283333 C7.46912867,16.1464124 7.4111816,16.0209677 7.41528099,15.8897874 C7.41938037,15.7586071 7.48504702,15.6370254 7.5925,15.5616667 L7.5925,15.5616667 Z M2.08333333,3.33333333 C2.1328162,3.31346315 2.18942329,3.32604251 2.22583333,3.365 L2.22583333,3.365 L9.33333333,10.4708333 C10.116276,11.2519337 11.383724,11.2519337 12.1666667,10.4708333 L12.1666667,10.4708333 L19.2741667,3.365 C19.3120479,3.32740531 19.3687867,3.3162078 19.4181103,3.33659245 C19.4674339,3.35697711 19.4997127,3.40496418 19.5000002,3.45833333 L19.5000002,3.45833333 L19.5000002,12.2083333 C19.5002212,12.5951752 19.3466469,12.9662365 19.0731084,13.239775 C18.7995698,13.5133136 18.4285085,13.6668879 18.0416667,13.6666669 L18.0416667,13.6666669 L16.1666667,13.6666669 L16.1666667,13.25 C16.1664329,12.770189 15.8915757,12.3328555 15.4593397,12.1245511 C15.0271037,11.9162467 14.5137793,11.9737376 14.1383333,12.2725 L14.1383333,12.2725 L12.8333333,13.3108333 L12.8333333,13.25 C12.83321,12.7827703 12.5725234,12.3546142 12.1575,12.14 C11.7437441,11.9272943 11.2460928,11.9619694 10.8658333,12.23 L10.8658333,12.23 L8.83333333,13.6666669 L3.45833333,13.6666669 C3.0714915,13.6668879 2.70043015,13.5133136 2.42689163,13.239775 C2.1533531,12.9662365 1.99977876,12.5951752 1.99998549,12.2083333 L1.99998549,12.2083333 L1.99998549,3.45833333 C1.99919013,3.40342356 2.0323359,3.3537049 2.08333333,3.33333333 Z M18.0408333,2 C18.1108451,2.00025293 18.1807479,2.00554438 18.25,2.01583333 C18.3867854,2.0353968 18.5007968,2.13052469 18.5445452,2.26159358 C18.5882937,2.39266247 18.554278,2.53719913 18.4566667,2.635 L18.4566667,2.635 L11.3941667,9.6975 C11.0370246,10.0507099 10.4621421,10.0507099 10.105,9.6975 L10.105,9.6975 L3.04083333,2.63916667 C2.94537524,2.54012512 2.91321932,2.39606657 2.9575,2.26583333 C2.99890277,2.13324528 3.11258199,2.03608355 3.25,2.01583333 C3.31870168,2.0056238 3.38804465,2.00033256 3.4575,2 L3.4575,2 Z" id="ðŸ–-Color" fill="#5A5A5A"></path>
        <rect id="_Transparent_Rectangle_" x="0" y="0" width="24" height="24"></rect>
    </g>
</svg>