<svg width="24" height="24" viewBox="0 0 24 24" fill="none" xmlns="http://www.w3.org/2000/svg">
<g id="email_action_share">
<path id="Shape" fill-rule="evenodd" clip-rule="evenodd" d="M9.7808 9.69667C10.1226 10.0526 10.6766 10.0526 11.0184 9.69667L17.7984 2.63417C17.8922 2.53656 17.925 2.39205 17.883 2.26103C17.8409 2.13001 17.7313 2.03505 17.6 2.01584C17.5336 2.00514 17.4664 1.99985 17.3992 2H3.3992C3.33251 1.99993 3.26591 2.00523 3.2 2.01584C3.06808 2.03609 2.95895 2.13325 2.9192 2.26584C2.87664 2.3958 2.90753 2.53965 2.9992 2.63834L9.7808 9.69667ZM15.5672 12.9317C15.6158 12.9012 15.6496 12.8506 15.66 12.7925C15.9459 11.2658 17.1549 10.1122 18.64 9.94917C18.7307 9.94135 18.8003 9.86226 18.8 9.7675V3.45834C18.8 3.40427 18.7683 3.35569 18.72 3.33584C18.6726 3.31556 18.6181 3.32671 18.5816 3.36417L11.76 10.47C11.0084 11.2511 9.79163 11.2511 9.04 10.47L2.2168 3.36417C2.18033 3.32647 2.12567 3.31533 2.07825 3.33592C2.03082 3.35652 1.99995 3.40482 2 3.45834V12.2083C1.99979 12.5952 2.14722 12.9662 2.40982 13.2398C2.67241 13.5133 3.02863 13.6669 3.4 13.6667H14.336C14.3721 13.6668 14.4076 13.6564 14.4384 13.6367L15.5672 12.9317ZM17.4 18.145C17.8131 17.6813 18.3927 17.4174 19 17.4167L19.0024 17.415C20.2174 17.415 21.2024 18.441 21.2024 19.7067C21.2024 20.9723 20.2174 21.9983 19.0024 21.9983C17.7874 21.9983 16.8024 20.9723 16.8024 19.7067V19.6883L14.6 18.7717C13.9135 19.5381 12.8154 19.7216 11.9332 19.2175C11.051 18.7133 10.6096 17.6499 10.8614 16.635C11.1131 15.6202 11.9938 14.9126 13 14.9167C13.4854 14.9189 13.9561 15.0899 14.3376 15.4025L16.8376 13.84C16.6666 12.8697 17.1 11.8922 17.92 11.3985C18.74 10.9049 19.7694 11.0018 20.4912 11.6406C21.2129 12.2794 21.471 13.3219 21.1358 14.2446C20.8006 15.1673 19.9445 15.7707 18.9976 15.7517C18.5127 15.7497 18.0423 15.5793 17.6608 15.2675L15.1608 16.83C15.1832 16.9554 15.1955 17.0825 15.1976 17.21V17.2283L17.4 18.145Z" fill="#5A5A5A"/>
</g>
</svg>
