<?xml version="1.0" encoding="UTF-8"?>
<svg width="24px" height="24px" viewBox="0 0 24 24" version="1.1" xmlns="http://www.w3.org/2000/svg" xmlns:xlink="http://www.w3.org/1999/xlink">
    <title>12. Emails/email_action_edit</title>
    <g id="12.-Emails/email_action_edit" stroke="none" stroke-width="1" fill="none" fill-rule="evenodd">
        <path d="M11.8441667,18.72 C11.9175655,18.6975132 11.9973823,18.7173873 12.0516667,18.7716667 L12.0516667,18.7716667 L14.3925,21.1116667 C14.446869,21.1660214 14.4668845,21.2459011 14.4445696,21.3194706 C14.4222547,21.39304 14.3612366,21.4483408 14.2858333,21.4633333 L14.2858333,21.4633333 L11.6666667,21.9875 C11.5293292,22.0171748 11.3882703,21.9743973 11.2898532,21.8759802 C11.1914361,21.7775631 11.1486585,21.6365041 11.1758333,21.5 L11.1758333,21.5 L11.7,18.8783333 C11.7156821,18.8032633 11.7708909,18.7426295 11.8441667,18.72 Z M18.2725,11.8 C19.1246429,10.950262 20.5036905,10.950262 21.3558333,11.8 C21.7660853,12.2090696 21.997008,12.7643724 21.9977914,13.3437203 C21.9985708,13.9230682 21.769147,14.4789919 21.36,14.8891667 L21.36,14.8891667 L15.7941667,20.4558333 C15.7128605,20.5368856 15.5813062,20.5368856 15.5,20.4558333 L15.5,20.4558333 L12.7066667,17.6608333 C12.6256144,17.5795271 12.6256144,17.4479729 12.7066667,17.3666667 L12.7066667,17.3666667 Z M19.3804448,3.33134299 L19.4184936,3.34092088 C19.467892,3.36151871 19.5,3.40981264 19.5,3.46333333 L19.5,3.46333333 L19.5,8.07583333 C19.5003746,8.13077035 19.4787717,8.18357739 19.44,8.2225 L19.44,8.2225 L14.0525,13.61 C14.0134907,13.6493532 13.9604111,13.6715446 13.905,13.6716667 L13.905,13.6716667 L3.45833333,13.6716667 C2.65291807,13.6716667 2,13.0187486 2,12.2133333 L2,12.2133333 L2,3.46333333 C2,3.40926256 2.03303746,3.3606821 2.08333333,3.34083333 C2.1323757,3.31975244 2.18933374,3.33101159 2.22666667,3.36916667 L2.22666667,3.36916667 L9.33333333,10.475 C10.116276,11.2561004 11.383724,11.2561004 12.1666667,10.475 L12.1666667,10.475 L19.2741667,3.36916667 C19.3121557,3.33146652 19.3690953,3.32032304 19.4184936,3.34092088 Z M18.0416667,2.005 C18.2425,2.005 18.4625,2.0275 18.5458333,2.26583333 C18.5892345,2.39697444 18.5550672,2.54137966 18.4575,2.63916667 L18.4575,2.63916667 L11.395,9.70166667 C11.0378579,10.0548766 10.4629754,10.0548766 10.1058333,9.70166667 L10.1058333,9.70166667 L3.04666667,2.63916667 C2.94979537,2.54099324 2.91572745,2.39700806 2.95833333,2.26583333 C3.03333333,2.0275 3.25833333,2.005 3.45833333,2.005 L3.45833333,2.005 Z" id="ðŸ–-Color" fill="#5A5A5A"></path>
        <rect id="_Transparent_Rectangle_" x="0" y="0" width="24" height="24"></rect>
    </g>
</svg>