<svg width="24" height="24" viewBox="0 0 24 24" fill="none" xmlns="http://www.w3.org/2000/svg">
<g id="email_action_check">
<path id="Shape" fill-rule="evenodd" clip-rule="evenodd" d="M10.5 8.96415C10.1773 9.28492 9.65608 9.28492 9.33333 8.96415L2.9425 2.57331C2.85714 2.48408 2.82811 2.35496 2.86706 2.23778C2.906 2.12059 3.00654 2.03454 3.12833 2.01415C3.19146 2.00434 3.25528 1.9996 3.31917 1.99998H16.5133C16.5772 1.99966 16.641 2.0044 16.7042 2.01415C16.8258 2.03479 16.9261 2.12094 16.9649 2.23808C17.0036 2.35522 16.9745 2.48419 16.8892 2.57331L10.5 8.96415ZM17.5833 9.23331C17.1175 9.13493 16.6428 9.08466 16.1667 9.08331C13.7097 9.08602 11.4299 10.363 10.1442 12.4566C10.1062 12.5183 10.039 12.5558 9.96667 12.5558H3.31917C2.96916 12.5558 2.6335 12.4167 2.38608 12.1691C2.13867 11.9216 1.99978 11.5858 2 11.2358V3.31915C2.00025 3.27067 2.02945 3.22704 2.07417 3.20831C2.11869 3.18933 2.17029 3.19959 2.20417 3.23415L8.63333 9.66665C9.34193 10.3743 10.4897 10.3743 11.1983 9.66665L17.6292 3.23581C17.6634 3.20216 17.7143 3.1921 17.7587 3.21023C17.8031 3.22835 17.8325 3.27119 17.8333 3.31915V9.02915C17.8333 9.09172 17.8052 9.15098 17.7568 9.19055C17.7083 9.23013 17.6446 9.24583 17.5833 9.23331ZM10.3333 16.1666C10.3333 12.945 12.945 10.3333 16.1667 10.3333C19.3868 10.337 21.9963 12.9465 22 16.1666C22 19.3883 19.3883 22 16.1667 22C12.945 22 10.3333 19.3883 10.3333 16.1666ZM12 16.1666C12 18.4678 13.8655 20.3333 16.1667 20.3333C18.4667 20.3306 20.3306 18.4667 20.3333 16.1666C20.3333 13.8655 18.4679 12 16.1667 12C13.8655 12 12 13.8655 12 16.1666ZM15.5542 16.8616L17.2958 14.5383L17.3008 14.5425C17.4795 14.3043 17.7716 14.1795 18.0672 14.2151C18.3628 14.2507 18.6169 14.4413 18.7338 14.7151C18.8508 14.9889 18.8128 15.3043 18.6342 15.5425L16.6667 18.1666C16.4325 18.4779 16.0746 18.6721 15.686 18.6988C15.2973 18.7255 14.9163 18.5821 14.6417 18.3058L13.6258 17.29C13.31 16.963 13.3145 16.4432 13.636 16.1218C13.9574 15.8004 14.4772 15.7958 14.8042 16.1116L15.5542 16.8616Z" fill="#5A5A5A"/>
</g>
</svg>
