<?xml version="1.0" encoding="UTF-8"?>
<svg width="24px" height="24px" viewBox="0 0 24 24" version="1.1" xmlns="http://www.w3.org/2000/svg" xmlns:xlink="http://www.w3.org/1999/xlink">
    <title>12. Emails/email_action_share</title>
    <g id="12.-Emails/email_action_share" stroke="none" stroke-width="1" fill="none" fill-rule="evenodd">
        <path d="M17.9199784,11.3985334 C18.7399806,10.9048984 19.7694065,11.0018082 20.4911617,11.6405839 C21.2129169,12.2793595 21.4710093,13.3219431 21.1357956,14.2446309 C20.8005819,15.1673187 19.9445115,15.7706914 18.9976,15.7516667 C18.5126979,15.7496991 18.0422769,15.5793205 17.6608,15.2675 L17.6608,15.2675 L15.1608,16.83 C15.1832255,16.955375 15.1955351,17.0824855 15.1976,17.21 L15.1976,17.21 L15.1976,17.2283333 L17.4,18.145 C17.8130835,17.6812918 18.392707,17.4174423 19,17.4166667 L19,17.4166667 C20.2174264,17.415 21.2024,18.4410141 21.2024,19.7066667 C21.2024,20.9723192 20.2174264,21.9983333 19.0024,21.9983333 C17.7873736,21.9983333 16.8024,20.9723192 16.8024,19.7066667 L16.8024,19.7066667 L16.8024,19.6883333 L14.6,18.7716667 C13.9135451,19.5380701 12.8153974,19.7216403 11.9331988,19.2174586 C11.0510002,18.7132768 10.6096368,17.6498669 10.861368,16.6350164 C11.1130993,15.6201658 11.993755,14.9125759 13,14.9166667 C13.4853653,14.9189246 13.9561153,15.089907 14.3376,15.4025 L14.3376,15.4025 L16.8376,13.84 C16.6666239,12.8696596 17.0999762,11.8921685 17.9199784,11.3985334 Z M18.6711607,3.32584499 L18.72,3.33583333 C18.768284,3.3556821 18.800001,3.40426256 18.800001,3.45833333 L18.800001,3.45833333 L18.800001,9.7675 C18.8003106,9.8622543 18.7306541,9.94134342 18.64,9.94916667 C17.154934,10.1122153 15.9459337,11.2657693 15.66,12.7925 C15.6495841,12.8505732 15.615807,12.9012267 15.5672,12.9316667 L15.5672,12.9316667 L14.4384,13.6366667 C14.4076081,13.6563891 14.3721471,13.6667781 14.336,13.6666676 L14.336,13.6666676 L3.4,13.6666676 C3.02863184,13.6668879 2.67241295,13.5133136 2.40981596,13.239775 C2.14721898,12.9662365 1.99978761,12.5951752 1.99999977,12.2083333 L1.99999977,12.2083333 L1.99999977,3.45833333 C1.99999977,3.40481264 2.0308237,3.35651871 2.07824611,3.33592088 C2.12566852,3.31532304 2.18033054,3.32646652 2.2168,3.36416667 L2.2168,3.36416667 L9.04,10.47 C9.79162498,11.2511004 11.008375,11.2511004 11.76,10.47 L11.76,10.47 L18.5816,3.36416667 C18.6181261,3.32670888 18.6725818,3.31556067 18.72,3.33583333 Z M17.3992,1.99999669 C17.4664263,1.99984482 17.5335622,2.00513857 17.6,2.01583333 C17.7313299,2.03504254 17.8409183,2.13000369 17.8829576,2.26102329 C17.9249969,2.39204289 17.8922481,2.53655992 17.7984,2.63416667 L17.7984,2.63416667 L11.0184,9.69666667 C10.6766268,10.0526115 10.1225732,10.0526115 9.7808,9.69666667 L9.7808,9.69666667 L2.9992,2.63833333 C2.90753209,2.53964748 2.87663853,2.39579934 2.9192,2.26583333 C2.95894666,2.13324528 3.06807871,2.03608355 3.2,2.01583333 C3.26591,2.00522444 3.33250781,1.99999669 3.3992,1.99999669 L3.3992,1.99999669 Z" id="ðŸ–-Color" fill="#5A5A5A"></path>
        <rect id="_Transparent_Rectangle_" x="0" y="0" width="24" height="24"></rect>
    </g>
</svg>