<?xml version="1.0" encoding="UTF-8"?>
<svg width="24px" height="24px" viewBox="0 0 24 24" version="1.1" xmlns="http://www.w3.org/2000/svg" xmlns:xlink="http://www.w3.org/1999/xlink">
    <title>12. Emails/email_action_send</title>
    <g id="12.-Emails/email_action_send" stroke="none" stroke-width="1" fill="none" fill-rule="evenodd">
        <path d="M21.7309385,11.5408505 L15.5030343,5.31937251 C15.2404835,5.05690094 14.8456924,4.97839668 14.5027006,5.12045599 C14.1597087,5.26251529 13.9360392,5.59717164 13.93596,5.96841853 L13.93596,8.76197872 C13.93596,8.88873198 13.8332061,8.9914858 13.7064529,8.9914858 L2.91962007,8.9914858 C2.41260703,8.9914858 2.00159175,9.40250108 2.00159175,9.90951413 L2.00159175,14.0406416 C2.00159175,14.5476546 2.41260703,14.9586699 2.91962007,14.9586699 L13.7064529,14.9586699 C13.8332061,14.9586699 13.93596,15.0614237 13.93596,15.188177 L13.93596,18.0340648 C13.9359569,18.2783384 14.0333073,18.5125409 14.2064651,18.6848371 C14.3796228,18.8571334 14.6143078,18.9533145 14.8585784,18.9521046 C15.0907428,18.9512355 15.3137768,18.861562 15.4819197,18.7014714 L21.7070697,12.8655653 C21.8906214,12.695716 21.9969373,12.4583363 22.0015917,12.2082969 C22.0059478,11.9582575 21.9082522,11.7172019 21.7309385,11.5408505 Z" id="ðŸ–-Color" fill="#5A5A5A"></path>
        <rect id="_Transparent_Rectangle_" x="0" y="0" width="24" height="24"></rect>
    </g>
</svg>