<?xml version="1.0" encoding="UTF-8"?>
<svg width="24px" height="24px" viewBox="0 0 24 24" version="1.1" xmlns="http://www.w3.org/2000/svg" xmlns:xlink="http://www.w3.org/1999/xlink">
    <title>12. Emails/email_action_remove</title>
    <g id="12.-Emails/email_action_remove" stroke="none" stroke-width="1" fill="none" fill-rule="evenodd">
        <path d="M16.5833333,11.1666667 C19.5733529,11.1703399 21.9963268,13.5933138 22,16.5833333 C22,19.5748757 19.5748757,22 16.5833333,22 C13.5917909,22 11.1666667,19.5748757 11.1666667,16.5833333 C11.1666667,13.5917909 13.5917909,11.1666667 16.5833333,11.1666667 Z M18.5210741,14.1946787 C18.2996296,14.1381257 18.0649755,14.2069557 17.9091667,14.3741667 L17.9091667,14.3741667 L16.7308333,15.5525 C16.6490554,15.6331957 16.5176113,15.6331957 16.4358333,15.5525 L16.4358333,15.5525 L15.2575,14.3741667 C15.0112419,14.1447009 14.6274919,14.1514718 14.3894818,14.3894818 C14.1514718,14.6274919 14.1447009,15.0112419 14.3741667,15.2575 L14.3741667,15.2575 L15.5525,16.4358333 C15.6331957,16.5176113 15.6331957,16.6490554 15.5525,16.7308333 L15.5525,16.7308333 L14.3741667,17.9091667 C14.2069557,18.0649755 14.1381257,18.2996296 14.1946787,18.5210741 C14.2512317,18.7425186 14.4241481,18.9154349 14.6455926,18.971988 C14.867037,19.028541 15.1016912,18.959711 15.2575,18.7925 L15.2575,18.7925 L16.4358333,17.6141667 C16.5176113,17.533471 16.6490554,17.533471 16.7308333,17.6141667 L16.7308333,17.6141667 L17.9091667,18.7925 C18.0649755,18.959711 18.2996296,19.028541 18.5210741,18.971988 C18.7425186,18.9154349 18.9154349,18.7425186 18.971988,18.5210741 C19.028541,18.2996296 18.959711,18.0649755 18.7925,17.9091667 L18.7925,17.9091667 L17.6141667,16.7308333 C17.533471,16.6490554 17.533471,16.5176113 17.6141667,16.4358333 L17.6141667,16.4358333 L18.7925,15.2575 C18.959711,15.1016912 19.028541,14.867037 18.971988,14.6455926 C18.9154349,14.4241481 18.7425186,14.2512317 18.5210741,14.1946787 Z M19.3786531,3.32644039 L19.4166667,3.33583333 C19.4669625,3.3556821 19.4999998,3.40426256 19.4999998,3.45833333 L19.4999998,3.45833333 L19.4999998,10.2725 C19.4996996,10.3425103 19.4643925,10.4077279 19.4059345,10.4462532 C19.3474765,10.4847785 19.2736205,10.4915023 19.2091667,10.4641667 C18.3806785,10.1035823 17.4868894,9.91722255 16.5833333,9.91666667 C14.0813705,9.92041288 11.7921406,11.3247141 10.655,13.5533333 C10.6189956,13.6227711 10.5473835,13.6664449 10.4691667,13.6666669 L10.4691667,13.6666669 L3.45833333,13.6666669 C3.0714915,13.6668879 2.70043015,13.5133136 2.42689163,13.239775 C2.1533531,12.9662365 1.99977876,12.5951752 1.99999976,12.2083333 L1.99999976,12.2083333 L1.99999976,3.45833333 C1.99999976,3.40481264 2.03210803,3.35651871 2.08150637,3.33592088 C2.13090471,3.31532304 2.18784431,3.32646652 2.22583333,3.36416667 L2.22583333,3.36416667 L9.33333333,10.47 C10.116276,11.2511004 11.383724,11.2511004 12.1666667,10.47 L12.1666667,10.47 L19.2725,3.36416667 C19.310548,3.32670888 19.3672727,3.31556067 19.4166667,3.33583333 Z M18.0408333,2 C18.2416667,2 18.465,2.0225 18.545,2.26166667 C18.5884602,2.39254285 18.5542656,2.53674075 18.4566667,2.63416667 L18.4566667,2.63416667 L11.3941667,9.69666667 C11.038153,10.0526115 10.4610137,10.0526115 10.105,9.69666667 L10.105,9.69666667 L3.04166667,2.63416667 C2.94476756,2.53635097 2.91067348,2.39257688 2.95333333,2.26166667 C3.0325,2.0225 3.2575,2 3.4575,2 L3.4575,2 Z" id="ðŸ–-Color" fill="#5A5A5A"></path>
        <rect id="_Transparent_Rectangle_" x="0" y="0" width="24" height="24"></rect>
    </g>
</svg>