<?xml version="1.0" encoding="UTF-8"?>
<svg width="24px" height="24px" viewBox="0 0 24 24" version="1.1" xmlns="http://www.w3.org/2000/svg" xmlns:xlink="http://www.w3.org/1999/xlink">
    <title>12. Emails/email_action_reply_all</title>
    <g id="12.-Emails/email_action_reply_all" stroke="none" stroke-width="1" fill="none" fill-rule="evenodd">
        <path d="M12.3083333,6.01333333 C12.5524741,5.80462296 12.8956982,5.75694128 13.1874851,5.89119904 C13.479272,6.0254568 13.6663463,6.31714084 13.6666667,6.63833333 L13.6666667,6.63833333 L13.6666667,8.47166667 C13.6669596,8.58230268 13.7536799,8.67341396 13.8641667,8.67916667 C15.9002022,8.77865284 17.8389524,9.58018355 19.3508333,10.9475 C21.1083333,12.6191667 22.0000704,15.0758333 22.0000704,18.25 C22.0035647,18.4449372 21.8714734,18.6162819 21.6820462,18.6624398 C21.4926191,18.7085977 21.2965113,18.6172255 21.21,18.4425 C18.6941667,13.5433333 15.0491667,14.0116667 13.8216667,14.3383333 C13.7303277,14.3622204 13.6666281,14.4447559 13.6666667,14.5391667 L13.6666667,14.5391667 L13.6666667,16.555 C13.6666544,16.8723924 13.4820127,17.1607832 13.1937599,17.2936301 C12.9055072,17.426477 12.5663085,17.3795083 12.325,17.1733333 L12.325,17.1733333 L6.53166667,12.2183333 C6.34652801,12.0600098 6.23993589,11.8286035 6.23993589,11.585 C6.23993589,11.3413965 6.34652801,11.1099902 6.53166667,10.9516667 L6.53166667,10.9516667 Z M8.64833333,5.52166667 C9.00412331,5.2361591 9.52334511,5.28978599 9.81327069,5.64198513 C10.1031963,5.99418426 10.0560534,6.51403489 9.7075,6.80833333 L9.7075,6.80833333 L3.9075,11.5833333 L9.55916667,16.2408333 C9.90772011,16.5351318 9.95486294,17.0549824 9.66493736,17.4071815 C9.37501177,17.7593807 8.85578997,17.8130076 8.5,17.5275 L8.5,17.5275 L2.4575,12.55 C2.16910695,12.312553 2.00202816,11.9585661 2.00202816,11.585 C2.00202816,11.2114339 2.16910695,10.857447 2.4575,10.62 L2.4575,10.62 Z" id="ðŸ–-Color" fill="#5A5A5A"></path>
        <rect id="_Transparent_Rectangle_" x="0" y="0" width="24" height="24"></rect>
    </g>
</svg>