<?xml version="1.0" encoding="UTF-8"?>
<svg width="24px" height="24px" viewBox="0 0 24 24" version="1.1" xmlns="http://www.w3.org/2000/svg" xmlns:xlink="http://www.w3.org/1999/xlink">
    <title>12. Emails/email_action_clock</title>
    <g id="12.-Emails/email_action_clock" stroke="none" stroke-width="1" fill="none" fill-rule="evenodd">
        <path d="M16.5833333,11.1666667 C19.5733529,11.1703399 21.9963268,13.5933138 22,16.5833333 C22,19.5748757 19.5748757,22 16.5833333,22 C13.5917909,22 11.1666667,19.5748757 11.1666667,16.5833333 C11.1666667,13.5917909 13.5917909,11.1666667 16.5833333,11.1666667 Z M18.0183962,13.1187851 C16.6171172,12.5383563 15.0041754,12.8591904 13.9316829,13.9316829 C12.8591904,15.0041754 12.5383563,16.6171172 13.1187851,18.0183962 C13.6992138,19.4196752 15.0665999,20.3333333 16.5833333,20.3333333 C18.6534492,20.331037 20.331037,18.6534492 20.3333333,16.5833333 C20.3333333,15.0665999 19.4196752,13.6992138 18.0183962,13.1187851 Z M16.5833333,13.875 C16.9285113,13.875 17.2083333,14.154822 17.2083333,14.5 L17.2083333,14.5 L17.2083333,15.75 C17.2083333,15.8650593 17.3016073,15.9583333 17.4166667,15.9583333 L17.4166667,15.9583333 L18.25,15.9583333 C18.595178,15.9583333 18.875,16.2381554 18.875,16.5833333 C18.875,16.9285113 18.595178,17.2083333 18.25,17.2083333 L18.25,17.2083333 L16.5833333,17.2083333 C16.2381554,17.2083333 15.9583333,16.9285113 15.9583333,16.5833333 L15.9583333,16.5833333 L15.9583333,14.5 C15.9583333,14.154822 16.2381554,13.875 16.5833333,13.875 Z M19.3786531,3.32644039 L19.4166667,3.33583333 C19.4669625,3.3556821 19.4999998,3.40426256 19.4999998,3.45833333 L19.4999998,3.45833333 L19.4999998,10.2725 C19.4996996,10.3425103 19.4643925,10.4077279 19.4059345,10.4462532 C19.3474765,10.4847785 19.2736205,10.4915023 19.2091667,10.4641667 C18.3806785,10.1035823 17.4868894,9.91722255 16.5833333,9.91666667 C14.0813705,9.92041288 11.7921406,11.3247141 10.655,13.5533333 C10.6189956,13.6227711 10.5473835,13.6664449 10.4691667,13.6666669 L10.4691667,13.6666669 L3.45833333,13.6666669 C3.0714915,13.6668879 2.70043015,13.5133136 2.42689163,13.239775 C2.1533531,12.9662365 1.99977876,12.5951752 1.99999976,12.2083333 L1.99999976,12.2083333 L1.99999976,3.45833333 C1.99999976,3.40481264 2.03210803,3.35651871 2.08150637,3.33592088 C2.13090471,3.31532304 2.18784431,3.32646652 2.22583333,3.36416667 L2.22583333,3.36416667 L9.33333333,10.47 C10.116276,11.2511004 11.383724,11.2511004 12.1666667,10.47 L12.1666667,10.47 L19.2725,3.36416667 C19.310548,3.32670888 19.3672727,3.31556067 19.4166667,3.33583333 Z M18.0408333,1.99999669 C18.1108607,1.99984482 18.180794,2.00513857 18.25,2.01583333 C18.386802,2.03504254 18.5009566,2.13000369 18.5447475,2.26102329 C18.5885384,2.39204289 18.5544251,2.53655992 18.4566667,2.63416667 L18.4566667,2.63416667 L11.3941667,9.69666667 C11.038153,10.0526115 10.4610137,10.0526115 10.105,9.69666667 L10.105,9.69666667 L3.04083333,2.63833333 C2.94534593,2.53964748 2.91316514,2.39579934 2.9575,2.26583333 C2.99890277,2.13324528 3.11258199,2.03608355 3.25,2.01583333 C3.31865625,2.00522444 3.38802897,1.99999669 3.4575,1.99999669 L3.4575,1.99999669 Z" id="ðŸ–-Color" fill="#5A5A5A"></path>
        <rect id="_Transparent_Rectangle_" x="0" y="0" width="24" height="24"></rect>
    </g>
</svg>