<svg width="24" height="24" viewBox="0 0 24 24" fill="none" xmlns="http://www.w3.org/2000/svg">
<g id="email_action_reply_1">
<path id="Shape" fill-rule="evenodd" clip-rule="evenodd" d="M10.105 9.69667C10.461 10.0526 11.0382 10.0526 11.3942 9.69667L18.4567 2.63417C18.5544 2.53656 18.5885 2.39205 18.5447 2.26103C18.501 2.13001 18.3868 2.03505 18.25 2.01584C18.1808 2.00514 18.1109 1.99985 18.0408 2H3.4575C3.38803 1.99993 3.31866 2.00523 3.25 2.01584C3.11258 2.03609 2.9989 2.13325 2.9575 2.26584C2.91317 2.3958 2.94535 2.53965 3.04083 2.63834L10.105 9.69667ZM15.46 12.1242C15.8921 12.3327 16.1667 12.7702 16.1667 13.25V13.6667H18.0417C18.4285 13.6669 18.7996 13.5133 19.0731 13.2398C19.3466 12.9662 19.5002 12.5952 19.5 12.2083V3.45834C19.5 3.40427 19.467 3.35569 19.4167 3.33584C19.3673 3.31556 19.3105 3.32671 19.2725 3.36417L12.1667 10.47C11.3837 11.2511 10.1163 11.2511 9.33333 10.47L2.22583 3.36417C2.18785 3.32647 2.13091 3.31533 2.08151 3.33592C2.03211 3.35652 1.99995 3.40482 2 3.45834V12.2083C1.99978 12.5952 2.15335 12.9662 2.42689 13.2398C2.70043 13.5133 3.07149 13.6669 3.45833 13.6667H12.385L14.135 12.2717C14.5114 11.9714 15.0268 11.914 15.46 12.1242ZM15.3333 13.25V14.3575C21.9217 14.6358 22 21.5125 22 21.5833C22.0008 21.8005 21.8347 21.9818 21.6183 22H21.5833C21.3797 21.9999 21.2059 21.8526 21.1725 21.6517C21.1442 21.485 20.4358 17.6608 15.3333 17.4625V18.9317C15.3332 19.0965 15.236 19.2458 15.0853 19.3125C14.9346 19.3792 14.7587 19.3508 14.6367 19.24L11.3033 16.21C11.213 16.1278 11.1633 16.0102 11.1673 15.8881C11.1713 15.7661 11.2286 15.6519 11.3242 15.5758L14.6575 12.9242C14.7827 12.8248 14.9536 12.8057 15.0976 12.8751C15.2416 12.9445 15.3332 13.0902 15.3333 13.25Z" fill="#5A5A5A"/>
</g>
</svg>
