<?xml version="1.0" encoding="UTF-8"?>
<svg width="24px" height="24px" viewBox="0 0 24 24" version="1.1" xmlns="http://www.w3.org/2000/svg" xmlns:xlink="http://www.w3.org/1999/xlink">
    <title>12. Emails/email_action_settings</title>
    <g id="12.-Emails/email_action_settings" stroke="none" stroke-width="1" fill="none" fill-rule="evenodd">
        <path d="M16.79,10.3595954 C17.4430603,10.3595954 18.0188375,10.7878672 18.2066667,11.4133333 L18.2066667,11.4133333 L18.56,12.5741667 C18.6172232,12.7636348 18.8110641,12.876739 19.0041667,12.8333333 L19.0041667,12.8333333 L20.18,12.5575 C20.8160102,12.4128418 21.471998,12.6998876 21.7973362,13.2652105 C22.1226743,13.8305334 22.0412832,14.541934 21.5966667,15.0191667 L21.5966667,15.0191667 L20.7741667,15.9033333 C20.6392003,16.0510332 20.6392003,16.2773001 20.7741667,16.425 L20.7741667,16.425 L21.5966667,17.3116667 C22.0412832,17.7888993 22.1226743,18.5002999 21.7973362,19.0656228 C21.471998,19.6309457 20.8160102,19.9179915 20.18,19.7733333 L20.18,19.7733333 L19.0041667,19.5 C18.8111398,19.4557823 18.6170017,19.5692728 18.5608333,19.7591667 L18.5608333,19.7591667 L18.2075,20.92 C18.0196709,21.5454662 17.4438936,21.973738 16.7908333,21.973738 C16.1377731,21.973738 15.5619958,21.5454662 15.3741667,20.92 L15.3741667,20.92 L15.0208333,19.7591667 C14.9636102,19.5696985 14.7697693,19.4565944 14.5766667,19.5 L14.5766667,19.5 L13.4,19.7783333 C12.7643442,19.9216973 12.109413,19.6344051 11.7843898,19.0696295 C11.4593666,18.504854 11.5400138,17.7942431 11.9833333,17.3166667 L11.9833333,17.3166667 L12.8066667,16.43 C12.941633,16.2823001 12.941633,16.0560332 12.8066667,15.9083333 L12.8066667,15.9083333 L11.9833333,15.0216667 C11.5400138,14.5440902 11.4593666,13.8334794 11.7843898,13.2687038 C12.109413,12.7039282 12.7643442,12.416636 13.4,12.56 L13.4,12.56 L14.5758333,12.8333333 C14.7687358,12.8754589 14.9617609,12.7628308 15.02,12.5741667 L15.02,12.5741667 L15.3733333,11.4133333 C15.5611625,10.7878672 16.1369397,10.3595954 16.79,10.3595954 Z M16.79,13.6666667 C15.4092881,13.6666667 14.29,14.7859548 14.29,16.1666667 C14.29,17.5473785 15.4092881,18.6666667 16.79,18.6666667 C18.1707119,18.6666667 19.29,17.5473785 19.29,16.1666667 C19.29,14.7859548 18.1707119,13.6666667 16.79,13.6666667 Z M16.79,14.9166667 C17.4803559,14.9166667 18.04,15.4763107 18.04,16.1666667 C18.04,16.8570226 17.4803559,17.4166667 16.79,17.4166667 C16.0996441,17.4166667 15.54,16.8570226 15.54,16.1666667 C15.54,15.4763107 16.0996441,14.9166667 16.79,14.9166667 Z M19.3769864,3.35227372 L19.415,3.36166667 C19.4652959,3.38151543 19.4983333,3.43009589 19.4983333,3.48416667 L19.4983333,3.48416667 L19.4983333,11.0325 C19.4983333,11.0568478 19.480674,11.0776088 19.4566667,11.0816667 C19.4322809,11.0848393 19.4091207,11.070101 19.4016667,11.0466667 C19.0527262,9.89627511 17.9921482,9.10967922 16.79,9.10967922 C15.5878518,9.10967922 14.5272738,9.89627511 14.1783333,11.0466667 L14.1783333,11.0466667 L14.0625,11.4283333 L13.6833333,11.34 C12.9548163,11.1685131 12.1878214,11.3053652 11.5635666,11.7182221 C10.9393118,12.131079 10.5131728,12.7833176 10.3858333,13.5208333 C10.3680777,13.6201429 10.2817177,13.6925002 10.1808333,13.6925002 L10.1808333,13.6925002 L3.45833333,13.6925002 C3.0714915,13.6927212 2.70043015,13.5391469 2.42689163,13.2656084 C2.1533531,12.9920698 1.99977876,12.6210085 1.99999976,12.2341667 L1.99999976,12.2341667 L1.99999976,3.48416667 C2.00044702,3.43023777 2.03333744,3.38188885 2.08333333,3.36166667 C2.13223867,3.34190526 2.18820723,3.35303351 2.22583333,3.39 L2.22583333,3.39 L9.33333333,10.5 C10.116276,11.2811004 11.383724,11.2811004 12.1666667,10.5 L12.1666667,10.5 L19.2708333,3.39 C19.3088814,3.35254221 19.3656061,3.34139401 19.415,3.36166667 Z M18.0391667,2.02583333 C18.1097349,2.02600599 18.1801975,2.03129766 18.25,2.04166667 C18.386513,2.06139872 18.5001622,2.15656336 18.5435682,2.28748726 C18.5869743,2.41841116 18.5526868,2.56262219 18.455,2.66 L18.455,2.66 L11.3933333,9.72333333 C11.0361913,10.0765432 10.4613087,10.0765432 10.1041667,9.72333333 L10.1041667,9.72333333 L3.04166667,2.66 C2.94751972,2.56232254 2.91484268,2.42072204 2.95666667,2.29166667 C2.99871991,2.1591809 3.11252353,2.06218918 3.25,2.04166667 C3.31870168,2.03145713 3.38804465,2.0261659 3.4575,2.02583333 L3.4575,2.02583333 Z" id="ðŸ–-Color" fill="#5A5A5A"></path>
        <rect id="_Transparent_Rectangle_" x="0" y="0" width="24" height="24"></rect>
    </g>
</svg>