<svg width="24" height="24" viewBox="0 0 24 24" fill="none" xmlns="http://www.w3.org/2000/svg">
<g id="email_action_settings">
<path id="Shape" fill-rule="evenodd" clip-rule="evenodd" d="M11.3933 9.72333C11.0362 10.0765 10.4613 10.0765 10.1042 9.72333L3.04167 2.66C2.94752 2.56232 2.91484 2.42072 2.95667 2.29167C2.99872 2.15918 3.11252 2.06219 3.25 2.04167C3.3187 2.03146 3.38805 2.02617 3.4575 2.02583H18.0392C18.1097 2.02601 18.1802 2.0313 18.25 2.04167C18.3865 2.0614 18.5002 2.15656 18.5436 2.28749C18.587 2.41841 18.5527 2.56262 18.455 2.66L11.3933 9.72333ZM14.0625 11.4283L13.6833 11.34C12.9548 11.1685 12.1878 11.3054 11.5636 11.7182C10.9393 12.1311 10.5132 12.7833 10.3858 13.5208C10.3681 13.6201 10.2817 13.6925 10.1808 13.6925H3.45833C3.07149 13.6927 2.70043 13.5391 2.42689 13.2656C2.15335 12.9921 1.99978 12.621 2 12.2342V3.48417C2.00045 3.43024 2.03334 3.38189 2.08333 3.36167C2.13224 3.3419 2.18821 3.35303 2.22583 3.39L9.33333 10.5C10.1163 11.2811 11.3837 11.2811 12.1667 10.5L19.2708 3.39C19.3089 3.35254 19.3656 3.34139 19.415 3.36167C19.4653 3.38152 19.4983 3.4301 19.4983 3.48417V11.0325C19.4983 11.0568 19.4807 11.0776 19.4567 11.0817C19.4323 11.0848 19.4091 11.0701 19.4017 11.0467C19.0527 9.89628 17.9921 9.10968 16.79 9.10968C15.5879 9.10968 14.5273 9.89628 14.1783 11.0467L14.0625 11.4283ZM18.04 16.1667C18.04 16.857 17.4804 17.4167 16.79 17.4167C16.0996 17.4167 15.54 16.857 15.54 16.1667C15.54 15.4763 16.0996 14.9167 16.79 14.9167C17.4804 14.9167 18.04 15.4763 18.04 16.1667ZM21.5967 15.0192C22.0413 14.5419 22.1227 13.8305 21.7973 13.2652C21.472 12.6999 20.816 12.4128 20.18 12.5575L19.0042 12.8333C18.8111 12.8767 18.6172 12.7636 18.56 12.5742L18.2067 11.4133C18.0188 10.7879 17.4431 10.3596 16.79 10.3596C16.1369 10.3596 15.5612 10.7879 15.3733 11.4133L15.02 12.5742C14.9618 12.7628 14.7687 12.8755 14.5758 12.8333L13.4 12.56C12.7643 12.4166 12.1094 12.7039 11.7844 13.2687C11.4594 13.8335 11.54 14.5441 11.9833 15.0217L12.8067 15.9083C12.9416 16.056 12.9416 16.2823 12.8067 16.43L11.9833 17.3167C11.54 17.7942 11.4594 18.5049 11.7844 19.0696C12.1094 19.6344 12.7643 19.9217 13.4 19.7783L14.5767 19.5C14.7698 19.4566 14.9636 19.5697 15.0208 19.7592L15.3742 20.92C15.562 21.5455 16.1378 21.9737 16.7908 21.9737C17.4439 21.9737 18.0197 21.5455 18.2075 20.92L18.5608 19.7592C18.617 19.5693 18.8111 19.4558 19.0042 19.5L20.18 19.7733C20.816 19.918 21.472 19.6309 21.7973 19.0656C22.1227 18.5003 22.0413 17.7889 21.5967 17.3117L20.7742 16.425C20.6392 16.2773 20.6392 16.051 20.7742 15.9033L21.5967 15.0192ZM16.79 18.6667C15.4093 18.6667 14.29 17.5474 14.29 16.1667C14.29 14.786 15.4093 13.6667 16.79 13.6667C18.1707 13.6667 19.29 14.786 19.29 16.1667C19.29 17.5474 18.1707 18.6667 16.79 18.6667Z" fill="#5A5A5A"/>
</g>
</svg>
