<svg width="24" height="24" viewBox="0 0 24 24" fill="none" xmlns="http://www.w3.org/2000/svg">
<g id="email_action_edit">
<path id="Shape" fill-rule="evenodd" clip-rule="evenodd" d="M11.395 9.70167C11.0379 10.0549 10.463 10.0549 10.1058 9.70167L3.04667 2.63917C2.9498 2.54099 2.91573 2.39701 2.95833 2.26583C3.03333 2.0275 3.25833 2.005 3.45833 2.005H18.0417C18.2425 2.005 18.4625 2.0275 18.5458 2.26583C18.5892 2.39698 18.5551 2.54138 18.4575 2.63917L11.395 9.70167ZM19.4185 3.34092C19.4679 3.36152 19.5 3.40981 19.5 3.46333V8.07583C19.5004 8.13077 19.4788 8.18358 19.44 8.2225L14.0525 13.61C14.0135 13.6494 13.9604 13.6715 13.905 13.6717H3.45833C2.65292 13.6717 2 13.0188 2 12.2133V3.46333C1.99999 3.40926 2.03304 3.36068 2.08333 3.34083C2.13238 3.31975 2.18933 3.33101 2.22667 3.36917L9.33333 10.475C10.1163 11.2561 11.3837 11.2561 12.1667 10.475L19.2742 3.36917C19.3122 3.33147 19.3691 3.32032 19.4185 3.34092ZM11.6667 21.9875L14.2858 21.4633C14.3612 21.4483 14.4223 21.393 14.4446 21.3195C14.4669 21.2459 14.4469 21.166 14.3925 21.1117L12.0517 18.7717C11.9974 18.7174 11.9176 18.6975 11.8442 18.72C11.7709 18.7426 11.7157 18.8033 11.7 18.8783L11.1758 21.5C11.1487 21.6365 11.1914 21.7776 11.2899 21.876C11.3883 21.9744 11.5293 22.0172 11.6658 21.99L11.6667 21.9875ZM18.2725 11.8C19.1246 10.9503 20.5037 10.9503 21.3558 11.8C21.7661 12.2091 21.997 12.7644 21.9978 13.3437C21.9986 13.9231 21.7691 14.479 21.36 14.8892L15.7942 20.4558C15.7129 20.5369 15.5813 20.5369 15.5 20.4558L12.7067 17.6608C12.6256 17.5795 12.6256 17.448 12.7067 17.3667L18.2725 11.8Z" fill="#5A5A5A"/>
</g>
</svg>
