<?xml version="1.0" encoding="UTF-8"?>
<svg width="24px" height="24px" viewBox="0 0 24 24" version="1.1" xmlns="http://www.w3.org/2000/svg" xmlns:xlink="http://www.w3.org/1999/xlink">
    <title>12. Emails/email_action_check</title>
    <g id="12.-Emails/email_action_check" stroke="none" stroke-width="1" fill="none" fill-rule="evenodd">
        <path d="M16.1666667,10.3333333 C19.3868047,10.3370072 21.9963261,12.9465286 22,16.1666667 C22,19.3883277 19.3883277,22 16.1666667,22 C12.9450056,22 10.3333333,19.3883277 10.3333333,16.1666667 C10.3333333,12.9450056 12.9450056,10.3333333 16.1666667,10.3333333 Z M16.1666667,12 C13.8654802,12 12,13.8654802 12,16.1666667 C12,18.4678531 13.8654802,20.3333333 16.1666667,20.3333333 C18.466711,20.3305782 20.3305782,18.466711 20.3333333,16.1666667 C20.3333333,13.8654802 18.4678531,12 16.1666667,12 Z M17.9567123,14.209222 L18.0671794,14.2151497 C18.3627632,14.2507617 18.616895,14.4413607 18.733846,14.7151497 C18.850797,14.9889388 18.8127995,15.3043229 18.6341667,15.5425 L18.6341667,15.5425 L16.6666667,18.1666667 C16.4324566,18.4779431 16.0745894,18.6721398 15.6859584,18.6988482 C15.2973274,18.7255566 14.9162581,18.5821427 14.6416667,18.3058333 L14.6416667,18.3058333 L13.6258333,17.29 C13.3100232,16.9630176 13.3145397,16.4432627 13.6359845,16.1218179 C13.9574294,15.800373 14.4771843,15.7958565 14.8041667,16.1116667 L14.8041667,16.1116667 L15.5541667,16.8616667 L17.2958333,14.5383333 C17.4794661,14.3043229 17.7715956,14.1795377 18.0671794,14.2151497 Z M2.07416667,3.20833333 C2.11868497,3.18935003 2.17028879,3.19960464 2.20416667,3.23416667 L2.20416667,3.23416667 L8.63333333,9.66666667 C9.34192882,10.3742707 10.4897378,10.3742707 11.1983333,9.66666667 L11.1983333,9.66666667 L17.6291667,3.23583333 C17.6633496,3.20218099 17.7142895,3.1921185 17.7587008,3.21024557 C17.8031121,3.22837264 17.8324617,3.2712063 17.8333333,3.31916667 L17.8333333,3.31916667 L17.8333333,9.02916667 C17.8333333,9.0917339 17.8052384,9.15099411 17.756778,9.19057005 C17.7083177,9.23014599 17.6446364,9.24584678 17.5833333,9.23333333 C17.1174947,9.13494618 16.6427799,9.08468226 16.1666667,9.08333333 C13.7096855,9.08604281 11.4299437,10.3629758 10.1441667,12.4566667 C10.106242,12.5183101 10.039042,12.5558333 9.96666667,12.5558333 L9.96666667,12.5558333 L3.31916667,12.5558333 C2.96915748,12.5558333 2.63349593,12.4167358 2.38608022,12.1691638 C2.13866451,11.9215918 1.9997789,11.5858424 1.99999974,11.2358333 L1.99999974,11.2358333 L1.99999974,3.31916667 C2.00025094,3.27068945 2.02944982,3.22705517 2.07416667,3.20833333 Z M16.5133333,1.9999785 C16.5772186,1.99968045 16.6410289,2.00441746 16.7041667,2.01416667 C16.8258149,2.03480788 16.9261102,2.12095894 16.9648667,2.23810112 C17.0036231,2.3552433 16.9745001,2.48421234 16.8891667,2.57333333 L16.8891667,2.57333333 L10.5,8.96416667 C10.1772567,9.28493615 9.65607668,9.28493615 9.33333333,8.96416667 L9.33333333,8.96416667 L2.9425,2.57333333 C2.85714178,2.4840968 2.82811123,2.35498275 2.86705663,2.23779726 C2.90600203,2.12061177 3.00654113,2.03455887 3.12833333,2.01416667 C3.19146388,2.0043543 3.25527925,1.99961691 3.31916667,1.9999785 L3.31916667,1.9999785 Z" id="ðŸ–-Color" fill="#5A5A5A"></path>
        <rect id="_Transparent_Rectangle_" x="0" y="0" width="24" height="24"></rect>
    </g>
</svg>