<svg width="24" height="24" viewBox="0 0 24 24" fill="none" xmlns="http://www.w3.org/2000/svg">
<g id="email_action_reply">
<path id="Shape" fill-rule="evenodd" clip-rule="evenodd" d="M18.9255 10.799C16.1882 8.37173 12.4482 8.20536 10.8718 8.25991C10.8101 8.26239 10.75 8.23952 10.7055 8.1966C10.6611 8.15368 10.6361 8.09444 10.6364 8.03264V5.69446C10.6354 5.34177 10.4306 5.02146 10.1108 4.87268C9.79102 4.72389 9.41405 4.77348 9.14365 4.99991L2.33092 10.7872C2.12131 10.9599 1.99993 11.2174 2.00001 11.489C1.99848 11.7553 2.1154 12.0084 2.31911 12.1799L9.1491 18.2135C9.42079 18.4375 9.79733 18.4844 10.1157 18.334C10.434 18.1836 10.6368 17.8629 10.6364 17.5108V14.7517C10.6364 14.6439 10.7125 14.5511 10.8182 14.5299C12.5527 14.1663 18.2136 13.4772 21.1455 18.9754C21.2441 19.1582 21.4542 19.2508 21.6557 19.2004C21.8572 19.1501 21.999 18.9695 22 18.7617C22 15.2881 20.9655 12.6099 18.9255 10.799Z" fill="#5A5A5A"/>
</g>
</svg>
