<?xml version="1.0" encoding="UTF-8"?>
<svg width="24px" height="24px" viewBox="0 0 24 24" version="1.1" xmlns="http://www.w3.org/2000/svg" xmlns:xlink="http://www.w3.org/1999/xlink">
    <title>12. Emails/mailbox_full</title>
    <g id="12.-Emails/mailbox_full" stroke="none" stroke-width="1" fill="none" fill-rule="evenodd">
        <path d="M14.5262983,2 C14.8751097,2 15.1578773,2.28276753 15.1578773,2.63157895 L15.1578773,2.63157895 L15.1578773,9.78947368 C15.1578773,10.1382851 15.4406448,10.4210526 15.7894562,10.4210526 C16.1382676,10.4210526 16.4210352,10.1382851 16.4210352,9.78947368 L16.4210352,9.78947368 L16.4210352,7.47368421 C16.4210352,7.35741374 16.515291,7.26315789 16.6315615,7.26315789 L16.6315615,7.26315789 L17.8955615,7.26315789 C18.011832,7.26315789 18.1060878,7.35741374 18.1060878,7.47368421 L18.1060878,7.47368421 L18.1052457,15.8947368 C18.1052457,16.0110073 18.0109899,16.1052632 17.8947194,16.1052632 L17.8947194,16.1052632 L12.2096667,16.1052632 C12.0933963,16.1052632 11.9991404,16.199519 11.9991404,16.3157895 L11.9991404,16.3157895 L11.9991404,21.1578947 C11.9991404,21.6229766 11.6221171,22 11.1570352,22 C10.6919533,22 10.3149299,21.6229766 10.3149299,21.1578947 L10.3149299,21.1578947 L10.3149299,16.3157895 C10.3149299,16.199519 10.2206741,16.1052632 10.1044036,16.1052632 L10.1044036,16.1052632 L2.73682464,16.1052632 C2.50428369,16.1052632 2.31577201,15.9167515 2.31577201,15.6842105 L2.31577201,15.6842105 L2.31577201,10.8842105 C2.31577201,8.88435838 3.9369725,7.26315789 5.93682464,7.26315789 L5.93682464,7.26315789 L13.6841931,7.26315789 C13.8004635,7.26315789 13.8947194,7.16890205 13.8947194,7.05263158 L13.8947194,7.05263158 L13.8947194,6 C13.8949443,5.94409629 13.8728362,5.89041728 13.833306,5.85088707 C13.7937758,5.81135685 13.7400968,5.78924872 13.6841931,5.78947368 L13.6841931,5.78947368 L9.89471938,5.78947368 C9.54590796,5.78947368 9.26314043,5.50670616 9.26314043,5.15789474 L9.26314043,5.15789474 L9.26314043,2.63157895 C9.26314043,2.28276753 9.54590796,2 9.89471938,2 L9.89471938,2 Z M21.2631404,9.36842105 C21.3849327,9.36851375 21.5007184,9.42133903 21.5806141,9.51326316 C21.661796,9.60518834 21.6995272,9.72758492 21.6841931,9.84926316 L21.6841931,9.84926316 L20.8420878,15.744 C20.8121263,15.9529351 20.6320967,16.1074005 20.4210352,16.1052851 L20.4210352,16.1052851 L19.5789299,16.1052851 C19.4626594,16.1052851 19.3684036,16.0110073 19.3684036,15.8947368 L19.3684036,15.8947368 L19.3684036,9.57894737 C19.3684036,9.46267689 19.4626594,9.36842105 19.5789299,9.36842105 L19.5789299,9.36842105 Z" id="ðŸ–-Color" fill="#5A5A5A"></path>
        <rect id="_Transparent_Rectangle_" x="0" y="0" width="24" height="24"></rect>
    </g>
</svg>