<svg width="24" height="24" viewBox="0 0 24 24" fill="none" xmlns="http://www.w3.org/2000/svg">
<g id="read_email_letter">
<path id="Shape" fill-rule="evenodd" clip-rule="evenodd" d="M5.33398 9.5C5.79422 9.5 6.16732 9.1269 6.16732 8.66667V3.66667H14.989L17.834 6.51167V8.66667C17.834 9.1269 18.2071 9.5 18.6673 9.5C19.1276 9.5 19.5007 9.1269 19.5007 8.66667V6.16667C19.5006 5.94567 19.4128 5.73374 19.2565 5.5775L15.9232 2.24417C15.7669 2.08788 15.555 2.00005 15.334 2H6.16732C5.24684 2 4.50065 2.74619 4.50065 3.66667V8.66667C4.50065 9.1269 4.87375 9.5 5.33398 9.5ZM4.50065 10.75H19.5007C20.4073 10.7379 21.1527 11.4618 21.1673 12.3683V20.3817C21.1527 21.2882 20.4073 22.0121 19.5007 22H4.50065C3.59403 22.0121 2.8486 21.2882 2.83398 20.3817V12.3683C2.8486 11.4618 3.59403 10.7379 4.50065 10.75ZM19.084 15.75V14.0833C19.084 13.6231 18.7109 13.25 18.2507 13.25H16.584C16.1237 13.25 15.7507 13.6231 15.7507 14.0833V15.75C15.7507 16.2102 16.1237 16.5833 16.584 16.5833H18.2507C18.7109 16.5833 19.084 16.2102 19.084 15.75ZM5.12565 18.6667C5.12565 18.3215 5.40547 18.0417 5.75065 18.0417H10.334C10.6792 18.0417 10.959 18.3215 10.959 18.6667C10.959 19.0118 10.6792 19.2917 10.334 19.2917H5.75065C5.40547 19.2917 5.12565 19.0118 5.12565 18.6667ZM5.75065 15.125C5.40547 15.125 5.12565 15.4048 5.12565 15.75C5.12565 16.0952 5.40547 16.375 5.75065 16.375H7.41732C7.7625 16.375 8.04232 16.0952 8.04232 15.75C8.04232 15.4048 7.7625 15.125 7.41732 15.125H5.75065ZM7.62565 6.58333C7.62565 6.23816 7.90547 5.95833 8.25065 5.95833H13.2507C13.5958 5.95833 13.8757 6.23816 13.8757 6.58333C13.8757 6.92851 13.5958 7.20833 13.2507 7.20833H8.25065C7.90547 7.20833 7.62565 6.92851 7.62565 6.58333Z" fill="#5A5A5A"/>
</g>
</svg>
