<svg width="24" height="24" viewBox="0 0 24 24" fill="none" xmlns="http://www.w3.org/2000/svg">
<g id="read_email_at_1">
<path id="Shape" fill-rule="evenodd" clip-rule="evenodd" d="M12 2C6.47715 2 2 6.47715 2 12C2 17.5228 6.47715 22 12 22C17.5228 22 22 17.5228 22 12C21.994 6.47963 17.5204 2.00597 12 2ZM16.6383 15.0217C17.8633 15.0217 18.5033 13.4867 18.5033 11.97C18.5033 10.4895 17.9492 9.06255 16.95 7.97C15.5416 6.58255 13.6131 5.85388 11.6392 5.96333C8.23164 6.00952 5.50479 8.80573 5.54417 12.2133C5.48984 15.6054 8.19144 18.4013 11.5833 18.4633C12.644 18.4625 13.6847 18.1746 14.595 17.63C14.8914 17.453 15.2751 17.5499 15.4521 17.8463C15.629 18.1426 15.5322 18.5264 15.2358 18.7033C14.1316 19.3628 12.8695 19.7113 11.5833 19.7117C7.5015 19.6486 4.24084 16.2936 4.29417 12.2117C4.25575 8.1141 7.54169 4.75882 11.6392 4.71167C13.9638 4.58384 16.2314 5.4603 17.8658 7.11833C19.0778 8.44347 19.7499 10.1742 19.75 11.97C19.75 14.4625 18.44 16.2717 16.635 16.2717C15.8217 16.3322 15.0433 15.9309 14.6208 15.2333C14.5903 15.1793 14.5373 15.1417 14.4762 15.1308C14.4152 15.1198 14.3524 15.1366 14.305 15.1767C13.6679 15.7171 12.8596 16.0139 12.0242 16.0142C10.0382 16.0142 8.42833 14.4043 8.42833 12.4183C8.42833 10.4324 10.0382 8.8225 12.0242 8.8225C12.7373 8.82372 13.4328 9.04392 14.0167 9.45333C14.0803 9.49772 14.1634 9.50305 14.2322 9.46716C14.301 9.43127 14.3441 9.36011 14.3442 9.2825V8.77333C14.3442 8.42816 14.624 8.14833 14.9692 8.14833C15.3143 8.14833 15.5942 8.42816 15.5942 8.77333V14.1717C15.5975 14.7358 15.9483 15.0217 16.6383 15.0217ZM9.84038 11.5021C10.2119 10.6259 11.0759 10.0609 12.0275 10.0717C13.3155 10.079 14.354 11.1286 14.3475 12.4167C14.3481 13.3684 13.7739 14.2262 12.8938 14.5883C12.0136 14.9505 11.002 14.7452 10.3326 14.0686C9.66328 13.3921 9.46884 12.3782 9.84038 11.5021Z" fill="#5A5A5A"/>
</g>
</svg>
