<svg width="24" height="24" viewBox="0 0 24 24" fill="none" xmlns="http://www.w3.org/2000/svg">
<g id="send_email_1">
<path id="Shape" fill-rule="evenodd" clip-rule="evenodd" d="M21.2904 2.18677C21.0296 1.97338 20.6725 1.94068 20.38 2.10344L3.0624 11.7043C2.63662 11.9363 2.37824 12.404 2.39967 12.9041C2.42111 13.4041 2.71846 13.846 3.1624 14.0376L5.7656 15.1876C5.76559 15.2572 5.77723 15.3263 5.8 15.3918L7.8 21.0134C8.01299 21.6094 8.56075 22.0032 9.1712 21.9993C9.53165 21.996 9.8785 21.8555 10.1464 21.6043C10.1776 21.5751 12.3784 19.0393 12.8664 18.4759C12.9235 18.41 13.0145 18.3893 13.0928 18.4243L15.6184 19.5401C15.9523 19.6872 16.3306 19.6791 16.6584 19.5176C16.9839 19.3574 17.2273 19.0589 17.3264 18.6984L21.5696 3.08261C21.6597 2.75264 21.5494 2.39866 21.2904 2.18677ZM7.0712 15.3709L14.8248 8.65177C14.861 8.61353 14.9111 8.59321 14.9626 8.59591C15.0141 8.59862 15.0621 8.6241 15.0944 8.66594C15.1351 8.69824 15.1601 8.74744 15.1631 8.80063C15.166 8.85382 15.1465 8.90568 15.1096 8.94261L9.3192 16.3218C9.25292 16.4058 9.20954 16.5068 9.1936 16.6143L8.6872 19.9059L7.0712 15.3709Z" fill="#5A5A5A"/>
</g>
</svg>
