<svg fill="none" height="24" viewBox="0 0 25 24" width="25" xmlns="http://www.w3.org/2000/svg">
  <path clip-rule="evenodd"
        d="M17.6165 7.975C17.5385 7.88617 17.4264 7.83467 17.3082 7.83333H14.1665V6.65833C14.1665 6.425 14.2165 6.15833 14.5915 6.15833H17.0915C17.2027 6.16307 17.3099 6.11709 17.3832 6.03333C17.4566 5.95714 17.4983 5.85583 17.4998 5.75V2.41667C17.4998 2.18655 17.3133 2 17.0832 2H13.4748C9.47484 2 9.1665 5.41667 9.1665 6.45833V7.83333H7.08317C6.85305 7.83333 6.6665 8.01988 6.6665 8.25V11.5833C6.6665 11.8135 6.85305 12 7.08317 12H9.1665V21.5833C9.1665 21.8135 9.35305 22 9.58317 22H13.7498C13.98 22 14.1665 21.8135 14.1665 21.5833V12H16.9582C17.173 12.0011 17.3534 11.8387 17.3748 11.625L17.7248 8.29167C17.7346 8.17561 17.6953 8.06078 17.6165 7.975Z"
        fill="#505050" fill-rule="evenodd"/>
</svg>
