<svg fill="none" height="24" viewBox="0 0 25 24" width="25" xmlns="http://www.w3.org/2000/svg">
  <path clip-rule="evenodd"
        d="M21.3065 3.23589C20.2056 2.09274 18.6391 1.5 16.8609 1.5H8.13911C4.45565 1.5 2 3.95565 2 7.63911V16.3185C2 18.1391 2.59274 19.7056 3.77823 20.8488C4.92137 21.9496 6.44556 22.5 8.18145 22.5H16.8185C18.6391 22.5 20.1633 21.9073 21.2641 20.8488C22.4073 19.748 23 18.1815 23 16.3609V7.63911C23 5.86089 22.4073 4.33669 21.3065 3.23589ZM18.131 7.63924C18.8091 7.63924 19.3588 7.08952 19.3588 6.41142C19.3588 5.73331 18.8091 5.18359 18.131 5.18359C17.4529 5.18359 16.9032 5.73331 16.9032 6.41142C16.9032 7.08952 17.4529 7.63924 18.131 7.63924ZM12.5 6.53857C9.53627 6.53857 7.08063 8.95188 7.08063 11.9579C7.08063 14.964 9.49393 17.3773 12.5 17.3773C15.506 17.3773 17.9193 14.9216 17.9193 11.9579C17.9193 8.99422 15.4637 6.53857 12.5 6.53857ZM12.5 15.4299C10.5948 15.4299 9.02826 13.8633 9.02826 11.9581C9.02826 10.0529 10.5948 8.48633 12.5 8.48633C14.4053 8.48633 15.9718 10.0529 15.9718 11.9581C15.9718 13.8633 14.4053 15.4299 12.5 15.4299ZM19.9093 19.4513C20.6714 18.7315 21.1371 17.6731 21.1371 16.3606V7.6388C21.1371 6.41098 20.7138 5.35251 19.994 4.59041C19.2319 3.82831 18.1734 3.44727 16.9033 3.44727H8.1815C6.91134 3.44727 5.81054 3.82831 5.09078 4.54807C4.32868 5.31017 3.94763 6.36864 3.94763 7.6388V16.3182C3.94763 17.6307 4.32868 18.6892 5.09078 19.4513C5.85287 20.1711 6.91134 20.5521 8.1815 20.5521H16.8186C18.0888 20.5521 19.1472 20.1711 19.9093 19.4513Z"
        fill="#505050" fill-rule="evenodd"/>
</svg>
