<svg fill="none" height="24" viewBox="0 0 25 24" width="25" xmlns="http://www.w3.org/2000/svg">
  <path clip-rule="evenodd"
        d="M22.298 7.18738C22.4235 7.083 22.4797 6.91682 22.4431 6.75768C22.4065 6.59853 22.2834 6.47354 22.1249 6.43448L21.4412 6.26139C21.3153 6.22988 21.2102 6.14353 21.1549 6.02616C21.0996 5.90878 21.0998 5.77277 21.1556 5.65561L21.5364 4.88539C21.6099 4.73298 21.5878 4.55173 21.4798 4.42145C21.3719 4.29117 21.1979 4.23575 21.0345 4.2796L19.3036 4.76423C19.1729 4.80237 19.0318 4.77672 18.9229 4.695C18.1739 4.13325 17.2629 3.82959 16.3266 3.82959C13.9369 3.82959 11.9996 5.76688 11.9996 8.15664V8.46819C12.0004 8.57823 11.9184 8.67134 11.8092 8.68454C9.37739 8.97013 7.04943 7.73259 4.53974 4.84212C4.42859 4.71953 4.2582 4.66942 4.09838 4.71231C3.95453 4.77843 3.85828 4.91783 3.84741 5.07578C3.50078 6.49968 3.64093 7.99864 4.2455 9.3336C4.28197 9.40578 4.27514 9.49228 4.22779 9.55783C4.18044 9.62339 4.10048 9.65707 4.0205 9.64515L3.05124 9.45476C2.91153 9.4323 2.76967 9.47956 2.67135 9.58133C2.57303 9.6831 2.53069 9.8265 2.55795 9.96535C2.7093 11.3107 3.46395 12.5143 4.60897 13.2366C4.68361 13.2728 4.73102 13.3484 4.73102 13.4313C4.73102 13.5143 4.68361 13.5899 4.60897 13.626L4.15031 13.8078C4.03768 13.8529 3.94919 13.9433 3.90641 14.0568C3.86363 14.1704 3.87048 14.2967 3.9253 14.4049C4.44016 15.5315 5.47519 16.3336 6.69461 16.5511C6.78018 16.5822 6.83715 16.6635 6.83715 16.7545C6.83715 16.8455 6.78018 16.9268 6.69461 16.9579C5.51797 17.4445 4.25525 17.6888 2.982 17.6762C2.74303 17.6284 2.51055 17.7834 2.46276 18.0223C2.41496 18.2613 2.56994 18.4938 2.80892 18.5416C5.01359 19.5872 7.41393 20.1563 9.85336 20.2118C11.9991 20.2445 14.1067 19.6424 15.9112 18.481C18.9261 16.4685 20.7326 13.0796 20.7229 9.45476V8.70185C20.724 8.57467 20.781 8.45439 20.8787 8.373L22.298 7.18738Z"
        fill="#505050" fill-rule="evenodd"/>
</svg>
