<svg xmlns="http://www.w3.org/2000/svg" width="16" height="16.001" viewBox="0 0 16 16.001">
  <defs>
    <style>.a {
      fill: #fff;
    }</style>
  </defs>
  <path class="a"
        d="M8.778,16H3a3,3,0,0,1-3-3V3A3,3,0,0,1,3,0H13a3,3,0,0,1,3,3V13a3,3,0,0,1-3,3H11V10.462h1.556L13,8.384H11V7a.863.863,0,0,1,.1-.725.729.729,0,0,1,.586-.209,1.986,1.986,0,0,1,.2.011H13V4a1.282,1.282,0,0,1-.326.026c-.132,0-.29,0-.473-.011C11.971,4.008,11.713,4,11.444,4a2.652,2.652,0,0,0-1.931.716,2.817,2.817,0,0,0-.735,2.053V8.384H7v2.077H8.778V16Z"/>
</svg>
