<svg xmlns="http://www.w3.org/2000/svg" width="1118.187" height="774.306" viewBox="0 0 1118.187 774.306">
  <defs>
    <clipPath id="prefix__clip-path">
      <path d="M0 0H102V18H0z" style="fill:none"/>
    </clipPath>
    <style>
      .prefix__cls-5 {
        fill: #aab0bb
      }

      .prefix__cls-6 {
        fill: #e2e6eb
      }

      .prefix__cls-7 {
        fill: #fff
      }

      .prefix__cls-8 {
        fill: #3f3d56
      }

      .prefix__cls-9 {
        fill: #6c63ff
      }

      .prefix__cls-10 {
        fill: #3abf7c
      }

      .prefix__cls-11 {
        fill: #1291bf
      }
    </style>
  </defs>
  <g id="prefix__Images" transform="translate(385.986 302.063)">
    <g id="prefix__Web_-_2" data-name="Web - 2" transform="rotate(-14.98 -393.618 3441.622)">
      <path id="prefix__Rectangle_705" d="M0 0h752.459v518a4 4 0 0 1-4 4H4a4 4 0 0 1-4-4V0z" data-name="Rectangle 705"
            transform="translate(760.806 155.161)" style="fill:#f9fafc"/>
      <path id="prefix__Rectangle_706" d="M4 0h744.459a4 4 0 0 1 4 4v74H0V4a4 4 0 0 1 4-4z" data-name="Rectangle 706"
            transform="translate(760.806 77.161)" style="fill:#c8d1db;opacity:.54"/>
      <g id="prefix__Repeat_Grid_129" data-name="Repeat Grid 129" transform="translate(783.806 108.161)">
        <g id="prefix__Group_556" data-name="Group 556" transform="translate(-67 -73)">
          <circle id="prefix__Ellipse_204" cx="2.5" cy="2.5" r="2.5" class="prefix__cls-5" data-name="Ellipse 204"
                  transform="translate(67 73)"/>
        </g>
        <g id="prefix__Group_557" data-name="Group 557" transform="translate(-58 -73)">
          <circle id="prefix__Ellipse_205" cx="2.5" cy="2.5" r="2.5" class="prefix__cls-5" data-name="Ellipse 205"
                  transform="translate(67 73)"/>
        </g>
        <g id="prefix__Group_558" data-name="Group 558" transform="translate(-49 -73)">
          <circle id="prefix__Ellipse_206" cx="2.5" cy="2.5" r="2.5" class="prefix__cls-5" data-name="Ellipse 206"
                  transform="translate(67 73)"/>
        </g>
        <g id="prefix__Group_558-2" data-name="Group 558" transform="translate(-40 -73)">
          <circle id="prefix__Ellipse_206-2" cx="2.5" cy="2.5" r="2.5" class="prefix__cls-5" data-name="Ellipse 206"
                  transform="translate(67 73)"/>
        </g>
        <g id="prefix__Group_558-3" data-name="Group 558" transform="translate(-31 -73)">
          <circle id="prefix__Ellipse_206-3" cx="2.5" cy="2.5" r="2.5" class="prefix__cls-5" data-name="Ellipse 206"
                  transform="translate(67 73)"/>
        </g>
        <g id="prefix__Group_558-4" data-name="Group 558" transform="translate(-22 -73)">
          <circle id="prefix__Ellipse_206-4" cx="2.5" cy="2.5" r="2.5" class="prefix__cls-5" data-name="Ellipse 206"
                  transform="translate(67 73)"/>
        </g>
        <g id="prefix__Group_558-5" data-name="Group 558" transform="translate(-13 -73)">
          <circle id="prefix__Ellipse_206-5" cx="2.5" cy="2.5" r="2.5" class="prefix__cls-5" data-name="Ellipse 206"
                  transform="translate(67 73)"/>
        </g>
        <g id="prefix__Group_558-6" data-name="Group 558" transform="translate(-4 -73)">
          <circle id="prefix__Ellipse_206-6" cx="2.5" cy="2.5" r="2.5" class="prefix__cls-5" data-name="Ellipse 206"
                  transform="translate(67 73)"/>
        </g>
        <g id="prefix__Group_558-7" data-name="Group 558" transform="translate(5 -73)">
          <circle id="prefix__Ellipse_206-7" cx="2.5" cy="2.5" r="2.5" class="prefix__cls-5" data-name="Ellipse 206"
                  transform="translate(67 73)"/>
        </g>
        <g id="prefix__Group_558-8" data-name="Group 558" transform="translate(14 -73)">
          <circle id="prefix__Ellipse_206-8" cx="2.5" cy="2.5" r="2.5" class="prefix__cls-5" data-name="Ellipse 206"
                  transform="translate(67 73)"/>
        </g>
        <g id="prefix__Group_558-9" data-name="Group 558" transform="translate(23 -73)">
          <circle id="prefix__Ellipse_206-9" cx="2.5" cy="2.5" r="2.5" class="prefix__cls-5" data-name="Ellipse 206"
                  transform="translate(67 73)"/>
        </g>
        <g id="prefix__Group_558-10" data-name="Group 558" transform="translate(32 -73)">
          <circle id="prefix__Ellipse_206-10" cx="2.5" cy="2.5" r="2.5" class="prefix__cls-5" data-name="Ellipse 206"
                  transform="translate(67 73)"/>
        </g>
      </g>
      <g id="prefix__Group_564" data-name="Group 564" transform="translate(822.54 221.893)">
        <rect id="prefix__Rectangle_707" width="137" height="24" class="prefix__cls-5" data-name="Rectangle 707" rx="12"
              transform="translate(182.618)"/>
        <g id="prefix__Group">
          <g id="prefix__Group_561" data-name="Group 561" transform="translate(187.266)">
            <rect id="prefix__Rectangle_719" width="137" height="24" class="prefix__cls-5" data-name="Rectangle 719"
                  rx="12"/>
          </g>
          <path id="prefix__ic_insert_photo_24px"
                d="M128.114 114.213V16.9A13.942 13.942 0 0 0 114.213 3H16.9A13.942 13.942 0 0 0 3 16.9v97.311a13.942 13.942 0 0 0 13.9 13.9h97.311a13.942 13.942 0 0 0 13.903-13.898zm-86.885-38.23l17.377 20.922 24.328-31.348 31.279 41.7H16.9z"
                class="prefix__cls-5" transform="translate(-3 -2.575)"/>
        </g>
        <g id="prefix__Group_567" data-name="Group 567" transform="translate(174.725 56)">
          <path id="prefix__Path_1366" d="M11.5 0h56a11.5 11.5 0 0 1 0 23h-56a11.5 11.5 0 0 1 0-23z"
                class="prefix__cls-6" data-name="Path 1366"/>
          <rect id="prefix__Rectangle_721" width="259" height="23" class="prefix__cls-6" data-name="Rectangle 721"
                rx="11.5" transform="translate(101)"/>
          <rect id="prefix__Rectangle_722" width="344" height="24" class="prefix__cls-6" data-name="Rectangle 722"
                rx="12" transform="translate(0 38)"/>
          <rect id="prefix__Rectangle_723" width="73" height="23" class="prefix__cls-6" data-name="Rectangle 723"
                rx="11.5" transform="translate(382)"/>
          <rect id="prefix__Rectangle_726" width="48" height="24" class="prefix__cls-6" data-name="Rectangle 726"
                rx="12" transform="translate(211 77)"/>
          <rect id="prefix__Rectangle_727" width="189" height="24" class="prefix__cls-6" data-name="Rectangle 727"
                rx="12" transform="translate(0 77)"/>
          <rect id="prefix__Rectangle_729" width="172" height="24" class="prefix__cls-6" data-name="Rectangle 729"
                rx="12" transform="translate(283 77)"/>
          <rect id="prefix__Rectangle_730" width="87" height="24" class="prefix__cls-6" data-name="Rectangle 730"
                rx="12" transform="translate(368 38)"/>
        </g>
      </g>
      <g id="prefix__Group_568" data-name="Group 568" transform="translate(822.54 439.161)">
        <rect id="prefix__Rectangle_707-2" width="137" height="24" class="prefix__cls-5" data-name="Rectangle 707"
              rx="12" transform="translate(182.618)"/>
        <g id="prefix__Group-2" data-name="Group">
          <g id="prefix__Group_561-2" data-name="Group 561" transform="translate(187.266)">
            <rect id="prefix__Rectangle_719-2" width="137" height="24" class="prefix__cls-5" data-name="Rectangle 719"
                  rx="12"/>
          </g>
          <path id="prefix__ic_insert_photo_24px-2"
                d="M128.114 114.213V16.9A13.942 13.942 0 0 0 114.213 3H16.9A13.942 13.942 0 0 0 3 16.9v97.311a13.942 13.942 0 0 0 13.9 13.9h97.311a13.942 13.942 0 0 0 13.903-13.898zm-86.885-38.23l17.377 20.922 24.328-31.348 31.279 41.7H16.9z"
                class="prefix__cls-5" data-name="ic_insert_photo_24px" transform="translate(-3 -2.8)"/>
        </g>
        <g id="prefix__Group_567-2" data-name="Group 567" transform="translate(174.725 56)">
          <rect id="prefix__Rectangle_720" width="79" height="23" class="prefix__cls-6" data-name="Rectangle 720"
                rx="11.5"/>
          <rect id="prefix__Rectangle_721-2" width="259" height="23" class="prefix__cls-6" data-name="Rectangle 721"
                rx="11.5" transform="translate(101)"/>
          <rect id="prefix__Rectangle_722-2" width="344" height="24" class="prefix__cls-6" data-name="Rectangle 722"
                rx="12" transform="translate(0 38)"/>
          <rect id="prefix__Rectangle_723-2" width="73" height="23" class="prefix__cls-6" data-name="Rectangle 723"
                rx="11.5" transform="translate(382)"/>
          <rect id="prefix__Rectangle_726-2" width="48" height="24" class="prefix__cls-6" data-name="Rectangle 726"
                rx="12" transform="translate(211 77)"/>
          <rect id="prefix__Rectangle_727-2" width="189" height="24" class="prefix__cls-6" data-name="Rectangle 727"
                rx="12" transform="translate(0 77)"/>
          <rect id="prefix__Rectangle_729-2" width="172" height="24" class="prefix__cls-6" data-name="Rectangle 729"
                rx="12" transform="translate(283 77)"/>
          <rect id="prefix__Rectangle_730-2" width="87" height="24" class="prefix__cls-6" data-name="Rectangle 730"
                rx="12" transform="translate(368 38)"/>
        </g>
      </g>
    </g>
    <g id="prefix__Trees">
      <g id="prefix__Tree_-_Green" data-name="Tree - Green" transform="translate(336.735 292.09)">
        <path id="prefix__Rectangle_103" d="M0 0H14.893V13.163H0z" class="prefix__cls-7" data-name="Rectangle 103"
              transform="translate(44.527 94.936)"/>
        <path id="prefix__Rectangle_104" d="M0 0H14.893V12.955H0z" class="prefix__cls-7" data-name="Rectangle 104"
              transform="translate(44.527 72.152)"/>
        <g id="prefix__Group_8" data-name="Group 8" transform="translate(37.659 86.474)">
          <ellipse id="prefix__Ellipse_175" cx="9.641" cy="19.672" class="prefix__cls-8" data-name="Ellipse 175"
                   rx="9.641" ry="19.672"/>
          <path id="prefix__Path_300"
                d="M251.174 580.442c3.861-23.167.039-46.251 0-46.481l-.751.127c.039.229 3.839 23.192 0 46.229z"
                class="prefix__cls-9" data-name="Path 300" transform="translate(-242.424 -528.572)"/>
          <path id="prefix__Rectangle_112" d="M0 0H9.887V0.762H0z" class="prefix__cls-9" data-name="Rectangle 112"
                transform="scale(-1) rotate(28.15 36.658 -29.347)"/>
          <path id="prefix__Rectangle_113" d="M0 0H0.762V9.887H0z" class="prefix__cls-9" data-name="Rectangle 113"
                transform="scale(-1) rotate(61.85 14.11 -20.194)"/>
        </g>
        <g id="prefix__Group_9" data-name="Group 9">
          <ellipse id="prefix__Ellipse_176" cx="25.804" cy="52.65" class="prefix__cls-10" data-name="Ellipse 176"
                   rx="25.804" ry="52.65"/>
          <path id="prefix__Path_301"
                d="M313.757 424.747c10.317-61.9.1-123.578 0-124.193l-.751.127c.1.615 10.3 62.169 0 123.941z"
                class="prefix__cls-8" data-name="Path 301" transform="translate(-290.966 -286.021)"/>
          <path id="prefix__Rectangle_114" d="M0 0H26.462V0.762H0z" class="prefix__cls-8" data-name="Rectangle 114"
                transform="scale(-1) rotate(28.15 96.845 -78.86)"/>
          <path id="prefix__Rectangle_115" d="M0 0H0.762V26.462H0z" class="prefix__cls-8" data-name="Rectangle 115"
                transform="rotate(-118.156 32.068 22.44)"/>
        </g>
        <ellipse id="prefix__Ellipse_177" cx="18.857" cy="38.475" class="prefix__cls-10" data-name="Ellipse 177"
                 rx="18.857" ry="38.475" transform="translate(51.608 37.332)"/>
        <path id="prefix__Path_302"
              d="M179.947 492.163c7.542-45.253.076-90.341 0-90.791l-.751.127c.076.449 7.52 45.416 0 90.538z"
              class="prefix__cls-8" data-name="Path 302" transform="translate(-111.582 -353.437)"/>
        <path id="prefix__Rectangle_116" d="M0 0H19.338V0.762H0z" class="prefix__cls-8" data-name="Rectangle 116"
              transform="scale(-1) rotate(28.15 119.595 -179.107)"/>
        <path id="prefix__Rectangle_117" d="M0 0H0.762V19.338H0z" class="prefix__cls-8" data-name="Rectangle 117"
              transform="scale(-1) rotate(61.85 32.772 -100.913)"/>
      </g>
      <g id="prefix__Mountain" transform="translate(-113.213 170.09)">
        <path id="prefix__Path_1" d="M114.951 0l115.03 199.622H-.08z" class="prefix__cls-11" data-name="Path 1"
              transform="translate(.272 61.314)"/>
        <path id="prefix__Path_288" d="M114.951 0l115.03 199.622H-.08z" class="prefix__cls-11" data-name="Path 288"
              transform="translate(247.967 61.314)"/>
        <path id="prefix__Path_287" d="M150.416 0l150.436 261.065H-.02z" data-name="Path 287"
              transform="translate(97.354)" style="fill:#107ba2"/>
      </g>
      <g id="prefix__Tree_-_Yellow" data-name="Tree - Yellow" transform="translate(-129.084 194.053)">
        <circle id="prefix__Ellipse_174" cx="61.283" cy="61.283" r="61.283" data-name="Ellipse 174"
                style="fill:#ffe200"/>
        <path id="prefix__Path_295"
              d="M223.678 512.356h-3.46V344.041a57.937 57.937 0 0 1 1.73-14.051 57.935 57.935 0 0 1 1.73 14.051z"
              class="prefix__cls-8" data-name="Path 295" transform="translate(-160.418 -275.625)"/>
        <path id="prefix__Path_296"
              d="M222.255 431.791l-1.822-2.941 25.6-15.862a10.9 10.9 0 0 1 5.919-1.633 10.9 10.9 0 0 1-4.1 4.574z"
              class="prefix__cls-8" data-name="Path 296" transform="translate(-160.531 -318.389)"/>
        <path id="prefix__Path_297"
              d="M199.048 404.3l1.822-2.941-17.615-10.919a6.555 6.555 0 0 0-4.682-.867 6.555 6.555 0 0 0 2.86 3.807z"
              class="prefix__cls-8" data-name="Path 297" transform="translate(-138.529 -306.881)"/>
        <path id="prefix__Path_298"
              d="M199.048 545.975l1.822-2.941-17.615-10.916a6.554 6.554 0 0 0-4.682-.867 6.554 6.554 0 0 0 2.86 3.807z"
              class="prefix__cls-8" data-name="Path 298" transform="translate(-138.529 -381.345)"/>
      </g>
      <path id="prefix__Clouds"
            d="M167.944 113.757l17.915-13.786q1.16-.061 2.255-.085c4.691-6.408 13.012-12.059 27.711-13.164 16.636-1.251 26.1 5.571 31.477 13.456a33.1 33.1 0 0 1 3.758-.207l16.6 13.217a4.413 4.413 0 0 1-2.734 7.865h-54.165l-40.073.613h-.076a4.413 4.413 0 0 1-2.668-7.909zM154.2 62.71H28.707a6.619 6.619 0 0 1-4.582-11.375l30.008-29.069a50.9 50.9 0 0 1 16.112 1.314C76.7 12.059 87.719 2.046 106.484.342c21.316-1.935 33.106 10.309 39.63 24.448a61.269 61.269 0 0 1 14.348-2.524l31.463 28.953a6.619 6.619 0 0 1-4.46 11.491z"
            transform="translate(-408.084 204.59)" style="fill:#f2f6fb"/>
    </g>
  </g>
</svg>
