<svg xmlns="http://www.w3.org/2000/svg" width="882.111" height="774.306" viewBox="0 0 882.111 774.306">
  <defs>
    <clipPath id="prefix__clip-path">
      <path d="M0 0H102V18H0z" style="fill:none"/>
    </clipPath>
    <style>
      .prefix__cls-5 {
        fill: #aab0bb
      }

      .prefix__cls-6 {
        fill: #e2e6eb
      }
    </style>
  </defs>
  <g id="prefix__Web_-_2" data-name="Web - 2" transform="rotate(-14.98 827.581 3023.13)">
    <path id="prefix__Rectangle_705" d="M0 0h752.459v518a4 4 0 0 1-4 4H4a4 4 0 0 1-4-4V0z" data-name="Rectangle 705"
          transform="translate(760.806 155.161)" style="fill:#f9fafc"/>
    <path id="prefix__Rectangle_706" d="M4 0h744.459a4 4 0 0 1 4 4v74H0V4a4 4 0 0 1 4-4z" data-name="Rectangle 706"
          transform="translate(760.806 77.161)" style="fill:#c8d1db;opacity:.54"/>
    <g id="prefix__Repeat_Grid_129" data-name="Repeat Grid 129" transform="translate(783.806 108.161)">
      <g id="prefix__Group_556" data-name="Group 556" transform="translate(-67 -73)">
        <circle id="prefix__Ellipse_204" cx="2.5" cy="2.5" r="2.5" class="prefix__cls-5" data-name="Ellipse 204"
                transform="translate(67 73)"/>
      </g>
      <g id="prefix__Group_557" data-name="Group 557" transform="translate(-58 -73)">
        <circle id="prefix__Ellipse_205" cx="2.5" cy="2.5" r="2.5" class="prefix__cls-5" data-name="Ellipse 205"
                transform="translate(67 73)"/>
      </g>
      <g id="prefix__Group_558" data-name="Group 558" transform="translate(-49 -73)">
        <circle id="prefix__Ellipse_206" cx="2.5" cy="2.5" r="2.5" class="prefix__cls-5" data-name="Ellipse 206"
                transform="translate(67 73)"/>
      </g>
      <g id="prefix__Group_558-2" data-name="Group 558" transform="translate(-40 -73)">
        <circle id="prefix__Ellipse_206-2" cx="2.5" cy="2.5" r="2.5" class="prefix__cls-5" data-name="Ellipse 206"
                transform="translate(67 73)"/>
      </g>
      <g id="prefix__Group_558-3" data-name="Group 558" transform="translate(-31 -73)">
        <circle id="prefix__Ellipse_206-3" cx="2.5" cy="2.5" r="2.5" class="prefix__cls-5" data-name="Ellipse 206"
                transform="translate(67 73)"/>
      </g>
      <g id="prefix__Group_558-4" data-name="Group 558" transform="translate(-22 -73)">
        <circle id="prefix__Ellipse_206-4" cx="2.5" cy="2.5" r="2.5" class="prefix__cls-5" data-name="Ellipse 206"
                transform="translate(67 73)"/>
      </g>
      <g id="prefix__Group_558-5" data-name="Group 558" transform="translate(-13 -73)">
        <circle id="prefix__Ellipse_206-5" cx="2.5" cy="2.5" r="2.5" class="prefix__cls-5" data-name="Ellipse 206"
                transform="translate(67 73)"/>
      </g>
      <g id="prefix__Group_558-6" data-name="Group 558" transform="translate(-4 -73)">
        <circle id="prefix__Ellipse_206-6" cx="2.5" cy="2.5" r="2.5" class="prefix__cls-5" data-name="Ellipse 206"
                transform="translate(67 73)"/>
      </g>
      <g id="prefix__Group_558-7" data-name="Group 558" transform="translate(5 -73)">
        <circle id="prefix__Ellipse_206-7" cx="2.5" cy="2.5" r="2.5" class="prefix__cls-5" data-name="Ellipse 206"
                transform="translate(67 73)"/>
      </g>
      <g id="prefix__Group_558-8" data-name="Group 558" transform="translate(14 -73)">
        <circle id="prefix__Ellipse_206-8" cx="2.5" cy="2.5" r="2.5" class="prefix__cls-5" data-name="Ellipse 206"
                transform="translate(67 73)"/>
      </g>
      <g id="prefix__Group_558-9" data-name="Group 558" transform="translate(23 -73)">
        <circle id="prefix__Ellipse_206-9" cx="2.5" cy="2.5" r="2.5" class="prefix__cls-5" data-name="Ellipse 206"
                transform="translate(67 73)"/>
      </g>
      <g id="prefix__Group_558-10" data-name="Group 558" transform="translate(32 -73)">
        <circle id="prefix__Ellipse_206-10" cx="2.5" cy="2.5" r="2.5" class="prefix__cls-5" data-name="Ellipse 206"
                transform="translate(67 73)"/>
      </g>
    </g>
    <g id="prefix__Group_564" data-name="Group 564" transform="translate(822.54 221.893)">
      <rect id="prefix__Rectangle_707" width="137" height="24" class="prefix__cls-5" data-name="Rectangle 707" rx="12"
            transform="translate(182.618)"/>
      <g id="prefix__Group">
        <g id="prefix__Group_561" data-name="Group 561" transform="translate(187.266)">
          <rect id="prefix__Rectangle_719" width="137" height="24" class="prefix__cls-5" data-name="Rectangle 719"
                rx="12"/>
        </g>
        <path id="prefix__ic_insert_photo_24px"
              d="M128.114 114.213V16.9A13.942 13.942 0 0 0 114.213 3H16.9A13.942 13.942 0 0 0 3 16.9v97.311a13.942 13.942 0 0 0 13.9 13.9h97.311a13.942 13.942 0 0 0 13.903-13.898zm-86.885-38.23l17.377 20.922 24.328-31.348 31.279 41.7H16.9z"
              class="prefix__cls-5" transform="translate(-3 -2.575)"/>
      </g>
      <g id="prefix__Group_567" data-name="Group 567" transform="translate(174.725 56)">
        <path id="prefix__Path_1366" d="M11.5 0h56a11.5 11.5 0 0 1 0 23h-56a11.5 11.5 0 0 1 0-23z" class="prefix__cls-6"
              data-name="Path 1366"/>
        <rect id="prefix__Rectangle_721" width="259" height="23" class="prefix__cls-6" data-name="Rectangle 721"
              rx="11.5" transform="translate(101)"/>
        <rect id="prefix__Rectangle_722" width="344" height="24" class="prefix__cls-6" data-name="Rectangle 722" rx="12"
              transform="translate(0 38)"/>
        <rect id="prefix__Rectangle_723" width="73" height="23" class="prefix__cls-6" data-name="Rectangle 723"
              rx="11.5" transform="translate(382)"/>
        <rect id="prefix__Rectangle_726" width="48" height="24" class="prefix__cls-6" data-name="Rectangle 726" rx="12"
              transform="translate(211 77)"/>
        <rect id="prefix__Rectangle_727" width="189" height="24" class="prefix__cls-6" data-name="Rectangle 727" rx="12"
              transform="translate(0 77)"/>
        <rect id="prefix__Rectangle_729" width="172" height="24" class="prefix__cls-6" data-name="Rectangle 729" rx="12"
              transform="translate(283 77)"/>
        <rect id="prefix__Rectangle_730" width="87" height="24" class="prefix__cls-6" data-name="Rectangle 730" rx="12"
              transform="translate(368 38)"/>
      </g>
    </g>
    <g id="prefix__Group_568" data-name="Group 568" transform="translate(822.54 439.161)">
      <rect id="prefix__Rectangle_707-2" width="137" height="24" class="prefix__cls-5" data-name="Rectangle 707" rx="12"
            transform="translate(182.618)"/>
      <g id="prefix__Group-2" data-name="Group">
        <g id="prefix__Group_561-2" data-name="Group 561" transform="translate(187.266)">
          <rect id="prefix__Rectangle_719-2" width="137" height="24" class="prefix__cls-5" data-name="Rectangle 719"
                rx="12"/>
        </g>
        <path id="prefix__ic_insert_photo_24px-2"
              d="M128.114 114.213V16.9A13.942 13.942 0 0 0 114.213 3H16.9A13.942 13.942 0 0 0 3 16.9v97.311a13.942 13.942 0 0 0 13.9 13.9h97.311a13.942 13.942 0 0 0 13.903-13.898zm-86.885-38.23l17.377 20.922 24.328-31.348 31.279 41.7H16.9z"
              class="prefix__cls-5" data-name="ic_insert_photo_24px" transform="translate(-3 -2.8)"/>
      </g>
      <g id="prefix__Group_567-2" data-name="Group 567" transform="translate(174.725 56)">
        <rect id="prefix__Rectangle_720" width="79" height="23" class="prefix__cls-6" data-name="Rectangle 720"
              rx="11.5"/>
        <rect id="prefix__Rectangle_721-2" width="259" height="23" class="prefix__cls-6" data-name="Rectangle 721"
              rx="11.5" transform="translate(101)"/>
        <rect id="prefix__Rectangle_722-2" width="344" height="24" class="prefix__cls-6" data-name="Rectangle 722"
              rx="12" transform="translate(0 38)"/>
        <rect id="prefix__Rectangle_723-2" width="73" height="23" class="prefix__cls-6" data-name="Rectangle 723"
              rx="11.5" transform="translate(382)"/>
        <rect id="prefix__Rectangle_726-2" width="48" height="24" class="prefix__cls-6" data-name="Rectangle 726"
              rx="12" transform="translate(211 77)"/>
        <rect id="prefix__Rectangle_727-2" width="189" height="24" class="prefix__cls-6" data-name="Rectangle 727"
              rx="12" transform="translate(0 77)"/>
        <rect id="prefix__Rectangle_729-2" width="172" height="24" class="prefix__cls-6" data-name="Rectangle 729"
              rx="12" transform="translate(283 77)"/>
        <rect id="prefix__Rectangle_730-2" width="87" height="24" class="prefix__cls-6" data-name="Rectangle 730"
              rx="12" transform="translate(368 38)"/>
      </g>
    </g>
  </g>
</svg>
