<svg height="24" viewBox="0 0 24 24" width="24" xmlns="http://www.w3.org/2000/svg"
     xmlns:xlink="http://www.w3.org/1999/xlink">
  <defs>
    <path
      d="M5.293.293c.39-.39 1.024-.39 1.414 0l4.95 4.95.078.087c.31.392.284.964-.078 1.327l-4.95 4.95-.087.077c-.393.311-.964.285-1.327-.077l-.078-.088c-.31-.392-.285-.964.078-1.327L9.536 5.95 5.293 1.707l-.078-.087c-.31-.393-.285-.964.078-1.327zm-5 0c.39-.39 1.024-.39 1.414 0l4.95 4.95.078.087c.31.392.284.964-.078 1.327l-4.95 4.95-.087.077c-.393.311-.964.285-1.327-.077l-.078-.088c-.31-.392-.285-.964.078-1.327L4.536 5.95.293 1.707.215 1.62C-.095 1.227-.07.656.293.293z"
      id="prefix__a"/>
  </defs>
  <g fill="none" fill-rule="evenodd" transform="translate(6 6)">
    <mask fill="#fff" id="prefix__b">
      <use xlink:href="#prefix__a"/>
    </mask>
    <g fill="#0090FF" mask="url(#prefix__b)">
      <path d="M0 0H24V24H0z" transform="translate(-6 -6)"/>
    </g>
  </g>
</svg>
