<svg fill="none" height="50" viewBox="0 0 131 50" width="131" xmlns="http://www.w3.org/2000/svg">
  <path
    d="M43.6337 33.1147L21.0332 46.3764C13.4379 50.8371 7.22436 47.1925 7.22436 38.271V29.3773C3.99705 30.0358 2.21646 31.1672 2.24428 32.4748C2.29065 34.4223 4.59058 35.6279 6.04658 36.1936C2.93055 35.8412 0 34.1256 0 31.7885C0 29.841 1.89187 27.6802 7.22436 26.7528C10.7021 26.1407 15.6358 26.0573 22.4706 26.8919L23.6948 34.6913L28.3781 29.8132L35.0553 30.9075L31.8651 24.9444L34.9719 18.9349L28.3132 20.1312L23.5557 15.3274L22.4335 22.7836C17.1938 22.7465 11.3049 23.5255 7.23364 24.7775C4.52566 25.6121 2.6987 26.3169 2.63379 26.3448C2.70798 26.2984 4.4051 25.2783 7.23364 24.119V11.7291C7.23364 2.80762 13.4471 -0.837028 21.0425 3.62372L43.6429 16.8947C51.229 21.3554 51.229 28.654 43.6337 33.1147Z"
    fill="#0090FF"/>
  <path
    d="M25.9391 43.5016C28.9067 38.9388 28.6471 34.914 26.7552 31.5012L23.6948 34.6821L22.4706 26.8828C15.6358 26.0481 10.7021 26.1409 7.22436 26.7437C1.89187 27.6803 0 29.8319 0 31.7794C0 34.1164 2.93055 35.8321 6.04658 36.1845C4.59058 35.6188 2.28138 34.4132 2.24428 32.4657C2.21646 31.1488 3.99705 30.0266 7.22436 29.3682V38.2619C7.22436 47.1833 13.4379 50.828 21.0332 46.3672L25.9391 43.5016Z"
    fill="#0084EB"/>
  <mask height="9" id="mask0" mask-type="alpha" maskUnits="userSpaceOnUse" width="16" x="2" y="18">
    <path
      d="M2.61523 26.3355C2.68015 26.3077 4.50711 25.6028 7.21509 24.7682C10.0529 23.8964 13.7717 23.2565 17.5462 22.9598C12.3621 19.8623 7.21509 18.2115 7.21509 18.2115V24.1005C4.38655 25.2783 2.68943 26.2891 2.61523 26.3355Z"
      fill="url(#paint0_linear)"/>
  </mask>
  <g mask="url(#mask0)">
    <path
      d="M2.625 26.3356C2.68992 26.3078 4.51688 25.603 7.22485 24.7683C10.0627 23.8966 13.7815 23.2567 17.556 22.9599C12.3626 19.8624 7.22485 18.2209 7.22485 18.2209V24.1099C4.39631 25.2784 2.69919 26.2892 2.625 26.3356Z"
      fill="#006CBF"/>
  </g>
  <mask height="36" id="mask1" mask-type="alpha" maskUnits="userSpaceOnUse" width="43" x="7" y="1">
    <path
      d="M43.6251 33.1148C51.2204 28.654 51.2204 21.3555 43.6251 16.8947L21.0246 3.62377C13.4293 -0.836977 7.21582 2.81694 7.21582 11.7292C7.21582 11.7292 15.145 14.2517 23.1206 18.1189L23.5471 15.3181L28.3047 20.122L34.9633 18.9257L32.5614 23.5719C38.0144 27.504 41.2696 32.0019 37.9681 36.4255L43.6251 33.1148Z"
      fill="url(#paint1_linear)"/>
  </mask>
  <g mask="url(#mask1)">
    <path
      d="M43.6251 33.1148C51.2204 28.654 51.2204 21.3555 43.6251 16.8947L21.0246 3.62377C13.4293 -0.836977 7.21582 2.81694 7.21582 11.7292C7.21582 11.7292 15.145 14.2517 23.1206 18.1189L23.5471 15.3181L28.3047 20.122L34.9633 18.9257L32.5614 23.5719C38.0144 27.504 41.2696 32.0019 37.9681 36.4255L43.6251 33.1148Z"
      fill="url(#paint2_linear)" opacity="0.6"/>
  </g>
  <mask height="4" id="mask2" mask-type="alpha" maskUnits="userSpaceOnUse" width="16" x="7" y="28">
    <path
      d="M22.8516 29.3495C16.193 28.5055 10.8141 28.6447 7.21582 29.368V31.4639C7.21582 31.4732 14.9688 28.5148 22.8516 29.3495Z"
      fill="url(#paint3_linear)"/>
  </mask>
  <g mask="url(#mask2)">
    <path
      d="M22.8604 29.3495C16.2017 28.5055 10.8229 28.6447 7.22461 29.368V31.4639C7.22461 31.4732 14.9776 28.5148 22.8604 29.3495Z"
      fill="#007AD9"/>
  </g>
  <mask height="3" id="mask3" mask-type="alpha" maskUnits="userSpaceOnUse" width="15" x="7" y="22">
    <path
      d="M7.21582 24.1098C7.21582 24.1098 13.5499 21.8469 21.748 22.3106C21.748 22.3106 13.8096 21.0401 7.21582 23.6646V24.1098Z"
      fill="url(#paint4_linear)"/>
  </mask>
  <g mask="url(#mask3)">
  </g>
  <mask height="36" id="mask4" mask-type="alpha" maskUnits="userSpaceOnUse" width="43" x="7" y="1">
    <path
      d="M43.6251 16.8947L21.0246 3.62377C13.4293 -0.836977 7.21582 2.81694 7.21582 11.7292C7.21582 11.7292 9.59921 4.05037 14.4773 5.41363C19.3553 6.77689 35.5476 17.2007 42.2711 22.0046C48.9854 26.8085 37.9681 36.4255 37.9681 36.4348L43.6251 33.1147C51.2204 28.654 51.2204 21.3555 43.6251 16.8947Z"
      fill="url(#paint5_linear)"/>
  </mask>
  <g mask="url(#mask4)">
    <path
      d="M43.6251 16.8947L21.0246 3.62377C13.4293 -0.836977 7.21582 2.81694 7.21582 11.7292C7.21582 11.7292 9.59921 4.05037 14.4773 5.41363C19.3553 6.77689 35.5476 17.2007 42.2711 22.0046C48.9854 26.8085 37.9681 36.4255 37.9681 36.4348L43.6251 33.1147C51.2204 28.654 51.2204 21.3555 43.6251 16.8947Z"
      fill="#99D3FF"/>
  </g>
  <path
    d="M74.487 23.0469V23.0066C74.487 22.2817 74.3595 21.624 74.1044 21.0333C73.8628 20.4293 73.5071 19.9125 73.0373 19.4829C72.5809 19.0534 72.0171 18.7245 71.3459 18.4963C70.6881 18.2547 69.9364 18.1338 69.0907 18.1338H63.332V32.2286H66.4329V28.0002H68.7887C69.5807 28.0002 70.319 27.8995 71.0036 27.6981C71.7016 27.4834 72.3057 27.1679 72.8158 26.7518C73.3393 26.3356 73.7487 25.8188 74.044 25.2013C74.3393 24.5839 74.487 23.8657 74.487 23.0469ZM71.3459 23.1073C71.3459 23.7113 71.1311 24.2214 70.7016 24.6376C70.272 25.0403 69.6679 25.2416 68.8894 25.2416H66.4329V20.9327H68.829C69.6075 20.9327 70.2183 21.1139 70.6613 21.4763C71.1177 21.8387 71.3459 22.369 71.3459 23.067V23.1073Z"
    fill="#0090FF"/>
  <path
    d="M87.6146 26.8524V26.8122C87.6146 26.0336 87.467 25.3087 87.1716 24.6376C86.8763 23.953 86.4669 23.3623 85.9434 22.8656C85.4333 22.3556 84.8225 21.9596 84.1111 21.6777C83.3996 21.3823 82.6278 21.2347 81.7955 21.2347C80.9498 21.2347 80.1713 21.3823 79.4598 21.6777C78.7484 21.973 78.1309 22.3757 77.6074 22.8858C77.0838 23.3959 76.6744 23.9932 76.3791 24.6778C76.0838 25.349 75.9361 26.0739 75.9361 26.8524V26.8927C75.9361 27.6713 76.0838 28.4029 76.3791 29.0875C76.6744 29.7586 77.0771 30.3493 77.5872 30.8594C78.1107 31.356 78.7282 31.752 79.4397 32.0474C80.1511 32.3293 80.923 32.4702 81.7552 32.4702C82.6009 32.4702 83.3795 32.3225 84.0909 32.0272C84.8024 31.7319 85.4199 31.3292 85.9434 30.8191C86.4669 30.309 86.8763 29.7184 87.1716 29.0472C87.467 28.3626 87.6146 27.631 87.6146 26.8524ZM84.5943 26.8927C84.5943 27.2954 84.5272 27.678 84.393 28.0404C84.2721 28.3894 84.0909 28.6982 83.8493 28.9667C83.6077 29.2351 83.3124 29.4499 82.9633 29.611C82.6278 29.7586 82.2385 29.8325 81.7955 29.8325C81.3659 29.8325 80.9767 29.7519 80.6277 29.5909C80.2921 29.4298 79.9967 29.215 79.7417 28.9465C79.4867 28.6646 79.292 28.3492 79.1578 28.0002C79.0235 27.6377 78.9564 27.2552 78.9564 26.8524V26.8122C78.9564 26.4095 79.0168 26.0336 79.1376 25.6846C79.2719 25.3222 79.4598 25.0067 79.7014 24.7382C79.9431 24.4698 80.2317 24.2617 80.5672 24.114C80.9163 23.953 81.3123 23.8724 81.7552 23.8724C82.1714 23.8724 82.5539 23.953 82.9029 24.114C83.252 24.2751 83.554 24.4966 83.809 24.7785C84.0641 25.047 84.2587 25.3624 84.393 25.7249C84.5272 26.0739 84.5943 26.4497 84.5943 26.8524V26.8927Z"
    fill="#0090FF"/>
  <path d="M93.0323 32.2286V17.5298H89.9717V32.2286H93.0323Z" fill="#0090FF"/>
  <path
    d="M105.189 32.2286V25.9665C105.189 24.5033 104.807 23.3623 104.041 22.5435C103.276 21.7246 102.055 21.3152 100.377 21.3152C99.464 21.3152 98.6854 21.3958 98.0411 21.5569C97.3968 21.7179 96.7793 21.926 96.1886 22.181L96.9538 24.5167C97.4505 24.3288 97.9203 24.1879 98.3633 24.0939C98.8197 23.9865 99.3432 23.9328 99.9338 23.9328C100.699 23.9328 101.276 24.1006 101.665 24.4362C102.055 24.7718 102.249 25.2618 102.249 25.9061V26.0873C101.86 25.9531 101.457 25.8457 101.041 25.7651C100.639 25.6846 100.162 25.6443 99.6117 25.6443C98.9673 25.6443 98.3767 25.7182 97.8397 25.8658C97.3162 26 96.8598 26.2081 96.4705 26.49C96.0947 26.7719 95.7994 27.1276 95.5846 27.5572C95.3698 27.9867 95.2624 28.4968 95.2624 29.0875V29.1277C95.2624 29.6647 95.3564 30.1412 95.5443 30.5573C95.7457 30.9601 96.0141 31.3024 96.3497 31.5842C96.6853 31.8661 97.0746 32.0809 97.5176 32.2286C97.974 32.3628 98.4572 32.4299 98.9673 32.4299C99.719 32.4299 100.357 32.3091 100.88 32.0675C101.404 31.8124 101.853 31.4769 102.229 31.0607V32.2286H105.189ZM102.29 28.423C102.29 28.9868 102.068 29.4432 101.625 29.7922C101.196 30.1412 100.618 30.3157 99.8935 30.3157C99.3969 30.3157 98.9942 30.2016 98.6854 29.9734C98.3767 29.7452 98.2223 29.4231 98.2223 29.0069V28.9667C98.2223 28.4834 98.4102 28.1143 98.7861 27.8592C99.162 27.6042 99.6788 27.4766 100.337 27.4766C100.712 27.4766 101.061 27.5169 101.384 27.5975C101.719 27.6646 102.021 27.7585 102.29 27.8793V28.423Z"
    fill="#0090FF"/>
  <path
    d="M114.326 24.4362V21.2347C113.414 21.1944 112.689 21.3958 112.152 21.8387C111.615 22.2817 111.192 22.8724 110.883 23.6107V21.436H107.823V32.2286H110.883V28.2418C110.883 26.9397 111.172 25.9799 111.749 25.3624C112.34 24.7449 113.145 24.4362 114.165 24.4362H114.326Z"
    fill="#0090FF"/>
  <path d="M119.521 20.2481V17.5298H116.299V20.2481H119.521ZM119.44 32.2286V21.436H116.38V32.2286H119.44Z"
        fill="#0090FF"/>
  <path
    d="M130.228 28.9465V28.9062C130.228 28.4096 130.127 27.9867 129.926 27.6377C129.725 27.2887 129.469 26.9934 129.161 26.7518C128.852 26.5101 128.503 26.3088 128.114 26.1477C127.724 25.9732 127.342 25.8255 126.966 25.7047C126.671 25.6108 126.389 25.5168 126.12 25.4228C125.865 25.3289 125.637 25.2349 125.436 25.1409C125.234 25.0336 125.073 24.9262 124.952 24.8188C124.832 24.698 124.771 24.5637 124.771 24.4161V24.3758C124.771 24.161 124.865 23.9865 125.053 23.8523C125.241 23.7046 125.523 23.6308 125.899 23.6308C126.288 23.6308 126.738 23.7248 127.248 23.9127C127.758 24.0872 128.281 24.3288 128.818 24.6376L129.986 22.5233C129.396 22.1341 128.745 21.832 128.033 21.6173C127.335 21.3891 126.644 21.275 125.959 21.275C125.409 21.275 124.892 21.3488 124.409 21.4964C123.939 21.6441 123.523 21.8656 123.16 22.1609C122.811 22.4562 122.529 22.8187 122.315 23.2482C122.113 23.6644 122.013 24.1476 122.013 24.698V24.7382C122.013 25.2618 122.107 25.7047 122.295 26.0672C122.496 26.4296 122.751 26.7383 123.06 26.9934C123.368 27.235 123.711 27.4364 124.087 27.5975C124.476 27.7451 124.858 27.8726 125.234 27.98C125.53 28.074 125.812 28.1612 126.08 28.2418C126.348 28.3223 126.583 28.4096 126.785 28.5035C127 28.5841 127.167 28.6848 127.288 28.8056C127.409 28.9264 127.469 29.0673 127.469 29.2284V29.2687C127.469 29.5103 127.362 29.705 127.147 29.8526C126.946 30.0003 126.624 30.0741 126.181 30.0741C125.671 30.0741 125.12 29.9667 124.53 29.7519C123.952 29.5372 123.368 29.215 122.778 28.7854L121.469 30.799C122.194 31.3628 122.952 31.7789 123.744 32.0474C124.55 32.3024 125.335 32.4299 126.1 32.4299C126.677 32.4299 127.214 32.3628 127.711 32.2286C128.221 32.0809 128.664 31.8661 129.04 31.5842C129.416 31.3024 129.704 30.9466 129.906 30.5171C130.121 30.0741 130.228 29.5506 130.228 28.9465Z"
    fill="#0090FF"/>
  <defs>
    <linearGradient gradientUnits="userSpaceOnUse" id="paint0_linear" x1="-17.5281" x2="15.9195" y1="47.4391"
                    y2="17.4123">
      <stop stop-color="white"/>
      <stop offset="0.0848613" stop-color="#F6F6F6"/>
      <stop offset="0.2252" stop-color="#DDDDDD"/>
      <stop offset="0.4037" stop-color="#B4B4B4"/>
      <stop offset="0.6134" stop-color="#7B7B7B"/>
      <stop offset="0.8464" stop-color="#333333"/>
      <stop offset="1"/>
    </linearGradient>
    <linearGradient gradientUnits="userSpaceOnUse" id="paint1_linear" x1="32.672" x2="24.1202" y1="-15.9216"
                    y2="50.023">
      <stop stop-color="white"/>
      <stop offset="1"/>
    </linearGradient>
    <linearGradient gradientUnits="userSpaceOnUse" id="paint2_linear" x1="24.21" x2="30.3549" y1="19.0695" y2="8.31574">
      <stop offset="0.0528294" stop-color="#4DB1FF"/>
      <stop offset="0.635417" stop-color="#99D3FF"/>
    </linearGradient>
    <linearGradient gradientUnits="userSpaceOnUse" id="paint3_linear" x1="-5.35339" x2="25.5465" y1="0.256742"
                    y2="45.9629">
      <stop stop-color="white"/>
      <stop offset="0.0848613" stop-color="#F6F6F6"/>
      <stop offset="0.2252" stop-color="#DDDDDD"/>
      <stop offset="0.4037" stop-color="#B4B4B4"/>
      <stop offset="0.6134" stop-color="#7B7B7B"/>
      <stop offset="0.8464" stop-color="#333333"/>
      <stop offset="1"/>
    </linearGradient>
    <linearGradient gradientUnits="userSpaceOnUse" id="paint4_linear" x1="2.58105" x2="27.3994" y1="5.60939"
                    y2="42.3198">
      <stop stop-color="white"/>
      <stop offset="0.0848613" stop-color="#F6F6F6"/>
      <stop offset="0.2252" stop-color="#DDDDDD"/>
      <stop offset="0.4037" stop-color="#B4B4B4"/>
      <stop offset="0.6134" stop-color="#7B7B7B"/>
      <stop offset="0.8464" stop-color="#333333"/>
      <stop offset="1"/>
    </linearGradient>
    <linearGradient gradientUnits="userSpaceOnUse" id="paint5_linear" x1="50.4526" x2="21.0578" y1="-21.4169"
                    y2="30.0239">
      <stop stop-color="white"/>
      <stop offset="1"/>
    </linearGradient>
  </defs>
</svg>
