<svg fill="none" height="50" viewBox="0 0 131 50" width="131" xmlns="http://www.w3.org/2000/svg">
  <path
    d="M43.6339 33.1147L21.0334 46.3764C13.4381 50.8371 7.22461 47.1925 7.22461 38.271V29.3773C3.99729 30.0358 2.2167 31.1672 2.24452 32.4748C2.29089 34.4223 4.59082 35.6279 6.04682 36.1936C2.93079 35.8412 0.000244141 34.1256 0.000244141 31.7885C0.000244141 29.841 1.89212 27.6802 7.22461 26.7528C10.7023 26.1407 15.636 26.0573 22.4709 26.8919L23.695 34.6913L28.3784 29.8132L35.0556 30.9075L31.8653 24.9444L34.9721 18.9349L28.3134 20.1312L23.5559 15.3274L22.4338 22.7836C17.194 22.7465 11.3051 23.5255 7.23388 24.7775C4.5259 25.6121 2.69895 26.3169 2.63403 26.3448C2.70822 26.2984 4.40534 25.2783 7.23388 24.119V11.7291C7.23388 2.80762 13.4474 -0.837028 21.0427 3.62372L43.6432 16.8947C51.2292 21.3554 51.2292 28.654 43.6339 33.1147Z"
    fill="#0090FF"/>
  <path
    d="M25.9391 43.5016C28.9067 38.9388 28.6471 34.914 26.7552 31.5012L23.6948 34.6821L22.4706 26.8828C15.6358 26.0481 10.7021 26.1409 7.22436 26.7437C1.89187 27.6803 0 29.8319 0 31.7794C0 34.1164 2.93055 35.8321 6.04658 36.1845C4.59058 35.6188 2.28138 34.4132 2.24428 32.4657C2.21646 31.1488 3.99705 30.0266 7.22436 29.3682V38.2619C7.22436 47.1833 13.4379 50.828 21.0332 46.3672L25.9391 43.5016Z"
    fill="#0084EB"/>
  <mask height="9" id="mask0" mask-type="alpha" maskUnits="userSpaceOnUse" width="16" x="2" y="18">
    <path
      d="M2.61523 26.3355C2.68015 26.3077 4.50711 25.6028 7.21509 24.7682C10.0529 23.8964 13.7717 23.2565 17.5462 22.9598C12.3621 19.8623 7.21509 18.2115 7.21509 18.2115V24.1005C4.38655 25.2783 2.68943 26.2891 2.61523 26.3355Z"
      fill="url(#paint0_linear)"/>
  </mask>
  <g mask="url(#mask0)">
    <path
      d="M2.62512 26.3356C2.69004 26.3078 4.517 25.603 7.22497 24.7683C10.0628 23.8966 13.7816 23.2567 17.5561 22.9599C12.3627 19.8624 7.22497 18.2209 7.22497 18.2209V24.1099C4.39644 25.2784 2.69931 26.2892 2.62512 26.3356Z"
      fill="#006CBF"/>
  </g>
  <mask height="36" id="mask1" mask-type="alpha" maskUnits="userSpaceOnUse" width="43" x="7" y="1">
    <path
      d="M43.6248 33.1148C51.2201 28.654 51.2201 21.3555 43.6248 16.8947L21.0243 3.62377C13.429 -0.836977 7.21545 2.81694 7.21545 11.7292C7.21545 11.7292 15.1446 14.2517 23.1202 18.1189L23.5468 15.3181L28.3043 20.122L34.9629 18.9257L32.561 23.5719C38.0141 27.504 41.2692 32.0019 37.9677 36.4255L43.6248 33.1148Z"
      fill="url(#paint1_linear)"/>
  </mask>
  <g mask="url(#mask1)">
    <path
      d="M43.6248 33.1148C51.2201 28.654 51.2201 21.3555 43.6248 16.8947L21.0243 3.62377C13.429 -0.836977 7.21545 2.81694 7.21545 11.7292C7.21545 11.7292 15.1446 14.2517 23.1202 18.1189L23.5468 15.3181L28.3043 20.122L34.9629 18.9257L32.561 23.5719C38.0141 27.504 41.2692 32.0019 37.9677 36.4255L43.6248 33.1148Z"
      fill="url(#paint2_linear)" opacity="0.6"/>
  </g>
  <mask height="4" id="mask2" mask-type="alpha" maskUnits="userSpaceOnUse" width="16" x="7" y="28">
    <path
      d="M22.8512 29.3495C16.1926 28.5055 10.8137 28.6447 7.21545 29.368V31.4639C7.21545 31.4732 14.9684 28.5148 22.8512 29.3495Z"
      fill="url(#paint3_linear)"/>
  </mask>
  <g mask="url(#mask2)">
    <path
      d="M22.8601 29.3495C16.2015 28.5055 10.8226 28.6447 7.22437 29.368V31.4639C7.22437 31.4732 14.9773 28.5148 22.8601 29.3495Z"
      fill="#007AD9"/>
  </g>
  <mask height="3" id="mask3" mask-type="alpha" maskUnits="userSpaceOnUse" width="15" x="7" y="22">
    <path
      d="M7.21545 24.1098C7.21545 24.1098 13.5495 21.8469 21.7476 22.3106C21.7476 22.3106 13.8092 21.0401 7.21545 23.6646V24.1098Z"
      fill="url(#paint4_linear)"/>
  </mask>
  <g mask="url(#mask3)">
  </g>
  <mask height="36" id="mask4" mask-type="alpha" maskUnits="userSpaceOnUse" width="43" x="7" y="1">
    <path
      d="M43.6248 16.8947L21.0243 3.62377C13.429 -0.836977 7.21545 2.81694 7.21545 11.7292C7.21545 11.7292 9.59885 4.05037 14.4769 5.41363C19.355 6.77689 35.5472 17.2007 42.2708 22.0046C48.9851 26.8085 37.9677 36.4255 37.9677 36.4348L43.6248 33.1147C51.2201 28.654 51.2201 21.3555 43.6248 16.8947Z"
      fill="url(#paint5_linear)"/>
  </mask>
  <g mask="url(#mask4)">
    <path
      d="M43.6248 16.8947L21.0243 3.62377C13.429 -0.836977 7.21545 2.81694 7.21545 11.7292C7.21545 11.7292 9.59885 4.05037 14.4769 5.41363C19.355 6.77689 35.5472 17.2007 42.2708 22.0046C48.9851 26.8085 37.9677 36.4255 37.9677 36.4348L43.6248 33.1147C51.2201 28.654 51.2201 21.3555 43.6248 16.8947Z"
      fill="#99D3FF"/>
  </g>
  <path
    d="M74.4865 23.0469V23.0066C74.4865 22.2817 74.359 21.624 74.1039 21.0333C73.8623 20.4293 73.5066 19.9125 73.0368 19.4829C72.5804 19.0534 72.0166 18.7245 71.3454 18.4963C70.6877 18.2547 69.9359 18.1338 69.0902 18.1338H63.3315V32.2286H66.4324V28.0002H68.7882C69.5802 28.0002 70.3185 27.8995 71.0031 27.6981C71.7011 27.4834 72.3052 27.1679 72.8153 26.7518C73.3388 26.3356 73.7482 25.8188 74.0435 25.2013C74.3389 24.5839 74.4865 23.8657 74.4865 23.0469ZM71.3454 23.1073C71.3454 23.7113 71.1306 24.2214 70.7011 24.6376C70.2715 25.0403 69.6675 25.2416 68.8889 25.2416H66.4324V20.9327H68.8285C69.6071 20.9327 70.2178 21.1139 70.6608 21.4763C71.1172 21.8387 71.3454 22.369 71.3454 23.067V23.1073Z"
    fill="#CCE9FF"/>
  <path
    d="M87.6141 26.8524V26.8122C87.6141 26.0336 87.4665 25.3087 87.1711 24.6376C86.8758 23.953 86.4664 23.3623 85.9429 22.8656C85.4328 22.3556 84.822 21.9596 84.1106 21.6777C83.3991 21.3823 82.6273 21.2347 81.795 21.2347C80.9493 21.2347 80.1708 21.3823 79.4593 21.6777C78.7479 21.973 78.1304 22.3757 77.6069 22.8858C77.0833 23.3959 76.6739 23.9932 76.3786 24.6778C76.0833 25.349 75.9356 26.0739 75.9356 26.8524V26.8927C75.9356 27.6713 76.0833 28.4029 76.3786 29.0875C76.6739 29.7586 77.0766 30.3493 77.5867 30.8594C78.1102 31.356 78.7277 31.752 79.4392 32.0474C80.1506 32.3293 80.9225 32.4702 81.7547 32.4702C82.6004 32.4702 83.379 32.3225 84.0904 32.0272C84.8019 31.7319 85.4194 31.3292 85.9429 30.8191C86.4664 30.309 86.8758 29.7184 87.1711 29.0472C87.4665 28.3626 87.6141 27.631 87.6141 26.8524ZM84.5938 26.8927C84.5938 27.2954 84.5267 27.678 84.3925 28.0404C84.2717 28.3894 84.0904 28.6982 83.8488 28.9667C83.6072 29.2351 83.3119 29.4499 82.9629 29.611C82.6273 29.7586 82.238 29.8325 81.795 29.8325C81.3655 29.8325 80.9762 29.7519 80.6272 29.5909C80.2916 29.4298 79.9963 29.215 79.7412 28.9465C79.4862 28.6646 79.2915 28.3492 79.1573 28.0002C79.023 27.6377 78.9559 27.2552 78.9559 26.8524V26.8122C78.9559 26.4095 79.0163 26.0336 79.1371 25.6846C79.2714 25.3222 79.4593 25.0067 79.7009 24.7382C79.9426 24.4698 80.2312 24.2617 80.5668 24.114C80.9158 23.953 81.3118 23.8724 81.7547 23.8724C82.1709 23.8724 82.5534 23.953 82.9025 24.114C83.2515 24.2751 83.5535 24.4966 83.8085 24.7785C84.0636 25.047 84.2582 25.3624 84.3925 25.7249C84.5267 26.0739 84.5938 26.4497 84.5938 26.8524V26.8927Z"
    fill="#CCE9FF"/>
  <path d="M93.0318 32.2286V17.5298H89.9712V32.2286H93.0318Z" fill="#CCE9FF"/>
  <path
    d="M105.189 32.2286V25.9665C105.189 24.5033 104.806 23.3623 104.041 22.5435C103.276 21.7246 102.054 21.3152 100.376 21.3152C99.4635 21.3152 98.6849 21.3958 98.0406 21.5569C97.3963 21.7179 96.7788 21.926 96.1882 22.181L96.9533 24.5167C97.45 24.3288 97.9198 24.1879 98.3628 24.0939C98.8192 23.9865 99.3427 23.9328 99.9333 23.9328C100.698 23.9328 101.276 24.1006 101.665 24.4362C102.054 24.7718 102.249 25.2618 102.249 25.9061V26.0873C101.86 25.9531 101.457 25.8457 101.041 25.7651C100.638 25.6846 100.162 25.6443 99.6112 25.6443C98.9668 25.6443 98.3762 25.7182 97.8393 25.8658C97.3157 26 96.8593 26.2081 96.47 26.49C96.0942 26.7719 95.7989 27.1276 95.5841 27.5572C95.3693 27.9867 95.2619 28.4968 95.2619 29.0875V29.1277C95.2619 29.6647 95.3559 30.1412 95.5438 30.5573C95.7452 30.9601 96.0136 31.3024 96.3492 31.5842C96.6848 31.8661 97.0741 32.0809 97.5171 32.2286C97.9735 32.3628 98.4567 32.4299 98.9668 32.4299C99.7186 32.4299 100.356 32.3091 100.88 32.0675C101.403 31.8124 101.853 31.4769 102.229 31.0607V32.2286H105.189ZM102.289 28.423C102.289 28.9868 102.068 29.4432 101.625 29.7922C101.195 30.1412 100.618 30.3157 99.8931 30.3157C99.3964 30.3157 98.9937 30.2016 98.6849 29.9734C98.3762 29.7452 98.2218 29.4231 98.2218 29.0069V28.9667C98.2218 28.4834 98.4098 28.1143 98.7856 27.8592C99.1615 27.6042 99.6783 27.4766 100.336 27.4766C100.712 27.4766 101.061 27.5169 101.383 27.5975C101.719 27.6646 102.021 27.7585 102.289 27.8793V28.423Z"
    fill="#CCE9FF"/>
  <path
    d="M114.326 24.4362V21.2347C113.413 21.1944 112.688 21.3958 112.151 21.8387C111.614 22.2817 111.192 22.8724 110.883 23.6107V21.436H107.822V32.2286H110.883V28.2418C110.883 26.9397 111.171 25.9799 111.749 25.3624C112.339 24.7449 113.145 24.4362 114.165 24.4362H114.326Z"
    fill="#CCE9FF"/>
  <path d="M119.52 20.2481V17.5298H116.299V20.2481H119.52ZM119.44 32.2286V21.436H116.379V32.2286H119.44Z"
        fill="#CCE9FF"/>
  <path
    d="M130.227 28.9465V28.9062C130.227 28.4096 130.127 27.9867 129.925 27.6377C129.724 27.2887 129.469 26.9934 129.16 26.7518C128.851 26.5101 128.502 26.3088 128.113 26.1477C127.724 25.9732 127.341 25.8255 126.965 25.7047C126.67 25.6108 126.388 25.5168 126.12 25.4228C125.865 25.3289 125.637 25.2349 125.435 25.1409C125.234 25.0336 125.073 24.9262 124.952 24.8188C124.831 24.698 124.771 24.5637 124.771 24.4161V24.3758C124.771 24.161 124.865 23.9865 125.053 23.8523C125.241 23.7046 125.522 23.6308 125.898 23.6308C126.288 23.6308 126.737 23.7248 127.247 23.9127C127.757 24.0872 128.281 24.3288 128.818 24.6376L129.986 22.5233C129.395 22.1341 128.744 21.832 128.033 21.6173C127.335 21.3891 126.643 21.275 125.959 21.275C125.408 21.275 124.892 21.3488 124.408 21.4964C123.938 21.6441 123.522 21.8656 123.16 22.1609C122.811 22.4562 122.529 22.8187 122.314 23.2482C122.113 23.6644 122.012 24.1476 122.012 24.698V24.7382C122.012 25.2618 122.106 25.7047 122.294 26.0672C122.495 26.4296 122.75 26.7383 123.059 26.9934C123.368 27.235 123.71 27.4364 124.086 27.5975C124.475 27.7451 124.858 27.8726 125.234 27.98C125.529 28.074 125.811 28.1612 126.08 28.2418C126.348 28.3223 126.583 28.4096 126.784 28.5035C126.999 28.5841 127.167 28.6848 127.288 28.8056C127.408 28.9264 127.469 29.0673 127.469 29.2284V29.2687C127.469 29.5103 127.361 29.705 127.147 29.8526C126.945 30.0003 126.623 30.0741 126.18 30.0741C125.67 30.0741 125.12 29.9667 124.529 29.7519C123.952 29.5372 123.368 29.215 122.777 28.7854L121.469 30.799C122.193 31.3628 122.952 31.7789 123.744 32.0474C124.549 32.3024 125.335 32.4299 126.1 32.4299C126.677 32.4299 127.214 32.3628 127.71 32.2286C128.221 32.0809 128.664 31.8661 129.039 31.5842C129.415 31.3024 129.704 30.9466 129.905 30.5171C130.12 30.0741 130.227 29.5506 130.227 28.9465Z"
    fill="#CCE9FF"/>
  <defs>
    <linearGradient gradientUnits="userSpaceOnUse" id="paint0_linear" x1="-17.5281" x2="15.9195" y1="47.4391"
                    y2="17.4123">
      <stop stop-color="white"/>
      <stop offset="0.0848613" stop-color="#F6F6F6"/>
      <stop offset="0.2252" stop-color="#DDDDDD"/>
      <stop offset="0.4037" stop-color="#B4B4B4"/>
      <stop offset="0.6134" stop-color="#7B7B7B"/>
      <stop offset="0.8464" stop-color="#333333"/>
      <stop offset="1"/>
    </linearGradient>
    <linearGradient gradientUnits="userSpaceOnUse" id="paint1_linear" x1="32.6717" x2="24.1199" y1="-15.9216"
                    y2="50.023">
      <stop stop-color="white"/>
      <stop offset="1"/>
    </linearGradient>
    <linearGradient gradientUnits="userSpaceOnUse" id="paint2_linear" x1="24.2096" x2="30.3546" y1="19.0695"
                    y2="8.31574">
      <stop offset="0.0528294" stop-color="#4DB1FF"/>
      <stop offset="0.635417" stop-color="#99D3FF"/>
    </linearGradient>
    <linearGradient gradientUnits="userSpaceOnUse" id="paint3_linear" x1="-5.35376" x2="25.5461" y1="0.256742"
                    y2="45.9629">
      <stop stop-color="white"/>
      <stop offset="0.0848613" stop-color="#F6F6F6"/>
      <stop offset="0.2252" stop-color="#DDDDDD"/>
      <stop offset="0.4037" stop-color="#B4B4B4"/>
      <stop offset="0.6134" stop-color="#7B7B7B"/>
      <stop offset="0.8464" stop-color="#333333"/>
      <stop offset="1"/>
    </linearGradient>
    <linearGradient gradientUnits="userSpaceOnUse" id="paint4_linear" x1="2.58069" x2="27.399" y1="5.60939"
                    y2="42.3198">
      <stop stop-color="white"/>
      <stop offset="0.0848613" stop-color="#F6F6F6"/>
      <stop offset="0.2252" stop-color="#DDDDDD"/>
      <stop offset="0.4037" stop-color="#B4B4B4"/>
      <stop offset="0.6134" stop-color="#7B7B7B"/>
      <stop offset="0.8464" stop-color="#333333"/>
      <stop offset="1"/>
    </linearGradient>
    <linearGradient gradientUnits="userSpaceOnUse" id="paint5_linear" x1="50.4522" x2="21.0574" y1="-21.4169"
                    y2="30.0239">
      <stop stop-color="white"/>
      <stop offset="1"/>
    </linearGradient>
  </defs>
</svg>
