<svg xmlns="http://www.w3.org/2000/svg" width="95.556" height="70" viewBox="0 0 95.556 70">
  <defs>
    <style>.a, .b {
      fill: #634c72;
    }

    .a {
      fill-rule: evenodd;
    }</style>
  </defs>
  <path class="a"
        d="M3,12.75A8.719,8.719,0,0,1,11.687,4H72.495a8.719,8.719,0,0,1,8.687,8.75v35a8.718,8.718,0,0,1-8.687,8.75H11.687A8.719,8.719,0,0,1,3,47.75Zm8.687,0H72.495v35H11.687Z"
        transform="translate(5.687 -4)"/>
  <path class="b" d="M5.343,18a4.375,4.375,0,0,0,0,8.75H92.212a4.375,4.375,0,0,0,0-8.75Z"
        transform="translate(-1 43.25)"/>
</svg>
