<?xml version="1.0" encoding="UTF-8"?>
<svg width="35px" height="35px" viewBox="0 0 35 35" version="1.1" xmlns="http://www.w3.org/2000/svg">
  <title>check-r</title>
  <g id="Page-2" stroke="none" stroke-width="1" fill="none" fill-rule="evenodd">
    <g id="Cloud-Control-Service" transform="translate(-569.000000, -1266.000000)">
      <g id="section2" transform="translate(1.000000, 799.000000)">
        <g id="card5" transform="translate(522.000000, 422.000000)">
          <g id="check-r" transform="translate(46.000000, 45.000000)">
            <polygon id="Path" fill="#707070" fill-rule="nonzero"
                     points="14.7041364 24.3627045 7.95454545 17.6129545 10.204425 15.3630909 14.7041364 19.8629773 23.70375 10.8633636 25.9536136 13.1132591"></polygon>
            <path
              d="M0,6.36363636 C0,2.84909545 2.84909545,0 6.36363636,0 L28.6363636,0 C32.1508409,0 35,2.84909545 35,6.36363636 L35,28.6363636 C35,32.1508409 32.1508409,35 28.6363636,35 L6.36363636,35 C2.84909545,35 0,32.1508409 0,28.6363636 L0,6.36363636 Z M6.36363636,3.18181818 L28.6363636,3.18181818 C30.3936818,3.18181818 31.8181818,4.60636591 31.8181818,6.36363636 L31.8181818,28.6363636 C31.8181818,30.3936818 30.3936818,31.8181818 28.6363636,31.8181818 L6.36363636,31.8181818 C4.60636591,31.8181818 3.18181818,30.3936818 3.18181818,28.6363636 L3.18181818,6.36363636 C3.18181818,4.60636591 4.60636591,3.18181818 6.36363636,3.18181818 Z"
              id="Shape" fill="#008FFF"></path>
          </g>
        </g>
      </g>
    </g>
  </g>
</svg>
