<?xml version="1.0" encoding="UTF-8"?>
<svg width="24px" height="24px" viewBox="0 0 24 24" version="1.1" xmlns="http://www.w3.org/2000/svg" xmlns:xlink="http://www.w3.org/1999/xlink">
    <title>5. Programing/code_file_sync</title>
    <g id="5.-Programing/code_file_sync" stroke="none" stroke-width="1" fill="none" fill-rule="evenodd">
        <path d="M6.13083113,16.578999 C6.29907086,16.5793558 6.45057992,16.6768083 6.5149122,16.8260446 C6.57924449,16.975281 6.54377586,17.147016 6.4249979,17.2613993 L6.4249979,17.2613993 L4.99499738,18.6341998 C4.91501389,18.709429 4.90990064,18.8314457 4.9833307,18.9125999 C6.20755211,20.2068228 8.26592452,20.3717255 9.69666578,19.2902 C10.2011607,18.8864621 10.5714062,18.3496931 10.7616662,17.7461994 C10.9238682,17.3464785 11.3856154,17.1407216 11.8083332,17.2797993 C12.2428226,17.4229835 12.4746669,17.8767124 12.3266668,18.2941996 C11.7542031,19.9162479 10.3359808,21.1301872 8.59202161,21.4909003 C6.84806244,21.8516134 5.03494836,21.3060301 3.81749694,20.0542003 C3.78016363,20.0146568 3.72759305,19.9915119 3.67201895,19.9901516 C3.61644485,19.9887914 3.56271401,20.0093345 3.52333016,20.0470003 L3.52333016,20.0470003 L2.7116632,20.8270006 C2.59259172,20.9415985 2.4133148,20.9760117 2.25749581,20.9141804 C2.10167682,20.852349 1.99999627,20.706462 1.99999627,20.5446005 L1.99999627,20.5446005 L1.99999627,16.9789992 C1.99999627,16.7580852 2.18654436,16.578999 2.41666309,16.578999 L2.41666309,16.578999 Z M18.3208356,2.39979376 C18.7632356,2.39979376 19.1874471,2.56882536 19.5000027,2.86939394 L19.5000027,2.86939394 L21.5116701,4.79979465 C21.8244568,5.09997912 22.0000037,5.50720599 22.0000037,5.93179507 L22.0000037,5.93179507 L22.0000037,17.1989992 C22.0000037,18.0826552 21.2538113,18.7989998 20.3333364,18.7989998 L20.3333364,18.7989998 L13.8875007,18.7989998 C13.8205972,18.7989998 13.7579699,18.7674238 13.7200177,18.7145305 C13.6820655,18.6616371 13.6736457,18.5942057 13.6975006,18.5341997 C13.8368204,18.1554871 13.9383869,17.764936 14.000834,17.3677993 C14.0152639,17.2718124 14.1006471,17.2003882 14.2016674,17.1997992 L14.2016674,17.1997992 L19.9166696,17.1997992 C20.1467883,17.1997992 20.3333364,17.0207131 20.3333364,16.7997991 L20.3333364,16.7997991 L20.3333364,6.09739513 C20.3337555,5.99095901 20.2899695,5.88875158 20.2116697,5.81339503 L20.2116697,5.81339503 L18.4433357,4.1165944 C18.3652477,4.04181921 18.2594627,3.99981685 18.1491689,3.99979436 L18.1491689,3.99979436 L9.08333222,3.99979436 C8.85321349,3.99979436 8.6666654,4.17888052 8.6666654,4.39979376 L8.6666654,4.39979376 L8.6666654,9.89659654 C8.66752864,9.95319199 8.64296696,10.0074042 8.59925363,10.045387 C8.5555403,10.0833697 8.49690801,10.1014451 8.43833198,10.0949966 C8.06499851,10.0541966 7.50416497,10.0285966 7.20083152,10.0213966 C7.08845931,10.0187791 6.99905488,9.93010179 6.99999072,9.82219651 L6.99999072,9.82219651 L6.99999072,3.99979436 C6.99999072,3.11613843 7.74619048,2.39979376 8.6666654,2.39979376 L8.6666654,2.39979376 Z M6.19871991,11.3148809 C7.93637666,10.9508881 9.74582991,11.4852036 10.9699996,12.7237976 C11.0075417,12.7628733 11.0600605,12.7855602 11.115423,12.7866171 C11.1707855,12.787674 11.2242023,12.7670095 11.263333,12.7293976 L11.263333,12.7293976 L12.1216667,11.9053973 C12.2407333,11.7907925 12.4200105,11.7563713 12.5758335,11.8181972 C12.7316598,11.8800312 12.8333336,12.0259284 12.8333336,12.1877974 L12.8333336,12.1877974 L12.8333336,15.7533987 C12.8333336,15.9743127 12.6467855,16.1533988 12.4166668,16.1533988 L12.4166668,16.1533988 L8.70249875,16.1533988 C8.53425901,16.153042 8.38274996,16.0555895 8.31841767,15.9063532 C8.25408539,15.7571169 8.28955402,15.5853819 8.40833197,15.4709986 L8.40833197,15.4709986 L9.78666581,14.1485981 C9.8668966,14.0722943 9.87128087,13.9491839 9.79666582,13.867798 C8.56660725,12.5895862 6.51807459,12.4378538 5.09833075,13.5197979 C4.59775873,13.9201953 4.22967811,14.4520385 4.03916369,15.0501984 C3.8819926,15.4655167 3.40386984,15.6798829 2.97124663,15.5289986 C2.53862341,15.3781144 2.31532535,14.9191165 2.47249644,14.5037982 C3.04793553,12.8882342 4.46106316,11.6788738 6.19871991,11.3148809 Z M15.6008346,6.71259536 C15.8533322,6.48630527 16.2490624,6.49919541 16.4850016,6.74139537 L16.4850016,6.74139537 L18.7066691,9.02619621 C18.9306524,9.25693333 18.9306524,9.6146594 18.7066691,9.84539652 L18.7066691,9.84539652 L16.4841683,12.1301974 L16.4700016,12.1453974 C16.2316853,12.3735822 15.8480516,12.3799442 15.601668,12.1597974 C15.349926,11.9333774 15.3365078,11.5540919 15.571668,11.3117971 L15.571668,11.3117971 L17.395002,9.43979637 L15.5708346,7.56059567 C15.4535721,7.44628656 15.3903775,7.29074927 15.39605,7.13040782 C15.4017224,6.97006637 15.4757637,6.81900348 15.6008346,6.71259536 Z M13.3633338,6.73019536 C13.6037705,6.494221 13.9976041,6.48901387 14.2447191,6.71854199 C14.4918341,6.94807011 14.4994072,7.32611629 14.2616675,7.56459567 L14.2616675,7.56459567 L12.4383335,9.43979637 L14.2625008,11.3117971 C14.4926938,11.5480033 14.4860546,11.9169646 14.2475008,12.1453974 C14.2441675,12.1485974 14.1991674,12.1797974 14.1533341,12.2085974 C14.1275008,12.2245974 14.0833341,12.1877974 14.0833341,12.1877974 C14.0849154,11.5411573 13.6793018,10.9577058 13.056667,10.7109968 C12.7359888,10.5851571 12.381798,10.56105 12.0458333,10.6421968 C11.9747459,10.6600532 11.8991606,10.63954 11.8483332,10.5885968 L11.8483332,10.5885968 L11.1266663,9.84619652 C10.9025729,9.61519303 10.9025729,9.2571997 11.1266663,9.02619621 L11.1266663,9.02619621 L13.3483338,6.74539537 Z" id="ðŸ–-Color" fill="#5A5A5A"></path>
        <rect id="_Transparent_Rectangle_" fill-opacity="0" fill="#D8D8D8" x="0" y="0" width="24" height="24"></rect>
    </g>
</svg>