<svg width="24" height="24" viewBox="0 0 24 24" fill="none" xmlns="http://www.w3.org/2000/svg">
<g id="add">
<path id="Shape" fill-rule="evenodd" clip-rule="evenodd" d="M9.91667 14.0833V19.9167C9.91667 21.0673 10.8494 22 12 22C13.1506 22 14.0833 21.0673 14.0833 19.9167V14.0833H19.9167C21.0673 14.0833 22 13.1506 22 12C22 10.8494 21.0673 9.91667 19.9167 9.91667H14.0833V4.08333C14.0833 2.93274 13.1506 2 12 2C10.8494 2 9.91667 2.93274 9.91667 4.08333V9.91667H4.08333C2.93274 9.91667 2 10.8494 2 12C2 13.1506 2.93274 14.0833 4.08333 14.0833H9.91667Z" fill="#5A5A5A"/>
</g>
</svg>
