<?xml version="1.0" encoding="UTF-8"?>
<svg width="24px" height="24px" viewBox="0 0 24 24" version="1.1" xmlns="http://www.w3.org/2000/svg" xmlns:xlink="http://www.w3.org/1999/xlink">
    <title>1. Interface Essentials/add</title>
    <g id="1.-Interface-Essentials/add" stroke="none" stroke-width="1" fill="none" fill-rule="evenodd">
        <path d="M12,2 C13.1505932,2 14.0833333,2.9327401 14.0833333,4.08333333 L14.083,9.916 L19.9166667,9.91666667 C21.0672599,9.91666667 22,10.8494068 22,12 C22,13.1505932 21.0672599,14.0833333 19.9166667,14.0833333 L14.083,14.083 L14.0833333,19.9166667 C14.0833333,21.0672599 13.1505932,22 12,22 C10.8494068,22 9.91666667,21.0672599 9.91666667,19.9166667 L9.916,14.083 L4.08333333,14.0833333 C2.9327401,14.0833333 2,13.1505932 2,12 C2,10.8494068 2.9327401,9.91666667 4.08333333,9.91666667 L9.916,9.916 L9.91666667,4.08333333 C9.91666667,2.9327401 10.8494068,2 12,2 Z" id="ðŸ–-Color" fill="#5A5A5A"></path>
        <rect id="_Transparent_Rectangle_" fill-opacity="0" fill="#D8D8D8" x="0" y="0" width="24" height="24"></rect>
    </g>
</svg>