<?xml version="1.0" encoding="UTF-8"?>
<svg width="24px" height="24px" viewBox="0 0 24 24" version="1.1" xmlns="http://www.w3.org/2000/svg" xmlns:xlink="http://www.w3.org/1999/xlink">
    <title>1. Interface Essentials/add_doc</title>
    <g id="1.-Interface-Essentials/add_doc" stroke="none" stroke-width="1" fill="none" fill-rule="evenodd">
        <path d="M7.42,11.17 C10.41,11.17 12.83,13.59 12.83,16.58 C12.83,19.57 10.41,22 7.42,22 C4.43,22 2,19.57 2,16.58 C2,13.59 4.43,11.17 7.42,11.17 Z M7.42,13.87 C7.07,13.87 6.79,14.15 6.79,14.5 L6.79,14.5 L6.79,15.75 C6.79,15.87 6.7,15.96 6.58,15.96 L6.58,15.96 L5.33,15.96 C4.99,15.96 4.71,16.24 4.71,16.58 C4.71,16.93 4.99,17.21 5.33,17.21 L5.33,17.21 L6.58,17.21 C6.7,17.21 6.79,17.3 6.79,17.42 L6.79,17.42 L6.79,18.67 C6.79,19.01 7.07,19.29 7.42,19.29 C7.76,19.29 8.04,19.01 8.04,18.67 L8.04,18.67 L8.04,17.42 C8.04,17.3 8.13,17.21 8.25,17.21 L8.25,17.21 L9.5,17.21 C9.85,17.21 10.12,16.93 10.12,16.58 C10.12,16.24 9.85,15.96 9.5,15.96 L9.5,15.96 L8.25,15.96 C8.13,15.96 8.04,15.87 8.04,15.75 L8.04,15.75 L8.04,14.5 C8.04,14.15 7.76,13.87 7.42,13.87 Z M18.317,2.0001 C18.761,2.0001 19.187,2.1761 19.5,2.4901 L21.51,4.5001 C21.824,4.8141 22,5.2391 22,5.6831 L22,17.4201 C22,17.8601 21.83,18.2801 21.52,18.5901 C21.22,18.8901 20.82,19.0591 20.4,19.0801 L14.373,19.0801 C14.103,19.0801 13.922,18.8161 14,18.5571 C14.604,16.5381 14.331,14.0831 12.545,11.9891 C11.278,10.5031 9.373,9.7101 7.42,9.7101 L7.4,9.7101 C7.18,9.7101 7,9.5301 7,9.3101 L7,3.6701 C7,2.7511 7.751,2.0001 8.67,2.0001 L18.317,2.0001 Z" id="ðŸ–-Color" fill="#5A5A5A"></path>
        <rect id="_Transparent_Rectangle_" x="0" y="0" width="24" height="24"></rect>
    </g>
</svg>