<svg width="24" height="24" viewBox="0 0 24 24" fill="none" xmlns="http://www.w3.org/2000/svg">
<g id="add_doc">
<path id="Shape" fill-rule="evenodd" clip-rule="evenodd" d="M22 17.4201V5.6831C22 5.2391 21.824 4.8141 21.51 4.5001L19.5 2.4901C19.187 2.1761 18.761 2.0001 18.317 2.0001H8.67C7.751 2.0001 7 2.7511 7 3.6701V9.3101C7 9.5301 7.18 9.7101 7.4 9.7101H7.42C9.373 9.7101 11.278 10.5031 12.545 11.9891C14.331 14.0831 14.604 16.5381 14 18.5571C13.922 18.8161 14.103 19.0801 14.373 19.0801H20.4C20.82 19.0591 21.22 18.8901 21.52 18.5901C21.83 18.2801 22 17.8601 22 17.4201ZM8.25 17.21H9.5C9.85 17.21 10.12 16.93 10.12 16.58C10.12 16.24 9.85 15.96 9.5 15.96H8.25C8.13 15.96 8.04 15.87 8.04 15.75V14.5C8.04 14.15 7.76 13.87 7.42 13.87C7.07 13.87 6.79 14.15 6.79 14.5V15.75C6.79 15.87 6.7 15.96 6.58 15.96H5.33C4.99 15.96 4.71 16.24 4.71 16.58C4.71 16.93 4.99 17.21 5.33 17.21H6.58C6.7 17.21 6.79 17.3 6.79 17.42V18.67C6.79 19.01 7.07 19.29 7.42 19.29C7.76 19.29 8.04 19.01 8.04 18.67V17.42C8.04 17.3 8.13 17.21 8.25 17.21ZM2 16.58C2 13.59 4.43 11.17 7.42 11.17C10.41 11.17 12.83 13.59 12.83 16.58C12.83 19.57 10.41 22 7.42 22C4.43 22 2 19.57 2 16.58Z" fill="#5A5A5A"/>
</g>
</svg>
