<svg width="24" height="24" viewBox="0 0 24 24" fill="none" xmlns="http://www.w3.org/2000/svg">
<g id="alarm_bell_ring">
<path id="Shape" fill-rule="evenodd" clip-rule="evenodd" d="M17.6797 2.04213C19.7512 2.63592 21.3705 4.25521 21.9643 6.32669C22.0971 6.76699 21.848 7.23162 21.4078 7.36471C20.9681 7.49171 20.5074 7.24471 20.3698 6.80821C19.9376 5.27048 18.7359 4.06877 17.1982 3.63665C16.9064 3.55647 16.681 3.32435 16.6095 3.03031C16.5379 2.73627 16.6315 2.42656 16.8538 2.22127C17.0761 2.01598 17.3923 1.9474 17.6797 2.04213ZM6.32644 2.04213C6.76674 1.90932 7.23138 2.15841 7.36447 2.59863C7.42844 2.81041 7.40554 3.03894 7.30083 3.23382C7.19613 3.4287 7.0182 3.57393 6.8063 3.63749C6.05312 3.85635 5.36609 4.25883 4.80689 4.8088C4.2565 5.36754 3.85419 6.05476 3.63641 6.80821C3.55622 7.10001 3.32411 7.32538 3.03007 7.39693C2.73603 7.46848 2.42631 7.37495 2.22102 7.15261C2.01573 6.93027 1.94716 6.6141 2.04188 6.32669C2.63567 4.25521 4.25497 2.63592 6.32644 2.04213ZM6.48306 7.83124C6.33278 8.09154 6.05551 8.25238 5.75495 8.25361C5.61243 8.25472 5.47207 8.21884 5.34757 8.14948C5.15457 8.04153 5.01242 7.86129 4.95241 7.64846C4.89241 7.43563 4.91948 7.20767 5.02766 7.01481C5.58255 6.01389 6.40681 5.18848 7.40695 4.63219C7.80885 4.40812 8.3163 4.55228 8.54037 4.95418C8.76443 5.35608 8.62028 5.86352 8.21838 6.08759C7.48763 6.49425 6.88622 7.09855 6.48306 7.83124ZM17.9563 5.65938C17.5532 5.25727 17.0965 4.91273 16.5992 4.63552C16.3385 4.46945 16.0073 4.46136 15.7388 4.61452C15.4703 4.76768 15.3087 5.0569 15.319 5.36583C15.3293 5.67476 15.5097 5.9526 15.7878 6.08759C16.5177 6.49342 17.1192 7.09577 17.5239 7.82624C17.7541 8.2213 18.256 8.3628 18.6586 8.14614C18.8516 8.0382 18.9938 7.85796 19.0538 7.64513C19.1138 7.43229 19.0867 7.20434 18.9785 7.01148C18.7014 6.51607 18.3574 6.06111 17.9563 5.65938ZM13.2527 19.9168H10.7535C10.5234 19.9168 10.3369 20.1033 10.3369 20.3333C10.3369 21.2535 11.0829 21.9995 12.0031 21.9995C12.9233 21.9995 13.6693 21.2535 13.6693 20.3333C13.6693 20.1033 13.4828 19.9168 13.2527 19.9168ZM17.0016 16.5845C17.0016 17.0446 17.3746 17.4176 17.8347 17.4176C18.2948 17.4176 18.6678 17.7905 18.6678 18.2506C18.6678 18.7107 18.2948 19.0837 17.8347 19.0837H6.17149C5.71139 19.0837 5.3384 18.7107 5.3384 18.2506C5.3384 17.7905 5.71139 17.4176 6.17149 17.4176C6.63159 17.4176 7.00457 17.0446 7.00457 16.5845V12.8356C7.00457 9.96144 8.80987 7.57381 11.17 7.10979V5.75436C11.17 5.29426 11.543 4.92127 12.0031 4.92127C12.4632 4.92127 12.8362 5.29426 12.8362 5.75436V7.10895C15.1963 7.57298 17.0016 9.9606 17.0016 12.8356V16.5845Z" fill="#5A5A5A"/>
</g>
</svg>
