<svg width="24" height="24" viewBox="0 0 24 24" fill="none" xmlns="http://www.w3.org/2000/svg">
<g id="alarm_bell_disable">
<path id="Shape" fill-rule="evenodd" clip-rule="evenodd" d="M17.369 2.00122C14.8114 2.00122 12.738 4.07459 12.738 6.63222C12.738 9.18985 14.8114 11.2632 17.369 11.2632C19.9266 11.2632 22 9.18985 22 6.63222C22 5.404 21.5121 4.22609 20.6436 3.35761C19.7751 2.48913 18.5972 2.00122 17.369 2.00122ZM19.2635 9.15232C19.0969 9.15402 18.9364 9.08952 18.8172 8.97298L17.518 7.67377C17.4354 7.59224 17.3026 7.59224 17.22 7.67377L15.9208 8.97298C15.7633 9.14193 15.5262 9.21147 15.3025 9.15433C15.0787 9.09719 14.904 8.92248 14.8469 8.69873C14.7897 8.47498 14.8593 8.23789 15.0282 8.08046L16.3274 6.77873C16.409 6.6961 16.409 6.56329 16.3274 6.48066L15.0325 5.18398C14.8635 5.02655 14.794 4.78946 14.8511 4.56571C14.9082 4.34196 15.083 4.16725 15.3067 4.1101C15.5304 4.05296 15.7675 4.12251 15.925 4.29146L17.2217 5.59066C17.3043 5.6722 17.4371 5.6722 17.5197 5.59066L18.8215 4.29146C19.0703 4.05961 19.458 4.06645 19.6985 4.30693C19.939 4.54742 19.9458 4.93516 19.714 5.18398L18.4106 6.48318C18.329 6.56581 18.329 6.69862 18.4106 6.78125L19.7098 8.08046C19.892 8.25949 19.9471 8.53136 19.8489 8.76722C19.7507 9.00308 19.519 9.15553 19.2635 9.15232ZM11.5146 7.31087C11.051 6.9974 10.5389 6.76243 9.99898 6.61538V5.57972C9.99898 4.88218 9.43352 4.31672 8.73598 4.31672C8.03845 4.31672 7.47298 4.88218 7.47298 5.57972V6.61538C5.0135 7.2814 3.26299 9.79561 3.26299 12.7367V13.2806C3.26105 15.0722 2.84402 16.8388 2.04461 18.4421C1.97922 18.5726 1.98609 18.7277 2.06278 18.8519C2.13946 18.9761 2.27501 19.0517 2.42099 19.0517H15.051C15.197 19.0517 15.3325 18.9761 15.4092 18.8519C15.4859 18.7277 15.4927 18.5726 15.4274 18.4421C14.6284 16.8387 14.2113 15.0721 14.209 13.2806V12.7367C14.2092 12.3367 14.1763 11.9373 14.1105 11.5428C12.6648 10.5826 11.7153 9.03467 11.5146 7.31087ZM10.0015 19.8937H7.47551C7.243 19.8937 7.05451 20.0822 7.05451 20.3147C7.05451 21.2448 7.80846 21.9987 8.73851 21.9987C9.66856 21.9987 10.4225 21.2448 10.4225 20.3147C10.4225 20.0822 10.234 19.8937 10.0015 19.8937Z" fill="#5A5A5A"/>
</g>
</svg>
