<svg width="24" height="24" viewBox="0 0 24 24" fill="none" xmlns="http://www.w3.org/2000/svg">
<g id="alarm_bell_1">
<path id="Shape" fill-rule="evenodd" clip-rule="evenodd" d="M18.4167 11.9533C18.4198 14.0755 18.918 16.1676 19.8717 18.0633V18.0625C19.9368 18.1916 19.9303 18.3452 19.8545 18.4683C19.7788 18.5915 19.6446 18.6665 19.5001 18.6667H4.50005C4.35573 18.6664 4.22183 18.5914 4.14614 18.4685C4.07044 18.3457 4.06373 18.1924 4.12838 18.0633C5.08214 16.1676 5.58035 14.0755 5.58338 11.9533V11.3133C5.54551 8.97962 6.57278 6.75575 8.37422 5.27167C9.07186 4.73572 9.88567 4.37121 10.75 4.2075V3.25C10.75 2.55964 11.3097 2 12.0001 2C12.6904 2 13.2501 2.55964 13.2501 3.25V4.19667C13.9426 4.32045 14.6037 4.58047 15.1951 4.96167C17.2566 6.41295 18.4636 8.79263 18.4167 11.3133V11.9533ZM10.1367 19.5H13.8634C13.9696 19.4994 14.0589 19.5794 14.0701 19.685C14.0791 19.7619 14.0836 19.8393 14.0834 19.9167C14.0834 21.0673 13.1506 22 12.0001 22C10.8495 22 9.91672 21.0673 9.91672 19.9167C9.91652 19.8393 9.92097 19.7619 9.93005 19.685C9.94191 19.5798 10.0308 19.5002 10.1367 19.5Z" fill="#5A5A5A"/>
</g>
</svg>
