<?xml version="1.0" encoding="UTF-8"?>
<svg width="24px" height="24px" viewBox="0 0 24 24" version="1.1" xmlns="http://www.w3.org/2000/svg" xmlns:xlink="http://www.w3.org/1999/xlink">
    <title>1. Interface Essentials/alarm_bell_ring</title>
    <g id="1.-Interface-Essentials/alarm_bell_ring" stroke="none" stroke-width="1" fill="none" fill-rule="evenodd">
        <path d="M13.2527127,19.9169242 C13.4827628,19.9169242 13.6692553,20.1034167 13.6692553,20.3334668 C13.6692553,21.2536674 12.9232854,21.9996373 12.0030848,21.9996373 C11.0828843,21.9996373 10.3369143,21.2536674 10.3369143,20.3334668 C10.3369143,20.1034167 10.5234068,19.9169242 10.753457,19.9169242 L10.753457,19.9169242 Z M12.0030848,4.92138985 C12.4631851,4.92138985 12.8361701,5.29437482 12.8361701,5.75447509 L12.8361701,5.75447509 L12.8361701,7.1090717 C15.1963006,7.57310018 17.0015963,9.96072248 17.0015963,12.8356997 L17.0015963,12.8356997 L17.0015963,16.5845833 C17.0015963,17.0446835 17.3745813,17.4176685 17.8346815,17.4176685 C18.2947818,17.4176685 18.6677668,17.7906535 18.6677668,18.2507537 C18.6677668,18.710854 18.2947818,19.083839 17.8346815,19.083839 L17.8346815,19.083839 L6.17148813,19.083839 C5.71138786,19.083839 5.33840289,18.710854 5.33840289,18.2507537 C5.33840289,17.7906535 5.71138786,17.4176685 6.17148813,17.4176685 C6.63158841,17.4176685 7.00457337,17.0446835 7.00457337,16.5845833 L7.00457337,16.5845833 L7.00457337,12.8356997 C7.00457337,9.96155557 8.8098691,7.57393326 11.1699996,7.10990478 L11.1699996,7.10990478 L11.1699996,5.75447509 C11.1699996,5.29437482 11.5429846,4.92138985 12.0030848,4.92138985 Z M7.40695355,4.63230927 C7.80885114,4.40824043 8.31629719,4.55239912 8.54036602,4.95429671 C8.76443485,5.3561943 8.62027616,5.86364035 8.21837857,6.08770919 C7.48762727,6.49436964 6.88621805,7.09866608 6.48306201,7.8313566 C6.33278141,8.09165606 6.05550923,8.25249931 5.75494551,8.25375562 C5.61243159,8.25483641 5.47206783,8.21895611 5.34756683,8.14959516 C5.15457479,8.04165151 5.01241578,7.86140834 4.95241051,7.64857712 C4.89240523,7.43574591 4.91947728,7.20779002 5.02766209,7.01493306 C5.58254921,6.01400816 6.40680623,5.18859671 7.40695355,4.63230927 Z M15.7388187,4.61463717 C16.007306,4.46147981 16.3385221,4.46956562 16.5992161,4.63564161 C17.0965469,4.91284447 17.553224,5.25738474 17.956312,5.65950337 C18.3574011,6.06122459 18.7013535,6.51618372 18.9785076,7.01160072 C19.0866924,7.20445768 19.1137644,7.43241357 19.0537592,7.64524478 C18.9937539,7.858076 18.8515949,8.03831917 18.6586028,8.14626282 C18.2559836,8.36291553 17.7540958,8.22141413 17.5239407,7.82635809 C17.1191607,7.09588616 16.51768,6.49353956 15.7877911,6.08770919 C15.5097244,5.95272208 15.3292534,5.67487373 15.318983,5.36594471 C15.3087126,5.05701569 15.4703313,4.76779453 15.7388187,4.61463717 Z M6.32644199,2.04224725 C6.76674237,1.9094343 7.23137589,2.15853156 7.3644662,2.59874819 C7.42843579,2.81052788 7.40554247,3.03905488 7.30083445,3.23393683 C7.19612642,3.42881878 7.0182034,3.57404995 6.80629909,3.63760549 C6.05312325,3.8564638 5.36609192,4.25894966 4.8068945,4.80892334 C4.25649566,5.36765484 3.85418625,6.05487377 3.63640974,6.80832792 C3.55622415,7.10013032 3.32410726,7.32550202 3.03006771,7.39704997 C2.73602815,7.46859793 2.42631386,7.37506874 2.22102364,7.1527305 C2.01573342,6.93039226 1.94715628,6.61421536 2.04188458,6.32680465 C2.63567203,4.25533281 4.25497015,2.6360347 6.32644199,2.04224725 Z M16.8538018,2.22138631 C17.0761401,2.01609608 17.392317,1.94751895 17.6797277,2.04224725 C19.7511995,2.6360347 21.3704976,4.25533281 21.9642851,6.32680465 C22.097098,6.76710504 21.8480008,7.23173856 21.4077841,7.36482887 C20.9680817,7.49182966 20.5073599,7.24482954 20.3697599,6.80832792 C19.9376467,5.2706029 18.7359294,4.06888563 17.1982044,3.6367724 C16.906402,3.55658682 16.6810303,3.32446993 16.6094824,3.03043037 C16.5379344,2.73639082 16.6314636,2.42667653 16.8538018,2.22138631 Z" id="ðŸ–-Color" fill="#5A5A5A"></path>
        <rect id="_Transparent_Rectangle_" x="0" y="0" width="24" height="24"></rect>
    </g>
</svg>