<svg width="24" height="24" viewBox="0 0 24 24" fill="none" xmlns="http://www.w3.org/2000/svg">
<g id="alarm_bell_check">
<path id="Shape" fill-rule="evenodd" clip-rule="evenodd" d="M17.4167 2C14.8854 2 12.8333 4.05203 12.8333 6.58334C12.8333 9.11464 14.8854 11.1667 17.4167 11.1667C19.948 11.1667 22 9.11464 22 6.58334C22 4.05203 19.948 2 17.4167 2ZM16.4792 8.77167C16.3133 8.77208 16.1543 8.70605 16.0375 8.58834L14.7875 7.33834C14.6203 7.18253 14.5515 6.94787 14.608 6.72643C14.6646 6.50498 14.8375 6.33207 15.0589 6.27551C15.2804 6.21896 15.515 6.28779 15.6708 6.455L16.4792 7.2625L19.1667 4.58333C19.4129 4.35387 19.7967 4.36064 20.0347 4.59865C20.2727 4.83666 20.2795 5.22041 20.05 5.46667L16.925 8.59167C16.8066 8.7092 16.6459 8.77408 16.4792 8.77167ZM11.6825 7.6575C11.1572 7.2509 10.5573 6.95135 9.91666 6.77584V5.75C9.91666 5.05965 9.35701 4.5 8.66666 4.5C7.9763 4.5 7.41666 5.05965 7.41666 5.75V6.775C4.98249 7.43417 3.24999 9.92251 3.24999 12.8333V13.3717C3.24807 15.1447 2.83533 16.8932 2.04415 18.48C1.97943 18.6092 1.98623 18.7626 2.06213 18.8856C2.13803 19.0085 2.27218 19.0833 2.41665 19.0833H14.9167C15.0611 19.0833 15.1953 19.0085 15.2712 18.8856C15.3471 18.7626 15.3539 18.6092 15.2892 18.48C14.4984 16.8931 14.0857 15.1447 14.0833 13.3717V12.8333C14.084 12.2963 14.0239 11.761 13.9042 11.2375C12.744 10.3621 11.9519 9.08568 11.6825 7.6575ZM7.41666 19.9167C7.18654 19.9167 6.99999 20.1032 6.99999 20.3333C6.99999 21.2538 7.74618 22 8.66666 22C9.58713 22 10.3333 21.2538 10.3333 20.3333C10.3333 20.1032 10.1468 19.9167 9.91666 19.9167H7.41666Z" fill="#5A5A5A"/>
</g>
</svg>
