<?xml version="1.0" encoding="UTF-8"?>
<svg width="24px" height="24px" viewBox="0 0 24 24" version="1.1" xmlns="http://www.w3.org/2000/svg" xmlns:xlink="http://www.w3.org/1999/xlink">
    <title>1. Interface Essentials/alarm_clock</title>
    <g id="1.-Interface-Essentials/alarm_clock" stroke="none" stroke-width="1" fill="none" fill-rule="evenodd">
        <path d="M4.85679537,8.66859088 C6.44834344,5.18944064 10.1413375,3.3229274 13.7498243,4.17387571 C17.3583111,5.02482402 19.9194758,8.3661842 19.9173179,12.2201419 C19.9163667,14.7454353 18.8030981,17.1306451 16.8970634,18.691121 L16.8970634,18.691121 L18.8400234,20.7159056 C19.1652792,21.0548161 19.1652792,21.60419 18.8400234,21.9431004 C18.5120901,22.2753574 17.9898498,22.2753574 17.6619164,21.9431004 L17.6619164,21.9431004 L15.4490082,19.6371198 C13.2722828,20.7364164 10.7320579,20.7364164 8.55533252,19.6371198 L8.55533252,19.6371198 L6.34242429,21.946572 C6.01449096,22.278829 5.49225061,22.278829 5.16431728,21.946572 C4.83906148,21.6076615 4.83906148,21.0582876 5.16431728,20.7193772 L5.16431728,20.7193772 L7.10727736,18.6945925 C4.19980139,16.3112229 3.26524731,12.1477411 4.85679537,8.66859088 Z M12.0021704,5.92794784 C11.6570587,5.92794784 11.3772904,6.21937314 11.3772904,6.57886446 L11.3772904,6.57886446 L11.3772904,12.2166703 C11.3772904,12.5761616 11.6570587,12.8675869 12.0021704,12.8675869 L12.0021704,12.8675869 L14.9182768,12.8675869 C15.2633885,12.8675869 15.5431568,12.5761616 15.5431568,12.2166703 C15.5431568,11.857179 15.2633885,11.5657537 14.9182768,11.5657537 L14.9182768,11.5657537 L12.6270503,11.5657537 L12.6270503,6.57886446 C12.6270503,6.21937314 12.347282,5.92794784 12.0021704,5.92794784 Z M3.0945176,2.94479213 C4.51462015,1.46528528 6.80333773,1.41938986 8.27705264,2.84086727 C8.37995008,2.93906713 8.42880897,3.0844131 8.40719877,3.22802741 C8.38558857,3.37164172 8.29638025,3.49444482 8.16957329,3.55513978 C6.18696197,4.50818165 4.59535588,6.16610467 3.68043568,8.23132479 C3.61142244,8.38411983 3.46427961,8.48202599 3.30217501,8.48301275 C3.18571529,8.48312631 3.07452692,8.43245453 2.99556724,8.34328245 C1.63071648,6.80838699 1.67441506,4.42429897 3.0945176,2.94479213 Z M18.2509699,1.80545787 C19.7384661,1.80077649 21.0870427,2.7153287 21.6848266,4.13418411 C22.2826106,5.55303951 22.0157958,7.20607624 21.0054408,8.34328245 C20.9264811,8.43245453 20.8152927,8.48312631 20.698833,8.48301275 C20.5375456,8.47918759 20.3917144,8.38215413 20.3205724,8.23132479 C19.4056522,6.16610467 17.8140461,4.50818165 15.8314347,3.55513978 C15.7046278,3.49444482 15.6154195,3.37164172 15.5938093,3.22802741 C15.5721991,3.0844131 15.621058,2.93906713 15.7239554,2.84086727 C16.411802,2.17778419 17.313775,1.80821958 18.2509699,1.80545787 Z" id="ðŸ–-Color" fill="#5A5A5A"></path>
        <rect id="_Transparent_Rectangle_" x="0" y="0" width="24" height="24"></rect>
    </g>
</svg>