<?xml version="1.0" encoding="UTF-8"?>
<svg width="24px" height="24px" viewBox="0 0 24 24" version="1.1" xmlns="http://www.w3.org/2000/svg" xmlns:xlink="http://www.w3.org/1999/xlink">
    <title>1. Interface Essentials/alarm_bell_check</title>
    <g id="1.-Interface-Essentials/alarm_bell_check" stroke="none" stroke-width="1" fill="none" fill-rule="evenodd">
        <path d="M9.91666661,19.916672 C10.1467854,19.916672 10.3333336,20.1032202 10.3333336,20.333339 C10.3333336,21.2538142 9.58714097,22.0000068 8.66666576,22.0000068 C7.74619056,22.0000068 6.99999797,21.2538142 6.99999797,20.333339 C6.99999797,20.1032202 7.18654611,19.916672 7.41666492,19.916672 L7.41666492,19.916672 Z M8.66666576,4.49999492 C9.35702217,4.49999492 9.91666661,5.05963936 9.91666661,5.74999577 L9.91666661,5.74999577 L9.91666661,6.77582979 C10.5572969,6.95134674 11.1572484,7.25089782 11.6825011,7.65749706 C11.9518647,9.08567649 12.7440037,10.3621316 13.9041693,11.2374995 C14.0239015,11.7609821 14.0840062,12.2963335 14.0833361,12.8333339 L14.0833361,12.8333339 L14.0833361,13.3716676 C14.0856761,15.1446859 14.4983927,16.8930986 15.2891703,18.4800044 C15.3538929,18.6091655 15.3470904,18.7626358 15.2711941,18.8855641 C15.1952977,19.0084924 15.0611401,19.0833381 14.91667,19.0833381 L14.91667,19.0833381 L2.41666153,19.0833381 C2.27219138,19.0833381 2.13803382,19.0084924 2.06213747,18.8855641 C1.98624113,18.7626358 1.97943865,18.6091655 2.04416128,18.4800044 C2.83533921,16.8932434 3.24807838,15.1447353 3.24999543,13.3716676 L3.24999543,13.3716676 L3.24999543,12.8333339 C3.24999543,9.92249859 4.9824966,7.43416357 7.41666492,6.77499646 L7.41666492,6.77499646 L7.41666492,5.74999577 C7.41666492,5.05963936 7.97630936,4.49999492 8.66666576,4.49999492 Z M17.4166717,1.99999322 C19.9479785,1.99999322 22.0000081,4.05202284 22.0000081,6.58332966 C22.0000081,9.11463648 19.9479785,11.1666661 17.4166717,11.1666661 C14.8853649,11.1666661 12.8333353,9.11463648 12.8333353,6.58332966 C12.8333353,4.05202284 14.8853649,1.99999322 17.4166717,1.99999322 Z M20.0346916,4.59864349 C19.7966814,4.36063326 19.4129312,4.35386244 19.1666729,4.58332831 L19.1666729,4.58332831 L16.4791711,7.26249679 L15.6708372,6.45499624 C15.5150283,6.28778515 15.280374,6.2189551 15.0589293,6.27550817 C14.8374847,6.33206124 14.6645682,6.50497771 14.6080152,6.72642234 C14.5514621,6.94786696 14.6202921,7.18252125 14.7875032,7.33833017 L14.7875032,7.33833017 L16.0375041,8.58833102 C16.1542875,8.706044 16.3133563,8.77207258 16.4791711,8.77166448 C16.6459441,8.77407528 16.8066547,8.70919026 16.9250047,8.59166436 L16.9250047,8.59166436 L20.0500068,5.46666224 C20.2794727,5.22040394 20.2727019,4.83665371 20.0346916,4.59864349 Z" id="ðŸ–-Color" fill="#5A5A5A"></path>
        <rect id="_Transparent_Rectangle_" x="0" y="0" width="24" height="24"></rect>
    </g>
</svg>