<svg width="24" height="24" viewBox="0 0 24 24" fill="none" xmlns="http://www.w3.org/2000/svg">
<g id="alarm_clock">
<path id="Shape" fill-rule="evenodd" clip-rule="evenodd" d="M8.16957 3.5551C8.29638 3.49441 8.38559 3.37161 8.4072 3.22799C8.42881 3.08438 8.37995 2.93903 8.27705 2.84083C6.80334 1.41935 4.51462 1.46525 3.09452 2.94476C1.67441 4.42426 1.63072 6.80835 2.99557 8.34325C3.07453 8.43242 3.18572 8.48309 3.30218 8.48298C3.46428 8.48199 3.61142 8.38408 3.68044 8.23129C4.59536 6.16607 6.18696 4.50815 8.16957 3.5551ZM13.7498 4.17384C17.3583 5.02479 19.9195 8.36615 19.9173 12.2201C19.9164 14.7454 18.8031 17.1306 16.8971 18.6911L18.84 20.7159C19.1653 21.0548 19.1653 21.6042 18.84 21.9431C18.5121 22.2753 17.9898 22.2753 17.6619 21.9431L15.449 19.6371C13.2723 20.7364 10.7321 20.7364 8.55533 19.6371L6.34242 21.9465C6.01449 22.2788 5.49225 22.2788 5.16432 21.9465C4.83906 21.6076 4.83906 21.0583 5.16432 20.7193L7.10728 18.6946C4.1998 16.3112 3.26525 12.1477 4.8568 8.66856C6.44834 5.1894 10.1413 3.32289 13.7498 4.17384ZM12.0022 5.92791C11.6571 5.92791 11.3773 6.21934 11.3773 6.57883V12.2166C11.3773 12.5761 11.6571 12.8676 12.0022 12.8676H14.9183C15.2634 12.8676 15.5432 12.5761 15.5432 12.2166C15.5432 11.8571 15.2634 11.5657 14.9183 11.5657H12.6271V6.57883C12.6271 6.21934 12.3473 5.92791 12.0022 5.92791ZM15.724 2.84083C16.4118 2.17775 17.3138 1.80818 18.251 1.80544C19.7385 1.80074 21.087 2.71529 21.6848 4.13415C22.2826 5.553 22.0158 7.20604 21.0054 8.34325C20.9265 8.43242 20.8153 8.48309 20.6988 8.48298C20.5375 8.47915 20.3917 8.38212 20.3206 8.23129C19.4057 6.16607 17.814 4.50815 15.8314 3.5551C15.7046 3.49441 15.6154 3.37161 15.5938 3.22799C15.5722 3.08438 15.6211 2.93903 15.724 2.84083Z" fill="#5A5A5A"/>
</g>
</svg>
