<?xml version="1.0" encoding="UTF-8"?>
<svg width="24px" height="24px" viewBox="0 0 24 24" version="1.1" xmlns="http://www.w3.org/2000/svg" xmlns:xlink="http://www.w3.org/1999/xlink">
    <title>1. Interface Essentials/alarm_bell_disable</title>
    <g id="1.-Interface-Essentials/alarm_bell_disable" stroke="none" stroke-width="1" fill="none" fill-rule="evenodd">
        <path d="M10.0015074,19.8937451 C10.2340191,19.8937451 10.4225071,20.0822331 10.4225071,20.3147449 C10.4225071,21.2447918 9.66855511,21.9987438 8.73850816,21.9987438 C7.80846121,21.9987438 7.0545092,21.2447918 7.0545092,20.3147449 C7.0545092,20.0822331 7.2429972,19.8937451 7.47550894,19.8937451 L7.47550894,19.8937451 Z M8.73598216,4.31675473 C9.43351737,4.31675473 9.99898139,4.88221874 9.99898139,5.57975395 L9.99898139,5.57975395 L9.99898139,6.61541331 C10.5389383,6.76246326 11.0509903,6.99743826 11.5145805,7.31090489 C11.7152609,9.03470222 12.664806,10.5826795 14.1104649,11.5427943 C14.176275,11.9373689 14.2092261,12.3367245 14.2089788,12.7367495 L14.2089788,12.7367495 L14.2089788,13.2806812 C14.2113431,15.0721365 14.6283515,16.8387304 15.427352,18.442138 C15.4927477,18.5726423 15.4858745,18.7277085 15.4091889,18.8519151 C15.3325034,18.9761217 15.1969507,19.0517457 15.0509783,19.0517457 L15.0509783,19.0517457 L2.42098605,19.0517457 C2.2750136,19.0517457 2.13946097,18.9761217 2.06277541,18.8519151 C1.98608984,18.7277085 1.97921662,18.5726423 2.04461228,18.442138 C2.84401743,16.8388768 3.26104855,15.0721866 3.26298553,13.2806812 L3.26298553,13.2806812 L3.26298553,12.7367495 C3.26298553,9.79564536 5.01350245,7.2814349 7.47298294,6.61541331 L7.47298294,6.61541331 L7.47298294,5.57975395 C7.47298294,4.88221874 8.03844695,4.31675473 8.73598216,4.31675473 Z M17.3690028,2.00125615 C18.5972197,2.00125615 19.7751319,2.48916338 20.6436123,3.35764381 C21.5120928,4.22612425 22,5.40403649 22,6.6322533 C22,9.18988241 19.926632,11.2632505 17.3690028,11.2632505 C14.8113737,11.2632505 12.7380057,9.18988241 12.7380057,6.6322533 C12.7380057,4.0746242 14.8113737,2.00125615 17.3690028,2.00125615 Z M15.9249737,4.29149474 C15.7675446,4.12254487 15.5304502,4.05299908 15.3067029,4.11014023 C15.0829555,4.16728138 14.9082409,4.34199596 14.8510998,4.56574331 C14.7939586,4.78949067 14.8635044,5.02658506 15.0324543,5.18401419 L15.0324543,5.18401419 L16.3274495,6.4806934 C16.4089843,6.56332177 16.4089843,6.69613283 16.3274495,6.77876121 L16.3274495,6.77876121 L15.0282443,8.08049241 C14.8592944,8.23792154 14.7897486,8.47501594 14.8468898,8.69876329 C14.9040309,8.92251065 15.0787455,9.09722523 15.3024929,9.15436638 C15.5262402,9.21150753 15.7633346,9.14196173 15.9207637,8.97301186 L15.9207637,8.97301186 L17.2199689,7.67380666 C17.3025973,7.59227182 17.4354084,7.59227182 17.5180368,7.67380666 L17.5180368,7.67380666 L18.817242,8.97301186 C18.9363625,9.08955163 19.0968633,9.1540548 19.2635017,9.15235775 C19.5189672,9.1555694 19.7507173,9.00311839 19.8489152,8.76725803 C19.9471132,8.53139767 19.8920258,8.25952495 19.7097614,8.08049241 L19.7097614,8.08049241 L18.4105562,6.78128721 C18.3290214,6.69865883 18.3290214,6.56584777 18.4105562,6.4832194 L18.4105562,6.4832194 L19.7139714,5.18401419 C19.9458234,4.93519513 19.9389822,4.5474544 19.698497,4.30696918 C19.4580118,4.06648396 19.070271,4.05964273 18.821452,4.29149474 L18.821452,4.29149474 L17.5197208,5.59069994 C17.4370924,5.67223478 17.3042813,5.67223478 17.2216529,5.59069994 L17.2216529,5.59069994 Z" id="ðŸ–-Color" fill="#5A5A5A"></path>
        <rect id="_Transparent_Rectangle_" x="0" y="0" width="24" height="24"></rect>
    </g>
</svg>