<?xml version="1.0" encoding="UTF-8"?>
<svg width="24px" height="24px" viewBox="0 0 24 24" version="1.1" xmlns="http://www.w3.org/2000/svg" xmlns:xlink="http://www.w3.org/1999/xlink">
    <title>1. Interface Essentials/alarm_bell_1</title>
    <g id="1.-Interface-Essentials/alarm_bell_1" stroke="none" stroke-width="1" fill="none" fill-rule="evenodd">
        <path d="M13.8633755,19.4999979 C13.9695619,19.4994161 14.0589112,19.579398 14.0700422,19.6850011 C14.0791231,19.7618865 14.0835756,19.8392482 14.083382,19.9166678 C14.083382,21.0672612 13.1506353,21.9999979 12.0000418,21.9999979 C10.8494484,21.9999979 9.91670172,21.0672612 9.91670172,19.9166678 C9.91650809,19.8392482 9.92096056,19.7618865 9.93004151,19.6850011 C9.94190157,19.5797726 10.0308136,19.500182 10.1367082,19.4999979 L10.1367082,19.4999979 Z M12.0000418,1.99999829 C12.6903979,1.99999829 13.250042,2.55964244 13.250042,3.24999849 L13.250042,3.24999849 L13.250042,4.1966653 C13.9426109,4.32044388 14.6037202,4.58046886 15.1950423,4.96166543 C17.2565806,6.41294718 18.463592,8.79262669 18.4167095,11.3133331 L18.4167095,11.9533332 C18.4197449,14.0754622 18.9179554,16.1676038 19.8717098,18.0633342 C19.9367629,18.1915991 19.9302517,18.3451911 19.8545059,18.4683204 C19.7787601,18.5914498 19.6446053,18.6666676 19.500043,18.6666676 L19.500043,18.6666676 L4.50004064,18.6666676 C4.3557189,18.6663743 4.22182644,18.5914178 4.14613082,18.4685397 C4.0704352,18.3456616 4.06371734,18.1923628 4.12837392,18.0633342 C5.08212826,16.1676038 5.58033874,14.0754622 5.58337415,11.9533332 L5.58337415,11.9533332 L5.5841662,11.0222364 C5.63244797,8.79557977 6.64783315,6.69390892 8.37420793,5.27166547 C9.0718522,4.73572225 9.88566716,4.37120394 10.7500416,4.20749864 L10.7500416,4.20749864 L10.7500416,3.24999849 C10.7500416,2.55964244 11.3096858,1.99999829 12.0000418,1.99999829 Z" id="ðŸ–-Color" fill="#5A5A5A"></path>
        <rect id="_Transparent_Rectangle_" x="0" y="0" width="24" height="24"></rect>
    </g>
</svg>