<?xml version="1.0" encoding="UTF-8"?>
<svg width="24px" height="24px" viewBox="0 0 24 24" version="1.1" xmlns="http://www.w3.org/2000/svg" xmlns:xlink="http://www.w3.org/1999/xlink">
    <title>1. Interface Essentials/arrow_left</title>
    <g id="1.-Interface-Essentials/arrow_left" stroke="none" stroke-width="1" fill="none" fill-rule="evenodd">
        <path d="M9.42857143,12 C9.42857143,11.8761905 9.4647619,11.7657143 9.53714286,11.6685714 L9.59821429,11.5982143 L13.5982143,7.59821429 C13.7113095,7.48511905 13.8452381,7.42857143 14,7.42857143 C14.1547619,7.42857143 14.2886905,7.48511905 14.4017857,7.59821429 C14.4922619,7.68869048 14.5465476,7.7925 14.5646429,7.90964286 L14.5714286,8 L14.5714286,16 C14.5714286,16.1547619 14.514881,16.2886905 14.4017857,16.4017857 C14.2886905,16.514881 14.1547619,16.5714286 14,16.5714286 C13.8761905,16.5714286 13.7657143,16.5352381 13.6685714,16.4628571 L13.5982143,16.4017857 L9.59821429,12.4017857 C9.48511905,12.2886905 9.42857143,12.1547619 9.42857143,12 Z" id="ðŸ–-Color" fill="#5A5A5A"></path>
        <rect id="_Transparent_Rectangle_" x="0" y="0" width="24" height="24"></rect>
    </g>
</svg>