<svg width="24" height="24" viewBox="0 0 24 24" fill="none" xmlns="http://www.w3.org/2000/svg">
<g id="arrow_left">
<path id="Shape" fill-rule="evenodd" clip-rule="evenodd" d="M9.42847 12C9.42847 11.8762 9.46466 11.7657 9.53704 11.6686L9.59811 11.5982L13.5981 7.59823C13.7112 7.48514 13.8451 7.42859 13.9999 7.42859C14.1547 7.42859 14.2886 7.48514 14.4017 7.59823C14.4922 7.68871 14.5464 7.79252 14.5645 7.90966L14.5713 8.00002V16C14.5713 16.1548 14.5148 16.2887 14.4017 16.4018C14.2886 16.5149 14.1547 16.5714 13.9999 16.5714C13.8761 16.5714 13.7656 16.5353 13.6685 16.4629L13.5981 16.4018L9.59811 12.4018C9.48501 12.2887 9.42847 12.1548 9.42847 12Z" fill="#5A5A5A"/>
</g>
</svg>
