<svg width="24" height="24" viewBox="0 0 24 24" fill="none" xmlns="http://www.w3.org/2000/svg">
<g id="arrow_up">
<path id="Shape" fill-rule="evenodd" clip-rule="evenodd" d="M11.9999 9.42859C12.1237 9.42859 12.2342 9.46478 12.3313 9.53716L12.4017 9.59823L16.4017 13.5982C16.5148 13.7113 16.5713 13.8453 16.5713 14C16.5713 14.1548 16.5148 14.2887 16.4017 14.4018C16.3112 14.4923 16.2074 14.5466 16.0903 14.5647L15.9999 14.5714H7.9999C7.84513 14.5714 7.7112 14.5149 7.59811 14.4018C7.48501 14.2887 7.42847 14.1548 7.42847 14C7.42847 13.8762 7.46466 13.7657 7.53704 13.6686L7.59811 13.5982L11.5981 9.59823C11.7112 9.48514 11.8451 9.42859 11.9999 9.42859Z" fill="#5A5A5A"/>
</g>
</svg>
