<?xml version="1.0" encoding="UTF-8"?>
<svg width="24px" height="24px" viewBox="0 0 24 24" version="1.1" xmlns="http://www.w3.org/2000/svg" xmlns:xlink="http://www.w3.org/1999/xlink">
    <title>1. Interface Essentials/arrow_up</title>
    <g id="1.-Interface-Essentials/arrow_up" stroke="none" stroke-width="1" fill="none" fill-rule="evenodd">
        <path d="M12,9.42857143 C12.1238095,9.42857143 12.2342857,9.4647619 12.3314286,9.53714286 L12.4017857,9.59821429 L16.4017857,13.5982143 C16.514881,13.7113095 16.5714286,13.8452381 16.5714286,14 C16.5714286,14.1547619 16.514881,14.2886905 16.4017857,14.4017857 C16.3113095,14.4922619 16.2075,14.5465476 16.0903571,14.5646429 L16,14.5714286 L8,14.5714286 C7.8452381,14.5714286 7.71130952,14.514881 7.59821429,14.4017857 C7.48511905,14.2886905 7.42857143,14.1547619 7.42857143,14 C7.42857143,13.8761905 7.4647619,13.7657143 7.53714286,13.6685714 L7.59821429,13.5982143 L11.5982143,9.59821429 C11.7113095,9.48511905 11.8452381,9.42857143 12,9.42857143 Z" id="ðŸ–-Color" fill="#5A5A5A"></path>
        <rect id="_Transparent_Rectangle_" x="0" y="0" width="24" height="24"></rect>
    </g>
</svg>