<?xml version="1.0" encoding="UTF-8"?>
<svg width="24px" height="24px" viewBox="0 0 24 24" version="1.1" xmlns="http://www.w3.org/2000/svg" xmlns:xlink="http://www.w3.org/1999/xlink">
    <title>1. Interface Essentials/arrow_right</title>
    <g id="1.-Interface-Essentials/arrow_right" stroke="none" stroke-width="1" fill="none" fill-rule="evenodd">
        <path d="M14.5714286,12 C14.5714286,11.8761905 14.5352381,11.7657143 14.4628571,11.6685714 L14.4017857,11.5982143 L10.4017857,7.59821429 C10.2886905,7.48511905 10.1547619,7.42857143 10,7.42857143 C9.8452381,7.42857143 9.71130952,7.48511905 9.59821429,7.59821429 C9.5077381,7.68869048 9.45345238,7.7925 9.43535714,7.90964286 L9.42857143,8 L9.42857143,16 C9.42857143,16.1547619 9.48511905,16.2886905 9.59821429,16.4017857 C9.71130952,16.514881 9.8452381,16.5714286 10,16.5714286 C10.1238095,16.5714286 10.2342857,16.5352381 10.3314286,16.4628571 L10.4017857,16.4017857 L14.4017857,12.4017857 C14.514881,12.2886905 14.5714286,12.1547619 14.5714286,12 Z" id="ðŸ–-Color" fill="#5A5A5A"></path>
        <rect id="_Transparent_Rectangle_" x="0" y="0" width="24" height="24"></rect>
    </g>
</svg>