<?xml version="1.0" encoding="UTF-8"?>
<svg width="24px" height="24px" viewBox="0 0 24 24" version="1.1" xmlns="http://www.w3.org/2000/svg" xmlns:xlink="http://www.w3.org/1999/xlink">
    <title>1. Interface Essentials/arrow_down</title>
    <g id="1.-Interface-Essentials/arrow_down" stroke="none" stroke-width="1" fill="none" fill-rule="evenodd">
        <path d="M12,14.5714286 C12.1547619,14.5714286 12.2886905,14.514881 12.4017857,14.4017857 L12.4017857,14.4017857 L16.4017857,10.4017857 C16.514881,10.2886905 16.5714286,10.1547619 16.5714286,10 C16.5714286,9.8452381 16.514881,9.71130952 16.4017857,9.59821429 C16.2886905,9.48511905 16.1547619,9.42857143 16,9.42857143 L16,9.42857143 L8,9.42857143 C7.8452381,9.42857143 7.71130952,9.48511905 7.59821429,9.59821429 C7.48511905,9.71130952 7.42857143,9.8452381 7.42857143,10 C7.42857143,10.1547619 7.48511905,10.2886905 7.59821429,10.4017857 L7.59821429,10.4017857 L11.5982143,14.4017857 C11.7113095,14.514881 11.8452381,14.5714286 12,14.5714286 Z" id="ðŸ–-Color" fill="#5A5A5A"></path>
        <rect id="_Transparent_Rectangle_" x="0" y="0" width="24" height="24"></rect>
    </g>
</svg>