<?xml version="1.0" encoding="UTF-8"?>
<svg width="24px" height="24px" viewBox="0 0 24 24" version="1.1" xmlns="http://www.w3.org/2000/svg" xmlns:xlink="http://www.w3.org/1999/xlink">
    <title>1. Interface Essentials/asc_number</title>
    <g id="1.-Interface-Essentials/asc_number" stroke="none" stroke-width="1" fill="none" fill-rule="evenodd">
        <path d="M16.9999848,13.4895344 C17.7735364,13.4895344 18.5154054,13.8033572 19.062389,14.3619648 C19.6093726,14.9205725 19.9166648,15.678207 19.9166648,16.4681975 L19.9166648,16.4681975 L19.9166648,18.5958139 C19.9166648,20.475894 18.4242738,22 16.5833162,22 L16.5833162,22 L16.1666476,22 C15.7064082,22 15.3333105,21.6189735 15.3333105,21.1489535 C15.3333105,20.6789334 15.7064082,20.2979069 16.1666476,20.2979069 L16.1666476,20.2979069 L16.5833162,20.2979069 C17.0572884,20.2979208 17.5084969,20.0902987 17.8224885,19.7277058 C17.8828691,19.6589121 17.8928782,19.558186 17.8472613,19.478407 C17.8016445,19.398628 17.7108274,19.3580297 17.6224876,19.3779256 C16.5309133,19.6220156 15.3987332,19.2077415 14.7073214,18.3112421 C14.0159096,17.4147427 13.8868166,16.1936229 14.3749292,15.1670716 C14.8630419,14.1405203 15.88255,13.4890055 16.9999848,13.4895344 Z M6.28827011,4.2526103 C6.45097912,4.0864937 6.71473045,4.0864937 6.87743947,4.2526103 L6.87743947,4.2526103 L9.3774509,6.80574989 C9.49633569,6.92754148 9.53175099,7.11044021 9.46720497,7.26927578 C9.40265896,7.42811135 9.2508416,7.53165616 9.08244955,7.53169258 L9.08244955,7.53169258 L7.62410955,7.53169258 C7.5090497,7.53169258 7.41577526,7.62694921 7.41577526,7.74445421 L7.41577526,7.74445421 L7.41577526,17.3204298 C7.41577526,17.7904498 7.04267751,18.1714763 6.58243812,18.1714763 C6.12219872,18.1714763 5.74910097,17.7904498 5.74910097,17.3204298 L5.74910097,17.3204298 L5.74910097,7.74445421 C5.74818568,7.62761446 5.65517879,7.53339094 5.54076669,7.53339467 L5.54076669,7.53339467 L4.08242669,7.53339467 C3.91418624,7.53131297 3.76267655,7.42764227 3.698344,7.26888351 C3.63401144,7.11012475 3.66948022,6.92743171 3.78825867,6.80574989 L3.78825867,6.80574989 Z M16.9999848,15.1916278 C16.3096257,15.1916278 15.749979,15.7631675 15.749979,16.4681975 C15.749979,17.1732276 16.3096257,17.7447673 16.9999848,17.7447673 C17.6903439,17.7447673 18.2499905,17.1732276 18.2499905,16.4681975 C18.2499905,15.7631675 17.6903439,15.1916278 16.9999848,15.1916278 Z M16.2183145,2.28040083 C16.5934815,1.97337486 17.1078205,1.91329051 17.5411866,2.12586479 C17.9745527,2.33843907 18.250139,2.78599668 18.2499905,3.27697632 L18.2499905,3.27697632 L18.2499905,8.59771923 C18.2509058,8.71455898 18.3439127,8.80878251 18.4583248,8.80877877 L18.4583248,8.80877877 L19.4999962,8.80877877 C19.9602356,8.81048086 20.3333333,9.19150737 20.3333333,9.66152739 C20.3333333,10.1315474 19.9602356,10.5125739 19.4999962,10.5125739 L19.4999962,10.5125739 L15.3333105,10.5125739 C14.8730711,10.5125739 14.4999733,10.1315474 14.4999733,9.66152739 C14.4999733,9.19150737 14.8730711,8.81048086 15.3333105,8.81048086 L15.3333105,8.81048086 L16.3749819,8.81048086 C16.4900417,8.81048086 16.5833162,8.71522424 16.5833162,8.59771923 L16.5833162,8.59771923 L16.5833162,4.60460891 C16.5832023,4.52291111 16.5372915,4.44849528 16.4651799,4.41312438 C16.3930684,4.37775348 16.3074935,4.38767528 16.2449813,4.43865483 L16.2449813,4.43865483 L15.8541462,4.75779728 C15.494494,5.04359551 14.976748,4.98135881 14.6919052,4.61808775 C14.4070623,4.2548167 14.4607727,3.72525098 14.8124748,3.42931365 L14.8124748,3.42931365 Z" id="ðŸ–-Color" fill="#5A5A5A"></path>
        <rect id="_Transparent_Rectangle_" x="0" y="0" width="24" height="24"></rect>
    </g>
</svg>