<svg width="24" height="24" viewBox="0 0 24 24" fill="none" xmlns="http://www.w3.org/2000/svg">
<g id="asc_number">
<path id="Shape" fill-rule="evenodd" clip-rule="evenodd" d="M19.5 8.80878H18.4583C18.3439 8.80878 18.2509 8.71456 18.2499 8.59772V3.27698C18.2501 2.786 17.9745 2.33844 17.5411 2.12586C17.1078 1.91329 16.5934 1.97337 16.2183 2.2804L14.8124 3.42931C14.4607 3.72525 14.407 4.25482 14.6919 4.61809C14.9767 4.98136 15.4945 5.0436 15.8541 4.7578L16.2449 4.43865C16.3075 4.38768 16.393 4.37775 16.4651 4.41312C16.5373 4.4485 16.5832 4.52291 16.5833 4.60461V8.59772C16.5833 8.71522 16.49 8.81048 16.3749 8.81048H15.3333C14.873 8.81048 14.4999 9.19151 14.4999 9.66153C14.4999 10.1315 14.873 10.5126 15.3333 10.5126H19.5C19.9602 10.5126 20.3333 10.1315 20.3333 9.66153C20.3333 9.19151 19.9602 8.81048 19.5 8.81048V8.80878ZM4.08239 7.53339H5.54073C5.65514 7.53339 5.74814 7.62761 5.74906 7.74445V17.3204C5.74906 17.7905 6.12216 18.1715 6.5824 18.1715C7.04264 18.1715 7.41573 17.7905 7.41573 17.3204V7.74445C7.41573 7.62695 7.50901 7.53169 7.62407 7.53169H9.08241C9.2508 7.53166 9.40262 7.42811 9.46716 7.26928C9.53171 7.11044 9.49629 6.92754 9.37741 6.80575L6.8774 4.25261C6.71469 4.08649 6.45094 4.08649 6.28823 4.25261L3.78822 6.80575C3.66944 6.92743 3.63397 7.11012 3.6983 7.26888C3.76264 7.42764 3.91415 7.53131 4.08239 7.53169V7.53339ZM16.9999 13.4895C15.8825 13.489 14.863 14.1405 14.3749 15.1671C13.8868 16.1936 14.0159 17.4147 14.7073 18.3112C15.3987 19.2077 16.5309 19.622 17.6224 19.3779C17.7108 19.358 17.8016 19.3986 17.8472 19.4784C17.8928 19.5582 17.8828 19.6589 17.8224 19.7277C17.5085 20.0903 17.0572 20.2979 16.5833 20.2979H16.1666C15.7064 20.2979 15.3333 20.6789 15.3333 21.149C15.3333 21.619 15.7064 22 16.1666 22H16.5833C18.4242 22 19.9166 20.4759 19.9166 18.5958V16.4682C19.9166 15.6782 19.6093 14.9206 19.0623 14.362C18.5154 13.8034 17.7735 13.4895 16.9999 13.4895ZM16.9999 17.7448C16.3096 17.7448 15.7499 17.1732 15.7499 16.4682C15.7499 15.7632 16.3096 15.1916 16.9999 15.1916C17.6903 15.1916 18.25 15.7632 18.25 16.4682C18.25 17.1732 17.6903 17.7448 16.9999 17.7448Z" fill="#5A5A5A"/>
</g>
</svg>
