<?xml version="1.0" encoding="UTF-8"?>
<svg width="24px" height="24px" viewBox="0 0 24 24" version="1.1" xmlns="http://www.w3.org/2000/svg" xmlns:xlink="http://www.w3.org/1999/xlink">
    <title>1. Interface Essentials/asc_alphabet</title>
    <g id="1.-Interface-Essentials/asc_alphabet" stroke="none" stroke-width="1" fill="none" fill-rule="evenodd">
        <path d="M19.05082,13.4893611 C19.5174452,13.4897187 19.9470552,13.7423191 20.1725907,14.1489355 C20.398103,14.5554863 20.3840233,15.0518678 20.1358253,15.4451057 L20.1358253,15.4451057 L17.2937783,19.972765 C17.2528231,20.038334 17.2507673,20.1208419 17.2884068,20.1883511 C17.3260463,20.2558604 17.3974735,20.2977753 17.47504,20.2978713 L17.47504,20.2978713 L19.4005183,20.2978713 C19.8727263,20.2978713 20.2555265,20.6789056 20.2555265,21.1489351 C20.2555265,21.6189647 19.8727263,21.9999995 19.4005183,21.9999995 L19.4005183,21.9999995 L16.322489,21.9999995 C15.8562326,22.0004257 15.4264738,21.7489429 15.2001,21.3432082 C14.9737261,20.9374735 14.9864033,20.4414122 15.2332086,20.0476586 L15.2332086,20.0476586 L18.0778207,15.5174461 C18.1192331,15.4518373 18.1215395,15.3690064 18.0838414,15.3012151 C18.0461433,15.2334239 17.9744017,15.1913913 17.896559,15.1914886 L17.896559,15.1914886 L15.9727907,15.1914886 C15.5005827,15.1914886 15.1177825,14.8104544 15.1177825,14.3404249 C15.1177825,13.8703953 15.5005827,13.4893611 15.9727907,13.4893611 L15.9727907,13.4893611 Z M6.35729909,4.25224943 C6.52423937,4.08612947 6.79484957,4.08612947 6.96178985,4.25224943 L6.96178985,4.25224943 L9.52681427,6.80544078 C9.64656659,6.92701538 9.68198779,7.10793916 9.61686029,7.26537627 C9.55173279,7.42281339 9.39859518,7.52645348 9.22756142,7.528845 L9.22756142,7.528845 L7.73129717,7.528845 C7.61324518,7.528845 7.51754514,7.62410356 7.51754514,7.74161095 L7.51754514,7.74161095 L7.51754514,17.3177806 C7.51754514,17.7878102 7.13474495,18.1688444 6.662537,18.1688444 C6.19032904,18.1688444 5.80752886,17.7878102 5.80752886,17.3177806 L5.80752886,17.3177806 L5.80752886,7.74161095 C5.80658976,7.62476882 5.71116422,7.53054339 5.59377682,7.53054713 L5.59377682,7.53054713 L4.09751258,7.53054713 C3.92110147,7.53221268 3.76518325,7.42840533 3.69910043,7.26927111 C3.63301761,7.11013689 3.66979698,6.92704564 3.79227467,6.80544078 L3.79227467,6.80544078 Z M17.7683078,2 C18.4488909,2 19.1015742,2.26922966 19.5826588,2.74841413 C20.0637434,3.22759859 20.3337859,3.87745017 20.3333328,4.55489348 L20.3333328,4.55489348 L20.3333328,9.66127618 C20.3333328,10.1313057 19.950532,10.51234 19.4783241,10.51234 C19.0061161,10.51234 18.6233159,10.1313057 18.6233159,9.66127618 L18.6233159,9.66127618 L18.6233159,7.32085078 C18.6233159,7.20334339 18.5276159,7.10808483 18.4095639,7.10808483 L18.4095639,7.10808483 L17.1270517,7.10808483 C17.0089997,7.10808483 16.9132996,7.20334339 16.9132996,7.32085078 L16.9132996,7.32085078 L16.9132996,9.65957405 C16.9132996,10.1296036 16.5304995,10.5106378 16.0582915,10.5106378 C15.5860835,10.5106378 15.2032834,10.1296036 15.2032834,9.65957405 L15.2032834,9.65957405 L15.2032834,4.55319135 C15.2032834,3.1431027 16.3516839,2 17.7683078,2 Z M17.7683078,3.70382969 C17.2960998,3.70382969 16.9132996,4.08486393 16.9132996,4.55489348 L16.9132996,4.55489348 L16.9132996,5.19319132 C16.9142387,5.31003344 17.0096643,5.40425887 17.1270517,5.40425513 L17.1270517,5.40425513 L18.4095639,5.40595726 C18.5276159,5.40595726 18.6233159,5.3106987 18.6233159,5.19319132 L18.6233159,5.19319132 L18.6233159,4.55489348 C18.6233159,4.08486393 18.2405157,3.70382969 17.7683078,3.70382969 Z" id="ðŸ–-Color" fill="#5A5A5A"></path>
        <rect id="_Transparent_Rectangle_" x="2" y="2" width="20" height="20"></rect>
    </g>
</svg>