<svg width="24" height="24" viewBox="0 0 24 24" fill="none" xmlns="http://www.w3.org/2000/svg">
<g id="attachment_1">
<path id="Shape" fill-rule="evenodd" clip-rule="evenodd" d="M20.2819 4.8105C19.1825 3.71068 17.6911 3.09277 16.1359 3.09277C14.5808 3.09277 13.0894 3.71068 11.99 4.8105L3.24996 13.5497C1.57754 15.2386 1.58421 17.9614 3.2649 19.6421C4.94558 21.3228 7.66844 21.3295 9.35735 19.657L16.456 12.5567C17.202 11.8663 17.5105 10.8231 17.26 9.83801C17.0096 8.85289 16.2403 8.08373 15.2551 7.83348C14.2699 7.58323 13.2268 7.89199 12.5365 8.63815L8.16652 13.0039C7.9535 13.2167 7.87015 13.5269 7.94786 13.8177C8.02557 14.1085 8.25254 14.3358 8.54327 14.414C8.834 14.4921 9.14433 14.4092 9.35735 14.1964L13.7273 9.82476C14.1557 9.41608 14.8319 9.42411 15.2504 9.84284C15.6689 10.2616 15.6766 10.9378 15.2677 11.3659L8.16652 18.4662C7.13769 19.4951 5.46962 19.4951 4.44078 18.4662C3.41195 17.4374 3.41195 15.7693 4.44078 14.7405L13.1808 6.00133C14.8129 4.36924 17.459 4.36924 19.0911 6.00133C20.7232 7.63342 20.7232 10.2796 19.0911 11.9116L12.5365 18.4662C12.3176 18.6777 12.2298 18.9908 12.3069 19.2852C12.3839 19.5797 12.6139 19.8096 12.9083 19.8867C13.2028 19.9638 13.5159 19.876 13.7273 19.657L20.2819 13.1016C21.382 12.0023 22 10.5108 22 8.95564C22 7.40045 21.382 5.90901 20.2819 4.80966V4.8105Z" fill="#5A5A5A"/>
</g>
</svg>
