<svg width="24" height="24" viewBox="0 0 24 24" fill="none" xmlns="http://www.w3.org/2000/svg">
<g id="attachment_2">
<path id="Shape" fill-rule="evenodd" clip-rule="evenodd" d="M12.0002 2C8.67426 2.00366 5.97885 4.59089 5.97456 7.78382V17.6797C5.95221 19.216 6.79314 20.6448 8.17542 21.4192C9.5577 22.1936 11.2672 22.1936 12.6495 21.4192C14.0318 20.6448 14.8727 19.216 14.8504 17.6797V10.0704C14.8504 8.55931 13.5743 7.33431 12.0002 7.33431C10.4262 7.33431 9.15011 8.55931 9.15011 10.0704V16.5406C9.15011 16.9994 9.53761 17.3714 10.0156 17.3714C10.4936 17.3714 10.8811 16.9994 10.8811 16.5406V10.0704C10.8811 9.47708 11.3822 8.99608 12.0002 8.99608C12.6183 8.99608 13.1193 9.47708 13.1193 10.0704V17.6797C13.1368 18.6192 12.6248 19.4946 11.7801 19.9692C10.9354 20.4439 9.88955 20.4439 9.04485 19.9692C8.20014 19.4946 7.68807 18.6192 7.70557 17.6797V7.78382C7.70557 5.50682 9.62836 3.66095 12.0002 3.66095C14.3721 3.66095 16.2949 5.50682 16.2949 7.78382V14.0479C16.2949 14.5068 16.6824 14.8788 17.1604 14.8788C17.6384 14.8788 18.0259 14.5068 18.0259 14.0479V7.78382C18.0216 4.59089 15.3262 2.00366 12.0002 2Z" fill="#5A5A5A"/>
</g>
</svg>
