<?xml version="1.0" encoding="UTF-8"?>
<svg width="24px" height="24px" viewBox="0 0 24 24" version="1.1" xmlns="http://www.w3.org/2000/svg" xmlns:xlink="http://www.w3.org/1999/xlink">
    <title>1. Interface Essentials/attachment_2</title>
    <g id="1.-Interface-Essentials/attachment_2" stroke="none" stroke-width="1" fill="none" fill-rule="evenodd">
        <path d="M12.0002173,2 C8.67424802,2.00366211 5.97883462,4.59088731 5.97454215,7.78381727 L5.97454215,17.6797034 C5.9521934,19.2159707 6.7931302,20.6448108 8.17540714,21.4192046 C9.55768408,22.1935985 11.2671972,22.1935985 12.6494742,21.4192046 C14.0317511,20.6448108 14.8726879,19.2159707 14.8503392,17.6797034 L14.8503392,10.0704234 C14.8503392,8.5593077 13.5742961,7.3343064 12.0002173,7.3343064 C10.4261385,7.3343064 9.15009546,8.5593077 9.15009546,10.0704234 L9.15009546,16.5405548 C9.15009546,16.9994421 9.53759714,17.3714437 10.0156047,17.3714437 C10.4936122,17.3714437 10.8811139,16.9994421 10.8811139,16.5405548 L10.8811139,10.0704234 C10.8811139,9.47708218 11.3821536,8.9960841 12.0002173,8.9960841 C12.6182811,8.9960841 13.1193207,9.47708218 13.1193207,10.0704234 L13.1193207,17.6797034 C13.1368204,18.619171 12.6247535,19.4945541 11.7800469,19.9692045 C10.9353404,20.4438549 9.88954094,20.4438549 9.04483438,19.9692045 C8.20012782,19.4945541 7.68806094,18.619171 7.70556058,17.6797034 L7.70556058,7.78381727 C7.70556058,5.50681879 9.62834389,3.66094681 12.0002173,3.66094681 C14.3720907,3.66094681 16.294874,5.50681879 16.294874,7.78381727 L16.294874,14.0478883 C16.294874,14.5067755 16.6823757,14.8787771 17.1603833,14.8787771 C17.6383908,14.8787771 18.0258925,14.5067755 18.0258925,14.0478883 L18.0258925,7.78381727 C18.0216,4.59088731 15.3261866,2.00366211 12.0002173,2 Z" id="ðŸ–-Color" fill="#5A5A5A"></path>
        <rect id="_Transparent_Rectangle_" x="0" y="0" width="24" height="24"></rect>
    </g>
</svg>