<?xml version="1.0" encoding="UTF-8"?>
<svg width="24px" height="24px" viewBox="0 0 24 24" version="1.1" xmlns="http://www.w3.org/2000/svg" xmlns:xlink="http://www.w3.org/1999/xlink">
    <title>1. Interface Essentials/attachment_1</title>
    <g id="1.-Interface-Essentials/attachment_1" stroke="none" stroke-width="1" fill="none" fill-rule="evenodd">
        <path d="M20.2819197,4.8106156 C19.1824657,3.71079078 17.6910634,3.09288446 16.1359384,3.09288446 C14.5808133,3.09288446 13.0894111,3.71079078 11.989957,4.8106156 L3.24996218,13.5497683 C1.57753718,15.2386721 1.58421153,17.9615348 3.26489615,19.6422194 C4.94558077,21.322904 7.66844343,21.3295784 9.35734728,19.6571534 L16.4559613,12.556855 C17.2019743,11.8664504 17.5105096,10.823245 17.2600445,9.83812512 C17.0095795,8.85300527 16.2402532,8.08384426 15.2550795,7.83359093 C14.2699059,7.5833376 13.2267667,7.89209702 12.5365225,8.63825835 L8.16652509,13.0040449 C7.95350431,13.2167648 7.87014971,13.5269714 7.94786015,13.8178127 C8.0255706,14.1086541 8.25254003,14.3359445 8.54327125,14.414066 C8.83400248,14.4921874 9.14432651,14.4092714 9.35734728,14.1965515 L13.7273447,9.82486972 C14.155668,9.41619351 14.8319161,9.42422172 15.2504167,9.84295115 C15.6689173,10.2616806 15.6765759,10.9379329 15.2676656,11.3660328 L8.16652509,18.4663312 C7.13769019,19.495166 5.4696193,19.495166 4.44078443,18.4663311 C3.41194956,17.4374962 3.41194954,15.7694254 4.44078437,14.7405905 L13.1807792,6.00143779 C14.8128685,4.36934844 17.4590082,4.36934844 19.0910975,6.00143779 C20.7231869,7.63352713 20.7231869,10.2796668 19.0910975,11.9117561 L12.5365225,18.4663312 C12.317596,18.6777775 12.2297952,18.9908975 12.3068663,19.2853434 C12.3839375,19.5797893 12.6138866,19.8097384 12.9083325,19.8868095 C13.2027783,19.9638807 13.5158984,19.8760799 13.7273447,19.6571534 L20.2819197,13.1017362 C21.3819511,12.0023917 22,10.5109484 22,8.95575479 C22,7.40056121 21.3819511,5.90911786 20.2819197,4.80977343 L20.2819197,4.8106156 Z" id="ðŸ–-Color" fill="#5A5A5A"></path>
        <rect id="_Transparent_Rectangle_" x="0" y="0" width="24" height="24"></rect>
    </g>
</svg>