<svg width="24" height="24" viewBox="0 0 24 24" fill="none" xmlns="http://www.w3.org/2000/svg">
<g id="bold">
<path id="Shape" fill-rule="evenodd" clip-rule="evenodd" d="M16.3534 11.1175C17.8528 9.60122 18.3104 7.31962 17.5143 5.32864C16.7182 3.33765 14.8238 2.02572 12.7079 2H5.54756C4.96901 2 4.5 2.47625 4.5 3.06374C4.5 3.65123 4.96901 4.12748 5.54756 4.12748H6.3965C6.51222 4.12748 6.60602 4.22273 6.60602 4.34023V19.6598C6.60602 19.7773 6.51222 19.8725 6.3965 19.8725H5.54756C4.96901 19.8725 4.5 20.3488 4.5 20.9363C4.5 21.5237 4.96901 22 5.54756 22H13.897C16.5134 21.9776 18.7723 20.1341 19.3567 17.5444C19.9411 14.9547 18.6982 12.2963 16.3525 11.1192L16.3534 11.1175ZM12.7079 4.12748C14.4288 4.15597 15.8092 5.58073 15.8092 7.32848C15.8092 9.07623 14.4288 10.501 12.7079 10.5295H8.91065C8.79494 10.5295 8.70114 10.4342 8.70114 10.3167V4.34193C8.70114 4.22443 8.79494 4.12918 8.91065 4.12918L12.7079 4.12748ZM13.8979 19.8708H8.91065C8.79494 19.8708 8.70114 19.7756 8.70114 19.6581V12.8697C8.70114 12.7522 8.79494 12.657 8.91065 12.657H12.7079C12.7221 12.657 12.7355 12.657 12.7489 12.657H12.7598H13.8979C15.8384 12.6872 17.3958 14.2932 17.3958 16.2639C17.3958 18.2346 15.8384 19.8406 13.8979 19.8708Z" fill="#5A5A5A"/>
</g>
</svg>
