<?xml version="1.0" encoding="UTF-8"?>
<svg width="24px" height="24px" viewBox="0 0 24 24" version="1.1" xmlns="http://www.w3.org/2000/svg" xmlns:xlink="http://www.w3.org/1999/xlink">
    <title>1. Interface Essentials/bold</title>
    <g id="1.-Interface-Essentials/bold" stroke="none" stroke-width="1" fill="none" fill-rule="evenodd">
        <path d="M16.3533633,11.1175219 C17.8528055,9.60122245 18.3103727,7.31962405 17.5143052,5.32863852 C16.7182377,3.33765298 14.8238484,2.02572186 12.7078507,2 L5.54756109,2 C4.96900908,2 4.5,2.47625229 4.5,3.06373926 C4.5,3.65122623 4.96900908,4.12747851 5.54756109,4.12747851 L6.3965046,4.12747851 C6.512215,4.12747851 6.60601682,4.22272897 6.60601682,4.34022636 L6.60601682,19.6597736 C6.60601682,19.777271 6.512215,19.8725215 6.3965046,19.8725215 L5.54756109,19.8725215 C4.96900908,19.8725215 4.5,20.3487738 4.5,20.9362607 C4.5,21.5237477 4.96900908,22 5.54756109,22 L13.897042,22 C16.5133663,21.9775674 18.7722859,20.1340616 19.3567075,17.5443633 C19.9411291,14.954665 18.6981581,12.2962836 16.3525252,11.1192239 L16.3533633,11.1175219 Z M12.7078507,4.12747851 C14.4287919,4.15597267 15.8091904,5.58073156 15.8091904,7.32848268 C15.8091904,9.0762338 14.4287919,10.5009927 12.7078507,10.5294869 L8.91065122,10.5294869 C8.79494082,10.5294869 8.701139,10.4342364 8.701139,10.316739 L8.701139,4.34192835 C8.701139,4.22443095 8.79494082,4.1291805 8.91065122,4.1291805 L12.7078507,4.12747851 Z M13.8978801,19.8708195 L8.91065122,19.8708195 C8.79494082,19.8708195 8.701139,19.775569 8.701139,19.6580717 L8.701139,12.8697132 C8.701139,12.7522158 8.79494082,12.6569654 8.91065122,12.6569654 L12.7078507,12.6569654 C12.7220975,12.6569654 12.7355063,12.6569654 12.7489151,12.6569654 L12.7598097,12.6569654 L13.8978801,12.6569654 C15.838362,12.6872326 17.3958075,14.29321 17.3958075,16.2638924 C17.3958075,18.2345749 15.838362,19.8405523 13.8978801,19.8708195 L13.8978801,19.8708195 Z" id="ðŸ–-Color" fill="#5A5A5A"></path>
        <rect id="_Transparent_Rectangle_" x="0" y="0" width="24" height="24"></rect>
    </g>
</svg>