<?xml version="1.0" encoding="UTF-8"?>
<svg width="24px" height="24px" viewBox="0 0 24 24" version="1.1" xmlns="http://www.w3.org/2000/svg" xmlns:xlink="http://www.w3.org/1999/xlink">
    <title>1. Interface Essentials/bookmarks_2</title>
    <g id="1.-Interface-Essentials/bookmarks_2" stroke="none" stroke-width="1" fill="none" fill-rule="evenodd">
        <path d="M18.6694677,7.41666667 C19.129705,7.41666667 19.502801,7.04357062 19.502801,6.58333333 L19.502801,5.33333333 C19.502801,3.49238417 18.0104169,2 16.1694677,2 L7.83613438,2 C5.99518521,2 4.50280104,3.49238417 4.50280104,5.33333333 L4.50280104,20.7366667 C4.45374382,21.2381029 4.73051484,21.71482 5.19030104,21.9208333 C5.66121453,22.1006981 6.19438835,21.9594355 6.51446771,21.57 L9.20780104,18.8775 C9.28597126,18.7991319 9.39211166,18.7550885 9.50280104,18.7550885 C9.61349043,18.7550885 9.71963083,18.7991319 9.79780104,18.8775 L12.4911344,21.57 C12.7267637,21.833629 13.0602199,21.9890612 13.4136344,22 C13.5513914,22 13.6878163,21.9730315 13.815301,21.9208333 C14.2750872,21.71482 14.5518583,21.2381029 14.502801,20.7366667 L14.502801,5.425 C14.4838033,4.58736982 15.0669382,3.85617065 15.887801,3.68833333 C16.3724122,3.60523833 16.8689861,3.74036411 17.2446717,4.05755976 C17.6203574,4.3747554 17.8368149,4.8416502 17.8361344,5.33333333 L17.8361344,6.58333333 C17.8361344,7.04357062 18.2092304,7.41666667 18.6694677,7.41666667 Z" id="ðŸ–-Color" fill="#5A5A5A"></path>
        <rect id="_Transparent_Rectangle_" x="0" y="0" width="24" height="24"></rect>
    </g>
</svg>