<?xml version="1.0" encoding="UTF-8"?>
<svg width="24px" height="24px" viewBox="0 0 24 24" version="1.1" xmlns="http://www.w3.org/2000/svg" xmlns:xlink="http://www.w3.org/1999/xlink">
    <title>1. Interface Essentials/bookmarks_document</title>
    <g id="1.-Interface-Essentials/bookmarks_document" stroke="none" stroke-width="1" fill="none" fill-rule="evenodd">
        <path d="M22.0000009,4.08458428 C22.0002218,3.69766591 21.846674,3.32651904 21.5731596,3.05284826 C21.2996451,2.77917748 20.928586,2.62541772 20.5416675,2.62541778 L12.0000009,2.62541778 C11.5397647,2.62541778 11.1666687,2.99851378 11.1666687,3.45875102 L11.1666687,10.5420835 C11.1666687,10.7214295 11.0519061,10.880654 10.8817636,10.9373682 C10.7116211,10.9940823 10.5242763,10.9355603 10.4166688,10.7920835 L8.83333561,8.68041706 C8.79399095,8.62795752 8.7322434,8.59708374 8.66666896,8.59708374 C8.60109453,8.59708374 8.53934698,8.62795752 8.50000095,8.68041706 L6.91666917,10.7904168 C6.80906158,10.9338936 6.62171686,10.9924157 6.45157433,10.9357015 C6.28143179,10.8789873 6.16666926,10.7197628 6.16666926,10.5404168 L6.16666926,3.45708435 C6.16666926,2.99684712 5.79357327,2.62375112 5.33333603,2.62375112 L3.45833625,2.62375112 C3.07112871,2.62375112 2.69981659,2.77773905 2.4262541,3.05177052 C2.1526916,3.32580198 1.99933931,3.6973773 2.00000095,4.08458428 L2.00000095,19.9179157 C2.00046283,20.7231404 2.65311159,21.3757891 3.45833625,21.3762489 L20.5416675,21.3762489 C21.3468922,21.3757891 21.999541,20.7231404 22.0000009,19.9179157 L22.0000009,4.08458428 Z M5.54166878,16.7920828 C5.54212914,16.4472303 5.82181651,16.1679162 6.16666926,16.1679162 L15.7500015,16.1679162 C16.0951794,16.1679162 16.3750014,16.4477382 16.3750014,16.7929161 C16.3750014,17.138094 16.0951794,17.417916 15.7500015,17.417916 L6.16666926,17.417916 C6.00076449,17.417916 5.8416669,17.3519538 5.72443269,17.2345633 C5.60719848,17.1171727 5.54144813,16.9579874 5.54166878,16.7920828 L5.54166878,16.7920828 Z M18.2500012,7.41791721 L14.083335,7.41791721 C13.7381571,7.41791721 13.4583351,7.13809521 13.4583351,6.79291729 C13.4583351,6.44773936 13.7381571,6.16791736 14.083335,6.16791736 L18.2500012,6.16791736 C18.5951791,6.16791736 18.8750011,6.44773936 18.8750011,6.79291729 C18.8750011,7.13809521 18.5951791,7.41791721 18.2500012,7.41791721 Z M18.8750011,10.1262502 C18.8750011,10.4714282 18.5951791,10.7512501 18.2500012,10.7512501 L14.083335,10.7512501 C13.7381571,10.7512501 13.4583351,10.4714282 13.4583351,10.1262502 C13.4583351,9.7810723 13.7381571,9.5012503 14.083335,9.5012503 L18.2500012,9.5012503 C18.5948539,9.5012503 18.8745413,9.78056444 18.8750011,10.1254169 L18.8750011,10.1262502 Z M18.2500012,12.8345832 C18.5951791,12.8345832 18.8750011,13.1144052 18.8750011,13.4595832 C18.8750011,13.8047611 18.5951791,14.0845831 18.2500012,14.0845831 L6.16666926,14.0845831 C5.82149134,14.0845831 5.54166934,13.8047611 5.54166934,13.4595832 C5.54166934,13.1144052 5.82149134,12.8345832 6.16666926,12.8345832 L18.2500012,12.8345832 Z" id="ðŸ–-Color" fill="#5A5A5A"></path>
        <rect id="_Transparent_Rectangle_" x="0" y="0" width="24" height="24"></rect>
    </g>
</svg>