<svg width="24" height="24" viewBox="0 0 24 24" fill="none" xmlns="http://www.w3.org/2000/svg">
<g id="bookmarks_1">
<path id="Shape" fill-rule="evenodd" clip-rule="evenodd" d="M3.61146 16.5733H7.21145C7.43236 16.5733 7.61145 16.7599 7.61145 16.99V20.74C7.56436 21.2414 7.83006 21.7181 8.27145 21.9242C8.39275 21.9749 8.52234 22.0006 8.65305 22C8.99233 21.989 9.31244 21.8336 9.53865 21.57L21.1322 9.49334C21.7552 8.84279 21.7552 7.78972 21.1322 7.13917L16.6658 2.48751C16.3668 2.17403 15.9597 1.99844 15.5354 2.00001C15.1114 1.99829 14.7045 2.17392 14.4058 2.48751L2.81146 14.5633C2.43824 14.8831 2.3024 15.4152 2.47386 15.8858C2.6723 16.3454 3.12996 16.622 3.61146 16.5733Z" fill="#5A5A5A"/>
</g>
</svg>
