<svg width="24" height="24" viewBox="0 0 24 24" fill="none" xmlns="http://www.w3.org/2000/svg">
<g id="bookmarks_2">
<path id="Shape" fill-rule="evenodd" clip-rule="evenodd" d="M18.6695 7.41667C19.1297 7.41667 19.5028 7.04357 19.5028 6.58333V5.33333C19.5028 3.49238 18.0104 2 16.1695 2H7.83613C5.99518 2 4.50279 3.49238 4.50279 5.33333V20.7367C4.45374 21.2381 4.73051 21.7148 5.19029 21.9208C5.66121 22.1007 6.19438 21.9594 6.51446 21.57L9.20779 18.8775C9.28596 18.7991 9.39211 18.7551 9.50279 18.7551C9.61348 18.7551 9.71962 18.7991 9.79779 18.8775L12.4911 21.57C12.7268 21.8336 13.0602 21.9891 13.4136 22C13.5514 21.9999 13.6878 21.973 13.8153 21.9208C14.2751 21.7148 14.5519 21.2381 14.5028 20.7367V5.425C14.4838 4.58737 15.0669 3.85617 15.8878 3.68833C16.3724 3.60524 16.869 3.74036 17.2447 4.05756C17.6204 4.37476 17.8368 4.84165 17.8361 5.33333V6.58333C17.8361 7.04357 18.2092 7.41667 18.6695 7.41667Z" fill="#5A5A5A"/>
</g>
</svg>
