<svg width="24" height="24" viewBox="0 0 24 24" fill="none" xmlns="http://www.w3.org/2000/svg">
<g id="bookmarks_document">
<path id="Shape" fill-rule="evenodd" clip-rule="evenodd" d="M22 4.08461C22.0002 3.69769 21.8467 3.32655 21.5732 3.05288C21.2996 2.77921 20.9286 2.62545 20.5417 2.62545H12C11.5398 2.62545 11.1667 2.99854 11.1667 3.45878V10.5421C11.1667 10.7215 11.0519 10.8807 10.8818 10.9374C10.7116 10.9941 10.5243 10.9356 10.4167 10.7921L8.83333 8.68045C8.79399 8.62799 8.73224 8.59711 8.66667 8.59711C8.60109 8.59711 8.53935 8.62799 8.5 8.68045L6.91667 10.7904C6.80906 10.9339 6.62172 10.9924 6.45157 10.9357C6.28143 10.879 6.16667 10.7198 6.16667 10.5404V3.45711C6.16667 2.99688 5.79357 2.62378 5.33334 2.62378H3.45834C3.07113 2.62378 2.69982 2.77777 2.42625 3.0518C2.15269 3.32583 1.99934 3.69741 2 4.08461V19.9179C2.00046 20.7232 2.65311 21.3758 3.45834 21.3763H20.5417C21.3469 21.3758 21.9995 20.7232 22 19.9179V4.08461ZM5.54167 16.7921C5.54213 16.4473 5.82182 16.1679 6.16667 16.1679H15.75C16.0952 16.1679 16.375 16.4478 16.375 16.7929C16.375 17.1381 16.0952 17.4179 15.75 17.4179H6.16667C6.00076 17.4179 5.84167 17.352 5.72443 17.2346C5.6072 17.1172 5.54145 16.958 5.54167 16.7921ZM18.25 7.41795H14.0833C13.7382 7.41795 13.4583 7.13812 13.4583 6.79295C13.4583 6.44777 13.7382 6.16795 14.0833 6.16795H18.25C18.5952 6.16795 18.875 6.44777 18.875 6.79295C18.875 7.13812 18.5952 7.41795 18.25 7.41795ZM18.875 10.1263C18.875 10.4715 18.5952 10.7513 18.25 10.7513H14.0833C13.7382 10.7513 13.4583 10.4715 13.4583 10.1263C13.4583 9.7811 13.7382 9.50128 14.0833 9.50128H18.25C18.5949 9.50128 18.8745 9.78059 18.875 10.1254V10.1263ZM18.25 12.8346C18.5952 12.8346 18.875 13.1144 18.875 13.4596C18.875 13.8048 18.5952 14.0846 18.25 14.0846H6.16667C5.82149 14.0846 5.54167 13.8048 5.54167 13.4596C5.54167 13.1144 5.82149 12.8346 6.16667 12.8346H18.25Z" fill="#5A5A5A"/>
</g>
</svg>
