<?xml version="1.0" encoding="UTF-8"?>
<svg width="24px" height="24px" viewBox="0 0 24 24" version="1.1" xmlns="http://www.w3.org/2000/svg" xmlns:xlink="http://www.w3.org/1999/xlink">
    <title>1. Interface Essentials/bookmarks_1</title>
    <g id="1.-Interface-Essentials/bookmarks_1" stroke="none" stroke-width="1" fill="none" fill-rule="evenodd">
        <path d="M3.61145255,16.573328 L7.21144813,16.573328 C7.43236176,16.573328 7.61144764,16.7598757 7.61144764,16.9899941 L7.61144764,20.7399895 C7.56435277,21.2414251 7.83005262,21.7181416 8.27144683,21.9241547 C8.39274597,21.974886 8.52233687,22.0006389 8.65304636,22 C8.99232382,21.9890492 9.31244142,21.8336172 9.53864528,21.5699885 L21.1322311,9.49333663 C21.7552436,8.84279163 21.7552436,7.78971786 21.1322311,7.13917285 L16.6658365,2.48751189 C16.366818,2.17403163 15.9596729,1.99844491 15.5354379,2 L15.5354379,2 C15.1114093,1.99829448 14.7044591,2.17392144 14.4058393,2.48751189 L2.81145353,14.5633304 C2.43823225,14.8830884 2.30239781,15.4152005 2.47385394,15.8858288 C2.67230047,16.3453851 3.12995992,16.6219681 3.61145255,16.573328 Z" id="ðŸ–-Color" fill="#5A5A5A"></path>
        <rect id="_Transparent_Rectangle_" x="0" y="0" width="24" height="24"></rect>
    </g>
</svg>