<?xml version="1.0" encoding="UTF-8"?>
<svg width="24px" height="24px" viewBox="0 0 24 24" version="1.1" xmlns="http://www.w3.org/2000/svg" xmlns:xlink="http://www.w3.org/1999/xlink">
    <title>1. Interface Essentials/brightness_1</title>
    <g id="1.-Interface-Essentials/brightness_1" stroke="none" stroke-width="1" fill="none" fill-rule="evenodd">
        <path d="M12,15.9463529 C12.5197974,15.9463529 12.9411765,16.367732 12.9411765,16.8875294 L12.9411765,16.8875294 L12.9411765,19.0588235 C12.9411765,19.5786209 12.5197974,20 12,20 C11.4802026,20 11.0588235,19.5786209 11.0588235,19.0588235 L11.0588235,19.0588235 L11.0588235,16.8875294 C11.0588235,16.367732 11.4802026,15.9463529 12,15.9463529 Z M15.2051696,14.5339321 C15.5342326,14.4477999 15.8841652,14.5459232 16.1204706,14.7905882 L16.1204706,14.7905882 L17.6564706,16.3294118 C17.9232435,16.5599007 18.0388319,16.9201538 17.9559599,17.2628274 C17.8730879,17.605501 17.6056542,17.8731243 17.2630395,17.9562392 C16.9204248,18.0393541 16.5600898,17.9240212 16.3294118,17.6574118 L16.3294118,17.6574118 L14.7896471,16.1214118 C14.544982,15.8851064 14.4468587,15.5351737 14.5329909,15.2061108 C14.6191231,14.8770478 14.8761066,14.6200643 15.2051696,14.5339321 Z M7.87858824,14.7952941 C8.2463449,14.4277973 8.84238558,14.428008 9.20988235,14.7957647 C9.57737912,15.1635214 9.57716843,15.7595621 9.20941176,16.1270588 L9.20941176,16.1270588 L7.67341176,17.6611765 C7.30276801,18.0209955 6.71323199,18.0209955 6.34258824,17.6611765 C6.1658569,17.4846416 6.06655374,17.2450911 6.06655374,16.9952941 C6.06655374,16.7454972 6.1658569,16.5059466 6.34258824,16.3294118 L6.34258824,16.3294118 L7.87858824,14.7915294 Z M12,9.648 C13.2994935,9.648 14.3529412,10.7014476 14.3529412,12.0009412 C14.3529412,13.3004347 13.2994935,14.3538824 12,14.3538824 C10.7005065,14.3538824 9.64705882,13.3004347 9.64705882,12.0009412 C9.64705882,10.7014476 10.7005065,9.648 12,9.648 Z M7.11341176,11.0588235 C7.63320918,11.0588235 8.05458824,11.4802026 8.05458824,12 C8.05458824,12.5197974 7.63320918,12.9411765 7.11341176,12.9411765 L7.11341176,12.9411765 L4.94117647,12.9411765 C4.42137906,12.9411765 4,12.5197974 4,12 C4,11.4802026 4.42137906,11.0588235 4.94117647,11.0588235 L4.94117647,11.0588235 Z M19.0588235,11.0588235 C19.5786209,11.0588235 20,11.4802026 20,12 C20,12.5197974 19.5786209,12.9411765 19.0588235,12.9411765 L19.0588235,12.9411765 L16.8865882,12.9411765 C16.3667908,12.9411765 15.9454118,12.5197974 15.9454118,12 C15.9454118,11.4802026 16.3667908,11.0588235 16.8865882,11.0588235 L16.8865882,11.0588235 Z M6.37314831,6.37778636 C6.72759534,6.02258572 7.29837859,6.0079291 7.67058824,6.34447059 L7.67058824,6.34447059 L9.20941176,7.88047059 C9.57683006,8.24799986 9.57683006,8.84376485 9.20941176,9.21129412 C9.03667071,9.39063163 8.79703122,9.48990539 8.54807369,9.48526199 C8.29911615,9.4806186 8.06334523,9.37247778 7.89741176,9.18682353 C7.79717647,9.10964706 7.49223529,8.81552941 7.17047059,8.49882353 L6.89493432,8.22636255 C6.80463694,8.13672029 6.71734831,8.04976711 6.63745052,7.97003601 L6.34258824,7.67529412 C6.00525697,7.30380009 6.01870128,6.732987 6.37314831,6.37778636 Z M16.3294118,6.34447059 C16.7021687,6.01219602 17.2695376,6.02887372 17.6221335,6.38246988 C17.9747294,6.73606605 17.9897998,7.30347997 17.6564706,7.67529412 L17.6564706,7.67529412 L16.1204706,9.21129412 C15.9424772,9.38436492 15.703311,9.48009908 15.4550588,9.47764706 L15.4550588,9.47764706 C15.0732905,9.48520258 14.7266158,9.25762247 14.5800012,8.90508392 C14.4333867,8.55254536 14.5164428,8.1462478 14.7896471,7.87952941 L14.7896471,7.87952941 Z M12,4 C12.5197974,4 12.9411765,4.42137906 12.9411765,4.94117647 L12.9411765,4.94117647 L12.9411765,7.11341176 C12.9411765,7.63320918 12.5197974,8.05458824 12,8.05458824 C11.4802026,8.05458824 11.0588235,7.63320918 11.0588235,7.11341176 L11.0588235,7.11341176 L11.0588235,4.94117647 C11.0588235,4.42137906 11.4802026,4 12,4 Z" id="ðŸ–-Color" fill="#5A5A5A"></path>
        <rect id="_Transparent_Rectangle_" x="0" y="0" width="24" height="24"></rect>
    </g>
</svg>