<?xml version="1.0" encoding="UTF-8"?>
<svg width="24px" height="24px" viewBox="0 0 24 24" version="1.1" xmlns="http://www.w3.org/2000/svg" xmlns:xlink="http://www.w3.org/1999/xlink">
    <title>1. Interface Essentials/brightness_2</title>
    <g id="1.-Interface-Essentials/brightness_2" stroke="none" stroke-width="1" fill="none" fill-rule="evenodd">
        <path d="M12,17.1458333 C12.4602373,17.1458333 12.8333333,17.5189294 12.8333333,17.9791667 L12.8333333,17.9791667 L12.8333333,21.1666667 C12.8333333,21.626904 12.4602373,22 12,22 C11.5397627,22 11.1666667,21.626904 11.1666667,21.1666667 L11.1666667,21.1666667 L11.1666667,17.9791667 C11.1666667,17.5189294 11.5397627,17.1458333 12,17.1458333 Z M15.6476512,15.6484845 C15.969096,15.3270397 16.4888509,15.3225232 16.8158333,15.6383333 L16.8158333,15.6383333 L19.0708333,17.8941667 C19.3961516,18.2195832 19.3961516,18.7470835 19.0708333,19.0725 C18.742306,19.3902177 18.2210273,19.3902177 17.8925,19.0725 L17.8925,19.0725 L15.6375,16.8166667 C15.3216898,16.4896843 15.3262064,15.9699294 15.6476512,15.6484845 Z M7.1825,15.6391667 C7.50948241,15.3233565 8.02923731,15.327873 8.35068215,15.6493179 C8.67212698,15.9707627 8.67664351,16.4905176 8.36083333,16.8175 L8.36083333,16.8175 L6.11083333,19.0725 C5.78230598,19.3902177 5.26102735,19.3902177 4.9325,19.0725 C4.60718172,18.7470835 4.60718172,18.2195832 4.9325,17.8941667 L4.9325,17.8941667 L7.1825,15.6383333 Z M12,8.25083333 C14.0710678,8.25083333 15.75,9.92976552 15.75,12.0008333 C15.75,14.0719011 14.0710678,15.7508333 12,15.7508333 C9.92893219,15.7508333 8.25,14.0719011 8.25,12.0008333 C8.25,9.92976552 9.92893219,8.25083333 12,8.25083333 Z M6.02166667,11.5833333 C6.48190396,11.5833333 6.855,11.9564294 6.855,12.4166667 C6.855,12.876904 6.48190396,13.25 6.02166667,13.25 L6.02166667,13.25 L2.83333333,13.25 C2.37309604,13.25 2,12.876904 2,12.4166667 C2,11.9564294 2.37309604,11.5833333 2.83333333,11.5833333 L2.83333333,11.5833333 Z M21.1666667,11.5833333 C21.626904,11.5833333 22,11.9564294 22,12.4166667 C22,12.876904 21.626904,13.25 21.1666667,13.25 L21.1666667,13.25 L17.9783333,13.25 C17.518096,13.25 17.145,12.876904 17.145,12.4166667 C17.145,11.9564294 17.518096,11.5833333 17.9783333,11.5833333 L17.9783333,11.5833333 Z M17.8925,4.92916667 C18.2181179,4.60377891 18.7458622,4.60396547 19.07125,4.92958335 C19.3966377,5.25520122 19.3964512,5.78294557 19.0708333,6.10833333 L19.0708333,6.10833333 L16.8158333,8.36333333 C16.6587744,8.51779253 16.4469472,8.60378178 16.2266667,8.60251413 L16.2266667,8.60251413 C15.8898563,8.60414467 15.5850825,8.40243108 15.4557444,8.0914343 C15.3264063,7.78043751 15.398261,7.42209076 15.6375,7.185 L15.6375,7.185 Z M4.93041667,4.92791667 C5.25672491,4.60229878 5.78521545,4.60285843 6.11083333,4.92916667 L6.11083333,4.92916667 L8.36083333,7.185 C8.68615162,7.51041654 8.68615162,8.03791679 8.36083333,8.36333333 C8.03213062,8.68061718 7.51120272,8.68061718 7.1825,8.36333333 L7.1825,8.36333333 L4.92916667,6.10833333 C4.60354878,5.78202509 4.60410843,5.25353455 4.93041667,4.92791667 Z M12,2 C12.4602373,2 12.8333333,2.37309604 12.8333333,2.83333333 L12.8333333,2.83333333 L12.8333333,6.0225 C12.8333333,6.48273729 12.4602373,6.85583333 12,6.85583333 C11.5397627,6.85583333 11.1666667,6.48273729 11.1666667,6.0225 L11.1666667,6.0225 L11.1666667,2.83333333 C11.1666667,2.37309604 11.5397627,2 12,2 Z" id="ðŸ–-Color" fill="#5A5A5A"></path>
        <rect id="_Transparent_Rectangle_" x="0" y="0" width="24" height="24"></rect>
    </g>
</svg>