<svg width="24" height="24" viewBox="0 0 24 24" fill="none" xmlns="http://www.w3.org/2000/svg">
<g id="brightness_2">
<path id="Shape" fill-rule="evenodd" clip-rule="evenodd" d="M12 6.85583C12.4602 6.85583 12.8333 6.48274 12.8333 6.0225V2.83333C12.8333 2.3731 12.4602 2 12 2C11.5398 2 11.1667 2.3731 11.1667 2.83333V6.0225C11.1667 6.48274 11.5398 6.85583 12 6.85583ZM15.75 12.0008C15.75 14.0719 14.0711 15.7508 12 15.7508C9.92893 15.7508 8.25 14.0719 8.25 12.0008C8.25 9.92977 9.92893 8.25083 12 8.25083C14.0711 8.25083 15.75 9.92977 15.75 12.0008ZM11.1667 17.9792C11.1667 17.5189 11.5398 17.1458 12 17.1458C12.4602 17.1458 12.8333 17.5189 12.8333 17.9792V21.1667C12.8333 21.6269 12.4602 22 12 22C11.5398 22 11.1667 21.6269 11.1667 21.1667V17.9792ZM7.1825 8.36333C7.5112 8.68062 8.03213 8.68062 8.36083 8.36333C8.68615 8.03792 8.68615 7.51042 8.36083 7.185L6.11083 4.92917C5.78522 4.60286 5.25673 4.6023 4.93042 4.92792C4.60411 5.25353 4.60355 5.78203 4.92917 6.10833L7.1825 8.36333ZM15.6477 15.6485C15.9691 15.327 16.4889 15.3225 16.8158 15.6383L19.0708 17.8942C19.3962 18.2196 19.3962 18.7471 19.0708 19.0725C18.7423 19.3902 18.221 19.3902 17.8925 19.0725L15.6375 16.8167C15.3217 16.4897 15.3262 15.9699 15.6477 15.6485ZM6.855 12.4167C6.855 11.9564 6.4819 11.5833 6.02167 11.5833H2.83333C2.3731 11.5833 2 11.9564 2 12.4167C2 12.8769 2.3731 13.25 2.83333 13.25H6.02167C6.4819 13.25 6.855 12.8769 6.855 12.4167ZM17.9783 11.5833H21.1667C21.6269 11.5833 22 11.9564 22 12.4167C22 12.8769 21.6269 13.25 21.1667 13.25H17.9783C17.5181 13.25 17.145 12.8769 17.145 12.4167C17.145 11.9564 17.5181 11.5833 17.9783 11.5833ZM7.1825 15.6383L4.9325 17.8942C4.60718 18.2196 4.60718 18.7471 4.9325 19.0725C5.26103 19.3902 5.78231 19.3902 6.11083 19.0725L8.36083 16.8175C8.67664 16.4905 8.67213 15.9708 8.35068 15.6493C8.02924 15.3279 7.50948 15.3234 7.1825 15.6392V15.6383ZM16.8158 8.36333C16.6588 8.51779 16.4469 8.60378 16.2267 8.6025V8.60167C15.8899 8.60414 15.5851 8.40243 15.4557 8.09143C15.3264 7.78044 15.3983 7.42209 15.6375 7.185L17.8925 4.92917C18.2181 4.60378 18.7459 4.60397 19.0712 4.92958C19.3966 5.2552 19.3965 5.78295 19.0708 6.10833L16.8158 8.36333Z" fill="#5A5A5A"/>
</g>
</svg>
