<svg width="24" height="24" viewBox="0 0 24 24" fill="none" xmlns="http://www.w3.org/2000/svg">
<g id="brightness_1">
<path id="Shape" fill-rule="evenodd" clip-rule="evenodd" d="M12 8.05459C12.5198 8.05459 12.9412 7.63321 12.9412 7.11341V4.94118C12.9412 4.42138 12.5198 4 12 4C11.4802 4 11.0588 4.42138 11.0588 4.94118V7.11341C11.0588 7.63321 11.4802 8.05459 12 8.05459ZM16.1205 9.21129C15.9425 9.38437 15.7033 9.4801 15.4551 9.47765V9.47953C15.0733 9.4852 14.7266 9.25762 14.58 8.90508C14.4334 8.55255 14.5164 8.14625 14.7896 7.87953L16.3294 6.34447C16.7022 6.0122 17.2695 6.02887 17.6221 6.38247C17.9747 6.73607 17.9898 7.30348 17.6565 7.67529L16.1205 9.21129ZM14.3529 12.0009C14.3529 13.3004 13.2995 14.3539 12 14.3539C10.7005 14.3539 9.64706 13.3004 9.64706 12.0009C9.64706 10.7014 10.7005 9.648 12 9.648C13.2995 9.648 14.3529 10.7014 14.3529 12.0009ZM8.05459 12C8.05459 11.4802 7.63321 11.0588 7.11341 11.0588H4.94118C4.42138 11.0588 4 11.4802 4 12C4 12.5198 4.42138 12.9412 4.94118 12.9412H7.11341C7.63321 12.9412 8.05459 12.5198 8.05459 12ZM6.34259 16.3294L7.87859 14.7915V14.7953C8.24635 14.4278 8.84239 14.428 9.20988 14.7958C9.57738 15.1635 9.57717 15.7596 9.20941 16.1271L7.67341 17.6612C7.30277 18.021 6.71323 18.021 6.34259 17.6612C6.16586 17.4846 6.06655 17.2451 6.06655 16.9953C6.06655 16.7455 6.16586 16.5059 6.34259 16.3294ZM12 15.9464C11.4802 15.9464 11.0588 16.3677 11.0588 16.8875V19.0588C11.0588 19.5786 11.4802 20 12 20C12.5198 20 12.9412 19.5786 12.9412 19.0588V16.8875C12.9412 16.3677 12.5198 15.9464 12 15.9464ZM15.2052 14.5339C15.5342 14.4478 15.8842 14.5459 16.1205 14.7906L17.6565 16.3294C17.9232 16.5599 18.0388 16.9202 17.956 17.2628C17.8731 17.6055 17.6057 17.8731 17.263 17.9562C16.9204 18.0394 16.5601 17.924 16.3294 17.6574L14.7896 16.1214C14.545 15.8851 14.4469 15.5352 14.533 15.2061C14.6191 14.877 14.8761 14.6201 15.2052 14.5339ZM19.0588 11.0588H16.8866C16.3668 11.0588 15.9454 11.4802 15.9454 12C15.9454 12.5198 16.3668 12.9412 16.8866 12.9412H19.0588C19.5786 12.9412 20 12.5198 20 12C20 11.4802 19.5786 11.0588 19.0588 11.0588ZM8.54807 9.48526C8.29912 9.48062 8.06335 9.37248 7.89741 9.18682C7.70697 9.04019 6.77756 8.11043 6.39781 7.73053C6.37782 7.71053 6.35935 7.69205 6.34259 7.67529C6.00526 7.3038 6.0187 6.73299 6.37315 6.37779C6.7276 6.02259 7.29838 6.00793 7.67059 6.34447L9.20941 7.88047C9.57683 8.248 9.57683 8.84376 9.20941 9.21129C9.03667 9.39063 8.79703 9.48991 8.54807 9.48526Z" fill="#5A5A5A"/>
</g>
</svg>
