<svg width="24" height="24" viewBox="0 0 24 24" fill="none" xmlns="http://www.w3.org/2000/svg">
<g id="button_next">
<path id="Shape" fill-rule="evenodd" clip-rule="evenodd" d="M12 2C6.47715 2 2 6.47715 2 12C2 17.5228 6.47715 22 12 22C17.5228 22 22 17.5228 22 12C21.994 6.47963 17.5204 2.00597 12 2ZM7.83333 9.185C7.83276 8.85564 8.02623 8.55684 8.32699 8.42259C8.62775 8.28834 8.97936 8.34382 9.22417 8.56417L12.3517 11.38C12.5274 11.538 12.6277 11.7633 12.6277 11.9996C12.6277 12.2359 12.5274 12.4611 12.3517 12.6192L9.225 15.4325C8.98047 15.6532 8.62888 15.7091 8.32792 15.5752C8.02696 15.4413 7.83312 15.1427 7.83333 14.8133V9.185ZM16.1667 15.3333C16.1667 15.7936 15.7936 16.1667 15.3333 16.1667H14.5C14.0398 16.1667 13.6667 15.7936 13.6667 15.3333V8.66667C13.6667 8.20643 14.0398 7.83333 14.5 7.83333H15.3333C15.7936 7.83333 16.1667 8.20643 16.1667 8.66667V15.3333Z" fill="#5A5A5A"/>
</g>
</svg>
