<svg width="24" height="24" viewBox="0 0 24 24" fill="none" xmlns="http://www.w3.org/2000/svg">
<g id="button_rewind">
<path id="Shape" fill-rule="evenodd" clip-rule="evenodd" d="M12 2C6.47715 2 2 6.47715 2 12C2 17.5228 6.47715 22 12 22C17.5228 22 22 17.5228 22 12C21.994 6.47963 17.5204 2.00597 12 2ZM15.3333 14.9708C15.3334 15.2782 15.1642 15.5607 14.8931 15.7057C14.6221 15.8508 14.2932 15.8348 14.0375 15.6642L11.9075 14.2475C11.8436 14.2047 11.7613 14.2007 11.6934 14.2369C11.6256 14.2732 11.5833 14.3439 11.5833 14.4208V14.8742C11.5833 15.1961 11.3978 15.4892 11.1069 15.6271C10.816 15.7649 10.4717 15.7229 10.2225 15.5192L6.71333 12.6442C6.51986 12.4859 6.40765 12.2491 6.40765 11.9992C6.40765 11.7492 6.51986 11.5124 6.71333 11.3542L10.2225 8.48333C10.4717 8.27956 10.816 8.23755 11.1069 8.37543C11.3978 8.51331 11.5833 8.80641 11.5833 9.12833V9.58333C11.5833 9.66025 11.6256 9.73095 11.6934 9.76722C11.7613 9.80349 11.8436 9.79944 11.9075 9.75667L14.0375 8.34C14.2923 8.16996 14.6199 8.15347 14.8906 8.29705C15.1612 8.44064 15.3312 8.72114 15.3333 9.0275V14.9708Z" fill="#5A5A5A"/>
</g>
</svg>
