<?xml version="1.0" encoding="UTF-8"?>
<svg width="24px" height="24px" viewBox="0 0 24 24" version="1.1" xmlns="http://www.w3.org/2000/svg" xmlns:xlink="http://www.w3.org/1999/xlink">
    <title>1. Interface Essentials/button_play</title>
    <g id="1.-Interface-Essentials/button_play" stroke="none" stroke-width="1" fill="none" fill-rule="evenodd">
        <path d="M12,2 C6.4771525,2 2,6.4771525 2,12 C2,17.5228475 6.4771525,22 12,22 C17.5228475,22 22,17.5228475 22,12 C21.9940293,6.47962754 17.5203725,2.00597071 12,2 Z M16.0233333,12.745 L9.8725,15.82 L9.8725,15.82 C9.61424795,15.949049 9.30760068,15.9352378 9.06199527,15.7834954 C8.81638987,15.6317531 8.6668208,15.3637001 8.66666667,15.075 L8.66666667,8.92333333 C8.66666667,8.63472465 8.81601701,8.36666817 9.06142176,8.21477518 C9.30682652,8.0628822 9.61335239,8.04878053 9.87166667,8.1775 L16.0241667,11.25 C16.3083163,11.3906218 16.4880572,11.6803004 16.4878805,11.9973422 C16.4877036,12.314384 16.3076397,12.6038619 16.0233333,12.7441667 L16.0233333,12.745 Z" id="ðŸ–-Color" fill="#5A5A5A"></path>
        <rect id="_Transparent_Rectangle_" x="0" y="0" width="24" height="24"></rect>
    </g>
</svg>