<svg width="24" height="24" viewBox="0 0 24 24" fill="none" xmlns="http://www.w3.org/2000/svg">
<g id="button_play">
<path id="Shape" fill-rule="evenodd" clip-rule="evenodd" d="M12 2C6.47715 2 2 6.47715 2 12C2 17.5228 6.47715 22 12 22C17.5228 22 22 17.5228 22 12C21.994 6.47963 17.5204 2.00597 12 2ZM16.0233 12.745L9.8725 15.82C9.61425 15.949 9.3076 15.9352 9.062 15.7835C8.81639 15.6318 8.66682 15.3637 8.66667 15.075V8.92333C8.66668 8.63472 8.81602 8.36667 9.06142 8.21478C9.30683 8.06288 9.61335 8.04878 9.87167 8.1775L16.0242 11.25C16.3083 11.3906 16.4881 11.6803 16.4879 11.9973C16.4877 12.3144 16.3076 12.6039 16.0233 12.7442V12.745Z" fill="#5A5A5A"/>
</g>
</svg>
