<svg width="24" height="24" viewBox="0 0 24 24" fill="none" xmlns="http://www.w3.org/2000/svg">
<g id="button_fast_forward">
<path id="Shape" fill-rule="evenodd" clip-rule="evenodd" d="M12 2C6.47715 2 2 6.47715 2 12C2 17.5228 6.47715 22 12 22C17.5228 22 22 17.5228 22 12C21.994 6.47963 17.5204 2.00597 12 2ZM17.2867 12.645L13.7775 15.5158C13.5283 15.7196 13.184 15.7616 12.8931 15.6237C12.6022 15.4859 12.4167 15.1928 12.4167 14.8708V14.4167C12.4167 14.3397 12.3744 14.269 12.3066 14.2328C12.2387 14.1965 12.1564 14.2006 12.0925 14.2433L9.9625 15.6667C9.70629 15.8376 9.37667 15.8533 9.10539 15.7074C8.8341 15.5616 8.66539 15.278 8.66667 14.97V9.0275C8.66631 8.71994 8.83539 8.4372 9.10649 8.29197C9.3776 8.14674 9.70666 8.16264 9.9625 8.33333L12.0925 9.75C12.1554 9.79216 12.2363 9.79682 12.3037 9.76218C12.3711 9.72754 12.4143 9.65906 12.4167 9.58333V9.12833C12.4167 8.80641 12.6022 8.51331 12.8931 8.37543C13.184 8.23755 13.5283 8.27956 13.7775 8.48333L17.2867 11.3542C17.4801 11.5124 17.5923 11.7492 17.5923 11.9992C17.5923 12.2491 17.4801 12.4859 17.2867 12.6442V12.645Z" fill="#5A5A5A"/>
</g>
</svg>
