<?xml version="1.0" encoding="UTF-8"?>
<svg width="24px" height="24px" viewBox="0 0 24 24" version="1.1" xmlns="http://www.w3.org/2000/svg" xmlns:xlink="http://www.w3.org/1999/xlink">
    <title>1. Interface Essentials/button_stop</title>
    <g id="1.-Interface-Essentials/button_stop" stroke="none" stroke-width="1" fill="none" fill-rule="evenodd">
        <path d="M12,2 C6.4771525,2 2,6.4771525 2,12 C2,17.5228475 6.4771525,22 12,22 C17.5228475,22 22,17.5228475 22,12 C21.9940293,6.47962754 17.5203725,2.00597071 12,2 Z M16.1666667,15.3333333 C16.1666667,15.7935706 15.7935706,16.1666667 15.3333333,16.1666667 L8.66666667,16.1666667 C8.20642938,16.1666667 7.83333333,15.7935706 7.83333333,15.3333333 L7.83333333,8.66666667 C7.83333333,8.20642938 8.20642938,7.83333333 8.66666667,7.83333333 L15.3333333,7.83333333 C15.7935706,7.83333333 16.1666667,8.20642938 16.1666667,8.66666667 L16.1666667,15.3333333 Z" id="ðŸ–-Color" fill="#5A5A5A"></path>
        <rect id="_Transparent_Rectangle_" x="0" y="0" width="24" height="24"></rect>
    </g>
</svg>