<?xml version="1.0" encoding="UTF-8"?>
<svg width="24px" height="24px" viewBox="0 0 24 24" version="1.1" xmlns="http://www.w3.org/2000/svg" xmlns:xlink="http://www.w3.org/1999/xlink">
    <title>1. Interface Essentials/button_fast_forward</title>
    <g id="1.-Interface-Essentials/button_fast_forward" stroke="none" stroke-width="1" fill="none" fill-rule="evenodd">
        <path d="M12,2 C6.4771525,2 2,6.4771525 2,12 C2,17.5228475 6.4771525,22 12,22 C17.5228475,22 22,17.5228475 22,12 C21.9940293,6.47962754 17.5203725,2.00597071 12,2 Z M17.2866667,12.645 L13.7775,15.5158333 C13.5282833,15.7196101 13.1839836,15.7616166 12.893083,15.6237372 C12.6021823,15.4858578 12.4167155,15.1927556 12.4166667,14.8708333 L12.4166667,14.4166667 C12.4167296,14.3397453 12.3744018,14.2690481 12.3065687,14.2327774 C12.2387355,14.1965067 12.1564357,14.200565 12.0925,14.2433333 L9.9625,15.6666667 C9.70628664,15.8376128 9.37667403,15.8532951 9.10538821,15.7074463 C8.8341024,15.5615974 8.66538677,15.2780036 8.66665944,14.97 L8.66665944,9.0275 C8.66631295,8.71994478 8.83538818,8.43719734 9.10649471,8.29196792 C9.37760125,8.14673851 9.70666005,8.16263987 9.9625,8.33333333 L12.0925,9.75 C12.1554458,9.79215835 12.2363159,9.79682342 12.3036919,9.76218281 C12.3710679,9.7275422 12.4143285,9.6590567 12.4166667,9.58333333 L12.4166667,9.12833333 C12.4167155,8.8064111 12.6021823,8.51330891 12.893083,8.37542948 C13.1839836,8.23755006 13.5282833,8.27955656 13.7775,8.48333333 L17.2866667,11.3541667 C17.4801388,11.5124402 17.5923453,11.7492027 17.5923453,11.9991667 C17.5923453,12.2491306 17.4801388,12.4858931 17.2866667,12.6441667 L17.2866667,12.645 Z" id="ðŸ–-Color" fill="#5A5A5A"></path>
        <rect id="_Transparent_Rectangle_" x="0" y="0" width="24" height="24"></rect>
    </g>
</svg>