<?xml version="1.0" encoding="UTF-8"?>
<svg width="24px" height="24px" viewBox="0 0 24 24" version="1.1" xmlns="http://www.w3.org/2000/svg" xmlns:xlink="http://www.w3.org/1999/xlink">
    <title>1. Interface Essentials/button_next</title>
    <g id="1.-Interface-Essentials/button_next" stroke="none" stroke-width="1" fill="none" fill-rule="evenodd">
        <path d="M12,2 C6.4771525,2 2,6.4771525 2,12 C2,17.5228475 6.4771525,22 12,22 C17.5228475,22 22,17.5228475 22,12 C21.9940293,6.47962754 17.5203725,2.00597071 12,2 Z M7.83333207,9.185 C7.83276059,8.85563791 8.02623087,8.556839 8.32699032,8.42258748 C8.62774977,8.28833596 8.97936428,8.3438226 9.22416667,8.56416667 L12.3516667,11.38 C12.5273766,11.5380411 12.6277201,11.7632552 12.6277201,11.9995833 C12.6277201,12.2359114 12.5273766,12.4611256 12.3516667,12.6191667 L9.225,15.4325 C8.98046665,15.6531978 8.62887876,15.7091427 8.32792169,15.5752439 C8.02696462,15.441345 7.83312282,15.1427328 7.83333207,14.8133333 L7.83333207,9.185 Z M16.1666667,15.3333333 C16.1666667,15.7935706 15.7935706,16.1666667 15.3333333,16.1666667 L14.5,16.1666667 C14.0397627,16.1666667 13.6666667,15.7935706 13.6666667,15.3333333 L13.6666667,8.66666667 C13.6666667,8.20642938 14.0397627,7.83333333 14.5,7.83333333 L15.3333333,7.83333333 C15.7935706,7.83333333 16.1666667,8.20642938 16.1666667,8.66666667 L16.1666667,15.3333333 Z" id="ðŸ–-Color" fill="#5A5A5A"></path>
        <rect id="_Transparent_Rectangle_" x="0" y="0" width="24" height="24"></rect>
    </g>
</svg>