<svg width="24" height="24" viewBox="0 0 24 24" fill="none" xmlns="http://www.w3.org/2000/svg">
<g id="button_pause">
<path id="Shape" fill-rule="evenodd" clip-rule="evenodd" d="M12 2C6.47715 2 2 6.47715 2 12C2 17.5228 6.47715 22 12 22C17.5228 22 22 17.5228 22 12C21.994 6.47963 17.5204 2.00597 12 2ZM16.1667 15.3333C16.1667 15.7936 15.7936 16.1667 15.3333 16.1667H13.6667C13.2064 16.1667 12.8333 15.7936 12.8333 15.3333V8.66667C12.8333 8.20643 13.2064 7.83333 13.6667 7.83333H15.3333C15.7936 7.83333 16.1667 8.20643 16.1667 8.66667V15.3333ZM11.1667 8.66667V15.3333C11.1667 15.7936 10.7936 16.1667 10.3333 16.1667H8.66667C8.20643 16.1667 7.83333 15.7936 7.83333 15.3333V8.66667C7.83333 8.20643 8.20643 7.83333 8.66667 7.83333H10.3333C10.7936 7.83333 11.1667 8.20643 11.1667 8.66667Z" fill="#5A5A5A"/>
</g>
</svg>
