<svg width="24" height="24" viewBox="0 0 24 24" fill="none" xmlns="http://www.w3.org/2000/svg">
<g id="button_previous">
<path id="Shape" fill-rule="evenodd" clip-rule="evenodd" d="M12 2C6.47715 2 2 6.47715 2 12C2 17.5228 6.47715 22 12 22C17.5228 22 22 17.5228 22 12C21.994 6.47963 17.5204 2.00597 12 2ZM16.1667 14.8142C16.1669 15.1434 15.9733 15.4419 15.6726 15.5759C15.3719 15.71 15.0205 15.6544 14.7758 15.4342L11.6483 12.6192C11.4726 12.4611 11.3723 12.2359 11.3723 11.9996C11.3723 11.7633 11.4726 11.538 11.6483 11.38L14.775 8.565C15.0196 8.3442 15.3714 8.28831 15.6725 8.42242C15.9735 8.55654 16.1672 8.85545 16.1667 9.185V14.8142ZM10.3333 8.66667V15.3333C10.3333 15.7936 9.96024 16.1667 9.5 16.1667H8.66667C8.20643 16.1667 7.83333 15.7936 7.83333 15.3333V8.66667C7.83333 8.20643 8.20643 7.83333 8.66667 7.83333H9.5C9.96024 7.83333 10.3333 8.20643 10.3333 8.66667Z" fill="#5A5A5A"/>
</g>
</svg>
