<?xml version="1.0" encoding="UTF-8"?>
<svg width="24px" height="24px" viewBox="0 0 24 24" version="1.1" xmlns="http://www.w3.org/2000/svg" xmlns:xlink="http://www.w3.org/1999/xlink">
    <title>1. Interface Essentials/button_rewind</title>
    <g id="1.-Interface-Essentials/button_rewind" stroke="none" stroke-width="1" fill="none" fill-rule="evenodd">
        <path d="M12,2 C6.4771525,2 2,6.4771525 2,12 C2,17.5228475 6.4771525,22 12,22 C17.5228475,22 22,17.5228475 22,12 C21.9940293,6.47962754 17.5203725,2.00597071 12,2 Z M15.3333333,14.9708333 C15.3333333,15.278239 15.1641846,15.560705 14.8931375,15.7057283 C14.6220904,15.8507516 14.2932155,15.8347768 14.0375,15.6641667 L11.9075,14.2475 C11.8435643,14.2047317 11.7612645,14.2006734 11.6934313,14.2369441 C11.6255982,14.2732148 11.5832704,14.343912 11.5833333,14.4208333 L11.5833333,14.8741667 C11.5832845,15.1960889 11.3978177,15.4891911 11.106917,15.6270705 C10.8160164,15.7649499 10.4717167,15.7229434 10.2225,15.5191667 L6.71333333,12.6441667 C6.51986123,12.4858931 6.40765466,12.2491306 6.40765466,11.9991667 C6.40765466,11.7492027 6.51986123,11.5124402 6.71333333,11.3541667 L10.2225,8.48333333 C10.4717167,8.27955656 10.8160164,8.23755006 11.106917,8.37542948 C11.3978177,8.51330891 11.5832845,8.8064111 11.5833333,9.12833333 L11.5833333,9.58333333 C11.5832704,9.66025469 11.6255982,9.73095189 11.6934313,9.76722257 C11.7612645,9.80349325 11.8435643,9.79943498 11.9075,9.75666667 L14.0375,8.34 C14.2923458,8.1699598 14.619943,8.1534668 14.8905783,8.29705145 C15.1612136,8.44063611 15.3312394,8.72114131 15.3333333,9.0275 L15.3333333,14.9708333 Z" id="ðŸ–-Color" fill="#5A5A5A"></path>
        <rect id="_Transparent_Rectangle_" x="0" y="0" width="24" height="24"></rect>
    </g>
</svg>