<?xml version="1.0" encoding="UTF-8"?>
<svg width="24px" height="24px" viewBox="0 0 24 24" version="1.1" xmlns="http://www.w3.org/2000/svg" xmlns:xlink="http://www.w3.org/1999/xlink">
    <title>1. Interface Essentials/button_previous</title>
    <g id="1.-Interface-Essentials/button_previous" stroke="none" stroke-width="1" fill="none" fill-rule="evenodd">
        <path d="M12,2 C6.4771525,2 2,6.4771525 2,12 C2,17.5228475 6.4771525,22 12,22 C17.5228475,22 22,17.5228475 22,12 C21.9940293,6.47962754 17.5203725,2.00597071 12,2 Z M16.1666678,14.8141667 C16.1669096,15.1433777 15.9733165,15.4418751 15.6726283,15.5759146 C15.3719402,15.7099541 15.0205235,15.654409 14.7758333,15.4341667 L11.6483333,12.6191667 C11.4726234,12.4611256 11.3722799,12.2359114 11.3722799,11.9995833 C11.3722799,11.7632552 11.4726234,11.5380411 11.6483333,11.38 L14.775,8.565 C15.0196455,8.34420036 15.3714312,8.28831376 15.6724597,8.42242466 C15.9734882,8.55653555 16.1672072,8.8554494 16.1666678,9.185 L16.1666678,14.8141667 Z M10.3333333,8.66666667 L10.3333333,15.3333333 C10.3333333,15.7935706 9.96023729,16.1666667 9.5,16.1666667 L8.66666667,16.1666667 C8.20642938,16.1666667 7.83333333,15.7935706 7.83333333,15.3333333 L7.83333333,8.66666667 C7.83333333,8.20642938 8.20642938,7.83333333 8.66666667,7.83333333 L9.5,7.83333333 C9.96023729,7.83333333 10.3333333,8.20642938 10.3333333,8.66666667 Z" id="ðŸ–-Color" fill="#5A5A5A"></path>
        <rect id="_Transparent_Rectangle_" x="0" y="0" width="24" height="24"></rect>
    </g>
</svg>