<?xml version="1.0" encoding="UTF-8"?>
<svg width="24px" height="24px" viewBox="0 0 24 24" version="1.1" xmlns="http://www.w3.org/2000/svg" xmlns:xlink="http://www.w3.org/1999/xlink">
    <title>1. Interface Essentials/calendar</title>
    <g id="1.-Interface-Essentials/calendar" stroke="none" stroke-width="1" fill="none" fill-rule="evenodd">
        <path d="M16.58,12.42 L15.75,12.42 C15.29,12.42 14.92,12.04 14.92,11.58 C14.92,11.12 15.29,10.75 15.75,10.75 L16.58,10.75 C17.04,10.75 17.42,11.12 17.42,11.58 C17.42,12.04 17.04,12.42 16.58,12.42 M16.58,15.75 L15.75,15.75 C15.29,15.75 14.92,15.38 14.92,14.92 C14.92,14.46 15.29,14.08 15.75,14.08 L16.58,14.08 C17.04,14.08 17.42,14.46 17.42,14.92 C17.42,15.38 17.04,15.75 16.58,15.75 M16.58,19.08 L15.75,19.08 C15.29,19.08 14.92,18.71 14.92,18.25 C14.92,17.79 15.29,17.42 15.75,17.42 L16.58,17.42 C17.04,17.42 17.42,17.79 17.42,18.25 C17.42,18.71 17.04,19.08 16.58,19.08 M12.42,12.42 L11.58,12.42 C11.12,12.42 10.75,12.04 10.75,11.58 C10.75,11.12 11.12,10.75 11.58,10.75 L12.42,10.75 C12.88,10.75 13.25,11.12 13.25,11.58 C13.25,12.04 12.88,12.42 12.42,12.42 M12.42,15.75 L11.58,15.75 C11.12,15.75 10.75,15.38 10.75,14.92 C10.75,14.46 11.12,14.08 11.58,14.08 L12.42,14.08 C12.88,14.08 13.25,14.46 13.25,14.92 C13.25,15.38 12.88,15.75 12.42,15.75 M12.42,19.08 L11.58,19.08 C11.12,19.08 10.75,18.71 10.75,18.25 C10.75,17.79 11.12,17.42 11.58,17.42 L12.42,17.42 C12.88,17.42 13.25,17.79 13.25,18.25 C13.25,18.71 12.88,19.08 12.42,19.08 M8.25,12.42 L7.42,12.42 C6.96,12.42 6.58,12.04 6.58,11.58 C6.58,11.12 6.96,10.75 7.42,10.75 L8.25,10.75 C8.71,10.75 9.08,11.12 9.08,11.58 C9.08,12.04 8.71,12.42 8.25,12.42 M8.25,15.75 L7.42,15.75 C6.96,15.75 6.58,15.38 6.58,14.92 C6.58,14.46 6.96,14.08 7.42,14.08 L8.25,14.08 C8.71,14.08 9.08,14.46 9.08,14.92 C9.08,15.38 8.71,15.75 8.25,15.75 M8.25,19.08 L7.42,19.08 C6.96,19.08 6.58,18.71 6.58,18.25 C6.58,17.79 6.96,17.42 7.42,17.42 L8.25,17.42 C8.71,17.42 9.08,17.79 9.08,18.25 C9.08,18.71 8.71,19.08 8.25,19.08 M19.92,4.5 L17.63,4.5 C17.51,4.5 17.42,4.41 17.42,4.29 L17.42,2.83 C17.42,2.37 17.04,2 16.58,2 C16.12,2 15.75,2.37 15.75,2.83 L15.75,6.79 C15.75,7.14 15.47,7.42 15.13,7.42 C14.78,7.42 14.5,7.14 14.5,6.79 L14.5,4.92 C14.5,4.69 14.309,4.5 14.08,4.5 L8.88,4.5 C8.76,4.5 8.67,4.41 8.67,4.29 L8.67,2.83 C8.67,2.37 8.29,2 7.83,2 C7.37,2 7,2.37 7,2.83 L7,6.79 C7,7.14 6.72,7.42 6.38,7.42 C6.03,7.42 5.75,7.14 5.75,6.79 L5.75,4.92 C5.75,4.69 5.56,4.5 5.33,4.5 L4.08,4.5 C3.16,4.5 2.42,5.25 2.42,6.17 L2.42,20.33 C2.42,21.25 3.16,22 4.08,22 L19.92,22 C20.84,22 21.58,21.25 21.58,20.33 L21.58,6.17 C21.58,5.25 20.84,4.5 19.92,4.5" id="ðŸ–-Color" fill="#5A5A5A"></path>
        <rect id="_Transparent_Rectangle_" x="0" y="0" width="24" height="24"></rect>
    </g>
</svg>