<svg width="24" height="24" viewBox="0 0 24 24" fill="none" xmlns="http://www.w3.org/2000/svg">
<g id="calendar">
<path id="Shape" fill-rule="evenodd" clip-rule="evenodd" d="M16.58 12.42H15.75C15.29 12.42 14.92 12.04 14.92 11.58C14.92 11.12 15.29 10.75 15.75 10.75H16.58C17.04 10.75 17.42 11.12 17.42 11.58C17.42 12.04 17.04 12.42 16.58 12.42ZM16.58 15.75H15.75C15.29 15.75 14.92 15.38 14.92 14.92C14.92 14.46 15.29 14.08 15.75 14.08H16.58C17.04 14.08 17.42 14.46 17.42 14.92C17.42 15.38 17.04 15.75 16.58 15.75ZM16.58 19.08H15.75C15.29 19.08 14.92 18.71 14.92 18.25C14.92 17.79 15.29 17.42 15.75 17.42H16.58C17.04 17.42 17.42 17.79 17.42 18.25C17.42 18.71 17.04 19.08 16.58 19.08ZM12.42 12.42H11.58C11.12 12.42 10.75 12.04 10.75 11.58C10.75 11.12 11.12 10.75 11.58 10.75H12.42C12.88 10.75 13.25 11.12 13.25 11.58C13.25 12.04 12.88 12.42 12.42 12.42ZM12.42 15.75H11.58C11.12 15.75 10.75 15.38 10.75 14.92C10.75 14.46 11.12 14.08 11.58 14.08H12.42C12.88 14.08 13.25 14.46 13.25 14.92C13.25 15.38 12.88 15.75 12.42 15.75ZM12.42 19.08H11.58C11.12 19.08 10.75 18.71 10.75 18.25C10.75 17.79 11.12 17.42 11.58 17.42H12.42C12.88 17.42 13.25 17.79 13.25 18.25C13.25 18.71 12.88 19.08 12.42 19.08ZM8.25004 12.42H7.42004C6.96004 12.42 6.58004 12.04 6.58004 11.58C6.58004 11.12 6.96004 10.75 7.42004 10.75H8.25004C8.71004 10.75 9.08004 11.12 9.08004 11.58C9.08004 12.04 8.71004 12.42 8.25004 12.42ZM8.25004 15.75H7.42004C6.96004 15.75 6.58004 15.38 6.58004 14.92C6.58004 14.46 6.96004 14.08 7.42004 14.08H8.25004C8.71004 14.08 9.08004 14.46 9.08004 14.92C9.08004 15.38 8.71004 15.75 8.25004 15.75ZM8.25004 19.08H7.42004C6.96004 19.08 6.58004 18.71 6.58004 18.25C6.58004 17.79 6.96004 17.42 7.42004 17.42H8.25004C8.71004 17.42 9.08004 17.79 9.08004 18.25C9.08004 18.71 8.71004 19.08 8.25004 19.08ZM19.92 4.5H17.63C17.51 4.5 17.42 4.41 17.42 4.29V2.83C17.42 2.37 17.04 2 16.58 2C16.12 2 15.75 2.37 15.75 2.83V6.79C15.75 7.14 15.47 7.42 15.13 7.42C14.78 7.42 14.5 7.14 14.5 6.79V4.92C14.5 4.69 14.309 4.5 14.08 4.5H8.88004C8.76004 4.5 8.67004 4.41 8.67004 4.29V2.83C8.67004 2.37 8.29004 2 7.83004 2C7.37004 2 7.00004 2.37 7.00004 2.83V6.79C7.00004 7.14 6.72004 7.42 6.38004 7.42C6.03004 7.42 5.75004 7.14 5.75004 6.79V4.92C5.75004 4.69 5.56004 4.5 5.33004 4.5H4.08004C3.16004 4.5 2.42004 5.25 2.42004 6.17V20.33C2.42004 21.25 3.16004 22 4.08004 22H19.92C20.84 22 21.58 21.25 21.58 20.33V6.17C21.58 5.25 20.84 4.5 19.92 4.5Z" fill="#5A5A5A"/>
</g>
</svg>
