<svg width="24" height="24" viewBox="0 0 24 24" fill="none" xmlns="http://www.w3.org/2000/svg">
<g id="caps">
<path id="Shape" fill-rule="evenodd" clip-rule="evenodd" d="M3.70213 6.04248H9.65957C10.5996 6.04248 11.3617 6.80455 11.3617 7.74461V9.0212C11.3617 9.49123 10.9807 9.87227 10.5106 9.87227C10.0406 9.87227 9.65957 9.49123 9.65957 9.0212V7.95737C9.65957 7.83987 9.56432 7.74461 9.44681 7.74461H7.74468C7.62717 7.74461 7.53191 7.83987 7.53191 7.95737V16.0425C7.53191 16.16 7.62717 16.2552 7.74468 16.2552H8.38298C8.85301 16.2552 9.23404 16.6363 9.23404 17.1063C9.23404 17.5763 8.85301 17.9574 8.38298 17.9574H4.97872C4.50869 17.9574 4.12766 17.5763 4.12766 17.1063C4.12766 16.6363 4.50869 16.2552 4.97872 16.2552H5.61702C5.73453 16.2552 5.82979 16.16 5.82979 16.0425V7.95737C5.82979 7.83987 5.73453 7.74461 5.61702 7.74461H3.91489C3.79805 7.7446 3.70306 7.83883 3.70213 7.95567V9.0212C3.70213 9.49123 3.32109 9.87227 2.85106 9.87227C2.38103 9.87227 2 9.49123 2 9.0212V7.74461C2 6.80455 2.76207 6.04248 3.70213 6.04248ZM14.3404 6.04248H20.2979C21.2379 6.04248 22 6.80455 22 7.74461V9.0212C22 9.49123 21.619 9.87227 21.1489 9.87227C20.6789 9.87227 20.2979 9.49123 20.2979 9.0212V7.95737C20.2979 7.83987 20.2026 7.74461 20.0851 7.74461H18.383C18.2655 7.74461 18.1702 7.83987 18.1702 7.95737V16.0425C18.1702 16.16 18.2655 16.2552 18.383 16.2552H19.0213C19.4913 16.2552 19.8723 16.6363 19.8723 17.1063C19.8723 17.5763 19.4913 17.9574 19.0213 17.9574H15.617C15.147 17.9574 14.766 17.5763 14.766 17.1063C14.766 16.6363 15.147 16.2552 15.617 16.2552H16.2553C16.3728 16.2552 16.4681 16.16 16.4681 16.0425V7.95737C16.4681 7.83987 16.3728 7.74461 16.2553 7.74461H14.5532C14.4363 7.7446 14.3414 7.83883 14.3404 7.95567V9.0212C14.3404 9.49123 13.9594 9.87227 13.4894 9.87227C13.0193 9.87227 12.6383 9.49123 12.6383 9.0212V7.74461C12.6383 6.80455 13.4004 6.04248 14.3404 6.04248Z" fill="#5A5A5A"/>
</g>
</svg>
