<?xml version="1.0" encoding="UTF-8"?>
<svg width="24px" height="24px" viewBox="0 0 24 24" version="1.1" xmlns="http://www.w3.org/2000/svg" xmlns:xlink="http://www.w3.org/1999/xlink">
    <title>1. Interface Essentials/caps</title>
    <g id="1.-Interface-Essentials/caps" stroke="none" stroke-width="1" fill="none" fill-rule="evenodd">
        <path d="M9.65957447,6.04255319 C10.5996336,6.04255319 11.3617021,6.8046217 11.3617021,7.74468085 L11.3617021,7.74468085 L11.3617021,9.0212766 C11.3617021,9.49130617 10.9806679,9.87234043 10.5106383,9.87234043 C10.0406087,9.87234043 9.65957447,9.49130617 9.65957447,9.0212766 L9.65957447,9.0212766 L9.65957447,7.95744681 C9.65957447,7.83993941 9.5643159,7.74468085 9.44680851,7.74468085 L9.44680851,7.74468085 L7.74468085,7.74468085 C7.62717346,7.74468085 7.53191489,7.83993941 7.53191489,7.95744681 L7.53191489,7.95744681 L7.53191489,16.0425532 C7.53191489,16.1600606 7.62717346,16.2553191 7.74468085,16.2553191 L7.74468085,16.2553191 L8.38297872,16.2553191 C8.8530083,16.2553191 9.23404255,16.6363534 9.23404255,17.106383 C9.23404255,17.5764126 8.8530083,17.9574468 8.38297872,17.9574468 L8.38297872,17.9574468 L4.9787234,17.9574468 C4.50869383,17.9574468 4.12765957,17.5764126 4.12765957,17.106383 C4.12765957,16.6363534 4.50869383,16.2553191 4.9787234,16.2553191 L4.9787234,16.2553191 L5.61702128,16.2553191 C5.73452867,16.2553191 5.82978723,16.1600606 5.82978723,16.0425532 L5.82978723,16.0425532 L5.82978723,7.95744681 C5.82978723,7.83993941 5.73452867,7.74468085 5.61702128,7.74468085 L5.61702128,7.74468085 L3.91489362,7.74468085 C3.79804775,7.74467711 3.70306243,7.83890255 3.70212766,7.95574468 L3.70212766,7.95574468 L3.70212766,9.0212766 C3.70212766,9.49130617 3.3210934,9.87234043 2.85106383,9.87234043 C2.38103426,9.87234043 2,9.49130617 2,9.0212766 L2,9.0212766 L2,7.74468085 C2,6.8046217 2.76206851,6.04255319 3.70212766,6.04255319 L3.70212766,6.04255319 Z M20.2978723,6.04255319 C21.2379315,6.04255319 22,6.8046217 22,7.74468085 L22,7.74468085 L22,9.0212766 C22,9.49130617 21.6189657,9.87234043 21.1489362,9.87234043 C20.6789066,9.87234043 20.2978723,9.49130617 20.2978723,9.0212766 L20.2978723,9.0212766 L20.2978723,7.95744681 C20.2978723,7.83993941 20.2026138,7.74468085 20.0851064,7.74468085 L20.0851064,7.74468085 L18.3829787,7.74468085 C18.2654713,7.74468085 18.1702128,7.83993941 18.1702128,7.95744681 L18.1702128,7.95744681 L18.1702128,16.0425532 C18.1702128,16.1600606 18.2654713,16.2553191 18.3829787,16.2553191 L18.3829787,16.2553191 L19.0212766,16.2553191 C19.4913062,16.2553191 19.8723404,16.6363534 19.8723404,17.106383 C19.8723404,17.5764126 19.4913062,17.9574468 19.0212766,17.9574468 L19.0212766,17.9574468 L15.6170213,17.9574468 C15.1469917,17.9574468 14.7659574,17.5764126 14.7659574,17.106383 C14.7659574,16.6363534 15.1469917,16.2553191 15.6170213,16.2553191 L15.6170213,16.2553191 L16.2553191,16.2553191 C16.3728265,16.2553191 16.4680851,16.1600606 16.4680851,16.0425532 L16.4680851,16.0425532 L16.4680851,7.95744681 C16.4680851,7.83993941 16.3728265,7.74468085 16.2553191,7.74468085 L16.2553191,7.74468085 L14.5531915,7.74468085 C14.4363456,7.74467711 14.3413603,7.83890255 14.3404255,7.95574468 L14.3404255,7.95574468 L14.3404255,9.0212766 C14.3404255,9.49130617 13.9593913,9.87234043 13.4893617,9.87234043 C13.0193321,9.87234043 12.6382979,9.49130617 12.6382979,9.0212766 L12.6382979,9.0212766 L12.6382979,7.74468085 C12.6382979,6.8046217 13.4003664,6.04255319 14.3404255,6.04255319 L14.3404255,6.04255319 Z" id="ðŸ–-Color" fill="#5A5A5A"></path>
        <rect id="_Transparent_Rectangle_" x="0" y="0" width="24" height="24"></rect>
    </g>
</svg>