<?xml version="1.0" encoding="UTF-8"?>
<svg width="24px" height="24px" viewBox="0 0 24 24" version="1.1" xmlns="http://www.w3.org/2000/svg" xmlns:xlink="http://www.w3.org/1999/xlink">
    <title>1. Interface Essentials/center_aligned_paragraph</title>
    <g id="1.-Interface-Essentials/center_aligned_paragraph" stroke="none" stroke-width="1" fill="none" fill-rule="evenodd">
        <path d="M20.5106383,19.8723404 C21.0981753,19.8723404 21.5744681,20.3486332 21.5744681,20.9361702 C21.5744681,21.5237072 21.0981753,22 20.5106383,22 L3.4893617,22 C2.90182473,22 2.42553191,21.5237072 2.42553191,20.9361702 C2.42553191,20.3486332 2.90182473,19.8723404 3.4893617,19.8723404 L20.5106383,19.8723404 Z M16.6808511,13.9148936 C17.268388,13.9148936 17.7446809,14.3911864 17.7446809,14.9787234 C17.7446809,15.5662604 17.268388,16.0425532 16.6808511,16.0425532 L7.31914894,16.0425532 C6.73161197,16.0425532 6.25531915,15.5662604 6.25531915,14.9787234 C6.25531915,14.3911864 6.73161197,13.9148936 7.31914894,13.9148936 L16.6808511,13.9148936 Z M18.8085106,7.95744681 C19.3960476,7.95744681 19.8723404,8.43373963 19.8723404,9.0212766 C19.8723404,9.60881356 19.3960476,10.0851064 18.8085106,10.0851064 L5.19148936,10.0851064 C4.60395239,10.0851064 4.12765957,9.60881356 4.12765957,9.0212766 C4.12765957,8.43373963 4.60395239,7.95744681 5.19148936,7.95744681 L18.8085106,7.95744681 Z M20.5106383,2 C21.0981753,2 21.5744681,2.47629282 21.5744681,3.06382979 C21.5744681,3.65136676 21.0981753,4.12765957 20.5106383,4.12765957 L3.4893617,4.12765957 C2.90182473,4.12765957 2.42553191,3.65136676 2.42553191,3.06382979 C2.42553191,2.47629282 2.90182473,2 3.4893617,2 L20.5106383,2 Z" id="ðŸ–-Color" fill="#5A5A5A"></path>
        <rect id="_Transparent_Rectangle_" x="0" y="0" width="24" height="24"></rect>
    </g>
</svg>