<svg width="24" height="24" viewBox="0 0 24 24" fill="none" xmlns="http://www.w3.org/2000/svg">
<g id="center_aligned_paragraph">
<path id="Shape" fill-rule="evenodd" clip-rule="evenodd" d="M3.48937 4.12766H20.5106C21.0982 4.12766 21.5745 3.65137 21.5745 3.06383C21.5745 2.47629 21.0982 2 20.5106 2H3.48937C2.90183 2 2.42554 2.47629 2.42554 3.06383C2.42554 3.65137 2.90183 4.12766 3.48937 4.12766ZM3.48937 22H20.5106C21.0982 22 21.5745 21.5237 21.5745 20.9362C21.5745 20.3486 21.0982 19.8723 20.5106 19.8723H3.48937C2.90183 19.8723 2.42554 20.3486 2.42554 20.9362C2.42554 21.5237 2.90183 22 3.48937 22ZM18.8085 10.0851H5.19149C4.60396 10.0851 4.12766 9.60881 4.12766 9.02128C4.12766 8.43374 4.60396 7.95745 5.19149 7.95745H18.8085C19.3961 7.95745 19.8723 8.43374 19.8723 9.02128C19.8723 9.60881 19.3961 10.0851 18.8085 10.0851ZM7.31915 16.0426H16.6809C17.2684 16.0426 17.7447 15.5663 17.7447 14.9787C17.7447 14.3912 17.2684 13.9149 16.6809 13.9149H7.31915C6.73162 13.9149 6.25532 14.3912 6.25532 14.9787C6.25532 15.5663 6.73162 16.0426 7.31915 16.0426Z" fill="#5A5A5A"/>
</g>
</svg>
