<?xml version="1.0" encoding="UTF-8"?>
<svg width="24px" height="24px" viewBox="0 0 24 24" version="1.1" xmlns="http://www.w3.org/2000/svg" xmlns:xlink="http://www.w3.org/1999/xlink">
    <title>1. Interface Essentials/check_double</title>
    <g id="1.-Interface-Essentials/check_double" stroke="none" stroke-width="1" fill="none" fill-rule="evenodd">
        <path d="M3.98822658,11.4982163 C4.32062092,11.1659223 4.85943217,11.1659223 5.19182651,11.4982163 L5.19182651,11.4982163 L6.49586829,12.8022581 C5.99856086,13.300654 5.99856086,14.1075596 6.49586829,14.6059556 L6.49586829,14.6059556 L8.82135272,16.93144 C8.86137697,16.9713632 8.88387087,17.0255713 8.88387087,17.0821028 C8.88387087,17.1386342 8.86137697,17.1928424 8.82135272,17.2327656 L8.82135272,17.2327656 L7.53263257,18.5206345 C7.20023824,18.8529285 6.66142699,18.8529285 6.32903265,18.5206345 L6.32903265,18.5206345 L2.24922048,14.4408223 C1.91692651,14.108428 1.91692651,13.5696167 2.24922048,13.2372224 L2.24922048,13.2372224 Z M19.5379885,5.64364752 C19.7041857,5.47750054 19.9735913,5.47750054 20.1397885,5.64364752 L20.1397885,5.64364752 L21.8753898,7.38350483 C22.0415367,7.549702 22.0415367,7.81910762 21.8753898,7.98530479 L21.8753898,7.98530479 L11.7792804,18.0839678 C11.6130832,18.2501148 11.3436776,18.2501148 11.1774804,18.0839678 L11.1774804,18.0839678 L7.09766825,14.0041556 C6.93152126,13.8379584 6.93152126,13.5685528 7.09766825,13.4023556 L7.09766825,13.4023556 L8.83667436,11.6607959 C9.00287152,11.4946489 9.27227715,11.4946489 9.43847432,11.6607959 L9.43847432,11.6607959 L11.1774804,13.4023556 C11.3436776,13.5685026 11.6130832,13.5685026 11.7792804,13.4023556 L11.7792804,13.4023556 Z M14.6886895,5.47936549 C15.0210839,5.14707153 15.5598951,5.14707153 15.8922894,5.47936549 L15.8922894,5.47936549 L17.0473708,6.63444689 C17.0873951,6.67437009 17.109889,6.72857825 17.109889,6.78510968 C17.109889,6.84164111 17.0873951,6.89584927 17.0473708,6.93577247 L17.0473708,6.93577247 L11.6320224,12.3511209 C11.5920992,12.3911452 11.537891,12.4136391 11.4813596,12.4136391 C11.4248282,12.4136391 11.37062,12.3911452 11.3306968,12.3511209 L11.3306968,12.3511209 L10.0436791,11.0649544 C9.87683532,10.8982325 9.66557276,10.7829984 9.43506951,10.7329855 L9.43506951,10.7329855 Z" id="ðŸ–-Color" fill="#5A5A5A"></path>
        <rect id="_Transparent_Rectangle_" x="0" y="0" width="24" height="24"></rect>
    </g>
</svg>