<?xml version="1.0" encoding="UTF-8"?>
<svg width="24px" height="24px" viewBox="0 0 24 24" version="1.1" xmlns="http://www.w3.org/2000/svg" xmlns:xlink="http://www.w3.org/1999/xlink">
    <title>1. Interface Essentials/check_shield</title>
    <g id="1.-Interface-Essentials/check_shield" stroke="none" stroke-width="1" fill="none" fill-rule="evenodd">
        <path d="M19.0150038,2 L4.98500473,2 C4.29757957,2.00412463 3.74240984,2.56256238 3.74240984,3.24999992 L3.74240984,8.46916624 C3.72262242,14.1102952 6.82583151,19.2993099 11.8050043,21.950832 C11.8649401,21.9830896 11.9319392,22 12.0000043,22 C12.0682554,22 12.1355036,21.9835724 12.1958376,21.9516654 C17.1742868,19.2990792 20.2769272,14.1101585 20.2575944,8.46916624 L20.2575944,3.24999992 C20.2575944,2.56256238 19.702429,2.00412463 19.0150038,2 Z M16.9166706,8.6208329 L11.0000043,14.2041659 C10.6705488,14.5162958 10.1519013,14.5074047 9.83333775,14.1841659 L7.85583788,12.1874993 C7.64049966,11.9771456 7.55534877,11.6670073 7.63308592,11.3761874 C7.71082306,11.0853676 7.93936252,10.8590798 8.23093775,10.7842258 C8.52251298,10.7093718 8.83179307,10.7975891 9.04000447,11.0149994 L10.441671,12.431666 L15.7708374,7.40916631 C15.9872807,7.2044829 16.29648,7.13081881 16.5819627,7.21592258 C16.8674454,7.30102636 17.08584,7.53196871 17.1548793,7.82175589 C17.2239187,8.11154307 17.133114,8.4161495 16.9166706,8.6208329 Z" id="ðŸ–-Color" fill="#5A5A5A"></path>
        <rect id="_Transparent_Rectangle_" x="0" y="0" width="24" height="24"></rect>
    </g>
</svg>