<svg width="24" height="24" viewBox="0 0 24 24" fill="none" xmlns="http://www.w3.org/2000/svg">
<g id="check">
<path id="Shape" fill-rule="evenodd" clip-rule="evenodd" d="M18.8101 5.66545C18.4494 5.39741 17.9979 5.28487 17.555 5.35259C17.112 5.42032 16.7138 5.66276 16.4481 6.02658L9.71487 14.5334L7.27253 12.4648C6.80284 12.0687 6.15742 11.96 5.5856 12.1806C5.01378 12.4012 4.6051 12.9166 4.51744 13.5277C4.42977 14.1387 4.67685 14.7498 5.16323 15.1248L8.97708 18.3C9.27671 18.5407 9.64934 18.6701 10.0324 18.6665C10.5667 18.6683 11.0705 18.4157 11.3918 17.9852L19.1682 8.05159C19.4356 7.68769 19.5482 7.2313 19.481 6.78345C19.4138 6.33561 19.1723 5.93325 18.8101 5.66545Z" fill="#5A5A5A"/>
</g>
</svg>
