<svg width="24" height="24" viewBox="0 0 24 24" fill="none" xmlns="http://www.w3.org/2000/svg">
<g id="check_shield">
<path id="Shape" fill-rule="evenodd" clip-rule="evenodd" d="M19.015 2H4.98503C4.2976 2.00412 3.74251 2.56256 3.74253 3.25V8.46917C3.72264 14.1103 6.82585 19.2993 11.805 21.9508C11.865 21.9831 11.932 22 12 22C12.0683 22.0002 12.1355 21.9836 12.1959 21.9517C17.1743 19.2991 20.277 14.1102 20.2575 8.46917V3.25C20.2575 2.56256 19.7025 2.00412 19.015 2ZM16.9167 8.62083L11 14.2042C10.6706 14.5163 10.1519 14.5074 9.83336 14.1842L7.85586 12.1875C7.64052 11.9771 7.55537 11.667 7.63311 11.3762C7.71084 11.0854 7.93938 10.8591 8.23096 10.7842C8.52253 10.7094 8.83181 10.7976 9.04003 11.015L10.4417 12.4317L15.7709 7.40917C15.9873 7.20448 16.2965 7.13082 16.582 7.21592C16.8675 7.30103 17.0859 7.53197 17.1549 7.82176C17.2239 8.11154 17.1331 8.41615 16.9167 8.62083Z" fill="#5A5A5A"/>
</g>
</svg>
