<?xml version="1.0" encoding="UTF-8"?>
<svg width="24px" height="24px" viewBox="0 0 24 24" version="1.1" xmlns="http://www.w3.org/2000/svg" xmlns:xlink="http://www.w3.org/1999/xlink">
    <title>1. Interface Essentials/check</title>
    <g id="1.-Interface-Essentials/check" stroke="none" stroke-width="1" fill="none" fill-rule="evenodd">
        <path d="M18.8101237,5.66544226 C18.4494382,5.39739907 17.9979309,5.28485814 17.5549564,5.35258419 C17.1119819,5.42031024 16.7138378,5.66275376 16.4481359,6.02656489 L9.71486695,14.5333735 L7.27253053,12.4647429 C6.80284285,12.068699 6.15742118,11.9599796 5.58560278,12.1805849 C5.01378437,12.4011902 4.6051029,12.9165783 4.51743889,13.5276463 C4.42977488,14.1387143 4.6768545,14.7497828 5.16322676,15.1247858 L8.97708356,18.2999507 C9.27671138,18.540678 9.64934192,18.6701132 10.0324111,18.6665242 C10.566708,18.6682418 11.0705114,18.415716 11.3917702,17.9851607 L19.1682054,8.05157704 C19.4356292,7.68767702 19.5481976,7.23128809 19.4809906,6.78344355 C19.4137836,6.33559902 19.1723451,5.93324121 18.8101237,5.66544226 Z" id="ðŸ–-Color" fill="#5A5A5A"></path>
        <rect id="_Transparent_Rectangle_" x="0" y="0" width="24" height="24"></rect>
    </g>
</svg>