<svg width="24" height="24" viewBox="0 0 24 24" fill="none" xmlns="http://www.w3.org/2000/svg">
<g id="checklist">
<path id="Shape" fill-rule="evenodd" clip-rule="evenodd" d="M19.9167 2H4.08333C2.93274 2 2 2.93274 2 4.08333V19.9167C2 20.4692 2.21949 20.9991 2.61019 21.3898C3.0009 21.7805 3.5308 22 4.08333 22H19.9167C20.4692 22 20.9991 21.7805 21.3898 21.3898C21.7805 20.9991 22 20.4692 22 19.9167V4.08333C22 3.5308 21.7805 3.0009 21.3898 2.61019C20.9991 2.21949 20.4692 2 19.9167 2ZM17.4167 9.91667H13.6667C13.2064 9.91667 12.8333 9.54357 12.8333 9.08333C12.8333 8.6231 13.2064 8.25 13.6667 8.25H17.4167C17.8769 8.25 18.25 8.6231 18.25 9.08333C18.25 9.54357 17.8769 9.91667 17.4167 9.91667ZM18.25 16.5833C18.25 17.0436 17.8769 17.4167 17.4167 17.4167H13.6667C13.2064 17.4167 12.8333 17.0436 12.8333 16.5833C12.8333 16.1231 13.2064 15.75 13.6667 15.75H17.4167C17.8769 15.75 18.25 16.1231 18.25 16.5833ZM11.4167 6.66667L8.91667 10C8.77215 10.194 8.55045 10.3157 8.30917 10.3333H8.25C8.029 10.3333 7.81708 10.2455 7.66083 10.0892L6.41083 8.83917C6.08522 8.51378 6.08503 7.98603 6.41042 7.66042C6.7358 7.3348 7.26355 7.33461 7.58917 7.66L8.16 8.23083L10.0833 5.66667C10.3595 5.29848 10.8818 5.22386 11.25 5.5C11.6182 5.77614 11.6928 6.29848 11.4167 6.66667ZM11.4167 15L8.91667 18.3333C8.76884 18.5223 8.54789 18.6399 8.30856 18.6569C8.06922 18.6739 7.83388 18.5887 7.66083 18.4225L6.41083 17.1725C6.09502 16.8455 6.09954 16.3258 6.42098 16.0043C6.74243 15.6829 7.26218 15.6784 7.58917 15.9942L8.16 16.565L10.0833 14C10.3595 13.6318 10.8818 13.5572 11.25 13.8333C11.6182 14.1095 11.6928 14.6318 11.4167 15Z" fill="#5A5A5A"/>
</g>
</svg>
