<?xml version="1.0" encoding="UTF-8"?>
<svg width="24px" height="24px" viewBox="0 0 24 24" version="1.1" xmlns="http://www.w3.org/2000/svg" xmlns:xlink="http://www.w3.org/1999/xlink">
    <title>1. Interface Essentials/checklist</title>
    <g id="1.-Interface-Essentials/checklist" stroke="none" stroke-width="1" fill="none" fill-rule="evenodd">
        <path d="M19.9166667,2 L4.08333333,2 C2.9327401,2 2,2.9327401 2,4.08333333 L2,19.9166667 C2,20.469201 2.21949342,20.999105 2.61019421,21.3898058 C3.00089499,21.7805066 3.53079898,22 4.08333333,22 L19.9166667,22 C20.469201,22 20.999105,21.7805066 21.3898058,21.3898058 C21.7805066,20.999105 22,20.469201 22,19.9166667 L22,4.08333333 C22,3.53079898 21.7805066,3.00089499 21.3898058,2.61019421 C20.999105,2.21949342 20.469201,2 19.9166667,2 Z M17.4166667,9.91666667 L13.6666667,9.91666667 C13.2064294,9.91666667 12.8333333,9.54357062 12.8333333,9.08333333 C12.8333333,8.62309604 13.2064294,8.25 13.6666667,8.25 L17.4166667,8.25 C17.876904,8.25 18.25,8.62309604 18.25,9.08333333 C18.25,9.54357062 17.876904,9.91666667 17.4166667,9.91666667 Z M18.25,16.5833333 C18.25,17.0435706 17.876904,17.4166667 17.4166667,17.4166667 L13.6666667,17.4166667 C13.2064294,17.4166667 12.8333333,17.0435706 12.8333333,16.5833333 C12.8333333,16.123096 13.2064294,15.75 13.6666667,15.75 L17.4166667,15.75 C17.876904,15.75 18.25,16.123096 18.25,16.5833333 Z M11.4166667,6.66666667 L8.91666667,10 C8.77215338,10.1940272 8.5504524,10.3156739 8.30916667,10.3333333 L8.25,10.3333333 C8.02900432,10.3333333 7.81707728,10.2454578 7.66083333,10.0891667 L6.41083333,8.83916667 C6.08521545,8.5137789 6.0850289,7.98603455 6.41041667,7.66041667 C6.73580443,7.33479878 7.26354878,7.33461223 7.58916667,7.66 L8.16,8.23083333 L10.0833333,5.66666667 C10.3594757,5.29847684 10.8818102,5.22385764 11.25,5.50000001 C11.6181898,5.77614238 11.692809,6.29847683 11.4166667,6.66666667 L11.4166667,6.66666667 Z M11.4166667,15 L8.91666667,18.3333333 C8.76883675,18.5223212 8.54789088,18.6398697 8.30855574,18.6568629 C8.0692206,18.6738562 7.83388263,18.5887048 7.66083333,18.4225 L6.41083333,17.1725 C6.09502316,16.8455176 6.09953969,16.3257627 6.42098452,16.0043179 C6.74242935,15.682873 7.26218426,15.6783565 7.58916667,15.9941667 L8.16,16.565 L10.0833333,14 C10.3594757,13.6318102 10.8818102,13.557191 11.25,13.8333334 C11.6181898,14.1094757 11.692809,14.6318102 11.4166667,15 L11.4166667,15 Z" id="ðŸ–-Color" fill="#5A5A5A"></path>
        <rect id="_Transparent_Rectangle_" x="0" y="0" width="24" height="24"></rect>
    </g>
</svg>