<svg width="24" height="24" viewBox="0 0 24 24" fill="none" xmlns="http://www.w3.org/2000/svg">
<g id="check_double">
<path id="Shape" fill-rule="evenodd" clip-rule="evenodd" d="M10.0437 11.065L11.3307 12.3512C11.3706 12.3912 11.4248 12.4137 11.4814 12.4137C11.5379 12.4137 11.5921 12.3912 11.632 12.3512L17.0474 6.93585C17.0874 6.89593 17.1099 6.84172 17.1099 6.78519C17.1099 6.72866 17.0874 6.67445 17.0474 6.63453L15.8923 5.47945C15.5599 5.14715 15.0211 5.14715 14.6887 5.47945L9.43507 10.7331C9.66557 10.7831 9.87684 10.8983 10.0437 11.065ZM6.49587 14.606C5.99856 14.1076 5.99856 13.3007 6.49587 12.8023L5.19183 11.4983C4.85943 11.166 4.32062 11.166 3.98823 11.4983L2.24922 13.2373C1.91693 13.5697 1.91693 14.1085 2.24922 14.4409L6.32903 18.5207C6.66143 18.853 7.20024 18.853 7.53263 18.5207L8.82135 17.2328C8.86138 17.1929 8.88387 17.1387 8.88387 17.0822C8.88387 17.0257 8.86138 16.9714 8.82135 16.9315L6.49587 14.606ZM19.538 5.64373C19.7042 5.47758 19.9736 5.47758 20.1398 5.64373L21.8754 7.38358C22.0415 7.54978 22.0415 7.81919 21.8754 7.98538L11.7793 18.084C11.6131 18.2502 11.3437 18.2502 11.1775 18.084L7.09767 14.0042C6.93152 13.838 6.93152 13.5686 7.09767 13.4024L8.83667 11.6609C9.00287 11.4947 9.27228 11.4947 9.43847 11.6609L11.1775 13.4024C11.3437 13.5686 11.6131 13.5686 11.7793 13.4024L19.538 5.64373Z" fill="#5A5A5A"/>
</g>
</svg>
