<?xml version="1.0" encoding="UTF-8"?>
<svg width="24px" height="24px" viewBox="0 0 24 24" version="1.1" xmlns="http://www.w3.org/2000/svg" xmlns:xlink="http://www.w3.org/1999/xlink">
    <title>1. Interface Essentials/chevron_up</title>
    <g id="1.-Interface-Essentials/chevron_up" stroke="none" stroke-width="1" fill="none" fill-rule="evenodd">
        <path d="M19.91275,9.57475 L13.4219167,16.38475 C12.6360833,17.20475 11.3660833,17.20475 10.58025,16.38475 L4.08775,9.57475 C3.72441667,9.19308333 3.58275,8.63808333 3.71525,8.11808333 C3.84858333,7.59725 4.23608333,7.19141667 4.73191667,7.05141667 C5.22775,6.91225 5.75691667,7.06058333 6.11941667,7.44141667 L11.7969167,13.4005833 C11.9094167,13.51725 12.09025,13.51725 12.2035833,13.4005833 L17.88025,7.44141667 C18.2435833,7.06058333 18.77275,6.91225 19.2685833,7.05141667 C19.7635833,7.19141667 20.1510833,7.59725 20.2844167,8.11808333 C20.4169167,8.63808333 20.2760833,9.19308333 19.91275,9.57475" id="ðŸ–-Color" fill="#5A5A5A" transform="translate(11.999897, 11.999917) rotate(-180.000000) translate(-11.999897, -11.999917) "></path>
        <rect id="_Transparent_Rectangle_" x="0" y="0" width="24" height="24"></rect>
    </g>
</svg>