<svg width="24" height="24" viewBox="0 0 24 24" fill="none" xmlns="http://www.w3.org/2000/svg">
<g id="chevron_down">
<path id="Shape" fill-rule="evenodd" clip-rule="evenodd" d="M19.9128 9.57473L13.422 16.3847C12.6361 17.2047 11.3661 17.2047 10.5803 16.3847L4.0878 9.57473C3.72446 9.19306 3.5828 8.63806 3.7153 8.11806C3.84863 7.59723 4.23613 7.19139 4.73196 7.05139C5.2278 6.91223 5.75696 7.06056 6.11946 7.44139L11.797 13.4006C11.9095 13.5172 12.0903 13.5172 12.2036 13.4006L17.8803 7.44139C18.2436 7.06056 18.7728 6.91223 19.2686 7.05139C19.7636 7.19139 20.1511 7.59723 20.2845 8.11806C20.417 8.63806 20.2761 9.19306 19.9128 9.57473Z" fill="#5A5A5A"/>
</g>
</svg>
