<svg width="24" height="24" viewBox="0 0 24 24" fill="none" xmlns="http://www.w3.org/2000/svg">
<g id="chevron_left">
<path id="Shape" fill-rule="evenodd" clip-rule="evenodd" d="M14.4251 19.9128L7.61509 13.422C6.79509 12.6361 6.79509 11.3661 7.61509 10.5803L14.4251 4.0878C14.8068 3.72446 15.3618 3.5828 15.8818 3.7153C16.4026 3.84863 16.8084 4.23613 16.9484 4.73196C17.0876 5.2278 16.9393 5.75696 16.5584 6.11946L10.5993 11.797C10.4826 11.9095 10.4826 12.0903 10.5993 12.2036L16.5584 17.8803C16.9393 18.2436 17.0876 18.7728 16.9484 19.2686C16.8084 19.7636 16.4026 20.1511 15.8818 20.2845C15.3618 20.417 14.8068 20.2761 14.4251 19.9128Z" fill="#5A5A5A"/>
</g>
</svg>
