<svg width="24" height="24" viewBox="0 0 24 24" fill="none" xmlns="http://www.w3.org/2000/svg">
<g id="chevron_right">
<path id="Shape" fill-rule="evenodd" clip-rule="evenodd" d="M9.57467 4.08708L16.3847 10.5779C17.2047 11.3637 17.2047 12.6337 16.3847 13.4196L9.57467 19.9121C9.193 20.2754 8.638 20.4171 8.118 20.2846C7.59717 20.1512 7.19133 19.7637 7.05133 19.2679C6.91217 18.7721 7.0605 18.2429 7.44133 17.8804L13.4005 12.2029C13.5172 12.0904 13.5172 11.9096 13.4005 11.7962L7.44133 6.11958C7.0605 5.75625 6.91217 5.22708 7.05133 4.73125C7.19133 4.23625 7.59717 3.84875 8.118 3.71541C8.638 3.58291 9.193 3.72375 9.57467 4.08708Z" fill="#5A5A5A"/>
</g>
</svg>
