<svg width="24" height="24" viewBox="0 0 24 24" fill="none" xmlns="http://www.w3.org/2000/svg">
<g id="chevron_up">
<path id="Shape" fill-rule="evenodd" clip-rule="evenodd" d="M4.08696 14.4251L10.5778 7.61509C11.3636 6.79509 12.6336 6.79509 13.4195 7.61509L19.912 14.4251C20.2753 14.8068 20.417 15.3618 20.2845 15.8818C20.1511 16.4026 19.7636 16.8084 19.2678 16.9484C18.772 17.0876 18.2428 16.9393 17.8803 16.5584L12.2028 10.5993C12.0903 10.4826 11.9095 10.4826 11.7961 10.5993L6.11946 16.5584C5.75612 16.9393 5.22696 17.0876 4.73112 16.9484C4.23612 16.8084 3.84863 16.4026 3.71529 15.8818C3.58279 15.3618 3.72363 14.8068 4.08696 14.4251Z" fill="#5A5A5A"/>
</g>
</svg>
