<svg width="24" height="24" viewBox="0 0 24 24" fill="none" xmlns="http://www.w3.org/2000/svg">
<g id="close_quote">
<path id="Shape" fill-rule="evenodd" clip-rule="evenodd" d="M13.9293 7.11711C14.7105 5.77875 16.1518 4.96472 17.7013 4.98676C20.0727 4.98964 21.9944 6.91131 21.9973 9.2827V10.3626C22.1142 15.0118 18.4489 18.88 13.8001 19.0136C13.1999 19.0136 12.7133 18.527 12.7133 17.9267C12.7133 17.3265 13.1999 16.8399 13.8001 16.8399C15.9297 16.8093 17.8798 15.6405 18.9107 13.7769C18.9544 13.7015 18.9488 13.6073 18.8965 13.5376C18.8442 13.4679 18.7554 13.4361 18.6708 13.4569C18.3538 13.5372 18.0283 13.5783 17.7013 13.5795C16.1518 13.6016 14.7105 12.7875 13.9293 11.4492C13.1481 10.1108 13.1481 8.45548 13.9293 7.11711ZM2.75146 9.28314C2.75146 6.93391 4.63816 5.02018 6.98715 4.98676C9.35888 4.98916 11.2811 6.91097 11.284 9.2827V10.3626C11.4003 15.0116 7.73539 18.8795 3.08681 19.0136C2.48658 19.0136 2 18.527 2 17.9267C2 17.3265 2.48658 16.8399 3.08681 16.8399C5.21637 16.8093 7.16642 15.6405 8.19742 13.7769C8.24128 13.7013 8.23563 13.6068 8.18309 13.537C8.13055 13.4672 8.04133 13.4357 7.95658 13.4569C7.63966 13.5373 7.31409 13.5784 6.98715 13.5795C4.63816 13.5461 2.75146 11.6324 2.75146 9.28314Z" fill="#5A5A5A"/>
</g>
</svg>
