<?xml version="1.0" encoding="UTF-8"?>
<svg width="24px" height="24px" viewBox="0 0 24 24" version="1.1" xmlns="http://www.w3.org/2000/svg" xmlns:xlink="http://www.w3.org/1999/xlink">
    <title>1. Interface Essentials/close_quote</title>
    <g id="1.-Interface-Essentials/close_quote" stroke="none" stroke-width="1" fill="none" fill-rule="evenodd">
        <path d="M17.7013434,4.98682406 C20.0727326,4.98969847 21.9944066,6.91137249 21.9972811,9.28276169 L21.9972811,9.28276169 L21.9972811,10.3626149 C22.114151,15.0118577 18.4489269,18.8800142 13.8001347,19.0136125 C13.1999068,19.0136125 12.713326,18.5270317 12.713326,17.9268038 C12.713326,17.3265759 13.1999068,16.839995 13.8001347,16.839995 C15.9296972,16.8093117 17.8797509,15.6405401 18.9107442,13.7769332 C18.9543795,13.7015255 18.9487731,13.6073489 18.8964995,13.5376508 C18.8442258,13.4679526 18.7553861,13.436201 18.6707768,13.4569768 C18.3538431,13.5372338 18.0282789,13.5784038 17.7013434,13.5795688 C16.1518317,13.6016121 14.7104972,12.7875834 13.9293081,11.4492202 C13.148119,10.110857 13.148119,8.45553586 13.9293081,7.11717267 C14.7104972,5.77880948 16.1518317,4.96478076 17.7013434,4.98682406 Z M6.98714801,4.98682406 C9.35887674,4.98921945 11.2810797,6.91103349 11.2839551,9.28276169 L11.2839551,9.28276169 L11.2839551,10.3626149 C11.4003431,15.0116726 7.73539019,18.8795429 3.08680875,19.0136125 C2.48658085,19.0136125 2,18.5270317 2,17.9268038 C2,17.3265759 2.48658085,16.839995 3.08680875,16.839995 C5.21637121,16.8093117 7.16642492,15.6405401 8.19741823,13.7769332 C8.24127656,13.7013738 8.23563352,13.6068985 8.18309273,13.537097 C8.13055194,13.4672955 8.04132553,13.4357349 7.95658141,13.4569768 C7.63966236,13.5373111 7.31408855,13.5784824 6.98714801,13.5795688 C4.63815931,13.5461522 2.75146094,11.6324228 2.75146094,9.28319642 C2.75146094,6.93397004 4.63815931,5.02024068 6.98714801,4.98682406 Z" id="ðŸ–-Color" fill="#5A5A5A"></path>
        <rect id="_Transparent_Rectangle_" x="0" y="0" width="24" height="24"></rect>
    </g>
</svg>