<?xml version="1.0" encoding="UTF-8"?>
<svg width="24px" height="24px" viewBox="0 0 24 24" version="1.1" xmlns="http://www.w3.org/2000/svg" xmlns:xlink="http://www.w3.org/1999/xlink">
    <title>1. Interface Essentials/code_view</title>
    <g id="1.-Interface-Essentials/code_view" stroke="none" stroke-width="1" fill="none" fill-rule="evenodd">
        <path d="M10.313122,4.19937825 C10.7294457,4.60477665 10.7420086,5.26970765 10.3412955,5.69054283 L4.48704414,11.7000591 C4.32535528,11.8650147 4.32535528,12.129013 4.48704414,12.2939686 L10.3412955,18.3026364 C10.6392131,18.6086149 10.7245438,19.0634317 10.5577948,19.4565888 C10.3910458,19.849746 10.0047519,20.1045335 9.57769746,20.1030374 L9.58109123,20.1013339 C9.29496516,20.1017768 9.02091956,19.9860346 8.82173544,19.7806228 L2.5330817,13.3214322 C1.8223061,12.5805453 1.8223061,11.410937 2.5330817,10.6700502 L8.82173544,4.2108596 C9.23176829,3.79909955 9.89679826,3.79397985 10.313122,4.19937825 Z M15.179113,4.20916271 L21.4669183,10.6675049 C22.1776939,11.4083917 22.1776939,12.578 21.4669183,13.3188868 L15.1782646,19.7789259 C14.9803908,19.9839058 14.7080535,20.1001847 14.423151,20.1013406 C13.9960965,20.1028366 13.6098027,19.8480491 13.4430537,19.4548919 C13.2763046,19.0617348 13.3616353,18.606918 13.659553,18.3009396 L19.5138043,12.2914233 C19.6754932,12.1264677 19.6754932,11.8624694 19.5138043,11.6975138 L13.659553,5.68884595 C13.2588398,5.26801076 13.2714028,4.60307976 13.6877265,4.19768136 C14.1040502,3.79228297 14.7690801,3.79740266 15.179113,4.20916271 Z" id="ðŸ–-Color" fill="#5A5A5A"></path>
        <rect id="_Transparent_Rectangle_" x="0" y="0" width="24" height="24"></rect>
    </g>
</svg>