<svg width="24" height="24" viewBox="0 0 24 24" fill="none" xmlns="http://www.w3.org/2000/svg">
<g id="code_view">
<path id="Shape" fill-rule="evenodd" clip-rule="evenodd" d="M13.4431 19.4549C13.6098 19.8481 13.9961 20.1029 14.4232 20.1014C14.7081 20.1002 14.9804 19.9839 15.1783 19.7789L21.4669 13.3189C22.1777 12.578 22.1777 11.4084 21.4669 10.6675L15.1791 4.20918C14.7691 3.79742 14.1041 3.7923 13.6877 4.1977C13.2714 4.6031 13.2588 5.26803 13.6596 5.68886L19.5138 11.6975C19.6755 11.8625 19.6755 12.1265 19.5138 12.2914L13.6596 18.301C13.3616 18.6069 13.2763 19.0618 13.4431 19.4549ZM8.82174 19.7806C9.02092 19.9861 9.29497 20.1018 9.58109 20.1014L9.5777 20.103C10.0048 20.1045 10.391 19.8498 10.5578 19.4566C10.7245 19.0634 10.6392 18.6086 10.3413 18.3027L4.48704 12.294C4.32536 12.129 4.32536 11.865 4.48704 11.7001L10.3413 5.69056C10.742 5.26972 10.7294 4.60479 10.3131 4.19939C9.8968 3.794 9.23177 3.79912 8.82174 4.21088L2.53308 10.6701C1.82231 11.411 1.82231 12.5806 2.53308 13.3214L8.82174 19.7806Z" fill="#5A5A5A"/>
</g>
</svg>
