<?xml version="1.0" encoding="UTF-8"?>
<svg width="24px" height="24px" viewBox="0 0 24 24" version="1.1" xmlns="http://www.w3.org/2000/svg" xmlns:xlink="http://www.w3.org/1999/xlink">
    <title>1. Interface Essentials/collapse</title>
    <g id="1.-Interface-Essentials/collapse" stroke="none" stroke-width="1" fill="none" fill-rule="evenodd">
        <path d="M10.7812578,12.3676652 C11.2512947,12.3676652 11.6323348,12.7487053 11.6323348,13.2187422 L11.6323348,13.2187422 L11.6323348,18.9047871 C11.6323348,19.2489874 11.4251748,19.5593535 11.1072203,19.6911822 C11.0039577,19.7342345 10.8931352,19.7562253 10.7812578,19.755864 C10.5555567,19.7558158 10.3391172,19.6661174 10.1795465,19.5064985 L10.1795465,19.5064985 L8.23909107,17.5660431 C8.19917375,17.5260247 8.14497357,17.5035341 8.08845046,17.5035341 C8.03192735,17.5035341 7.97772717,17.5260247 7.93780984,17.5660431 L7.93780984,17.5660431 L3.8160443,21.6886597 C3.40036942,22.1037801 2.72701519,22.1037801 2.3113403,21.6886597 C1.8962199,21.2729848 1.8962199,20.5996306 2.3113403,20.1839557 L2.3113403,20.1839557 L6.43395692,16.0621902 C6.51683333,15.9788613 6.51683333,15.8442378 6.43395692,15.7609089 L6.43395692,15.7609089 L4.49265046,13.8204535 C4.24932083,13.5770504 4.17654184,13.2110513 4.30824083,12.8930737 C4.43993982,12.5750961 4.75018983,12.3676652 5.09436184,12.3676652 L5.09436184,12.3676652 Z M20.1839557,2.3113403 C20.5996306,1.8962199 21.2729848,1.8962199 21.6886597,2.3113403 C22.1037801,2.72701519 22.1037801,3.40036942 21.6886597,3.8160443 L21.6886597,3.8160443 L17.5660431,7.93780984 C17.4831667,8.0211387 17.4831667,8.15576222 17.5660431,8.23909107 L17.5660431,8.23909107 L19.5073495,10.1795465 C19.7506792,10.4229496 19.8234582,10.7889487 19.6917592,11.1069263 C19.5600602,11.4249039 19.2498102,11.6323348 18.9056382,11.6323348 L18.9056382,11.6323348 L13.2187422,11.6323348 C12.7487053,11.6323348 12.3676652,11.2512947 12.3676652,10.7812578 L12.3676652,10.7812578 L12.3676652,5.09521292 C12.3676652,4.7510409 12.5750961,4.44079089 12.8930737,4.30909191 C13.2110513,4.17739292 13.5770504,4.25017191 13.8204535,4.49350153 L13.8204535,4.49350153 L15.7609089,6.43395692 C15.8444281,6.51637077 15.978671,6.51637077 16.0621902,6.43395692 L16.0621902,6.43395692 Z" id="ðŸ–-Color" fill="#5A5A5A"></path>
        <rect id="_Transparent_Rectangle_" x="0" y="0" width="24" height="24"></rect>
    </g>
</svg>