<svg width="24" height="24" viewBox="0 0 24 24" fill="none" xmlns="http://www.w3.org/2000/svg">
<g id="collapse">
<path id="Shape" fill-rule="evenodd" clip-rule="evenodd" d="M20.184 2.31134C20.5996 1.89622 21.273 1.89622 21.6887 2.31134C22.1038 2.72702 22.1038 3.40037 21.6887 3.81604L17.566 7.93781C17.4832 8.02114 17.4832 8.15576 17.566 8.23909L19.5073 10.1795C19.7507 10.4229 19.8235 10.7889 19.6918 11.1069C19.5601 11.4249 19.2498 11.6323 18.9056 11.6323H13.2187C12.7487 11.6323 12.3677 11.2513 12.3677 10.7813V5.09521C12.3677 4.75104 12.5751 4.44079 12.8931 4.30909C13.2111 4.17739 13.5771 4.25017 13.8205 4.4935L15.7609 6.43396C15.8444 6.51637 15.9787 6.51637 16.0622 6.43396L20.184 2.31134ZM3.81604 21.6887C3.40037 22.1038 2.72702 22.1038 2.31134 21.6887C1.89622 21.273 1.89622 20.5996 2.31134 20.184L6.43396 16.0622C6.51683 15.9789 6.51683 15.8442 6.43396 15.7609L4.49265 13.8205C4.24932 13.5771 4.17654 13.2111 4.30824 12.8931C4.43994 12.5751 4.75019 12.3677 5.09436 12.3677H10.7813C11.2513 12.3677 11.6323 12.7487 11.6323 13.2187V18.9048C11.6324 19.249 11.4252 19.5594 11.1072 19.6912C11.004 19.7342 10.8931 19.7562 10.7813 19.7559C10.5556 19.7558 10.3391 19.6661 10.1795 19.5065L8.23909 17.566C8.19917 17.526 8.14497 17.5035 8.08845 17.5035C8.03193 17.5035 7.97773 17.526 7.93781 17.566L3.81604 21.6887Z" fill="#5A5A5A"/>
</g>
</svg>
