<?xml version="1.0" encoding="UTF-8"?>
<svg width="24px" height="24px" viewBox="0 0 24 24" version="1.1" xmlns="http://www.w3.org/2000/svg" xmlns:xlink="http://www.w3.org/1999/xlink">
    <title>1. Interface Essentials/color_picker</title>
    <g id="1.-Interface-Essentials/color_picker" stroke="none" stroke-width="1" fill="none" fill-rule="evenodd">
        <path d="M11.6330605,7.16554373 C11.6860606,7.16554373 11.7368756,7.18754494 11.7742605,7.22667863 L11.7742605,7.22667863 L16.5830605,12.2391786 C16.6608707,12.3204848 16.6608707,12.4520391 16.5830605,12.5333453 L16.5830605,12.5333453 L9.85906053,19.5333453 C8.98776262,20.4924071 7.72630106,20.9555411 6.47026053,20.777512 L6.47026053,20.777512 L5.64946053,21.6316786 C5.18086071,22.1196561 4.42126035,22.1196561 3.95266053,21.6316786 L3.95266053,21.6316786 L2.75266053,20.3816786 C2.2842022,19.8935538 2.2842022,19.1023034 2.75266053,18.6141786 L2.75266053,18.6141786 L3.57426053,17.7616786 C3.40321719,16.4532887 3.84784706,15.1392034 4.76866053,14.2316786 L4.76866053,14.2316786 L6.03266053,12.9141786 C6.11116735,12.833483 6.23735371,12.833483 6.31586053,12.9141786 L6.31586053,12.9141786 L7.71986053,14.3766786 C7.82029032,14.4849939 7.96901168,14.5284339 8.10886346,14.4903024 C8.24871523,14.452171 8.35793321,14.3384023 8.39453939,14.1927233 C8.43114557,14.0470444 8.38944316,13.8921263 8.28546053,13.787512 L8.28546053,13.787512 L6.88146053,12.325012 C6.80365035,12.2437058 6.80365035,12.1121515 6.88146053,12.0308453 L6.88146053,12.0308453 L7.63266053,11.247512 C7.71116735,11.1668163 7.83735371,11.1668163 7.91586053,11.247512 L7.91586053,11.247512 L9.31986053,12.710012 C9.42029032,12.8183272 9.56901168,12.8617672 9.70886346,12.8236358 C9.84871523,12.7855043 9.95793321,12.6717356 9.99453939,12.5260567 C10.0311456,12.3803778 9.98944316,12.2254597 9.88546053,12.1208453 L9.88546053,12.1208453 L8.48146053,10.6583453 C8.40365035,10.5770391 8.40365035,10.4454848 8.48146053,10.3641786 L8.48146053,10.3641786 L9.23266053,9.5808453 C9.31116735,9.50014964 9.43735371,9.50014964 9.51586053,9.5808453 L9.51586053,9.5808453 L10.9214605,11.0416786 C11.0218903,11.1499939 11.1706117,11.1934339 11.3104635,11.1553024 C11.4503152,11.117171 11.5595332,11.0034023 11.5961394,10.8577233 C11.6327456,10.7120444 11.5910432,10.5571263 11.4870605,10.452512 L11.4870605,10.452512 L10.0830605,8.99001196 C10.0052503,8.90870576 10.0052503,8.77715149 10.0830605,8.6958453 L10.0830605,8.6958453 L11.4918605,7.22667863 C11.5292454,7.18754494 11.5800604,7.16554373 11.6330605,7.16554373 Z M15.3977104,3.1506525 C16.8226793,1.68232666 19.1147793,1.6065237 20.6278605,3.0133453 C22.0253342,4.6433798 21.8992573,7.14237201 20.3454605,8.6108453 L20.3454605,8.6108453 L18.8558605,10.162512 C18.8182922,10.2014546 18.797171,10.2543869 18.797171,10.3095953 C18.797171,10.3648037 18.8182922,10.417736 18.8558605,10.4566786 L18.8558605,10.4566786 L19.3686605,10.9916786 C19.6718383,11.318661 19.6675024,11.8384159 19.3589154,12.1598608 C19.0503283,12.4813056 18.5513636,12.4858221 18.2374605,12.170012 L18.2374605,12.170012 L11.8358605,5.5033453 C11.5326828,5.17636289 11.5370186,4.65660798 11.8456057,4.33516315 C12.1541927,4.01371832 12.6531574,4.00920179 12.9670605,4.32501196 L12.9670605,4.32501196 L13.4798605,4.85917863 C13.5581884,4.9403272 13.6847326,4.9403272 13.7630605,4.85917863 L13.7630605,4.85917863 L15.2534605,3.30751196 Z" id="ðŸ–-Color" fill="#5A5A5A"></path>
        <rect id="_Transparent_Rectangle_" x="0" y="0" width="24" height="24"></rect>
    </g>
</svg>