<svg width="24" height="24" viewBox="0 0 24 24" fill="none" xmlns="http://www.w3.org/2000/svg">
<g id="color_picker">
<path id="Shape" fill-rule="evenodd" clip-rule="evenodd" d="M19.359 12.1598C19.0504 12.4813 18.5514 12.4858 18.2375 12.17L11.8359 5.50333C11.5327 5.17634 11.5371 4.65659 11.8457 4.33514C12.1542 4.0137 12.6532 4.00918 12.9671 4.32499L13.4799 4.85916C13.5582 4.94031 13.6848 4.94031 13.7631 4.85916L15.2535 3.30749C16.6637 1.6893 19.0627 1.55799 20.6279 3.01333C22.0254 4.64336 21.8993 7.14235 20.3455 8.61083L18.8559 10.1625C18.8183 10.2014 18.7972 10.2544 18.7972 10.3096C18.7972 10.3648 18.8183 10.4177 18.8559 10.4567L19.3687 10.9917C19.6719 11.3186 19.6676 11.8384 19.359 12.1598ZM11.6331 7.16552C11.6861 7.16552 11.7369 7.18753 11.7743 7.22666L16.5831 12.2392C16.6609 12.3205 16.6609 12.452 16.5831 12.5333L9.85911 19.5333C8.98781 20.4924 7.72635 20.9555 6.47031 20.7775L5.64951 21.6317C5.18091 22.1196 4.42131 22.1196 3.95271 21.6317L2.75271 20.3817C2.28425 19.8935 2.28425 19.1023 2.75271 18.6142L3.57431 17.7617C3.40327 16.4533 3.8479 15.1392 4.76871 14.2317L6.03271 12.9142C6.11122 12.8335 6.2374 12.8335 6.31591 12.9142L7.71991 14.3767C7.82034 14.485 7.96906 14.5284 8.10891 14.4903C8.24877 14.4522 8.35798 14.3384 8.39459 14.1927C8.4312 14.047 8.38949 13.8921 8.28551 13.7875L6.88151 12.325C6.8037 12.2437 6.8037 12.1121 6.88151 12.0308L7.63271 11.2475C7.71122 11.1668 7.8374 11.1668 7.91591 11.2475L9.31991 12.71C9.42034 12.8183 9.56906 12.8617 9.70891 12.8236C9.84877 12.7855 9.95798 12.6717 9.99459 12.526C10.0312 12.3804 9.98949 12.2254 9.88551 12.1208L8.48151 10.6583C8.4037 10.577 8.4037 10.4455 8.48151 10.3642L9.23271 9.58083C9.31122 9.50013 9.4374 9.50013 9.51591 9.58083L10.9215 11.0417C11.0219 11.15 11.1707 11.1934 11.3105 11.1553C11.4504 11.1172 11.5596 11.0034 11.5962 10.8577C11.6328 10.712 11.5911 10.5571 11.4871 10.4525L10.0831 8.98999C10.0053 8.90869 10.0053 8.77713 10.0831 8.69583L11.4919 7.22666C11.5293 7.18753 11.5801 7.16552 11.6331 7.16552Z" fill="#5A5A5A"/>
</g>
</svg>
