<svg width="24" height="24" viewBox="0 0 24 24" fill="none" xmlns="http://www.w3.org/2000/svg">
<g id="copy">
<path id="Shape" fill-rule="evenodd" clip-rule="evenodd" d="M18.3611 2.4669L20.9051 5.0099C21.2051 5.2999 21.3751 5.7099 21.3751 6.1199V16.2499C21.3751 17.1299 20.6651 17.8299 19.7951 17.8299H16.9471C16.7241 17.8299 16.5451 17.6509 16.5451 17.4279V10.2899C16.5451 9.6019 16.2701 8.9419 15.7811 8.4559L13.2241 5.9199C12.7411 5.4399 12.0861 5.1699 11.4041 5.1699H8.85706C8.63506 5.1699 8.45506 4.9899 8.45506 4.7679V3.5799C8.45506 2.7099 9.16506 1.9999 10.0451 1.9999H17.2351C17.6571 1.9999 18.0621 2.1679 18.3611 2.4669ZM15.5418 10.2911V15.9581V17.8331V20.4211C15.5388 21.2931 14.8308 22.0001 13.9588 22.0001H4.20876C3.33676 22.0001 2.62976 21.2961 2.62476 20.4241V7.7501C2.62476 6.8751 3.33476 6.1661 4.20876 6.1661H7.20876H9.08376H11.3988C11.8178 6.1661 12.2198 6.3321 12.5178 6.6281L15.0768 9.1731C15.3738 9.4691 15.5408 9.8721 15.5418 10.2911Z" fill="#5A5A5A"/>
</g>
</svg>
