<?xml version="1.0" encoding="UTF-8"?>
<svg width="24px" height="24px" viewBox="0 0 24 24" version="1.1" xmlns="http://www.w3.org/2000/svg" xmlns:xlink="http://www.w3.org/1999/xlink">
    <title>1. Interface Essentials/copy</title>
    <g id="1.-Interface-Essentials/copy" stroke="none" stroke-width="1" fill="none" fill-rule="evenodd">
        <path d="M11.39885,6.1661 C11.81785,6.1661 12.21985,6.3321 12.51785,6.6281 L12.51785,6.6281 L15.07685,9.1731 C15.37385,9.4691 15.54085,9.8721 15.54185,10.2911 L15.54185,10.2911 L15.54185,20.4211 C15.53885,21.2931 14.83085,22.0001 13.95885,22.0001 L13.95885,22.0001 L4.20885,22.0001 C3.33685,22.0001 2.62985,21.2961 2.62485,20.4241 L2.62485,20.4241 L2.62485,7.7501 C2.62485,6.8751 3.33485,6.1661 4.20885,6.1661 L4.20885,6.1661 Z M17.23515,1.9999 C17.65715,1.9999 18.06215,2.1679 18.36115,2.4669 L18.36115,2.4669 L20.90515,5.0099 C21.20515,5.2999 21.37515,5.7099 21.37515,6.1199 L21.37515,6.1199 L21.37515,16.2499 C21.37515,17.1299 20.66515,17.8299 19.79515,17.8299 L19.79515,17.8299 L16.94715,17.8299 C16.72415,17.8299 16.54515,17.6509 16.54515,17.4279 L16.54515,17.4279 L16.54515,10.2899 C16.54515,9.6019 16.27015,8.9419 15.78115,8.4559 L15.78115,8.4559 L13.22415,5.9199 C12.74115,5.4399 12.08615,5.1699 11.40415,5.1699 L11.40415,5.1699 L8.85715,5.1699 C8.63515,5.1699 8.45515,4.9899 8.45515,4.7679 L8.45515,4.7679 L8.45515,3.5799 C8.45515,2.7099 9.16515,1.9999 10.04515,1.9999 L10.04515,1.9999 Z" id="ðŸ–-Color" fill="#5A5A5A"></path>
        <rect id="_Transparent_Rectangle_" x="0" y="0" width="24" height="24"></rect>
    </g>
</svg>