<?xml version="1.0" encoding="UTF-8"?>
<svg width="24px" height="24px" viewBox="0 0 24 24" version="1.1" xmlns="http://www.w3.org/2000/svg" xmlns:xlink="http://www.w3.org/1999/xlink">
    <title>1. Interface Essentials/cross</title>
    <g id="1.-Interface-Essentials/cross" stroke="none" stroke-width="1" fill="none" fill-rule="evenodd">
        <path d="M18.488125,16.179 L14.309125,12.001 L18.487125,7.823 C19.124125,7.186 19.124125,6.15 18.487125,5.513 C18.178125,5.204 17.768125,5.034 17.332125,5.034 C16.895125,5.034 16.485125,5.205 16.177125,5.513 L12.000125,9.691 L7.821125,5.512 C7.513125,5.204 7.103125,5.033 6.666125,5.033 C6.230125,5.033 5.820125,5.203 5.511125,5.512 C4.875125,6.149 4.875125,7.185 5.511125,7.822 L9.690125,12.001 L5.511125,16.179 C4.876125,16.815 4.875125,17.851 5.511125,18.49 C5.820125,18.797 6.230125,18.966 6.666125,18.966 C7.102125,18.966 7.512125,18.797 7.821125,18.489 L12.000125,14.31 L16.178125,18.489 C16.487125,18.797 16.897125,18.967 17.334125,18.967 C17.769125,18.967 18.179125,18.797 18.488125,18.489 C19.125125,17.851 19.125125,16.815 18.488125,16.179" id="ðŸ–-Color" fill="#5A5A5A"></path>
        <rect id="_Transparent_Rectangle_" x="0" y="0" width="24" height="24"></rect>
    </g>
</svg>