<?xml version="1.0" encoding="UTF-8"?>
<svg width="24px" height="24px" viewBox="0 0 24 24" version="1.1" xmlns="http://www.w3.org/2000/svg" xmlns:xlink="http://www.w3.org/1999/xlink">
    <title>1. Interface Essentials/des_alphabet</title>
    <g id="1.-Interface-Essentials/des_alphabet" stroke="none" stroke-width="1" fill="none" fill-rule="evenodd">
        <path d="M19.05082,13.4893611 C19.5174452,13.4897187 19.9470552,13.7423191 20.1725907,14.1489355 C20.398103,14.5554863 20.3840233,15.0518678 20.1358253,15.4451057 L20.1358253,15.4451057 L17.2937783,19.972765 C17.2528231,20.038334 17.2507673,20.1208419 17.2884068,20.1883511 C17.3260463,20.2558604 17.3974735,20.2977753 17.47504,20.2978713 L17.47504,20.2978713 L19.4005183,20.2978713 C19.8727263,20.2978713 20.2555265,20.6789056 20.2555265,21.1489351 C20.2555265,21.6189647 19.8727263,21.9999995 19.4005183,21.9999995 L19.4005183,21.9999995 L16.322489,21.9999995 C15.8562326,22.0004257 15.4264738,21.7489429 15.2001,21.3432082 C14.9737261,20.9374735 14.9864033,20.4414122 15.2332086,20.0476586 L15.2332086,20.0476586 L18.0778207,15.5174461 C18.1192331,15.4518373 18.1215395,15.3690064 18.0838414,15.3012151 C18.0461433,15.2334239 17.9744017,15.1913913 17.896559,15.1914886 L17.896559,15.1914886 L15.9727907,15.1914886 C15.5005827,15.1914886 15.1177825,14.8104544 15.1177825,14.3404249 C15.1177825,13.8703953 15.5005827,13.4893611 15.9727907,13.4893611 L15.9727907,13.4893611 Z M6.65320196,4.12765946 C7.12540991,4.12765946 7.5082101,4.50869369 7.5082101,4.97872324 L7.5082101,4.97872324 L7.5082101,14.5548929 C7.5091492,14.6717351 7.60457473,14.7659605 7.72196213,14.7659568 L7.72196213,14.7659568 L9.21822638,14.7659568 C9.39463749,14.7642912 9.55055571,14.8680986 9.61663853,15.0272328 C9.68272135,15.186367 9.64594197,15.3694582 9.52346428,15.4910631 L9.52346428,15.4910631 L6.95843986,18.0442544 C6.79149959,18.2103744 6.52088938,18.2103744 6.35394911,18.0442544 L6.35394911,18.0442544 L3.78892469,15.4910631 C3.66917237,15.3694885 3.63375117,15.1885647 3.69887867,15.0311276 C3.76400616,14.8736905 3.91714378,14.7700504 4.08817754,14.7676589 L4.08817754,14.7676589 L5.58444178,14.7676589 C5.70249377,14.7676589 5.79819382,14.6724003 5.79819382,14.5548929 L5.79819382,14.5548929 L5.79819382,4.97872324 C5.79819382,4.50869369 6.180994,4.12765946 6.65320196,4.12765946 Z M17.7683078,2 C18.4488909,2 19.1015742,2.26922966 19.5826588,2.74841413 C20.0637434,3.22759859 20.3337859,3.87745017 20.3333328,4.55489348 L20.3333328,4.55489348 L20.3333328,9.66127618 C20.3333328,10.1313057 19.950532,10.51234 19.4783241,10.51234 C19.0061161,10.51234 18.6233159,10.1313057 18.6233159,9.66127618 L18.6233159,9.66127618 L18.6233159,7.32085078 C18.6233159,7.20334339 18.5276159,7.10808483 18.4095639,7.10808483 L18.4095639,7.10808483 L17.1270517,7.10808483 C17.0089997,7.10808483 16.9132996,7.20334339 16.9132996,7.32085078 L16.9132996,7.32085078 L16.9132996,9.65957405 C16.9132996,10.1296036 16.5304995,10.5106378 16.0582915,10.5106378 C15.5860835,10.5106378 15.2032834,10.1296036 15.2032834,9.65957405 L15.2032834,9.65957405 L15.2032834,4.55319135 C15.2032834,3.1431027 16.3516839,2 17.7683078,2 Z M17.7683078,3.70382969 C17.2960998,3.70382969 16.9132996,4.08486393 16.9132996,4.55489348 L16.9132996,4.55489348 L16.9132996,5.19319132 C16.9142387,5.31003344 17.0096643,5.40425887 17.1270517,5.40425513 L17.1270517,5.40425513 L18.4095639,5.40595726 C18.5276159,5.40595726 18.6233159,5.3106987 18.6233159,5.19319132 L18.6233159,5.19319132 L18.6233159,4.55489348 C18.6233159,4.08486393 18.2405157,3.70382969 17.7683078,3.70382969 Z" id="ðŸ–-Color" fill="#5A5A5A"></path>
        <rect id="_Transparent_Rectangle_" x="0" y="0" width="24" height="24"></rect>
    </g>
</svg>