<svg width="24" height="24" viewBox="0 0 24 24" fill="none" xmlns="http://www.w3.org/2000/svg">
<g id="des_alphabet">
<path id="Shape" fill-rule="evenodd" clip-rule="evenodd" d="M17.7683 2C16.3516 2 15.2032 3.1431 15.2032 4.55319V9.65957C15.2032 10.1296 15.586 10.5106 16.0583 10.5106C16.5305 10.5106 16.9133 10.1296 16.9133 9.65957V7.32085C16.9133 7.20334 17.009 7.10808 17.127 7.10808H18.4095C18.5276 7.10808 18.6233 7.20334 18.6233 7.32085V9.66128C18.6233 10.1313 19.0061 10.5123 19.4783 10.5123C19.9505 10.5123 20.3333 10.1313 20.3333 9.66128V4.55489C20.3337 3.87745 20.0637 3.2276 19.5826 2.74841C19.1015 2.26923 18.4488 2 17.7683 2ZM17.127 5.40425C17.0096 5.40426 16.9142 5.31003 16.9133 5.19319V4.55489C16.9133 4.08486 17.2961 3.70383 17.7683 3.70383C18.2405 3.70383 18.6233 4.08486 18.6233 4.55489V5.19319C18.6233 5.3107 18.5276 5.40596 18.4095 5.40596L17.127 5.40425ZM9.21819 14.766H7.72192C7.60453 14.766 7.50911 14.6717 7.50817 14.5549V4.97872C7.50817 4.50869 7.12537 4.12766 6.65316 4.12766C6.18095 4.12766 5.79815 4.50869 5.79815 4.97872V14.5549C5.79815 14.6724 5.70245 14.7677 5.5844 14.7677H4.08814C3.9171 14.7701 3.76397 14.8737 3.69884 15.0311C3.63371 15.1886 3.66913 15.3695 3.78888 15.4911L6.35391 18.0443C6.52085 18.2104 6.79146 18.2104 6.9584 18.0443L9.52342 15.4911C9.6459 15.3695 9.68268 15.1864 9.6166 15.0272C9.55051 14.8681 9.3946 14.7643 9.22161 14.7643L9.21819 14.766ZM20.1726 14.1489C19.947 13.7423 19.5174 13.4897 19.0508 13.4894H15.9728C15.5005 13.4894 15.1177 13.8704 15.1177 14.3404C15.1177 14.8105 15.5005 15.1915 15.9728 15.1915H17.8965C17.9744 15.1914 18.0461 15.2334 18.0838 15.3012C18.1215 15.369 18.1192 15.4518 18.0778 15.5174L15.2332 20.0477C14.9864 20.4414 14.9737 20.9375 15.2001 21.3432C15.4264 21.7489 15.8562 22.0004 16.3224 22H19.4005C19.8727 22 20.2555 21.619 20.2555 21.1489C20.2555 20.6789 19.8727 20.2979 19.4005 20.2979H17.475C17.3974 20.2978 17.326 20.2559 17.2884 20.1884C17.2507 20.1208 17.2528 20.0383 17.2937 19.9728L20.1358 15.4451C20.384 15.0519 20.3981 14.5555 20.1726 14.1489Z" fill="#5A5A5A"/>
</g>
</svg>
