<svg width="24" height="24" viewBox="0 0 24 24" fill="none" xmlns="http://www.w3.org/2000/svg">
<g id="dial_pad">
<path id="Shape" fill-rule="evenodd" clip-rule="evenodd" d="M5.46587 6.31833C6.65834 6.31833 7.62504 5.35164 7.62504 4.15917C7.62504 2.96669 6.65834 2 5.46587 2C4.2734 2 3.3067 2.96669 3.3067 4.15917C3.3067 5.35164 4.2734 6.31833 5.46587 6.31833ZM11.9734 6.31833C13.1658 6.31833 14.1325 5.35164 14.1325 4.15917C14.1325 2.96669 13.1658 2 11.9734 2C10.7809 2 9.8142 2.96669 9.8142 4.15917C9.8142 5.35164 10.7809 6.31833 11.9734 6.31833ZM18.5342 6.31833C19.7267 6.31833 20.6934 5.35164 20.6934 4.15917C20.6934 2.96669 19.7267 2 18.5342 2C17.3417 2 16.375 2.96669 16.375 4.15917C16.3764 5.35107 17.3423 6.31696 18.5342 6.31833ZM3.47098 8.56058C3.80513 7.75365 4.59249 7.2275 5.46587 7.2275C6.65764 7.22842 7.62366 8.19407 7.62504 9.38583C7.62537 10.2592 7.09952 11.0468 6.29273 11.3812C5.48593 11.7157 4.55709 11.5312 3.9394 10.9137C3.32171 10.2963 3.13683 9.36751 3.47098 8.56058ZM11.9734 7.2275C11.0999 7.22716 10.3123 7.7531 9.97789 8.56C9.64348 9.36691 9.82815 10.2958 10.4458 10.9134C11.0634 11.5311 11.9923 11.7157 12.7992 11.3813C13.6061 11.0469 14.132 10.2593 14.1317 9.38583C14.1303 8.19439 13.1648 7.22888 11.9734 7.2275ZM16.5393 8.56058C16.8735 7.75365 17.6608 7.2275 18.5342 7.2275C19.726 7.22842 20.692 8.19407 20.6934 9.38583C20.6937 10.2592 20.1679 11.0468 19.3611 11.3812C18.5543 11.7157 17.6254 11.5312 17.0077 10.9137C16.39 10.2963 16.2052 9.36751 16.5393 8.56058ZM5.46587 12.455C4.2734 12.455 3.3067 13.4217 3.3067 14.6142C3.3067 15.8066 4.2734 16.7733 5.46587 16.7733C6.65834 16.7733 7.62504 15.8066 7.62504 14.6142C7.62366 13.4223 6.65777 12.4564 5.46587 12.455ZM9.97797 13.7873C10.3124 12.9805 11.1 12.4547 11.9734 12.455C13.1649 12.4568 14.1303 13.4226 14.1317 14.6142C14.1317 15.4875 13.6055 16.2749 12.7986 16.6091C11.9917 16.9432 11.0629 16.7583 10.4455 16.1406C9.82803 15.5229 9.64351 14.5941 9.97797 13.7873ZM14.1325 19.8408C14.1325 21.0333 13.1658 22 11.9734 22C10.7809 22 9.8142 21.0333 9.8142 19.8408C9.8142 18.6484 10.7809 17.6817 11.9734 17.6817C13.1658 17.6817 14.1325 18.6484 14.1325 19.8408ZM16.375 14.6142C16.375 13.4217 17.3417 12.455 18.5342 12.455C19.7261 12.4564 20.692 13.4223 20.6934 14.6142C20.6934 15.8066 19.7267 16.7733 18.5342 16.7733C17.3417 16.7733 16.375 15.8066 16.375 14.6142Z" fill="#5A5A5A"/>
</g>
</svg>
