<?xml version="1.0" encoding="UTF-8"?>
<svg width="24px" height="24px" viewBox="0 0 24 24" version="1.1" xmlns="http://www.w3.org/2000/svg" xmlns:xlink="http://www.w3.org/1999/xlink">
    <title>1. Interface Essentials/dial_pad</title>
    <g id="1.-Interface-Essentials/dial_pad" stroke="none" stroke-width="1" fill="none" fill-rule="evenodd">
        <path d="M11.9733271,17.6816667 C13.1658019,17.6816667 14.1324937,18.6483585 14.1324937,19.8408333 C14.1324937,21.0333082 13.1658019,22 11.9733271,22 C10.7808522,22 9.81416039,21.0333082 9.81416039,19.8408333 C9.81416039,18.6483585 10.7808522,17.6816667 11.9733271,17.6816667 Z M5.46582706,12.455 C6.65773077,12.4563777 7.62361607,13.422263 7.62499373,14.6141667 C7.62499373,15.8066415 6.65830188,16.7733333 5.46582706,16.7733333 C4.27335224,16.7733333 3.30666039,15.8066415 3.30666039,14.6141667 C3.30666039,13.4216918 4.27335224,12.455 5.46582706,12.455 Z M11.9733271,12.4549998 C13.1649053,12.4568366 14.1302837,13.4225878 14.1316604,14.6141667 C14.1316604,15.4875439 13.605506,16.2749071 12.7985784,16.6090562 C11.9916508,16.9432052 11.0628894,16.7583233 10.4454377,16.1406332 C9.82798594,15.522943 9.64346255,14.5941103 9.97792311,13.7873118 C10.3123837,12.9805132 11.0999499,12.4546629 11.9733271,12.4549998 Z M18.5341604,12.455 C19.7260641,12.4563777 20.6919494,13.422263 20.6933271,14.6141667 C20.6933271,15.8066415 19.7266352,16.7733333 18.5341604,16.7733333 C17.3416856,16.7733333 16.3749937,15.8066415 16.3749937,14.6141667 C16.3749937,13.4216918 17.3416856,12.455 18.5341604,12.455 Z M5.46582706,7.2275 C6.65759596,7.22841842 7.62361525,8.19406488 7.62499389,9.38583333 C7.62533081,10.2592105 7.09948051,11.0467767 6.29268196,11.3812373 C5.48588341,11.7156978 4.55705068,11.5311745 3.93936054,10.9137227 C3.3216704,10.296271 3.13678848,9.36750954 3.47093757,8.56058195 C3.80508666,7.75365435 4.59244984,7.2275 5.46582706,7.2275 Z M11.9733271,7.22749984 C13.1647705,7.22887766 14.1302827,8.19438986 14.1316606,9.38583333 C14.1319974,10.2592863 13.6060569,11.0469052 12.7991561,11.3813169 C11.9922552,11.7157286 11.0633571,11.5310525 10.4457325,10.9134279 C9.82810793,10.2958033 9.64343176,9.36690521 9.97784346,8.56000433 C10.3122552,7.75310346 11.0998741,7.22716295 11.9733271,7.22749984 Z M18.5341604,7.2275 C19.7259293,7.22841842 20.6919486,8.19406488 20.6933272,9.38583333 C20.6936641,10.2592105 20.1678138,11.0467767 19.3610153,11.3812373 C18.5542167,11.7156978 17.625384,11.5311745 17.0076939,10.9137227 C16.3900037,10.296271 16.2051218,9.36750954 16.5392709,8.56058195 C16.87342,7.75365435 17.6607832,7.2275 18.5341604,7.2275 Z M5.46582706,2 C6.65830188,2 7.62499373,2.96669184 7.62499373,4.15916667 C7.62499373,5.35164149 6.65830188,6.31833333 5.46582706,6.31833333 C4.27335224,6.31833333 3.30666039,5.35164149 3.30666039,4.15916667 C3.30666039,2.96669184 4.27335224,2 5.46582706,2 Z M11.9733271,2 C13.1658019,2 14.1324937,2.96669184 14.1324937,4.15916667 C14.1324937,5.35164149 13.1658019,6.31833333 11.9733271,6.31833333 C10.7808522,6.31833333 9.81416039,5.35164149 9.81416039,4.15916667 C9.81416039,2.96669184 10.7808522,2 11.9733271,2 Z M18.5341604,2 C19.7266352,2 20.6933271,2.96669184 20.6933271,4.15916667 C20.6933271,5.35164149 19.7266352,6.31833333 18.5341604,6.31833333 C17.3422567,6.31695567 16.3763714,5.35107038 16.3749937,4.15916667 C16.3749937,2.96669184 17.3416856,2 18.5341604,2 Z" id="ðŸ–-Color" fill="#5A5A5A"></path>
        <rect id="_Transparent_Rectangle_" x="0" y="0" width="24" height="24"></rect>
    </g>
</svg>