<?xml version="1.0" encoding="UTF-8"?>
<svg width="24px" height="24px" viewBox="0 0 24 24" version="1.1" xmlns="http://www.w3.org/2000/svg" xmlns:xlink="http://www.w3.org/1999/xlink">
    <title>1. Interface Essentials/document</title>
    <g id="1.-Interface-Essentials/document" stroke="none" stroke-width="1" fill="none" fill-rule="evenodd">
        <path d="M14.2916667,2 C14.406726,2 14.5,2.09327401 14.5,2.20833333 L14.5,2.20833333 L14.5,5.75 C14.5,6.90059323 15.4327401,7.83333333 16.5833333,7.83333333 L16.5833333,7.83333333 L20.125,7.83333333 C20.2400593,7.83333333 20.3333333,7.92660734 20.3333333,8.04166667 L20.3333333,8.04166667 L20.3333333,20.3333333 C20.3333333,21.2538079 19.5871412,22 18.6666667,22 L18.6666667,22 L5.33333333,22 C4.41285875,22 3.66666667,21.2538079 3.66666667,20.3333333 L3.66666667,20.3333333 L3.66666667,3.66666667 C3.66666667,2.74619208 4.41285875,2 5.33333333,2 L5.33333333,2 Z M15.463416,2.30985242 C15.5410663,2.27839223 15.6300076,2.2965078 15.6891667,2.35583333 L15.6891667,2.35583333 L19.9808333,6.64416667 C20.0405737,6.70375591 20.0584709,6.7934956 20.0261601,6.87144304 C19.9938494,6.94939047 19.917712,7.00015097 19.8333333,7.00000034 L19.8333333,7.00000034 L16.5833333,7.00000034 C15.8929774,7.00000034 15.3333333,6.44035594 15.3333333,5.75 L15.3333333,5.75 L15.3333333,2.5 C15.3345157,2.416227 15.3857657,2.34131262 15.463416,2.30985242 Z" id="ðŸ–-Color" fill="#5A5A5A"></path>
        <rect id="_Transparent_Rectangle_" x="0" y="0" width="24" height="24"></rect>
    </g>
</svg>