<svg width="24" height="24" viewBox="0 0 24 24" fill="none" xmlns="http://www.w3.org/2000/svg">
<g id="document">
<path id="Shape" fill-rule="evenodd" clip-rule="evenodd" d="M20.1251 7.83333C20.2401 7.83333 20.3334 7.92661 20.3334 8.04167V20.3333C20.3334 21.2538 19.5872 22 18.6667 22H5.33341C4.41294 22 3.66675 21.2538 3.66675 20.3333V3.66667C3.66675 2.74619 4.41294 2 5.33341 2H14.2917C14.4068 2 14.5001 2.09327 14.5001 2.20833V5.75C14.5001 6.90059 15.4328 7.83333 16.5834 7.83333H20.1251ZM16.5834 7C15.8931 7 15.3334 6.44036 15.3334 5.75V2.5C15.3346 2.41623 15.3858 2.34131 15.4635 2.30985C15.5411 2.27839 15.6301 2.29651 15.6892 2.35583L19.9809 6.64417C20.0407 6.70376 20.0586 6.7935 20.0262 6.87144C19.9939 6.94939 19.9178 7.00015 19.8334 7H16.5834Z" fill="#5A5A5A"/>
</g>
</svg>
