<svg width="24" height="24" viewBox="0 0 24 24" fill="none" xmlns="http://www.w3.org/2000/svg">
<g id="double_chevron_left">
<path id="Shape" fill-rule="evenodd" clip-rule="evenodd" d="M12.9485 4.73132C12.8085 4.23632 12.4026 3.84882 11.8818 3.71549C11.3618 3.58299 10.8068 3.72382 10.4251 4.08715L3.61512 10.578C2.79512 11.3638 2.79512 12.6338 3.61512 13.4197L10.4251 19.9122C10.8068 20.2755 11.3618 20.4172 11.8818 20.2847C12.4026 20.1513 12.8085 19.7638 12.9485 19.268C13.0876 18.7722 12.9393 18.243 12.5585 17.8805L6.59929 12.203C6.48262 12.0905 6.48262 11.9097 6.59929 11.7963L12.5585 6.11965C12.9393 5.75632 13.0876 5.22715 12.9485 4.73132ZM20.9485 4.73132C20.8085 4.23632 20.4026 3.84882 19.8818 3.71549C19.3618 3.58299 18.8068 3.72382 18.4251 4.08715L11.6151 10.578C10.7951 11.3638 10.7951 12.6338 11.6151 13.4197L18.4251 19.9122C18.8068 20.2755 19.3618 20.4172 19.8818 20.2847C20.4026 20.1513 20.8085 19.7638 20.9485 19.268C21.0876 18.7722 20.9393 18.243 20.5585 17.8805L14.5993 12.203C14.4826 12.0905 14.4826 11.9097 14.5993 11.7963L20.5585 6.11965C20.9393 5.75632 21.0876 5.22715 20.9485 4.73132Z" fill="#5A5A5A"/>
</g>
</svg>
