<?xml version="1.0" encoding="UTF-8"?>
<svg width="24px" height="24px" viewBox="0 0 24 24" version="1.1" xmlns="http://www.w3.org/2000/svg" xmlns:xlink="http://www.w3.org/1999/xlink">
    <title>1. Interface Essentials/double_chevron_right</title>
    <g id="1.-Interface-Essentials/double_chevron_right" stroke="none" stroke-width="1" fill="none" fill-rule="evenodd">
        <path d="M11.0514992,19.2686859 C11.1914992,19.7636859 11.5973325,20.1511859 12.1181659,20.2845193 C12.6381659,20.4170193 13.1931659,20.2761859 13.5748325,19.9128526 L20.3848325,13.4220193 C21.2048325,12.6361859 21.2048325,11.3661859 20.3848325,10.5803526 L13.5748325,4.08785259 C13.1931659,3.72451926 12.6381659,3.58285259 12.1181659,3.71535259 C11.5973325,3.84868592 11.1914992,4.23618592 11.0514992,4.73201926 C10.9123325,5.22785259 11.0606659,5.75701926 11.4414992,6.11951926 L17.4006659,11.7970193 C17.5173325,11.9095193 17.5173325,12.0903526 17.4006659,12.2036859 L11.4414992,17.8803526 C11.0606659,18.2436859 10.9123325,18.7728526 11.0514992,19.2686859 Z M3.05149919,19.2686859 C3.19149919,19.7636859 3.59733253,20.1511859 4.11816586,20.2845193 C4.63816586,20.4170193 5.19316586,20.2761859 5.57483253,19.9128526 L12.3848325,13.4220193 C13.2048325,12.6361859 13.2048325,11.3661859 12.3848325,10.5803526 L5.57483253,4.08785259 C5.19316586,3.72451926 4.63816586,3.58285259 4.11816586,3.71535259 C3.59733253,3.84868592 3.19149919,4.23618592 3.05149919,4.73201926 C2.91233253,5.22785259 3.06066586,5.75701926 3.44149919,6.11951926 L9.40066586,11.7970193 C9.51733253,11.9095193 9.51733253,12.0903526 9.40066586,12.2036859 L3.44149919,17.8803526 C3.06066586,18.2436859 2.91233253,18.7728526 3.05149919,19.2686859 Z" id="ðŸ–-Color" fill="#5A5A5A"></path>
        <rect id="_Transparent_Rectangle_" x="0" y="0" width="24" height="24"></rect>
    </g>
</svg>