<?xml version="1.0" encoding="UTF-8"?>
<svg width="24px" height="24px" viewBox="0 0 24 24" version="1.1" xmlns="http://www.w3.org/2000/svg" xmlns:xlink="http://www.w3.org/1999/xlink">
    <title>1. Interface Essentials/double_chevron_left</title>
    <g id="1.-Interface-Essentials/double_chevron_left" stroke="none" stroke-width="1" fill="none" fill-rule="evenodd">
        <path d="M12.9485008,4.73131408 C12.8085008,4.23631408 12.4026675,3.84881408 11.8818341,3.71548074 C11.3618341,3.58298074 10.8068341,3.72381408 10.4251675,4.08714741 L3.61516747,10.5779807 C2.79516747,11.3638141 2.79516747,12.6338141 3.61516747,13.4196474 L10.4251675,19.9121474 C10.8068341,20.2754807 11.3618341,20.4171474 11.8818341,20.2846474 C12.4026675,20.1513141 12.8085008,19.7638141 12.9485008,19.2679807 C13.0876675,18.7721474 12.9393341,18.2429807 12.5585008,17.8804807 L6.59933414,12.2029807 C6.48266747,12.0904807 6.48266747,11.9096474 6.59933414,11.7963141 L12.5585008,6.11964741 C12.9393341,5.75631408 13.0876675,5.22714741 12.9485008,4.73131408 Z M20.9485008,4.73131408 C20.8085008,4.23631408 20.4026675,3.84881408 19.8818341,3.71548074 C19.3618341,3.58298074 18.8068341,3.72381408 18.4251675,4.08714741 L11.6151675,10.5779807 C10.7951675,11.3638141 10.7951675,12.6338141 11.6151675,13.4196474 L18.4251675,19.9121474 C18.8068341,20.2754807 19.3618341,20.4171474 19.8818341,20.2846474 C20.4026675,20.1513141 20.8085008,19.7638141 20.9485008,19.2679807 C21.0876675,18.7721474 20.9393341,18.2429807 20.5585008,17.8804807 L14.5993341,12.2029807 C14.4826675,12.0904807 14.4826675,11.9096474 14.5993341,11.7963141 L20.5585008,6.11964741 C20.9393341,5.75631408 21.0876675,5.22714741 20.9485008,4.73131408 Z" id="ðŸ–-Color" fill="#5A5A5A"></path>
        <rect id="_Transparent_Rectangle_" x="0" y="0" width="24" height="24"></rect>
    </g>
</svg>