<svg width="24" height="24" viewBox="0 0 24 24" fill="none" xmlns="http://www.w3.org/2000/svg">
<g id="double_chevron_right">
<path id="Shape" fill-rule="evenodd" clip-rule="evenodd" d="M11.0515 19.2687C11.1915 19.7637 11.5973 20.1512 12.1181 20.2845C12.6381 20.417 13.1931 20.2762 13.5748 19.9129L20.3848 13.422C21.2048 12.6362 21.2048 11.3662 20.3848 10.5804L13.5748 4.08786C13.1931 3.72453 12.6381 3.58286 12.1181 3.71536C11.5973 3.84869 11.1915 4.23619 11.0515 4.73203C10.9123 5.22786 11.0606 5.75703 11.4415 6.11953L17.4006 11.797C17.5173 11.9095 17.5173 12.0904 17.4006 12.2037L11.4415 17.8804C11.0606 18.2437 10.9123 18.7729 11.0515 19.2687ZM3.05145 19.2687C3.19145 19.7637 3.59729 20.1512 4.11812 20.2845C4.63812 20.417 5.19312 20.2762 5.57479 19.9129L12.3848 13.422C13.2048 12.6362 13.2048 11.3662 12.3848 10.5804L5.57479 4.08786C5.19312 3.72453 4.63812 3.58286 4.11812 3.71536C3.59729 3.84869 3.19145 4.23619 3.05145 4.73203C2.91229 5.22786 3.06062 5.75703 3.44145 6.11953L9.40062 11.797C9.51729 11.9095 9.51729 12.0904 9.40062 12.2037L3.44145 17.8804C3.06062 18.2437 2.91229 18.7729 3.05145 19.2687Z" fill="#5A5A5A"/>
</g>
</svg>
