<svg width="24" height="24" viewBox="0 0 24 24" fill="none" xmlns="http://www.w3.org/2000/svg">
<g id="double_chevron_up">
<path id="Shape" fill-rule="evenodd" clip-rule="evenodd" d="M19.2686 12.9485C19.7636 12.8085 20.1511 12.4027 20.2845 11.8819C20.417 11.3618 20.2761 10.8068 19.9128 10.4252L13.422 3.61518C12.6361 2.79518 11.3661 2.79518 10.5803 3.61518L4.0878 10.4252C3.72446 10.8068 3.5828 11.3618 3.7153 11.8819C3.84863 12.4027 4.23613 12.8085 4.73196 12.9485C5.2278 13.0877 5.75696 12.9394 6.11946 12.5585L11.797 6.59935C11.9095 6.48268 12.0903 6.48268 12.2036 6.59935L17.8803 12.5585C18.2436 12.9394 18.7728 13.0877 19.2686 12.9485ZM19.2686 20.9485C19.7636 20.8085 20.1511 20.4027 20.2845 19.8818C20.417 19.3619 20.2761 18.8068 19.9128 18.4252L13.422 11.6152C12.6361 10.7952 11.3661 10.7952 10.5803 11.6152L4.0878 18.4252C3.72446 18.8068 3.5828 19.3619 3.7153 19.8818C3.84863 20.4027 4.23613 20.8085 4.73196 20.9485C5.2278 21.0877 5.75696 20.9394 6.11946 20.5585L11.797 14.5993C11.9095 14.4827 12.0903 14.4827 12.2036 14.5993L17.8803 20.5585C18.2436 20.9394 18.7728 21.0877 19.2686 20.9485Z" fill="#5A5A5A"/>
</g>
</svg>
