<?xml version="1.0" encoding="UTF-8"?>
<svg width="24px" height="24px" viewBox="0 0 24 24" version="1.1" xmlns="http://www.w3.org/2000/svg" xmlns:xlink="http://www.w3.org/1999/xlink">
    <title>1. Interface Essentials/double_chevron_up</title>
    <g id="1.-Interface-Essentials/double_chevron_up" stroke="none" stroke-width="1" fill="none" fill-rule="evenodd">
        <path d="M19.2686859,12.9485008 C19.7636859,12.8085008 20.1511859,12.4026675 20.2845193,11.8818341 C20.4170193,11.3618341 20.2761859,10.8068341 19.9128526,10.4251675 L13.4220193,3.61516747 C12.6361859,2.79516747 11.3661859,2.79516747 10.5803526,3.61516747 L4.08785259,10.4251675 C3.72451926,10.8068341 3.58285259,11.3618341 3.71535259,11.8818341 C3.84868592,12.4026675 4.23618592,12.8085008 4.73201926,12.9485008 C5.22785259,13.0876675 5.75701926,12.9393341 6.11951926,12.5585008 L11.7970193,6.59933414 C11.9095193,6.48266747 12.0903526,6.48266747 12.2036859,6.59933414 L17.8803526,12.5585008 C18.2436859,12.9393341 18.7728526,13.0876675 19.2686859,12.9485008 Z M19.2686859,20.9485008 C19.7636859,20.8085008 20.1511859,20.4026675 20.2845193,19.8818341 C20.4170193,19.3618341 20.2761859,18.8068341 19.9128526,18.4251675 L13.4220193,11.6151675 C12.6361859,10.7951675 11.3661859,10.7951675 10.5803526,11.6151675 L4.08785259,18.4251675 C3.72451926,18.8068341 3.58285259,19.3618341 3.71535259,19.8818341 C3.84868592,20.4026675 4.23618592,20.8085008 4.73201926,20.9485008 C5.22785259,21.0876675 5.75701926,20.9393341 6.11951926,20.5585008 L11.7970193,14.5993341 C11.9095193,14.4826675 12.0903526,14.4826675 12.2036859,14.5993341 L17.8803526,20.5585008 C18.2436859,20.9393341 18.7728526,21.0876675 19.2686859,20.9485008 Z" id="ðŸ–-Color" fill="#5A5A5A"></path>
        <rect id="_Transparent_Rectangle_" x="0" y="0" width="24" height="24"></rect>
    </g>
</svg>