<?xml version="1.0" encoding="UTF-8"?>
<svg width="24px" height="24px" viewBox="0 0 24 24" version="1.1" xmlns="http://www.w3.org/2000/svg" xmlns:xlink="http://www.w3.org/1999/xlink">
    <title>1. Interface Essentials/double_chevron_down</title>
    <g id="1.-Interface-Essentials/double_chevron_down" stroke="none" stroke-width="1" fill="none" fill-rule="evenodd">
        <path d="M19.2686859,11.0514992 C19.7636859,11.1914992 20.1511859,11.5973325 20.2845193,12.1181659 C20.4170193,12.6381659 20.2761859,13.1931659 19.9128526,13.5748325 L13.4220193,20.3848325 C12.6361859,21.2048325 11.3661859,21.2048325 10.5803526,20.3848325 L4.08785259,13.5748325 C3.72451926,13.1931659 3.58285259,12.6381659 3.71535259,12.1181659 C3.84868592,11.5973325 4.23618592,11.1914992 4.73201926,11.0514992 C5.22785259,10.9123325 5.75701926,11.0606659 6.11951926,11.4414992 L11.7970193,17.4006659 C11.9095193,17.5173325 12.0903526,17.5173325 12.2036859,17.4006659 L17.8803526,11.4414992 C18.2436859,11.0606659 18.7728526,10.9123325 19.2686859,11.0514992 Z M19.2686859,3.05149919 C19.7636859,3.19149919 20.1511859,3.59733253 20.2845193,4.11816586 C20.4170193,4.63816586 20.2761859,5.19316586 19.9128526,5.57483253 L13.4220193,12.3848325 C12.6361859,13.2048325 11.3661859,13.2048325 10.5803526,12.3848325 L4.08785259,5.57483253 C3.72451926,5.19316586 3.58285259,4.63816586 3.71535259,4.11816586 C3.84868592,3.59733253 4.23618592,3.19149919 4.73201926,3.05149919 C5.22785259,2.91233253 5.75701926,3.06066586 6.11951926,3.44149919 L11.7970193,9.40066586 C11.9095193,9.51733253 12.0903526,9.51733253 12.2036859,9.40066586 L17.8803526,3.44149919 C18.2436859,3.06066586 18.7728526,2.91233253 19.2686859,3.05149919 Z" id="ðŸ–-Color" fill="#5A5A5A"></path>
        <rect id="_Transparent_Rectangle_" x="0" y="0" width="24" height="24"></rect>
    </g>
</svg>