<svg width="24" height="24" viewBox="0 0 24 24" fill="none" xmlns="http://www.w3.org/2000/svg">
<g id="double_chevron_down">
<path id="Shape" fill-rule="evenodd" clip-rule="evenodd" d="M13.422 12.3848L19.9128 5.57485C20.2761 5.19318 20.417 4.63818 20.2845 4.11818C20.1511 3.59735 19.7636 3.19151 19.2686 3.05151C18.7728 2.91235 18.2436 3.06068 17.8803 3.44151L12.2036 9.40068C12.0903 9.51735 11.9095 9.51735 11.797 9.40068L6.11946 3.44151C5.75696 3.06068 5.2278 2.91235 4.73196 3.05151C4.23613 3.19151 3.84863 3.59735 3.7153 4.11818C3.5828 4.63818 3.72446 5.19318 4.0878 5.57485L10.5803 12.3848C11.3661 13.2048 12.6361 13.2048 13.422 12.3848ZM13.422 20.3848L19.9128 13.5748C20.2761 13.1932 20.417 12.6382 20.2845 12.1182C20.1511 11.5973 19.7636 11.1915 19.2686 11.0515C18.7728 10.9123 18.2436 11.0607 17.8803 11.4415L12.2036 17.4007C12.0903 17.5173 11.9095 17.5173 11.797 17.4007L6.11946 11.4415C5.75696 11.0607 5.2278 10.9123 4.73196 11.0515C4.23613 11.1915 3.84863 11.5973 3.7153 12.1182C3.5828 12.6382 3.72446 13.1932 4.0878 13.5748L10.5803 20.3848C11.3661 21.2048 12.6361 21.2048 13.422 20.3848Z" fill="#5A5A5A"/>
</g>
</svg>
