<?xml version="1.0" encoding="UTF-8"?>
<svg width="24px" height="24px" viewBox="0 0 24 24" version="1.1" xmlns="http://www.w3.org/2000/svg" xmlns:xlink="http://www.w3.org/1999/xlink">
    <title>1. Interface Essentials/download</title>
    <g id="1.-Interface-Essentials/download" stroke="none" stroke-width="1" fill="none" fill-rule="evenodd">
        <path d="M12.0014681,9.85690032 C12.6914681,9.85690032 13.2514681,10.4189003 13.2514681,11.1129003 L13.2514681,17.1839003 C13.2514681,17.2989003 13.3444681,17.3929003 13.4594681,17.3929003 L14.9174681,17.3929003 C15.2544681,17.3969003 15.5584681,17.6009003 15.6874681,17.9129003 C15.8154681,18.2259003 15.7444681,18.5859003 15.5064681,18.8249003 L12.5904681,21.7559003 C12.2654681,22.0829003 11.7374681,22.0829003 11.4124681,21.7559003 L8.49646809,18.8249003 C8.25746809,18.5859003 8.18646809,18.2259003 8.31546809,17.9129003 C8.44446809,17.6009003 8.74846809,17.3969003 9.08546809,17.3969003 L10.5434681,17.3969003 C10.6584681,17.3969003 10.7514681,17.3029003 10.7514681,17.1869003 L10.7514681,11.1129003 C10.7514681,10.4189003 11.3114681,9.85690032 12.0014681,9.85690032 Z M17.4914681,5.13130032 C17.5314681,5.19130032 17.5914681,5.23130032 17.6514681,5.23130032 C18.7314681,5.33130032 19.7414681,5.80130032 20.5214681,6.56130032 C21.4614681,7.47130032 22.0014681,8.73130032 22.0014681,10.0513003 C22.0014681,12.3713003 20.2914681,14.5513003 18.0514681,15.0313003 C17.9114681,15.0713003 17.7514681,15.0913003 17.6014681,15.1113003 L17.5714681,15.1113003 C16.7954681,15.2463003 15.9984681,15.3523003 15.1974681,15.4303003 C14.9594681,15.4543003 14.7514681,15.2623003 14.7514681,15.0233003 L14.7514681,11.2643003 C14.7514681,9.77530032 13.6344681,8.44130032 12.1474681,8.36430032 C10.5614681,8.28330032 9.25146809,9.54330032 9.25146809,11.1113003 L9.25146809,14.9893003 C9.25146809,15.2303003 9.04046809,15.4223003 8.80046809,15.3963003 C7.63546809,15.2723003 6.48646809,15.0793003 5.36146809,14.8313003 L4.82146809,14.7113003 L4.82146809,14.7113003 C4.80146809,14.7113003 4.79146809,14.7013003 4.78146809,14.7013003 C4.14146809,14.5103003 3.54146809,14.1803003 3.03146809,13.7313003 C2.33146809,13.0213003 1.96146809,12.0513003 2.00146809,11.0513003 C2.01146809,9.03130032 3.56146809,7.36130032 5.56146809,7.22130032 C5.65146809,7.21130032 5.73146809,7.15130032 5.74146809,7.05130032 C6.31146809,4.48130032 8.38146809,2.51130032 10.9714681,2.08130032 C13.5614681,1.66130032 16.1514681,2.87130032 17.4914681,5.13130032 Z" id="ðŸ–-Color" fill="#5A5A5A"></path>
        <rect id="_Transparent_Rectangle_" x="0" y="0" width="24" height="24"></rect>
    </g>
</svg>