<svg width="24" height="24" viewBox="0 0 24 24" fill="none" xmlns="http://www.w3.org/2000/svg">
<g id="download">
<path id="Shape" fill-rule="evenodd" clip-rule="evenodd" d="M18.0515 15.0313C20.2915 14.5513 22.0015 12.3713 22.0015 10.0513C22.0015 8.73129 21.4615 7.47129 20.5215 6.56129C19.7415 5.80129 18.7315 5.33129 17.6515 5.23129C17.5915 5.23129 17.5315 5.19129 17.4915 5.13129C16.1515 2.87129 13.5615 1.66129 10.9715 2.08129C8.38147 2.51129 6.31147 4.48129 5.74147 7.05129C5.73147 7.15129 5.65147 7.21129 5.56147 7.22129C3.56147 7.36129 2.01147 9.03129 2.00147 11.0513C1.96147 12.0513 2.33147 13.0213 3.03147 13.7313C3.54147 14.1803 4.14147 14.5103 4.78147 14.7013C4.78561 14.7013 4.78976 14.703 4.79461 14.705C4.80147 14.7079 4.80976 14.7113 4.82147 14.7113L5.36147 14.8313C6.48647 15.0793 7.63547 15.2723 8.80047 15.3963C9.04047 15.4223 9.25147 15.2303 9.25147 14.9893V11.1113C9.25147 9.54329 10.5615 8.28329 12.1475 8.36429C13.6345 8.44129 14.7515 9.77529 14.7515 11.2643V15.0233C14.7515 15.2623 14.9595 15.4543 15.1975 15.4303C15.9985 15.3523 16.7955 15.2463 17.5715 15.1113H17.6015C17.6098 15.1102 17.6181 15.1091 17.6265 15.108C17.7691 15.089 17.9192 15.0691 18.0515 15.0313ZM13.2515 11.1129C13.2515 10.4189 12.6915 9.85689 12.0015 9.85689C11.3115 9.85689 10.7515 10.4189 10.7515 11.1129V17.1869C10.7515 17.3029 10.6585 17.3969 10.5435 17.3969H9.08547C8.74847 17.3969 8.44447 17.6009 8.31547 17.9129C8.18647 18.2259 8.25747 18.5859 8.49647 18.8249L11.4125 21.7559C11.7375 22.0829 12.2655 22.0829 12.5905 21.7559L15.5065 18.8249C15.7445 18.5859 15.8155 18.2259 15.6875 17.9129C15.5585 17.6009 15.2545 17.3969 14.9175 17.3929H13.4595C13.3445 17.3929 13.2515 17.2989 13.2515 17.1839V11.1129Z" fill="#5A5A5A"/>
</g>
</svg>
