<?xml version="1.0" encoding="UTF-8"?>
<svg width="24px" height="24px" viewBox="0 0 24 24" version="1.1" xmlns="http://www.w3.org/2000/svg" xmlns:xlink="http://www.w3.org/1999/xlink">
    <title>1. Interface Essentials/drag</title>
    <g id="1.-Interface-Essentials/drag" stroke="none" stroke-width="1" fill="none" fill-rule="evenodd">
        <path d="M21.6666667,11.3234343 L18.3333333,8.82111418 C18.0808186,8.6315524 17.7429754,8.60106082 17.4606553,8.74235183 C17.1783353,8.88364284 17,9.17246323 17,9.48839954 L17,10.5310329 C17,10.646199 16.906726,10.7395596 16.7916667,10.7395596 L13.4583333,10.7395596 C13.343274,10.7395596 13.25,10.646199 13.25,10.5310329 L13.25,7.19460612 C13.25,7.07944002 13.343274,6.98607945 13.4583333,6.98607945 L14.5,6.98607945 C14.8156434,6.98607945 15.104196,6.80757863 15.245356,6.52499661 C15.386516,6.24241458 15.3560527,5.90425778 15.1666667,5.65150873 L12.6666667,2.31508194 C12.5026722,2.11558798 12.2581052,2 12,2 C11.7418948,2 11.4973278,2.11558798 11.3333333,2.31508194 L8.83333333,5.65150873 C8.6439473,5.90425778 8.613484,6.24241458 8.75464401,6.52499661 C8.89580402,6.80757863 9.18435662,6.98607945 9.5,6.98607945 L10.5416667,6.98607945 C10.656726,6.98607945 10.75,7.07944002 10.75,7.19460612 L10.75,10.5310329 C10.75,10.646199 10.656726,10.7395596 10.5416667,10.7395596 L7.20833333,10.7395596 C7.09327401,10.7395596 7,10.646199 7,10.5310329 L7,9.48839954 C7,9.17246323 6.82166469,8.88364284 6.53934466,8.74235183 C6.25702464,8.60106082 5.91918137,8.6315524 5.66666667,8.82111418 L2.33333333,11.3234343 C2.12349513,11.480959 2,11.7281785 2,11.9907196 C2,12.2532608 2.12349513,12.5004803 2.33333333,12.658005 L5.66666667,15.1603251 C5.91918137,15.3498869 6.25702464,15.3803784 6.53934466,15.2390874 C6.82166469,15.0977964 7,14.808976 7,14.4930397 L7,13.4504064 C7,13.3352403 7.09327401,13.2418797 7.20833333,13.2418797 L10.5416667,13.2418797 C10.656726,13.2418797 10.75,13.3352403 10.75,13.4504064 L10.75,16.7868331 C10.75,16.9019992 10.656726,16.9953598 10.5416667,16.9953598 L9.5,16.9953598 C9.18435662,16.9953598 8.89580402,17.1738606 8.75464401,17.4564427 C8.613484,17.7390247 8.6439473,18.0771815 8.83333333,18.3299305 L11.3333333,21.6663573 C11.490712,21.8763903 11.7377022,22 12,22 C12.2622978,22 12.509288,21.8763903 12.6666667,21.6663573 L15.1666667,18.3299305 C15.3560527,18.0771815 15.386516,17.7390247 15.245356,17.4564427 C15.104196,17.1738606 14.8156434,16.9953598 14.5,16.9953598 L13.4583333,16.9953598 C13.343274,16.9953598 13.25,16.9019992 13.25,16.7868331 L13.25,13.4504064 C13.25,13.3352403 13.343274,13.2418797 13.4583333,13.2418797 L16.7916667,13.2418797 C16.906726,13.2418797 17,13.3352403 17,13.4504064 L17,14.4930397 C17,14.808976 17.1783353,15.0977964 17.4606553,15.2390874 C17.7429754,15.3803784 18.0808186,15.3498869 18.3333333,15.1603251 L21.6666667,12.658005 C21.8765049,12.5004803 22,12.2532608 22,11.9907196 C22,11.7281785 21.8765049,11.480959 21.6666667,11.3234343 Z" id="ðŸ–-Color" fill="#5A5A5A"></path>
        <rect id="_Transparent_Rectangle_" x="0" y="0" width="24" height="24"></rect>
    </g>
</svg>