<svg width="24" height="24" viewBox="0 0 24 24" fill="none" xmlns="http://www.w3.org/2000/svg">
<g id="drag">
<path id="Shape" fill-rule="evenodd" clip-rule="evenodd" d="M21.6667 11.3234L18.3333 8.82111C18.0808 8.63155 17.743 8.60106 17.4607 8.74235C17.1783 8.88364 17 9.17246 17 9.4884V10.531C17 10.6462 16.9067 10.7396 16.7917 10.7396H13.4583C13.3433 10.7396 13.25 10.6462 13.25 10.531V7.19461C13.25 7.07944 13.3433 6.98608 13.4583 6.98608H14.5C14.8156 6.98608 15.1042 6.80758 15.2454 6.525C15.3865 6.24241 15.3561 5.90426 15.1667 5.65151L12.6667 2.31508C12.5027 2.11559 12.2581 2 12 2C11.7419 2 11.4973 2.11559 11.3333 2.31508L8.83333 5.65151C8.64395 5.90426 8.61348 6.24241 8.75464 6.525C8.8958 6.80758 9.18436 6.98608 9.5 6.98608H10.5417C10.6567 6.98608 10.75 7.07944 10.75 7.19461V10.531C10.75 10.6462 10.6567 10.7396 10.5417 10.7396H7.20833C7.09327 10.7396 7 10.6462 7 10.531V9.4884C7 9.17246 6.82166 8.88364 6.53934 8.74235C6.25702 8.60106 5.91918 8.63155 5.66667 8.82111L2.33333 11.3234C2.1235 11.481 2 11.7282 2 11.9907C2 12.2533 2.1235 12.5005 2.33333 12.658L5.66667 15.1603C5.91918 15.3499 6.25702 15.3804 6.53934 15.2391C6.82166 15.0978 7 14.809 7 14.493V13.4504C7 13.3352 7.09327 13.2419 7.20833 13.2419H10.5417C10.6567 13.2419 10.75 13.3352 10.75 13.4504V16.7868C10.75 16.902 10.6567 16.9954 10.5417 16.9954H9.5C9.18436 16.9954 8.8958 17.1739 8.75464 17.4564C8.61348 17.739 8.64395 18.0772 8.83333 18.3299L11.3333 21.6664C11.4907 21.8764 11.7377 22 12 22C12.2623 22 12.5093 21.8764 12.6667 21.6664L15.1667 18.3299C15.3561 18.0772 15.3865 17.739 15.2454 17.4564C15.1042 17.1739 14.8156 16.9954 14.5 16.9954H13.4583C13.3433 16.9954 13.25 16.902 13.25 16.7868V13.4504C13.25 13.3352 13.3433 13.2419 13.4583 13.2419H16.7917C16.9067 13.2419 17 13.3352 17 13.4504V14.493C17 14.809 17.1783 15.0978 17.4607 15.2391C17.743 15.3804 18.0808 15.3499 18.3333 15.1603L21.6667 12.658C21.8765 12.5005 22 12.2533 22 11.9907C22 11.7282 21.8765 11.481 21.6667 11.3234Z" fill="#5A5A5A"/>
</g>
</svg>
