<?xml version="1.0" encoding="UTF-8"?>
<svg width="24px" height="24px" viewBox="0 0 24 24" version="1.1" xmlns="http://www.w3.org/2000/svg" xmlns:xlink="http://www.w3.org/1999/xlink">
    <title>1. Interface Essentials/edit_pen</title>
    <g id="1.-Interface-Essentials/edit_pen" stroke="none" stroke-width="1" fill="none" fill-rule="evenodd">
        <path d="M3.56811874,15.9176088 C3.71395204,15.8763779 3.87068441,15.9170826 3.97802401,16.0240646 L3.97802401,16.0240646 L7.97313347,20.0274752 C8.08052117,20.1347525 8.12151225,20.2917072 8.08029421,20.4377935 C8.03907618,20.5838797 7.92209158,20.6962637 7.77446772,20.7315927 L7.77446772,20.7315927 L2.51695062,21.9889452 C2.37534324,22.0218776 2.22672741,21.9801395 2.12297214,21.8782982 C2.01982658,21.7752969 1.97760698,21.6261029 2.01148461,21.4843277 L2.01148461,21.4843277 L3.27389226,16.2227263 C3.30952012,16.0752685 3.42205055,15.9585727 3.56811874,15.9176088 Z M14.2742744,5.15886185 L14.3566331,5.16721643 C14.4373744,5.18358719 14.5121563,5.22354368 14.5710157,5.28292064 L14.5710157,5.28292064 L18.7136575,9.43721356 C18.8767188,9.60078246 18.8767188,9.86543862 18.7136575,10.0290075 L18.7136575,10.0290075 L9.56245943,19.1800196 C9.39879077,19.3436355 9.13348386,19.3436355 8.9698152,19.1800196 L8.9698152,19.1800196 L4.82214386,15.0324325 C4.65852463,14.8687672 4.65852463,14.6034657 4.82214386,14.4398004 L4.82214386,14.4398004 L13.9775332,5.28208241 C14.0561502,5.2032207 14.1629189,5.15886185 14.2742744,5.15886185 L14.2742744,5.15886185 Z M16.6482043,2.61230376 C17.4662589,1.79589875 18.7908562,1.79589875 19.6089107,2.61230376 L19.6089107,2.61230376 L21.3885199,4.39271502 C22.2038267,5.21055948 22.2038267,6.53384029 21.3885199,7.35168475 L21.3885199,7.35168475 L20.2015549,8.54114029 C20.0378863,8.7047562 19.7725794,8.7047562 19.6089107,8.54114029 L19.6089107,8.54114029 L15.4595629,4.39271502 C15.2959436,4.22904968 15.2959436,3.96374817 15.4595629,3.80008283 L15.4595629,3.80008283 Z" id="ðŸ–-Color" fill="#5A5A5A"></path>
        <rect id="_Transparent_Rectangle_" x="0" y="0" width="24" height="24"></rect>
    </g>
</svg>