<?xml version="1.0" encoding="UTF-8"?>
<svg width="24px" height="24px" viewBox="0 0 24 24" version="1.1" xmlns="http://www.w3.org/2000/svg" xmlns:xlink="http://www.w3.org/1999/xlink">
    <title>1. Interface Essentials/edit</title>
    <g id="1.-Interface-Essentials/edit" stroke="none" stroke-width="1" fill="none" fill-rule="evenodd">
        <path d="M21.5069,4.4999 L19.4969,2.4899 C19.1879,2.1799 18.7569,1.9999 18.3179,1.9999 L8.6679,1.9999 C7.7479,1.9999 6.9979,2.7499 6.9979,3.6699 L6.9979,10.8189 C6.9979,11.0489 7.1779,11.2289 7.3979,11.2289 C7.5079,11.2289 7.6089,11.1889 7.6779,11.1089 L7.9579,10.8289 C8.6479,10.1189 9.6379,9.6889 10.6579,9.6889 C11.4879,9.6889 12.2779,9.9589 12.9379,10.4689 C13.9179,11.2699 14.4179,12.4589 14.3179,13.6889 C14.2479,14.5789 13.8079,15.3989 13.1679,16.0389 L10.7979,18.4089 C10.5479,18.6589 10.7279,19.0879 11.0779,19.0879 L20.3269,19.0879 C21.2569,19.0879 21.9969,18.3379 21.9969,17.4179 L21.9969,5.6799 C21.9969,5.2399 21.8269,4.8099 21.5069,4.4999 L21.5069,4.4999 Z M2.6759,18.7249 C2.7499,18.7029 2.8289,18.7229 2.8829,18.7769 L5.2249,21.1169 C5.2789,21.1709 5.2989,21.2509 5.2769,21.3249 C5.2549,21.3979 5.1939,21.4539 5.1179,21.4679 L2.4989,21.9919 C2.4719,21.9979 2.4439,21.9999 2.4159,21.9999 C2.2909,21.9999 2.1729,21.9439 2.0939,21.8459 C2.0149,21.7499 1.9839,21.6229 2.0079,21.4999 L2.5319,18.8829 C2.5469,18.8069 2.6019,18.7469 2.6759,18.7249 L2.6759,18.7249 Z M9.0229,11.8889 C9.8199,11.0579 11.1139,10.9589 12.0279,11.6599 C12.5059,12.0509 12.7959,12.6249 12.8269,13.2409 C12.8579,13.8569 12.6279,14.4579 12.1919,14.8939 L6.6269,20.4589 C6.5879,20.4989 6.5349,20.5209 6.4799,20.5209 C6.4239,20.5209 6.3709,20.4989 6.3329,20.4589 L3.5399,17.6659 C3.4589,17.5839 3.4589,17.4529 3.5399,17.3719 L9.0229,11.8889 Z" id="ðŸ–-Color" fill="#5A5A5A"></path>
        <rect id="_Transparent_Rectangle_" x="0" y="0" width="24" height="24"></rect>
    </g>
</svg>