<svg width="24" height="24" viewBox="0 0 24 24" fill="none" xmlns="http://www.w3.org/2000/svg">
<g id="edit">
<path id="Shape" fill-rule="evenodd" clip-rule="evenodd" d="M21.5069 4.49989L19.4969 2.48989C19.1879 2.17989 18.7569 1.99989 18.3179 1.99989H8.66793C7.74793 1.99989 6.99793 2.74989 6.99793 3.66989V10.8189C6.99793 11.0489 7.17793 11.2289 7.39793 11.2289C7.50793 11.2289 7.60893 11.1889 7.67793 11.1089L7.95793 10.8289C8.64793 10.1189 9.63793 9.68889 10.6579 9.68889C11.4879 9.68889 12.2779 9.95889 12.9379 10.4689C13.9179 11.2699 14.4179 12.4589 14.3179 13.6889C14.2479 14.5789 13.8079 15.3989 13.1679 16.0389L10.7979 18.4089C10.5479 18.6589 10.7279 19.0879 11.0779 19.0879H20.3269C21.2569 19.0879 21.9969 18.3379 21.9969 17.4179V5.67989C21.9969 5.23989 21.8269 4.80989 21.5069 4.49989ZM2.67593 18.7249C2.74993 18.7029 2.82893 18.7229 2.88293 18.7769L5.22493 21.1169C5.27893 21.1709 5.29893 21.2509 5.27693 21.3249C5.25493 21.3979 5.19393 21.4539 5.11793 21.4679L2.49893 21.9919C2.47193 21.9979 2.44393 21.9999 2.41593 21.9999C2.29093 21.9999 2.17293 21.9439 2.09393 21.8459C2.01493 21.7499 1.98393 21.6229 2.00793 21.4999L2.53193 18.8829C2.54693 18.8069 2.60193 18.7469 2.67593 18.7249ZM9.02293 11.8889C9.81993 11.0579 11.1139 10.9589 12.0279 11.6599C12.5059 12.0509 12.7959 12.6249 12.8269 13.2409C12.8579 13.8569 12.6279 14.4579 12.1919 14.8939L6.62693 20.4589C6.58793 20.4989 6.53493 20.5209 6.47993 20.5209C6.42393 20.5209 6.37093 20.4989 6.33293 20.4589L3.53993 17.6659C3.45893 17.5839 3.45893 17.4529 3.53993 17.3719L9.02293 11.8889Z" fill="#5A5A5A"/>
</g>
</svg>
