<svg width="24" height="24" viewBox="0 0 24 24" fill="none" xmlns="http://www.w3.org/2000/svg">
<g id="edit_pen">
<path id="Shape" fill-rule="evenodd" clip-rule="evenodd" d="M19.6089 2.6123L21.3885 4.39271C22.2038 5.21056 22.2038 6.53384 21.3885 7.35168L20.2016 8.54114C20.0379 8.70476 19.7726 8.70476 19.6089 8.54114L15.4596 4.39271C15.2959 4.22905 15.2959 3.96375 15.4596 3.80008L16.6482 2.6123C17.4663 1.7959 18.7909 1.7959 19.6089 2.6123ZM14.571 5.28292C14.4925 5.20375 14.3858 5.15911 14.2743 5.15886C14.1629 5.15889 14.0562 5.20322 13.9775 5.28208L4.82214 14.4398C4.65852 14.6035 4.65852 14.8688 4.82214 15.0324L8.96982 19.18C9.13348 19.3436 9.39879 19.3436 9.56246 19.18L18.7137 10.029C18.8767 9.86544 18.8767 9.60078 18.7137 9.43721L14.571 5.28292ZM3.97802 16.0241C3.87068 15.9171 3.71395 15.8764 3.56812 15.9176C3.42205 15.9586 3.30952 16.0753 3.27389 16.2227L2.01148 21.4843C1.97761 21.6261 2.01983 21.7753 2.12297 21.8783C2.22673 21.9801 2.37534 22.0219 2.51695 21.9889L7.77447 20.7316C7.92209 20.6963 8.03908 20.5839 8.08029 20.4378C8.12151 20.2917 8.08052 20.1348 7.97313 20.0275L3.97802 16.0241Z" fill="#5A5A5A"/>
</g>
</svg>
