<svg width="24" height="24" viewBox="0 0 24 24" fill="none" xmlns="http://www.w3.org/2000/svg">
<g id="expand">
<path id="Shape" fill-rule="evenodd" clip-rule="evenodd" d="M21.1667 2C21.6269 2 22 2.3731 22 2.83333V8.25C22.0001 8.58702 21.7972 8.89092 21.4858 9.02C21.3847 9.06215 21.2762 9.08369 21.1667 9.08333C20.9456 9.08307 20.7336 8.99493 20.5775 8.83833L18.7533 7.01417C18.7142 6.97498 18.6612 6.95296 18.6058 6.95296C18.5505 6.95296 18.4974 6.97498 18.4583 7.01417L14.82 10.6525C14.4132 11.0594 13.7535 11.0594 13.3467 10.6525C12.9398 10.2457 12.9398 9.58602 13.3467 9.17917L16.985 5.545C17.0242 5.50591 17.0462 5.45284 17.0462 5.3975C17.0462 5.34216 17.0242 5.28909 16.985 5.25L15.1608 3.4225C14.9226 3.18417 14.8513 2.8258 14.9803 2.51445C15.1092 2.20311 15.413 2.00007 15.75 2H21.1667ZM9.01973 21.4855C8.89078 21.7969 8.587 21.9999 8.25 22H2.83333C2.3731 22 2 21.6269 2 21.1667V15.75C1.99974 15.4129 2.20265 15.1088 2.51407 14.9796C2.82549 14.8504 3.18406 14.9216 3.4225 15.16L5.24667 16.9842C5.28575 17.0234 5.33882 17.0454 5.39417 17.0454C5.44951 17.0454 5.50258 17.0234 5.54167 16.9842L9.18 13.3442C9.44319 13.081 9.82679 12.9782 10.1863 13.0745C10.5458 13.1709 10.8266 13.4517 10.923 13.8112C11.0193 14.1707 10.9165 14.5543 10.6533 14.8175L7.015 18.4558C6.97587 18.4948 6.95387 18.5477 6.95387 18.6029C6.95387 18.6581 6.97587 18.7111 7.015 18.75L8.83917 20.5775C9.07742 20.8158 9.14869 21.1742 9.01973 21.4855Z" fill="#5A5A5A"/>
</g>
</svg>
