<?xml version="1.0" encoding="UTF-8"?>
<svg width="24px" height="24px" viewBox="0 0 24 24" version="1.1" xmlns="http://www.w3.org/2000/svg" xmlns:xlink="http://www.w3.org/1999/xlink">
    <title>1. Interface Essentials/expand</title>
    <g id="1.-Interface-Essentials/expand" stroke="none" stroke-width="1" fill="none" fill-rule="evenodd">
        <path d="M9.18000032,13.3441667 C9.44318597,13.080981 9.8267874,12.9781953 10.1863057,13.0745279 C10.545824,13.1708606 10.8266397,13.4516763 10.9229723,13.8111946 C11.019305,14.1707129 10.9165193,14.5543144 10.6533336,14.8175 L10.6533336,14.8175 L7.01500038,18.4558333 C6.9758667,18.4947759 6.95386549,18.5477082 6.95386549,18.6029167 C6.95386549,18.6581251 6.9758667,18.7110574 7.01500038,18.75 L7.01500038,18.75 L8.839167,20.5775 C9.07742359,20.8158285 9.14868525,21.1741972 9.01973198,21.4855455 C8.89077871,21.7968937 8.58699692,22 8.25000035,22 L8.25000035,22 L2.83333383,22 C2.37309655,22 2.00000026,21.626904 2.00000026,21.1666667 L2.00000026,21.1666667 L2.00000026,15.75 C1.99973526,15.4128517 2.20264597,15.1087614 2.51406993,14.9795943 C2.8254939,14.8504272 3.1840647,14.921636 3.42250048,15.16 L3.42250048,15.16 L5.2466671,16.9841667 C5.28575221,17.0233507 5.3388224,17.0453724 5.39416709,17.0453724 C5.44951178,17.0453724 5.50258198,17.0233507 5.54166709,16.9841667 L5.54166709,16.9841667 Z M21.1666667,2 C21.6269039,2 22,2.37309604 22,2.83333333 L22,2.83333333 L22,8.25 C22,8.58702426 21.7971589,8.89091972 21.4858333,9.02 C21.3847235,9.06215473 21.2762116,9.08368713 21.1666667,9.08333333 C20.9455513,9.08306522 20.7336074,8.99493013 20.5775,8.83833333 L20.5775,8.83833333 L18.7533334,7.01416667 C18.7142483,6.97498262 18.6611781,6.95296092 18.6058334,6.95296092 C18.5504887,6.95296092 18.4974185,6.97498262 18.4583334,7.01416667 L18.4583334,7.01416667 L14.8200002,10.6525 C14.4131504,11.0593498 13.7535166,11.0593498 13.3466669,10.6525 C12.9398171,10.2456502 12.9398171,9.58601643 13.3466669,9.17916667 L13.3466669,9.17916667 L16.9850001,5.545 C17.0241842,5.50591489 17.0462059,5.45284469 17.0462059,5.3975 C17.0462059,5.34215531 17.0241842,5.28908511 16.9850001,5.25 L16.9850001,5.25 L15.1608335,3.4225 C14.9225769,3.18417145 14.8513152,2.82580282 14.9802685,2.51445453 C15.1092218,2.20310625 15.4130036,2 15.7500001,2 L15.7500001,2 Z" id="ðŸ–-Color" fill="#5A5A5A"></path>
        <rect id="_Transparent_Rectangle_" x="0" y="0" width="24" height="24"></rect>
    </g>
</svg>