<?xml version="1.0" encoding="UTF-8"?>
<svg width="24px" height="24px" viewBox="0 0 24 24" version="1.1" xmlns="http://www.w3.org/2000/svg" xmlns:xlink="http://www.w3.org/1999/xlink">
    <title>1. Interface Essentials/eye</title>
    <g id="1.-Interface-Essentials/eye" stroke="none" stroke-width="1" fill="none" fill-rule="evenodd">
        <path d="M12,5.83333333 C15.6666667,5.78166667 19.3225,8.345 21.5266667,10.77 C22.152837,11.4685042 22.1539135,12.5260557 21.5291667,13.2258333 C19.3483333,15.6258333 15.745,18.1666667 12.1225,18.1666667 L12.1225,18.1666667 L11.8658333,18.1666667 C8.25583333,18.1666667 4.65166667,15.6258333 2.47333333,13.2266667 C1.84775789,12.5272521 1.84775789,11.4694146 2.47333333,10.77 C4.6775,8.34583333 8.33333333,5.78083333 12,5.83333333 Z M12,8.16666667 C9.88290846,8.16666667 8.16666667,9.88290846 8.16666667,12 C8.16666667,14.1170915 9.88290846,15.8333333 12,15.8333333 C14.1170915,15.8333333 15.8333333,14.1170915 15.8333333,12 C15.8333333,9.88290846 14.1170915,8.16666667 12,8.16666667 Z M12,10.3333333 C12.9204746,10.3333333 13.6666667,11.0795254 13.6666667,12 C13.6666667,12.9204746 12.9204746,13.6666667 12,13.6666667 C11.0795254,13.6666667 10.3333333,12.9204746 10.3333333,12 C10.3333333,11.0795254 11.0795254,10.3333333 12,10.3333333 Z" id="ðŸ–-Color" fill="#5A5A5A"></path>
        <rect id="_Transparent_Rectangle_" x="0" y="0" width="24" height="24"></rect>
    </g>
</svg>