<svg width="24" height="24" viewBox="0 0 24 24" fill="none" xmlns="http://www.w3.org/2000/svg">
<g id="eye">
<path id="Shape" fill-rule="evenodd" clip-rule="evenodd" d="M21.5267 10.77C19.3225 8.34499 15.6667 5.78166 12 5.83333C8.33333 5.78083 4.6775 8.34583 2.47333 10.77C1.84776 11.4694 1.84776 12.5272 2.47333 13.2267C4.65167 15.6258 8.25583 18.1667 11.8658 18.1667H12.1225C15.745 18.1667 19.3483 15.6258 21.5292 13.2258C22.1539 12.526 22.1528 11.4685 21.5267 10.77ZM8.16667 12C8.16667 9.8829 9.88291 8.16666 12 8.16666C14.1171 8.16666 15.8333 9.8829 15.8333 12C15.8333 14.1171 14.1171 15.8333 12 15.8333C9.88291 15.8333 8.16667 14.1171 8.16667 12ZM12 13.6667C12.9205 13.6667 13.6667 12.9205 13.6667 12C13.6667 11.0795 12.9205 10.3333 12 10.3333C11.0795 10.3333 10.3333 11.0795 10.3333 12C10.3333 12.9205 11.0795 13.6667 12 13.6667Z" fill="#5A5A5A"/>
</g>
</svg>
