<?xml version="1.0" encoding="UTF-8"?>
<svg width="24px" height="24px" viewBox="0 0 24 24" version="1.1" xmlns="http://www.w3.org/2000/svg" xmlns:xlink="http://www.w3.org/1999/xlink">
    <title>1. Interface Essentials/filter</title>
    <g id="1.-Interface-Essentials/filter" stroke="none" stroke-width="1" fill="none" fill-rule="evenodd">
        <path d="M21.9116786,2.46000014 C21.7703931,2.17804929 21.4820478,2 21.1666784,2 L2.83333843,2 C2.51769494,2 2.22914224,2.17833537 2.08798217,2.46065548 C1.94682211,2.74297558 1.97728543,3.08081895 2.16667153,3.33333373 L9.5,13.1858367 L9.5,20.3333388 C9.50681352,21.2509798 10.2490338,21.9932 11.1666748,22 C11.5273603,22.0004284 11.8783801,21.8834218 12.1666751,21.6666726 L13.8333424,20.4166722 C14.2522975,20.1013133 14.4990952,19.6077179 14.5,19.0833385 L14.5,13.1858367 L21.8333453,3.33333373 C22.0228807,3.08060223 22.0532132,2.74242684 21.9116786,2.46000014 Z" id="ðŸ–-Color" fill="#5A5A5A"></path>
        <rect id="_Transparent_Rectangle_" x="0" y="0" width="24" height="24"></rect>
    </g>
</svg>