<svg width="24" height="24" viewBox="0 0 24 24" fill="none" xmlns="http://www.w3.org/2000/svg">
<g id="flash">
<path id="Shape" fill-rule="evenodd" clip-rule="evenodd" d="M19.3298 9.72703C19.2552 9.58882 19.1066 9.50206 18.9444 9.50207H12.5427L14.1605 2.50819C14.2059 2.31466 14.1029 2.11724 13.9142 2.0363C13.7255 1.95535 13.5036 2.01334 13.3837 2.17491L4.70453 13.8397C4.60833 13.9667 4.59473 14.1349 4.66936 14.2747C4.74399 14.4145 4.89417 14.5021 5.05778 14.5013H11.4595L9.84173 21.4918C9.79632 21.6853 9.89935 21.8828 10.088 21.9637C10.2767 22.0446 10.4986 21.9867 10.6185 21.8251L19.2977 10.1603C19.3922 10.0331 19.4046 9.86581 19.3298 9.72703Z" fill="#5A5A5A"/>
</g>
</svg>
