<?xml version="1.0" encoding="UTF-8"?>
<svg width="24px" height="24px" viewBox="0 0 24 24" version="1.1" xmlns="http://www.w3.org/2000/svg" xmlns:xlink="http://www.w3.org/1999/xlink">
    <title>1. Interface Essentials/flash</title>
    <g id="1.-Interface-Essentials/flash" stroke="none" stroke-width="1" fill="none" fill-rule="evenodd">
        <path d="M19.3298485,9.72703141 C19.2552626,9.58882017 19.1066369,9.50205489 18.9444937,9.50206751 L12.5427432,9.50206751 L14.1605391,2.50818983 C14.2059511,2.31466257 14.1029159,2.11723882 13.9142578,2.03629502 C13.7255997,1.95535122 13.5036561,2.01334271 13.3837541,2.17490998 L4.70459125,13.8397048 C4.60838686,13.9667469 4.59478833,14.1349342 4.66941989,14.2747061 C4.74405144,14.414478 4.89422611,14.502074 5.05783318,14.5012653 L11.4595837,14.5012653 L9.84178771,21.4918102 C9.79637574,21.6853374 9.89941095,21.8827612 10.088069,21.963705 C10.2767271,22.0446488 10.4986707,21.9866573 10.6185728,21.82509 L19.2977356,10.1602952 C19.3922239,10.0330813 19.404622,9.86580723 19.3298485,9.72703141 Z" id="ðŸ–-Color" fill="#5A5A5A"></path>
        <rect id="_Transparent_Rectangle_" x="0" y="0" width="24" height="24"></rect>
    </g>
</svg>