<svg width="24" height="24" viewBox="0 0 24 24" fill="none" xmlns="http://www.w3.org/2000/svg">
<g id="font_size">
<path id="Shape" fill-rule="evenodd" clip-rule="evenodd" d="M16.6271 19.3389H16.1217C16.0348 19.3388 15.9575 19.2812 15.9297 19.1956L10.8721 3.81768C10.7044 3.30713 10.243 2.96334 9.72344 2.96167H9.71762C9.19578 2.96207 8.73187 3.30674 8.56313 3.8194L3.52211 19.1956C3.49379 19.2811 3.41639 19.3386 3.32928 19.3389H2.84056C2.5435 19.329 2.26484 19.4879 2.1135 19.7535C1.96217 20.0191 1.96217 20.3491 2.1135 20.6147C2.26484 20.8803 2.5435 21.0392 2.84056 21.0293H5.29C5.5061 21.0295 5.71341 20.9405 5.86621 20.7819C6.01902 20.6232 6.10477 20.408 6.10454 20.1837C6.11041 19.7728 5.82207 19.421 5.43047 19.3613C5.37255 19.35 5.32239 19.3127 5.29333 19.2595C5.26416 19.2071 5.25811 19.1442 5.2767 19.0869L6.52345 15.2789C6.55178 15.1933 6.62918 15.1359 6.71628 15.1356H12.7256C12.8127 15.1359 12.8901 15.1933 12.9184 15.2789L14.171 19.0886C14.1896 19.1459 14.1838 19.2086 14.1551 19.2612C14.1264 19.3137 14.0774 19.3511 14.0206 19.3639C13.6363 19.4318 13.3567 19.7799 13.3614 20.1845C13.3612 20.4089 13.447 20.6241 13.5998 20.7827C13.7526 20.9414 13.9599 21.0304 14.176 21.0302H16.6254C16.9225 21.04 17.2011 20.8811 17.3525 20.6155C17.5038 20.35 17.5038 20.0199 17.3525 19.7543C17.2011 19.4888 16.9225 19.3299 16.6254 19.3397L16.6271 19.3389ZM7.41114 13.4443C7.34543 13.4443 7.28375 13.4114 7.2455 13.356C7.20724 13.3005 7.19712 13.2293 7.21831 13.1647L9.52562 6.12855C9.55366 6.04279 9.63121 5.98509 9.71845 5.98509C9.80569 5.98509 9.88324 6.04279 9.91128 6.12855L12.2252 13.1639C12.246 13.2286 12.2359 13.2998 12.1978 13.3554C12.159 13.4103 12.0971 13.4424 12.0316 13.4417L7.41114 13.4443ZM20.9766 19.3389H21.1594V19.3475C21.4565 19.3376 21.7352 19.4965 21.8865 19.7621C22.0378 20.0277 22.0378 20.3577 21.8865 20.6233C21.7352 20.8889 21.4565 21.0478 21.1594 21.0379H19.3508C19.1349 21.0379 18.9278 20.9488 18.7752 20.7902C18.6225 20.6316 18.5369 20.4165 18.5371 20.1923C18.5376 19.8835 18.7045 19.601 18.9693 19.4605C19.0598 19.4118 19.1014 19.3011 19.0666 19.2017L18.1523 16.43C18.124 16.3445 18.0466 16.287 17.9595 16.2867H16.1309C15.6914 16.2722 15.3424 15.898 15.3424 15.4415C15.3424 14.985 15.6914 14.6109 16.1309 14.5963H17.2621C17.3278 14.5964 17.3895 14.5635 17.4276 14.508C17.4658 14.4524 17.4756 14.3812 17.4541 14.3167L16.2356 10.6062C16.2072 10.5211 16.13 10.464 16.0432 10.464C15.9564 10.464 15.8792 10.5211 15.8508 10.6062L15.4219 11.9118C15.3281 12.1976 15.0945 12.4097 14.8092 12.4682C14.5239 12.5267 14.2302 12.4228 14.0387 12.1955C13.8472 11.9683 13.7871 11.6522 13.8809 11.3664L14.8359 8.44633C15.0102 7.90918 15.4952 7.54741 16.0411 7.54741C16.5871 7.54741 17.0721 7.90918 17.2463 8.44633L20.7838 19.1956C20.8121 19.2811 20.8895 19.3386 20.9766 19.3389Z" fill="#5A5A5A"/>
</g>
</svg>
