<?xml version="1.0" encoding="UTF-8"?>
<svg width="24px" height="24px" viewBox="0 0 24 24" version="1.1" xmlns="http://www.w3.org/2000/svg" xmlns:xlink="http://www.w3.org/1999/xlink">
    <title>1. Interface Essentials/font_size</title>
    <g id="1.-Interface-Essentials/font_size" stroke="none" stroke-width="1" fill="none" fill-rule="evenodd">
        <path d="M16.0411257,7.54738783 C16.5870666,7.54738783 17.0720917,7.90915851 17.2463154,8.44631504 L17.2463154,8.44631504 L20.783755,19.1956 C20.8120813,19.2811158 20.8894813,19.3386121 20.9765854,19.3388432 L20.9765854,19.3388432 L21.1594417,19.3388432 C21.4565044,19.3376168 21.7351559,19.4965249 21.8864954,19.7620931 C22.0378349,20.0276612 22.0378349,20.3577265 21.8864954,20.6232947 C21.7351559,20.8888628 21.4565044,21.0477709 21.1594417,21.0379154 L21.1594417,21.0379154 L19.350826,21.0379154 C19.1348724,21.0379155 18.9277758,20.9487926 18.7751515,20.7901771 C18.6225272,20.6315615 18.5368946,20.4164641 18.5371152,20.1922624 C18.5376031,19.8834978 18.7044725,19.6009787 18.9693211,19.4605137 C19.0597649,19.4118298 19.1013829,19.3010412 19.0665675,19.2016403 L19.0665675,19.2016403 L18.1522856,16.4299695 C18.1239593,16.3444537 18.0465593,16.2869574 17.9594553,16.2867263 L17.9594553,16.2867263 L16.1308916,16.2867263 C15.6913852,16.2721449 15.3423659,15.8980307 15.3423659,15.4415047 C15.3423659,14.9849788 15.6913852,14.6108645 16.1308916,14.5962832 L16.1308916,14.5962832 L17.2621076,14.5962832 C17.3278091,14.5964196 17.3895034,14.5635034 17.4276449,14.507963 C17.4657863,14.4524226 17.4756484,14.3811406 17.4541068,14.3167 L17.4541068,14.3167 L16.2356184,10.6061818 C16.2072129,10.5210614 16.1299737,10.4639778 16.0432037,10.4639778 C15.9564336,10.4639778 15.8791944,10.5210614 15.8507889,10.6061818 L15.8507889,10.6061818 L15.4219076,11.9117664 C15.3280724,12.1975499 15.0945105,12.4096522 14.8092024,12.4681764 C14.5238943,12.5267006 14.2301851,12.4227556 14.0387122,12.1954965 C13.8472392,11.9682373 13.7870919,11.65219 13.8809271,11.3664066 L13.8809271,11.3664066 L14.835936,8.44631504 C15.0101598,7.90915851 15.4951849,7.54738783 16.0411257,7.54738783 Z M9.72343821,2.9616514 C10.2430282,2.96332436 10.704352,3.30711036 10.8721087,3.81765932 L10.8721087,3.81765932 L15.9297496,19.1956 C15.9575488,19.281146 16.0347869,19.3387704 16.1217488,19.3388432 L16.1217488,19.3388432 L16.6270973,19.3388432 C16.9224976,19.3298506 17.2011491,19.4887587 17.3524886,19.7543269 C17.5038281,20.019895 17.5038281,20.3499603 17.3524886,20.6155285 C17.2011491,20.8810966 16.9224976,21.0400047 16.625435,21.0301492 L16.625435,21.0301492 L14.1759908,21.0301492 C13.9598932,21.0303785 13.7525829,20.9413568 13.5997787,20.7827163 C13.4469746,20.6240759 13.3612279,20.4088475 13.3614488,20.1844962 C13.3567388,19.7798451 13.6362982,19.4317803 14.0205629,19.3638676 C14.0774381,19.3510689 14.1263654,19.3137151 14.1550847,19.2611659 C14.1838041,19.2086168 14.189594,19.1458521 14.1710038,19.088599 L14.1710038,19.088599 L12.9184377,15.278846 C12.8901114,15.1933301 12.8127113,15.1358338 12.7256073,15.1356027 L12.7256073,15.1356027 L6.71628212,15.1356027 C6.6291781,15.1358338 6.55177809,15.1933301 6.52345177,15.278846 L6.52345177,15.278846 L5.2767038,19.0868731 C5.25810493,19.1442083 5.26416071,19.2070791 5.29332711,19.2594554 C5.32238622,19.3126902 5.37255262,19.3499371 5.43046938,19.3612789 C5.82207267,19.4209884 6.11041353,19.7727569 6.10454445,20.1836333 C6.1047653,20.4079846 6.01901865,20.623213 5.86621449,20.7818534 C5.71341033,20.9404939 5.50610004,21.0295156 5.29000245,21.0292863 L5.29000245,21.0292863 L2.84055828,21.0292863 C2.54349564,21.0391418 2.26484414,20.8802337 2.11350463,20.6146655 C1.96216512,20.3490974 1.96216512,20.0190321 2.11350463,19.7534639 C2.26484414,19.4878958 2.54349564,19.3289877 2.84055828,19.3388432 L2.84055828,19.3388432 L3.32928348,19.3388432 C3.4163875,19.3386121 3.49378751,19.2811158 3.52211383,19.1956 L3.52211383,19.1956 L8.56313144,3.81938514 C8.73186803,3.30671728 9.19577966,2.96205156 9.71762006,2.9616514 L9.71762006,2.9616514 Z M9.71845122,5.98507346 C9.63121025,5.98507346 9.55366134,6.04276836 9.52562087,6.12853553 L9.52562087,6.12853553 L7.21830597,13.1647135 C7.19711921,13.2292853 7.20724479,13.3005028 7.24549785,13.3559656 C7.28375091,13.4114284 7.34543057,13.4442968 7.41113632,13.4442968 L7.41113632,13.4442968 L12.0315843,13.441708 C12.0971446,13.4424044 12.1590177,13.4102862 12.1978173,13.3554169 C12.2358411,13.2997557 12.2460499,13.2285935 12.2252458,13.1638506 L12.2252458,13.1638506 L9.91128157,6.12853553 C9.88324111,6.04276836 9.80569219,5.98507346 9.71845122,5.98507346 Z" id="ðŸ–-Color" fill="#5A5A5A"></path>
        <rect id="_Transparent_Rectangle_" x="0" y="0" width="24" height="24"></rect>
    </g>
</svg>