<?xml version="1.0" encoding="UTF-8"?>
<svg width="24px" height="24px" viewBox="0 0 24 24" version="1.1" xmlns="http://www.w3.org/2000/svg" xmlns:xlink="http://www.w3.org/1999/xlink">
    <title>1. Interface Essentials/full_screen</title>
    <g id="1.-Interface-Essentials/full_screen" stroke="none" stroke-width="1" fill="none" fill-rule="evenodd">
        <path d="M19.0833333,6.38916675 C19.1224185,6.34998271 19.1754887,6.327961 19.2308333,6.327961 C19.286178,6.327961 19.3392482,6.34998271 19.3783333,6.38916675 L20.5775,7.5883334 C20.7336074,7.74493019 20.9455513,7.83306528 21.1666667,7.83333339 C21.2762116,7.83368719 21.3847235,7.81215479 21.4858333,7.77000006 C21.7971589,7.64091978 22,7.33702432 22,7.00000014 L22,2.83333346 C22,2.37309618 21.6269039,2.00000014 21.1666667,2.00000014 L17,2.00000014 C16.6630035,2.00000014 16.3592217,2.20310639 16.2302684,2.51445467 C16.1013151,2.82580295 16.1725768,3.18417158 16.4108334,3.42250012 L17.61,4.62166677 C17.6491841,4.66075188 17.6712058,4.71382208 17.6712058,4.76916677 C17.6712058,4.82451146 17.6491841,4.87758166 17.61,4.91666677 L12.1475001,10.38 C12.0657222,10.4606957 11.9342781,10.4606957 11.8525001,10.38 L6.3900002,4.91666677 C6.35081616,4.87758166 6.32879445,4.82451146 6.32879445,4.76916677 C6.32879445,4.71382208 6.35081616,4.66075188 6.3900002,4.62166677 L7.58916685,3.42166679 C7.8268287,3.18326086 7.8977123,2.82527853 7.76883442,2.51429455 C7.63995653,2.20331057 7.33663111,2.00040784 7,2.00000014 L2.83333358,2.00000014 C2.3730963,2.00000014 2,2.37309618 2,2.83333346 L2,7.00000014 C2,7.33702432 2.20284131,7.64091978 2.51416692,7.77000006 C2.61527671,7.81215479 2.72378868,7.83368719 2.83333358,7.83333339 C3.05432926,7.8332862 3.2662563,7.74545787 3.42250024,7.58916673 L4.62166689,6.38916675 C4.660752,6.34998271 4.7138222,6.327961 4.76916689,6.327961 C4.82451158,6.327961 4.87758178,6.34998271 4.91666688,6.38916675 L10.3800001,11.8516667 C10.4606958,11.9334446 10.4606958,12.0648887 10.3800001,12.1466667 L4.91666688,17.6091666 C4.87758178,17.6483506 4.82451158,17.6703723 4.76916689,17.6703723 C4.7138222,17.6703723 4.660752,17.6483506 4.62166689,17.6091666 L3.42250024,16.4099999 C3.18406446,16.1716359 2.82549365,16.1004272 2.51406968,16.2295942 C2.20264571,16.3587613 1.999735,16.6628517 2,17.0000001 L2,21.1666665 C2,21.6269038 2.3730963,22.0000001 2.83333358,22.0000001 L7,22.0000001 C7.33699676,22.0000001 7.64077855,21.7968936 7.76973183,21.4855453 C7.8986851,21.174197 7.82742344,20.8158284 7.58916685,20.5774999 L6.3900002,19.3774999 C6.35086651,19.3385573 6.3288653,19.285625 6.3288653,19.2304166 C6.3288653,19.1752081 6.35086651,19.1222758 6.3900002,19.0833332 L11.8525001,13.62 C11.9342781,13.5393043 12.0657222,13.5393043 12.1475001,13.62 L17.61,19.0833332 C17.6491337,19.1222758 17.6711349,19.1752081 17.6711349,19.2304166 C17.6711349,19.285625 17.6491337,19.3385573 17.61,19.3774999 L16.4108334,20.5774999 C16.1725768,20.8158284 16.1013151,21.174197 16.2302684,21.4855453 C16.3592217,21.7968936 16.6630035,22.0000001 17,22.0000001 L21.1666667,22.0000001 C21.6269039,22.0000001 22,21.6269038 22,21.1666665 L22,17.0000001 C22,16.6630034 21.7968937,16.3592216 21.4855454,16.2302683 C21.1741972,16.101315 20.8158285,16.1725767 20.5775,16.4108333 L19.3783333,17.6099999 C19.3392482,17.649184 19.286178,17.6712057 19.2308333,17.6712057 C19.1754887,17.6712057 19.1224185,17.649184 19.0833333,17.6099999 L13.6200001,12.1475 C13.5393044,12.0657221 13.5393044,11.9342779 13.6200001,11.8525 L19.0833333,6.38916675 Z" id="ðŸ–-Color" fill="#5A5A5A"></path>
        <rect id="_Transparent_Rectangle_" x="0" y="0" width="24" height="24"></rect>
    </g>
</svg>