<svg width="24" height="24" viewBox="0 0 24 24" fill="none" xmlns="http://www.w3.org/2000/svg">
<g id="full_screen">
<path id="Shape" fill-rule="evenodd" clip-rule="evenodd" d="M19.0833 6.38917C19.1224 6.34998 19.1755 6.32796 19.2308 6.32796C19.2862 6.32796 19.3392 6.34998 19.3783 6.38917L20.5775 7.58833C20.7336 7.74493 20.9456 7.83307 21.1667 7.83333C21.2762 7.83369 21.3847 7.81215 21.4858 7.77C21.7972 7.64092 22.0001 7.33702 22 7V2.83333C22 2.3731 21.6269 2 21.1667 2H17C16.663 2.00007 16.3592 2.20311 16.2303 2.51445C16.1013 2.8258 16.1726 3.18417 16.4108 3.4225L17.61 4.62167C17.6492 4.66075 17.6712 4.71382 17.6712 4.76917C17.6712 4.82451 17.6492 4.87758 17.61 4.91667L12.1475 10.38C12.0657 10.4607 11.9343 10.4607 11.8525 10.38L6.39 4.91667C6.35082 4.87758 6.32879 4.82451 6.32879 4.76917C6.32879 4.71382 6.35082 4.66075 6.39 4.62167L7.58917 3.42167C7.82683 3.18326 7.89771 2.82528 7.76883 2.51429C7.63996 2.20331 7.33663 2.00041 7 2H2.83333C2.3731 2 2 2.3731 2 2.83333V7C1.99992 7.33702 2.20284 7.64092 2.51417 7.77C2.61528 7.81215 2.72379 7.83369 2.83333 7.83333C3.05433 7.83329 3.26626 7.74546 3.4225 7.58917L4.62167 6.38917C4.66075 6.34998 4.71382 6.32796 4.76917 6.32796C4.82451 6.32796 4.87758 6.34998 4.91667 6.38917L10.38 11.8517C10.4607 11.9334 10.4607 12.0649 10.38 12.1467L4.91667 17.6092C4.87758 17.6483 4.82451 17.6704 4.76917 17.6704C4.71382 17.6704 4.66075 17.6483 4.62167 17.6092L3.4225 16.41C3.18406 16.1716 2.82549 16.1004 2.51407 16.2296C2.20265 16.3588 1.99974 16.6629 2 17V21.1667C2 21.6269 2.3731 22 2.83333 22H7C7.337 21.9999 7.64078 21.7969 7.76973 21.4855C7.89869 21.1742 7.82742 20.8158 7.58917 20.5775L6.39 19.3775C6.35087 19.3386 6.32887 19.2856 6.32887 19.2304C6.32887 19.1752 6.35087 19.1223 6.39 19.0833L11.8525 13.62C11.9343 13.5393 12.0657 13.5393 12.1475 13.62L17.61 19.0833C17.6491 19.1223 17.6711 19.1752 17.6711 19.2304C17.6711 19.2856 17.6491 19.3386 17.61 19.3775L16.4108 20.5775C16.1726 20.8158 16.1013 21.1742 16.2303 21.4855C16.3592 21.7969 16.663 21.9999 17 22H21.1667C21.6269 22 22 21.6269 22 21.1667V17C21.9999 16.663 21.7969 16.3592 21.4855 16.2303C21.1742 16.1013 20.8158 16.1726 20.5775 16.4108L19.3783 17.61C19.3392 17.6492 19.2862 17.6712 19.2308 17.6712C19.1755 17.6712 19.1224 17.6492 19.0833 17.61L13.62 12.1475C13.5393 12.0657 13.5393 11.9343 13.62 11.8525L19.0833 6.38917Z" fill="#5A5A5A"/>
</g>
</svg>
