<?xml version="1.0" encoding="UTF-8"?>
<svg width="24px" height="24px" viewBox="0 0 24 24" version="1.1" xmlns="http://www.w3.org/2000/svg" xmlns:xlink="http://www.w3.org/1999/xlink">
    <title>1. Interface Essentials/graph_stats_descend</title>
    <g id="1.-Interface-Essentials/graph_stats_descend" stroke="none" stroke-width="1" fill="none" fill-rule="evenodd">
        <path d="M7.76599582,13.4421182 C8.88749155,14.5045009 10.6522776,14.4763035 11.7392603,13.378634 L13.5489832,11.5697575 C13.7085408,11.4106964 13.9667086,11.4106964 14.1262662,11.5697575 L17.1498071,14.5932983 C17.188318,14.6314496 17.2099837,14.6834101 17.2099837,14.7376191 C17.2099837,14.791828 17.188318,14.8437886 17.1498071,14.8819398 L15.7108319,16.320915 C15.4768245,16.553997 15.4064033,16.905158 15.5324474,17.210444 C15.6584914,17.51573 15.9561393,17.7150281 16.286422,17.7150281 L21.1840164,17.7150281 C21.6344783,17.7145615 21.9995334,17.3495064 22,16.8990445 L22,12.0149933 C21.9994171,11.6853922 21.8007983,11.3884367 21.4963921,11.262048 C21.1919859,11.1356592 20.8414455,11.2046052 20.6075799,11.4368639 L19.1736834,12.8656816 C19.1355654,12.9039322 19.0837867,12.9254323 19.0297859,12.9254323 C18.9757851,12.9254323 18.9240063,12.9039322 18.8858884,12.8656816 L15.8547294,9.8379085 C14.724255,8.75863278 12.9450693,8.75863278 11.8145949,9.8379085 L10.0057184,11.6476314 C9.84995624,11.8038685 9.59809523,11.807622 9.43774643,11.656096 L4.06190434,6.61629695 C3.56870794,6.1537208 2.79390119,6.17854341 2.33132504,6.67173982 C1.86874888,7.16493622 1.8935715,7.93974297 2.38676791,8.40231912 L7.76599582,13.4421182 Z" id="ðŸ–-Color" fill="#5A5A5A"></path>
        <rect id="_Transparent_Rectangle_" x="0" y="0" width="24" height="24"></rect>
    </g>
</svg>