<?xml version="1.0" encoding="UTF-8"?>
<svg width="24px" height="24px" viewBox="0 0 24 24" version="1.1" xmlns="http://www.w3.org/2000/svg" xmlns:xlink="http://www.w3.org/1999/xlink">
    <title>1. Interface Essentials/graph_stats_circle</title>
    <g id="1.-Interface-Essentials/graph_stats_circle" stroke="none" stroke-width="1" fill="none" fill-rule="evenodd">
        <path d="M9.50864753,9.29268619 C9.60422857,9.29120015 9.68861799,9.35232748 9.71333333,9.44097751 L9.71333333,9.44097751 L11.65,16.3641775 C11.8211487,16.8592419 12.2988682,17.1969048 12.8421214,17.2067958 C13.3853746,17.2166867 13.8760873,16.896656 14.0666667,16.4081775 L14.0666667,16.4081775 L15.38,12.3969775 C15.4038652,12.3237904 15.4695302,12.270361 15.5486473,12.259755 C15.6277643,12.2491491 15.7061636,12.283266 15.75,12.3473775 C16.2291191,13.1662333 17.1514751,13.6523996 18.1283333,13.6009775 L18.1283333,13.6009775 L21.86,13.6009775 C21.0463834,18.2196195 16.8793969,21.6002225 12,21.6002225 C7.12060307,21.6002225 2.95361658,18.2196195 2.14,13.6009775 L2.14,13.6009775 L6.06166667,13.6009775 C6.9816031,13.6765829 7.86189219,13.2260003 8.30916667,12.4505775 C8.7822919,11.4974755 9.1186864,10.4872155 9.30916667,9.44737751 C9.330823,9.35799319 9.41306648,9.29422721 9.50864753,9.29268619 Z M11.99875,2.39977751 C17.5215975,2.39911477 21.9993096,6.69664391 22,11.9985775 L22,11.9985775 L18.1291667,11.9985775 C17.4208333,11.9985775 17.28,11.7769775 16.7958333,10.8401775 C16.725,10.6945775 16.6416667,10.5433775 16.5583333,10.3881775 C16.3170812,9.97489013 15.8478898,9.73360284 15.3558333,9.76977751 C14.8471362,9.78554961 14.4008565,10.0998788 14.2325,10.5609775 L14.2325,10.5609775 L13.1108333,13.9889775 C13.0836567,14.0741541 13.000875,14.1316539 12.9081007,14.1298383 C12.8153265,14.1279351 12.7351166,14.0671688 12.7116667,13.9809775 L12.7116667,13.9809775 L10.7116667,6.83857751 C10.5506835,6.32905652 10.0544083,5.98599175 9.5,6.00097751 L9.5,6.00097751 L9.37334243,6.00345296 C8.8717434,6.03799492 8.43655349,6.36408695 8.285,6.83297751 C8.02916667,7.73217751 7.8275,8.49857751 7.65583333,9.14897751 C6.905,12.0009775 6.84083333,12.0009775 6.06166667,12.0009775 L2,12.0009775 C1.99930964,6.69904391 6.4759025,2.40044025 11.99875,2.39977751 Z" id="ðŸ–-Color" fill="#5A5A5A"></path>
        <rect id="_Transparent_Rectangle_" x="0" y="0" width="24" height="24"></rect>
    </g>
</svg>