<svg width="24" height="24" viewBox="0 0 24 24" fill="none" xmlns="http://www.w3.org/2000/svg">
<g id="graph_stats_square">
<path id="Shape" fill-rule="evenodd" clip-rule="evenodd" d="M7.61667 8.4C6.895 12.1925 6.74667 12.4425 6.06167 12.4425L2.41667 12.4417C2.18655 12.4417 2 12.2551 2 12.025V4.08333C2 2.93274 2.93274 2 4.08333 2H19.9167C20.4692 2 20.9991 2.21949 21.3898 2.61019C21.7805 3.0009 22 3.5308 22 4.08333V12.025C22 12.2551 21.8135 12.4417 21.5833 12.4417H18.1283C17.5692 12.4417 17.3725 12.1017 16.8725 10.75C16.785 10.5117 16.6942 10.2667 16.595 10.0167C16.3938 9.51001 15.8874 9.19219 15.3437 9.23126C14.7999 9.27033 14.3442 9.65728 14.2175 10.1875L13.3342 13.87C13.2886 14.0599 13.1174 14.1927 12.9222 14.1895C12.7269 14.1863 12.5601 14.0479 12.5208 13.8567L10.7208 5.07917C10.6001 4.49946 10.0892 4.08399 9.49708 4.08399C8.90494 4.08399 8.39405 4.49946 8.27333 5.07917C8.01053 6.33804 7.80536 7.41216 7.63093 8.32536L7.61667 8.4ZM16 12.8858C16.4213 13.663 17.2447 14.1363 18.1283 14.1092L21.5833 14.1083C21.8135 14.1083 22 14.2949 22 14.525V19.9167C22 20.4692 21.7805 20.9991 21.3898 21.3898C20.9991 21.7805 20.4692 22 19.9167 22H4.08333C3.5308 22 3.0009 21.7805 2.61019 21.3898C2.21949 20.9991 2 20.4692 2 19.9167V14.5258C2 14.2957 2.18655 14.1092 2.41667 14.1092H6.06167C6.33703 14.1135 6.61173 14.0807 6.87833 14.0117C7.70923 13.6941 8.319 12.9723 8.49333 12.1C8.75612 11.2638 8.96461 10.4114 9.1175 9.54833C9.15511 9.35375 9.32459 9.21258 9.52277 9.21076C9.72095 9.20894 9.89299 9.34697 9.93417 9.54083L11.6417 17.8583C11.7578 18.4339 12.2589 18.8511 12.8461 18.8609C13.4332 18.8708 13.948 18.4706 14.0833 17.8992L15.25 13.0225C15.2885 12.862 15.4181 12.7394 15.5805 12.7098C15.7428 12.6802 15.9074 12.7492 16 12.8858Z" fill="#5A5A5A"/>
</g>
</svg>
