<svg width="24" height="24" viewBox="0 0 24 24" fill="none" xmlns="http://www.w3.org/2000/svg">
<g id="graph_stats_circle">
<path id="Shape" fill-rule="evenodd" clip-rule="evenodd" d="M7.65583 9.14898C6.905 12.001 6.84083 12.001 6.06167 12.001H2C1.99931 6.69905 6.4759 2.40044 11.9987 2.39978C17.5216 2.39912 21.9993 6.69665 22 11.9986H18.1292C17.4208 11.9986 17.28 11.777 16.7958 10.8402C16.7381 10.7216 16.6722 10.5993 16.6046 10.4741C16.5893 10.4456 16.5738 10.417 16.5583 10.3882C16.3171 9.97489 15.8479 9.73361 15.3558 9.76978C14.8471 9.78555 14.4009 10.0999 14.2325 10.561L13.1108 13.989C13.0837 14.0742 13.0009 14.1317 12.9081 14.1298C12.8153 14.1279 12.7351 14.0672 12.7117 13.981L10.7117 6.83858C10.5507 6.32906 10.0544 5.98599 9.5 6.00098C8.94624 5.98464 8.44918 6.32502 8.285 6.83298C8.03712 7.70423 7.84009 8.45081 7.67193 9.08799L7.65583 9.14898ZM15.75 12.3474C16.2291 13.1662 17.1515 13.6524 18.1283 13.601H21.86C21.0464 18.2196 16.8794 21.6002 12 21.6002C7.1206 21.6002 2.95362 18.2196 2.14 13.601H6.06167C6.9816 13.6766 7.86189 13.226 8.30917 12.4506C8.78229 11.4975 9.11869 10.4872 9.30917 9.44738C9.33082 9.358 9.41307 9.29423 9.50865 9.29272C9.60423 9.2912 9.68862 9.35233 9.71333 9.44098L11.65 16.3642C11.8211 16.8592 12.2989 17.1969 12.8421 17.2068C13.3854 17.2167 13.8761 16.8967 14.0667 16.4082L15.38 12.397C15.4039 12.3238 15.4695 12.2704 15.5486 12.2598C15.6278 12.2492 15.7062 12.2833 15.75 12.3474Z" fill="#5A5A5A"/>
</g>
</svg>
