<svg width="24" height="24" viewBox="0 0 24 24" fill="none" xmlns="http://www.w3.org/2000/svg">
<g id="graph_stats_descend">
<path id="Shape" fill-rule="evenodd" clip-rule="evenodd" d="M7.766 13.4421C8.88749 14.5044 10.6523 14.4762 11.7393 13.3786L13.549 11.5697C13.7085 11.4106 13.9667 11.4106 14.1263 11.5697L17.1498 14.5932C17.1883 14.6314 17.21 14.6834 17.21 14.7376C17.21 14.7918 17.1883 14.8437 17.1498 14.8819L15.7108 16.3209C15.4768 16.5539 15.4064 16.9051 15.5324 17.2104C15.6585 17.5157 15.9561 17.7149 16.2864 17.715H21.184C21.6345 17.7145 21.9995 17.3494 22 16.899V12.0149C21.9994 11.6853 21.8008 11.3884 21.4964 11.262C21.192 11.1356 20.8414 11.2045 20.6076 11.4368L19.1737 12.8656C19.1356 12.9039 19.0838 12.9254 19.0298 12.9254C18.9758 12.9254 18.924 12.9039 18.8859 12.8656L15.8547 9.83785C14.7243 8.75857 12.9451 8.75857 11.8146 9.83785L10.0057 11.6476C9.84996 11.8038 9.5981 11.8076 9.43775 11.656L4.0619 6.61624C3.56871 6.15366 2.7939 6.17848 2.33133 6.67168C1.86875 7.16488 1.89357 7.93968 2.38677 8.40226L7.766 13.4421Z" fill="#5A5A5A"/>
</g>
</svg>
