<svg width="24" height="24" viewBox="0 0 24 24" fill="none" xmlns="http://www.w3.org/2000/svg">
<g id="graph_stats_ascend">
<path id="Shape" fill-rule="evenodd" clip-rule="evenodd" d="M3.22221 17.7149C3.53335 17.7155 3.83294 17.5971 4.05954 17.3839L9.43829 12.3387C9.59839 12.1872 9.85004 12.191 10.0055 12.3472L11.8148 14.1573C12.9456 15.2368 14.7252 15.2368 15.8559 14.1573L18.8843 11.1288C18.9225 11.0906 18.9743 11.0691 19.0283 11.0691C19.0823 11.0691 19.1341 11.0906 19.1722 11.1288L20.6064 12.558C20.7596 12.7104 20.9669 12.7959 21.183 12.7959C21.6337 12.7954 21.9991 12.4304 22 11.9797V7.10133C21.9995 6.65044 21.6339 6.28516 21.183 6.28516H16.2851C15.9535 6.28388 15.6541 6.48339 15.5275 6.78995C15.401 7.0965 15.4726 7.44914 15.7086 7.68213L17.1479 9.12143C17.1862 9.15987 17.2078 9.21191 17.208 9.26621C17.2082 9.32033 17.1865 9.37223 17.1479 9.41014L14.1236 12.4352C13.9637 12.5934 13.7062 12.5934 13.5462 12.4352L11.7361 10.6251C10.6505 9.52856 8.88857 9.49776 7.76532 10.5557L2.38487 15.5966C2.01987 15.9406 1.90144 16.4724 2.08595 16.9388C2.27046 17.4052 2.72063 17.712 3.22221 17.7132V17.7149Z" fill="#5A5A5A"/>
</g>
</svg>
