<?xml version="1.0" encoding="UTF-8"?>
<svg width="24px" height="24px" viewBox="0 0 24 24" version="1.1" xmlns="http://www.w3.org/2000/svg" xmlns:xlink="http://www.w3.org/1999/xlink">
    <title>1. Interface Essentials/graph_stats_ascend</title>
    <g id="1.-Interface-Essentials/graph_stats_ascend" stroke="none" stroke-width="1" fill="none" fill-rule="evenodd">
        <path d="M3.22220736,17.7148742 C3.53335032,17.7154956 3.83294152,17.5970525 4.05954164,17.3838327 L9.43829256,12.3386608 C9.5983924,12.1872025 9.85003792,12.1909584 10.0055463,12.3471273 L11.8148318,14.1572594 C12.9455618,15.2367792 14.7251498,15.2367792 15.8558798,14.1572594 L18.8843376,11.1288017 C18.9224642,11.0905425 18.9742546,11.0690375 19.0282676,11.0690375 C19.0822807,11.0690375 19.1340711,11.0905425 19.1721977,11.1288017 L20.6064184,12.5579425 C20.7595835,12.7103714 20.966897,12.7959149 21.1829853,12.7958504 C21.6336867,12.7953848 21.9990671,12.430383 22,11.9796823 L22,7.10130001 C21.9995328,6.6504059 21.6338796,6.28512576 21.1829853,6.28512576 L16.2851301,6.28512576 C15.9534951,6.28384756 15.6540555,6.48336335 15.5275324,6.78991724 C15.4010092,7.09647112 15.4725614,7.44910534 15.7085632,7.68210013 L17.1478638,9.1214007 C17.1862218,9.15983573 17.2078294,9.21187668 17.2079757,9.26617741 C17.2081686,9.3202975 17.1864914,9.37220067 17.1478638,9.41010747 L14.1236393,12.4351786 C13.9636649,12.593352 13.7062001,12.593352 13.5462257,12.4351786 L11.7360936,10.6250465 C10.6505061,9.5285317 8.8885725,9.49772604 7.7653173,10.5556214 L2.38487309,15.59656 C2.01986905,15.9405801 1.9014371,16.4723439 2.08594701,16.9387491 C2.27045692,17.4051544 2.72063354,17.7119766 3.22220736,17.7131785 L3.22220736,17.7148742 Z" id="ðŸ–-Color" fill="#5A5A5A"></path>
        <rect id="_Transparent_Rectangle_" x="0" y="0" width="24" height="24"></rect>
    </g>
</svg>