<?xml version="1.0" encoding="UTF-8"?>
<svg width="24px" height="24px" viewBox="0 0 24 24" version="1.1" xmlns="http://www.w3.org/2000/svg" xmlns:xlink="http://www.w3.org/1999/xlink">
    <title>1. Interface Essentials/graph_stats_square</title>
    <g id="1.-Interface-Essentials/graph_stats_square" stroke="none" stroke-width="1" fill="none" fill-rule="evenodd">
        <path d="M9.52276762,9.21074373 C9.7209486,9.20894149 9.8929858,9.3469696 9.93416667,9.54083333 L9.93416667,9.54083333 L11.6416667,17.8583333 C11.7578029,18.4339463 12.2589444,18.8511202 12.8460743,18.8609391 C13.4332042,18.870758 13.9480149,18.4705745 14.0833333,17.8991667 L14.0833333,17.8991667 L15.25,13.0225 C15.2885065,12.8620167 15.4181062,12.739386 15.5804709,12.7097995 C15.7428356,12.6802131 15.9073609,12.7492477 16,12.8858333 C16.4212836,13.663025 17.2447219,14.1363246 18.1283333,14.1091667 L18.1283333,14.1091667 L21.5833333,14.1083333 C21.813452,14.1083333 22,14.2948814 22,14.525 L22,14.525 L22,19.9166667 C22,20.469201 21.7805066,20.999105 21.3898058,21.3898058 C20.999105,21.7805066 20.469201,22 19.9166667,22 L19.9166667,22 L4.08333333,22 C3.53079898,22 3.00089499,21.7805066 2.61019421,21.3898058 C2.21949342,20.999105 2,20.469201 2,19.9166667 L2,19.9166667 L2,14.5258333 C2,14.2957147 2.18654802,14.1091667 2.41666667,14.1091667 L2.41666667,14.1091667 L6.06166667,14.1091667 C6.33703297,14.1135044 6.61172773,14.0807092 6.87833333,14.0116667 C7.70922605,13.6940574 8.31899628,12.9722757 8.49333333,12.1 C8.75611968,11.2637728 8.96460939,10.4114423 9.1175,9.54833333 C9.15511346,9.35374598 9.32458665,9.21258155 9.52276762,9.21074373 Z M19.9166667,2 C20.469201,2 20.999105,2.21949342 21.3898058,2.61019421 C21.7805066,3.00089499 22,3.53079898 22,4.08333333 L22,4.08333333 L22,12.025 C22,12.2551186 21.813452,12.4416667 21.5833333,12.4416667 L21.5833333,12.4416667 L18.1283333,12.4416667 C17.5691667,12.4416667 17.3725,12.1016667 16.8725,10.75 C16.785,10.5116667 16.6941667,10.2666667 16.595,10.0166667 C16.3937836,9.51001096 15.8874254,9.19218953 15.3436777,9.23126008 C14.79993,9.27033063 14.3442127,9.65728121 14.2175,10.1875 L14.2175,10.1875 L13.3341667,13.87 C13.2886434,14.0598698 13.1173783,14.1926641 12.9221536,14.1895203 C12.7269289,14.1862633 12.5601086,14.0479266 12.5208333,13.8566667 L12.5208333,13.8566667 L10.7208333,5.07916667 C10.6001196,4.49946188 10.0892231,4.08399197 9.49708333,4.08399197 C8.90494362,4.08399197 8.39404708,4.49946188 8.27333333,5.07916667 C8.00333333,6.3725 7.79416667,7.47083333 7.61666667,8.4 C6.895,12.1925 6.74666667,12.4425 6.06166667,12.4425 L6.06166667,12.4425 L2.41666667,12.4416667 C2.18654802,12.4416667 2,12.2551186 2,12.025 L2,12.025 L2,4.08333333 C2,2.9327401 2.9327401,2 4.08333333,2 L4.08333333,2 Z" id="ðŸ–-Color" fill="#5A5A5A"></path>
        <rect id="_Transparent_Rectangle_" x="0" y="0" width="24" height="24"></rect>
    </g>
</svg>