<?xml version="1.0" encoding="UTF-8"?>
<svg width="24px" height="24px" viewBox="0 0 24 24" version="1.1" xmlns="http://www.w3.org/2000/svg" xmlns:xlink="http://www.w3.org/1999/xlink">
    <title>1. Interface Essentials/hamburger</title>
    <g id="1.-Interface-Essentials/hamburger" stroke="none" stroke-width="1" fill="none" fill-rule="evenodd">
        <path d="M19.7777778,17.5555556 C21.0050772,17.5555556 22,18.5504783 22,19.7777778 C22,21.0050772 21.0050772,22 19.7777778,22 L4.22222222,22 C2.99492278,22 2,21.0050772 2,19.7777778 C2,18.5504783 2.99492278,17.5555556 4.22222222,17.5555556 L19.7777778,17.5555556 Z M19.7777778,9.77777778 C21.0050772,9.77777778 22,10.7727006 22,12 C22,13.2272994 21.0050772,14.2222222 19.7777778,14.2222222 L4.22222222,14.2222222 C2.99492278,14.2222222 2,13.2272994 2,12 C2,10.7727006 2.99492278,9.77777778 4.22222222,9.77777778 L19.7777778,9.77777778 Z M19.7777778,2 C21.0050772,2 22,2.99492278 22,4.22222222 C22,5.44952167 21.0050772,6.44444444 19.7777778,6.44444444 L4.22222222,6.44444444 C2.99492278,6.44444444 2,5.44952167 2,4.22222222 C2,2.99492278 2.99492278,2 4.22222222,2 L19.7777778,2 Z" id="ðŸ–-Color" fill="#5A5A5A"></path>
        <rect id="_Transparent_Rectangle_" x="0" y="0" width="24" height="24"></rect>
    </g>
</svg>