<svg width="24" height="24" viewBox="0 0 24 24" fill="none" xmlns="http://www.w3.org/2000/svg">
<g id="hamburger">
<path id="Shape" fill-rule="evenodd" clip-rule="evenodd" d="M2 4.22222C2 2.99492 2.99492 2 4.22222 2H19.7778C21.0051 2 22 2.99492 22 4.22222C22 5.44952 21.0051 6.44444 19.7778 6.44444H4.22222C2.99492 6.44444 2 5.44952 2 4.22222ZM2 12C2 10.7727 2.99492 9.77778 4.22222 9.77778H19.7778C21.0051 9.77778 22 10.7727 22 12C22 13.2273 21.0051 14.2222 19.7778 14.2222H4.22222C2.99492 14.2222 2 13.2273 2 12ZM4.22222 17.5556C2.99492 17.5556 2 18.5505 2 19.7778C2 21.0051 2.99492 22 4.22222 22H19.7778C21.0051 22 22 21.0051 22 19.7778C22 18.5505 21.0051 17.5556 19.7778 17.5556H4.22222Z" fill="#5A5A5A"/>
</g>
</svg>
