<?xml version="1.0" encoding="UTF-8"?>
<svg width="24px" height="24px" viewBox="0 0 24 24" version="1.1" xmlns="http://www.w3.org/2000/svg" xmlns:xlink="http://www.w3.org/1999/xlink">
    <title>1. Interface Essentials/hand_drag</title>
    <g id="1.-Interface-Essentials/hand_drag" stroke="none" stroke-width="1" fill="none" fill-rule="evenodd">
        <path d="M20,5.71444356 C19.7604258,5.71040012 19.5227486,5.75754592 19.3028571,5.85272927 C19.1985832,5.89791205 19.1311882,6.00080162 19.1314286,6.11444356 L19.1314286,8.99444356 C19.1314286,9.31003484 18.8755913,9.56587213 18.56,9.56587213 C18.2444087,9.56587213 17.9885714,9.31003484 17.9885714,8.99444356 L17.9885714,5.29387213 C17.918349,4.2464219 17.0497971,3.43178007 16,3.42872927 C15.7604258,3.42468583 15.5227486,3.47183163 15.3028571,3.56701498 C15.1985832,3.61219777 15.1311882,3.71508734 15.1314286,3.82872927 L15.1314286,8.42301498 C15.1314286,8.73860627 14.8755913,8.99444356 14.56,8.99444356 C14.2444087,8.99444356 13.9885714,8.73860627 13.9885714,8.42301498 L13.9885714,4.15101498 C13.918349,3.10356476 13.0497971,2.28892293 12,2.28587213 C11.7604258,2.28182869 11.5227486,2.32897449 11.3028571,2.42415784 C11.1985832,2.46934062 11.1311882,2.57223019 11.1314286,2.68587213 L11.1314286,7.85158641 C11.1314286,8.1671777 10.8755913,8.42301498 10.56,8.42301498 C10.2444087,8.42301498 9.98857143,8.1671777 9.98857143,7.85158641 L9.98857143,5.29387213 C9.91581756,4.22042242 9.00556342,3.3976708 7.93024488,3.43341205 C6.85492634,3.46915329 6.00131378,4.350532 6,5.42644356 L5.98857143,13.4024436 C5.98857143,13.7180348 5.73273414,13.9738721 5.41714286,13.9738721 C5.10155157,13.9738721 4.84571429,13.7180348 4.84571429,13.4024436 L4.84571429,8.28358641 C4.84571429,8.12579077 4.71779564,7.99787213 4.56,7.99787213 L4,7.99787213 C2.89595267,7.99913174 2.00125961,8.8938248 2,9.99787213 L2,14.5693007 C2,16.983015 5.57485714,21.7121578 9.89714286,21.7121578 L16,21.7121578 C19.312142,21.708379 21.9962212,19.0242998 22,15.7121578 L22,7.71215784 C21.9974821,6.60900324 21.1031568,5.71569999 20,5.71444356 Z" id="ðŸ–-Color" fill="#5A5A5A"></path>
        <rect id="_Transparent_Rectangle_" x="0" y="0" width="24" height="24"></rect>
    </g>
</svg>