<svg width="24" height="24" viewBox="0 0 24 24" fill="none" xmlns="http://www.w3.org/2000/svg">
<g id="hand_drag">
<path id="Shape" fill-rule="evenodd" clip-rule="evenodd" d="M20 5.71446C19.7604 5.71041 19.5227 5.75756 19.3029 5.85274C19.1986 5.89792 19.1312 6.00081 19.1314 6.11446V8.99446C19.1314 9.31005 18.8756 9.56588 18.56 9.56588C18.2444 9.56588 17.9886 9.31005 17.9886 8.99446V5.29388C17.9183 4.24643 17.0498 3.43179 16 3.42874C15.7604 3.4247 15.5227 3.47184 15.3029 3.56703C15.1986 3.61221 15.1312 3.7151 15.1314 3.82874V8.42303C15.1314 8.73862 14.8756 8.99446 14.56 8.99446C14.2444 8.99446 13.9886 8.73862 13.9886 8.42303V4.15103C13.9183 3.10358 13.0498 2.28894 12 2.28588C11.7604 2.28184 11.5227 2.32899 11.3029 2.42417C11.1986 2.46935 11.1312 2.57224 11.1314 2.68588V7.8516C11.1314 8.16719 10.8756 8.42303 10.56 8.42303C10.2444 8.42303 9.98857 8.16719 9.98857 7.8516V5.29388C9.91582 4.22043 9.00556 3.39768 7.93024 3.43342C6.85493 3.46917 6.00131 4.35054 6 5.42646L5.98857 13.4025C5.98857 13.718 5.73273 13.9739 5.41714 13.9739C5.10155 13.9739 4.84571 13.718 4.84571 13.4025V8.2836C4.84571 8.1258 4.7178 7.99788 4.56 7.99788H4C2.89595 7.99914 2.00126 8.89384 2 9.99788V14.5693C2 16.983 5.57486 21.7122 9.89714 21.7122H16C19.3121 21.7084 21.9962 19.0243 22 15.7122V7.71217C21.9975 6.60902 21.1032 5.71571 20 5.71446Z" fill="#5A5A5A"/>
</g>
</svg>
