<svg width="24" height="24" viewBox="0 0 24 24" fill="none" xmlns="http://www.w3.org/2000/svg">
<g id="headphones_customer_support">
<path id="Shape" fill-rule="evenodd" clip-rule="evenodd" d="M22 13.9541C22.0005 12.2995 20.9985 10.8248 19.5004 10.275V9.61447C19.5004 5.30044 16.1431 1.80322 12.0016 1.80322C7.86013 1.80322 4.50281 5.30044 4.50281 9.61447V10.275C3.00309 10.8257 2 12.302 2 13.9584C2 15.6148 3.00309 17.0911 4.50281 17.6418C4.88614 17.783 5.31143 17.7211 5.64295 17.4759C5.97447 17.2308 6.17078 16.8329 6.16921 16.4094V9.61447C6.16921 7.44393 7.28086 5.43827 9.08541 4.35301C10.89 3.26774 13.1133 3.26774 14.9178 4.35301C16.7224 5.43827 17.834 7.44393 17.834 9.61447V16.4094C17.8376 16.7745 17.9889 17.1212 18.2506 17.3641V17.8571C18.2506 19.1364 17.1749 19.5929 16.1676 19.5929H14.6862C14.3091 18.9125 13.5403 18.5808 12.8117 18.7841C12.0832 18.9875 11.5766 19.6752 11.5766 20.4608C11.5766 21.2465 12.0832 21.9342 12.8117 22.1375C13.5403 22.3408 14.3091 22.0091 14.6862 21.3287H16.1676C18.3747 21.3287 19.917 19.901 19.917 17.8571V17.4422C21.1897 16.7845 21.9962 15.434 22 13.9541Z" fill="#5A5A5A"/>
</g>
</svg>
