<?xml version="1.0" encoding="UTF-8"?>
<svg width="24px" height="24px" viewBox="0 0 24 24" version="1.1" xmlns="http://www.w3.org/2000/svg" xmlns:xlink="http://www.w3.org/1999/xlink">
    <title>1. Interface Essentials/headphones_customer_support</title>
    <g id="1.-Interface-Essentials/headphones_customer_support" stroke="none" stroke-width="1" fill="none" fill-rule="evenodd">
        <path d="M22,13.954035 C22.0004636,12.2994785 20.9985169,10.8247381 19.5004009,10.2749378 L19.5004009,9.61445349 C19.5004008,5.30042106 16.1430751,1.80320682 12.0016039,1.80320682 C7.86013281,1.80320682 4.50280708,5.30042106 4.50280702,9.61445349 L4.50280702,10.2749378 C3.00309061,10.8256664 2,12.3019371 2,13.9583746 C2,15.6148121 3.00309061,17.0910829 4.50280702,17.6418114 C4.88613514,17.7829889 5.31143243,17.7211089 5.64295248,17.4759221 C5.97447253,17.2307354 6.17077585,16.8328901 6.16920634,16.4093703 L6.16920634,9.61445349 C6.16920631,7.44391705 7.280855,5.43825864 9.08540512,4.35299041 C10.8899552,3.26772217 13.1132527,3.26772217 14.9178028,4.35299041 C16.7223529,5.43825864 17.8340016,7.44391705 17.8340015,9.61445349 L17.8340015,16.4093703 C17.8376194,16.7745145 17.9888759,17.1211441 18.2506014,17.3640782 L18.2506014,17.8570547 C18.2506014,19.1363633 17.1749406,19.5928873 16.1676022,19.5928873 L14.6861732,19.5928873 C14.3090623,18.9124964 13.5402555,18.5807775 12.8117332,18.7841181 C12.0832109,18.9874587 11.5766298,19.6751559 11.5766298,20.4608036 C11.5766298,21.2464513 12.0832109,21.9341486 12.8117332,22.1374892 C13.5402555,22.3408298 14.3090623,22.0091108 14.6861732,21.3287199 L16.1676022,21.3287199 C18.3747481,21.3287199 19.9170007,19.9009976 19.9170007,17.8570547 L19.9170007,17.4421907 C21.189683,16.7844607 21.996168,15.4339343 22,13.954035 Z" id="ðŸ–-Color" fill="#5A5A5A"></path>
        <rect id="_Transparent_Rectangle_" x="0" y="0" width="24" height="24"></rect>
    </g>
</svg>