<svg width="24" height="24" viewBox="0 0 24 24" fill="none" xmlns="http://www.w3.org/2000/svg">
<g id="help">
<path id="Shape" fill-rule="evenodd" clip-rule="evenodd" d="M12 2C6.47715 2 2 6.47715 2 12C2 17.5228 6.47715 22 12 22C17.5228 22 22 17.5228 22 12C21.994 6.47963 17.5204 2.00597 12 2ZM12 17.8333C11.3096 17.8333 10.75 17.2737 10.75 16.5833C10.75 15.893 11.3096 15.3333 12 15.3333C12.6904 15.3333 13.25 15.893 13.25 16.5833C13.25 17.2737 12.6904 17.8333 12 17.8333ZM13.3333 12.7667C13.0295 12.8993 12.8332 13.1993 12.8333 13.5308C12.8333 13.9911 12.4602 14.3642 12 14.3642C11.5398 14.3642 11.1667 13.9911 11.1667 13.5308C11.1665 12.5366 11.7555 11.6368 12.6667 11.2392C13.4297 10.9062 13.8299 10.0612 13.6043 9.25984C13.3786 8.45849 12.5962 7.94659 11.7715 8.06071C10.9469 8.17483 10.3329 8.87998 10.3333 9.7125C10.3333 10.1727 9.96024 10.5458 9.5 10.5458C9.03976 10.5458 8.66667 10.1727 8.66667 9.7125C8.66664 8.04768 9.89497 6.6381 11.5442 6.41043C13.1933 6.18276 14.7576 7.20682 15.2087 8.80938C15.6597 10.4119 14.8592 12.1016 13.3333 12.7675V12.7667Z" fill="#5A5A5A"/>
</g>
</svg>
