<svg width="24" height="24" viewBox="0 0 24 24" fill="none" xmlns="http://www.w3.org/2000/svg">
<g id="icon_list">
<path id="Shape" fill-rule="evenodd" clip-rule="evenodd" d="M16.1667 2H19.5C20.8807 2 22 3.11929 22 4.5V7.83333C22 9.21405 20.8807 10.3333 19.5 10.3333H16.1667C14.786 10.3333 13.6667 9.21405 13.6667 7.83333V4.5C13.6667 3.11929 14.786 2 16.1667 2ZM19.5 8.66667C19.9602 8.66667 20.3333 8.29357 20.3333 7.83333V7.83C20.3333 8.29024 19.9602 8.66333 19.5 8.66333H16.1667C15.7064 8.66333 15.3333 8.29024 15.3333 7.83V7.83333C15.3333 8.29357 15.7064 8.66667 16.1667 8.66667H19.5ZM4.5 8.66667C4.03976 8.66667 3.66667 8.29357 3.66667 7.83333V7.83C3.66667 8.29024 4.03976 8.66333 4.5 8.66333H7.83333C8.29357 8.66333 8.66667 8.29024 8.66667 7.83V7.83333C8.66667 8.29357 8.29357 8.66667 7.83333 8.66667H4.5ZM7.83333 13.6667H4.5C3.11929 13.6667 2 14.786 2 16.1667V19.5C2 20.8807 3.11929 22 4.5 22H7.83333C9.21405 22 10.3333 20.8807 10.3333 19.5V16.1667C10.3333 14.786 9.21405 13.6667 7.83333 13.6667ZM8.66667 19.5C8.66667 19.9602 8.29357 20.3333 7.83333 20.3333H4.5C4.03976 20.3333 3.66667 19.9602 3.66667 19.5V19.4967C3.66667 19.9569 4.03976 20.33 4.5 20.33H7.83333C8.29357 20.33 8.66667 19.9569 8.66667 19.4967V19.5ZM4.5 2H7.83333C9.21405 2 10.3333 3.11929 10.3333 4.5V7.83333C10.3333 9.21405 9.21405 10.3333 7.83333 10.3333H4.5C3.11929 10.3333 2 9.21405 2 7.83333V4.5C2 3.11929 3.11929 2 4.5 2ZM16.1667 13.6667H19.5C20.8807 13.6667 22 14.786 22 16.1667V19.5C22 20.8807 20.8807 22 19.5 22H16.1667C14.786 22 13.6667 20.8807 13.6667 19.5V16.1667C13.6667 14.786 14.786 13.6667 16.1667 13.6667ZM19.5 20.3333C19.9602 20.3333 20.3333 19.9602 20.3333 19.5V19.4967C20.3333 19.9569 19.9602 20.33 19.5 20.33H16.1667C15.7064 20.33 15.3333 19.9569 15.3333 19.4967V19.5C15.3333 19.9602 15.7064 20.3333 16.1667 20.3333H19.5Z" fill="#5A5A5A"/>
</g>
</svg>
