<?xml version="1.0" encoding="UTF-8"?>
<svg width="24px" height="24px" viewBox="0 0 24 24" version="1.1" xmlns="http://www.w3.org/2000/svg" xmlns:xlink="http://www.w3.org/1999/xlink">
    <title>1. Interface Essentials/icon_list</title>
    <g id="1.-Interface-Essentials/icon_list" stroke="none" stroke-width="1" fill="none" fill-rule="evenodd">
        <path d="M7.83333333,13.6666667 C9.15881673,13.6666667 10.243372,14.6982026 10.3280157,16.002291 L10.3333333,16.1666667 L10.3333333,19.5 C10.3333333,20.8254834 9.3017974,21.9100387 7.99770902,21.9946823 L7.83333333,22 L4.5,22 C3.1745166,22 2.08996133,20.9684641 2.00531768,19.6643757 L2,19.5 L2,16.1666667 C2,14.8411833 3.03153594,13.756628 4.33562431,13.6719843 L4.5,13.6666667 L7.83333333,13.6666667 Z M19.5,13.6666667 C20.8254834,13.6666667 21.9100387,14.6982026 21.9946823,16.002291 L22,16.1666667 L22,19.5 C22,20.8254834 20.9684641,21.9100387 19.6643757,21.9946823 L19.5,22 L16.1666667,22 C14.8411833,22 13.756628,20.9684641 13.6719843,19.6643757 L13.6666667,19.5 L13.6666667,16.1666667 C13.6666667,14.8411833 14.6982026,13.756628 16.002291,13.6719843 L16.1666667,13.6666667 L19.5,13.6666667 Z M7.83333333,2 C9.15881673,2 10.243372,3.03153594 10.3280157,4.33562431 L10.3333333,4.5 L10.3333333,7.83333333 C10.3333333,9.15881673 9.3017974,10.243372 7.99770902,10.3280157 L7.83333333,10.3333333 L4.5,10.3333333 C3.1745166,10.3333333 2.08996133,9.3017974 2.00531768,7.99770902 L2,7.83333333 L2,4.5 C2,3.1745166 3.03153594,2.08996133 4.33562431,2.00531768 L4.5,2 L7.83333333,2 Z M19.5,2 C20.8254834,2 21.9100387,3.03153594 21.9946823,4.33562431 L22,4.5 L22,7.83333333 C22,9.15881673 20.9684641,10.243372 19.6643757,10.3280157 L19.5,10.3333333 L16.1666667,10.3333333 C14.8411833,10.3333333 13.756628,9.3017974 13.6719843,7.99770902 L13.6666667,7.83333333 L13.6666667,4.5 C13.6666667,3.1745166 14.6982026,2.08996133 16.002291,2.00531768 L16.1666667,2 L19.5,2 Z" id="ðŸ–-Color" fill="#5A5A5A"></path>
        <rect id="_Transparent_Rectangle_" x="0" y="0" width="24" height="24"></rect>
    </g>
</svg>