<svg width="24" height="24" viewBox="0 0 24 24" fill="none" xmlns="http://www.w3.org/2000/svg">
<g id="indent_left">
<path id="Shape" fill-rule="evenodd" clip-rule="evenodd" d="M9.5 2C9.03976 2 8.66667 2.3731 8.66667 2.83333V21.1667C8.66667 21.6269 9.03976 22 9.5 22C9.96024 22 10.3333 21.6269 10.3333 21.1667V2.83333C10.3333 2.3731 9.96024 2 9.5 2ZM6.33917 9.32583C6.10062 9.08736 5.74185 9.01621 5.43035 9.14559C5.11885 9.27497 4.91606 9.57937 4.91667 9.91667V10.5417C4.91667 10.6567 4.82339 10.75 4.70833 10.75H2.83333C2.3731 10.75 2 11.1231 2 11.5833C2 12.0436 2.3731 12.4167 2.83333 12.4167H4.70833C4.82339 12.4167 4.91667 12.5099 4.91667 12.625V13.25C4.91658 13.587 5.11951 13.8909 5.43083 14.02C5.74231 14.149 6.10085 14.0776 6.33917 13.8392L8.00583 12.1725C8.33115 11.8471 8.33115 11.3196 8.00583 10.9942L6.33917 9.32583ZM12.4167 19.0833H20.75C21.2102 19.0833 21.5833 19.4564 21.5833 19.9167C21.5833 20.3769 21.2102 20.75 20.75 20.75H12.4167C11.9564 20.75 11.5833 20.3769 11.5833 19.9167C11.5833 19.4564 11.9564 19.0833 12.4167 19.0833ZM12.4167 4.08333H21.1667C21.6269 4.08333 22 3.71024 22 3.25C22 2.78976 21.6269 2.41667 21.1667 2.41667H12.4167C11.9564 2.41667 11.5833 2.78976 11.5833 3.25C11.5833 3.71024 11.9564 4.08333 12.4167 4.08333ZM19.0833 8.25H12.4167C11.9564 8.25 11.5833 7.8769 11.5833 7.41667C11.5833 6.95643 11.9564 6.58333 12.4167 6.58333H19.0833C19.5436 6.58333 19.9167 6.95643 19.9167 7.41667C19.9167 7.8769 19.5436 8.25 19.0833 8.25ZM21.1667 10.75H12.4167C11.9564 10.75 11.5833 11.1231 11.5833 11.5833C11.5833 12.0436 11.9564 12.4167 12.4167 12.4167H21.1667C21.6269 12.4167 22 12.0436 22 11.5833C22 11.1231 21.6269 10.75 21.1667 10.75ZM19.0833 16.5833H12.4167C11.9564 16.5833 11.5833 16.2102 11.5833 15.75C11.5833 15.2898 11.9564 14.9167 12.4167 14.9167H19.0833C19.5436 14.9167 19.9167 15.2898 19.9167 15.75C19.9167 16.2102 19.5436 16.5833 19.0833 16.5833Z" fill="#5A5A5A"/>
</g>
</svg>
