<svg width="24" height="24" viewBox="0 0 24 24" fill="none" xmlns="http://www.w3.org/2000/svg">
<g id="indent_right">
<path id="Shape" fill-rule="evenodd" clip-rule="evenodd" d="M14.5 2C14.0398 2 13.6667 2.3731 13.6667 2.83333V21.1667C13.6667 21.6269 14.0398 22 14.5 22C14.9602 22 15.3333 21.6269 15.3333 21.1667V2.83333C15.3333 2.3731 14.9602 2 14.5 2ZM22 11.5833C22 11.1231 21.6269 10.75 21.1667 10.75H19.2917C19.1766 10.75 19.0833 10.6567 19.0833 10.5417V9.91667C19.0833 9.57967 18.8802 9.27589 18.5689 9.14693C18.2575 9.01798 17.8992 9.08924 17.6608 9.3275L15.9942 10.9942C15.6688 11.3196 15.6688 11.8471 15.9942 12.1725L17.6608 13.8392C17.8992 14.0774 18.2575 14.1487 18.5689 14.0197C18.8802 13.8908 19.0833 13.587 19.0833 13.25V12.625C19.0833 12.5099 19.1766 12.4167 19.2917 12.4167H21.1667C21.6269 12.4167 22 12.0436 22 11.5833ZM3.25 19.0833H10.75C11.2102 19.0833 11.5833 19.4564 11.5833 19.9167C11.5833 20.3769 11.2102 20.75 10.75 20.75H3.25C2.78976 20.75 2.41667 20.3769 2.41667 19.9167C2.41667 19.4564 2.78976 19.0833 3.25 19.0833ZM10.75 2.41667H2.83333C2.3731 2.41667 2 2.78976 2 3.25C2 3.71024 2.3731 4.08333 2.83333 4.08333H10.75C11.2102 4.08333 11.5833 3.71024 11.5833 3.25C11.5833 2.78976 11.2102 2.41667 10.75 2.41667ZM4.91667 6.58333H10.75C11.2102 6.58333 11.5833 6.95643 11.5833 7.41667C11.5833 7.8769 11.2102 8.25 10.75 8.25H4.91667C4.45643 8.25 4.08333 7.8769 4.08333 7.41667C4.08333 6.95643 4.45643 6.58333 4.91667 6.58333ZM10.75 10.75H2.83333C2.3731 10.75 2 11.1231 2 11.5833C2 12.0436 2.3731 12.4167 2.83333 12.4167H10.75C11.2102 12.4167 11.5833 12.0436 11.5833 11.5833C11.5833 11.1231 11.2102 10.75 10.75 10.75ZM4.91667 14.9167H10.75C11.2102 14.9167 11.5833 15.2898 11.5833 15.75C11.5833 16.2102 11.2102 16.5833 10.75 16.5833H4.91667C4.45643 16.5833 4.08333 16.2102 4.08333 15.75C4.08333 15.2898 4.45643 14.9167 4.91667 14.9167Z" fill="#5A5A5A"/>
</g>
</svg>
