<?xml version="1.0" encoding="UTF-8"?>
<svg width="24px" height="24px" viewBox="0 0 24 24" version="1.1" xmlns="http://www.w3.org/2000/svg" xmlns:xlink="http://www.w3.org/1999/xlink">
    <title>1. Interface Essentials/indent_right</title>
    <g id="1.-Interface-Essentials/indent_right" stroke="none" stroke-width="1" fill="none" fill-rule="evenodd">
        <path d="M14.5,2 C14.9602373,2 15.3333333,2.37309604 15.3333333,2.83333333 L15.3333333,2.83333333 L15.3333333,21.1666667 C15.3333333,21.626904 14.9602373,22 14.5,22 C14.0397627,22 13.6666667,21.626904 13.6666667,21.1666667 L13.6666667,21.1666667 L13.6666667,2.83333333 C13.6666667,2.37309604 14.0397627,2 14.5,2 Z M10.75,19.0833333 C11.2102373,19.0833333 11.5833333,19.4564294 11.5833333,19.9166667 C11.5833333,20.376904 11.2102373,20.75 10.75,20.75 L10.75,20.75 L3.25,20.75 C2.78976271,20.75 2.41666667,20.376904 2.41666667,19.9166667 C2.41666667,19.4564294 2.78976271,19.0833333 3.25,19.0833333 L3.25,19.0833333 Z M10.75,14.9166667 C11.2102373,14.9166667 11.5833333,15.2897627 11.5833333,15.75 C11.5833333,16.2102373 11.2102373,16.5833333 10.75,16.5833333 L10.75,16.5833333 L4.91666667,16.5833333 C4.45642938,16.5833333 4.08333333,16.2102373 4.08333333,15.75 C4.08333333,15.2897627 4.45642938,14.9166667 4.91666667,14.9166667 L4.91666667,14.9166667 Z M17.6608333,9.3275 C17.8991619,9.0892434 18.2575305,9.01798174 18.5688788,9.14693502 C18.8802271,9.27588829 19.0832614,9.57967009 19.0833333,9.91666667 L19.0833333,9.91666667 L19.0833333,10.5416667 C19.0833333,10.656726 19.1766073,10.75 19.2916667,10.75 L19.2916667,10.75 L21.1666667,10.75 C21.626904,10.75 22,11.123096 22,11.5833333 C22,12.0435706 21.626904,12.4166667 21.1666667,12.4166667 L21.1666667,12.4166667 L19.2916667,12.4166667 C19.1766073,12.4166667 19.0833333,12.5099407 19.0833333,12.625 L19.0833333,12.625 L19.0833333,13.25 C19.0832614,13.5869966 18.8802271,13.8907784 18.5688788,14.0197316 C18.2575305,14.1486849 17.8991619,14.0774233 17.6608333,13.8391667 L17.6608333,13.8391667 L15.9941667,12.1725 C15.6688484,11.8470835 15.6688484,11.3195832 15.9941667,10.9941667 L15.9941667,10.9941667 Z M10.75,10.75 C11.2102373,10.75 11.5833333,11.123096 11.5833333,11.5833333 C11.5833333,12.0435706 11.2102373,12.4166667 10.75,12.4166667 L10.75,12.4166667 L2.83333333,12.4166667 C2.37309604,12.4166667 2,12.0435706 2,11.5833333 C2,11.123096 2.37309604,10.75 2.83333333,10.75 L2.83333333,10.75 Z M10.75,6.58333333 C11.2102373,6.58333333 11.5833333,6.95642938 11.5833333,7.41666667 C11.5833333,7.87690396 11.2102373,8.25 10.75,8.25 L10.75,8.25 L4.91666667,8.25 C4.45642938,8.25 4.08333333,7.87690396 4.08333333,7.41666667 C4.08333333,6.95642938 4.45642938,6.58333333 4.91666667,6.58333333 L4.91666667,6.58333333 Z M10.75,2.41666667 C11.2102373,2.41666667 11.5833333,2.78976271 11.5833333,3.25 C11.5833333,3.71023729 11.2102373,4.08333333 10.75,4.08333333 L10.75,4.08333333 L2.83333333,4.08333333 C2.37309604,4.08333333 2,3.71023729 2,3.25 C2,2.78976271 2.37309604,2.41666667 2.83333333,2.41666667 L2.83333333,2.41666667 Z" id="ðŸ–-Color" fill="#5A5A5A"></path>
        <rect id="_Transparent_Rectangle_" x="0" y="0" width="24" height="24"></rect>
    </g>
</svg>