<?xml version="1.0" encoding="UTF-8"?>
<svg width="24px" height="24px" viewBox="0 0 24 24" version="1.1" xmlns="http://www.w3.org/2000/svg" xmlns:xlink="http://www.w3.org/1999/xlink">
    <title>1. Interface Essentials/indent_left</title>
    <g id="1.-Interface-Essentials/indent_left" stroke="none" stroke-width="1" fill="none" fill-rule="evenodd">
        <path d="M9.5,2 C9.96023729,2 10.3333333,2.37309604 10.3333333,2.83333333 L10.3333333,2.83333333 L10.3333333,21.1666667 C10.3333333,21.626904 9.96023729,22 9.5,22 C9.03976271,22 8.66666667,21.626904 8.66666667,21.1666667 L8.66666667,21.1666667 L8.66666667,2.83333333 C8.66666667,2.37309604 9.03976271,2 9.5,2 Z M20.75,19.0833333 C21.2102373,19.0833333 21.5833333,19.4564294 21.5833333,19.9166667 C21.5833333,20.376904 21.2102373,20.75 20.75,20.75 L20.75,20.75 L12.4166667,20.75 C11.9564294,20.75 11.5833333,20.376904 11.5833333,19.9166667 C11.5833333,19.4564294 11.9564294,19.0833333 12.4166667,19.0833333 L12.4166667,19.0833333 Z M19.0833333,14.9166667 C19.5435706,14.9166667 19.9166667,15.2897627 19.9166667,15.75 C19.9166667,16.2102373 19.5435706,16.5833333 19.0833333,16.5833333 L19.0833333,16.5833333 L12.4166667,16.5833333 C11.9564294,16.5833333 11.5833333,16.2102373 11.5833333,15.75 C11.5833333,15.2897627 11.9564294,14.9166667 12.4166667,14.9166667 L12.4166667,14.9166667 Z M5.43035039,9.1455862 C5.74185029,9.01620516 6.10062371,9.08736133 6.33916667,9.32583333 L6.33916667,9.32583333 L8.00583333,10.9941667 C8.33115162,11.3195832 8.33115162,11.8470835 8.00583333,12.1725 L8.00583333,12.1725 L6.33916667,13.8391667 C6.10084538,14.0776377 5.74231468,14.1490149 5.43083333,14.02 C5.11950772,13.8909197 4.91658186,13.5870243 4.91666667,13.25 L4.91666667,13.25 L4.91666667,12.625 C4.91666667,12.5099407 4.82339266,12.4166667 4.70833333,12.4166667 L4.70833333,12.4166667 L2.83333333,12.4166667 C2.37309604,12.4166667 2,12.0435706 2,11.5833333 C2,11.123096 2.37309604,10.75 2.83333333,10.75 L2.83333333,10.75 L4.70833333,10.75 C4.82339266,10.75 4.91666667,10.656726 4.91666667,10.5416667 L4.91666667,10.5416667 L4.91666667,9.91666667 C4.91606356,9.57936669 5.11885049,9.27496723 5.43035039,9.1455862 Z M21.1666667,10.75 C21.626904,10.75 22,11.123096 22,11.5833333 C22,12.0435706 21.626904,12.4166667 21.1666667,12.4166667 L21.1666667,12.4166667 L12.4166667,12.4166667 C11.9564294,12.4166667 11.5833333,12.0435706 11.5833333,11.5833333 C11.5833333,11.123096 11.9564294,10.75 12.4166667,10.75 L12.4166667,10.75 Z M19.0833333,6.58333333 C19.5435706,6.58333333 19.9166667,6.95642938 19.9166667,7.41666667 C19.9166667,7.87690396 19.5435706,8.25 19.0833333,8.25 L19.0833333,8.25 L12.4166667,8.25 C11.9564294,8.25 11.5833333,7.87690396 11.5833333,7.41666667 C11.5833333,6.95642938 11.9564294,6.58333333 12.4166667,6.58333333 L12.4166667,6.58333333 Z M21.1666667,2.41666667 C21.626904,2.41666667 22,2.78976271 22,3.25 C22,3.71023729 21.626904,4.08333333 21.1666667,4.08333333 L21.1666667,4.08333333 L12.4166667,4.08333333 C11.9564294,4.08333333 11.5833333,3.71023729 11.5833333,3.25 C11.5833333,2.78976271 11.9564294,2.41666667 12.4166667,2.41666667 L12.4166667,2.41666667 Z" id="ðŸ–-Color" fill="#5A5A5A"></path>
        <rect id="_Transparent_Rectangle_" x="0" y="0" width="24" height="24"></rect>
    </g>
</svg>