<?xml version="1.0" encoding="UTF-8"?>
<svg width="24px" height="24px" viewBox="0 0 24 24" version="1.1" xmlns="http://www.w3.org/2000/svg" xmlns:xlink="http://www.w3.org/1999/xlink">
    <title>1. Interface Essentials/info</title>
    <g id="1.-Interface-Essentials/info" stroke="none" stroke-width="1" fill="none" fill-rule="evenodd">
        <path d="M12,2 C6.4771525,2 2,6.4771525 2,12 C2,17.5228475 6.4771525,22 12,22 C17.5228475,22 22,17.5228475 22,12 C21.9938765,6.47969092 17.5203091,2.00612348 12,2 Z M14.3044444,17.3244444 L9.86,17.3244444 C9.39976271,17.3244444 9.02666667,16.9513484 9.02666667,16.4911111 C9.02666667,16.0308738 9.39976271,15.6577778 9.86,15.6577778 L10.9711111,15.6577778 C11.1245235,15.6577778 11.2488889,15.5334124 11.2488889,15.38 L11.2488889,10.9355556 C11.2488889,10.7821431 11.1245235,10.6577778 10.9711111,10.6577778 L9.86,10.6577778 C9.39976271,10.6577778 9.02666667,10.2846817 9.02666667,9.82444444 C9.02666667,9.36420715 9.39976271,8.99111111 9.86,8.99111111 L10.9711111,8.99111111 C12.0444905,8.99233573 12.9143309,9.86217621 12.9155556,10.9355556 L12.9155556,15.38 C12.9155556,15.5334124 13.0399209,15.6577778 13.1933333,15.6577778 L14.3044444,15.6577778 C14.7646817,15.6577778 15.1377778,16.0308738 15.1377778,16.4911111 C15.1377778,16.9513484 14.7646817,17.3244444 14.3044444,17.3244444 L14.3044444,17.3244444 Z M12.0822222,4.82444444 C12.8492844,4.82444444 13.4711111,5.44627118 13.4711111,6.21333333 C13.4711111,6.98039549 12.8492844,7.60222222 12.0822222,7.60222222 C11.3151601,7.60222222 10.6933333,6.98039549 10.6933333,6.21333333 C10.6933333,5.44627118 11.3151601,4.82444444 12.0822222,4.82444444 L12.0822222,4.82444444 Z" id="ðŸ–-Color" fill="#5A5A5A"></path>
        <rect id="_Transparent_Rectangle_" x="0" y="0" width="24" height="24"></rect>
    </g>
</svg>