<svg width="24" height="24" viewBox="0 0 24 24" fill="none" xmlns="http://www.w3.org/2000/svg">
<g id="info">
<path id="Shape" fill-rule="evenodd" clip-rule="evenodd" d="M12 2C6.47715 2 2 6.47715 2 12C2 17.5228 6.47715 22 12 22C17.5228 22 22 17.5228 22 12C21.9939 6.47969 17.5203 2.00612 12 2ZM14.3044 17.3244H9.86C9.39976 17.3244 9.02667 16.9513 9.02667 16.4911C9.02667 16.0309 9.39976 15.6578 9.86 15.6578H10.9711C11.1245 15.6578 11.2489 15.5334 11.2489 15.38V10.9356C11.2489 10.7821 11.1245 10.6578 10.9711 10.6578H9.86C9.39976 10.6578 9.02667 10.2847 9.02667 9.82444C9.02667 9.36421 9.39976 8.99111 9.86 8.99111H10.9711C12.0445 8.99234 12.9143 9.86218 12.9156 10.9356V15.38C12.9156 15.5334 13.0399 15.6578 13.1933 15.6578H14.3044C14.7647 15.6578 15.1378 16.0309 15.1378 16.4911C15.1378 16.9513 14.7647 17.3244 14.3044 17.3244ZM12.0822 4.82444C12.8493 4.82444 13.4711 5.44627 13.4711 6.21333C13.4711 6.9804 12.8493 7.60222 12.0822 7.60222C11.3152 7.60222 10.6933 6.9804 10.6933 6.21333C10.6933 5.44627 11.3152 4.82444 12.0822 4.82444Z" fill="#5A5A5A"/>
</g>
</svg>
