<svg width="24" height="24" viewBox="0 0 24 24" fill="none" xmlns="http://www.w3.org/2000/svg">
<g id="iris_scan_lock">
<path id="Shape" fill-rule="evenodd" clip-rule="evenodd" d="M18.2509 9.91643H17.4175C15.468 9.91801 13.8463 11.416 13.6904 13.3593C13.6829 13.455 13.6109 13.5331 13.5162 13.5485C13.0554 13.6253 12.5891 13.6648 12.1219 13.6668H11.8661C8.25984 13.6668 4.65778 11.2741 2.48088 9.013C1.8415 8.35486 1.8415 7.30755 2.48088 6.64941C4.65945 4.39083 8.25984 1.9989 11.8777 1.9989H12.1219C15.739 1.9989 19.3394 4.39 21.5205 6.64941C22.1608 7.30748 22.1608 8.35576 21.5205 9.01383C21.0825 9.46609 20.6201 9.894 20.1353 10.2956C20.0714 10.3481 19.9827 10.3582 19.9086 10.3215C19.3955 10.0582 18.8276 9.91943 18.2509 9.91643ZM8.66655 7.83287C8.66655 9.67402 10.1591 11.1666 12.0002 11.1666C12.8844 11.1666 13.7323 10.8153 14.3575 10.1902C14.9827 9.56496 15.3339 8.71702 15.3339 7.83287C15.3339 5.99172 13.8414 4.49917 12.0002 4.49917C10.1591 4.49917 8.66655 5.99172 8.66655 7.83287ZM13.2496 7.83287C13.2496 8.5233 12.6898 9.08301 11.9994 9.08301C11.309 9.08301 10.7493 8.5233 10.7493 7.83287C10.7493 7.14244 11.309 6.58274 11.9994 6.58274C12.6898 6.58274 13.2496 7.14244 13.2496 7.83287ZM20.7504 14.7236C20.7502 14.8271 20.8263 14.9149 20.9287 14.9295C21.5443 15.0178 22.0014 15.5452 22.0013 16.1671V20.7509C22.0013 21.4414 21.4416 22.0011 20.7512 22.0011H14.9172C14.2268 22.0011 13.6671 21.4414 13.6671 20.7509V16.1671C13.6669 15.5457 14.1231 15.0185 14.738 14.9295C14.8405 14.9149 14.9166 14.8271 14.9164 14.7236V13.8752C14.9164 12.2642 16.2224 10.9582 17.8334 10.9582C19.4444 10.9582 20.7504 12.2642 20.7504 13.8752V14.7236ZM17.0008 18.8757C17.0008 19.336 17.3739 19.7092 17.8342 19.7092C18.2945 19.7092 18.6676 19.336 18.6676 18.8757C18.6676 18.4155 18.2945 18.0423 17.8342 18.0423C17.3739 18.0423 17.0008 18.4155 17.0008 18.8757ZM19.0844 14.7086C19.0844 14.8237 18.9911 14.917 18.876 14.917H16.7924C16.6774 14.917 16.5841 14.8237 16.5841 14.7086V13.8752C16.5841 13.1848 17.1438 12.6251 17.8342 12.6251C18.5247 12.6251 19.0844 13.1848 19.0844 13.8752V14.7086Z" fill="#5A5A5A"/>
</g>
</svg>
