<?xml version="1.0" encoding="UTF-8"?>
<svg width="24px" height="24px" viewBox="0 0 24 24" version="1.1" xmlns="http://www.w3.org/2000/svg" xmlns:xlink="http://www.w3.org/1999/xlink">
    <title>1. Interface Essentials/iris_scan_approved</title>
    <g id="1.-Interface-Essentials/iris_scan_approved" stroke="none" stroke-width="1" fill="none" fill-rule="evenodd">
        <path d="M16.5840529,11.1665756 C19.5743994,11.1702492 21.9976381,13.593488 22.0013118,16.5838344 C22.0013118,19.5757039 19.5759224,22.0010933 16.5840529,22.0010933 C13.5921835,22.0010933 11.1667941,19.5757039 11.1667941,16.5838344 C11.1667941,13.591965 13.5921835,11.1665756 16.5840529,11.1665756 Z M18.9106533,14.3020681 C18.6150372,14.2664521 18.3228758,14.391251 18.1442235,14.6294541 L18.1442235,14.6294541 L16.0123238,17.4739317 C15.9759847,17.5222249 15.9204665,17.5523594 15.8601716,17.5565176 C15.7998768,17.5606759 15.7407474,17.5384482 15.6981228,17.4956008 L15.6981228,17.4956008 L14.7863564,16.5838344 C14.580675,16.3517867 14.2631719,16.2531133 13.9621942,16.3277017 C13.6612166,16.4022902 13.4265327,16.6378069 13.3530108,16.9390469 C13.279489,17.2402868 13.3792866,17.5574384 13.6120614,17.7622966 L13.6120614,17.7622966 L14.862198,19.0124332 C15.1610643,19.3121185 15.5753168,19.4672892 15.9975217,19.4377029 C16.4197265,19.4081166 16.8082893,19.1966879 17.0624386,18.8582497 L17.0624386,18.8582497 L19.4793694,15.6295634 C19.6563549,15.3913603 19.6943566,15.0759417 19.5773929,14.8021227 C19.4604291,14.5283037 19.2062694,14.337684 18.9106533,14.3020681 Z M12.1218985,1.99890672 C15.7389605,1.99890672 19.3393541,4.39000144 21.5179256,6.6460814 C22.1582815,7.30415269 22.1582815,8.35243524 21.5179256,9.01050653 C20.9709146,9.57721575 20.3861817,10.1062597 19.7677343,10.594013 C19.7043924,10.6437181 19.618081,10.6524791 19.5460434,10.6165154 C18.103295,9.89349586 16.4457817,9.72362372 14.8863673,10.1389632 C14.8005008,10.161821 14.7095865,10.1277079 14.659951,10.0540068 C14.6103156,9.98030559 14.6128823,9.88323593 14.6663433,9.81226085 C15.098753,9.24296515 15.3329229,8.54777343 15.3330828,7.8328778 C15.3330828,5.99172737 13.8405355,4.49918004 11.9993851,4.49918004 C10.1582347,4.49918004 8.66568733,5.99172737 8.66568733,7.8328778 C8.66568733,9.67402823 10.1582347,11.1665756 11.9993851,11.1665756 L11.9993851,11.1665756 L12.0985626,11.1665756 C12.1861866,11.1640537 12.2660177,11.2166465 12.2982843,11.2981523 C12.3305509,11.3796581 12.3083512,11.4726429 12.242745,11.530782 C11.6193146,12.0696036 11.1003419,12.7185314 10.7117443,13.445158 C10.6700701,13.5232827 10.5832622,13.5661839 10.4958874,13.5518363 C7.3688789,13.0567822 4.38355256,10.9865559 2.48084456,9.01300681 C1.84146753,8.35486168 1.84146753,7.30756022 2.48084456,6.6494151 C4.65941605,4.39083486 8.25980963,1.99890672 11.8777051,1.99890672 L11.8777051,1.99890672 Z M11.9993851,6.58274114 C12.6898165,6.58274114 13.2495217,7.14244639 13.2495217,7.8328778 C13.2495217,8.52330921 12.6898165,9.08301446 11.9993851,9.08301446 C11.3089537,9.08301446 10.7492484,8.52330921 10.7492484,7.8328778 C10.7492484,7.14244639 11.3089537,6.58274114 11.9993851,6.58274114 Z" id="ðŸ–-Color" fill="#5A5A5A"></path>
        <rect id="_Transparent_Rectangle_" x="0" y="0" width="24" height="24"></rect>
    </g>
</svg>