<?xml version="1.0" encoding="UTF-8"?>
<svg width="24px" height="24px" viewBox="0 0 24 24" version="1.1" xmlns="http://www.w3.org/2000/svg" xmlns:xlink="http://www.w3.org/1999/xlink">
    <title>1. Interface Essentials/iris_scan_denied</title>
    <g id="1.-Interface-Essentials/iris_scan_denied" stroke="none" stroke-width="1" fill="none" fill-rule="evenodd">
        <path d="M16.5840529,11.1665756 C19.5743994,11.1702492 21.9976381,13.593488 22.0013118,16.5838344 C22.0013118,19.5757039 19.5759224,22.0010933 16.5840529,22.0010933 C13.5921835,22.0010933 11.1667941,19.5757039 11.1667941,16.5838344 C11.1667941,13.591965 13.5921835,11.1665756 16.5840529,11.1665756 Z M18.930825,14.2370624 C18.609345,13.9155824 18.0895332,13.9110654 17.7625151,14.2269101 L17.7625151,14.2269101 L16.7315691,15.2578561 C16.6924797,15.2970445 16.6394037,15.3190686 16.5840529,15.3190686 C16.5287022,15.3190686 16.4756262,15.2970445 16.4365368,15.2578561 L16.4365368,15.2578561 L15.4055908,14.2269101 C15.0785726,13.9110654 14.5587609,13.9155824 14.2372809,14.2370624 C13.9158009,14.5585424 13.9112839,15.0783541 14.2271286,15.4053723 L14.2271286,15.4053723 L15.2580746,16.4363183 C15.297263,16.4754077 15.3192871,16.5284837 15.3192871,16.5838344 C15.3192871,16.6391852 15.297263,16.6922612 15.2580746,16.7313505 L15.2580746,16.7313505 L14.2271286,17.7622966 C14.0104744,17.9715482 13.9235849,18.2814182 13.9998561,18.5728079 C14.0761273,18.8641977 14.3036897,19.09176 14.5950794,19.1680312 C14.8864691,19.2443024 15.1963392,19.1574129 15.4055908,18.9407587 L15.4055908,18.9407587 L16.4365368,17.9098127 C16.4756262,17.8706244 16.5287022,17.8486003 16.5840529,17.8486003 C16.6394037,17.8486003 16.6924797,17.8706244 16.7315691,17.9098127 L16.7315691,17.9098127 L17.7625151,18.9407587 C17.9717667,19.1574129 18.2816367,19.2443024 18.5730265,19.1680312 C18.8644162,19.09176 19.0919785,18.8641977 19.1682497,18.5728079 C19.2445209,18.2814182 19.1576314,17.9715482 18.9409772,17.7622966 L18.9409772,17.7622966 L17.9100312,16.7313505 C17.8700095,16.6922612 17.8479854,16.6391852 17.8479854,16.5838344 C17.8479854,16.5284837 17.8700095,16.4754077 17.9091978,16.4363183 L17.9091978,16.4363183 L18.9409772,15.4053723 C19.2568219,15.0783541 19.2523049,14.5585424 18.930825,14.2370624 Z M12.1218985,1.99890672 C15.7389605,1.99890672 19.3393541,4.39000144 21.5179256,6.6460814 C22.1582815,7.30415269 22.1582815,8.35243524 21.5179256,9.01050653 C20.9709146,9.57721575 20.3861817,10.1062597 19.7677343,10.594013 C19.7043924,10.6437181 19.618081,10.6524791 19.5460434,10.6165154 C18.103295,9.89349586 16.4457817,9.72362372 14.8863673,10.1389632 C14.8005008,10.161821 14.7095865,10.1277079 14.659951,10.0540068 C14.6103156,9.98030559 14.6128823,9.88323593 14.6663433,9.81226085 C15.098753,9.24296515 15.3329229,8.54777343 15.3330828,7.8328778 C15.3330828,5.99172737 13.8405355,4.49918004 11.9993851,4.49918004 C10.1582347,4.49918004 8.66568733,5.99172737 8.66568733,7.8328778 C8.66568733,9.67402823 10.1582347,11.1665756 11.9993851,11.1665756 L11.9993851,11.1665756 L12.0985626,11.1665756 C12.1861866,11.1640537 12.2660177,11.2166465 12.2982843,11.2981523 C12.3305509,11.3796581 12.3083512,11.4726429 12.242745,11.530782 C11.6193146,12.0696036 11.1003419,12.7185314 10.7117443,13.445158 C10.6700701,13.5232827 10.5832622,13.5661839 10.4958874,13.5518363 C7.3688789,13.0567822 4.38355256,10.9865559 2.48084456,9.01300681 C1.84146753,8.35486168 1.84146753,7.30756022 2.48084456,6.6494151 C4.65941605,4.39083486 8.25980963,1.99890672 11.8777051,1.99890672 L11.8777051,1.99890672 Z M11.9993851,6.58274114 C12.6898165,6.58274114 13.2495217,7.14244639 13.2495217,7.8328778 C13.2495217,8.52330921 12.6898165,9.08301446 11.9993851,9.08301446 C11.3089537,9.08301446 10.7492484,8.52330921 10.7492484,7.8328778 C10.7492484,7.14244639 11.3089537,6.58274114 11.9993851,6.58274114 Z" id="ðŸ–-Color" fill="#5A5A5A"></path>
        <rect id="_Transparent_Rectangle_" x="0" y="0" width="24" height="24"></rect>
    </g>
</svg>