<?xml version="1.0" encoding="UTF-8"?>
<svg width="24px" height="24px" viewBox="0 0 24 24" version="1.1" xmlns="http://www.w3.org/2000/svg" xmlns:xlink="http://www.w3.org/1999/xlink">
    <title>1. Interface Essentials/iris_scan_lock</title>
    <g id="1.-Interface-Essentials/iris_scan_lock" stroke="none" stroke-width="1" fill="none" fill-rule="evenodd">
        <path d="M17.8333561,10.9582194 C19.4443628,10.9582194 20.7503417,12.2641984 20.7503417,13.875205 L20.7503417,13.875205 L20.7503417,14.7236311 C20.7501455,14.8271226 20.8262302,14.9149401 20.9286945,14.9294869 C21.5443092,15.0177991 22.0013118,15.5452054 22.0013118,16.1671222 L22.0013118,16.1671222 L22.0013118,20.7509566 C22.0013118,21.4413881 21.4416065,22.0010933 20.7511751,22.0010933 L20.7511751,22.0010933 L14.917204,22.0010933 C14.2267726,22.0010933 13.6670673,21.4413881 13.6670673,20.7509566 L13.6670673,20.7509566 L13.6670673,16.1671222 C13.6668651,15.5457537 14.1230651,15.0185497 14.7380178,14.9294869 C14.840482,14.9149401 14.9165668,14.8271226 14.9163706,14.7236311 L14.9163706,14.7236311 L14.9163706,13.875205 C14.9163706,12.2641984 16.2223495,10.9582194 17.8333561,10.9582194 Z M17.8341896,18.0423272 C17.373902,18.0423272 17.0007651,18.415464 17.0007651,18.8757517 C17.0007651,19.3360393 17.373902,19.7091761 17.8341896,19.7091761 C18.2944772,19.7091761 18.667614,19.3360393 18.667614,18.8757517 C18.667614,18.415464 18.2944772,18.0423272 17.8341896,18.0423272 Z M17.8341896,12.6250683 C17.1437582,12.6250683 16.5840529,13.1847736 16.5840529,13.875205 L16.5840529,13.875205 L16.5840529,14.7086294 C16.5840529,14.8237013 16.6773371,14.9169855 16.792409,14.9169855 L16.792409,14.9169855 L18.8759701,14.9169855 C18.991042,14.9169855 19.0843262,14.8237013 19.0843262,14.7086294 L19.0843262,14.7086294 L19.0843262,13.875205 C19.0843262,13.1847736 18.524621,12.6250683 17.8341896,12.6250683 Z M12.1218984,1.99890669 C15.7389605,1.99890669 19.3393541,4.39000141 21.5204259,6.64941508 C22.1607818,7.30748638 22.1607818,8.35576892 21.5204259,9.01384022 C21.0824703,9.46609102 20.6200598,9.89400154 20.1352745,10.295647 C20.0713841,10.3481311 19.9826447,10.3582447 19.908583,10.3214832 C19.3954847,10.0581995 18.8275986,9.91943998 18.2509018,9.91643889 L18.2509018,9.91643889 L17.4174773,9.91643889 C15.4679704,9.91801287 13.8462764,11.4160491 13.6904032,13.3593153 C13.682826,13.454961 13.6109132,13.5330672 13.5162175,13.5485026 C13.0553684,13.6252644 12.5890925,13.6648407 12.1218984,13.6668489 L12.1218984,13.6668489 L11.8660371,13.6668489 C8.25980957,13.6668489 4.65774913,11.2740873 2.48084449,9.0130068 C1.84146746,8.35486167 1.84146746,7.3075602 2.48084449,6.64941508 C4.65941598,4.39083484 8.25980957,1.99890669 11.8777051,1.99890669 L11.8777051,1.99890669 Z M12.0002185,4.49918002 C10.159068,4.49918002 8.6665207,5.99172735 8.6665207,7.83287779 C8.6665207,9.67402823 10.159068,11.1665756 12.0002185,11.1665756 C12.8843701,11.1665756 13.7323092,10.8153477 14.3574988,10.1901581 C14.9826884,9.56496848 15.3339162,8.71702941 15.3339162,7.83287779 C15.3339162,5.99172735 13.8413689,4.49918002 12.0002185,4.49918002 Z M11.999385,6.58274112 C12.6898165,6.58274112 13.2495217,7.14244637 13.2495217,7.83287779 C13.2495217,8.5233092 12.6898165,9.08301445 11.999385,9.08301445 C11.3089536,9.08301445 10.7492484,8.5233092 10.7492484,7.83287779 C10.7492484,7.14244637 11.3089536,6.58274112 11.999385,6.58274112 Z" id="ðŸ–-Color" fill="#5A5A5A"></path>
        <rect id="_Transparent_Rectangle_" x="0" y="0" width="24" height="24"></rect>
    </g>
</svg>