<svg width="24" height="24" viewBox="0 0 24 24" fill="none" xmlns="http://www.w3.org/2000/svg">
<g id="iris_scan_approved">
<path id="Shape" fill-rule="evenodd" clip-rule="evenodd" d="M12.2428 11.5308C12.3084 11.4726 12.3306 11.3797 12.2983 11.2981C12.266 11.2166 12.1862 11.164 12.0986 11.1666H11.9994C10.1583 11.1666 8.66572 9.67402 8.66572 7.83287C8.66572 5.99172 10.1583 4.49917 11.9994 4.49917C13.8406 4.49917 15.3331 5.99172 15.3331 7.83287C15.333 8.54777 15.0988 9.24296 14.6664 9.81226C14.6129 9.88323 14.6103 9.9803 14.66 10.054C14.7096 10.1277 14.8005 10.1618 14.8864 10.139C16.4458 9.72362 18.1033 9.89349 19.5461 10.6165C19.6181 10.6525 19.7044 10.6437 19.7678 10.594C20.3862 10.1063 20.9709 9.57721 21.518 9.0105C22.1583 8.35243 22.1583 7.30415 21.518 6.64608C19.3394 4.39 15.739 1.9989 12.1219 1.9989H11.8777C8.25984 1.9989 4.65945 4.39083 2.48088 6.64941C1.8415 7.30755 1.8415 8.35486 2.48088 9.013C4.38358 10.9866 7.36891 13.0568 10.4959 13.5518C10.5833 13.5662 10.6701 13.5233 10.7118 13.4452C11.1004 12.7185 11.6193 12.0696 12.2428 11.5308ZM13.2496 7.83287C13.2496 8.5233 12.6898 9.08301 11.9994 9.08301C11.309 9.08301 10.7493 8.5233 10.7493 7.83287C10.7493 7.14244 11.309 6.58274 11.9994 6.58274C12.6898 6.58274 13.2496 7.14244 13.2496 7.83287ZM16.5841 11.1666C13.5922 11.1666 11.1668 13.592 11.1668 16.5838C11.1668 19.5757 13.5922 22.0011 16.5841 22.0011C19.576 22.0011 22.0013 19.5757 22.0013 16.5838C21.9977 13.5935 19.5744 11.1702 16.5841 11.1666ZM19.4794 15.6296L17.0625 18.8582C16.8083 19.1967 16.4198 19.4081 15.9976 19.4377C15.5753 19.4673 15.1611 19.3121 14.8622 19.0124L13.6121 17.7623C13.3793 17.5574 13.2795 17.2403 13.353 16.939C13.4266 16.6378 13.6612 16.4023 13.9622 16.3277C14.2632 16.2531 14.5807 16.3518 14.7864 16.5838L15.6982 17.4956C15.7408 17.5384 15.7999 17.5607 15.8602 17.5565C15.9205 17.5524 15.976 17.5222 16.0124 17.4739L18.1443 14.6294C18.3229 14.3912 18.6151 14.2664 18.9107 14.3021C19.2063 14.3377 19.4605 14.5283 19.5774 14.8021C19.6944 15.0759 19.6564 15.3914 19.4777 15.6296H19.4794Z" fill="#5A5A5A"/>
</g>
</svg>
