<svg width="24" height="24" viewBox="0 0 24 24" fill="none" xmlns="http://www.w3.org/2000/svg">
<g id="iris_scan_denied">
<path id="Shape" fill-rule="evenodd" clip-rule="evenodd" d="M12.2428 11.5308C12.3084 11.4726 12.3306 11.3797 12.2983 11.2981C12.266 11.2166 12.1862 11.164 12.0986 11.1666H11.9994C10.1583 11.1666 8.66572 9.67402 8.66572 7.83287C8.66572 5.99172 10.1583 4.49917 11.9994 4.49917C13.8406 4.49917 15.3331 5.99172 15.3331 7.83287C15.333 8.54777 15.0988 9.24296 14.6664 9.81226C14.6129 9.88323 14.6103 9.9803 14.66 10.054C14.7096 10.1277 14.8005 10.1618 14.8864 10.139C16.4458 9.72362 18.1033 9.89349 19.5461 10.6165C19.6181 10.6525 19.7044 10.6437 19.7678 10.594C20.3862 10.1063 20.9709 9.57721 21.518 9.0105C22.1583 8.35243 22.1583 7.30415 21.518 6.64608C19.3394 4.39 15.739 1.9989 12.1219 1.9989H11.8777C8.25984 1.9989 4.65945 4.39083 2.48088 6.64941C1.8415 7.30755 1.8415 8.35486 2.48088 9.013C4.38358 10.9866 7.36891 13.0568 10.4959 13.5518C10.5833 13.5662 10.6701 13.5233 10.7118 13.4452C11.1004 12.7185 11.6193 12.0696 12.2428 11.5308ZM13.2496 7.83287C13.2496 8.5233 12.6898 9.08301 11.9994 9.08301C11.309 9.08301 10.7493 8.5233 10.7493 7.83287C10.7493 7.14244 11.309 6.58274 11.9994 6.58274C12.6898 6.58274 13.2496 7.14244 13.2496 7.83287ZM16.5841 11.1666C13.5922 11.1666 11.1668 13.592 11.1668 16.5838C11.1668 19.5757 13.5922 22.0011 16.5841 22.0011C19.576 22.0011 22.0013 19.5757 22.0013 16.5838C21.9977 13.5935 19.5744 11.1702 16.5841 11.1666ZM17.9101 16.7313L18.941 17.7623C19.1577 17.9715 19.2446 18.2814 19.1683 18.5728C19.092 18.8642 18.8644 19.0918 18.5731 19.168C18.2817 19.2443 17.9718 19.1574 17.7625 18.9408L16.7316 17.9098C16.6925 17.8706 16.6394 17.8486 16.5841 17.8486C16.5287 17.8486 16.4757 17.8706 16.4366 17.9098L15.4056 18.9408C15.1964 19.1574 14.8865 19.2443 14.5951 19.168C14.3037 19.0918 14.0762 18.8642 13.9999 18.5728C13.9236 18.2814 14.0105 17.9715 14.2272 17.7623L15.2581 16.7313C15.2973 16.6923 15.3193 16.6392 15.3193 16.5838C15.3193 16.5285 15.2973 16.4754 15.2581 16.4363L14.2272 15.4054C13.9113 15.0783 13.9158 14.5585 14.2373 14.2371C14.5588 13.9156 15.0786 13.9111 15.4056 14.2269L16.4366 15.2579C16.4757 15.297 16.5287 15.3191 16.5841 15.3191C16.6394 15.3191 16.6925 15.297 16.7316 15.2579L17.7625 14.2269C18.0896 13.9111 18.6094 13.9156 18.9309 14.2371C19.2523 14.5585 19.2569 15.0783 18.941 15.4054L17.9092 16.4363C17.87 16.4754 17.848 16.5285 17.848 16.5838C17.848 16.6392 17.87 16.6923 17.9092 16.7313H17.9101Z" fill="#5A5A5A"/>
</g>
</svg>
