<svg width="24" height="24" viewBox="0 0 24 24" fill="none" xmlns="http://www.w3.org/2000/svg">
<g id="italic">
<path id="Shape" fill-rule="evenodd" clip-rule="evenodd" d="M20.9362 2H14.4366C13.8491 2 13.3728 2.47629 13.3728 3.06383C13.3728 3.65137 13.8491 4.12766 14.4366 4.12766H15.3609C15.4385 4.12768 15.5099 4.16995 15.5473 4.23796C15.5846 4.30598 15.582 4.38895 15.5404 4.45447L5.85532 19.6757C5.77707 19.7983 5.64162 19.8725 5.49617 19.8723H3.06383C2.47629 19.8723 2 20.3486 2 20.9362C2 21.5237 2.47629 22 3.06383 22H9.5634C10.1509 22 10.6272 21.5237 10.6272 20.9362C10.6272 20.3486 10.1509 19.8723 9.5634 19.8723H8.63915C8.56154 19.8723 8.4901 19.8301 8.45273 19.762C8.41535 19.694 8.41798 19.611 8.45957 19.5455L18.1447 4.32511C18.2227 4.20218 18.3582 4.12769 18.5038 4.12766H20.9362C21.5237 4.12766 22 3.65137 22 3.06383C22 2.47629 21.5237 2 20.9362 2Z" fill="#5A5A5A"/>
</g>
</svg>
