<?xml version="1.0" encoding="UTF-8"?>
<svg width="24px" height="24px" viewBox="0 0 24 24" version="1.1" xmlns="http://www.w3.org/2000/svg" xmlns:xlink="http://www.w3.org/1999/xlink">
    <title>1. Interface Essentials/justified</title>
    <g id="1.-Interface-Essentials/justified" stroke="none" stroke-width="1" fill="none" fill-rule="evenodd">
        <path d="M14.4365957,19.464383 C15.0241327,19.464383 15.5004255,19.9406758 15.5004255,20.5282128 C15.5004255,21.1157497 15.0241327,21.5920426 14.4365957,21.5920426 L3.06382979,21.5920426 C2.47629282,21.5920426 2,21.1157497 2,20.5282128 C2,19.9406758 2.47629282,19.464383 3.06382979,19.464383 L14.4365957,19.464383 Z M20.9361702,13.7767234 C21.5237072,13.7767234 22,14.2530162 22,14.8405532 C22,15.4280902 21.5237072,15.904383 20.9361702,15.904383 L3.06382979,15.904383 C2.47629282,15.904383 2,15.4280902 2,14.8405532 C2,14.2530162 2.47629282,13.7767234 3.06382979,13.7767234 L20.9361702,13.7767234 Z M20.9361702,8.09076596 C21.5237072,8.09076596 22,8.56705878 22,9.15459574 C22,9.74213271 21.5237072,10.2184255 20.9361702,10.2184255 L3.06382979,10.2184255 C2.47629282,10.2184255 2,9.74213271 2,9.15459574 C2,8.56705878 2.47629282,8.09076596 3.06382979,8.09076596 L20.9361702,8.09076596 Z M20.9361702,2.40395745 C21.5237072,2.40395745 22,2.88025027 22,3.46778723 C22,4.0553242 21.5237072,4.53161702 20.9361702,4.53161702 L3.06382979,4.53161702 C2.47629282,4.53161702 2,4.0553242 2,3.46778723 C2,2.88025027 2.47629282,2.40395745 3.06382979,2.40395745 L20.9361702,2.40395745 Z" id="ðŸ–-Color" fill="#5A5A5A"></path>
        <rect id="_Transparent_Rectangle_" x="0" y="0" width="24" height="24"></rect>
    </g>
</svg>