<svg width="24" height="24" viewBox="0 0 24 24" fill="none" xmlns="http://www.w3.org/2000/svg">
<g id="justified">
<path id="Shape" fill-rule="evenodd" clip-rule="evenodd" d="M3.06383 4.53159H20.9362C21.5237 4.53159 22 4.0553 22 3.46776C22 2.88022 21.5237 2.40393 20.9362 2.40393H3.06383C2.47629 2.40393 2 2.88022 2 3.46776C2 4.0553 2.47629 4.53159 3.06383 4.53159ZM3.06383 21.592H14.4366C15.0241 21.592 15.5004 21.1157 15.5004 20.5282C15.5004 19.9406 15.0241 19.4644 14.4366 19.4644H3.06383C2.47629 19.4644 2 19.9406 2 20.5282C2 21.1157 2.47629 21.592 3.06383 21.592ZM20.9362 10.2184H3.06383C2.47629 10.2184 2 9.74211 2 9.15457C2 8.56703 2.47629 8.09074 3.06383 8.09074H20.9362C21.5237 8.09074 22 8.56703 22 9.15457C22 9.74211 21.5237 10.2184 20.9362 10.2184ZM3.06383 15.9044H20.9362C21.5237 15.9044 22 15.4281 22 14.8405C22 14.253 21.5237 13.7767 20.9362 13.7767H3.06383C2.47629 13.7767 2 14.253 2 14.8405C2 15.4281 2.47629 15.9044 3.06383 15.9044Z" fill="#5A5A5A"/>
</g>
</svg>
