<?xml version="1.0" encoding="UTF-8"?>
<svg width="24px" height="24px" viewBox="0 0 24 24" version="1.1" xmlns="http://www.w3.org/2000/svg" xmlns:xlink="http://www.w3.org/1999/xlink">
    <title>1. Interface Essentials/keyboard_option</title>
    <g id="1.-Interface-Essentials/keyboard_option" stroke="none" stroke-width="1" fill="none" fill-rule="evenodd">
        <path d="M22,5.47774663 C21.994227,3.55919462 20.4403673,2.00533496 18.5218153,1.99956194 L5.47818469,1.99956194 C3.55963268,2.00533496 2.00577301,3.55919462 2,5.47774663 L2,18.5213773 C2.00529214,20.4402714 3.55929193,21.9946626 5.47818469,22.0004381 L18.5218153,22.0004381 C20.4407081,21.9946626 21.9947079,20.4402714 22,18.5213773 L22,5.47774663 Z M18.4955318,16.8190819 L15.4291221,16.8190819 C14.9641351,16.819215 14.5181623,16.6345224 14.1894165,16.3056772 L8.82758016,10.9429648 C8.66331459,10.7786496 8.44050711,10.6863121 8.20816541,10.6862625 L5.35377606,10.6862625 C4.86990998,10.6862625 4.47765902,10.2940115 4.47765902,9.81014544 C4.47765902,9.32627935 4.86990998,8.93402831 5.35377606,8.93402831 L8.57087787,8.93402831 C9.03543555,8.93389524 9.48103283,9.11824772 9.80970738,9.44655686 L15.1724198,14.8101454 C15.3366854,14.9744606 15.5594929,15.0667981 15.7918346,15.0668477 L18.4955318,15.0668477 C18.9793979,15.0668477 19.3716489,15.4590987 19.3716489,15.9429648 C19.3716489,16.4268309 18.9793979,16.8190819 18.4955318,16.8190819 L18.4955318,16.8190819 Z M18.4955318,10.6862625 L14.1902926,10.6862625 C13.7064265,10.6862625 13.3141756,10.2940115 13.3141756,9.81014544 C13.3141756,9.32627935 13.7064265,8.93402839 14.1902926,8.93402839 L18.4955318,8.93402839 C18.9793979,8.93402839 19.3716489,9.32627935 19.3716489,9.81014544 C19.3716489,10.2940115 18.9793979,10.6862625 18.4955318,10.6862625 Z" id="ðŸ–-Color" fill="#5A5A5A"></path>
        <rect id="_Transparent_Rectangle_" x="0" y="0" width="24" height="24"></rect>
    </g>
</svg>