<?xml version="1.0" encoding="UTF-8"?>
<svg width="24px" height="24px" viewBox="0 0 24 24" version="1.1" xmlns="http://www.w3.org/2000/svg" xmlns:xlink="http://www.w3.org/1999/xlink">
    <title>1. Interface Essentials/keyboard_alt</title>
    <g id="1.-Interface-Essentials/keyboard_alt" stroke="none" stroke-width="1" fill="none" fill-rule="evenodd">
        <path d="M18.5217391,2 C20.4403511,2.00573009 21.9942699,3.55964893 22,5.47826087 L22,5.47826087 L22,18.5217391 C21.9947449,20.4405486 20.4405486,21.9947449 18.5217391,22 L18.5217391,22 L5.47826087,22 C3.55945138,21.9947449 2.00525508,20.4405486 2,18.5217391 L2,18.5217391 L2,5.47826087 C2.00573009,3.55964893 3.55964893,2.00573009 5.47826087,2 L5.47826087,2 Z M8.52173913,8.29924345 C8.24588426,8.29924345 7.99994834,8.4730254 7.90782609,8.73304348 L7.90782609,8.73304348 L5.73391304,14.82 C5.65331103,15.0400627 5.69715431,15.2864616 5.8487198,15.4652133 C6.00028529,15.643965 6.23620024,15.7275043 6.46647998,15.6839669 C6.69675971,15.6404295 6.88589305,15.4765294 6.96173913,15.2547826 L6.96173913,15.2547826 L7.37652174,14.0930435 C7.40788693,14.0066521 7.48983076,13.9490136 7.58173913,13.9486957 L7.58173913,13.9486957 L9.46173913,13.9486957 C9.5536475,13.9490136 9.63559133,14.0066521 9.66695652,14.0930435 L9.66695652,14.0930435 L10.0817391,15.2547826 C10.17353,15.5151883 10.4195423,15.689418 10.6956522,15.6895652 C10.7703146,15.6899438 10.8444704,15.6772902 10.9147826,15.6521739 C11.0776297,15.5943638 11.2107788,15.4741281 11.2848449,15.3180019 C11.358911,15.1618758 11.3678054,14.9826937 11.3095652,14.82 L11.3095652,14.82 L9.13565217,8.73304348 C9.04352992,8.4730254 8.797594,8.29924345 8.52173913,8.29924345 Z M16.7826087,8.30173913 C16.422423,8.30173913 16.1304348,8.59372734 16.1304348,8.95391304 L16.1304348,8.95391304 L16.1304348,9.82347826 C16.1306671,9.88120492 16.107838,9.93663433 16.0670188,9.97745357 C16.0261995,10.0182728 15.9707701,10.0411019 15.9130435,10.0408696 L15.9130435,10.0408696 L15.4782609,10.0408696 C15.1180752,10.0408696 14.826087,10.3328578 14.826087,10.6930435 C14.826087,11.0532292 15.1180752,11.3452174 15.4782609,11.3452174 L15.4782609,11.3452174 L15.9130435,11.3452174 C16.0331054,11.3452174 16.1304348,11.4425468 16.1304348,11.5626087 L16.1304348,11.5626087 L16.1304348,14.1713043 C16.1313932,15.0113404 16.8121379,15.6920851 17.6521739,15.6930435 C18.0123596,15.6930435 18.3043478,15.4010553 18.3043478,15.0408696 C18.3043478,14.6806839 18.0123596,14.3886957 17.6521739,14.3886957 C17.532112,14.3886957 17.4347826,14.2913662 17.4347826,14.1713043 L17.4347826,14.1713043 L17.4347826,11.5626087 C17.4347826,11.4425468 17.532112,11.3452174 17.6521739,11.3452174 L17.6521739,11.3452174 L18.0869565,11.3452174 C18.4471422,11.3452174 18.7391304,11.0532292 18.7391304,10.6930435 C18.7391304,10.3328578 18.4471422,10.0408696 18.0869565,10.0408696 L18.0869565,10.0408696 L17.6521739,10.0408696 C17.5944473,10.0411019 17.5390178,10.0182728 17.4981986,9.97745357 C17.4573794,9.93663433 17.4345503,9.88120492 17.4347826,9.82347826 L17.4347826,9.82347826 L17.4347826,8.95391304 C17.4347826,8.59372734 17.1427944,8.30173913 16.7826087,8.30173913 Z M13.306087,8.29826087 C12.9459013,8.29826087 12.653913,8.59024908 12.653913,8.95043478 L12.653913,8.95043478 L12.653913,15.0373913 C12.653913,15.397577 12.9459013,15.6895652 13.306087,15.6895652 C13.6662727,15.6895652 13.9582609,15.397577 13.9582609,15.0373913 L13.9582609,15.0373913 L13.9582609,8.95043478 C13.9582609,8.59024908 13.6662727,8.29826087 13.306087,8.29826087 Z M8.52173913,10.8930435 L9.14956522,12.6495652 L7.89391304,12.6495652 L8.52173913,10.8930435 Z" id="ðŸ–-Color" fill="#5A5A5A"></path>
        <rect id="_Transparent_Rectangle_" x="0" y="0" width="24" height="24"></rect>
    </g>
</svg>