<svg width="24" height="24" viewBox="0 0 24 24" fill="none" xmlns="http://www.w3.org/2000/svg">
<g id="keyboard_alt">
<path id="Shape" fill-rule="evenodd" clip-rule="evenodd" d="M18.5217 2H5.47826C3.55965 2.00573 2.00573 3.55965 2 5.47826V18.5217C2.00526 20.4405 3.55945 21.9947 5.47826 22H18.5217C20.4405 21.9947 21.9947 20.4405 22 18.5217V5.47826C21.9943 3.55965 20.4404 2.00573 18.5217 2ZM10.9148 15.6522C10.8445 15.6773 10.7703 15.6899 10.6957 15.6896C10.4195 15.6894 10.1735 15.5152 10.0817 15.2548L9.66696 14.093C9.63559 14.0067 9.55365 13.949 9.46174 13.9487H7.58174C7.48983 13.949 7.40789 14.0067 7.37652 14.093L6.96174 15.2548C6.88589 15.4765 6.69676 15.6404 6.46648 15.684C6.2362 15.7275 6.00029 15.644 5.84872 15.4652C5.69715 15.2865 5.65331 15.0401 5.73391 14.82L7.90783 8.73304C7.99995 8.47303 8.24588 8.29924 8.52174 8.29924C8.79759 8.29924 9.04353 8.47303 9.13565 8.73304L11.3096 14.82C11.3678 14.9827 11.3589 15.1619 11.2848 15.318C11.2108 15.4741 11.0776 15.5944 10.9148 15.6522ZM13.3061 15.6896C13.6663 15.6896 13.9583 15.3976 13.9583 15.0374V8.95043C13.9583 8.59025 13.6663 8.29826 13.3061 8.29826C12.9459 8.29826 12.6539 8.59025 12.6539 8.95043V15.0374C12.6539 15.3976 12.9459 15.6896 13.3061 15.6896ZM18.087 11.3452H17.6522C17.5321 11.3452 17.4348 11.4425 17.4348 11.5626V14.1713C17.4348 14.2914 17.5321 14.3887 17.6522 14.3887C18.0124 14.3887 18.3043 14.6807 18.3043 15.0409C18.3043 15.4011 18.0124 15.693 17.6522 15.693C16.8121 15.6921 16.1314 15.0113 16.1304 14.1713V11.5626C16.1304 11.4425 16.0331 11.3452 15.913 11.3452H15.4783C15.1181 11.3452 14.8261 11.0532 14.8261 10.693C14.8261 10.3329 15.1181 10.0409 15.4783 10.0409H15.913C15.9708 10.0411 16.0262 10.0183 16.067 9.97745C16.1078 9.93663 16.1307 9.88121 16.1304 9.82348V8.95391C16.1304 8.59373 16.4224 8.30174 16.7826 8.30174C17.1428 8.30174 17.4348 8.59373 17.4348 8.95391V9.82348C17.4346 9.88121 17.4574 9.93663 17.4982 9.97745C17.539 10.0183 17.5944 10.0411 17.6522 10.0409H18.087C18.4471 10.0409 18.7391 10.3329 18.7391 10.693C18.7391 11.0532 18.4471 11.3452 18.087 11.3452ZM8.52174 10.893L9.14957 12.6496H7.89391L8.52174 10.893Z" fill="#5A5A5A"/>
</g>
</svg>
