<svg width="24" height="24" viewBox="0 0 24 24" fill="none" xmlns="http://www.w3.org/2000/svg">
<g id="keyboard_command">
<path id="Shape" fill-rule="evenodd" clip-rule="evenodd" d="M17.9658 13.8549H16.64C16.5249 13.8549 16.4317 13.7653 16.4317 13.6549V10.3453C16.4317 10.2348 16.5249 10.1453 16.64 10.1453H17.9658C20.1938 10.1453 22 8.41135 22 6.27246C22 4.13357 20.1938 2.39966 17.9658 2.39966C15.7378 2.39966 13.9317 4.13357 13.9317 6.27246V7.54526C13.9317 7.65571 13.8384 7.74526 13.7233 7.74526H10.2767C10.1616 7.74526 10.0683 7.65571 10.0683 7.54526V6.27246C10.0683 4.13357 8.26218 2.39966 6.03417 2.39966C3.80616 2.39966 2 4.13357 2 6.27246C2 8.41135 3.80616 10.1453 6.03417 10.1453H7.36C7.47506 10.1453 7.56833 10.2348 7.56833 10.3453V13.6549C7.56833 13.7653 7.47506 13.8549 7.36 13.8549H6.03417C3.80616 13.8549 2 15.5888 2 17.7277C2 19.8665 3.80616 21.6005 6.03417 21.6005C8.26218 21.6005 10.0683 19.8665 10.0683 17.7277V16.4549C10.0683 16.3444 10.1616 16.2549 10.2767 16.2549H13.7233C13.8384 16.2549 13.9317 16.3444 13.9317 16.4549V17.7277C13.9317 19.8665 15.7378 21.6005 17.9658 21.6005C20.1938 21.6005 22 19.8665 22 17.7277C22 15.5888 20.1938 13.8549 17.9658 13.8549ZM16.4317 6.27246C16.4317 5.45905 17.1185 4.79966 17.9658 4.79966C18.8131 4.79966 19.5 5.45905 19.5 6.27246C19.5 7.08586 18.8131 7.74526 17.9658 7.74526H16.64C16.5249 7.74526 16.4317 7.65572 16.4317 7.54526V6.27246ZM4.5 6.27246C4.5 5.45905 5.18687 4.79966 6.03417 4.79966C6.88146 4.79966 7.56833 5.45905 7.56833 6.27246V7.54526C7.56833 7.65572 7.47506 7.74526 7.36 7.74526H6.03417C5.18725 7.74438 4.50092 7.0855 4.5 6.27246ZM7.56833 17.7277C7.56833 18.5411 6.88146 19.2005 6.03417 19.2005C5.18687 19.2005 4.5 18.5411 4.5 17.7277C4.5 16.9143 5.18687 16.2549 6.03417 16.2549H7.36C7.47506 16.2549 7.56833 16.3444 7.56833 16.4549V17.7277ZM10.0683 10.3453C10.0683 10.2348 10.1616 10.1453 10.2767 10.1453H13.7233C13.8384 10.1453 13.9317 10.2348 13.9317 10.3453V13.6549C13.9317 13.7653 13.8384 13.8549 13.7233 13.8549H10.2767C10.1616 13.8549 10.0683 13.7653 10.0683 13.6549V10.3453ZM17.9658 19.2021C17.1194 19.2007 16.4335 18.5426 16.4317 17.7301V16.4549C16.4317 16.3444 16.5249 16.2549 16.64 16.2549H17.9658C18.5223 16.2424 19.0422 16.5203 19.3242 16.981C19.6063 17.4417 19.6063 18.0129 19.3242 18.4735C19.0422 18.9342 18.5223 19.2121 17.9658 19.1997V19.2021Z" fill="#5A5A5A"/>
</g>
</svg>
