<svg width="24" height="24" viewBox="0 0 24 24" fill="none" xmlns="http://www.w3.org/2000/svg">
<g id="keyboard_shift">
<path id="Shape" fill-rule="evenodd" clip-rule="evenodd" d="M18.5217 2H5.47826C3.55965 2.00573 2.00573 3.55965 2 5.47826V18.5217C2.00526 20.4405 3.55945 21.9947 5.47826 22H18.5217C20.4405 21.9947 21.9947 20.4405 22 18.5217V5.47826C21.9943 3.55965 20.4404 2.00573 18.5217 2ZM17.5243 12.1739C17.4538 12.329 17.2991 12.4286 17.1287 12.4287H14.3904C14.2704 12.4287 14.173 12.526 14.173 12.6461V18.087C14.173 18.3271 13.9784 18.5217 13.7383 18.5217H10.2609C10.0207 18.5217 9.82609 18.3271 9.82609 18.087V12.6522C9.82609 12.5321 9.72876 12.4348 9.6087 12.4348H6.86957C6.6991 12.4346 6.54446 12.3348 6.47405 12.1796C6.40364 12.0243 6.43044 11.8423 6.54261 11.7139L11.673 5.85304C11.7556 5.75886 11.8748 5.70485 12 5.70485C12.1252 5.70485 12.2444 5.75886 12.327 5.85304L17.4574 11.7139C17.5667 11.8414 17.5928 12.0205 17.5243 12.1739Z" fill="#5A5A5A"/>
</g>
</svg>
