<?xml version="1.0" encoding="UTF-8"?>
<svg width="24px" height="24px" viewBox="0 0 24 24" version="1.1" xmlns="http://www.w3.org/2000/svg" xmlns:xlink="http://www.w3.org/1999/xlink">
    <title>1. Interface Essentials/keyboard_delete</title>
    <g id="1.-Interface-Essentials/keyboard_delete" stroke="none" stroke-width="1" fill="none" fill-rule="evenodd">
        <path d="M18.5217391,2 C20.4403511,2.00573009 21.9942699,3.55964893 22,5.47826087 L22,5.47826087 L22,18.5217391 C21.9947449,20.4405486 20.4405486,21.9947449 18.5217391,22 L18.5217391,22 L5.47826087,22 C3.55945138,21.9947449 2.00525508,20.4405486 2,18.5217391 L2,18.5217391 L2,5.47826087 C2.00573009,3.55964893 3.55964893,2.00573009 5.47826087,2 L5.47826087,2 Z M17.2173913,8.08695652 L8.70173913,8.08695652 C8.35561975,8.08695652 8.02372146,8.2246696 7.77913043,8.46956522 L7.77913043,8.46956522 L5.17043478,11.0782609 C4.66124095,11.5876085 4.66124095,12.4132611 5.17043478,12.9226087 L5.17043478,12.9226087 L7.77913043,15.5313043 C8.02353757,15.7763694 8.35563051,15.9137764 8.70173913,15.9130464 L8.70173913,15.9130464 L17.2173913,15.9130464 C17.9377627,15.9130464 18.5217391,15.3290671 18.5217391,14.6086957 L18.5217391,14.6086957 L18.5217391,9.39130435 C18.5217391,8.67093294 17.9377627,8.08695652 17.2173913,8.08695652 L17.2173913,8.08695652 Z M11.3917608,10.0546303 C11.6197508,9.99483863 11.8622624,10.062716 12.026087,10.2321739 L12.026087,10.2321739 L12.7156522,10.9217391 C12.7564366,10.9626268 12.8118142,10.985606 12.8695652,10.985606 C12.9273162,10.985606 12.9826938,10.9626268 13.0234783,10.9217391 L13.0234783,10.9217391 L13.7130435,10.2321739 C13.9690588,9.98513604 14.3758241,9.98886121 14.6272721,10.2405465 C14.8787202,10.4922317 14.8820618,10.8990003 14.6347826,11.1547826 L14.6347826,11.1547826 L13.9452174,11.8443478 C13.8606411,11.9291891 13.8606411,12.0664631 13.9452174,12.1513043 L13.9452174,12.1513043 L14.6347826,12.8408696 C14.8820618,13.0966519 14.8787202,13.5034205 14.6272721,13.7551057 C14.3758241,14.006791 13.9690588,14.0105161 13.7130435,13.7634783 L13.7130435,13.7634783 L13.0234783,13.073913 C12.9826938,13.0330253 12.9273162,13.0100462 12.8695652,13.0100462 C12.8118142,13.0100462 12.7564366,13.0330253 12.7156522,13.073913 L12.7156522,13.073913 L12.026087,13.7634783 C11.7712653,14.0173074 11.3591695,14.0173074 11.1043478,13.7634783 C10.9819511,13.6411599 10.9131827,13.4752136 10.9131827,13.3021739 C10.9131827,13.1291342 10.9819511,12.9631879 11.1043478,12.8408696 L11.1043478,12.8408696 L11.793913,12.1513043 C11.8784893,12.0664631 11.8784893,11.9291891 11.793913,11.8443478 L11.793913,11.8443478 L11.1043478,11.1547826 C10.9347355,10.9911179 10.8666295,10.7486704 10.9262062,10.5206242 C10.9857829,10.292578 11.1637709,10.1144221 11.3917608,10.0546303 Z" id="ðŸ–-Color" fill="#5A5A5A"></path>
        <rect id="_Transparent_Rectangle_" x="0" y="0" width="24" height="24"></rect>
    </g>
</svg>