<?xml version="1.0" encoding="UTF-8"?>
<svg width="24px" height="24px" viewBox="0 0 24 24" version="1.1" xmlns="http://www.w3.org/2000/svg" xmlns:xlink="http://www.w3.org/1999/xlink">
    <title>1. Interface Essentials/keyboard_eject</title>
    <g id="1.-Interface-Essentials/keyboard_eject" stroke="none" stroke-width="1" fill="none" fill-rule="evenodd">
        <path d="M18.5217391,2 L5.47826087,2 C3.55964893,2.00573009 2.00573009,3.55964893 2,5.47826087 L2,18.5217391 C2.00525508,20.4405486 3.55945138,21.9947449 5.47826087,22 L18.5217391,22 C20.4405486,21.9947449 21.9947449,20.4405486 22,18.5217391 L22,5.47826087 C21.9942699,3.55964893 20.4403511,2.00573009 18.5217391,2 Z M6.16434783,11.2652174 L11.6826087,5.38 C11.7648138,5.29219551 11.8797199,5.24236832 12,5.24236832 C12.1202801,5.24236832 12.2351862,5.29219551 12.3173913,5.38 L17.8356522,11.2652174 C17.9542248,11.3916744 17.9863475,11.576484 17.9174003,11.7355347 C17.8484532,11.8945854 17.6916126,11.9974811 17.5182609,11.9973914 L6.48173913,11.9973914 C6.30838737,11.9974811 6.15154685,11.8945854 6.08259968,11.7355347 C6.01365252,11.576484 6.04577518,11.3916744 6.16434783,11.2652174 Z M18.5217391,17.2173913 C18.5217391,17.4575151 18.3270803,17.6521739 18.0869565,17.6521739 L5.91304348,17.6521739 C5.67291967,17.6521739 5.47826087,17.4575151 5.47826087,17.2173913 L5.47826087,14.6086957 C5.47826087,14.3685718 5.67291967,14.173913 5.91304348,14.173913 L18.0869565,14.173913 C18.3270803,14.173913 18.5217391,14.3685718 18.5217391,14.6086957 L18.5217391,17.2173913 Z" id="ðŸ–-Color" fill="#5A5A5A"></path>
        <rect id="_Transparent_Rectangle_" x="0" y="0" width="24" height="24"></rect>
    </g>
</svg>