<svg width="24" height="24" viewBox="0 0 24 24" fill="none" xmlns="http://www.w3.org/2000/svg">
<g id="keyboard_delete">
<path id="Shape" fill-rule="evenodd" clip-rule="evenodd" d="M18.5217 2H5.47826C3.55965 2.00573 2.00573 3.55965 2 5.47826V18.5217C2.00526 20.4405 3.55945 21.9947 5.47826 22H18.5217C20.4405 21.9947 21.9947 20.4405 22 18.5217V5.47826C21.9943 3.55965 20.4404 2.00573 18.5217 2ZM18.5217 14.6087C18.5217 15.3291 17.9378 15.913 17.2174 15.913H8.70174C8.35563 15.9138 8.02354 15.7764 7.77913 15.5313L5.17043 12.9226C4.66124 12.4133 4.66124 11.5876 5.17043 11.0783L7.77913 8.46957C8.02372 8.22467 8.35562 8.08703 8.70174 8.08696H17.2174C17.9378 8.08696 18.5217 8.67093 18.5217 9.3913V14.6087ZM12.0261 13.7635C11.7713 14.0173 11.3592 14.0173 11.1043 13.7635C10.982 13.6412 10.9132 13.4752 10.9132 13.3022C10.9132 13.1291 10.982 12.9632 11.1043 12.8409L11.7939 12.1513C11.8785 12.0665 11.8785 11.9292 11.7939 11.8443L11.1043 11.1548C10.9347 10.9911 10.8666 10.7487 10.9262 10.5206C10.9858 10.2926 11.1638 10.1144 11.3918 10.0546C11.6198 9.99484 11.8623 10.0627 12.0261 10.2322L12.7157 10.9217C12.7564 10.9626 12.8118 10.9856 12.8696 10.9856C12.9273 10.9856 12.9827 10.9626 13.0235 10.9217L13.713 10.2322C13.9691 9.98514 14.3758 9.98886 14.6273 10.2405C14.8787 10.4922 14.8821 10.899 14.6348 11.1548L13.9452 11.8443C13.8606 11.9292 13.8606 12.0665 13.9452 12.1513L14.6348 12.8409C14.8821 13.0967 14.8787 13.5034 14.6273 13.7551C14.3758 14.0068 13.9691 14.0105 13.713 13.7635L13.0235 13.0739C12.9827 13.033 12.9273 13.01 12.8696 13.01C12.8118 13.01 12.7564 13.033 12.7157 13.0739L12.0261 13.7635Z" fill="#5A5A5A"/>
</g>
</svg>
