<?xml version="1.0" encoding="UTF-8"?>
<svg width="24px" height="24px" viewBox="0 0 24 24" version="1.1" xmlns="http://www.w3.org/2000/svg" xmlns:xlink="http://www.w3.org/1999/xlink">
    <title>1. Interface Essentials/keyboard_shift</title>
    <g id="1.-Interface-Essentials/keyboard_shift" stroke="none" stroke-width="1" fill="none" fill-rule="evenodd">
        <path d="M18.5217391,2 L5.47826087,2 C3.55964893,2.00573009 2.00573009,3.55964893 2,5.47826087 L2,18.5217391 C2.00525508,20.4405486 3.55945138,21.9947449 5.47826087,22 L18.5217391,22 C20.4405486,21.9947449 21.9947449,20.4405486 22,18.5217391 L22,5.47826087 C21.9942699,3.55964893 20.4403511,2.00573009 18.5217391,2 Z M17.5243478,12.173913 C17.4537942,12.329042 17.2991151,12.4286485 17.1286957,12.4286957 L14.3904348,12.4286957 C14.2703729,12.4286957 14.1730435,12.5260251 14.1730435,12.646087 L14.1730435,18.0869565 C14.1730435,18.3270803 13.9783847,18.5217391 13.7382609,18.5217391 L10.2608696,18.5217391 C10.0207458,18.5217391 9.82608696,18.3270803 9.82608696,18.0869565 L9.82608696,12.6521739 C9.82608696,12.532112 9.72875755,12.4347826 9.60869565,12.4347826 L6.86956522,12.4347826 C6.69909951,12.4346092 6.54446125,12.3348346 6.474049,12.1795906 C6.40363676,12.0243466 6.43044211,11.8422768 6.5426087,11.713913 L11.6730435,5.85304348 C11.7555985,5.75886131 11.8747577,5.70485352 12,5.70485352 C12.1252423,5.70485352 12.2444015,5.75886131 12.3269565,5.85304348 L17.4573913,11.713913 C17.5666852,11.8414431 17.5927509,12.0205179 17.5243478,12.173913 Z" id="ðŸ–-Color" fill="#5A5A5A"></path>
        <rect id="_Transparent_Rectangle_" x="0" y="0" width="24" height="24"></rect>
    </g>
</svg>