<svg width="24" height="24" viewBox="0 0 24 24" fill="none" xmlns="http://www.w3.org/2000/svg">
<g id="keyboard_return_2">
<path id="Shape" fill-rule="evenodd" clip-rule="evenodd" d="M18.5217 2H5.47826C3.55965 2.00573 2.00573 3.55965 2 5.47826V18.5217C2.00526 20.4405 3.55945 21.9947 5.47826 22H18.5217C20.4405 21.9947 21.9947 20.4405 22 18.5217V5.47826C21.9943 3.55965 20.4404 2.00573 18.5217 2ZM17.6522 11.5652C17.6522 12.5257 16.8735 13.3043 15.913 13.3043H10.913C10.793 13.3043 10.6957 13.4017 10.6957 13.5217V15.0435C10.6957 15.3952 10.484 15.7123 10.1591 15.847C9.83411 15.9816 9.45999 15.9071 9.2113 15.6583L6.60261 13.0496C6.26315 12.71 6.26315 12.1596 6.60261 11.82L9.2113 9.2113C9.46 8.96269 9.83394 8.88833 10.1588 9.02289C10.4837 9.15745 10.6956 9.47444 10.6957 9.82609V11.3478C10.6954 11.4056 10.7182 11.461 10.7591 11.5018C10.7999 11.5426 10.8553 11.5654 10.913 11.5652H15.6957C15.7534 11.5654 15.8088 11.5426 15.8496 11.5018C15.8904 11.461 15.9133 11.4056 15.913 11.3478V8.95652C15.913 8.47627 16.3024 8.08696 16.7826 8.08696C17.2629 8.08696 17.6522 8.47627 17.6522 8.95652V11.5652Z" fill="#5A5A5A"/>
</g>
</svg>
