<?xml version="1.0" encoding="UTF-8"?>
<svg width="24px" height="24px" viewBox="0 0 24 24" version="1.1" xmlns="http://www.w3.org/2000/svg" xmlns:xlink="http://www.w3.org/1999/xlink">
    <title>1. Interface Essentials/keyboard_command</title>
    <g id="1.-Interface-Essentials/keyboard_command" stroke="none" stroke-width="1" fill="none" fill-rule="evenodd">
        <path d="M17.9658333,13.8548 L16.64,13.8548 C16.5249407,13.8548 16.4316667,13.7652569 16.4316667,13.6548 L16.4316667,10.3452 C16.4316667,10.2347431 16.5249407,10.1452 16.64,10.1452 L17.9658333,10.1452 C20.1938421,10.1452 22,8.41128838 22,6.2724 C22,4.13351162 20.1938421,2.3996 17.9658333,2.3996 C15.7378246,2.3996 13.9316667,4.13351162 13.9316667,6.2724 L13.9316667,7.5452 C13.9316667,7.65565695 13.8383927,7.7452 13.7233333,7.7452 L10.2766667,7.7452 C10.1616073,7.7452 10.0683333,7.65565695 10.0683333,7.5452 L10.0683333,6.2724 C10.0683333,4.13351162 8.26217539,2.3996 6.03416667,2.3996 C3.80615794,2.3996 2,4.13351162 2,6.2724 C2,8.41128838 3.80615794,10.1452 6.03416667,10.1452 L7.36,10.1452 C7.47505932,10.1452 7.56833333,10.2347431 7.56833333,10.3452 L7.56833333,13.6548 C7.56833333,13.7652569 7.47505932,13.8548 7.36,13.8548 L6.03416667,13.8548 C3.80615794,13.8548 2,15.5887116 2,17.7276 C2,19.8664884 3.80615794,21.6004 6.03416667,21.6004 C8.26217539,21.6004 10.0683333,19.8664884 10.0683333,17.7276 L10.0683333,16.4548 C10.0683333,16.3443431 10.1616073,16.2548 10.2766667,16.2548 L13.7233333,16.2548 C13.8383927,16.2548 13.9316667,16.3443431 13.9316667,16.4548 L13.9316667,17.7276 C13.9316667,19.8664884 15.7378246,21.6004 17.9658333,21.6004 C20.1938421,21.6004 22,19.8664884 22,17.7276 C22,15.5887116 20.1938421,13.8548 17.9658333,13.8548 Z M16.4316667,6.2724 C16.4316667,5.45899502 17.1185365,4.7996 17.9658333,4.7996 C18.8131302,4.7996 19.5,5.45899502 19.5,6.2724 C19.5,7.08580498 18.8131302,7.7452 17.9658333,7.7452 L16.64,7.7452 C16.5249407,7.7452 16.4316667,7.65565695 16.4316667,7.5452 L16.4316667,6.2724 Z M4.5,6.2724 C4.5,5.45899502 5.18686981,4.7996 6.03416667,4.7996 C6.88146352,4.7996 7.56833333,5.45899502 7.56833333,6.2724 L7.56833333,7.5452 C7.56833333,7.65565695 7.47505932,7.7452 7.36,7.7452 L6.03416667,7.7452 C5.18725059,7.74431818 4.50091856,7.08543944 4.5,6.2724 L4.5,6.2724 Z M7.56833333,17.7276 C7.56833333,18.541005 6.88146352,19.2004 6.03416667,19.2004 C5.18686981,19.2004 4.5,18.541005 4.5,17.7276 C4.5,16.914195 5.18686981,16.2548 6.03416667,16.2548 L7.36,16.2548 C7.47505932,16.2548 7.56833333,16.3443431 7.56833333,16.4548 L7.56833333,17.7276 Z M10.0683333,10.3452 C10.0683333,10.2347431 10.1616073,10.1452 10.2766667,10.1452 L13.7233333,10.1452 C13.8383927,10.1452 13.9316667,10.2347431 13.9316667,10.3452 L13.9316667,13.6548 C13.9316667,13.7652569 13.8383927,13.8548 13.7233333,13.8548 L10.2766667,13.8548 C10.1616073,13.8548 10.0683333,13.7652569 10.0683333,13.6548 L10.0683333,10.3452 Z M17.9658333,19.202 C17.1194318,19.20068 16.4335016,18.5425446 16.4316667,17.73 L16.4316667,16.4548 C16.4316667,16.3443431 16.5249407,16.2548 16.64,16.2548 L17.9658333,16.2548 C18.5223124,16.2423468 19.0421627,16.5202291 19.3242145,16.9809132 C19.6062662,17.4415972 19.6062662,18.0128028 19.3242145,18.4734868 C19.0421627,18.9341709 18.5223124,19.2120532 17.9658333,19.1996 L17.9658333,19.202 Z" id="ðŸ–-Color" fill="#5A5A5A"></path>
        <rect id="_Transparent_Rectangle_" x="0" y="0" width="24" height="24"></rect>
    </g>
</svg>