<?xml version="1.0" encoding="UTF-8"?>
<svg width="24px" height="24px" viewBox="0 0 24 24" version="1.1" xmlns="http://www.w3.org/2000/svg" xmlns:xlink="http://www.w3.org/1999/xlink">
    <title>1. Interface Essentials/keyboard_return_2</title>
    <g id="1.-Interface-Essentials/keyboard_return_2" stroke="none" stroke-width="1" fill="none" fill-rule="evenodd">
        <path d="M18.5217391,2 L5.47826087,2 C3.55964893,2.00573009 2.00573009,3.55964893 2,5.47826087 L2,18.5217391 C2.00525508,20.4405486 3.55945138,21.9947449 5.47826087,22 L18.5217391,22 C20.4405486,21.9947449 21.9947449,20.4405486 22,18.5217391 L22,5.47826087 C21.9942699,3.55964893 20.4403511,2.00573009 18.5217391,2 Z M17.6521739,11.5652174 C17.6521739,12.5257126 16.8735387,13.3043478 15.9130435,13.3043478 L10.9130435,13.3043478 C10.7929816,13.3043478 10.6956522,13.4016772 10.6956522,13.5217391 L10.6956522,15.0434783 C10.6957407,15.3951557 10.4839919,15.7122641 10.1591304,15.8469565 C9.83410642,15.9815808 9.45998743,15.9071002 9.21130435,15.6582609 L6.6026087,13.0495652 C6.26314614,12.7100001 6.26314614,12.1595651 6.6026087,11.82 L9.21130435,9.21130435 C9.459995,8.96268877 9.83394488,8.88832878 10.1588301,9.02288871 C10.4837152,9.15744865 10.6955771,9.47443835 10.6956522,9.82608696 L10.6956522,11.3478261 C10.6954199,11.4055527 10.7182489,11.4609822 10.7590682,11.5018014 C10.7998874,11.5426206 10.8553168,11.5654497 10.9130435,11.5652174 L15.6956522,11.5652174 C15.7533788,11.5654497 15.8088082,11.5426206 15.8496275,11.5018014 C15.8904467,11.4609822 15.9132758,11.4055527 15.9130435,11.3478261 L15.9130435,8.95652174 C15.9130435,8.47627413 16.3023611,8.08695652 16.7826087,8.08695652 C17.2628563,8.08695652 17.6521739,8.47627413 17.6521739,8.95652174 L17.6521739,11.5652174 Z" id="ðŸ–-Color" fill="#5A5A5A"></path>
        <rect id="_Transparent_Rectangle_" x="0" y="0" width="24" height="24"></rect>
    </g>
</svg>