<svg width="24" height="24" viewBox="0 0 24 24" fill="none" xmlns="http://www.w3.org/2000/svg">
<g id="keyboard_return_1">
<path id="Shape" fill-rule="evenodd" clip-rule="evenodd" d="M18.5217 2H5.47826C3.55965 2.00573 2.00573 3.55965 2 5.47826V18.5217C2.00526 20.4405 3.55945 21.9947 5.47826 22H18.5217C20.4405 21.9947 21.9947 20.4405 22 18.5217V5.47826C21.9943 3.55965 20.4404 2.00573 18.5217 2ZM8.08696 14.1739C8.08696 14.6542 7.69764 15.0435 7.21739 15.0435C6.73714 15.0435 6.34783 14.6542 6.34783 14.1739V8.95652C6.34783 8.47627 6.73714 8.08696 7.21739 8.08696C7.69764 8.08696 8.08696 8.47627 8.08696 8.95652V14.1739ZM17.6522 12.4348H13.9565C13.8365 12.4348 13.7391 12.5321 13.7391 12.6522V14.1739C13.7392 14.5256 13.5275 14.8427 13.2026 14.9774C12.8776 15.112 12.5035 15.0375 12.2548 14.7887L9.64609 12.18C9.30662 11.8404 9.30662 11.29 9.64609 10.9504L12.2548 8.34174C12.5035 8.09312 12.8774 8.01876 13.2023 8.15332C13.5272 8.28788 13.7391 8.60487 13.7391 8.95652V10.4783C13.7389 10.536 13.7617 10.5914 13.8025 10.6322C13.8434 10.6731 13.8988 10.6959 13.9565 10.6957H17.6522C18.1324 10.6957 18.5217 11.085 18.5217 11.5652C18.5217 12.0455 18.1324 12.4348 17.6522 12.4348Z" fill="#5A5A5A"/>
</g>
</svg>
