<?xml version="1.0" encoding="UTF-8"?>
<svg width="24px" height="24px" viewBox="0 0 24 24" version="1.1" xmlns="http://www.w3.org/2000/svg" xmlns:xlink="http://www.w3.org/1999/xlink">
    <title>1. Interface Essentials/keyboard_return_1</title>
    <g id="1.-Interface-Essentials/keyboard_return_1" stroke="none" stroke-width="1" fill="none" fill-rule="evenodd">
        <path d="M18.5217391,2 L5.47826087,2 C3.55964893,2.00573009 2.00573009,3.55964893 2,5.47826087 L2,18.5217391 C2.00525508,20.4405486 3.55945138,21.9947449 5.47826087,22 L18.5217391,22 C20.4405486,21.9947449 21.9947449,20.4405486 22,18.5217391 L22,5.47826087 C21.9942699,3.55964893 20.4403511,2.00573009 18.5217391,2 Z M8.08695652,14.173913 C8.08695652,14.6541607 7.69763891,15.0434783 7.2173913,15.0434783 C6.7371437,15.0434783 6.34782609,14.6541607 6.34782609,14.173913 L6.34782609,8.95652174 C6.34782609,8.47627413 6.7371437,8.08695652 7.2173913,8.08695652 C7.69763891,8.08695652 8.08695652,8.47627413 8.08695652,8.95652174 L8.08695652,14.173913 Z M17.6521739,12.4347826 L13.9565217,12.4347826 C13.8364598,12.4347826 13.7391304,12.532112 13.7391304,12.6521739 L13.7391304,14.173913 C13.7392189,14.5255905 13.5274702,14.8426988 13.2026087,14.9773913 C12.8775847,15.1120156 12.5034657,15.037535 12.2547826,14.7886957 L9.64608696,12.18 C9.3066244,11.8404349 9.3066244,11.2899999 9.64608696,10.9504348 L12.2547826,8.34173913 C12.5034733,8.09312355 12.8774231,8.01876356 13.2023083,8.1533235 C13.5271935,8.28788343 13.7390553,8.60487313 13.7391304,8.95652174 L13.7391304,10.4782609 C13.7388981,10.5359875 13.7617272,10.5914169 13.8025464,10.6322362 C13.8433657,10.6730554 13.8987951,10.6958845 13.9565217,10.6956522 L17.6521739,10.6956522 C18.1324215,10.6956522 18.5217391,11.0849698 18.5217391,11.5652174 C18.5217391,12.045465 18.1324215,12.4347826 17.6521739,12.4347826 L17.6521739,12.4347826 Z" id="ðŸ–-Color" fill="#5A5A5A"></path>
        <rect id="_Transparent_Rectangle_" x="0" y="0" width="24" height="24"></rect>
    </g>
</svg>