<svg width="24" height="24" viewBox="0 0 24 24" fill="none" xmlns="http://www.w3.org/2000/svg">
<g id="keyboard_option">
<path id="Shape" fill-rule="evenodd" clip-rule="evenodd" d="M22 5.4777C21.9942 3.55914 20.4404 2.00528 18.5218 1.99951H5.47818C3.55963 2.00528 2.00577 3.55914 2 5.4777V18.5213C2.00529 20.4402 3.55929 21.9946 5.47818 22.0004H18.5218C20.4407 21.9946 21.9947 20.4402 22 18.5213V5.4777ZM18.4955 16.819H15.4291C14.9641 16.8192 14.5182 16.6345 14.1894 16.3056L8.82758 10.9429C8.66331 10.7786 8.44051 10.6863 8.20817 10.6862H5.35378C4.86991 10.6862 4.47766 10.294 4.47766 9.8101C4.47766 9.32623 4.86991 8.93398 5.35378 8.93398H8.57088C9.03544 8.93385 9.48103 9.1182 9.80971 9.44651L15.1724 14.8101C15.3367 14.9744 15.5595 15.0667 15.7918 15.0668H18.4955C18.9794 15.0668 19.3716 15.459 19.3716 15.9429C19.3716 16.4268 18.9794 16.819 18.4955 16.819ZM18.4955 10.6862H14.1903C13.7064 10.6862 13.3142 10.294 13.3142 9.8101C13.3142 9.32623 13.7064 8.93398 14.1903 8.93398H18.4955C18.9794 8.93398 19.3716 9.32623 19.3716 9.8101C19.3716 10.294 18.9794 10.6862 18.4955 10.6862Z" fill="#5A5A5A"/>
</g>
</svg>
