<svg width="24" height="24" viewBox="0 0 24 24" fill="none" xmlns="http://www.w3.org/2000/svg">
<g id="keyboard_eject">
<path id="Shape" fill-rule="evenodd" clip-rule="evenodd" d="M18.5217 2H5.47826C3.55965 2.00573 2.00573 3.55965 2 5.47826V18.5217C2.00526 20.4405 3.55945 21.9947 5.47826 22H18.5217C20.4405 21.9947 21.9947 20.4405 22 18.5217V5.47826C21.9943 3.55965 20.4404 2.00573 18.5217 2ZM6.16435 11.2652L11.6826 5.38C11.7648 5.2922 11.8797 5.24237 12 5.24237C12.1203 5.24237 12.2352 5.2922 12.3174 5.38L17.8357 11.2652C17.9542 11.3917 17.9863 11.5765 17.9174 11.7355C17.8485 11.8946 17.6916 11.9975 17.5183 11.9974H6.48174C6.30839 11.9975 6.15155 11.8946 6.0826 11.7355C6.01365 11.5765 6.04577 11.3917 6.16435 11.2652ZM18.5217 17.2174C18.5217 17.4575 18.3271 17.6522 18.087 17.6522H5.91304C5.67292 17.6522 5.47826 17.4575 5.47826 17.2174V14.6087C5.47826 14.3686 5.67292 14.1739 5.91304 14.1739H18.087C18.3271 14.1739 18.5217 14.3686 18.5217 14.6087V17.2174Z" fill="#5A5A5A"/>
</g>
</svg>
