<?xml version="1.0" encoding="UTF-8"?>
<svg width="24px" height="24px" viewBox="0 0 24 24" version="1.1" xmlns="http://www.w3.org/2000/svg" xmlns:xlink="http://www.w3.org/1999/xlink">
    <title>1. Interface Essentials/left_aligned_paragraph</title>
    <g id="1.-Interface-Essentials/left_aligned_paragraph" stroke="none" stroke-width="1" fill="none" fill-rule="evenodd">
        <path d="M20.9361702,19.464383 C21.5237072,19.464383 22,19.9406758 22,20.5282128 C22,21.1157497 21.5237072,21.5920426 20.9361702,21.5920426 L3.06382979,21.5920426 C2.47629282,21.5920426 2,21.1157497 2,20.5282128 C2,19.9406758 2.47629282,19.464383 3.06382979,19.464383 L20.9361702,19.464383 Z M17.6868085,13.7775745 C18.2743455,13.7775745 18.7506383,14.2538673 18.7506383,14.8414043 C18.7506383,15.4289412 18.2743455,15.905234 17.6868085,15.905234 L3.06382979,15.905234 C2.47629282,15.905234 2,15.4289412 2,14.8414043 C2,14.2538673 2.47629282,13.7775745 3.06382979,13.7775745 L17.6868085,13.7775745 Z M15.2493617,8.09076596 C15.8368987,8.09076596 16.3131915,8.56705878 16.3131915,9.15459574 C16.3131915,9.74213271 15.8368987,10.2184255 15.2493617,10.2184255 L3.06382979,10.2184255 C2.47629282,10.2184255 2,9.74213271 2,9.15459574 C2,8.56705878 2.47629282,8.09076596 3.06382979,8.09076596 L15.2493617,8.09076596 Z M18.4995745,2.40395745 C19.0871114,2.40395745 19.5634043,2.88025027 19.5634043,3.46778723 C19.5634043,4.0553242 19.0871114,4.53161702 18.4995745,4.53161702 L3.06382979,4.53161702 C2.47629282,4.53161702 2,4.0553242 2,3.46778723 C2,2.88025027 2.47629282,2.40395745 3.06382979,2.40395745 L18.4995745,2.40395745 Z" id="ðŸ–-Color" fill="#5A5A5A"></path>
        <rect id="_Transparent_Rectangle_" x="0" y="0" width="24" height="24"></rect>
    </g>
</svg>