<svg width="24" height="24" viewBox="0 0 24 24" fill="none" xmlns="http://www.w3.org/2000/svg">
<g id="left_aligned_paragraph">
<path id="Shape" fill-rule="evenodd" clip-rule="evenodd" d="M3.06383 4.53159H18.4996C19.0871 4.53159 19.5634 4.0553 19.5634 3.46776C19.5634 2.88022 19.0871 2.40393 18.4996 2.40393H3.06383C2.47629 2.40393 2 2.88022 2 3.46776C2 4.0553 2.47629 4.53159 3.06383 4.53159ZM3.06383 21.592H20.9362C21.5237 21.592 22 21.1157 22 20.5282C22 19.9406 21.5237 19.4644 20.9362 19.4644H3.06383C2.47629 19.4644 2 19.9406 2 20.5282C2 21.1157 2.47629 21.592 3.06383 21.592ZM15.2494 10.2184H3.06383C2.47629 10.2184 2 9.74211 2 9.15457C2 8.56703 2.47629 8.09074 3.06383 8.09074H15.2494C15.8369 8.09074 16.3132 8.56703 16.3132 9.15457C16.3132 9.74211 15.8369 10.2184 15.2494 10.2184ZM3.06383 15.9052H17.6868C18.2743 15.9052 18.7506 15.4289 18.7506 14.8414C18.7506 14.2538 18.2743 13.7775 17.6868 13.7775H3.06383C2.47629 13.7775 2 14.2538 2 14.8414C2 15.4289 2.47629 15.9052 3.06383 15.9052Z" fill="#5A5A5A"/>
</g>
</svg>
