<svg width="24" height="24" viewBox="0 0 24 24" fill="none" xmlns="http://www.w3.org/2000/svg">
<g id="link">
<path id="Shape" fill-rule="evenodd" clip-rule="evenodd" d="M13.3316 3.29346C15.0609 1.56885 17.8593 1.56885 19.5886 3.29346L20.7036 4.40869C21.5337 5.23843 22 6.36407 22 7.53781C22 8.71155 21.5337 9.83719 20.7036 10.6669L15.9236 15.4479C14.3719 16.9991 11.857 16.9991 10.3053 15.4479L9.42904 14.5715C9.0777 14.2583 8.92838 13.7763 9.04106 13.3193C9.15373 12.8622 9.50991 12.5049 9.96658 12.3909C10.4232 12.2769 10.9055 12.4249 11.2197 12.7755L12.0959 13.6519C12.3652 13.9218 12.7307 14.0735 13.1119 14.0735C13.4931 14.0735 13.8586 13.9218 14.1279 13.6519L18.9105 8.87088C19.265 8.51764 19.4644 8.03771 19.4644 7.53717C19.4644 7.03663 19.265 6.5567 18.9105 6.20347L17.7955 5.08824C17.059 4.35171 15.865 4.35171 15.1286 5.08824L13.456 6.75982C12.9566 7.22965 12.1744 7.21806 11.689 6.73363C11.2036 6.2492 11.1904 5.46689 11.6591 4.9663L13.3316 3.29346ZM8.87154 18.9092L10.5453 17.2376V17.2389C11.0436 16.7575 11.8357 16.7644 12.3256 17.2544C12.8154 17.7443 12.8223 18.5366 12.341 19.035L10.6672 20.7065C8.93794 22.4312 6.13951 22.4312 4.41021 20.7065L3.29646 19.5913C2.46637 18.7614 2 17.6355 2 16.4616C2 15.2876 2.46637 14.1618 3.29646 13.3318L8.07528 8.55079C9.64664 7.0467 12.1234 7.0467 13.6948 8.55079L14.5711 9.42722C15.0325 9.928 15.017 10.7037 14.5359 11.1856C14.0548 11.6675 13.2792 11.6841 12.7779 11.2233L11.9016 10.3468C11.6322 10.0772 11.2668 9.92574 10.8857 9.92574C10.5046 9.92574 10.1391 10.0772 9.86972 10.3468L5.0909 15.1279C4.73665 15.4813 4.53756 15.9611 4.53756 16.4616C4.53756 16.962 4.73665 17.4419 5.0909 17.7953L6.20465 18.9092C6.94111 19.6458 8.13507 19.6458 8.87154 18.9092Z" fill="#5A5A5A"/>
</g>
</svg>
