<?xml version="1.0" encoding="UTF-8"?>
<svg width="24px" height="24px" viewBox="0 0 24 24" version="1.1" xmlns="http://www.w3.org/2000/svg" xmlns:xlink="http://www.w3.org/1999/xlink">
    <title>1. Interface Essentials/link</title>
    <g id="1.-Interface-Essentials/link" stroke="none" stroke-width="1" fill="none" fill-rule="evenodd">
        <path d="M8.07527963,8.55078862 C9.64663651,7.04669589 12.1234434,7.04669589 13.6948002,8.55078862 L13.6948002,8.55078862 L14.5710645,9.42722237 C15.0325467,9.9279992 15.0170303,10.7036933 14.535891,11.1856074 C14.0547517,11.6675214 13.2792303,11.6841387 12.7778977,11.2232765 L12.7778977,11.2232765 L11.9016334,10.3468427 C11.6322458,10.0772262 11.2667716,9.92574228 10.8856749,9.92574228 C10.5045782,9.92574228 10.139104,10.0772262 9.86971638,10.3468427 L9.86971638,10.3468427 L5.09090146,15.1278523 C4.73664973,15.4812537 4.53755577,15.9611207 4.53755577,16.4615559 C4.53755577,16.9619911 4.73664973,17.441858 5.09090146,17.7952594 L5.09090146,17.7952594 L6.20464599,18.9092194 C6.94110965,19.6457504 8.13507347,19.6457504 8.87153713,18.9092194 L8.87153713,18.9092194 L10.5453288,17.2376443 C11.0436296,16.7575463 11.8357038,16.7644306 12.3255657,17.2543873 C12.8154276,17.744344 12.8223106,18.5365713 12.3410355,19.0349686 L12.3410355,19.0349686 L10.6672438,20.7065437 C8.93793937,22.4311521 6.1395137,22.4311521 4.41020925,20.7065437 L4.41020925,20.7065437 L3.29646471,19.5913135 C2.46636826,18.761353 2,17.635507 2,16.4615559 C2,15.2876048 2.46636826,14.1617588 3.29646471,13.3317982 L3.29646471,13.3317982 Z M13.3315951,3.29345632 C15.0608995,1.56884789 17.8593252,1.56884789 19.5886296,3.29345632 L19.5886296,3.29345632 L20.7036441,4.40868651 C21.5336634,5.23843015 22,6.36406586 22,7.53780904 C22,8.71155221 21.5336634,9.83718792 20.7036441,10.6669316 L20.7036441,10.6669316 L15.9235592,15.4479412 C14.3719016,16.9991458 11.8569662,16.9991458 10.3053086,15.4479412 L10.3053086,15.4479412 L9.42904437,14.5715074 C9.07769779,14.2582574 8.92838315,13.7763394 9.04105675,13.3192645 C9.15373036,12.8621895 9.50991091,12.5049294 9.96657643,12.3909396 C10.4232419,12.2769499 10.9054878,12.4249276 11.2196713,12.7754533 L12.0959355,13.6518871 C12.3651574,13.9218156 12.7306937,14.073515 13.111894,14.073515 C13.4930943,14.073515 13.8586306,13.9218156 14.1278526,13.6518871 L14.1278526,13.6518871 L18.9104773,8.87087747 C19.2650418,8.51764252 19.464352,8.0377132 19.464352,7.53717394 C19.464352,7.03663468 19.2650418,6.55670535 18.9104773,6.20347041 L18.9104773,6.20347041 L17.7954628,5.08824021 C17.0589992,4.35170923 15.8650354,4.35170923 15.1285717,5.08824021 L15.1285717,5.08824021 L13.45605,6.75981531 C12.9565536,7.22964805 12.1743643,7.2180576 11.6890026,6.73363127 C11.2036409,6.24920494 11.1903927,5.46689065 11.6590733,4.9663016 L11.6590733,4.9663016 Z" id="ðŸ–-Color" fill="#5A5A5A"></path>
        <rect id="_Transparent_Rectangle_" x="0" y="0" width="24" height="24"></rect>
    </g>
</svg>