<?xml version="1.0" encoding="UTF-8"?>
<svg width="24px" height="24px" viewBox="0 0 24 24" version="1.1" xmlns="http://www.w3.org/2000/svg" xmlns:xlink="http://www.w3.org/1999/xlink">
    <title>1. Interface Essentials/list</title>
    <g id="1.-Interface-Essentials/list" stroke="none" stroke-width="1" fill="none" fill-rule="evenodd">
        <path d="M12.5,17 C13.3284271,17 14,17.7461921 14,18.6666667 C14,19.5871412 13.3284271,20.3333333 12.5,20.3333333 L12.5,20.3333333 L3.5,20.3333333 C2.67157288,20.3333333 2,19.5871412 2,18.6666667 C2,17.7461921 2.67157288,17 3.5,17 L3.5,17 Z M20.4210527,10.6666667 C21.2930812,10.6666667 22,11.4128588 22,12.3333333 C22,13.2538079 21.2930812,14 20.4210527,14 L20.4210527,14 L3.57894737,14 C2.70691882,14 2,13.2538079 2,12.3333333 C2,11.4128588 2.70691882,10.6666667 3.57894737,10.6666667 L3.57894737,10.6666667 Z M20.4210526,3.66666667 C21.2930812,3.66666667 22,4.41285875 22,5.33333333 C22,6.25380792 21.2930812,7 20.4210526,7 L20.4210526,7 L3.57894737,7 C2.70691882,7 2,6.25380792 2,5.33333333 C2,4.41285875 2.70691882,3.66666667 3.57894737,3.66666667 L3.57894737,3.66666667 Z" id="ðŸ–-Color" fill="#5A5A5A"></path>
        <rect id="_Transparent_Rectangle_" x="0" y="0" width="24" height="24"></rect>
    </g>
</svg>