<?xml version="1.0" encoding="UTF-8"?>
<svg width="24px" height="24px" viewBox="0 0 24 24" version="1.1" xmlns="http://www.w3.org/2000/svg" xmlns:xlink="http://www.w3.org/1999/xlink">
    <title>1. Interface Essentials/login_lock</title>
    <g id="1.-Interface-Essentials/login_lock" stroke="none" stroke-width="1" fill="none" fill-rule="evenodd">
        <path d="M10.2498838,2.00923592 C10.3731958,1.98195654 10.5022258,2.01207467 10.6007178,2.09112746 C10.6992098,2.17018024 10.7565344,2.28963623 10.7565841,2.41592959 L10.7565841,2.41592959 L10.7565841,3.24931825 L17.0069991,3.24931825 C17.467267,3.24931825 17.8403878,3.62243907 17.8403878,4.08270692 L17.8403878,4.08270692 L17.8403878,6.16617859 C17.8403878,6.62644645 17.467267,6.99956726 17.0069991,6.99956726 C16.5467313,6.99956726 16.1736105,6.62644645 16.1736105,6.16617859 L16.1736105,6.16617859 L16.1736105,5.33278993 C16.1736105,5.102656 15.98705,4.91609559 15.7569161,4.91609559 L15.7569161,4.91609559 L11.1732784,4.91609559 C10.9431445,4.91609559 10.7565841,5.102656 10.7565841,5.33278993 L10.7565841,5.33278993 L10.7565841,18.6670086 C10.7565841,18.8971425 10.9431445,19.083703 11.1732784,19.083703 L11.1732784,19.083703 L15.7569161,19.083703 C15.98705,19.083703 16.1736105,18.8971425 16.1736105,18.6670086 L16.1736105,18.6670086 L16.1736105,18.2503143 C16.1736105,17.7900464 16.5467313,17.4169256 17.0069991,17.4169256 C17.4662924,17.4169235 17.8390099,17.7885229 17.8403878,18.2478141 L17.8403878,18.2478141 L17.8403878,19.9145915 C17.8403878,20.3748593 17.467267,20.7479801 17.0069991,20.7479801 L17.0069991,20.7479801 L10.7565841,20.7479801 L10.7565841,21.5813688 C10.7568596,21.7080274 10.6995122,21.8279356 10.6007404,21.9072238 C10.501902,21.9855935 10.3734068,22.016115 10.2498838,21.9905626 L10.2498838,21.9905626 L2.74938578,20.3237853 C2.55860688,20.2815808 2.42269742,20.112483 2.42269742,19.9170916 L2.42269742,19.9170916 L2.42269742,4.08270692 C2.42269742,3.88731551 2.55860688,3.71821779 2.74938578,3.67601325 L2.74938578,3.67601325 Z M17.0796228,8.34536862 C17.7979622,7.92198148 18.6895336,7.92198148 19.407873,8.34536862 C20.1262125,8.76875577 20.5580473,9.54876753 20.5355667,10.3822919 L20.5355667,10.3822919 L20.5355667,11.1665106 L20.7439139,11.1665106 C21.2041818,11.1665106 21.5773026,11.5396314 21.5773026,11.9998993 L21.5773026,11.9998993 L21.5773026,15.7501483 C21.5773026,16.2104161 21.2041818,16.5835369 20.7439139,16.5835369 L20.7439139,16.5835369 L15.7435819,16.5835369 C15.283314,16.5835369 14.9101932,16.2104161 14.9101932,15.7501483 L14.9101932,15.7501483 L14.9101932,11.9998993 C14.9101932,11.5396314 15.283314,11.1665106 15.7435819,11.1665106 L15.7435819,11.1665106 L15.9519291,11.1665106 L15.9519291,10.3822919 C15.9294485,9.54876753 16.3612833,8.76875577 17.0796228,8.34536862 Z M18.2437479,12.6249408 C17.7834801,12.6249408 17.4103592,12.9980616 17.4103592,13.4583294 C17.4103592,13.9185973 17.7834801,14.2917181 18.2437479,14.2917181 C18.7040158,14.2917181 19.0771366,13.9185973 19.0771366,13.4583294 C19.0771366,12.9980616 18.7040158,12.6249408 18.2437479,12.6249408 Z M7.42302943,11.1665106 C6.73262766,11.1665106 6.17294643,11.7261918 6.17294643,12.4165936 C6.17294643,13.1069954 6.73262766,13.6666766 7.42302943,13.6666766 C8.11343121,13.6666766 8.67311244,13.1069954 8.67311244,12.4165936 C8.67311244,11.7261918 8.11343121,11.1665106 7.42302943,11.1665106 Z M18.7770204,9.44475081 C18.4484118,9.2491429 18.039084,9.2491429 17.7104754,9.44475081 C17.3818668,9.64035872 17.1867244,10.0001762 17.2020121,10.3822919 L17.2020121,10.3822919 L17.2020121,11.1665106 L19.2854837,11.1665106 L19.2854837,10.3822919 C19.3007714,10.0001762 19.105629,9.64035872 18.7770204,9.44475081 Z" id="ðŸ–-Color" fill="#5A5A5A"></path>
        <rect id="_Transparent_Rectangle_" x="0" y="0" width="24" height="24"></rect>
    </g>
</svg>