<svg width="24" height="24" viewBox="0 0 24 24" fill="none" xmlns="http://www.w3.org/2000/svg">
<g id="login_1">
<path id="Shape" fill-rule="evenodd" clip-rule="evenodd" d="M10.7502 2.41687H21.1667C21.6269 2.41687 22 2.78996 22 3.25019V20.7498C22 21.2101 21.6269 21.5832 21.1667 21.5832H10.7502C10.29 21.5832 9.9169 21.2101 9.9169 20.7498V15.3333C9.9169 15.1032 10.1034 14.9166 10.3336 14.9166H16.1668C16.8539 14.9176 17.5111 14.6358 17.984 14.1373C18.4569 13.6389 18.7038 12.9678 18.6667 12.2817C18.546 10.9209 17.3909 9.88681 16.0251 9.91672H10.3336C10.1034 9.91672 9.9169 9.73018 9.9169 9.50006V3.25019C9.9169 2.78996 10.29 2.41687 10.7502 2.41687ZM17.4168 12.4167C17.4168 13.107 16.8571 13.6666 16.1668 13.6667H7.83361V15.7499C7.83364 16.07 7.65032 16.3618 7.36195 16.5008C7.07137 16.6296 6.73387 16.5913 6.47947 16.4008L2.31288 13.0675C2.11513 12.9094 2 12.6699 2 12.4167C2 12.1635 2.11513 11.924 2.31288 11.7659L6.47947 8.43259C6.72962 8.23231 7.07245 8.19321 7.36127 8.33202C7.65009 8.47083 7.83373 8.76296 7.83361 9.08341V11.1667H16.1668C16.8571 11.1667 17.4168 11.7263 17.4168 12.4167Z" fill="#5A5A5A"/>
</g>
</svg>
