<svg width="24" height="24" viewBox="0 0 24 24" fill="none" xmlns="http://www.w3.org/2000/svg">
<g id="login_key">
<path id="Shape" fill-rule="evenodd" clip-rule="evenodd" d="M21.5834 2H19.0834C18.9727 2.00002 18.8665 2.0441 18.7884 2.1225L10.8467 10.065C8.09622 8.80902 4.84106 9.70213 3.11663 12.1859C1.3922 14.6696 1.69309 18.0316 3.83116 20.1697C5.96923 22.3078 9.33125 22.6087 11.815 20.8842C14.2988 19.1598 15.1919 15.9047 13.9359 13.1542L15.8625 11.2267L17.4734 11.7633C17.7483 11.8534 18.0502 11.7944 18.271 11.6076C18.4919 11.4207 18.6 11.1327 18.5567 10.8467L18.2559 8.83333L18.8609 8.22833L20.0742 8.78C20.3693 8.91471 20.7158 8.86588 20.9622 8.65487C21.2087 8.44386 21.3102 8.10901 21.2225 7.79667L20.8009 6.28917L21.8784 5.21167C21.9565 5.13337 22.0002 5.02725 22 4.91667V2.41667C22 2.18655 21.8135 2 21.5834 2ZM7.83338 17.4167C7.83338 18.107 7.27373 18.6667 6.58338 18.6667C5.89302 18.6667 5.33338 18.107 5.33338 17.4167C5.33338 16.7263 5.89302 16.1667 6.58338 16.1667C7.27373 16.1667 7.83338 16.7263 7.83338 17.4167Z" fill="#5A5A5A"/>
</g>
</svg>
