<?xml version="1.0" encoding="UTF-8"?>
<svg width="24px" height="24px" viewBox="0 0 24 24" version="1.1" xmlns="http://www.w3.org/2000/svg" xmlns:xlink="http://www.w3.org/1999/xlink">
    <title>1. Interface Essentials/login_key</title>
    <g id="1.-Interface-Essentials/login_key" stroke="none" stroke-width="1" fill="none" fill-rule="evenodd">
        <path d="M21.5833333,2 L19.0833333,2 C18.9726312,2 18.866489,2.04409945 18.7883333,2.1225 L10.8466667,10.065 C8.09617819,8.80901864 4.84101925,9.7021264 3.11658934,12.1858771 C1.39215943,14.6696278 1.69304987,18.0316459 3.83111863,20.1697147 C5.96918739,22.3077835 9.33120555,22.6086739 11.8149562,20.884244 C14.2987069,19.1598141 15.1918147,15.9046551 13.9358333,13.1541667 L15.8625,11.2266667 L17.4733333,11.7633333 C17.74824,11.8533751 18.050176,11.7944088 18.2710061,11.6075526 C18.4918362,11.4206964 18.5999647,11.1326849 18.5566667,10.8466667 L18.2558333,8.83333333 L18.8608333,8.22833333 L20.0741667,8.78 C20.3693003,8.91470566 20.7157845,8.86588447 20.9622048,8.6548714 C21.2086252,8.44385833 21.310184,8.10901425 21.2225,7.79666667 L20.8008333,6.28916667 L21.8783333,5.21166667 C21.9564283,5.13337439 22.0000007,5.02724905 22.0000007,4.91666667 L22.0000007,2.41666667 C22.0000007,2.18654802 21.813452,2 21.5833333,2 Z M7.83333333,17.4166667 C7.83333333,18.1070226 7.27368927,18.6666667 6.58333333,18.6666667 C5.8929774,18.6666667 5.33333333,18.1070226 5.33333333,17.4166667 C5.33333333,16.7263107 5.8929774,16.1666667 6.58333333,16.1666667 C7.27368927,16.1666667 7.83333333,16.7263107 7.83333333,17.4166667 L7.83333333,17.4166667 Z" id="ðŸ–-Color" fill="#5A5A5A"></path>
        <rect id="_Transparent_Rectangle_" x="0" y="0" width="24" height="24"></rect>
    </g>
</svg>