<?xml version="1.0" encoding="UTF-8"?>
<svg width="24px" height="24px" viewBox="0 0 24 24" version="1.1" xmlns="http://www.w3.org/2000/svg" xmlns:xlink="http://www.w3.org/1999/xlink">
    <title>1. Interface Essentials/login_1</title>
    <g id="1.-Interface-Essentials/login_1" stroke="none" stroke-width="1" fill="none" fill-rule="evenodd">
        <path d="M21.166683,2.41685393 C21.6269112,2.41685393 22,2.78994268 22,3.25017098 L22,3.25017098 L22,20.749829 C22,21.2100573 21.6269112,21.5831461 21.166683,21.5831461 L21.166683,21.5831461 L10.7502198,21.5831461 C10.2899915,21.5831461 9.91690278,21.2100573 9.91690278,20.749829 L9.91690278,20.749829 L9.91690278,15.3332682 C9.91690278,15.103154 10.1034472,14.9166097 10.3335613,14.9166097 L10.3335613,14.9166097 L16.1667807,14.9166097 C16.8538754,14.9176122 17.5110947,14.6357758 17.9840081,14.1373251 C18.4569215,13.6388744 18.7038357,12.9677541 18.6667318,12.2816612 C18.5459786,10.9209016 17.390896,9.88679298 16.0251168,9.91670738 L16.0251168,9.91670738 L10.3335613,9.91670738 C10.1034472,9.91670738 9.91690278,9.730163 9.91690278,9.50004885 L9.91690278,9.50004885 L9.91690278,3.25017098 C9.91690278,2.78994268 10.2899915,2.41685393 10.7502198,2.41685393 L10.7502198,2.41685393 Z M6.47946995,8.43256971 C6.72961848,8.23229056 7.07245032,8.19319181 7.36127094,8.33200345 C7.65009157,8.47081508 7.83373042,8.76294375 7.83361015,9.08339033 L7.83361015,9.08339033 L7.83361015,11.166683 L16.1667807,11.166683 C16.8571231,11.166683 17.4167562,11.7263161 17.4167562,12.4166585 C17.4167562,13.107001 16.8571231,13.6666341 16.1667807,13.6666341 L16.1667807,13.6666341 L7.83361015,13.6666341 L7.83361015,15.7499267 C7.83363804,16.0700135 7.65032296,16.3618277 7.3619527,16.5007454 C7.07136758,16.6295481 6.733867,16.5913044 6.47946995,16.4007473 L6.47946995,16.4007473 L2.3128847,13.0674791 C2.11512806,12.9093419 2,12.6698681 2,12.4166585 C2,12.163449 2.11512806,11.9239751 2.3128847,11.7658379 L2.3128847,11.7658379 Z" id="ðŸ–-Color" fill="#5A5A5A"></path>
        <rect id="_Transparent_Rectangle_" x="0" y="0" width="24" height="24"></rect>
    </g>
</svg>