<svg width="24" height="24" viewBox="0 0 24 24" fill="none" xmlns="http://www.w3.org/2000/svg">
<g id="login_lock">
<path id="Shape" fill-rule="evenodd" clip-rule="evenodd" d="M17.0069 17.4169C16.5466 17.4169 16.1735 17.79 16.1735 18.2503V18.667C16.1735 18.8971 15.987 19.0837 15.7568 19.0837H11.1732C10.9431 19.0837 10.7565 18.8971 10.7565 18.667V5.33278C10.7565 5.10265 10.9431 4.91609 11.1732 4.91609H15.7568C15.987 4.91609 16.1735 5.10265 16.1735 5.33278V6.16617C16.1735 6.62644 16.5466 6.99956 17.0069 6.99956C17.4672 6.99956 17.8403 6.62644 17.8403 6.16617V4.0827C17.8403 3.62243 17.4672 3.24931 17.0069 3.24931H10.7565V2.41592C10.7564 2.28963 10.6991 2.17017 10.6006 2.09112C10.5021 2.01207 10.3731 1.98195 10.2498 2.00923L2.7493 3.67601C2.55852 3.71821 2.42268 3.88731 2.42261 4.0827V19.9171C2.42268 20.1125 2.55852 20.2816 2.7493 20.3238L10.2498 21.9906C10.3733 22.0161 10.5018 21.9856 10.6007 21.9072C10.6994 21.8279 10.7568 21.708 10.7565 21.5814V20.748H17.0069C17.4672 20.748 17.8403 20.3749 17.8403 19.9146V18.2478C17.8389 17.7885 17.4662 17.4169 17.0069 17.4169ZM8.67302 12.4166C8.67302 13.107 8.11334 13.6667 7.42294 13.6667C6.73254 13.6667 6.17286 13.107 6.17286 12.4166C6.17286 11.7262 6.73254 11.1665 7.42294 11.1665C8.11334 11.1665 8.67302 11.7262 8.67302 12.4166ZM20.5355 11.1665H20.7438C21.2041 11.1665 21.5772 11.5396 21.5772 11.9999V15.7501C21.5772 16.2104 21.2041 16.5835 20.7438 16.5835H15.7435C15.2832 16.5835 14.9101 16.2104 14.9101 15.7501V11.9999C14.9101 11.5396 15.2832 11.1665 15.7435 11.1665H15.9518V10.3823C15.9294 9.54876 16.3612 8.76875 17.0795 8.34536C17.7979 7.92198 18.6894 7.92198 19.4078 8.34536C20.1261 8.76875 20.558 9.54876 20.5355 10.3823V11.1665ZM17.7104 9.44475C17.3818 9.64035 17.1866 10.0002 17.2019 10.3823V11.1665H19.2854V10.3823C19.3007 10.0002 19.1055 9.64035 18.7769 9.44475C18.4483 9.24914 18.039 9.24914 17.7104 9.44475ZM18.2437 14.2917C17.7834 14.2917 17.4103 13.9186 17.4103 13.4583C17.4103 12.9981 17.7834 12.6249 18.2437 12.6249C18.7039 12.6249 19.077 12.9981 19.077 13.4583C19.077 13.9186 18.7039 14.2917 18.2437 14.2917Z" fill="#5A5A5A"/>
</g>
</svg>
