<svg width="24" height="24" viewBox="0 0 24 24" fill="none" xmlns="http://www.w3.org/2000/svg">
<g id="logout">
<path id="Shape" fill-rule="evenodd" clip-rule="evenodd" d="M5.89669 13.2158C6.37192 13.8203 7.08264 14.1706 7.83273 14.17H13.6655C13.8956 14.17 14.0821 14.3643 14.0821 14.6039V21.1137C14.0821 21.5931 13.709 21.9817 13.2488 21.9817H2.83325C2.37306 21.9817 2 21.5931 2 21.1137V2.8864C2 2.40703 2.37306 2.01843 2.83325 2.01843H13.2488C13.709 2.01843 14.0821 2.40703 14.0821 2.8864V8.52818C14.0821 8.76786 13.8956 8.96216 13.6655 8.96216H7.92522C6.70821 8.93948 5.64418 9.81267 5.38049 11.0505C5.23197 11.8164 5.42147 12.6112 5.89669 13.2158ZM20.7197 10.0844L21.6855 10.8882L21.6871 10.8873C21.8849 11.052 22 11.3015 22 11.5652C22 11.8289 21.8849 12.0784 21.6871 12.2431L20.7214 13.0477L19.6024 13.9799L17.5192 15.7158C17.2691 15.9244 16.9263 15.9651 16.6375 15.8206C16.3487 15.676 16.1651 15.3717 16.1652 15.0379V12.868H7.83273C7.14245 12.868 6.58286 12.2851 6.58286 11.5661C6.58286 10.847 7.14245 10.2641 7.83273 10.2641H16.1652V8.0942C16.1653 7.76092 16.3485 7.45712 16.6368 7.31245C16.925 7.16779 17.2673 7.20782 17.5176 7.41545L19.6007 9.15138L20.7197 10.0844Z" fill="#5A5A5A"/>
</g>
</svg>
