<?xml version="1.0" encoding="UTF-8"?>
<svg width="24px" height="24px" viewBox="0 0 24 24" version="1.1" xmlns="http://www.w3.org/2000/svg" xmlns:xlink="http://www.w3.org/1999/xlink">
    <title>1. Interface Essentials/logout</title>
    <g id="1.-Interface-Essentials/logout" stroke="none" stroke-width="1" fill="none" fill-rule="evenodd">
        <path d="M13.2488428,2.01838796 C13.7090327,2.01838796 14.0820904,2.40698969 14.0820904,2.88635422 L14.0820904,2.88635422 L14.0820904,8.52813494 C14.0820904,8.76781721 13.8955616,8.96211807 13.6654666,8.96211807 L13.6654666,8.96211807 L7.92522378,8.96211807 C6.70820693,8.9394369 5.64417848,9.81262658 5.38048557,11.0504449 C5.23196626,11.816326 5.42146499,12.6111995 5.89669169,13.2157289 C6.3719184,13.8202582 7.08263723,14.1705392 7.8327333,14.1699157 L7.8327333,14.1699157 L13.6654666,14.1699157 C13.8955616,14.1699157 14.0820904,14.3642165 14.0820904,14.6038988 L14.0820904,14.6038988 L14.0820904,21.1136458 C14.0820904,21.5930103 13.7090327,21.981612 13.2488428,21.981612 L13.2488428,21.981612 L2.83324761,21.981612 C2.37305766,21.981612 2,21.5930103 2,21.1136458 L2,21.1136458 L2,2.88635422 C2,2.40698969 2.37305766,2.01838796 2.83324761,2.01838796 L2.83324761,2.01838796 Z M16.6367726,7.31240993 C16.9250051,7.1677461 17.2673023,7.20777113 17.5175703,7.41540219 L17.5175703,7.41540219 L19.6006893,9.15133472 L20.7197409,10.0843985 L21.6854749,10.8881352 C21.8848815,11.0519798 22,11.301411 22,11.5651489 C22,11.8288868 21.8848815,12.078318 21.6871414,12.2430306 L21.6871414,12.2430306 L20.7214074,13.0476353 L19.6023558,13.979831 L17.5192368,15.7157636 C17.2691091,15.9243703 16.9263058,15.9650948 16.6375093,15.8205114 C16.3487127,15.675928 16.1650892,15.3716526 16.1652094,15.0378819 L16.1652094,15.0378819 L16.1652094,12.8679663 L7.8327333,12.8679663 C7.14244837,12.8679663 6.58286188,12.2850637 6.58286188,11.5660169 C6.58286188,10.8469701 7.14244837,10.2640675 7.8327333,10.2640675 L7.8327333,10.2640675 L16.1652094,10.2640675 L16.1652094,8.09415181 C16.1652804,7.76087565 16.3485401,7.45707377 16.6367726,7.31240993 Z" id="ðŸ–-Color" fill="#5A5A5A"></path>
        <rect id="_Transparent_Rectangle_" x="0" y="0" width="24" height="24"></rect>
    </g>
</svg>