<svg width="24" height="24" viewBox="0 0 24 24" fill="none" xmlns="http://www.w3.org/2000/svg">
<g id="move_expand_vertical">
<path id="Shape" fill-rule="evenodd" clip-rule="evenodd" d="M6.48664 10.0077C6.07945 10.4137 5.42052 10.4137 5.01333 10.0077C4.81818 9.81306 4.7085 9.54876 4.7085 9.27313C4.7085 8.99751 4.81818 8.73321 5.01333 8.53856L11.2632 2.3045C11.6704 1.8985 12.3293 1.8985 12.7365 2.3045L18.9864 8.53856C19.2489 8.80174 19.351 9.18494 19.2543 9.54381C19.1576 9.90268 18.8767 10.1827 18.5176 10.2784C18.1585 10.3741 17.7756 10.2709 17.5131 10.0077L12.1474 4.65529C12.0656 4.5746 11.9342 4.5746 11.8524 4.65529L6.48664 10.0077ZM17.5131 13.9926C17.9203 13.5866 18.5792 13.5866 18.9864 13.9926C19.1816 14.1873 19.2913 14.4516 19.2913 14.7272C19.2913 15.0028 19.1816 15.2671 18.9864 15.4618L12.7365 21.6958C12.3292 22.1014 11.6706 22.1014 11.2632 21.6958L5.01333 15.4618C4.60764 15.0549 4.60857 14.3962 5.01541 13.9906C5.42226 13.5849 6.08095 13.5858 6.48664 13.9926L11.8524 19.345C11.9342 19.4257 12.0656 19.4257 12.1474 19.345L17.5131 13.9926Z" fill="#5A5A5A"/>
</g>
</svg>
