<?xml version="1.0" encoding="UTF-8"?>
<svg width="24px" height="24px" viewBox="0 0 24 24" version="1.1" xmlns="http://www.w3.org/2000/svg" xmlns:xlink="http://www.w3.org/1999/xlink">
    <title>1. Interface Essentials/move_expand_vertical</title>
    <g id="1.-Interface-Essentials/move_expand_vertical" stroke="none" stroke-width="1" fill="none" fill-rule="evenodd">
        <path d="M5.01553351,13.9905549 C5.42237646,13.5848625 6.0810665,13.5857952 6.48675889,13.9926382 L6.48675889,13.9926382 L11.8525025,19.3450486 C11.934279,19.4257429 12.065721,19.4257429 12.1474975,19.3450486 L12.1474975,19.3450486 L17.5132411,13.9926382 C17.9204327,13.5866377 18.5793582,13.5866377 18.9865498,13.9926382 C19.1817035,14.1872814 19.2913827,14.4515809 19.2913827,14.7272092 C19.2913827,15.0028375 19.1817035,15.267137 18.9865498,15.4617803 L18.9865498,15.4617803 L12.7366543,21.6958426 C12.3292738,22.1013858 11.6707262,22.1013858 11.2633457,21.6958426 L11.2633457,21.6958426 L5.0134502,15.4617803 C4.60775782,15.0549373 4.60869055,14.3962473 5.01553351,13.9905549 Z M11.2633457,2.30450034 C11.6705372,1.89849989 12.3294628,1.89849989 12.7366543,2.30450034 L12.7366543,2.30450034 L18.9865498,8.53856273 C19.2489868,8.80174398 19.351083,9.18494193 19.2543798,9.54380963 C19.1576766,9.90267732 18.8768656,10.1826942 18.5177255,10.2783807 C18.1585853,10.3740671 17.7756781,10.2708861 17.5132411,10.0077048 L17.5132411,10.0077048 L12.1474975,4.65529435 C12.065721,4.57460005 11.934279,4.57460005 11.8525025,4.65529435 L11.8525025,4.65529435 L6.48675889,10.0077048 C6.07956731,10.4137053 5.42064178,10.4137053 5.0134502,10.0077048 C4.8182965,9.81306156 4.70861728,9.54876209 4.70861728,9.27313377 C4.70861728,8.99750546 4.8182965,8.73320599 5.0134502,8.53856273 L5.0134502,8.53856273 Z" id="ðŸ–-Color" fill="#5A5A5A"></path>
        <rect id="_Transparent_Rectangle_" x="0" y="0" width="24" height="24"></rect>
    </g>
</svg>