<svg width="24" height="24" viewBox="0 0 24 24" fill="none" xmlns="http://www.w3.org/2000/svg">
<g id="open_quote">
<path id="Shape" fill-rule="evenodd" clip-rule="evenodd" d="M2.0027 13.6354C1.88632 8.98659 5.55154 5.11922 10.1999 4.98608C10.8001 4.98608 11.2867 5.47267 11.2867 6.07289C11.2867 6.67312 10.8001 7.1597 10.1999 7.1597C8.07026 7.19026 6.12001 8.35862 5.08837 10.2219C5.04451 10.2975 5.05015 10.3919 5.10269 10.4617C5.15523 10.5315 5.24446 10.5631 5.3292 10.5419C5.64617 10.4619 5.97174 10.421 6.29864 10.4201C8.0367 10.4198 9.60379 11.4665 10.2691 13.0722C10.9344 14.6779 10.5668 16.5263 9.33781 17.7553C8.10882 18.9842 6.26048 19.3518 4.65479 18.6865C3.0491 18.0212 2.00234 16.4541 2.0027 14.7161V13.6354ZM22 6.07289C22 6.67312 21.5134 7.1597 20.9132 7.1597C18.7836 7.19026 16.8333 8.35862 15.8017 10.2219C15.7584 10.2977 15.7642 10.392 15.8165 10.4619C15.8688 10.5316 15.958 10.5632 16.0425 10.5419C16.3598 10.4618 16.6857 10.421 17.0128 10.4201C18.7508 10.4201 20.3177 11.4671 20.9827 13.0728C21.6477 14.6785 21.2799 16.5267 20.0508 17.7556C18.8218 18.9844 16.9735 19.3518 15.3679 18.6864C13.7623 18.0211 12.7157 16.4541 12.716 14.7161V13.6354C12.6001 8.98677 16.2651 5.11969 20.9132 4.98608C21.5134 4.98608 22 5.47267 22 6.07289Z" fill="#5A5A5A"/>
</g>
</svg>
