<?xml version="1.0" encoding="UTF-8"?>
<svg width="24px" height="24px" viewBox="0 0 24 24" version="1.1" xmlns="http://www.w3.org/2000/svg" xmlns:xlink="http://www.w3.org/1999/xlink">
    <title>1. Interface Essentials/open_quote</title>
    <g id="1.-Interface-Essentials/open_quote" stroke="none" stroke-width="1" fill="none" fill-rule="evenodd">
        <path d="M10.199852,4.98610037 C10.8000806,4.98610037 11.286662,5.47268177 11.286662,6.07291035 C11.286662,6.67313892 10.8000806,7.15972032 10.199852,7.15972032 C8.07025903,7.19027742 6.12000964,8.35863571 5.08836728,10.2219161 C5.0445089,10.2974756 5.05015195,10.3919511 5.1026928,10.4617526 C5.15523365,10.5315542 5.24446017,10.5631149 5.32920437,10.541873 C5.64617471,10.461909 5.9717388,10.421031 6.29863888,10.4201503 C8.03669527,10.4197986 9.60379063,11.4665543 10.2690785,13.0722418 C10.9343663,14.6779292 10.5668046,16.5262755 9.33781309,17.755267 C8.1088216,18.9842584 6.26047538,19.3518202 4.65478791,18.6865323 C3.04910045,18.0212445 2.00234474,16.4541491 2.00269639,14.7160927 L2.00269639,14.7160927 L2.00269639,13.6353689 C1.88631895,8.98660676 5.55153946,5.11923154 10.199852,4.98610037 Z M20.91319,4.98610037 C21.5134186,4.98610037 22,5.47268177 22,6.07291035 C22,6.67313892 21.5134186,7.15972032 20.91319,7.15972032 C18.7835971,7.19027742 16.8333477,8.35863571 15.8017053,10.2219161 C15.7583867,10.2977071 15.7641935,10.3919818 15.8164859,10.4618838 C15.8688423,10.5316535 15.9579567,10.5631863 16.0425424,10.541873 C16.3597981,10.4618558 16.6856564,10.4209775 17.0128464,10.4201503 C18.7508237,10.4201503 20.3176522,11.467129 20.9826661,13.0728443 C21.64768,14.6785597 21.2799036,16.5267633 20.0508437,17.7555745 C18.8217838,18.9843856 16.9735058,19.351788 15.3679251,18.6864492 C13.7623444,18.0211104 12.7156828,16.45407 12.7160344,14.7160927 L12.7160344,14.7160927 L12.7160344,13.6353689 C12.6001389,8.9867919 16.2650882,5.11970284 20.91319,4.98610037 Z" id="ðŸ–-Color" fill="#5A5A5A"></path>
        <rect id="_Transparent_Rectangle_" x="0" y="0" width="24" height="24"></rect>
    </g>
</svg>