<svg width="24" height="24" viewBox="0 0 24 24" fill="none" xmlns="http://www.w3.org/2000/svg">
<g id="ordered_list">
<path id="Shape" fill-rule="evenodd" clip-rule="evenodd" d="M4.97877 6.25348H5.19153V6.25518C5.54404 6.25518 5.82981 6.54095 5.82981 6.89346C5.82981 7.24597 5.54404 7.53173 5.19153 7.53173H3.06394C2.71143 7.53173 2.42566 7.24597 2.42566 6.89346C2.42566 6.54095 2.71143 6.25518 3.06394 6.25518H3.2767C3.3942 6.25518 3.48946 6.15992 3.48946 6.04242V3.48931C3.48991 3.43259 3.46769 3.37803 3.42774 3.33776C3.3878 3.29749 3.33342 3.27484 3.2767 3.27485H3.06394C2.71143 3.27485 2.42566 2.98908 2.42566 2.63657C2.42566 2.28406 2.71143 1.99829 3.06394 1.99829H3.59584C4.24172 1.99923 4.76507 2.52259 4.76601 3.16847V6.04242C4.76695 6.15926 4.86193 6.25348 4.97877 6.25348ZM21.1485 5.6169H8.38292C7.9129 5.6169 7.53188 5.23588 7.53188 4.76586C7.53188 4.29585 7.9129 3.91483 8.38292 3.91483H21.1485C21.6185 3.91483 21.9995 4.29585 21.9995 4.76586C21.9995 5.23588 21.6185 5.6169 21.1485 5.6169ZM8.38292 11.1486H21.1485C21.6185 11.1486 21.9995 11.5297 21.9995 11.9997C21.9995 12.4697 21.6185 12.8507 21.1485 12.8507H8.38292C7.9129 12.8507 7.53188 12.4697 7.53188 11.9997C7.53188 11.5297 7.9129 11.1486 8.38292 11.1486ZM21.1485 18.3825H8.38292C7.9129 18.3825 7.53188 18.7635 7.53188 19.2335C7.53188 19.7035 7.9129 20.0845 8.38292 20.0845H21.1485C21.6185 20.0845 21.9995 19.7035 21.9995 19.2335C21.9995 18.7635 21.6185 18.3825 21.1485 18.3825ZM2.02482 17.7289C2.22377 16.9838 2.89875 16.4656 3.66988 16.4659V16.4642C4.29773 16.4645 4.87442 16.8105 5.17026 17.3643C5.46611 17.918 5.43307 18.5897 5.0843 19.1118C5.03664 19.1835 5.03664 19.2767 5.0843 19.3484C5.45877 19.9078 5.46833 20.6354 5.10869 21.2045C4.74905 21.7736 4.08778 22.0772 3.42178 21.9791C2.75577 21.881 2.21017 21.3995 2.02993 20.7509C1.96127 20.5287 2.01889 20.2868 2.18032 20.1194C2.34174 19.952 2.58143 19.8856 2.80595 19.9462C3.03048 20.0068 3.2043 20.1846 3.25968 20.4105C3.31906 20.6222 3.53005 20.7539 3.74636 20.7141C3.96267 20.6743 4.11302 20.4762 4.09317 20.2572C4.07332 20.0381 3.88982 19.8703 3.66988 19.8701C3.31736 19.8701 3.0316 19.5843 3.0316 19.2318C3.0316 18.8793 3.31736 18.5935 3.66988 18.5935C3.89042 18.5934 4.07435 18.4248 4.0936 18.2051C4.11286 17.9854 3.96106 17.7874 3.74389 17.749C3.52672 17.7105 3.31617 17.8444 3.25882 18.0574C3.16811 18.3981 2.81833 18.6008 2.47757 18.5101C2.13681 18.4194 1.93411 18.0696 2.02482 17.7289ZM5.40429 10.9342C5.40429 9.99415 4.64224 9.23211 3.70221 9.23211C2.76219 9.23211 2.00014 9.99415 2.00014 10.9342C2.00014 11.2867 2.28591 11.5725 2.63842 11.5725C2.99093 11.5725 3.2767 11.2867 3.2767 10.9342C3.2767 10.6992 3.46721 10.5087 3.70221 10.5087C3.93722 10.5087 4.12773 10.6992 4.12773 10.9342C4.12766 11.1338 4.05951 11.3274 3.93455 11.4831L2.13971 13.7264C1.98615 13.9181 1.95614 14.1808 2.06254 14.4021C2.16893 14.6234 2.39285 14.7641 2.63842 14.7638H4.76601C5.11852 14.7638 5.40429 14.4781 5.40429 14.1256C5.40429 13.7731 5.11852 13.4873 4.76601 13.4873H4.40943C4.32742 13.4879 4.25244 13.4411 4.21693 13.3671C4.18142 13.2932 4.19176 13.2054 4.24347 13.1418L4.93622 12.2805C5.23973 11.8974 5.4047 11.4229 5.40429 10.9342Z" fill="#5A5A5A"/>
</g>
</svg>
