<?xml version="1.0" encoding="UTF-8"?>
<svg width="24px" height="24px" viewBox="0 0 24 24" version="1.1" xmlns="http://www.w3.org/2000/svg" xmlns:xlink="http://www.w3.org/1999/xlink">
    <title>1. Interface Essentials/ordered_list</title>
    <g id="1.-Interface-Essentials/ordered_list" stroke="none" stroke-width="1" fill="none" fill-rule="evenodd">
        <path d="M3.66999417,16.4642112 C4.29784708,16.4645354 4.87453563,16.8104764 5.17038383,17.3642573 C5.46623204,17.9180381 5.43319019,18.5897174 5.08441777,19.1117875 C5.03675698,19.1834493 5.03675698,19.276714 5.08441777,19.3483758 C5.45888958,19.9078088 5.46845053,20.6353892 5.1088082,21.204469 C4.74916588,21.7735488 4.08790347,22.0771878 3.42189541,21.979067 C2.75588735,21.8809462 2.2102884,21.3995042 2.03004574,20.7508849 C1.96139365,20.5287042 2.0190095,20.2867679 2.18043551,20.1193792 C2.34186152,19.9519904 2.58154977,19.8856407 2.80607344,19.9461922 C3.03059711,20.0067437 3.20442218,20.1846133 3.2597943,20.41047 C3.31917842,20.6222421 3.5301648,20.7538625 3.7464775,20.7140793 C3.96279021,20.6742962 4.11314053,20.4762205 4.09329125,20.2571774 C4.07344196,20.0381343 3.88993467,19.8703122 3.66999417,19.8700615 C3.31748307,19.8700615 3.03171637,19.5842948 3.03171637,19.2317837 C3.03171637,18.8792726 3.31748307,18.5935059 3.66999417,18.5935059 C3.89053976,18.5934196 4.07446743,18.4248395 4.09372148,18.205136 C4.11297552,17.9854324 3.96117384,17.7874302 3.74400508,17.7489842 C3.52683633,17.7105381 3.31628514,17.8443918 3.25894326,18.0573526 C3.16823041,18.3981133 2.81845196,18.6008171 2.47769124,18.5101043 C2.13693051,18.4193914 1.93422667,18.069613 2.02493952,17.7288523 C2.22389092,16.9838292 2.89886456,16.4656395 3.66999417,16.4659133 L3.66999417,16.4659133 Z M21.1485934,18.3824487 C21.6186082,18.3824487 21.9996305,18.763471 21.9996305,19.2334858 C21.9996305,19.7035006 21.6186082,20.0845229 21.1485934,20.0845229 L21.1485934,20.0845229 L8.38303743,20.0845229 C7.91302264,20.0845229 7.53200036,19.7035006 7.53200036,19.2334858 C7.53200036,18.763471 7.91302264,18.3824487 8.38303743,18.3824487 L8.38303743,18.3824487 Z M3.70233357,9.23209821 C4.64236316,9.23209821 5.40440848,9.99414275 5.40440848,10.9341723 C5.40482212,11.4229204 5.23985363,11.8974298 4.93633732,12.280513 L4.93633732,12.280513 L4.24359315,13.1417625 C4.19187984,13.2054174 4.18154038,13.2931971 4.21704792,13.3671256 C4.25255545,13.4410541 4.3275339,13.4878561 4.40954538,13.4872835 L4.40954538,13.4872835 L4.76612991,13.4872835 C5.118641,13.4872835 5.40440848,13.7730502 5.40440848,14.1255613 C5.40440848,14.4780724 5.118641,14.7638394 4.76612991,14.7638394 L4.76612991,14.7638394 L2.63853724,14.7638394 C2.39297334,14.7640788 2.16904728,14.623421 2.06265426,14.4021017 C1.95626125,14.1807825 1.98627004,13.9180526 2.13982952,13.7264249 L2.13982952,13.7264249 L3.93466669,11.4830912 C4.05962915,11.3274214 4.12777406,11.1337938 4.12785211,10.9341723 C4.12785211,10.6991649 3.93734097,10.5086538 3.70233357,10.5086538 C3.46732618,10.5086538 3.27681504,10.6991649 3.27681504,10.9341723 C3.27681504,11.2866834 2.99104833,11.5724501 2.63853724,11.5724501 C2.28602615,11.5724501 2.00025945,11.2866834 2.00025945,10.9341723 C2.00025945,9.99414275 2.76230399,9.23209821 3.70233357,9.23209821 Z M21.1485934,11.1486337 C21.6186082,11.1486337 21.9996305,11.5296559 21.9996305,11.9996707 C21.9996305,12.4696855 21.6186082,12.8507078 21.1485934,12.8507078 L21.1485934,12.8507078 L8.38303743,12.8507078 C7.91302264,12.8507078 7.53200036,12.4696855 7.53200036,11.9996707 C7.53200036,11.5296559 7.91302264,11.1486337 8.38303743,11.1486337 L8.38303743,11.1486337 Z M3.59595394,1.99828316 C4.24183559,1.99922058 4.76519248,2.52257747 4.76612991,3.16845912 L4.76612991,3.16845912 L4.76612991,6.04241129 C4.76706464,6.15924974 4.86204698,6.25347222 4.97888917,6.25346848 L4.97888917,6.25346848 L5.19164844,6.25346848 C5.54415953,6.25517055 5.82992624,6.54093726 5.82992624,6.89344835 C5.82992624,7.24595945 5.54415953,7.53172615 5.19164844,7.53172615 L5.19164844,7.53172615 L3.06405578,7.53172615 C2.71154468,7.53172615 2.42577798,7.24595945 2.42577798,6.89344835 C2.42577798,6.54093726 2.71154468,6.25517055 3.06405578,6.25517055 L3.06405578,6.25517055 L3.27681504,6.25517055 C3.39431874,6.25517055 3.48957431,6.15991499 3.48957431,6.04241129 L3.48957431,6.04241129 L3.48957431,3.4893001 C3.4900281,3.4325785 3.46781294,3.37802406 3.42786355,3.33775507 C3.38791416,3.29748608 3.33353845,3.27483694 3.27681504,3.27483876 L3.27681504,3.27483876 L3.06405578,3.27483876 C2.71154468,3.27483876 2.42577798,2.98907205 2.42577798,2.63656096 C2.42577798,2.28404986 2.71154468,1.99828316 3.06405578,1.99828316 L3.06405578,1.99828316 Z M21.1485934,3.91481863 C21.6186082,3.91481863 21.9996305,4.2958409 21.9996305,4.76585569 C21.9996305,5.23587048 21.6186082,5.61689276 21.1485934,5.61689276 L21.1485934,5.61689276 L8.38303743,5.61689276 C7.91302264,5.61689276 7.53200036,5.23587048 7.53200036,4.76585569 C7.53200036,4.2958409 7.91302264,3.91481863 8.38303743,3.91481863 L8.38303743,3.91481863 Z" id="ðŸ–-Color" fill="#5A5A5A"></path>
        <rect id="_Transparent_Rectangle_" x="0" y="0" width="24" height="24"></rect>
    </g>
</svg>