<svg width="24" height="24" viewBox="0 0 24 24" fill="none" xmlns="http://www.w3.org/2000/svg">
<g id="password_approved">
<path id="Shape" fill-rule="evenodd" clip-rule="evenodd" d="M10.8041 12.4166H3.63005C2.72028 12.4052 1.99128 11.6598 2.00008 10.75V4.91676C1.99128 4.00696 2.72028 3.26156 3.63005 3.25012H20.3698C21.2796 3.26156 22.0086 4.00696 21.9998 4.91676V8.6667C21.9998 9.12693 21.6267 9.50002 21.1664 9.50002C20.7062 9.50002 20.3331 9.12693 20.3331 8.6667V5.33342C20.3331 5.10331 20.1466 4.91676 19.9165 4.91676H4.05171C3.8216 4.91676 3.63505 5.10331 3.63505 5.33342L3.66672 10.3333C3.66672 10.5635 3.85326 10.75 4.08338 10.75H10.8041C11.2643 10.75 11.6374 11.1231 11.6374 11.5833C11.6326 11.6214 11.6248 11.659 11.6141 11.6958C11.4721 11.8862 11.3408 12.0842 11.2208 12.2891C11.096 12.3687 10.952 12.4128 10.8041 12.4166ZM7.77832 6.39674C8.06701 6.20822 8.45379 6.28871 8.64331 6.57674C8.73446 6.71506 8.76688 6.88395 8.73343 7.04619C8.69998 7.20844 8.6034 7.35073 8.46498 7.44172L8.12415 7.66505C8.06546 7.70337 8.03009 7.76872 8.03009 7.8388C8.03009 7.90889 8.06546 7.97423 8.12415 8.01255L8.46248 8.23838C8.74534 8.43148 8.8201 8.81627 8.63012 9.10124C8.44014 9.38621 8.0562 9.4652 7.76916 9.27836L7.67832 9.21836C7.61451 9.17568 7.5324 9.17155 7.46463 9.20761C7.39685 9.24367 7.35441 9.31409 7.35416 9.39086V9.50002C7.35416 9.8452 7.07434 10.125 6.72917 10.125C6.384 10.125 6.10418 9.8452 6.10418 9.50002V9.37503C6.10404 9.29856 6.06218 9.22826 5.99502 9.1917C5.92771 9.15493 5.84559 9.15846 5.78169 9.20086L5.67835 9.26836C5.49169 9.39842 5.2491 9.41676 5.04499 9.31627C4.84089 9.21577 4.70752 9.0123 4.69678 8.78505C4.68605 8.5578 4.79964 8.34267 4.99337 8.22338L5.33336 8.00005C5.39083 7.96178 5.42551 7.89743 5.42586 7.82838C5.42575 7.7586 5.39112 7.69339 5.33336 7.65422L4.99337 7.42839C4.7105 7.23529 4.63574 6.8505 4.82572 6.56553C5.0157 6.28056 5.39965 6.20157 5.68669 6.38841L5.77752 6.44924C5.84145 6.49201 5.92375 6.49606 5.99159 6.45979C6.05942 6.42352 6.10174 6.35283 6.10168 6.27591V6.16674C6.10168 5.82157 6.3815 5.54175 6.72667 5.54175C7.07184 5.54175 7.35166 5.82157 7.35166 6.16674V6.29091C7.3517 6.36742 7.39367 6.43776 7.461 6.47412C7.52832 6.51047 7.61016 6.507 7.67416 6.46507L7.77832 6.39674ZM14.1891 6.57674C13.9998 6.2883 13.6127 6.20773 13.3241 6.39674L13.2199 6.46507C13.156 6.50747 13.0739 6.511 13.0066 6.47424C12.9395 6.43754 12.8977 6.36733 12.8974 6.29091V6.16674C12.8974 5.94346 12.7783 5.73713 12.5849 5.62549C12.3915 5.51384 12.1533 5.51384 11.9599 5.62549C11.7666 5.73713 11.6474 5.94346 11.6474 6.16674V6.27591C11.6475 6.35283 11.6052 6.42352 11.5373 6.45979C11.4695 6.49606 11.3872 6.49201 11.3233 6.44924L11.2324 6.38841C11.0467 6.26159 10.8071 6.24437 10.6051 6.34333C10.4031 6.44228 10.2699 6.64214 10.2562 6.86665C10.2426 7.09116 10.3506 7.30569 10.5391 7.42839L10.8783 7.65422C10.9366 7.6928 10.9717 7.75805 10.9717 7.82797C10.9717 7.89788 10.9366 7.96314 10.8783 8.00171L10.5383 8.22504C10.3446 8.34433 10.231 8.55947 10.2417 8.78672C10.2524 9.01397 10.3858 9.21744 10.5899 9.31793C10.794 9.41843 11.0366 9.40008 11.2233 9.27003L11.3266 9.20253C11.3906 9.1606 11.4724 9.15713 11.5398 9.19349C11.6071 9.22984 11.6491 9.30018 11.6491 9.37669V9.50002C11.6491 9.8452 11.9289 10.125 12.2741 10.125C12.6193 10.125 12.8991 9.8452 12.8991 9.50002V9.39086C12.8993 9.31409 12.9418 9.24367 13.0095 9.20761C13.0773 9.17155 13.1594 9.17568 13.2232 9.21836L13.3141 9.27836C13.6011 9.4652 13.9851 9.38621 14.175 9.10124C14.365 8.81627 14.2903 8.43148 14.0074 8.23838L13.6666 8.01255C13.609 7.97385 13.5744 7.90902 13.5744 7.83963C13.5744 7.77025 13.609 7.70542 13.6666 7.66672L14.0066 7.44339C14.1461 7.35304 14.2439 7.21074 14.2782 7.04804C14.3124 6.88534 14.2803 6.7157 14.1891 6.57674ZM16.7915 10.3333C13.9151 10.3333 11.5833 12.6652 11.5833 15.5416C11.5833 18.418 13.9151 20.7498 16.7915 20.7498C19.668 20.7498 21.9998 18.418 21.9998 15.5416C21.9965 12.6665 19.6666 10.3366 16.7915 10.3333ZM19.4265 14.5233L17.1065 17.6166C16.8943 17.9013 16.5683 18.079 16.214 18.1032H16.1307C15.8056 18.1034 15.4939 17.9739 15.2649 17.7432L14.0674 16.5449C13.9002 16.3891 13.8314 16.1545 13.8879 15.933C13.9445 15.7116 14.1174 15.5387 14.3388 15.4821C14.5603 15.4256 14.7949 15.4944 14.9507 15.6616L15.8082 16.5182C15.8939 16.6042 16.0129 16.6484 16.1339 16.6394C16.2549 16.6305 16.366 16.5692 16.4382 16.4716L18.4315 13.77C18.6386 13.4938 19.0303 13.4379 19.3065 13.645C19.5826 13.8521 19.6386 14.2438 19.4315 14.5199L19.4265 14.5233Z" fill="#5A5A5A"/>
</g>
</svg>
