<?xml version="1.0" encoding="UTF-8"?>
<svg width="24px" height="24px" viewBox="0 0 24 24" version="1.1" xmlns="http://www.w3.org/2000/svg" xmlns:xlink="http://www.w3.org/1999/xlink">
    <title>1. Interface Essentials/password_approved</title>
    <g id="1.-Interface-Essentials/password_approved" stroke="none" stroke-width="1" fill="none" fill-rule="evenodd">
        <path d="M16.7915918,10.3333594 C19.6666973,10.3365741 21.9966291,12.6665058 21.9998438,15.5416113 C21.9998438,18.4180495 19.6680299,20.7498633 16.7915918,20.7498633 C13.9151537,20.7498633 11.5833398,18.4180495 11.5833398,15.5416113 C11.5833398,12.6651732 13.9151537,10.3333594 16.7915918,10.3333594 Z M19.3065525,13.6449743 C19.0304144,13.4378708 18.6386697,13.4938343 18.4315662,13.7699723 L18.4315662,13.7699723 L16.438264,16.4715968 C16.3661237,16.5691987 16.2550119,16.6304943 16.1339749,16.63946 C16.0129378,16.6484257 15.8940074,16.6041703 15.8082738,16.5182627 L15.8082738,16.5182627 L14.9507872,15.6616095 C14.7949809,15.4944011 14.5603304,15.4255722 14.3388894,15.4821243 C14.1174484,15.5386765 13.9445347,15.7115901 13.8879826,15.9330311 C13.8314304,16.1544721 13.9002593,16.3891226 14.0674677,16.544929 L14.0674677,16.544929 L15.264949,17.7432436 C15.4940226,17.9738688 15.8057109,18.1034639 16.1307688,18.1032383 L16.1307688,18.1032383 L16.2141008,18.1032383 C16.5683591,18.079029 16.8943624,17.9012643 17.1065869,17.6165789 L17.1065869,17.6165789 L19.4265506,14.5232939 C19.6386541,14.2438226 19.5826905,13.8520779 19.3065525,13.6449743 Z M20.3698692,3.25013669 C21.2796421,3.26157629 22.0086421,4.00697508 21.9999226,4.91677732 L21.9999226,4.91677732 L21.9999226,8.66671874 C21.9999226,9.12694884 21.6267536,9.50003906 21.1665235,9.50003906 C20.7062934,9.50003906 20.3332031,9.12694884 20.3332031,8.66671874 L20.3332031,8.66671874 L20.3332031,5.33343748 C20.3332031,5.10332243 20.146658,4.91677732 19.916543,4.91677732 L19.916543,4.91677732 L4.05179084,4.91677732 C3.82167579,4.91677732 3.63513068,5.10332243 3.63513068,5.33343748 L3.63513068,5.33343748 L3.66679685,10.3333594 C3.66679685,10.5634744 3.85334196,10.7500195 4.08345701,10.7500195 L4.08345701,10.7500195 L10.8041853,10.7500195 C11.2644154,10.7500195 11.6375057,11.1231097 11.6375057,11.5833398 C11.6327094,11.6213963 11.6249073,11.6590133 11.6141727,11.6958381 C11.4721856,11.8861822 11.3408745,12.0842616 11.2208455,12.2891621 C11.0961045,12.3686896 10.9520696,12.4127643 10.8041853,12.4166602 L10.8041853,12.4166602 L3.63013076,12.4166602 C2.72035789,12.4052206 1.99135788,11.6598218 2.00007741,10.7500195 L2.00007741,10.7500195 L2.00007741,4.91677732 C1.99135788,4.00697508 2.72035789,3.26157629 3.63013076,3.25013669 L3.63013076,3.25013669 Z M6.72674905,5.54176756 C7.07192162,5.54176756 7.35173928,5.82158522 7.35173928,6.1667578 L7.35173928,6.1667578 L7.35173928,6.29092252 C7.35177588,6.36743571 7.39375128,6.43777183 7.46107419,6.47412969 C7.52839711,6.51048754 7.61023262,6.50701571 7.67423425,6.46508647 L7.67423425,6.46508647 L7.77839928,6.3967542 C8.06708365,6.20823396 8.45386804,6.28872089 8.64338577,6.57675139 C8.73453374,6.71507698 8.76695398,6.88396304 8.73350485,7.04620692 C8.70005573,7.2084508 8.6034813,7.35074259 8.46505522,7.44173788 L8.46505522,7.44173788 L8.12422722,7.66506772 C8.06554155,7.70338098 8.03016231,7.76872997 8.03016231,7.83881501 C8.03016231,7.90890005 8.06554155,7.97424904 8.12422722,8.01256229 L8.12422722,8.01256229 L8.46255526,8.2383921 C8.74541977,8.43149422 8.82018007,8.81628387 8.63019969,9.10125443 C8.44021932,9.38622499 8.05627492,9.4652115 7.76923276,9.27837585 L7.76923276,9.27837585 L7.67840085,9.21837679 C7.61459042,9.17569173 7.53247524,9.17155996 7.4647024,9.20762417 C7.39692956,9.24368838 7.35448329,9.31410349 7.35423924,9.39087409 L7.35423924,9.39087409 L7.35423924,9.50003906 C7.35423924,9.84521163 7.07442158,10.1250293 6.72924901,10.1250293 C6.38407643,10.1250293 6.10425877,9.84521163 6.10425877,9.50003906 L6.10425877,9.50003906 L6.10425877,9.37504101 C6.10411967,9.29856996 6.06225944,9.22827034 5.99509381,9.19171054 C5.92779098,9.15494816 5.84566513,9.158477 5.78176381,9.20087706 L5.78176381,9.20087706 L5.67843209,9.26837601 C5.49176661,9.3984297 5.24917524,9.41677866 5.04507153,9.31628168 C4.84096781,9.2157847 4.70759465,9.01231762 4.69685921,8.78506727 C4.68612377,8.55781693 4.79972197,8.34268277 4.99344279,8.22339233 L4.99344279,8.22339233 L5.33343748,8.00006249 C5.39091195,7.96179565 5.42558585,7.8974459 5.42593604,7.8283985 C5.42582786,7.75861305 5.39119458,7.69340264 5.33343748,7.65423456 L5.33343748,7.65423456 L4.99344279,7.42840475 C4.71057828,7.23530263 4.63581799,6.85051298 4.82579836,6.56554242 C5.01577874,6.28057186 5.39972314,6.20158535 5.68676529,6.388421 L5.68676529,6.388421 L5.77759721,6.44925338 C5.84153188,6.49202103 5.92383044,6.49607924 5.99166253,6.45980912 C6.05949462,6.42353901 6.10182173,6.35284291 6.10175881,6.27592276 L6.10175881,6.27592276 L6.10175881,6.1667578 C6.10175881,5.82158522 6.38157647,5.54176756 6.72674905,5.54176756 Z M11.9600006,5.62550035 C12.1533733,5.51385659 12.3916182,5.51385659 12.5849909,5.62550035 C12.7783635,5.73714411 12.897486,5.94347028 12.897486,6.1667578 L12.897486,6.1667578 L12.897486,6.29092252 C12.8978047,6.36734386 12.9396146,6.43755897 13.0066509,6.47425299 C13.0739538,6.51101538 13.1560796,6.50748653 13.2199809,6.46508647 L13.2199809,6.46508647 L13.324146,6.3967542 C13.6127381,6.20774638 13.9998938,6.28831058 14.1891325,6.57675139 C14.2804198,6.71571473 14.3124896,6.88535723 14.2782293,7.04805453 C14.243969,7.21075184 14.1462105,7.35305549 14.0066353,7.44340452 L14.0066353,7.44340452 L13.6666406,7.66673436 C13.6090521,7.70543412 13.5745094,7.77026451 13.5745094,7.83964833 C13.5745094,7.90903215 13.6090521,7.97386254 13.6666406,8.01256229 L13.6666406,8.01256229 L14.0074686,8.2383921 C14.2903331,8.43149422 14.3650934,8.81628387 14.1751131,9.10125443 C13.9851327,9.38622499 13.6011883,9.4652115 13.3141461,9.27837585 L13.3141461,9.27837585 L13.2233142,9.21837679 C13.1595038,9.17569173 13.0773886,9.17155996 13.0096158,9.20762417 C12.9418429,9.24368838 12.8993967,9.31410349 12.8991526,9.39087409 L12.8991526,9.39087409 L12.8991526,9.50003906 C12.8991526,9.84521162 12.6193349,10.1250293 12.2741624,10.1250293 C11.9289898,10.1250293 11.6491722,9.84521162 11.6491721,9.50003906 L11.6491721,9.50003906 L11.6491721,9.37670765 C11.6491356,9.30019446 11.6071602,9.22985834 11.5398372,9.19350048 C11.4725143,9.15714263 11.3906788,9.16061446 11.3266772,9.2025437 L11.3266772,9.2025437 L11.2233455,9.27004265 C11.03668,9.40009634 10.7940886,9.4184453 10.5899849,9.31794832 C10.3858812,9.21745134 10.252508,9.01398426 10.2417726,8.78673391 C10.2310371,8.55948357 10.3446353,8.34434941 10.5383562,8.22505897 L10.5383562,8.22505897 L10.8783509,8.00172913 C10.9366608,7.96315196 10.9717318,7.89789785 10.9717318,7.82798184 C10.9717318,7.75806584 10.9366608,7.69281172 10.8783509,7.65423456 L10.8783509,7.65423456 L10.5391895,7.42840475 C10.3506801,7.30570403 10.2426421,7.09117359 10.2562954,6.86666332 C10.2699486,6.64215306 10.403187,6.44229549 10.605176,6.34334237 C10.807165,6.24438925 11.0467462,6.26160489 11.232512,6.388421 L11.232512,6.388421 L11.3233439,6.44925338 C11.3872786,6.49202103 11.4695771,6.49607924 11.5374092,6.45980912 C11.6052413,6.42353901 11.6475684,6.35284291 11.6475055,6.27592276 L11.6475055,6.27592276 L11.6475055,6.1667578 C11.6475055,5.94347028 11.766628,5.73714411 11.9600006,5.62550035 Z" id="ðŸ–-Color" fill="#5A5A5A"></path>
        <rect id="_Transparent_Rectangle_" x="0" y="0" width="24" height="24"></rect>
    </g>
</svg>