<?xml version="1.0" encoding="UTF-8"?>
<svg width="24px" height="24px" viewBox="0 0 24 24" version="1.1" xmlns="http://www.w3.org/2000/svg" xmlns:xlink="http://www.w3.org/1999/xlink">
    <title>1. Interface Essentials/password_lock</title>
    <g id="1.-Interface-Essentials/password_lock" stroke="none" stroke-width="1" fill="none" fill-rule="evenodd">
        <path d="M17.7915762,9.11796169 C19.4023815,9.11796169 20.7081973,10.4237774 20.7081973,12.0345828 L20.7081973,12.0345828 L20.7081973,12.8829029 C20.7080011,12.9863815 20.7840764,13.074188 20.8865278,13.088733 C21.5017346,13.1774096 21.9583202,13.7046488 21.9581778,14.3262137 L21.9581778,14.3262137 L21.9581778,18.9094754 C21.9581778,19.5998205 21.3985424,20.1594559 20.7081973,20.1594559 L20.7081973,20.1594559 L14.8749551,20.1594559 C14.1846099,20.1594559 13.6249746,19.5998205 13.6249746,18.9094754 L13.6249746,18.9094754 L13.6249746,14.3262137 C13.6248321,13.7046488 14.0814177,13.1774096 14.6966245,13.088733 C14.799076,13.074188 14.8751513,12.9863815 14.8749551,12.8829029 L14.8749551,12.8829029 L14.8749551,12.0345828 C14.8749551,10.4237774 16.1807708,9.11796169 17.7915762,9.11796169 Z M17.7915762,16.2011844 C17.3313461,16.2011844 16.9582559,16.5742746 16.9582559,17.0345047 C16.9582559,17.4947348 17.3313461,17.867825 17.7915762,17.867825 C18.2518063,17.867825 18.6248965,17.4947348 18.6248965,17.0345047 C18.6248965,16.5742746 18.2518063,16.2011844 17.7915762,16.2011844 Z M17.7915762,10.7846023 C17.101231,10.7846023 16.5415957,11.3442376 16.5415957,12.0345828 L16.5415957,12.0345828 L16.5415957,12.8679031 C16.5415957,12.9829606 16.6348683,13.0762332 16.7499258,13.0762332 L16.7499258,13.0762332 L18.8332266,13.0762332 C18.9482841,13.0762332 19.0415567,12.9829606 19.0415567,12.8679031 L19.0415567,12.8679031 L19.0415567,12.0345828 C19.0415567,11.3442376 18.4819213,10.7846023 17.7915762,10.7846023 Z M20.3698692,3.84054414 C21.2796421,3.85198373 22.0086421,4.59738252 21.9999226,5.50718477 L21.9999226,5.50718477 L21.9999226,8.84046603 C21.9999226,9.30069613 21.6267536,9.67378634 21.1665235,9.67378634 C20.7062934,9.67378634 20.3332031,9.30069613 20.3332031,8.84046603 L20.3332031,8.84046603 L20.3332031,5.92384492 C20.3332031,5.69372987 20.146658,5.50718477 19.916543,5.50718477 L19.916543,5.50718477 L4.05179084,5.50718477 C3.82167579,5.50718477 3.63513068,5.69372987 3.63513068,5.92384492 L3.63513068,5.92384492 L3.66679685,10.9237668 C3.66679685,11.1538819 3.85334196,11.340427 4.08345701,11.340427 L4.08345701,11.340427 L10.8041853,11.340427 C11.2644154,11.340427 11.6375057,11.7135172 11.6375057,12.1737473 C11.6375057,12.6339774 11.2644154,13.0070676 10.8041853,13.0070676 L10.8041853,13.0070676 L3.63013076,13.0070676 C2.72035789,12.995628 1.99135788,12.2502292 2.00007741,11.340427 L2.00007741,11.340427 L2.00007741,5.50718477 C1.99135788,4.59738252 2.72035789,3.85198373 3.63013076,3.84054414 L3.63013076,3.84054414 Z M12.2699958,6.13217503 C12.6151683,6.13217503 12.894986,6.41199267 12.894986,6.75716524 L12.894986,6.75716524 L12.894986,6.88132997 C12.8950226,6.95784315 12.936998,7.02817928 13.0043209,7.06453713 C13.0716438,7.10089499 13.1534794,7.09742315 13.217481,7.05549391 L13.217481,7.05549391 L13.321646,6.98716165 C13.5083115,6.85710795 13.7509029,6.838759 13.9550066,6.93925597 C14.1591103,7.03975295 14.2924835,7.24322004 14.3032189,7.47047038 C14.3139543,7.69772072 14.2003561,7.91285488 14.0066353,8.03214532 L14.0066353,8.03214532 L13.6666406,8.25547516 C13.6083307,8.29405233 13.5732597,8.35930644 13.5732597,8.42922245 C13.5732597,8.49913846 13.6083307,8.56439257 13.6666406,8.60296974 L13.6666406,8.60296974 L14.005802,8.82879954 C14.2886665,9.02190167 14.3634268,9.40669131 14.1734464,9.69166187 C13.9834661,9.97663243 13.5995217,10.0556189 13.3124795,9.86878329 L13.3124795,9.86878329 L13.2216476,9.80795091 C13.1577129,9.76518327 13.0754144,9.76112506 13.0075823,9.79739517 C12.9397502,9.83366529 12.8974231,9.90436138 12.897486,9.98128154 L12.897486,9.98128154 L12.897486,10.0904465 C12.897486,10.4356191 12.6176683,10.7154373 12.2724957,10.7154373 C12.1065937,10.7156579 11.9474108,10.6499086 11.8300221,10.5326762 C11.7126334,10.4154438 11.646672,10.2563487 11.6466722,10.0904465 L11.6466722,10.0904465 L11.6466722,9.96711509 C11.6466356,9.89060191 11.6046602,9.82026578 11.5373373,9.78390793 C11.4700144,9.74755007 11.3881788,9.75102191 11.3241772,9.79295115 L11.3241772,9.79295115 L11.2208455,9.86045009 C11.03418,9.99050379 10.7915887,10.0088527 10.5874849,9.90835576 C10.3833812,9.80785879 10.2500081,9.6043917 10.2392726,9.37714136 C10.2285372,9.14989102 10.3421354,8.93475686 10.5358562,8.81546642 L10.5358562,8.81546642 L10.8758509,8.59213657 C10.9341608,8.55355941 10.9692318,8.48830529 10.9692318,8.41838929 C10.9692318,8.34847328 10.9341608,8.28321917 10.8758509,8.244642 L10.8758509,8.244642 L10.5366895,8.0188122 C10.3481801,7.89611147 10.2401421,7.68158103 10.2537954,7.45707076 C10.2674487,7.2325605 10.4006871,7.03270293 10.602676,6.93374981 C10.804665,6.83479669 11.0442462,6.85201233 11.230012,6.97882844 L11.230012,6.97882844 L11.3208439,7.03966083 C11.3847786,7.08242847 11.4670772,7.08648668 11.5349093,7.05021657 C11.6027414,7.01394645 11.6450685,6.94325035 11.6450055,6.8663302 L11.6450055,6.8663302 L11.6450055,6.75716524 C11.6450056,6.41199267 11.9248232,6.13217503 12.2699958,6.13217503 Z M6.72674905,6.132175 C7.07192162,6.132175 7.35173928,6.41199266 7.35173928,6.75716524 L7.35173928,6.75716524 L7.35173928,6.88132997 C7.35177588,6.95784315 7.39375128,7.02817928 7.46107419,7.06453713 C7.52839711,7.10089499 7.61023262,7.09742315 7.67423425,7.05549391 L7.67423425,7.05549391 L7.77839928,6.98716165 C8.06699139,6.79815382 8.45414714,6.87871803 8.64338577,7.16715883 C8.8310185,7.45537581 8.75015393,7.84106628 8.46255526,8.02964536 L8.46255526,8.02964536 L8.12172725,8.2529752 C8.06304159,8.29128846 8.02766235,8.35663745 8.02766235,8.42672249 C8.02766235,8.49680753 8.06304159,8.56215652 8.12172725,8.60046978 L8.12172725,8.60046978 L8.4600553,8.82629958 C8.73385958,9.02217866 8.80331335,9.39973627 8.61714056,9.68023063 C8.43096776,9.96072499 8.05607327,10.0433549 7.76923276,9.86711665 L7.76923276,9.86711665 L7.67840085,9.80628427 C7.61446617,9.76351663 7.53216762,9.75945841 7.46433552,9.79572853 C7.39650343,9.83199865 7.35417633,9.90269474 7.35423924,9.9796149 L7.35423924,9.9796149 L7.35423924,10.0887799 C7.35423923,10.4339524 7.07442158,10.7137701 6.72924901,10.7137701 C6.38407644,10.7137701 6.10425878,10.4339524 6.10425877,10.0887799 L6.10425877,10.0887799 L6.10425877,9.96544845 C6.10411967,9.8889774 6.06225944,9.81867778 5.99509381,9.78211798 C5.92779098,9.7453556 5.84566513,9.74888444 5.78176381,9.79128451 L5.78176381,9.79128451 L5.67843209,9.85878345 C5.49176661,9.98883715 5.24917524,10.0071861 5.04507153,9.90668912 C4.84096781,9.80619215 4.70759465,9.60272506 4.69685921,9.37547472 C4.68612377,9.14822438 4.79972197,8.93309022 4.99344279,8.81379978 L4.99344279,8.81379978 L5.33343748,8.59046993 C5.39174743,8.55189277 5.42681843,8.48663865 5.42681843,8.41672265 C5.42681843,8.34680664 5.39174743,8.28155253 5.33343748,8.24297536 L5.33343748,8.24297536 L4.99344279,8.0188122 C4.80493337,7.89611147 4.69689541,7.68158103 4.71054868,7.45707076 C4.72420195,7.2325605 4.85744033,7.03270293 5.05942931,6.93374981 C5.2614183,6.83479669 5.50099946,6.85201233 5.68676529,6.97882844 L5.68676529,6.97882844 L5.77759721,7.03966083 C5.84153188,7.08242847 5.92383044,7.08648668 5.99166253,7.05021657 C6.05949462,7.01394645 6.10182173,6.94325035 6.10175881,6.8663302 L6.10175881,6.8663302 L6.10175881,6.75716524 C6.10175881,6.41199266 6.38157647,6.132175 6.72674905,6.132175 Z" id="ðŸ–-Color" fill="#5A5A5A"></path>
        <rect id="_Transparent_Rectangle_" x="0" y="0" width="24" height="24"></rect>
    </g>
</svg>