<svg width="24" height="24" viewBox="0 0 24 24" fill="none" xmlns="http://www.w3.org/2000/svg">
<g id="password_lock">
<path id="Shape" fill-rule="evenodd" clip-rule="evenodd" d="M10.8041 13.0071H3.63005C2.72028 12.9957 1.99128 12.2503 2.00008 11.3405V5.50722C1.99128 4.59741 2.72028 3.85202 3.63005 3.84058H20.3698C21.2796 3.85202 22.0086 4.59741 21.9998 5.50722V8.8405C21.9998 9.30073 21.6267 9.67382 21.1664 9.67382C20.7062 9.67382 20.3331 9.30073 20.3331 8.8405V5.92388C20.3331 5.69376 20.1466 5.50722 19.9165 5.50722H4.05171C3.8216 5.50722 3.63505 5.69376 3.63505 5.92388L3.66672 10.9238C3.66672 11.1539 3.85326 11.3405 4.08338 11.3405H10.8041C11.2643 11.3405 11.6374 11.7135 11.6374 12.1738C11.6374 12.634 11.2643 13.0071 10.8041 13.0071ZM7.77832 6.98719C8.06691 6.79819 8.45407 6.87875 8.64331 7.16719C8.83094 7.45541 8.75008 7.8411 8.46248 8.02968L8.12165 8.25301C8.06296 8.29132 8.02759 8.35667 8.02759 8.42675C8.02759 8.49684 8.06296 8.56219 8.12165 8.6005L8.45998 8.82633C8.73378 9.02221 8.80324 9.39977 8.61706 9.68026C8.43089 9.96076 8.056 10.0434 7.76916 9.86715L7.67832 9.80632C7.61439 9.76355 7.53209 9.75949 7.46426 9.79576C7.39643 9.83203 7.3541 9.90273 7.35416 9.97965V10.0888C7.35416 10.434 7.07434 10.7138 6.72917 10.7138C6.384 10.7138 6.10418 10.434 6.10418 10.0888V9.96548C6.10404 9.88901 6.06218 9.81871 5.99502 9.78215C5.92771 9.74539 5.84559 9.74892 5.78169 9.79132L5.67835 9.85882C5.49169 9.98887 5.2491 10.0072 5.04499 9.90672C4.84089 9.80622 4.70752 9.60276 4.69678 9.37551C4.68605 9.14826 4.79964 8.93312 4.99337 8.81383L5.33336 8.5905C5.39167 8.55192 5.42674 8.48667 5.42674 8.41675C5.42674 8.34684 5.39167 8.28158 5.33336 8.24301L4.99337 8.01884C4.80486 7.89614 4.69682 7.68161 4.71047 7.4571C4.72412 7.23259 4.85736 7.03274 5.05935 6.93378C5.26134 6.83483 5.50092 6.85204 5.68669 6.97886L5.77752 7.03969C5.84145 7.08246 5.92375 7.08652 5.99159 7.05025C6.05942 7.01398 6.10174 6.94328 6.10168 6.86636V6.7572C6.10168 6.41202 6.3815 6.13221 6.72667 6.13221C7.07184 6.13221 7.35166 6.41202 7.35166 6.7572V6.88136C7.3517 6.95788 7.39367 7.02821 7.461 7.06457C7.52832 7.10093 7.61016 7.09746 7.67416 7.05553L7.77832 6.98719ZM12.2724 10.7155C12.6176 10.7155 12.8974 10.4357 12.8974 10.0905V9.98131C12.8973 9.90439 12.9397 9.8337 13.0075 9.79743C13.0753 9.76116 13.1576 9.76522 13.2216 9.80798L13.3124 9.86882C13.5994 10.0557 13.9834 9.97666 14.1734 9.69169C14.3633 9.40672 14.2886 9.02193 14.0057 8.82883L13.6666 8.603C13.6083 8.56442 13.5732 8.49917 13.5732 8.42925C13.5732 8.35934 13.6083 8.29408 13.6666 8.25551L14.0066 8.03218C14.2003 7.91289 14.3139 7.69775 14.3031 7.4705C14.2924 7.24325 14.159 7.03979 13.9549 6.93929C13.7508 6.83879 13.5082 6.85714 13.3216 6.98719L13.2174 7.05553C13.1534 7.09746 13.0716 7.10093 13.0042 7.06457C12.9369 7.02821 12.8949 6.95788 12.8949 6.88136V6.7572C12.8949 6.41202 12.6151 6.13221 12.2699 6.13221C11.9247 6.13221 11.6449 6.41202 11.6449 6.7572V6.86636C11.645 6.94328 11.6027 7.01398 11.5348 7.05025C11.467 7.08652 11.3847 7.08246 11.3208 7.03969L11.2299 6.97886C11.0442 6.85204 10.8046 6.83483 10.6026 6.93378C10.4006 7.03274 10.2674 7.23259 10.2537 7.4571C10.2401 7.68161 10.3481 7.89614 10.5366 8.01884L10.8758 8.24467C10.9341 8.28325 10.9692 8.34851 10.9692 8.41842C10.9692 8.48834 10.9341 8.55359 10.8758 8.59217L10.5358 8.8155C10.3421 8.93479 10.2285 9.14992 10.2392 9.37717C10.2499 9.60442 10.3833 9.80789 10.5874 9.90839C10.7915 10.0089 11.0341 9.99054 11.2208 9.86048L11.3241 9.79298C11.3881 9.75105 11.4699 9.74758 11.5373 9.78394C11.6046 9.8203 11.6466 9.89063 11.6466 9.96715V10.0905C11.6466 10.2564 11.7126 10.4155 11.8299 10.5327C11.9473 10.6499 12.1065 10.7157 12.2724 10.7155ZM20.7081 12.8829C20.7079 12.9864 20.784 13.0742 20.8864 13.0888C21.5017 13.1774 21.9582 13.7047 21.9581 14.3262V18.9095C21.9581 19.5999 21.3985 20.1595 20.7081 20.1595H14.8749C14.1845 20.1595 13.6249 19.5999 13.6249 18.9095V14.3262C13.6248 13.7047 14.0813 13.1774 14.6965 13.0888C14.799 13.0742 14.8751 12.9864 14.8749 12.8829V12.0346C14.8749 10.4238 16.1807 9.11799 17.7915 9.11799C19.4023 9.11799 20.7081 10.4238 20.7081 12.0346V12.8829ZM17.7915 17.8679C18.2517 17.8679 18.6248 17.4948 18.6248 17.0345C18.6248 16.5743 18.2517 16.2012 17.7915 16.2012C17.3313 16.2012 16.9582 16.5743 16.9582 17.0345C16.9582 17.4948 17.3313 17.8679 17.7915 17.8679ZM16.5415 12.0346C16.5415 11.3443 17.1012 10.7846 17.7915 10.7846C18.4818 10.7846 19.0415 11.3443 19.0415 12.0346V12.8679C19.0415 12.983 18.9482 13.0763 18.8331 13.0763H16.7498C16.6348 13.0763 16.5415 12.983 16.5415 12.8679V12.0346Z" fill="#5A5A5A"/>
</g>
</svg>
