<svg width="24" height="24" viewBox="0 0 24 24" fill="none" xmlns="http://www.w3.org/2000/svg">
<g id="password_key">
<path id="Shape" fill-rule="evenodd" clip-rule="evenodd" d="M4.5 2H19.5C20.8807 2 22 3.11929 22 4.5V9.5C22 9.96024 21.6269 10.3333 21.1667 10.3333C20.7064 10.3333 20.3333 9.96024 20.3333 9.5V8.25C20.3333 8.01988 20.1468 7.83333 19.9167 7.83333H4.08333C3.85321 7.83333 3.66667 8.01988 3.66667 8.25V17C3.66667 17.4602 4.03976 17.8333 4.5 17.8333H9.91667C10.3769 17.8333 10.75 18.2064 10.75 18.6667C10.75 19.1269 10.3769 19.5 9.91667 19.5H4.5C3.11929 19.5 2 18.3807 2 17V4.5C2 3.11929 3.11929 2 4.5 2ZM10.3333 5.75C10.7936 5.75 11.1667 5.3769 11.1667 4.91667C11.1667 4.45643 10.7936 4.08333 10.3333 4.08333C9.8731 4.08333 9.5 4.45643 9.5 4.91667C9.5 5.3769 9.8731 5.75 10.3333 5.75ZM8.66667 4.91667C8.66667 5.3769 8.29357 5.75 7.83333 5.75C7.3731 5.75 7 5.3769 7 4.91667C7 4.45643 7.3731 4.08333 7.83333 4.08333C8.29357 4.08333 8.66667 4.45643 8.66667 4.91667ZM5.33333 5.75C5.79357 5.75 6.16667 5.3769 6.16667 4.91667C6.16667 4.45643 5.79357 4.08333 5.33333 4.08333C4.8731 4.08333 4.5 4.45643 4.5 4.91667C4.5 5.3769 4.8731 5.75 5.33333 5.75ZM11.9517 10.2608C11.7921 10.1079 11.5783 10.0246 11.3573 10.0293C11.1363 10.034 10.9263 10.1262 10.7733 10.2858L7.93167 13.25C7.89227 13.2911 7.83777 13.3143 7.78083 13.3142C7.72411 13.3145 7.6698 13.2912 7.63083 13.25L7.185 12.785C6.86652 12.4527 6.33896 12.4415 6.00667 12.76C5.67438 13.0785 5.66318 13.606 5.98167 13.9383L7.18 15.1883C7.33715 15.3521 7.55429 15.4447 7.78125 15.4447C8.00821 15.4447 8.22535 15.3521 8.3825 15.1883L11.9767 11.4383C12.2946 11.1062 12.2834 10.5792 11.9517 10.2608ZM16.485 15.4317C16.4306 15.4864 16.3505 15.5066 16.2767 15.4842C15.9715 15.3871 15.6535 15.3363 15.3333 15.3333C13.4924 15.3333 12 16.8257 12 18.6667C12 20.5076 13.4924 22 15.3333 22C17.1743 22 18.6667 20.5076 18.6667 18.6667C18.6638 18.3467 18.6129 18.029 18.5158 17.7242C18.4932 17.6504 18.5134 17.5701 18.5683 17.5158L21.9392 14.1442C21.9776 14.1059 21.9994 14.0542 22 14V12.2083C22 12.0933 21.9067 12 21.7917 12H20C19.9447 11.9998 19.8916 12.0217 19.8525 12.0608L16.485 15.4317ZM15.3333 19.9167C14.643 19.9167 14.0833 19.357 14.0833 18.6667C14.0833 17.9763 14.643 17.4167 15.3333 17.4167C16.0237 17.4167 16.5833 17.9763 16.5833 18.6667C16.5833 19.357 16.0237 19.9167 15.3333 19.9167Z" fill="#5A5A5A"/>
</g>
</svg>
