<?xml version="1.0" encoding="UTF-8"?>
<svg width="24px" height="24px" viewBox="0 0 24 24" version="1.1" xmlns="http://www.w3.org/2000/svg" xmlns:xlink="http://www.w3.org/1999/xlink">
    <title>1. Interface Essentials/password_key</title>
    <g id="1.-Interface-Essentials/password_key" stroke="none" stroke-width="1" fill="none" fill-rule="evenodd">
        <path d="M21.7916667,11.9999986 C21.906726,11.9999986 22,12.0932739 22,12.2083332 L22,12.2083332 L22,13.9999986 C21.9994016,14.0541713 21.9775563,14.1059417 21.9391667,14.1441665 L21.9391667,14.1441665 L18.5683333,17.5158332 C18.5134455,17.570107 18.493221,17.6503627 18.5158333,17.7241665 C18.6129343,18.0290289 18.6637772,18.346727 18.6666667,18.6666665 C18.6666667,20.5076157 17.1742825,21.9999986 15.3333333,21.9999986 C13.4923842,21.9999986 12,20.5076157 12,18.6666665 C12,16.8257174 13.4923842,15.3333332 15.3333333,15.3333332 C15.6535399,15.3362898 15.9715029,15.3871302 16.2766667,15.4841665 C16.3504753,15.5065852 16.4306302,15.4863861 16.485,15.4316665 L16.485,15.4316665 L19.8525,12.0608332 C19.891594,12.0217076 19.9446907,11.999809 20,11.9999986 L20,11.9999986 Z M15.3333333,17.4166665 C14.6429774,17.4166665 14.0833333,17.9763106 14.0833333,18.6666665 C14.0833333,19.3570225 14.6429774,19.9166665 15.3333333,19.9166665 C16.0236893,19.9166665 16.5833333,19.3570225 16.5833333,18.6666665 C16.5833333,17.9763106 16.0236893,17.4166665 15.3333333,17.4166665 Z M19.5,1.99999988 C20.8807119,1.99999988 22,3.119288 22,4.49999988 L22,4.49999988 L22,9.49999988 C22,9.96023717 21.626904,10.3333332 21.1666667,10.3333332 C20.7064294,10.3333332 20.3333333,9.96023717 20.3333333,9.49999988 L20.3333333,9.49999988 L20.3333333,8.24999988 C20.3333333,8.01988123 20.1467853,7.83333321 19.9166667,7.83333321 L19.9166667,7.83333321 L4.08333333,7.83333321 C3.85321469,7.83333321 3.66666667,8.01988123 3.66666667,8.24999988 L3.66666667,8.24999988 L3.66666667,16.9999999 C3.66666667,17.4602372 4.03976271,17.8333332 4.5,17.8333332 L4.5,17.8333332 L9.91666667,17.8333332 C10.376904,17.8333332 10.75,18.2064293 10.75,18.6666665 C10.75,19.1269038 10.376904,19.4999999 9.91666667,19.4999999 L9.91666667,19.4999999 L4.5,19.4999999 C3.11928813,19.4999999 2,18.3807118 2,16.9999999 L2,16.9999999 L2,4.49999988 C2,3.119288 3.11928813,1.99999988 4.5,1.99999988 L4.5,1.99999988 Z M11.3573218,10.0292668 C11.5783072,10.0245783 11.7921024,10.1078764 11.9516667,10.2608332 C12.2834395,10.5792139 12.2946273,11.1061577 11.9766667,11.4383332 L11.9766667,11.4383332 L8.3825,15.1883332 C8.22535012,15.3520843 8.00820928,15.4446545 7.78125,15.4446545 C7.55429072,15.4446545 7.33714988,15.3520843 7.18,15.1883332 L7.18,15.1883332 L5.98166667,13.9383332 C5.66318247,13.6060419 5.67437536,13.0784841 6.00666668,12.7599999 C6.338958,12.4415157 6.86651579,12.4527086 7.185,12.7849999 L7.185,12.7849999 L7.63083333,13.2499999 C7.6698022,13.2912206 7.72410909,13.3144519 7.78083333,13.3141665 C7.83776676,13.3142861 7.89226877,13.2911002 7.93166667,13.2499999 L7.93166667,13.2499999 L10.7733333,10.2858332 C10.9262665,10.1262464 11.1363364,10.0339554 11.3573218,10.0292668 Z M10.3333333,4.08333321 C9.87309604,4.08333321 9.5,4.45642925 9.5,4.91666654 C9.5,5.37690383 9.87309604,5.74999988 10.3333333,5.74999988 C10.7935706,5.74999988 11.1666667,5.37690383 11.1666667,4.91666654 C11.1666667,4.45642925 10.7935706,4.08333321 10.3333333,4.08333321 Z M7.83333333,4.08333321 C7.37309604,4.08333321 7,4.45642925 7,4.91666654 C7,5.37690383 7.37309604,5.74999988 7.83333333,5.74999988 C8.29357062,5.74999988 8.66666667,5.37690383 8.66666667,4.91666654 C8.66666667,4.45642925 8.29357062,4.08333321 7.83333333,4.08333321 Z M5.33333333,4.08333321 C4.87309604,4.08333321 4.5,4.45642925 4.5,4.91666654 C4.5,5.37690383 4.87309604,5.74999988 5.33333333,5.74999988 C5.79357062,5.74999988 6.16666667,5.37690383 6.16666667,4.91666654 C6.16666667,4.45642925 5.79357062,4.08333321 5.33333333,4.08333321 Z" id="ðŸ–-Color" fill="#5A5A5A"></path>
        <rect id="_Transparent_Rectangle_" x="0" y="0" width="24" height="24"></rect>
    </g>
</svg>