<svg width="24" height="24" viewBox="0 0 24 24" fill="none" xmlns="http://www.w3.org/2000/svg">
<g id="pencil_write">
<path id="Shape" fill-rule="evenodd" clip-rule="evenodd" d="M19.205 7.38857L17.4375 5.62107C17.3588 5.54217 17.315 5.43502 17.3158 5.32357C17.3182 5.23545 17.3489 5.15042 17.4033 5.08107C17.4136 5.06289 17.4251 5.04536 17.4375 5.02857L18.3217 4.14524C18.9814 3.51571 20.0194 3.51571 20.6792 4.14524C21.3298 4.79607 21.3298 5.85107 20.6792 6.50191L19.7983 7.38857C19.7832 7.40073 19.767 7.4116 19.75 7.42107C19.6789 7.47788 19.591 7.50953 19.5 7.51107C19.3893 7.51105 19.2832 7.46697 19.205 7.38857ZM9.75 12.7227C9.71029 12.7627 9.67911 12.8104 9.65833 12.8627L8.47667 15.8086C8.41492 15.9633 8.4513 16.14 8.56917 16.2577C8.68806 16.3735 8.86357 16.4094 9.01833 16.3494L11.965 15.1686C12.0175 15.1484 12.0649 15.1171 12.1042 15.0769L18.6158 8.56524C18.694 8.48729 18.7381 8.38149 18.7383 8.27107C18.7383 8.16037 18.6942 8.05423 18.6158 7.97607L16.8475 6.21024C16.682 6.05456 16.4239 6.05456 16.2583 6.21024L9.75 12.7227ZM20.3333 11.5769H17.4617C17.4064 11.5769 17.3534 11.5988 17.3142 11.6377L12.9883 15.9627C12.8292 16.1221 12.6392 16.2475 12.43 16.3311L9.4825 17.5102C8.8634 17.7581 8.15618 17.613 7.68464 17.1414C7.2131 16.6699 7.06802 15.9627 7.31583 15.3436L8.49417 12.3977C8.5781 12.1883 8.70369 11.998 8.86333 11.8386L9.125 11.5769H3.66667C2.74619 11.5769 2 12.3231 2 13.2436V18.6602C2 19.5807 2.74619 20.3269 3.66667 20.3269H20.3333C21.2538 20.3269 22 19.5807 22 18.6602V13.2436C22 12.3231 21.2538 11.5769 20.3333 11.5769Z" fill="#5A5A5A"/>
</g>
</svg>
