<?xml version="1.0" encoding="UTF-8"?>
<svg width="24px" height="24px" viewBox="0 0 24 24" version="1.1" xmlns="http://www.w3.org/2000/svg" xmlns:xlink="http://www.w3.org/1999/xlink">
    <title>1. Interface Essentials/pencil_write</title>
    <g id="1.-Interface-Essentials/pencil_write" stroke="none" stroke-width="1" fill="none" fill-rule="evenodd">
        <path d="M9.125,11.5769053 L8.86333333,11.838572 C8.70369396,11.9980484 8.5781008,12.1882809 8.49416667,12.3977386 L8.49416667,12.3977386 L7.31583333,15.343572 C7.06802114,15.9626748 7.2130961,16.6698966 7.68463573,17.1414362 C8.15617535,17.6129758 8.86339714,17.7580508 9.4825,17.5102386 L9.4825,17.5102386 L12.43,16.331072 C12.6391864,16.2474712 12.8291573,16.1221471 12.9883333,15.9627386 L12.9883333,15.9627386 L17.3141667,11.6377386 C17.3533644,11.5987686 17.4063935,11.5769053 17.4616667,11.5769053 L17.4616667,11.5769053 L20.3333333,11.5769053 C21.2538079,11.5769053 22,12.3230974 22,13.243572 L22,13.243572 L22,18.6602386 C22,19.5807132 21.2538079,20.3269053 20.3333333,20.3269053 L20.3333333,20.3269053 L3.66666667,20.3269053 C2.74619208,20.3269053 2,19.5807132 2,18.6602386 L2,18.6602386 L2,13.243572 C2,12.3230974 2.74619208,11.5769053 3.66666667,11.5769053 L3.66666667,11.5769053 L9.125,11.5769053 Z M16.2583333,6.21023862 C16.423871,6.05456152 16.6819623,6.05456152 16.8475,6.21023862 L16.8475,6.21023862 L18.6158333,7.97607195 C18.6942339,8.05422764 18.7383333,8.16036984 18.7383333,8.27107195 C18.7380888,8.38148516 18.6940297,8.48728697 18.6158333,8.56523862 L18.6158333,8.56523862 L12.1041667,15.0769053 C12.0649239,15.1171305 12.0174514,15.1483998 11.965,15.168572 L11.965,15.168572 L9.01833333,16.3494053 C8.86357134,16.4093561 8.68806131,16.3735378 8.56916667,16.2577386 C8.45130212,16.1399768 8.41492236,15.9633219 8.47666667,15.808572 L8.47666667,15.808572 L9.65833333,12.8627386 C9.67910701,12.8103532 9.71029137,12.7627262 9.75,12.7227386 L9.75,12.7227386 Z M18.3216667,4.14523862 C18.981423,3.51571341 20.0194103,3.51571341 20.6791667,4.14523862 C21.3298032,4.7960717 21.3298032,5.8510722 20.6791667,6.50190528 L20.6791667,6.50190528 L19.7983333,7.38857195 C19.7831509,7.40072622 19.7669841,7.41159701 19.75,7.42107195 C19.6789051,7.47787994 19.5909904,7.50952923 19.5,7.51107195 C19.3892979,7.51107195 19.2831557,7.4669725 19.205,7.38857195 L19.205,7.38857195 L17.4375,5.62107195 C17.3587886,5.54216808 17.3149688,5.43501948 17.3158208,5.32357195 C17.3182256,5.23544411 17.3489032,5.15042325 17.4033333,5.08107195 C17.4136429,5.06289276 17.425053,5.04536013 17.4375,5.02857195 L17.4375,5.02857195 Z" id="ðŸ–-Color" fill="#5A5A5A"></path>
        <rect id="_Transparent_Rectangle_" x="0" y="0" width="24" height="24"></rect>
    </g>
</svg>