<svg width="24" height="24" viewBox="0 0 24 24" fill="none" xmlns="http://www.w3.org/2000/svg">
<g id="picture">
<path id="Shape" fill-rule="evenodd" clip-rule="evenodd" d="M19.5 2C20.8807 2 22 3.11929 22 4.5V19.5C22 20.8807 20.8807 22 19.5 22H4.5C3.11929 22 2 20.8807 2 19.5V4.5C2 3.11929 3.11929 2 4.5 2H19.5ZM19.5 20.3333C19.9602 20.3333 20.3333 19.9602 20.3333 19.5V4.5C20.3333 4.03976 19.9602 3.66667 19.5 3.66667H4.5C4.03976 3.66667 3.66667 4.03976 3.66667 4.5V19.5C3.66667 19.9602 4.03976 20.3333 4.5 20.3333H19.5ZM5.33333 8.66667C5.33333 9.58714 6.07953 10.3333 7 10.3333H9.5C10.7545 10.3362 11.8168 9.40882 11.9835 8.16545C12.1501 6.92207 11.3695 5.74772 10.1585 5.4201C8.94756 5.09248 7.68132 5.71304 7.19833 6.87083C7.16509 6.95059 7.08639 7.00185 7 7C6.66231 6.9964 6.33192 7.09837 6.055 7.29167C5.60258 7.60309 5.33263 8.11742 5.33333 8.66667ZM15.2016 12.6622C15.785 12.6813 16.3106 13.02 16.5692 13.5433L19.0392 18.48C19.1039 18.6092 19.0971 18.7626 19.0212 18.8856C18.9453 19.0085 18.8111 19.0833 18.6667 19.0833H5.75C5.61105 19.0836 5.4811 19.0147 5.40348 18.8994C5.32587 18.7842 5.31081 18.6378 5.36333 18.5092C5.51667 18.1283 6.92083 14.7592 8.8925 14.7592C10.0304 14.8656 11.0775 15.4258 11.7975 16.3133C11.8421 16.3624 11.9074 16.3872 11.9733 16.3801C12.0392 16.373 12.0977 16.3349 12.1308 16.2775L13.7792 13.4517C14.0715 12.9464 14.6182 12.643 15.2016 12.6622Z" fill="#5A5A5A"/>
</g>
</svg>
