<?xml version="1.0" encoding="UTF-8"?>
<svg width="24px" height="24px" viewBox="0 0 24 24" version="1.1" xmlns="http://www.w3.org/2000/svg" xmlns:xlink="http://www.w3.org/1999/xlink">
    <title>1. Interface Essentials/picture</title>
    <g id="1.-Interface-Essentials/picture" stroke="none" stroke-width="1" fill="none" fill-rule="evenodd">
        <path d="M19.5,2 C20.8807119,2 22,3.11928813 22,4.5 L22,4.5 L22,19.5 C22,20.8807119 20.8807119,22 19.5,22 L19.5,22 L4.5,22 C3.11928813,22 2,20.8807119 2,19.5 L2,19.5 L2,4.5 C2,3.11928813 3.11928813,2 4.5,2 L4.5,2 Z M19.5,3.66666667 L4.5,3.66666667 C4.03976271,3.66666667 3.66666667,4.03976271 3.66666667,4.5 L3.66666667,4.5 L3.66666667,19.5 C3.66666667,19.9602373 4.03976271,20.3333333 4.5,20.3333333 L4.5,20.3333333 L19.5,20.3333333 C19.9602373,20.3333333 20.3333333,19.9602373 20.3333333,19.5 L20.3333333,19.5 L20.3333333,4.5 C20.3333333,4.03976271 19.9602373,3.66666667 19.5,3.66666667 L19.5,3.66666667 Z M15.2016122,12.6621592 C15.7850469,12.6813282 16.3106067,13.019969 16.5691667,13.5433333 L16.5691667,13.5433333 L19.0391667,18.48 C19.1038892,18.6091611 19.0970868,18.7626313 19.0211905,18.8855595 C18.9452942,19.0084877 18.8111367,19.0833343 18.6666667,19.0833343 L18.6666667,19.0833343 L5.75,19.0833343 C5.61105241,19.0836384 5.48109581,19.0146609 5.40348179,18.8994108 C5.32586778,18.7841607 5.31081068,18.6378053 5.36333333,18.5091667 C5.51666667,18.1283333 6.92083333,14.7591667 8.8925,14.7591667 C10.0304118,14.8655555 11.0775216,15.4257562 11.7975,16.3133333 C11.8420617,16.3623915 11.9073772,16.3872117 11.9732731,16.3801279 C12.0391691,16.3730441 12.0977168,16.3349086 12.1308333,16.2775 L12.1308333,16.2775 L13.7791667,13.4516667 C14.0715227,12.9464029 14.6181774,12.6429902 15.2016122,12.6621592 Z M7.19833333,6.87083333 C7.68131691,5.71304085 8.9475631,5.09247726 10.1585212,5.42010059 C11.3694793,5.74772391 12.150115,6.92206905 11.9834651,8.16544526 C11.8168152,9.40882146 10.7544914,10.3361545 9.5,10.3333398 L9.5,10.3333398 L7,10.3333398 C6.07952542,10.3333398 5.33333196,9.58714125 5.33333196,8.66666667 C5.33262939,8.11742034 5.60257535,7.60308914 6.055,7.29166667 C6.33192236,7.09836976 6.66230676,6.99639927 7,7 C7.08638912,7.00184909 7.16509255,6.95059266 7.19833333,6.87083333 Z" id="ðŸ–-Color" fill="#5A5A5A"></path>
        <rect id="_Transparent_Rectangle_" x="0" y="0" width="24" height="24"></rect>
    </g>
</svg>