<svg width="24" height="24" viewBox="0 0 24 24" fill="none" xmlns="http://www.w3.org/2000/svg">
<g id="pin_1">
<path id="Shape" fill-rule="evenodd" clip-rule="evenodd" d="M21.5906 5.76519L18.1984 2.37307C17.8983 2.07312 17.4782 1.92561 17.0565 1.97203C16.6347 2.01845 16.2568 2.25379 16.029 2.61183L13.1434 7.71074C12.6035 7.58462 12.0507 7.52202 11.4963 7.52421C10.359 7.43698 9.22081 7.68159 8.21978 8.22838C7.84615 8.44784 7.5953 8.82805 7.54055 9.25789C7.48579 9.68774 7.63331 10.1187 7.93998 10.4248L13.5435 16.0292C13.8555 16.3268 14.2824 16.4724 14.7112 16.4275C15.1398 16.3715 15.5185 16.1205 15.7371 15.7476C16.5689 14.2442 16.7534 12.4671 16.2482 10.8249L21.3518 7.93459C21.7098 7.70686 21.9452 7.32895 21.9916 6.90717C22.038 6.48539 21.8905 6.06533 21.5906 5.76519ZM17.4793 4.81946L16.1605 6.80046C16.074 6.93058 15.9279 7.00867 15.7716 7.00844C15.6797 7.00799 15.5899 6.98076 15.5133 6.9301C15.4103 6.86139 15.3389 6.75456 15.3147 6.63314C15.2906 6.51173 15.3157 6.3857 15.3846 6.28282L16.7034 4.30463C16.8463 4.09035 17.1359 4.03251 17.3502 4.17545C17.5644 4.3184 17.6223 4.60798 17.4793 4.82226V4.81946ZM2.27307 20.4501L8.33543 14.3877C8.7014 14.0343 9.28311 14.0393 9.64287 14.3991C10.0026 14.7589 10.0077 15.3406 9.65423 15.7065L3.59187 21.7689C3.22458 22.1255 2.64037 22.1255 2.27307 21.7689C1.90898 21.4047 1.90898 20.8143 2.27307 20.4501Z" fill="#5A5A5A"/>
</g>
</svg>
