<?xml version="1.0" encoding="UTF-8"?>
<svg width="24px" height="24px" viewBox="0 0 24 24" version="1.1" xmlns="http://www.w3.org/2000/svg" xmlns:xlink="http://www.w3.org/1999/xlink">
    <title>1. Interface Essentials/pin_2</title>
    <g id="1.-Interface-Essentials/pin_2" stroke="none" stroke-width="1" fill="none" fill-rule="evenodd">
        <path d="M10.2828319,11.9528142 C10.7711298,11.4441705 11.5628172,11.4441706 12.0511151,11.9528142 C12.539413,12.4614579 12.539413,13.2861322 12.0511151,13.7947759 L12.0511151,13.7947759 L4.13467268,22.0410701 C3.64014055,22.5337867 2.86092155,22.5337867 2.36638943,22.0410701 C2.13180231,21.7968651 2,21.4655581 2,21.1200893 C2,20.7746205 2.13180231,20.4433134 2.36638943,20.1991084 L2.36638943,20.1991084 Z M16.5834867,1.58939246 C19.5734216,1.59321865 21.9963269,4.11707826 22,7.23159376 C22,10.3476955 19.5749444,12.8737951 16.5834867,12.8737951 C13.5920291,12.8737951 11.1669735,10.3476955 11.1669735,7.23159376 C11.1669735,4.11549202 13.5920291,1.58939246 16.5834867,1.58939246 Z M16.3926588,3.61450871 C14.5809225,3.61690087 13.1129216,5.14645682 13.1110851,7.0336827 C13.1110851,7.27338283 13.2976278,7.46769818 13.52774,7.46769818 C13.7578521,7.46769818 13.9443948,7.27338283 13.9443948,7.0336827 C13.9457719,5.62565873 15.0409564,4.48445333 16.3926588,4.48253968 C16.6227709,4.48253968 16.8093137,4.28822433 16.8093137,4.04852419 C16.8093137,3.80882406 16.6227709,3.61450871 16.3926588,3.61450871 Z" id="ðŸ–-Color" fill="#5A5A5A"></path>
        <rect id="_Transparent_Rectangle_" x="0" y="0" width="24" height="24"></rect>
    </g>
</svg>