<svg width="24" height="24" viewBox="0 0 24 24" fill="none" xmlns="http://www.w3.org/2000/svg">
<g id="pin_2">
<path id="Shape" fill-rule="evenodd" clip-rule="evenodd" d="M16.5835 1.58936C13.592 1.58936 11.167 4.11546 11.167 7.23156C11.167 10.3477 13.592 12.8738 16.5835 12.8738C19.5749 12.8738 22 10.3477 22 7.23156C21.9963 4.11704 19.5734 1.59318 16.5835 1.58936ZM16.3927 4.4825C15.041 4.48442 13.9458 5.62562 13.9444 7.03365C13.9444 7.27335 13.7579 7.46766 13.5277 7.46766C13.2976 7.46766 13.1111 7.27335 13.1111 7.03365C13.1129 5.14642 14.5809 3.61686 16.3927 3.61447C16.6228 3.61447 16.8093 3.80879 16.8093 4.04849C16.8093 4.28819 16.6228 4.4825 16.3927 4.4825ZM2.36639 20.1991L10.2828 11.9528C10.7711 11.4441 11.5628 11.4441 12.0511 11.9528C12.5394 12.4614 12.5394 13.2861 12.0511 13.7947L4.13467 22.041C3.64014 22.5338 2.86092 22.5338 2.36639 22.041C2.1318 21.7968 2 21.4655 2 21.1201C2 20.7746 2.1318 20.4433 2.36639 20.1991Z" fill="#5A5A5A"/>
</g>
</svg>
