<?xml version="1.0" encoding="UTF-8"?>
<svg width="24px" height="24px" viewBox="0 0 24 24" version="1.1" xmlns="http://www.w3.org/2000/svg" xmlns:xlink="http://www.w3.org/1999/xlink">
    <title>1. Interface Essentials/pin_1</title>
    <g id="1.-Interface-Essentials/pin_1" stroke="none" stroke-width="1" fill="none" fill-rule="evenodd">
        <path d="M8.33543487,14.3877645 C8.70139528,14.0343081 9.28310767,14.039363 9.64287039,14.3991257 C10.0026331,14.7588885 10.007688,15.3406009 9.65423165,15.7065613 L9.65423165,15.7065613 L3.59187021,21.7689227 C3.22457599,22.1254901 2.64036766,22.1254901 2.27307343,21.7689227 C1.90897552,21.4047148 1.90897552,20.8143338 2.27307343,20.4501259 L2.27307343,20.4501259 Z M17.0564566,1.97205795 C17.4782354,1.9256369 17.8982889,2.07315143 18.1984306,2.37309678 L18.1984306,2.37309678 L21.590555,5.76522117 C21.8905003,6.06536287 22.0380149,6.48541636 21.9915938,6.90719514 C21.9451728,7.32897392 21.7098335,7.70689044 21.3517912,7.9346139 L21.3517912,7.9346139 L16.2482156,10.8249613 C16.7533795,12.4671653 16.5688745,14.2442041 15.7371119,15.7475988 C15.5185481,16.1205742 15.1398339,16.3715584 14.7111738,16.4275159 C14.2823687,16.4724478 13.8554587,16.3268483 13.5434697,16.0292654 L13.5434697,16.0292654 L7.93998237,10.4248454 C7.63330514,10.1187195 7.48579045,9.68776397 7.54054762,9.2579202 C7.59530478,8.82807644 7.84615251,8.4478677 8.21978367,8.22840526 C9.22080675,7.68161624 10.3589724,7.4370062 11.4962569,7.52423866 C12.0506806,7.52205039 12.6034611,7.58465293 13.1433538,7.71077286 L13.1433538,7.71077286 L16.0290379,2.61186055 C16.2567613,2.25381827 16.6346779,2.018479 17.0564566,1.97205795 Z M17.3501663,4.17548349 C17.1358847,4.03254325 16.8462993,4.09037683 16.703359,4.3046584 L16.703359,4.3046584 L15.3845622,6.28285357 C15.3157119,6.38572989 15.2905902,6.51175979 15.3147328,6.63317247 C15.3388754,6.75458515 15.410301,6.8614169 15.5132708,6.93012724 C15.5899446,6.98079233 15.6797206,7.00801682 15.7716207,7.00847212 C15.9279255,7.00870334 16.0739517,6.93061259 16.1605445,6.80048597 L16.1605445,6.80048597 L17.4793413,4.81949279 C17.6222815,4.60800922 17.5644479,4.31842372 17.3501663,4.17548349 Z" id="ðŸ–-Color" fill="#5A5A5A"></path>
        <rect id="_Transparent_Rectangle_" x="0" y="0" width="24" height="24"></rect>
    </g>
</svg>