<?xml version="1.0" encoding="UTF-8"?>
<svg width="24px" height="24px" viewBox="0 0 24 24" version="1.1" xmlns="http://www.w3.org/2000/svg" xmlns:xlink="http://www.w3.org/1999/xlink">
    <title>1. Interface Essentials/print</title>
    <g id="1.-Interface-Essentials/print" stroke="none" stroke-width="1" fill="none" fill-rule="evenodd">
        <path d="M19.9166667,7.83333333 C20.469201,7.83333333 20.999105,8.05282675 21.3898058,8.44352754 C21.7805066,8.83422833 22,9.36413231 22,9.91666667 L22,9.91666667 L22,13.6666667 C22,14.219201 21.7805066,14.749105 21.3898058,15.1398058 C20.999105,15.5305066 20.469201,15.75 19.9166667,15.75 L19.9166667,15.75 L18.25,15.75 L18.25,20.9583333 C18.2495405,21.5334395 17.7834395,21.9995405 17.2083333,22 L17.2083333,22 L7.20833333,22 C6.63322717,21.9995405 6.1671262,21.5334395 6.16666667,20.9583333 L6.16666667,20.9583333 L6.16666667,15.75 L4.08333333,15.75 C2.9327401,15.75 2,14.8172599 2,13.6666667 L2,13.6666667 L2,9.91666667 C2,8.76607344 2.9327401,7.83333333 4.08333333,7.83333333 L4.08333333,7.83333333 Z M16.1666667,11.9641667 L8.25,11.9641667 C8.01988135,11.9641667 7.83333333,12.1507147 7.83333333,12.3808333 L7.83333333,12.3808333 L7.83333333,19.9166667 C7.83333333,20.1467853 8.01988135,20.3333333 8.25,20.3333333 L8.25,20.3333333 L16.1666667,20.3333333 C16.3967853,20.3333333 16.5833333,20.1467853 16.5833333,19.9166667 L16.5833333,19.9166667 L16.5833333,12.3808333 C16.5833333,12.1507147 16.3967853,11.9641667 16.1666667,11.9641667 L16.1666667,11.9641667 Z M13.0416667,17.2075 C13.3868446,17.2075 13.6666667,17.487322 13.6666667,17.8325 C13.6666667,18.177678 13.3868446,18.4575 13.0416667,18.4575 L13.0416667,18.4575 L9.91666667,18.4575 C9.5714887,18.4575 9.29166667,18.177678 9.29166667,17.8325 C9.29166667,17.487322 9.5714887,17.2075 9.91666667,17.2075 L9.91666667,17.2075 Z M14.5,14.2908333 C14.845178,14.2908333 15.125,14.5706554 15.125,14.9158333 C15.125,15.2610113 14.845178,15.5408333 14.5,15.5408333 L14.5,15.5408333 L9.91666667,15.5408333 C9.5714887,15.5408333 9.29166667,15.2610113 9.29166667,14.9158333 C9.29166667,14.5706554 9.5714887,14.2908333 9.91666667,14.2908333 L9.91666667,14.2908333 Z M4.91666667,9.91666667 C4.45642938,9.91666667 4.08333333,10.2897627 4.08333333,10.75 C4.08333333,11.2102373 4.45642938,11.5833333 4.91666667,11.5833333 C5.37690396,11.5833333 5.75,11.2102373 5.75,10.75 C5.75,10.2897627 5.37690396,9.91666667 4.91666667,9.91666667 Z M14.9883333,2 C15.4302621,2.00122574 15.8537992,2.17705057 16.1666667,2.48916667 L16.1666667,2.48916667 L18.2141667,4.535 C18.3704578,4.69124394 18.4583333,4.90317099 18.4583333,5.12416667 L18.4583333,5.12416667 L18.4583333,6.16666667 C18.4583333,6.62690396 18.0852373,7 17.625,7 C17.1647627,7 16.7916667,6.62690396 16.7916667,6.16666667 L16.7916667,6.16666667 L16.7916667,5.46916667 L14.9883333,3.66666667 L7.625,3.66666667 L7.625,6.16666667 C7.625,6.62690396 7.25190396,7 6.79166667,7 C6.33142938,7 5.95833333,6.62690396 5.95833333,6.16666667 L5.95833333,6.16666667 L5.95833333,3.66666667 C5.95833333,2.74619208 6.70452542,2 7.625,2 L7.625,2 Z" id="ðŸ–-Color" fill="#5A5A5A"></path>
        <rect id="_Transparent_Rectangle_" x="0" y="0" width="24" height="24"></rect>
    </g>
</svg>