<svg width="24" height="24" viewBox="0 0 24 24" fill="none" xmlns="http://www.w3.org/2000/svg">
<g id="print">
<path id="Shape" fill-rule="evenodd" clip-rule="evenodd" d="M7.625 6.16667C7.625 6.6269 7.2519 7 6.79167 7C6.33143 7 5.95833 6.6269 5.95833 6.16667V3.66667C5.95833 2.74619 6.70453 2 7.625 2H14.9883C15.4303 2.00123 15.8538 2.17705 16.1667 2.48917L18.2142 4.535C18.3705 4.69124 18.4583 4.90317 18.4583 5.12417V6.16667C18.4583 6.6269 18.0852 7 17.625 7C17.1648 7 16.7917 6.6269 16.7917 6.16667V5.46917L14.9883 3.66667H7.625V6.16667ZM4.08333 7.83333H19.9167C20.4692 7.83333 20.9991 8.05283 21.3898 8.44353C21.7805 8.83423 22 9.36413 22 9.91667V13.6667C22 14.2192 21.7805 14.7491 21.3898 15.1398C20.9991 15.5305 20.4692 15.75 19.9167 15.75H18.25V20.9583C18.2495 21.5334 17.7834 21.9995 17.2083 22H7.20833C6.63323 21.9995 6.16713 21.5334 6.16667 20.9583V15.75H4.08333C2.93274 15.75 2 14.8173 2 13.6667V9.91667C2 8.76607 2.93274 7.83333 4.08333 7.83333ZM4.08333 10.75C4.08333 11.2102 4.45643 11.5833 4.91667 11.5833C5.3769 11.5833 5.75 11.2102 5.75 10.75C5.75 10.2898 5.3769 9.91667 4.91667 9.91667C4.45643 9.91667 4.08333 10.2898 4.08333 10.75ZM16.5833 19.9167C16.5833 20.1468 16.3968 20.3333 16.1667 20.3333H8.25C8.01988 20.3333 7.83333 20.1468 7.83333 19.9167V12.3808C7.83333 12.1507 8.01988 11.9642 8.25 11.9642H16.1667C16.3968 11.9642 16.5833 12.1507 16.5833 12.3808V19.9167ZM14.5 14.2908H9.91667C9.57149 14.2908 9.29167 14.5707 9.29167 14.9158C9.29167 15.261 9.57149 15.5408 9.91667 15.5408H14.5C14.8452 15.5408 15.125 15.261 15.125 14.9158C15.125 14.5707 14.8452 14.2908 14.5 14.2908ZM9.91667 17.2075H13.0417C13.3868 17.2075 13.6667 17.4873 13.6667 17.8325C13.6667 18.1777 13.3868 18.4575 13.0417 18.4575H9.91667C9.57149 18.4575 9.29167 18.1777 9.29167 17.8325C9.29167 17.4873 9.57149 17.2075 9.91667 17.2075Z" fill="#5A5A5A"/>
</g>
</svg>
