<svg width="24" height="24" viewBox="0 0 24 24" fill="none" xmlns="http://www.w3.org/2000/svg">
<g id="redo">
<path id="Shape" fill-rule="evenodd" clip-rule="evenodd" d="M20.9305 2.03218C20.7732 1.96689 20.592 2.00279 20.4715 2.12313L18.2897 4.30499C18.2247 4.36988 18.1252 4.38521 18.0438 4.34288C14.5526 2.53333 10.3451 2.81403 7.12522 5.07129C4.4316 6.99719 2.82533 10.0983 2.80632 13.4096C2.78732 16.7208 4.35788 19.8402 7.02922 21.7969C7.49848 22.1401 8.15713 22.038 8.50035 21.5687C8.84358 21.0994 8.7414 20.4408 8.27214 20.0976C6.14646 18.5398 4.89682 16.057 4.91199 13.4217C4.92716 10.7864 6.2053 8.31816 8.34877 6.78495C10.6784 5.14858 13.6772 4.80011 16.32 5.85865C16.3858 5.8849 16.4339 5.94245 16.4481 6.0118C16.4624 6.08115 16.4408 6.15302 16.3907 6.20306L14.8329 7.76093C14.7127 7.88144 14.677 8.06242 14.7422 8.21958C14.8074 8.37674 14.9608 8.4792 15.131 8.47923H20.773C21.0055 8.47923 21.194 8.29073 21.194 8.05819V2.42123C21.1934 2.25002 21.0892 2.09622 20.9305 2.03218Z" fill="#5A5A5A"/>
</g>
</svg>
