<?xml version="1.0" encoding="UTF-8"?>
<svg width="24px" height="24px" viewBox="0 0 24 24" version="1.1" xmlns="http://www.w3.org/2000/svg" xmlns:xlink="http://www.w3.org/1999/xlink">
    <title>1. Interface Essentials/redo</title>
    <g id="1.-Interface-Essentials/redo" stroke="none" stroke-width="1" fill="none" fill-rule="evenodd">
        <path d="M20.9303666,2.03218373 C20.7730723,1.96689164 20.5919348,2.00278677 20.4714268,2.12312959 L18.2895683,4.30498811 C18.2246338,4.36988051 18.1251365,4.385214 18.0436777,4.34288222 C14.5525218,2.53333062 10.3449688,2.81402886 7.12512207,5.07129118 C4.43150249,6.99719369 2.82523457,10.0983442 2.80605883,13.4095865 C2.78722414,16.7208288 4.35778866,19.8402131 7.02912366,21.7969083 C7.4983835,22.140133 8.15703238,22.0379614 8.50025711,21.5687015 C8.84348184,21.0994417 8.74131022,20.4407928 8.2720504,20.0975681 C6.14636405,18.5397794 4.89673086,16.0570354 4.91190045,13.4216952 C4.92707003,10.786355 6.20520188,8.31816137 8.34868071,6.78494695 C10.6783475,5.14857553 13.6770867,4.80010594 16.3199168,5.85864654 C16.3856646,5.88490457 16.4338115,5.9424514 16.4480545,6.01180123 C16.4622975,6.08115105 16.4407291,6.15301593 16.3906525,6.20306187 L14.8327836,7.76093075 C14.7126499,7.88144077 14.6768626,8.06241493 14.7420867,8.21957913 C14.8073107,8.37674333 14.9607229,8.47919857 15.1308839,8.47923462 L20.7728955,8.47923462 C21.0054326,8.47923462 21.1939412,8.29072606 21.1939412,8.05818897 L21.1939412,2.42122991 C21.1933537,2.25002059 21.0891524,2.09621539 20.9303666,2.03218373 Z" id="ðŸ–-Color" fill="#5A5A5A"></path>
        <rect id="_Transparent_Rectangle_" x="0" y="0" width="24" height="24"></rect>
    </g>
</svg>