<svg width="24" height="24" viewBox="0 0 24 24" fill="none" xmlns="http://www.w3.org/2000/svg">
<g id="refresh">
<path id="Shape" fill-rule="evenodd" clip-rule="evenodd" d="M14.125 5.29881C11.6513 4.4923 8.94082 5.15976 7.10686 7.02701C5.2785 8.89004 4.62379 11.6304 5.40842 14.1359C5.42834 14.1996 5.47653 14.2501 5.5386 14.2724C5.60068 14.2947 5.66945 14.2861 5.7244 14.2493L6.8497 13.4982C7.13359 13.3088 7.502 13.3114 7.78322 13.5049C8.06445 13.6984 8.20314 14.0447 8.13466 14.3823L7.36654 18.1388C7.28672 18.5356 6.94289 18.8206 6.54379 18.8209C6.48731 18.8208 6.43099 18.8148 6.37571 18.803L2.67209 18.0289C2.33856 17.9597 2.07912 17.6932 2.01505 17.354C1.95099 17.0148 2.09494 16.6699 2.37963 16.4806L3.55618 15.6945C3.63922 15.6392 3.67228 15.5322 3.63518 15.4387C2.32025 12.1426 3.00299 8.37235 5.38683 5.76562C7.77067 3.15888 11.4255 2.18604 14.7637 3.26964C15.121 3.38539 15.3903 3.68572 15.4701 4.05751C15.55 4.4293 15.4282 4.81606 15.1508 5.0721C14.8733 5.32814 14.4823 5.41456 14.125 5.29881ZM21.3457 6.05335C21.6769 6.13014 21.9299 6.40165 21.9869 6.74139C22.047 7.08322 21.8968 7.42786 21.6071 7.61274L20.4759 8.33404C20.391 8.38777 20.3557 8.49514 20.3918 8.58982C21.6883 11.87 21.0104 15.6142 18.6495 18.2128C16.2885 20.8114 12.6653 21.8014 9.33727 20.7572C8.96956 20.6526 8.68671 20.3539 8.59855 19.977C8.51039 19.6 8.63079 19.2043 8.91302 18.9433C9.19524 18.6823 9.59483 18.5973 9.95664 18.7212C12.4294 19.4972 15.1223 18.8111 16.9402 16.9419C18.7581 15.0727 19.3982 12.3317 18.6001 9.83375C18.5801 9.77091 18.5327 9.72092 18.4715 9.69818C18.4103 9.67637 18.3425 9.68489 18.2883 9.7212L17.0756 10.4937C16.7879 10.6771 16.4195 10.6666 16.1423 10.4671C15.8651 10.2676 15.7336 9.9184 15.8092 9.58223L16.6496 5.84191C16.6992 5.62105 16.8334 5.42932 17.0227 5.30903C17.2119 5.18874 17.4405 5.14978 17.658 5.20076L21.3457 6.05335Z" fill="#5A5A5A"/>
</g>
</svg>
