<?xml version="1.0" encoding="UTF-8"?>
<svg width="24px" height="24px" viewBox="0 0 24 24" version="1.1" xmlns="http://www.w3.org/2000/svg" xmlns:xlink="http://www.w3.org/1999/xlink">
    <title>1. Interface Essentials/refresh</title>
    <g id="1.-Interface-Essentials/refresh" stroke="none" stroke-width="1" fill="none" fill-rule="evenodd">
        <path d="M17.0226525,5.30901948 C17.2118583,5.18872987 17.4404714,5.14977404 17.658032,5.20075041 L17.658032,5.20075041 L21.3456909,6.05334269 C21.6768586,6.13013151 21.9298893,6.4016376 21.9869132,6.74138467 C22.0469956,7.08320897 21.8967509,7.42785152 21.6070541,7.61273398 L21.6070541,7.61273398 L20.4758807,8.33402705 C20.3909719,8.38776041 20.3556929,8.49513343 20.3918411,8.58980474 C21.6883469,11.8699924 21.010411,15.6141769 18.6494707,18.2127735 C16.2885304,20.81137 12.6652614,21.8013568 9.33726849,20.7571492 C8.96955963,20.6526361 8.68671505,20.3539188 8.59855116,19.9769765 C8.51038727,19.6000341 8.63079164,19.2042427 8.91301644,18.943271 C9.19524124,18.6822993 9.59483037,18.5972557 9.95664054,18.7211588 C12.4293679,19.4972234 15.1223029,18.8111258 16.9402162,16.9419052 C18.7581295,15.0726846 19.3982032,12.3317054 18.6001162,9.83373688 C18.5800711,9.77090226 18.5326549,9.72091149 18.4715356,9.69817471 C18.4102786,9.67636065 18.3424896,9.68487837 18.2883292,9.7211947 L18.2883292,9.7211947 L17.0756374,10.4936433 C16.7878616,10.67708 16.419509,10.6666135 16.1423048,10.4671233 C15.8651005,10.2676331 15.7336204,9.91839468 15.8091602,9.58222216 L15.8091602,9.58222216 L16.6495565,5.84189981 C16.6992047,5.62104247 16.8334468,5.4293091 17.0226525,5.30901948 Z M5.38682703,5.76560608 C7.77066884,3.15887401 11.4254589,2.1860267 14.7637072,3.26962889 C15.1209984,3.3853776 15.3902812,3.68571259 15.4701193,4.05750059 C15.5499575,4.42928859 15.4282218,4.81604614 15.1507688,5.07208542 C14.8733158,5.3281247 14.4822972,5.41454725 14.1250061,5.29879852 C11.6513404,4.49229303 8.94081767,5.15975357 7.10685677,7.02700308 C5.27850034,8.89002525 4.62378816,11.6303579 5.4084159,14.1359175 C5.42833893,14.1995843 5.47652937,14.2500936 5.53860302,14.2723691 C5.60067666,14.2946447 5.66945363,14.2861099 5.7244049,14.2493123 L5.7244049,14.2493123 L6.84969551,13.4981785 C7.13359303,13.3087436 7.50200042,13.3113927 7.78322251,13.5048914 C8.06444461,13.6983901 8.20313657,14.0446575 8.13466142,14.3823167 L8.13466142,14.3823167 L7.36653922,18.1388383 C7.28671968,18.5355481 6.94288951,18.8205899 6.54379127,18.8209121 C6.48731105,18.8207474 6.43099416,18.8147483 6.37571201,18.8030077 L6.37571201,18.8030077 L2.67208563,18.0288539 C2.3385629,17.9596711 2.07912427,17.693197 2.01505483,17.3540056 C1.95098539,17.0148142 2.09494256,16.6699155 2.37962772,16.4805463 L2.37962772,16.4805463 L3.55618251,15.6944562 C3.63922262,15.6391829 3.6722821,15.5321428 3.63517976,15.4386786 C2.32025248,12.1425739 3.00298522,8.37233815 5.38682703,5.76560608 Z" id="ðŸ–-Color" fill="#5A5A5A"></path>
        <rect id="_Transparent_Rectangle_" x="0" y="0" width="24" height="24"></rect>
    </g>
</svg>