<svg width="24" height="24" viewBox="0 0 24 24" fill="none" xmlns="http://www.w3.org/2000/svg">
<g id="remove_style">
<path id="Shape" fill-rule="evenodd" clip-rule="evenodd" d="M20.4042 9.70877C21.0527 9.05642 21.0527 8.00279 20.4042 7.35044L16.095 3.04211C15.7824 2.7294 15.3584 2.55371 14.9163 2.55371C14.4741 2.55371 14.0501 2.7294 13.7375 3.04211L10.8008 5.97877C10.6382 6.14148 10.6382 6.40523 10.8008 6.56794L16.8775 12.6454C16.9557 12.7238 17.0618 12.7678 17.1725 12.7678C17.2832 12.7678 17.3893 12.7238 17.4675 12.6454L20.4042 9.70877ZM5.40417 17.3504C6.19049 18.0566 7.19465 18.4727 8.25 18.5296H9.91667C10.9717 18.4725 11.9756 18.0564 12.7617 17.3504L15.6992 14.4129C15.8618 14.2502 15.8618 13.9865 15.6992 13.8238L9.6225 7.74627C9.54433 7.6679 9.43819 7.62386 9.3275 7.62386C9.21681 7.62386 9.11067 7.6679 9.0325 7.74627L3.595 13.1838C2.94646 13.8361 2.94646 14.8898 3.595 15.5421L5.40417 17.3504ZM2.83333 19.7796H21.1667C21.6269 19.7796 22 20.1527 22 20.6129C22 21.0732 21.6269 21.4463 21.1667 21.4463H2.83333C2.3731 21.4463 2 21.0732 2 20.6129C2 20.1527 2.3731 19.7796 2.83333 19.7796Z" fill="#5A5A5A"/>
</g>
</svg>
