<?xml version="1.0" encoding="UTF-8"?>
<svg width="24px" height="24px" viewBox="0 0 24 24" version="1.1" xmlns="http://www.w3.org/2000/svg" xmlns:xlink="http://www.w3.org/1999/xlink">
    <title>1. Interface Essentials/remove_style</title>
    <g id="1.-Interface-Essentials/remove_style" stroke="none" stroke-width="1" fill="none" fill-rule="evenodd">
        <path d="M21.1666667,19.7796137 C21.626904,19.7796137 22,20.1527098 22,20.6129471 C22,21.0731843 21.626904,21.4462804 21.1666667,21.4462804 L21.1666667,21.4462804 L2.83333333,21.4462804 C2.37309604,21.4462804 2,21.0731843 2,20.6129471 C2,20.1527098 2.37309604,19.7796137 2.83333333,19.7796137 L2.83333333,19.7796137 Z M9.3275,7.6238689 C9.43818938,7.6238689 9.54432978,7.6679123 9.6225,7.74628039 L9.6225,7.74628039 L15.6991667,13.8237804 C15.8618258,13.9864887 15.8618258,14.2502388 15.6991667,14.4129471 L15.6991667,14.4129471 L12.7616667,17.3504471 C11.975559,18.056451 10.9717241,18.4725103 9.91666667,18.5296137 L9.91666667,18.5296137 L8.25,18.5296137 C7.19465203,18.4726974 6.19049367,18.056626 5.40416667,17.3504471 L5.40416667,17.3504471 L3.595,15.5421137 C2.94646049,14.8897634 2.94646049,13.8361307 3.595,13.1837804 L3.595,13.1837804 L9.0325,7.74628039 C9.11067022,7.6679123 9.21681062,7.6238689 9.3275,7.6238689 Z M14.91625,2.55371961 C15.3583945,2.55371961 15.78242,2.72940704 16.095,3.04211372 L16.095,3.04211372 L20.4041667,7.35044706 C21.0527062,8.00279734 21.0527062,9.05643011 20.4041667,9.70878039 L20.4041667,9.70878039 L17.4675,12.6454471 C17.3893298,12.7238151 17.2831894,12.7678585 17.1725,12.7678585 C17.0618106,12.7678585 16.9556702,12.7238151 16.8775,12.6454471 L16.8775,12.6454471 L10.8008333,6.56794706 C10.6381742,6.40523878 10.6381742,6.14148866 10.8008333,5.97878039 L10.8008333,5.97878039 L13.7375,3.04211372 C14.05008,2.72940704 14.4741055,2.55371961 14.91625,2.55371961 Z" id="ðŸ–-Color" fill="#5A5A5A"></path>
        <rect id="_Transparent_Rectangle_" x="0" y="0" width="24" height="24"></rect>
    </g>
</svg>