<?xml version="1.0" encoding="UTF-8"?>
<svg width="24px" height="24px" viewBox="0 0 24 24" version="1.1" xmlns="http://www.w3.org/2000/svg" xmlns:xlink="http://www.w3.org/1999/xlink">
    <title>1. Interface Essentials/right_aligned_paragraph</title>
    <g id="1.-Interface-Essentials/right_aligned_paragraph" stroke="none" stroke-width="1" fill="none" fill-rule="evenodd">
        <path d="M20.930764,19.4607776 C21.5194031,19.4607776 21.9965894,19.9379639 21.9965894,20.526603 C21.9965894,21.1152421 21.5194031,21.5924284 20.930764,21.5924284 L3.06582538,21.5924284 C2.47718627,21.5924284 2,21.1152421 2,20.526603 C2,19.9379639 2.47718627,19.4607776 3.06582538,19.4607776 L20.930764,19.4607776 Z M20.930764,13.7760914 C21.5194031,13.7760914 21.9965894,14.2532777 21.9965894,14.8419168 C21.9965894,15.4305559 21.5194031,15.9077422 20.930764,15.9077422 L6.31360846,15.9077422 C5.72496936,15.9077422 5.24778308,15.4305559 5.24778308,14.8419168 C5.24778308,14.2532777 5.72496936,13.7760914 6.31360846,13.7760914 L20.930764,13.7760914 Z M20.930764,8.09225784 C21.5194031,8.09225784 21.9965894,8.56944412 21.9965894,9.15808322 C21.9965894,9.74672232 21.5194031,10.2239086 20.930764,10.2239086 L8.74965894,10.2239086 C8.16101984,10.2239086 7.68383356,9.74672232 7.68383356,9.15808322 C7.68383356,8.56944412 8.16101984,8.09225784 8.74965894,8.09225784 L20.930764,8.09225784 Z M20.9341746,2.40757162 C21.5228137,2.40757162 22,2.8847579 22,3.473397 C22,4.0620361 21.5228137,4.53922237 20.9341746,4.53922237 L5.50102319,4.53922237 C4.91238409,4.53922237 4.43519782,4.0620361 4.43519782,3.473397 C4.43519782,2.8847579 4.91238409,2.40757162 5.50102319,2.40757162 L20.9341746,2.40757162 Z" id="Combined-Shape" fill="#5A5A5A"></path>
        <rect id="_Transparent_Rectangle_" x="0" y="0" width="24" height="24"></rect>
    </g>
</svg>