<svg width="24" height="24" viewBox="0 0 24 24" fill="none" xmlns="http://www.w3.org/2000/svg">
<g id="right_aligned_paragraph">
<path id="Shape" fill-rule="evenodd" clip-rule="evenodd" d="M5.50102 4.53924H20.9308H20.9342C21.5228 4.53924 22 4.06206 22 3.47342C22 2.88478 21.5228 2.40759 20.9342 2.40759H5.50102C4.91238 2.40759 4.4352 2.88478 4.4352 3.47342C4.4352 4.06206 4.91238 4.53924 5.50102 4.53924ZM3.06583 21.5924H20.9308C21.5194 21.5924 21.9966 21.1153 21.9966 20.5266C21.9966 19.938 21.5194 19.4608 20.9308 19.4608H3.06583C2.47719 19.4608 2 19.938 2 20.5266C2 21.1153 2.47719 21.5924 3.06583 21.5924ZM20.9308 10.2239H8.74966C8.16102 10.2239 7.68383 9.74674 7.68383 9.1581C7.68383 8.56947 8.16102 8.09228 8.74966 8.09228H20.9308C21.5194 8.09228 21.9966 8.56947 21.9966 9.1581C21.9966 9.74674 21.5194 10.2239 20.9308 10.2239ZM6.31361 15.9078H20.9308C21.5194 15.9078 21.9966 15.4306 21.9966 14.8419C21.9966 14.2533 21.5194 13.7761 20.9308 13.7761H6.31361C5.72497 13.7761 5.24778 14.2533 5.24778 14.8419C5.24778 15.4306 5.72497 15.9078 6.31361 15.9078Z" fill="#5A5A5A"/>
</g>
</svg>
