<?xml version="1.0" encoding="UTF-8"?>
<svg width="24px" height="24px" viewBox="0 0 24 24" version="1.1" xmlns="http://www.w3.org/2000/svg" xmlns:xlink="http://www.w3.org/1999/xlink">
    <title>1. Interface Essentials/rss_feed_square</title>
    <g id="1.-Interface-Essentials/rss_feed_square" stroke="none" stroke-width="1" fill="none" fill-rule="evenodd">
        <path d="M18.6666667,2 L5.33333333,2 C3.49238417,2 2,3.49238417 2,5.33333333 L2,18.6666667 C2,20.5076158 3.49238417,22 5.33333333,22 L18.6666667,22 C20.5076158,22 22,20.5076158 22,18.6666667 L22,5.33333333 C22,3.49238417 20.5076158,2 18.6666667,2 Z M6.58333333,11.1666667 C6.12309604,11.1666667 5.75,10.7935706 5.75,10.3333333 C5.75,9.87309604 6.12309604,9.5 6.58333333,9.5 C10.9534935,9.50505142 14.4949486,13.0465065 14.5,17.4166667 C14.5,17.876904 14.126904,18.25 13.6666667,18.25 C13.2064294,18.25 12.8333333,17.876904 12.8333333,17.4166667 C12.8292007,13.9666002 10.0333998,11.1707993 6.58333333,11.1666667 Z M7.83333333,18.25 C6.6827401,18.25 5.75,17.3172599 5.75,16.1666667 C5.75,15.0160734 6.6827401,14.0833333 7.83333333,14.0833333 C8.98392656,14.0833333 9.91666667,15.0160734 9.91666667,16.1666667 C9.91666667,17.3172599 8.98392656,18.25 7.83333333,18.25 Z M6.58333333,7 C6.12309604,7 5.75,6.62690396 5.75,6.16666667 C5.75,5.70642938 6.12309604,5.33333333 6.58333333,5.33333333 C13.2535378,5.34113985 18.6588601,10.7464622 18.6666667,17.4166667 C18.6666667,17.876904 18.2935706,18.25 17.8333333,18.25 C17.373096,18.25 17,17.876904 17,17.4166667 C16.9935705,11.6663658 12.3336342,7.00642954 6.58333333,7 Z" id="ðŸ–-Color" fill="#5A5A5A"></path>
        <rect id="_Transparent_Rectangle_" x="0" y="0" width="24" height="24"></rect>
    </g>
</svg>