<svg width="24" height="24" viewBox="0 0 24 24" fill="none" xmlns="http://www.w3.org/2000/svg">
<g id="rss_feed_square">
<path id="Shape" fill-rule="evenodd" clip-rule="evenodd" d="M18.6667 2H5.33333C3.49238 2 2 3.49238 2 5.33333V18.6667C2 20.5076 3.49238 22 5.33333 22H18.6667C20.5076 22 22 20.5076 22 18.6667V5.33333C22 3.49238 20.5076 2 18.6667 2ZM6.58333 11.1667C6.1231 11.1667 5.75 10.7936 5.75 10.3333C5.75 9.8731 6.1231 9.5 6.58333 9.5C10.9535 9.50505 14.4949 13.0465 14.5 17.4167C14.5 17.8769 14.1269 18.25 13.6667 18.25C13.2064 18.25 12.8333 17.8769 12.8333 17.4167C12.8292 13.9666 10.0334 11.1708 6.58333 11.1667ZM7.83333 18.25C6.68274 18.25 5.75 17.3173 5.75 16.1667C5.75 15.0161 6.68274 14.0833 7.83333 14.0833C8.98393 14.0833 9.91667 15.0161 9.91667 16.1667C9.91667 17.3173 8.98393 18.25 7.83333 18.25ZM6.58333 7C6.1231 7 5.75 6.6269 5.75 6.16667C5.75 5.70643 6.1231 5.33333 6.58333 5.33333C13.2535 5.34114 18.6589 10.7465 18.6667 17.4167C18.6667 17.8769 18.2936 18.25 17.8333 18.25C17.3731 18.25 17 17.8769 17 17.4167C16.9936 11.6664 12.3336 7.00643 6.58333 7Z" fill="#5A5A5A"/>
</g>
</svg>
