<svg width="24" height="24" viewBox="0 0 24 24" fill="none" xmlns="http://www.w3.org/2000/svg">
<g id="save">
<path id="Shape" fill-rule="evenodd" clip-rule="evenodd" d="M20.3333 2H5.67833C5.23597 1.99903 4.81162 2.17519 4.5 2.48917L2.48833 4.5C2.17624 4.81316 2.00069 5.23705 2 5.67917V20.3333C2 21.2538 2.74619 22 3.66667 22H20.3333C21.2538 22 22 21.2538 22 20.3333V3.66667C22 2.7462 21.2538 2 20.3333 2ZM5.95833 7C5.90301 7.00023 5.84989 6.97835 5.81077 6.93923C5.77166 6.90011 5.74978 6.84699 5.75 6.79167V3.875C5.75 3.75994 5.84327 3.66667 5.95833 3.66667H18.0417C18.0969 3.66666 18.15 3.68853 18.1892 3.7275C18.2278 3.7669 18.2497 3.8198 18.25 3.875V6.79167C18.2502 6.84699 18.2283 6.90011 18.1892 6.93923C18.1501 6.97835 18.097 7.00023 18.0417 7H5.95833ZM14.9167 12.4167C14.9167 14.0275 13.6108 15.3333 12 15.3333C10.3892 15.3333 9.08333 14.0275 9.08333 12.4167C9.08333 10.8058 10.3892 9.5 12 9.5C13.6108 9.5 14.9167 10.8058 14.9167 12.4167ZM5.75 18.875C5.75 18.7599 5.84327 18.6667 5.95833 18.6667H18.0417C18.1567 18.6667 18.25 18.7599 18.25 18.875V20.125C18.25 20.2401 18.1567 20.3333 18.0417 20.3333H5.95833C5.84327 20.3333 5.75 20.2401 5.75 20.125V18.875Z" fill="#5A5A5A"/>
</g>
</svg>
