<?xml version="1.0" encoding="UTF-8"?>
<svg width="24px" height="24px" viewBox="0 0 24 24" version="1.1" xmlns="http://www.w3.org/2000/svg" xmlns:xlink="http://www.w3.org/1999/xlink">
    <title>1. Interface Essentials/save</title>
    <g id="1.-Interface-Essentials/save" stroke="none" stroke-width="1" fill="none" fill-rule="evenodd">
        <path d="M20.3333333,2.00000401 L5.67833333,2.00000401 C5.2359652,1.99903086 4.81161752,2.17519213 4.5,2.48917462 L2.48833333,4.50000401 C2.17624274,4.81316412 2.00069396,5.23705743 2,5.67917398 L2,20.3333377 C2,21.2538121 2.74619208,22.000004 3.66666667,22.000004 L20.3333333,22.000004 C21.2538079,22.000004 22,21.2538121 22,20.3333377 L22,3.66667439 C22,2.74619999 21.2538079,2.00000401 20.3333333,2.00000401 Z M5.95833333,7.00000873 C5.90301195,7.00022968 5.8498921,6.97835184 5.81077366,6.9392334 C5.77165522,6.90011497 5.74977738,6.84699513 5.74999832,6.79167376 L5.74999832,3.87500768 C5.74999832,3.75994838 5.84327401,3.66667439 5.95833333,3.66667439 L18.0416667,3.66667439 C18.0969398,3.66667439 18.149969,3.6885377 18.1891667,3.72750771 C18.2278334,3.76690638 18.2496507,3.8198058 18.2499983,3.87500768 L18.2499983,6.79167376 C18.2502226,6.84699513 18.2283448,6.90011497 18.1892263,6.9392334 C18.1501079,6.97835184 18.096988,7.00022968 18.0416667,7.00000873 L5.95833333,7.00000873 Z M14.9166667,12.4166726 C14.9166667,14.0275028 13.6108305,15.3333387 12,15.3333387 C10.3891695,15.3333387 9.08333333,14.0275028 9.08333333,12.4166726 C9.08333333,10.8058424 10.3891695,9.50000655 12,9.50000655 C13.6108305,9.50000655 14.9166667,10.8058424 14.9166667,12.4166726 L14.9166667,12.4166726 Z M5.75,18.8750047 C5.75,18.7599454 5.84327401,18.6666714 5.95833333,18.6666714 L18.0416667,18.6666714 C18.156726,18.6666714 18.25,18.7599454 18.25,18.8750047 L18.25,20.1250044 C18.25,20.2400637 18.156726,20.3333377 18.0416667,20.3333377 L5.95833333,20.3333377 C5.84327401,20.3333377 5.75,20.2400637 5.75,20.1250044 L5.75,18.8750047 Z" id="ðŸ–-Color" fill="#5A5A5A"></path>
        <rect id="_Transparent_Rectangle_" x="0" y="0" width="24" height="24"></rect>
    </g>
</svg>