<svg width="24" height="24" viewBox="0 0 24 24" fill="none" xmlns="http://www.w3.org/2000/svg">
<g id="scissors">
<path id="Shape" fill-rule="evenodd" clip-rule="evenodd" d="M21.798 16.7906L14.0677 12.1957C14.0037 12.1584 13.9643 12.0898 13.9643 12.0157C13.9643 11.9415 14.0037 11.873 14.0677 11.8356L21.7897 7.40748C21.8867 7.35207 21.9573 7.26008 21.9858 7.15212C22.0143 7.04417 21.9983 6.92929 21.9414 6.83323C21.3074 5.84294 20.0178 5.50775 18.9818 6.06395L10.1505 11.0014C10.0881 11.0355 10.0128 11.0355 9.95044 11.0014L7.93013 9.90953C9.52362 8.72613 9.90497 6.49894 8.79596 4.85282C7.68695 3.2067 5.4796 2.72354 3.78432 3.75583C2.08903 4.78813 1.50507 6.97097 2.45848 8.71185C2.53446 8.84508 2.64695 8.95382 2.78269 9.02523L7.95597 11.8173C8.02336 11.8537 8.06537 11.9241 8.06537 12.0007C8.06537 12.0773 8.02336 12.1477 7.95597 12.184L2.78269 14.977C2.64642 15.0476 2.53374 15.1565 2.45848 15.2903C1.66796 16.732 1.91624 18.5215 3.0694 19.6935C3.49272 20.1387 4.02648 20.4636 4.6163 20.6353C6.34938 21.1744 8.21848 20.3838 9.03858 18.7646C9.85867 17.1455 9.39019 15.1708 7.93013 14.0927L9.94794 13.0017C10.0115 12.9667 10.0886 12.9667 10.1521 13.0017L18.9785 18.1216C19.2958 18.3046 19.6564 18.3993 20.0228 18.3958C20.7981 18.4044 21.523 18.012 21.9397 17.3581C22.0556 17.162 21.9925 16.9092 21.798 16.7906ZM6.1282 8.93771L3.81452 7.68753C3.50856 6.91998 3.69282 6.04381 4.28201 5.46452C4.8712 4.88523 5.75037 4.71584 6.51262 5.03474C7.27487 5.35365 7.77148 6.09864 7.77261 6.92491C7.76701 7.89943 7.08202 8.73788 6.1282 8.93771ZM5.72063 19.1284C5.04024 19.1267 4.40472 18.7886 4.02319 18.2252C3.64166 17.6619 3.56353 16.9462 3.81452 16.3138L6.1282 15.0636C7.15972 15.2747 7.86431 16.232 7.75925 17.2796C7.65418 18.3273 6.77353 19.1256 5.72063 19.1276V19.1284Z" fill="#5A5A5A"/>
</g>
</svg>
