<?xml version="1.0" encoding="UTF-8"?>
<svg width="24px" height="24px" viewBox="0 0 24 24" version="1.1" xmlns="http://www.w3.org/2000/svg" xmlns:xlink="http://www.w3.org/1999/xlink">
    <title>1. Interface Essentials/scissors</title>
    <g id="1.-Interface-Essentials/scissors" stroke="none" stroke-width="1" fill="none" fill-rule="evenodd">
        <path d="M21.7980828,16.7904794 L14.0677551,12.1956226 C14.0036972,12.1582932 13.9643004,12.0897367 13.9643004,12.0155956 C13.9643004,11.9414545 14.0036972,11.872898 14.0677551,11.8355685 L21.7897482,7.40740347 C21.886685,7.35199119 21.9573302,7.25999609 21.9858463,7.15204205 C22.0143625,7.04408801 21.9983641,6.92920591 21.9414377,6.83315055 C21.3074032,5.84286327 20.0178341,5.50766973 18.9818265,6.06386835 L10.1505001,11.0012766 C10.0881826,11.0353738 10.0127876,11.0353738 9.95047009,11.0012766 L7.93016666,9.90944592 C9.52365784,8.72605384 9.90500448,6.49886336 8.79599194,4.85273999 C7.6869794,3.20661663 5.47963747,2.72345587 3.784351,3.75575172 C2.08906452,4.78804756 1.50510788,6.97088913 2.45851154,8.71176604 C2.53449142,8.84500352 2.64698477,8.95373745 2.7827269,9.02514644 L7.95600388,11.8172324 C8.02339383,11.8536057 8.06540079,11.9240138 8.06540079,12.0005933 C8.06540079,12.0771728 8.02339383,12.147581 7.95600388,12.1839542 L2.7827269,14.9768737 C2.64645235,15.0475445 2.5337718,15.1564594 2.45851154,15.2902541 C1.66799541,16.7319407 1.91627843,18.5214075 3.06943663,19.6934154 C3.49275223,20.1385716 4.02651605,20.4635463 4.61633562,20.6352235 C6.34941563,21.1743529 8.21851297,20.3837008 9.03861045,18.7645445 C9.85870794,17.1453883 9.39021844,15.1707558 7.93016666,14.0925742 L9.94796972,13.001577 C10.0115371,12.9665805 10.0885997,12.9665805 10.1521671,13.001577 L18.9784927,18.1215126 C19.2958645,18.3045413 19.6564665,18.3992245 20.0228162,18.3957205 C20.7981776,18.4043215 21.5230217,18.0119603 21.9397708,17.3580646 C22.0555877,17.1619404 21.992486,16.9091625 21.7980828,16.7904794 Z M6.12822936,8.93763329 L3.81454854,7.68744553 C3.50859685,6.91990362 3.69285517,6.04373329 4.28204592,5.46443952 C4.87123667,4.88514575 5.75040237,4.71575502 6.51265176,5.03466392 C7.27490114,5.35357283 7.77151111,6.0985588 7.772643,6.92483099 C7.76704553,7.89934687 7.08205192,8.73779572 6.12822936,8.93763329 Z M5.72066815,19.1283305 C5.04026873,19.1266681 4.4047505,18.7885221 4.02322238,18.2251551 C3.64169427,17.661788 3.56356745,16.9461608 3.81454854,16.3137411 L6.12822936,15.0635534 C7.15975523,15.2746198 7.86434613,16.2318922 7.75928103,17.2795352 C7.65421592,18.3271783 6.77356443,19.1254713 5.72066815,19.1274971 L5.72066815,19.1283305 Z" id="ðŸ–-Color" fill="#5A5A5A"></path>
        <rect id="_Transparent_Rectangle_" x="0" y="0" width="24" height="24"></rect>
    </g>
</svg>