<?xml version="1.0" encoding="UTF-8"?>
<svg width="24px" height="24px" viewBox="0 0 24 24" version="1.1" xmlns="http://www.w3.org/2000/svg" xmlns:xlink="http://www.w3.org/1999/xlink">
    <title>1. Interface Essentials/search</title>
    <g id="1.-Interface-Essentials/search" stroke="none" stroke-width="1" fill="none" fill-rule="evenodd">
        <path d="M21.5335569,19.281061 C21.1189409,18.8647091 19.7312161,17.4793279 17.3703826,15.1249176 C19.7988299,11.5358272 19.1032873,6.68837042 15.7637064,3.92748157 C12.4241254,1.16659273 7.53406354,1.39633452 4.46785422,4.45817615 C1.40164489,7.52001777 1.16332907,12.4113485 3.91735396,15.7569593 C6.67137885,19.1025701 11.5159294,19.806929 15.1080767,17.3840009 L19.2712511,21.5401443 C19.9008065,22.1532852 20.9040015,22.1532852 21.5335569,21.5401443 C22.155481,20.9156164 22.155481,19.9055889 21.5335569,19.281061 Z M10.4106721,3.62383883 C14.1660522,3.62383883 17.2103892,6.66922369 17.2103892,10.4258963 C17.2103892,14.1825689 14.1660522,17.2279537 10.4106721,17.2279537 C6.65529205,17.2279537 3.610955,14.1825689 3.610955,10.4258963 C3.61536317,6.67105176 6.65711949,3.62824852 10.4106721,3.62383883 Z" id="ðŸ–-Color" fill="#5A5A5A"></path>
        <rect id="_Transparent_Rectangle_" x="0" y="0" width="24" height="24"></rect>
    </g>
</svg>