<svg width="24" height="24" viewBox="0 0 24 24" fill="none" xmlns="http://www.w3.org/2000/svg">
<g id="search_filter">
<path id="Shape" fill-rule="evenodd" clip-rule="evenodd" d="M20.4211 3.66666H3.57895C2.70692 3.66666 2 4.41285 2 5.33332C2 6.2538 2.70692 6.99999 3.57895 6.99999H20.4211C21.2931 6.99999 22 6.2538 22 5.33332C22 4.41285 21.2931 3.66666 20.4211 3.66666ZM13.6358 10.6667H3.57895C2.70692 10.6667 2 11.4128 2 12.3333C2 13.2538 2.70692 14 3.57895 14H13.6358C14.5078 14 15.2147 13.2538 15.2147 12.3333C15.2147 11.4128 14.5078 10.6667 13.6358 10.6667ZM3.5 17H7.17948C8.00791 17 8.67948 17.7462 8.67948 18.6667C8.67948 19.5871 8.00791 20.3333 7.17948 20.3333H3.5C2.67157 20.3333 2 19.5871 2 18.6667C2 17.7462 2.67157 17 3.5 17Z" fill="#5A5A5A"/>
</g>
</svg>
