<svg width="24" height="24" viewBox="0 0 24 24" fill="none" xmlns="http://www.w3.org/2000/svg">
<g id="search">
<path id="Shape" fill-rule="evenodd" clip-rule="evenodd" d="M21.5336 19.2811C20.9116 18.6565 17.3704 15.1249 17.3704 15.1249C19.7988 11.5358 19.1033 6.68837 15.7637 3.92748C12.4241 1.16659 7.53406 1.39633 4.46785 4.45818C1.40164 7.52002 1.16333 12.4113 3.91735 15.757C6.67138 19.1026 11.5159 19.8069 15.1081 17.384L19.2713 21.5401C19.9008 22.1533 20.904 22.1533 21.5336 21.5401C22.1555 20.9156 22.1555 19.9056 21.5336 19.2811ZM10.4107 3.62384C14.1661 3.62384 17.2104 6.66922 17.2104 10.4259C17.2104 14.1826 14.1661 17.228 10.4107 17.228C6.65529 17.228 3.61095 14.1826 3.61095 10.4259C3.61536 6.67105 6.65712 3.62825 10.4107 3.62384Z" fill="#5A5A5A"/>
</g>
</svg>
