<svg width="24" height="24" viewBox="0 0 24 24" fill="none" xmlns="http://www.w3.org/2000/svg">
<g id="setting_slider_horizontal">
<path id="Shape" fill-rule="evenodd" clip-rule="evenodd" d="M9.50182 6.35852C8.3514 6.35852 7.41879 7.32998 7.41879 8.52834V15.4718C7.41879 16.6701 8.3514 17.6416 9.50182 17.6416C10.6522 17.6416 11.5849 16.6701 11.5849 15.4718V8.52834C11.5849 7.95287 11.3654 7.40097 10.9747 6.99405C10.5841 6.58713 10.0543 6.35852 9.50182 6.35852ZM20.7502 10.6912H14.0845C13.3942 10.6912 12.8347 11.2741 12.8347 11.9931C12.8347 12.7121 13.3942 13.295 14.0845 13.295H20.7502C21.4404 13.295 22 12.7121 22 11.9931C22 11.2741 21.4404 10.6912 20.7502 10.6912ZM4.91333 10.6912H4.91916C5.60942 10.6895 6.17028 11.2711 6.17189 11.9901C6.1735 12.7091 5.61525 13.2933 4.92499 13.295L3.25857 13.3028H3.25274C2.56248 13.3045 2.00161 12.723 2 12.004C1.99839 11.2849 2.55665 10.7007 3.2469 10.699L4.91333 10.6912Z" fill="#5A5A5A"/>
</g>
</svg>
