<?xml version="1.0" encoding="UTF-8"?>
<svg width="24px" height="24px" viewBox="0 0 24 24" version="1.1" xmlns="http://www.w3.org/2000/svg" xmlns:xlink="http://www.w3.org/1999/xlink">
    <title>1. Interface Essentials/settings_toggle_horizontal</title>
    <g id="1.-Interface-Essentials/settings_toggle_horizontal" stroke="none" stroke-width="1" fill="none" fill-rule="evenodd">
        <path d="M20.75,2 C21.4403559,2 22,2.55964406 22,3.25 L22,3.25 L22,20.75 C22,21.4403559 21.4403559,22 20.75,22 L20.75,22 L3.25,22 C2.55964406,22 2,21.4403559 2,20.75 L2,20.75 L2,3.25 C2,2.55964406 2.55964406,2 3.25,2 L3.25,2 Z M15.75,13.2499762 L8.25,13.2499762 C6.63916948,13.2499762 5.33333333,14.5558361 5.33333333,16.1666667 C5.33333333,17.7774972 6.63916948,19.0833572 8.25,19.0833572 L8.25,19.0833572 L15.75,19.0833572 C17.3674153,19.0897901 18.683944,17.7840801 18.6908333,16.1666667 C18.683944,14.5492532 17.3674153,13.2435432 15.75,13.2499762 L15.75,13.2499762 Z M15.75,14.525 C16.6704746,14.525 17.4166667,15.2711921 17.4166667,16.1916667 C17.4166667,17.1121412 16.6704746,17.8583333 15.75,17.8583333 C14.8295254,17.8583333 14.0833333,17.1121412 14.0833333,16.1916667 C14.0833333,15.2711921 14.8295254,14.525 15.75,14.525 Z M15.75,4.91666667 L8.25,4.91666667 C6.63916948,4.91666667 5.33333333,6.22250281 5.33333333,7.83333333 C5.33333333,9.44416385 6.63916948,10.75 8.25,10.75 L8.25,10.75 L15.75,10.75 C17.3608305,10.75 18.6666667,9.44416385 18.6666667,7.83333333 C18.6666667,6.22250281 17.3608305,4.91666667 15.75,4.91666667 L15.75,4.91666667 Z M8.25,6.14333333 C9.17047458,6.14333333 9.91666667,6.88952542 9.91666667,7.81 C9.91666667,8.73047458 9.17047458,9.47666667 8.25,9.47666667 C7.32952542,9.47666667 6.58333333,8.73047458 6.58333333,7.81 C6.58333333,6.88952542 7.32952542,6.14333333 8.25,6.14333333 Z" id="ðŸ–-Color" fill="#5A5A5A"></path>
        <rect id="_Transparent_Rectangle_" x="0" y="0" width="24" height="24"></rect>
    </g>
</svg>