<?xml version="1.0" encoding="UTF-8"?>
<svg width="24px" height="24px" viewBox="0 0 24 24" version="1.1" xmlns="http://www.w3.org/2000/svg" xmlns:xlink="http://www.w3.org/1999/xlink">
    <title>1. Interface Essentials/settings</title>
    <g id="1.-Interface-Essentials/settings" stroke="none" stroke-width="1" fill="none" fill-rule="evenodd">
        <path d="M20.6844406,10.1348516 L19.6294073,9.76065514 C19.3238913,9.65204278 19.0787457,9.41898622 18.9548257,9.11933973 C18.8309058,8.81969324 18.8398314,8.48155446 18.9793868,8.1888634 L18.9793868,8.1888634 L19.459402,7.17794962 C19.8181788,6.42150974 19.6624744,5.52116306 19.0705001,4.92916031 C18.4785257,4.33715755 17.5782223,4.18144561 16.8218188,4.54023973 L15.8109535,5.02111133 C15.5181087,5.16004065 15.1801275,5.16844242 14.880742,5.04423515 C14.5813565,4.92002789 14.3485763,4.67483203 14.2400707,4.3693928 L13.8650588,3.31514225 C13.5838991,2.5265442 12.8371845,2 12,2 C11.1628155,2 10.4161009,2.5265442 10.1349412,3.31514225 L9.75992934,4.3702262 C9.65124984,4.67551558 9.41839748,4.92051419 9.11903241,5.04455416 C8.81966734,5.16859413 8.48178239,5.16007682 8.18904646,5.02111133 L7.17818124,4.54023973 C6.42177768,4.18144561 5.52147426,4.33715755 4.92949993,4.92916031 C4.33752561,5.52116306 4.18182115,6.42150974 4.54059804,7.17794962 L5.02061318,8.1888634 C5.15989571,8.48158936 5.16868198,8.81961565 5.04479484,9.1191828 C4.9209077,9.41874995 4.67594016,9.65182529 4.37059268,9.76065514 L3.3155594,10.135685 C2.5267961,10.4164378 2,11.1631417 2,12.0004167 C2,12.8376917 2.5267961,13.5843956 3.3155594,13.8651484 L4.37059268,14.2401783 C4.67588584,14.3488196 4.92085325,14.5817365 5.04475277,14.8811747 C5.1686523,15.1806129 5.15988077,15.5185302 5.02061318,15.8111366 L4.54059804,16.8220504 C4.18182115,17.5784903 4.33752561,18.4788369 4.92949993,19.0708397 C5.52147426,19.6628424 6.42177768,19.8185544 7.17818124,19.4597603 L8.18904646,18.9797221 C8.48171288,18.8402105 8.81982308,18.8314145 9.11934685,18.9555203 C9.41887063,19.079626 9.65168518,19.3249809 9.75992934,19.6306072 L10.1349412,20.6848578 C10.4161009,21.4734558 11.1628155,22 12,22 C12.8371845,22 13.5838991,21.4734558 13.8650588,20.6848578 L14.2400707,19.6297738 C14.3487068,19.324466 14.5816125,19.0794868 14.8810363,18.9555813 C15.1804601,18.8316758 15.5183612,18.8404478 15.8109535,18.9797221 L16.8218188,19.4597603 C17.5782223,19.8185544 18.4785257,19.6628424 19.0705001,19.0708397 C19.6624744,18.4788369 19.8181788,17.5784903 19.459402,16.8220504 L18.9793868,15.8111366 C18.8401192,15.5185302 18.8313477,15.1806129 18.9552472,14.8811747 C19.0791467,14.5817365 19.3241142,14.3488196 19.6294073,14.2401783 L20.6844406,13.864315 C21.4732039,13.5835622 22,12.8368583 22,11.9995833 C22,11.1623083 21.4732039,10.4156044 20.6844406,10.1348516 Z M12,15.9869839 C10.3926042,15.9636643 8.94647186,15.0049573 8.29904993,13.5334554 C7.45502999,11.4896093 8.42421128,9.14817852 10.4657849,8.29887215 C12.509447,7.48153525 14.832025,8.44300522 15.7001167,10.4657112 C16.5441366,12.5095573 15.5749554,14.8509881 13.5333817,15.7002944 C13.0473798,15.9002008 12.5253949,15.997794 12,15.9869839 Z" id="ðŸ–-Color" fill="#5A5A5A"></path>
        <rect id="_Transparent_Rectangle_" x="0" y="0" width="24" height="24"></rect>
    </g>
</svg>