<svg width="24" height="24" viewBox="0 0 24 24" fill="none" xmlns="http://www.w3.org/2000/svg">
<g id="settings_toggle_horizontal">
<path id="Shape" fill-rule="evenodd" clip-rule="evenodd" d="M20.75 2H3.25C2.55964 2 2 2.55964 2 3.25V20.75C2 21.4404 2.55964 22 3.25 22H20.75C21.4404 22 22 21.4404 22 20.75V3.25C22 2.55964 21.4404 2 20.75 2ZM15.75 10.75H8.25C6.63917 10.75 5.33333 9.44416 5.33333 7.83333C5.33333 6.2225 6.63917 4.91667 8.25 4.91667H15.75C17.3608 4.91667 18.6667 6.2225 18.6667 7.83333C18.6667 9.44416 17.3608 10.75 15.75 10.75ZM15.75 19.0833C17.3674 19.0898 18.6839 17.7841 18.6908 16.1667C18.6839 14.5493 17.3674 13.2435 15.75 13.25H8.25C6.63917 13.25 5.33333 14.5558 5.33333 16.1667C5.33333 17.7775 6.63917 19.0833 8.25 19.0833H15.75ZM9.91667 7.81C9.91667 8.73047 9.17047 9.47667 8.25 9.47667C7.32953 9.47667 6.58333 8.73047 6.58333 7.81C6.58333 6.88953 7.32953 6.14333 8.25 6.14333C9.17047 6.14333 9.91667 6.88953 9.91667 7.81ZM15.75 17.8583C16.6705 17.8583 17.4167 17.1121 17.4167 16.1917C17.4167 15.2712 16.6705 14.525 15.75 14.525C14.8295 14.525 14.0833 15.2712 14.0833 16.1917C14.0833 17.1121 14.8295 17.8583 15.75 17.8583Z" fill="#5A5A5A"/>
</g>
</svg>
