<?xml version="1.0" encoding="UTF-8"?>
<svg width="24px" height="24px" viewBox="0 0 24 24" version="1.1" xmlns="http://www.w3.org/2000/svg" xmlns:xlink="http://www.w3.org/1999/xlink">
    <title>1. Interface Essentials/setting_slider_horizontal</title>
    <g id="1.-Interface-Essentials/setting_slider_horizontal" stroke="none" stroke-width="1" fill="none" fill-rule="evenodd">
        <path d="M9.50182697,6.35846356 C10.0542806,6.35846356 10.5841071,6.58706912 10.9747508,6.99398963 C11.3653945,7.40091013 11.5848558,7.95281277 11.5848558,8.52828527 L11.5848558,8.52828527 L11.5848558,15.4717147 C11.5848558,16.6700742 10.652252,17.6415364 9.50182697,17.6415364 C8.35140191,17.6415364 7.41879813,16.6700742 7.41879813,15.4717147 L7.41879813,15.4717147 L7.41879813,8.52828527 C7.41879813,7.32992583 8.35140191,6.35846356 9.50182697,6.35846356 Z M4.91916353,10.6911599 C5.60941855,10.6894859 6.17028645,11.2710032 6.17190052,11.9900188 C6.17350764,12.7090345 5.61525103,13.2932719 4.92499601,13.2949496 L4.92499601,13.2949496 L3.25857294,13.3027646 C2.56248543,13.3044386 2.00161753,12.7229213 2.00000346,12.0039057 C1.99839634,11.28489 2.55665295,10.7006526 3.24690797,10.6989749 L3.24690797,10.6989749 L4.91333104,10.6911599 Z M20.7501827,10.6911635 C21.4404377,10.6911635 22,11.2740409 22,11.9930566 C22,12.7120722 21.4404377,13.2949496 20.7501827,13.2949496 L20.7501827,13.2949496 L14.0844904,13.2949496 C13.3942354,13.2949496 12.8346731,12.7120722 12.8346731,11.9930566 C12.8346731,11.2740409 13.3942354,10.6911635 14.0844904,10.6911635 L14.0844904,10.6911635 Z" id="ðŸ–-Color" fill="#5A5A5A"></path>
        <rect id="_Transparent_Rectangle_" x="0" y="0" width="24" height="24"></rect>
    </g>
</svg>