<svg width="24" height="24" viewBox="0 0 24 24" fill="none" xmlns="http://www.w3.org/2000/svg">
<g id="settings">
<path id="Shape" fill-rule="evenodd" clip-rule="evenodd" d="M20.6844 10.1349L19.6294 9.76065C19.3239 9.65204 19.0787 9.41899 18.9548 9.11934C18.8309 8.81969 18.8398 8.48155 18.9794 8.18886L19.4594 7.17795C19.8182 6.42151 19.6625 5.52116 19.0705 4.92916C18.4785 4.33716 17.5782 4.18145 16.8218 4.54024L15.811 5.02111C15.5181 5.16004 15.1801 5.16844 14.8807 5.04424C14.5814 4.92003 14.3486 4.67483 14.2401 4.36939L13.8651 3.31514C13.5839 2.52654 12.8372 2 12 2C11.1628 2 10.4161 2.52654 10.1349 3.31514L9.75993 4.37023C9.65125 4.67552 9.4184 4.92051 9.11903 5.04455C8.81967 5.16859 8.48178 5.16008 8.18905 5.02111L7.17818 4.54024C6.42178 4.18145 5.52147 4.33716 4.9295 4.92916C4.33753 5.52116 4.18182 6.42151 4.5406 7.17795L5.02061 8.18886C5.1599 8.48159 5.16868 8.81962 5.04479 9.11918C4.92091 9.41875 4.67594 9.65182 4.37059 9.76065L3.31556 10.1357C2.5268 10.4164 2 11.1631 2 12.0004C2 12.8377 2.5268 13.5844 3.31556 13.8651L4.37059 14.2402C4.67589 14.3488 4.92085 14.5817 5.04475 14.8812C5.16865 15.1806 5.15988 15.5185 5.02061 15.8111L4.5406 16.8221C4.18182 17.5785 4.33753 18.4788 4.9295 19.0708C5.52147 19.6628 6.42178 19.8186 7.17818 19.4598L8.18905 18.9797C8.48171 18.8402 8.81982 18.8314 9.11935 18.9555C9.41887 19.0796 9.65169 19.325 9.75993 19.6306L10.1349 20.6849C10.4161 21.4735 11.1628 22 12 22C12.8372 22 13.5839 21.4735 13.8651 20.6849L14.2401 19.6298C14.3487 19.3245 14.5816 19.0795 14.881 18.9556C15.1805 18.8317 15.5184 18.8404 15.811 18.9797L16.8218 19.4598C17.5782 19.8186 18.4785 19.6628 19.0705 19.0708C19.6625 18.4788 19.8182 17.5785 19.4594 16.8221L18.9794 15.8111C18.8401 15.5185 18.8313 15.1806 18.9552 14.8812C19.0791 14.5817 19.3241 14.3488 19.6294 14.2402L20.6844 13.8643C21.4732 13.5836 22 12.8369 22 11.9996C22 11.1623 21.4732 10.4156 20.6844 10.1349ZM12 15.987C10.3926 15.9637 8.94647 15.005 8.29905 13.5335C7.45503 11.4896 8.42421 9.14818 10.4658 8.29887C12.5094 7.48154 14.832 8.44301 15.7001 10.4657C16.5441 12.5096 15.575 14.851 13.5334 15.7003C13.0474 15.9002 12.5254 15.9978 12 15.987Z" fill="#5A5A5A"/>
</g>
</svg>
