<?xml version="1.0" encoding="UTF-8"?>
<svg width="24px" height="24px" viewBox="0 0 24 24" version="1.1" xmlns="http://www.w3.org/2000/svg" xmlns:xlink="http://www.w3.org/1999/xlink">
    <title>1. Interface Essentials/setting_slider_vertical</title>
    <g id="1.-Interface-Essentials/setting_slider_vertical" stroke="none" stroke-width="1" fill="none" fill-rule="evenodd">
        <path d="M11.9925,17.8333333 C12.680908,17.8333333 13.2397464,18.3899308 13.2425,19.0783333 L13.2425,19.0783333 L13.2500103,20.745 C13.2527676,21.4350342 12.6958656,21.9967854 12.0058333,22 L12.0058333,22 C11.3119157,22 10.7532111,21.4439101 10.75,20.7558333 L10.75,20.7558333 L10.7424863,19.0891667 C10.7409493,18.757645 10.8711604,18.4390859 11.1044877,18.2035707 C11.337815,17.9680555 11.6551449,17.8348768 11.9866667,17.8333333 L11.9866667,17.8333333 Z M15.3333333,12.4166667 C16.4839266,12.4166667 17.4166667,13.3494068 17.4166667,14.5 C17.4166667,15.6505932 16.4839266,16.5833333 15.3333333,16.5833333 L15.3333333,16.5833333 L8.66666667,16.5833333 C7.51607344,16.5833333 6.58333333,15.6505932 6.58333333,14.5 C6.58333333,13.3494068 7.51607344,12.4166667 8.66666667,12.4166667 L8.66666667,12.4166667 Z M11.9925,2 C12.6828559,2 13.2425,2.55964406 13.2425,3.25 L13.2425,3.25 L13.2425,9.91666667 C13.2425,10.6070226 12.6828559,11.1666667 11.9925,11.1666667 C11.3021441,11.1666667 10.7425,10.6070226 10.7425,9.91666667 L10.7425,9.91666667 L10.7425,3.25 C10.7425,2.55964406 11.3021441,2 11.9925,2 Z" id="ðŸ–-Color" fill="#5A5A5A"></path>
        <rect id="_Transparent_Rectangle_" x="0" y="0" width="24" height="24"></rect>
    </g>
</svg>