<svg width="24" height="24" viewBox="0 0 24 24" fill="none" xmlns="http://www.w3.org/2000/svg">
<g id="setting_slider_vertical">
<path id="Shape" fill-rule="evenodd" clip-rule="evenodd" d="M11.9925 11.1667C12.6829 11.1667 13.2425 10.607 13.2425 9.91667V3.25C13.2425 2.55964 12.6829 2 11.9925 2C11.3022 2 10.7425 2.55964 10.7425 3.25V9.91667C10.7425 10.607 11.3022 11.1667 11.9925 11.1667ZM15.3334 12.4167H8.66671C7.51611 12.4167 6.58337 13.3494 6.58337 14.5C6.58337 15.6506 7.51611 16.5833 8.66671 16.5833H15.3334C16.484 16.5833 17.4167 15.6506 17.4167 14.5C17.4167 13.3494 16.484 12.4167 15.3334 12.4167ZM11.9867 17.8333H11.9925C12.6809 17.8333 13.2398 18.3899 13.2425 19.0783L13.25 20.745C13.2528 21.435 12.6959 21.9968 12.0059 22H12C11.312 22 10.7533 21.4439 10.75 20.7558L10.7425 19.0892C10.741 18.7576 10.8712 18.4391 11.1045 18.2036C11.3379 17.9681 11.6552 17.8349 11.9867 17.8333Z" fill="#5A5A5A"/>
</g>
</svg>
