<svg width="24" height="24" viewBox="0 0 24 24" fill="none" xmlns="http://www.w3.org/2000/svg">
<g id="share_3">
<path id="Shape" fill-rule="evenodd" clip-rule="evenodd" d="M17.8357 13.6666C16.7082 13.6675 15.6298 14.1276 14.849 14.9409L10.274 12.653C10.3133 12.4377 10.3353 12.2197 10.3398 12.0009C10.3353 11.7821 10.3133 11.564 10.274 11.3488L14.849 9.06086C16.2363 10.4866 18.4393 10.7295 20.104 9.64042C21.7686 8.55132 22.4284 6.43547 21.6777 4.59325C20.927 2.75104 18.9763 1.6989 17.0245 2.08347C15.0728 2.46804 13.6671 4.18152 13.6713 6.17081C13.6759 6.38987 13.6979 6.60821 13.7371 6.82378L9.16216 9.11C7.98348 7.88754 6.18059 7.50323 4.60585 8.13875C3.03111 8.77428 2 10.3023 2 12.0005C2 13.6986 3.03111 15.2267 4.60585 15.8622C6.18059 16.4977 7.98348 16.1134 9.16216 14.8909L13.7371 17.178C13.6978 17.3936 13.6758 17.6119 13.6713 17.831C13.6713 20.1309 15.5358 21.9953 17.8357 21.9953C20.1356 21.9953 22 20.1309 22 17.831C22 15.5311 20.1356 13.6666 17.8357 13.6666Z" fill="#5A5A5A"/>
</g>
</svg>
