<svg width="24" height="24" viewBox="0 0 24 24" fill="none" xmlns="http://www.w3.org/2000/svg">
<g id="share">
<path id="Shape" fill-rule="evenodd" clip-rule="evenodd" d="M21.0056 2.08788C21.1347 2.18844 21.1932 2.35535 21.1551 2.51467L17.0251 19.8521C16.9352 20.2336 16.6668 20.5482 16.3045 20.6965C15.9422 20.8448 15.5306 20.8086 15.1997 20.5993L9.83856 17.2048C9.78858 17.1729 9.75438 17.1213 9.74437 17.0628C9.73376 17.0036 9.74927 16.9427 9.78688 16.8959L17.8852 6.72233C17.9545 6.63768 17.9466 6.51386 17.8673 6.43861C17.788 6.36335 17.6642 6.36221 17.5835 6.43598L7.45056 15.5092C7.38144 15.5718 7.27902 15.5803 7.20051 15.53L3.39971 13.124C3.03251 12.891 2.81703 12.4797 2.83421 12.0447C2.85139 11.6096 3.09863 11.2167 3.48306 11.0135L20.5558 2.04799C20.7006 1.97173 20.8765 1.98733 21.0056 2.08788ZM8.35709 17.9895C8.4237 17.9528 8.50496 17.9554 8.56913 17.9962L11.3172 19.7477C11.3704 19.7818 11.4054 19.8382 11.4123 19.9011C11.4193 19.964 11.3975 20.0267 11.353 20.0716L9.67186 21.7555C9.43337 21.9943 9.07473 22.0657 8.76324 21.9363C8.45175 21.8069 8.24879 21.5022 8.24906 21.1645V18.1723C8.24908 18.0962 8.29048 18.0261 8.35709 17.9895Z" fill="#5A5A5A"/>
</g>
</svg>
