<svg width="24" height="24" viewBox="0 0 24 24" fill="none" xmlns="http://www.w3.org/2000/svg">
<g id="share_2">
<path id="Shape" fill-rule="evenodd" clip-rule="evenodd" d="M17.6841 2.23535C17.8452 2.17362 18.0278 2.21763 18.1431 2.34604L21.893 6.51347C22.0357 6.67194 22.0357 6.9125 21.893 7.07096L18.1431 11.2376C18.0277 11.3661 17.8449 11.4101 17.6837 11.3481C17.5224 11.2862 17.4161 11.1311 17.4164 10.9584V9.50009C17.4167 9.4447 17.3948 9.39149 17.3557 9.35224C17.3166 9.31299 17.2635 9.29093 17.2081 9.29093H12.6332C11.1332 9.29721 9.80787 10.2689 9.35072 11.6976C9.30374 11.8534 9.17033 11.9676 9.00911 11.99C8.84789 12.0124 8.6884 11.9389 8.60073 11.8017C8.09588 11.0218 7.82919 10.1117 7.83324 9.1826C7.83922 6.48041 10.031 4.29275 12.7332 4.29184H17.2081C17.3232 4.29184 17.4164 4.19857 17.4164 4.08351V2.62437C17.4165 2.45178 17.5229 2.29708 17.6841 2.23535ZM10.5415 12.0684C10.8339 11.1596 11.6785 10.5428 12.6332 10.5409L15.9581 10.5417C16.0732 10.5417 16.1664 10.635 16.1664 10.7501V20.1258C16.1664 21.0462 15.4203 21.7924 14.4998 21.7924H3.66664C2.74618 21.7924 2 21.0462 2 20.1258V9.2926C2 8.37214 2.74618 7.62596 3.66664 7.62596H6.5266C6.58981 7.62624 6.6495 7.65509 6.68899 7.70445C6.72848 7.75382 6.74353 7.81839 6.72993 7.88012C6.37438 9.46337 6.67112 11.1231 7.55325 12.485C7.906 13.0263 8.53982 13.315 9.17972 13.2258C9.81962 13.1366 10.3503 12.6855 10.5415 12.0684Z" fill="#5A5A5A"/>
</g>
</svg>
