<?xml version="1.0" encoding="UTF-8"?>
<svg width="24px" height="24px" viewBox="0 0 24 24" version="1.1" xmlns="http://www.w3.org/2000/svg" xmlns:xlink="http://www.w3.org/1999/xlink">
    <title>1. Interface Essentials/share_3</title>
    <g id="1.-Interface-Essentials/share_3" stroke="none" stroke-width="1" fill="none" fill-rule="evenodd">
        <path d="M17.8356572,13.6666496 C16.7082151,13.6674792 15.6297713,14.1276072 14.8489906,14.9409385 L10.2740436,12.6530486 C10.3132553,12.4377616 10.3352571,12.2196933 10.3398402,12.0009125 C10.3353031,11.7821289 10.3133009,11.564057 10.2740436,11.3487764 L14.8489906,9.06088648 C16.2363136,10.4865901 18.4392728,10.7295511 20.10395,9.64044807 C21.7686273,8.55134501 22.4283511,6.43549441 21.6776612,4.59327816 C20.9269714,2.75106191 18.9763146,1.69892256 17.0245461,2.08349507 C15.0727777,2.46806758 13.6670518,4.1815418 13.6713144,6.17083258 C13.6758533,6.38989193 13.6978552,6.60824043 13.737111,6.82380153 L9.16216403,9.11002572 C7.98348132,7.88756721 6.18059029,7.50325416 4.60585063,8.13877972 C3.03111097,8.77430527 2,10.3023507 2,12.0004961 C2,13.6986414 3.03111097,15.2266868 4.60585063,15.8622124 C6.18059029,16.497738 7.98348132,16.1134249 9.16216403,14.8909664 L13.737111,17.1780235 C13.6978095,17.3935781 13.6758072,17.6119303 13.6713144,17.8309924 C13.6713144,20.1308954 15.5357542,21.9953352 17.8356572,21.9953352 C20.1355602,21.9953352 22,20.1308954 22,17.8309924 C22,15.5310894 20.1355602,13.6666496 17.8356572,13.6666496 Z" id="ðŸ–-Color" fill="#5A5A5A"></path>
        <rect id="_Transparent_Rectangle_" x="0" y="0" width="24" height="24"></rect>
    </g>
</svg>