<?xml version="1.0" encoding="UTF-8"?>
<svg width="24px" height="24px" viewBox="0 0 24 24" version="1.1" xmlns="http://www.w3.org/2000/svg" xmlns:xlink="http://www.w3.org/1999/xlink">
    <title>1. Interface Essentials/share_2</title>
    <g id="1.-Interface-Essentials/share_2" stroke="none" stroke-width="1" fill="none" fill-rule="evenodd">
        <path d="M6.52659711,7.62587186 C6.58980921,7.6261544 6.64950277,7.655009 6.68899145,7.70436985 C6.72848013,7.75373071 6.7435275,7.81830226 6.72992732,7.88003462 C6.37438107,9.46328151 6.67112434,11.1230014 7.553248,12.4849639 C7.90599755,13.0262641 8.53981643,13.3149199 9.17972071,13.2256973 C9.81962499,13.1364748 10.3503095,12.6854509 10.5415354,12.0683036 C10.8338511,11.1595207 11.6785331,10.5426672 12.6331699,10.5408271 L12.6331699,10.5408271 L15.9581188,10.5416604 C16.0731764,10.5416604 16.166449,10.634933 16.166449,10.7499905 L16.166449,10.7499905 L16.166449,20.1256798 C16.166449,21.0461402 15.4202684,21.7923208 14.4998079,21.7923208 L14.4998079,21.7923208 L3.66664106,21.7923208 C2.74618062,21.7923208 2,21.0461402 2,20.1256798 L2,20.1256798 L2,9.29251292 C2,8.37205248 2.74618062,7.62587186 3.66664106,7.62587186 L3.66664106,7.62587186 Z M17.6840561,2.23526223 C17.8452237,2.17353058 18.0277671,2.21754928 18.1430853,2.345953 L18.1430853,2.345953 L21.8930276,6.51338896 C22.0356575,6.6718514 22.0356575,6.91241795 21.8930276,7.07088039 L21.8930276,7.07088039 L18.1430853,11.237483 C18.0276654,11.3660006 17.8449148,11.4099728 17.6836665,11.3480254 C17.5224182,11.2860779 17.416115,11.1310586 17.4164298,10.9583207 L17.4164298,10.9583207 L17.4164298,9.50000973 C17.4166514,9.4446129 17.3948002,9.39140898 17.3557067,9.35215909 C17.3166132,9.31290919 17.2634969,9.29084583 17.2080996,9.29084628 L17.2080996,9.29084628 L12.6331699,9.29084628 C11.1331539,9.29712728 9.80786587,10.2688033 9.35072038,11.697476 C9.3037448,11.8533135 9.17032613,11.9675304 9.0091099,11.9899216 C8.84789367,12.0123127 8.68839842,11.9387783 8.6007319,11.801641 C8.0958846,11.0217012 7.8291895,10.1115789 7.83319815,9.18251461 C7.83921576,6.48032247 10.0309698,4.29266863 12.7331684,4.29175643 L12.7331684,4.29175643 L17.2080996,4.29175643 C17.3231572,4.29175643 17.4164298,4.19848385 17.4164298,4.0834263 L17.4164298,4.0834263 L17.4164298,2.62428205 C17.4164608,2.45169641 17.5228884,2.29699387 17.6840561,2.23526223 Z" id="ðŸ–-Color" fill="#5A5A5A"></path>
        <rect id="_Transparent_Rectangle_" x="0" y="0" width="24" height="24"></rect>
    </g>
</svg>