<svg width="24" height="24" viewBox="0 0 24 24" fill="none" xmlns="http://www.w3.org/2000/svg">
<g id="share_1">
<path id="Shape" fill-rule="evenodd" clip-rule="evenodd" d="M12 12.0007C11.5206 12.0007 11.132 11.6277 11.132 11.1675V6.7928C11.132 6.67775 11.0348 6.58448 10.915 6.58448H8.96203C8.61025 6.58509 8.29288 6.3818 8.1584 6.06975C8.02393 5.75769 8.09895 5.39857 8.34836 5.16042L11.3863 2.24397C11.7253 1.91868 12.2747 1.91868 12.6137 2.24397L15.6516 5.16042C15.8998 5.39873 15.974 5.75707 15.8397 6.0684C15.7054 6.37972 15.389 6.58274 15.038 6.58281H13.085C12.9651 6.58281 12.868 6.67608 12.868 6.79113V11.1675C12.868 11.6277 12.4794 12.0007 12 12.0007ZM14.821 7.83439H17.6419C18.6007 7.83439 19.3779 8.58052 19.3779 9.50093V20.3335C19.3779 21.2539 18.6007 22 17.6419 22H6.35805C5.3993 22 4.62207 21.2539 4.62207 20.3335V9.50093C4.62207 8.58052 5.3993 7.83439 6.35805 7.83439H9.17902C9.29819 7.83438 9.39507 7.92664 9.39602 8.04104V11.1675C9.39602 12.5481 10.5619 13.6673 12 13.6673C13.4381 13.6673 14.604 12.5481 14.604 11.1675V8.04271C14.604 7.92765 14.7011 7.83439 14.821 7.83439Z" fill="#5A5A5A"/>
</g>
</svg>
