<?xml version="1.0" encoding="UTF-8"?>
<svg width="24px" height="24px" viewBox="0 0 24 24" version="1.1" xmlns="http://www.w3.org/2000/svg" xmlns:xlink="http://www.w3.org/1999/xlink">
    <title>1. Interface Essentials/share_1</title>
    <g id="1.-Interface-Essentials/share_1" stroke="none" stroke-width="1" fill="none" fill-rule="evenodd">
        <path d="M9.17902943,7.83438776 C9.29819928,7.83438776 9.3950738,7.92663964 9.39602716,8.04103904 L9.39602716,8.04103904 L9.39602716,11.167473 C9.39602716,12.5480821 10.5618655,13.6672869 12,13.6672869 C13.4381345,13.6672869 14.6039728,12.5480821 14.6039728,11.167473 L14.6039728,11.167473 L14.6039728,8.04270559 C14.6039728,7.92765483 14.701126,7.83438776 14.8209706,7.83438776 L14.8209706,7.83438776 L17.6419411,7.83438776 C18.6006975,7.83438776 19.377923,8.5805243 19.377923,9.50093038 L19.377923,9.50093038 L19.377923,20.3334574 C19.377923,21.2538635 18.6006975,22 17.6419411,22 L17.6419411,22 L6.35805885,22 C5.39930252,22 4.62207696,21.2538635 4.62207696,20.3334574 L4.62207696,20.3334574 L4.62207696,9.50093038 C4.62207696,8.5805243 5.39930252,7.83438776 6.35805885,7.83438776 L6.35805885,7.83438776 Z M11.3863304,2.24397055 C11.7252807,1.91867648 12.2747193,1.91867648 12.6136696,2.24397055 L12.6136696,2.24397055 L15.6516379,5.16042013 C15.8998034,5.39873094 15.9740288,5.7570729 15.8397124,6.06839801 C15.7053961,6.37972312 15.3889803,6.5827423 15.0379683,6.58281425 L15.0379683,6.58281425 L13.0849887,6.58281425 C12.9651441,6.58281425 12.8679909,6.67608132 12.8679909,6.79113208 L12.8679909,6.79113208 L12.8679909,11.167473 C12.8679909,11.627676 12.4793782,12.0007443 12,12.0007443 C11.5206218,12.0007443 11.1320091,11.627676 11.1320091,11.167473 L11.1320091,11.167473 L11.1320091,6.79279862 C11.1320091,6.67774786 11.0348559,6.5844808 10.9150113,6.5844808 L10.9150113,6.5844808 L8.96203169,6.5844808 C8.61025539,6.58508635 8.29288295,6.38180423 8.15840843,6.06974728 C8.02393392,5.75769033 8.09895173,5.39857257 8.34836209,5.16042013 L8.34836209,5.16042013 Z" id="ðŸ–-Color" fill="#5A5A5A"></path>
        <rect id="_Transparent_Rectangle_" x="0" y="0" width="24" height="24"></rect>
    </g>
</svg>