<?xml version="1.0" encoding="UTF-8"?>
<svg width="24px" height="24px" viewBox="0 0 24 24" version="1.1" xmlns="http://www.w3.org/2000/svg" xmlns:xlink="http://www.w3.org/1999/xlink">
    <title>1. Interface Essentials/share</title>
    <g id="1.-Interface-Essentials/share" stroke="none" stroke-width="1" fill="none" fill-rule="evenodd">
        <path d="M8.35717016,17.9894776 C8.42378324,17.952816 8.50504169,17.9553908 8.56920806,17.9961962 L8.56920806,17.9961962 L11.3172849,19.7477189 C11.3704901,19.7818406 11.4054516,19.8382165 11.4124106,19.9011104 C11.4193696,19.9640043 11.3975806,20.0266798 11.3531258,20.071642 L11.3531258,20.071642 L9.67193954,21.7555416 C9.43345369,21.9943404 9.07480759,22.0656791 8.76331824,21.9362764 C8.45182888,21.8068737 8.24887557,21.5022286 8.24914062,21.1644653 L8.24914062,21.1644653 L8.24914062,18.1723503 C8.24914062,18.0962208 8.29055708,18.0261392 8.35717016,17.9894776 Z M20.5558909,2.04798973 C20.7006506,1.97172618 20.8765665,1.98732838 21.0056945,2.08788334 C21.1348224,2.1884383 21.1932868,2.35535357 21.1551833,2.51467284 L21.1551833,2.51467284 L17.0251497,19.8520756 C16.9352988,20.233642 16.6668796,20.5481912 16.3045638,20.6964998 C15.9422481,20.8448085 15.5307096,20.80859 15.1997666,20.5992695 L15.1997666,20.5992695 L9.8386412,17.2047551 C9.78866483,17.1728709 9.75445858,17.1213271 9.74445476,17.06283 C9.73384264,17.0036345 9.74934658,16.9427366 9.78696369,16.8958593 L9.78696369,16.8958593 L17.8853303,6.7223345 C17.9545338,6.63767753 17.9467198,6.51386156 17.8674242,6.43860665 C17.7881287,6.36335173 17.6642707,6.36220538 17.5836003,6.43597975 L17.5836003,6.43597975 L7.45063993,15.5091676 C7.38151897,15.571794 7.27910405,15.5803424 7.20058744,15.530039 L7.20058744,15.530039 L3.39978961,13.1239912 L3.28312023,13.0399344 C2.98757831,12.799306 2.8190168,12.4313844 2.83428902,12.0446795 C2.85147027,11.6096366 3.09871433,11.2166998 3.48314044,11.0134815 L3.48314044,11.0134815 Z" id="ðŸ–-Color" fill="#5A5A5A"></path>
        <rect id="_Transparent_Rectangle_" x="0" y="0" width="24" height="24"></rect>
    </g>
</svg>