<?xml version="1.0" encoding="UTF-8"?>
<svg width="24px" height="24px" viewBox="0 0 24 24" version="1.1" xmlns="http://www.w3.org/2000/svg" xmlns:xlink="http://www.w3.org/1999/xlink">
    <title>1. Interface Essentials/sigma</title>
    <g id="1.-Interface-Essentials/sigma" stroke="none" stroke-width="1" fill="none" fill-rule="evenodd">
        <path d="M19.2301211,22 L5.57938588,22 C4.80723938,22.0069172 4.10978162,21.5397843 3.82232651,20.8231054 C3.53474035,20.0909467 3.74644591,19.2569237 4.34841278,18.7505662 L12.1099045,12.1641724 C12.1579511,12.1233405 12.1856418,12.0634684 12.1856418,12.0004151 C12.1856418,11.9373618 12.1579511,11.8774897 12.1099045,11.8366579 L4.34841278,5.25112372 C3.74798117,4.74410685 3.53741606,3.91083605 3.82490537,3.17944414 C4.1111948,2.46263417 4.80753887,1.9945381 5.57938588,2 L19.2301211,2 C19.8235635,2 20.3046437,2.48112828 20.3046437,3.07457073 C20.3046437,3.66801318 19.8235635,4.14909334 19.2301211,4.14909334 L6.9539152,4.14909334 C6.86358501,4.14884146 6.78273914,4.20510364 6.7515916,4.28989419 C6.72044405,4.37468474 6.74564419,4.4699026 6.81465707,4.52818491 L13.9692584,10.5996675 C14.3827416,10.9470729 14.6214909,11.459501 14.6214909,11.9995555 C14.6214909,12.53961 14.3827416,13.0520381 13.9692584,13.3994436 L6.81465707,19.4717857 C6.74564419,19.530068 6.72044405,19.6252859 6.7515916,19.7100764 C6.78273914,19.794867 6.86358501,19.8511292 6.9539152,19.8508773 L19.2301211,19.8508773 C19.8235635,19.8508773 20.3046437,20.3319575 20.3046437,20.9253999 C20.3046437,21.5188424 19.8235635,22 19.2301211,22 Z" id="ðŸ–-Color" fill="#5A5A5A"></path>
        <rect id="_Transparent_Rectangle_" x="0" y="0" width="24" height="24"></rect>
    </g>
</svg>