<svg width="24" height="24" viewBox="0 0 24 24" fill="none" xmlns="http://www.w3.org/2000/svg">
<g id="sigma">
<path id="Shape" fill-rule="evenodd" clip-rule="evenodd" d="M19.2301 21.9999H5.57934C4.8072 22.0069 4.10974 21.5398 3.82228 20.8231C3.5347 20.0909 3.7464 19.2569 4.34837 18.7506L12.1099 12.1642C12.1579 12.1233 12.1856 12.0635 12.1856 12.0004C12.1856 11.9374 12.1579 11.8775 12.1099 11.8367L4.34837 5.25112C3.74794 4.74411 3.53737 3.91084 3.82486 3.17944C4.11115 2.46263 4.8075 1.99454 5.57934 2.00005H19.2301C19.8235 2.00005 20.3046 2.48113 20.3046 3.07457C20.3046 3.66801 19.8235 4.14909 19.2301 4.14909H6.95387C6.86354 4.14884 6.7827 4.2051 6.75155 4.28989C6.7204 4.37468 6.7456 4.4699 6.81461 4.52818L13.9692 10.5997C14.3827 10.9471 14.6214 11.4595 14.6214 11.9996C14.6214 12.5396 14.3827 13.052 13.9692 13.3994L6.81461 19.4718C6.7456 19.5301 6.7204 19.6253 6.75155 19.7101C6.7827 19.7949 6.86354 19.8511 6.95387 19.8509H19.2301C19.8235 19.8509 20.3046 20.332 20.3046 20.9254C20.3046 21.5188 19.8235 21.9999 19.2301 21.9999Z" fill="#5A5A5A"/>
</g>
</svg>
