<svg width="24" height="24" viewBox="0 0 24 24" fill="none" xmlns="http://www.w3.org/2000/svg">
<g id="stopwatch">
<path id="Shape" fill-rule="evenodd" clip-rule="evenodd" d="M19.5562 7.58957L18.2138 8.87914C20.7114 11.6274 20.9299 15.6584 18.7425 18.6407C16.5548 21.6234 12.5271 22.7847 8.98946 21.4528C5.45185 20.1208 3.32046 16.6405 3.82834 13.0252C4.33623 9.40999 7.35187 6.59605 11.1307 6.21134V3.66654H9.39468C8.9153 3.66654 8.52669 3.29347 8.52669 2.83327C8.52669 2.37307 8.9153 2 9.39468 2H14.6026C15.082 2 15.4706 2.37307 15.4706 2.83327C15.4706 3.29347 15.082 3.66654 14.6026 3.66654H12.8666V6.21134C14.344 6.35883 15.752 6.88877 16.9401 7.74456L18.3289 6.41133C18.5468 6.19471 18.8695 6.10784 19.173 6.1841C19.4765 6.26035 19.7135 6.48787 19.7929 6.77921C19.8724 7.07054 19.7819 7.38036 19.5562 7.58957ZM11.9986 20.7486C8.16363 20.7486 5.05473 17.764 5.05473 14.0824C5.05473 10.4008 8.16363 7.41625 11.9986 7.41625C15.8337 7.41625 18.9426 10.4008 18.9426 14.0824C18.9426 15.8504 18.211 17.5459 16.9087 18.7961C15.6065 20.0462 13.8403 20.7486 11.9986 20.7486ZM11.9986 8.66615C8.88269 8.66615 6.35671 11.0911 6.35671 14.0824C6.35671 17.0737 8.88269 19.4987 11.9986 19.4987C15.1146 19.4987 17.6406 17.0737 17.6406 14.0824C17.6406 12.6459 17.0462 11.2683 15.9881 10.2525C14.93 9.23679 13.495 8.66615 11.9986 8.66615ZM11.5386 14.3507L9.76617 12.6508C9.51186 12.4067 9.51186 12.0109 9.76617 11.7667C10.0205 11.5226 10.4328 11.5226 10.6871 11.7667L12.4587 13.4683C12.5808 13.5854 12.6494 13.7442 12.6494 13.9099C12.6494 14.0756 12.5808 14.2345 12.4587 14.3515V14.3507C12.2028 14.5904 11.7945 14.5904 11.5386 14.3507Z" fill="#5A5A5A"/>
</g>
</svg>
