<?xml version="1.0" encoding="UTF-8"?>
<svg width="24px" height="24px" viewBox="0 0 24 24" version="1.1" xmlns="http://www.w3.org/2000/svg" xmlns:xlink="http://www.w3.org/1999/xlink">
    <title>1. Interface Essentials/stopwatch</title>
    <g id="1.-Interface-Essentials/stopwatch" stroke="none" stroke-width="1" fill="none" fill-rule="evenodd">
        <path d="M14.6025632,2 C15.0819402,2 15.470552,2.37306732 15.470552,2.83326919 C15.470552,3.29347106 15.0819402,3.66653838 14.6025632,3.66653838 L14.6025632,3.66653838 L12.8665858,3.66653838 L12.8665858,6.21134249 C14.3439908,6.35883318 15.7519284,6.88876735 16.9400569,7.7445578 L16.9400569,7.7445578 L18.3288389,6.4113271 C18.5467687,6.19471329 18.8694899,6.10783996 19.1729643,6.18409696 C19.4764387,6.26035396 19.7134387,6.48787391 19.7928731,6.77920934 C19.8723074,7.07054478 19.7818144,7.38035711 19.556175,7.58956973 L19.556175,7.58956973 L18.2128619,8.879 L18.4002441,9.09170545 C20.6598891,11.760076 20.864511,15.5298078 18.9059991,18.4091901 L18.7424585,18.6406631 C16.5547515,21.6234258 12.5270317,22.7847451 8.98941738,21.4527741 C5.45180311,20.1208032 3.32041314,16.640476 3.82830016,13.025233 C4.33618719,9.40999003 7.35182617,6.59605319 11.1306083,6.21134249 L11.1306083,6.21134249 L11.1306083,3.66653838 L9.3946308,3.66653838 C8.91525386,3.66653838 8.52664206,3.29347106 8.52664206,2.83326919 C8.52664206,2.37306732 8.91525386,2 9.3946308,2 L9.3946308,2 Z M11.998597,7.41624974 C8.16358147,7.41624974 5.0546871,10.4007883 5.0546871,14.0824033 C5.0546871,17.7640182 8.16358147,20.7485568 11.998597,20.7485568 C13.8402364,20.7485568 15.6064471,20.0462319 16.9086828,18.7960856 C18.2109185,17.5459393 18.942507,15.8503771 18.942507,14.0824033 C18.942507,10.4007883 15.8336126,7.41624974 11.998597,7.41624974 Z M11.998597,8.66615353 C13.4949291,8.66615353 14.9299752,9.23679249 15.9880417,10.2525364 C17.0461083,11.2682802 17.6405238,12.6459245 17.6405238,14.0824033 C17.6405238,17.0737154 15.1145472,19.498653 11.998597,19.498653 C8.88264688,19.498653 6.35667021,17.0737154 6.35667021,14.0824033 C6.35667021,11.0910911 8.88264688,8.66615353 11.998597,8.66615353 Z M10.687066,11.7667482 C10.4327566,11.5226111 10.0204395,11.5226111 9.76612999,11.7667482 C9.51182052,12.0108853 9.51182052,12.4067097 9.76612998,12.6508468 L9.76612998,12.6508468 L11.538563,14.350716 C11.7944569,14.5903579 12.2027371,14.5903579 12.4586311,14.350716 L12.4586311,14.350716 C12.5807532,14.2344788 12.6493753,14.0755971 12.6493753,13.9099166 C12.6493753,13.744236 12.5807532,13.5853543 12.4586311,13.4682839 L12.4586311,13.4682839 Z" id="ðŸ–-Color" fill="#5A5A5A"></path>
        <rect id="_Transparent_Rectangle_" x="0" y="0" width="24" height="24"></rect>
    </g>
</svg>