<?xml version="1.0" encoding="UTF-8"?>
<svg width="24px" height="24px" viewBox="0 0 24 24" version="1.1" xmlns="http://www.w3.org/2000/svg" xmlns:xlink="http://www.w3.org/1999/xlink">
    <title>1. Interface Essentials/strikethrough</title>
    <g id="1.-Interface-Essentials/strikethrough" stroke="none" stroke-width="1" fill="none" fill-rule="evenodd">
        <path d="M22,12.8097869 C22.0004434,12.527347 21.8885612,12.2563204 21.6890055,12.0564454 C21.4894498,11.8565704 21.2186024,11.7442551 20.9361621,11.7442554 L13.331059,11.7442554 C13.245093,11.7439656 13.1612995,11.717223 13.0910591,11.6676597 C12.4765913,11.2310642 11.829783,10.8327665 11.2034003,10.4489368 C8.82042263,8.98936299 7.37361473,7.98085278 7.37361473,6.31021519 C7.37361473,4.40808834 9.2519118,4.12383314 10.3719113,4.12383314 C11.2957182,4.01799594 12.2267079,4.2488548 12.9940379,4.77404563 C13.3406649,5.26569009 13.4775312,5.87500558 13.3744632,6.46766193 L13.3744632,6.72298097 C13.3744632,7.31051769 13.8507559,7.78681031 14.4382926,7.78681031 C15.0258293,7.78681031 15.5021219,7.31051769 15.5021219,6.72298097 L15.5021219,6.49489596 C15.6390101,5.33159548 15.2790243,4.1645 14.510633,3.28042925 C13.6587184,2.41745089 12.3055275,1.9978766 10.3753156,1.9978766 C7.26212542,1.9978766 5.24936032,3.69064184 5.24936032,6.31191732 C5.24936032,8.67191631 6.8595724,10.1519157 8.65361419,11.3561705 C8.73165888,11.4082104 8.76641487,11.5052211 8.73917305,11.5949819 C8.71193122,11.6847427 8.62911993,11.7460725 8.53531636,11.7459576 L3.06382933,11.7459576 C2.47629262,11.7459576 2,12.2222502 2,12.8097869 C2,13.3973236 2.47629262,13.8736162 3.06382933,13.8736162 L12.405953,13.8736162 C12.4554138,13.8739078 12.5032407,13.8913541 12.5412721,13.9229779 C13.5331942,14.5833494 14.1454865,15.6817993 14.1855267,16.8727639 C14.1855267,19.6540393 11.2697833,19.8702094 10.3753156,19.8702094 C8.83148645,19.8702094 7.70382736,19.5255287 7.11233825,18.871912 C6.60866681,18.2199015 6.40739245,17.3838388 6.55914699,16.5740406 C6.61696061,15.9893241 6.18982139,15.4684505 5.60510485,15.4106368 C5.02038831,15.3528232 4.4995147,15.7799624 4.44170109,16.364679 C4.21544144,17.7725806 4.61343885,19.2092239 5.53191339,20.2999965 C6.55318955,21.4268045 8.18212503,22.0021234 10.3727624,22.0021234 C13.9251013,22.0021234 16.3106322,19.9425498 16.3106322,16.8770192 C16.3189478,15.9350132 16.0690538,15.0087275 15.5880793,14.1987225 C15.5492339,14.1328574 15.5487205,14.0512128 15.5867344,13.9848644 C15.6247484,13.9185159 15.6954425,13.8776693 15.771909,13.8778715 L20.9361621,13.8778715 C21.2190461,13.8778738 21.4902821,13.7652082 21.6899116,13.5647802 C21.889541,13.3643522 22.001123,13.0926685 22,12.8097869 Z" id="ðŸ–-Color" fill="#5A5A5A"></path>
        <rect id="_Transparent_Rectangle_" x="0" y="0" width="24" height="24"></rect>
    </g>
</svg>