<svg width="24" height="24" viewBox="0 0 24 24" fill="none" xmlns="http://www.w3.org/2000/svg">
<g id="strikethrough">
<path id="Shape" fill-rule="evenodd" clip-rule="evenodd" d="M22 12.8098C22.0004 12.5273 21.8886 12.2563 21.689 12.0564C21.4894 11.8566 21.2186 11.7442 20.9362 11.7442H13.3311C13.2451 11.744 13.1613 11.7172 13.0911 11.6676C12.4766 11.2311 11.8298 10.8328 11.2034 10.4489C8.82042 8.98935 7.37361 7.98084 7.37361 6.3102C7.37361 4.40808 9.25191 4.12382 10.3719 4.12382C11.2957 4.01798 12.2267 4.24884 12.994 4.77403C13.3407 5.26568 13.4775 5.87499 13.3745 6.46765V6.72297C13.3745 7.3105 13.8508 7.7868 14.4383 7.7868C15.0258 7.7868 15.5021 7.3105 15.5021 6.72297V6.49488C15.639 5.33158 15.279 4.16449 14.5106 3.28042C13.6587 2.41744 12.3055 1.99786 10.3753 1.99786C7.26213 1.99786 5.24936 3.69063 5.24936 6.3119C5.24936 8.6719 6.85957 10.1519 8.65361 11.3562C8.73166 11.4082 8.76641 11.5052 8.73917 11.595C8.71193 11.6847 8.62912 11.7461 8.53532 11.7459H3.06383C2.47629 11.7459 2 12.2222 2 12.8098C2 13.3973 2.47629 13.8736 3.06383 13.8736H12.406C12.4554 13.8739 12.5032 13.8913 12.5413 13.923C13.5332 14.5833 14.1455 15.6818 14.1855 16.8728C14.1855 19.654 11.2698 19.8702 10.3753 19.8702C8.83149 19.8702 7.70383 19.5255 7.11234 18.8719C6.60867 18.2199 6.40739 17.3838 6.55915 16.574C6.61696 15.9893 6.18982 15.4684 5.6051 15.4106C5.02039 15.3528 4.49951 15.7799 4.4417 16.3647C4.21544 17.7726 4.61344 19.2092 5.53191 20.3C6.55319 21.4268 8.18213 22.0021 10.3728 22.0021C13.9251 22.0021 16.3106 19.9425 16.3106 16.877C16.3189 15.935 16.0691 15.0087 15.5881 14.1987C15.5492 14.1328 15.5487 14.0512 15.5867 13.9849C15.6247 13.9185 15.6954 13.8777 15.7719 13.8779H20.9362C21.219 13.8779 21.4903 13.7652 21.6899 13.5648C21.8895 13.3643 22.0011 13.0927 22 12.8098Z" fill="#5A5A5A"/>
</g>
</svg>
