<?xml version="1.0" encoding="UTF-8"?>
<svg width="24px" height="24px" viewBox="0 0 24 24" version="1.1" xmlns="http://www.w3.org/2000/svg" xmlns:xlink="http://www.w3.org/1999/xlink">
    <title>1. Interface Essentials/style</title>
    <g id="1.-Interface-Essentials/style" stroke="none" stroke-width="1" fill="none" fill-rule="evenodd">
        <path d="M11.68,10.8466667 C12.0868498,10.4398169 12.7464836,10.4398169 13.1533333,10.8466667 C13.5601831,11.2535164 13.5601831,11.9131502 13.1533333,12.32 L13.1533333,12.32 L3.77833333,21.695 C3.51514768,21.9581857 3.13154624,22.0609713 2.77202795,21.9646387 C2.41250967,21.8683061 2.13169392,21.5874903 2.03536129,21.227972 C1.93902865,20.8684538 2.04181435,20.4848523 2.305,20.2216667 L2.305,20.2216667 Z M15.3333333,11.1666667 C15.7935706,11.1666667 16.1666667,11.5397627 16.1666667,12 L16.1666667,12 L16.1666667,14.5 C16.1666667,14.9602373 15.7935706,15.3333333 15.3333333,15.3333333 C14.873096,15.3333333 14.5,14.9602373 14.5,14.5 L14.5,14.5 L14.5,12 C14.5,11.5397627 14.873096,11.1666667 15.3333333,11.1666667 Z M17.2543179,10.5876512 C17.5757627,10.2662064 18.0955176,10.2616898 18.4225,10.5775 L18.4225,10.5775 L20.0891667,12.2441667 C20.4049768,12.5711491 20.4004603,13.090904 20.0790155,13.4123488 C19.7575706,13.7337936 19.2378157,13.7383102 18.9108333,13.4225 L18.9108333,13.4225 L17.2441667,11.7558333 C16.9283565,11.4288509 16.932873,10.909096 17.2543179,10.5876512 Z M21.1666667,7.83333333 C21.626904,7.83333333 22,8.20642938 22,8.66666667 C22,9.12690396 21.626904,9.5 21.1666667,9.5 L21.1666667,9.5 L18.6666667,9.5 C18.2064294,9.5 17.8333333,9.12690396 17.8333333,8.66666667 C17.8333333,8.20642938 18.2064294,7.83333333 18.6666667,7.83333333 L18.6666667,7.83333333 Z M12,7.83333333 C12.4602373,7.83333333 12.8333333,8.20642938 12.8333333,8.66666667 C12.8333333,9.12690396 12.4602373,9.5 12,9.5 L12,9.5 L9.5,9.5 C9.03976271,9.5 8.66666667,9.12690396 8.66666667,8.66666667 C8.66666667,8.20642938 9.03976271,7.83333333 9.5,7.83333333 L9.5,7.83333333 Z M18.9108333,3.91083333 C19.1200621,3.69420285 19.4298982,3.60732284 19.7212561,3.6835857 C20.012614,3.75984857 20.2401514,3.98738604 20.3164143,4.2787439 C20.3926772,4.57010176 20.3057972,4.87993794 20.0891667,5.08916667 L20.0891667,5.08916667 L18.4225,6.75583333 C18.0955176,7.07164351 17.5757627,7.06712698 17.2543179,6.74568215 C16.932873,6.42423731 16.9283565,5.90448241 17.2441667,5.5775 L17.2441667,5.5775 Z M10.5876512,3.92098452 C10.909096,3.59953969 11.4288509,3.59502316 11.7558333,3.91083333 L11.7558333,3.91083333 L13.4225,5.5775 C13.7383102,5.90448241 13.7337936,6.42423731 13.4123488,6.74568215 C13.090904,7.06712698 12.5711491,7.07164351 12.2441667,6.75583333 L12.2441667,6.75583333 L10.5775,5.08916667 C10.2616898,4.76218426 10.2662064,4.24242935 10.5876512,3.92098452 Z M15.3333333,2 C15.7935706,2 16.1666667,2.37309604 16.1666667,2.83333333 L16.1666667,2.83333333 L16.1666667,5.33333333 C16.1666667,5.79357062 15.7935706,6.16666667 15.3333333,6.16666667 C14.873096,6.16666667 14.5,5.79357062 14.5,5.33333333 L14.5,5.33333333 L14.5,2.83333333 C14.5,2.37309604 14.873096,2 15.3333333,2 Z" id="ðŸ–-Color" fill="#5A5A5A"></path>
        <rect id="_Transparent_Rectangle_" x="0" y="0" width="24" height="24"></rect>
    </g>
</svg>