<svg width="24" height="24" viewBox="0 0 24 24" fill="none" xmlns="http://www.w3.org/2000/svg">
<g id="style">
<path id="Shape" fill-rule="evenodd" clip-rule="evenodd" d="M14.4999 2.83333C14.4999 2.3731 14.873 2 15.3333 2C15.7935 2 16.1666 2.3731 16.1666 2.83333V5.33333C16.1666 5.79357 15.7935 6.16667 15.3333 6.16667C14.873 6.16667 14.4999 5.79357 14.4999 5.33333V2.83333ZM18.4224 6.75583L20.0891 5.08917C20.3057 4.87994 20.3926 4.5701 20.3163 4.27874C20.2401 3.98739 20.0125 3.75985 19.7212 3.68359C19.4298 3.60732 19.12 3.6942 18.9107 3.91083L17.2441 5.5775C16.9283 5.90448 16.9328 6.42424 17.2542 6.74568C17.5757 7.06713 18.0954 7.07164 18.4224 6.75583ZM18.6666 7.83333H21.1666C21.6268 7.83333 21.9999 8.20643 21.9999 8.66667C21.9999 9.1269 21.6268 9.5 21.1666 9.5H18.6666C18.2063 9.5 17.8333 9.1269 17.8333 8.66667C17.8333 8.20643 18.2063 7.83333 18.6666 7.83333ZM2.30492 20.2217L11.6799 10.8467C12.0868 10.4398 12.7464 10.4398 13.1533 10.8467C13.5601 11.2535 13.5601 11.9132 13.1533 12.32L3.77825 21.695C3.51506 21.9582 3.13146 22.061 2.77194 21.9646C2.41243 21.8683 2.13161 21.5875 2.03528 21.228C1.93895 20.8685 2.04173 20.4849 2.30492 20.2217ZM11.7558 3.91083C11.4288 3.59502 10.909 3.59954 10.5876 3.92098C10.2661 4.24243 10.2616 4.76218 10.5774 5.08917L12.2441 6.75583C12.5711 7.07164 13.0908 7.06713 13.4123 6.74568C13.7337 6.42424 13.7382 5.90448 13.4224 5.5775L11.7558 3.91083ZM11.9999 9.5H9.49992C9.03968 9.5 8.66658 9.1269 8.66658 8.66667C8.66658 8.20643 9.03968 7.83333 9.49992 7.83333H11.9999C12.4602 7.83333 12.8333 8.20643 12.8333 8.66667C12.8333 9.1269 12.4602 9.5 11.9999 9.5ZM15.3333 11.1667C14.873 11.1667 14.4999 11.5398 14.4999 12V14.5C14.4999 14.9602 14.873 15.3333 15.3333 15.3333C15.7935 15.3333 16.1666 14.9602 16.1666 14.5V12C16.1666 11.5398 15.7935 11.1667 15.3333 11.1667ZM17.2542 10.5877C17.5757 10.2662 18.0954 10.2617 18.4224 10.5775L20.0891 12.2442C20.4049 12.5711 20.4004 13.0909 20.0789 13.4123C19.7575 13.7338 19.2377 13.7383 18.9107 13.4225L17.2441 11.7558C16.9283 11.4289 16.9328 10.9091 17.2542 10.5877Z" fill="#5A5A5A"/>
</g>
</svg>
