<?xml version="1.0" encoding="UTF-8"?>
<svg width="24px" height="24px" viewBox="0 0 24 24" version="1.1" xmlns="http://www.w3.org/2000/svg" xmlns:xlink="http://www.w3.org/1999/xlink">
    <title>1. Interface Essentials/subscript</title>
    <g id="1.-Interface-Essentials/subscript" stroke="none" stroke-width="1" fill="none" fill-rule="evenodd">
        <path d="M18.0948021,11.7155838 C19.242905,11.3587675 20.4818747,11.8002324 21.1796524,12.8147658 C21.8774302,13.8292992 21.8802312,15.1933059 21.1866266,16.2109396 L21.1866266,16.2109396 L18.6500529,19.980188 C18.6065173,20.0445469 18.6010853,20.1288283 18.6359715,20.1986715 C18.6708576,20.2685147 18.7402337,20.3122513 18.8158157,20.3120504 L18.8158157,20.3120504 L20.8769333,20.3120504 C21.3251272,20.3154195 21.6871491,20.6925257 21.6871491,21.1577097 C21.6871491,21.6228937 21.3251272,21.9999999 20.8785505,21.9999999 L20.8785505,21.9999999 L16.8759877,21.9999999 C16.5744985,22.0001395 16.2979727,21.8255485 16.1586069,21.5470649 C16.0192412,21.2685813 16.0401836,20.9324598 16.2129369,20.6750774 L16.2129369,20.6750774 L19.8589078,15.2566249 L19.9356417,15.1360077 C20.1667491,14.7224488 20.1510001,14.2014794 19.8843979,13.801288 C19.5911355,13.3610774 19.0602327,13.165917 18.5666865,13.316896 C18.0731403,13.467875 17.7278434,13.9310706 17.7096528,14.4665567 C17.6975197,14.767478 17.5321902,15.0387981 17.2759424,15.1783133 C17.0196945,15.3178285 16.7114585,15.3043432 16.4673438,15.1429371 C16.2232291,14.981531 16.0803226,14.6967256 16.0924557,14.3958043 C16.142496,13.1488582 16.9466991,12.0724002 18.0948021,11.7155838 Z M13.0537424,2.24661115 C13.3695,1.91779628 13.8813431,1.91779628 14.1971007,2.24661115 C14.5106135,2.57513585 14.5106135,3.10571556 14.1971007,3.43424026 L14.1971007,3.43424026 L9.6560113,8.16454177 C9.61803917,8.20390292 9.596691,8.25740416 9.596691,8.31320598 C9.596691,8.3690078 9.61803917,8.42250904 9.6560113,8.46187019 L9.6560113,8.46187019 L14.1971007,13.1963831 C14.5035371,13.52688 14.4991547,14.0522213 14.1872509,14.3771211 C13.8753471,14.7020209 13.3710194,14.706586 13.0537424,14.3873814 L13.0537424,14.3873814 L8.51265296,9.65623763 C8.43330233,9.57467464 8.3057597,9.57467464 8.22640907,9.65623763 L8.22640907,9.65623763 L3.68531963,14.3873814 C3.48230118,14.6063403 3.18166147,14.6941541 2.89895162,14.6170716 C2.61624177,14.539989 2.39545801,14.3100059 2.32145876,14.0155165 C2.24745951,13.7210271 2.33176077,13.4078607 2.54196128,13.1963831 L2.54196128,13.1963831 L7.08305073,8.46523935 C7.12102286,8.4258782 7.14237103,8.37237696 7.14237103,8.31657514 C7.14237103,8.26077332 7.12102286,8.20727208 7.08305073,8.16791093 L7.08305073,8.16791093 L2.54196128,3.43760942 C2.2355249,3.10711255 2.23990738,2.58177122 2.55181116,2.25687144 C2.86371495,1.93197166 3.36804263,1.92740659 3.68531963,2.24661115 L3.68531963,2.24661115 L8.22640907,6.97691265 C8.3057597,7.05847564 8.43330233,7.05847564 8.51265296,6.97691265 L8.51265296,6.97691265 Z" id="ðŸ–-Color" fill="#5A5A5A"></path>
        <rect id="_Transparent_Rectangle_" x="0" y="0" width="24" height="24"></rect>
    </g>
</svg>