<svg width="24" height="24" viewBox="0 0 24 24" fill="none" xmlns="http://www.w3.org/2000/svg">
<g id="subscript">
<path id="Shape" fill-rule="evenodd" clip-rule="evenodd" d="M13.0537 2.24661C13.3695 1.9178 13.8813 1.9178 14.1971 2.24661C14.5106 2.57514 14.5106 3.10572 14.1971 3.43424L9.65597 8.16454C9.618 8.2039 9.59665 8.2574 9.59665 8.31321C9.59665 8.36901 9.618 8.42251 9.65597 8.46187L14.1971 13.1964C14.5035 13.5269 14.4991 14.0522 14.1872 14.3771C13.8753 14.702 13.371 14.7066 13.0537 14.3874L8.51261 9.65624C8.43326 9.57467 8.30572 9.57467 8.22637 9.65624L3.68528 14.3874C3.48226 14.6063 3.18162 14.6942 2.89891 14.6171C2.6162 14.54 2.39542 14.31 2.32142 14.0155C2.24742 13.721 2.33172 13.4079 2.54192 13.1964L7.08301 8.46524C7.12098 8.42588 7.14233 8.37238 7.14233 8.31658C7.14233 8.26077 7.12098 8.20727 7.08301 8.16791L2.54192 3.43761C2.23548 3.10711 2.23987 2.58177 2.55177 2.25687C2.86367 1.93197 3.368 1.92741 3.68528 2.24661L8.22637 6.97691C8.30572 7.05848 8.43326 7.05848 8.51261 6.97691L13.0537 2.24661ZM18.8158 20.312H20.8769L20.8785 20.3154C21.3251 20.3154 21.6871 20.6925 21.6871 21.1577C21.6871 21.6229 21.3251 22 20.8785 22H16.8759C16.5745 22.0001 16.2979 21.8255 16.1586 21.5471C16.0192 21.2686 16.0401 20.9325 16.2129 20.6751L19.8589 15.2566C20.1673 14.8279 20.1776 14.2415 19.8844 13.8013C19.5911 13.3611 19.0602 13.1659 18.5666 13.3169C18.0731 13.4679 17.7278 13.9311 17.7096 14.4666C17.6975 14.7675 17.5321 15.0388 17.2759 15.1783C17.0197 15.3178 16.7114 15.3043 16.4673 15.1429C16.2232 14.9815 16.0803 14.6967 16.0924 14.3958C16.1425 13.1489 16.9467 12.0724 18.0948 11.7156C19.2429 11.3588 20.4818 11.8002 21.1796 12.8148C21.8774 13.8293 21.8802 15.1933 21.1866 16.2109L18.65 19.9802C18.6065 20.0445 18.601 20.1288 18.6359 20.1987C18.6708 20.2685 18.7402 20.3123 18.8158 20.312Z" fill="#5A5A5A"/>
</g>
</svg>
