<svg width="24" height="24" viewBox="0 0 24 24" fill="none" xmlns="http://www.w3.org/2000/svg">
<g id="superscript">
<path id="Shape" fill-rule="evenodd" clip-rule="evenodd" d="M19.0176 10.6335H21.1424C21.6027 10.6335 21.9759 11.0067 21.9759 11.4671C21.9759 11.9274 21.6027 12.3006 21.1424 12.3006H17.0162C16.7052 12.3007 16.4201 12.1277 16.2766 11.8518C16.1331 11.576 16.155 11.2432 16.3335 10.9886L20.0896 5.62291C20.4073 5.19909 20.4181 4.6195 20.1164 4.18414C19.8147 3.74879 19.2682 3.55538 18.7598 3.70404C18.2514 3.85269 17.8952 4.31004 17.8756 4.83935C17.8708 5.06188 17.7757 5.27289 17.6122 5.42394C17.4487 5.575 17.2309 5.65313 17.0087 5.64041C16.5501 5.61925 16.195 5.23131 16.2143 4.77267C16.2666 3.5389 17.096 2.47423 18.2795 2.12164C19.463 1.76905 20.7398 2.20622 21.4588 3.21018C22.1778 4.21415 22.1806 5.56374 21.4658 6.57068L18.8509 10.3051C18.8064 10.3682 18.8004 10.4506 18.8354 10.5195C18.8703 10.5883 18.9404 10.6322 19.0176 10.6335ZM9.50868 15.7374C9.50868 15.7928 9.53071 15.8459 9.56991 15.885L14.2696 20.5863C14.5855 20.9134 14.581 21.4333 14.2594 21.7548C13.9379 22.0764 13.418 22.0809 13.0909 21.765L8.38957 17.0637C8.35048 17.0245 8.29739 17.0024 8.24203 17.0024C8.18667 17.0024 8.13359 17.0245 8.09449 17.0637L3.43317 21.7241C3.22388 21.9408 2.91396 22.0277 2.62251 21.9515C2.33107 21.8752 2.10347 21.6476 2.02719 21.3561C1.9509 21.0647 2.03781 20.7548 2.2545 20.5455L6.91749 15.8875C6.95668 15.8484 6.97871 15.7953 6.97871 15.7399C6.97871 15.6846 6.95668 15.6315 6.91749 15.5924L2.2545 10.9286C1.92902 10.6026 1.92939 10.0746 2.25533 9.74908C2.58127 9.4236 3.10935 9.42397 3.43483 9.74991L8.09616 14.4112C8.13525 14.4504 8.18834 14.4725 8.2437 14.4725C8.29906 14.4725 8.35214 14.4504 8.39124 14.4112L13.0517 9.74991C13.3788 9.43401 13.8987 9.43853 14.2202 9.76007C14.5418 10.0816 14.5463 10.6015 14.2304 10.9286L9.56991 15.5899C9.53071 15.629 9.50868 15.6821 9.50868 15.7374Z" fill="#5A5A5A"/>
</g>
</svg>
