<?xml version="1.0" encoding="UTF-8"?>
<svg width="24px" height="24px" viewBox="0 0 24 24" version="1.1" xmlns="http://www.w3.org/2000/svg" xmlns:xlink="http://www.w3.org/1999/xlink">
    <title>1. Interface Essentials/superscript</title>
    <g id="1.-Interface-Essentials/superscript" stroke="none" stroke-width="1" fill="none" fill-rule="evenodd">
        <path d="M2.25533324,9.74910128 C2.58127367,9.42362122 3.10935433,9.42399442 3.4348344,9.74993485 L3.4348344,9.74993485 L8.09615629,14.4112567 C8.13525248,14.4504519 8.18833774,14.4724799 8.24369813,14.4724799 C8.29905852,14.4724799 8.35214377,14.4504519 8.39123997,14.4112567 L8.39123997,14.4112567 L13.0517283,9.74993485 C13.3788035,9.43403509 13.8987058,9.4385529 14.2202418,9.76008892 C14.5417778,10.0816249 14.5462956,10.6015273 14.2303959,10.9286024 L14.2303959,10.9286024 L9.56990756,15.5899243 C9.5307124,15.6290205 9.50868445,15.6821058 9.50868445,15.7374662 C9.50868445,15.7928266 9.5307124,15.8459118 9.56990756,15.885008 L9.56990756,15.885008 L14.2695737,20.5863413 C14.5854734,20.9134164 14.5809556,21.4333188 14.2594196,21.7548548 C13.9378836,22.0763908 13.4179812,22.0809086 13.0909061,21.7650088 L13.0909061,21.7650088 L8.38957283,17.0636756 C8.35047663,17.0244804 8.29739138,17.0024525 8.24203099,17.0024525 C8.1866706,17.0024525 8.13358534,17.0244804 8.09448915,17.0636756 L8.09448915,17.0636756 L3.43316726,21.7241639 C3.22387918,21.9408559 2.9139551,22.0277605 2.6225146,21.951476 C2.33107409,21.8751915 2.10347207,21.6475895 2.02718757,21.356149 C1.95090307,21.0647085 2.03780773,20.7547844 2.25449967,20.5454963 L2.25449967,20.5454963 L6.9174887,15.8875087 C6.95668386,15.8484125 6.9787118,15.7953273 6.9787118,15.7399669 C6.9787118,15.6846065 6.95668386,15.6315212 6.9174887,15.592425 L6.9174887,15.592425 L2.25449967,10.9286024 C1.9290196,10.602662 1.9293928,10.0745814 2.25533324,9.74910128 Z M18.2794921,2.12166516 C19.4629664,1.76907562 20.7397956,2.20623762 21.4588112,3.21020344 C22.1778267,4.21416927 22.1806259,5.56376018 21.4657811,6.57069993 L21.4657811,6.57069993 L18.8508729,10.3050923 C18.8064066,10.3681734 18.8004449,10.4506644 18.8353786,10.5194838 C18.8703123,10.5883032 18.9404202,10.6321802 19.0175868,10.6335188 L19.0175868,10.6335188 L21.142356,10.6335188 C21.6027239,10.6335188 21.9759257,11.0067206 21.9759257,11.4670885 C21.9759257,11.9274563 21.6027239,12.3006582 21.142356,12.3006582 L21.142356,12.3006582 L17.0161859,12.3006582 C16.7052481,12.3006582 16.4201319,12.1276824 16.2766082,11.8518504 C16.1330845,11.5760185 16.155014,11.2432325 16.3334923,10.9886195 L16.3334923,10.9886195 L20.0895575,5.62293115 C20.4072627,5.19911148 20.4180602,4.61952566 20.1163613,4.18416662 C19.8146624,3.74880758 19.2681911,3.55540282 18.7598003,3.70405841 C18.2514094,3.852714 17.8952204,4.31006038 17.8755963,4.83937561 C17.8707574,5.06190274 17.7756917,5.27290866 17.6122177,5.42396492 C17.4487437,5.57502117 17.2308998,5.65315586 17.0086838,5.64043612 C16.5501238,5.61926714 16.1949825,5.23133212 16.2142918,4.77269004 C16.2666239,3.53891854 17.0960179,2.4742547 18.2794921,2.12166516 Z" id="ðŸ–-Color" fill="#5A5A5A"></path>
        <rect id="_Transparent_Rectangle_" x="0" y="0" width="24" height="24"></rect>
    </g>
</svg>