<svg width="24" height="24" viewBox="0 0 24 24" fill="none" xmlns="http://www.w3.org/2000/svg">
<g id="sync">
<path id="Shape" fill-rule="evenodd" clip-rule="evenodd" d="M19.6221 14.9602C19.5357 15.0596 19.4078 15.1171 19.273 15.1171C19.1381 15.1171 19.0102 15.0596 18.9239 14.9602L16.6512 12.3448C16.5384 12.2149 16.5141 12.0341 16.5888 11.881C16.6636 11.7279 16.824 11.63 17.0003 11.6299H17.9094C18.0349 11.6299 18.1366 11.5324 18.1366 11.412V7.70687C18.1366 6.864 17.4247 6.18045 16.5458 6.17949H7.45513C6.82755 6.17949 6.3188 5.69159 6.3188 5.08974C6.3188 4.48789 6.82755 4 7.45513 4H16.5458C18.6792 4.0024 20.4078 5.6609 20.4093 7.70687V11.412C20.4093 11.5324 20.5111 11.6299 20.6366 11.6299H21.5456C21.7219 11.63 21.8823 11.7279 21.9571 11.881C22.0319 12.0341 22.0076 12.2149 21.8947 12.3448L19.6221 14.9602ZM16.5458 21H7.45513C5.32311 20.9976 3.59511 19.3412 3.59161 17.2966V13.5915C3.59185 13.5336 3.56798 13.478 3.52531 13.4371C3.48264 13.3962 3.42469 13.3733 3.36434 13.3735H2.45528C2.2788 13.3738 2.1181 13.2761 2.0431 13.1229C1.96809 12.9697 1.99234 12.7887 2.10529 12.6587L4.37795 10.0433C4.4643 9.94366 4.59239 9.88603 4.72748 9.88603C4.86257 9.88603 4.99066 9.94366 5.07702 10.0433L7.34968 12.6587C7.46252 12.7886 7.48684 12.9694 7.41206 13.1225C7.33729 13.2756 7.17692 13.3735 7.0006 13.3735H6.09154C6.03126 13.3735 5.97345 13.3965 5.93083 13.4374C5.88821 13.4782 5.86427 13.5337 5.86427 13.5915V17.2966C5.86677 18.1379 6.57785 18.8191 7.45513 18.8205H16.5458C17.1734 18.8205 17.6821 19.3084 17.6821 19.9103C17.6821 20.5121 17.1734 21 16.5458 21Z" fill="#5A5A5A"/>
</g>
</svg>
