<?xml version="1.0" encoding="UTF-8"?>
<svg width="24px" height="24px" viewBox="0 0 24 24" version="1.1" xmlns="http://www.w3.org/2000/svg" xmlns:xlink="http://www.w3.org/1999/xlink">
    <title>1. Interface Essentials/sync</title>
    <g id="1.-Interface-Essentials/sync" stroke="none" stroke-width="1" fill="none" fill-rule="evenodd">
        <path d="M4.7274838,9.88603152 C4.8625734,9.88603152 4.99066326,9.94365716 5.07701912,10.0432821 L5.07701912,10.0432821 L7.34968051,12.6586667 C7.46252279,12.7885892 7.48683659,12.969374 7.41206196,13.1225027 C7.33728733,13.2756313 7.17691575,13.3734751 7.00059972,13.3735385 L7.00059972,13.3735385 L6.09153516,13.3735385 C6.03126044,13.3735385 5.9734544,13.3965008 5.93083374,13.4373742 C5.88821307,13.4782475 5.86426902,13.5336836 5.86426902,13.5914872 L5.86426902,13.5914872 L5.86426902,17.2966154 C5.86676997,18.1379256 6.57785305,18.8190765 7.45513199,18.8205128 L7.45513199,18.8205128 L16.5457775,18.8205128 C17.1733556,18.8205128 17.6821082,19.3084076 17.6821082,19.9102564 C17.6821082,20.5121052 17.1733556,21 16.5457775,21 L16.5457775,21 L7.45513199,21 C5.32311339,20.9976002 3.59511361,19.3412245 3.59160764,17.2966154 L3.59160764,17.2966154 L3.59160764,13.5914872 C3.5918505,13.5336125 3.56798445,13.478041 3.52531102,13.4371171 C3.4826376,13.3961932 3.42469035,13.3733056 3.3643415,13.3735385 L3.3643415,13.3735385 L2.45527695,13.3735385 C2.27879657,13.3738137 2.11810224,13.2760975 2.04309808,13.1228978 C1.96809392,12.969698 1.99233927,12.7887103 2.1052871,12.6586667 L2.1052871,12.6586667 L4.37794848,10.0432821 C4.46430434,9.94365716 4.5923942,9.88603152 4.7274838,9.88603152 Z M16.5457775,4 C18.6792138,4.00240369 20.4077992,5.66090087 20.4093019,7.70687179 L20.4093019,7.70687179 L20.4093019,11.412 C20.4093019,11.5323698 20.5110524,11.6299487 20.636568,11.6299487 L20.636568,11.6299487 L21.5456326,11.6299487 C21.7219486,11.6300121 21.8823202,11.7278558 21.9570948,11.8809845 C22.0318694,12.0341132 22.0075556,12.214898 21.8947134,12.3448205 L21.8947134,12.3448205 L19.622052,14.9602051 C19.5357323,15.0595906 19.4078458,15.1171282 19.2729712,15.1171282 C19.1380966,15.1171282 19.0102101,15.0595906 18.9238904,14.9602051 L18.9238904,14.9602051 L16.651229,12.3448205 C16.5383867,12.214898 16.5140729,12.0341132 16.5888476,11.8809845 C16.6636222,11.7278558 16.8239938,11.6300121 17.0003098,11.6299487 L17.0003098,11.6299487 L17.9093744,11.6299487 C18.03489,11.6299487 18.1366405,11.5323698 18.1366405,11.412 L18.1366405,11.412 L18.1366405,7.70687179 C18.1366411,6.86400101 17.4246809,6.18044936 16.5457775,6.17948718 L16.5457775,6.17948718 L7.45513199,6.17948718 C6.82755389,6.17948717 6.31880133,5.69159235 6.31880133,5.08974359 C6.31880133,4.48789483 6.82755389,4 7.45513199,4 L7.45513199,4 Z" id="ðŸ–-Color" fill="#5A5A5A"></path>
        <rect id="_Transparent_Rectangle_" x="0" y="0" width="24" height="24"></rect>
    </g>
</svg>