<?xml version="1.0" encoding="UTF-8"?>
<svg width="24px" height="24px" viewBox="0 0 24 24" version="1.1" xmlns="http://www.w3.org/2000/svg" xmlns:xlink="http://www.w3.org/1999/xlink">
    <title>1. Interface Essentials/table</title>
    <g id="1.-Interface-Essentials/table" stroke="none" stroke-width="1" fill="none" fill-rule="evenodd">
        <path d="M22,3.66666667 C22,2.74619208 21.2538079,2 20.3333333,2 L3.66666667,2 C2.74619208,2 2,2.74619208 2,3.66666667 L2,20.3333333 C2,21.2538079 2.74619208,22 3.66666667,22 L20.3333333,22 C21.2538079,22 22,21.2538079 22,20.3333333 L22,3.66666667 Z M19.9166667,11.1666667 L13.25,11.1666667 C13.0198814,11.1666667 12.8333333,10.9801186 12.8333333,10.75 L12.8333333,4.08333333 C12.8333333,3.85321469 13.0198814,3.66666667 13.25,3.66666667 L19.9166667,3.66666667 C20.1467853,3.66666667 20.3333333,3.85321469 20.3333333,4.08333333 L20.3333333,10.75 C20.3333333,10.9801186 20.1467853,11.1666667 19.9166667,11.1666667 Z M11.1666667,4.08333333 L11.1666667,10.75 C11.1666667,10.9801186 10.9801186,11.1666667 10.75,11.1666667 L4.08333333,11.1666667 C3.85321469,11.1666667 3.66666667,10.9801186 3.66666667,10.75 L3.66666667,4.08333333 C3.66666667,3.85321469 3.85321469,3.66666667 4.08333333,3.66666667 L10.75,3.66666667 C10.9801186,3.66666667 11.1666667,3.85321469 11.1666667,4.08333333 Z M4.08333333,12.8333333 L10.75,12.8333333 C10.9801186,12.8333333 11.1666667,13.0198814 11.1666667,13.25 L11.1666667,19.9166667 C11.1666667,20.1467853 10.9801186,20.3333333 10.75,20.3333333 L4.08333333,20.3333333 C3.85321469,20.3333333 3.66666667,20.1467853 3.66666667,19.9166667 L3.66666667,13.25 C3.66666667,13.0198814 3.85321469,12.8333333 4.08333333,12.8333333 Z M12.8333333,19.9166667 L12.8333333,13.25 C12.8333333,13.0198814 13.0198814,12.8333333 13.25,12.8333333 L19.9166667,12.8333333 C20.1467853,12.8333333 20.3333333,13.0198814 20.3333333,13.25 L20.3333333,19.9166667 C20.3333333,20.1467853 20.1467853,20.3333333 19.9166667,20.3333333 L13.25,20.3333333 C13.0198814,20.3333333 12.8333333,20.1467853 12.8333333,19.9166667 Z" id="ðŸ–-Color" fill="#5A5A5A"></path>
        <rect id="_Transparent_Rectangle_" x="0" y="0" width="24" height="24"></rect>
    </g>
</svg>