<svg width="24" height="24" viewBox="0 0 24 24" fill="none" xmlns="http://www.w3.org/2000/svg">
<g id="table">
<path id="Shape" fill-rule="evenodd" clip-rule="evenodd" d="M22 3.66667C22 2.74619 21.2538 2 20.3333 2H3.66667C2.74619 2 2 2.74619 2 3.66667V20.3333C2 21.2538 2.74619 22 3.66667 22H20.3333C21.2538 22 22 21.2538 22 20.3333V3.66667ZM19.9167 11.1667H13.25C13.0199 11.1667 12.8333 10.9801 12.8333 10.75V4.08333C12.8333 3.85321 13.0199 3.66667 13.25 3.66667H19.9167C20.1468 3.66667 20.3333 3.85321 20.3333 4.08333V10.75C20.3333 10.9801 20.1468 11.1667 19.9167 11.1667ZM11.1667 4.08333V10.75C11.1667 10.9801 10.9801 11.1667 10.75 11.1667H4.08333C3.85321 11.1667 3.66667 10.9801 3.66667 10.75V4.08333C3.66667 3.85321 3.85321 3.66667 4.08333 3.66667H10.75C10.9801 3.66667 11.1667 3.85321 11.1667 4.08333ZM4.08333 12.8333H10.75C10.9801 12.8333 11.1667 13.0199 11.1667 13.25V19.9167C11.1667 20.1468 10.9801 20.3333 10.75 20.3333H4.08333C3.85321 20.3333 3.66667 20.1468 3.66667 19.9167V13.25C3.66667 13.0199 3.85321 12.8333 4.08333 12.8333ZM12.8333 19.9167V13.25C12.8333 13.0199 13.0199 12.8333 13.25 12.8333H19.9167C20.1468 12.8333 20.3333 13.0199 20.3333 13.25V19.9167C20.3333 20.1468 20.1468 20.3333 19.9167 20.3333H13.25C13.0199 20.3333 12.8333 20.1468 12.8333 19.9167Z" fill="#5A5A5A"/>
</g>
</svg>
