<?xml version="1.0" encoding="UTF-8"?>
<svg width="24px" height="24px" viewBox="0 0 24 24" version="1.1" xmlns="http://www.w3.org/2000/svg" xmlns:xlink="http://www.w3.org/1999/xlink">
    <title>1. Interface Essentials/tags_minus</title>
    <g id="1.-Interface-Essentials/tags_minus" stroke="none" stroke-width="1" fill="none" fill-rule="evenodd">
        <path d="M16.4004292,11.1666667 C19.270848,11.1703399 21.5969029,13.5933138 21.6004292,16.5833333 C21.6004292,19.5748757 19.2723099,22 16.4004292,22 C13.5285485,22 11.2004292,19.5748757 11.2004292,16.5833333 C11.2004292,13.5917909 13.5285485,11.1666667 16.4004292,11.1666667 Z M16.8684292,2 L17.0064833,2.00611766 C17.8255051,2.07902931 18.4684292,2.79463811 18.4684292,3.66666667 L18.4684292,3.66666667 L18.4684292,7 C18.4289737,7.74310289 18.1512058,8.45090394 17.6796292,9.01 L17.6796292,9.01 L16.9292292,9.8075 C16.8529598,9.88646942 16.7486977,9.92900691 16.6412292,9.925 C14.8629365,9.8709732 13.1437164,10.5926472 11.8982551,11.9159497 C10.6527939,13.2392523 9.99416335,15.0440447 10.0812292,16.895 C10.0878869,17.0081016 10.0483731,17.1188708 9.97242917,17.2 L9.97242917,17.2 L8.99962917,18.2341667 C8.70365646,18.5523342 8.29694289,18.7326151 7.87162917,18.7341745 L7.87162917,18.7341745 L7.86202917,18.7341745 C7.44010743,18.7355212 7.03515613,18.5612112 6.73722917,18.25 L6.73722917,18.25 L2.86842917,14.2183333 C2.56823076,13.9057533 2.39957083,13.4817278 2.39957083,13.0395833 C2.39957083,12.5974389 2.56823076,12.1734134 2.86842917,11.8608333 L2.86842917,11.8608333 L11.5308292,2.83333333 C12.0576195,2.32405307 12.7422388,2.0283876 13.4604292,2 L13.4604292,2 L16.8684292,2 Z M18.4004292,15.9583333 L14.4004292,15.9583333 C14.0690583,15.9583333 13.8004292,16.2381554 13.8004292,16.5833333 C13.8004292,16.9285113 14.0690583,17.2083333 14.4004292,17.2083333 L14.4004292,17.2083333 L18.4004292,17.2083333 C18.7318,17.2083333 19.0004292,16.9285113 19.0004292,16.5833333 C19.0004292,16.2381554 18.7318,15.9583333 18.4004292,15.9583333 L18.4004292,15.9583333 Z M14.0684292,4.91666667 C13.1847736,4.91666667 12.4684292,5.66285875 12.4684292,6.58333333 C12.4684292,7.50380792 13.1847736,8.25 14.0684292,8.25 C14.9520848,8.25 15.6684292,7.50380792 15.6684292,6.58333333 C15.6684292,5.66285875 14.9520848,4.91666667 14.0684292,4.91666667 Z" id="ðŸ–-Color" fill="#5A5A5A"></path>
        <rect id="_Transparent_Rectangle_" x="0" y="0" width="24" height="24"></rect>
    </g>
</svg>