<svg width="24" height="24" viewBox="0 0 24 24" fill="none" xmlns="http://www.w3.org/2000/svg">
<g id="tags_favorite_star">
<path id="Shape" fill-rule="evenodd" clip-rule="evenodd" d="M10.0715 16.7938C9.59349 16.0961 9.54404 15.1901 9.94331 14.4445C10.3426 13.6989 11.124 13.2379 11.9697 13.2491H13.0954C13.2613 13.2493 13.4115 13.1511 13.4779 12.9991C13.7187 12.44 14.2687 11.1659 14.2337 11.2492C14.6247 10.4411 15.44 9.92453 16.3377 9.91601C16.5275 9.91856 16.7161 9.94658 16.8985 9.99933C17.0444 10.0396 17.2008 9.99748 17.3068 9.88934L18.165 9.00942C18.6676 8.45755 18.9584 7.74548 18.9858 6.99958V3.66653C18.9858 2.74613 18.2396 2 17.3193 2L13.7712 2.00417C13.0225 2.03157 12.3085 2.32732 11.7597 2.83743L2.73713 11.86C2.42445 12.1726 2.24878 12.5966 2.24878 13.0387C2.24878 13.4808 2.42445 13.9048 2.73713 14.2173L6.7668 18.2486C7.07671 18.5605 7.49869 18.7352 7.93837 18.7336H7.94837C8.39136 18.7321 8.81499 18.5518 9.12327 18.2336L10.0232 17.3171C10.1612 17.1761 10.1813 16.9576 10.0715 16.7938ZM16.0694 6.58295C16.0694 7.50335 15.3232 8.24948 14.4028 8.24948C13.4824 8.24948 12.7363 7.50335 12.7363 6.58295C12.7363 5.66255 13.4824 4.91642 14.4028 4.91642C15.3232 4.91642 16.0694 5.66255 16.0694 6.58295ZM18.62 14.499H20.7031C21.1283 14.4891 21.5156 14.7422 21.6772 15.1356C21.835 15.5336 21.7362 15.9874 21.4272 16.2838L19.5841 17.927C19.5168 17.9867 19.4956 18.0829 19.5316 18.1653L20.5556 20.5093C20.7408 20.9266 20.6342 21.4158 20.2923 21.7184C20.0956 21.8983 19.839 21.9986 19.5724 22C19.3847 21.9994 19.2003 21.95 19.0374 21.8567L16.4443 20.396C16.3807 20.3602 16.303 20.3602 16.2393 20.396L13.6462 21.8567C13.2428 22.0893 12.7352 22.0333 12.3922 21.7184C12.0497 21.4157 11.9434 20.9258 12.1297 20.5085L13.1488 18.1637C13.1848 18.0812 13.1636 17.985 13.0963 17.9253L11.2681 16.2963C10.9469 15.9998 10.8412 15.5362 11.0023 15.1297C11.1637 14.7378 11.5501 14.4859 11.9739 14.4965H14.057C14.1401 14.4965 14.2153 14.4475 14.2487 14.3715L15.3669 11.7742C15.5444 11.4052 15.9158 11.1687 16.3253 11.1639C16.7347 11.1591 17.1115 11.3869 17.2976 11.7517L17.3084 11.7742L18.4283 14.3731C18.4611 14.4498 18.5366 14.4993 18.62 14.499Z" fill="#5A5A5A"/>
</g>
</svg>
