<svg width="24" height="24" viewBox="0 0 24 24" fill="none" xmlns="http://www.w3.org/2000/svg">
<g id="tags_block">
<path id="Shape" fill-rule="evenodd" clip-rule="evenodd" d="M9.66295 16.284C9.74032 14.7733 10.3646 13.3422 11.4194 12.2579C13.7061 9.80531 15.6702 9.46831 17.4429 9.73382C17.5768 9.75548 17.7129 9.71074 17.8079 9.61383L18.2547 9.15854C18.7568 8.5876 19.0521 7.86427 19.093 7.10506V3.70104C19.093 2.76104 18.3309 1.99902 17.3909 1.99902L13.7674 2.00753C13.0055 2.04941 12.2806 2.34957 11.7122 2.85854L2.49833 12.0741C1.83389 12.7387 1.83389 13.8161 2.49833 14.4807L6.61465 18.5971C6.93136 18.9147 7.36178 19.0927 7.81031 19.0915H7.82137C8.27355 19.0899 8.70592 18.9058 9.02044 18.5809L9.64168 17.9477C9.73536 17.8514 9.77686 17.7158 9.75316 17.5835C9.68145 17.1542 9.65125 16.7191 9.66295 16.284ZM12.7104 6.68211C12.7104 5.74212 13.4724 4.9801 14.4124 4.9801C15.3524 4.9801 16.1144 5.74212 16.1144 6.68211C16.1144 7.62211 15.3524 8.38413 14.4124 8.38413C13.4724 8.38413 12.7104 7.62211 12.7104 6.68211ZM10.9369 16.4695C10.9369 13.4146 13.4135 10.938 16.4685 10.938C19.5219 10.9418 21.9963 13.4161 22 16.4695C22 19.5245 19.5234 22.0011 16.4685 22.0011C13.4135 22.0011 10.9369 19.5245 10.9369 16.4695ZM14.6813 19.8463C15.2305 20.1427 15.8445 20.2982 16.4685 20.2991C18.5828 20.2972 20.2965 18.5839 20.2988 16.4695C20.298 15.8456 20.1425 15.2315 19.8461 14.6824C19.8148 14.6218 19.7562 14.58 19.6888 14.5701C19.6213 14.5601 19.5532 14.5833 19.5057 14.6322L14.6311 19.5059C14.5829 19.5537 14.5603 19.6216 14.5702 19.6888C14.5801 19.756 14.6213 19.8145 14.6813 19.8463ZM18.2556 13.0927C18.3156 13.1246 18.3568 13.1831 18.3667 13.2503C18.3767 13.3174 18.354 13.3853 18.3058 13.4332L13.4295 18.3052C13.3817 18.3534 13.3138 18.376 13.2466 18.3661C13.1794 18.3562 13.1209 18.3149 13.0891 18.255C12.7925 17.706 12.6369 17.0919 12.6364 16.4678C12.6364 14.3529 14.3509 12.6383 16.4659 12.6383C17.0903 12.6397 17.7046 12.7958 18.2539 13.0927H18.2556Z" fill="#5A5A5A"/>
</g>
</svg>
