<svg width="24" height="24" viewBox="0 0 24 24" fill="none" xmlns="http://www.w3.org/2000/svg">
<g id="tags_minus">
<path id="tags_minus_2" fill-rule="evenodd" clip-rule="evenodd" d="M16.9292 9.8075L17.6796 9.01C18.1512 8.4509 18.4289 7.7431 18.4684 7V3.66667C18.4684 2.74619 17.7521 2 16.8684 2H13.4604C12.7422 2.02839 12.0576 2.32405 11.5308 2.83333L2.86839 11.8608C2.5682 12.1734 2.39954 12.5974 2.39954 13.0396C2.39954 13.4817 2.5682 13.9058 2.86839 14.2183L6.73719 18.25C7.03512 18.5612 7.44007 18.7355 7.86199 18.7342H7.87159C8.29691 18.7326 8.70362 18.5523 8.99959 18.2342L9.97239 17.2C10.0483 17.1189 10.0879 17.0081 10.0812 16.895C9.99413 15.044 10.6528 13.2393 11.8982 11.9159C13.1437 10.5926 14.8629 9.87097 16.6412 9.925C16.7487 9.92901 16.8529 9.88647 16.9292 9.8075ZM12.4684 6.58333C12.4684 5.66286 13.1847 4.91667 14.0684 4.91667C14.9521 4.91667 15.6684 5.66286 15.6684 6.58333C15.6684 7.50381 14.9521 8.25 14.0684 8.25C13.1847 8.25 12.4684 7.50381 12.4684 6.58333ZM16.4004 11.1667C13.5285 11.1667 11.2004 13.5918 11.2004 16.5833C11.2004 19.5749 13.5285 22 16.4004 22C19.2723 22 21.6004 19.5749 21.6004 16.5833C21.5969 13.5933 19.2708 11.1703 16.4004 11.1667ZM14.4004 17.2083C14.069 17.2083 13.8004 16.9285 13.8004 16.5833C13.8004 16.2382 14.069 15.9583 14.4004 15.9583H18.4004C18.7318 15.9583 19.0004 16.2382 19.0004 16.5833C19.0004 16.9285 18.7318 17.2083 18.4004 17.2083H14.4004Z" fill="#5A5A5A"/>
</g>
</svg>
