<svg width="24" height="24" viewBox="0 0 24 24" fill="none" xmlns="http://www.w3.org/2000/svg">
<g id="tags_alert">
<path id="Shape" fill-rule="evenodd" clip-rule="evenodd" d="M16.6667 10.2357L17.856 9.02227C18.3463 8.46436 18.6349 7.75784 18.6753 7.01621V3.69583C18.6744 2.78094 17.9342 2.03886 17.0193 2.03564L13.4789 2.03981C12.7369 2.08264 12.0315 2.37654 11.4787 2.87324L2.4843 11.8634C1.83857 12.5135 1.83857 13.5628 2.4843 14.2129L6.49892 18.2291C6.80787 18.5393 7.22797 18.713 7.66572 18.7117H7.67572C8.11674 18.7109 8.53884 18.5325 8.84668 18.2166L13.4539 13.5144L14.434 11.6476C14.8242 10.9054 15.5689 10.4163 16.405 10.3533C16.5036 10.3468 16.5965 10.3051 16.6667 10.2357ZM15.7683 6.602C15.7683 7.51935 15.0246 8.26302 14.1073 8.26302C13.1899 8.26302 12.4463 7.51935 12.4463 6.602C12.4463 5.68464 13.1899 4.94097 14.1073 4.94097C14.5484 4.94009 14.9717 5.1147 15.284 5.4263C15.5962 5.73789 15.7716 6.16089 15.7716 6.602H15.7683ZM16.603 11.5859C17.049 11.5859 17.4584 11.8326 17.6669 12.2268L21.8657 20.2277C22.0581 20.5967 22.0429 21.0396 21.8257 21.3945C21.6058 21.7485 21.2189 21.964 20.8022 21.9646H12.4038C11.987 21.9641 11.6 21.7486 11.3803 21.3945C11.163 21.0396 11.1479 20.5967 11.3403 20.2277L15.5391 12.2268C15.7476 11.8326 16.157 11.5859 16.603 11.5859ZM17.0439 14.4672C16.9271 14.3502 16.7687 14.2845 16.6034 14.2845C16.4381 14.2845 16.2797 14.3502 16.1629 14.4672C16.0461 14.5841 15.9806 14.7427 15.9808 14.9079V17.3991C15.9808 17.7429 16.2596 18.0216 16.6034 18.0216C16.9472 18.0216 17.226 17.7429 17.226 17.3991V14.9079C17.2262 14.7427 17.1607 14.5841 17.0439 14.4672ZM16.6034 18.8526C17.0637 18.8526 17.4368 19.2257 17.4368 19.686C17.4368 20.1463 17.0637 20.5194 16.6034 20.5194C16.1431 20.5194 15.77 20.1463 15.77 19.686C15.77 19.2257 16.1431 18.8526 16.6034 18.8526Z" fill="#5A5A5A"/>
</g>
</svg>
