<svg width="24" height="24" viewBox="0 0 24 24" fill="none" xmlns="http://www.w3.org/2000/svg">
<g id="tags_1">
<path id="Shape" fill-rule="evenodd" clip-rule="evenodd" d="M21.564 13.3234L11.078 2.83243C10.5227 2.33388 9.81386 2.03986 9.0687 1.99902H3.66572C2.74516 1.99902 1.9989 2.74528 1.9989 3.66584L2.00474 9.07132C2.03214 9.81947 2.32799 10.5327 2.83814 11.0807L13.3216 21.5641C13.5774 21.8349 13.9309 21.9922 14.3033 22.0008C14.4031 22.0006 14.5024 21.9883 14.5992 21.9641C15.0606 21.8378 15.4191 21.474 15.5384 21.0107L16.7502 17.0304C16.7907 16.8979 16.8944 16.7942 17.0269 16.7537L21.0056 15.5394C21.4747 15.4305 21.8434 15.0682 21.9604 14.601C22.0774 14.1339 21.9231 13.6405 21.5607 13.3234H21.564ZM6.99352 8.24292C6.3031 8.24292 5.7434 7.68322 5.7434 6.9928C5.7434 6.30239 6.3031 5.74269 6.99352 5.74269C7.68393 5.74269 8.24363 6.30239 8.24363 6.9928C8.24363 7.68322 7.68393 8.24292 6.99352 8.24292Z" fill="#5A5A5A"/>
</g>
</svg>
