<svg width="24" height="24" viewBox="0 0 24 24" fill="none" xmlns="http://www.w3.org/2000/svg">
<g id="tags_check">
<path id="Shape" fill-rule="evenodd" clip-rule="evenodd" d="M17.1666 9.81083L17.9508 9.01083C18.4424 8.45162 18.7317 7.74344 18.7725 7V3.66667C18.7725 2.74619 18.0263 2 17.1058 2L13.5575 2.00417C12.8112 2.04532 12.1012 2.33921 11.5441 2.8375L2.52331 11.8608C2.2106 12.1734 2.03491 12.5974 2.03491 13.0396C2.03491 13.4817 2.2106 13.9058 2.52331 14.2183L6.55247 18.25C6.86281 18.5612 7.28464 18.7355 7.72414 18.7342H7.73414C8.17714 18.7324 8.60073 18.5522 8.90914 18.2342L9.78581 17.3417C9.86667 17.2583 9.90767 17.1441 9.89831 17.0283C9.77075 15.1343 10.4577 13.2759 11.7865 11.9202C13.1153 10.5645 14.9596 9.84042 16.8558 9.93C16.9716 9.93591 17.0845 9.89263 17.1666 9.81083ZM12.5225 6.58333C12.5225 5.66286 13.2687 4.91667 14.1891 4.91667C15.1096 4.91667 15.8558 5.66286 15.8558 6.58333C15.8558 7.50381 15.1096 8.25 14.1891 8.25C13.2687 8.25 12.5225 7.50381 12.5225 6.58333ZM16.5483 11.1667C13.5568 11.1667 11.1316 13.5918 11.1316 16.5833C11.1316 19.5749 13.5568 22 16.5483 22C19.5398 22 21.965 19.5749 21.965 16.5833C21.9613 13.5933 19.5383 11.1703 16.5483 11.1667ZM15.9425 19.2292H15.8491C15.5185 19.2281 15.2019 19.0949 14.97 18.8592L13.72 17.6092C13.5576 17.4522 13.4925 17.2198 13.5498 17.0013C13.6071 16.7828 13.7779 16.6122 13.9964 16.5551C14.2149 16.498 14.4473 16.5633 14.6041 16.7258L15.6875 17.8092C15.7303 17.8517 15.7895 17.8736 15.8497 17.8692C15.9099 17.8649 15.9653 17.8348 16.0016 17.7867L18.2758 14.75C18.4829 14.4739 18.8747 14.4179 19.1508 14.625C19.4269 14.8321 19.4829 15.2239 19.2758 15.5L16.8591 18.7283C16.6412 19.0208 16.3063 19.2034 15.9425 19.2283V19.2292Z" fill="#5A5A5A"/>
</g>
</svg>
