<?xml version="1.0" encoding="UTF-8"?>
<svg width="24px" height="24px" viewBox="0 0 24 24" version="1.1" xmlns="http://www.w3.org/2000/svg" xmlns:xlink="http://www.w3.org/1999/xlink">
    <title>1. Interface Essentials/tags_refresh</title>
    <g id="1.-Interface-Essentials/tags_refresh" stroke="none" stroke-width="1" fill="none" fill-rule="evenodd">
        <path d="M15.0295362,16.7139963 C15.1927545,16.7143719 15.3397415,16.8169585 15.4021537,16.9740572 C15.4645659,17.1311558 15.4301559,17.3119384 15.3149231,17.4323478 L15.3149231,17.4323478 L13.9235611,18.8825254 C13.8473966,18.9617594 13.8445472,19.0893875 13.9170934,19.172224 C14.7020095,20.0827395 15.8916908,20.4912079 17.0425223,20.245317 C18.1933538,19.9994262 19.1325998,19.1360835 19.5100289,17.9772171 C19.6628397,17.5498028 20.1145254,17.3267835 20.528887,17.4741571 C20.9432487,17.6215307 21.1696775,18.085731 21.0396378,18.5212442 C20.4837383,20.2280444 19.1080495,21.5052462 17.4166105,21.884895 C15.7251716,22.2645438 13.9666106,21.6908343 12.7852475,20.3739681 C12.7478395,20.3323923 12.6958508,20.3083869 12.6411557,20.3074347 C12.5864606,20.3064825 12.5337308,20.3286648 12.4950099,20.3689152 L12.4950099,20.3689152 L11.7116109,21.185798 C11.5959156,21.3061488 11.422012,21.3420463 11.2709995,21.2767499 C11.2227041,21.2510408 11.1802518,21.21486 11.1464964,21.1706394 C11.1186154,21.1433952 11.0948961,21.1118717 11.0761603,21.077161 C11.043532,21.0198039 11.0246731,20.9550919 11.0211849,20.88852 L11.0211849,20.88852 L11.0211849,17.1350699 C11.0211849,16.9025173 11.2021651,16.7139963 11.4254156,16.7139963 L11.4254156,16.7139963 Z M17.0903041,2 L17.2298184,2.00618237 C18.0575028,2.07986518 18.7072268,2.80304274 18.7072268,3.68429444 L18.7072268,3.68429444 L18.7072268,7.05288333 C18.6805592,7.80672091 18.3984336,8.52635604 17.9108924,9.08414243 L17.9108924,9.08414243 L17.3207156,9.71154211 C17.233459,9.80438827 17.1099407,9.85007367 16.9860126,9.83533776 C16.7504768,9.80544434 16.5134595,9.78997838 16.2761836,9.78901966 C12.5938985,9.79319772 9.60994221,12.9018623 9.60637758,16.7375764 C9.60779783,17.0303237 9.62805477,17.3226426 9.66701218,17.6125674 C9.68381671,17.7412856 9.64264557,17.8708777 9.55544451,17.9637427 L9.55544451,17.9637427 L9.13908693,18.40587 C8.83962924,18.7273704 8.42838439,18.9095306 7.99834799,18.9111663 L7.99834799,18.9111663 C7.56307064,18.9125273 7.15383631,18.7363736 6.85275828,18.4218708 L6.85275828,18.4218708 L2.94223081,14.3475626 C2.3110134,13.6898458 2.3110134,12.623687 2.94223081,11.9659702 L2.94223081,11.9659702 L11.6962501,2.84635796 C12.2290796,2.33087754 12.921991,2.03200272 13.6486842,2.00421074 L13.6486842,2.00421074 L17.0903041,2 Z M15.091798,11.172855 C16.7784578,10.7892571 18.5348873,11.3523174 19.7226542,12.6573731 C19.7605823,12.6982305 19.812807,12.7213009 19.8673688,12.7213009 C19.9219306,12.7213009 19.9741554,12.6982305 20.0120834,12.6573731 L20.0120834,12.6573731 L20.8407563,11.7941722 C20.8609678,11.7731185 20.8900724,11.7697499 20.9135178,11.7537491 C21.0202645,11.6738669 21.1581913,11.6546051 21.2813677,11.7023781 C21.4325431,11.7674697 21.5311822,11.9210533 21.5311822,12.0914502 L21.5311822,12.0914502 L21.5311822,15.8482689 C21.5311822,16.0808215 21.350202,16.2693425 21.1269516,16.2693425 L21.1269516,16.2693425 L17.5244479,16.2693425 C17.3612296,16.2689669 17.2142426,16.1663803 17.1518304,16.0092816 C17.0894182,15.852183 17.1238282,15.6714004 17.239061,15.550991 L17.239061,15.550991 L18.5802984,14.1530266 C18.6574508,14.0733163 18.659602,13.9440925 18.5851491,13.8616436 C17.7964105,12.9596717 16.6085283,12.5595117 15.4621249,12.8095951 C14.3157214,13.0596786 13.3817943,13.9227032 13.0067659,15.0785464 C12.9131833,15.36332 12.6808614,15.5744557 12.3973137,15.6324207 C12.1137659,15.6903857 11.82207,15.5863737 11.632105,15.359565 C11.44214,15.1327564 11.382766,14.8176086 11.4763486,14.532835 C12.0338407,12.830854 13.4051383,11.556453 15.091798,11.172855 Z M14.2606895,4.94751528 C13.3676877,4.94751528 12.6437668,5.70159959 12.6437668,6.63180972 C12.6437668,7.56201986 13.3676877,8.31610417 14.2606895,8.31610417 C15.1536912,8.31610417 15.8776121,7.56201986 15.8776121,6.63180972 C15.8776121,5.70159959 15.1536912,4.94751528 14.2606895,4.94751528 Z" id="ðŸ–-Color" fill="#5A5A5A"></path>
        <rect id="_Transparent_Rectangle_" x="0" y="0" width="24" height="24"></rect>
    </g>
</svg>