<?xml version="1.0" encoding="UTF-8"?>
<svg width="24px" height="24px" viewBox="0 0 24 24" version="1.1" xmlns="http://www.w3.org/2000/svg" xmlns:xlink="http://www.w3.org/1999/xlink">
    <title>1. Interface Essentials/tags_remove</title>
    <g id="1.-Interface-Essentials/tags_remove" stroke="none" stroke-width="1" fill="none" fill-rule="evenodd">
        <path d="M16.5133637,11.1666667 C19.5033833,11.1703399 21.9263571,13.5933138 21.9300304,16.5833333 C21.9300304,19.5748757 19.5049061,22 16.5133637,22 C13.5218213,22 11.0966971,19.5748757 11.0966971,16.5833333 C11.0966971,13.5917909 13.5218213,11.1666667 16.5133637,11.1666667 Z M18.7145067,14.3805309 C18.4733083,14.1395598 18.0834884,14.1363575 17.8383637,14.3733333 L17.8383637,14.3733333 L16.6600304,15.5516667 C16.5787242,15.6327189 16.4471699,15.6327189 16.3658637,15.5516667 L16.3658637,15.5516667 L15.1875304,14.3733333 C14.9424057,14.1363575 14.5525858,14.1395598 14.3113874,14.3805309 C14.0701891,14.6215019 14.0666191,15.0113186 14.3033637,15.2566667 L14.3033637,15.2566667 L15.4816971,16.435 C15.5208811,16.4740851 15.5429028,16.5271553 15.5429028,16.5825 C15.5429028,16.6378447 15.5208811,16.6909149 15.4816971,16.73 L15.4816971,16.73 L14.3033637,17.9083333 C14.0666191,18.1536814 14.0701891,18.5434981 14.3113874,18.7844691 C14.5525858,19.0254402 14.9424057,19.0286425 15.1875304,18.7916667 L15.1875304,18.7916667 L16.3658637,17.6141667 C16.4471699,17.5331144 16.5787242,17.5331144 16.6600304,17.6141667 L16.6600304,17.6141667 L17.8383637,18.7925 C17.995209,18.9550451 18.2275546,19.0203134 18.4460989,18.9632191 C18.6646432,18.9061247 18.8353759,18.7355529 18.8926763,18.5170625 C18.9499767,18.2985722 18.8849276,18.0661652 18.7225304,17.9091667 L18.7225304,17.9091667 L17.5441971,16.73 C17.505013,16.6909149 17.4829913,16.6378447 17.4829913,16.5825 C17.4829913,16.5271553 17.505013,16.4740851 17.5441971,16.435 L17.5441971,16.435 L18.7225304,15.2566667 C18.959275,15.0113186 18.9557051,14.6215019 18.7145067,14.3805309 Z M17.1408637,2 L17.2846701,2.00611766 C18.1378178,2.07902931 18.8075304,2.79463811 18.8075304,3.66666667 L18.8075304,3.66666667 L18.8075304,7 C18.7668145,7.74318927 18.4774236,8.45111096 17.9858637,9.01 L17.9858637,9.01 L17.2000304,9.8125 C17.1165696,9.89468361 17.0018892,9.93715782 16.8850304,9.92916667 C14.9673027,9.82230571 13.0966628,10.5477493 11.7523976,11.9196276 C10.4081324,13.2915059 9.72086981,15.1765078 9.86669706,17.0916667 C9.87616608,17.2084479 9.83522093,17.3237009 9.75419706,17.4083333 L9.75419706,17.4083333 L8.94419706,18.2341667 C8.63620317,18.5522869 8.21281496,18.7325799 7.77003039,18.7341761 L7.77003039,18.7341761 L7.76003039,18.7341761 C7.32025824,18.735651 6.89812707,18.5613382 6.58753039,18.25 L6.58753039,18.25 L2.55836372,14.2183333 C2.24565704,13.9057533 2.06996961,13.4817278 2.06996961,13.0395833 C2.06996961,12.5974389 2.24565704,12.1734134 2.55836372,11.8608333 L2.55836372,11.8608333 L11.5808637,2.8375 C12.1365974,2.3392209 12.8455906,2.04527679 13.5908637,2.00416667 L13.5908637,2.00416667 L17.1408637,2 Z M14.2241971,4.91666667 C13.3037225,4.91666667 12.5575304,5.66285875 12.5575304,6.58333333 C12.5575304,7.50380792 13.3037225,8.25 14.2241971,8.25 C15.1446716,8.25 15.8908637,7.50380792 15.8908637,6.58333333 C15.8908637,5.66285875 15.1446716,4.91666667 14.2241971,4.91666667 Z" id="ðŸ–-Color" fill="#5A5A5A"></path>
        <rect id="_Transparent_Rectangle_" x="0" y="0" width="24" height="24"></rect>
    </g>
</svg>