<svg width="24" height="24" viewBox="0 0 24 24" fill="none" xmlns="http://www.w3.org/2000/svg">
<g id="tags_edit">
<path id="Shape" fill-rule="evenodd" clip-rule="evenodd" d="M18.6762 6.80952V3.34983C18.6725 2.39686 17.932 1.62513 17.0172 1.62085H13.4834C12.7366 1.6503 12.0248 1.95834 11.4778 2.48881L2.48377 11.8576C1.83874 12.5345 1.83874 13.6266 2.48377 14.3035L6.49751 18.4871C6.8062 18.8104 7.22626 18.9917 7.66405 18.9905H7.67321C8.11453 18.9896 8.53686 18.8034 8.84475 18.4741L17.8571 8.89784C18.3588 8.32467 18.6491 7.58468 18.6762 6.80952ZM15.7698 6.37728C15.7685 7.33174 15.0251 8.10484 14.1086 8.10452C13.1916 8.1042 12.4484 7.32964 12.4485 6.37439C12.4487 5.41913 13.1921 4.64483 14.1092 4.64483C14.55 4.64483 14.9728 4.82744 15.2843 5.15241C15.5958 5.47738 15.7705 5.91804 15.7698 6.37728ZM12.249 18.848C12.3909 18.8097 12.5417 18.852 12.646 18.9592L14.485 20.8748C14.588 20.9835 14.6285 21.1406 14.5918 21.2884C14.5551 21.4362 14.4465 21.5531 14.3058 21.5961L11.7311 22.3625C11.6941 22.374 11.6556 22.3796 11.617 22.379C11.4869 22.3784 11.3647 22.3145 11.2864 22.2064C11.2081 22.0983 11.1827 21.9583 11.2178 21.8279L11.9536 19.1459C11.9949 18.9993 12.1071 18.8862 12.249 18.848ZM17.6555 13.0623C17.493 12.8941 17.2305 12.8941 17.068 13.0623L12.9076 17.396C12.7461 17.5653 12.7461 17.8387 12.9076 18.008L15.3982 20.6032C15.5602 20.7686 15.8195 20.7686 15.9815 20.6032L20.1427 16.2686C20.3015 16.0998 20.3015 15.8297 20.1427 15.661L17.6555 13.0623ZM18.1238 12.1431C18.1238 12.0279 18.1679 11.9173 18.2462 11.8359C19.0981 10.9303 20.493 10.914 21.3642 11.7994C22.2119 12.6858 22.2119 14.1193 21.3642 15.0057C21.2807 15.0932 21.1692 15.1454 21.0509 15.1524C20.9373 15.1595 20.8253 15.1214 20.7376 15.0456L18.2462 12.4504C18.1679 12.369 18.1238 12.2584 18.1238 12.1431Z" fill="#5A5A5A"/>
</g>
</svg>
