<?xml version="1.0" encoding="UTF-8"?>
<svg width="24px" height="24px" viewBox="0 0 24 24" version="1.1" xmlns="http://www.w3.org/2000/svg" xmlns:xlink="http://www.w3.org/1999/xlink">
    <title>1. Interface Essentials/tags_add</title>
    <g id="1.-Interface-Essentials/tags_add" stroke="none" stroke-width="1" fill="none" fill-rule="evenodd">
        <path d="M16.5834505,11.1666518 C19.5750461,11.1666518 22.0002135,13.5918193 22.0002135,16.5834149 C22.0002135,19.5750105 19.5750461,22.000178 16.5834505,22.000178 C13.5918549,22.000178 11.1666874,19.5750105 11.1666874,16.5834149 C11.1703607,13.5933421 13.5933777,11.1703251 16.5834505,11.1666518 Z M16.5834505,13.8750334 C16.2382664,13.8750334 15.9584394,14.1548604 15.9584394,14.5000445 L15.9584394,14.5000445 L15.9584394,15.7500667 C15.9584394,15.8651281 15.8651637,15.9584038 15.7501023,15.9584038 L15.7501023,15.9584038 L14.5000801,15.9584038 C14.154896,15.9584038 13.875069,16.2382308 13.875069,16.5834149 C13.875069,16.928599 14.154896,17.208426 14.5000801,17.208426 L14.5000801,17.208426 L15.7501023,17.208426 C15.8651637,17.208426 15.9584394,17.3017017 15.9584394,17.4167631 L15.9584394,17.4167631 L15.9584394,18.6667853 C15.9584394,19.0119694 16.2382664,19.2917964 16.5834505,19.2917964 C16.9286346,19.2917964 17.2084616,19.0119694 17.2084616,18.6667853 L17.2084616,18.6667853 L17.2084616,17.4167631 C17.2084616,17.3017017 17.3017373,17.208426 17.4167986,17.208426 L17.4167986,17.208426 L18.6668209,17.208426 C19.012005,17.208426 19.291832,16.928599 19.291832,16.5834149 C19.291832,16.2382308 19.012005,15.9584038 18.6668209,15.9584038 L18.6668209,15.9584038 L17.4167986,15.9584038 C17.3017373,15.9584038 17.2084616,15.8651281 17.2084616,15.7500667 L17.2084616,15.7500667 L17.2084616,14.5000445 C17.2084616,14.1548604 16.9286346,13.8750334 16.5834505,13.8750334 Z M17.0717925,1.99982204 L17.2156014,2.00593981 C18.0687644,2.07885276 18.7384888,2.7944743 18.7384888,3.66651837 L18.7384888,3.66651837 L18.7384888,6.99991102 C18.6984418,7.74199606 18.4105764,8.44918821 17.9209743,9.00828009 L17.9209743,9.00828009 L17.1384604,9.80662763 C17.0586953,9.88685777 16.9490085,9.93006773 16.835955,9.92579642 C14.9836121,9.87153101 13.1927145,10.5930255 11.8953068,11.9162232 C10.597899,13.2394208 9.91179007,15.044171 10.0025,16.8950871 C10.0085407,17.0083045 9.96752546,17.1189853 9.88916469,17.2009259 L9.88916469,17.2009259 L8.87497998,18.235111 C8.56656043,18.5531252 8.14296318,18.7333793 7.69995907,18.7351307 L7.69995907,18.7351307 L7.68995889,18.7351307 C7.25023726,18.7367191 6.82821628,18.5620276 6.51827137,18.2501112 L6.51827137,18.2501112 L2.48819965,14.2183728 C1.83755151,13.5675281 1.83755151,12.5125089 2.48819965,11.8616642 L2.48819965,11.8616642 L11.5108602,2.8331702 C12.0599465,2.32388681 12.773359,2.02823305 13.5217293,1.99982204 L13.5217293,1.99982204 L17.0717925,1.99982204 Z M14.1550739,4.91654061 C13.234583,4.91654061 12.4883776,5.66274598 12.4883776,6.58323694 C12.4883776,7.5037279 13.234583,8.24993327 14.1550739,8.24993327 C15.0755649,8.24993327 15.8217703,7.5037279 15.8217703,6.58323694 C15.8217703,5.66274598 15.0755649,4.91654061 14.1550739,4.91654061 Z" id="ðŸ–-Color" fill="#5A5A5A"></path>
        <rect id="_Transparent_Rectangle_" x="0" y="0" width="24" height="24"></rect>
    </g>
</svg>