<?xml version="1.0" encoding="UTF-8"?>
<svg width="24px" height="24px" viewBox="0 0 24 24" version="1.1" xmlns="http://www.w3.org/2000/svg" xmlns:xlink="http://www.w3.org/1999/xlink">
    <title>1. Interface Essentials/tags_alert</title>
    <g id="1.-Interface-Essentials/tags_alert" stroke="none" stroke-width="1" fill="none" fill-rule="evenodd">
        <path d="M16.6029818,11.5858226 C17.0489573,11.5858226 17.4583672,11.8324488 17.6668526,12.2266924 L17.6668526,12.2266924 L21.8656626,20.2276008 C22.0581099,20.5965821 22.0429253,21.039466 21.8256581,21.3944 C21.6058032,21.7483684 21.2188973,21.9638763 20.8022085,21.9644647 L20.8022085,21.9644647 L12.403755,21.9644647 C11.9870247,21.9640361 11.6000464,21.7484879 11.3803055,21.3944 C11.1630383,21.039466 11.1478537,20.5965821 11.3403009,20.2276008 L11.3403009,20.2276008 L15.539111,12.2266924 C15.7475964,11.8324488 16.1570062,11.5858226 16.6029818,11.5858226 Z M16.6033985,18.8524447 C16.1431089,18.8524447 15.7699705,19.2255831 15.7699705,19.6858726 C15.7699705,20.1461622 16.1431089,20.5193006 16.6033985,20.5193006 C17.063688,20.5193006 17.4368264,20.1461622 17.4368264,19.6858726 C17.4368264,19.2255831 17.063688,18.8524447 16.6033985,18.8524447 Z M17.019279,2.03553532 L17.1622012,2.04210006 C18.0100373,2.11733942 18.6744364,2.82898277 18.6753004,3.69572381 L18.6753004,3.69572381 L18.6753004,7.0161008 C18.6348707,7.7577327 18.3463342,8.46425085 17.8560407,9.0221619 L17.8560407,9.0221619 L16.666739,10.235633 C16.5964584,10.304973 16.5035601,10.3466885 16.4050426,10.3531464 C15.5689199,10.4162114 14.8241538,10.9052692 14.4339855,11.64746 L14.4339855,11.64746 L13.4538742,13.5143386 L8.84668447,18.2165391 C8.53884313,18.5323484 8.11674101,18.7108029 7.67571819,18.7116025 L7.67571819,18.7116025 L7.66571705,18.7116025 C7.22797314,18.7128908 6.8078738,18.5391497 6.49891791,18.2290406 L6.49891791,18.2290406 L2.48429543,14.2127512 C1.83856819,13.5627124 1.83856819,12.5133567 2.48429543,11.8633178 L2.48429543,11.8633178 L11.47865,2.87313042 C12.0315238,2.37642855 12.7368877,2.08252695 13.4788771,2.03970246 L13.4788771,2.03970246 L17.019279,2.03553532 Z M16.6033985,14.284426 C16.438138,14.284426 16.2796582,14.3501324 16.1628796,14.4670673 C16.046101,14.5840023 15.9806066,14.7425698 15.9808272,14.9078301 L15.9808272,14.9078301 L15.9808272,17.3989463 C15.9808272,17.7427826 16.2595622,18.021517 16.6033985,18.021517 C16.9472348,18.021517 17.2259697,17.7427826 17.2259697,17.3989463 L17.2259697,17.3989463 L17.2259697,14.9078301 C17.2261904,14.7425698 17.160696,14.5840023 17.0439174,14.4670673 C16.9271387,14.3501324 16.768659,14.284426 16.6033985,14.284426 Z M14.1072817,4.94086184 C13.1899247,4.94086184 12.4462598,5.68453003 12.4462598,6.60188711 C12.4462598,7.51924419 13.1899247,8.26290903 14.1072817,8.26290903 C15.0246388,8.26290903 15.7683037,7.51924419 15.7683037,6.60188711 L15.7683037,6.60188711 C15.7716374,6.16077849 15.5961807,5.73778507 15.2839573,5.42618702 C14.9717338,5.11458898 14.5483895,4.93997987 14.1072817,4.94086184 Z" id="ðŸ–-Color" fill="#5A5A5A"></path>
        <rect id="_Transparent_Rectangle_" x="0" y="0" width="24" height="24"></rect>
    </g>
</svg>