<?xml version="1.0" encoding="UTF-8"?>
<svg width="24px" height="24px" viewBox="0 0 24 24" version="1.1" xmlns="http://www.w3.org/2000/svg" xmlns:xlink="http://www.w3.org/1999/xlink">
    <title>1. Interface Essentials/tags_favorite_star</title>
    <g id="1.-Interface-Essentials/tags_favorite_star" stroke="none" stroke-width="1" fill="none" fill-rule="evenodd">
        <path d="M16.3251816,11.1638365 C16.7346511,11.1591385 17.1114286,11.3869051 17.2974983,11.7516874 L17.2974983,11.7516874 L17.3083307,11.7741855 L18.4282374,14.3731356 C18.4610448,14.4497679 18.5365292,14.499325 18.6198881,14.4989584 L18.6198881,14.4989584 L20.7030478,14.4989584 C21.1282054,14.4891131 21.5154855,14.74222 21.6771333,15.135572 C21.8349145,15.5335518 21.7361001,15.9874396 21.4271542,16.2838097 L21.4271542,16.2838097 L19.5839744,17.9270061 C19.5166732,17.9866696 19.4954755,18.0829002 19.5314788,18.1653196 L19.5314788,18.1653196 L20.5555601,20.5092909 C20.7406758,20.9266277 20.6341449,21.4157931 20.2922487,21.7183568 C20.0955005,21.8982715 19.8389121,21.9986498 19.5723087,22 C19.3845839,21.9993871 19.2002406,21.9499992 19.0373533,21.8566786 L19.0373533,21.8566786 L16.4442361,20.395967 C16.3805921,20.3601886 16.3028971,20.3601886 16.2392532,20.395967 L16.2392532,20.395967 L13.6461359,21.8566786 C13.2427383,22.0892629 12.7350831,22.033269 12.3920738,21.7183568 C12.0496031,21.4157389 11.9433114,20.9257847 12.1295956,20.5084576 L12.1295956,20.5084576 L13.1486774,18.163653 C13.1846806,18.0812336 13.163483,17.9850031 13.0961817,17.9253396 L13.0961817,17.9253396 L11.2680008,16.2963086 C10.946767,15.9997867 10.8411255,15.5361561 11.0021896,15.1297392 C11.1636114,14.7377735 11.5500028,14.4859232 11.9737753,14.4964586 L11.9737753,14.4964586 L14.056935,14.4964586 C14.1399651,14.4965306 14.2151752,14.4474804 14.2485857,14.371469 L14.2485857,14.371469 L15.3668259,11.7741855 C15.5443446,11.4051663 15.9157121,11.1686816 16.3251816,11.1638365 Z M17.3191632,2 L17.4629576,2.00611715 C18.3160342,2.07902273 18.985691,2.7945719 18.985691,3.66652779 L18.985691,3.66652779 L18.985691,6.99958337 C18.9582768,7.74548457 18.6674862,8.45755235 18.164926,9.00941588 L18.164926,9.00941588 L17.3066642,9.88934255 C17.2006653,9.99748012 17.04434,10.0395922 16.8983649,9.99933339 C16.7160081,9.9465834 16.5273941,9.91855755 16.3375783,9.916007 C15.4398934,9.92453268 14.6246191,10.4411421 14.233587,11.2492292 L14.233587,11.2492292 L14.2248143,11.2688847 C14.1501886,11.440201 13.6918728,12.5020878 13.4778166,12.9990834 C13.4114621,13.1511212 13.2612351,13.2493088 13.0953485,13.2490626 L13.0953485,13.2490626 L11.969609,13.2490626 C11.1239164,13.2379256 10.3424813,13.6989304 9.94321899,14.4445238 C9.54395671,15.1901171 9.59340009,16.096054 10.0714338,16.7937672 C10.1812351,16.9576435 10.1610626,17.1760629 10.0231045,17.3170569 L10.0231045,17.3170569 L9.1231795,18.2336472 C8.81490028,18.5517883 8.39127561,18.7320541 7.94827741,18.7336164 L7.94827741,18.7336164 L7.93827824,18.7336164 C7.49860108,18.7352046 7.07662277,18.5605308 6.7667092,18.2486459 L6.7667092,18.2486459 L2.73704501,14.2173152 C2.42436439,13.9047613 2.24869159,13.4807711 2.24869159,13.0386634 C2.24869159,12.5965558 2.42436439,12.1725656 2.73704501,11.8600117 L2.73704501,11.8600117 L11.7596265,2.83743021 C12.3084246,2.32731725 13.022364,2.03156772 13.7711255,2.00416632 L13.7711255,2.00416632 L17.3191632,2 Z M14.4027395,4.91642363 C13.4823417,4.91642363 12.7362117,5.66255354 12.7362117,6.58295142 C12.7362117,7.5033493 13.4823417,8.24947921 14.4027395,8.24947921 C15.3231374,8.24947921 16.0692673,7.5033493 16.0692673,6.58295142 C16.0692673,5.66255354 15.3231374,4.91642363 14.4027395,4.91642363 Z" id="ðŸ–-Color" fill="#5A5A5A"></path>
        <rect id="_Transparent_Rectangle_" x="0" y="0" width="24" height="24"></rect>
    </g>
</svg>