<?xml version="1.0" encoding="UTF-8"?>
<svg width="24px" height="24px" viewBox="0 0 24 24" version="1.1" xmlns="http://www.w3.org/2000/svg" xmlns:xlink="http://www.w3.org/1999/xlink">
    <title>1. Interface Essentials/tags_favorite</title>
    <g id="1.-Interface-Essentials/tags_favorite" stroke="none" stroke-width="1" fill="none" fill-rule="evenodd">
        <path d="M13.4228862,12.454579 C14.3568266,12.2981419 15.3085867,12.6048305 15.9754868,13.2771114 L15.9754868,13.2771114 L16.2254967,13.5271213 C16.3068061,13.6081767 16.4383656,13.6081767 16.519675,13.5271213 L16.519675,13.5271213 L16.7738516,13.2771114 C17.9210383,12.1296946 19.781182,12.1295081 20.9285988,13.2766948 C22.0760156,14.4238814 22.0762022,16.2840251 20.9290155,17.4314419 L20.9290155,17.4314419 L16.6730143,21.871617 C16.5944231,21.953628 16.4857578,22 16.3721691,22 C16.2585805,22 16.1499151,21.953628 16.0713239,21.871617 L16.0713239,21.871617 L11.8103226,17.4256084 C11.0332553,16.6450054 10.7583064,15.4952214 11.0981709,14.4475256 C11.4380353,13.3998297 12.3355659,12.630389 13.4228862,12.454579 Z M17.282205,2 L17.4260171,2.0061179 C18.2791985,2.07903243 18.9489374,2.79466945 18.9489374,3.6667324 L18.9489374,3.6667324 L18.9489374,7.0001972 C18.9082119,7.74366288 18.6188227,8.45187406 18.1272384,9.01110984 L18.1272384,9.01110984 L15.8321478,11.3545356 C15.7150987,11.4713649 15.5395014,11.5068126 15.3862969,11.4445391 C13.8298376,10.8475448 12.0674904,11.2315895 10.9005489,12.422058 C9.73360736,13.6125266 9.38481226,15.3821876 10.0127517,16.926422 C10.0768439,17.0793921 10.0441138,17.2558071 9.92941505,17.3756064 L9.92941505,17.3756064 L9.08604845,18.2348069 C8.77736589,18.552955 8.35345253,18.7332158 7.91016874,18.7348356 L7.91016874,18.7348356 C7.4614643,18.7362741 7.03958909,18.561943 6.72928884,18.2506409 L6.72928884,18.2506409 L2.69912989,14.2188152 C2.38641088,13.9062229 2.21071652,13.4821806 2.21071652,13.0400187 C2.21071652,12.5978568 2.38641088,12.1738146 2.69912989,11.8612222 L2.69912989,11.8612222 L11.7211524,2.83753303 C12.2778185,2.33911112 12.9876624,2.0451799 13.7337317,2.00416683 L13.7337317,2.00416683 L17.282205,2 Z M14.3654233,4.9167817 C13.4449124,4.9167817 12.6986909,5.66300321 12.6986909,6.5835141 C12.6986909,7.50402499 13.4449124,8.2502465 14.3654233,8.2502465 C15.2859342,8.2502465 16.0321557,7.50402499 16.0321557,6.5835141 C16.0321557,5.66300321 15.2859342,4.9167817 14.3654233,4.9167817 Z" id="ðŸ–-Color" fill="#5A5A5A"></path>
        <rect id="_Transparent_Rectangle_" x="0" y="0" width="24" height="24"></rect>
    </g>
</svg>