<svg width="24" height="24" viewBox="0 0 24 24" fill="none" xmlns="http://www.w3.org/2000/svg">
<g id="tags_remove">
<path id="tags_remove_2" fill-rule="evenodd" clip-rule="evenodd" d="M17.2 9.8125L17.9858 9.01C18.4774 8.45111 18.7668 7.74319 18.8075 7V3.66667C18.8075 2.74619 18.0613 2 17.1408 2L13.5908 2.00417C12.8456 2.04528 12.1366 2.33922 11.5808 2.8375L2.55834 11.8608C2.24563 12.1734 2.06995 12.5974 2.06995 13.0396C2.06995 13.4817 2.24563 13.9058 2.55834 14.2183L6.58751 18.25C6.8981 18.5613 7.32023 18.7357 7.76001 18.7342H7.77001C8.21279 18.7326 8.63618 18.5523 8.94417 18.2342L9.75417 17.4083C9.8352 17.3237 9.87614 17.2084 9.86667 17.0917C9.72085 15.1765 10.4081 13.2915 11.7524 11.9196C13.0966 10.5477 14.9673 9.82231 16.885 9.92917C17.0019 9.93716 17.1165 9.89468 17.2 9.8125ZM12.5575 6.58333C12.5575 5.66286 13.3037 4.91667 14.2242 4.91667C15.1446 4.91667 15.8908 5.66286 15.8908 6.58333C15.8908 7.50381 15.1446 8.25 14.2242 8.25C13.3037 8.25 12.5575 7.50381 12.5575 6.58333ZM16.5133 11.1667C13.5218 11.1667 11.0967 13.5918 11.0967 16.5833C11.0967 19.5749 13.5218 22 16.5133 22C19.5049 22 21.93 19.5749 21.93 16.5833C21.9263 13.5933 19.5034 11.1703 16.5133 11.1667ZM18.7225 17.9092C18.8849 18.0662 18.95 18.2986 18.8927 18.5171C18.8354 18.7356 18.6646 18.9061 18.4461 18.9632C18.2275 19.0203 17.9952 18.955 17.8383 18.7925L16.66 17.6142C16.5787 17.5331 16.4471 17.5331 16.3658 17.6142L15.1875 18.7917C14.9424 19.0286 14.5526 19.0254 14.3114 18.7845C14.0702 18.5435 14.0666 18.1537 14.3033 17.9083L15.4817 16.73C15.5209 16.6909 15.5429 16.6378 15.5429 16.5825C15.5429 16.5272 15.5209 16.4741 15.4817 16.435L14.3033 15.2567C14.0666 15.0113 14.0702 14.6215 14.3114 14.3805C14.5526 14.1396 14.9424 14.1364 15.1875 14.3733L16.3658 15.5517C16.4471 15.6327 16.5787 15.6327 16.66 15.5517L17.8383 14.3733C18.0835 14.1364 18.4733 14.1396 18.7145 14.3805C18.9557 14.6215 18.9593 15.0113 18.7225 15.2567L17.5442 16.435C17.505 16.4741 17.483 16.5272 17.483 16.5825C17.483 16.6378 17.505 16.6909 17.5442 16.73L18.7225 17.9092Z" fill="#5A5A5A"/>
</g>
</svg>
