<?xml version="1.0" encoding="UTF-8"?>
<svg width="24px" height="24px" viewBox="0 0 24 24" version="1.1" xmlns="http://www.w3.org/2000/svg" xmlns:xlink="http://www.w3.org/1999/xlink">
    <title>1. Interface Essentials/tags_check</title>
    <g id="1.-Interface-Essentials/tags_check" stroke="none" stroke-width="1" fill="none" fill-rule="evenodd">
        <path d="M16.5483637,11.1666667 C19.5383833,11.1703399 21.9613571,13.5933138 21.9650304,16.5833333 C21.9650304,19.5748757 19.5399061,22 16.5483637,22 C13.5568213,22 11.1316971,19.5748757 11.1316971,16.5833333 C11.1316971,13.5917909 13.5568213,11.1666667 16.5483637,11.1666667 Z M19.1508637,14.625 C18.8747213,14.4178932 18.4829705,14.4738576 18.2758637,14.75 L18.2758637,14.75 L16.0016971,17.7866667 C15.965325,17.8348295 15.9099218,17.864934 15.8497221,17.8692454 C15.7895225,17.8735568 15.7303947,17.8516548 15.6875304,17.8091667 L15.6875304,17.8091667 L14.6041971,16.7258333 C14.4473518,16.5632882 14.2150062,16.4980199 13.9964619,16.5551143 C13.7779176,16.6122086 13.6071849,16.7827804 13.5498845,17.0012708 C13.4925841,17.2197611 13.5576332,17.4521682 13.7200304,17.6091667 L13.7200304,17.6091667 L14.9700304,18.8591667 C15.2019769,19.0948678 15.5185114,19.2280824 15.8491971,19.2291667 L15.8491971,19.2291667 L15.9425304,19.2291667 C16.3063979,19.2033795 16.6412184,19.0207501 16.8591971,18.7283333 L16.8591971,18.7283333 L19.2758637,15.5 C19.4829705,15.2238576 19.4270061,14.8321068 19.1508637,14.625 Z M17.1058637,2 L17.2496701,2.00611766 C18.1028178,2.07902931 18.7725304,2.79463811 18.7725304,3.66666667 L18.7725304,3.66666667 L18.7725304,7 C18.7318065,7.74343636 18.4424286,8.45161961 17.9508637,9.01083333 L17.9508637,9.01083333 L17.1666971,9.81083333 C17.0845412,9.89263401 16.9716478,9.93591488 16.8558637,9.93 C14.9596528,9.8404153 13.1153629,10.5644694 11.7865599,11.92017 C10.4577569,13.2758705 9.77080241,15.1342981 9.89836372,17.0283333 C9.90772873,17.1441042 9.86673019,17.2582927 9.78586372,17.3416667 L9.78586372,17.3416667 L8.90919706,18.2341667 C8.60078299,18.5521753 8.17719329,18.7324262 7.73419706,18.7341745 L7.73419706,18.7341745 L7.72419706,18.7341745 C7.28469524,18.7355212 6.86287097,18.5612112 6.55253039,18.25 L6.55253039,18.25 L2.52336372,14.2183333 C2.21065704,13.9057533 2.03496961,13.4817278 2.03496961,13.0395833 C2.03496961,12.5974389 2.21065704,12.1734134 2.52336372,11.8608333 L2.52336372,11.8608333 L11.5441971,2.8375 C12.1012402,2.33920875 12.8112746,2.04532035 13.5575304,2.00416667 L13.5575304,2.00416667 L17.1058637,2 Z M14.1891971,4.91666667 C13.2687225,4.91666667 12.5225304,5.66285875 12.5225304,6.58333333 C12.5225304,7.50380792 13.2687225,8.25 14.1891971,8.25 C15.1096716,8.25 15.8558637,7.50380792 15.8558637,6.58333333 C15.8558637,5.66285875 15.1096716,4.91666667 14.1891971,4.91666667 Z" id="ðŸ–-Color" fill="#5A5A5A"></path>
        <rect id="_Transparent_Rectangle_" x="0" y="0" width="24" height="24"></rect>
    </g>
</svg>