<svg width="24" height="24" viewBox="0 0 24 24" fill="none" xmlns="http://www.w3.org/2000/svg">
<g id="tags_search">
<path id="Shape" fill-rule="evenodd" clip-rule="evenodd" d="M18.1916 9.07526C18.6919 8.52955 18.9863 7.83813 19.0275 7.11228V3.85693C19.0275 2.95798 18.2684 2.22925 17.332 2.22925L13.7223 2.23332C12.9631 2.27351 12.2408 2.56052 11.6742 3.04716L2.49642 11.8602C1.83453 12.4958 1.83453 13.5261 2.49642 14.1618L6.59613 18.0991C6.91184 18.403 7.34096 18.5733 7.78807 18.572H7.79824C8.2489 18.5703 8.67982 18.3942 8.99357 18.0836L9.74976 17.3431C9.84974 17.244 9.88948 17.1025 9.85488 16.9687C9.54168 15.7258 9.69165 14.4168 10.2788 13.269C10.7781 12.2782 11.5612 11.4446 12.5363 10.8657C13.8131 10.0514 15.3797 9.76996 16.8768 10.0861C17.0179 10.116 17.1652 10.0749 17.2676 9.977L18.1916 9.07526ZM12.6694 6.70536C12.6694 5.80642 13.4285 5.07769 14.3649 5.07769C15.3013 5.07769 16.0604 5.80642 16.0604 6.70536C16.0604 7.60431 15.3013 8.33304 14.3649 8.33304C13.4285 8.33304 12.6694 7.60431 12.6694 6.70536ZM10.9671 15.6804C10.9646 17.3241 11.897 18.8381 13.3984 19.6283C14.8998 20.4185 16.7308 20.3589 18.173 19.4729C18.2568 19.4216 18.3664 19.4331 18.4366 19.5005L20.5425 21.5221C20.7553 21.7337 21.0705 21.8185 21.3669 21.744C21.6633 21.6696 21.8948 21.4474 21.9724 21.1628C22.0499 20.8783 21.9615 20.5757 21.7412 20.3713L19.6328 18.3498C19.5624 18.282 19.5508 18.1763 19.6048 18.0959C20.6772 16.4803 20.5662 14.3901 19.3284 12.8875C18.0906 11.385 15.9974 10.7997 14.1128 11.4292C12.2281 12.0586 10.9653 13.7647 10.9663 15.6804H10.9671ZM18.6469 15.6804C18.6476 16.8425 17.9189 17.8905 16.8007 18.3357C15.6825 18.7809 14.3951 18.5355 13.5389 17.714C12.6827 16.8925 12.4263 15.6567 12.8894 14.583C13.3525 13.5093 14.4438 12.8092 15.6543 12.8092C17.3056 12.8109 18.6441 14.0951 18.6469 15.6804Z" fill="#5A5A5A"/>
</g>
</svg>
