<svg width="24" height="24" viewBox="0 0 24 24" fill="none" xmlns="http://www.w3.org/2000/svg">
<g id="tags_refresh">
<path id="Shape" fill-rule="evenodd" clip-rule="evenodd" d="M16.9861 9.83534C16.7505 9.80544 16.5135 9.78998 16.2762 9.78902C12.594 9.7932 9.61 12.9019 9.60643 16.7376C9.60785 17.0303 9.62811 17.3226 9.66707 17.6126C9.68387 17.7413 9.6427 17.8709 9.5555 17.9637L9.13914 18.4059C8.83968 18.7274 8.42844 18.9095 7.9984 18.9112H7.98951C7.56312 18.9125 7.15389 18.7364 6.85281 18.4219L2.94229 14.3476C2.31107 13.6898 2.31107 12.6237 2.94229 11.966L11.6963 2.84636C12.2291 2.33088 12.922 2.032 13.6487 2.00421L17.0904 2C17.9834 2 18.7073 2.75408 18.7073 3.68429V7.05288C18.6806 7.80672 18.3985 8.52636 17.9109 9.08414L17.3208 9.71154C17.2335 9.80439 17.11 9.85007 16.9861 9.83534ZM14.2607 4.94752C13.3677 4.94752 12.6438 5.7016 12.6438 6.63181C12.6438 7.56202 13.3677 8.3161 14.2607 8.3161C15.1537 8.3161 15.8777 7.56202 15.8777 6.63181C15.8777 5.7016 15.1537 4.94752 14.2607 4.94752ZM11.7117 21.1858L12.4951 20.3689C12.5338 20.3287 12.5865 20.3065 12.6412 20.3074C12.6959 20.3084 12.7479 20.3324 12.7853 20.374C13.9667 21.6908 15.7252 22.2645 17.4167 21.8849C19.1081 21.5052 20.4838 20.228 21.0397 18.5212C21.1697 18.0857 20.9433 17.6215 20.5289 17.4742C20.1146 17.3268 19.6629 17.5498 19.5101 17.9772C19.1327 19.1361 18.1934 19.9994 17.0426 20.2453C15.8917 20.4912 14.7021 20.0827 13.9171 19.1722C13.8446 19.0894 13.8475 18.9618 13.9236 18.8825L15.315 17.4323C15.4302 17.3119 15.4646 17.1312 15.4022 16.9741C15.3398 16.817 15.1928 16.7144 15.0296 16.714H11.4255C11.2022 16.714 11.0212 16.9025 11.0212 17.1351V20.8885C11.0247 20.9551 11.0436 21.0198 11.0762 21.0772C11.095 21.1119 11.1187 21.1434 11.1466 21.1706C11.1803 21.2149 11.2228 21.251 11.2711 21.2767C11.4221 21.342 11.596 21.3061 11.7117 21.1858ZM19.8674 12.7213C19.922 12.7213 19.9742 12.6982 20.0121 12.6574L20.8408 11.7942C20.8527 11.7818 20.8677 11.7755 20.8827 11.7692C20.8933 11.7648 20.9039 11.7603 20.9136 11.7537C21.0203 11.6739 21.1582 11.6546 21.2814 11.7024C21.4326 11.7675 21.5312 11.9211 21.5312 12.0914V15.8483C21.5312 16.0808 21.3503 16.2693 21.127 16.2693H17.5245C17.3613 16.269 17.2143 16.1664 17.1519 16.0093C17.0895 15.8522 17.1239 15.6714 17.2391 15.551L18.5804 14.153C18.6575 14.0733 18.6597 13.9441 18.5852 13.8616C17.7965 12.9597 16.6086 12.5595 15.4622 12.8096C14.3158 13.0597 13.3818 13.9227 13.0068 15.0785C12.9132 15.3633 12.6809 15.5745 12.3974 15.6324C12.1138 15.6904 11.8221 15.5864 11.6322 15.3596C11.4422 15.1328 11.3828 14.8176 11.4764 14.5328C12.0339 12.8309 13.4052 11.5565 15.0919 11.1729C16.7785 10.7893 18.5349 11.3523 19.7227 12.6574C19.7606 12.6982 19.8129 12.7213 19.8674 12.7213Z" fill="#5A5A5A"/>
</g>
</svg>
