<?xml version="1.0" encoding="UTF-8"?>
<svg width="24px" height="24px" viewBox="0 0 24 24" version="1.1" xmlns="http://www.w3.org/2000/svg" xmlns:xlink="http://www.w3.org/1999/xlink">
    <title>1. Interface Essentials/tags_share</title>
    <g id="1.-Interface-Essentials/tags_share" stroke="none" stroke-width="1" fill="none" fill-rule="evenodd">
        <path d="M18.2569666,11.6426195 C18.9552959,11.1262911 19.8988409,11.0364938 20.6891783,11.4111456 C21.4795157,11.7857974 21.9788623,12.5595834 21.9763629,13.4057631 C21.9792594,14.2639819 21.4632044,15.0476275 20.6528718,15.4139108 C19.8425391,15.7801942 18.884568,15.662832 18.1960281,15.1129199 C18.1273666,15.0582823 18.0302733,15.0511621 17.9537637,15.0951538 L17.9537637,15.0951538 L15.7119764,16.3872309 C15.6341728,16.4315676 15.5948187,16.5188524 15.6143977,16.6036538 C15.6571616,16.7721154 15.6730448,16.945832 15.6615046,17.1188695 C15.6541532,17.207393 15.7076821,17.2902026 15.7935724,17.3231792 L15.7935724,17.3231792 L17.6980401,18.0564329 C17.7808493,18.0878447 17.8752801,18.0662298 17.9344162,18.0023272 C18.6789765,17.1862054 19.9277546,17.0038226 20.8914448,17.5704561 C21.8551349,18.1370896 22.2533481,19.2878755 21.8343887,20.2954451 C21.4154293,21.3030148 20.301195,21.8742123 19.1959515,21.6480053 C18.090708,21.4217982 17.3160298,20.4640023 17.3615617,19.3800043 C17.3665436,19.2934301 17.3133859,19.2134701 17.229494,19.1813474 L17.229494,19.1813474 L15.3182967,18.4472862 C15.2357806,18.4155036 15.1413544,18.4371946 15.0827618,18.5013919 C14.3801433,19.2736486 13.2181281,19.4837172 12.2710413,19.0096934 C11.3239545,18.5356697 10.8380449,17.500803 11.0952892,16.5056333 C11.3525335,15.5104637 12.2860464,14.8137417 13.3541041,14.8197799 C13.8902274,14.8202659 14.4091495,15.0014689 14.8203087,15.3317655 C14.8891659,15.3859365 14.9859439,15.3930336 15.0625731,15.3495315 L15.0625731,15.3495315 L17.3052016,14.0574545 C17.382392,14.0126017 17.4215477,13.9257569 17.4027803,13.8410316 C17.2272668,13.0117933 17.5586374,12.1589479 18.2569666,11.6426195 Z M17.2135112,2.30278374 L17.3586744,2.30871211 C18.2198718,2.37936771 18.8959032,3.07283398 18.8959032,3.91788003 L18.8959032,3.91788003 L18.8959032,7.14807259 C18.8551111,7.86794181 18.5632693,8.55371365 18.0673251,9.09507116 L18.0673251,9.09507116 L13.5694502,13.5010538 C13.4926968,13.5742766 13.3891239,13.61573 13.28092,13.6165332 C11.3376238,13.6426649 9.77989934,15.1683636 9.7916391,17.0340769 C9.79290704,17.1377309 9.75184059,17.2377398 9.67723644,17.312681 L9.67723644,17.312681 L8.93950757,18.0354366 C8.62834895,18.3438366 8.20065611,18.5185536 7.75342124,18.5199761 L7.75342124,18.5199761 L7.74332688,18.5199761 C7.29946431,18.5215152 6.87346906,18.3522321 6.56060534,18.0499725 L6.56060534,18.0499725 L2.49258158,14.1430546 C1.83580614,13.5123597 1.83580614,12.4900033 2.49258158,11.8593084 L2.49258158,11.8593084 L11.6018928,3.11517717 C12.1624665,2.63220776 12.877929,2.34732847 13.6300164,2.30762903 L13.6300164,2.30762903 L17.2135112,2.30278374 Z M14.2693253,5.12920224 C13.3401659,5.12920224 12.5869333,5.85230547 12.5869333,6.74429852 C12.5869333,7.63629157 13.3401659,8.3593948 14.2693253,8.3593948 C15.1984847,8.3593948 15.9517173,7.63629157 15.9517173,6.74429852 C15.9517173,5.85230547 15.1984847,5.12920224 14.2693253,5.12920224 Z" id="ðŸ–-Color" fill="#5A5A5A"></path>
        <rect id="_Transparent_Rectangle_" x="0" y="0" width="24" height="24"></rect>
    </g>
</svg>