<svg width="24" height="24" viewBox="0 0 24 24" fill="none" xmlns="http://www.w3.org/2000/svg">
<g id="tags_share">
<path id="Shape" fill-rule="evenodd" clip-rule="evenodd" d="M13.2809 13.6165C13.3891 13.6157 13.4927 13.5742 13.5695 13.501L18.0673 9.09502C18.5633 8.55366 18.8551 7.86789 18.8959 7.14802V3.91783C18.8959 3.02584 18.1427 2.30273 17.2135 2.30273L13.63 2.30758C12.8779 2.34728 12.1625 2.63216 11.6019 3.11513L2.49258 11.8593C1.83581 12.49 1.83581 13.5123 2.49258 14.143L6.56061 18.0499C6.87347 18.3522 7.29946 18.5215 7.74333 18.5199H7.75342C8.20066 18.5185 8.62835 18.3438 8.93951 18.0354L9.67724 17.3126C9.75184 17.2377 9.79291 17.1377 9.79164 17.034C9.7799 15.1683 11.3376 13.6426 13.2809 13.6165ZM15.9517 6.74425C15.9517 7.63624 15.1985 8.35935 14.2693 8.35935C13.3402 8.35935 12.5869 7.63624 12.5869 6.74425C12.5869 5.85226 13.3402 5.12915 14.2693 5.12915C15.1985 5.12915 15.9517 5.85226 15.9517 6.74425ZM20.6892 11.4111C21.4793 11.7856 21.9785 12.559 21.9764 13.4049C21.9789 14.2644 21.463 15.0477 20.6529 15.4139C19.8425 15.7801 18.8846 15.6628 18.196 15.1129C18.1274 15.0582 18.0303 15.0511 17.9538 15.0951L15.712 16.3872C15.6342 16.4315 15.5948 16.5188 15.6144 16.6036C15.6572 16.7721 15.673 16.9458 15.6615 17.1188C15.6542 17.2073 15.7077 17.2902 15.7936 17.3231L17.698 18.0564C17.7808 18.0878 17.8753 18.0662 17.9344 18.0023C18.679 17.1862 19.9278 17.0038 20.8914 17.5704C21.8551 18.137 22.2533 19.2878 21.8344 20.2954C21.4154 21.303 20.3012 21.8742 19.196 21.648C18.0907 21.4217 17.316 20.464 17.3616 19.38C17.3665 19.2934 17.3134 19.2134 17.2295 19.1813L15.3183 18.4472C15.2358 18.4155 15.1414 18.4371 15.0828 18.5013C14.3801 19.2736 13.2181 19.4837 12.271 19.0096C11.324 18.5356 10.838 17.5008 11.0953 16.5056C11.3525 15.5104 12.286 14.8137 13.3541 14.8197C13.8902 14.8202 14.4092 15.0014 14.8203 15.3317C14.8892 15.3859 14.9859 15.393 15.0626 15.3495L17.3052 14.0574C17.3824 14.0126 17.4215 13.9257 17.4028 13.841C17.2273 13.0117 17.5586 12.1589 18.257 11.6426C18.9553 11.1262 19.8988 11.0364 20.6892 11.4111ZM21.9764 13.4049C21.9764 13.4052 21.9764 13.4054 21.9764 13.4057V13.4041C21.9764 13.4044 21.9764 13.4046 21.9764 13.4049Z" fill="#5A5A5A"/>
</g>
</svg>
