<svg width="24" height="24" viewBox="0 0 24 24" fill="none" xmlns="http://www.w3.org/2000/svg">
<g id="tags_add">
<path id="Shape" fill-rule="evenodd" clip-rule="evenodd" d="M6.5183 18.25C6.82825 18.562 7.25027 18.7367 7.68999 18.7351H7.69999C8.14299 18.7333 8.56659 18.5531 8.87501 18.235L9.8892 17.2009C9.96756 17.1189 10.0086 17.0082 10.0025 16.895C9.91182 15.0441 10.5979 13.2394 11.8953 11.9162C13.1927 10.593 14.9836 9.87146 16.836 9.92573C16.949 9.93 17.0587 9.88679 17.1385 9.80656L17.921 9.00821C18.4106 8.44912 18.6985 7.74193 18.7385 6.99985V3.66645C18.7385 2.74596 17.9923 1.99976 17.0718 1.99976H13.5218C12.7734 2.02817 12.06 2.32382 11.5109 2.8331L2.48823 11.8616C1.83758 12.5124 1.83758 13.5675 2.48823 14.2183L6.5183 18.25ZM12.4884 6.58317C12.4884 5.66268 13.2346 4.91647 14.1551 4.91647C15.0756 4.91647 15.8218 5.66268 15.8218 6.58317C15.8218 7.50366 15.0756 8.24987 14.1551 8.24987C13.2346 8.24987 12.4884 7.50366 12.4884 6.58317ZM11.1667 16.5833C11.1667 19.5749 13.5919 22.0001 16.5835 22.0001C19.5751 22.0001 22.0002 19.5749 22.0002 16.5833C22.0002 13.5918 19.5751 11.1666 16.5835 11.1666C13.5934 11.1703 11.1704 13.5933 11.1667 16.5833ZM18.6669 15.9583C19.012 15.9583 19.2919 16.2382 19.2919 16.5833C19.2919 16.9285 19.012 17.2084 18.6669 17.2084H17.4168C17.3018 17.2084 17.2085 17.3016 17.2085 17.4167V18.6667C17.2085 19.0119 16.9287 19.2917 16.5835 19.2917C16.2383 19.2917 15.9585 19.0119 15.9585 18.6667V17.4167C15.9585 17.3016 15.8652 17.2084 15.7501 17.2084H14.5001C14.1549 17.2084 13.8751 16.9285 13.8751 16.5833C13.8751 16.2382 14.1549 15.9583 14.5001 15.9583H15.7501C15.8652 15.9583 15.9585 15.8651 15.9585 15.75V14.5C15.9585 14.1548 16.2383 13.875 16.5835 13.875C16.9287 13.875 17.2085 14.1548 17.2085 14.5V15.75C17.2085 15.8651 17.3018 15.9583 17.4168 15.9583H18.6669Z" fill="#5A5A5A"/>
</g>
</svg>
