<?xml version="1.0" encoding="UTF-8"?>
<svg width="24px" height="24px" viewBox="0 0 24 24" version="1.1" xmlns="http://www.w3.org/2000/svg" xmlns:xlink="http://www.w3.org/1999/xlink">
    <title>1. Interface Essentials/tags_search</title>
    <g id="1.-Interface-Essentials/tags_search" stroke="none" stroke-width="1" fill="none" fill-rule="evenodd">
        <path d="M14.1127637,11.4292382 C15.9974305,10.7997823 18.0905929,11.3850625 19.3284051,12.8876114 C20.5662173,14.3901602 20.6771587,16.4803857 19.6048435,18.0959347 C19.5508003,18.1763563 19.5624467,18.2820639 19.6328192,18.3498525 L19.6328192,18.3498525 L21.7411712,20.3714289 C21.9615491,20.5757631 22.0499321,20.8783513 21.97235,21.1628934 C21.8947678,21.4474355 21.6632942,21.6696502 21.3668962,21.744129 C21.0704981,21.8186079 20.7553021,21.7337603 20.542454,21.5221974 L20.542454,21.5221974 L18.4366452,19.500621 C18.3663751,19.433225 18.2567743,19.4217222 18.1729952,19.4729505 C16.7307896,20.3589628 14.8998121,20.4185603 13.3984052,19.628361 C11.8969984,18.8381618 10.9646431,17.324206 10.9671279,15.6804601 L10.9671279,15.6804601 C10.9653374,13.7648118 12.2280969,12.0586941 14.1127637,11.4292382 Z M17.3320281,2.22932691 L17.4783222,2.23530146 C18.3462285,2.30650749 19.0275263,3.00537602 19.0275263,3.85700518 L19.0275263,3.85700518 L19.0275263,7.11236172 C18.9863016,7.83820777 18.6918794,8.52962815 18.1916457,9.07534171 L18.1916457,9.07534171 L17.2675992,9.97707547 C17.1652162,10.075015 17.0179053,10.1161214 16.8767869,10.0861299 C15.3796958,9.77003747 13.8130738,10.0514419 12.5363115,10.8657878 C11.5611957,11.4446576 10.7780992,12.278298 10.2787556,13.2690548 C9.691648,14.4169039 9.54168175,15.7258573 9.85488108,16.9687675 C9.88947706,17.1026096 9.84974197,17.2441178 9.74976019,17.3431335 L9.74976019,17.3431335 L8.99356799,18.0837271 C8.6798187,18.3942965 8.24890136,18.5703308 7.79824177,18.5720382 L7.79824177,18.5720382 L7.78806878,18.5720382 C7.34096405,18.5733534 6.91184268,18.403121 6.59613354,18.09919 L6.59613354,18.09919 L2.4964189,14.1618363 C1.83452703,13.5262282 1.83452703,12.4959073 2.4964189,11.8602992 L2.4964189,11.8602992 L11.6741506,3.04723524 C12.2408301,2.56060054 12.9631473,2.27358708 13.7223125,2.2333961 L13.7223125,2.2333961 L17.3320281,2.22932691 Z M15.6543327,12.8092357 C14.4438032,12.8092357 13.3525022,13.50936 12.8894111,14.5830712 C12.4263201,15.6567823 12.6826613,16.8925748 13.5388774,17.7140766 C14.3950935,18.5355784 15.6825225,18.7809655 16.8007089,18.3357896 C17.9188954,17.8906138 18.6475728,16.8425682 18.6468875,15.6804601 C18.6440845,14.0952071 17.3056392,12.8110277 15.6543327,12.8092357 Z M14.3649063,5.07776388 C13.4285085,5.07776388 12.6694081,5.80650026 12.6694081,6.70544215 C12.6694081,7.60438403 13.4285085,8.33312042 14.3649063,8.33312042 C15.3013041,8.33312042 16.0604045,7.60438403 16.0604045,6.70544215 C16.0604045,5.80650026 15.3013041,5.07776388 14.3649063,5.07776388 Z" id="ðŸ–-Color" fill="#5A5A5A"></path>
        <rect id="_Transparent_Rectangle_" x="0" y="0" width="24" height="24"></rect>
    </g>
</svg>