<?xml version="1.0" encoding="UTF-8"?>
<svg width="24px" height="24px" viewBox="0 0 24 24" version="1.1" xmlns="http://www.w3.org/2000/svg" xmlns:xlink="http://www.w3.org/1999/xlink">
    <title>1. Interface Essentials/tags_edit</title>
    <g id="1.-Interface-Essentials/tags_edit" stroke="none" stroke-width="1" fill="none" fill-rule="evenodd">
        <path d="M12.2489776,18.8480091 C12.3908995,18.8097605 12.5416758,18.8520231 12.6460059,18.9592962 L12.6460059,18.9592962 L14.4849732,20.8748871 C14.5879554,20.9835643 14.6285275,21.140623 14.5918088,21.2884583 C14.5550902,21.4362937 14.4464847,21.5531483 14.305826,21.5961631 L14.305826,21.5961631 L11.7311051,22.3625731 C11.6940745,22.3740579 11.6555843,22.3796184 11.6169508,22.3790643 C11.4869348,22.3784065 11.3646677,22.3145592 11.2863698,22.2064365 C11.2080719,22.0983137 11.1827212,21.9583133 11.2178274,21.8279088 L11.2178274,21.8279088 L11.953581,19.1459079 C11.9948752,18.9993884 12.1070557,18.8862577 12.2489776,18.8480091 Z M17.0680266,13.062366 C17.2305246,12.8941014 17.4929649,12.8941014 17.6554629,13.062366 L17.6554629,13.062366 L20.1426933,15.6610426 C20.3014856,15.8297932 20.3014856,16.0998651 20.1426933,16.2686156 L20.1426933,16.2686156 L15.9814777,20.6032152 C15.8194771,20.7686239 15.5602081,20.7686239 15.3982076,20.6032152 L15.3982076,20.6032152 L12.9076442,18.0080104 C12.7461103,17.8387417 12.7461103,17.5653663 12.9076442,17.3960976 L12.9076442,17.3960976 Z M17.0171987,1.62089798 L17.1601178,1.62786611 C18.0079539,1.70691531 18.6727275,2.44706248 18.6761856,3.34987722 L18.6761856,3.34987722 L18.6761856,6.80957161 C18.6490649,7.58472363 18.3588254,8.32471642 17.8571077,8.89788689 L17.8571077,8.89788689 L8.84475134,18.4741057 C8.53686143,18.8034521 8.11452842,18.9896245 7.67321168,18.9905489 L7.67321168,18.9905489 C7.22626057,18.991759 6.80620305,18.8104841 6.4975058,18.4871251 L6.4975058,18.4871251 L2.48377424,14.3035509 C1.83874192,13.626679 1.83874192,12.5345074 2.48377424,11.8576355 L2.48377424,11.8576355 L11.4777992,2.48885944 C12.0247952,1.95838443 12.7365904,1.65034401 13.4834152,1.62089798 L13.4834152,1.62089798 L17.0171987,1.62089798 Z M18.2462322,11.8359364 C19.0981334,10.9303362 20.4930277,10.9140276 21.3642275,11.7994821 C22.2119242,12.6858414 22.2119242,14.1193724 21.3642275,15.0057317 C21.2807425,15.0932132 21.1691572,15.145457 21.0509281,15.1524172 C20.9372687,15.15957 20.8252555,15.1214006 20.7376288,15.0456579 L20.7376288,15.0456579 L18.2462322,12.4504532 C18.1678726,12.3690347 18.123834,12.2584837 18.123834,12.1431948 C18.123834,12.0279059 18.1678726,11.9173549 18.2462322,11.8359364 Z M14.1091807,4.64487572 C13.1921356,4.64487572 12.4486809,5.41917854 12.4485276,6.37443374 C12.4483743,7.32968894 13.1915805,8.10425052 14.1086254,8.10457012 C15.0256704,8.10488951 15.7693738,7.33084597 15.7698358,6.37559088 L15.7698358,6.37559088 L15.7619406,6.20617394 C15.7246925,5.80973381 15.5568913,5.43680758 15.2843245,5.1524565 C14.9728197,4.82748383 14.5500467,4.64487572 14.1091807,4.64487572 Z" id="ðŸ–-Color" fill="#5A5A5A"></path>
        <rect id="_Transparent_Rectangle_" x="0" y="0" width="24" height="24"></rect>
    </g>
</svg>