<?xml version="1.0" encoding="UTF-8"?>
<svg width="24px" height="24px" viewBox="0 0 24 24" version="1.1" xmlns="http://www.w3.org/2000/svg" xmlns:xlink="http://www.w3.org/1999/xlink">
    <title>1. Interface Essentials/tags_block</title>
    <g id="1.-Interface-Essentials/tags_block" stroke="none" stroke-width="1" fill="none" fill-rule="evenodd">
        <path d="M16.4684553,10.9379434 C19.521888,10.9416946 21.9962489,13.4160555 22,16.4694881 C22,19.5244758 19.5234431,22.0010327 16.4684553,22.0010327 C13.4134676,22.0010327 10.9369107,19.5244758 10.9369107,16.4694881 C10.9369107,13.4145003 13.4134676,10.9379434 16.4684553,10.9379434 Z M19.6887697,14.5700182 C19.621301,14.5600666 19.5531663,14.5831959 19.5056989,14.6321642 L19.5056989,14.6321642 L14.6311315,19.5058806 C14.5828873,19.5536864 14.5602533,19.6215863 14.570164,19.6887776 C14.5800747,19.755969 14.6213488,19.8144424 14.6813409,19.8462833 C15.2304629,20.1426021 15.8444849,20.2981544 16.4684553,20.299019 C18.5828071,20.297143 20.2964914,18.5838394 20.2988373,16.4694881 C20.2980081,15.8455132 20.1424537,15.2314827 19.8461016,14.6823737 C19.8147937,14.6217859 19.7562384,14.5799698 19.6887697,14.5700182 Z M17.3909468,1.99896726 L17.5378031,2.00521467 C18.4090445,2.07967265 19.0929605,2.81045826 19.0929605,3.700981 L19.0929605,3.700981 L19.0929605,7.10500848 C19.0520689,7.86421078 18.7567996,8.58754575 18.2547188,9.15848806 L18.2547188,9.15848806 L17.8079402,9.61377674 C17.7129498,9.71068268 17.5768168,9.75542571 17.4428582,9.73376871 C15.6702109,9.46825456 13.706087,9.80525328 11.4194316,12.2578551 C10.3646334,13.3421872 9.74031889,14.7732105 9.66295341,16.2839686 C9.6512451,16.7190223 9.6814534,17.1541928 9.75316013,17.5834561 C9.77686243,17.7157373 9.73535972,17.851334 9.64167823,17.947687 L9.64167823,17.947687 L9.02044322,18.5808361 C8.70591733,18.9057031 8.27354979,19.0898199 7.82137454,19.0914458 L7.82137454,19.0914458 L7.81031145,19.0914458 C7.36178329,19.0925964 6.93136124,18.9146069 6.6146468,18.5970053 L6.6146468,18.5970053 L2.49832657,14.480685 C1.83389114,13.8160489 1.83389114,12.7386737 2.49832657,12.0740376 L2.49832657,12.0740376 L11.7121779,2.8584842 C12.2806276,2.34951171 13.0054974,2.04935857 13.7673595,2.00747733 L13.7673595,2.00747733 L17.3909468,1.99896726 Z M16.4659023,12.6382552 C14.3509108,12.6382552 12.6363714,14.3527945 12.6363714,16.4677861 C12.6369165,17.0917965 12.7924882,17.7058954 13.0891071,18.2549005 C13.120948,18.3148926 13.1794214,18.3561667 13.2466128,18.3660774 C13.3138041,18.3759881 13.381704,18.3533541 13.4295098,18.3051099 L13.4295098,18.3051099 L18.3057792,13.4330956 C18.3540234,13.3852898 18.3766574,13.3173899 18.3667467,13.2501985 C18.356836,13.1830072 18.3155619,13.1245337 18.2555698,13.0926928 L18.2555698,13.0926928 C17.704607,12.7957454 17.0902927,12.6396084 16.4659023,12.6382552 Z M14.4124227,4.98004433 C13.4724265,4.98004433 12.710409,5.74206184 12.710409,6.68205807 C12.710409,7.6220543 13.4724265,8.38407181 14.4124227,8.38407181 C15.352419,8.38407181 16.1144365,7.6220543 16.1144365,6.68205807 C16.1144365,5.74206184 15.352419,4.98004433 14.4124227,4.98004433 Z" id="ðŸ–-Color" fill="#5A5A5A"></path>
        <rect id="_Transparent_Rectangle_" x="0" y="0" width="24" height="24"></rect>
    </g>
</svg>