<?xml version="1.0" encoding="UTF-8"?>
<svg width="24px" height="24px" viewBox="0 0 24 24" version="1.1" xmlns="http://www.w3.org/2000/svg" xmlns:xlink="http://www.w3.org/1999/xlink">
    <title>1. Interface Essentials/tags_1</title>
    <g id="1.-Interface-Essentials/tags_1" stroke="none" stroke-width="1" fill="none" fill-rule="evenodd">
        <path d="M21.5640107,13.3234518 L21.5640107,13.3234518 L11.0780718,2.83251254 C10.5227604,2.33396255 9.81387968,2.0399432 9.06872525,1.99910459 L3.66574151,1.99910459 C2.7451845,1.99910459 1.99892561,2.74536349 1.99892561,3.66592049 L2.00475946,9.07140446 C2.0321679,9.81955402 2.32800995,10.5328292 2.83816741,11.080751 L13.321606,21.5641896 C13.5774268,21.8349961 13.9309287,21.9922414 14.3033606,22.0008954 C14.4030999,22.0006709 14.5024443,21.9883578 14.5992204,21.9642255 C15.0606699,21.8379252 15.4190932,21.4740953 15.5384712,21.0108068 L16.7502463,17.0304504 C16.7907455,16.8979581 16.8944455,16.7942581 17.0269378,16.753759 L21.0056273,15.5394836 C21.4747405,15.4305963 21.8434187,15.0682586 21.9604268,14.6011047 C22.0774349,14.1339509 21.9230789,13.6406088 21.560677,13.3234518 L21.5640107,13.3234518 Z M6.99353945,8.24299696 C6.3031217,8.24299696 5.74342753,7.68330278 5.74342753,6.99288503 C5.74342753,6.30246728 6.3031217,5.74277311 6.99353945,5.74277311 C7.68395721,5.74277311 8.24365138,6.30246728 8.24365138,6.99288503 C8.24365138,7.68330278 7.68395721,8.24299696 6.99353945,8.24299696 L6.99353945,8.24299696 Z" id="ðŸ–-Color" fill="#5A5A5A"></path>
        <rect id="_Transparent_Rectangle_" x="0" y="0" width="24" height="24"></rect>
    </g>
</svg>