<svg width="24" height="24" viewBox="0 0 24 24" fill="none" xmlns="http://www.w3.org/2000/svg">
<g id="tags_favorite">
<path id="Shape" fill-rule="evenodd" clip-rule="evenodd" d="M18.1272 9.01111C18.6188 8.45187 18.9082 7.74366 18.9489 7.0002V3.66673C18.9489 2.74622 18.2027 2 17.2822 2L13.7337 2.00417C12.9876 2.04518 12.2778 2.33911 11.7211 2.83753L2.69911 11.8612C2.38639 12.1738 2.21069 12.5979 2.21069 13.04C2.21069 13.4822 2.38639 13.9062 2.69911 14.2188L6.72927 18.2506C7.03957 18.5619 7.46144 18.7363 7.90098 18.7348H7.91015C8.35343 18.7332 8.77734 18.553 9.08603 18.2348L9.92939 17.3756C10.0441 17.2558 10.0768 17.0794 10.0127 16.9264C9.38479 15.3822 9.73358 13.6125 10.9005 12.4221C12.0675 11.2316 13.8298 10.8475 15.3863 11.4445C15.5395 11.5068 15.7151 11.4714 15.8321 11.3545L18.1272 9.01111ZM12.6987 6.58351C12.6987 5.663 13.4449 4.91678 14.3654 4.91678C15.2859 4.91678 16.0321 5.663 16.0321 6.58351C16.0321 7.50402 15.2859 8.25025 14.3654 8.25025C13.4449 8.25025 12.6987 7.50402 12.6987 6.58351ZM11.0981 14.4475C11.438 13.3998 12.3355 12.6304 13.4229 12.4546C14.3568 12.2981 15.3086 12.6048 15.9755 13.2771L16.2255 13.5271C16.3068 13.6082 16.4383 13.6082 16.5197 13.5271L16.7738 13.2771C17.921 12.1297 19.7812 12.1295 20.9286 13.2767C22.076 14.4239 22.0762 16.284 20.929 17.4314L16.673 21.8716C16.5944 21.9536 16.4857 22 16.3721 22C16.2586 22 16.1499 21.9536 16.0713 21.8716L11.8103 17.4256C11.0332 16.645 10.7583 15.4952 11.0981 14.4475Z" fill="#5A5A5A"/>
</g>
</svg>
