<svg width="24" height="24" viewBox="0 0 24 24" fill="none" xmlns="http://www.w3.org/2000/svg">
<g id="three_dots_hor">
<path id="Shape" fill-rule="evenodd" clip-rule="evenodd" d="M6.85714 12.5C6.85714 14.433 5.32212 16 3.42857 16C1.53502 16 0 14.433 0 12.5C0 10.567 1.53502 9 3.42857 9C5.32212 9 6.85714 10.567 6.85714 12.5ZM15.4286 12.5C15.4286 14.433 13.8935 16 12 16C10.1065 16 8.57143 14.433 8.57143 12.5C8.57143 10.567 10.1065 9 12 9C13.8935 9 15.4286 10.567 15.4286 12.5ZM20.5714 16C22.465 16 24 14.433 24 12.5C24 10.567 22.465 9 20.5714 9C18.6779 9 17.1429 10.567 17.1429 12.5C17.1429 14.433 18.6779 16 20.5714 16Z" fill="#5A5A5A"/>
</g>
</svg>
