<svg width="24" height="24" viewBox="0 0 24 24" fill="none" xmlns="http://www.w3.org/2000/svg">
<g id="three_dots_ver">
<path id="Shape" fill-rule="evenodd" clip-rule="evenodd" d="M12 6.85714C10.067 6.85714 8.5 5.32212 8.5 3.42857C8.5 1.53502 10.067 0 12 0C13.933 0 15.5 1.53502 15.5 3.42857C15.5 5.32212 13.933 6.85714 12 6.85714ZM12 15.4286C10.067 15.4286 8.5 13.8935 8.5 12C8.5 10.1065 10.067 8.57143 12 8.57143C13.933 8.57143 15.5 10.1065 15.5 12C15.5 13.8935 13.933 15.4286 12 15.4286ZM8.5 20.5714C8.5 22.465 10.067 24 12 24C13.933 24 15.5 22.465 15.5 20.5714C15.5 18.6779 13.933 17.1429 12 17.1429C10.067 17.1429 8.5 18.6779 8.5 20.5714Z" fill="#5A5A5A"/>
</g>
</svg>
