<?xml version="1.0" encoding="UTF-8"?>
<svg width="24px" height="24px" viewBox="0 0 24 24" version="1.1" xmlns="http://www.w3.org/2000/svg" xmlns:xlink="http://www.w3.org/1999/xlink">
    <title>1. Interface Essentials/three_dots_ver</title>
    <g id="1.-Interface-Essentials/three_dots_ver" stroke="none" stroke-width="1" fill="none" fill-rule="evenodd">
        <path d="M3.42857143,8.5 C5.32211914,8.5 6.85714286,10.0670034 6.85714286,12 C6.85714286,13.9329966 5.32211914,15.5 3.42857143,15.5 C1.53502371,15.5 -1.37667655e-14,13.9329966 -1.37667655e-14,12 C-1.37667655e-14,10.0670034 1.53502371,8.5 3.42857143,8.5 Z M12,8.5 C13.8935477,8.5 15.4285714,10.0670034 15.4285714,12 C15.4285714,13.9329966 13.8935477,15.5 12,15.5 C10.1064523,15.5 8.57142857,13.9329966 8.57142857,12 C8.57142857,10.0670034 10.1064523,8.5 12,8.5 Z M20.5714286,8.5 C22.4649763,8.5 24,10.0670034 24,12 C24,13.9329966 22.4649763,15.5 20.5714286,15.5 C18.6778809,15.5 17.1428571,13.9329966 17.1428571,12 C17.1428571,10.0670034 18.6778809,8.5 20.5714286,8.5 Z" id="ðŸ–-Color" fill="#5A5A5A" transform="translate(12.000000, 12.000000) rotate(90.000000) translate(-12.000000, -12.000000) "></path>
        <rect id="_Transparent_Rectangle_" x="0" y="0" width="24" height="24"></rect>
    </g>
</svg>