<?xml version="1.0" encoding="UTF-8"?>
<svg width="24px" height="24px" viewBox="0 0 24 24" version="1.1" xmlns="http://www.w3.org/2000/svg" xmlns:xlink="http://www.w3.org/1999/xlink">
    <title>1. Interface Essentials/three_dots_hor</title>
    <g id="1.-Interface-Essentials/three_dots_hor" stroke="none" stroke-width="1" fill="none" fill-rule="evenodd">
        <path d="M3.42857143,9 C5.32211914,9 6.85714286,10.5670034 6.85714286,12.5 C6.85714286,14.4329966 5.32211914,16 3.42857143,16 C1.53502371,16 -1.37667655e-14,14.4329966 -1.37667655e-14,12.5 C-1.37667655e-14,10.5670034 1.53502371,9 3.42857143,9 Z M12,9 C13.8935477,9 15.4285714,10.5670034 15.4285714,12.5 C15.4285714,14.4329966 13.8935477,16 12,16 C10.1064523,16 8.57142857,14.4329966 8.57142857,12.5 C8.57142857,10.5670034 10.1064523,9 12,9 Z M20.5714286,9 C22.4649763,9 24,10.5670034 24,12.5 C24,14.4329966 22.4649763,16 20.5714286,16 C18.6778809,16 17.1428571,14.4329966 17.1428571,12.5 C17.1428571,10.5670034 18.6778809,9 20.5714286,9 Z" id="ðŸ–-Color" fill="#5A5A5A"></path>
        <rect id="_Transparent_Rectangle_" x="0" y="0" width="24" height="24"></rect>
    </g>
</svg>