<?xml version="1.0" encoding="UTF-8"?>
<svg width="24px" height="24px" viewBox="0 0 24 24" version="1.1" xmlns="http://www.w3.org/2000/svg" xmlns:xlink="http://www.w3.org/1999/xlink">
    <title>1. Interface Essentials/time_clock_circle_2</title>
    <g id="1.-Interface-Essentials/time_clock_circle_2" stroke="none" stroke-width="1" fill="none" fill-rule="evenodd">
        <path d="M12,2 C6.4771525,2 2,6.4771525 2,12 C2,17.5228475 6.4771525,22 12,22 C17.5228475,22 22,17.5228475 22,12 C21.9940293,6.47962754 17.5203725,2.00597071 12,2 Z M16.3333333,16.3508333 C16.0192151,16.6832693 15.4978618,16.7061454 15.1558333,16.4025 L11.0233333,12.6141667 C10.850027,12.4569056 10.7508324,12.2340202 10.75,12 L10.75,7.41666667 C10.75,6.95642938 11.123096,6.58333333 11.5833333,6.58333333 C12.0435706,6.58333333 12.4166667,6.95642938 12.4166667,7.41666667 L12.4166667,11.6333333 L16.2783333,15.1733333 C16.4420703,15.3221859 16.5398805,15.5300501 16.5501979,15.751094 C16.5605154,15.972138 16.4824929,16.1882093 16.3333333,16.3516667 L16.3333333,16.3508333 Z" id="ðŸ–-Color" fill="#5A5A5A"></path>
        <rect id="_Transparent_Rectangle_" x="0" y="0" width="24" height="24"></rect>
    </g>
</svg>