<svg width="24" height="24" viewBox="0 0 24 24" fill="none" xmlns="http://www.w3.org/2000/svg">
<g id="time_clock_six_1">
<path id="Shape" fill-rule="evenodd" clip-rule="evenodd" d="M2 12C2 17.5228 6.47715 22 12 22C17.5228 22 22 17.5228 22 12C22 6.47715 17.5228 2 12 2C6.47963 2.00597 2.00597 6.47963 2 12ZM3.66667 12C3.66667 7.39763 7.39763 3.66667 12 3.66667C16.6024 3.66667 20.3333 7.39763 20.3333 12C20.3333 16.6024 16.6024 20.3333 12 20.3333C7.39972 20.3283 3.67172 16.6003 3.66667 12ZM12.4167 5.75C12.4167 5.51988 12.2301 5.33333 12 5.33333C8.3181 5.33333 5.33333 8.3181 5.33333 12C5.33333 15.6819 8.3181 18.6667 12 18.6667C12.2301 18.6667 12.4167 18.4801 12.4167 18.25V5.75Z" fill="#5A5A5A"/>
</g>
</svg>
