<?xml version="1.0" encoding="UTF-8"?>
<svg width="24px" height="24px" viewBox="0 0 24 24" version="1.1" xmlns="http://www.w3.org/2000/svg" xmlns:xlink="http://www.w3.org/1999/xlink">
    <title>1. Interface Essentials/time_clock_circle_1</title>
    <g id="1.-Interface-Essentials/time_clock_circle_1" stroke="none" stroke-width="1" fill="none" fill-rule="evenodd">
        <path d="M12,2 C6.4771525,2 2,6.4771525 2,12 C2,17.5228475 6.4771525,22 12,22 C17.5228475,22 22,17.5228475 22,12 C21.9940293,6.47962754 17.5203725,2.00597071 12,2 Z M12,19.0833333 C11.4247034,19.0833333 10.9583333,18.6169633 10.9583333,18.0416667 C10.9583333,17.4663701 11.4247034,17 12,17 C12.5752966,17 13.0416667,17.4663701 13.0416667,18.0416667 C13.0416667,18.3179338 12.93192,18.5828858 12.7365696,18.7782362 C12.5412192,18.9735866 12.2762672,19.0833333 12,19.0833333 L12,19.0833333 Z M12,12.8333333 C11.7790043,12.8332861 11.5670773,12.7454578 11.4108333,12.5891667 L8.91083333,10.0891667 C8.60306391,9.76096282 8.61139819,9.24771266 8.92966145,8.92967448 C9.24792471,8.6116363 9.76118064,8.60366513 10.0891667,8.91166667 L12.345,11.1666667 L17.8333333,11.1666667 C18.2935706,11.1666667 18.6666667,11.5397627 18.6666667,12 C18.6666667,12.4602373 18.2935706,12.8333333 17.8333333,12.8333333 L12,12.8333333 Z M7,12 C7,12.5752966 6.53362995,13.0416667 5.95833333,13.0416667 C5.38303672,13.0416667 4.91666667,12.5752966 4.91666667,12 C4.91666667,11.4247034 5.38303672,10.9583333 5.95833333,10.9583333 C6.53362995,10.9583333 7,11.4247034 7,12 L7,12 Z M12,4.91666667 C12.5752966,4.91666667 13.0416667,5.38303672 13.0416667,5.95833333 C13.0416667,6.53362995 12.5752966,7 12,7 C11.4247034,7 10.9583333,6.53362995 10.9583333,5.95833333 C10.9583333,5.38303672 11.4247034,4.91666667 12,4.91666667 L12,4.91666667 Z" id="ðŸ–-Color" fill="#5A5A5A"></path>
        <rect id="_Transparent_Rectangle_" x="0" y="0" width="24" height="24"></rect>
    </g>
</svg>