<?xml version="1.0" encoding="UTF-8"?>
<svg width="24px" height="24px" viewBox="0 0 24 24" version="1.1" xmlns="http://www.w3.org/2000/svg" xmlns:xlink="http://www.w3.org/1999/xlink">
    <title>1. Interface Essentials/time_clock_six_2</title>
    <g id="1.-Interface-Essentials/time_clock_six_2" stroke="none" stroke-width="1" fill="none" fill-rule="evenodd">
        <path d="M12,2 C17.5203725,2.00597071 21.9940293,6.47962754 22,12 C22,17.5228475 17.5228475,22 12,22 C6.4771525,22 2,17.5228475 2,12 C2,6.4771525 6.4771525,2 12,2 Z M12,3.66666667 C7.39762708,3.66666667 3.66666667,7.39762708 3.66666667,12 C3.66666667,16.6023729 7.39762708,20.3333333 12,20.3333333 C16.6002787,20.3282814 20.3282814,16.6002787 20.3333333,12 C20.3333333,7.39762708 16.6023729,3.66666667 12,3.66666667 Z M12,5.33333333 C15.6818983,5.33333333 18.6666667,8.31810167 18.6666667,12 C18.6666667,15.6818983 15.6818983,18.6666667 12,18.6666667 C11.7698814,18.6666667 11.5833333,18.4801186 11.5833333,18.25 L11.5833333,18.25 L11.5833333,5.75 C11.5833333,5.51988135 11.7698814,5.33333333 12,5.33333333 Z" id="ðŸ–-Color" fill="#5A5A5A"></path>
        <rect id="_Transparent_Rectangle_" x="0" y="0" width="24" height="24"></rect>
    </g>
</svg>