<?xml version="1.0" encoding="UTF-8"?>
<svg width="24px" height="24px" viewBox="0 0 24 24" version="1.1" xmlns="http://www.w3.org/2000/svg" xmlns:xlink="http://www.w3.org/1999/xlink">
    <title>1. Interface Essentials/time_clock_three</title>
    <g id="1.-Interface-Essentials/time_clock_three" stroke="none" stroke-width="1" fill="none" fill-rule="evenodd">
        <path d="M12,2 C17.5203725,2.00597071 21.9940293,6.47962754 22,12 C22,17.5228475 17.5228475,22 12,22 C6.4771525,22 2,17.5228475 2,12 C2,6.4771525 6.4771525,2 12,2 Z M12,3.66666667 C7.39762708,3.66666667 3.66666667,7.39762708 3.66666667,12 C3.66666667,16.6023729 7.39762708,20.3333333 12,20.3333333 C16.6002787,20.3282814 20.3282814,16.6002787 20.3333333,12 C20.3333333,7.39762708 16.6023729,3.66666667 12,3.66666667 Z M12,5.33333333 C13.8318869,5.3347045 15.5823687,6.09038142 16.8397227,7.42262485 C18.0970767,8.75486827 18.7503298,10.5460954 18.6458333,12.375 C18.6336846,12.6074546 18.459415,12.7991512 18.2291667,12.8333333 L18.2291667,12.8333333 L12,12.8333333 C11.7698814,12.8333333 11.5833333,12.6467853 11.5833333,12.4166667 L11.5833333,12.4166667 L11.5833333,5.75 C11.5833333,5.51988135 11.7698814,5.33333333 12,5.33333333 Z" id="ðŸ–-Color" fill="#5A5A5A"></path>
        <rect id="_Transparent_Rectangle_" x="0" y="0" width="24" height="24"></rect>
    </g>
</svg>