<svg width="24" height="24" viewBox="0 0 24 24" fill="none" xmlns="http://www.w3.org/2000/svg">
<g id="time_clock_circle_1">
<path id="Shape" fill-rule="evenodd" clip-rule="evenodd" d="M12 2C6.47715 2 2 6.47715 2 12C2 17.5228 6.47715 22 12 22C17.5228 22 22 17.5228 22 12C21.994 6.47963 17.5204 2.00597 12 2ZM12 19.0833C11.4247 19.0833 10.9583 18.617 10.9583 18.0417C10.9583 17.4664 11.4247 17 12 17C12.5753 17 13.0417 17.4664 13.0417 18.0417C13.0417 18.3179 12.9319 18.5829 12.7366 18.7782C12.5412 18.9736 12.2763 19.0833 12 19.0833ZM12 12.8333C11.779 12.8333 11.5671 12.7455 11.4108 12.5892L8.91083 10.0892C8.60306 9.76096 8.6114 9.24771 8.92966 8.92967C9.24792 8.61164 9.76118 8.60367 10.0892 8.91167L12.345 11.1667H17.8333C18.2936 11.1667 18.6667 11.5398 18.6667 12C18.6667 12.4602 18.2936 12.8333 17.8333 12.8333H12ZM7 12C7 12.5753 6.53363 13.0417 5.95833 13.0417C5.38304 13.0417 4.91667 12.5753 4.91667 12C4.91667 11.4247 5.38304 10.9583 5.95833 10.9583C6.53363 10.9583 7 11.4247 7 12ZM12 4.91667C12.5753 4.91667 13.0417 5.38304 13.0417 5.95833C13.0417 6.53363 12.5753 7 12 7C11.4247 7 10.9583 6.53363 10.9583 5.95833C10.9583 5.38304 11.4247 4.91667 12 4.91667Z" fill="#5A5A5A"/>
</g>
</svg>
