<svg width="24" height="24" viewBox="0 0 24 24" fill="none" xmlns="http://www.w3.org/2000/svg">
<g id="tool_box">
<path id="Shape" fill-rule="evenodd" clip-rule="evenodd" d="M10.125 10.5003C9.71079 10.5003 9.375 10.836 9.375 11.2503V11.5003C9.375 11.7764 9.15114 12.0003 8.875 12.0003H1C0.723858 12.0003 0.5 11.7764 0.5 11.5003V7.75026C0.5 7.19797 0.947715 6.75026 1.5 6.75026H7.025C7.28148 4.19506 9.43196 2.24963 12 2.24963C14.568 2.24963 16.7185 4.19506 16.975 6.75026H22.5C23.0523 6.75026 23.5 7.19797 23.5 7.75026V11.5003C23.5 11.7764 23.2761 12.0003 23 12.0003H15.125C14.8489 12.0003 14.625 11.7764 14.625 11.5003V11.2503C14.625 10.836 14.2892 10.5003 13.875 10.5003H10.125ZM14.958 6.75026C14.714 5.30684 13.4639 4.25028 12 4.25026C10.5361 4.25028 9.28598 5.30684 9.042 6.75026H14.958ZM14.625 14.3763C14.6241 15.1641 14.2699 15.9101 13.6598 16.4087C13.0498 16.9073 12.2483 17.1061 11.476 16.9503C10.2307 16.6666 9.35451 15.5493 9.376 14.2723V14.0013C9.376 13.7251 9.15214 13.5013 8.876 13.5013H1C0.723858 13.5013 0.5 13.7251 0.5 14.0013V20.7503C0.5 21.3025 0.947715 21.7503 1.5 21.7503H22.5C23.0523 21.7503 23.5 21.3025 23.5 20.7503V14.0003C23.5 13.7241 23.2761 13.5003 23 13.5003H15.17C15.0298 13.4876 14.8907 13.5346 14.787 13.6298C14.6832 13.725 14.6244 13.8595 14.625 14.0003V14.3763ZM11.375 12.0013H12.625C12.9011 12.0013 13.125 12.2251 13.125 12.5013V14.3763C13.125 14.9976 12.6213 15.5013 12 15.5013C11.3787 15.5013 10.875 14.9976 10.875 14.3763V12.5013C10.875 12.2251 11.0989 12.0013 11.375 12.0013Z" fill="#5A5A5A"/>
</g>
</svg>
