<?xml version="1.0" encoding="UTF-8"?>
<svg width="24px" height="24px" viewBox="0 0 24 24" version="1.1" xmlns="http://www.w3.org/2000/svg" xmlns:xlink="http://www.w3.org/1999/xlink">
    <title>1. Interface Essentials/tool_box</title>
    <g id="1.-Interface-Essentials/tool_box" stroke="none" stroke-width="1" fill="none" fill-rule="evenodd">
        <path d="M23,13.5003127 C23.2761424,13.5003127 23.5,13.7241703 23.5,14.0003127 L23.5,14.0003127 L23.5,20.7503127 C23.5,21.3025974 23.0522847,21.7503127 22.5,21.7503127 L22.5,21.7503127 L1.5,21.7503127 C0.94771525,21.7503127 0.5,21.3025974 0.5,20.7503127 L0.5,20.7503127 L0.5,14.0013127 C0.5,13.7251703 0.723857625,13.5013127 1,13.5013127 L1,13.5013127 L8.876,13.5013127 C9.15214237,13.5013127 9.376,13.7251703 9.376,14.0013127 L9.376,14.0013127 L9.376,14.2723127 C9.3545134,15.549305 10.2307201,16.6666772 11.476,16.9503127 C12.2483168,17.1061515 13.0498129,16.9073958 13.6598334,16.4087636 C14.2698538,15.9101315 14.6240829,15.1641947 14.625,14.3763127 L14.625,14.3763127 L14.625,14.0003127 C14.6244285,13.8595264 14.683238,13.7250231 14.7869805,13.6298465 C14.8907231,13.5346698 15.029784,13.4876407 15.17,13.5003127 Z M12.625,12.0013127 C12.9011424,12.0013127 13.125,12.2251703 13.125,12.5013127 L13.125,12.5013127 L13.125,14.3763127 C13.125,14.997633 12.6213203,15.5013127 12,15.5013127 C11.3786797,15.5013127 10.875,14.997633 10.875,14.3763127 L10.875,14.3763127 L10.875,12.5013127 C10.875,12.2251703 11.0988576,12.0013127 11.375,12.0013127 L11.375,12.0013127 Z M12,2.2496873 C14.5680432,2.2496873 16.7185169,4.19510973 16.975,6.7503127 L16.975,6.7503127 L22.5,6.7503127 C23.0522847,6.7503127 23.5,7.19802795 23.5,7.7503127 L23.5,7.7503127 L23.5,11.5003127 C23.5,11.7764551 23.2761424,12.0003127 23,12.0003127 L23,12.0003127 L15.125,12.0003127 C14.8488576,12.0003127 14.625,11.7764551 14.625,11.5003127 L14.625,11.5003127 L14.625,11.2503127 C14.625,10.8360991 14.2892136,10.5003127 13.875,10.5003127 L13.875,10.5003127 L10.125,10.5003127 C9.71078644,10.5003127 9.375,10.8360991 9.375,11.2503127 L9.375,11.2503127 L9.375,11.5003127 C9.375,11.7764551 9.15114237,12.0003127 8.875,12.0003127 L8.875,12.0003127 L1,12.0003127 C0.723857625,12.0003127 0.5,11.7764551 0.5,11.5003127 L0.5,11.5003127 L0.5,7.7503127 C0.5,7.19802795 0.94771525,6.7503127 1.5,6.7503127 L1.5,6.7503127 L7.025,6.7503127 C7.28148311,4.19510973 9.43195681,2.2496873 12,2.2496873 Z M12,4.2503127 C10.5361056,4.2503127 9.28598241,5.3068933 9.042,6.7503127 L9.042,6.7503127 L14.958,6.7503127 C14.7140176,5.3068933 13.4638944,4.2503127 12,4.2503127 Z" id="ðŸ–-Color" fill="#5A5A5A"></path>
        <rect id="_Transparent_Rectangle_" x="0" y="0" width="24" height="24"></rect>
    </g>
</svg>