<?xml version="1.0" encoding="UTF-8"?>
<svg width="24px" height="24px" viewBox="0 0 24 24" version="1.1" xmlns="http://www.w3.org/2000/svg" xmlns:xlink="http://www.w3.org/1999/xlink">
    <title>1. Interface Essentials/touch_id_lock</title>
    <g id="1.-Interface-Essentials/touch_id_lock" stroke="none" stroke-width="1" fill="none" fill-rule="evenodd">
        <path d="M17.7894751,10.9347511 C19.4172609,10.9347511 20.736842,12.2543322 20.736842,13.882118 L20.736842,13.882118 L20.736842,14.7376965 C20.7365883,14.8424502 20.8133901,14.9314542 20.9170524,14.9465385 C21.5390611,15.0361952 22.0005622,15.5694694 21.9999997,16.1979062 L21.9999997,16.1979062 L21.9999997,20.8294828 C21.9999997,21.5271052 21.4344645,22.09264 20.736842,22.09264 L20.736842,22.09264 L14.8421082,22.09264 C14.1444857,22.09264 13.578951,21.5271052 13.578951,20.8294828 L13.578951,20.8294828 L13.578951,16.1979062 C13.5792256,15.5701088 14.0405222,15.0377884 14.6618978,14.9482227 C14.7655601,14.9331384 14.8423619,14.8441344 14.8421082,14.7393807 L14.8421082,14.7393807 L14.8421082,13.882118 C14.8421082,12.2543322 16.1616893,10.9347511 17.7894751,10.9347511 Z M12.0320044,19.8012728 C12.096708,19.7772544 12.169075,19.7864761 12.2256873,19.8259535 C12.2822997,19.865431 12.3159668,19.93015 12.3157944,19.9991674 L12.3157944,19.9991674 L12.3157944,20.8884301 C12.3160012,20.9800802 12.2566616,21.0612458 12.1692675,21.0888511 C11.3999763,21.3350308 10.5972003,21.4605888 9.78947928,21.4610614 C9.44066804,21.4610614 9.15790066,21.178294 9.15790066,20.8294828 C9.15790066,20.4806715 9.44066804,20.1979042 9.78947928,20.1979042 C10.5548993,20.1989648 11.314348,20.0632165 12.0320044,19.7970623 L12.0320044,19.7970623 Z M2.63158827,11.4518035 C2.98039951,11.4518035 3.26316689,11.7345708 3.26316689,12.0833821 L3.26316689,12.0833821 L3.26316689,13.6715918 C3.25986855,16.2968552 4.8318996,18.6678471 7.25137534,19.6867465 C7.52720739,19.8042477 7.68241737,20.0994804 7.62283394,20.3933165 C7.5632505,20.6871527 7.3052961,20.8986048 7.00548073,20.8993809 C6.92099531,20.8996561 6.83733551,20.8827523 6.75958612,20.8496933 C3.8725712,19.6343925 1.99648299,16.8056551 2.00000469,13.673276 L2.00000469,13.673276 L2.00000469,12.0833821 C2.00000469,11.7345708 2.28277704,11.4518035 2.63158827,11.4518035 Z M17.7894751,18.0909579 C17.3243935,18.0909579 16.9473703,18.4679811 16.9473703,18.9330627 C16.9473703,19.3981444 17.3243935,19.7751675 17.7894751,19.7751675 L17.7894751,19.7751675 C18.0131073,19.7768517 18.2275556,19.6878995 18.3855294,19.5296098 C18.5435032,19.37132 18.6320272,19.1566945 18.6315816,18.9330627 C18.6315816,18.4679811 18.2545568,18.0909579 17.7894751,18.0909579 Z M5.76421822,6.09264835 C5.99767971,5.83411913 6.39570509,5.81158939 6.65684933,6.04212206 C6.78168845,6.15438185 6.85639808,6.31194128 6.86430862,6.47964485 C6.87221917,6.64734842 6.81267235,6.8112407 6.69895457,6.93475317 C6.02226466,7.69617787 5.647814,8.67903596 5.64632354,9.6976991 L5.64632354,9.6976991 L5.64632354,13.6715918 C5.65049468,15.9580635 7.50300752,17.8105764 9.78947928,17.8147475 C10.5696589,17.8148531 11.3337493,17.5928696 11.9924255,17.1747478 C12.057125,17.1335498 12.1391563,17.1309661 12.2063201,17.168011 C12.2737352,17.2048973 12.3156962,17.2755855 12.3157938,17.352432 L12.3157938,17.352432 L12.3157938,18.3115893 C12.3154464,18.3903802 12.2713031,18.4624376 12.2012675,18.4985366 C11.4546475,18.8801564 10.6279745,19.0787426 9.78947928,19.0779074 C6.8050018,19.0746559 4.3864151,16.6560692 4.38316577,13.6715918 L4.38316577,13.6715918 L4.38316577,9.6976991 C4.38256968,8.36670824 4.87450665,7.08257277 5.76421822,6.09264835 Z M9.78947928,6.67370068 C10.5910297,6.67370068 11.3596771,6.99245963 11.9259847,7.55971505 C12.4922923,8.12697048 12.8097666,8.89614982 12.8084293,9.6976991 L12.8084293,9.6976991 L12.8084293,13.6741181 C12.8083135,13.843309 12.7950809,14.0122364 12.7688461,14.179381 C12.76317,14.2194768 12.7452266,14.2568343 12.7174778,14.2863283 C12.4816982,14.5531941 12.3449196,14.8930592 12.3301095,15.2488541 C12.3281283,15.2870307 12.3159119,15.323971 12.2947411,15.3558014 C11.5542499,16.4560502 10.1817005,16.943159 8.91328733,16.5558572 C7.64487416,16.1685555 6.77853756,14.9978174 6.77895019,13.6715918 C6.77895019,13.3227805 7.06172191,13.0400131 7.41053315,13.0400131 C7.75934439,13.0400131 8.04211177,13.3227805 8.04211177,13.6715918 C8.04211177,14.6389616 8.82631997,15.4231698 9.7936898,15.4231698 C10.7610596,15.4231698 11.5452678,14.6389616 11.5452678,13.6715918 L11.5452678,13.6715918 L11.5452678,9.6976991 C11.5452678,8.73032926 10.7610596,7.94612107 9.7936898,7.94612107 C8.82631997,7.94612107 8.04211177,8.73032926 8.04211177,9.6976991 L8.04211177,9.6976991 L8.04211177,10.8842248 C8.04211176,11.233036 7.75934438,11.5158034 7.41053315,11.5158034 C7.06172192,11.5158034 6.77895019,11.233036 6.77895019,10.8842248 L6.77895019,10.8842248 L6.77895019,9.6976991 C6.77615976,8.03169278 8.12347709,6.6783455 9.78947928,6.67370068 Z M17.7894751,12.6172765 C17.0918526,12.6172765 16.5263162,13.1828113 16.5263162,13.8804338 L16.5263162,13.8804338 L16.5263162,14.7225386 C16.5260929,14.7784423 16.548201,14.8321212 16.5877312,14.8716514 C16.6272614,14.9111816 16.6809404,14.9332898 16.7368441,14.9330665 L16.7368441,14.9330665 L18.8421061,14.9330665 C18.8980098,14.9332898 18.9516888,14.9111816 18.991219,14.8716514 C19.0307492,14.8321212 19.0528573,14.7784423 19.052634,14.7225386 L19.052634,14.7225386 L19.052634,13.8804338 C19.052634,13.1828113 18.4870976,12.6172765 17.7894751,12.6172765 Z M9.78947928,10.2568567 C10.1382905,10.2568567 10.4210579,10.5396241 10.4210579,10.8884353 L10.4210579,10.8884353 L10.4210579,13.2741183 C10.4210579,13.6229295 10.1382905,13.9056969 9.78947928,13.9056969 C9.44066804,13.9056969 9.15790066,13.6229295 9.15790066,13.2741183 L9.15790066,13.2741183 L9.15790066,10.8884353 C9.15790066,10.5396241 9.44066804,10.2568567 9.78947928,10.2568567 Z M8.10190121,4.56085967 C9.74870413,4.02057851 11.55471,4.30272089 12.9582555,5.31954126 C14.361801,6.33636163 15.1926549,7.96453334 15.1924239,9.6976991 L15.1924239,9.6976991 L15.1924239,10.4656987 C15.1921614,10.5319011 15.1610178,10.5941882 15.1082133,10.6341197 C14.8032571,10.8548693 14.5349856,11.1222882 14.3132664,11.4265403 C14.2594765,11.5003378 14.1643752,11.5312458 14.077477,11.5031718 C13.9925777,11.4732942 13.9360619,11.3927507 13.9368455,11.3027509 L13.9368455,11.3027509 L13.9368455,9.6976991 C13.9322021,7.40846455 12.0753501,5.55500301 9.78611086,5.55454337 C9.34516089,5.55249778 8.9069279,5.6236395 8.48926943,5.76506957 C8.15945413,5.86729515 7.80827168,5.68796794 7.6976909,5.36085926 C7.64387435,5.20120093 7.65635459,5.02662701 7.73233562,4.87624788 C7.80831666,4.72586875 7.94144707,4.61225491 8.10190121,4.56085967 Z M15.440612,4.6917605 L15.5400776,4.69698695 C15.7059631,4.71894704 15.8562935,4.80601003 15.9578971,4.93896474 C17.0139922,6.30038599 17.5835277,7.97637967 17.5755805,9.69938331 C17.5751169,9.80137226 17.4923074,9.88380532 17.3903174,9.88380427 L17.3903174,9.88380427 L17.3650543,9.88380427 C17.0972384,9.88282276 16.8301146,9.91105994 16.5684231,9.96801475 C16.5065191,9.98033739 16.4423473,9.96434992 16.3934599,9.92442524 C16.3445726,9.88450057 16.3160859,9.82481695 16.3157917,9.76169907 L16.3157917,9.76169907 L16.3157917,9.6976991 C16.3201349,8.25388747 15.8447127,6.84954055 14.9642134,5.70528013 C14.8597152,5.57434381 14.8124202,5.40680661 14.8330234,5.24055469 C14.8536266,5.07430276 14.9403877,4.92337883 15.0736871,4.82191217 C15.2063859,4.71997465 15.3741921,4.67502687 15.5400776,4.69698695 Z M6.08387152,2.84573761 C8.46356016,1.55846357 11.3407013,1.59789965 13.6842141,2.94991314 C13.972104,3.13022637 14.0658029,3.50595592 13.8962911,3.80033531 C13.7267794,4.09471471 13.3547835,4.20228437 13.0543197,4.04380731 C11.0910563,2.91009771 8.68013425,2.87631523 6.68587619,3.95457098 C4.69161814,5.03282674 3.39969771,7.06866265 3.27327215,9.33222561 C3.25495299,9.66683529 2.97848829,9.92888539 2.64337774,9.92927793 L2.64337774,9.92927793 L2.60800934,9.92927793 C2.44071784,9.92014759 2.28390892,9.84492112 2.17209227,9.72015395 C2.06027562,9.59538679 2.00261466,9.43130365 2.01179912,9.26401512 C2.16268299,6.5626772 3.70418287,4.13301165 6.08387152,2.84573761 Z" id="ðŸ–-Color" fill="#5A5A5A"></path>
        <rect id="_Transparent_Rectangle_" x="0" y="0" width="24" height="24"></rect>
    </g>
</svg>