<?xml version="1.0" encoding="UTF-8"?>
<svg width="24px" height="24px" viewBox="0 0 24 24" version="1.1" xmlns="http://www.w3.org/2000/svg" xmlns:xlink="http://www.w3.org/1999/xlink">
    <title>1. Interface Essentials/touch_finger</title>
    <g id="1.-Interface-Essentials/touch_finger" stroke="none" stroke-width="1" fill="none" fill-rule="evenodd">
        <path d="M11.995,6.58333333 C12.9154746,6.58333333 13.6616667,7.32952542 13.6616667,8.25 L13.6616667,8.25 L13.6616667,12.7966667 L17.8941667,14.3158333 C18.388126,14.5019341 18.7014709,14.9900747 18.665,15.5166667 C18.6651535,15.5478252 18.6615157,15.5788868 18.6541667,15.6091667 L18.6541667,15.6091667 L17.3883333,21.1758333 C17.2169703,21.6647149 16.7580114,21.9941129 16.24,22.0000004 L16.24,22.0000004 L10.9166667,22.0000004 C10.4695043,22.0003647 10.0579737,21.7560684 9.84416667,21.3633333 L9.84416667,21.3633333 L6.73166667,15.7191667 C6.52505533,15.3377357 6.53464216,14.8756747 6.75689672,14.5031419 C6.97915128,14.130609 7.38120582,13.9026958 7.815,13.9033333 L7.815,13.9033333 L8.64,13.8875 C9.02620512,13.8846679 9.39328242,14.0553589 9.64,14.3525 L9.64,14.3525 L10.3283333,15.3008333 L10.3283333,8.25 C10.3283333,7.32952542 11.0745254,6.58333333 11.995,6.58333333 Z M12,2 C15.6818983,2 18.6666994,4.98476833 18.6666994,8.66666667 C18.6697774,9.65442251 18.4513641,10.6303058 18.0275,11.5225 C17.8223231,11.9299351 17.3327659,12.103649 16.9166667,11.9166667 C16.5011713,11.720077 16.3233192,11.2241791 16.5191667,10.8083333 C16.8379694,10.1395174 17.0023006,9.40757468 17,8.66666667 C17,5.90524292 14.7614237,3.66666667 12,3.66666667 C9.23857625,3.66666667 7,5.90524292 7,8.66666667 C6.99703311,9.40647569 7.16021309,10.1375106 7.4775,10.8058333 C7.57257125,11.0054035 7.58445214,11.2345709 7.51052805,11.4429024 C7.43660396,11.651234 7.28293288,11.8216571 7.08333333,11.9166667 C6.66926704,12.112746 6.17457088,11.937797 5.97583333,11.525 C5.55045395,10.6323121 5.33088961,9.65552126 5.33331316,8.66666667 C5.33331316,4.98476833 8.31810167,2 12,2 Z" id="ðŸ–-Color" fill="#5A5A5A"></path>
        <rect id="_Transparent_Rectangle_" x="0" y="0" width="24" height="24"></rect>
    </g>
</svg>