<svg width="24" height="24" viewBox="0 0 24 24" fill="none" xmlns="http://www.w3.org/2000/svg">
<g id="touch_id_2">
<path id="Shape" fill-rule="evenodd" clip-rule="evenodd" d="M21.1667 2H2.83333C2.3731 2 2 2.3731 2 2.83333V21.1667C2 21.6269 2.3731 22 2.83333 22H21.1667C21.6269 22 22 21.6269 22 21.1667V2.83333C22 2.3731 21.6269 2 21.1667 2ZM12 6.04C11.5755 6.03919 11.1536 6.10585 10.75 6.2375C10.3714 6.35088 9.97142 6.14202 9.84807 5.76656C9.72472 5.39111 9.92293 4.98573 10.295 4.8525C11.9565 4.30736 13.7786 4.59168 15.1951 5.61707C16.6115 6.64247 17.4507 8.28468 17.4517 10.0333V13.9675C17.4517 14.3702 17.1252 14.6967 16.7225 14.6967C16.3198 14.6967 15.9933 14.3702 15.9933 13.9675V10.0333C15.9897 7.8294 14.2039 6.04367 12 6.04ZM12 6.9425C13.7059 6.9448 15.0882 8.3274 15.09 10.0333V13.9675C15.09 15.6741 13.7066 17.0575 12 17.0575C10.2934 17.0575 8.91 15.6741 8.91 13.9675C8.91 13.5648 9.23646 13.2383 9.63917 13.2383C10.0419 13.2383 10.3683 13.5648 10.3683 13.9675C10.3683 14.8686 11.0989 15.5992 12 15.5992C12.9011 15.5992 13.6317 14.8686 13.6317 13.9675V10.0333C13.6317 9.13219 12.9011 8.40167 12 8.40167C11.0989 8.40167 10.3683 9.13219 10.3683 10.0333V11.2133C10.3683 11.616 10.0419 11.9425 9.63917 11.9425C9.23646 11.9425 8.91 11.616 8.91 11.2133V10.0333C8.91184 8.3274 10.2941 6.9448 12 6.9425ZM11.2708 13.575V11.2133C11.2708 10.8106 11.5973 10.4842 12 10.4842C12.4027 10.4842 12.7292 10.8106 12.7292 11.2133V13.575C12.7292 13.9777 12.4027 14.3042 12 14.3042C11.5973 14.3042 11.2708 13.9777 11.2708 13.575ZM9.02083 7.37083C8.36392 8.10352 8.00146 9.05344 8.00333 10.0375V13.9717C8.00139 15.6283 9.02248 17.1141 10.5697 17.706C12.117 18.298 13.869 17.8732 14.9733 16.6383C15.142 16.4265 15.4142 16.3257 15.6802 16.3764C15.9461 16.4271 16.1621 16.6209 16.2411 16.8799C16.3201 17.1389 16.2491 17.4203 16.0567 17.6108C14.5477 19.2916 12.1586 19.8678 10.0494 19.0596C7.94016 18.2514 6.54778 16.2262 6.54833 13.9675V10.0333C6.54715 8.69154 7.0419 7.39665 7.9375 6.3975C8.21145 6.12277 8.65256 6.11067 8.94116 6.36996C9.22976 6.62926 9.26478 7.06914 9.02083 7.37083Z" fill="#5A5A5A"/>
</g>
</svg>
