<?xml version="1.0" encoding="UTF-8"?>
<svg width="24px" height="24px" viewBox="0 0 24 24" version="1.1" xmlns="http://www.w3.org/2000/svg" xmlns:xlink="http://www.w3.org/1999/xlink">
    <title>1. Interface Essentials/touch_id_1</title>
    <g id="1.-Interface-Essentials/touch_id_1" stroke="none" stroke-width="1" fill="none" fill-rule="evenodd">
        <path d="M17.6339517,4.8252613 C17.8980811,4.78947744 18.1612218,4.89741826 18.3241371,5.10837657 C19.4084007,6.50342427 19.9942554,8.22139146 19.9882951,9.98823883 L19.9882951,9.98823883 L19.9882951,14.0117607 C19.983553,18.4216027 16.4098412,21.9953145 11.9999992,22.0000108 C11.5882322,22.0000108 11.2544292,21.6662078 11.2544292,21.2544408 C11.2544292,20.8426739 11.5882322,20.5088708 11.9999992,20.5088708 C15.5866966,20.5051136 18.4933521,17.5984581 18.4971093,14.0117607 L18.4971093,14.0117607 L18.4971093,9.98823883 C18.5020731,8.55190275 18.0260242,7.15525259 17.1448583,6.02095427 C16.9815258,5.81031886 16.943063,5.52851236 17.0439752,5.28181109 C17.1448873,5.03510981 17.3698224,4.86104517 17.6339517,4.8252613 Z M4.75731903,11.6566115 C5.16908598,11.6566115 5.50288904,11.9904146 5.50288904,12.4021815 L5.50288904,12.4021815 L5.50288904,14.0117607 C5.49943922,16.6252605 7.06470029,18.9855802 9.47358193,19.999327 C9.84946826,20.1616694 10.0241045,20.5967609 9.86476669,20.9739307 C9.70542883,21.3511005 9.27174466,21.5292031 8.89331543,21.37288 C5.93161949,20.1268391 4.00718019,17.2248962 4.0117409,14.0117607 L4.0117409,14.0117607 L4.0117409,12.4021815 C4.0117409,11.9904146 4.34555208,11.6566115 4.75731903,11.6566115 Z M8.36007937,6.02475337 C8.5574717,6.01372497 8.7511486,6.08163744 8.89842791,6.21352435 C9.20569547,6.48777077 9.23276836,6.95906791 8.9589256,7.26669526 C8.2891391,8.01493792 7.91898734,8.98400735 7.91938797,9.98823883 L7.91938797,9.98823883 L7.91938797,14.0117607 C7.91916981,15.704863 8.96386252,17.2224578 10.545497,17.8266331 C12.1271315,18.4308084 13.9175508,17.9962101 15.0461852,16.7341563 C15.2186799,16.5176078 15.4969631,16.414471 15.7689222,16.466297 C16.0408813,16.518123 16.2617299,16.7163771 16.342494,16.981188 C16.4232582,17.245999 16.3506377,17.5337576 16.1538893,17.7285337 C14.6128841,19.4505407 12.1691863,20.0432018 10.0105277,19.2184607 C7.85186904,18.3937196 6.42589797,16.3226057 6.42569058,14.0117607 L6.42569058,14.0117607 L6.42569058,9.98823883 C6.42481973,8.61683511 6.93068064,7.29346413 7.84610909,6.27231788 C7.9777805,6.12484586 8.16268705,6.03578176 8.36007937,6.02475337 Z M11.9999992,6.82872613 C13.7449499,6.82872613 15.1595119,8.24328815 15.1595119,9.98823883 L15.1595119,9.98823883 L15.1595119,14.0117607 C15.1595119,15.7567114 13.7449499,17.1712734 11.9999992,17.1712734 C10.2550485,17.1712734 8.84048647,15.7567114 8.84048647,14.0117607 C8.84048647,13.5999937 9.17428954,13.2661907 9.58605649,13.2661907 C9.99782344,13.2661907 10.3316265,13.5999937 10.3316265,14.0117607 C10.3316265,14.9331775 11.0785824,15.6801334 11.9999992,15.6801334 C12.921416,15.6801334 13.6683719,14.9331775 13.6683719,14.0117607 L13.6683719,14.0117607 L13.6683719,9.98823883 C13.6683719,9.06682205 12.921416,8.31986616 11.9999992,8.31986616 C11.0785824,8.31986616 10.3316265,9.06682205 10.3316265,9.98823883 L10.3316265,9.98823883 L10.3316265,11.1956362 C10.3316265,11.6074032 9.99782344,11.9412062 9.58605649,11.9412062 C9.17428954,11.9412062 8.84048647,11.6074032 8.84048647,11.1956362 L8.84048647,11.1956362 L8.84048647,9.98823883 C8.84048647,8.24328815 10.2550485,6.82872613 11.9999992,6.82872613 Z M10.2600518,4.69085736 C11.9585081,4.13480876 13.8205537,4.4261717 15.2679705,5.4744697 C16.7153873,6.52276771 17.5729298,8.20107848 17.5743067,9.98823883 L17.5743067,9.98823883 L17.5743067,14.0117607 C17.5717504,14.4235276 17.2379474,14.7573307 16.8261804,14.7573307 C16.4144135,14.7573307 16.0806104,14.4235276 16.0806104,14.0117607 L16.0806104,14.0117607 L16.0806104,9.98823883 C16.0781002,8.67949494 15.4494309,7.45098827 14.3894139,6.68340716 C13.3293968,5.91582605 11.9660624,5.70188002 10.7218792,6.10786643 C10.4660308,6.20045444 10.1800613,6.1463177 9.97575946,5.96661884 C9.77145758,5.78691999 9.68126902,5.51019753 9.74044947,5.24462529 C9.79962993,4.97905306 9.99878078,4.76680736 10.2600518,4.69085736 Z M11.9999992,10.4500662 C12.4117661,10.4500662 12.7455692,10.7838693 12.7455692,11.1956362 L12.7455692,11.1956362 L12.7455692,13.6095789 C12.7455692,14.0213459 12.4117661,14.3551489 11.9999992,14.3551489 C11.5882322,14.3551489 11.2544292,14.0213459 11.2544292,13.6095789 L11.2544292,13.6095789 L11.2544292,11.1956362 C11.2544292,10.7838693 11.5882322,10.4500662 11.9999992,10.4500662 Z M8.20088493,2.96185738 C10.6421715,1.64157152 13.5937549,1.68291215 15.9971065,3.07105325 C16.2332131,3.20171196 16.3802909,3.44975213 16.3816764,3.71959674 C16.3830424,3.98944134 16.2385014,4.23896829 16.0037394,4.37202766 C15.7689774,4.50508704 15.4806401,4.50090859 15.2498324,4.3611024 C13.2952818,3.23324734 10.8955658,3.20005365 8.91056724,4.27341552 C6.92556868,5.34677739 5.63946963,7.3730271 5.513114,9.62610483 C5.490993,10.0209673 5.1647291,10.3300398 4.76924815,10.330775 L4.76924815,10.330775 L4.72749623,10.330775 C4.53010302,10.320221 4.34502825,10.2315329 4.21313538,10.0842925 C4.08124251,9.9370521 4.01337953,9.7433697 4.02453021,9.5460093 C4.17846587,6.77484734 5.75959836,4.28214324 8.20088493,2.96185738 Z" id="ðŸ–-Color" fill="#5A5A5A"></path>
        <rect id="_Transparent_Rectangle_" x="0" y="0" width="24" height="24"></rect>
    </g>
</svg>