<svg width="24" height="24" viewBox="0 0 24 24" fill="none" xmlns="http://www.w3.org/2000/svg">
<g id="touch_finger">
<path id="Shape" fill-rule="evenodd" clip-rule="evenodd" d="M7.51047 11.4429C7.43654 11.6512 7.28287 11.8217 7.08327 11.9167C6.66921 12.1127 6.17451 11.9378 5.97577 11.525C5.55039 10.6323 5.33083 9.65552 5.33327 8.66667C5.33327 4.98477 8.31804 2 11.9999 2C15.6818 2 18.6666 4.98477 18.6666 8.66667C18.6697 9.65442 18.4513 10.6303 18.0274 11.5225C17.8223 11.9299 17.3327 12.1036 16.9166 11.9167C16.5011 11.7201 16.3233 11.2242 16.5191 10.8083C16.8379 10.1395 17.0022 9.40757 16.9999 8.66667C16.9999 5.90524 14.7614 3.66667 11.9999 3.66667C9.23852 3.66667 6.99994 5.90524 6.99994 8.66667C6.99697 9.40648 7.16015 10.1375 7.47744 10.8058C7.57251 11.0054 7.58439 11.2346 7.51047 11.4429ZM13.6616 12.7967L17.8941 14.3158C18.3881 14.5019 18.7014 14.9901 18.6649 15.5167C18.6651 15.5478 18.6615 15.5789 18.6541 15.6092L17.3883 21.1758C17.2169 21.6647 16.7579 21.9941 16.2399 22H10.9166C10.4694 22.0004 10.0579 21.7561 9.84411 21.3633L6.73161 15.7192C6.52499 15.3377 6.53458 14.8757 6.75684 14.5031C6.97909 14.1306 7.38114 13.9027 7.81494 13.9033L8.63994 13.8875C9.02614 13.8847 9.39322 14.0554 9.63994 14.3525L10.3283 15.3008V8.25C10.3283 7.32953 11.0745 6.58333 11.9949 6.58333C12.9154 6.58333 13.6616 7.32953 13.6616 8.25V12.7967Z" fill="#5A5A5A"/>
</g>
</svg>
