<svg width="24" height="24" viewBox="0 0 24 24" fill="none" xmlns="http://www.w3.org/2000/svg">
<g id="touch_id_3">
<path id="Shape" fill-rule="evenodd" clip-rule="evenodd" d="M12 2C6.47715 2 2 6.47715 2 12C2 17.5228 6.47715 22 12 22C17.5228 22 22 17.5228 22 12C21.9931 6.48001 17.52 2.00689 12 2ZM12 15.6C12.9009 15.5986 13.6307 14.8684 13.6317 13.9675V10.0333C13.6317 9.13219 12.9011 8.40167 12 8.40167C11.0989 8.40167 10.3683 9.13219 10.3683 10.0333V11.2133C10.3683 11.616 10.0419 11.9425 9.63917 11.9425C9.23646 11.9425 8.91 11.616 8.91 11.2133V10.0333C8.91 8.32677 10.2934 6.94333 12 6.94333C13.7066 6.94333 15.09 8.32677 15.09 10.0333V13.9675C15.09 15.6741 13.7066 17.0575 12 17.0575C10.2934 17.0575 8.91 15.6741 8.91 13.9675C8.91 13.5648 9.23646 13.2383 9.63917 13.2383C10.0419 13.2383 10.3683 13.5648 10.3683 13.9675C10.3693 14.8684 11.0991 15.5986 12 15.6ZM11.2708 13.575V11.2133C11.2708 10.8106 11.5973 10.4842 12 10.4842C12.4027 10.4842 12.7292 10.8106 12.7292 11.2133V13.575C12.7292 13.9777 12.4027 14.3042 12 14.3042C11.5973 14.3042 11.2708 13.9777 11.2708 13.575ZM9.02083 7.37083C8.36392 8.10352 8.00146 9.05344 8.00333 10.0375V13.9717C8.00139 15.6283 9.02248 17.1141 10.5697 17.706C12.117 18.298 13.869 17.8732 14.9733 16.6383C15.142 16.4265 15.4142 16.3257 15.6802 16.3764C15.9461 16.4271 16.1621 16.6209 16.2411 16.8799C16.3201 17.1389 16.2491 17.4203 16.0567 17.6108C14.5477 19.2916 12.1586 19.8678 10.0494 19.0596C7.94016 18.2514 6.54778 16.2262 6.54833 13.9675V10.0333C6.54715 8.69154 7.0419 7.39665 7.9375 6.3975C8.21145 6.12277 8.65256 6.11067 8.94116 6.36996C9.22976 6.62926 9.26478 7.06914 9.02083 7.37083ZM17.4483 13.9675C17.4483 14.3702 17.1219 14.6967 16.7192 14.6967C16.3165 14.6967 15.99 14.3702 15.99 13.9675V10.0333C15.9877 8.75344 15.3731 7.55192 14.3366 6.80107C13.3001 6.05023 11.9668 5.84073 10.75 6.2375C10.3714 6.35088 9.97142 6.14202 9.84807 5.76656C9.72472 5.39111 9.92293 4.98573 10.295 4.8525C11.9565 4.30736 13.7786 4.59168 15.1951 5.61707C16.6115 6.64247 17.4507 8.28468 17.4517 10.0333L17.4483 13.9675Z" fill="#5A5A5A"/>
</g>
</svg>
