<svg width="24" height="24" viewBox="0 0 24 24" fill="none" xmlns="http://www.w3.org/2000/svg">
<g id="touch_id_lock">
<path id="Shape" fill-rule="evenodd" clip-rule="evenodd" d="M2.608 9.92927H2.64337C2.97848 9.92887 3.25495 9.66682 3.27327 9.33221C3.39969 7.06865 4.69161 5.03282 6.68587 3.95456C8.68013 2.8763 11.0911 2.91009 13.0543 4.0438C13.3548 4.20227 13.7268 4.0947 13.8963 3.80032C14.0658 3.50594 13.9721 3.13022 13.6842 2.9499C11.3407 1.59789 8.46356 1.55845 6.08387 2.84573C3.70418 4.133 2.16268 6.56267 2.01179 9.264C2.00261 9.43129 2.06027 9.59538 2.17209 9.72014C2.2839 9.84491 2.44071 9.92014 2.608 9.92927ZM16.3158 9.69769V9.76169C16.3161 9.82481 16.3446 9.88449 16.3935 9.92441C16.4423 9.96434 16.5065 9.98033 16.5684 9.968C16.8301 9.91105 17.0972 9.88281 17.3651 9.88379H17.3903C17.4923 9.88379 17.5751 9.80136 17.5756 9.69937C17.5835 7.97637 17.014 6.30037 15.9579 4.93895C15.8563 4.806 15.706 4.71894 15.5401 4.69698C15.3742 4.67502 15.2064 4.71996 15.0737 4.8219C14.9404 4.92337 14.8536 5.07429 14.833 5.24054C14.8124 5.4068 14.8597 5.57433 14.9642 5.70527C15.8447 6.84953 16.3201 8.25388 16.3158 9.69769ZM12.032 19.7971C11.3143 20.0632 10.5549 20.199 9.78947 20.1979C9.44066 20.1979 9.1579 20.4807 9.1579 20.8295C9.1579 21.1783 9.44066 21.4611 9.78947 21.4611C10.5972 21.4606 11.4 21.335 12.1693 21.0888C12.2567 21.0612 12.316 20.9801 12.3158 20.8884V19.9992C12.316 19.9301 12.2823 19.8654 12.2257 19.8259C12.1691 19.7865 12.0967 19.7772 12.032 19.8013V19.7971ZM3.26316 13.6716C3.25986 16.2968 4.83189 18.6678 7.25137 19.6867C7.5272 19.8042 7.68241 20.0995 7.62283 20.3933C7.56325 20.6871 7.30529 20.8986 7.00548 20.8994C6.92099 20.8996 6.83733 20.8827 6.75958 20.8497C3.87257 19.6344 1.99648 16.8056 2 13.6733V12.0834C2 11.7346 2.28277 11.4518 2.63158 11.4518C2.98039 11.4518 3.26316 11.7346 3.26316 12.0834V13.6716ZM14.3133 11.4265C14.2595 11.5003 14.1644 11.5312 14.0775 11.5032C13.9926 11.4733 13.9361 11.3927 13.9368 11.3027V9.69769C13.9322 7.40845 12.0753 5.55499 9.78611 5.55453C9.34516 5.55249 8.90692 5.62363 8.48926 5.76506C8.15945 5.86728 7.80827 5.68796 7.69769 5.36085C7.64387 5.20119 7.65635 5.02662 7.73233 4.87624C7.80831 4.72586 7.94144 4.61224 8.1019 4.56085C9.7487 4.02057 11.5547 4.30271 12.9583 5.31953C14.3618 6.33635 15.1927 7.96452 15.1924 9.69769V10.4657C15.1922 10.5319 15.161 10.5942 15.1082 10.6341C14.8033 10.8549 14.535 11.1223 14.3133 11.4265ZM12.2063 17.168C12.1392 17.131 12.0571 17.1335 11.9924 17.1747C11.3337 17.5929 10.5697 17.8148 9.78947 17.8147C7.503 17.8106 5.65049 15.9581 5.64632 13.6716V9.69769C5.64781 8.67902 6.02226 7.69617 6.69895 6.93474C6.81267 6.81123 6.87221 6.64734 6.8643 6.47963C6.85639 6.31193 6.78168 6.15437 6.65685 6.04211C6.3957 5.81158 5.99767 5.83411 5.76421 6.09264C4.8745 7.08256 4.38257 8.3667 4.38316 9.69769V13.6716C4.38641 16.6561 6.805 19.0746 9.78947 19.0779C10.628 19.0787 11.4546 18.8801 12.2013 18.4985C12.2713 18.4624 12.3154 18.3904 12.3158 18.3116V17.3524C12.3157 17.2756 12.2737 17.2049 12.2063 17.168ZM6.77895 9.69769C6.77615 8.03168 8.12347 6.67833 9.78947 6.67369C10.591 6.67369 11.3597 6.99245 11.926 7.5597C12.4923 8.12696 12.8098 8.89614 12.8084 9.69769V13.6741C12.8083 13.8433 12.7951 14.0122 12.7688 14.1794C12.7632 14.2195 12.7452 14.2568 12.7175 14.2863C12.4817 14.5532 12.3449 14.893 12.3301 15.2488C12.3281 15.287 12.3159 15.324 12.2947 15.3558C11.5542 16.456 10.1817 16.9431 8.91328 16.5558C7.64487 16.1685 6.77853 14.9978 6.77895 13.6716C6.77895 13.3228 7.06172 13.04 7.41053 13.04C7.75934 13.04 8.04211 13.3228 8.04211 13.6716C8.04211 14.639 8.82631 15.4232 9.79368 15.4232C10.7611 15.4232 11.5453 14.639 11.5453 13.6716V9.69769C11.5453 8.73032 10.7611 7.94611 9.79368 7.94611C8.82631 7.94611 8.04211 8.73032 8.04211 9.69769V10.8842C8.04211 11.233 7.75934 11.5158 7.41053 11.5158C7.06172 11.5158 6.77895 11.233 6.77895 10.8842V9.69769ZM10.4211 13.2741V10.8884C10.4211 10.5396 10.1383 10.2568 9.78947 10.2568C9.44066 10.2568 9.1579 10.5396 9.1579 10.8884V13.2741C9.1579 13.6229 9.44066 13.9057 9.78947 13.9057C10.1383 13.9057 10.4211 13.6229 10.4211 13.2741ZM20.7368 14.7377C20.7366 14.8424 20.8134 14.9314 20.917 14.9465C21.5391 15.0362 22.0006 15.5695 22 16.1979V20.8295C22 21.5271 21.4345 22.0926 20.7368 22.0926H14.8421C14.1445 22.0926 13.5789 21.5271 13.5789 20.8295V16.1979C13.5792 15.5701 14.0405 15.0378 14.6619 14.9482C14.7656 14.9331 14.8424 14.8441 14.8421 14.7394V13.8821C14.8421 12.2543 16.1617 10.9347 17.7895 10.9347C19.4173 10.9347 20.7368 12.2543 20.7368 13.8821V14.7377ZM16.9474 18.9331C16.9474 19.3981 17.3244 19.7752 17.7895 19.7752V19.7768C18.0131 19.7768 18.2276 19.6879 18.3855 19.5296C18.5435 19.3713 18.632 19.1567 18.6316 18.9331C18.6316 18.468 18.2546 18.0909 17.7895 18.0909C17.3244 18.0909 16.9474 18.468 16.9474 18.9331ZM19.0526 14.7225C19.0529 14.7784 19.0307 14.8321 18.9912 14.8716C18.9517 14.9112 18.898 14.9333 18.8421 14.9331H16.7368C16.6809 14.9333 16.6273 14.9112 16.5877 14.8716C16.5482 14.8321 16.5261 14.7784 16.5263 14.7225V13.8804C16.5263 13.1828 17.0918 12.6173 17.7895 12.6173C18.4871 12.6173 19.0526 13.1828 19.0526 13.8804V14.7225Z" fill="#5A5A5A"/>
</g>
</svg>
