<svg width="24" height="24" viewBox="0 0 24 24" fill="none" xmlns="http://www.w3.org/2000/svg">
<g id="touch_id_1">
<path id="Shape" fill-rule="evenodd" clip-rule="evenodd" d="M4.76923 10.3308H4.72747C4.53008 10.3202 4.34501 10.2315 4.21311 10.0843C4.08122 9.93704 4.01336 9.74336 4.02451 9.546C4.17844 6.77484 5.75958 4.28213 8.20086 2.96185C10.6421 1.64156 13.5937 1.6829 15.9971 3.07104C16.2332 3.2017 16.3803 3.44974 16.3816 3.71959C16.383 3.98943 16.2385 4.23896 16.0037 4.37202C15.769 4.50508 15.4806 4.5009 15.2498 4.36109C13.2953 3.23324 10.8955 3.20004 8.91055 4.2734C6.92555 5.34677 5.63945 7.37302 5.51309 9.62609C5.49097 10.021 5.16471 10.33 4.76923 10.3308ZM18.3241 5.10837C18.1612 4.89741 17.8981 4.78947 17.6339 4.82525C17.3698 4.86103 17.1449 5.0351 17.044 5.2818C16.943 5.5285 16.9815 5.81031 17.1448 6.02094C18.026 7.15524 18.5021 8.55189 18.4971 9.98823V14.0118C18.4933 17.5984 15.5867 20.5051 12 20.5089C11.5882 20.5089 11.2544 20.8427 11.2544 21.2544C11.2544 21.6662 11.5882 22 12 22C16.4098 21.9953 19.9835 18.4216 19.9882 14.0118V9.98823C19.9942 8.22138 19.4084 6.50341 18.3241 5.10837ZM9.47356 19.9993C7.06468 18.9856 5.49942 16.6252 5.50287 14.0118V12.4022C5.50287 11.9904 5.16906 11.6566 4.7573 11.6566C4.34553 11.6566 4.01173 11.9904 4.01173 12.4022V14.0118C4.00716 17.2249 5.9316 20.1268 8.89329 21.3729C9.27172 21.5292 9.70541 21.3511 9.86474 20.9739C10.0241 20.5968 9.84945 20.1617 9.47356 19.9993ZM17.5743 14.0117V9.98823C17.5729 8.20107 16.7154 6.52276 15.2679 5.47446C13.8205 4.42616 11.9585 4.1348 10.26 4.69085C9.99876 4.7668 9.79961 4.97904 9.74043 5.24461C9.68125 5.51019 9.77144 5.78691 9.97574 5.96661C10.18 6.14631 10.466 6.20044 10.7219 6.10786C11.966 5.70187 13.3294 5.91581 14.3894 6.6834C15.4494 7.45098 16.0781 8.67948 16.0806 9.98823V14.0117C16.0806 14.4235 16.4144 14.7573 16.8262 14.7573C17.2379 14.7573 17.5717 14.4235 17.5717 14.0117H17.5743ZM8.36006 6.02474C8.55745 6.01371 8.75113 6.08163 8.89841 6.21351C9.20567 6.48776 9.23275 6.95906 8.9589 7.26668C8.28912 8.01493 7.91897 8.984 7.91937 9.98823V14.0117C7.91915 15.7049 8.96384 17.2224 10.5455 17.8266C12.1271 18.4308 13.9175 17.9962 15.0462 16.7341C15.2187 16.5176 15.4969 16.4145 15.7689 16.4663C16.0409 16.5181 16.2617 16.7164 16.3425 16.9812C16.4232 17.246 16.3506 17.5337 16.1539 17.7285C14.6129 19.4505 12.1692 20.0432 10.0105 19.2185C7.85185 18.3937 6.42588 16.3226 6.42567 14.0117V9.98823C6.4248 8.61682 6.93066 7.29345 7.84609 6.27231C7.97776 6.12484 8.16266 6.03577 8.36006 6.02474ZM10.3316 14.0117C10.3316 13.6 9.9978 13.2662 9.58603 13.2662C9.17427 13.2662 8.84046 13.6 8.84046 14.0117C8.84046 15.7567 10.255 17.1713 12 17.1713C13.7449 17.1713 15.1595 15.7567 15.1595 14.0117V9.98823C15.1595 8.24328 13.7449 6.82872 12 6.82872C10.255 6.82872 8.84046 8.24328 8.84046 9.98823V11.1956C8.84046 11.6074 9.17427 11.9412 9.58603 11.9412C9.9978 11.9412 10.3316 11.6074 10.3316 11.1956V9.98823C10.3316 9.06681 11.0786 8.31986 12 8.31986C12.9214 8.31986 13.6684 9.06681 13.6684 9.98823V14.0117C13.6684 14.9332 12.9214 15.6801 12 15.6801C11.0786 15.6801 10.3316 14.9332 10.3316 14.0117ZM12.7455 11.1956V13.6096C12.7455 14.0213 12.4117 14.3551 12 14.3551C11.5882 14.3551 11.2544 14.0213 11.2544 13.6096V11.1956C11.2544 10.7839 11.5882 10.4501 12 10.4501C12.4117 10.4501 12.7455 10.7839 12.7455 11.1956Z" fill="#5A5A5A"/>
</g>
</svg>
