<?xml version="1.0" encoding="UTF-8"?>
<svg width="24px" height="24px" viewBox="0 0 24 24" version="1.1" xmlns="http://www.w3.org/2000/svg" xmlns:xlink="http://www.w3.org/1999/xlink">
    <title>1. Interface Essentials/touch_id_3</title>
    <g id="1.-Interface-Essentials/touch_id_3" stroke="none" stroke-width="1" fill="none" fill-rule="evenodd">
        <path d="M12,2 C6.4771525,2 2,6.4771525 2,12 C2,17.5228475 6.4771525,22 12,22 C17.5228475,22 22,17.5228475 22,12 C21.9931129,6.48000774 17.5199923,2.00688709 12,2 Z M12,15.6 C12.9008986,15.5986222 13.6307489,14.8683992 13.6316667,13.9675 L13.6316667,10.0333333 C13.6316667,9.13218872 12.9011446,8.40166667 12,8.40166667 C11.0988554,8.40166667 10.3683333,9.13218872 10.3683333,10.0333333 L10.3683333,11.2133333 C10.3683333,11.616041 10.0418743,11.9425 9.63916667,11.9425 C9.23645904,11.9425 8.91,11.616041 8.91,11.2133333 L8.91,10.0333333 C8.91,8.32677346 10.2934401,6.94333333 12,6.94333333 C13.7065599,6.94333333 15.09,8.32677346 15.09,10.0333333 L15.09,13.9675 C15.09,15.6740599 13.7065599,17.0575 12,17.0575 C10.2934401,17.0575 8.91,15.6740599 8.91,13.9675 C8.91,13.5647924 9.23645904,13.2383333 9.63916667,13.2383333 C10.0418743,13.2383333 10.3683333,13.5647924 10.3683333,13.9675 C10.3692511,14.8683992 11.0991014,15.5986222 12,15.6 Z M11.2708333,13.575 L11.2708333,11.2133333 C11.2708333,10.8106257 11.5972924,10.4841667 12,10.4841667 C12.4027076,10.4841667 12.7291667,10.8106257 12.7291667,11.2133333 L12.7291667,13.575 C12.7291667,13.9777076 12.4027076,14.3041667 12,14.3041667 C11.5972924,14.3041667 11.2708333,13.9777076 11.2708333,13.575 L11.2708333,13.575 Z M9.02083333,7.37083333 C8.36391808,8.10352315 8.00146435,9.05344282 8.00333333,10.0375 L8.00333333,13.9716667 C8.00139009,15.6282807 9.02247593,17.1140716 10.5697169,17.7060337 C12.1169579,18.2979958 13.8690227,17.8731903 14.9733333,16.6383333 C15.1420329,16.4265491 15.4141936,16.3256814 15.6801693,16.3763672 C15.946145,16.427053 16.1621347,16.6209452 16.2411219,16.87993 C16.3201092,17.1389149 16.2490864,17.4203425 16.0566667,17.6108333 C14.5477117,19.2915958 12.1585685,19.8677738 10.0493652,19.0595848 C7.94016196,18.2513958 6.54777861,16.2262402 6.54833121,13.9675 L6.54833121,10.0333333 C6.54714816,8.69154206 7.04189633,7.39664928 7.9375,6.3975 C8.21144938,6.12276823 8.6525576,6.11066568 8.94115897,6.36996291 C9.22976034,6.62926014 9.26477723,7.0691428 9.02083333,7.37083333 L9.02083333,7.37083333 Z M17.4483333,13.9675 C17.4483333,14.3702076 17.1218743,14.6966667 16.7191667,14.6966667 C16.316459,14.6966667 15.99,14.3702076 15.99,13.9675 L15.99,10.0333333 C15.9877247,8.75343867 15.3731086,7.55191956 14.3365933,6.80107235 C13.3000779,6.05022514 11.9668439,5.84073001 10.75,6.2375 C10.3714125,6.35087735 9.97141556,6.14202173 9.84807012,5.76656361 C9.72472467,5.39110549 9.92293364,4.98572734 10.295,4.8525 C11.956509,4.30736466 13.7786381,4.5916752 15.1950937,5.61707168 C16.6115494,6.64246815 17.4506695,8.2846814 17.4516667,10.0333333 L17.4483333,13.9675 Z" id="ðŸ–-Color" fill="#5A5A5A"></path>
        <rect id="_Transparent_Rectangle_" x="0" y="0" width="24" height="24"></rect>
    </g>
</svg>