<svg width="24" height="24" viewBox="0 0 24 24" fill="none" xmlns="http://www.w3.org/2000/svg">
<g id="translate">
<path id="Shape" fill-rule="evenodd" clip-rule="evenodd" d="M11.9308 12.8333C12.1705 12.8333 12.4003 12.738 12.5696 12.5684C12.7389 12.3988 12.8338 12.1688 12.8333 11.9292V2.90083C12.8324 2.40305 12.4286 2 11.9308 2H2.9025C2.40472 2 2.00092 2.40305 2 2.90083V11.9292C1.99956 12.1688 2.09445 12.3988 2.26375 12.5684C2.43305 12.738 2.66286 12.8333 2.9025 12.8333H11.9308ZM10.9367 10.9167C10.8626 11.189 10.6155 11.3781 10.3333 11.3783C10.2771 11.3783 10.2211 11.3711 10.1667 11.3567C9.21675 11.0962 8.32583 10.6554 7.5425 10.0583C7.46852 10.0025 7.36648 10.0025 7.2925 10.0583C6.50828 10.6539 5.6168 11.093 4.66667 11.3517C4.61228 11.3661 4.55626 11.3733 4.5 11.3733C4.18513 11.3768 3.91698 11.1452 3.87462 10.8332C3.83225 10.5212 4.02894 10.2264 4.33334 10.1458C5.03759 9.95447 5.70408 9.64447 6.30417 9.22917C6.35409 9.19582 6.38744 9.14278 6.39584 9.08333C6.40496 9.02338 6.38729 8.96244 6.3475 8.91667C5.74037 8.20381 5.26439 7.38899 4.94167 6.51C4.9123 6.4291 4.83605 6.37473 4.75 6.37333H4.10917C3.76399 6.37333 3.48417 6.09351 3.48417 5.74833C3.48417 5.40315 3.76399 5.12333 4.10917 5.12333H6.58334C6.69839 5.12333 6.79167 5.03006 6.79167 4.915V4.08167C6.79167 3.73649 7.07149 3.45667 7.41667 3.45667C7.76185 3.45667 8.04167 3.73649 8.04167 4.08167V4.915C8.04167 5.03006 8.13494 5.12333 8.25 5.12333H10.75C11.0952 5.12333 11.375 5.40315 11.375 5.74833C11.375 6.09351 11.0952 6.37333 10.75 6.37333H10.0875C9.99992 6.373 9.92156 6.42768 9.89167 6.51C9.56894 7.38899 9.09297 8.20381 8.48584 8.91667C8.44756 8.96149 8.43007 9.02044 8.43769 9.07889C8.44532 9.13734 8.47734 9.18982 8.52584 9.22333C9.12593 9.63864 9.79241 9.94864 10.4967 10.14C10.6579 10.183 10.7952 10.2889 10.8779 10.4339C10.9606 10.5789 10.9818 10.751 10.9367 10.9117V10.9167ZM8.4825 6.6725C8.51336 6.60777 8.5089 6.53175 8.4707 6.47107C8.4325 6.41038 8.36588 6.3735 8.29417 6.37333H6.53917C6.46746 6.3735 6.40084 6.41038 6.36264 6.47107C6.32444 6.53175 6.31998 6.60777 6.35084 6.6725C6.59376 7.17166 6.89836 7.63836 7.2575 8.06167C7.29693 8.1088 7.35522 8.13604 7.41667 8.13604C7.47812 8.13604 7.53641 8.1088 7.57584 8.06167C7.93498 7.63836 8.23958 7.17166 8.4825 6.6725ZM21.0975 11.1667H14.9167C14.6866 11.1667 14.5 11.3532 14.5 11.5833V11.9308C14.5 13.3497 13.3497 14.5 11.9308 14.5H11.5833C11.3532 14.5 11.1667 14.6865 11.1667 14.9167V21.0975C11.1667 21.5959 11.5707 22 12.0692 22H21.0975C21.3371 22 21.567 21.9047 21.7363 21.7351C21.9056 21.5655 22.0004 21.3355 22 21.0958V12.0675C21.9991 11.5697 21.5953 11.1667 21.0975 11.1667ZM19.3033 20.5C19.233 20.5266 19.1585 20.5402 19.0833 20.54C18.8236 20.5395 18.5912 20.3782 18.5 20.135L18.0775 19.0083C18.0468 18.9273 17.9692 18.8736 17.8825 18.8733H15.2858C15.1991 18.8736 15.1216 18.9273 15.0908 19.0083L14.6667 20.135C14.5295 20.433 14.1853 20.5743 13.8784 20.4585C13.5714 20.3427 13.4062 20.0094 13.5 19.695L15.61 14.0692C15.7627 13.6631 16.1511 13.3942 16.585 13.3942C17.0189 13.3942 17.4073 13.6631 17.56 14.0692L19.025 17.975C19.0372 18.0021 19.0478 18.0299 19.0567 18.0583L19.67 19.6942C19.7285 19.8496 19.7227 20.022 19.6539 20.1732C19.5851 20.3244 19.459 20.442 19.3033 20.5ZM15.7395 17.5336C15.7006 17.4774 15.6918 17.4057 15.7158 17.3417L16.3883 15.5492C16.4189 15.4679 16.4966 15.4142 16.5833 15.4142C16.6701 15.4142 16.7478 15.4679 16.7783 15.5492L17.4508 17.3417C17.4749 17.4057 17.466 17.4774 17.4271 17.5336C17.3882 17.5898 17.3242 17.6233 17.2558 17.6233H15.9108C15.8425 17.6233 15.7785 17.5898 15.7395 17.5336ZM16.705 6.46C16.824 6.57926 17.003 6.61517 17.1588 6.55097C17.3145 6.48678 17.4163 6.33512 17.4167 6.16667V5.90833C17.4166 5.83525 17.4549 5.7675 17.5175 5.7298C17.5801 5.6921 17.6579 5.68996 17.7225 5.72417C18.8141 6.30026 19.498 7.43239 19.5 8.66667C19.5 9.1269 19.8731 9.5 20.3333 9.5C20.7936 9.5 21.1667 9.1269 21.1667 8.66667C21.1641 6.4466 19.6979 4.49412 17.5667 3.8725C17.4778 3.84657 17.4167 3.76509 17.4167 3.6725V2.83333C17.4166 2.66472 17.315 2.51274 17.1592 2.44833C17.0032 2.38532 16.8247 2.42101 16.705 2.53917L15.0383 4.20583C14.8757 4.36854 14.8757 4.63229 15.0383 4.795L16.705 6.46ZM2.83334 14.4933C2.837 14.0357 3.20902 13.6666 3.66667 13.6667C4.12691 13.6667 4.5 14.0398 4.5 14.5C4.50203 15.7343 5.18592 16.8664 6.2775 17.4425C6.3419 17.4772 6.41987 17.4753 6.4825 17.4375C6.54505 17.3994 6.58326 17.3315 6.58334 17.2583V17C6.58337 16.8314 6.68502 16.6794 6.84084 16.615C6.99666 16.5506 7.17593 16.5865 7.295 16.7058L8.96167 18.3725C9.12433 18.5352 9.12433 18.799 8.96167 18.9617L7.295 20.6283C7.17582 20.7478 6.99635 20.7836 6.84045 20.719C6.68456 20.6544 6.58303 20.5021 6.58334 20.3333V19.4942C6.58334 19.4016 6.52223 19.3201 6.43334 19.2942C4.30208 18.6725 2.83593 16.7201 2.83334 14.5V14.4933Z" fill="#5A5A5A"/>
</g>
</svg>
