<?xml version="1.0" encoding="UTF-8"?>
<svg width="24px" height="24px" viewBox="0 0 24 24" version="1.1" xmlns="http://www.w3.org/2000/svg" xmlns:xlink="http://www.w3.org/1999/xlink">
    <title>1. Interface Essentials/translate</title>
    <g id="1.-Interface-Essentials/translate" stroke="none" stroke-width="1" fill="none" fill-rule="evenodd">
        <path d="M21.0974979,11.1666669 C21.5952846,11.1666669 21.9990784,11.5697141 21.9999992,12.0675 L21.9999992,12.0675 L21.9999992,21.0958312 C22.0004403,21.3354777 21.9055511,21.5654605 21.7362516,21.7350726 C21.5669521,21.9046848 21.3371448,21.9999977 21.0974979,21.9999977 L21.0974979,21.9999977 L12.0691667,21.9999977 C11.5707298,21.9999977 11.1666669,21.5959348 11.1666669,21.0974979 L11.1666669,21.0974979 L11.1666669,14.916666 C11.1666669,14.6865474 11.3532148,14.4999994 11.5833334,14.4999994 L11.5833334,14.4999994 L11.9308333,14.4999994 C13.3497446,14.4999994 14.4999994,13.3497446 14.4999994,11.9308333 L14.4999994,11.9308333 L14.4999994,11.5833334 C14.4999994,11.3532148 14.6865474,11.1666669 14.916666,11.1666669 L14.916666,11.1666669 Z M3.66666859,13.6666663 C4.12690577,13.6666663 4.50000173,14.0397622 4.50000173,14.4999994 C4.50202596,15.7342759 5.18591811,16.8664011 6.27750132,17.4424987 C6.34190116,17.4772414 6.41987176,17.4753397 6.48250127,17.4374987 C6.54504741,17.3994378 6.58325488,17.3315485 6.58333458,17.2583321 L6.58333458,17.2583321 L6.58333458,16.9999988 C6.5833704,16.8313932 6.68501507,16.6794276 6.84083397,16.61502 C6.99665287,16.5506125 7.17592968,16.5864594 7.29500109,16.7058322 L7.29500109,16.7058322 L8.96166737,18.3724985 C9.12432647,18.5352068 9.12432647,18.7989568 8.96166737,18.9616651 L8.96166737,18.9616651 L7.29500109,20.6283313 C7.17582262,20.747812 6.99634328,20.7836064 6.84044845,20.7189849 C6.68455362,20.6543634 6.58303265,20.5020888 6.58333458,20.3333314 L6.58333458,20.3333314 L6.58333458,19.4941649 C6.58333458,19.4015724 6.52222349,19.3200909 6.43333462,19.294165 C4.3020743,18.672549 2.83592596,16.7200603 2.83333545,14.4999994 L2.83333545,14.4999994 C2.83699662,14.0357012 3.20902238,13.6666663 3.66666859,13.6666663 Z M16.5849989,13.3941663 C16.1511428,13.3941663 15.7627165,13.6630769 15.6099992,14.0691662 L15.6099992,14.0691662 L13.4999997,19.6949982 C13.4061964,20.0093556 13.5714042,20.3427382 13.8783542,20.4585022 C14.1853042,20.5742662 14.5295191,20.4330087 14.6666661,20.1349981 L14.6666661,20.1349981 L15.0908326,19.0083317 C15.1215734,18.927268 15.1991362,18.8735706 15.2858326,18.8733317 L15.2858326,18.8733317 L17.8824986,18.8733317 C17.9691951,18.8735706 18.0467579,18.927268 18.0774986,19.0083317 L18.0774986,19.0083317 L18.4999985,20.1349981 C18.5912157,20.3782361 18.8235528,20.5395444 19.0833317,20.5399995 C19.1584882,20.540164 19.2330436,20.5266085 19.3033316,20.499998 C19.4589884,20.4419868 19.5851476,20.3243958 19.6539456,20.1731967 C19.7227435,20.0219976 19.7285196,19.8496305 19.6699982,19.6941649 L19.6699982,19.6941649 L19.056665,18.0583319 C19.0477919,18.0299437 19.0372172,18.0021155 19.0249984,17.9749986 L19.0249984,17.9749986 L17.5599987,14.0691662 C17.4072814,13.6630769 17.0188551,13.3941663 16.5849989,13.3941663 Z M16.5833323,15.4141659 C16.6701035,15.4141659 16.7477888,15.467948 16.7783322,15.5491658 L16.7783322,15.5491658 L17.4508321,17.3416654 C17.474896,17.4056537 17.4660353,17.4773762 17.4271221,17.5335841 C17.3882089,17.5897921 17.3241956,17.623332 17.2558321,17.623332 L17.2558321,17.623332 L15.9108324,17.623332 C15.8424689,17.623332 15.7784556,17.5897921 15.7395424,17.5335841 C15.7006292,17.4773762 15.6917685,17.4056537 15.7158325,17.3416654 L15.7158325,17.3416654 L16.3883323,15.5491658 C16.4188758,15.467948 16.4965611,15.4141659 16.5833323,15.4141659 Z M11.9308333,2.00000231 C12.4286201,2.00000231 12.8324139,2.40304956 12.8333347,2.90083543 L12.8333347,2.90083543 L12.8333347,11.9291667 C12.8337757,12.1688131 12.7388866,12.3987959 12.5695871,12.5684081 C12.4002875,12.7380203 12.1704802,12.8333331 11.9308333,12.8333331 L11.9308333,12.8333331 L2.9025021,12.8333331 C2.66285522,12.8333331 2.43304793,12.7380203 2.2637484,12.5684081 C2.09444886,12.3987959 1.99955975,12.1688131 2.00000077,11.9291667 L2.00000077,11.9291667 L2.00000077,2.90083543 C2.00092158,2.40304956 2.40471538,2.00000231 2.9025021,2.00000231 L2.9025021,2.00000231 Z M7.41666772,3.45666864 C7.07148983,3.45666864 6.79166787,3.7364906 6.79166787,4.08166849 L6.79166787,4.08166849 L6.79166787,4.91500163 C6.79166787,5.03006093 6.69839388,5.12333492 6.58333458,5.12333492 L6.58333458,5.12333492 L4.10916849,5.12333492 C3.7639906,5.12333492 3.48416863,5.40315689 3.48416863,5.74833478 C3.48416863,6.09351266 3.7639906,6.37333463 4.10916849,6.37333463 L4.10916849,6.37333463 L4.75000167,6.37333463 C4.83604969,6.37473602 4.91230199,6.42910723 4.94166829,6.51000127 C5.26439088,7.38899019 5.74036456,8.2038165 6.3475013,8.91666738 C6.38728621,8.96244017 6.40495812,9.02337778 6.39583463,9.08333401 C6.38743599,9.14277915 6.35409316,9.19582456 6.30416798,9.22916731 C5.70407549,9.64447661 5.03758856,9.95447053 4.3333351,10.1458338 C4.02893746,10.2264377 3.83224917,10.5211565 3.87461518,10.8331822 C3.9169812,11.1452079 4.18513221,11.376812 4.50000173,11.3733335 C4.55625961,11.3733356 4.61228095,11.3660529 4.66666836,11.3516668 C5.61679546,11.0929594 6.50827537,10.653868 7.29250109,10.0583338 C7.36648179,10.0024989 7.46852032,10.0024989 7.54250103,10.0583338 C8.32583077,10.6554525 9.21675294,11.0962454 10.1666671,11.3566668 C10.2210545,11.3710529 10.2770758,11.3783335 10.3333337,11.3783335 C10.6155296,11.3780699 10.8626423,11.1889809 10.9366669,10.9166669 L10.9366669,10.9166669 C10.9817568,10.7509586 10.9605999,10.5788857 10.8779223,10.4338868 C10.7952447,10.2888878 10.6579354,10.1830445 10.496667,10.1400004 C9.79241356,9.94863719 9.12592663,9.63864327 8.52583413,9.22333397 C8.47734169,9.18982318 8.44531448,9.13733866 8.43769061,9.07888896 C8.43006673,9.02043927 8.44755983,8.96149558 8.48583414,8.91666738 C9.09297088,8.2038165 9.56894456,7.38899019 9.89166715,6.51000127 C9.92156277,6.42768334 9.99992261,6.37299817 10.0875004,6.37333463 L10.0875004,6.37333463 L10.7500003,6.37333463 C11.0951782,6.37333462 11.3750001,6.09351266 11.3750001,5.74833478 C11.3750001,5.40315689 11.0951782,5.12333493 10.7500003,5.12333492 L10.7500003,5.12333492 L8.25000086,5.12333492 C8.13494157,5.12333492 8.04166758,5.03006093 8.04166758,4.91500163 L8.04166758,4.91500163 L8.04166758,4.08166849 C8.04166758,3.7364906 7.76184561,3.45666864 7.41666772,3.45666864 Z M16.7049989,2.53916885 C16.82472,2.42101598 17.0032103,2.38531794 17.1591655,2.44833554 C17.3149917,2.51274588 17.416638,2.66472199 17.4166654,2.83333545 L17.4166654,2.83333545 L17.4166654,3.67250192 C17.4166654,3.76509449 17.4777765,3.84657595 17.5666654,3.87250187 C19.6979257,4.49411783 21.164074,6.44660658 21.1666646,8.66666744 C21.1666646,9.12690462 20.7935686,9.50000058 20.3333314,9.50000058 C19.8730942,9.50000058 19.4999983,9.12690462 19.4999983,8.66666744 C19.497974,7.43239101 18.8140819,6.30026575 17.7224987,5.72416811 C17.6579149,5.6899662 17.5801323,5.69210555 17.5175262,5.72980571 C17.45492,5.76750587 17.4166456,5.83525374 17.4166654,5.90833474 L17.4166654,5.90833474 L17.4166654,6.16666801 C17.4162931,6.33512202 17.3145251,6.48677954 17.1587817,6.55097356 C17.0030383,6.61516758 16.8239631,6.57926742 16.7049989,6.46000128 L16.7049989,6.46000128 L15.0383326,4.79500166 C14.8756735,4.63229343 14.8756735,4.36854336 15.0383326,4.20583513 L15.0383326,4.20583513 Z M8.29416752,6.37333463 C8.3658736,6.37349929 8.43249753,6.410384 8.4706991,6.47106703 C8.50890067,6.53175005 8.5133547,6.60777235 8.48250081,6.67250123 C8.23958252,7.17166247 7.9349803,7.63836458 7.57583435,8.06166757 C7.53640938,8.10880485 7.47811894,8.13604272 7.41666772,8.13604272 C7.35521651,8.13604272 7.29692607,8.10880485 7.25750109,8.06166757 C6.89835515,7.63836458 6.59375293,7.17166247 6.35083464,6.67250123 C6.31998075,6.60777235 6.32443478,6.53175005 6.36263635,6.47106703 C6.40083792,6.410384 6.46746184,6.37349929 6.53916793,6.37333463 L6.53916793,6.37333463 Z" id="ðŸ–-Color" fill="#5A5A5A"></path>
        <rect id="_Transparent_Rectangle_" x="0" y="0" width="24" height="24"></rect>
    </g>
</svg>