<?xml version="1.0" encoding="UTF-8"?>
<svg width="24px" height="24px" viewBox="0 0 24 24" version="1.1" xmlns="http://www.w3.org/2000/svg" xmlns:xlink="http://www.w3.org/1999/xlink">
    <title>1. Interface Essentials/trash</title>
    <g id="1.-Interface-Essentials/trash" stroke="none" stroke-width="1" fill="none" fill-rule="evenodd">
        <path d="M18.25,8.25 C18.4801186,8.25 18.6666667,8.43654802 18.6666667,8.66666667 L18.6666667,8.66666667 L18.6666667,20.3333333 C18.6666667,21.2538079 17.9204746,22 17,22 L17,22 L7,22 C6.07952542,22 5.33333333,21.2538079 5.33333333,20.3333333 L5.33333333,20.3333333 L5.33333333,8.66666667 C5.33333333,8.43654802 5.51988135,8.25 5.75,8.25 L5.75,8.25 Z M9.91666667,10.9583333 C9.5714887,10.9583333 9.29166667,11.2381554 9.29166667,11.5833333 L9.29166667,11.5833333 L9.29166667,19.0833333 C9.29166667,19.4285113 9.5714887,19.7083333 9.91666667,19.7083333 C10.2618446,19.7083333 10.5416667,19.4285113 10.5416667,19.0833333 L10.5416667,19.0833333 L10.5416667,11.5833333 C10.5416667,11.2381554 10.2618446,10.9583333 9.91666667,10.9583333 Z M14.0833333,10.9583333 C13.7381554,10.9583333 13.4583333,11.2381554 13.4583333,11.5833333 L13.4583333,11.5833333 L13.4583333,19.0833333 C13.4583333,19.4285113 13.7381554,19.7083333 14.0833333,19.7083333 C14.4285113,19.7083333 14.7083333,19.4285113 14.7083333,19.0833333 L14.7083333,19.0833333 L14.7083333,11.5833333 C14.7083333,11.2381554 14.4285113,10.9583333 14.0833333,10.9583333 Z M14.0833333,2 C15.2339266,2 16.1666667,2.9327401 16.1666667,4.08333333 L16.1666667,4.08333333 L16.1666667,5.125 C16.1666667,5.24005932 16.2599407,5.33333333 16.375,5.33333333 L16.375,5.33333333 L20.3333333,5.33333333 C20.7935706,5.33333333 21.1666667,5.70642938 21.1666667,6.16666667 C21.1666667,6.62690396 20.7935706,7 20.3333333,7 L20.3333333,7 L3.66666667,7 C3.20642938,7 2.83333333,6.62690396 2.83333333,6.16666667 C2.83333333,5.70642938 3.20642938,5.33333333 3.66666667,5.33333333 L3.66666667,5.33333333 L7.625,5.33333333 C7.68025344,5.33333333 7.73324383,5.31138399 7.77231391,5.27231391 C7.81138399,5.23324383 7.83333333,5.18025344 7.83333333,5.125 L7.83333333,5.125 L7.83333333,4.08333333 C7.83333333,2.9327401 8.76607344,2 9.91666667,2 L9.91666667,2 Z M14.0833333,3.66666667 L9.91666667,3.66666667 C9.68654802,3.66666667 9.5,3.85321469 9.5,4.08333333 L9.5,4.08333333 L9.5,5.125 C9.5,5.24005932 9.59327401,5.33333333 9.70833333,5.33333333 L9.70833333,5.33333333 L14.2916667,5.33333333 C14.406726,5.33333333 14.5,5.24005932 14.5,5.125 L14.5,5.125 L14.5,4.08333333 C14.5,3.85321469 14.313452,3.66666667 14.0833333,3.66666667 L14.0833333,3.66666667 Z" id="ðŸ–-Color" fill="#5A5A5A"></path>
        <rect id="_Transparent_Rectangle_" x="0" y="0" width="24" height="24"></rect>
    </g>
</svg>