<svg width="24" height="24" viewBox="0 0 24 24" fill="none" xmlns="http://www.w3.org/2000/svg">
<g id="trash">
<path id="Shape" fill-rule="evenodd" clip-rule="evenodd" d="M20.3333 5.33333H16.3749C16.2599 5.33333 16.1666 5.24006 16.1666 5.125V4.08333C16.1666 2.93274 15.2338 2 14.0833 2H9.91659C8.76599 2 7.83325 2.93274 7.83325 4.08333V5.125C7.83325 5.18025 7.8113 5.23324 7.77223 5.27231C7.73316 5.31138 7.68017 5.33333 7.62492 5.33333H3.66659C3.20635 5.33333 2.83325 5.70643 2.83325 6.16667C2.83325 6.6269 3.20635 7 3.66659 7H20.3333C20.7935 7 21.1666 6.6269 21.1666 6.16667C21.1666 5.70643 20.7935 5.33333 20.3333 5.33333ZM9.49992 5.125V4.08333C9.49992 3.85321 9.68647 3.66667 9.91658 3.66667H14.0833C14.3134 3.66667 14.4999 3.85321 14.4999 4.08333V5.125C14.4999 5.24006 14.4066 5.33333 14.2916 5.33333H9.70825C9.59319 5.33333 9.49992 5.24006 9.49992 5.125ZM5.74992 8.25H18.2499C18.48 8.25 18.6666 8.43655 18.6666 8.66667V20.3333C18.6666 21.2538 17.9204 22 16.9999 22H6.99992C6.07944 22 5.33325 21.2538 5.33325 20.3333V8.66667C5.33325 8.43655 5.5198 8.25 5.74992 8.25ZM9.91658 19.7083C10.2618 19.7083 10.5416 19.4285 10.5416 19.0833V11.5833C10.5416 11.2382 10.2618 10.9583 9.91658 10.9583C9.57141 10.9583 9.29158 11.2382 9.29158 11.5833V19.0833C9.29158 19.4285 9.57141 19.7083 9.91658 19.7083ZM14.7083 19.0833C14.7083 19.4285 14.4284 19.7083 14.0833 19.7083C13.7381 19.7083 13.4583 19.4285 13.4583 19.0833V11.5833C13.4583 11.2382 13.7381 10.9583 14.0833 10.9583C14.4284 10.9583 14.7083 11.2382 14.7083 11.5833V19.0833Z" fill="#5A5A5A"/>
</g>
</svg>
