<svg width="24" height="24" viewBox="0 0 24 24" fill="none" xmlns="http://www.w3.org/2000/svg">
<g id="underline">
<path id="Shape" fill-rule="evenodd" clip-rule="evenodd" d="M4.63064 4.12614H3.47064V4.12784C2.8831 4.12784 2.40681 3.65151 2.40681 3.06392C2.40681 2.47633 2.8831 2 3.47064 2H8.34043C8.92796 2 9.40426 2.47633 9.40426 3.06392C9.40426 3.65151 8.92796 4.12784 8.34043 4.12784H7.18723C7.06973 4.12784 6.97447 4.22311 6.97447 4.34062V11.5949C6.97447 14.3725 9.226 16.6242 12.0034 16.6242C14.7808 16.6242 17.0323 14.3725 17.0323 11.5949V4.34062C17.0323 4.22311 16.9371 4.12784 16.8196 4.12784H15.6596C15.072 4.12784 14.5957 3.65151 14.5957 3.06392C14.5957 2.47633 15.072 2 15.6596 2H20.5294C21.1169 2 21.5932 2.47633 21.5932 3.06392C21.5932 3.65151 21.1169 4.12784 20.5294 4.12784H19.3694C19.2519 4.12784 19.1566 4.22311 19.1566 4.34062V11.5932C19.1566 15.546 15.9525 18.7504 12 18.7504C8.04752 18.7504 4.8434 15.546 4.8434 11.5932V4.33892C4.8434 4.22141 4.74815 4.12614 4.63064 4.12614ZM2 20.9361C2 20.3485 2.47629 19.8722 3.06383 19.8722H20.9362C21.5237 19.8722 22 20.3485 22 20.9361C22 21.5237 21.5237 22 20.9362 22H3.06383C2.47629 22 2 21.5237 2 20.9361Z" fill="#5A5A5A"/>
</g>
</svg>
