<?xml version="1.0" encoding="UTF-8"?>
<svg width="24px" height="24px" viewBox="0 0 24 24" version="1.1" xmlns="http://www.w3.org/2000/svg" xmlns:xlink="http://www.w3.org/1999/xlink">
    <title>1. Interface Essentials/undo</title>
    <g id="1.-Interface-Essentials/undo" stroke="none" stroke-width="1" fill="none" fill-rule="evenodd">
        <path d="M16.8810487,5.07576153 C13.6559189,2.81615626 9.44259246,2.53505118 5.94587053,4.34618735 C5.86432793,4.3888681 5.76449591,4.37348303 5.69958653,4.30823263 L3.51339433,2.12288387 C3.39211356,2.00350158 3.21158818,1.96739651 3.05372043,2.03094909 C2.89633546,2.09640303 2.79394133,2.25016457 2.79394133,2.42061761 L2.79394133,8.07165454 C2.79394133,8.30456361 2.98275153,8.49337371 3.2156606,8.49337371 L8.86669753,8.49337371 C9.03750129,8.49367931 9.19162244,8.39092727 9.25702756,8.23314202 C9.32243269,8.07535676 9.28620423,7.89370102 9.16527471,7.77307736 L7.60069657,6.2101861 C7.55075013,6.15963393 7.52924685,6.08753469 7.54334276,6.01788216 C7.55766309,5.94866262 7.60584335,5.89129008 7.67154539,5.86521982 C10.3186031,4.80498592 13.3221393,5.15401294 15.6555328,6.793002 C17.8027378,8.32826092 19.0833876,10.8001635 19.0990823,13.4397209 C19.1147771,16.0792782 17.8636126,18.5662349 15.734816,20.1269189 C15.2987678,20.4807232 15.2165449,21.1142105 15.5478229,21.5676092 C15.8791009,22.021008 16.5076138,22.1351927 16.9772007,21.8272906 C19.6675092,19.8797631 21.2442066,16.7468121 21.2053571,13.4258012 C21.2048922,10.1055024 19.5925206,6.99208738 16.8810487,5.07576153 Z" id="ðŸ–-Color" fill="#5A5A5A"></path>
        <rect id="_Transparent_Rectangle_" x="0" y="0" width="24" height="24"></rect>
    </g>
</svg>