<svg width="24" height="24" viewBox="0 0 24 24" fill="none" xmlns="http://www.w3.org/2000/svg">
<g id="undo">
<path id="Shape" fill-rule="evenodd" clip-rule="evenodd" d="M16.8811 5.07576C13.6559 2.81616 9.4426 2.53505 5.94587 4.34619C5.86433 4.38887 5.7645 4.37348 5.69959 4.30823L3.5134 2.12288C3.39212 2.0035 3.21159 1.9674 3.05372 2.03095C2.89634 2.0964 2.79383 2.25016 2.79395 2.42062V8.07165C2.79395 8.30456 2.98276 8.49337 3.21566 8.49337H8.8667C9.03751 8.49368 9.19163 8.39093 9.25703 8.23314C9.32244 8.07536 9.28621 7.8937 9.16528 7.77308L7.6007 6.21019C7.55075 6.15963 7.52925 6.08753 7.54335 6.01788C7.55767 5.94866 7.60585 5.89129 7.67155 5.86522C10.3186 4.80499 13.3221 5.15401 15.6555 6.793C17.8027 8.32826 19.0834 10.8002 19.0991 13.4397C19.1148 16.0793 17.8636 18.5662 15.7348 20.1269C15.2988 20.4807 15.2165 21.1142 15.5478 21.5676C15.8791 22.021 16.5076 22.1352 16.9772 21.8273C19.6675 19.8798 21.2442 16.7468 21.2054 13.4258C21.2049 10.1055 19.5925 6.99209 16.8811 5.07576Z" fill="#5A5A5A"/>
</g>
</svg>
