<svg width="24" height="24" viewBox="0 0 24 24" fill="none" xmlns="http://www.w3.org/2000/svg">
<g id="unordered_list">
<path id="Shape" fill-rule="evenodd" clip-rule="evenodd" d="M4.08333 7.41667C5.23393 7.41667 6.16667 6.48393 6.16667 5.33333C6.16667 4.18274 5.23393 3.25 4.08333 3.25C2.93274 3.25 2 4.18274 2 5.33333C2 6.48393 2.93274 7.41667 4.08333 7.41667ZM21.1667 6.16833H9.08333C8.6231 6.16833 8.25 5.79524 8.25 5.335C8.25 4.87476 8.6231 4.50167 9.08333 4.50167H21.1667C21.6269 4.50167 22 4.87476 22 5.335C22 5.79524 21.6269 6.16833 21.1667 6.16833ZM6.16667 12C6.16667 13.1506 5.23393 14.0833 4.08333 14.0833C2.93274 14.0833 2 13.1506 2 12C2 10.8494 2.93274 9.91667 4.08333 9.91667C5.23393 9.91667 6.16667 10.8494 6.16667 12ZM9.08333 11.1683H21.1667C21.6269 11.1683 22 11.5414 22 12.0017C22 12.4619 21.6269 12.835 21.1667 12.835H9.08333C8.6231 12.835 8.25 12.4619 8.25 12.0017C8.25 11.5414 8.6231 11.1683 9.08333 11.1683ZM6.16667 18.6667C6.16667 19.8173 5.23393 20.75 4.08333 20.75C2.93274 20.75 2 19.8173 2 18.6667C2 17.5161 2.93274 16.5833 4.08333 16.5833C5.23393 16.5833 6.16667 17.5161 6.16667 18.6667ZM9.08333 17.835H21.1667C21.6269 17.835 22 18.2081 22 18.6683C22 19.1286 21.6269 19.5017 21.1667 19.5017H9.08333C8.6231 19.5017 8.25 19.1286 8.25 18.6683C8.25 18.2081 8.6231 17.835 9.08333 17.835Z" fill="#5A5A5A"/>
</g>
</svg>
