<?xml version="1.0" encoding="UTF-8"?>
<svg width="24px" height="24px" viewBox="0 0 24 24" version="1.1" xmlns="http://www.w3.org/2000/svg" xmlns:xlink="http://www.w3.org/1999/xlink">
    <title>1. Interface Essentials/unordered_list</title>
    <g id="1.-Interface-Essentials/unordered_list" stroke="none" stroke-width="1" fill="none" fill-rule="evenodd">
        <path d="M4.08333333,16.5833333 C5.23392656,16.5833333 6.16666667,17.5160734 6.16666667,18.6666667 C6.16666667,19.8172599 5.23392656,20.75 4.08333333,20.75 C2.9327401,20.75 2,19.8172599 2,18.6666667 C2,17.5160734 2.9327401,16.5833333 4.08333333,16.5833333 Z M21.1666667,17.835 C21.626904,17.835 22,18.208096 22,18.6683333 C22,19.1285706 21.626904,19.5016667 21.1666667,19.5016667 L21.1666667,19.5016667 L9.08333333,19.5016667 C8.62309604,19.5016667 8.25,19.1285706 8.25,18.6683333 C8.25,18.208096 8.62309604,17.835 9.08333333,17.835 L9.08333333,17.835 Z M4.08333333,9.91666667 C5.23392656,9.91666667 6.16666667,10.8494068 6.16666667,12 C6.16666667,13.1505932 5.23392656,14.0833333 4.08333333,14.0833333 C2.9327401,14.0833333 2,13.1505932 2,12 C2,10.8494068 2.9327401,9.91666667 4.08333333,9.91666667 Z M21.1666667,11.1683333 C21.626904,11.1683333 22,11.5414294 22,12.0016667 C22,12.461904 21.626904,12.835 21.1666667,12.835 L21.1666667,12.835 L9.08333333,12.835 C8.62309604,12.835 8.25,12.461904 8.25,12.0016667 C8.25,11.5414294 8.62309604,11.1683333 9.08333333,11.1683333 L9.08333333,11.1683333 Z M4.08333333,3.25 C5.23392656,3.25 6.16666667,4.1827401 6.16666667,5.33333333 C6.16666667,6.48392656 5.23392656,7.41666667 4.08333333,7.41666667 C2.9327401,7.41666667 2,6.48392656 2,5.33333333 C2,4.1827401 2.9327401,3.25 4.08333333,3.25 Z M21.1666667,4.50166667 C21.626904,4.50166667 22,4.87476271 22,5.335 C22,5.79523729 21.626904,6.16833333 21.1666667,6.16833333 L21.1666667,6.16833333 L9.08333333,6.16833333 C8.62309604,6.16833333 8.25,5.79523729 8.25,5.335 C8.25,4.87476271 8.62309604,4.50166667 9.08333333,4.50166667 L9.08333333,4.50166667 Z" id="ðŸ–-Color" fill="#5A5A5A"></path>
        <rect id="_Transparent_Rectangle_" x="0" y="0" width="24" height="24"></rect>
    </g>
</svg>