<svg width="24" height="24" viewBox="0 0 24 24" fill="none" xmlns="http://www.w3.org/2000/svg">
<g id="users">
<path id="Shape" fill-rule="evenodd" clip-rule="evenodd" d="M12.2083 8.45833C12.2083 10.6445 10.4361 12.4167 8.25 12.4167C6.06387 12.4167 4.29167 10.6445 4.29167 8.45833C4.29167 6.27221 6.06387 4.5 8.25 4.5C10.4361 4.5 12.2083 6.27221 12.2083 8.45833ZM12.9058 10.7825C13.2692 10.0616 13.4584 9.2656 13.4583 8.45833C13.4572 7.65073 13.2665 6.85467 12.9017 6.13417C12.822 5.97225 12.8557 5.77749 12.985 5.65167C13.7177 4.9166 14.7121 4.50239 15.75 4.5C17.9361 4.5 19.7083 6.27221 19.7083 8.45833C19.7083 10.6445 17.9361 12.4167 15.75 12.4167C14.7136 12.4132 13.7208 11.999 12.9892 11.265C12.8598 11.1392 12.8262 10.9444 12.9058 10.7825ZM13.7692 13.1608C14.4071 12.9442 15.0763 12.8336 15.75 12.8333C19.2003 12.837 21.9963 15.6331 22 19.0833C22 19.3135 21.8135 19.5 21.5833 19.5H16.1667C15.9365 19.5 15.75 19.3135 15.75 19.0833C15.7494 17.1235 14.978 15.2426 13.6025 13.8467C13.5025 13.7439 13.4624 13.597 13.4962 13.4577C13.5301 13.3184 13.6332 13.2062 13.7692 13.1608ZM8.25 12.8333C11.7018 12.8333 14.5 15.6316 14.5 19.0833C14.5 19.3135 14.3135 19.5 14.0833 19.5H2.41667C2.18655 19.5 2 19.3135 2 19.0833C2 15.6316 4.79822 12.8333 8.25 12.8333Z" fill="#5A5A5A"/>
</g>
</svg>
