<?xml version="1.0" encoding="UTF-8"?>
<svg width="24px" height="24px" viewBox="0 0 24 24" version="1.1" xmlns="http://www.w3.org/2000/svg" xmlns:xlink="http://www.w3.org/1999/xlink">
    <title>1. Interface Essentials/user</title>
    <g id="1.-Interface-Essentials/user" stroke="none" stroke-width="1" fill="none" fill-rule="evenodd">
        <path d="M12,13.1111111 C16.6001686,13.1164993 20.3280161,16.8940513 20.3333333,21.5555556 C20.3333333,21.8010154 20.136967,22 19.8947368,22 L19.8947368,22 L4.10526316,22 C3.863033,22 3.66666667,21.8010154 3.66666667,21.5555556 C3.67198395,16.8940513 7.39983137,13.1164993 12,13.1111111 Z M12,2 C14.6645317,2 16.8245614,4.18883011 16.8245614,6.88888889 C16.8245614,9.58894767 14.6645317,11.7777778 12,11.7777778 C9.33546831,11.7777778 7.1754386,9.58894767 7.1754386,6.88888889 C7.1754386,4.18883011 9.33546831,2 12,2 Z" id="ðŸ–-Color" fill="#5A5A5A"></path>
        <rect id="_Transparent_Rectangle_" x="0" y="0" width="24" height="24"></rect>
    </g>
</svg>