<?xml version="1.0" encoding="UTF-8"?>
<svg width="24px" height="24px" viewBox="0 0 24 24" version="1.1" xmlns="http://www.w3.org/2000/svg" xmlns:xlink="http://www.w3.org/1999/xlink">
    <title>1. Interface Essentials/users</title>
    <g id="1.-Interface-Essentials/users" stroke="none" stroke-width="1" fill="none" fill-rule="evenodd">
        <path d="M8.25,12.8333333 C11.7017797,12.8333333 14.5,15.6315536 14.5,19.0833333 C14.5,19.313452 14.313452,19.5 14.0833333,19.5 L14.0833333,19.5 L2.41666667,19.5 C2.18654802,19.5 2,19.313452 2,19.0833333 C2,15.6315536 4.79822031,12.8333333 8.25,12.8333333 Z M15.75,12.8333333 C19.2002566,12.8370077 21.9963256,15.6330768 22,19.0833333 C22,19.313452 21.813452,19.5 21.5833333,19.5 L21.5833333,19.5 L16.1666667,19.5 C15.936548,19.5 15.75,19.313452 15.75,19.0833333 C15.7493943,17.1235423 14.9780446,15.2426103 13.6025,13.8466667 C13.5025059,13.7439226 13.4623581,13.5969859 13.4962138,13.4576699 C13.5300694,13.3183539 13.6331726,13.2062291 13.7691667,13.1608333 C14.4071208,12.9441924 15.0762651,12.8335597 15.75,12.8333333 Z M15.75,4.5 C17.9361271,4.5 19.7083333,6.27220622 19.7083333,8.45833333 C19.7083333,10.6444604 17.9361271,12.4166667 15.75,12.4166667 C14.7135948,12.4131778 13.7208229,11.9990484 12.9891667,11.265 C12.8598498,11.1391741 12.8262122,10.9444119 12.9058333,10.7825 C13.2692121,10.0616415 13.4584466,9.26560097 13.4583333,8.45833333 C13.4571545,7.65073063 13.2664887,6.85467231 12.9016667,6.13416667 C12.8220455,5.97225474 12.8556832,5.77749258 12.985,5.65166667 C13.7176774,4.91660007 14.7121497,4.50238648 15.75,4.5 Z M8.25,4.5 C10.4361271,4.5 12.2083333,6.2722062 12.2083333,8.45833333 C12.2083333,10.6444605 10.4361271,12.4166667 8.25,12.4166667 C6.06387287,12.4166667 4.29166667,10.6444605 4.29166667,8.45833333 C4.29166667,6.2722062 6.06387287,4.5 8.25,4.5 Z" id="ðŸ–-Color" fill="#5A5A5A"></path>
        <rect id="_Transparent_Rectangle_" x="0" y="0" width="24" height="24"></rect>
    </g>
</svg>