<svg width="24" height="24" viewBox="0 0 24 24" fill="none" xmlns="http://www.w3.org/2000/svg">
<g id="view_off">
<path id="Shape" fill-rule="evenodd" clip-rule="evenodd" d="M21.5255 10.774C20.4489 9.5939 19.2186 8.56387 17.8676 7.71158L21.2703 4.31315C21.4914 4.09957 21.5801 3.78329 21.5022 3.48587C21.4244 3.18845 21.1921 2.95618 20.8947 2.87833C20.5973 2.80048 20.281 2.88917 20.0674 3.11031L20.0521 3.12562C20.0229 3.21843 19.9725 3.30319 19.9049 3.37316L3.31689 19.9612C3.31374 19.964 3.31024 19.9658 3.3067 19.9677C3.30259 19.9698 3.29843 19.972 3.29477 19.9757C3.14099 20.3504 3.27273 20.7815 3.60968 21.0063C3.94662 21.2311 4.39531 21.1871 4.68221 20.9012L8.20909 17.3743C9.3666 17.8797 10.6126 18.1512 11.8755 18.1731H12.1307C15.7511 18.1731 19.352 15.6347 21.5314 13.2392C22.1585 12.5362 22.1559 11.474 21.5255 10.774ZM15.6669 13.0887C15.2918 14.3148 14.3375 15.278 13.1149 15.6645C12.2464 15.941 11.306 15.8834 10.4778 15.5029C10.4151 15.4724 10.371 15.4135 10.3595 15.3447C10.348 15.2759 10.3705 15.2058 10.42 15.1566L15.1497 10.4278C15.1986 10.3779 15.2687 10.3549 15.3376 10.3663C15.4065 10.3776 15.4656 10.4218 15.4959 10.4848C15.8711 11.3022 15.932 12.2292 15.6669 13.0887ZM8.31967 12.9951C8.34076 13.0675 8.32089 13.1457 8.26778 13.1992L5.67749 15.7938C5.60307 15.8677 5.48649 15.8781 5.40018 15.8185C4.33508 15.0674 3.35449 14.2032 2.47557 13.2409C1.8392 12.5408 1.84178 11.471 2.48153 10.774C4.68221 8.35043 8.34009 5.79162 11.998 5.84096C12.9336 5.83568 13.8641 5.97866 14.755 6.26459C14.8263 6.28807 14.8803 6.34686 14.8976 6.41988C14.915 6.4929 14.8932 6.56969 14.8401 6.62272L13.1889 8.27472C13.1355 8.32814 13.0573 8.34833 12.9847 8.32746C12.6641 8.23332 12.3321 8.1838 11.998 8.1803C9.88382 8.1803 8.16996 9.89416 8.16996 12.0083C8.1747 12.3425 8.22507 12.6745 8.31967 12.9951Z" fill="#5A5A5A"/>
</g>
</svg>
