<?xml version="1.0" encoding="UTF-8"?>
<svg width="24px" height="24px" viewBox="0 0 24 24" version="1.1" xmlns="http://www.w3.org/2000/svg" xmlns:xlink="http://www.w3.org/1999/xlink">
    <title>1. Interface Essentials/view_off</title>
    <g id="1.-Interface-Essentials/view_off" stroke="none" stroke-width="1" fill="none" fill-rule="evenodd">
        <path d="M20.0674208,3.11034627 C20.2810022,2.8892091 20.5972841,2.80052168 20.8947032,2.87837108 C21.1921223,2.95622049 21.4243934,3.18849154 21.5022428,3.48591067 C21.5800922,3.78332979 21.4914048,4.09961166 21.2702676,4.31319308 L21.2702676,4.31319308 L17.8675892,7.71161814 C19.2185929,8.56391037 20.4489019,9.5939365 21.5254685,10.7740287 C22.1558946,11.4739937 22.1584604,12.5362669 21.5314232,13.2392692 C19.3520076,15.6347548 15.7511232,18.1731529 12.1306734,18.1731529 L12.1306734,18.1731529 L11.8754725,18.1731529 C10.612633,18.151223 9.3665988,17.8797552 8.20908653,17.3743742 L8.20908653,17.3743742 L4.68221036,20.9012503 C4.39531151,21.1871527 3.94662023,21.2311238 3.60967658,21.006357 C3.27273294,20.7815901 3.14099198,20.350427 3.29476824,19.9757218 C3.3015736,19.9689164 3.31008029,19.9672151 3.31688565,19.9612604 L3.31688565,19.9612604 L19.9049429,3.37320317 C19.972542,3.30322549 20.0229264,3.21847482 20.0521087,3.12565832 L20.0521087,3.12565832 Z M11.9979689,5.84099569 C12.9335815,5.83571572 13.8641228,5.97869924 14.7549891,6.26462915 C14.8262751,6.28810867 14.8802704,6.34689863 14.8976152,6.41992014 C14.91496,6.49294165 14.8931693,6.56973303 14.8400561,6.62276105 L14.8400561,6.62276105 L13.1889064,8.27476142 C13.1355156,8.32817465 13.0573265,8.3483735 12.9847457,8.32750294 C12.6641408,8.23335722 12.3320926,8.18383624 11.9979689,8.18033709 C9.88381562,8.18033709 8.16995573,9.89419699 8.16995573,12.0083503 C8.17470188,12.3425583 8.22507335,12.6745521 8.31967358,12.995127 C8.34076043,13.0675539 8.32089334,13.1457194 8.26778273,13.1992877 L8.26778273,13.1992877 L5.6774938,15.79383 C5.60306741,15.8677854 5.48648762,15.878156 5.40017551,15.8184995 C4.33507533,15.0674745 3.35448534,14.2032547 2.47557341,13.2409706 C1.83919901,12.5408895 1.84178143,11.4710295 2.4815281,10.7740287 C4.68221036,8.35047101 8.34008965,5.79165685 11.9979689,5.84099569 Z M15.3376225,10.36633 C15.2687071,10.3549852 15.1985858,10.3779244 15.1496998,10.4278062 L15.1496998,10.4278062 L10.4199768,15.1566785 C10.3705357,15.2058591 10.3479883,15.2759467 10.3594803,15.3447296 C10.3709723,15.4135125 10.415079,15.4724638 10.4778224,15.502901 C11.3060132,15.8834342 12.2464348,15.9410729 13.1148981,15.6645283 C14.3375429,15.2780751 15.2918286,14.3148827 15.6669069,13.0887007 C15.9319803,12.2292311 15.8711088,11.3022282 15.4959223,10.484801 C15.4656057,10.421881 15.4065378,10.3776748 15.3376225,10.36633 Z" id="ðŸ–-Color" fill="#5A5A5A"></path>
        <rect id="_Transparent_Rectangle_" x="0" y="0" width="24" height="24"></rect>
    </g>
</svg>