<svg width="24" height="24" viewBox="0 0 24 24" fill="none" xmlns="http://www.w3.org/2000/svg">
<g id="voice_id_denied">
<path id="Shape" fill-rule="evenodd" clip-rule="evenodd" d="M11.5833 2C12.0436 2 12.4167 2.3731 12.4167 2.83333V11.1667C12.4167 11.6269 12.0436 12 11.5833 12C11.1231 12 10.75 11.6269 10.75 11.1667V2.83333C10.75 2.3731 11.1231 2 11.5833 2ZM2 4.91667C2 4.45643 2.3731 4.08333 2.83333 4.08333C3.29357 4.08333 3.66667 4.45643 3.66667 4.91667V16.5833C3.66667 17.0436 3.29357 17.4167 2.83333 17.4167C2.3731 17.4167 2 17.0436 2 16.5833V4.91667ZM16.5833 11.1667C13.5918 11.1667 11.1667 13.5918 11.1667 16.5833C11.1667 19.5749 13.5918 22 16.5833 22C19.5749 22 22 19.5749 22 16.5833C21.9963 13.5933 19.5734 11.1703 16.5833 11.1667ZM17.9092 16.7308L18.94 17.7617C19.1566 17.9709 19.2435 18.2807 19.1672 18.5721C19.091 18.8634 18.8634 19.091 18.5721 19.1672C18.2807 19.2435 17.9709 19.1566 17.7617 18.94L16.7308 17.9092C16.6917 17.87 16.6387 17.848 16.5833 17.848C16.528 17.848 16.4749 17.87 16.4358 17.9092L15.405 18.94C15.1958 19.1566 14.8859 19.2435 14.5946 19.1672C14.3032 19.091 14.0757 18.8634 13.9994 18.5721C13.9232 18.2807 14.01 17.9709 14.2267 17.7617L15.2575 16.7308C15.2967 16.6917 15.3187 16.6387 15.3187 16.5833C15.3187 16.528 15.2967 16.4749 15.2575 16.4358L14.2267 15.405C13.9109 15.078 13.9154 14.5583 14.2368 14.2368C14.5583 13.9154 15.078 13.9109 15.405 14.2267L16.4358 15.2575C16.4749 15.2967 16.528 15.3187 16.5833 15.3187C16.6387 15.3187 16.6917 15.2967 16.7308 15.2575L17.7617 14.2267C17.9709 14.01 18.2807 13.9232 18.5721 13.9994C18.8634 14.0757 19.091 14.3032 19.1672 14.5946C19.2435 14.8859 19.1566 15.1958 18.94 15.405L17.9092 16.4358C17.87 16.4749 17.848 16.528 17.848 16.5833C17.848 16.6387 17.87 16.6917 17.9092 16.7308ZM5.75 7.41667C5.28976 7.41667 4.91667 7.78976 4.91667 8.25V13.25C4.91667 13.7102 5.28976 14.0833 5.75 14.0833C6.21024 14.0833 6.58333 13.7102 6.58333 13.25V8.25C6.58333 7.78976 6.21024 7.41667 5.75 7.41667ZM7.83333 7C7.83333 6.53976 8.20643 6.16667 8.66667 6.16667C9.1269 6.16667 9.5 6.53976 9.5 7V14.5C9.5 14.9602 9.1269 15.3333 8.66667 15.3333C8.20643 15.3333 7.83333 14.9602 7.83333 14.5V7ZM20.3333 10.75C20.7936 10.75 21.1667 10.3769 21.1667 9.91667V4.91667C21.1667 4.45643 20.7936 4.08333 20.3333 4.08333C19.8731 4.08333 19.5 4.45643 19.5 4.91667V9.91667C19.5 10.3769 19.8731 10.75 20.3333 10.75ZM17.4167 9.91667C17.8769 9.91667 18.25 9.54357 18.25 9.08333V8.25C18.25 7.78976 17.8769 7.41667 17.4167 7.41667C16.9564 7.41667 16.5833 7.78976 16.5833 8.25V9.08333C16.5833 9.54357 16.9564 9.91667 17.4167 9.91667ZM15.3333 9.5C15.3333 9.96024 14.9602 10.3333 14.5 10.3333C14.0398 10.3333 13.6667 9.96024 13.6667 9.5V7C13.6667 6.53976 14.0398 6.16667 14.5 6.16667C14.9602 6.16667 15.3333 6.53976 15.3333 7V9.5Z" fill="#5A5A5A"/>
</g>
</svg>
