<?xml version="1.0" encoding="UTF-8"?>
<svg width="24px" height="24px" viewBox="0 0 24 24" version="1.1" xmlns="http://www.w3.org/2000/svg" xmlns:xlink="http://www.w3.org/1999/xlink">
    <title>1. Interface Essentials/voice_id_denied</title>
    <g id="1.-Interface-Essentials/voice_id_denied" stroke="none" stroke-width="1" fill="none" fill-rule="evenodd">
        <path d="M16.5833333,11.1666667 C19.5733529,11.1703399 21.9963268,13.5933138 22,16.5833333 C22,19.5748757 19.5748757,22 16.5833333,22 C13.5917909,22 11.1666667,19.5748757 11.1666667,16.5833333 C11.1666667,13.5917909 13.5917909,11.1666667 16.5833333,11.1666667 Z M18.5720894,13.999419 C18.2807316,13.9231562 17.9708954,14.0100362 17.7616667,14.2266667 L17.7616667,14.2266667 L16.7308333,15.2575 C16.6917482,15.296684 16.638678,15.3187057 16.5833333,15.3187057 C16.5279886,15.3187057 16.4749184,15.296684 16.4358333,15.2575 L16.4358333,15.2575 L15.405,14.2266667 C15.0780176,13.9108565 14.5582627,13.915373 14.2368179,14.2368179 C13.915373,14.5582627 13.9108565,15.0780176 14.2266667,15.405 L14.2266667,15.405 L15.2575,16.4358333 C15.296684,16.4749184 15.3187057,16.5279886 15.3187057,16.5833333 C15.3187057,16.638678 15.296684,16.6917482 15.2575,16.7308333 L15.2575,16.7308333 L14.2266667,17.7616667 C14.0100362,17.9708954 13.9231562,18.2807316 13.999419,18.5720894 C14.0756819,18.8634473 14.3032194,19.0909848 14.5945772,19.1672476 C14.8859351,19.2435105 15.1957713,19.1566305 15.405,18.94 L15.405,18.94 L16.4358333,17.9091667 C16.4749184,17.8699826 16.5279886,17.8479609 16.5833333,17.8479609 C16.638678,17.8479609 16.6917482,17.8699826 16.7308333,17.9091667 L16.7308333,17.9091667 L17.7616667,18.94 C17.9708954,19.1566305 18.2807316,19.2435105 18.5720894,19.1672476 C18.8634473,19.0909848 19.0909848,18.8634473 19.1672476,18.5720894 C19.2435105,18.2807316 19.1566305,17.9708954 18.94,17.7616667 L18.94,17.7616667 L17.9091667,16.7308333 C17.8699826,16.6917482 17.8479609,16.638678 17.8479609,16.5833333 C17.8479609,16.5279886 17.8699826,16.4749184 17.9091667,16.4358333 L17.9091667,16.4358333 L18.94,15.405 C19.1566305,15.1957713 19.2435105,14.8859351 19.1672476,14.5945772 C19.0909848,14.3032194 18.8634473,14.0756819 18.5720894,13.999419 Z M2.83333333,4.08333333 C3.29357062,4.08333333 3.66666667,4.45642938 3.66666667,4.91666667 L3.66666667,4.91666667 L3.66666667,16.5833333 C3.66666667,17.0435706 3.29357062,17.4166667 2.83333333,17.4166667 C2.37309604,17.4166667 2,17.0435706 2,16.5833333 L2,16.5833333 L2,4.91666667 C2,4.45642938 2.37309604,4.08333333 2.83333333,4.08333333 Z M8.66666667,6.16666667 C9.12690396,6.16666667 9.5,6.53976271 9.5,7 L9.5,7 L9.5,14.5 C9.5,14.9602373 9.12690396,15.3333333 8.66666667,15.3333333 C8.20642938,15.3333333 7.83333333,14.9602373 7.83333333,14.5 L7.83333333,14.5 L7.83333333,7 C7.83333333,6.53976271 8.20642938,6.16666667 8.66666667,6.16666667 Z M5.75,7.41666667 C6.21023729,7.41666667 6.58333333,7.78976271 6.58333333,8.25 L6.58333333,8.25 L6.58333333,13.25 C6.58333333,13.7102373 6.21023729,14.0833333 5.75,14.0833333 C5.28976271,14.0833333 4.91666667,13.7102373 4.91666667,13.25 L4.91666667,13.25 L4.91666667,8.25 C4.91666667,7.78976271 5.28976271,7.41666667 5.75,7.41666667 Z M11.5833333,2 C12.0435706,2 12.4166667,2.37309604 12.4166667,2.83333333 L12.4166667,2.83333333 L12.4166667,11.1666667 C12.4166667,11.626904 12.0435706,12 11.5833333,12 C11.123096,12 10.75,11.626904 10.75,11.1666667 L10.75,11.1666667 L10.75,2.83333333 C10.75,2.37309604 11.123096,2 11.5833333,2 Z M20.3333333,4.08333333 C20.7935706,4.08333333 21.1666667,4.45642938 21.1666667,4.91666667 L21.1666667,4.91666667 L21.1666667,9.91666667 C21.1666667,10.376904 20.7935706,10.75 20.3333333,10.75 C19.873096,10.75 19.5,10.376904 19.5,9.91666667 L19.5,9.91666667 L19.5,4.91666667 C19.5,4.45642938 19.873096,4.08333333 20.3333333,4.08333333 Z M14.5,6.16666667 C14.9602373,6.16666667 15.3333333,6.53976271 15.3333333,7 L15.3333333,7 L15.3333333,9.5 C15.3333333,9.96023729 14.9602373,10.3333333 14.5,10.3333333 C14.0397627,10.3333333 13.6666667,9.96023729 13.6666667,9.5 L13.6666667,9.5 L13.6666667,7 C13.6666667,6.53976271 14.0397627,6.16666667 14.5,6.16666667 Z M17.4166667,7.41666667 C17.876904,7.41666667 18.25,7.78976271 18.25,8.25 L18.25,8.25 L18.25,9.08333333 C18.25,9.54357062 17.876904,9.91666667 17.4166667,9.91666667 C16.9564294,9.91666667 16.5833333,9.54357062 16.5833333,9.08333333 L16.5833333,9.08333333 L16.5833333,8.25 C16.5833333,7.78976271 16.9564294,7.41666667 17.4166667,7.41666667 Z" id="ðŸ–-Color" fill="#5A5A5A"></path>
        <rect id="_Transparent_Rectangle_" x="0" y="0" width="24" height="24"></rect>
    </g>
</svg>