<?xml version="1.0" encoding="UTF-8"?>
<svg width="24px" height="24px" viewBox="0 0 24 24" version="1.1" xmlns="http://www.w3.org/2000/svg" xmlns:xlink="http://www.w3.org/1999/xlink">
    <title>1. Interface Essentials/voice_id_approved</title>
    <g id="1.-Interface-Essentials/voice_id_approved" stroke="none" stroke-width="1" fill="none" fill-rule="evenodd">
        <path d="M16.5833333,11.1666667 C19.5733529,11.1703399 21.9963268,13.5933138 22,16.5833333 C22,19.5748757 19.5748757,22 16.5833333,22 C13.5917909,22 11.1666667,19.5748757 11.1666667,16.5833333 C11.1666667,13.5917909 13.5917909,11.1666667 16.5833333,11.1666667 Z M18.911346,14.3018164 C18.6157623,14.2662044 18.3236328,14.3909896 18.145,14.6291667 L18.145,14.6291667 L16.0125,17.4733333 C15.9761649,17.5216212 15.9206528,17.5517524 15.8603645,17.5559102 C15.8000762,17.560068 15.7409533,17.5378427 15.6983333,17.495 L15.6983333,17.495 L14.7866667,16.5833333 C14.4612789,16.2577154 13.9335346,16.2575289 13.6079167,16.5829167 C13.2822988,16.9083044 13.2821122,17.4360488 13.6075,17.7616667 L13.6075,17.7616667 L14.8575,19.0116667 C15.1563336,19.3113191 15.5705408,19.4664729 15.9926995,19.4368899 C16.4148582,19.4073068 16.8033785,19.1959012 17.0575,18.8575 L17.0575,18.8575 L19.4783333,15.6291667 C19.6569661,15.3909896 19.6949637,15.0756055 19.5780127,14.8018164 C19.4610617,14.5280273 19.2069298,14.3374284 18.911346,14.3018164 Z M2.83333333,4.08333333 C3.29357062,4.08333333 3.66666667,4.45642938 3.66666667,4.91666667 L3.66666667,4.91666667 L3.66666667,16.5833333 C3.66666667,17.0435706 3.29357062,17.4166667 2.83333333,17.4166667 C2.37309604,17.4166667 2,17.0435706 2,16.5833333 L2,16.5833333 L2,4.91666667 C2,4.45642938 2.37309604,4.08333333 2.83333333,4.08333333 Z M8.66666667,6.16666667 C9.12690396,6.16666667 9.5,6.53976271 9.5,7 L9.5,7 L9.5,14.5 C9.5,14.9602373 9.12690396,15.3333333 8.66666667,15.3333333 C8.20642938,15.3333333 7.83333333,14.9602373 7.83333333,14.5 L7.83333333,14.5 L7.83333333,7 C7.83333333,6.53976271 8.20642938,6.16666667 8.66666667,6.16666667 Z M5.75,7.41666667 C6.21023729,7.41666667 6.58333333,7.78976271 6.58333333,8.25 L6.58333333,8.25 L6.58333333,13.25 C6.58333333,13.7102373 6.21023729,14.0833333 5.75,14.0833333 C5.28976271,14.0833333 4.91666667,13.7102373 4.91666667,13.25 L4.91666667,13.25 L4.91666667,8.25 C4.91666667,7.78976271 5.28976271,7.41666667 5.75,7.41666667 Z M11.5833333,2 C12.0435706,2 12.4166667,2.37309604 12.4166667,2.83333333 L12.4166667,2.83333333 L12.4166667,11.1666667 C12.4166667,11.626904 12.0435706,12 11.5833333,12 C11.123096,12 10.75,11.626904 10.75,11.1666667 L10.75,11.1666667 L10.75,2.83333333 C10.75,2.37309604 11.123096,2 11.5833333,2 Z M20.3333333,4.08333333 C20.7935706,4.08333333 21.1666667,4.45642938 21.1666667,4.91666667 L21.1666667,4.91666667 L21.1666667,9.91666667 C21.1666667,10.376904 20.7935706,10.75 20.3333333,10.75 C19.873096,10.75 19.5,10.376904 19.5,9.91666667 L19.5,9.91666667 L19.5,4.91666667 C19.5,4.45642938 19.873096,4.08333333 20.3333333,4.08333333 Z M14.5,6.16666667 C14.9602373,6.16666667 15.3333333,6.53976271 15.3333333,7 L15.3333333,7 L15.3333333,9.5 C15.3333333,9.96023729 14.9602373,10.3333333 14.5,10.3333333 C14.0397627,10.3333333 13.6666667,9.96023729 13.6666667,9.5 L13.6666667,9.5 L13.6666667,7 C13.6666667,6.53976271 14.0397627,6.16666667 14.5,6.16666667 Z M17.4166667,7.41666667 C17.876904,7.41666667 18.25,7.78976271 18.25,8.25 L18.25,8.25 L18.25,9.08333333 C18.25,9.54357062 17.876904,9.91666667 17.4166667,9.91666667 C16.9564294,9.91666667 16.5833333,9.54357062 16.5833333,9.08333333 L16.5833333,9.08333333 L16.5833333,8.25 C16.5833333,7.78976271 16.9564294,7.41666667 17.4166667,7.41666667 Z" id="ðŸ–-Color" fill="#5A5A5A"></path>
        <rect id="_Transparent_Rectangle_" x="0" y="0" width="24" height="24"></rect>
    </g>
</svg>