<svg width="24" height="24" viewBox="0 0 24 24" fill="none" xmlns="http://www.w3.org/2000/svg">
<g id="voice_id_approved">
<path id="Shape" fill-rule="evenodd" clip-rule="evenodd" d="M12.4167 2.83333C12.4167 2.3731 12.0436 2 11.5833 2C11.1231 2 10.75 2.3731 10.75 2.83333V11.1667C10.75 11.6269 11.1231 12 11.5833 12C12.0436 12 12.4167 11.6269 12.4167 11.1667V2.83333ZM2 4.91667C2 4.45643 2.3731 4.08333 2.83333 4.08333C3.29357 4.08333 3.66667 4.45643 3.66667 4.91667V16.5833C3.66667 17.0436 3.29357 17.4167 2.83333 17.4167C2.3731 17.4167 2 17.0436 2 16.5833V4.91667ZM4.91667 8.25C4.91667 7.78976 5.28976 7.41667 5.75 7.41667C6.21024 7.41667 6.58333 7.78976 6.58333 8.25V13.25C6.58333 13.7102 6.21024 14.0833 5.75 14.0833C5.28976 14.0833 4.91667 13.7102 4.91667 13.25V8.25ZM8.66667 6.16667C8.20643 6.16667 7.83333 6.53976 7.83333 7V14.5C7.83333 14.9602 8.20643 15.3333 8.66667 15.3333C9.1269 15.3333 9.5 14.9602 9.5 14.5V7C9.5 6.53976 9.1269 6.16667 8.66667 6.16667ZM21.1667 9.91667C21.1667 10.3769 20.7936 10.75 20.3333 10.75C19.8731 10.75 19.5 10.3769 19.5 9.91667V4.91667C19.5 4.45643 19.8731 4.08333 20.3333 4.08333C20.7936 4.08333 21.1667 4.45643 21.1667 4.91667V9.91667ZM18.25 9.08333C18.25 9.54357 17.8769 9.91667 17.4167 9.91667C16.9564 9.91667 16.5833 9.54357 16.5833 9.08333V8.25C16.5833 7.78976 16.9564 7.41667 17.4167 7.41667C17.8769 7.41667 18.25 7.78976 18.25 8.25V9.08333ZM14.5 10.3333C14.9602 10.3333 15.3333 9.96024 15.3333 9.5V7C15.3333 6.53976 14.9602 6.16667 14.5 6.16667C14.0398 6.16667 13.6667 6.53976 13.6667 7V9.5C13.6667 9.96024 14.0398 10.3333 14.5 10.3333ZM16.5833 11.1667C13.5918 11.1667 11.1667 13.5918 11.1667 16.5833C11.1667 19.5749 13.5918 22 16.5833 22C19.5749 22 22 19.5749 22 16.5833C21.9963 13.5933 19.5734 11.1703 16.5833 11.1667ZM19.4783 15.6292L17.0575 18.8575C16.8034 19.1959 16.4149 19.4073 15.9927 19.4369C15.5705 19.4665 15.1563 19.3113 14.8575 19.0117L13.6075 17.7617C13.2821 17.436 13.2823 16.9083 13.6079 16.5829C13.9335 16.2575 14.4613 16.2577 14.7867 16.5833L15.6983 17.495C15.741 17.5378 15.8001 17.5601 15.8604 17.5559C15.9207 17.5518 15.9762 17.5216 16.0125 17.4733L18.145 14.6292C18.3236 14.391 18.6158 14.2662 18.9113 14.3018C19.2069 14.3374 19.4611 14.528 19.578 14.8018C19.695 15.0756 19.657 15.391 19.4783 15.6292Z" fill="#5A5A5A"/>
</g>
</svg>
