<svg width="24" height="24" viewBox="0 0 24 24" fill="none" xmlns="http://www.w3.org/2000/svg">
<g id="voice_id_lock">
<path id="Shape" fill-rule="evenodd" clip-rule="evenodd" d="M10.75 2.83333C10.75 2.3731 11.1231 2 11.5833 2C12.0436 2 12.4167 2.3731 12.4167 2.83333V18.6667C12.4167 19.1269 12.0436 19.5 11.5833 19.5C11.1231 19.5 10.75 19.1269 10.75 18.6667V2.83333ZM2 4.91667C2 4.45643 2.3731 4.08333 2.83333 4.08333C3.29357 4.08333 3.66667 4.45643 3.66667 4.91667V16.5833C3.66667 17.0436 3.29357 17.4167 2.83333 17.4167C2.3731 17.4167 2 17.0436 2 16.5833V4.91667ZM4.91667 8.25C4.91667 7.78976 5.28976 7.41667 5.75 7.41667C6.21024 7.41667 6.58333 7.78976 6.58333 8.25V13.25C6.58333 13.7102 6.21024 14.0833 5.75 14.0833C5.28976 14.0833 4.91667 13.7102 4.91667 13.25V8.25ZM8.66667 6.16667C8.20643 6.16667 7.83333 6.53976 7.83333 7V14.5C7.83333 14.9602 8.20643 15.3333 8.66667 15.3333C9.1269 15.3333 9.5 14.9602 9.5 14.5V7C9.5 6.53976 9.1269 6.16667 8.66667 6.16667ZM19.635 10.18C19.9321 10.2992 20.2123 10.4569 20.4683 10.6492C20.5296 10.6946 20.6108 10.7029 20.68 10.6708C20.9762 10.5367 21.1665 10.2418 21.1667 9.91667V4.91667C21.1667 4.45643 20.7936 4.08333 20.3333 4.08333C19.8731 4.08333 19.5 4.45643 19.5 4.91667V9.91667V10.0067C19.5084 10.0854 19.5607 10.1526 19.635 10.18ZM17.4167 9.91667C17.2353 9.91733 17.0542 9.93154 16.875 9.95917C16.7806 9.9731 16.6887 9.92133 16.6517 9.83333C16.6068 9.72793 16.5835 9.61457 16.5833 9.5V8.25C16.5833 7.78976 16.9564 7.41667 17.4167 7.41667C17.8769 7.41667 18.25 7.78976 18.25 8.25V9.5C18.2492 9.59675 18.2305 9.69252 18.195 9.7825C18.1644 9.86354 18.0866 9.91704 18 9.91667H17.4167ZM14.1475 11.5C14.2376 11.5415 14.3445 11.514 14.4033 11.4342C14.6377 11.116 14.922 10.8377 15.245 10.61C15.2995 10.5718 15.3323 10.5098 15.3333 10.4433V7C15.3333 6.53976 14.9602 6.16667 14.5 6.16667C14.0398 6.16667 13.6667 6.53976 13.6667 7V10.75C13.6674 11.0722 13.855 11.3648 14.1475 11.5ZM20.75 14.7233C20.7498 14.8268 20.8259 14.9146 20.9283 14.9292C21.5436 15.0178 22.0001 15.5451 22 16.1667V20.75C22 21.4404 21.4404 22 20.75 22H14.9167C14.2263 22 13.6667 21.4404 13.6667 20.75V16.1667C13.6665 15.5451 14.1231 15.0178 14.7383 14.9292C14.8408 14.9146 14.9169 14.8268 14.9167 14.7233V13.875C14.9167 12.2642 16.2225 10.9583 17.8333 10.9583C19.4442 10.9583 20.75 12.2642 20.75 13.875V14.7233ZM17 18.875C17 19.3352 17.3731 19.7083 17.8333 19.7083C18.2936 19.7083 18.6667 19.3352 18.6667 18.875C18.6667 18.4148 18.2936 18.0417 17.8333 18.0417C17.3731 18.0417 17 18.4148 17 18.875ZM19.0833 14.7083C19.0833 14.8234 18.9901 14.9167 18.875 14.9167H16.7917C16.6766 14.9167 16.5833 14.8234 16.5833 14.7083V13.875C16.5833 13.1846 17.143 12.625 17.8333 12.625C18.5237 12.625 19.0833 13.1846 19.0833 13.875V14.7083Z" fill="#5A5A5A"/>
</g>
</svg>
