<?xml version="1.0" encoding="UTF-8"?>
<svg width="24px" height="24px" viewBox="0 0 24 24" version="1.1" xmlns="http://www.w3.org/2000/svg" xmlns:xlink="http://www.w3.org/1999/xlink">
    <title>1. Interface Essentials/voice_id_lock</title>
    <g id="1.-Interface-Essentials/voice_id_lock" stroke="none" stroke-width="1" fill="none" fill-rule="evenodd">
        <path d="M17.8333333,10.9583334 C19.4441638,10.9583334 20.7499999,12.2641695 20.75,13.875 L20.75,13.875 L20.75,14.7233333 C20.7498038,14.8268136 20.8258802,14.9146214 20.9283333,14.9291667 C21.5435497,15.0178446 22.0001424,15.5450921 22,16.1666667 L22,16.1666667 L22,20.75 C22,21.4403559 21.4403559,22 20.75,22 L20.75,22 L14.9166666,22 C14.2263107,22 13.6666666,21.4403559 13.6666666,20.75 L13.6666666,20.75 L13.6666666,16.1666667 C13.6665242,15.5450921 14.1231169,15.0178446 14.7383333,14.9291667 C14.8407864,14.9146214 14.9168628,14.8268136 14.9166666,14.7233333 L14.9166666,14.7233333 L14.9166666,13.875 C14.9166667,12.2641695 16.2225028,10.9583334 17.8333333,10.9583334 Z M17.8333333,18.0416667 C17.373096,18.0416667 17,18.4147627 17,18.875 C17,19.3352373 17.373096,19.7083333 17.8333333,19.7083333 C18.2935706,19.7083333 18.6666666,19.3352373 18.6666666,18.875 C18.6666666,18.4147627 18.2935706,18.0416667 17.8333333,18.0416667 Z M11.5833333,2 C12.0435706,2 12.4166666,2.37309604 12.4166666,2.83333333 L12.4166666,2.83333333 L12.4166666,18.6666667 C12.4166666,19.126904 12.0435706,19.5 11.5833333,19.5 C11.123096,19.5 10.75,19.126904 10.75,18.6666667 L10.75,18.6666667 L10.75,2.83333333 C10.75,2.37309604 11.123096,2 11.5833333,2 Z M2.8333333,4.08333333 C3.29357059,4.08333333 3.66666663,4.45642938 3.66666663,4.91666667 L3.66666663,4.91666667 L3.66666663,16.5833333 C3.66666663,17.0435706 3.29357059,17.4166667 2.8333333,17.4166667 C2.37309601,17.4166667 1.99999997,17.0435706 1.99999997,16.5833333 L1.99999997,16.5833333 L1.99999997,4.91666667 C1.99999997,4.45642938 2.37309601,4.08333333 2.8333333,4.08333333 Z M8.66666663,6.16666667 C9.12690392,6.16666667 9.49999997,6.53976271 9.49999997,7 L9.49999997,7 L9.49999997,14.5 C9.49999997,14.9602373 9.12690392,15.3333333 8.66666663,15.3333333 C8.20642934,15.3333333 7.8333333,14.9602373 7.8333333,14.5 L7.8333333,14.5 L7.8333333,7 C7.8333333,6.53976271 8.20642934,6.16666667 8.66666663,6.16666667 Z M17.8333333,12.625 C17.1429774,12.625 16.5833333,13.1846441 16.5833333,13.875 L16.5833333,13.875 L16.5833333,14.7083333 C16.5833333,14.8233927 16.6766073,14.9166667 16.7916666,14.9166667 L16.7916666,14.9166667 L18.875,14.9166667 C18.9900593,14.9166667 19.0833333,14.8233927 19.0833333,14.7083333 L19.0833333,14.7083333 L19.0833333,13.875 C19.0833333,13.1846441 18.5236892,12.625 17.8333333,12.625 Z M5.74999997,7.41666667 C6.21023726,7.41666667 6.5833333,7.78976271 6.5833333,8.25 L6.5833333,8.25 L6.5833333,13.25 C6.5833333,13.7102373 6.21023726,14.0833333 5.74999997,14.0833333 C5.28976268,14.0833333 4.91666663,13.7102373 4.91666663,13.25 L4.91666663,13.25 L4.91666663,8.25 C4.91666663,7.78976271 5.28976268,7.41666667 5.74999997,7.41666667 Z M14.5,6.16666667 C14.9602373,6.16666667 15.3333333,6.53976271 15.3333333,7 L15.3333333,7 L15.3333333,10.4433333 C15.3323012,10.509835 15.2994535,10.5718117 15.245,10.61 C14.9219533,10.8376778 14.6377474,11.1159744 14.4033333,11.4341667 C14.3444546,11.5139986 14.2375998,11.5414954 14.1475,11.5 C13.8549802,11.3648125 13.667413,11.0722467 13.6666666,10.75 L13.6666666,10.75 L13.6666666,7 C13.6666666,6.53976271 14.0397627,6.16666667 14.5,6.16666667 Z M20.3333333,4.08333333 C20.7935706,4.08333333 21.1666666,4.45642938 21.1666666,4.91666667 L21.1666666,4.91666667 L21.1666666,9.91666667 C21.166502,10.2417778 20.9761662,10.5367332 20.68,10.6708333 C20.6107977,10.7029015 20.5296034,10.6945903 20.4683333,10.6491667 C20.2123286,10.4569153 19.9321476,10.2991734 19.635,10.18 C19.5607156,10.1525736 19.5084018,10.0854054 19.5,10.0066667 L19.5,10.0066667 L19.5,4.91666667 C19.5,4.45642938 19.873096,4.08333333 20.3333333,4.08333333 Z M17.4166666,7.41666667 C17.8769039,7.41666667 18.25,7.78976271 18.25,8.25 L18.25,8.25 L18.25,9.5 C18.2491948,9.59674764 18.2305494,9.69251673 18.195,9.7825 C18.1643825,9.86354527 18.086635,9.9170382 18,9.91666667 L18,9.91666667 L17.4166666,9.91666667 C17.2353051,9.91733477 17.0542464,9.93154091 16.875,9.95916667 C16.7805636,9.97309818 16.6886758,9.92132561 16.6516666,9.83333333 C16.6067643,9.72792944 16.5835255,9.61456946 16.5833333,9.5 L16.5833333,9.5 L16.5833333,8.25 C16.5833333,7.78976271 16.9564293,7.41666667 17.4166666,7.41666667 Z" id="ðŸ–-Color" fill="#5A5A5A"></path>
        <rect id="_Transparent_Rectangle_" x="0" y="0" width="24" height="24"></rect>
    </g>
</svg>