<svg width="24" height="24" viewBox="0 0 24 24" fill="none" xmlns="http://www.w3.org/2000/svg">
<g id="volume">
<path id="Shape" fill-rule="evenodd" clip-rule="evenodd" d="M12 5.57138C12.789 5.57138 13.4286 4.93178 13.4286 4.1428C13.4286 3.35383 12.789 2.71423 12 2.71423C11.211 2.71423 10.5714 3.35383 10.5714 4.1428C10.5714 4.93178 11.211 5.57138 12 5.57138ZM4.85714 14.1428C4.85714 18.0877 8.05511 21.2857 12 21.2857C15.9449 21.2857 19.1429 18.0877 19.1429 14.1428C19.1429 10.1979 15.9449 6.99995 12 6.99995C8.05511 6.99995 4.85714 10.1979 4.85714 14.1428ZM15.7305 10.8885C15.7305 11.6775 15.0909 12.3171 14.3019 12.3171C13.5129 12.3171 12.8733 11.6775 12.8733 10.8885C12.8733 10.5096 13.0238 10.1463 13.2918 9.87837C13.5597 9.61046 13.923 9.45995 14.3019 9.45995C15.0909 9.45995 15.7305 10.0995 15.7305 10.8885ZM4.85714 9.3809C4.85714 10.1699 4.21755 10.8095 3.42857 10.8095C2.63959 10.8095 2 10.1699 2 9.3809C2 8.59192 2.63959 7.95233 3.42857 7.95233C4.21755 7.95233 4.85714 8.59192 4.85714 9.3809ZM20.5714 10.8095C21.3604 10.8095 22 10.1699 22 9.3809C22 8.59192 21.3604 7.95233 20.5714 7.95233C19.7824 7.95233 19.1429 8.59192 19.1429 9.3809C19.1429 10.1699 19.7824 10.8095 20.5714 10.8095ZM22 18.9047C22 19.6937 21.3604 20.3333 20.5714 20.3333C19.7824 20.3333 19.1429 19.6937 19.1429 18.9047C19.1429 18.1157 19.7824 17.4761 20.5714 17.4761C21.3604 17.4761 22 18.1157 22 18.9047ZM3.42857 20.3333C4.21755 20.3333 4.85714 19.6937 4.85714 18.9047C4.85714 18.1157 4.21755 17.4761 3.42857 17.4761C2.63959 17.4761 2 18.1157 2 18.9047C2 19.6937 2.63959 20.3333 3.42857 20.3333Z" fill="#5A5A5A"/>
</g>
</svg>
