<?xml version="1.0" encoding="UTF-8"?>
<svg width="24px" height="24px" viewBox="0 0 24 24" version="1.1" xmlns="http://www.w3.org/2000/svg" xmlns:xlink="http://www.w3.org/1999/xlink">
    <title>1. Interface Essentials/volume</title>
    <g id="1.-Interface-Essentials/volume" stroke="none" stroke-width="1" fill="none" fill-rule="evenodd">
        <path d="M12,7 C15.9448911,7 19.1428571,10.1979661 19.1428571,14.1428571 C19.1428571,18.0877482 15.9448911,21.2857143 12,21.2857143 C8.05510893,21.2857143 4.85714286,18.0877482 4.85714286,14.1428571 C4.85714286,10.1979661 8.05510893,7 12,7 Z M20.5714286,17.4761905 C21.3604068,17.4761905 22,18.1157837 22,18.9047619 C22,19.6937401 21.3604068,20.3333333 20.5714286,20.3333333 C19.7824504,20.3333333 19.1428571,19.6937401 19.1428571,18.9047619 C19.1428571,18.1157837 19.7824504,17.4761905 20.5714286,17.4761905 Z M3.42857143,17.4761905 C4.21754964,17.4761905 4.85714286,18.1157837 4.85714286,18.9047619 C4.85714286,19.6937401 4.21754964,20.3333333 3.42857143,20.3333333 C2.63959321,20.3333333 2,19.6937401 2,18.9047619 C2,18.1157837 2.63959321,17.4761905 3.42857143,17.4761905 Z M14.3019048,9.46 C13.9230241,9.46 13.5596613,9.61050977 13.2917522,9.87841888 C13.0238431,10.146328 12.8733333,10.5096907 12.8733333,10.8885714 C12.8733333,11.6775496 13.5129265,12.3171429 14.3019048,12.3171429 C15.090883,12.3171429 15.7304762,11.6775496 15.7304762,10.8885714 C15.7304762,10.0995932 15.090883,9.46 14.3019048,9.46 Z M3.42857143,7.95238095 C4.21754964,7.95238095 4.85714286,8.59197417 4.85714286,9.38095238 C4.85714286,10.1699306 4.21754964,10.8095238 3.42857143,10.8095238 C2.63959321,10.8095238 2,10.1699306 2,9.38095238 C2,8.59197417 2.63959321,7.95238095 3.42857143,7.95238095 Z M20.5714286,7.95238095 C21.3604068,7.95238095 22,8.59197417 22,9.38095238 C22,10.1699306 21.3604068,10.8095238 20.5714286,10.8095238 C19.7824504,10.8095238 19.1428571,10.1699306 19.1428571,9.38095238 C19.1428571,8.59197417 19.7824504,7.95238095 20.5714286,7.95238095 Z M12,2.71428571 C12.7889782,2.71428571 13.4285714,3.35387893 13.4285714,4.14285714 C13.4285714,4.93183536 12.7889782,5.57142857 12,5.57142857 C11.2110218,5.57142857 10.5714286,4.93183536 10.5714286,4.14285714 C10.5714286,3.35387893 11.2110218,2.71428571 12,2.71428571 Z" id="ðŸ–-Color" fill="#5A5A5A"></path>
        <rect id="_Transparent_Rectangle_" x="0" y="0" width="24" height="24"></rect>
    </g>
</svg>