<svg width="24" height="24" viewBox="0 0 24 24" fill="none" xmlns="http://www.w3.org/2000/svg">
<g id="warning">
<path id="Shape" fill-rule="evenodd" clip-rule="evenodd" d="M21.7488 18.787L13.9703 4.01486C13.5839 3.28814 12.8261 2.83331 12.0004 2.83331C11.1739 2.83331 10.4161 3.28814 10.0297 4.01486L2.25115 18.7792C1.89187 19.4625 1.91973 20.2832 2.32401 20.9394C2.73044 21.5957 3.44757 21.9964 4.22114 22H19.7789C20.551 21.9978 21.2674 21.6007 21.676 20.948C22.0803 20.2903 22.1081 19.4696 21.7488 18.787ZM10.8468 9.73254C10.8468 9.09764 11.3632 8.58303 12.0011 8.58303C12.6382 8.58303 13.1553 9.09764 13.1553 9.73254V13.5662C13.1553 14.2018 12.6382 14.7164 12.0011 14.7164C11.3632 14.7164 10.8468 14.2018 10.8468 13.5662V9.73254ZM12.0011 19.3166C11.1511 19.3166 10.4618 18.6297 10.4618 17.7834C10.4618 16.9357 11.1511 16.2503 12.0011 16.2503C12.8504 16.2503 13.5396 16.9357 13.5396 17.7834C13.5396 18.1898 13.3768 18.5799 13.0882 18.8675C12.7996 19.1557 12.4075 19.3166 11.9996 19.3166H12.0011Z" fill="#5A5A5A"/>
</g>
</svg>
