<?xml version="1.0" encoding="UTF-8"?>
<svg width="24px" height="24px" viewBox="0 0 24 24" version="1.1" xmlns="http://www.w3.org/2000/svg" xmlns:xlink="http://www.w3.org/1999/xlink">
    <title>1. Interface Essentials/warning</title>
    <g id="1.-Interface-Essentials/warning" stroke="none" stroke-width="1" fill="none" fill-rule="evenodd">
        <path d="M21.7488464,18.7870494 L13.9703405,4.01487918 C13.5839152,3.28815731 12.8260645,2.83333333 12.0003571,2.83333333 C11.1739355,2.83333333 10.4160848,3.28815731 10.0296595,4.01487918 L2.2511536,18.7792199 C1.89187091,19.4625235 1.91972782,20.2831996 2.32401013,20.9394558 C2.73043527,21.595712 3.44757209,21.9964411 4.22113699,22 L19.778863,22 C20.5509994,21.9978647 21.2674219,21.6006944 21.6759899,20.9479971 C22.0802722,20.2903174 22.1081291,19.4696413 21.7488464,18.7870494 L21.7488464,18.7870494 Z M10.8467954,9.73256462 C10.8467954,9.09766167 11.3632197,8.58304862 12.0010714,8.58304862 C12.6382089,8.58304862 13.1553474,9.09766167 13.1553474,9.73256462 L13.1553474,13.5661827 C13.1553474,14.2017974 12.6382089,14.7164104 12.0010714,14.7164104 C11.3632197,14.7164104 10.8467954,14.2017974 10.8467954,13.5661827 L10.8467954,9.73256462 Z M12.0010714,19.3166097 C11.1510786,19.3166097 10.4617987,18.6297472 10.4617987,17.7834472 C10.4617987,16.9357237 11.1510786,16.2502847 12.0010714,16.2502847 C12.85035,16.2502847 13.5396299,16.9357237 13.5396299,17.7834472 C13.5396299,18.1898705 13.3767741,18.579923 13.0882051,18.8674799 C12.7996361,19.1557487 12.4074966,19.3166097 11.9996429,19.3166097 L12.0010714,19.3166097 Z" id="ðŸ–-Color" fill="#5A5A5A"></path>
        <rect id="_Transparent_Rectangle_" x="0" y="0" width="24" height="24"></rect>
    </g>
</svg>