<svg width="24" height="24" viewBox="0 0 24 24" fill="none" xmlns="http://www.w3.org/2000/svg">
<g id="watch_time">
<path id="Shape" fill-rule="evenodd" clip-rule="evenodd" d="M18.6671 12C18.6656 9.61912 17.3952 7.41952 15.3337 6.22833V3.25C15.3337 2.55964 14.7741 2 14.0837 2H9.91707C9.22671 2 8.66707 2.55964 8.66707 3.25V6.22917C6.60619 7.42053 5.33691 9.62037 5.33691 12.0008C5.33691 14.3813 6.60619 16.5811 8.66707 17.7725V20.75C8.66707 21.0815 8.79877 21.3995 9.03319 21.6339C9.26761 21.8683 9.58555 22 9.91707 22H14.0837C14.7741 22 15.3337 21.4404 15.3337 20.75V17.7725C17.3953 16.581 18.6657 14.3811 18.6671 12ZM12.0004 17C9.23898 17 7.0004 14.7614 7.0004 12C7.0004 9.23858 9.23898 7 12.0004 7C14.7618 7 17.0004 9.23858 17.0004 12C16.9972 14.7601 14.7605 16.9968 12.0004 17ZM12.6254 9.5V11.7417L14.5254 13.6417C14.6426 13.7587 14.7085 13.9176 14.7085 14.0833C14.7085 14.249 14.6426 14.4079 14.5254 14.525C14.2778 14.7599 13.8897 14.7599 13.6421 14.525L11.5587 12.4417C11.4414 12.3246 11.3755 12.1657 11.3754 12V9.5C11.3754 9.15482 11.6552 8.875 12.0004 8.875C12.3456 8.875 12.6254 9.15482 12.6254 9.5Z" fill="#5A5A5A"/>
</g>
</svg>
