<?xml version="1.0" encoding="UTF-8"?>
<svg width="24px" height="24px" viewBox="0 0 24 24" version="1.1" xmlns="http://www.w3.org/2000/svg" xmlns:xlink="http://www.w3.org/1999/xlink">
    <title>1. Interface Essentials/watch_time</title>
    <g id="1.-Interface-Essentials/watch_time" stroke="none" stroke-width="1" fill="none" fill-rule="evenodd">
        <path d="M14.0836511,2 C14.7740071,2 15.3336511,2.55964406 15.3336511,3.25 L15.3336511,3.25 L15.3336511,6.22833333 C17.3951287,7.41951886 18.6654705,9.61911559 18.6669845,12 C18.6655963,14.3811361 17.3952607,16.5810399 15.3336511,17.7725 L15.3336511,17.7725 L15.3336511,20.75 C15.3336511,21.4403559 14.7740071,22 14.0836511,22 L14.0836511,22 L9.91698447,22 C9.58546386,22 9.26752147,21.8683039 9.033101,21.6338835 C8.79868052,21.399463 8.66698447,21.0815206 8.66698447,20.75 L8.66698447,20.75 L8.66698447,17.7725 C6.60610177,16.5811355 5.33682921,14.3812927 5.33682921,12.0008333 C5.33682921,9.62037396 6.60610177,7.42053114 8.66698447,6.22916667 L8.66698447,6.22916667 L8.66698447,3.25 C8.66698447,2.55964406 9.22662854,2 9.91698447,2 L9.91698447,2 Z M12.0003178,7 C9.23889406,7 7.00031781,9.23857625 7.00031781,12 C7.00031781,14.7614237 9.23889406,17 12.0003178,17 C14.760409,16.9967855 16.9971033,14.7600912 17.0003178,12 C17.0003178,9.23857625 14.7617416,7 12.0003178,7 Z M12.0003178,8.875 C12.3454958,8.875 12.6253178,9.15482203 12.6253178,9.5 L12.6253178,9.5 L12.6253178,11.7416667 L14.5253178,13.6416667 C14.6425641,13.7587461 14.7084464,13.91764 14.7084464,14.0833333 C14.7084464,14.2490267 14.6425641,14.4079206 14.5253178,14.525 C14.2777317,14.7599227 13.8895706,14.7599227 13.6419845,14.525 L13.6419845,14.525 L11.5586511,12.4416667 C11.4413298,12.3246208 11.3753721,12.1657227 11.3753178,12 L11.3753178,12 L11.3753178,9.5 C11.3753178,9.15482203 11.6551398,8.875 12.0003178,8.875 Z" id="ðŸ–-Color" fill="#5A5A5A"></path>
        <rect id="_Transparent_Rectangle_" x="0" y="0" width="24" height="24"></rect>
    </g>
</svg>