<svg width="24" height="24" viewBox="0 0 24 24" fill="none" xmlns="http://www.w3.org/2000/svg">
<g id="zoom_in">
<path id="Shape" fill-rule="evenodd" clip-rule="evenodd" d="M21.5336 19.2811C20.9116 18.6565 17.3704 15.1249 17.3704 15.1249C19.7988 11.5358 19.1033 6.68837 15.7637 3.92748C12.4241 1.16659 7.53406 1.39633 4.46785 4.45818C1.40164 7.52002 1.16333 12.4113 3.91735 15.757C6.67138 19.1026 11.5159 19.8069 15.1081 17.384L19.2713 21.5401C19.9008 22.1533 20.904 22.1533 21.5336 21.5401C22.1555 20.9156 22.1555 19.9056 21.5336 19.2811ZM10.4107 3.62384C14.1661 3.62384 17.2104 6.66922 17.2104 10.4259C17.2104 14.1826 14.1661 17.228 10.4107 17.228C6.65529 17.228 3.61095 14.1826 3.61095 10.4259C3.61536 6.67105 6.65712 3.62825 10.4107 3.62384ZM9.61071 11.2261H7.61079C7.16898 11.2261 6.81082 10.8679 6.81082 10.4259C6.81082 9.98393 7.16898 9.62565 7.61079 9.62565H9.61071V7.62505C9.61071 7.18309 9.96886 6.82481 10.4107 6.82481C10.8525 6.82481 11.2106 7.18309 11.2106 7.62505V9.62565H13.2106C13.6524 9.62565 14.0105 9.98393 14.0105 10.4259C14.0105 10.8679 13.6524 11.2261 13.2106 11.2261H11.2106V13.2267C11.2106 13.6687 10.8525 14.027 10.4107 14.027C9.96886 14.027 9.61071 13.6687 9.61071 13.2267V11.2261Z" fill="#5A5A5A"/>
</g>
</svg>
