<?xml version="1.0" encoding="UTF-8"?>
<svg width="24px" height="24px" viewBox="0 0 24 24" version="1.1" xmlns="http://www.w3.org/2000/svg" xmlns:xlink="http://www.w3.org/1999/xlink">
    <title>1. Interface Essentials/zoom_out</title>
    <g id="1.-Interface-Essentials/zoom_out" stroke="none" stroke-width="1" fill="none" fill-rule="evenodd">
        <path d="M4.46785422,4.45817615 C7.53406354,1.39633452 12.4241254,1.16659273 15.7637064,3.92748157 C19.1032873,6.68837042 19.7988299,11.5358272 17.3703826,15.1249176 C18.1292219,15.8816924 18.7875233,16.5383506 19.3452866,17.0948923 L19.8695372,17.6180618 C19.9240636,17.6724837 19.9773489,17.7256696 20.0293929,17.7776195 L20.3267625,18.0744869 C20.5150792,18.2625104 20.6835366,18.4307579 20.8321346,18.5792292 L21.3667748,19.1138614 C21.4335398,19.1807187 21.4891338,19.2364519 21.5335569,19.281061 C22.155481,19.9055889 22.155481,20.9156164 21.5335569,21.5401443 C20.9040015,22.1532852 19.9008065,22.1532852 19.2712511,21.5401443 L19.2712511,21.5401443 L15.1080767,17.3840009 C11.5159294,19.806929 6.67137885,19.1025701 3.91735396,15.7569593 C1.16332907,12.4113485 1.40164489,7.52001777 4.46785422,4.45817615 Z M10.4106721,3.62383883 C6.65711949,3.62824852 3.61536317,6.67105176 3.610955,10.4258963 C3.610955,14.1825689 6.65529205,17.2279537 10.4106721,17.2279537 C14.1660522,17.2279537 17.2103892,14.1825689 17.2103892,10.4258963 C17.2103892,6.66922369 14.1660522,3.62383883 10.4106721,3.62383883 Z M13.2105556,9.62565423 C13.6523651,9.62565423 14.0105224,9.9839348 14.0105224,10.4258963 C14.0105224,10.8678578 13.6523651,11.2261383 13.2105556,11.2261383 L13.2105556,11.2261383 L7.6107886,11.2261383 C7.16897918,11.2261383 6.81082188,10.8678578 6.81082188,10.4258963 C6.81082188,9.9839348 7.16897918,9.62565423 7.6107886,9.62565423 L7.6107886,9.62565423 Z" id="ðŸ–-Color" fill="#5A5A5A"></path>
        <rect id="_Transparent_Rectangle_" x="0" y="0" width="24" height="24"></rect>
    </g>
</svg>