<svg xmlns="http://www.w3.org/2000/svg" width="540" height="474" viewBox="0 0 540 474">
  <g id="people" transform="translate(-807 -169)">
    <path id="Fill_5" data-name="Fill 5"
          d="M0,32l9.16-3.179c4.436-4.716,12.8-13.009,17.447-13.009.116,0,.233.005.345.016,5.335.512,8.323,9.549,8.323,9.549A31.58,31.58,0,0,1,47.442,12.819a7.508,7.508,0,0,1,3.649-1c6.311,0,10.439,8.992,10.439,8.992s.641-13.7,16.008-19.98A10.037,10.037,0,0,1,81.328,0c11.352,0,10.3,25.95,10.3,25.95L123,31.658,0,32"
          transform="translate(1224 331)" fill="#d5d0ff"/>
    <path id="Fill_7" data-name="Fill 7"
          d="M31.055,133A10.885,10.885,0,0,1,20.8,125.654L.591,67.335a10.848,10.848,0,0,1,6.645-13.74l7.182-2.5-3.1-8.962A31.777,31.777,0,0,1,30.826,1.755a31.427,31.427,0,0,1,19.919-.264,31.876,31.876,0,0,1,8.616,4.262A31.458,31.458,0,0,1,71.12,21.328l3.105,8.964,7.16-2.491A10.844,10.844,0,0,1,95.19,34.426L115.4,92.746a10.9,10.9,0,0,1-6.708,13.869L34.538,132.41A10.577,10.577,0,0,1,31.055,133ZM58.343,66a14.548,14.548,0,0,0-4.7.78A14.3,14.3,0,0,0,48.7,69.66a14.065,14.065,0,0,0-3.307,4.379,13.707,13.707,0,0,0-.6,10.628,13.928,13.928,0,0,0,5.143,6.772A14.62,14.62,0,0,0,57.865,94.1l5.351,15.121a1.21,1.21,0,0,0,1.146.784,1.144,1.144,0,0,0,.371-.06l7.382-2.513a1.329,1.329,0,0,0,.772-.662,1.106,1.106,0,0,0,.048-.858L67.583,90.787a14.142,14.142,0,0,0,4.549-6.905,13.64,13.64,0,0,0-.241-8.44A14.327,14.327,0,0,0,58.343,66ZM40.4,14A17.4,17.4,0,0,0,23.037,30.238a17.164,17.164,0,0,0,.929,6.816L27.085,46,60,34.619l-3.118-8.946A17.453,17.453,0,0,0,40.4,14Z"
          transform="translate(1135 169)" fill="#faec9a"/>
    <path id="Fill_9" data-name="Fill 9"
          d="M70.943,92.86c5.109-3.413,2.268-11.805-2.456-15.746s-11.079-6.6-13.4-12.337C52,57.121,57.713,47.526,53.514,40.43c-3.372-5.7-11.471-6.705-15.471-11.967-4.97-6.539-1.681-16.8-6.373-23.545-3.74-5.379-11.976-6.4-17.417-2.8S6.355,12.974,7.52,19.442c.912,5.059,3.756,9.86,3.225,14.974C9.914,42.423,1.224,47.754.122,55.727-1.913,70.454,22.211,79.411,19.17,93.961c-.678,3.238-2.688,6-4.067,9-4.1,8.933-2.3,19.8,2.7,28.257s12.783,14.84,20.913,20.257c3.322,2.215,6.926,4.363,10.9,4.514,3.741.142,7.322-1.517,10.506-3.51C80.665,139.619,98.383,117.7,70.943,92.86"
          transform="translate(951 439)" fill="#3ce897"/>
    <path id="Fill_10" data-name="Fill 10"
          d="M1.86,125.887c7.091-3.106,13.479-8.85,18.773-14.4C34.915,96.522,43.768,76.976,48.426,56.856,52.639,38.647,53.58,19.821,52.7,1.186c-.075-1.576-2.5-1.586-2.426,0,1.979,41.865-6.207,93.238-43.109,118.72a40.075,40.075,0,0,1-6.528,3.855c-1.429.625-.194,2.747,1.225,2.126"
          transform="translate(1156 424)" fill="#e46e63"/>
    <path id="Fill_11" data-name="Fill 11" d="M0,15.995S2.566,2.186,22,0c0,0-7.089,16.342-22,15.995"
          transform="translate(1205 458)" fill="#e46e63"/>
    <path id="Fill_12" data-name="Fill 12" d="M0,10.443S5.369-1.814,23,.23c0,0-9.928,13.657-23,10.213"
          transform="translate(1200 484)" fill="#e46e63"/>
    <path id="Fill_13" data-name="Fill 13" d="M0,6.986S8.1-4.358,25,1.865c0,0-12.909,11.716-25,5.121"
          transform="translate(1192 505)" fill="#e46e63"/>
    <path id="Fill_14" data-name="Fill 14" d="M0,14.995S2.45,2.05,21,0c0,0-6.766,15.32-21,14.995"
          transform="translate(1208 438)" fill="#e46e63"/>
    <path id="Fill_15" data-name="Fill 15" d="M5.9,24S-5.293,15.355,3.155,0c0,0,11.068,13.21,2.742,24"
          transform="translate(1203 405)" fill="#e46e63"/>
    <path id="Fill_16" data-name="Fill 16" d="M14.99,20S1.913,17.559,0,0C0,0,15.444,6.545,14.99,20"
          transform="translate(1193 423)" fill="#e46e63"/>
    <path id="Fill_17" data-name="Fill 17" d="M14.99,21S1.913,18.44,0,0C0,0,15.442,6.872,14.99,21"
          transform="translate(1192 443)" fill="#e46e63"/>
    <path id="Fill_18" data-name="Fill 18" d="M13.907,21S.709,17.642,0,0C0,0,15.328,7.617,13.907,21"
          transform="translate(1190 462)" fill="#e46e63"/>
    <path id="Fill_19" data-name="Fill 19" d="M13.907,21S.708,17.642,0,0C0,0,15.327,7.619,13.907,21"
          transform="translate(1184 481)" fill="#e46e63"/>
    <path id="Fill_20" data-name="Fill 20"
          d="M162.837,376H28.164A28.22,28.22,0,0,1,0,347.725V28.275A28.22,28.22,0,0,1,28.164,0H162.837A28.22,28.22,0,0,1,191,28.275V347.725A28.22,28.22,0,0,1,162.837,376"
          transform="translate(997 222)" fill="#564689"/>
    <path id="Fill_21" data-name="Fill 21"
          d="M154.2,352H19.8A19.809,19.809,0,0,1,0,332.179V19.822A19.809,19.809,0,0,1,19.8,0H154.2A19.809,19.809,0,0,1,174,19.822V332.179A19.809,19.809,0,0,1,154.2,352"
          transform="translate(1006 233)" fill="#fff"/>
    <path id="Fill_22" data-name="Fill 22"
          d="M118,3.179H106.784a6.214,6.214,0,0,0-6.23,6.2V13.8A6.213,6.213,0,0,1,94.322,20H44.307a6.213,6.213,0,0,1-6.23-6.2V9.376a6.214,6.214,0,0,0-6.23-6.2H0V0H118V3.179"
          transform="translate(1026 230)" fill="#462e8b"/>
    <path id="Fill_23" data-name="Fill 23"
          d="M3.9,4.524A2.529,2.529,0,0,0,4.922,2.408,2.206,2.206,0,0,0,3,0,2.207,2.207,0,0,0,1.075,2.408,2.533,2.533,0,0,0,2.1,4.524,3.774,3.774,0,0,0,0,8.106V10H6V8.106A3.774,3.774,0,0,0,3.9,4.524"
          transform="translate(1093 283)" fill="#39345b"/>
    <path id="Fill_24" data-name="Fill 24"
          d="M70.7,16H1.3A1.294,1.294,0,0,1,0,14.712V1.287A1.293,1.293,0,0,1,1.3,0H70.7A1.293,1.293,0,0,1,72,1.287V14.712A1.294,1.294,0,0,1,70.7,16"
          transform="translate(1056 517)" fill="#ff3776"/>
    <text id="Register" transform="translate(1079 520)" fill="#eaead7" font-size="4.489"
          font-family="LucidaGrande, Lucida Grande">
      <tspan x="0" y="4">Regis</tspan>
      <tspan y="4" letter-spacing="-0.019em">t</tspan>
      <tspan y="4">er</tspan>
    </text>
    <path id="Fill_34" data-name="Fill 34"
          d="M128.011,20.66v-.34H3.987A3.374,3.374,0,0,1,.663,16.906V4.094A3.374,3.374,0,0,1,3.987.681H128.011a3.373,3.373,0,0,1,3.326,3.414V16.906a3.373,3.373,0,0,1-3.326,3.414V21A4.041,4.041,0,0,0,132,16.906V4.094A4.042,4.042,0,0,0,128.011,0H3.987A4.041,4.041,0,0,0,0,4.094V16.906A4.04,4.04,0,0,0,3.987,21H128.011v-.34"
          transform="translate(1030 333)" fill="#a4a0c0"/>
    <path id="Fill_38" data-name="Fill 38"
          d="M128.011,20.66v-.34H3.987A3.374,3.374,0,0,1,.663,16.9V4.1A3.375,3.375,0,0,1,3.987.68H128.011A3.374,3.374,0,0,1,131.337,4.1V16.9a3.373,3.373,0,0,1-3.326,3.415V21A4.042,4.042,0,0,0,132,16.9V4.1A4.043,4.043,0,0,0,128.011,0H3.987A4.042,4.042,0,0,0,0,4.1V16.9A4.042,4.042,0,0,0,3.987,21H128.011v-.34"
          transform="translate(1030 378)" fill="#a4a0c0"/>
    <path id="Fill_44" data-name="Fill 44"
          d="M128.011,19.676v-.324H3.987A3.291,3.291,0,0,1,.663,16.1V3.9A3.292,3.292,0,0,1,3.987.648H128.011A3.292,3.292,0,0,1,131.337,3.9V16.1a3.291,3.291,0,0,1-3.326,3.252V20A3.943,3.943,0,0,0,132,16.1V3.9A3.944,3.944,0,0,0,128.011,0H3.987A3.944,3.944,0,0,0,0,3.9V16.1A3.943,3.943,0,0,0,3.987,20H128.011v-.324"
          transform="translate(1030 425)" fill="#a4a0c0"/>
    <path id="Fill_50" data-name="Fill 50"
          d="M128.011,19.676v-.324H3.987A3.294,3.294,0,0,1,.663,16.1V3.9A3.294,3.294,0,0,1,3.987.648H128.011A3.293,3.293,0,0,1,131.337,3.9V16.1a3.293,3.293,0,0,1-3.326,3.252V20A3.944,3.944,0,0,0,132,16.1V3.9A3.944,3.944,0,0,0,128.011,0H3.987A3.944,3.944,0,0,0,0,3.9V16.1A3.944,3.944,0,0,0,3.987,20H128.011v-.324"
          transform="translate(1030 472)" fill="#a4a0c0"/>
    <path id="Fill_52" data-name="Fill 52" d="M85,5C38.055,5,0,3.882,0,2.5S38.055,0,85,0s85,1.118,85,2.5S131.945,5,85,5"
          transform="translate(993 638)" fill="#715eee"/>
    <path id="Fill_53" data-name="Fill 53"
          d="M0,5.75s8.8,13.693,10.79,7.759S14,3.944,14,3.944,11.5-.185,10.179,1.085C8.8,2.414,7,0,7,0L0,5.75"
          transform="translate(1082 453)" fill="#efa78d"/>
    <path id="Fill_54" data-name="Fill 54"
          d="M30.179,47l3.643-20.354c2.392-.742,4.852-2.519,4.009-5.27a4.143,4.143,0,0,0-2.857-2.58c-.5-.181-3.042-.884-3.22.06l1.387-7.336L8.329,0,6.04,14.78c.035-.226-2.411-.755-2.743-.722a4.132,4.132,0,0,0-2.95,2.3c-1.292,2.77,1.207,6.271,4.325,6.318,0,0,.425,6.555,2,8.88s8.875,3.932,8.875,3.932l-.8,8.861L30.179,47"
          transform="translate(1095 344)" fill="#efa78d"/>
    <path id="Fill_55" data-name="Fill 55" d="M36.547,5.645C25.594,2.642,10.207,0,10.207,0L0,71l43-1.3L36.547,5.645"
          transform="translate(1096 387)" fill="#325aed"/>
    <path id="Fill_56" data-name="Fill 56"
          d="M0,34.125a271.164,271.164,0,0,0,41.6,7.907c-3.159-14.544-4.886-25.665-9.015-38.02C36.522,3,44.213,1.011,48.155,0c0,0,13.059,46.065,9.1,52.206-6.746,10.453-40.345,3.571-40.345,3.571L1.014,52.909,0,34.125"
          transform="translate(1133 359)" fill="#325aed"/>
    <path id="Fill_58" data-name="Fill 58"
          d="M26,32.445S24.162,19.279,23.942,18.9s-.22-2.7-3.518-2.139c0,0-.22-4.171-2.125-4.247a16.888,16.888,0,0,0-4.031.451S12.122,2.272,10.73.417c-1.52-2.025-3.645,3.31-.348,16.347,0,0,1.828,8.868,1.284,9.193-1.476.882-3.5.723-6.313-4.2-2.981-5.226-6.7-3.456-4.865.6S4.916,31.665,6.6,33.092s5.247,1.214,5.247,1.214L12.372,36,26,32.445"
          transform="translate(1155 326)" fill="#efa78d"/>
    <path id="Fill_59" data-name="Fill 59"
          d="M122,4.206C116.9,81.859,99.583,177.7,99.583,177.7l16.96,7.2H80.425L104.115,15.42H96L36.077,185H0l20.526-7.5L80.425,0,122,4.206"
          transform="translate(1017 453)" fill="#550a28"/>
    <path id="Fill_60" data-name="Fill 60"
          d="M33.735,24.674c2.092-4.075,4.54-13.968-1.813-16.718a65.8,65.8,0,0,1-9.238-5.129A16.438,16.438,0,0,0,9.513.514a12.185,12.185,0,0,0-2.084.759C3,3.394,0,14.873,0,14.873l4.358,1.063s4.86,21.056,12.854,25.383L25.2,42.967,29.922,44l3.814-19.326"
          transform="translate(1097 339)" fill="#cc3021"/>
    <path id="Fill_61" data-name="Fill 61"
          d="M.849,3.658A30.365,30.365,0,0,0,.742.339C.7-.111.107-.115.146.339A30.617,30.617,0,0,1,.254,3.658a.3.3,0,1,0,.595,0"
          transform="translate(1124 342)" fill="#b75c46"/>
    <path id="Fill_62" data-name="Fill 62"
          d="M.6,3.936a3.457,3.457,0,0,0,1.02-1.464A15.245,15.245,0,0,1,2.919.568c.319-.405-.391-.8-.708-.4A15.638,15.638,0,0,0,1.163,1.655C.895,2.092.644,2.972.191,3.25A.4.4,0,0,0,.6,3.936"
          transform="translate(1124 342)" fill="#b75c46"/>
    <path id="Fill_63" data-name="Fill 63"
          d="M85.5,6C38.28,6,0,4.658,0,3S38.28,0,85.5,0,171,1.343,171,3,132.721,6,85.5,6" transform="translate(807 632)"
          fill="#715fed"/>
    <path id="Fill_64" data-name="Fill 64"
          d="M29.1.713A38.182,38.182,0,0,0,24,.092c-3.026-.287-5.787,1.716-8.079,3.756A27.12,27.12,0,0,0,10.5,11.276c-1.515,2.769-2.93,5.978-2.036,9.015a8.106,8.106,0,0,1,.593,2.332c-.033,2.513-3.422,3.461-4.483,5.727-1.31,2.8,1.364,6.575-.449,9.066-.906,1.244-2.649,1.636-3.506,2.914a5.839,5.839,0,0,0-.592,3.533.992.992,0,0,0,.214.7.946.946,0,0,0,.572.188,90.775,90.775,0,0,0,14.481-.119,90.634,90.634,0,0,1,14.483-.119,16.148,16.148,0,0,0,3.515.089,16.126,16.126,0,0,0,4.778-1.632c8.373-3.9,16.756-4.908,24.938-9.209a1.862,1.862,0,0,0,.88-.735,1.648,1.648,0,0,0,.1-.888,5.811,5.811,0,0,0-3.88-4.86c-2.131-.683-4.688-.085-6.468-1.466a6.19,6.19,0,0,1-1.919-4.379c-.345-3.326.027-7.175-2.332-9.5-1.846-1.817-4.809-2.015-6.663-3.826a24.166,24.166,0,0,1-2.477-3.677C37.748.887,33.5-1.171,29.1.713"
          transform="translate(892 338)" fill="#543e4c"/>
    <path id="Fill_65" data-name="Fill 65"
          d="M75.878,2.623,21.429,174.745,0,183H31.8L93.279,20.84a2.681,2.681,0,0,1,5.173,1.232L82.252,183h32.19L92.95,175.9s20.026-93.576,24.482-122.856-2-49.966-2-49.966S94.56-3.533,75.878,2.623"
          transform="translate(829 449)" fill="#08473b"/>
    <path id="Fill_66" data-name="Fill 66"
          d="M0,4.637C5.051-.581,25.129-1.181,32.387,1.766S53,42.843,53,42.843L39.718,48,31.477,16.122,5.647,12.6,0,4.637"
          transform="translate(906 385)" fill="#ff3776"/>
    <path id="Fill_67" data-name="Fill 67"
          d="M35.685,17.332a41.332,41.332,0,0,0,2.773-9.311C38.945,3.966,33.289,0,33.289,0L2.6,7.754,4.5,25.577,0,61.59,39,63,35.081,17.483"
          transform="translate(904 389)" fill="#ff3776"/>
    <path id="Fill_68" data-name="Fill 68"
          d="M.728,4a.84.84,0,0,1-.437-.119.538.538,0,0,1-.145-.843L2.691.24A.832.832,0,0,1,3.709.121a.534.534,0,0,1,.145.84L1.312,3.76A.8.8,0,0,1,.728,4"
          transform="translate(908 403)" fill="#2787a0"/>
    <path id="Fill_70" data-name="Fill 70"
          d="M11.481,45c-.414-4,1.608-8.065-4.777-10.654C-2.1,30.778-3.991.07,11.915,0S27.04,20.2,26.976,26.22s-5.3,7.551-6.611,9.73S20.185,45,20.185,45h-8.7"
          transform="translate(908 341)" fill="#efa78d"/>
    <path id="Fill_71" data-name="Fill 71" d="M6,3A3,3,0,1,1,3,0,3,3,0,0,1,6,3" transform="translate(905 359)"
          fill="#efa78d"/>
    <path id="Fill_72" data-name="Fill 72"
          d="M6,3.5A3.278,3.278,0,0,1,3,7,3.279,3.279,0,0,1,0,3.5,3.28,3.28,0,0,1,3,0,3.279,3.279,0,0,1,6,3.5"
          transform="translate(933 356)" fill="#efa78d"/>
    <path id="Fill_73" data-name="Fill 73"
          d="M28.4,99a27.943,27.943,0,0,1-11.053-2.257,28.288,28.288,0,0,1-9.026-6.155,28.911,28.911,0,0,1,0-40.618,28.286,28.286,0,0,1,9.026-6.155,28.115,28.115,0,0,1,24.046.92,28.743,28.743,0,0,1,9.848,8.482L185.26,0,190,12.15l-4.932,2.021L190,24.348l-8.9,4.81-4.746-9.545-4.034,2.159,4.382,9.923-12.449,5.769-5.605-12.471L56.58,66.8a29.227,29.227,0,0,1,.215,3.482,28.8,28.8,0,0,1-8.318,20.308,28.291,28.291,0,0,1-9.027,6.155A27.945,27.945,0,0,1,28.4,99Zm.1-47a18.441,18.441,0,1,0,7.2,1.454A18.385,18.385,0,0,0,28.5,52Z"
          transform="translate(812 412)" fill="#ffde1b"/>
    <path id="Fill_74" data-name="Fill 74"
          d="M34.48,0S.188,29.819,0,35.353,20.2,70,20.2,70L30.4,63.706l-14.276-26.1L39.347,15.974s.761,5.026,2.62,6.394L43,2.469,34.48,0"
          transform="translate(872 390)" fill="#ff3776"/>
    <path id="Fill_75" data-name="Fill 75"
          d="M24,9.006C19.581,9.21,0,11,0,11S2.864.438,12,.023C24-.523,24,9.006,24,9.006" transform="translate(908 338)"
          fill="#543e4c"/>
    <path id="Fill_76" data-name="Fill 76"
          d="M.828,13S16.76,11.51,19.551,4c0,0,5.29,6.751,8.388,6.412,0,0,.508-8.883-1.418-10.085S.152,1.605.152,1.605A38.72,38.72,0,0,0,.828,13"
          transform="translate(907 347)" fill="#543e4c"/>
    <path id="Fill_77" data-name="Fill 77"
          d="M0,5.848S4.5,15.174,4.755,15.4s.8,1.949,3.217.756c0,0,1.146,3.041,2.635,2.648a14.122,14.122,0,0,0,3.009-1.285s1.807,2.366,3.145,1.117c1.564-1.463.084-3.085-1.032-4.846,0,0-3.484-6.143-3.139-6.511.933-1,2.538-1.362,5.857,1.623,3.525,3.171,5.982.982,3.619-1.593s-5.6-5.853-7.234-6.514-4.335.338-4.335.338L9.7,0,0,5.848"
          transform="translate(892 454)" fill="#efa78d"/>
    <path id="Fill_78" data-name="Fill 78" d="M35,0s-2.45,6.879-6.728,8.033S0,14,0,14V4.627L35,0"
          transform="translate(927 441)" fill="#e46e63"/>
    <path id="Fill_79" data-name="Fill 79"
          d="M20,3.483H18.155a12.519,12.519,0,0,0-.677-1.727C16.721.526,6.584-.769,6.769.561S8.623,2.221,12.2,2.885c0,0-13.37,3.255-12.113,4.318s9.6-1.38,9.6-1.38S.634,8.776,1.275,10.79c.367,1.154,9.536-1.559,9.536-1.559s-9.336,3.352-7.682,4.483S15.109,12.3,16.1,11.943s1.376-2.282,1.376-2.282L20,9.231V3.483"
          transform="translate(907 443)" fill="#efa78d"/>
    <path id="Fill_80" data-name="Fill 80"
          d="M.014.684C.32,2.307.45,4.329,1.182,5.747c.3.59,1.053.04.746-.553-.677-1.31-.8-3.3-1.081-4.8C.717-.294-.116,0,.014.684"
          transform="translate(919 333)" fill="#543e4c"/>
    <path id="Fill_81" data-name="Fill 81"
          d="M1.052,2.8Q1.916,1.672,2.9.6c.41-.442-.568-.855-.973-.417Q.939,1.257.077,2.381c-.356.464.619.881.975.417"
          transform="translate(920 336)" fill="#543e4c"/>
    <path id="Fill_93" data-name="Fill 93"
          d="M.018.254A21.755,21.755,0,0,0,.164,3.872c.08.616.014,1.716.49,2.186.271.267.843.25,1.186.3,1.284.178,2.577.31,3.862.465-.069-.149-.137-.3-.208-.45A12.127,12.127,0,0,1,1.838,8.521c-.345.132-.046.586.3.455A12.607,12.607,0,0,0,5.911,6.745c.2-.175.026-.421-.208-.448C4.362,6.134,1.63,6.271.934,5,.281,3.8.557,1.53.6.254.615-.085.03-.085.018.254"
          transform="translate(923 359)" fill="#ea8a70"/>
    <path id="Fill_83" data-name="Fill 83"
          d="M.448,4.773c.127-1.088-.517-3.638.76-4.165,1.135-.469,1.852.546,2.03,1.575.113.645.218,1.291.329,1.939.051.3.479.173.428-.128C3.728,2.412,3.665-.3,1.468.026-.578.326.168,3.373,0,4.773c-.036.3.409.3.444,0"
          transform="translate(928 358)" fill="#493c3b"/>
    <path id="Fill_84" data-name="Fill 84"
          d="M.56,4.773C.72,3.685-.085,1.135,1.511.609A1.917,1.917,0,0,1,4.049,2.184c.139.645.273,1.292.411,1.939.064.3.6.173.535-.128C4.66,2.411,4.581-.3,1.834.026-.722.326.21,3.372.006,4.773c-.045.3.511.3.555,0"
          transform="translate(915 358)" fill="#493c3b"/>
    <path id="Fill_85" data-name="Fill 85"
          d="M0,.288C.527,5.322,7.4,6.33,9.927,3.276c.225-.272-.12-.7-.345-.428C7.473,5.4.961,4.8.491.288.451-.093-.038-.1,0,.288"
          transform="translate(919 365)" fill="#ea8a70"/>
    <path id="Fill_86" data-name="Fill 86"
          d="M.532,1.719C.688,1.071,1.166.653,1.663.767,2,.845,2.147.137,1.8.061,1.01-.121.267.469.014,1.523c-.107.45.411.642.518.2"
          transform="translate(918 365)" fill="#ea8a70"/>
    <path id="Fill_87" data-name="Fill 87"
          d="M1.4,3a1.566,1.566,0,0,1-.691-.137,1.237,1.237,0,0,1-.672-.68.932.932,0,0,1,.034-.6A1.6,1.6,0,0,1,.5.967,3.908,3.908,0,0,1,1.842.2,3.473,3.473,0,0,1,2.926,0c.538,0,.941.193,1.049.633.174.694-.6,1.826-1.773,2.228A2.437,2.437,0,0,1,1.4,3"
          transform="translate(914 364)" fill="#ec9784"/>
    <path id="Fill_88" data-name="Fill 88"
          d="M1.4,2a2.288,2.288,0,0,1-.69-.092,1.115,1.115,0,0,1-.672-.454.426.426,0,0,1,.034-.4A1.187,1.187,0,0,1,.5.645,4.708,4.708,0,0,1,1.842.133,5.116,5.116,0,0,1,2.926,0c.538,0,.941.129,1.05.421.173.463-.6,1.218-1.772,1.485A3.508,3.508,0,0,1,1.4,2"
          transform="translate(930 363)" fill="#ec9784"/>
    <path id="Fill_89" data-name="Fill 89"
          d="M1.477,0A1.749,1.749,0,0,0,.01,2.09,1.953,1.953,0,0,0,1.751,4c.333.024.332-.534,0-.56C.384,3.336-.051.618,1.477.56c.33-.012.333-.572,0-.56"
          transform="translate(906 360)" fill="#ea8a70"/>
    <path id="Fill_90" data-name="Fill 90"
          d="M.052.343A2.242,2.242,0,0,0,1.787.975c.283-.015.285-.382,0-.367A1.783,1.783,0,0,1,.366.084C.188-.1-.124.161.052.343"
          transform="translate(906 361)" fill="#ea8a70"/>
    <path id="Fill_91" data-name="Fill 91"
          d="M.177,2.967a1.5,1.5,0,0,0,1.8-1.3C2.127.862,1.5.079.407,0,.089-.021.09.368.407.391A1.1,1.1,0,0,1,1.51,1.5C1.455,2,1.138,2.747.31,2.591,0,2.534-.133,2.91.177,2.967"
          transform="translate(936 358)" fill="#ea8a70"/>
    <path id="Fill_92" data-name="Fill 92"
          d="M.342,1.932A3.051,3.051,0,0,0,.973.317C1.006,0,.653-.138.62.182a2.588,2.588,0,0,1-.538,1.4c-.175.217.085.572.26.355"
          transform="translate(936 358)" fill="#ea8a70"/>
    <path id="Fill_69" data-name="Fill 69" d="M0,4,7,0" transform="translate(890 452)" fill="#52bbcf"/>
    <rect id="Rectangle" width="78" height="8" rx="3.5" transform="translate(1057 302)" fill="#a4a0c0"/>
    <rect id="Rectangle_Copy_2" data-name="Rectangle Copy 2" width="51" height="4" rx="2"
          transform="translate(1035 324)" fill="#c7c4db"/>
    <path id="Rectangle_Copy_7" data-name="Rectangle Copy 7" d="M2,0H49a2,2,0,0,1,0,4H2A2,2,0,0,1,2,0Z"
          transform="translate(1035 415)" fill="#c7c4db"/>
    <rect id="Rectangle_Copy_4" data-name="Rectangle Copy 4" width="51" height="4" rx="2"
          transform="translate(1035 370)" fill="#c7c4db"/>
    <rect id="Rectangle_Copy_8" data-name="Rectangle Copy 8" width="61" height="4" rx="2"
          transform="translate(1036 433)" fill="#a4a0c0"/>
    <rect id="Rectangle_Copy_3" data-name="Rectangle Copy 3" width="57" height="4" rx="2"
          transform="translate(1036 341)" fill="#a4a0c0"/>
    <path id="Fill_57" data-name="Fill 57"
          d="M9.571,21.348S55.044-.794,57.134.022,61,11.1,61,11.1A401.415,401.415,0,0,1,19.023,33.336L42.21,64.752,30.659,73S-1.178,37.379.034,30.019c.933-5.681,9.537-8.671,9.537-8.671"
          transform="translate(1050 387)" fill="#325aed"/>
    <rect id="Rectangle_Copy_5" data-name="Rectangle Copy 5" width="61" height="4" rx="2"
          transform="translate(1036 386)" fill="#a4a0c0"/>
  </g>
</svg>
