<svg width="50" height="50" viewBox="0 0 50 50" fill="none" xmlns="http://www.w3.org/2000/svg">
<path fill-rule="evenodd" clip-rule="evenodd" d="M21.8751 18.6753C21.2027 19.3436 20.1169 19.3436 19.4445 18.6753L6.13029 5.36105C5.95246 5.17514 5.89198 4.90616 5.97312 4.66202C6.05425 4.41788 6.26371 4.23861 6.51744 4.19612C6.64897 4.17568 6.78191 4.16581 6.91501 4.16661H34.4029C34.536 4.16594 34.6689 4.17581 34.8004 4.19612C35.0539 4.23913 35.2628 4.41861 35.3436 4.66265C35.4243 4.9067 35.3636 5.17539 35.1858 5.36105L21.8751 18.6753ZM36.632 19.2361C35.6615 19.0311 34.6725 18.9264 33.6806 18.9236C28.5619 18.9292 23.8125 21.5895 21.1338 25.9513C21.0548 26.0798 20.9148 26.158 20.764 26.1579H6.91501C6.18583 26.1579 5.48653 25.8681 4.97108 25.3524C4.45563 24.8366 4.16629 24.1371 4.16675 23.4079V6.91487C4.16727 6.81388 4.2281 6.72298 4.32126 6.68397C4.41401 6.64442 4.52152 6.66579 4.5921 6.73779L17.9862 20.1388C19.4624 21.613 21.8537 21.613 23.3299 20.1388L36.7275 6.74126C36.7987 6.67115 36.9049 6.65019 36.9974 6.68795C37.0899 6.72572 37.151 6.81496 37.1529 6.91487V18.8107C37.1529 18.9411 37.0943 19.0645 36.9934 19.147C36.8924 19.2294 36.7597 19.2621 36.632 19.2361ZM21.5279 33.6805C21.5279 26.9687 26.9688 21.5277 33.6806 21.5277C40.3893 21.5354 45.8258 26.9719 45.8334 33.6805C45.8334 40.3923 40.3924 45.8333 33.6806 45.8333C26.9688 45.8333 21.5279 40.3923 21.5279 33.6805ZM25.0001 33.6805C25.0001 38.4746 28.8865 42.3611 33.6806 42.3611C38.4724 42.3553 42.3555 38.4723 42.3612 33.6805C42.3612 28.8864 38.4748 24.9999 33.6806 24.9999C28.8865 24.9999 25.0001 28.8864 25.0001 33.6805ZM32.4046 35.1284L36.0331 30.2881L36.0435 30.2968C36.4156 29.8006 37.0242 29.5406 37.64 29.6148C38.2558 29.689 38.7853 30.0861 39.0289 30.6565C39.2726 31.2269 39.1934 31.8839 38.8213 32.3801L34.7223 37.8472C34.2344 38.4957 33.4888 38.9002 32.6792 38.9559C31.8695 39.0115 31.0756 38.7127 30.5036 38.1371L28.3872 36.0208C27.7293 35.3396 27.7387 34.2567 28.4084 33.5871C29.0781 32.9174 30.1609 32.908 30.8421 33.5659L32.4046 35.1284Z" fill="url(#paint0_linear)"/>
<defs>
<linearGradient id="paint0_linear" x1="8.25158" y1="4.98345" x2="8.25158" y2="38.4805" gradientUnits="userSpaceOnUse">
<stop stop-color="#6CA7EF"/>
<stop offset="1" stop-color="#6F82F2"/>
</linearGradient>
</defs>
</svg>
