<svg width="49" height="49" viewBox="0 0 49 49" fill="none" xmlns="http://www.w3.org/2000/svg">
<circle opacity="0.3" cx="24.5" cy="24.5" r="24.5" fill="#99EBC9"/>
<path fill-rule="evenodd" clip-rule="evenodd" d="M31.8101 17.6654C31.4494 17.3974 30.9979 17.2848 30.555 17.3526C30.112 17.4203 29.7138 17.6627 29.4481 18.0265L22.7149 26.5334L20.2725 24.4647C19.8028 24.0687 19.1574 23.96 18.5856 24.1806C18.0138 24.4012 17.6051 24.9166 17.5174 25.5276C17.4298 26.1387 17.6769 26.7498 18.1632 27.1248L21.9771 30.2999C22.2767 30.5407 22.6493 30.6701 23.0324 30.6665C23.5667 30.6682 24.0705 30.4157 24.3918 29.9851L32.1682 20.0516C32.4356 19.6877 32.5482 19.2313 32.481 18.7834C32.4138 18.3356 32.1723 17.9332 31.8101 17.6654Z" fill="#01CC78"/>
</svg>
