<svg width="50" height="50" viewBox="0 0 50 50" fill="none" xmlns="http://www.w3.org/2000/svg">
<path fill-rule="evenodd" clip-rule="evenodd" d="M45.8333 8.50953C45.8338 7.70345 45.5139 6.93023 44.944 6.36008C44.3742 5.78993 43.6012 5.4696 42.7951 5.4696H25C24.0411 5.4696 23.2639 6.24688 23.2639 7.20571V21.9627C23.2639 22.3363 23.0248 22.668 22.6703 22.7862C22.3158 22.9043 21.9255 22.7824 21.7014 22.4835L18.4027 18.0842C18.3208 17.9749 18.1921 17.9106 18.0555 17.9106C17.9189 17.9106 17.7903 17.9749 17.7083 18.0842L14.4097 22.48C14.1855 22.7789 13.7952 22.9008 13.4407 22.7827C13.0863 22.6645 12.8472 22.3328 12.8472 21.9592V7.20224C12.8472 6.24341 12.0699 5.46613 11.1111 5.46613H7.20482C6.39814 5.46612 5.62458 5.78693 5.05465 6.35783C4.48473 6.92873 4.16525 7.70285 4.16663 8.50953V41.4956C4.16759 43.1732 5.52727 44.5329 7.20482 44.5338H42.7951C44.4727 44.5329 45.8323 43.1732 45.8333 41.4956V8.50953ZM11.5451 34.9835C11.5461 34.265 12.1287 33.6831 12.8472 33.6831H32.8125C33.5316 33.6831 34.1145 34.2661 34.1145 34.9852C34.1145 35.7043 33.5316 36.2873 32.8125 36.2873H12.8472C12.5016 36.2873 12.1701 36.1499 11.9259 35.9053C11.6816 35.6608 11.5446 35.3291 11.5451 34.9835ZM38.0208 15.454H29.3402C28.6211 15.454 28.0382 14.871 28.0382 14.1519C28.0382 13.4328 28.6211 12.8498 29.3402 12.8498H38.0208C38.7399 12.8498 39.3229 13.4328 39.3229 14.1519C39.3229 14.871 38.7399 15.454 38.0208 15.454ZM39.3229 21.0963C39.3229 21.8155 38.7399 22.3984 38.0208 22.3984H29.3402C28.6211 22.3984 28.0382 21.8155 28.0382 21.0963C28.0382 20.3772 28.6211 19.7942 29.3402 19.7942H38.0208C38.7392 19.7942 39.3219 20.3762 39.3229 21.0946V21.0963ZM38.0208 26.7387C38.7399 26.7387 39.3229 27.3217 39.3229 28.0408C39.3229 28.7599 38.7399 29.3429 38.0208 29.3429H12.8472C12.1281 29.3429 11.5451 28.7599 11.5451 28.0408C11.5451 27.3217 12.1281 26.7387 12.8472 26.7387H38.0208Z" fill="url(#paint0_linear)"/>
<defs>
<linearGradient id="paint0_linear" x1="8.25145" y1="6.23206" x2="8.25145" y2="37.6397" gradientUnits="userSpaceOnUse">
<stop stop-color="#6CA7EF"/>
<stop offset="1" stop-color="#6F82F2"/>
</linearGradient>
</defs>
</svg>
