<?xml version="1.0" encoding="UTF-8"?>
<svg width="883px" height="697px" viewBox="0 0 883 697" version="1.1" xmlns="http://www.w3.org/2000/svg" xmlns:xlink="http://www.w3.org/1999/xlink">
    <title>Group</title>
    <defs>
        <linearGradient x1="66.6412215%" y1="24.3389086%" x2="75.0810431%" y2="74.1260713%" id="linearGradient-1">
            <stop stop-color="#6CA7EF" offset="0%"></stop>
            <stop stop-color="#6F82F2" offset="100%"></stop>
        </linearGradient>
        <path d="M0,0 L521.620974,632.089906 C552.131598,675.363302 586.780398,697 625.567373,697 C683.747836,697 704.333283,686.396979 764.288505,632.089906 C804.258653,595.885192 843.829151,560.532877 883,526.032962 L883,0" id="path-2"></path>
        <linearGradient x1="44.8739186%" y1="57.0600036%" x2="54.2898517%" y2="43.9483793%" id="linearGradient-4">
            <stop stop-color="#D4D1D8" offset="0%"></stop>
            <stop stop-color="#FFFFFF" offset="100%"></stop>
        </linearGradient>
        <linearGradient x1="50.2286332%" y1="49.234185%" x2="50.7177272%" y2="46.4845546%" id="linearGradient-5">
            <stop stop-color="#FFFFFF" offset="0%"></stop>
            <stop stop-color="#E6E7E8" offset="100%"></stop>
        </linearGradient>
        <linearGradient x1="9.36311481%" y1="38.2654335%" x2="49.0855465%" y2="50.1363658%" id="linearGradient-6">
            <stop stop-color="#D4D1D8" offset="0%"></stop>
            <stop stop-color="#FFFFFF" offset="100%"></stop>
        </linearGradient>
        <linearGradient x1="15.1530505%" y1="46.9827032%" x2="50.0812408%" y2="50.0076202%" id="linearGradient-7">
            <stop stop-color="#D4D1D8" offset="0%"></stop>
            <stop stop-color="#FFFFFF" offset="100%"></stop>
        </linearGradient>
        <linearGradient x1="31.6649328%" y1="57.767408%" x2="41.9124412%" y2="53.4264944%" id="linearGradient-8">
            <stop stop-color="#FFFFFF" offset="0%"></stop>
            <stop stop-color="#DEDFE0" offset="100%"></stop>
        </linearGradient>
        <linearGradient x1="84.1672951%" y1="73.1674325%" x2="45.5400695%" y2="41.3051631%" id="linearGradient-9">
            <stop stop-color="#D4D1D8" offset="0%"></stop>
            <stop stop-color="#FFFFFF" offset="100%"></stop>
        </linearGradient>
        <linearGradient x1="44.8739186%" y1="57.1002888%" x2="54.2898517%" y2="43.913848%" id="linearGradient-10">
            <stop stop-color="#D4D1D8" offset="0%"></stop>
            <stop stop-color="#FFFFFF" offset="100%"></stop>
        </linearGradient>
        <linearGradient x1="50.2286332%" y1="49.2298152%" x2="50.7177272%" y2="46.4644951%" id="linearGradient-11">
            <stop stop-color="#FFFFFF" offset="0%"></stop>
            <stop stop-color="#E6E7E8" offset="100%"></stop>
        </linearGradient>
        <linearGradient x1="9.36311481%" y1="38.1984746%" x2="49.0855465%" y2="50.1371439%" id="linearGradient-12">
            <stop stop-color="#D4D1D8" offset="0%"></stop>
            <stop stop-color="#FFFFFF" offset="100%"></stop>
        </linearGradient>
        <linearGradient x1="15.1530505%" y1="46.9654861%" x2="50.0812408%" y2="50.0076636%" id="linearGradient-13">
            <stop stop-color="#D4D1D8" offset="0%"></stop>
            <stop stop-color="#FFFFFF" offset="100%"></stop>
        </linearGradient>
        <linearGradient x1="31.6649328%" y1="57.8117297%" x2="41.9124412%" y2="53.4460464%" id="linearGradient-14">
            <stop stop-color="#FFFFFF" offset="0%"></stop>
            <stop stop-color="#DEDFE0" offset="100%"></stop>
        </linearGradient>
        <linearGradient x1="84.1672951%" y1="73.2996287%" x2="45.5400695%" y2="41.2555493%" id="linearGradient-15">
            <stop stop-color="#D4D1D8" offset="0%"></stop>
            <stop stop-color="#FFFFFF" offset="100%"></stop>
        </linearGradient>
    </defs>
    <g id="Page-2" stroke="none" stroke-width="1" fill="none" fill-rule="evenodd">
        <g id="Message-Registry-Features" transform="translate(-557.000000, -82.000000)">
            <g id="slider" transform="translate(99.000000, 82.000000)">
                <g id="Group" transform="translate(458.000000, 0.000000)">
                    <g id="background">
                        <mask id="mask-3" fill="white">
                            <use xlink:href="#path-2"></use>
                        </mask>
                        <use id="Mask" fill="url(#linearGradient-1)" xlink:href="#path-2"></use>
                    </g>
                    <ellipse id="Oval" fill="#D8E8FF" cx="433.5" cy="573" rx="366.5" ry="32"></ellipse>
                    <g transform="translate(67.000000, 197.000000)">
                        <g transform="translate(44.000000, 0.000000)">
                            <path d="M490.64903,148.630891 C490.64903,148.630891 499.955248,143.765147 507.240432,144.661931 C507.240432,144.661931 495.794914,161.37757 499.03803,163.313732 C502.283774,165.249893 510.449383,143.768823 510.449383,143.768823 C510.449383,143.768823 530.982985,143.064526 537.35095,146.628029 C537.35095,146.628029 519.011839,159.806163 522.633407,160.884667 C526.254974,161.963172 545.976482,149.136136 545.976482,149.136136 C545.976482,149.136136 564.77026,153.551256 563.033065,165.066597 C561.298497,176.5822 554.528427,179.749175 551.671646,179.260736 C548.812238,178.774923 532.386407,171.305747 531.873922,173.637912 C531.358808,175.970339 541.006683,184.30006 548.078989,185.100995 C548.078989,185.100995 533.763549,199.024129 525.130133,194.210643 C516.494088,189.39453 516.157687,182.595776 510.767387,179.717663 C505.377086,176.83955 500.641191,176.550688 502.769978,179.276492 C504.898766,182.002297 514.783174,185.137759 517.605788,190.94388 C520.428403,196.75 523.038139,200.710031 513.91589,198.751024 C504.793641,196.792016 490.246925,189.124051 490.070841,181.374679 C489.894756,173.623731 489.894756,173.623731 489.894756,173.623731 C489.894756,173.623731 477.763294,157.553829 490.64903,148.630891 Z" id="Fill-5" fill="#82B378"></path>
                            <path d="M489.423416,173.651529 C489.423416,173.651529 486.421109,180.951318 478.208296,187.26295 L476.788927,190.440835 C476.788927,190.440835 486.352515,181.680881 489.600178,181.314801 C489.600178,181.314801 485.724616,162.947197 553.453287,164.924288 C553.453287,164.924288 501.786168,159.77788 489.423416,173.651529 Z" id="Fill-6" fill="#82B378"></path>
                            <path d="M465.333333,209.529001 L467.284889,209.837587 C467.284889,209.837587 471.657296,194.743459 478.255657,189.159642 C484.854017,183.573166 478.281302,187.175113 478.281302,187.175113 C478.281302,187.175113 466.977153,194.764741 465.333333,209.529001 Z" id="Fill-7" fill="#82B378"></path>
                            <path d="M415.822925,99.5337584 C415.822925,99.5337584 425.938231,86.9297816 436.776248,83.6884724 C436.776248,83.6884724 430.997207,114.298696 436.776248,115.019104 C442.557935,115.739248 440.749834,80.4474272 440.749834,80.4474272 C440.749834,80.4474272 469.290299,66.763102 480.490995,67.8431865 C480.490995,67.8431865 462.788548,97.7332657 468.567588,97.0128575 C474.349276,96.2927132 494.219856,66.0426938 494.219856,66.0426938 C494.219856,66.0426938 523.483032,60.6409517 528.179329,77.9265263 C532.875627,95.2123648 525.288485,103.855416 520.95222,104.9355 C516.618601,106.016113 488.800848,105.655909 489.520911,109.257158 C490.24627,112.858143 509.03146,118.62009 519.506798,115.379044 C519.506798,115.379044 507.94607,143.828571 492.774434,142.388019 C477.600151,140.94773 472.903854,131.584534 463.511259,130.86439 C454.118663,130.143982 447.254233,132.664883 451.950531,135.185784 C456.646828,137.706421 472.543822,136.011746 480.128316,142.44106 C487.715458,148.870373 493.857177,152.831562 479.768284,155.712404 C465.679392,158.593509 440.389803,156.793016 435.330826,145.989268 C430.274496,135.185784 430.274496,135.185784 430.274496,135.185784 C430.274496,135.185784 403.179454,120.060642 415.822925,99.5337584 Z" id="Fill-8" fill="#A8D29F"></path>
                            <path d="M430.253543,134.865171 C430.253543,134.865171 430.613111,147.140112 423.035755,161.22009 L423.035755,166.635731 C423.035755,166.635731 430.975322,148.223187 435.303351,145.695923 C435.303351,145.695923 418.345515,121.868003 514.680507,82.8770302 C514.680507,82.8770302 438.912244,107.426912 430.253543,134.865171 Z" id="Fill-9" fill="#82B378"></path>
                            <path d="M417.133595,201.020882 L420.105525,200.219281 C420.105525,200.219281 417.222466,176.648024 423.26565,164.792714 C429.308835,152.937403 422.09988,162.037931 422.09988,162.037931 C422.09988,162.037931 410.549347,179.618662 417.133595,201.020882 Z" id="Fill-10" fill="#82B378"></path>
                            <path d="M307.773199,105.849742 C307.773199,105.849742 298.223607,90.8346312 286.741864,85.9799018 C286.741864,85.9799018 289.354239,120.178059 282.933144,120.269245 C276.512049,120.359904 282.782277,81.9532251 282.782277,81.9532251 C282.782277,81.9532251 253.175366,63.5331359 240.772543,63.3642047 C240.772543,63.3642047 256.534134,98.212787 250.290373,96.7271939 C244.043966,95.2413373 225.95056,59.7373231 225.95056,59.7373231 C225.95056,59.7373231 194.546483,50.2948334 187.299593,68.6464013 C180.052702,86.9979692 187.312826,97.3723477 191.931462,99.0777358 C196.550098,100.783124 227.072796,103.745086 225.844689,107.599405 C224.613935,111.453461 203.331155,115.493052 192.246429,110.681807 C192.246429,110.681807 201.454586,143.21279 218.253716,143.466846 C235.052845,143.720901 241.336308,134.040432 251.716989,134.38541 C262.095024,134.730388 269.310154,138.317475 263.857781,140.509627 C258.405409,142.70178 241.196028,138.929159 232.101683,145.050213 C223.007338,151.171268 215.797502,154.765997 230.884163,159.618882 C245.970824,164.471767 273.897028,165.55203 280.752195,154.33853 C287.607362,143.124767 287.607362,143.124767 287.607362,143.124767 C287.607362,143.124767 319.133191,129.840608 307.773199,105.849742 Z" id="Fill-11" fill="#A8D29F"></path>
                            <path d="M287.029574,143.200039 C287.029574,143.200039 285.150815,156.641262 291.737024,173.03026 L291.079987,178.979118 C291.079987,178.979118 284.625713,157.787221 280.195326,154.484598 C280.195326,154.484598 301.621615,130.369324 200.973472,75.8236659 C200.973472,75.8236659 280.876112,112.004533 287.029574,143.200039 Z" id="Fill-12" fill="#82B378"></path>
                            <path d="M292.676879,216.890951 L289.387742,215.646214 C289.387742,215.646214 295.644992,190.04884 290.244713,176.259363 C284.841714,162.471465 291.920568,173.369626 291.920568,173.369626 C291.920568,173.369626 302.881637,194.133051 292.676879,216.890951 Z" id="Fill-13" fill="#82B378"></path>
                            <path d="M216.795414,204.338515 C216.795414,204.338515 232.137736,193.296769 223.091457,181.687358 C223.091457,181.687358 216.118392,174.716958 209.345537,173.487897 C209.345537,173.487897 214.930311,191.694105 211.487245,192.528441 C208.041545,193.360136 206.721747,171.789655 206.721747,171.789655 C206.721747,171.789655 188.536986,165.421508 181.84316,166.842519 C181.84316,166.842519 194.582767,183.7996 191.042231,183.754715 C187.499061,183.71247 173.422533,166.685421 173.422533,166.685421 C173.422533,166.685421 155.367117,165.400122 153.709335,176.224571 C152.051816,187.049813 157.227743,191.783875 159.921606,192.145597 C162.615732,192.507318 179.403773,190.389795 179.214101,192.626132 C179.021796,194.865109 168.062204,199.646697 161.508788,198.392553 C161.508788,198.392553 170.439421,214.894445 179.51178,212.982866 C188.584404,211.071287 190.784067,205.059318 196.41099,203.982074 C202.037913,202.90219 206.360844,203.966232 203.692271,205.819725 C201.026331,207.670577 191.303029,207.726023 187.156598,212.151171 C183.012801,216.576318 179.569736,219.401442 188.28409,220.190893 C196.995811,220.980343 212.156364,218.1605 214.474572,211.250828 C214.577311,210.947193 214.672147,210.66204 214.764348,210.384808 C214.640535,210.949833 214.474572,211.250828 214.474572,211.250828 C216.150004,211.990112 218.997712,216.103704 221.010338,219.279988 C221.308017,219.826531 221.76639,220.576377 222.432875,221.587613 L222.435509,221.587613 C222.712113,222.049666 222.933397,222.427229 223.086188,222.691259 C226.93494,229.878164 226.805858,243.058555 226.805858,243.058555 L228.681499,243.341067 C231.239431,229.785753 222.957106,219.82125 222.957106,219.82125 C217.411847,211.805291 216.795414,204.338515 216.795414,204.338515 Z" id="Fill-14" fill="#82B378"></path>
                            <path d="M104.413413,27.5058764 C104.413413,27.5058764 111.242571,27.3309919 112.830912,30.1262381 C112.830912,30.1262381 107.730808,27.1299539 104.178541,28.8505322 C100.626274,30.5713746 99.3864262,37.4404788 99.6760046,39.5982684 C99.965583,41.7557937 103.03706,48.39982 105.484932,48.646032 C106.412056,48.7392862 107.434128,48.5290021 108.346787,48.2323324 C107.860737,49.3096421 107.401778,50.4870745 106.98832,51.7873488 C103.163833,63.8129043 110.367786,73.9702071 114.804306,72.0853114 C117.649329,70.876442 119.218733,75.8236659 119.218733,75.8236659 L144.576701,48.2695812 C144.576701,48.2695812 130.852894,27.873081 120.228444,35.7251841 C120.077211,34.8940864 118.133012,25.9860719 104.413413,27.5058764 Z" id="Fill-15" fill="#2C3A64"></path>
                            <path d="M147.172607,369.419954 C147.172607,369.419954 120.173213,332.094295 116.849253,299.250358 C116.255451,293.386596 116.453474,287.70781 117.737303,282.459757 C117.737303,282.459757 117.473539,280.958803 117.011753,278.303066 C116.798355,277.063722 116.534591,275.570695 116.235305,273.860982 C115.357327,268.848113 114.149313,261.988119 112.768991,254.176817 C109.592155,236.202365 105.476371,213.225614 102.279123,196.331955 L103.953961,195.795523 L122.076558,189.968756 L125.821746,178.111749 L139.315876,174.570766 C139.315876,174.570766 142.330477,180.44774 145.025114,208.215388 C145.522423,211.859429 145.974136,215.876066 146.314246,220.230947 C147.364797,233.525488 147.440877,250.017483 145.030151,268.871896 C144.411166,273.699788 143.629682,278.680947 142.660248,283.802159 C141.949808,287.554544 141.843242,292.670471 142.142528,298.542161 C143.502704,325.39021 153.388697,367.11303 153.388697,367.11303 L147.172607,369.419954 Z" id="Fill-16" fill="#008FFF"></path>
                            <path d="M117.020068,278.607889 C116.80655,277.364903 116.542637,275.867489 116.243182,274.152752 C115.364709,269.125152 114.156013,262.245 112.774912,254.410743 C109.596283,236.383473 105.478176,213.339204 102.279123,196.395902 L103.954906,195.857893 L122.087732,190.014004 L125.835034,178.122154 L139.33678,174.570766 C139.33678,174.570766 142.353083,180.46501 145.049241,208.314254 C145.54683,211.969004 145.998798,215.997444 146.3391,220.365122 L117.020068,278.607889 Z" id="Fill-17" fill="#0175D0"></path>
                            <path d="M132.443532,176.799621 C121.092102,179.806984 90.7627521,168.399072 90.7627521,168.399072 C90.7627521,168.399072 79.7658638,178.037947 81.2097151,201.143683 C81.9145624,212.420634 83.2016633,260.345695 84.5462217,274.524394 C85.032095,279.665163 85.457863,283.322053 85.6315594,284.784809 L85.6350015,284.798011 C85.6884873,285.24423 85.5322665,285.664047 85.3050843,286.054819 C83.3258456,289.402788 81.6868507,292.890695 80.3425571,296.460453 C67.1466618,331.526991 82.3750167,374.709977 82.3750167,374.709977 L86.3268745,373.120484 C86.3268745,373.120484 94.9928949,325.063405 102.034218,303.832321 C103.229705,300.230878 104.375413,297.400419 105.425535,295.710593 C108.486934,290.783693 111.3283,282.733254 113.907003,273.156691 C118.781093,255.051785 122.704354,231.50247 125.315096,213.323635 C125.675198,213.339477 133.121107,182.595198 133.121107,182.595198 L132.443532,176.799621 Z" id="Fill-18" fill="#008FFF"></path>
                            <path d="M152.293915,137.011903 C161.978198,145.977252 175.0207,153.905108 181.999589,155.651594 C186.587869,156.818281 196.707986,155.256396 205.112784,153.538532 C210.710696,152.441956 215.587065,151.228527 217.598402,150.753239 C218.238012,150.604613 218.597463,150.492487 218.597463,150.492487 L217.71998,144.861507 C217.71998,144.861507 212.682388,144.465258 206.423721,143.763618 C197.707047,142.745556 186.656587,141.183145 183.825915,139.521213 C177.260922,135.645122 165.740006,119.38896 156.497635,109.167906 C156.013434,108.610427 155.532934,108.075269 155.057455,107.549826 C154.709369,107.165657 154.361284,106.789628 154.01637,106.419901 C153.945537,106.346901 153.857524,106.225847 153.743082,106.163351 C153.318349,105.757649 152.957048,105.380307 152.607905,105.049181 C152.594426,105.007692 152.534165,104.977757 152.474961,104.94362 C150.832326,103.30427 147.9517,101.314888 147.9517,101.314888 C146.336816,100.400024 145.006321,100.223301 144.070428,101.003456 C144.070428,101.003456 142.862304,102.175921 141.677703,104.391656 C141.425824,104.854864 141.177909,105.364552 140.942151,105.920717 C140.74604,106.225059 140.649305,106.546995 140.553892,106.872344 C139.770237,108.917395 139.199081,111.486051 139.301366,114.481678 C139.373784,116.74993 139.809882,119.252151 140.822687,122.012497 C142.437835,126.539812 146.517334,131.575239 151.595894,136.349651 C151.81685,136.576528 152.032785,136.801831 152.293915,137.011903 Z" id="Fill-19" fill="#FFB27D"></path>
                            <path d="M130.436165,116.691004 C111.460254,120.497587 104.684155,104.435496 102.279123,93.4727763 C104.891589,92.080544 107.319698,91.8255363 108.721912,91.698685 C110.088985,91.5770539 111.525029,91.5107571 112.713514,91.4857001 C114.876233,89.9311189 118.217997,83.414459 119.205867,73.1786543 L120.086217,73.4401872 L134.830049,77.9047792 C134.830049,77.9047792 134.016308,82.5867933 133.556858,87.020586 C133.20047,90.4902044 133.065939,93.8118295 133.704501,94.6436713 C134.856797,94.9266072 135.54807,95.1095758 135.54807,95.1095758 L135.555151,95.1236704 C135.745539,95.4546323 139.8562,102.631389 142.814302,111.853166 C139.556456,113.969704 135.498506,115.676976 130.436165,116.691004 Z" id="Fill-20" fill="#FFB27D"></path>
                            <path d="M149.137677,125.290842 C145.778874,136.52329 143.061845,181.426108 143.061845,181.426108 C144.84173,187.038497 112.21914,188.18901 94.2283116,185.594404 C87.6865527,184.65548 83.0801643,183.219322 82.7636404,181.322958 C79.5447216,174.064409 87.4218572,160.510039 91.9705996,153.620183 C92.5425638,152.755844 93.0325545,151.846012 93.437134,150.902591 C94.4655062,148.532005 94.9615788,145.951152 94.8579218,143.349141 C94.7209466,139.788897 94.4168509,136.331538 94.0455897,133.093703 C93.348814,126.985931 92.4177524,121.654161 91.9311993,117.880742 L91.9311993,117.877568 C92.8773335,116.937321 93.79914,116.063724 94.6572187,115.232974 C95.9653589,113.951805 97.1124607,112.767966 97.9189753,111.617453 C98.8042903,110.36379 99.2971897,109.140543 99.1874509,107.8562 C99.1023041,106.885273 98.9288373,105.902443 98.6855608,104.93178 C98.5729132,104.472104 98.445193,104.015601 98.3082177,103.559099 C96.8477652,98.7721698 94.1582374,94.6303217 94.1582374,94.6303217 C99.0293211,91.7818093 108.41292,91.6937355 108.41292,91.6937355 C108.41292,91.6937355 108.476648,92.207896 108.595378,93.0447291 C109.051786,96.4105758 110.335598,105.041277 111.650085,106.517108 C113.292995,108.358459 139.237115,113.693138 140.14094,110.741212 C141.029428,107.841124 135.671263,95.6284912 135.47056,95.1659055 L135.464478,95.1508298 C143.773693,97.1257455 147.382384,99.3595928 147.546595,99.4902488 L147.53734,99.4873395 C143.028262,103.437435 151.818478,113.309633 149.451292,124.073678 C149.362972,124.48125 149.256671,124.879831 149.137677,125.290842 Z" id="Fill-21" fill="#FF9843"></path>
                            <path d="M133.59027,87.2853828 C125.061941,86.1685685 121.322371,77.7684656 119.903114,73.1786543 L134.883506,77.8159146 C134.883506,77.8159146 134.054119,82.6752363 133.59027,87.2853828 Z" id="Fill-22" fill="#ED985F"></path>
                            <path d="M118.196061,68.5064301 C119.443393,55.8369433 117.669061,47.0847309 130.656061,47.6347399 C143.643062,48.1850167 145.676233,53.2692528 146.282856,57.5999712 C146.889213,61.9306895 142.50864,82.9924997 137.206948,82.8765533 C137.206948,82.8765533 116.948463,81.1759169 118.196061,68.5064301 Z" id="Fill-23" fill="#FFB27D"></path>
                            <path d="M140.048102,47.8983327 C129.816094,40.7147647 121.957939,48.9863325 121.957939,48.9863325 C119.746325,57.8895047 112.853518,62.414849 112.853518,62.414849 C112.853518,62.414849 116.240973,65.0605578 124.779384,63.7265198 C127.387466,63.3185865 129.838526,61.7060248 131.98754,59.6658255 C128.053637,65.0858539 123.061007,68.7703016 123.061007,68.7703016 C133.464123,65.0943747 138.841483,51.3852043 139.385583,49.9332065 C140.486304,51.1655274 142.633752,53.8173605 143.129077,56.2521795 C143.802029,59.5609131 143.598318,66.2100671 145.505799,66.1781141 C145.505799,66.1781141 150.577461,56.5506738 146.542354,50.3986553 C143.851849,46.2966883 141.456346,46.891813 140.048102,47.8983327 Z" id="Fill-24" fill="#2C3A64"></path>
                            <path d="M225.800196,150.716485 C221.425709,150.680328 216.99363,151.176762 214.849582,151.441474 C214.014476,151.589005 213.52755,151.647332 213.52755,151.647332 L213.310265,144.642094 C213.310265,144.642094 213.399273,144.651067 213.598233,144.617813 C215.079956,144.392689 222.603758,143.226161 225.582911,141.234618 C228.928568,138.974932 236.745574,141.069404 236.745574,141.069404 C236.745574,141.069404 237.947183,142.233557 235.941883,144.11003 C233.949672,146.023453 231.933901,150.807273 225.800196,150.716485 Z" id="Fill-25" fill="#FFB27D"></path>
                            <path d="M74.2538246,378.236659 C74.2538246,378.236659 73.4978169,373.468725 75.1458068,369.853041 C76.7246073,366.380395 79.1980614,364.804328 78.6058108,360.603248 C80.6104333,362.650811 83.8780962,364.942069 88.4392534,364.335481 C88.9981114,365.233442 92.046719,370.041109 93.913497,371.370833 C95.9752875,372.838298 105.168929,372.316474 105.803922,378.236659 L74.2538246,378.236659 Z" id="Fill-26" fill="#233862"></path>
                            <path d="M141.384611,377.354988 C141.384611,377.354988 140.211152,372.475078 142.271814,369.15705 C144.09619,366.217189 143.397165,364.543928 142.045894,362.114334 C143.467865,362.681585 145.307656,363.197032 147.332968,363.085654 C148.896871,362.997587 150.55061,362.306008 152.00102,361.484919 C153.352025,362.984636 159.137188,369.374625 160.944819,370.641226 C162.996178,372.076189 172.143306,371.565923 172.775087,377.354988 L141.384611,377.354988 Z" id="Fill-27" fill="#233862"></path>
                            <path d="M137.558551,76.7053365 C137.558551,76.7053365 141.043286,76.7093869 141.051903,74.7396789 C141.051903,74.7396789 137.76778,73.1160007 133.121107,74.8889694 C133.121107,74.8889694 133.407889,76.7009965 137.558551,76.7053365 Z" id="Fill-28" fill="#FFFFFF"></path>
                            <path d="M94.2784255,185.150812 C87.7098319,184.204742 83.0845479,182.757655 82.7667256,180.84686 C79.5346027,173.533074 87.4440506,159.875555 92.0114522,152.933267 C92.5857627,152.06235 93.0777633,151.145595 93.4840024,150.194995 C94.5165931,147.806368 95.0147006,145.205875 94.9106184,142.584062 C94.7730813,138.996725 94.4677382,135.513056 94.0949541,132.25058 C94.0949541,132.25058 99.8781521,145.503554 98.558539,153.883868 C97.3180495,161.770626 91.6357474,177.592913 94.2784255,185.150812 Z" id="Fill-29" fill="#ED7D2B"></path>
                            <path d="M149.377264,124.965906 C150.766656,122.043878 156.148258,110.941835 158.675894,110.532848 C158.542775,110.020673 148.19806,98.6147111 147.745618,98.7482634 C147.745618,98.7482634 144.935307,99.6025148 142.814302,101.057886 C143.035807,108.125681 148.161412,127.527048 149.377264,124.965906 Z" id="Fill-30" fill="#FF9843"></path>
                            <path d="M89.5855855,203.665893 C89.5855855,203.665893 88.2807663,202.03713 86.2144297,199.42953 C85.5971609,198.645408 85.2662839,198.171777 85.2662839,198.171777 C83.631114,196.066752 81.730874,193.482833 79.6526921,190.683149 L79.6176829,190.648943 C76.1346553,185.760021 72.3091687,180.197492 69.3812881,175.169112 C67.346802,171.605304 65.7626983,168.305414 64.9888092,165.710707 C64.9035235,165.450737 64.8569322,165.223394 64.8040234,164.928427 C63.2902015,158.348381 66.0667262,145.283278 70.4860543,132.535507 C71.0927939,130.773075 71.7345428,129.03906 72.3475999,127.343989 C74.6984855,121.091537 77.3402377,115.217201 79.9938351,110.468526 C81.5495102,107.614112 83.1004472,105.12492 84.5947903,103.267761 C85.1128222,102.602836 85.5997932,101.974749 86.1265116,101.441125 C86.4113239,101.11853 86.6961362,100.806986 86.9767368,100.510441 C90.0746624,100.77199 96.5742782,101.998957 101.397924,107.568854 C101.315797,107.861453 101.229985,108.153788 101.14233,108.451912 C99.1918134,114.741202 96.1797,122.459277 93.0578207,130.022107 C91.3589498,134.177164 89.6213844,138.299856 88.0999289,142.177313 C87.1349366,144.495472 86.2615474,146.706538 85.4737072,148.746834 C83.9893668,152.655077 82.8874961,155.907078 82.4494853,158.18761 C82.1530911,159.665601 82.5755714,162.448444 83.3742039,165.869373 C84.7435139,171.830805 87.3499935,179.858056 89.7719506,186.675707 C90.7627393,189.520123 91.7382608,192.167192 92.5532134,194.361681 C93.8572429,197.913911 94.7430038,200.234702 94.7430038,200.234702 L89.5855855,203.665893 Z" id="Fill-31" fill="#FFB27D"></path>
                            <path d="M77.6055363,115.807881 C85.8696349,89.2958891 107.566321,91.7538759 107.566321,91.7538759 C107.566321,91.7538759 99.6735073,119.335017 97.3609383,126.960557 C92.2511974,119.161841 77.6055363,115.807881 77.6055363,115.807881 Z" id="Fill-32" fill="#FF9843"></path>
                            <path d="M91.5139726,206.930609 C91.6721806,208.353941 93.0153006,213.068888 94.7533912,214.56768 C96.4917566,216.063869 100.442013,219.05885 100.995191,218.608692 C101.548095,218.158534 103.148578,214.630129 101.665103,212.134746 C100.995466,211.00805 100.086594,207.867354 98.8882233,207.10755 C97.4338633,206.183816 95.3238739,200.139211 95.3238739,200.139211 L89.9423299,203.532308 C89.9423299,203.532308 91.3560392,205.50988 91.5139726,206.930609 Z" id="Fill-33" fill="#FFB27D"></path>
                            <path d="M99.735284,204.608162 C100.272684,206.202789 102.490033,209.417234 102.262848,209.790069 C102.019617,210.188096 98.5695586,208.011544 97.3972111,206.031486 C96.2248636,204.051428 95.2295271,201.020882 95.2295271,201.020882 C95.2295271,201.020882 99.1981385,203.013535 99.735284,204.608162 Z" id="Fill-34" fill="#FFB27D"></path>
                            <path d="M343.877112,91.0258515 C352.193361,86.0385599 362.576776,86.0385599 370.895668,91.0258515 L521.730104,181.462937 L521.730104,328.863109 L193.042676,312.358822 L193.042676,181.462937 L343.877112,91.0258515 Z" id="Fill-35" fill="#ED7D2B"></path>
                            <polygon id="Fill-36" fill="#FFFFFF" points="221.241061 351.786543 492.650519 351.786543 492.650519 116.38051 221.241061 116.38051"></polygon>
                            <path d="M232.695406,124.315545 C234.156441,124.315545 235.340254,125.499715 235.340254,126.960557 C235.340254,128.421399 234.156441,129.605568 232.695406,129.605568 C231.236869,129.605568 230.053057,128.421399 230.053057,126.960557 C230.053057,125.499715 231.236869,124.315545 232.695406,124.315545 Z" id="Fill-37" fill="#EFCBAB"></path>
                            <path d="M482.074876,124.315545 C483.53591,124.315545 484.719723,125.499715 484.719723,126.960557 C484.719723,128.421399 483.53591,129.605568 482.074876,129.605568 C480.616339,129.605568 479.432526,128.421399 479.432526,126.960557 C479.432526,125.499715 480.616339,124.315545 482.074876,124.315545 Z" id="Fill-38" fill="#EFCBAB"></path>
                            <polygon id="Fill-39" fill="#EFCBAB" points="232.696655 126.960557 482.076125 126.960557 482.076125 126.078886 232.696655 126.078886"></polygon>
                            <polygon id="Fill-40" fill="#EFCBAB" points="231.815456 375.591647 232.696655 375.591647 232.696655 126.078886 231.815456 126.078886"></polygon>
                            <polygon id="Fill-41" fill="#EFCBAB" points="482.076125 375.591647 482.957324 375.591647 482.957324 126.078886 482.076125 126.078886"></polygon>
                            <polygon id="Fill-42" fill="#FF9843" points="521.730104 378.236659 193.042676 378.236659 193.042676 181.62413 357.385068 279.931715 521.730104 181.62413"></polygon>
                            <path d="M343.588978,269.80229 C351.836497,263.909677 362.933639,263.909677 371.181159,269.80229 L521.730104,377.354988 L193.042676,377.354988 L343.588978,269.80229 Z" id="Fill-43" fill="#ED7D2B"></path>
                            <path d="M308.466278,149.00232 C307.019877,149.00232 305.836217,147.812018 305.836217,146.357442 C305.836217,144.902599 307.019877,143.712297 308.466278,143.712297 L408.068901,143.712297 C409.515302,143.712297 410.698962,144.902599 410.698962,146.357442 C410.698962,147.812018 409.515302,149.00232 408.068901,149.00232 L308.466278,149.00232 Z" id="Fill-44" fill="#EFCBAB"></path>
                            <path d="M282.893253,159.582367 C281.456882,159.582367 280.28143,158.392065 280.28143,156.937222 C280.28143,155.482645 281.456882,154.292343 282.893253,154.292343 L432.760727,154.292343 C434.197097,154.292343 435.372549,155.482645 435.372549,156.937222 C435.372549,158.392065 434.197097,159.582367 432.760727,159.582367 L282.893253,159.582367 Z" id="Fill-45" fill="#EFCBAB"></path>
                            <path d="M305.09207,192.204176 C304.04565,192.204176 303.192618,191.409812 303.192618,190.440835 C303.192618,189.471858 304.04565,188.677494 305.09207,188.677494 L414.086707,188.677494 C415.130479,188.677494 415.986159,189.471858 415.986159,190.440835 C415.986159,191.409812 415.130479,192.204176 414.086707,192.204176 L305.09207,192.204176 Z" id="Fill-46" fill="#EFCBAB"></path>
                            <path d="M284.8154,201.902552 C283.776618,201.902552 282.925029,201.108188 282.925029,200.139211 C282.925029,199.170234 283.776618,198.37587 284.8154,198.37587 L315.40144,198.37587 C316.440221,198.37587 317.291811,199.170234 317.291811,200.139211 C317.291811,201.108188 316.440221,201.902552 315.40144,201.902552 L284.8154,201.902552 Z" id="Fill-47" fill="#EFCBAB"></path>
                            <path d="M325.338853,201.902552 C324.305073,201.902552 323.460208,201.108188 323.460208,200.139211 C323.460208,199.170234 324.305073,198.37587 325.338853,198.37587 L362.114117,198.37587 C363.147897,198.37587 363.995386,199.170234 363.995386,200.139211 C363.995386,201.108188 363.147897,201.902552 362.114117,201.902552 L325.338853,201.902552 Z" id="Fill-48" fill="#EFCBAB"></path>
                            <path d="M369.415916,201.902552 C368.374189,201.902552 367.520185,201.108188 367.520185,200.139211 C367.520185,199.170234 368.374189,198.37587 369.415916,198.37587 L433.476818,198.37587 C434.518545,198.37587 435.372549,199.170234 435.372549,200.139211 C435.372549,201.108188 434.518545,201.902552 433.476818,201.902552 L369.415916,201.902552 Z" id="Fill-49" fill="#EFCBAB"></path>
                            <path d="M302.444284,213.364269 C301.401359,213.364269 300.54902,212.572364 300.54902,211.600928 C300.54902,210.631951 301.401359,209.837587 302.444284,209.837587 L362.097475,209.837587 C363.1404,209.837587 363.995386,210.631951 363.995386,211.600928 C363.995386,212.572364 363.1404,213.364269 362.097475,213.364269 L302.444284,213.364269 Z" id="Fill-50" fill="#EFCBAB"></path>
                            <path d="M368.546635,213.364269 C367.496895,213.364269 366.638985,212.572364 366.638985,211.600928 C366.638985,210.631951 367.496895,209.837587 368.546635,209.837587 L415.838244,209.837587 C416.887984,209.837587 417.748558,210.631951 417.748558,211.600928 C417.748558,212.572364 416.887984,213.364269 415.838244,213.364269 L368.546635,213.364269 Z" id="Fill-51" fill="#EFCBAB"></path>
                            <path d="M364.245305,251.04796 C363.653213,249.941533 364.501345,248.577116 365.469497,247.675484 C365.090771,248.808508 364.68004,249.933553 364.245305,251.04796 Z M362.458359,234.829222 C362.445024,234.26537 362.743737,233.238733 363.391839,233.249371 C363.098459,233.882376 362.797079,234.51006 362.479696,235.129766 C362.469028,235.028698 362.461026,234.92763 362.458359,234.829222 Z M368.003227,244.462589 C368.347281,243.385418 368.635326,242.268351 368.581984,241.270971 C368.509973,239.898575 367.411134,239.297487 366.312295,238.728315 C366.040253,238.587352 365.78688,238.43841 365.533507,238.289468 C365.96024,237.871898 366.178941,237.294747 365.898897,236.661743 C365.434825,235.624467 364.133288,235.792027 363.693219,236.752172 C363.610539,236.930371 363.562532,237.10325 363.543862,237.273469 C363.365168,237.180381 363.231814,237.079313 363.114462,236.93569 C363.7839,235.688299 364.415999,234.419631 364.997423,233.121707 C365.12811,232.829142 364.962751,232.483383 364.725381,232.307844 C363.759896,231.581751 362.442357,231.815803 361.666235,232.728074 C360.746091,233.810564 360.978128,235.456907 361.418196,236.68568 C361.450201,236.773449 361.484874,236.858559 361.519546,236.943669 C360.666079,238.478305 359.737934,239.973046 358.743111,241.425232 C358.65243,241.332143 358.556415,241.239055 358.463067,241.145966 C358.20436,240.895956 357.926984,240.571475 357.686946,240.215077 C358.143017,239.031519 358.43373,237.789448 358.54308,236.494183 C358.591087,235.917032 358.01233,235.632446 357.529588,235.810645 C356.190712,236.305345 355.467932,237.661783 355.641293,239.058116 C355.702636,239.536858 355.857326,239.994324 356.078694,240.417213 C355.779981,241.063516 355.425259,241.6912 355.006527,242.294948 C354.734484,242.685921 354.929181,243.084874 355.246564,243.271051 C354.809162,244.725897 354.21707,246.217978 353.208912,247.268553 C352.384783,248.12497 350.848543,248.776592 349.845719,247.757934 C349.210953,247.114291 349.130941,246.03712 349.042927,245.186022 C348.82956,243.087533 348.672202,240.909254 348.746881,238.797467 C348.78422,237.797427 348.890903,236.781428 349.234957,235.837241 C349.448324,235.249452 349.74437,234.358459 350.032415,235.371797 C350.171103,235.866498 349.979073,236.637806 349.928399,237.143145 C349.837718,238.044777 351.240604,238.148505 351.331285,237.249532 C351.437968,236.193639 351.912709,233.972805 350.712522,233.310544 C349.717699,232.75999 348.802889,233.549915 348.341484,234.374417 C346.685225,237.339962 347.343995,241.417253 347.5947,244.640787 C347.792065,247.212699 348.757549,250.369741 352.051398,249.550559 C355.150549,248.781911 356.289394,244.885478 357.001505,242.204519 C357.046846,242.036959 357.03351,241.885357 356.980169,241.755033 L357.017508,241.688541 C357.145528,241.816206 357.276215,241.94387 357.406902,242.074195 C357.588264,242.233776 357.764291,242.406655 357.932318,242.582194 C357.606934,243.03168 357.273548,243.478506 356.934828,243.920014 C356.742798,244.170024 356.798807,244.545039 356.990837,244.776431 C358.033667,246.026481 359.908627,245.098252 359.871288,243.560957 C359.863287,243.204559 359.775273,242.888057 359.636584,242.598152 C360.615404,241.19384 361.530214,239.746973 362.378347,238.262871 C362.821083,238.693739 363.38117,238.970346 364.069278,238.93843 C364.114618,238.93577 364.162626,238.930451 364.210633,238.925132 C364.57069,239.305466 365.024094,239.621968 365.437492,239.853361 C365.837555,240.079433 366.29896,240.217737 366.659016,240.510302 C367.325787,241.055537 367.128423,241.677902 366.981734,242.451869 C366.787036,243.470527 366.461652,244.489185 366.162939,245.481247 C364.746717,246.292449 363.349165,247.324406 362.871757,248.949471 C362.437023,250.433574 362.82375,251.994807 364.098616,252.915056 C364.482676,253.194323 364.992089,252.97091 365.157448,252.566638 C365.957573,250.606453 366.677686,248.614351 367.299117,246.590334 C367.317786,246.526501 367.339123,246.460009 367.360459,246.396177 C368.611322,245.686042 369.92086,245.061017 371.15572,244.332264 C374.441567,242.393356 377.556721,240.183161 380.490514,237.752212 C381.18929,237.175061 380.258477,236.119168 379.562369,236.698978 C375.945803,239.69112 372.078531,242.185901 368.003227,244.462589 Z" id="Fill-52" fill="#F99746"></path>
                            <path d="M299.66782,43.8319754 L330.144363,49.20292 C330.478576,49.261846 330.81542,49.2907828 331.147002,49.2907828 C333.160175,49.2907828 335.060189,48.2359027 336.110196,46.4639145 L351.652417,20.2784223 L365.757785,51.3884422 L313.773188,74.9419954 L299.66782,43.8319754 Z" id="Fill-53" fill="#DCE9FB"></path>
                            <path d="M330.147983,49.2854364 L299.66782,43.8991695 L351.658593,20.2784223 L336.114526,46.538617 C335.064393,48.3156604 333.164153,49.3735499 331.150741,49.3735499 C330.81912,49.3735499 330.482236,49.3445305 330.147983,49.2854364 Z" id="Fill-54" fill="#CEE1F6"></path>
                            <path d="M11.5155709,236.464583 L30.1266179,241.14307 C30.4128529,241.214842 30.7019739,241.249399 30.9882089,241.249399 C32.1457421,241.249399 33.2544764,240.677879 33.9324152,239.683701 L44.6532409,223.944316 L52.0507497,244.045858 L18.9133421,256.566125 L11.5155709,236.464583 Z" id="Fill-55" fill="#DCE9FB"></path>
                            <path d="M30.3220153,241.46938 L11.5155709,236.702129 L45.0011534,223.944316 L34.1677697,239.982322 C33.4827133,240.995363 32.3623384,241.577726 31.1926521,241.577726 C30.9034119,241.577726 30.6112555,241.542514 30.3220153,241.46938 Z" id="Fill-56" fill="#CEE1F6"></path>
                            <path d="M540.235294,127.196738 L550.67379,88.1670534 L574.572727,115.911828 C575.897958,117.450094 577.805447,118.288885 579.762994,118.288885 C580.545486,118.288885 581.338516,118.154563 582.102566,117.876981 L616.018454,105.564546 L605.577324,144.593968 L540.235294,127.196738 Z" id="Fill-57" fill="#DCE9FB"></path>
                            <path d="M574.658923,115.77824 L550.809689,88.1670534 L616.018454,105.480778 L582.173102,117.733931 C581.410641,118.010176 580.61926,118.143852 579.838395,118.143852 C577.884919,118.143852 575.981397,117.309099 574.658923,115.77824 Z" id="Fill-58" fill="#CEE1F6"></path>
                            <path d="M50.5011996,282.144672 C50.3442771,282.144672 50.2113544,282.024492 50.1989589,281.867735 C50.1860358,281.700527 50.3113101,281.556833 50.4782546,281.54377 C53.2978493,281.329536 55.0524806,281.25377 55.0698872,281.25377 C55.2378866,281.240707 55.3784575,281.376563 55.3855784,281.541158 C55.3926993,281.708365 55.2626777,281.846834 55.0952058,281.854672 C55.078063,281.854672 53.3326624,281.927825 50.5249358,282.142059 L50.5011996,282.144672 Z M41.4136704,283.032961 C41.2622863,283.032961 41.1312098,282.923231 41.1127484,282.769087 C41.0924407,282.604492 41.2111217,282.455573 41.3775387,282.434672 C42.8729181,282.257014 44.401792,282.089807 45.9216989,281.940888 C46.0873247,281.927825 46.2371263,282.045392 46.2534779,282.209987 C46.2698295,282.374582 46.1479838,282.523501 45.981303,282.539177 C44.4658797,282.688096 42.9414893,282.852691 41.4503296,283.032961 L41.4136704,283.032961 Z M32.3809982,284.334043 C32.23568,284.334043 32.1075046,284.232151 32.082186,284.085845 C32.0537026,283.92125 32.1644714,283.767106 32.3298335,283.738367 C33.7848615,283.490169 35.3042409,283.252421 36.8455103,283.030348 C37.0137734,283.004222 37.1654213,283.12179 37.1894212,283.283772 C37.2134211,283.448367 37.0984325,283.602511 36.9328067,283.626025 C35.3965482,283.845484 33.8827073,284.083232 32.432954,284.331431 L32.3809982,284.334043 Z M23.4422157,286.160262 C23.3058645,286.160262 23.1816452,286.06882 23.1476233,285.930351 C23.1077993,285.770982 23.2074913,285.606387 23.370216,285.567198 C24.7888485,285.222333 26.291085,284.887918 27.8355193,284.574404 C28.0000902,284.543053 28.1601775,284.647557 28.1936719,284.809539 C28.22743,284.971522 28.1214084,285.130891 27.957365,285.164855 C26.4203154,285.475756 24.9257271,285.807558 23.5150067,286.152424 C23.4904793,286.157649 23.4662156,286.160262 23.4422157,286.160262 Z M224.813655,286.706298 C224.671238,286.706298 224.542008,286.607019 224.515634,286.463325 C224.483986,286.29873 224.592117,286.141973 224.755633,286.110622 C225.064204,286.053144 225.240906,286.01918 225.275192,286.013955 C225.454532,285.972153 225.647059,286.115847 225.647059,286.306568 C225.647059,286.554766 225.618048,286.559992 224.86904,286.701073 L224.813655,286.706298 Z M215.815005,288.378372 C215.672588,288.378372 215.543357,288.27648 215.516984,288.132786 C215.487973,287.970804 215.596104,287.814047 215.75962,287.782696 C217.4739,287.469182 218.977192,287.192245 220.256308,286.954497 C220.419824,286.923145 220.578065,287.030262 220.609714,287.194857 C220.641362,287.356839 220.53323,287.513596 220.367077,287.544948 C219.087961,287.782696 217.584669,288.059633 215.870389,288.373147 L215.815005,288.378372 Z M14.7117842,288.767652 C14.5888835,288.767652 14.47284,288.694498 14.4274775,288.571705 C14.3689282,288.417561 14.4488401,288.245129 14.6060263,288.185038 C15.9502854,287.688641 17.412698,287.20792 18.9518575,286.750713 C19.1132636,286.703685 19.2817905,286.795127 19.3295266,286.954497 C19.3775264,287.113866 19.286274,287.281073 19.1256591,287.328101 C17.5991589,287.780083 16.1499331,288.258192 14.8178058,288.749363 C14.7829928,288.762426 14.7471247,288.767652 14.7117842,288.767652 Z M206.832178,290.006031 C206.687124,290.006031 206.560531,289.904139 206.534158,289.757833 C206.502509,289.595851 206.613278,289.439094 206.776794,289.407742 C208.361844,289.12558 209.862498,288.853868 211.268207,288.600444 C211.43436,288.569093 211.592602,288.678823 211.621613,288.840805 C211.650623,289.0054 211.542492,289.162156 211.378976,289.190895 C209.970629,289.446932 208.469975,289.716031 206.884926,290.000806 L206.832178,290.006031 Z M197.849352,291.597114 C197.704298,291.597114 197.577705,291.495222 197.551331,291.348915 C197.52232,291.184321 197.630452,291.030176 197.796605,291.001438 C199.347369,290.727113 200.845386,290.463239 202.288018,290.209815 C202.451534,290.178464 202.609775,290.288194 202.638786,290.452788 C202.667797,290.614771 202.559666,290.771527 202.393512,290.800266 C200.95088,291.056303 199.452863,291.320177 197.902099,291.591889 L197.849352,291.597114 Z M6.5781858,292.793692 C6.48244987,292.793692 6.38803261,292.746665 6.32895589,292.663061 C6.23321996,292.527205 6.26671435,292.341709 6.4043842,292.245042 C7.55057806,291.45342 8.88956247,290.685311 10.383887,289.964229 C10.5342162,289.891076 10.7161936,289.951166 10.7897757,290.102698 C10.8630941,290.251617 10.8005889,290.431887 10.649996,290.502428 C9.18389113,291.213059 7.8723352,291.96288 6.75145993,292.738827 C6.69871286,292.775403 6.63805373,292.793692 6.5781858,292.793692 Z M188.863889,293.156845 C188.718834,293.156845 188.592241,293.052341 188.565868,292.906034 C188.536857,292.744052 188.647626,292.587295 188.813779,292.558556 C190.346081,292.294682 191.844098,292.036033 193.305192,291.78261 C193.471345,291.756483 193.626949,291.863601 193.65596,292.028195 C193.684971,292.190178 193.574202,292.346934 193.410686,292.375673 C191.949592,292.629097 190.451575,292.887746 188.916636,293.15162 L188.863889,293.156845 Z M179.878425,294.682613 C179.733371,294.682613 179.60414,294.580721 179.580404,294.431801 C179.551393,294.269819 179.662162,294.115675 179.828315,294.086936 C181.352706,293.8309 182.850722,293.577476 184.322366,293.326665 C184.485882,293.297926 184.644123,293.407656 184.670496,293.572251 C184.699507,293.736846 184.588738,293.89099 184.422585,293.919729 C182.953579,294.17054 181.452925,294.423964 179.928535,294.68 L179.878425,294.682613 Z M170.887423,296.179641 C170.741577,296.179641 170.612874,296.075136 170.588347,295.92883 C170.560655,295.764235 170.672742,295.610091 170.837841,295.581352 C172.356429,295.333154 173.855501,295.084955 175.333474,294.839369 C175.500946,294.810631 175.655231,294.92036 175.682923,295.084955 C175.710615,295.24955 175.599055,295.403694 175.433957,295.432433 C173.955456,295.678019 172.456121,295.926217 170.937533,296.174416 L170.887423,296.179641 Z M161.891674,297.640093 C161.745828,297.640093 161.616861,297.535588 161.592598,297.389282 C161.565697,297.224687 161.678312,297.070543 161.843674,297.044417 C163.358042,296.801443 164.857905,296.55847 166.341417,296.31811 C166.506515,296.289371 166.66291,296.401713 166.690075,296.563695 C166.716976,296.72829 166.604888,296.882435 166.439526,296.911173 C164.955487,297.151534 163.455624,297.394507 161.940728,297.63748 L161.891674,297.640093 Z M152.891705,299.069194 C152.744804,299.069194 152.615837,298.964689 152.592101,298.81577 C152.566255,298.651175 152.679134,298.497031 152.84476,298.470905 C154.355963,298.235769 155.856354,297.998021 157.344612,297.762886 C157.50892,297.73676 157.665578,297.84649 157.692216,298.011084 C157.718589,298.175679 157.606238,298.329823 157.440612,298.35595 C155.952353,298.591085 154.451172,298.828833 152.939441,299.066581 L152.891705,299.069194 Z M1.24492942,299.7746 L1.18479776,299.769374 C1.02049063,299.73541 0.914205282,299.578654 0.947172201,299.416671 C1.23886351,297.982346 1.92299302,296.600272 2.98083554,295.30964 C3.08685715,295.181622 3.27753781,295.160721 3.40782308,295.265226 C3.53784461,295.36973 3.55762476,295.560451 3.45213062,295.688469 C2.45679338,296.903335 1.81407032,298.19658 1.54215917,299.534239 C1.51314828,299.677933 1.38655531,299.7746 1.24492942,299.7746 Z M143.885933,300.459105 C143.739033,300.459105 143.609539,300.3546 143.586594,300.205681 C143.561011,300.041086 143.674681,299.886942 143.840307,299.863429 C145.349665,299.633518 146.85111,299.400996 148.343061,299.171086 C148.508423,299.147572 148.663763,299.257302 148.689873,299.421897 C148.715719,299.586491 148.602313,299.740636 148.436687,299.766762 C146.944209,299.996672 145.442499,300.226582 143.932615,300.456492 L143.885933,300.459105 Z M134.875151,301.81244 C134.727196,301.81244 134.597702,301.705322 134.575284,301.556403 C134.550493,301.391808 134.664954,301.237664 134.83058,301.214151 C136.338355,300.992078 137.840328,300.767393 139.335971,300.542709 C139.503179,300.519195 139.656409,300.631537 139.681464,300.796132 C139.706783,300.960727 139.592586,301.112259 139.427223,301.138385 C137.930789,301.36307 136.428025,301.585142 134.919986,301.807214 L134.875151,301.81244 Z M125.857512,303.118747 C125.709293,303.118747 125.579271,303.01163 125.557645,302.862711 C125.533645,302.698116 125.648897,302.546584 125.814787,302.520458 C127.320979,302.306224 128.824271,302.091989 130.323343,301.87253 C130.488968,301.846404 130.643254,301.961359 130.667517,302.128566 C130.691781,302.290548 130.577056,302.444692 130.411167,302.468206 C128.911567,302.685053 127.407748,302.9019 125.901292,303.116135 L125.857512,303.118747 Z M116.833543,304.383253 C116.684532,304.383253 116.554247,304.273523 116.533148,304.121991 C116.510203,303.957397 116.626247,303.805865 116.792136,303.784964 C118.297538,303.578567 119.801884,303.369558 121.304385,303.160549 C121.467901,303.134423 121.624032,303.249378 121.647241,303.413973 C121.670713,303.578567 121.555197,303.732712 121.389044,303.753613 C119.886016,303.965235 118.381142,304.174244 116.875477,304.38064 L116.833543,304.383253 Z M107.789794,305.595506 C107.639992,305.595506 107.509443,305.483164 107.489399,305.334245 C107.467509,305.167038 107.58408,305.018118 107.750497,304.994605 C109.255371,304.798659 110.761564,304.6001 112.26802,304.396316 C112.436547,304.375415 112.586876,304.49037 112.609294,304.654965 C112.631711,304.81956 112.515404,304.971091 112.349514,304.991992 C110.842267,305.195776 109.335283,305.394335 107.829882,305.590281 L107.789794,305.595506 Z M98.7724182,306.742445 C98.6218253,306.742445 98.4910126,306.632715 98.4717599,306.481183 C98.4509248,306.316588 98.5688145,306.165057 98.7352315,306.144156 C100.233248,305.95866 101.735221,305.770552 103.239568,305.577218 C103.40493,305.55893 103.557896,305.673885 103.579259,305.83848 C103.600621,306.003074 103.483259,306.154606 103.317106,306.175507 C101.811968,306.366228 100.309468,306.556949 98.8106598,306.742445 L98.7724182,306.742445 Z M89.7249768,307.831905 C89.573329,307.831905 89.4422525,307.71695 89.4240548,307.565418 C89.4045383,307.400824 89.5237467,307.251905 89.6901637,307.231004 C91.1924003,307.055958 92.7007028,306.878301 94.2134888,306.69803 C94.3796421,306.677129 94.5312899,306.794697 94.5513338,306.959292 C94.5716414,307.123886 94.4529605,307.275418 94.2865435,307.293706 C92.7729663,307.476589 91.2638726,307.654247 89.7608448,307.829292 L89.7249768,307.831905 Z M3.99331557,307.899833 C3.93133776,307.899833 3.86883248,307.881545 3.81476674,307.842356 C2.93573679,307.20749 2.30118952,306.491633 1.92853146,305.710462 C1.65635658,305.138299 1.42928043,304.566136 1.25389642,304.009649 C1.20405044,303.850279 1.29345672,303.683072 1.45354409,303.633432 C1.61257651,303.583793 1.78374075,303.672622 1.833323,303.831991 C2.00026748,304.362352 2.21705794,304.908389 2.47736474,305.451813 C2.805979,306.141543 3.37617484,306.781634 4.17239188,307.356409 C4.30768812,307.455689 4.33749021,307.643797 4.23885319,307.77704 C4.17951273,307.858031 4.08720536,307.899833 3.99331557,307.899833 Z M80.6683046,308.842987 C80.5156019,308.842987 80.3837342,308.728032 80.3671189,308.573888 C80.3491849,308.409293 80.4697119,308.260374 80.6363927,308.242086 C82.1373106,308.082716 83.6471955,307.915509 85.1642013,307.745689 C85.330882,307.730013 85.4812112,307.847581 85.4999364,308.012176 C85.5186616,308.17677 85.3989257,308.325689 85.232245,308.343978 C83.7139205,308.513798 82.2035082,308.678392 80.7015353,308.840375 L80.6683046,308.842987 Z M71.6018743,309.762628 C71.4475891,309.762628 71.3154577,309.647673 71.3004248,309.493528 C71.2840732,309.326321 71.4059189,309.180015 71.5728634,309.164339 C73.0724626,309.020645 74.58393,308.869113 76.1059467,308.714969 C76.2715725,308.701906 76.4216379,308.816861 76.4387807,308.984068 C76.4559235,309.148663 76.3346053,309.29497 76.1679245,309.313258 C74.6451166,309.467402 73.1323306,309.618934 71.6314126,309.762628 L71.6018743,309.762628 Z M62.524367,310.580376 C62.367972,310.580376 62.2353131,310.460196 62.2221263,310.303439 C62.2078846,310.138844 62.332104,309.992538 62.4990484,309.979475 C63.9968015,309.854069 65.510115,309.723439 67.0371427,309.58497 C67.2056696,309.571907 67.351779,309.692087 67.3670757,309.859295 C67.3821086,310.023889 67.2592079,310.170196 67.0922634,310.185871 C65.5636533,310.321727 64.0490211,310.454971 62.5499494,310.577764 L62.524367,310.580376 Z M12.518561,310.857314 L12.464759,310.852088 C10.7900395,310.55425 9.28859407,310.198935 8.00235673,309.793979 C7.84279684,309.744339 7.7544455,309.574519 7.80508268,309.417763 C7.85571987,309.258393 8.02662038,309.169564 8.18618027,309.221816 C9.44736275,309.618934 10.9229621,309.969024 12.5718355,310.261637 C12.7369339,310.290376 12.8466478,310.447133 12.8171094,310.609115 C12.7904721,310.755422 12.6628242,310.857314 12.518561,310.857314 Z M53.4349917,311.264882 C53.2767505,311.264882 53.1433004,311.144701 53.1324872,310.985332 C53.1211466,310.818124 53.2474759,310.677043 53.4149478,310.66398 C54.9095361,310.564701 56.424432,310.454971 57.9585805,310.340016 C58.125525,310.326953 58.2713707,310.452358 58.2842937,310.616953 C58.296953,310.781548 58.1716787,310.927854 58.0047342,310.940917 C56.4690032,311.055872 54.9522612,311.16299 53.4558268,311.264882 L53.4349917,311.264882 Z M44.3334845,311.782179 C44.1723422,311.782179 44.0378372,311.656774 44.0304526,311.497404 C44.0228043,311.330197 44.1520346,311.189116 44.3195066,311.181278 C45.780073,311.115962 47.310793,311.034971 48.8681503,310.946143 C49.0353585,310.94353 49.1790942,311.06371 49.1888525,311.230918 C49.1983469,311.395512 49.0704353,311.539206 48.9032271,311.547044 C47.3434962,311.635873 45.8106663,311.716864 44.3477262,311.782179 L44.3334845,311.782179 Z M21.5628376,311.850107 L21.5441124,311.850107 C19.939019,311.753441 18.4080352,311.630648 16.9936225,311.481729 C16.8269418,311.46344 16.7064147,311.314521 16.724085,311.149926 C16.7417552,310.985332 16.8918207,310.865151 17.0579739,310.88344 C18.4631559,311.032359 19.9849089,311.155152 21.5807716,311.249206 C21.7479798,311.259656 21.875364,311.40335 21.865342,311.567945 C21.8558476,311.727314 21.7221337,311.850107 21.5628376,311.850107 Z M35.220373,312.077405 C35.055011,312.077405 34.9199784,311.946774 34.917031,311.782179 C34.9141763,311.614972 35.0478901,311.479116 35.215362,311.476503 C36.6730274,311.450377 38.2048023,311.413801 39.7682255,311.361548 C39.9428183,311.348485 40.0760047,311.486954 40.0815431,311.651549 C40.0870816,311.818756 39.9557414,311.957225 39.7880057,311.96245 C38.2216814,312.014702 36.6864779,312.051279 35.2256477,312.077405 L35.220373,312.077405 Z M30.6614436,312.111369 C29.0808777,312.106144 27.5469928,312.085243 26.1022505,312.046054 C25.9345148,312.040828 25.8026472,311.90236 25.8071307,311.735152 C25.8116142,311.570558 25.9463829,311.439927 26.1188659,311.445152 C27.5585972,311.484341 29.087471,311.505242 30.6630261,311.510467 C30.830498,311.510467 30.9663217,311.643711 30.9657973,311.810918 C30.9652668,311.975513 30.8294431,312.111369 30.6622348,312.111369 L30.6614436,312.111369 Z" id="Fill-59" fill="#AFCDFB"></path>
                            <polygon id="Fill-60" fill="#AFCDFB" points="272.350634 281.2529 238.019573 283.265388 240.669206 289.018362 233.577855 296.812799 234.716825 302.412993"></polygon>
                            <polygon id="Fill-61" fill="#FFFFFF" points="233.092308 288.521083 204.49827 308.584687 272.350634 281.2529"></polygon>
                            <polygon id="Fill-62" fill="#FFFFFF" points="272.350634 281.021667 237.102653 270.672854 238.653189 283.016241"></polygon>
                            <polygon id="Fill-63" fill="#AFCDFB" points="479.432526 29.9767981 451.596872 10.5800464 450.07235 16.6400034 439.73452 18.3315171 437.134948 23.3524831"></polygon>
                            <polygon id="Fill-64" fill="#FFFFFF" points="445.282697 11.102185 410.698962 8.81670534 480.313725 29.9767981"></polygon>
                            <polygon id="Fill-65" fill="#FFFFFF" points="480.313725 29.9767981 458.718928 0 452.11534 10.5815455"></polygon>
                            <path d="M550.73636,211.906824 C544.294274,227.691445 558.702607,227.535188 553.850606,237.591263 C548.995968,247.647338 560.835905,253.646024 564.432715,261.879981 C568.026887,270.111291 586.14542,289.974488 587.579924,299.032107 C589.014429,308.089725 605.1236,289.614302 605.1236,289.614302 C605.1236,289.614302 621.499103,272.071126 615.629237,261.879981 C605.951604,245.081013 614.334491,241.431481 614.031241,232.048107 C613.727991,222.66738 595.997091,185.700645 565.777563,195.653431 C565.777563,195.653431 557.12307,196.257272 550.73636,211.906824 Z" id="Fill-66" fill="#233862"></path>
                            <path d="M521.815279,266.350954 C515.405435,266.076551 475.907728,254.515027 475.907728,254.515027 L476.914496,261.200013 C476.914496,261.200013 507.396451,278.448217 518.051189,279.425616 C528.543888,280.389947 564.418293,270.161239 567.882212,268.0026 C571.346131,265.843961 572.034133,254.342545 561.969111,252.157773 C561.969111,252.157773 528.225122,266.627971 521.815279,266.350954 Z" id="Fill-67" fill="#FFAD76"></path>
                            <path d="M570.563397,273.492717 C588.788513,277.673487 595.772735,262.384264 598.394464,251.887696 C595.910303,250.474848 593.571647,250.164966 592.222422,250.004774 C590.904944,249.849833 589.518681,249.747415 588.370518,249.692266 C586.325516,248.134982 583.27521,241.766661 582.600598,231.87935 L581.743443,232.107822 L567.380814,236.010224 C567.380814,236.010224 568.039553,240.542893 568.362309,244.826081 C568.610989,248.179626 569.050149,250.125575 568.409928,250.908156 C567.28822,251.149758 566.216777,252.565232 566.216777,252.565232 L566.20884,252.578363 C566.015716,252.893496 561.848992,259.695126 558.740484,268.497852 C561.830474,270.625003 565.700897,272.379246 570.563397,273.492717 Z" id="Fill-68" fill="#FFB27D"></path>
                            <path d="M568.513375,244.222738 C576.501792,243.437736 580.210329,235.975122 581.651672,231.87935 L567.55248,235.666729 C567.55248,235.666729 568.199136,240.063248 568.513375,244.222738 Z" id="Fill-69" fill="#ED985F"></path>
                            <path d="M583.38697,226.597415 C582.54096,214.454909 584.457002,206.139845 572.135826,206.313577 C559.81465,206.487308 557.753653,211.29032 557.06314,215.414442 C556.372627,219.535892 559.964876,239.782312 564.990862,239.814385 C564.990862,239.814385 584.23298,238.737249 583.38697,226.597415 Z" id="Fill-70" fill="#FFB27D"></path>
                            <path d="M605.406169,251.093088 C603.383557,246.983768 595.447686,246.614272 586.738926,246.973211 C584.029884,248.736233 573.701986,255.395075 569.462885,254.56371 C569.415725,254.555792 569.334506,254.537317 569.224468,254.508285 C567.228055,254.004187 566.86912,251.327982 568.535417,250.108646 C568.538037,250.106007 563.827342,250.953208 558.469516,251.969321 C555.446078,252.544679 547.28489,256.79652 547.28489,256.79652 C547.28489,256.79652 551.392994,264.27617 557.45297,266.857362 C556.423324,276.142263 557.956003,280.238388 567.516251,301.682339 C575.59622,319.808747 566.426346,336.129903 566.426346,336.129903 C566.426346,336.129903 613.989171,374.649838 614.253787,355.03753 C614.452904,340.270895 601.470983,318.333403 603.679613,306.96349 C605.406169,298.069198 611.039091,262.528983 605.406169,251.093088 Z" id="Fill-71" fill="#008FFF"></path>
                            <path d="M557.402814,374.731738 C557.173785,374.383601 556.926328,374.014363 556.663076,373.616115 C551.224287,365.366304 549.107739,340.099939 536.87178,313.182558 C533.891766,306.6286 523.1932,305.449678 520.276366,298.041201 C520.276366,298.041201 513.094848,274.030242 534.018127,273.323417 C554.941407,272.613954 590.053976,340.131588 590.606806,347.213028 C591.14384,354.072925 604.440705,383.224191 563.794576,378.629827 C561.196277,378.334437 558.855966,376.910237 557.402814,374.731738 Z" id="Fill-72" fill="#233862"></path>
                            <path d="M509.960265,378.236659 C509.960265,378.236659 511.068865,373.358553 509.121608,370.037979 C507.399739,367.101381 508.060182,365.427574 509.336514,362.996633 C507.994662,363.564483 506.257068,364.080957 504.343881,363.967387 C502.865748,363.880857 501.303748,363.188621 499.933067,362.366589 C498.656736,363.870041 493.194979,370.257007 491.486215,371.522503 C489.54944,372.961057 480.911269,372.447288 480.313725,378.236659 L509.960265,378.236659 Z" id="Fill-73" fill="#172B4C"></path>
                            <path d="M579.287537,303.252967 C553.830686,310.730474 546.602626,270.423328 567.159006,267.522365 C587.71272,264.624065 600.819745,260.092807 600.819745,260.092807 C600.819745,260.092807 604.747054,295.778124 579.287537,303.252967 Z" id="Fill-74" fill="#0C6FBD"></path>
                            <path d="M498.648876,357.220273 C494.672468,363.919678 508.664798,367.675044 508.741015,367.65668 C510.617522,367.162348 513.745034,364.154883 515.185266,362.846716 C525.19856,353.77411 545.522131,328.083811 545.522131,307.486116 C545.522131,297.440974 545.695589,278.2598 538.43398,273.386545 C533.96085,270.384366 520.473127,274.985416 519.760895,280.34494 C517.971117,293.84153 510.980208,336.437585 498.648876,357.220273 Z" id="Fill-75" fill="#233862"></path>
                            <path d="M578.553654,373.598225 C576.255497,370.114842 573.708747,363.261721 570.619855,354.476618 C567.374931,345.255431 563.524394,333.909327 558.713867,322.103353 C557.230246,318.458751 555.654065,314.771862 553.977389,311.087616 C550.981057,304.522575 542.745774,305.4291 539.815557,298.005107 C539.815557,298.005107 528.380308,272.270885 549.399587,271.559937 C570.418865,270.848988 610.357611,340.403009 612.653123,347.139841 C615.165493,354.513619 627.425857,385.13462 581.597588,378.067422 C581.597588,378.067422 580.486857,376.526593 578.553654,373.598225 Z" id="Fill-76" fill="#2B478B"></path>
                            <path d="M531.990254,378.236659 C531.990254,378.236659 533.098854,373.358553 531.151596,370.037979 C529.429728,367.101381 530.09017,365.427574 531.366502,362.996633 C530.022029,363.564483 528.287057,364.080957 526.37387,363.967387 C524.895736,363.880857 523.333737,363.188621 521.963056,362.366589 C520.686724,363.870041 515.224968,370.257007 513.516203,371.522503 C511.579429,372.961057 502.941257,372.447288 502.343714,378.236659 L531.990254,378.236659 Z" id="Fill-77" fill="#233862"></path>
                            <path d="M558.740484,322.229838 C559.952156,313.333552 562.566814,305.549302 566.961992,302.412993 C566.961992,302.412993 577.627248,336.457587 570.224575,354.431555 C567.094638,345.259231 563.380547,333.973251 558.740484,322.229838 Z" id="Fill-78" fill="#23407A"></path>
                            <path d="M520.67887,356.376766 C516.702432,363.051672 530.694868,366.793306 530.771086,366.775009 C532.647607,366.282485 535.775142,363.286018 537.215386,361.982634 C547.226127,352.943205 567.55248,327.346848 567.55248,306.824474 C567.55248,296.816064 555.830792,278.508126 548.5665,273.652692 C544.093335,270.661491 538.03275,273.48944 537.323141,278.831998 C535.530721,292.276602 533.010296,335.670075 520.67887,356.376766 Z" id="Fill-79" fill="#2B478B"></path>
                            <path d="M495.281477,239.825994 C492.485167,240.078809 467.095732,243.452312 467.095732,243.452312 C467.095732,243.452312 470.051074,244.155454 471.166948,246.080536 L482.876993,280.37123 L512.918108,280.37123 L499.609793,243.452312 C499.609793,243.452312 498.075136,239.575812 495.281477,239.825994 Z" id="Fill-80" fill="#EBF3FA"></path>
                            <path d="M549.215088,266.471556 C545.081594,266.264298 510.717113,254.31152 510.717113,254.31152 L507.630911,260.085898 C507.630911,260.085898 541.078016,281.360058 550.272987,281.252494 C568.429608,281.045235 599.060952,270.018562 602.518346,267.85153 C605.973089,265.684499 608.22941,253.469369 598.180695,251.276102 C598.180695,251.276102 555.612858,266.789003 549.215088,266.471556 Z" id="Fill-81" fill="#FFBF94"></path>
                            <path d="M505.012148,249.519022 C501.945659,249.380444 496.651402,251.584623 494.839025,251.929762 C493.029293,252.272285 487.872618,253.924766 489.407185,256.403487 C490.939107,258.882208 498.045741,259.433907 501.109585,258.882208 C504.176074,258.33051 508.075991,260.092807 508.075991,260.092807 L511.155709,254.337886 C511.155709,254.337886 508.075991,249.6576 505.012148,249.519022 Z" id="Fill-82" fill="#FFBF94"></path>
                            <path d="M499.819508,247.01805 C498.473866,246.611465 498.744527,247.02577 499.147964,248.309858 C499.551401,249.593946 501.972024,250.818847 501.972024,251.222858 C501.972024,251.62687 505.868512,249.599092 505.868512,249.599092 C505.868512,249.599092 501.16515,247.424635 499.819508,247.01805 Z" id="Fill-83" fill="#FFBF94"></path>
                            <path d="M568.433679,232.025107 C568.433679,232.025107 568.157802,234.294759 564.319629,234.519329 C562.147432,234.645088 561.384083,232.372442 561.384083,232.372442 C561.384083,232.372442 563.232191,231.555008 568.433679,232.025107 Z" id="Fill-84" fill="#FFFFFF"></path>
                            <path d="M593.311914,273.317865 C593.311914,273.317865 614.985901,266.832711 604.19415,252.49248 C604.19415,252.49248 593.524822,244.792489 576.364475,258.894922 C576.364475,258.894922 580.186165,270.645227 593.311914,273.317865 Z" id="Fill-85" fill="#008FFF"></path>
                            <path d="M467.002616,248.63109 L494.108434,244.773083 C494.108434,244.773083 493.16617,240.300477 495.294118,239.814385 L467.680524,243.636075 C467.680524,243.636075 464.895608,244.773083 467.002616,248.63109 Z" id="Fill-86" fill="#FFFFFF"></path>
                            <path d="M476.452122,247.986258 C475.513122,246.960736 474.076554,249.505166 473.334029,251.039574 C473.061005,250.362782 472.596608,249.259765 472.438407,249.205518 C472.211312,249.125439 472.754809,252.623063 472.754809,252.623063 C472.742051,252.765137 472.736948,252.912379 472.739499,253.05962 L472.736948,253.057037 C472.736948,253.057037 471.591266,258.197561 476.587358,260.974478 L475.633048,258.140731 C476.212268,258.045154 476.646045,255.27857 477.283953,252.697975 C477.909102,250.153544 477.870828,249.538748 476.452122,247.986258 Z" id="Fill-87" fill="#FFAD76"></path>
                            <path d="M570.157987,211.644677 C572.111153,215.803997 572.732496,225.749854 580.566135,226.562139 C588.399773,227.374424 588.701269,209.715831 588.701269,209.715831 L569.093577,201.902552 L558.740484,208.498727 L564.167403,208.911484 C564.167403,208.911484 568.202199,207.48271 570.157987,211.644677 Z" id="Fill-88" fill="#233862"></path>
                            <path d="M559.184781,213.314592 C558.120153,217.146474 559.782078,224.291761 557.202085,224.81024 C554.622092,225.328719 552.277147,212.898728 557.268451,208.861614 C562.256991,204.8218 564.908881,209.385494 564.908881,209.385494 C564.908881,209.385494 560.249408,209.482709 559.184781,213.314592 Z" id="Fill-89" fill="#233862"></path>
                            <path d="M219.305556,141.243899 C219.828124,140.076945 221.341394,139.569527 223.167661,138.75787 C224.993928,137.946214 226.090777,136.47502 226.352061,136.677934 C226.613345,136.880848 226.665057,137.895419 225.932917,138.656546 C225.203499,139.417407 222.108916,144.744499 220.941303,145.353242 C219.77369,145.962249 214.191465,144.100571 214.191465,144.100571 C214.191465,144.100571 218.782988,142.410854 219.305556,141.243899 Z" id="Fill-90" fill="#FFB27D"></path>
                            <path d="M649.071701,377.354988 C647.565347,376.054843 650.116555,373.101166 652.77925,372.903375 C653.93559,372.81371 655.397868,373.061608 657.070154,373.420269 C657.456465,368.193316 659.665438,344.698398 667.99057,345.64252 C677.352779,346.700042 667.99057,355.990938 665.346025,361.489524 C663.383358,365.564016 661.316982,371.405439 660.37065,374.161325 C661.130309,374.330107 661.918487,374.493614 662.722221,374.643935 C663.96412,370.769871 668.579111,357.734135 674.451557,358.493652 C681.345524,359.382392 678.573937,364.609345 673.686713,367.710706 C670.103614,369.991894 665.701224,373.235664 663.608922,374.802168 C665.382323,375.094898 667.230912,375.295326 669.10802,375.250494 C673.922648,375.134456 676.27422,376.577011 677.184254,377.354988 L649.071701,377.354988 Z" id="Fill-91" fill="#82B378"></path>
                            <path d="M17.2823497,351.0581 C9.84660296,353.591161 35.3079585,378.236659 35.3079585,378.236659 C35.3079585,378.236659 24.7178394,348.52504 17.2823497,351.0581 Z" id="Fill-92" fill="#82B378"></path>
                            <path d="M11.5623312,364.918557 C10.4110221,369.642545 30.9019608,378.236659 30.9019608,378.236659 C29.9809135,378.236659 12.7133777,360.19457 11.5623312,364.918557 Z" id="Fill-93" fill="#82B378"></path>
                            <path d="M33.8387517,373.238608 C24.6481027,374.999439 20.722788,376.925517 14.9501093,375.592704 C9.17743056,374.25989 6.2283737,378.236659 6.2283737,378.236659 L50.2883506,378.236659 C50.2883506,378.236659 43.0294006,371.480486 33.8387517,373.238608 Z" id="Fill-94" fill="#82B378"></path>
                            <path d="M214.613076,365.893271 C211.459664,365.893271 208.904268,363.371737 208.904268,360.260112 L208.904268,345.073716 C208.904268,341.96469 211.459664,339.443155 214.613076,339.443155 L271.050458,339.443155 C274.20387,339.443155 276.756632,341.96469 276.756632,345.073716 L276.756632,360.260112 C276.756632,363.371737 274.20387,365.893271 271.050458,365.893271 L214.613076,365.893271 Z" id="Fill-96" fill="#FCECDB"></path>
                            <path d="M217.695641,346.49652 C217.220749,346.49652 216.835063,346.100778 216.835063,345.616195 C216.835063,345.131613 217.220749,344.733179 217.695641,344.733179 L260.034463,344.733179 C260.506731,344.733179 260.89504,345.131613 260.89504,345.616195 C260.89504,346.100778 260.506731,346.49652 260.034463,346.49652 L217.695641,346.49652 Z" id="Fill-97" fill="#EFCBAB"></path>
                            <path d="M217.656882,350.023202 C217.203378,350.023202 216.835063,349.625375 216.835063,349.141531 C216.835063,348.657688 217.203378,348.259861 217.656882,348.259861 L224.827746,348.259861 C225.278744,348.259861 225.647059,348.657688 225.647059,349.141531 C225.647059,349.625375 225.278744,350.023202 224.827746,350.023202 L217.656882,350.023202 Z" id="Fill-98" fill="#EFCBAB"></path>
                            <path d="M227.40822,350.023202 C226.925314,350.023202 226.528258,349.625375 226.528258,349.141531 C226.528258,348.657688 226.925314,348.259861 227.40822,348.259861 L248.562168,348.259861 C249.045073,348.259861 249.439446,348.657688 249.439446,349.141531 C249.439446,349.625375 249.045073,350.023202 248.562168,350.023202 L227.40822,350.023202 Z" id="Fill-99" fill="#EFCBAB"></path>
                            <path d="M217.695641,357.076566 C217.220749,357.076566 216.835063,356.678739 216.835063,356.194896 C216.835063,355.711052 217.220749,355.313225 217.695641,355.313225 L260.034463,355.313225 C260.506731,355.313225 260.89504,355.711052 260.89504,356.194896 C260.89504,356.678739 260.506731,357.076566 260.034463,357.076566 L217.695641,357.076566 Z" id="Fill-100" fill="#EFCBAB"></path>
                            <path d="M216.841559,360.603248 C216.351703,360.603248 215.953864,360.205421 215.953864,359.721578 C215.953864,359.237734 216.351703,358.839907 216.841559,358.839907 L232.692866,358.839907 C233.180016,358.839907 233.577855,359.237734 233.577855,359.721578 C233.577855,360.205421 233.180016,360.603248 232.692866,360.603248 L216.841559,360.603248 Z" id="Fill-101" fill="#EFCBAB"></path>
                            <path d="M236.225242,360.603248 C235.738093,360.603248 235.340254,360.205421 235.340254,359.721578 C235.340254,359.237734 235.738093,358.839907 236.225242,358.839907 L252.07655,358.839907 C252.566406,358.839907 252.964245,359.237734 252.964245,359.721578 C252.964245,360.205421 252.566406,360.603248 252.07655,360.603248 L236.225242,360.603248 Z" id="Fill-102" fill="#EFCBAB"></path>
                        </g>
                    </g>
                    <g transform="translate(89.000000, 132.000000)" fill-rule="nonzero" id="uak">
                        <g id="bbb">
                            <polygon id="Path" fill="url(#linearGradient-4)" points="119.731034 22.2382979 18.5862069 18.3106383 13.462069 48.2037234"></polygon>
                            <polygon id="Path" fill="url(#linearGradient-5)" points="119.731034 22.2382979 18.5862069 18.3106383 13.462069 48.2037234"></polygon>
                            <polygon id="Path" fill="url(#linearGradient-6)" points="119.731034 22.2382979 18.5862069 18.3106383 4.55172414 12.0319149 0.372413793 0.0484042553"></polygon>
                            <polygon id="Path" fill="url(#linearGradient-7)" points="119.731034 22.2382979 29.3931034 35.8882979 13.462069 48.2037234"></polygon>
                            <polygon id="Path" fill="url(#linearGradient-8)" points="119.731034 22.2382979 29.3931034 35.8882979 13.462069 48.2037234"></polygon>
                            <polygon id="Path" fill="url(#linearGradient-9)" points="119.731034 22.2382979 29.3931034 35.8882979 33.8275862 53.1132979 44.0758621 64.6335106"></polygon>
                            <polygon id="Path" fill="#FFFFFF" points="44.0758621 64.6335106 33.8275862 53.1132979 29.3931034 35.8882979 13.462069 48.2037234 18.5862069 18.3106383 4.55172414 12.0319149 0.372413793 0.0484042553 4.96551724 11.9558511 18.862069 18.3382979 14.0758621 47.1734043 29.3931034 35.8882979 34.1103448 52.6361702"></polygon>
                        </g>
                    </g>
                    <g transform="translate(367.551355, 105.280345)" fill-rule="nonzero" id="uak-copy">
                        <g transform="translate(40.500000, 22.000000) rotate(26.000000) translate(-40.500000, -22.000000) " id="bbb">
                            <polygon id="Path" fill="url(#linearGradient-10)" points="80.8184483 15.053617 12.5456897 12.3948936 9.08689655 32.6302128"></polygon>
                            <polygon id="Path" fill="url(#linearGradient-11)" points="80.8184483 15.053617 12.5456897 12.3948936 9.08689655 32.6302128"></polygon>
                            <polygon id="Path" fill="url(#linearGradient-12)" points="80.8184483 15.053617 12.5456897 12.3948936 3.07241379 8.14468085 0.25137931 0.0327659574"></polygon>
                            <polygon id="Path" fill="url(#linearGradient-13)" points="80.8184483 15.053617 19.8403448 24.293617 9.08689655 32.6302128"></polygon>
                            <polygon id="Path" fill="url(#linearGradient-14)" points="80.8184483 15.053617 19.8403448 24.293617 9.08689655 32.6302128"></polygon>
                            <polygon id="Path" fill="url(#linearGradient-15)" points="80.8184483 15.053617 19.8403448 24.293617 22.8336207 35.953617 29.7512069 43.7519149"></polygon>
                            <polygon id="Path" fill="#FFFFFF" points="29.7512069 43.7519149 22.8336207 35.953617 19.8403448 24.293617 9.08689655 32.6302128 12.5456897 12.3948936 3.07241379 8.14468085 0.25137931 0.0327659574 3.35172414 8.09319149 12.7318966 12.413617 9.5012069 31.932766 19.8403448 24.293617 23.0244828 35.6306383"></polygon>
                        </g>
                    </g>
                </g>
            </g>
        </g>
    </g>
</svg>