<svg width="24" height="24" viewBox="0 0 24 24" fill="none" xmlns="http://www.w3.org/2000/svg">
<g id="arrow_thick_circle_2">
<path id="Shape" fill-rule="evenodd" clip-rule="evenodd" d="M4.92568 18.8004C7.7862 21.5509 12.0882 22.3737 15.8257 20.8851C19.5631 19.3966 22 15.8898 22 12C22 8.1102 19.5631 4.60341 15.8257 3.11485C12.0882 1.6263 7.7862 2.44911 4.92568 5.19963C1.02477 8.95739 1.02477 15.0426 4.92568 18.8004ZM11.4703 9.97379L8.54622 9.85283C8.08288 9.8284 7.71859 9.46271 7.71315 9.01655V8.68092C7.71334 8.46984 7.80165 8.26767 7.95828 8.11978C8.11491 7.97189 8.32673 7.89065 8.54622 7.8943L15.2858 8.01606C15.7498 8.02963 16.1236 8.3863 16.1414 8.83231L16.3221 15.2566C16.3285 15.4672 16.2457 15.6713 16.0928 15.8223C15.9399 15.9732 15.7299 16.0582 15.5107 16.0576H15.1633C14.6978 16.052 14.3148 15.7033 14.2836 15.2566L14.122 12.4946C14.097 12.0541 13.8104 11.9491 13.4864 12.2607L9.65421 15.9455C9.49795 16.0959 9.28591 16.1804 9.06481 16.1804C8.8437 16.1804 8.63167 16.0959 8.47541 15.9455L7.89226 15.3848C7.73582 15.2345 7.64793 15.0306 7.64793 14.818C7.64793 14.6054 7.73582 14.4016 7.89226 14.2513L11.7152 10.5778C12.0376 10.2638 11.9277 9.99301 11.4703 9.97379Z" fill="#5A5A5A"/>
</g>
</svg>
