<svg width="24" height="24" viewBox="0 0 24 24" fill="none" xmlns="http://www.w3.org/2000/svg">
<g id="arrow_thick_circle_1">
<path id="Shape" fill-rule="evenodd" clip-rule="evenodd" d="M19.0743 5.19963C16.2138 2.44912 11.9118 1.6263 8.17435 3.11486C4.43689 4.60341 2 8.1102 2 12C2 15.8898 4.43689 19.3966 8.17435 20.8851C11.9118 22.3737 16.2138 21.5509 19.0743 18.8004C22.9752 15.0426 22.9752 8.95739 19.0743 5.19963ZM12.5297 14.0262L15.4538 14.1472C15.9171 14.1716 16.2814 14.5373 16.2869 14.9834V15.3191C16.2867 15.5302 16.1983 15.7323 16.0417 15.8802C15.8851 16.0281 15.6733 16.1093 15.4538 16.1057L8.71421 15.9839C8.25022 15.9704 7.87638 15.6137 7.85864 15.1677L7.67786 8.7434C7.67155 8.53276 7.75429 8.32866 7.9072 8.17771C8.06011 8.02676 8.27012 7.94185 8.48928 7.94237H8.83667C9.30224 7.94804 9.68516 8.2967 9.71639 8.7434L9.87801 11.5054C9.903 11.9459 10.1896 12.0509 10.5136 11.7393L14.3458 8.05451C14.502 7.9041 14.7141 7.81958 14.9352 7.81958C15.1563 7.81958 15.3683 7.9041 15.5246 8.05451L16.1077 8.61523C16.2642 8.76548 16.3521 8.96936 16.3521 9.18197C16.3521 9.39457 16.2642 9.59845 16.1077 9.7487L12.2848 13.4222C11.9624 13.7362 12.0723 14.007 12.5297 14.0262Z" fill="#5A5A5A"/>
</g>
</svg>
