<svg width="24" height="24" viewBox="0 0 24 24" fill="none" xmlns="http://www.w3.org/2000/svg">
<g id="accounting_coins_stack">
<path id="Shape" fill-rule="evenodd" clip-rule="evenodd" d="M7.83348 5.05167C9.65782 5.14491 11.4803 4.83565 13.1718 4.14583C13.2401 4.10985 13.2829 4.0389 13.2826 3.96167V3.61083C13.2826 2.99 10.8435 2.485 7.83348 2.485C4.82348 2.485 2.38431 2.99 2.38431 3.61083V3.9625C2.38441 4.03943 2.42707 4.10999 2.49514 4.14583C4.18661 4.83565 6.00913 5.14491 7.83348 5.05167ZM13.1718 7.47917C11.4803 8.16899 9.65782 8.47824 7.83348 8.385C6.00913 8.47824 4.18661 8.16899 2.49514 7.47917C2.42707 7.44333 2.38441 7.37277 2.38431 7.29583V5.33333C2.38468 5.26533 2.41822 5.20179 2.47416 5.16311C2.5301 5.12444 2.60139 5.1155 2.66514 5.13917C4.33257 5.6795 6.07957 5.9331 7.83181 5.88917C9.58405 5.9331 11.331 5.6795 12.9985 5.13917C13.0626 5.1141 13.135 5.12235 13.1918 5.1612C13.2487 5.20004 13.2827 5.26447 13.2826 5.33333V7.295C13.2829 7.37223 13.2401 7.44319 13.1718 7.47917ZM9.05098 18.0217C9.0515 18.1333 8.96333 18.2251 8.85181 18.2292C8.52125 18.2431 8.18181 18.25 7.83348 18.25C4.82348 18.25 2.38431 17.75 2.38431 17.1275V15.3333C2.38309 15.2642 2.41629 15.1989 2.4729 15.1592C2.52952 15.1194 2.60217 15.1104 2.66681 15.135C4.33424 15.6753 6.08124 15.9289 7.83348 15.885C8.16681 15.885 8.50014 15.8775 8.83348 15.8625C8.8903 15.86 8.94568 15.8808 8.98675 15.9202C9.02783 15.9595 9.05103 16.014 9.05098 16.0708V18.0217ZM8.85264 15.0275C8.52848 15.0425 8.18931 15.0517 7.83348 15.0517C6.00938 15.146 4.18687 14.8378 2.49514 14.1492C2.42707 14.1133 2.38441 14.0428 2.38431 13.9658V12C2.38421 11.9314 2.41786 11.8672 2.47429 11.8282C2.53073 11.7893 2.60273 11.7806 2.66681 11.805C4.33424 12.3453 6.08124 12.5989 7.83348 12.555C8.21014 12.555 8.58931 12.5442 8.96681 12.5242C9.03697 12.5201 9.10454 12.5514 9.14681 12.6075C9.18839 12.6647 9.19782 12.7392 9.17181 12.805C9.08405 13.0407 9.04301 13.2912 9.05098 13.5425V14.8192C9.0511 14.9304 8.96378 15.0222 8.85264 15.0275ZM7.83348 11.7183C9.64746 11.6947 11.4467 11.3891 13.1668 10.8125C13.2353 10.7766 13.2783 10.7057 13.2785 10.6283V8.66667C13.2785 8.59781 13.2445 8.53338 13.1877 8.49453C13.1308 8.45568 13.0584 8.44744 12.9943 8.4725C11.3269 9.01283 9.57988 9.26643 7.82764 9.2225C6.0754 9.26643 4.3284 9.01283 2.66098 8.4725C2.59772 8.45053 2.52776 8.46031 2.47295 8.49877C2.41814 8.53724 2.38516 8.59971 2.38431 8.66667V10.6325C2.38441 10.7094 2.42707 10.78 2.49514 10.8158C4.18687 11.5045 6.00938 11.8126 7.83348 11.7183ZM10.8068 15.0895C10.8636 15.0507 10.936 15.0424 11.0001 15.0675C12.667 15.6076 14.4135 15.8612 16.1651 15.8175C17.9174 15.8614 19.6644 15.6078 21.3318 15.0675C21.3959 15.0424 21.4683 15.0507 21.5252 15.0895C21.582 15.1284 21.616 15.1928 21.616 15.2617V17.2267C21.616 17.3038 21.5733 17.3747 21.5051 17.4108C19.8137 18.1007 17.9912 18.4099 16.1668 18.3167C14.3419 18.4102 12.5188 18.1009 10.8268 17.4108C10.7585 17.3749 10.7158 17.3039 10.716 17.2267V15.2617C10.7159 15.1928 10.7499 15.1284 10.8068 15.0895ZM16.1668 19.15C14.4146 19.1939 12.6676 18.9403 11.0001 18.4C10.936 18.3749 10.8636 18.3832 10.8068 18.422C10.7499 18.4609 10.7159 18.5253 10.716 18.5942V20.3883C10.716 21.0108 13.1551 21.5142 16.1651 21.5142C19.1751 21.5142 21.6143 21.0142 21.6143 20.3883V18.595C21.6144 18.5261 21.5804 18.4617 21.5235 18.4229C21.4667 18.384 21.3943 18.3758 21.3301 18.4008C19.6637 18.9405 17.9179 19.1938 16.1668 19.15ZM10.7176 13.8933V13.5425C10.7176 12.9217 13.1568 12.4167 16.1668 12.4167C19.1768 12.4167 21.616 12.9217 21.616 13.5425V13.8933C21.6162 13.9706 21.5735 14.0415 21.5051 14.0775C19.8137 14.7673 17.9912 15.0766 16.1668 14.9833C14.3425 15.0766 12.5199 14.7673 10.8285 14.0775C10.7601 14.0415 10.7174 13.9706 10.7176 13.8933Z" fill="#5A5A5A"/>
</g>
</svg>
