<?xml version="1.0" encoding="UTF-8"?>
<svg width="24px" height="24px" viewBox="0 0 24 24" version="1.1" xmlns="http://www.w3.org/2000/svg" xmlns:xlink="http://www.w3.org/1999/xlink">
    <title>3. Finance/accounting_document</title>
    <g id="3.-Finance/accounting_document" stroke="none" stroke-width="1" fill="none" fill-rule="evenodd">
        <path d="M19.9674959,6.87833333 L15.4549959,2.36583333 C15.2200999,2.13249732 14.9027528,2.00106771 14.5716626,2 L4.91666259,2 C4.22630666,2 3.66666259,2.55964406 3.66666259,3.25 L3.66666259,20.75 C3.66666259,21.4403559 4.22630666,22 4.91666259,22 L19.9166626,22 C20.1467812,22 20.3333334,21.813452 20.3333334,21.5833333 L20.3333334,7.76166667 C20.3341798,7.43019466 20.2024585,7.11214313 19.9674959,6.87833333 Z M10.1808293,11.3191667 L7.37249593,10.2691667 C6.58761601,9.89489508 6.10995534,9.0801981 6.16666259,8.2125 C6.15914567,7.120479 6.98704178,6.20360847 8.07416259,6.1 C8.17562219,6.0843334 8.25037376,5.996828 8.24999593,5.89416667 L8.24999593,5.33333333 C8.24999593,4.87309604 8.62309197,4.5 9.08332926,4.5 C9.54356655,4.5 9.91666259,4.87309604 9.91666259,5.33333333 L9.91666259,5.85416667 C9.91666259,5.96922599 10.0099366,6.0625 10.1249959,6.0625 L11.1666626,6.0625 C11.6268999,6.0625 11.9999959,6.43559604 11.9999959,6.89583333 C11.9999959,7.35607062 11.6268999,7.72916667 11.1666626,7.72916667 L8.56249593,7.72916667 C7.83332926,7.72916667 7.83332926,8.0925 7.83332926,8.2125 C7.82009464,8.39542786 7.87434781,8.57686469 7.98582926,8.7225 L10.7941626,9.7725 C11.5805254,10.1473439 12.0584623,10.9641636 11.9999959,11.8333333 C12.0053471,12.9237601 11.1780158,13.838198 10.0924959,13.9416667 C9.99103633,13.9573333 9.91628476,14.0448387 9.91666259,14.1475 L9.91666259,14.7083333 C9.91666259,15.1685706 9.54356655,15.5416667 9.08332926,15.5416667 C8.62309197,15.5416667 8.24999593,15.1685706 8.24999593,14.7083333 L8.24999593,14.1875 C8.24999593,14.0724407 8.15672192,13.9791667 8.04166259,13.9791667 L6.99999593,13.9791667 C6.53975863,13.9791667 6.16666259,13.6060706 6.16666259,13.1458333 C6.16666259,12.685596 6.53975863,12.3125 6.99999593,12.3125 L9.60416259,12.3125 C10.3333293,12.3125 10.3333293,11.9491667 10.3333293,11.8291667 C10.3465639,11.6462388 10.2923107,11.464802 10.1808293,11.3191667 Z M17.4166626,14.2916667 C17.7618406,14.2916667 18.0416626,14.5714887 18.0416626,14.9166667 C18.0416626,15.2618446 17.7618406,15.5416667 17.4166626,15.5416667 L13.2499959,15.5416667 C12.904818,15.5416667 12.6249959,15.2618446 12.6249959,14.9166667 C12.6249959,14.5714887 12.904818,14.2916667 13.2499959,14.2916667 L17.4166626,14.2916667 Z M14.2916626,11.1666667 C14.2916626,10.8214887 14.5714846,10.5416667 14.9166626,10.5416667 L17.4166626,10.5416667 C17.7618406,10.5416667 18.0416626,10.8214887 18.0416626,11.1666667 C18.0416626,11.5118446 17.7618406,11.7916667 17.4166626,11.7916667 L14.9166626,11.7916667 C14.5714846,11.7916667 14.2916626,11.5118446 14.2916626,11.1666667 L14.2916626,11.1666667 Z M17.4166626,18.0416667 C17.7618406,18.0416667 18.0416626,18.3214887 18.0416626,18.6666667 C18.0416626,19.0118446 17.7618406,19.2916667 17.4166626,19.2916667 L9.08332926,19.2916667 C8.73815129,19.2916667 8.45832926,19.0118446 8.45832926,18.6666667 C8.45832926,18.3214887 8.73815129,18.0416667 9.08332926,18.0416667 L17.4166626,18.0416667 Z" id="ðŸ–-Color" fill="#5A5A5A"></path>
        <rect id="_Transparent_Rectangle_" fill-opacity="0" fill="#D8D8D8" x="0" y="0" width="24" height="24"></rect>
    </g>
</svg>