<?xml version="1.0" encoding="UTF-8"?>
<svg width="24px" height="24px" viewBox="0 0 24 24" version="1.1" xmlns="http://www.w3.org/2000/svg" xmlns:xlink="http://www.w3.org/1999/xlink">
    <title>3. Finance/accounting_coins_stack</title>
    <g id="3.-Finance/accounting_coins_stack" stroke="none" stroke-width="1" fill="none" fill-rule="evenodd">
        <path d="M10.9507244,18.3874048 L11,18.4 C12.6674278,18.9403335 14.4144264,19.1939301 16.1666667,19.15 L16.1666667,19.15 C17.917745,19.1938211 19.6635836,18.9405111 21.33,18.4008333 C21.3941353,18.3757686 21.4665128,18.3840138 21.5233673,18.4228615 C21.5802218,18.4617093 21.6141667,18.5261409 21.6141667,18.595 L21.6141667,18.595 L21.6141667,20.3883333 C21.6141667,21.0141667 19.175,21.5141667 16.165,21.5141667 C13.155,21.5141667 10.7158333,21.0108333 10.7158333,20.3883333 L10.7158333,20.3883333 L10.7158333,18.5941667 C10.7158333,18.5253075 10.7497782,18.460876 10.8066327,18.4220282 C10.8634872,18.3831804 10.9358647,18.3749353 11,18.4 Z M10.9507244,15.0549048 L11,15.0675 C12.6668978,15.6076468 14.413317,15.8612411 16.165,15.8175 C17.9172402,15.8614301 19.6642389,15.6078335 21.3316667,15.0675 C21.395802,15.0424353 21.4681795,15.0506804 21.525034,15.0895282 C21.5818885,15.128376 21.6158334,15.1928075 21.6158334,15.2616667 L21.6158334,15.2616667 L21.6158334,17.2266667 C21.6158334,17.3038462 21.5732057,17.3747133 21.505,17.4108333 C19.8135288,18.1006517 17.9910106,18.4099051 16.1666667,18.3166667 C14.3417666,18.4101514 12.5186527,18.1008934 10.8266667,17.4108333 C10.7583277,17.3748543 10.7156255,17.3038979 10.7158326,17.2266667 L10.7158326,17.2266667 L10.7158326,15.2616667 C10.7158326,15.1928075 10.7497782,15.128376 10.8066327,15.0895282 C10.8634872,15.0506804 10.9358647,15.0424353 11,15.0675 Z M2.61706081,15.1227925 L2.66666667,15.135 C4.33409445,15.6753335 6.08109309,15.9289301 7.83333333,15.885 C8.16666667,15.885 8.5,15.8775 8.83333333,15.8625 C8.89015723,15.8599973 8.9455337,15.8808367 8.98660948,15.9201814 C9.02768527,15.959526 9.05083565,16.0139544 9.05083565,16.0708333 L9.05083565,16.0708333 L9.05083565,18.0216667 C9.05135679,18.1332624 8.9631902,18.225118 8.85166667,18.2291667 C8.52111111,18.2430556 8.18166667,18.25 7.83333333,18.25 C4.82333333,18.25 2.3841344,17.75 2.3841344,17.1275 L2.3841344,17.1275 L2.3841344,15.3333333 C2.38295107,15.2641692 2.41614508,15.1989121 2.47276033,15.1591646 C2.52937557,15.119417 2.60202784,15.1103631 2.66666667,15.135 Z M2.61748713,11.7928521 L2.66666667,11.805 C4.33409445,12.3453335 6.08109309,12.5989301 7.83333333,12.555 C8.21,12.555 8.58916667,12.5441667 8.96666667,12.5241667 C9.03683142,12.5200725 9.10439243,12.5513507 9.14666667,12.6075 C9.18824773,12.6647177 9.19767918,12.7392261 9.17166667,12.805 C9.08390983,13.0406623 9.04286872,13.2911546 9.05083333,13.5425 L9.05083333,13.5425 L9.05083333,14.8191667 C9.05096158,14.9304312 8.96363641,15.0221594 8.8525,15.0275 C8.52833333,15.0425 8.18916667,15.0516667 7.83333333,15.0516667 C6.00923628,15.1459607 4.18672722,14.8378469 2.495,14.1491667 C2.4269261,14.1133269 2.38426844,14.0427653 2.38416643,13.9658333 L2.38416643,13.9658333 L2.38416643,12 C2.38406281,11.9314232 2.4177139,11.8671874 2.47415116,11.8282307 C2.53058842,11.789274 2.60258256,11.7805866 2.66666667,11.805 Z M16.1666667,12.4166667 C19.1766667,12.4166667 21.6158341,12.9216667 21.6158341,13.5425 L21.6158341,13.5425 L21.6158341,13.8933333 C21.6160412,13.9705646 21.573339,14.0415209 21.505,14.0775 C19.8135288,14.7673184 17.9910106,15.0765718 16.1666667,14.9833333 C14.3423227,15.0765718 12.5198046,14.7673184 10.8283333,14.0775 C10.7599943,14.0415209 10.7172921,13.9705646 10.7174992,13.8933333 L10.7174992,13.8933333 L10.7174992,13.5425 C10.7174992,12.9216667 13.1566667,12.4166667 16.1666667,12.4166667 Z M12.9941667,8.4725 C13.058302,8.44743526 13.1306795,8.45568043 13.187534,8.49452822 C13.2443885,8.533376 13.2783334,8.59780753 13.2783334,8.66666667 L13.2783334,8.66666667 L13.2783334,10.6283333 C13.2781913,10.7056934 13.2351951,10.776605 13.1666667,10.8125 C11.4465869,11.3890592 9.64731629,11.6946541 7.83333333,11.7183333 C6.00923628,11.8126274 4.18672722,11.5045136 2.495,10.8158333 C2.4269261,10.7799936 2.38416667,10.709432 2.38416667,10.6325 L2.38416667,10.6325 L2.38416667,8.66666667 C2.38501374,8.59970943 2.41799394,8.53724064 2.47280526,8.49877366 C2.52761658,8.46030668 2.59757712,8.45053091 2.66083333,8.4725 C4.32826112,9.01283352 6.07525976,9.26643009 7.8275,9.2225 C9.57974024,9.26643009 11.3267389,9.01283352 12.9941667,8.4725 Z M12.9983333,5.13916667 C13.0624687,5.11410192 13.1348462,5.1223471 13.1917007,5.16119488 C13.2485551,5.20004267 13.2825008,5.26447419 13.2825008,5.33333333 L13.2825008,5.33333333 L13.2825008,7.295 C13.2827079,7.37223127 13.2400057,7.44318759 13.1716667,7.47916667 C11.4801954,8.16898503 9.6576773,8.47823842 7.83333333,8.385 C6.00898937,8.47823842 4.18647123,8.16898503 2.495,7.47916667 C2.4269261,7.44332689 2.38416667,7.37276535 2.38416667,7.29583333 L2.38416667,7.29583333 L2.38416667,5.33333333 C2.38453994,5.26532951 2.4180803,5.20178814 2.47401724,5.16311363 C2.52995418,5.12443913 2.60124621,5.11549996 2.665,5.13916667 C4.33242778,5.67950018 6.07942642,5.93309676 7.83166667,5.88916667 C9.58390691,5.93309676 11.3309055,5.67950018 12.9983333,5.13916667 Z M7.83333333,2.485 C10.8433333,2.485 13.2825008,2.99 13.2825008,3.61083333 L13.2825008,3.61083333 L13.2825008,3.96166667 C13.2827079,4.03889793 13.2400057,4.10985426 13.1716667,4.14583333 C11.4801954,4.83565169 9.6576773,5.14490508 7.83333333,5.05166667 C6.00898937,5.14490508 4.18647123,4.83565169 2.495,4.14583333 C2.4269261,4.10999355 2.38416667,4.03943202 2.38416667,3.9625 L2.38416667,3.9625 L2.38416667,3.61083333 C2.38416667,2.99 4.82333333,2.485 7.83333333,2.485 Z" id="ðŸ–-Color" fill="#5A5A5A"></path>
        <rect id="_Transparent_Rectangle_" fill-opacity="0" fill="#D8D8D8" x="-3.06843036e-05" y="-0.000416666667" width="24" height="24"></rect>
    </g>
</svg>