<svg width="24" height="24" viewBox="0 0 24 24" fill="none" xmlns="http://www.w3.org/2000/svg">
<g id="accounting_calculator">
<path id="Shape" fill-rule="evenodd" clip-rule="evenodd" d="M19.5 4.57825C19.5 3.19753 18.3807 2.07825 17 2.07825H7C5.61929 2.07825 4.5 3.19753 4.5 4.57825V19.5782C4.5 20.959 5.61929 22.0782 7 22.0782H17C18.3807 22.0782 19.5 20.959 19.5 19.5782V4.57825ZM12 13.7449C12.4602 13.7449 12.8333 14.118 12.8333 14.5782C12.8333 15.0385 12.4602 15.4116 12 15.4116C11.5398 15.4116 11.1667 15.0385 11.1667 14.5782C11.1667 14.118 11.5398 13.7449 12 13.7449ZM12 9.99491C11.5398 9.99491 11.1667 10.368 11.1667 10.8282C11.1667 11.2885 11.5398 11.6616 12 11.6616C12.4602 11.6616 12.8333 11.2885 12.8333 10.8282C12.8333 10.368 12.4602 9.99491 12 9.99491ZM15.75 17.7032C16.0952 17.7032 16.375 17.9831 16.375 18.3282C16.375 18.6734 16.0952 18.9532 15.75 18.9532H11.1667C10.8215 18.9532 10.5417 18.6734 10.5417 18.3282C10.5417 17.9831 10.8215 17.7032 11.1667 17.7032H15.75ZM14.9167 14.5782C14.9167 15.0385 15.2898 15.4116 15.75 15.4116C16.2102 15.4116 16.5833 15.0385 16.5833 14.5782C16.5833 14.118 16.2102 13.7449 15.75 13.7449C15.2898 13.7449 14.9167 14.118 14.9167 14.5782ZM15.75 11.6616C15.2898 11.6616 14.9167 11.2885 14.9167 10.8282C14.9167 10.368 15.2898 9.99491 15.75 9.99491C16.2102 9.99491 16.5833 10.368 16.5833 10.8282C16.5833 11.2885 16.2102 11.6616 15.75 11.6616ZM7.41667 14.5782C7.41667 15.0385 7.78976 15.4116 8.25 15.4116C8.71024 15.4116 9.08333 15.0385 9.08333 14.5782C9.08333 14.118 8.71024 13.7449 8.25 13.7449C7.78976 13.7449 7.41667 14.118 7.41667 14.5782ZM9.08333 18.3282C9.08333 18.7885 8.71024 19.1616 8.25 19.1616C7.78976 19.1616 7.41667 18.7885 7.41667 18.3282C7.41667 17.868 7.78976 17.4949 8.25 17.4949C8.71024 17.4949 9.08333 17.868 9.08333 18.3282ZM7.41667 10.8282C7.41667 11.2885 7.78976 11.6616 8.25 11.6616C8.71024 11.6616 9.08333 11.2885 9.08333 10.8282C9.08333 10.368 8.71024 9.99491 8.25 9.99491C7.78976 9.99491 7.41667 10.368 7.41667 10.8282ZM7 3.74491H17C17.4602 3.74491 17.8333 4.11801 17.8333 4.57825V7.28658C17.8333 7.40164 17.7401 7.49491 17.625 7.49491H6.375C6.25994 7.49491 6.16667 7.40164 6.16667 7.28658V4.57825C6.16667 4.11801 6.53976 3.74491 7 3.74491ZM15.9583 6.24491C15.9583 6.59009 15.6785 6.86991 15.3333 6.86991C14.9882 6.86991 14.7083 6.59009 14.7083 6.24491V4.99491C14.7083 4.64973 14.9882 4.36991 15.3333 4.36991C15.6785 4.36991 15.9583 4.64973 15.9583 4.99491V6.24491Z" fill="#5A5A5A"/>
</g>
</svg>
