<?xml version="1.0" encoding="UTF-8"?>
<svg width="24px" height="24px" viewBox="0 0 24 24" version="1.1" xmlns="http://www.w3.org/2000/svg" xmlns:xlink="http://www.w3.org/1999/xlink">
    <title>3. Finance/accounting_invoice_mail</title>
    <g id="3.-Finance/accounting_invoice_mail" stroke="none" stroke-width="1" fill="none" fill-rule="evenodd">
        <path d="M17.4166667,1.99992172 C18.3290119,1.99121203 19.0758402,2.72349175 19.085,3.63583333 L19.085,3.63583333 L19.085,12.2783333 C19.085094,12.3539335 19.1261358,12.4235499 19.1922385,12.4602353 C19.2583413,12.4969206 19.3391303,12.494917 19.4033333,12.455 L19.4033333,12.455 L21.3633333,11.23 L21.4437345,11.1912384 C21.5549046,11.1516863 21.6792907,11.1607226 21.785,11.2191667 C21.9175209,11.2924638 22,11.4318928 22,11.5833333 L22,11.5833333 L22,20.3333333 C22,21.2538079 21.2538079,22 20.3333333,22 L20.3333333,22 L3.66666667,22 C2.74619208,22 2,21.2538079 2,20.3333333 L2,20.3333333 L2,11.5833333 C2,11.4318642 2.0821983,11.2923256 2.21467958,11.2188981 C2.34716085,11.1454706 2.50905455,11.1497214 2.6375,11.23 L2.6375,11.23 L4.59833333,12.4558333 C4.66253634,12.4957503 4.74332534,12.4977539 4.80942812,12.4610686 C4.8755309,12.4243833 4.91657263,12.3547668 4.91666667,12.2791667 L4.91666667,12.2791667 L4.91666667,3.63583333 C4.92582824,2.72414845 5.67163632,1.99213782 6.58333333,1.99992172 L6.58333333,1.99992172 Z M16.5833333,3.64083333 L7.41666667,3.66666667 C6.95642938,3.66666667 6.58333333,4.03976271 6.58333333,4.5 L6.58333333,4.5 L6.58333333,13.5833333 C6.58299713,13.6532302 6.6177351,13.7186377 6.67583333,13.7575 L6.67583333,13.7575 L8.3425,14.7966667 C8.3980886,14.8315694 8.43416052,14.890456 8.44,14.9558333 C8.44582953,15.0213241 8.4201487,15.0856809 8.37083333,15.1291667 L8.37083333,15.1291667 L4.91666667,18.1991667 C4.749645,18.3480273 4.67472683,18.5746853 4.72013312,18.7937606 C4.7655394,19.0128359 4.92437184,19.1910459 5.13679979,19.2612606 C5.34922774,19.3314753 5.58297834,19.2830273 5.75,19.1341667 L5.75,19.1341667 L9.26166667,16.0108333 C9.29975988,15.9769293 9.34900422,15.9582402 9.4,15.9583333 L9.4,15.9583333 L14.5983333,15.9583333 C14.6493291,15.9582402 14.6985735,15.9769293 14.7366667,16.0108333 L14.7366667,16.0108333 L18.25,19.1341667 C18.5081931,19.3642853 18.904048,19.3415264 19.1341667,19.0833333 C19.3642853,18.8251402 19.3415264,18.4292853 19.0833333,18.1991667 L19.0833333,18.1991667 L15.6241667,15.1316667 C15.5748513,15.0881809 15.5491705,15.0238241 15.555,14.9583333 C15.5608395,14.892956 15.5969114,14.8340694 15.6525,14.7991667 L15.6525,14.7991667 L17.3191667,13.76 C17.3799201,13.7218294 17.4167567,13.6550826 17.4166667,13.5833333 L17.4166667,13.5833333 L17.4166667,4.47416667 C17.4166667,4.01392938 17.0435706,3.64083333 16.5833333,3.64083333 L16.5833333,3.64083333 Z M11.8958333,4.5 C12.3560706,4.5 12.7291667,4.87309604 12.7291667,5.33333333 L12.7291667,5.33333333 L12.7291667,5.45583333 C12.7291667,5.57089266 12.8224407,5.66416667 12.9375,5.66416667 L12.9375,5.66416667 L13.2933333,5.66416667 C13.7535706,5.66416667 14.1266667,6.03726271 14.1266667,6.4975 C14.1266667,6.95773729 13.7535706,7.33083333 13.2933333,7.33083333 L13.2933333,7.33083333 L11.3991667,7.33083333 C11.2003784,7.33192402 11.0300462,7.47329255 10.9923472,7.66847645 C10.9546481,7.86366035 11.0600829,8.05829229 11.2441667,8.13333333 L11.2441667,8.13333333 L13.1675,8.9025 C14.0085252,9.2365578 14.5365632,10.0765914 14.472955,10.979294 C14.4093469,11.8819967 13.768727,12.6396818 12.8891667,12.8525 C12.7962457,12.8757802 12.7310146,12.9592073 12.7308333,13.055 L12.7308333,13.055 L12.7308333,13.25 C12.7308333,13.7102373 12.3577373,14.0833333 11.8975,14.0833333 C11.4372627,14.0833333 11.0641667,13.7102373 11.0641667,13.25 L11.0641667,13.25 L11.0641667,13.1275 C11.0641667,13.0124407 10.9708927,12.9191667 10.8558333,12.9191667 L10.8558333,12.9191667 L10.5,12.9191667 C10.0397627,12.9191667 9.66666667,12.5460706 9.66666667,12.0858333 C9.66666667,11.625596 10.0397627,11.2525 10.5,11.2525 L10.5,11.2525 L12.3925,11.2525 C12.5912883,11.2514093 12.7616204,11.1100408 12.7993195,10.9148569 C12.8370186,10.719673 12.7315837,10.525041 12.5475,10.45 L12.5475,10.45 L10.6258333,9.68083333 C9.78480811,9.34677553 9.25677016,8.50674195 9.32037832,7.60403932 C9.38398648,6.70133668 10.0246063,5.94365156 10.9041667,5.73083333 C10.9970876,5.70755317 11.0623187,5.62412603 11.0625,5.52833333 L11.0625,5.52833333 L11.0625,5.33333333 C11.0625,4.87309604 11.435596,4.5 11.8958333,4.5 Z" id="ðŸ–-Color" fill="#5A5A5A"></path>
        <rect id="_Transparent_Rectangle_" fill-opacity="0" fill="#D8D8D8" x="0" y="0.0782455328" width="24" height="24"></rect>
    </g>
</svg>