<?xml version="1.0" encoding="UTF-8"?>
<svg width="24px" height="24px" viewBox="0 0 24 24" version="1.1" xmlns="http://www.w3.org/2000/svg" xmlns:xlink="http://www.w3.org/1999/xlink">
    <title>3. Finance/accounting_bill</title>
    <g id="3.-Finance/accounting_bill" stroke="none" stroke-width="1" fill="none" fill-rule="evenodd">
        <path d="M20.75,5.75 L3.25,5.75 C2.78976271,5.75 2.41666667,6.12309604 2.41666667,6.58333333 L2.41666667,17.4166667 C2.41666667,17.876904 2.78976271,18.25 3.25,18.25 L20.75,18.25 C21.2102373,18.25 21.5833333,17.876904 21.5833333,17.4166667 L21.5833333,6.58333333 C21.5833333,6.12309604 21.2102373,5.75 20.75,5.75 Z M4.91666667,9.08333333 C4.45642938,9.08333333 4.08333333,8.71023729 4.08333333,8.25 C4.08333333,7.78976271 4.45642938,7.41666667 4.91666667,7.41666667 C5.37690396,7.41666667 5.75,7.78976271 5.75,8.25 C5.75,8.71023729 5.37690396,9.08333333 4.91666667,9.08333333 Z M12,14.5 C10.6192881,14.5 9.5,13.3807119 9.5,12 C9.5,10.6192881 10.6192881,9.5 12,9.5 C13.3807119,9.5 14.5,10.6192881 14.5,12 C14.5,12.6630412 14.2366079,13.298926 13.767767,13.767767 C13.298926,14.2366079 12.6630412,14.5 12,14.5 Z M19.0833333,16.5833333 C18.623096,16.5833333 18.25,16.2102373 18.25,15.75 C18.25,15.2897627 18.623096,14.9166667 19.0833333,14.9166667 C19.5435706,14.9166667 19.9166667,15.2897627 19.9166667,15.75 C19.9166667,16.2102373 19.5435706,16.5833333 19.0833333,16.5833333 Z" id="ðŸ–-Color" fill="#5A5A5A"></path>
        <rect id="_Transparent_Rectangle_" fill-opacity="0" fill="#D8D8D8" x="0" y="0.0782455328" width="24" height="24"></rect>
    </g>
</svg>