<?xml version="1.0" encoding="UTF-8"?>
<svg width="24px" height="24px" viewBox="0 0 24 24" version="1.1" xmlns="http://www.w3.org/2000/svg" xmlns:xlink="http://www.w3.org/1999/xlink">
    <title>3. Finance/accounting_calculator</title>
    <g id="3.-Finance/accounting_calculator" stroke="none" stroke-width="1" fill="none" fill-rule="evenodd">
        <path d="M17,2.07824553 C18.3807119,2.07824553 19.5,3.19753366 19.5,4.57824553 L19.5,4.57824553 L19.5,19.5782455 C19.5,20.9589574 18.3807119,22.0782455 17,22.0782455 L17,22.0782455 L7,22.0782455 C5.61928813,22.0782455 4.5,20.9589574 4.5,19.5782455 L4.5,19.5782455 L4.5,4.57824553 C4.5,3.19753366 5.61928813,2.07824553 7,2.07824553 L7,2.07824553 Z M8.25,17.4949122 C7.78976271,17.4949122 7.41666667,17.8680082 7.41666667,18.3282455 C7.41666667,18.7884828 7.78976271,19.1615789 8.25,19.1615789 C8.71023729,19.1615789 9.08333333,18.7884828 9.08333333,18.3282455 C9.08333333,17.8680082 8.71023729,17.4949122 8.25,17.4949122 Z M15.75,17.7032455 L11.1666667,17.7032455 C10.8214887,17.7032455 10.5416667,17.9830676 10.5416667,18.3282455 C10.5416667,18.6734235 10.8214887,18.9532455 11.1666667,18.9532455 L11.1666667,18.9532455 L15.75,18.9532455 C16.095178,18.9532455 16.375,18.6734235 16.375,18.3282455 C16.375,17.9830676 16.095178,17.7032455 15.75,17.7032455 L15.75,17.7032455 Z M12,13.7449122 C11.5397627,13.7449122 11.1666667,14.1180082 11.1666667,14.5782455 C11.1666667,15.0384828 11.5397627,15.4115789 12,15.4115789 C12.4602373,15.4115789 12.8333333,15.0384828 12.8333333,14.5782455 C12.8333333,14.1180082 12.4602373,13.7449122 12,13.7449122 Z M15.75,13.7449122 C15.2897627,13.7449122 14.9166667,14.1180082 14.9166667,14.5782455 C14.9166667,15.0384828 15.2897627,15.4115789 15.75,15.4115789 C16.2102373,15.4115789 16.5833333,15.0384828 16.5833333,14.5782455 C16.5833333,14.1180082 16.2102373,13.7449122 15.75,13.7449122 Z M8.25,13.7449122 C7.78976271,13.7449122 7.41666667,14.1180082 7.41666667,14.5782455 C7.41666667,15.0384828 7.78976271,15.4115789 8.25,15.4115789 C8.71023729,15.4115789 9.08333333,15.0384828 9.08333333,14.5782455 C9.08333333,14.1180082 8.71023729,13.7449122 8.25,13.7449122 Z M12,9.9949122 C11.5397627,9.9949122 11.1666667,10.3680082 11.1666667,10.8282455 C11.1666667,11.2884828 11.5397627,11.6615789 12,11.6615789 C12.4602373,11.6615789 12.8333333,11.2884828 12.8333333,10.8282455 C12.8333333,10.3680082 12.4602373,9.9949122 12,9.9949122 Z M15.75,9.9949122 C15.2897627,9.9949122 14.9166667,10.3680082 14.9166667,10.8282455 C14.9166667,11.2884828 15.2897627,11.6615789 15.75,11.6615789 C16.2102373,11.6615789 16.5833333,11.2884828 16.5833333,10.8282455 C16.5833333,10.3680082 16.2102373,9.9949122 15.75,9.9949122 Z M8.25,9.9949122 C7.78976271,9.9949122 7.41666667,10.3680082 7.41666667,10.8282455 C7.41666667,11.2884828 7.78976271,11.6615789 8.25,11.6615789 C8.71023729,11.6615789 9.08333333,11.2884828 9.08333333,10.8282455 C9.08333333,10.3680082 8.71023729,9.9949122 8.25,9.9949122 Z M17,3.7449122 L7,3.7449122 C6.53976271,3.7449122 6.16666667,4.11800824 6.16666667,4.57824553 L6.16666667,4.57824553 L6.16666667,7.28657887 C6.16666667,7.40163819 6.25994068,7.4949122 6.375,7.4949122 L6.375,7.4949122 L17.625,7.4949122 C17.7400593,7.4949122 17.8333333,7.40163819 17.8333333,7.28657887 L17.8333333,7.28657887 L17.8333333,4.57824553 C17.8333333,4.11800824 17.4602373,3.7449122 17,3.7449122 L17,3.7449122 Z M15.3333333,4.3699122 C15.6785113,4.3699122 15.9583333,4.64973423 15.9583333,4.9949122 L15.9583333,4.9949122 L15.9583333,6.2449122 C15.9583333,6.59009017 15.6785113,6.8699122 15.3333333,6.8699122 C14.9881554,6.8699122 14.7083333,6.59009017 14.7083333,6.2449122 L14.7083333,6.2449122 L14.7083333,4.9949122 C14.7083333,4.64973423 14.9881554,4.3699122 15.3333333,4.3699122 Z" id="ðŸ–-Color" fill="#5A5A5A"></path>
        <rect id="_Transparent_Rectangle_" fill-opacity="0" fill="#D8D8D8" x="0" y="0.0782455328" width="24" height="24"></rect>
    </g>
</svg>