<svg width="24" height="24" viewBox="0 0 24 24" fill="none" xmlns="http://www.w3.org/2000/svg">
<g id="accounting_bill">
<path id="Shape" fill-rule="evenodd" clip-rule="evenodd" d="M3.24984 5.75H20.7498C21.2101 5.75 21.5832 6.1231 21.5832 6.58333V17.4167C21.5832 17.8769 21.2101 18.25 20.7498 18.25H3.24984C2.7896 18.25 2.4165 17.8769 2.4165 17.4167V6.58333C2.4165 6.1231 2.7896 5.75 3.24984 5.75ZM4.08317 8.25C4.08317 8.71024 4.45627 9.08333 4.9165 9.08333C5.37674 9.08333 5.74984 8.71024 5.74984 8.25C5.74984 7.78976 5.37674 7.41667 4.9165 7.41667C4.45627 7.41667 4.08317 7.78976 4.08317 8.25ZM11.9998 14.5C10.6191 14.5 9.49984 13.3807 9.49984 12C9.49984 10.6193 10.6191 9.5 11.9998 9.5C13.3805 9.5 14.4998 10.6193 14.4998 12C14.4998 12.663 14.2364 13.2989 13.7676 13.7678C13.2988 14.2366 12.6629 14.5 11.9998 14.5ZM18.2498 15.75C18.2498 16.2102 18.6229 16.5833 19.0832 16.5833C19.5434 16.5833 19.9165 16.2102 19.9165 15.75C19.9165 15.2898 19.5434 14.9167 19.0832 14.9167C18.6229 14.9167 18.2498 15.2898 18.2498 15.75Z" fill="#5A5A5A"/>
</g>
</svg>
