<svg width="24" height="24" viewBox="0 0 24 24" fill="none" xmlns="http://www.w3.org/2000/svg">
<g id="calculator_app">
<path id="Shape" fill-rule="evenodd" clip-rule="evenodd" d="M10.7502 11.375C10.8652 11.375 10.9585 11.2817 10.9585 11.1667V2.41667C10.9585 2.30161 10.8652 2.20833 10.7502 2.20833H5.3335C3.60856 2.21063 2.21079 3.6084 2.2085 5.33333V11.1667C2.2085 11.2817 2.30177 11.375 2.41683 11.375H10.7502ZM8.66683 8.04167H7.41683C7.30177 8.04167 7.2085 8.13494 7.2085 8.25V9.5C7.2085 9.84518 6.92867 10.125 6.5835 10.125C6.23832 10.125 5.9585 9.84518 5.9585 9.5V8.25C5.9585 8.13494 5.86522 8.04167 5.75016 8.04167H4.50016C4.15498 8.04167 3.87516 7.76185 3.87516 7.41667C3.87516 7.07149 4.15498 6.79167 4.50016 6.79167H5.75016C5.86522 6.79167 5.9585 6.69839 5.9585 6.58333V5.33333C5.9585 4.98816 6.23832 4.70833 6.5835 4.70833C6.92867 4.70833 7.2085 4.98816 7.2085 5.33333V6.58333C7.2085 6.69839 7.30177 6.79167 7.41683 6.79167H8.66683C9.01201 6.79167 9.29183 7.07149 9.29183 7.41667C9.29183 7.76185 9.01201 8.04167 8.66683 8.04167ZM12.2085 11.1667C12.2085 11.2817 12.3018 11.375 12.4168 11.375H21.5835C21.6986 11.375 21.7918 11.2817 21.7918 11.1667V5.33333C21.7895 3.6084 20.3918 2.21063 18.6668 2.20833H12.4168C12.3018 2.20833 12.2085 2.30161 12.2085 2.41667V11.1667ZM18.6668 8.04167H14.5002C14.155 8.04167 13.8752 7.76185 13.8752 7.41667C13.8752 7.07149 14.155 6.79167 14.5002 6.79167H18.6668C19.012 6.79167 19.2918 7.07149 19.2918 7.41667C19.2918 7.76185 19.012 8.04167 18.6668 8.04167ZM10.7502 12.625C10.8652 12.625 10.9585 12.7183 10.9585 12.8333V21.5833C10.9585 21.6984 10.8652 21.7917 10.7502 21.7917H5.3335C3.60856 21.7894 2.21079 20.3916 2.2085 18.6667V12.8333C2.2085 12.7183 2.30177 12.625 2.41683 12.625H10.7502ZM4.29567 14.7464C4.23912 14.9679 4.30795 15.2025 4.47516 15.3583L5.55266 16.4358C5.63336 16.5176 5.63336 16.6491 5.55266 16.7308L4.47516 17.8083C4.2457 18.0546 4.25247 18.4383 4.49048 18.6764C4.72849 18.9144 5.11224 18.9211 5.3585 18.6917L6.436 17.6142C6.51777 17.5335 6.64922 17.5335 6.731 17.6142L7.8085 18.6917C7.9643 18.8589 8.19896 18.9277 8.4204 18.8712C8.64185 18.8146 8.81476 18.6417 8.87132 18.4202C8.92787 18.1988 8.85904 17.9641 8.69183 17.8083L7.61433 16.7308C7.53363 16.6491 7.53363 16.5176 7.61433 16.4358L8.69183 15.3583C8.85904 15.2025 8.92787 14.9679 8.87132 14.7464C8.81476 14.525 8.64185 14.3521 8.4204 14.2955C8.19896 14.239 7.9643 14.3078 7.8085 14.475L6.731 15.5525C6.64922 15.6332 6.51777 15.6332 6.436 15.5525L5.3585 14.475C5.20269 14.3078 4.96803 14.239 4.74659 14.2955C4.52514 14.3521 4.35223 14.525 4.29567 14.7464ZM12.2085 12.8333C12.2085 12.7183 12.3018 12.625 12.4168 12.625H21.5835C21.6986 12.625 21.7918 12.7183 21.7918 12.8333V18.6667C21.7895 20.3916 20.3918 21.7894 18.6668 21.7917H12.4168C12.3018 21.7917 12.2085 21.6984 12.2085 21.5833V12.8333ZM14.5002 15.125C14.155 15.125 13.8752 15.4048 13.8752 15.75C13.8752 16.0952 14.155 16.375 14.5002 16.375H18.6668C19.012 16.375 19.2918 16.0952 19.2918 15.75C19.2918 15.4048 19.012 15.125 18.6668 15.125H14.5002ZM14.5002 17.625H18.6668C19.012 17.625 19.2918 17.9048 19.2918 18.25C19.2918 18.5952 19.012 18.875 18.6668 18.875H14.5002C14.155 18.875 13.8752 18.5952 13.8752 18.25C13.8752 17.9048 14.155 17.625 14.5002 17.625Z" fill="#5A5A5A"/>
</g>
</svg>
