<?xml version="1.0" encoding="UTF-8"?>
<svg width="24px" height="24px" viewBox="0 0 24 24" version="1.1" xmlns="http://www.w3.org/2000/svg" xmlns:xlink="http://www.w3.org/1999/xlink">
    <title>3. Finance/calculator_app</title>
    <g id="3.-Finance/calculator_app" stroke="none" stroke-width="1" fill="none" fill-rule="evenodd">
        <path d="M10.75,12.625 C10.8650593,12.625 10.9583333,12.718274 10.9583333,12.8333333 L10.9583333,12.8333333 L10.9583333,21.5833333 C10.9583333,21.6983927 10.8650593,21.7916667 10.75,21.7916667 L10.75,21.7916667 L5.33333333,21.7916667 C3.60839514,21.7893713 2.21062866,20.3916049 2.20833333,18.6666667 L2.20833333,18.6666667 L2.20833333,12.8333333 C2.20833333,12.718274 2.30160734,12.625 2.41666667,12.625 L2.41666667,12.625 Z M21.5833333,12.625 C21.6983927,12.625 21.7916667,12.718274 21.7916667,12.8333333 L21.7916667,12.8333333 L21.7916667,18.6666667 C21.7893713,20.3916049 20.3916049,21.7893713 18.6666667,21.7916667 L18.6666667,21.7916667 L12.4166667,21.7916667 C12.3016073,21.7916667 12.2083333,21.6983927 12.2083333,21.5833333 L12.2083333,21.5833333 L12.2083333,12.8333333 C12.2083333,12.718274 12.3016073,12.625 12.4166667,12.625 L12.4166667,12.625 Z M8.42024076,14.295512 C8.19879629,14.238959 7.96414215,14.307789 7.80833333,14.475 L7.80833333,14.475 L6.73083333,15.5525 C6.64905539,15.6331957 6.51761127,15.6331957 6.43583333,15.5525 L6.43583333,15.5525 L5.35833333,14.475 C5.20252452,14.307789 4.96787038,14.238959 4.74642591,14.295512 C4.52498144,14.3520651 4.35206508,14.5249814 4.29551205,14.7464259 C4.23895902,14.9678704 4.30778902,15.2025245 4.475,15.3583333 L4.475,15.3583333 L5.5525,16.4358333 C5.63319565,16.5176113 5.63319565,16.6490554 5.5525,16.7308333 L5.5525,16.7308333 L4.475,17.8083333 C4.24553428,18.0545915 4.2523051,18.4383414 4.49031517,18.6763515 C4.72832523,18.9143616 5.1120752,18.9211324 5.35833333,18.6916667 L5.35833333,18.6916667 L6.43583333,17.6141667 C6.51761127,17.533471 6.64905539,17.533471 6.73083333,17.6141667 L6.73083333,17.6141667 L7.80833333,18.6916667 C7.96414215,18.8588776 8.19879629,18.9277077 8.42024076,18.8711546 C8.64168523,18.8146016 8.81460159,18.6416852 8.87115462,18.4202408 C8.92770765,18.1987963 8.85887765,17.9641422 8.69166667,17.8083333 L8.69166667,17.8083333 L7.61416667,16.7308333 C7.53347101,16.6490554 7.53347101,16.5176113 7.61416667,16.4358333 L7.61416667,16.4358333 L8.69166667,15.3583333 C8.85887765,15.2025245 8.92770765,14.9678704 8.87115462,14.7464259 C8.81460159,14.5249814 8.64168523,14.3520651 8.42024076,14.295512 Z M18.6666667,17.625 L14.5,17.625 C14.154822,17.625 13.875,17.904822 13.875,18.25 C13.875,18.595178 14.154822,18.875 14.5,18.875 L14.5,18.875 L18.6666667,18.875 C19.0118446,18.875 19.2916667,18.595178 19.2916667,18.25 C19.2916667,17.904822 19.0118446,17.625 18.6666667,17.625 L18.6666667,17.625 Z M18.6666667,15.125 L14.5,15.125 C14.154822,15.125 13.875,15.404822 13.875,15.75 C13.875,16.095178 14.154822,16.375 14.5,16.375 L14.5,16.375 L18.6666667,16.375 C19.0118446,16.375 19.2916667,16.095178 19.2916667,15.75 C19.2916667,15.404822 19.0118446,15.125 18.6666667,15.125 L18.6666667,15.125 Z M10.75,2.20833333 C10.8650593,2.20833333 10.9583333,2.30160734 10.9583333,2.41666667 L10.9583333,2.41666667 L10.9583333,11.1666667 C10.9583333,11.281726 10.8650593,11.375 10.75,11.375 L10.75,11.375 L2.41666667,11.375 C2.30160734,11.375 2.20833333,11.281726 2.20833333,11.1666667 L2.20833333,11.1666667 L2.20833333,5.33333333 C2.21062866,3.60839514 3.60839514,2.21062866 5.33333333,2.20833333 L5.33333333,2.20833333 Z M18.6666667,2.20833333 C20.3916049,2.21062866 21.7893713,3.60839514 21.7916667,5.33333333 L21.7916667,5.33333333 L21.7916667,11.1666667 C21.7916667,11.281726 21.6983927,11.375 21.5833333,11.375 L21.5833333,11.375 L12.4166667,11.375 C12.3016073,11.375 12.2083333,11.281726 12.2083333,11.1666667 L12.2083333,11.1666667 L12.2083333,2.41666667 C12.2083333,2.30160734 12.3016073,2.20833333 12.4166667,2.20833333 L12.4166667,2.20833333 Z M6.58333333,4.70833335 C6.23815537,4.70833335 5.95833334,4.98815537 5.95833333,5.33333333 L5.95833333,5.33333333 L5.95833333,6.58333333 C5.95833333,6.69839266 5.86505932,6.79166667 5.75,6.79166667 L5.75,6.79166667 L4.5,6.79166667 C4.15482203,6.79166667 3.875,7.0714887 3.875,7.41666667 C3.875,7.76184464 4.15482203,8.04166667 4.5,8.04166667 L4.5,8.04166667 L5.75,8.04166667 C5.86505932,8.04166667 5.95833333,8.13494068 5.95833333,8.25 L5.95833333,8.25 L5.95833333,9.5 C5.95833334,9.84517796 6.23815537,10.125 6.58333333,10.125 C6.92851129,10.125 7.20833332,9.84517796 7.20833333,9.5 L7.20833333,9.5 L7.20833333,8.25 C7.20833333,8.13494068 7.30160734,8.04166667 7.41666667,8.04166667 L7.41666667,8.04166667 L8.66666667,8.04166667 C9.01184464,8.04166667 9.29166667,7.76184464 9.29166667,7.41666667 C9.29166667,7.0714887 9.01184464,6.79166667 8.66666667,6.79166667 L8.66666667,6.79166667 L7.41666667,6.79166667 C7.30160734,6.79166667 7.20833333,6.69839266 7.20833333,6.58333333 L7.20833333,6.58333333 L7.20833333,5.33333333 C7.20833332,4.98815537 6.92851129,4.70833335 6.58333333,4.70833335 Z M18.6666667,6.79166667 L14.5,6.79166667 C14.154822,6.79166667 13.875,7.0714887 13.875,7.41666667 C13.875,7.76184464 14.154822,8.04166667 14.5,8.04166667 L14.5,8.04166667 L18.6666667,8.04166667 C19.0118446,8.04166667 19.2916667,7.76184464 19.2916667,7.41666667 C19.2916667,7.0714887 19.0118446,6.79166667 18.6666667,6.79166667 L18.6666667,6.79166667 Z" id="ðŸ–-Color" fill="#5A5A5A"></path>
        <rect id="_Transparent_Rectangle_" fill-opacity="0" fill="#D8D8D8" x="0" y="0" width="24" height="24"></rect>
    </g>
</svg>