<?xml version="1.0" encoding="UTF-8"?>
<svg width="24px" height="24px" viewBox="0 0 24 24" version="1.1" xmlns="http://www.w3.org/2000/svg" xmlns:xlink="http://www.w3.org/1999/xlink">
    <title>3. Finance/cash_payment_person</title>
    <g id="3.-Finance/cash_payment_person" stroke="none" stroke-width="1" fill="none" fill-rule="evenodd">
        <path d="M8.32628199,2.01854807 C10.4753725,2.00111487 12.3668746,3.43287413 12.9333898,5.50602637 C13.499905,7.57917861 12.5993831,9.7738939 10.74,10.8516667 C10.6708745,10.8919048 10.6308886,10.9681655 10.6371046,11.0479076 C10.6433206,11.1276497 10.6946409,11.1967929 10.7691667,11.2258333 C11.5357583,11.5244885 12.2379038,11.9675022 12.8375,12.5308333 C12.8854582,12.575718 12.9517155,12.5954672 13.0164215,12.5841641 C13.0811274,12.572861 13.1367655,12.5318187 13.1666667,12.4733333 L13.1666667,12.4733333 L13.6808333,11.4541667 L13.7488195,11.3359561 C14.0918899,10.8077883 14.785032,10.6120245 15.36,10.9025 L15.36,10.9025 L21.2883333,13.895 C21.5843825,14.0439966 21.8087475,14.304956 21.9116667,14.62 C22.0169326,14.9352504 21.9914183,15.2795431 21.8408333,15.5758333 L21.8408333,15.5758333 L19.97,19.2816667 C19.8686976,19.4780404 19.7164325,19.6435459 19.5291667,19.7608333 C19.4690999,19.7991548 19.4326714,19.8654169 19.4325,19.9366667 L19.4325,19.9366667 L19.4325,20.7325 C19.4325,21.4228559 18.8728559,21.9825 18.1825,21.9825 L18.1825,21.9825 L11.5416667,21.9825 C10.8513107,21.9825 10.2916667,21.4228559 10.2916667,20.7325 L10.2916667,20.7325 L10.2916667,17.8391667 C10.2916667,17.7241073 10.1983927,17.6308333 10.0833333,17.6308333 L10.0833333,17.6308333 L2.44166667,17.6308333 C2.21154802,17.6308333 2.025,17.4442853 2.025,17.2141667 C2.02825414,14.6004467 3.61293182,12.2486282 6.03416667,11.2641667 C6.10800835,11.2338713 6.15805111,11.1640512 6.16301877,11.0843911 C6.16798644,11.004731 6.12700573,10.9292347 6.0575,10.89 C4.1807209,9.84281336 3.24438798,7.6631355 3.77688574,5.58098618 C4.3093835,3.49883687 6.17719146,2.03630197 8.32628199,2.01854807 Z M17.5575,17 L12.1666667,17 C12.0532151,17 11.9606024,17.0907378 11.9583333,17.2041667 L11.9583333,17.2041667 L11.9583333,20.1075 C11.9583333,20.2225593 12.0516073,20.3158333 12.1666667,20.3158333 L12.1666667,20.3158333 L17.5575,20.32 C17.6725593,20.32 17.7658333,20.226726 17.7658333,20.1116667 L17.7658333,20.1116667 L17.7658333,17.2083333 C17.7658333,17.093274 17.6725593,17 17.5575,17 L17.5575,17 Z M14.9425,17.8983333 C15.4027373,17.8983333 15.7758333,18.2714294 15.7758333,18.7316667 C15.7758333,19.191904 15.4027373,19.565 14.9425,19.565 C14.4822627,19.565 14.1091667,19.191904 14.1091667,18.7316667 C14.1091667,18.2714294 14.4822627,17.8983333 14.9425,17.8983333 Z M15.0614928,12.6533858 L15.0079547,12.6634111 C14.9555144,12.6806303 14.912141,12.7181108 14.8875,12.7675 L14.8875,12.7675 L13.745,15.0308333 C13.7122744,15.0954169 13.7154262,15.1723599 13.7533244,15.2340505 C13.7912225,15.2957412 13.8584317,15.333332 13.9308333,15.3333333 L13.9308333,15.3333333 L18.1808333,15.3333333 C18.5124983,15.3331122 18.8306548,15.4647107 19.0652556,15.6991551 C19.2998563,15.9335995 19.4316667,16.2516683 19.4316667,16.5833333 C19.4314969,16.5909259 19.436742,16.5975697 19.4441667,16.5991667 C19.4514549,16.6008123 19.4589477,16.5974065 19.4625,16.5908333 L19.4625,16.5908333 L20.0708333,15.385 C20.122345,15.2823297 20.0814224,15.1573298 19.9791667,15.105 L19.9791667,15.105 L15.1666667,12.6758333 C15.1175441,12.650665 15.0603949,12.646192 15.0079547,12.6634111 Z M8.44916667,12.9733333 C8.1039887,12.9733333 7.82416667,13.2531554 7.82416667,13.5983333 L7.82416667,13.5983333 L7.82416667,15 C7.82416667,15.345178 8.1039887,15.625 8.44916667,15.625 C8.79434464,15.625 9.07416667,15.345178 9.07416667,15 L9.07416667,15 L9.07416667,13.5983333 C9.07416667,13.2531554 8.79434464,12.9733333 8.44916667,12.9733333 Z M5.7370847,5.46231409 L5.675,5.47 C5.61375894,5.48699493 5.5635092,5.53081026 5.53833333,5.58916667 C5.37982343,5.95777733 5.29734327,6.35458911 5.29583333,6.75583333 L5.29583333,6.75583333 C5.29333333,8.45226797 6.66856536,9.82749995 8.365,9.82749995 C10.0614346,9.82749995 11.4366679,8.45226797 11.4366679,6.75583333 C11.4368798,6.69599829 11.4094936,6.63940689 11.3624382,6.60244646 C11.3153829,6.56548603 11.2539148,6.55228524 11.1958333,6.56666667 C10.6956191,6.69123551 10.1821572,6.75475368 9.66666667,6.75583333 C8.29450097,6.75492093 6.95848679,6.31581137 5.85333333,5.5025 C5.80211602,5.46466539 5.73627146,5.45266568 5.675,5.47 Z" id="ðŸ–-Color" fill="#5A5A5A"></path>
        <rect id="_Transparent_Rectangle_" fill-opacity="0" fill="#D8D8D8" x="0.00029540511" y="0" width="24" height="24"></rect>
    </g>
</svg>