<svg width="24" height="24" viewBox="0 0 24 24" fill="none" xmlns="http://www.w3.org/2000/svg">
<g id="cash_payment_sign_1">
<path id="Shape" fill-rule="evenodd" clip-rule="evenodd" d="M6.59167 10.9442C6.60716 10.8633 6.64666 10.789 6.705 10.7308L13.1667 4.27251C13.7901 3.64981 14.8002 3.65037 15.4229 4.27376C16.0456 4.89715 16.0451 5.90731 15.4217 6.53001L8.96333 12.9883C8.90536 13.047 8.83099 13.0868 8.75 13.1025L6.66667 13.5192C6.63926 13.5249 6.61133 13.5277 6.58333 13.5275C6.4582 13.5275 6.33968 13.4713 6.26053 13.3744C6.18137 13.2775 6.14997 13.1501 6.175 13.0275L6.59167 10.9442ZM22 9.77584C22 9.08549 21.4404 8.52584 20.75 8.52584H15.2767C15.2214 8.52565 15.1683 8.54755 15.1292 8.58668L9.845 13.8708C9.61256 14.1034 9.31653 14.262 8.99417 14.3267C8.20237 14.534 7.39668 14.6841 6.58333 14.7758C6.0839 14.7758 5.61079 14.5519 5.29423 14.1656C4.97767 13.7793 4.85103 13.2714 4.94917 12.7817L5.36583 10.6983C5.43053 10.376 5.58912 10.0799 5.82167 9.84751L6.7875 8.88168C6.84724 8.82209 6.86514 8.73235 6.83283 8.6544C6.80052 8.57645 6.72438 8.52569 6.64 8.52584H3.25C2.55964 8.52584 2 9.08549 2 9.77584V18.9425C2 19.6329 2.55964 20.1925 3.25 20.1925H20.75C21.4404 20.1925 22 19.6329 22 18.9425V9.77584ZM12.4167 16.2342H19.0833C19.4285 16.2342 19.7083 16.514 19.7083 16.8592C19.7083 17.2044 19.4285 17.4842 19.0833 17.4842H12.4167C12.0715 17.4842 11.7917 17.2044 11.7917 16.8592C11.7917 16.514 12.0715 16.2342 12.4167 16.2342Z" fill="#5A5A5A"/>
</g>
</svg>
