<?xml version="1.0" encoding="UTF-8"?>
<svg width="24px" height="24px" viewBox="0 0 24 24" version="1.1" xmlns="http://www.w3.org/2000/svg" xmlns:xlink="http://www.w3.org/1999/xlink">
    <title>3. Finance/cash_payment_bag_1</title>
    <g id="3.-Finance/cash_payment_bag_1" stroke="none" stroke-width="1" fill="none" fill-rule="evenodd">
        <path d="M16.5979167,11.2744347 C16.6554727,11.2744347 16.7104854,11.2981515 16.75,11.34 C17.8333333,12.5075 19.5,14.8225 19.5,17.4075 C19.5,20.1483333 16.6458333,21.375 13.8183333,21.375 C11.25,21.375 8.25,20.3358333 8.25,17.4075 C8.35784088,15.320494 9.17651479,13.3332102 10.57,11.7758333 C10.6197048,11.7173817 10.6974231,11.690836 10.7725,11.7066667 C11.0391625,11.7646859 11.3112654,11.7940194 11.5841667,11.7941667 L11.5841667,11.7941667 L14.9175,11.7941667 C15.468675,11.8712316 16.0261902,11.7055578 16.4458333,11.34 C16.4853479,11.2981515 16.5403606,11.2744347 16.5979167,11.2744347 Z M14.0841667,12.8333333 C13.7389887,12.8333333 13.4591667,13.1131554 13.4591667,13.4583333 L13.4591667,13.4583333 L13.4591667,13.5725 C13.4591554,13.6799857 13.3770653,13.7696699 13.27,13.7791667 C12.9608442,13.7931554 12.6713064,13.9346273 12.4702819,14.169919 C12.2692575,14.4052107 12.1747208,14.7132842 12.2091667,15.0208333 C12.2091667,15.7625 12.9508333,16.2608333 13.735,16.7891667 L13.735,16.7891667 C13.8816667,16.8883333 14.0716667,17.0158333 14.245,17.15 C14.3167384,17.2038038 14.3459994,17.2974762 14.3176424,17.3825475 C14.2892853,17.4676187 14.209673,17.525 14.12,17.525 L14.12,17.525 L12.8333333,17.525 C12.4881554,17.525 12.2083333,17.804822 12.2083333,18.15 C12.2083333,18.495178 12.4881554,18.775 12.8333333,18.775 L12.8333333,18.775 L13.25,18.775 C13.3650593,18.775 13.4583333,18.868274 13.4583333,18.9833333 L13.4583333,18.9833333 L13.4583333,19.0875 C13.4583333,19.432678 13.7381554,19.7125 14.0833333,19.7125 C14.4285113,19.7125 14.7083333,19.432678 14.7083333,19.0875 L14.7083333,19.0875 L14.7083333,18.9208333 C14.708071,18.8394232 14.7705184,18.7715298 14.8516667,18.765 C15.1664498,18.7551675 15.4633325,18.6162981 15.6726432,18.3809811 C15.881954,18.1456641 15.9852656,17.8346163 15.9583333,17.5208333 C15.9583333,16.7791667 15.2166667,16.28 14.4325,15.7516667 C14.2841667,15.6491667 14.0916667,15.5233333 13.9175,15.3991667 C13.84354,15.3467741 13.8119404,15.2525746 13.8393433,15.1661794 C13.8667462,15.0797841 13.9468632,15.021019 14.0375,15.0208333 L14.0375,15.0208333 L15.3333333,15.0208333 C15.6785113,15.0208333 15.9583333,14.7410113 15.9583333,14.3958333 C15.9583333,14.0506554 15.6785113,13.7708333 15.3333333,13.7708333 L15.3333333,13.7708333 L14.9175,13.7708333 C14.8024407,13.7708333 14.7091667,13.6775593 14.7091667,13.5625 L14.7091667,13.5625 L14.7091667,13.4583333 C14.7091667,13.1131554 14.4293446,12.8333333 14.0841667,12.8333333 Z M10.8065512,4.45256591 C10.8752644,4.45411308 10.9388574,4.48927141 10.9766667,4.54666667 L10.9766667,4.54666667 L11.835,5.86333333 C11.8735519,5.92251598 11.9393684,5.95824492 12.01,5.95833333 L12.01,5.95833333 L15.7499983,5.95833333 C16.5833333,5.95833333 17,6.375 17,6.79166667 C17,6.79166667 16.5833333,8.875 16.1666667,10.125 C15.9033333,10.9158333 15.7499983,10.9583333 14.9166667,10.9583333 L11.5833333,10.9583333 C10.6225,10.9583333 9.92166667,10.5475 8.365,9.76916667 C8.29450969,9.73406227 8.24999833,9.66208104 8.24999833,9.58333333 L8.24999833,9.58333333 L8.24999833,6.16666667 C8.24977841,6.11126899 8.27162989,6.05806425 8.31072401,6.01881375 C8.34981813,5.97956325 8.40293521,5.95749956 8.45833333,5.9575 L8.45833333,5.9575 L9.08333333,5.9575 C9.40846785,5.94633179 9.71265139,5.79424002 9.91666667,5.54083333 L9.91666667,5.54083333 L10.6325,4.53916667 C10.6727737,4.48347298 10.7378379,4.45111832 10.8065512,4.45256591 Z M6.58333333,5.54166667 C6.69581294,5.53477041 6.80584809,5.57644968 6.88553254,5.65613413 C6.96521698,5.73581857 7.00689626,5.84585372 7,5.95833333 L7,5.95833333 L7,10.125 C7.00689626,10.2374796 6.96521698,10.3475148 6.88553254,10.4271992 C6.80584809,10.5068836 6.69581294,10.5485629 6.58333333,10.5416667 L6.58333333,10.5416667 L4.70833333,10.5416667 C4.59327401,10.5416667 4.5,10.4483927 4.5,10.3333333 L4.5,10.3333333 L4.5,5.75 C4.5,5.63494068 4.59327401,5.54166667 4.70833333,5.54166667 L4.70833333,5.54166667 Z M16.6875,2.62166667 C16.8369492,2.6218694 16.9748435,2.70209675 17.0488799,2.83191864 C17.1229162,2.96174054 17.1217537,3.12127083 17.0458333,3.25 L17.0458333,3.25 L16,5.025 C15.9597164,5.09340135 15.884184,5.13310426 15.805,5.1275 L15.805,5.1275 L12.4616667,5.12166667 C12.3912328,5.12161144 12.3255171,5.08625015 12.2866667,5.0275 L12.2866667,5.0275 L11.1241667,3.25083333 C11.0478144,3.12205632 11.0464184,2.96221632 11.1205099,2.83212542 C11.1946014,2.70203453 11.3327896,2.62169277 11.4825,2.62166667 L11.4825,2.62166667 Z" id="ðŸ–-Color" fill="#5A5A5A"></path>
        <rect id="_Transparent_Rectangle_" fill-opacity="0" fill="#D8D8D8" x="-3.06843036e-05" y="-0.000416666667" width="24" height="24"></rect>
    </g>
</svg>