<svg width="24" height="24" viewBox="0 0 24 24" fill="none" xmlns="http://www.w3.org/2000/svg">
<g id="cash_payment_bills_1">
<path id="Shape" fill-rule="evenodd" clip-rule="evenodd" d="M9.56006 7.8032L8.38173 3.5048C8.37271 3.47352 8.36575 3.44172 8.36089 3.4096C8.31292 3.06914 8.41062 2.72455 8.63173 2.4544C8.86443 2.16791 9.22163 2.00029 9.60006 2H15.3659C15.8261 2 16.1992 2.35817 16.1992 2.8C16.1992 3.24183 15.8261 3.6 15.3659 3.6H10.4017C10.337 3.59992 10.2759 3.62871 10.2364 3.67791C10.1969 3.72712 10.1835 3.79115 10.2001 3.8512L11.1709 7.3968C11.2878 7.82355 11.0227 8.26059 10.5784 8.3736C10.5088 8.39136 10.4371 8.40024 10.3651 8.4C9.98672 8.39956 9.65616 8.1545 9.56006 7.8032ZM19.2567 4.4C19.6332 4.40003 19.989 4.56536 20.2226 4.8488C20.445 5.11764 20.5427 5.46243 20.4926 5.8024L19.7309 10.9136C19.6655 11.3512 19.243 11.6551 18.7871 11.5924C18.3313 11.5297 18.0147 11.124 18.0801 10.6864L18.7467 6.228C18.7555 6.17067 18.7377 6.11252 18.6982 6.06874C18.6587 6.02495 18.6012 5.99986 18.5409 6H13.8584C13.7948 6.00016 13.7348 6.02808 13.6952 6.07586C13.6556 6.12364 13.6409 6.1861 13.6551 6.2456L14.7242 10.6176C14.7981 10.898 14.7086 11.1948 14.4902 11.3939C14.2717 11.593 13.9584 11.6635 13.6705 11.5782C13.3827 11.4929 13.1652 11.2651 13.1017 10.9824L11.8517 5.8528C11.8432 5.81857 11.8371 5.78382 11.8334 5.7488C11.7984 5.41563 11.9044 5.08294 12.1276 4.8256C12.3621 4.55647 12.7087 4.40068 13.0742 4.4H19.2567ZM19.1909 15.2152C19.0577 14.9589 19.0774 14.6538 19.2426 14.4152L19.5001 14.044C19.6869 13.7752 19.6869 13.4248 19.5001 13.156L19.0367 12.4888C18.9979 12.433 18.9325 12.3997 18.8626 12.4H12.4167C12.3158 12.4 12.2295 12.3305 12.2117 12.2352L11.6834 9.404C11.6713 9.33758 11.6251 9.28152 11.5605 9.25504C11.4959 9.22856 11.4217 9.23524 11.3634 9.2728L10.6817 9.7088C10.3814 9.90065 10.128 10.1529 9.93923 10.448L7.18923 14.7328C6.99549 15.0355 6.7023 15.2677 6.35589 15.3928L3.68923 16.3528C3.60886 16.3818 3.55526 16.4552 3.55423 16.5376L3.49173 20.9984C3.49083 21.0519 3.51241 21.1035 3.5516 21.1416C3.59079 21.1797 3.6443 21.201 3.70006 21.2008H9.35089C9.37745 21.2008 9.40376 21.1959 9.42839 21.1864L11.0276 20.5728C11.3227 20.4589 11.6378 20.4002 11.9559 20.4H18.0551C18.1101 20.4001 18.1629 20.3791 18.2017 20.3416L19.0267 19.5496C19.2499 19.3355 19.328 19.0187 19.2284 18.7312L19.0834 18.3144C19.0133 18.113 19.0295 17.8931 19.1284 17.7032L19.6217 16.7576C19.7389 16.5325 19.7389 16.2675 19.6217 16.0424L19.1909 15.2152ZM16.2659 9.6C16.8412 9.6 17.3076 9.15228 17.3076 8.6C17.3076 8.04772 16.8412 7.6 16.2659 7.6C15.6906 7.6 15.2242 8.04772 15.2242 8.6C15.2242 9.15228 15.6906 9.6 16.2659 9.6Z" fill="#5A5A5A"/>
</g>
</svg>
