<?xml version="1.0" encoding="UTF-8"?>
<svg width="24px" height="24px" viewBox="0 0 24 24" version="1.1" xmlns="http://www.w3.org/2000/svg" xmlns:xlink="http://www.w3.org/1999/xlink">
    <title>3. Finance/cash_payment_bag</title>
    <g id="3.-Finance/cash_payment_bag" stroke="none" stroke-width="1" fill="none" fill-rule="evenodd">
        <path d="M8.205,15.3583333 C10.28,15.3583333 11.2825,16.6083333 11.5383333,16.6083333 L11.5383333,16.6083333 L14.455,16.6083333 C14.9152373,16.6083333 15.2883333,16.9814294 15.2883333,17.4416667 C15.2883333,17.901904 14.9152373,18.275 14.455,18.275 L14.455,18.275 L11.1216667,18.275 C10.891548,18.275 10.705,18.461548 10.705,18.6916667 C10.705,18.9217853 10.891548,19.1083333 11.1216667,19.1083333 L11.1216667,19.1083333 L14.455,19.1083333 C15.1115038,19.1062634 15.7056332,18.7189863 15.9725,18.1191667 C15.9961543,18.0631445 16.0425091,18.0198194 16.1,18 L16.1,18 L19.0341667,17.025 C19.7321064,16.7904862 20.5020746,16.9440357 21.0566667,17.4283333 C21.1682797,17.5203693 21.2255332,17.6627754 21.208689,17.8064568 C21.1918447,17.9501382 21.1032068,18.075441 20.9733333,18.1391667 C11.6091667,22.8766667 14.39,22.8641667 6.08583333,20.0658333 C5.84692112,19.9863401 5.58506025,20.01686 5.37083333,20.1491667 L5.37083333,20.1491667 L2.69083333,21.8241667 C2.62659137,21.8645293 2.54548615,21.8667771 2.4791072,21.8300347 C2.41272825,21.7932923 2.3716665,21.7233694 2.3716665,21.6475 L2.3716665,21.6475 L2.3716665,17.1525 C2.37189843,17.0736174 2.41631671,17.0015181 2.48666667,16.9658333 L2.48666667,16.9658333 L5.00166667,15.7108333 C5.46450521,15.4791848 5.97492824,15.3584979 6.4925,15.3583333 L6.4925,15.3583333 Z M17.6908333,2.0233284 C17.8589372,2.02376218 18.013868,2.11441182 18.0966021,2.26074766 C18.1793361,2.4070835 18.1771335,2.58657182 18.0908333,2.73083333 L18.0908333,2.73083333 L17.3008333,4.04666667 C17.2708721,4.09686251 17.2632837,4.15730601 17.279907,4.21335032 C17.2965303,4.26939464 17.3358483,4.31592523 17.3883333,4.34166667 C19.4533333,5.34833333 21.6283333,7.88416667 21.6283333,10.195 C21.6283333,13.1616667 18.945,15.565 15.6358333,15.565 C12.3258333,15.565 9.64333333,13.1616667 9.64083333,10.195 C9.64083333,7.87916667 11.9191667,5.335 14.0291667,4.335 C14.0820816,4.3097215 14.1219545,4.2633907 14.1390669,4.20730007 C14.1561793,4.15120944 14.1489593,4.09051131 14.1191667,4.04 L14.1191667,4.04 L13.3333333,2.73083333 C13.2467254,2.58606008 13.2448343,2.40585465 13.328385,2.25929573 C13.4119356,2.1127368 13.5679668,2.02256011 13.7366667,2.0233284 L13.7366667,2.0233284 Z M15.6358333,5.95833333 C15.2906554,5.95833333 15.0108333,6.23815536 15.0108333,6.58333333 L15.0108333,6.58333333 L15.0108333,6.92166667 C15.0108369,6.95033927 14.9878357,6.97371155 14.9591667,6.97416667 C14.6032664,6.93485526 14.2487683,7.05927159 13.9954972,7.31238057 C13.7422262,7.56548954 13.617583,7.91990801 13.6566667,8.27583333 C13.6566667,9.05166667 14.4483333,9.585 15.2866667,10.1483333 L15.2866667,10.1483333 C15.6663717,10.3788181 16.0215156,10.6496432 16.3466667,10.9541667 C16.3588653,10.9708311 16.3653013,10.9910168 16.365,11.0116667 C16.3645501,11.0256076 16.3531148,11.0366739 16.3391667,11.0366667 L16.3391667,11.0366667 L14.2816667,11.0366667 C13.9364887,11.0366667 13.6566667,11.3164887 13.6566667,11.6616667 C13.6566667,12.0068446 13.9364887,12.2866667 14.2816667,12.2866667 L14.2816667,12.2866667 L14.8025,12.2866667 C14.9175593,12.2866667 15.0108333,12.3799407 15.0108333,12.495 L15.0108333,12.495 L15.0108333,12.6775 C15.0108333,13.022678 15.2906554,13.3025 15.6358333,13.3025 C15.9810113,13.3025 16.2608333,13.022678 16.2608333,12.6775 L16.2608333,12.6775 L16.2608333,12.3383333 C16.2612885,12.3096643 16.2846607,12.2866631 16.3133333,12.2866667 C16.6666878,12.3152193 17.0147554,12.1871601 17.2653489,11.9364062 C17.5159424,11.6856523 17.6437787,11.3375028 17.615,10.9841667 C17.615,10.2091667 16.8233333,9.67583333 15.985,9.11166667 C15.6060365,8.87988258 15.2512139,8.61076455 14.9258333,8.30833333 C14.913226,8.29156027 14.9067546,8.27096964 14.9075,8.25 C14.9072741,8.24322641 14.9098079,8.23665135 14.9145211,8.23178113 C14.9192342,8.2269109 14.9257226,8.2241629 14.9325,8.22416667 L14.9325,8.22416667 L16.99,8.22416667 C17.335178,8.22416666 17.615,7.94434463 17.615,7.59916667 C17.615,7.25398871 17.335178,6.97416668 16.99,6.97416667 L16.99,6.97416667 L16.4691667,6.97416667 C16.3541073,6.97416667 16.2608333,6.88089266 16.2608333,6.76583333 L16.2608333,6.76583333 L16.2608333,6.58333333 C16.2608333,6.23815536 15.9810113,5.95833333 15.6358333,5.95833333 Z" id="ðŸ–-Color" fill="#5A5A5A"></path>
        <rect id="_Transparent_Rectangle_" fill-opacity="0" fill="#D8D8D8" x="0" y="0.0782455328" width="24" height="24"></rect>
    </g>
</svg>