<?xml version="1.0" encoding="UTF-8"?>
<svg width="24px" height="24px" viewBox="0 0 24 24" version="1.1" xmlns="http://www.w3.org/2000/svg" xmlns:xlink="http://www.w3.org/1999/xlink">
    <title>3. Finance/cash_payment_bills_1</title>
    <g id="3.-Finance/cash_payment_bills_1" stroke="none" stroke-width="1" fill="none" fill-rule="evenodd">
        <path d="M11.3633333,9.2728 C11.4216634,9.23524015 11.4958263,9.22855702 11.5604185,9.25503981 C11.6250107,9.2815226 11.6712634,9.33757614 11.6833333,9.404 L11.6833333,9.404 L12.2116667,12.2352 C12.2294223,12.3305372 12.3157823,12.3999622 12.4166667,12.4 L12.4166667,12.4 L18.8625,12.4 C18.9323968,12.3996772 18.9978044,12.4330257 19.0366667,12.4888 L19.0366667,12.4888 L19.5,13.156 C19.6868329,13.4248295 19.6868329,13.7751705 19.5,14.044 L19.5,14.044 L19.2425,14.4152 C19.0773289,14.653756 19.0576227,14.9588843 19.1908333,15.2152 L19.1908333,15.2152 L19.6216667,16.0424 C19.7388512,16.2675286 19.7388512,16.5324714 19.6216667,16.7576 L19.6216667,16.7576 L19.1283333,17.7032 C19.0294361,17.8931271 19.0132473,18.1130069 19.0833333,18.3144 L19.0833333,18.3144 L19.2283333,18.7312 C19.3279436,19.0186518 19.2498772,19.3354598 19.0266667,19.5496 L19.0266667,19.5496 L18.2016667,20.3416 C18.1628814,20.3791142 18.1100573,20.4001478 18.055,20.4 L18.055,20.4 L11.9558333,20.4 C11.63774,20.4002241 11.3226294,20.4588788 11.0275,20.5728 L11.0275,20.5728 L9.42833333,21.1864 C9.40370372,21.1959357 9.37739048,21.2008017 9.35083333,21.2008017 L9.35083333,21.2008017 L3.7,21.2008017 C3.64424079,21.2010219 3.59073493,21.1796908 3.55154273,21.1416148 C3.51235053,21.1035388 3.49077045,21.0519224 3.49163983,20.9984 L3.49163983,20.9984 L3.55416667,16.5376 C3.55519934,16.4551792 3.60879821,16.3818083 3.68916667,16.3528 L3.68916667,16.3528 L6.35583333,15.3928 C6.70223884,15.2677252 6.99542589,15.035521 7.18916667,14.7328 L7.18916667,14.7328 L9.93916667,10.448 C10.1279626,10.1528718 10.3813076,9.90065271 10.6816667,9.7088 L10.6816667,9.7088 Z M19.2566667,4.4 C19.6331401,4.4 19.9889234,4.56535725 20.2225,4.8488 C20.4449824,5.11763731 20.5426071,5.46243331 20.4925,5.8024 L20.4925,5.8024 L19.7308333,10.9136 C19.6654796,11.3512304 19.2429484,11.6551395 18.7870833,11.5924 C18.3312183,11.5296604 18.0146463,11.1240304 18.08,10.6864 L18.08,10.6864 L18.7466667,6.228 C18.7553933,6.17066536 18.7376825,6.11252446 18.6981524,6.06873723 C18.6586222,6.02494999 18.6011909,5.99985659 18.5408333,6 L18.5408333,6 L13.8583333,6 C13.7947551,6.00016366 13.7347058,6.02807891 13.695147,6.0758607 C13.6555883,6.1236425 13.6408149,6.18610322 13.655,6.2456 L13.655,6.2456 L14.7241667,10.6176 C14.7980447,10.8979588 14.7085602,11.1947686 14.49012,11.3939065 C14.2716798,11.5930444 13.9582939,11.6635055 13.6704588,11.5781977 C13.3826238,11.4928898 13.1651541,11.2650949 13.1016667,10.9824 L13.1016667,10.9824 L11.8516667,5.8528 C11.843133,5.81856725 11.8370081,5.78382213 11.8333333,5.7488 C11.7983152,5.41563424 11.9043227,5.08294491 12.1275,4.8256 C12.3620892,4.55647057 12.7086207,4.40067785 13.0741667,4.4 L13.0741667,4.4 Z M16.2658333,7.6 C16.8411299,7.6 17.3075,8.04771525 17.3075,8.6 C17.3075,9.15228475 16.8411299,9.6 16.2658333,9.6 C15.6905367,9.6 15.2241667,9.15228475 15.2241667,8.6 C15.2241667,8.04771525 15.6905367,7.6 16.2658333,7.6 Z M15.3658333,2 C15.8260706,2 16.1991667,2.3581722 16.1991667,2.8 C16.1991667,3.2418278 15.8260706,3.6 15.3658333,3.6 L15.3658333,3.6 L10.4016667,3.6 C10.3369563,3.59991778 10.2758802,3.62870706 10.2363782,3.67791144 C10.1968763,3.72711582 10.1834341,3.79114816 10.2,3.8512 L10.2,3.8512 L11.1708333,7.3968 C11.2877454,7.82354725 11.0226483,8.26058833 10.5783333,8.3736 C10.5087401,8.39136351 10.4370107,8.40024001 10.365,8.40000474 C9.98665687,8.39956255 9.65609895,8.154498 9.56,7.8032 L9.56,7.8032 L8.38166667,3.5048 C8.37265086,3.47351716 8.36569269,3.44172111 8.36083333,3.4096 C8.31285635,3.06914198 8.41056186,2.72454519 8.63166667,2.4544 C8.86437023,2.16790807 9.22156799,2.00028949 9.6,2 L9.6,2 Z" id="ðŸ–-Color" fill="#5A5A5A"></path>
        <rect id="_Transparent_Rectangle_" fill-opacity="0" fill="#D8D8D8" x="0" y="0" width="24" height="24"></rect>
    </g>
</svg>