<svg width="24" height="24" viewBox="0 0 24 24" fill="none" xmlns="http://www.w3.org/2000/svg">
<g id="cash_payment_bill">
<path id="Shape" fill-rule="evenodd" clip-rule="evenodd" d="M20.5832 3.27333C21.2736 3.27333 21.8332 3.83297 21.8332 4.52333V11.19C21.8332 11.8804 21.2736 12.44 20.5832 12.44H8.91657C8.22621 12.44 7.66657 11.8804 7.66657 11.19V4.52333C7.66657 3.83297 8.22621 3.27333 8.91657 3.27333H20.5832ZM19.9582 10.7733C20.0733 10.7733 20.1666 10.6801 20.1666 10.565L20.1691 5.14833C20.1691 5.03327 20.0758 4.94 19.9607 4.94H9.54407C9.42901 4.94 9.33573 5.03327 9.33573 5.14833V10.565C9.33573 10.6801 9.42901 10.7733 9.54407 10.7733H19.9582ZM16.4191 7.85666C16.4191 8.77714 15.6729 9.52333 14.7524 9.52333C13.8319 9.52333 13.0857 8.77714 13.0857 7.85666C13.0857 6.93619 13.8319 6.19 14.7524 6.19C15.6729 6.19 16.4191 6.93619 16.4191 7.85666ZM18.8241 15.7725H18.8332C19.5228 15.5431 20.2822 15.6928 20.8332 16.1667C20.9489 16.2568 21.0109 16.3994 20.9979 16.5454C20.985 16.6914 20.8988 16.8209 20.7691 16.8892C15.7637 19.4213 14.2282 20.5964 12.6153 20.7146C11.2105 20.8175 9.74689 20.1185 5.88073 18.8158C5.64209 18.7364 5.3805 18.7669 5.16657 18.8992L2.4824 20.5742C2.41829 20.6147 2.33718 20.617 2.27087 20.5802C2.20456 20.5434 2.16361 20.4733 2.16407 20.3975V15.9025C2.16391 15.8235 2.20844 15.7512 2.27907 15.7158L4.79323 14.4592C5.25607 14.2275 5.76649 14.1068 6.28407 14.1067H7.9999C9.21276 14.1723 10.3763 14.6086 11.3332 15.3567H14.2499C14.7101 15.3567 15.0832 15.7298 15.0832 16.19C15.0832 16.6502 14.7101 17.0233 14.2499 17.0233H10.9166C10.6864 17.0233 10.4999 17.2099 10.4999 17.44C10.4999 17.6701 10.6864 17.8567 10.9166 17.8567H14.2499C14.9053 17.8538 15.4982 17.467 15.7649 16.8683C15.7886 16.8125 15.835 16.7694 15.8924 16.75L18.8241 15.7725Z" fill="#5A5A5A"/>
</g>
</svg>
