<?xml version="1.0" encoding="UTF-8"?>
<svg width="24px" height="24px" viewBox="0 0 24 24" version="1.1" xmlns="http://www.w3.org/2000/svg" xmlns:xlink="http://www.w3.org/1999/xlink">
    <title>3. Finance/cash_payment_bill</title>
    <g id="3.-Finance/cash_payment_bill" stroke="none" stroke-width="1" fill="none" fill-rule="evenodd">
        <path d="M8,14.1066667 C9.21286525,14.1723199 10.3763615,14.608631 11.3333333,15.3566667 L11.3333333,15.3566667 L14.25,15.3566667 C14.7102373,15.3566667 15.0833333,15.7297627 15.0833333,16.19 C15.0833333,16.6502373 14.7102373,17.0233333 14.25,17.0233333 L14.25,17.0233333 L10.9166667,17.0233333 C10.686548,17.0233333 10.5,17.2098814 10.5,17.44 C10.5,17.6701186 10.686548,17.8566667 10.9166667,17.8566667 L10.9166667,17.8566667 L14.25,17.8566667 C14.9054004,17.8537616 15.4982558,17.4670033 15.765,16.8683333 C15.7886693,16.8125038 15.8350627,16.7694457 15.8925,16.75 L15.8925,16.75 L18.8241667,15.7725 C19.5229323,15.5430934 20.2823455,15.6927611 20.8333333,16.1666667 C20.9489809,16.2567527 21.0110053,16.3993743 20.998037,16.5453937 C20.9850687,16.6914131 20.8988804,16.8208717 20.7691667,16.8891667 C11.4041667,21.6266667 14.1858333,21.6141667 5.88083333,18.8158333 C5.64219521,18.7363662 5.38059736,18.766891 5.16666667,18.8991667 L5.16666667,18.8991667 L2.4825,20.5741667 C2.41838788,20.6146757 2.33728304,20.6169819 2.27097266,20.5801813 C2.20466229,20.5433808 2.16371021,20.4733362 2.16416289,20.3975 L2.16416289,20.3975 L2.16416289,15.9025 C2.16416289,15.8235076 2.20854463,15.7512218 2.27916667,15.7158333 L2.27916667,15.7158333 L4.79333333,14.4591667 C5.25617188,14.2275181 5.7665949,14.1068312 6.28416667,14.1066667 L6.28416667,14.1066667 Z M20.5833333,3.27333333 C21.2736893,3.27333333 21.8333333,3.8329774 21.8333333,4.52333333 L21.8333333,4.52333333 L21.8333333,11.19 C21.8333333,11.8803559 21.2736893,12.44 20.5833333,12.44 L20.5833333,12.44 L8.91666667,12.44 C8.22631073,12.44 7.66666667,11.8803559 7.66666667,11.19 L7.66666667,11.19 L7.66666667,4.52333333 C7.66666667,3.8329774 8.22631073,3.27333333 8.91666667,3.27333333 L8.91666667,3.27333333 Z M19.9608333,4.94 L9.54416667,4.94 C9.42910734,4.94 9.33583333,5.03327401 9.33583333,5.14833333 L9.33583333,5.14833333 L9.33583333,10.565 C9.33583333,10.6800593 9.42910734,10.7733333 9.54416667,10.7733333 L9.54416667,10.7733333 L19.9583333,10.7733333 C20.0733927,10.7733333 20.1666667,10.6800593 20.1666667,10.565 L20.1666667,10.565 L20.1691667,5.14833333 C20.1691667,5.03327401 20.0758927,4.94 19.9608333,4.94 L19.9608333,4.94 Z M14.7525,6.19 C15.6729746,6.19 16.4191667,6.93619208 16.4191667,7.85666667 C16.4191667,8.77714125 15.6729746,9.52333333 14.7525,9.52333333 C13.8320254,9.52333333 13.0858333,8.77714125 13.0858333,7.85666667 C13.0858333,6.93619208 13.8320254,6.19 14.7525,6.19 Z" id="ðŸ–-Color" fill="#5A5A5A"></path>
        <rect id="_Transparent_Rectangle_" fill-opacity="0" fill="#D8D8D8" x="0" y="0" width="24" height="24"></rect>
    </g>
</svg>