<?xml version="1.0" encoding="UTF-8"?>
<svg width="24px" height="24px" viewBox="0 0 24 24" version="1.1" xmlns="http://www.w3.org/2000/svg" xmlns:xlink="http://www.w3.org/1999/xlink">
    <title>3. Finance/cash_payment_sign_1</title>
    <g id="3.-Finance/cash_payment_sign_1" stroke="none" stroke-width="1" fill="none" fill-rule="evenodd">
        <path d="M6.64,8.5258321 C6.7243787,8.52568237 6.80051603,8.57644286 6.8328268,8.6543903 C6.86513756,8.73233773 6.84724035,8.82207742 6.7875,8.88166667 L6.7875,8.88166667 L5.82166667,9.8475 C5.5891242,10.0799402 5.43052728,10.3759684 5.36583333,10.6983333 L5.36583333,10.6983333 L4.94916667,12.7816667 C4.85102768,13.2713646 4.97766739,13.7792633 5.29422731,14.1655601 C5.61078723,14.5518568 6.0838983,14.7758314 6.58333333,14.7758333 C7.39667678,14.6841237 8.20236789,14.534014 8.99416667,14.3266667 C9.31653156,14.2619727 9.61255982,14.1033758 9.845,13.8708333 L9.845,13.8708333 L15.1291667,8.58666667 C15.1682607,8.54754106 15.2213573,8.52564244 15.2766667,8.5258321 L15.2766667,8.5258321 L20.75,8.5258321 C21.4403559,8.5258321 22,9.0854774 22,9.77583333 L22,9.77583333 L22,18.9425 C22,19.6328559 21.4403559,20.1925 20.75,20.1925 L20.75,20.1925 L3.25,20.1925 C2.55964406,20.1925 2,19.6328559 2,18.9425 L2,18.9425 L2,9.77583333 C2,9.0854774 2.55964406,8.5258321 3.25,8.5258321 L3.25,8.5258321 Z M19.0833333,16.2341667 L12.4166667,16.2341667 C12.0714887,16.2341667 11.7916667,16.5139887 11.7916667,16.8591667 C11.7916667,17.2043446 12.0714887,17.4841667 12.4166667,17.4841667 L12.4166667,17.4841667 L19.0833333,17.4841667 C19.4285113,17.4841667 19.7083333,17.2043446 19.7083333,16.8591667 C19.7083333,16.5139887 19.4285113,16.2341667 19.0833333,16.2341667 L19.0833333,16.2341667 Z M13.1666667,4.2725 C13.7900581,3.64979894 14.8002156,3.65035859 15.4229167,4.27375 C16.0456177,4.89714141 16.0450581,5.90729894 15.4216667,6.53 L15.4216667,6.53 L8.96333333,12.9883333 C8.90535771,13.0470253 8.83099441,13.0868213 8.75,13.1025 L8.75,13.1025 L6.66666667,13.5191667 C6.63926365,13.5248959 6.61132823,13.5276895 6.58333333,13.527509 C6.45819888,13.527509 6.33967844,13.4713101 6.26052657,13.3743894 C6.1813747,13.2774688 6.14997311,13.1501062 6.175,13.0275 L6.175,13.0275 L6.59166667,10.9441667 C6.60716271,10.8632875 6.64665504,10.788949 6.705,10.7308333 L6.705,10.7308333 Z" id="ðŸ–-Color" fill="#5A5A5A"></path>
        <rect id="_Transparent_Rectangle_" fill-opacity="0" fill="#D8D8D8" x="0" y="0.0782455328" width="24" height="24"></rect>
    </g>
</svg>