<?xml version="1.0" encoding="UTF-8"?>
<svg width="24px" height="24px" viewBox="0 0 24 24" version="1.1" xmlns="http://www.w3.org/2000/svg" xmlns:xlink="http://www.w3.org/1999/xlink">
    <title>3. Finance/coin_purse_1</title>
    <g id="3.-Finance/coin_purse_1" stroke="none" stroke-width="1" fill="none" fill-rule="evenodd">
        <path d="M16.2308256,8.90568067 C16.8680772,8.90568067 17.3846718,9.44200623 17.3846718,10.1035973 L17.3846718,10.1035973 L17.3846718,10.9660973 C17.3844788,11.1639576 17.5238816,11.3321266 17.7123641,11.3614098 C19.871637,11.8078978 21.3771408,13.8475964 21.2308256,16.1283196 L21.2222555,16.3482868 C21.0677069,18.8993602 19.0173008,20.9039957 16.5308256,20.8848473 L16.5308256,20.8848473 L7.46928714,20.8848473 C4.91176983,20.9045428 2.81559572,18.7831576 2.76928714,16.1283196 L2.76016909,15.9083681 C2.71990442,13.7172699 4.19706203,11.7923045 6.28697945,11.3598126 C6.47519095,11.3309763 6.61481594,11.1636127 6.61544098,10.9660973 L6.61544098,10.9660973 L6.61544098,10.1035973 C6.61544098,9.44200623 7.1320355,8.90568067 7.76928714,8.90568067 L7.76928714,8.90568067 Z M13.5385179,3.11575012 C14.3881868,3.11575012 15.0769794,3.83085086 15.0769794,4.71297234 C15.0777559,4.95886238 15.0221186,5.20140939 14.9146718,5.42054178 C14.8840941,5.48249949 14.8868105,5.55651929 14.9218403,5.61588192 C14.9568701,5.67524455 15.0191545,5.71137694 15.0862102,5.71123623 L15.0862102,5.71123623 L17.7015948,5.71123623 C18.8876276,5.69432942 19.8636024,6.67616242 19.8846718,7.90741678 L19.8846718,7.90741678 L19.8846718,8.30672234 C19.8846718,8.85804826 19.4541763,9.30498623 18.9231333,9.30498623 C18.3920903,9.30498623 17.9615948,8.85804826 17.9615948,8.30672234 L17.9615948,8.30672234 L17.9615948,7.90741678 C17.9379379,7.78091903 17.8250261,7.69421456 17.7015948,7.707764 L17.7015948,7.707764 L6.29851791,7.707764 C6.17508664,7.69421456 6.0621748,7.78091903 6.03851791,7.90741678 L6.03851791,7.90741678 L6.03851791,8.30672234 C6.03851791,8.85804826 5.60802247,9.30498623 5.07697945,9.30498623 C4.82196359,9.30498623 4.57739252,9.1998123 4.39706908,9.0126015 C4.21674564,8.82539071 4.11544098,8.57147838 4.11544098,8.30672234 L4.11544098,8.30672234 L4.11544098,7.90741678 C4.13650748,6.6748977 5.11436876,5.69255149 6.30159483,5.71123623 L6.30159483,5.71123623 L8.91697945,5.71123623 C8.98403521,5.71137694 9.04631953,5.67524455 9.08134935,5.61588192 C9.11637917,5.55651929 9.11909553,5.48249949 9.08851791,5.42054178 C8.9800045,5.20168448 8.92330917,4.95912333 8.92313329,4.71297234 C8.92313329,3.83085086 9.61192598,3.11575012 10.4615948,3.11575012 C11.0278432,3.0990568 11.5563229,3.40967974 11.8339025,3.92234734 C11.8684513,3.98334165 11.9315159,4.02079447 11.9996718,4.02079447 C12.0678276,4.02079447 12.1308922,3.98334165 12.165441,3.92234734 C12.4425125,3.40876093 12.9717804,3.09784896 13.5385179,3.11575012 Z" id="ðŸ–-Color" fill="#5A5A5A"></path>
        <rect id="_Transparent_Rectangle_" fill-opacity="0" fill="#D8D8D8" x="0" y="0" width="24" height="24"></rect>
    </g>
</svg>