<svg width="24" height="24" viewBox="0 0 24 24" fill="none" xmlns="http://www.w3.org/2000/svg">
<g id="credit_card_check">
<path id="Shape" fill-rule="evenodd" clip-rule="evenodd" d="M17 5.12499C17 3.9744 16.0673 3.04166 14.9167 3.04166H4.08333C2.93274 3.04166 2 3.9744 2 5.12499C2 5.18024 2.02195 5.23323 2.06102 5.2723C2.10009 5.31137 2.15308 5.33332 2.20833 5.33332H16.7917C16.9067 5.33332 17 5.24005 17 5.12499ZM16.785 8.45832H16.5833C13.3741 8.46233 10.567 10.6198 9.7375 13.72C9.71361 13.8113 9.63108 13.875 9.53667 13.875H4.08333C2.93274 13.875 2 12.9423 2 11.7917V6.79166C2 6.6766 2.09327 6.58332 2.20833 6.58332H16.7917C16.9067 6.58332 17 6.6766 17 6.79166V8.24999C17.0001 8.30626 16.9772 8.36013 16.9367 8.39916C16.8961 8.43847 16.8415 8.4598 16.785 8.45832ZM7.41667 10.3333H4.91667C4.57149 10.3333 4.29167 10.6131 4.29167 10.9583C4.29167 11.3035 4.57149 11.5833 4.91667 11.5833H7.41667C7.76184 11.5833 8.04167 11.3035 8.04167 10.9583C8.04167 10.6131 7.76184 10.3333 7.41667 10.3333ZM16.5833 10.125C13.5918 10.125 11.1667 12.5501 11.1667 15.5417C11.1667 18.5332 13.5918 20.9583 16.5833 20.9583C19.5749 20.9583 22 18.5332 22 15.5417C22 14.1051 21.4293 12.7273 20.4135 11.7115C19.3977 10.6957 18.0199 10.125 16.5833 10.125ZM19.39 14.1775L16.9733 17.4058C16.7558 17.6988 16.4207 17.8815 16.0567 17.9058H15.9658C15.635 17.9055 15.318 17.7732 15.085 17.5383L13.835 16.2883C13.6771 16.1304 13.6154 15.9002 13.6732 15.6844C13.731 15.4687 13.8995 15.3002 14.1153 15.2423C14.331 15.1845 14.5612 15.2462 14.7192 15.4042L15.8025 16.4875C15.8451 16.5305 15.9044 16.5528 15.9648 16.5484C16.0251 16.5441 16.0806 16.5136 16.1167 16.465L18.3933 13.4292C18.6004 13.153 18.9922 13.097 19.2683 13.3042C19.5445 13.5113 19.6004 13.903 19.3933 14.1792L19.39 14.1775Z" fill="#5A5A5A"/>
</g>
</svg>
