<svg width="24" height="24" viewBox="0 0 24 24" fill="none" xmlns="http://www.w3.org/2000/svg">
<g id="credit_card_disable">
<path id="Shape" fill-rule="evenodd" clip-rule="evenodd" d="M16.1892 5.54167C16.2018 5.54167 16.2121 5.53173 16.2126 5.51917V5.26417C16.2176 4.15877 15.3271 3.2578 14.2217 3.25H3.99088C3.45958 3.25242 2.95107 3.46615 2.57757 3.84403C2.20407 4.22191 1.99628 4.73287 2.00005 5.26417V5.51917C2.00005 5.52513 2.00242 5.53086 2.00664 5.53508C2.01086 5.5393 2.01658 5.54167 2.02255 5.54167H16.1892ZM16.2126 7.21833C16.2123 7.32943 16.1252 7.42091 16.0142 7.42667C12.5307 7.60003 9.5975 10.0907 8.86172 13.5C8.84191 13.597 8.75656 13.6667 8.65755 13.6667H3.99088C3.45958 13.6642 2.95107 13.4505 2.57757 13.0726C2.20407 12.6948 1.99628 12.1838 2.00005 11.6525V6.81417C2.00005 6.8082 2.00242 6.80248 2.00664 6.79826C2.01086 6.79404 2.01658 6.79167 2.02255 6.79167H16.1892C16.2018 6.79166 16.2121 6.80161 16.2126 6.81417V7.21833ZM7.13838 8.875H4.77755C4.43237 8.875 4.15255 9.15482 4.15255 9.5C4.15255 9.84518 4.43237 10.125 4.77755 10.125H7.13838C7.48356 10.125 7.76338 9.84518 7.76338 9.5C7.76338 9.15482 7.48356 8.875 7.13838 8.875ZM10.7501 15.125C10.7501 12.0184 13.2684 9.5 16.3751 9.5C19.4801 9.50367 21.9964 12.0199 22 15.125C22 18.2316 19.4817 20.75 16.3751 20.75C13.2684 20.75 10.7501 18.2316 10.7501 15.125ZM18.2867 11.66C17.7018 11.3358 17.0438 11.166 16.3751 11.1667C14.974 11.1651 13.6765 11.9044 12.9636 13.1106C12.2507 14.3168 12.2288 15.81 12.9059 17.0367C12.9373 17.0953 12.9948 17.1355 13.0607 17.1447C13.1266 17.1539 13.1929 17.1311 13.2392 17.0833L18.3326 11.9892C18.3792 11.943 18.4012 11.8774 18.3917 11.8125C18.3823 11.7481 18.3435 11.6917 18.2867 11.66ZM16.3751 19.0833C15.7065 19.0841 15.0488 18.9143 14.4642 18.59C14.4068 18.5586 14.3676 18.5019 14.3584 18.4371C14.3492 18.3723 14.3711 18.307 14.4176 18.2608L19.5109 13.1667C19.5576 13.1209 19.6227 13.0991 19.6875 13.1075C19.7524 13.1169 19.8091 13.1561 19.8409 13.2133C20.5177 14.4394 20.4961 15.9319 19.784 17.1379C19.072 18.3439 17.7755 19.0837 16.3751 19.0833Z" fill="#5A5A5A"/>
</g>
</svg>
