<?xml version="1.0" encoding="UTF-8"?>
<svg width="24px" height="24px" viewBox="0 0 24 24" version="1.1" xmlns="http://www.w3.org/2000/svg" xmlns:xlink="http://www.w3.org/1999/xlink">
    <title>3. Finance/credit_card_smartphone</title>
    <g id="3.-Finance/credit_card_smartphone" stroke="none" stroke-width="1" fill="none" fill-rule="evenodd">
        <path d="M20.7716667,12 C21.457837,12.0086929 22.0074091,12.5713146 22,13.2575 L22,13.2575 L22,20.7425 L21.9949647,20.8696067 C21.938179,21.4968493 21.4149513,21.9918504 20.7716667,22 L20.7716667,22 L16.5616667,22 C15.8754963,21.9913071 15.3259242,21.4286854 15.3333333,20.7425 L15.3333333,20.7425 L15.3333333,13.2575 L15.3383686,13.1303933 C15.3951543,12.5031507 15.918382,12.0081496 16.5616667,12 L16.5616667,12 Z M19.9166667,13.6666667 L17.4166667,13.6666667 C17.186548,13.6666667 17,13.8532147 17,14.0833333 L17,14.0833333 L17,19.0833333 C17,19.313452 17.186548,19.5 17.4166667,19.5 L17.4166667,19.5 L19.9166667,19.5 C20.1467853,19.5 20.3333333,19.313452 20.3333333,19.0833333 L20.3333333,19.0833333 L20.3333333,14.0833333 C20.3333333,13.8532147 20.1467853,13.6666667 19.9166667,13.6666667 L19.9166667,13.6666667 Z M18.4583333,5.95833333 C18.5733927,5.95833333 18.6666667,6.05160734 18.6666667,6.16666667 L18.6666667,6.16666667 L18.6666667,10.5416667 C18.6666667,10.656726 18.5733927,10.75 18.4583333,10.75 L18.4583333,10.75 L16.5616667,10.75 C15.1864946,10.7619123 14.0791561,11.8822827 14.0833333,13.2575 L14.0833333,13.2575 L14.0833333,14.2916667 C14.0833333,14.406726 13.9900593,14.5 13.875,14.5 L13.875,14.5 L3.66666667,14.5 C2.74619208,14.5 2,13.7538079 2,12.8333333 L2,12.8333333 L2,6.16666667 C2,6.05160734 2.09327401,5.95833333 2.20833333,5.95833333 L2.20833333,5.95833333 Z M7,10.9583333 L4.5,10.9583333 C4.15482203,10.9583333 3.875,11.2381554 3.875,11.5833333 C3.875,11.9285113 4.15482203,12.2083333 4.5,12.2083333 L4.5,12.2083333 L7,12.2083333 C7.34517797,12.2083333 7.625,11.9285113 7.625,11.5833333 C7.625,11.2381554 7.34517797,10.9583333 7,10.9583333 L7,10.9583333 Z M9.91666667,8.04166667 L4.5,8.04166667 C4.15482203,8.04166667 3.875,8.3214887 3.875,8.66666667 C3.875,9.01184464 4.15482203,9.29166667 4.5,9.29166667 L4.5,9.29166667 L9.91666667,9.29166667 C10.2618446,9.29166667 10.5416667,9.01184464 10.5416667,8.66666667 C10.5416667,8.3214887 10.2618446,8.04166667 9.91666667,8.04166667 L9.91666667,8.04166667 Z M17,2 C17.9204746,2 18.6666667,2.74619208 18.6666667,3.66666667 L18.6666667,3.66666667 L18.6666667,4.5 C18.6666667,4.61505932 18.5733927,4.70833333 18.4583333,4.70833333 L18.4583333,4.70833333 L2.20833333,4.70833333 C2.09327401,4.70833333 2,4.61505932 2,4.5 L2,4.5 L2,3.66666667 C2,2.74619208 2.74619208,2 3.66666667,2 L3.66666667,2 Z" id="ðŸ–-Color" fill="#5A5A5A"></path>
        <rect id="_Transparent_Rectangle_" fill-opacity="0" fill="#D8D8D8" x="0" y="0" width="24" height="24"></rect>
    </g>
</svg>