<svg width="24" height="24" viewBox="0 0 24 24" fill="none" xmlns="http://www.w3.org/2000/svg">
<g id="credit_card_flag">
<path id="Shape" fill-rule="evenodd" clip-rule="evenodd" d="M18 3.66667C18 2.74619 17.2837 2 16.4 2H3.6C2.71634 2 2 2.74619 2 3.66667V4.5C2 4.61506 2.08954 4.70833 2.2 4.70833H17.8C17.9105 4.70833 18 4.61506 18 4.5V3.66667ZM12.4 13.3492C12.4001 12.6349 12.837 12.0001 13.4864 11.7708L14.5016 11.4125C15.5535 11.0389 16.7016 11.0897 17.7192 11.555C17.7811 11.5839 17.8528 11.5781 17.9097 11.5395C17.9665 11.5009 18.0005 11.4348 18 11.3642V6.16667C18 6.05161 17.9105 5.95833 17.8 5.95833H2.2C2.08954 5.95833 2 6.05161 2 6.16667V12.8333C2 13.7538 2.71634 14.5 3.6 14.5H12.2C12.2531 14.5002 12.3041 14.4783 12.3417 14.4392C12.3792 14.4001 12.4002 14.347 12.4 14.2917V13.3492ZM6.8 12.2083H4.4C4.06863 12.2083 3.8 11.9285 3.8 11.5833C3.8 11.2382 4.06863 10.9583 4.4 10.9583H6.8C7.13137 10.9583 7.4 11.2382 7.4 11.5833C7.4 11.9285 7.13137 12.2083 6.8 12.2083ZM4.4 9.29167H9.6C9.93137 9.29167 10.2 9.01184 10.2 8.66667C10.2 8.32149 9.93137 8.04167 9.6 8.04167H4.4C4.06863 8.04167 3.8 8.32149 3.8 8.66667C3.8 9.01184 4.06863 9.29167 4.4 9.29167ZM14.2064 22C13.875 22 13.6064 21.7202 13.6064 21.375L13.6016 13.3508C13.6018 13.1723 13.7112 13.0138 13.8736 12.9567L14.888 12.5983C15.8559 12.2529 16.9236 12.4039 17.768 13.0058C18.4007 13.4581 19.2009 13.5739 19.928 13.3183L19.9488 13.31L20.6456 12.9725C20.7694 12.9132 20.9137 12.9236 21.0285 13.0001C21.1433 13.0767 21.2127 13.2089 21.2128 13.3508V17.9342C21.2127 18.0968 21.1218 18.2445 20.98 18.3125L20.244 18.6667L20.224 18.675C19.8763 18.7974 19.5118 18.8602 19.1448 18.8608C18.4931 18.8616 17.8563 18.6583 17.3168 18.2775C16.6795 17.8233 15.8739 17.709 15.1432 17.9692L14.9424 18.04C14.8611 18.0686 14.8063 18.1481 14.8064 18.2375V21.375C14.8064 21.7202 14.5378 22 14.2064 22Z" fill="#5A5A5A"/>
</g>
</svg>
