<svg width="24" height="24" viewBox="0 0 24 24" fill="none" xmlns="http://www.w3.org/2000/svg">
<g id="credit_card_1">
<path id="Shape" fill-rule="evenodd" clip-rule="evenodd" d="M19.9165 5.33334C20.837 5.33334 21.5832 6.07954 21.5832 7.00001V8.25001C21.5832 8.36507 21.4899 8.45834 21.3748 8.45834H2.62484C2.50978 8.45834 2.4165 8.36507 2.4165 8.25001V7.00001C2.4165 6.07954 3.1627 5.33334 4.08317 5.33334H19.9165ZM2.4165 17C2.4165 17.9205 3.1627 18.6667 4.08317 18.6667H19.9165C20.837 18.6667 21.5832 17.9205 21.5832 17V9.91668C21.5832 9.80162 21.4899 9.70834 21.3748 9.70834H2.62484C2.50978 9.70834 2.4165 9.80162 2.4165 9.91668V17ZM16.1665 15.125H18.6665C19.0117 15.125 19.2915 15.4048 19.2915 15.75C19.2915 16.0952 19.0117 16.375 18.6665 16.375H16.1665C15.8213 16.375 15.5415 16.0952 15.5415 15.75C15.5415 15.4048 15.8213 15.125 16.1665 15.125ZM12.4165 11.7917H5.74984C5.40466 11.7917 5.12484 12.0715 5.12484 12.4167C5.12484 12.7619 5.40466 13.0417 5.74984 13.0417H12.4165C12.7617 13.0417 13.0415 12.7619 13.0415 12.4167C13.0415 12.0715 12.7617 11.7917 12.4165 11.7917ZM5.74984 15.125H8.24984C8.59502 15.125 8.87484 15.4048 8.87484 15.75C8.87484 16.0952 8.59502 16.375 8.24984 16.375H5.74984C5.40466 16.375 5.12484 16.0952 5.12484 15.75C5.12484 15.4048 5.40466 15.125 5.74984 15.125Z" fill="#5A5A5A"/>
</g>
</svg>
