<?xml version="1.0" encoding="UTF-8"?>
<svg width="24px" height="24px" viewBox="0 0 24 24" version="1.1" xmlns="http://www.w3.org/2000/svg" xmlns:xlink="http://www.w3.org/1999/xlink">
    <title>3. Finance/credit_card</title>
    <g id="3.-Finance/credit_card" stroke="none" stroke-width="1" fill="none" fill-rule="evenodd">
        <path d="M16.1666667,10.3333333 C17.0871412,10.3333333 17.8333333,11.0795254 17.8333333,12 L17.8333333,12 L17.8333333,20.3333333 C17.8333333,21.2538079 17.0871412,22 16.1666667,22 L16.1666667,22 L3.66666667,22 C2.74619208,22 2,21.2538079 2,20.3333333 L2,20.3333333 L2,12 C2,11.0795254 2.74619208,10.3333333 3.66666667,10.3333333 L3.66666667,10.3333333 Z M14.9703533,16.4217243 C14.3409821,16.0266624 13.5261018,16.0959782 12.9725,16.5916667 C12.8931861,16.6623534 12.7734805,16.6623534 12.6941667,16.5916667 C12.0261699,15.99355 11.004683,16.0311145 10.3824218,16.6766796 C9.7601606,17.3222446 9.7601606,18.344422 10.3824218,18.9899871 C11.004683,19.6355521 12.0261699,19.6731167 12.6941667,19.075 C12.7734805,19.0043133 12.8931861,19.0043133 12.9725,19.075 C13.2775754,19.3490057 13.6732724,19.5003977 14.0833333,19.5000064 C14.8264228,19.5004193 15.4800242,19.0088508 15.6857772,18.2948145 C15.8915302,17.5807783 15.5997246,16.8167861 14.9703533,16.4217243 Z M6.58333333,12.8333333 L4.91666667,12.8333333 C4.68654802,12.8333333 4.5,13.0198814 4.5,13.25 L4.5,13.25 L4.5,14.9166667 C4.5,15.1467853 4.68654802,15.3333333 4.91666667,15.3333333 L4.91666667,15.3333333 L6.58333333,15.3333333 C6.81345198,15.3333333 7,15.1467853 7,14.9166667 L7,14.9166667 L7,13.25 C7,13.0198814 6.81345198,12.8333333 6.58333333,12.8333333 L6.58333333,12.8333333 Z M19.5,2 C20.8807119,2 22,3.11928813 22,4.5 L22,4.5 L22,12 C22.0003772,12.9103116 21.5059191,13.7488793 20.7091667,14.1891667 C20.44984,14.3202169 20.1409775,14.3067314 19.8940596,14.1535777 C19.6471417,14.0004239 19.4978236,13.7297175 19.5,13.4391667 L19.5,13.4391667 L19.5037334,13.3324725 C19.529223,13.0864496 19.6702835,12.8643351 19.8875,12.7375 C20.1615558,12.5935551 20.3332372,12.3095588 20.3333333,12 L20.3333333,12 L20.3333333,8.04166667 C20.3333333,7.92660734 20.2400593,7.83333333 20.125,7.83333333 L20.125,7.83333333 L6.375,7.83333333 C6.25994068,7.83333333 6.16666667,7.92660734 6.16666667,8.04166667 L6.16666667,8.04166667 L6.16666667,8.25 C6.16666667,8.71023729 5.79357062,9.08333333 5.33333333,9.08333333 L5.33333333,9.08333333 L5.22880177,9.07684048 C4.81790432,9.02541831 4.5,8.67483442 4.5,8.25 L4.5,8.25 L4.5,4.5 C4.5,3.11928813 5.61928813,2 7,2 L7,2 Z M19.5,3.66666667 L7,3.66666667 C6.53976271,3.66666667 6.16666667,4.03976271 6.16666667,4.5 L6.16666667,4.5 L6.16666667,5.125 C6.16666667,5.24005932 6.25994068,5.33333333 6.375,5.33333333 L6.375,5.33333333 L20.125,5.33333333 C20.2400593,5.33333333 20.3333333,5.24005932 20.3333333,5.125 L20.3333333,5.125 L20.3333333,4.5 C20.3333333,4.03976271 19.9602373,3.66666667 19.5,3.66666667 L19.5,3.66666667 Z" id="ðŸ–-Color" fill="#5A5A5A"></path>
        <rect id="_Transparent_Rectangle_" fill-opacity="0" fill="#D8D8D8" x="0" y="0" width="24" height="24"></rect>
    </g>
</svg>