<svg width="24" height="24" viewBox="0 0 24 24" fill="none" xmlns="http://www.w3.org/2000/svg">
<g id="credit_card_remove">
<path id="Shape" fill-rule="evenodd" clip-rule="evenodd" d="M17 5.12499C17 3.9744 16.0673 3.04166 14.9167 3.04166H4.08333C2.93274 3.04166 2 3.9744 2 5.12499C2 5.18024 2.02195 5.23323 2.06102 5.2723C2.10009 5.31137 2.15308 5.33332 2.20833 5.33332H16.7917C16.9067 5.33332 17 5.24005 17 5.12499ZM16.7858 8.45832H16.5833C13.3741 8.46233 10.567 10.6198 9.7375 13.72C9.71361 13.8113 9.63108 13.875 9.53667 13.875H4.08333C2.93274 13.875 2 12.9423 2 11.7917V6.79166C2 6.6766 2.09327 6.58332 2.20833 6.58332H16.7917C16.9067 6.58332 17 6.6766 17 6.79166V8.24999C16.9998 8.3062 16.977 8.35995 16.9367 8.39915C16.8964 8.43834 16.842 8.45967 16.7858 8.45832ZM7.41667 10.3333H4.91667C4.57149 10.3333 4.29167 10.6131 4.29167 10.9583C4.29167 11.3035 4.57149 11.5833 4.91667 11.5833H7.41667C7.76184 11.5833 8.04167 11.3035 8.04167 10.9583C8.04167 10.6131 7.76184 10.3333 7.41667 10.3333ZM16.5833 10.125C13.5918 10.125 11.1667 12.5501 11.1667 15.5417C11.1667 18.5332 13.5918 20.9583 16.5833 20.9583C19.5749 20.9583 22 18.5332 22 15.5417C22 14.1051 21.4293 12.7273 20.4135 11.7115C19.3977 10.6957 18.0199 10.125 16.5833 10.125ZM19.1083 17.1833C19.2755 17.3391 19.3444 17.5738 19.2878 17.7952C19.2313 18.0167 19.0584 18.1896 18.8369 18.2461C18.6155 18.3027 18.3808 18.2339 18.225 18.0667L16.7308 16.5725C16.6491 16.4918 16.5176 16.4918 16.4358 16.5725L14.9417 18.0667C14.6954 18.2961 14.3117 18.2894 14.0736 18.0513C13.8356 17.8133 13.8289 17.4296 14.0583 17.1833L15.5525 15.6892C15.6332 15.6074 15.6332 15.4759 15.5525 15.3942L14.0583 13.9C13.8289 13.6537 13.8356 13.27 14.0736 13.032C14.3117 12.794 14.6954 12.7872 14.9417 13.0167L16.4358 14.5108C16.5176 14.5915 16.6491 14.5915 16.7308 14.5108L18.225 13.0167C18.4713 12.7872 18.855 12.794 19.093 13.032C19.331 13.27 19.3378 13.6537 19.1083 13.9L17.6142 15.3942C17.5335 15.4759 17.5335 15.6074 17.6142 15.6892L19.1083 17.1833Z" fill="#5A5A5A"/>
</g>
</svg>
