<?xml version="1.0" encoding="UTF-8"?>
<svg width="24px" height="24px" viewBox="0 0 24 24" version="1.1" xmlns="http://www.w3.org/2000/svg" xmlns:xlink="http://www.w3.org/1999/xlink">
    <title>3. Finance/credit_card_shield</title>
    <g id="3.-Finance/credit_card_shield" stroke="none" stroke-width="1" fill="none" fill-rule="evenodd">
        <path d="M16.5658333,11.1666667 C18.1580395,11.1821392 19.7353238,11.47543 21.2266667,12.0333333 C21.6961878,12.2378546 21.9998502,12.7012015 22,13.2133333 L22,13.2133333 L22,16.0408333 C22,18.4016667 20.2066667,20.7325 17.6391667,21.7075 L17.6391667,21.7075 L17.1783333,21.8833333 C16.7836905,22.0344306 16.3471428,22.0344306 15.9525,21.8833333 L15.9525,21.8833333 L15.4916667,21.7075 C13.0389259,20.8639664 11.3332855,18.6292159 11.1666667,16.0408333 L11.1666667,16.0408333 L11.1666667,13.2133333 C11.1668165,12.7012015 11.4704789,12.2378546 11.94,12.0333333 C13.4184496,11.4727689 14.9847307,11.1793204 16.5658333,11.1666667 Z M16.5833333,12.625 C16.2381554,12.625 15.9583333,12.904822 15.9583333,13.25 L15.9583333,13.25 L15.9583333,14.7083333 C15.9583333,14.938452 15.7717853,15.125 15.5416667,15.125 L15.5416667,15.125 L14.0833333,15.125 C13.7381554,15.125 13.4583333,15.404822 13.4583333,15.75 C13.4583333,16.095178 13.7381554,16.375 14.0833333,16.375 L14.0833333,16.375 L15.5416667,16.375 C15.7717853,16.375 15.9583333,16.561548 15.9583333,16.7916667 L15.9583333,16.7916667 L15.9583333,18.25 C15.9583333,18.595178 16.2381554,18.875 16.5833333,18.875 C16.9285113,18.875 17.2083333,18.595178 17.2083333,18.25 L17.2083333,18.25 L17.2083333,16.7916667 C17.2083333,16.561548 17.3948814,16.375 17.625,16.375 L17.625,16.375 L19.0833333,16.375 C19.4285113,16.375 19.7083333,16.095178 19.7083333,15.75 C19.7083333,15.404822 19.4285113,15.125 19.0833333,15.125 L19.0833333,15.125 L17.625,15.125 C17.3948814,15.125 17.2083333,14.938452 17.2083333,14.7083333 L17.2083333,14.7083333 L17.2083333,13.25 C17.2083333,12.904822 16.9285113,12.625 16.5833333,12.625 Z M16.5833333,5.54166667 C16.813452,5.54166667 17,5.72821469 17,5.95833333 L17,5.95833333 L17,9.5 C17,9.73011865 16.813452,9.91666667 16.5833333,9.91666667 L16.5833333,9.91666667 L16.5658333,9.91666667 C14.8126489,9.92843408 13.0760615,10.2573439 11.44,10.8875 C10.7412586,11.1923447 10.2165282,11.7950962 10.0108333,12.5291667 C9.96043554,12.708893 9.79665867,12.8331727 9.61,12.8333333 L9.61,12.8333333 L4.08333333,12.8333333 C2.9327401,12.8333333 2,11.9005932 2,10.75 L2,10.75 L2,5.95833333 C2,5.72821469 2.18654802,5.54166667 2.41666667,5.54166667 L2.41666667,5.54166667 Z M7.41666667,9.29166667 L4.91666667,9.29166667 C4.5714887,9.29166667 4.29166667,9.5714887 4.29166667,9.91666667 C4.29166667,10.2618446 4.5714887,10.5416667 4.91666667,10.5416667 L4.91666667,10.5416667 L7.41666667,10.5416667 C7.76184464,10.5416667 8.04166667,10.2618446 8.04166667,9.91666667 C8.04166667,9.5714887 7.76184464,9.29166667 7.41666667,9.29166667 L7.41666667,9.29166667 Z M14.9166667,2 C16.0672599,2 17,2.9327401 17,4.08333333 C17,4.19839266 16.906726,4.29166667 16.7916667,4.29166667 L16.7916667,4.29166667 L2.20833333,4.29166667 C2.1530799,4.29166667 2.1000895,4.26971732 2.06101942,4.23064725 C2.02194934,4.19157717 2,4.13858677 2,4.08333333 C2,2.9327401 2.9327401,2 4.08333333,2 L4.08333333,2 Z" id="ðŸ–-Color" fill="#5A5A5A"></path>
        <rect id="_Transparent_Rectangle_" fill-opacity="0" fill="#D8D8D8" x="0" y="0.0782455328" width="24" height="24"></rect>
    </g>
</svg>