<?xml version="1.0" encoding="UTF-8"?>
<svg width="24px" height="24px" viewBox="0 0 24 24" version="1.1" xmlns="http://www.w3.org/2000/svg" xmlns:xlink="http://www.w3.org/1999/xlink">
    <title>3. Finance/credit_card_mastercard</title>
    <g id="3.-Finance/credit_card_mastercard" stroke="none" stroke-width="1" fill="none" fill-rule="evenodd">
        <path d="M20.2608333,4.91666667 C21.2002405,4.899433 21.9772418,5.64404377 22,6.58333333 L22,6.58333333 L22,17.4166667 C21.9772418,18.3559562 21.2002405,19.100567 20.2608333,19.0833333 L20.2608333,19.0833333 L3.73916667,19.0833333 C2.79993896,19.1001084 2.02320869,18.3557574 2,17.4166667 L2,17.4166667 L2,6.58333333 C2.02320869,5.64424257 2.79993896,4.89989158 3.73916667,4.91666667 L3.73916667,4.91666667 Z M9.02166667,8.10083333 C6.63809773,8.10083333 4.70583333,10.0330977 4.70583333,12.4166667 C4.70583333,14.8002356 6.63809773,16.7325 9.02166667,16.7325 C9.98004092,16.7290867 10.9092664,16.40261 11.6591667,15.8058333 C11.7348287,15.7467388 11.8410047,15.7467388 11.9166667,15.8058333 C12.6683256,16.4029199 13.5992221,16.7293648 14.5591667,16.7325 L14.5591667,16.7325 C16.9469022,16.7333333 18.8791666,14.8010689 18.8791666,12.4175 C18.8791666,10.0339311 16.9469022,8.10166672 14.5633333,8.10166667 C13.6042913,8.10562214 12.6744471,8.43200686 11.9233333,9.02833333 C11.8481453,9.08789849 11.7418547,9.08789849 11.6666667,9.02833333 C10.9149583,8.4294891 9.9827477,8.10259862 9.02166667,8.10083333 Z M14.5591667,9.35083333 C16.2516181,9.35267046 17.6231629,10.7242152 17.625,12.4166667 C17.6231629,14.1091181 16.2516181,15.4806629 14.5591667,15.4825 C13.9200364,15.4780448 13.2990331,15.2695839 12.7866667,14.8875 C12.6998552,14.8239913 12.675663,14.7048353 12.7308333,14.6125 C13.5418768,13.2609474 13.5418768,11.5723859 12.7308333,10.2208333 C12.6760746,10.1284281 12.700207,10.0095669 12.7866667,9.94583333 C13.2990331,9.56374946 13.9200364,9.35528854 14.5591667,9.35083333 Z" id="ðŸ–-Color" fill="#5A5A5A"></path>
        <rect id="_Transparent_Rectangle_" fill-opacity="0" fill="#D8D8D8" x="0" y="0" width="24" height="24"></rect>
    </g>
</svg>