<?xml version="1.0" encoding="UTF-8"?>
<svg width="24px" height="24px" viewBox="0 0 24 24" version="1.1" xmlns="http://www.w3.org/2000/svg" xmlns:xlink="http://www.w3.org/1999/xlink">
    <title>3. Finance/credit_card_check</title>
    <g id="3.-Finance/credit_card_check" stroke="none" stroke-width="1" fill="none" fill-rule="evenodd">
        <path d="M16.5833333,10.125 C18.0199227,10.125 19.397673,10.6956829 20.4134951,11.7115049 C21.4293171,12.727327 22,14.1050773 22,15.5416667 C22,18.5332091 19.5748757,20.9583333 16.5833333,20.9583333 C13.5917909,20.9583333 11.1666667,18.5332091 11.1666667,15.5416667 C11.1666667,12.5501243 13.5917909,10.125 16.5833333,10.125 Z M19.2683333,13.3041667 C18.992191,13.0970599 18.6004401,13.1530243 18.3933333,13.4291667 L18.3933333,13.4291667 L16.1166667,16.465 C16.080629,16.5136482 16.0251421,16.544131 15.9647546,16.5484558 C15.9043671,16.5527806 15.8451025,16.5305161 15.8025,16.4875 L15.8025,16.4875 L14.7191667,15.4041667 C14.5612255,15.2462255 14.3310212,15.1845425 14.1152696,15.2423529 C13.899518,15.3001634 13.7309967,15.4686846 13.6731863,15.6844363 C13.6153758,15.9001879 13.6770588,16.1303922 13.835,16.2883333 L13.835,16.2883333 L15.085,17.5383333 C15.3179772,17.7732136 15.6350056,17.9054837 15.9658333,17.9058333 L15.9658333,17.9058333 L16.0566667,17.9058333 C16.4207271,17.8815417 16.755807,17.6987709 16.9733333,17.4058333 L16.9733333,17.4058333 L19.39,14.1775 C19.6004401,13.9030243 19.5444757,13.5112734 19.2683333,13.3041667 Z M16.7916667,6.58333333 C16.906726,6.58333333 17,6.67660734 17,6.79166667 L17,6.79166667 L17,8.25 C17,8.3062709 16.9772049,8.36014009 16.9366667,8.39916667 C16.8961233,8.43847992 16.8414546,8.45980673 16.785,8.45833333 L16.785,8.45833333 L16.5833333,8.45833333 C13.3740974,8.46233659 10.5670376,10.619826 9.7375,13.72 C9.71361293,13.811339 9.63107748,13.875 9.53666667,13.875 L9.53666667,13.875 L4.08333333,13.875 C2.9327401,13.875 2,12.9422599 2,11.7916667 L2,11.7916667 L2,6.79166667 C2,6.67660734 2.09327401,6.58333333 2.20833333,6.58333333 L2.20833333,6.58333333 Z M7.41666667,10.3333333 L4.91666667,10.3333333 C4.5714887,10.3333333 4.29166667,10.6131554 4.29166667,10.9583333 C4.29166667,11.3035113 4.5714887,11.5833333 4.91666667,11.5833333 L4.91666667,11.5833333 L7.41666667,11.5833333 C7.76184464,11.5833333 8.04166667,11.3035113 8.04166667,10.9583333 C8.04166667,10.6131554 7.76184464,10.3333333 7.41666667,10.3333333 L7.41666667,10.3333333 Z M14.9166667,3.04166667 C16.0672599,3.04166667 17,3.97440677 17,5.125 C17,5.24005932 16.906726,5.33333333 16.7916667,5.33333333 L16.7916667,5.33333333 L2.20833333,5.33333333 C2.1530799,5.33333333 2.1000895,5.31138399 2.06101942,5.27231391 C2.02194934,5.23324383 2,5.18025344 2,5.125 C2,3.97440677 2.9327401,3.04166667 4.08333333,3.04166667 L4.08333333,3.04166667 Z" id="ðŸ–-Color" fill="#5A5A5A"></path>
        <rect id="_Transparent_Rectangle_" fill-opacity="0" fill="#D8D8D8" x="0" y="0" width="24" height="24"></rect>
    </g>
</svg>