<?xml version="1.0" encoding="UTF-8"?>
<svg width="24px" height="24px" viewBox="0 0 24 24" version="1.1" xmlns="http://www.w3.org/2000/svg" xmlns:xlink="http://www.w3.org/1999/xlink">
    <title>3. Finance/credit_card_phone_call</title>
    <g id="3.-Finance/credit_card_phone_call" stroke="none" stroke-width="1" fill="none" fill-rule="evenodd">
        <path d="M19.5833333,10.1665972 L19.7227015,10.1758941 C20.0452421,10.2134458 20.3467353,10.3609375 20.575,10.5958333 L20.575,10.5958333 L21.365,11.3791667 C22.0396795,12.006952 22.1932904,13.0166417 21.7358333,13.8166667 C19.7149193,17.0085772 17.0110772,19.7124193 13.8191667,21.7333333 C13.5352882,21.9102056 13.2069601,22.0026924 12.8725,22.0000572 C12.3112975,21.9926224 11.7757449,21.7637845 11.3825,21.3633333 L11.3825,21.3633333 L10.5958333,20.5758333 C10.0691187,20.0996276 10.0262857,19.2872898 10.5,18.7583333 L10.5,18.7583333 L11.7858333,17.4708333 C12.0042566,17.2545116 12.3001,17.134494 12.6075,17.1375 L12.6075,17.1375 L12.7478147,17.1457138 C13.0726485,17.1809651 13.3769737,17.3277358 13.6075,17.5633333 L13.6075,17.5633333 L13.9533333,17.9083333 C13.9986992,17.9537606 14.0602871,17.9741359 14.1202023,17.9685514 L14.178897,17.9542799 L14.178897,17.9542799 L14.2325,17.9225 C15.5827588,16.818944 16.818944,15.5827588 17.9225,14.2325 C17.9894413,14.1495469 17.9829687,14.029445 17.9075,13.9541667 L17.9075,13.9541667 L17.5625,13.6091667 C17.0356863,13.1326685 16.9928591,12.3200682 17.4666667,11.7908333 L17.4666667,11.7908333 L18.7616667,10.5 C18.9798808,10.2833613 19.2758625,10.1632876 19.5833333,10.1665972 L19.5833333,10.1665972 Z M18.4583333,5.95833333 C18.5733927,5.95833333 18.6666679,6.05160734 18.6666679,6.16666667 L18.6666679,6.16666667 L18.6666679,8.9725 C18.6669288,9.04418285 18.6252021,9.10938092 18.56,9.13916667 C18.3049297,9.25612555 18.0727005,9.41752908 17.8741667,9.61583333 L17.8741667,9.61583333 L16.5816667,10.9075 C15.7773484,11.7449379 15.6554966,13.0259354 16.2875,14 C16.3369041,14.0788244 16.3280618,14.1808504 16.2658333,14.25 L16.2658333,14.25 L16.1008333,14.4316667 C16.0612485,14.4749831 16.0053456,14.4997617 15.9466667,14.5 L15.9466667,14.5 L3.66666667,14.5 C2.74619208,14.5 2,13.7538079 2,12.8333333 L2,12.8333333 L2,6.16666667 C2,6.05160734 2.09327401,5.95833333 2.20833333,5.95833333 L2.20833333,5.95833333 Z M7,10.9583333 L4.5,10.9583333 C4.15482203,10.9583333 3.875,11.2381554 3.875,11.5833333 C3.875,11.9285113 4.15482203,12.2083333 4.5,12.2083333 L4.5,12.2083333 L7,12.2083333 C7.34517797,12.2083333 7.625,11.9285113 7.625,11.5833333 C7.625,11.2381554 7.34517797,10.9583333 7,10.9583333 L7,10.9583333 Z M9.91666667,8.04166667 L4.5,8.04166667 C4.15482203,8.04166667 3.875,8.3214887 3.875,8.66666667 C3.875,9.01184464 4.15482203,9.29166667 4.5,9.29166667 L4.5,9.29166667 L9.91666667,9.29166667 C10.2618446,9.29166667 10.5416667,9.01184464 10.5416667,8.66666667 C10.5416667,8.3214887 10.2618446,8.04166667 9.91666667,8.04166667 L9.91666667,8.04166667 Z M17,2 C17.9204746,2 18.6666667,2.74619208 18.6666667,3.66666667 L18.6666667,3.66666667 L18.6666667,4.5 C18.6666667,4.61505932 18.5733927,4.70833333 18.4583333,4.70833333 L18.4583333,4.70833333 L2.20833333,4.70833333 C2.09327401,4.70833333 2,4.61505932 2,4.5 L2,4.5 L2,3.66666667 C2,2.74619208 2.74619208,2 3.66666667,2 L3.66666667,2 Z" id="ðŸ–-Color" fill="#5A5A5A"></path>
        <rect id="_Transparent_Rectangle_" fill-opacity="0" fill="#D8D8D8" x="0" y="0" width="24" height="24"></rect>
    </g>
</svg>