<?xml version="1.0" encoding="UTF-8"?>
<svg width="24px" height="24px" viewBox="0 0 24 24" version="1.1" xmlns="http://www.w3.org/2000/svg" xmlns:xlink="http://www.w3.org/1999/xlink">
    <title>3. Finance/credit_card_dollar_1</title>
    <g id="3.-Finance/credit_card_dollar_1" stroke="none" stroke-width="1" fill="none" fill-rule="evenodd">
        <path d="M16.5833333,11.1666667 C18.0199227,11.1666667 19.397673,11.7373496 20.4134951,12.7531716 C21.4293171,13.7689937 22,15.146744 22,16.5833333 C22,19.5748757 19.5748757,22 16.5833333,22 C13.5917909,22 11.1666667,19.5748757 11.1666667,16.5833333 C11.1666667,13.5917909 13.5917909,11.1666667 16.5833333,11.1666667 Z M16.5833333,12.2083333 C16.2381554,12.2083333 15.9583333,12.4881554 15.9583333,12.8333333 L15.9583333,12.8333333 L15.9583333,13.2866667 C15.958294,13.387551 15.8859762,13.473911 15.7866667,13.4916667 C14.9521595,13.5988026 14.3187663,14.295747 14.2916667,15.1366667 C14.2463018,15.8130822 14.6172254,16.4489985 15.2283333,16.7425 L15.2283333,16.7425 L17.4866667,17.5883333 C17.5879816,17.7122223 17.6375399,17.8704508 17.625,18.03 C17.625,18.3141667 17.4166667,18.4583333 17,18.4583333 L17,18.4583333 L14.9166667,18.4583333 C14.5714887,18.4583333 14.2916667,18.7381554 14.2916667,19.0833333 C14.2916667,19.4285113 14.5714887,19.7083333 14.9166667,19.7083333 L14.9166667,19.7083333 L15.75,19.7083333 C15.8650593,19.7083333 15.9583333,19.8016073 15.9583333,19.9166667 L15.9583333,19.9166667 L15.9583333,20.3333333 C15.9583333,20.6785113 16.2381554,20.9583333 16.5833333,20.9583333 C16.9285113,20.9583333 17.2083333,20.6785113 17.2083333,20.3333333 L17.2083333,20.3333333 L17.2083333,19.885 C17.2079555,19.7823387 17.2827071,19.6948333 17.3841667,19.6791667 C18.1312754,19.5742884 18.7246252,18.9979971 18.8512463,18.2542646 C18.9778674,17.5105321 18.6086463,16.7703622 17.9383333,16.4241667 L17.9383333,16.4241667 L15.68,15.5783333 C15.5786851,15.4544443 15.5291267,15.2962159 15.5416667,15.1366667 C15.5416667,14.9041667 15.8283333,14.7083333 16.1666667,14.7083333 L16.1666667,14.7083333 L18.25,14.7083333 C18.595178,14.7083333 18.875,14.4285113 18.875,14.0833333 C18.875,13.7381554 18.595178,13.4583333 18.25,13.4583333 L18.25,13.4583333 L17.4166667,13.4583333 C17.3016073,13.4583333 17.2083333,13.3650593 17.2083333,13.25 L17.2083333,13.25 L17.2083333,12.8333333 C17.2083333,12.4881554 16.9285113,12.2083333 16.5833333,12.2083333 Z M18.4583333,5.95833333 C18.5733927,5.95833333 18.6666667,6.05160734 18.6666667,6.16666667 L18.6666667,6.16666667 L18.6666667,9.97166667 C18.6666667,10.0368519 18.6358656,10.0982095 18.5838353,10.1374776 C18.5318051,10.1767457 18.4643943,10.1893973 18.4016667,10.1716667 C17.8102714,10.0029544 17.1983227,9.91713577 16.5833333,9.91666667 C13.7592475,9.91785092 11.2423128,11.698301 10.3008333,14.3608333 C10.2714675,14.4442677 10.192618,14.5000001 10.1041667,14.5000001 L10.1041667,14.5000001 L3.66666667,14.5000001 C2.74619208,14.5000001 2,13.7538079 2,12.8333333 L2,12.8333333 L2,6.16666667 C2,6.05160734 2.09327401,5.95833333 2.20833333,5.95833333 L2.20833333,5.95833333 Z M7,10.9583333 L4.5,10.9583333 C4.15482203,10.9583333 3.875,11.2381554 3.875,11.5833333 C3.875,11.9285113 4.15482203,12.2083333 4.5,12.2083333 L4.5,12.2083333 L7,12.2083333 C7.34517797,12.2083333 7.625,11.9285113 7.625,11.5833333 C7.625,11.2381554 7.34517797,10.9583333 7,10.9583333 L7,10.9583333 Z M9.91666667,8.04166667 L4.5,8.04166667 C4.15482203,8.04166667 3.875,8.3214887 3.875,8.66666667 C3.875,9.01184464 4.15482203,9.29166667 4.5,9.29166667 L4.5,9.29166667 L9.91666667,9.29166667 C10.2618446,9.29166667 10.5416667,9.01184464 10.5416667,8.66666667 C10.5416667,8.3214887 10.2618446,8.04166667 9.91666667,8.04166667 L9.91666667,8.04166667 Z M17,2 C17.9204746,2 18.6666667,2.74619208 18.6666667,3.66666667 L18.6666667,3.66666667 L18.6666667,4.5 C18.6666667,4.61505932 18.5733927,4.70833333 18.4583333,4.70833333 L18.4583333,4.70833333 L2.20833333,4.70833333 C2.09327401,4.70833333 2,4.61505932 2,4.5 L2,4.5 L2,3.66666667 C2,2.74619208 2.74619208,2 3.66666667,2 L3.66666667,2 Z" id="ðŸ–-Color" fill="#5A5A5A"></path>
        <rect id="_Transparent_Rectangle_" fill-opacity="0" fill="#D8D8D8" x="0" y="0" width="24" height="24"></rect>
    </g>
</svg>