<svg width="24" height="24" viewBox="0 0 24 24" fill="none" xmlns="http://www.w3.org/2000/svg">
<g id="credit_card_shield">
<path id="Shape" fill-rule="evenodd" clip-rule="evenodd" d="M2.20833 4.29167H16.7917C16.9067 4.29167 17 4.19839 17 4.08333C17 2.93274 16.0673 2 14.9167 2H4.08333C2.93274 2 2 2.93274 2 4.08333C2 4.13859 2.02195 4.19158 2.06102 4.23065C2.10009 4.26972 2.15308 4.29167 2.20833 4.29167ZM16.5833 9.91667H16.5658C14.8126 9.92843 13.0761 10.2573 11.44 10.8875C10.7413 11.1923 10.2165 11.7951 10.0108 12.5292C9.96044 12.7089 9.79666 12.8332 9.61 12.8333H4.08333C2.93274 12.8333 2 11.9006 2 10.75V5.95833C2 5.72821 2.18655 5.54167 2.41667 5.54167H16.5833C16.8135 5.54167 17 5.72821 17 5.95833V9.5C17 9.73012 16.8135 9.91667 16.5833 9.91667ZM4.91667 10.5417H7.41667C7.76184 10.5417 8.04167 10.2618 8.04167 9.91667C8.04167 9.57149 7.76184 9.29167 7.41667 9.29167H4.91667C4.57149 9.29167 4.29167 9.57149 4.29167 9.91667C4.29167 10.2618 4.57149 10.5417 4.91667 10.5417ZM21.2267 12.0333C19.7353 11.4754 18.158 11.1821 16.5658 11.1667C14.9847 11.1793 13.4184 11.4728 11.94 12.0333C11.4705 12.2379 11.1668 12.7012 11.1667 13.2133V16.0408C11.3333 18.6292 13.0389 20.864 15.4917 21.7075L15.9525 21.8833C16.3471 22.0344 16.7837 22.0344 17.1783 21.8833L17.6392 21.7075C20.2067 20.7325 22 18.4017 22 16.0408V13.2133C21.9999 12.7012 21.6962 12.2379 21.2267 12.0333ZM19.0833 16.375H17.625C17.3949 16.375 17.2083 16.5615 17.2083 16.7917V18.25C17.2083 18.5952 16.9285 18.875 16.5833 18.875C16.2382 18.875 15.9583 18.5952 15.9583 18.25V16.7917C15.9583 16.5615 15.7718 16.375 15.5417 16.375H14.0833C13.7382 16.375 13.4583 16.0952 13.4583 15.75C13.4583 15.4048 13.7382 15.125 14.0833 15.125H15.5417C15.7718 15.125 15.9583 14.9385 15.9583 14.7083V13.25C15.9583 12.9048 16.2382 12.625 16.5833 12.625C16.9285 12.625 17.2083 12.9048 17.2083 13.25V14.7083C17.2083 14.9385 17.3949 15.125 17.625 15.125H19.0833C19.4285 15.125 19.7083 15.4048 19.7083 15.75C19.7083 16.0952 19.4285 16.375 19.0833 16.375Z" fill="#5A5A5A"/>
</g>
</svg>
