<?xml version="1.0" encoding="UTF-8"?>
<svg width="24px" height="24px" viewBox="0 0 24 24" version="1.1" xmlns="http://www.w3.org/2000/svg" xmlns:xlink="http://www.w3.org/1999/xlink">
    <title>3. Finance/credit_card_visa</title>
    <g id="3.-Finance/credit_card_visa" stroke="none" stroke-width="1" fill="none" fill-rule="evenodd">
        <path d="M20.2608333,4.91666667 C21.2002405,4.899433 21.9772418,5.64404377 22,6.58333333 L22,6.58333333 L22,17.4166667 C21.9772418,18.3559562 21.2002405,19.100567 20.2608333,19.0833333 L20.2608333,19.0833333 L3.73916667,19.0833333 C2.79993896,19.1001084 2.02320869,18.3557574 2,17.4166667 L2,17.4166667 L2,6.58333333 C2.02320869,5.64424257 2.79993896,4.89989158 3.73916667,4.91666667 L3.73916667,4.91666667 Z M14.5441667,9.66666667 C14.38,9.62416667 12.9275,9.2775 12.3133333,10.3016667 C11.98,10.8508333 11.8558333,11.6766667 13.1466667,12.4683333 C13.285,12.5525 13.5591667,12.6566667 13.5766667,12.845 C13.5761723,12.9623332 13.5032012,13.0671463 13.3933333,13.1083333 C13.0974643,13.2040384 12.7762529,13.1834785 12.495,13.0508333 C12.2842133,12.976403 12.0497302,13.0200799 11.8798783,13.1654114 C11.7100264,13.3107428 11.6306102,13.5356496 11.671545,13.7554114 C11.7124798,13.9751732 11.8675466,14.156403 12.0783333,14.2308333 C12.403114,14.3504785 12.7456136,14.4149788 13.0916667,14.4216667 C13.3991406,14.4260366 13.702909,14.3541743 13.9758333,14.2125 C14.3852068,13.9928432 14.6847057,13.6127332 14.8025,13.1633333 C14.9216667,12.7133333 14.8433333,12.0441667 13.7958333,11.4016667 C13.6933333,11.3408333 13.2108333,11.1033333 13.3941667,10.9241667 C13.5775,10.745 14.0116667,10.8191667 14.2275,10.8733333 C14.560483,10.9564092 14.8986136,10.7573126 14.9875,10.4258333 C15.0722632,10.0941114 14.8747276,9.75585025 14.5441667,9.66666667 Z M11.1321862,9.82181316 C10.9626913,9.66958724 10.7237932,9.62164511 10.5086896,9.69668969 C10.293586,9.77173426 10.1363545,9.95787663 10.0983333,10.1825 L10.0983333,10.1825 L9.42083333,13.5683333 C9.35336565,13.9067554 9.57256579,14.2359284 9.91083333,14.3041667 C9.9517951,14.3117246 9.9933473,14.3156289 10.035,14.3158333 C10.3317298,14.3154982 10.5873209,14.1065682 10.6466667,13.8158333 L10.6466667,13.8158333 L11.3233333,10.4283333 C11.3749208,10.2064325 11.3016812,9.97403908 11.1321862,9.82181316 Z M17.7941667,9.69499809 C17.5501786,9.69440674 17.3268518,9.83188825 17.2175,10.05 L17.2175,10.05 L15.6058333,13.4183333 C15.471089,13.7273124 15.605269,14.0875024 15.9093239,14.2330176 C16.2133789,14.3785328 16.5780601,14.2570888 16.7341667,13.9583333 L16.7341667,13.9583333 L16.9841667,13.4291667 C17.0185876,13.3568383 17.0915655,13.3107811 17.1716667,13.3108333 L17.1716667,13.3108333 L17.8208333,13.3108333 C17.9290712,13.3108837 18.0192414,13.3938113 18.0283333,13.5016667 L18.0283333,13.5016667 L18.0441667,13.6875 C18.0566665,13.853141 18.1350244,14.0068642 18.261719,14.1142963 C18.3884136,14.2217283 18.5528768,14.2739077 18.7183333,14.2591667 L18.7183333,14.2591667 C19.0620323,14.2346077 19.3174969,13.9328984 19.2891667,13.5891667 C19.0833333,11.1 19.0833333,11.1016667 19.0158333,10.2816667 C18.9890555,9.96267291 18.725873,9.71531017 18.4058333,9.70833333 L18.4058333,9.70833333 Z M8.80106099,9.6930529 C8.49502158,9.54636193 8.12783307,9.67032754 7.97333333,9.9725 L7.97333333,9.9725 L7.14,11.71 C7.09956863,11.7940526 7.00819767,11.8409899 6.91632423,11.8249024 C6.82445079,11.8088149 6.7544653,11.7336231 6.745,11.6408333 L6.745,11.6408333 L6.60583333,10.2708333 C6.57334483,9.95187337 6.30477696,9.70922626 5.98416667,9.70916667 L5.98416667,9.70916667 L4.91666667,9.70916667 C4.5714887,9.70916667 4.29166667,9.9889887 4.29166667,10.3341667 C4.29166667,10.6793446 4.5714887,10.9591667 4.91666667,10.9591667 L4.91666667,10.9591667 L5.23166667,10.9591667 C5.33856991,10.9590983 5.42802943,11.0402611 5.43833333,11.1466667 L5.43833333,11.1466667 L5.70083333,13.73 C5.73332184,14.04896 6.00188971,14.2916071 6.3225,14.2916667 L6.3225,14.2916667 L6.89583333,14.2916667 C7.13650484,14.2916667 7.35584788,14.1536347 7.46,13.9366667 L7.46,13.9366667 L9.10083333,10.5125 C9.24045218,10.2036287 9.10710041,9.83974388 8.80106099,9.6930529 Z" id="ðŸ–-Color" fill="#5A5A5A"></path>
        <rect id="_Transparent_Rectangle_" fill-opacity="0" fill="#D8D8D8" x="0" y="0" width="24" height="24"></rect>
    </g>
</svg>