<?xml version="1.0" encoding="UTF-8"?>
<svg width="24px" height="24px" viewBox="0 0 24 24" version="1.1" xmlns="http://www.w3.org/2000/svg" xmlns:xlink="http://www.w3.org/1999/xlink">
    <title>3. Finance/credit_card_remove</title>
    <g id="3.-Finance/credit_card_remove" stroke="none" stroke-width="1" fill="none" fill-rule="evenodd">
        <path d="M16.5833333,10.125 C18.0199227,10.125 19.397673,10.6956829 20.4134951,11.7115049 C21.4293171,12.727327 22,14.1050773 22,15.5416667 C22,18.5332091 19.5748757,20.9583333 16.5833333,20.9583333 C13.5917909,20.9583333 11.1666667,18.5332091 11.1666667,15.5416667 C11.1666667,12.5501243 13.5917909,10.125 16.5833333,10.125 Z M19.0930182,13.0319818 C18.8550081,12.7939718 18.4712581,12.7872009 18.225,13.0166667 L18.225,13.0166667 L16.7308333,14.5108333 C16.6490554,14.591529 16.5176113,14.591529 16.4358333,14.5108333 L16.4358333,14.5108333 L14.9416667,13.0166667 C14.6954085,12.7872009 14.3116586,12.7939718 14.0736485,13.0319818 C13.8356384,13.2699919 13.8288676,13.6537419 14.0583333,13.9 L14.0583333,13.9 L15.5525,15.3941667 C15.6331957,15.4759446 15.6331957,15.6073887 15.5525,15.6891667 L15.5525,15.6891667 L14.0583333,17.1833333 C13.8288676,17.4295915 13.8356384,17.8133414 14.0736485,18.0513515 C14.3116586,18.2893616 14.6954085,18.2961324 14.9416667,18.0666667 L14.9416667,18.0666667 L16.4358333,16.5725 C16.5176113,16.4918043 16.6490554,16.4918043 16.7308333,16.5725 L16.7308333,16.5725 L18.225,18.0666667 C18.3808088,18.2338776 18.615463,18.3027077 18.8369074,18.2461546 C19.0583519,18.1896016 19.2312683,18.0166852 19.2878213,17.7952408 C19.3443743,17.5737963 19.2755443,17.3391422 19.1083333,17.1833333 L19.1083333,17.1833333 L17.6141667,15.6891667 C17.533471,15.6073887 17.533471,15.4759446 17.6141667,15.3941667 L17.6141667,15.3941667 L19.1083333,13.9 C19.3377991,13.6537419 19.3310282,13.2699919 19.0930182,13.0319818 Z M16.7916667,6.58333333 C16.906726,6.58333333 17,6.67660734 17,6.79166667 L17,6.79166667 L17,8.25 C16.9997921,8.30620705 16.9769715,8.35996523 16.936682,8.3991574 C16.8963924,8.43834958 16.8420247,8.45967732 16.7858333,8.45833333 L16.7858333,8.45833333 L16.5833333,8.45833333 C13.3740974,8.46233659 10.5670376,10.619826 9.7375,13.72 C9.71361293,13.811339 9.63107748,13.875 9.53666667,13.875 L9.53666667,13.875 L4.08333333,13.875 C2.9327401,13.875 2,12.9422599 2,11.7916667 L2,11.7916667 L2,6.79166667 C2,6.67660734 2.09327401,6.58333333 2.20833333,6.58333333 L2.20833333,6.58333333 Z M7.41666667,10.3333333 L4.91666667,10.3333333 C4.5714887,10.3333333 4.29166667,10.6131554 4.29166667,10.9583333 C4.29166667,11.3035113 4.5714887,11.5833333 4.91666667,11.5833333 L4.91666667,11.5833333 L7.41666667,11.5833333 C7.76184464,11.5833333 8.04166667,11.3035113 8.04166667,10.9583333 C8.04166667,10.6131554 7.76184464,10.3333333 7.41666667,10.3333333 L7.41666667,10.3333333 Z M14.9166667,3.04166667 C16.0672599,3.04166667 17,3.97440677 17,5.125 C17,5.24005932 16.906726,5.33333333 16.7916667,5.33333333 L16.7916667,5.33333333 L2.20833333,5.33333333 C2.1530799,5.33333333 2.1000895,5.31138399 2.06101942,5.27231391 C2.02194934,5.23324383 2,5.18025344 2,5.125 C2,3.97440677 2.9327401,3.04166667 4.08333333,3.04166667 L4.08333333,3.04166667 Z" id="ðŸ–-Color" fill="#5A5A5A"></path>
        <rect id="_Transparent_Rectangle_" fill-opacity="0" fill="#D8D8D8" x="0.00029540511" y="0" width="24" height="24"></rect>
    </g>
</svg>