<?xml version="1.0" encoding="UTF-8"?>
<svg width="24px" height="24px" viewBox="0 0 24 24" version="1.1" xmlns="http://www.w3.org/2000/svg" xmlns:xlink="http://www.w3.org/1999/xlink">
    <title>3. Finance/credit_card_disable</title>
    <g id="3.-Finance/credit_card_disable" stroke="none" stroke-width="1" fill="none" fill-rule="evenodd">
        <path d="M16.375,9.5 C19.4800788,9.50367357 21.9963264,12.0199212 22,15.125 C22,18.2316017 19.4816017,20.75 16.375,20.75 C13.2683983,20.75 10.75,18.2316017 10.75,15.125 C10.75,12.0183983 13.2683983,9.5 16.375,9.5 Z M19.6875,13.1075 C19.6226557,13.0991065 19.5575434,13.120913 19.5108333,13.1666667 L19.5108333,13.1666667 L14.4175,18.2608333 C14.3710879,18.3069765 14.3491654,18.3723115 14.358352,18.4371102 C14.3675387,18.5019089 14.4067577,18.5585758 14.4641667,18.59 C15.0487824,18.914295 15.7064626,19.0840929 16.375,19.0833359 C17.7754987,19.0837342 19.0719142,18.3439022 19.7839621,17.1379235 C20.49601,15.9319448 20.5176379,14.4394379 19.8408333,13.2133333 C19.8090249,13.1560726 19.7523195,13.1169336 19.6875,13.1075 Z M16.375,11.1666641 C14.9739067,11.165085 13.676409,11.9044483 12.9635506,13.1106398 C12.2506921,14.3168312 12.2287402,15.8100413 12.9058333,17.0366667 C12.9372229,17.0953341 12.9947471,17.1354791 13.0606414,17.1447043 C13.1265357,17.1539296 13.1928729,17.1311251 13.2391667,17.0833333 L13.2391667,17.0833333 L18.3325,11.9891667 C18.3791535,11.943012 18.401113,11.8774428 18.3916667,11.8125 C18.3822961,11.7481003 18.3434845,11.6917311 18.2866667,11.66 C17.7017218,11.3357742 17.0437917,11.1659858 16.375,11.1666641 Z M16.1891667,6.79166666 C16.2017348,6.79166666 16.2120511,6.80160658 16.2125,6.81416667 L16.2125,6.81416667 L16.2125,7.21833333 C16.2122065,7.32942907 16.1251137,7.42091307 16.0141667,7.42666667 C12.5306376,7.60002519 9.59745192,10.0906528 8.86166667,13.5 C8.84186381,13.5970138 8.7565143,13.6666667 8.6575,13.6666667 L8.6575,13.6666667 L3.99083333,13.6666667 C3.45952718,13.6642449 2.95101991,13.4505144 2.57752098,13.0726379 C2.20402204,12.6947614 1.99623102,12.1837983 1.99994961,11.6525 L1.99994961,11.6525 L1.99994961,6.81416667 C1.99994961,6.8081993 2.00237053,6.80247633 2.0065901,6.79825676 C2.01080967,6.7940372 2.01653263,6.79166666 2.0225,6.79166666 L2.0225,6.79166666 Z M7.13833333,8.875 L4.7775,8.875 C4.43232203,8.875 4.1525,9.15482203 4.1525,9.5 C4.1525,9.84517797 4.43232203,10.125 4.7775,10.125 L4.7775,10.125 L7.13833333,10.125 C7.4835113,10.125 7.76333333,9.84517797 7.76333333,9.5 C7.76333333,9.15482203 7.4835113,8.875 7.13833333,8.875 L7.13833333,8.875 Z M14.2216667,3.25 C15.3270457,3.25779876 16.2175813,4.15877183 16.2125216,5.26416667 L16.2125216,5.26416667 L16.2125216,5.51916667 C16.2120511,5.53172675 16.2017348,5.54166667 16.1891667,5.54166667 L16.1891667,5.54166667 L2.0225,5.54166667 C2.01653263,5.54166667 2.01080967,5.53929614 2.0065901,5.53507657 C2.00237053,5.530857 1.99994961,5.52513404 1.99994961,5.51916667 L1.99994961,5.51916667 L1.99994961,5.26416667 C1.99623102,4.73286836 2.20402204,4.22190529 2.57752098,3.8440288 C2.95101991,3.46615231 3.45952718,3.25242181 3.99083333,3.25 L3.99083333,3.25 Z" id="ðŸ–-Color" fill="#5A5A5A"></path>
        <rect id="_Transparent_Rectangle_" fill-opacity="0" fill="#D8D8D8" x="0" y="0" width="24" height="24"></rect>
    </g>
</svg>