<svg width="24" height="24" viewBox="0 0 24 24" fill="none" xmlns="http://www.w3.org/2000/svg">
<g id="credit_card_mastercard">
<path id="Shape" fill-rule="evenodd" clip-rule="evenodd" d="M20.2608 4.91668H3.73917C2.79994 4.8999 2.02321 5.64425 2 6.58334V17.4167C2.02321 18.3558 2.79994 19.1001 3.73917 19.0833H20.2608C21.2002 19.1006 21.9772 18.356 22 17.4167V6.58334C21.9772 5.64405 21.2002 4.89944 20.2608 4.91668ZM14.5592 16.7325C13.5992 16.7294 12.6683 16.4029 11.9167 15.8058C11.841 15.7467 11.7348 15.7467 11.6592 15.8058C10.9093 16.4026 9.98004 16.7291 9.02167 16.7325C6.6381 16.7325 4.70583 14.8002 4.70583 12.4167C4.70583 10.0331 6.6381 8.10084 9.02167 8.10084C9.98275 8.10261 10.915 8.4295 11.6667 9.02834C11.7419 9.08791 11.8481 9.08791 11.9233 9.02834C12.6744 8.43202 13.6043 8.10563 14.5633 8.10168C16.9469 8.10168 18.8792 10.0339 18.8792 12.4175C18.8792 14.8011 16.9469 16.7333 14.5633 16.7333L14.5592 16.7325ZM14.5592 9.35084C16.2516 9.35268 17.6232 10.7242 17.625 12.4167C17.6232 14.1091 16.2516 15.4807 14.5592 15.4825C13.92 15.4781 13.299 15.2696 12.7867 14.8875C12.6999 14.824 12.6757 14.7048 12.7308 14.6125C13.5419 13.261 13.5419 11.5724 12.7308 10.2208C12.6761 10.1284 12.7002 10.0096 12.7867 9.94584C13.299 9.56376 13.92 9.3553 14.5592 9.35084Z" fill="#5A5A5A"/>
</g>
</svg>
