<svg width="24" height="24" viewBox="0 0 24 24" fill="none" xmlns="http://www.w3.org/2000/svg">
<g id="credit_card_lock">
<path id="Shape" fill-rule="evenodd" clip-rule="evenodd" d="M18.6667 3.66667C18.6667 2.74619 17.9205 2 17 2H3.66667C2.74619 2 2 2.74619 2 3.66667V4.5C2 4.61506 2.09327 4.70833 2.20833 4.70833H18.4583C18.5734 4.70833 18.6667 4.61506 18.6667 4.5V3.66667ZM13.1667 12.9492C13.2287 12.9174 13.2706 12.8567 13.2783 12.7875C13.5163 10.6807 15.2965 9.0873 17.4167 9.08333C17.7508 9.08568 18.0832 9.13077 18.4058 9.2175C18.4683 9.23376 18.5347 9.22017 18.5858 9.18071C18.6368 9.14124 18.6667 9.08035 18.6667 9.01583V6.16667C18.6667 6.05161 18.5734 5.95833 18.4583 5.95833H2.20833C2.09327 5.95833 2 6.05161 2 6.16667V12.8333C2 13.7538 2.74619 14.5 3.66667 14.5H11.6433C11.7264 14.5001 11.8016 14.451 11.835 14.375C12.1027 13.7614 12.5727 13.2581 13.1667 12.9492ZM7 12.2083H4.5C4.15482 12.2083 3.875 11.9285 3.875 11.5833C3.875 11.2382 4.15482 10.9583 4.5 10.9583H7C7.34518 10.9583 7.625 11.2382 7.625 11.5833C7.625 11.9285 7.34518 12.2083 7 12.2083ZM4.5 9.29167H9.91667C10.2618 9.29167 10.5417 9.01184 10.5417 8.66667C10.5417 8.32149 10.2618 8.04167 9.91667 8.04167H4.5C4.15482 8.04167 3.875 8.32149 3.875 8.66667C3.875 9.01184 4.15482 9.29167 4.5 9.29167ZM20.75 14.7233C20.7498 14.8268 20.8259 14.9146 20.9283 14.9292C21.5436 15.0178 22.0001 15.5451 22 16.1667V20.75C22 21.4404 21.4404 22 20.75 22H14.9167C14.2263 22 13.6667 21.4404 13.6667 20.75V16.1667C13.6665 15.5451 14.1231 15.0178 14.7383 14.9292C14.8408 14.9146 14.9169 14.8268 14.9167 14.7233V13.875C14.9167 12.2642 16.2225 10.9583 17.8333 10.9583C19.4442 10.9583 20.75 12.2642 20.75 13.875V14.7233ZM19.0833 13.875C19.0833 13.1846 18.5237 12.625 17.8333 12.625C17.143 12.625 16.5833 13.1846 16.5833 13.875V14.7083C16.5833 14.8234 16.6766 14.9167 16.7917 14.9167H18.875C18.9901 14.9167 19.0833 14.8234 19.0833 14.7083V13.875ZM18.6667 18.875C18.6667 19.3352 18.2936 19.7083 17.8333 19.7083C17.3731 19.7083 17 19.3352 17 18.875C17 18.4148 17.3731 18.0417 17.8333 18.0417C18.2936 18.0417 18.6667 18.4148 18.6667 18.875Z" fill="#5A5A5A"/>
</g>
</svg>
