<?xml version="1.0" encoding="UTF-8"?>
<svg width="24px" height="24px" viewBox="0 0 24 24" version="1.1" xmlns="http://www.w3.org/2000/svg" xmlns:xlink="http://www.w3.org/1999/xlink">
    <title>3. Finance/credit_card_1</title>
    <g id="3.-Finance/credit_card_1" stroke="none" stroke-width="1" fill="none" fill-rule="evenodd">
        <path d="M21.375,9.70833333 C21.4900593,9.70833333 21.5833333,9.80160734 21.5833333,9.91666667 L21.5833333,9.91666667 L21.5833333,17 C21.5833333,17.9204746 20.8371412,18.6666667 19.9166667,18.6666667 L19.9166667,18.6666667 L4.08333333,18.6666667 C3.16285875,18.6666667 2.41666667,17.9204746 2.41666667,17 L2.41666667,17 L2.41666667,9.91666667 C2.41666667,9.80160734 2.50994068,9.70833333 2.625,9.70833333 L2.625,9.70833333 Z M18.6666667,15.125 L16.1666667,15.125 C15.8214887,15.125 15.5416667,15.404822 15.5416667,15.75 C15.5416667,16.095178 15.8214887,16.375 16.1666667,16.375 L16.1666667,16.375 L18.6666667,16.375 C19.0118446,16.375 19.2916667,16.095178 19.2916667,15.75 C19.2916667,15.404822 19.0118446,15.125 18.6666667,15.125 L18.6666667,15.125 Z M8.25,15.125 L5.75,15.125 C5.40482203,15.125 5.125,15.404822 5.125,15.75 C5.125,16.095178 5.40482203,16.375 5.75,16.375 L5.75,16.375 L8.25,16.375 C8.59517797,16.375 8.875,16.095178 8.875,15.75 C8.875,15.404822 8.59517797,15.125 8.25,15.125 L8.25,15.125 Z M12.4166667,11.7916667 L5.75,11.7916667 C5.40482203,11.7916667 5.125,12.0714887 5.125,12.4166667 C5.125,12.7618446 5.40482203,13.0416667 5.75,13.0416667 L5.75,13.0416667 L12.4166667,13.0416667 C12.7618446,13.0416667 13.0416666,12.7618446 13.0416666,12.4166667 C13.0416666,12.0714887 12.7618446,11.7916667 12.4166667,11.7916667 L12.4166667,11.7916667 Z M19.9166667,5.33333333 C20.8371412,5.33333333 21.5833333,6.07952542 21.5833333,7 L21.5833333,7 L21.5833333,8.25 C21.5833333,8.36505932 21.4900593,8.45833333 21.375,8.45833333 L21.375,8.45833333 L2.625,8.45833333 C2.50994068,8.45833333 2.41666667,8.36505932 2.41666667,8.25 L2.41666667,8.25 L2.41666667,7 C2.41666667,6.07952542 3.16285875,5.33333333 4.08333333,5.33333333 L4.08333333,5.33333333 Z" id="ðŸ–-Color" fill="#5A5A5A"></path>
        <rect id="_Transparent_Rectangle_" fill-opacity="0" fill="#D8D8D8" x="0" y="0" width="24" height="24"></rect>
    </g>
</svg>