<svg width="24" height="24" viewBox="0 0 24 24" fill="none" xmlns="http://www.w3.org/2000/svg">
<g id="credit_card_smartphone">
<path id="Shape" fill-rule="evenodd" clip-rule="evenodd" d="M18.6667 3.66667C18.6667 2.74619 17.9205 2 17 2H3.66667C2.74619 2 2 2.74619 2 3.66667V4.5C2 4.61506 2.09327 4.70833 2.20833 4.70833H18.4583C18.5734 4.70833 18.6667 4.61506 18.6667 4.5V3.66667ZM14.0833 13.2575C14.0792 11.8823 15.1865 10.7619 16.5617 10.75H18.4583C18.5734 10.75 18.6667 10.6567 18.6667 10.5417V6.16667C18.6667 6.05161 18.5734 5.95833 18.4583 5.95833H2.20833C2.09327 5.95833 2 6.05161 2 6.16667V12.8333C2 13.7538 2.74619 14.5 3.66667 14.5H13.875C13.9901 14.5 14.0833 14.4067 14.0833 14.2917V13.2575ZM7 12.2083H4.5C4.15482 12.2083 3.875 11.9285 3.875 11.5833C3.875 11.2382 4.15482 10.9583 4.5 10.9583H7C7.34518 10.9583 7.625 11.2382 7.625 11.5833C7.625 11.9285 7.34518 12.2083 7 12.2083ZM4.5 9.29167H9.91667C10.2618 9.29167 10.5417 9.01184 10.5417 8.66667C10.5417 8.32149 10.2618 8.04167 9.91667 8.04167H4.5C4.15482 8.04167 3.875 8.32149 3.875 8.66667C3.875 9.01184 4.15482 9.29167 4.5 9.29167ZM20.7717 12H16.5617C15.8755 12.0087 15.3259 12.5713 15.3333 13.2575V20.7425C15.3259 21.4287 15.8755 21.9913 16.5617 22H20.7717C21.4578 21.9913 22.0074 21.4287 22 20.7425V13.2575C22.0074 12.5713 21.4578 12.0087 20.7717 12ZM20.3333 19.0833C20.3333 19.3135 20.1468 19.5 19.9167 19.5H17.4167C17.1865 19.5 17 19.3135 17 19.0833V14.0833C17 13.8532 17.1865 13.6667 17.4167 13.6667H19.9167C20.1468 13.6667 20.3333 13.8532 20.3333 14.0833V19.0833Z" fill="#5A5A5A"/>
</g>
</svg>
