<svg width="24" height="24" viewBox="0 0 24 24" fill="none" xmlns="http://www.w3.org/2000/svg">
<g id="credit_card">
<path id="Shape" fill-rule="evenodd" clip-rule="evenodd" d="M19.5 2H7C5.61929 2 4.5 3.11929 4.5 4.5V8.25C4.5 8.71024 4.8731 9.08333 5.33333 9.08333C5.79357 9.08333 6.16667 8.71024 6.16667 8.25V8.04167C6.16667 7.92661 6.25994 7.83333 6.375 7.83333H20.125C20.2401 7.83333 20.3333 7.92661 20.3333 8.04167V12C20.3332 12.3096 20.1616 12.5936 19.8875 12.7375C19.6393 12.8825 19.4905 13.1519 19.5 13.4392C19.4978 13.7297 19.6471 14.0004 19.8941 14.1536C20.141 14.3067 20.4498 14.3202 20.7092 14.1892C21.5059 13.7489 22.0004 12.9103 22 12V4.5C22 3.11929 20.8807 2 19.5 2ZM6.375 5.33333C6.25994 5.33333 6.16667 5.24006 6.16667 5.125V4.5C6.16667 4.03976 6.53976 3.66667 7 3.66667H19.5C19.9602 3.66667 20.3333 4.03976 20.3333 4.5V5.125C20.3333 5.24006 20.2401 5.33333 20.125 5.33333H6.375ZM3.66667 10.3333H16.1667C17.0871 10.3333 17.8333 11.0795 17.8333 12V20.3333C17.8333 21.2538 17.0871 22 16.1667 22H3.66667C2.74619 22 2 21.2538 2 20.3333V12C2 11.0795 2.74619 10.3333 3.66667 10.3333ZM6.58333 15.3333C6.81345 15.3333 7 15.1468 7 14.9167V13.25C7 13.0199 6.81345 12.8333 6.58333 12.8333H4.91667C4.68655 12.8333 4.5 13.0199 4.5 13.25V14.9167C4.5 15.1468 4.68655 15.3333 4.91667 15.3333H6.58333ZM14.0833 19.5C13.6733 19.5004 13.2776 19.349 12.9725 19.075C12.8932 19.0043 12.7735 19.0043 12.6942 19.075C12.0262 19.6731 11.0047 19.6356 10.3824 18.99C9.76016 18.3444 9.76016 17.3222 10.3824 16.6767C11.0047 16.0311 12.0262 15.9935 12.6942 16.5917C12.7735 16.6624 12.8932 16.6624 12.9725 16.5917C13.5261 16.096 14.341 16.0267 14.9704 16.4217C15.5997 16.8168 15.8915 17.5808 15.6858 18.2948C15.48 19.0089 14.8264 19.5004 14.0833 19.5Z" fill="#5A5A5A"/>
</g>
</svg>
