<?xml version="1.0" encoding="UTF-8"?>
<svg width="24px" height="24px" viewBox="0 0 24 24" version="1.1" xmlns="http://www.w3.org/2000/svg" xmlns:xlink="http://www.w3.org/1999/xlink">
    <title>3. Finance/credit_card_lock</title>
    <g id="3.-Finance/credit_card_lock" stroke="none" stroke-width="1" fill="none" fill-rule="evenodd">
        <path d="M17.8333333,10.9583334 C19.4441638,10.9583334 20.75,12.2641695 20.75,13.875 L20.75,13.875 L20.75,14.7233333 C20.7498038,14.8268136 20.8258803,14.9146214 20.9283333,14.9291667 C21.5435497,15.0178446 22.0001425,15.5450921 22,16.1666667 L22,16.1666667 L22,20.75 C22,21.4403559 21.4403559,22 20.75,22 L20.75,22 L14.9166667,22 C14.2263107,22 13.6666666,21.4403559 13.6666666,20.75 L13.6666666,20.75 L13.6666666,16.1666667 C13.6665242,15.5450921 14.1231169,15.0178446 14.7383333,14.9291667 C14.8407864,14.9146214 14.9168628,14.8268136 14.9166667,14.7233333 L14.9166667,14.7233333 L14.9166667,13.875 C14.9166667,12.2641695 16.2225028,10.9583334 17.8333333,10.9583334 Z M17.8333333,18.0416667 C17.373096,18.0416667 17,18.4147627 17,18.875 C17,19.3352373 17.373096,19.7083333 17.8333333,19.7083333 C18.2935706,19.7083333 18.6666667,19.3352373 18.6666667,18.875 C18.6666667,18.4147627 18.2935706,18.0416667 17.8333333,18.0416667 Z M17.8333333,12.625 C17.1429774,12.625 16.5833333,13.1846441 16.5833333,13.875 L16.5833333,13.875 L16.5833333,14.7083333 C16.5833333,14.8233927 16.6766073,14.9166667 16.7916667,14.9166667 L16.7916667,14.9166667 L18.875,14.9166667 C18.9900593,14.9166667 19.0833333,14.8233927 19.0833333,14.7083333 L19.0833333,14.7083333 L19.0833333,13.875 C19.0833333,13.1846441 18.5236893,12.625 17.8333333,12.625 Z M18.4583333,5.95833333 C18.5733927,5.95833333 18.6666667,6.05160734 18.6666667,6.16666667 L18.6666667,6.16666667 L18.6666667,9.01583333 C18.6666667,9.08035385 18.6368066,9.14124162 18.5857632,9.18070646 C18.5347198,9.22017129 18.4682716,9.23375917 18.4058333,9.2175 C18.0831831,9.1307714 17.7507617,9.08568307 17.4166667,9.08333333 C15.2964566,9.08729715 13.5163085,10.6806839 13.2783333,12.7875 C13.2706003,12.8567138 13.2286608,12.9174322 13.1666667,12.9491667 C12.5727232,13.258093 12.1026884,13.7613656 11.835,14.375 C11.8015867,14.4510177 11.7263703,14.5000001 11.6433333,14.5000001 L11.6433333,14.5000001 L3.66666667,14.5000001 C2.74619208,14.5000001 2,13.7538079 2,12.8333333 L2,12.8333333 L2,6.16666667 C2,6.05160734 2.09327401,5.95833333 2.20833333,5.95833333 L2.20833333,5.95833333 Z M7,10.9583333 L4.5,10.9583333 C4.15482203,10.9583333 3.875,11.2381554 3.875,11.5833333 C3.875,11.9285113 4.15482203,12.2083333 4.5,12.2083333 L4.5,12.2083333 L7,12.2083333 C7.34517797,12.2083333 7.625,11.9285113 7.625,11.5833333 C7.625,11.2381554 7.34517797,10.9583333 7,10.9583333 L7,10.9583333 Z M9.91666667,8.04166667 L4.5,8.04166667 C4.15482203,8.04166667 3.875,8.3214887 3.875,8.66666667 C3.875,9.01184464 4.15482203,9.29166667 4.5,9.29166667 L4.5,9.29166667 L9.91666667,9.29166667 C10.2618446,9.29166667 10.5416667,9.01184464 10.5416667,8.66666667 C10.5416667,8.3214887 10.2618446,8.04166667 9.91666667,8.04166667 L9.91666667,8.04166667 Z M17,2 C17.9204746,2 18.6666667,2.74619208 18.6666667,3.66666667 L18.6666667,3.66666667 L18.6666667,4.5 C18.6666667,4.61505932 18.5733927,4.70833333 18.4583333,4.70833333 L18.4583333,4.70833333 L2.20833333,4.70833333 C2.09327401,4.70833333 2,4.61505932 2,4.5 L2,4.5 L2,3.66666667 C2,2.74619208 2.74619208,2 3.66666667,2 L3.66666667,2 Z" id="ðŸ–-Color" fill="#5A5A5A"></path>
        <rect id="_Transparent_Rectangle_" fill-opacity="0" fill="#D8D8D8" x="0" y="0.0782455328" width="24" height="24"></rect>
    </g>
</svg>