<svg width="24" height="24" viewBox="0 0 24 24" fill="none" xmlns="http://www.w3.org/2000/svg">
<g id="credit_card_phone_call">
<path id="Shape" fill-rule="evenodd" clip-rule="evenodd" d="M18.6667 3.66667C18.6667 2.74619 17.9205 2 17 2H3.66667C2.74619 2 2 2.74619 2 3.66667V4.5C2 4.61506 2.09327 4.70833 2.20833 4.70833H18.4583C18.5734 4.70833 18.6667 4.61506 18.6667 4.5V3.66667ZM19.5833 10.1667C19.9576 10.1731 20.3141 10.3274 20.575 10.5958L21.365 11.3792C22.0397 12.007 22.1933 13.0166 21.7358 13.8167C19.7149 17.0086 17.0111 19.7124 13.8192 21.7333C13.5353 21.9102 13.207 22.0027 12.8725 22C12.3113 21.9926 11.7757 21.7638 11.3825 21.3633L10.5958 20.5758C10.0691 20.0996 10.0263 19.2873 10.5 18.7583L11.7858 17.4708C12.0043 17.2545 12.3001 17.1345 12.6075 17.1375C12.9842 17.1408 13.344 17.2941 13.6075 17.5633L13.9533 17.9083C14.0289 17.984 14.1496 17.9902 14.2325 17.9225C15.5828 16.8189 16.8189 15.5828 17.9225 14.2325C17.9894 14.1495 17.983 14.0294 17.9075 13.9542L17.5625 13.6092C17.0357 13.1327 16.9929 12.3201 17.4667 11.7908L18.7617 10.5C18.9799 10.2834 19.2759 10.1633 19.5833 10.1667ZM16.2875 14C16.3369 14.0788 16.3281 14.1809 16.2658 14.25L16.1008 14.4317C16.0612 14.475 16.0053 14.4998 15.9467 14.5H3.66667C2.74619 14.5 2 13.7538 2 12.8333V6.16667C2 6.05161 2.09327 5.95833 2.20833 5.95833H18.4583C18.5734 5.95833 18.6667 6.05161 18.6667 6.16667V8.9725C18.6669 9.04418 18.6252 9.10938 18.56 9.13917C18.3049 9.25613 18.0727 9.41753 17.8742 9.61583L16.5817 10.9075C15.7773 11.7449 15.6555 13.0259 16.2875 14ZM4.5 12.2083H7C7.34518 12.2083 7.625 11.9285 7.625 11.5833C7.625 11.2382 7.34518 10.9583 7 10.9583H4.5C4.15482 10.9583 3.875 11.2382 3.875 11.5833C3.875 11.9285 4.15482 12.2083 4.5 12.2083ZM9.91667 9.29167H4.5C4.15482 9.29167 3.875 9.01184 3.875 8.66667C3.875 8.32149 4.15482 8.04167 4.5 8.04167H9.91667C10.2618 8.04167 10.5417 8.32149 10.5417 8.66667C10.5417 9.01184 10.2618 9.29167 9.91667 9.29167Z" fill="#5A5A5A"/>
</g>
</svg>
