<?xml version="1.0" encoding="UTF-8"?>
<svg width="24px" height="24px" viewBox="0 0 24 24" version="1.1" xmlns="http://www.w3.org/2000/svg" xmlns:xlink="http://www.w3.org/1999/xlink">
    <title>3. Finance/credit_card_flag</title>
    <g id="3.-Finance/credit_card_flag" stroke="none" stroke-width="1" fill="none" fill-rule="evenodd">
        <path d="M14.888,12.5983333 C15.8559179,12.2528614 16.9236194,12.4039338 17.768,13.0058333 C18.4007244,13.4581297 19.2008945,13.5738951 19.928,13.3183333 L19.928,13.3183333 L19.9488,13.31 L20.6456,12.9725 C20.7694172,12.9131547 20.9137223,12.9235666 21.0285024,13.0001271 C21.1432825,13.0766876 21.2128,13.2088589 21.2128,13.3508333 L21.2128,13.3508333 L21.2128,17.9341667 C21.2128,18.0967962 21.1218307,18.2445209 20.98,18.3125 L20.98,18.3125 L20.244,18.6666667 L20.224,18.675 C19.8763078,18.7974404 19.5118229,18.8602031 19.1448,18.8608333 C18.4931205,18.8615725 17.8562591,18.6583436 17.3168,18.2775 C16.6795415,17.823269 15.8738562,17.7089795 15.1432,17.9691667 L15.1432,17.9691667 L14.9424,18.04 C14.8610773,18.068612 14.80635,18.1480874 14.8064,18.2375 L14.8064,18.2375 L14.8064,21.375 C14.8064,21.720178 14.5377708,22 14.2064,22 C13.8750292,22 13.6064,21.720178 13.6064,21.375 L13.6064,21.375 L13.6016,13.3508333 C13.601843,13.1723147 13.7112333,13.0137925 13.8736,12.9566667 L13.8736,12.9566667 Z M17.8,5.95833333 C17.9104569,5.95833333 18,6.05160734 18,6.16666667 L18,6.16666667 L18,11.3641667 C18.0005049,11.4348214 17.9664601,11.5008879 17.9096511,11.5394956 C17.852842,11.5781034 17.7810773,11.5839457 17.7192,11.555 C16.7015841,11.0897124 15.553457,11.0388645 14.5016,11.4125 L14.5016,11.4125 L13.4864,11.7708333 C12.8370084,12.000107 12.4000543,12.6349184 12.4,13.3491667 L12.4,13.3491667 L12.4,14.2916667 C12.4002137,14.346988 12.379211,14.4001079 12.3416573,14.4392263 C12.3041036,14.4783448 12.2531085,14.5002226 12.2,14.5000017 L12.2,14.5000017 L3.6,14.5000017 C2.7163444,14.5000017 2,13.7538079 2,12.8333333 L2,12.8333333 L2,6.16666667 C2,6.05160734 2.08954305,5.95833333 2.2,5.95833333 L2.2,5.95833333 Z M6.8,10.9583333 L4.4,10.9583333 C4.06862915,10.9583333 3.8,11.2381554 3.8,11.5833333 C3.8,11.9285113 4.06862915,12.2083333 4.4,12.2083333 L4.4,12.2083333 L6.8,12.2083333 C7.13137085,12.2083333 7.4,11.9285113 7.4,11.5833333 C7.4,11.2381554 7.13137085,10.9583333 6.8,10.9583333 L6.8,10.9583333 Z M9.6,8.04166667 L4.4,8.04166667 C4.06862915,8.04166667 3.8,8.3214887 3.8,8.66666667 C3.8,9.01184464 4.06862915,9.29166667 4.4,9.29166667 L4.4,9.29166667 L9.6,9.29166667 C9.93137085,9.29166667 10.2,9.01184464 10.2,8.66666667 C10.2,8.3214887 9.93137085,8.04166667 9.6,8.04166667 L9.6,8.04166667 Z M16.4,2 C17.2836556,2 18,2.74619208 18,3.66666667 L18,3.66666667 L18,4.5 C18,4.61505932 17.9104569,4.70833333 17.8,4.70833333 L17.8,4.70833333 L2.2,4.70833333 C2.08954305,4.70833333 2,4.61505932 2,4.5 L2,4.5 L2,3.66666667 C2,2.74619208 2.7163444,2 3.6,2 L3.6,2 Z" id="ðŸ–-Color" fill="#5A5A5A"></path>
        <rect id="_Transparent_Rectangle_" fill-opacity="0" fill="#D8D8D8" x="-3.06843036e-05" y="-0.000416666667" width="24" height="24"></rect>
    </g>
</svg>