<svg width="24" height="24" viewBox="0 0 24 24" fill="none" xmlns="http://www.w3.org/2000/svg">
<g id="credit_card_visa">
<path id="Shape" fill-rule="evenodd" clip-rule="evenodd" d="M3.73917 4.91668H20.2608C21.2002 4.89944 21.9772 5.64405 22 6.58334V17.4167C21.9772 18.356 21.2002 19.1006 20.2608 19.0833H3.73917C2.79994 19.1001 2.02321 18.3558 2 17.4167V6.58334C2.02321 5.64425 2.79994 4.8999 3.73917 4.91668ZM7.46 13.9367L9.10083 10.5125L9.10167 10.5133C9.24045 10.2036 9.1071 9.83975 8.80106 9.69306C8.49502 9.54637 8.12783 9.67034 7.97333 9.97251L7.14 11.71C7.09957 11.7941 7.0082 11.841 6.91632 11.8249C6.82445 11.8088 6.75447 11.7336 6.745 11.6408L6.60583 10.2708C6.57335 9.95188 6.30478 9.70923 5.98417 9.70918H4.91667C4.57149 9.70918 4.29167 9.989 4.29167 10.3342C4.29167 10.6794 4.57149 10.9592 4.91667 10.9592H5.23167C5.33857 10.9591 5.42803 11.0403 5.43833 11.1467L5.70083 13.73C5.73332 14.049 6.00189 14.2916 6.3225 14.2917H6.89583C7.13651 14.2917 7.35585 14.1536 7.46 13.9367ZM10.6467 13.8158C10.5873 14.1066 10.3317 14.3155 10.035 14.3158C9.99335 14.3156 9.9518 14.3117 9.91083 14.3042C9.57257 14.2359 9.35337 13.9068 9.42083 13.5683L10.0983 10.1825C10.1364 9.95788 10.2936 9.77174 10.5087 9.6967C10.7238 9.62165 10.9627 9.6696 11.1322 9.82182C11.3017 9.97405 11.3749 10.2064 11.3233 10.4283L10.6467 13.8158ZM14.2275 10.8733C14.5605 10.9564 14.8986 10.7573 14.9875 10.4258C15.0723 10.0941 14.8747 9.75586 14.5442 9.66668C14.38 9.62418 12.9275 9.27751 12.3133 10.3017C11.98 10.8508 11.8558 11.6767 13.1467 12.4683C13.1733 12.4845 13.2049 12.5014 13.2387 12.5195C13.3809 12.5957 13.5625 12.6929 13.5767 12.845C13.5762 12.9623 13.5032 13.0672 13.3933 13.1083C13.0975 13.204 12.7763 13.1835 12.495 13.0508C12.2842 12.9764 12.0497 13.0201 11.8799 13.1654C11.71 13.3108 11.6306 13.5357 11.6715 13.7554C11.7125 13.9752 11.8675 14.1564 12.0783 14.2308C12.4031 14.3505 12.7456 14.415 13.0917 14.4217C13.3991 14.426 13.7029 14.3542 13.9758 14.2125C14.3852 13.9929 14.6847 13.6127 14.8025 13.1633C14.9217 12.7133 14.8433 12.0442 13.7958 11.4017C13.7854 11.3955 13.7711 11.3875 13.7539 11.3779C13.6021 11.2931 13.2295 11.0851 13.3942 10.9242C13.5775 10.745 14.0117 10.8192 14.2275 10.8733ZM18.7183 14.2592C18.5529 14.2739 18.3884 14.2217 18.2617 14.1143C18.135 14.0069 18.0567 13.8531 18.0442 13.6875L18.0283 13.5017C18.0192 13.3938 17.9291 13.3109 17.8208 13.3108H17.1717C17.0916 13.3108 17.0186 13.3568 16.9842 13.4292L16.7342 13.9583C16.5781 14.2571 16.2134 14.3785 15.9093 14.233C15.6053 14.0875 15.4711 13.7273 15.6058 13.4183L17.2175 10.05C17.3269 9.8319 17.5502 9.69442 17.7942 9.69501L18.4058 9.70834C18.7259 9.71532 18.9891 9.96268 19.0158 10.2817C19.063 10.8549 19.0772 11.0266 19.1518 11.9285L19.1529 11.9412L19.2892 13.5892C19.3175 13.9329 19.062 14.2346 18.7183 14.2633V14.2592ZM17.8692 11.5833L17.6383 12.065H17.9092L17.8692 11.5833Z" fill="#5A5A5A"/>
</g>
</svg>
