<?xml version="1.0" encoding="UTF-8"?>
<svg width="24px" height="24px" viewBox="0 0 24 24" version="1.1" xmlns="http://www.w3.org/2000/svg" xmlns:xlink="http://www.w3.org/1999/xlink">
    <title>3. Finance/crypto_currency_bitcoin_circle</title>
    <g id="3.-Finance/crypto_currency_bitcoin_circle" stroke="none" stroke-width="1" fill="none" fill-rule="evenodd">
        <path d="M12,2 C14.6521649,2 17.195704,3.0535684 19.0710678,4.92893219 C20.9464316,6.80429597 22,9.3478351 22,12 C22,17.5228475 17.5228475,22 12,22 C6.4771525,22 2,17.5228475 2,12 C2,6.4771525 6.4771525,2 12,2 Z M11.1925,5.125 C10.6172034,5.125 10.1508333,5.59137005 10.1508333,6.16666667 L10.1508333,6.16666667 L10.1508333,6.25 C10.1508333,6.36505932 10.0575593,6.45833333 9.9425,6.45833333 L9.9425,6.45833333 L9.5775,6.45833333 C9.30116503,6.458112 9.03608442,6.56778763 8.84068602,6.76318602 C8.64528763,6.95858442 8.535612,7.22366503 8.535833,7.5 L8.535833,7.5 L8.535833,16.1125 C8.535833,16.6877966 9.00220339,17.1541667 9.5775,17.1541667 L9.5775,17.1541667 L9.94166667,17.1541667 C9.99698805,17.153944 10.0501079,17.1758219 10.0892263,17.2149403 C10.1283448,17.2540588 10.1502226,17.3071786 10.15,17.3625 L10.15,17.3625 L10.15,17.8333333 C10.15,18.4086299 10.6163701,18.875 11.1916667,18.875 C11.7669633,18.875 12.2333333,18.4086299 12.2333333,17.8333333 L12.2333333,17.8333333 L12.2333333,17.3416667 C12.2336492,17.2307244 12.3208518,17.1394915 12.4316667,17.1341667 C13.6354631,17.0808632 14.7050807,16.3500146 15.1922535,15.2479121 C15.6794262,14.1458096 15.4999985,12.8628337 14.7291667,11.9366667 C14.6654163,11.8598355 14.6654163,11.7484978 14.7291667,11.6716667 C15.5062424,10.7433796 15.6860704,9.45328485 15.1924741,8.34787714 C14.6988777,7.24246943 13.6182421,6.51520796 12.4083333,6.47416667 C12.3109421,6.47014253 12.2340836,6.38997431 12.2341667,6.2925 L12.2341667,6.2925 L12.2341667,6.16666667 C12.2341667,5.59137005 11.7677966,5.125 11.1925,5.125 Z M12.2691667,12.8458333 C12.8835835,12.8458333 13.3816667,13.3439165 13.3816667,13.9583333 C13.3816667,14.5727501 12.8835835,15.0708333 12.2691667,15.0708333 L12.2691667,15.0708333 L10.8275,15.0708333 C10.7124407,15.0708333 10.6191667,14.9775593 10.6191667,14.8625 L10.6191667,14.8625 L10.6191667,13.0541667 C10.6191667,12.9391073 10.7124407,12.8458333 10.8275,12.8458333 L10.8275,12.8458333 Z M12.2691667,8.53833333 C12.8715001,8.55482325 13.3512215,9.04785753 13.3512215,9.65041667 C13.3512215,10.2529758 12.8715001,10.7460101 12.2691667,10.7625 L12.2691667,10.7625 L10.8275,10.7625 C10.7124407,10.7625 10.6191667,10.669226 10.6191667,10.5541667 L10.6191667,10.5541667 L10.6191667,8.74666667 C10.6191667,8.63160734 10.7124407,8.53833333 10.8275,8.53833333 L10.8275,8.53833333 Z" id="ðŸ–-Color" fill="#5A5A5A"></path>
        <rect id="_Transparent_Rectangle_" fill-opacity="0" fill="#D8D8D8" x="0" y="0" width="24" height="24"></rect>
    </g>
</svg>