<svg width="24" height="24" viewBox="0 0 24 24" fill="none" xmlns="http://www.w3.org/2000/svg">
<g id="crypto_currency_bitcoin_circle">
<path id="Shape" fill-rule="evenodd" clip-rule="evenodd" d="M12 2C6.47715 2 2 6.47715 2 12C2 17.5228 6.47715 22 12 22C17.5228 22 22 17.5228 22 12C22 9.34784 20.9464 6.8043 19.0711 4.92893C17.1957 3.05357 14.6522 2 12 2ZM14.7292 11.6717C14.6654 11.7485 14.6654 11.8598 14.7292 11.9367C15.5 12.8628 15.6794 14.1458 15.1923 15.2479C14.7051 16.35 13.6355 17.0809 12.4317 17.1342C12.3209 17.1395 12.2336 17.2307 12.2333 17.3417V17.8333C12.2333 18.4086 11.767 18.875 11.1917 18.875C10.6164 18.875 10.15 18.4086 10.15 17.8333V17.3625C10.1502 17.3072 10.1283 17.2541 10.0892 17.2149C10.0501 17.1758 9.99699 17.1539 9.94167 17.1542H9.5775C9.0022 17.1542 8.53583 16.6878 8.53583 16.1125V7.5C8.53561 7.22367 8.64529 6.95858 8.84069 6.76319C9.03608 6.56779 9.30117 6.45811 9.5775 6.45833H9.9425C10.0576 6.45833 10.1508 6.36506 10.1508 6.25V6.16667C10.1508 5.59137 10.6172 5.125 11.1925 5.125C11.7678 5.125 12.2342 5.59137 12.2342 6.16667V6.2925C12.2341 6.38997 12.3109 6.47014 12.4083 6.47417C13.6182 6.51521 14.6989 7.24247 15.1925 8.34788C15.6861 9.45328 15.5062 10.7434 14.7292 11.6717ZM10.8275 8.53833C10.7124 8.53833 10.6192 8.63161 10.6192 8.74667V10.5542C10.6192 10.6692 10.7124 10.7625 10.8275 10.7625H12.2692C12.8715 10.746 13.3512 10.253 13.3512 9.65042C13.3512 9.04786 12.8715 8.55482 12.2692 8.53833H10.8275ZM12.2692 12.8458H10.8275C10.7124 12.8458 10.6192 12.9391 10.6192 13.0542V14.8625C10.6192 14.9776 10.7124 15.0708 10.8275 15.0708H12.2692C12.8836 15.0708 13.3817 14.5728 13.3817 13.9583C13.3817 13.3439 12.8836 12.8458 12.2692 12.8458Z" fill="#5A5A5A"/>
</g>
</svg>
