<?xml version="1.0" encoding="UTF-8"?>
<svg width="24px" height="24px" viewBox="0 0 24 24" version="1.1" xmlns="http://www.w3.org/2000/svg" xmlns:xlink="http://www.w3.org/1999/xlink">
    <title>3. Finance/cryptho_currency_megacoin</title>
    <g id="3.-Finance/cryptho_currency_megacoin" stroke="none" stroke-width="1" fill="none" fill-rule="evenodd">
        <path d="M12,2.83333333 C6.93738979,2.83333333 2.83333333,6.93738979 2.83333333,12 C2.83333333,17.0626102 6.93738979,21.1666667 12,21.1666667 C17.0626102,21.1666667 21.1666667,17.0626102 21.1666667,12 C21.1666667,9.56884884 20.2008956,7.23727131 18.4818122,5.51818784 C16.7627287,3.79910437 14.4311512,2.83333333 12,2.83333333 Z M8.66666667,14.0833333 C8.66666667,14.313452 8.48011865,14.5 8.25,14.5 L5.75,14.5 C5.51988135,14.5 5.33333333,14.313452 5.33333333,14.0833333 L5.33333333,11.1666667 C5.33333333,10.2461921 6.07952542,9.5 7,9.5 C7.92047458,9.5 8.66666667,10.2461921 8.66666667,11.1666667 L8.66666667,14.0833333 Z M13.6666667,14.0833333 C13.6666667,14.313452 13.4801186,14.5 13.25,14.5 L10.75,14.5 C10.5198814,14.5 10.3333333,14.313452 10.3333333,14.0833333 L10.3333333,11.1666667 C10.3333333,10.2461921 11.0795254,9.5 12,9.5 C12.9204746,9.5 13.6666667,10.2461921 13.6666667,11.1666667 L13.6666667,14.0833333 Z M18.25,14.5 L15.75,14.5 C15.5198814,14.5 15.3333333,14.313452 15.3333333,14.0833333 L15.3333333,11.1666667 C15.3333333,10.2461921 16.0795254,9.5 17,9.5 C17.9204746,9.5 18.6666667,10.2461921 18.6666667,11.1666667 L18.6666667,14.0833333 C18.6666667,14.313452 18.4801186,14.5 18.25,14.5 Z" id="ðŸ–-Color" fill="#5A5A5A"></path>
        <rect id="_Transparent_Rectangle_" fill-opacity="0" fill="#D8D8D8" x="0" y="0" width="24" height="24"></rect>
    </g>
</svg>