<?xml version="1.0" encoding="UTF-8"?>
<svg width="24px" height="24px" viewBox="0 0 24 24" version="1.1" xmlns="http://www.w3.org/2000/svg" xmlns:xlink="http://www.w3.org/1999/xlink">
    <title>3. Finance/currency_euro_circle</title>
    <g id="3.-Finance/currency_euro_circle" stroke="none" stroke-width="1" fill="none" fill-rule="evenodd">
        <path d="M12,2 C6.4771525,2 2,6.4771525 2,12 C2,17.5228475 6.4771525,22 12,22 C17.5228475,22 22,17.5228475 22,12 C22,9.3478351 20.9464316,6.80429597 19.0710678,4.92893219 C17.195704,3.0535684 14.6521649,2 12,2 Z M13.6666667,8.98916667 C14.0388183,8.98916666 14.3827007,9.1877072 14.5687765,9.50999999 C14.7548523,9.83229278 14.7548523,10.2293739 14.5687765,10.5516667 C14.3827007,10.8739595 14.0388183,11.0725 13.6666667,11.0725 L10.0233333,11.0725 C9.91597153,11.0724336 9.82614005,11.1539674 9.81583333,11.2608333 C9.79333333,11.4941667 9.78083333,11.7391667 9.78083333,12 C9.78083333,12.1008333 9.78083333,12.1991667 9.78666667,12.295 C9.79070559,12.4071202 9.88280709,12.4959061 9.995,12.4958333 L12.6416667,12.4958333 C13.2169633,12.4958333 13.6833333,12.9622034 13.6833333,13.5375 C13.6833333,14.1127966 13.2169633,14.5791667 12.6416667,14.5791667 L10.7416667,14.5791667 C10.6627558,14.5791667 10.5906177,14.6237505 10.5553277,14.6943305 C10.5200377,14.7649105 10.5276535,14.8493713 10.575,14.9125 C11.3808333,15.9316667 12.8391667,16.3708333 15.1375,16.3708333 C15.7127966,16.3708333 16.1791667,16.8372034 16.1791667,17.4125 C16.1791667,17.9877966 15.7127966,18.4541667 15.1375,18.4541667 C13.605,18.4541667 9.4775,18.4383333 8.1375,14.7125 C8.10736832,14.6298806 8.02877584,14.5749324 7.94083333,14.575 L7.225,14.575 C6.64970339,14.575 6.18333333,14.1086299 6.18333333,13.5333333 C6.18333333,12.9580367 6.64970339,12.4916667 7.225,12.4916667 L7.5,12.4916667 C7.55794919,12.4913388 7.6131871,12.4670791 7.65263747,12.4246305 C7.69208784,12.3821819 7.71224359,12.325318 7.70833333,12.2675 C7.70166667,12.18 7.69583333,12.0908333 7.69583333,11.9958333 C7.69583333,11.7458333 7.70916667,11.5183333 7.7275,11.2933333 C7.73214972,11.2353983 7.71238647,11.1781548 7.67298368,11.1354289 C7.6335809,11.092703 7.57812126,11.0683795 7.52,11.0683333 L7.26083333,11.0683333 C6.68553672,11.0683333 6.21916667,10.6019633 6.21916667,10.0266667 C6.21916667,9.45137005 6.68553672,8.985 7.26083333,8.985 L8.09416667,8.985 C8.17633283,8.98513322 8.25083829,8.93677003 8.28416667,8.86166667 C9.77666667,5.54333333 13.6666667,5.54166667 15.1408333,5.54166667 C15.7161299,5.54166667 16.1825,6.00803672 16.1825,6.58333333 C16.1825,7.15862995 15.7161299,7.625 15.1408333,7.625 C13.2241667,7.625 11.8966667,7.92916667 11.0391667,8.61833333 C10.9705909,8.67333355 10.9439173,8.76545935 10.9724994,8.84859011 C11.0010814,8.93172086 11.0787678,8.98796558 11.1666667,8.98916667 L13.6666667,8.98916667 Z" id="ðŸ–-Color" fill="#5A5A5A"></path>
        <rect id="_Transparent_Rectangle_" fill-opacity="0" fill="#D8D8D8" x="0" y="0" width="24" height="24"></rect>
    </g>
</svg>