<?xml version="1.0" encoding="UTF-8"?>
<svg width="24px" height="24px" viewBox="0 0 24 24" version="1.1" xmlns="http://www.w3.org/2000/svg" xmlns:xlink="http://www.w3.org/1999/xlink">
    <title>3. Finance/currency_euro_bubble</title>
    <g id="3.-Finance/currency_euro_bubble" stroke="none" stroke-width="1" fill="none" fill-rule="evenodd">
        <path d="M19.2208,8.875 C19.1199833,8.83090178 19.0721372,8.71039405 19.1136,8.605 C19.5968355,7.3431024 19.3123185,5.90267156 18.3900769,4.94200324 C17.4678353,3.98133493 16.0850217,3.68496301 14.8736,4.18833333 C14.7724217,4.23152373 14.6567343,4.18168411 14.6144,4.07666667 C14.095958,2.82403851 12.9119204,2.01266583 11.6024,2.01266583 C10.2928796,2.01266583 9.10884201,2.82403851 8.5904,4.07666667 C8.54806571,4.18168411 8.43237829,4.23152373 8.3312,4.18833333 C7.11977831,3.68496301 5.7369647,3.98133493 4.81472311,4.94200324 C3.89248153,5.90267156 3.60796449,7.3431024 4.0912,8.605 C4.13272098,8.71062461 4.08492174,8.83138605 3.984,8.87583333 C2.78211632,9.40994428 2.00225724,10.6397001 2.00225724,12.0008333 C2.00225724,13.3619666 2.78211632,14.5917224 3.984,15.1258333 C4.08492174,15.1702806 4.13272098,15.2910421 4.0912,15.3966667 C3.60796449,16.6585643 3.89248153,18.0989951 4.81472311,19.0596634 C5.7369647,20.0203317 7.11977831,20.3167037 8.3312,19.8133333 C8.43237829,19.7701429 8.54806571,19.8199826 8.5904,19.925 C9.10884201,21.1776282 10.2928796,21.9890008 11.6024,21.9890008 C12.9119204,21.9890008 14.095958,21.1776282 14.6144,19.925 C14.6567343,19.8199826 14.7724217,19.7701429 14.8736,19.8133333 C16.0850217,20.3167037 17.4678353,20.0203317 18.3900769,19.0596634 C19.3123185,18.0989951 19.5968355,16.6585643 19.1136,15.3966667 C19.072079,15.2910421 19.1198783,15.1702806 19.2208,15.1258333 C20.422558,14.5913902 21.2022419,13.3615599 21.2022419,12.0004167 C21.2022419,10.6392734 20.422558,9.40944318 19.2208,8.875 Z M12.8208,9.505 C13.2626278,9.505 13.6208,9.87809604 13.6208,10.3383333 C13.6208,10.7985706 13.2626278,11.1716667 12.8208,11.1716667 L9.8496,11.1716667 C9.7469529,11.1719435 9.66103246,11.2528174 9.6504,11.3591667 C9.6328,11.5475 9.6208,11.7425 9.6208,11.9541667 C9.6208,12.0525 9.6272,12.1425 9.6352,12.2308333 C9.64395149,12.3385478 9.73062514,12.4212184 9.8344,12.4208333 L11.9872,12.4208333 C12.4290278,12.4208333 12.7872,12.7939294 12.7872,13.2541667 C12.7872,13.714404 12.4290278,14.0875 11.9872,14.0875 L10.4296,14.0875 C10.3538456,14.0875 10.284593,14.1320838 10.2507146,14.2026638 C10.2168362,14.2732438 10.2241474,14.3577047 10.2696,14.4208333 C10.9248,15.3091667 12.1152,15.7 14.0136,15.7 C14.4554278,15.7 14.8136,16.073096 14.8136,16.5333333 C14.8136,16.9935706 14.4554278,17.3666667 14.0136,17.3666667 C12.7784,17.3666667 9.4536,17.3541667 8.3728,14.2258333 C8.34456857,14.1430277 8.26915647,14.0878726 8.1848,14.0883333 L7.5928,14.0883333 C7.1509722,14.0883333 6.7928,13.7152373 6.7928,13.255 C6.7928,12.7947627 7.1509722,12.4216667 7.5928,12.4216667 L7.8328,12.4216667 C7.88814317,12.4210968 7.94082753,12.3968514 7.97849929,12.3546157 C8.01617106,12.3123799 8.03551673,12.2558688 8.032,12.1983333 C8.0264,12.12 8.0224,12.04 8.0224,11.955 C8.0224,11.76 8.0312,11.5758333 8.0448,11.3975 C8.0494418,11.3397264 8.03057391,11.2825784 7.9928,11.24 C7.95597128,11.1953335 7.90288947,11.1687442 7.8464,11.1666667 L7.6232,11.1666667 C7.1813722,11.1666667 6.8232,10.7935706 6.8232,10.3333333 C6.8232,9.87309604 7.1813722,9.5 7.6232,9.5 L8.296,9.5 C8.37554935,9.50017523 8.44757205,9.45103311 8.4792,9.375 C9.6608,6.54166667 12.82,6.53666667 14.0152,6.53666667 C14.4570278,6.53666667 14.8152,6.90976271 14.8152,7.37 C14.8152,7.83023729 14.4570278,8.20333333 14.0152,8.20333333 C12.3776,8.20333333 11.264,8.49166667 10.5664,9.13916667 C10.5047653,9.19682666 10.483636,9.28809974 10.5132676,9.3686848 C10.5428993,9.44926986 10.6171576,9.5024845 10.7,9.5025 L12.8208,9.505 Z" id="ðŸ–-Color" fill="#5A5A5A"></path>
        <rect id="_Transparent_Rectangle_" fill-opacity="0" fill="#D8D8D8" x="0" y="0.0782455328" width="24" height="24"></rect>
    </g>
</svg>