<?xml version="1.0" encoding="UTF-8"?>
<svg width="24px" height="24px" viewBox="0 0 24 24" version="1.1" xmlns="http://www.w3.org/2000/svg" xmlns:xlink="http://www.w3.org/1999/xlink">
    <title>3. Finance/currency_dollar_bill</title>
    <g id="3.-Finance/currency_dollar_bill" stroke="none" stroke-width="1" fill="none" fill-rule="evenodd">
        <path d="M19.807039,8.23916667 C19.7342543,8.20469826 19.6878545,8.131367 19.6878723,8.05083333 L19.6878723,6.58333333 C19.6878723,6.12309604 19.3147762,5.75 18.854539,5.75 L5.52120562,5.75 C5.06096833,5.75 4.68787229,6.12309604 4.68787229,6.58333333 L4.68787229,8.05083333 C4.68789011,8.131367 4.64149024,8.20469826 4.56870562,8.23916667 C3.11503312,8.92755419 2.18818125,10.3919885 2.18818125,12.0004167 C2.18818125,13.6088448 3.11503312,15.0732791 4.56870562,15.7616667 C4.64149024,15.7961351 4.68789011,15.8694663 4.68787229,15.95 L4.68787229,17.4166667 C4.68787229,17.876904 5.06096833,18.25 5.52120562,18.25 L18.854539,18.25 C19.3147762,18.25 19.6878723,17.876904 19.6878723,17.4166667 L19.6878723,15.95 C19.6878545,15.8694663 19.7342543,15.7961351 19.807039,15.7616667 C21.2607115,15.0732791 22.1875633,13.6088448 22.1875633,12.0004167 C22.1875633,10.3919885 21.2607115,8.92755419 19.807039,8.23916667 Z M10.7903723,15.5591667 C10.330135,15.5591667 9.95703896,15.1860706 9.95703896,14.7258333 C9.95703896,14.265596 10.330135,13.8925 10.7903723,13.8925 L12.6878723,13.8925 C12.8881244,13.8929902 13.0604032,13.7509563 13.098107,13.5542851 C13.1358108,13.3576139 13.0282746,13.1619366 12.842039,13.0883333 L10.9253723,12.3208333 C10.0846336,11.9863189 9.55693515,11.146293 9.6205231,10.2436868 C9.68411105,9.34108056 10.3243712,8.58333656 11.2037056,8.37 C11.2942966,8.34429899 11.3562233,8.26081781 11.354539,8.16666667 L11.354539,7.9725 C11.354539,7.51226271 11.727635,7.13916667 12.1878723,7.13916667 C12.6481096,7.13916667 13.0212056,7.51226271 13.0212056,7.9725 L13.0212056,8.095 C13.020983,8.15032138 13.0428608,8.20344123 13.0819793,8.24255967 C13.1210977,8.28167811 13.1742176,8.30355596 13.229539,8.30333333 L13.5853723,8.30333333 C14.0456096,8.30333333 14.4187056,8.67642938 14.4187056,9.13666667 C14.4187056,9.59690396 14.0456096,9.97 13.5853723,9.97 L11.6878723,9.97 C11.4577536,9.97 11.2712056,10.156548 11.2712056,10.3866667 C11.2712452,10.5569085 11.3748483,10.7100034 11.5328723,10.7733333 L13.454539,11.5416667 C14.2949922,11.8766366 14.8223526,12.7166552 14.7587848,13.6191659 C14.695217,14.5216767 14.055315,15.2794798 13.1762056,15.4933333 C13.0829388,15.5160795 13.0174519,15.5998338 13.0178723,15.6958333 L13.0178723,15.89 C13.0178723,16.3502373 12.6447762,16.7233333 12.184539,16.7233333 C11.7243017,16.7233333 11.3512056,16.3502373 11.3512056,15.89 L11.3512056,15.7683333 C11.3514282,15.713012 11.3295504,15.6598921 11.290432,15.6207737 C11.2513135,15.5816552 11.1981937,15.5597774 11.1428723,15.56 L10.7903723,15.5591667 Z" id="ðŸ–-Color" fill="#5A5A5A"></path>
        <rect id="_Transparent_Rectangle_" fill-opacity="0" fill="#D8D8D8" x="0" y="0" width="24" height="24"></rect>
    </g>
</svg>