<?xml version="1.0" encoding="UTF-8"?>
<svg width="24px" height="24px" viewBox="0 0 24 24" version="1.1" xmlns="http://www.w3.org/2000/svg" xmlns:xlink="http://www.w3.org/1999/xlink">
    <title>3. Finance/currency_dollar_circle</title>
    <g id="3.-Finance/currency_dollar_circle" stroke="none" stroke-width="1" fill="none" fill-rule="evenodd">
        <path d="M12,2 C6.4771525,2 2,6.4771525 2,12 C2,17.5228475 6.4771525,22 12,22 C17.5228475,22 22,17.5228475 22,12 C22,9.3478351 20.9464316,6.80429597 19.0710678,4.92893219 C17.195704,3.0535684 14.6521649,2 12,2 Z M13.22,17.4891667 C13.1176011,17.504428 13.0417731,17.5923035 13.0416667,17.6958333 L13.0416667,18.3333333 C13.0416667,18.9086299 12.5752966,19.375 12,19.375 C11.4247034,19.375 10.9583333,18.9086299 10.9583333,18.3333333 L10.9583333,17.7458333 C10.958556,17.690512 10.9366781,17.6373921 10.8975597,17.5982737 C10.8584412,17.5591552 10.8053214,17.5372774 10.75,17.5375 L9.79416667,17.5375 C9.21887005,17.5375 8.7525,17.0711299 8.7525,16.4958333 C8.7525,15.9205367 9.21887005,15.4541667 9.79416667,15.4541667 L12.7841667,15.4541667 C13.2307139,15.454044 13.6143785,15.137098 13.6987832,14.6986002 C13.7831879,14.2601024 13.544594,13.8233803 13.13,13.6575 L10.0966667,12.4433333 C8.83044017,11.9411857 8.06053893,10.649929 8.22082959,9.29723222 C8.38112025,7.9445354 9.43148252,6.86897468 10.78,6.67666667 C10.8822693,6.66178491 10.9581703,6.57417963 10.9583333,6.47083333 L10.9583333,5.83333333 C10.9583333,5.25803672 11.4247034,4.79166667 12,4.79166667 C12.5752966,4.79166667 13.0416667,5.25803672 13.0416667,5.83333333 L13.0416667,6.42166667 C13.0416667,6.53672599 13.1349407,6.63 13.25,6.63 L14.2058333,6.63 C14.7811299,6.63 15.2475,7.09637005 15.2475,7.67166667 C15.2475,8.24696328 14.7811299,8.71333333 14.2058333,8.71333333 L11.2158333,8.71333333 C10.7688678,8.71237341 10.3843171,9.02924086 10.2997953,9.4681431 C10.2152735,9.90704534 10.4546442,10.3440647 10.87,10.5091667 L13.9033333,11.7233333 C15.1695598,12.225481 15.9394611,13.5167376 15.7791704,14.8694345 C15.6188797,16.2221313 14.5685175,17.297692 13.22,17.49 L13.22,17.4891667 Z" id="ðŸ–-Color" fill="#5A5A5A"></path>
        <rect id="_Transparent_Rectangle_" fill-opacity="0" fill="#D8D8D8" x="0" y="0" width="24" height="24"></rect>
    </g>
</svg>