<?xml version="1.0" encoding="UTF-8"?>
<svg width="24px" height="24px" viewBox="0 0 24 24" version="1.1" xmlns="http://www.w3.org/2000/svg" xmlns:xlink="http://www.w3.org/1999/xlink">
    <title>3. Finance/currency_yuan_circle</title>
    <g id="3.-Finance/currency_yuan_circle" stroke="none" stroke-width="1" fill="none" fill-rule="evenodd">
        <path d="M12,2 C6.4771525,2 2,6.4771525 2,12 C2,17.5228475 6.4771525,22 12,22 C17.5228475,22 22,17.5228475 22,12 C22,9.3478351 20.9464316,6.80429597 19.0710678,4.92893219 C17.195704,3.0535684 14.6521649,2 12,2 Z M16.5658333,6.76416667 L13.8591667,10.6308333 C13.814776,10.69449 13.8094473,10.7775443 13.8453393,10.8463519 C13.8812313,10.9151594 13.9523939,10.9583137 14.03,10.9583333 L14.6516667,10.9583333 C15.2269633,10.9583333 15.6933333,11.4247034 15.6933333,12 C15.6933333,12.5752966 15.2269633,13.0416667 14.6516667,13.0416667 L13.25,13.0416667 C13.1349407,13.0416667 13.0416667,13.1349407 13.0416667,13.25 L13.0416667,13.8916667 C13.0416667,14.006726 13.1349407,14.1 13.25,14.1 L14.6516667,14.1 C15.2269633,14.1 15.6933333,14.5663701 15.6933333,15.1416667 C15.6933333,15.7169633 15.2269633,16.1833333 14.6516667,16.1833333 L13.25,16.1833333 C13.1946786,16.1831107 13.1415588,16.2049886 13.1024403,16.244107 C13.0633219,16.2832254 13.041444,16.3363453 13.0416667,16.3916667 L13.0416667,17.8333333 C13.0416667,18.4086299 12.5752966,18.875 12,18.875 C11.4247034,18.875 10.9583333,18.4086299 10.9583333,17.8333333 L10.9583333,16.3916667 C10.958556,16.3363453 10.9366781,16.2832254 10.8975597,16.244107 C10.8584412,16.2049886 10.8053214,16.1831107 10.75,16.1833333 L9.34833333,16.1833333 C8.77303672,16.1833333 8.30666667,15.7169633 8.30666667,15.1416667 C8.30666667,14.5663701 8.77303672,14.1 9.34833333,14.1 L10.75,14.1 C10.8650593,14.1 10.9583333,14.006726 10.9583333,13.8916667 L10.9583333,13.25 C10.9583333,13.1349407 10.8650593,13.0416667 10.75,13.0416667 L9.34833333,13.0416667 C8.77303672,13.0416667 8.30666667,12.5752966 8.30666667,12 C8.30666667,11.4247034 8.77303672,10.9583333 9.34833333,10.9583333 L9.97,10.9583333 C10.0476061,10.9583137 10.1187687,10.9151594 10.1546607,10.8463519 C10.1905527,10.7775443 10.185224,10.69449 10.1408333,10.6308333 L7.43416667,6.76416667 C7.10417654,6.29265356 7.21890358,5.64290682 7.69041668,5.31291668 C8.16192978,4.98292655 8.81167652,5.09765358 9.14166667,5.56916667 L11.8333333,9.40916667 C11.8723003,9.46499286 11.9360859,9.4982576 12.0041667,9.4982576 C12.0722474,9.4982576 12.1360331,9.46499286 12.175,9.40916667 L14.8583333,5.56916667 C15.1883235,5.09765358 15.8380702,4.98292656 16.3095833,5.3129167 C16.7810964,5.64290683 16.8958234,6.29265356 16.5658333,6.76416667 Z" id="ðŸ–-Color" fill="#5A5A5A"></path>
        <rect id="_Transparent_Rectangle_" fill-opacity="0" fill="#D8D8D8" x="0" y="0" width="24" height="24"></rect>
    </g>
</svg>