<?xml version="1.0" encoding="UTF-8"?>
<svg width="24px" height="24px" viewBox="0 0 24 24" version="1.1" xmlns="http://www.w3.org/2000/svg" xmlns:xlink="http://www.w3.org/1999/xlink">
    <title>3. Finance/diamond</title>
    <g id="3.-Finance/diamond" stroke="none" stroke-width="1" fill="none" fill-rule="evenodd">
        <path d="M15.2833333,9.36478118 C15.3485185,9.36493118 15.4098762,9.39558258 15.4491443,9.44761283 C15.4884124,9.49964308 15.5010639,9.56705383 15.4833333,9.62978148 L15.4833333,9.62978148 L12.1991667,21.3606148 C12.1742451,21.4509654 12.0920581,21.5135519 11.9983333,21.5135519 C11.9046086,21.5135519 11.8224216,21.4509654 11.7975,21.3606148 L11.7975,21.3606148 L8.51333333,9.62978148 C8.49556297,9.56691284 8.50831322,9.49934902 8.54777383,9.44728067 C8.58723443,9.39521232 8.6488349,9.36478118 8.71416667,9.36478118 L8.71416667,9.36478118 Z M17.0141667,9.36478145 L21.3941667,9.36561482 C21.4727953,9.36623644 21.5444325,9.41090294 21.5795974,9.48123277 C21.6147623,9.5515626 21.6075132,9.63567223 21.5608333,9.69894815 L21.5608333,9.69894815 L14.3608333,19.7772815 C14.3019294,19.8590258 14.1929675,19.8869017 14.1020441,19.8434878 C14.0111208,19.800074 13.964296,19.6978135 13.9908333,19.6006148 L13.9908333,19.6006148 L16.8133333,9.51728148 C16.8384185,9.4271042 16.9205654,9.36478145 17.0141667,9.36478145 L17.0141667,9.36478145 Z M6.98333333,9.36478148 C7.07672143,9.36478148 7.15857987,9.42723369 7.18333333,9.51728148 L7.18333333,9.51728148 L10.0058333,19.5972815 C10.0323706,19.6944802 9.98554589,19.7967407 9.89462255,19.8401545 C9.80369922,19.8835684 9.6947373,19.8556925 9.63583333,19.7739481 L9.63583333,19.7739481 L2.43916667,9.69811482 C2.39248676,9.6348389 2.38523766,9.55072926 2.42040257,9.48039944 C2.45556749,9.41006961 2.52720465,9.36540311 2.60583333,9.36478148 L2.60583333,9.36478148 Z M5.42677902,3.88110606 L5.48525212,3.88347262 C5.56358663,3.89782804 5.62688358,3.95558544 5.64833333,4.03228148 L5.64833333,4.03228148 L6.71666667,7.85061482 C6.73445001,7.91325751 6.72179521,7.98061508 6.68248897,8.03253207 C6.64318273,8.08444906 6.58178456,8.11490313 6.51666667,8.11478148 L6.51666667,8.11478148 L2.61833333,8.11644815 C2.53942249,8.11644815 2.46728434,8.07186432 2.43199434,8.00128432 C2.39670433,7.93070431 2.40432016,7.84624349 2.45166667,7.78311482 L2.45166667,7.78311482 L5.28,3.96478148 C5.32725279,3.90067572 5.4069176,3.8691172 5.48525212,3.88347262 Z M11.9983333,2.48978148 C12.0610568,2.4904627 12.1176611,2.52754831 12.1433333,2.58478148 L12.1433333,2.58478148 L14.635,7.81728148 C14.6655679,7.88182963 14.6609405,7.95753727 14.622739,8.01788214 C14.5845375,8.07822702 14.518087,8.11478149 14.4466667,8.11478149 L14.4466667,8.11478149 L9.55,8.11478149 C9.4785797,8.11478149 9.41212916,8.07822702 9.37392764,8.01788214 C9.33572613,7.95753727 9.33109878,7.88182963 9.36166667,7.81728148 L9.36166667,7.81728148 L11.8541667,2.58144815 C11.8803631,2.52550612 11.9365615,2.48978148 11.9983333,2.48978148 Z M18.5119358,3.88430254 C18.5899346,3.86997623 18.6693028,3.90117557 18.7166667,3.96478148 L18.7166667,3.96478148 L21.5441667,7.78144815 C21.5915132,7.84457683 21.599129,7.92903764 21.563839,7.99961765 C21.528549,8.07019765 21.4564108,8.11478509 21.3775,8.11478509 L21.3775,8.11478509 L17.4808333,8.11478509 C17.4155691,8.1151658 17.3539272,8.08482178 17.3144279,8.03286628 C17.2749286,7.98091079 17.2621754,7.91339898 17.28,7.85061482 L17.28,7.85061482 L18.3491667,4.03228148 C18.3708362,3.95599595 18.4339371,3.89862885 18.5119358,3.88430254 Z M17.2116667,2.48644815 C17.2762633,2.48762724 17.3366575,2.51870909 17.3751604,2.57059012 C17.4136633,2.62247115 17.4259173,2.68927968 17.4083333,2.75144815 L17.4083333,2.75144815 L16.1516667,7.24478148 C16.1284222,7.32870229 16.0554346,7.3893127 15.9686719,7.3967442 C15.8819091,7.4041757 15.7996773,7.35686031 15.7625,7.27811482 L15.7625,7.27811482 L13.6258333,2.78478148 C13.5949422,2.72029139 13.5992841,2.64446464 13.6373345,2.58392214 C13.675385,2.52337963 13.7418266,2.48658207 13.8133333,2.48644815 L13.8133333,2.48644815 Z M10.1833333,2.48978148 C10.2548401,2.4899154 10.3212817,2.52671297 10.3593321,2.58725547 C10.3973826,2.64779797 10.4017244,2.72362472 10.3708333,2.78811482 L10.3708333,2.78811482 L8.23416667,7.27811482 C8.19635979,7.35604814 8.11442871,7.40261561 8.02812506,7.39522344 C7.94182142,7.38783126 7.86900295,7.32800901 7.845,7.24478148 L7.845,7.24478148 L6.58833333,2.75144815 C6.57103124,2.69040398 6.58237295,2.62480598 6.61916667,2.57311482 C6.65901299,2.52125994 6.72044164,2.49054561 6.78583333,2.48978148 L6.78583333,2.48978148 Z" id="ðŸ–-Color" fill="#5A5A5A"></path>
        <rect id="_Transparent_Rectangle_" fill-opacity="0" fill="#D8D8D8" x="0" y="0" width="24" height="24"></rect>
    </g>
</svg>