<?xml version="1.0" encoding="UTF-8"?>
<svg width="24px" height="24px" viewBox="0 0 24 24" version="1.1" xmlns="http://www.w3.org/2000/svg" xmlns:xlink="http://www.w3.org/1999/xlink">
    <title>3. Finance/diamond_give</title>
    <g id="3.-Finance/diamond_give" stroke="none" stroke-width="1" fill="none" fill-rule="evenodd">
        <path d="M18.5833333,19.5 C18.8594757,19.5 19.0833333,19.7238576 19.0833333,20 L19.0833333,21.5 C19.0833333,21.7761424 18.8594757,22 18.5833333,22 L14.5833333,22 C14.307191,22 14.0833333,21.7761424 14.0833333,21.5 L14.0833333,20 C14.0833333,19.7238576 14.307191,19.5 14.5833333,19.5 L18.5833333,19.5 Z M9.41666667,19.5 C9.69280904,19.5 9.91666667,19.7238576 9.91666667,20 L9.91666667,21.5 C9.91666667,21.7761424 9.69280904,22 9.41666667,22 L5.41666667,22 C5.14052429,22 4.91666667,21.7761424 4.91666667,21.5 L4.91666667,20 C4.91666667,19.7238576 5.14052429,19.5 5.41666667,19.5 L9.41666667,19.5 Z M21.3458259,7.33293626 L21.3808333,7.33333333 C21.4932811,7.33693349 21.5825003,7.42916135 21.5825003,7.54166667 L21.5825003,7.54166667 L21.5825003,13.7391667 C21.5826747,13.9608597 21.4945057,14.1734847 21.3375,14.33 C20.5116667,15.15 18.6708333,16.9733333 18.3108333,17.33 C18.2716346,17.3691132 18.2494711,17.4221259 18.2491667,17.4775 L18.2491667,17.4775 L18.2491667,18.4583333 C18.2491667,18.5733927 18.1558927,18.6666667 18.0408333,18.6666667 L18.0408333,18.6666667 L15.1241667,18.6666667 C15.0091073,18.6666667 14.9158333,18.5733927 14.9158333,18.4583333 L14.9158333,18.4583333 L14.9158333,14.945 C14.9159554,14.9246607 14.9190435,14.9044479 14.925,14.885 C15.2447447,13.757488 15.6687979,12.6622033 16.1916667,11.6133333 C16.7891667,10.685 17.8841667,11.1966667 17.5983333,12.3941667 L17.5983333,12.3941667 L17.1875,14.1875 C17.1667691,14.2781369 17.2086077,14.3715395 17.2900393,14.4164139 C17.371471,14.4612883 17.472781,14.4467706 17.5383333,14.3808333 L17.5383333,14.3808333 L19.4391667,12.48 C19.4781654,12.441162 19.5000612,12.3883723 19.5,12.3333333 C19.5166667,7.7225 20.8616667,7.3175 21.3808333,7.33333333 Z M2.61833333,7.33333333 C3.13833333,7.32 4.48333333,7.725 4.5,12.3333333 C4.50059839,12.3875047 4.52244373,12.4392752 4.56083333,12.4775 L4.56083333,12.4775 L6.46166667,14.3766667 C6.52735354,14.4417817 6.6281068,14.4557929 6.70906802,14.4110714 C6.79002925,14.36635 6.83181215,14.2736045 6.81166667,14.1833333 L6.81166667,14.1833333 L6.40083333,12.39 L6.37540657,12.2643551 C6.19257972,11.1577891 7.23133929,10.7139881 7.8075,11.6091667 C8.33036874,12.6580366 8.75442192,13.7533214 9.07416667,14.8808333 C9.08012321,14.9002813 9.08321127,14.920494 9.08333333,14.9408333 L9.08333333,14.9408333 L9.08333333,18.4583333 C9.08333333,18.5733927 8.99005932,18.6666667 8.875,18.6666667 L8.875,18.6666667 L5.95833333,18.6666667 C5.84327401,18.6666667 5.75,18.5733927 5.75,18.4583333 L5.75,18.4583333 L5.74833333,17.4741667 C5.74823716,17.4207868 5.7276549,17.3694803 5.69083333,17.3308333 C5.3525,16.975 3.59583333,15.14 2.69083333,14.3208333 C2.51614563,14.1627455 2.41653885,13.9381004 2.41666654,13.7025 L2.41666654,13.7025 L2.41666654,7.54166667 C2.41666654,7.42916135 2.50588561,7.33693349 2.61833333,7.33333333 Z M17.4266667,6.16666667 C17.4331963,6.1680385 17.4387297,6.17234228 17.4416667,6.17833333 C17.4456859,6.18529486 17.4456859,6.19387181 17.4416667,6.20083333 L17.4416667,6.20083333 L12.6816667,11.6858333 C12.5086619,11.8854722 12.2575043,12.0001647 11.9933333,12.0001647 C11.7291623,12.0001647 11.4780048,11.8854722 11.305,11.6858333 L11.305,11.6858333 L6.555,6.20083333 C6.55098076,6.19387181 6.55098076,6.18529486 6.555,6.17833333 C6.55857819,6.17143945 6.56557282,6.16698832 6.57333333,6.16666667 L6.57333333,6.16666667 Z M14.7341667,1.99999962 C15.0209515,1.99986753 15.2909553,2.13517834 15.4625,2.365 L15.4625,2.365 L17.4816667,5.05666667 C17.5212132,5.10886711 17.5277897,5.17895957 17.4986435,5.23760523 C17.4694974,5.29625088 17.4096557,5.33333333 17.3441667,5.33333333 L17.3441667,5.33333333 L6.65583333,5.33333333 C6.5903443,5.33333333 6.53050264,5.29625088 6.50135645,5.23760523 C6.47221027,5.17895957 6.47878682,5.10886711 6.51833333,5.05666667 L6.51833333,5.05666667 L8.5375,2.365 C8.70930717,2.13504711 8.97961969,1.99973638 9.26666667,1.99999962 L9.26666667,1.99999962 Z" id="ðŸ–-Color" fill="#5A5A5A"></path>
        <rect id="_Transparent_Rectangle_" fill-opacity="0" fill="#D8D8D8" x="0" y="0.0782455328" width="24" height="24"></rect>
    </g>
</svg>