<svg width="24" height="24" viewBox="0 0 24 24" fill="none" xmlns="http://www.w3.org/2000/svg">
<g id="invoice">
<path id="Shape" fill-rule="evenodd" clip-rule="evenodd" d="M15.8392 2.24417L19.5892 5.99417C19.745 6.15 19.8333 6.3625 19.8333 6.58333V20.3333C19.8333 21.2542 19.0867 22 18.1667 22H5.66667C4.74583 22 4 21.2542 4 20.3333V3.66667C4 2.74583 4.74583 2 5.66667 2H15.25C15.4717 2 15.6833 2.0875 15.8392 2.24417ZM6.5 20.3333H17.3333C17.7942 20.3333 18.1667 19.96 18.1667 19.5V7.27333C18.1667 7.0525 18.0792 6.84 17.9225 6.68417L15.1492 3.91083C14.9925 3.75417 14.7808 3.66667 14.56 3.66667H6.5C6.04 3.66667 5.66667 4.04 5.66667 4.5V19.5C5.66667 19.96 6.04 20.3333 6.5 20.3333ZM6.91667 15.75V14.9167C6.91667 14.6867 7.10333 14.5 7.33333 14.5H10.0417C10.1567 14.5 10.25 14.5933 10.25 14.7083V15.9583C10.25 16.0733 10.1567 16.1667 10.0417 16.1667H7.33333C7.10333 16.1667 6.91667 15.98 6.91667 15.75ZM6.91667 17.4167V18.25C6.91667 18.48 7.10333 18.6667 7.33333 18.6667H10.0417C10.1567 18.6667 10.25 18.5733 10.25 18.4583V17.2083C10.25 17.0933 10.1567 17 10.0417 17H7.33333C7.10333 17 6.91667 17.1867 6.91667 17.4167ZM11.2917 16.1667C11.1767 16.1667 11.0833 16.0733 11.0833 15.9583V14.7083C11.0833 14.5933 11.1767 14.5 11.2917 14.5H16.0833C16.3133 14.5 16.5 14.6867 16.5 14.9167V15.75C16.5 15.98 16.3133 16.1667 16.0833 16.1667H11.2917ZM16.0833 17H11.2917C11.1767 17 11.0833 17.0933 11.0833 17.2083V18.4583C11.0833 18.5733 11.1767 18.6667 11.2917 18.6667H16.0833C16.3133 18.6667 16.5 18.48 16.5 18.25V17.4167C16.5 17.1867 16.3133 17 16.0833 17ZM14.8291 6.47935C14.9081 6.5606 14.9516 6.6699 14.95 6.7832V11.1168C14.9516 11.2301 14.9081 11.3394 14.8291 11.4206C14.7501 11.5019 14.6421 11.5484 14.5288 11.55H7.37116C7.25786 11.5484 7.14982 11.5019 7.07083 11.4206C6.99184 11.3394 6.94836 11.2301 6.94996 11.1168V6.7832C6.94836 6.6699 6.99184 6.5606 7.07083 6.47935C7.14982 6.39811 7.25786 6.35158 7.37116 6.35H14.5288C14.6421 6.35158 14.7501 6.39811 14.8291 6.47935ZM9.74996 8.95C9.74996 9.61274 10.2872 10.15 10.95 10.15C11.2682 10.15 11.5734 10.0236 11.7985 9.79853C12.0235 9.57348 12.15 9.26826 12.15 8.95C12.15 8.28726 11.6127 7.75 10.95 7.75C10.2872 7.75 9.74996 8.28726 9.74996 8.95ZM15.95 7.45C15.7843 7.45 15.65 7.58431 15.65 7.75V12.15C15.65 12.2052 15.6052 12.25 15.55 12.25H8.35C8.18431 12.25 8.05 12.3843 8.05 12.55C8.05 12.7157 8.18431 12.85 8.35 12.85H15.55C15.9364 12.8496 16.2496 12.5364 16.25 12.15V7.75C16.25 7.58431 16.1157 7.45 15.95 7.45Z" fill="#5A5A5A"/>
</g>
</svg>
