<?xml version="1.0" encoding="UTF-8"?>
<svg width="24px" height="24px" viewBox="0 0 24 24" version="1.1" xmlns="http://www.w3.org/2000/svg" xmlns:xlink="http://www.w3.org/1999/xlink">
    <title>3. Finance/invoice</title>
    <g id="3.-Finance/invoice" stroke="none" stroke-width="1" fill="none" fill-rule="evenodd">
        <path d="M15.2499167,2 C15.4715833,2 15.68325,2.0875 15.8390833,2.24416667 L15.8390833,2.24416667 L19.5890833,5.99416667 C19.7449167,6.15 19.83325,6.3625 19.83325,6.58333333 L19.83325,6.58333333 L19.83325,20.3333333 C19.83325,21.2541667 19.0865833,22 18.1665833,22 L18.1665833,22 L5.66658333,22 C4.74575,22 3.99991667,21.2541667 3.99991667,20.3333333 L3.99991667,20.3333333 L3.99991667,3.66666667 C3.99991667,2.74583333 4.74575,2 5.66658333,2 L5.66658333,2 Z M14.5599167,3.66666667 L6.49991667,3.66666667 C6.03991667,3.66666667 5.66658333,4.04 5.66658333,4.5 L5.66658333,4.5 L5.66658333,19.5 C5.66658333,19.96 6.03991667,20.3333333 6.49991667,20.3333333 L6.49991667,20.3333333 L17.33325,20.3333333 C17.7940833,20.3333333 18.1665833,19.96 18.1665833,19.5 L18.1665833,19.5 L18.1665833,7.27333333 C18.1665833,7.0525 18.0790833,6.84 17.9224167,6.68416667 L17.9224167,6.68416667 L15.1490833,3.91083333 C14.9924167,3.75416667 14.78075,3.66666667 14.5599167,3.66666667 L14.5599167,3.66666667 Z M10.0415833,17 C10.1565833,17 10.2499167,17.0933333 10.2499167,17.2083333 L10.2499167,17.2083333 L10.2499167,18.4583333 C10.2499167,18.5733333 10.1565833,18.6666667 10.0415833,18.6666667 L10.0415833,18.6666667 L7.33325,18.6666667 C7.10325,18.6666667 6.91658333,18.48 6.91658333,18.25 L6.91658333,18.25 L6.91658333,17.4166667 C6.91658333,17.1866667 7.10325,17 7.33325,17 L7.33325,17 Z M16.08325,17 C16.31325,17 16.4999167,17.1866667 16.4999167,17.4166667 L16.4999167,17.4166667 L16.4999167,18.25 C16.4999167,18.48 16.31325,18.6666667 16.08325,18.6666667 L16.08325,18.6666667 L11.2915833,18.6666667 C11.1765833,18.6666667 11.08325,18.5733333 11.08325,18.4583333 L11.08325,18.4583333 L11.08325,17.2083333 C11.08325,17.0933333 11.1765833,17 11.2915833,17 L11.2915833,17 Z M10.0415833,14.5 C10.1565833,14.5 10.2499167,14.5933333 10.2499167,14.7083333 L10.2499167,14.7083333 L10.2499167,15.9583333 C10.2499167,16.0733333 10.1565833,16.1666667 10.0415833,16.1666667 L10.0415833,16.1666667 L7.33325,16.1666667 C7.10325,16.1666667 6.91658333,15.98 6.91658333,15.75 L6.91658333,15.75 L6.91658333,14.9166667 C6.91658333,14.6866667 7.10325,14.5 7.33325,14.5 L7.33325,14.5 Z M16.08325,14.5 C16.31325,14.5 16.4999167,14.6866667 16.4999167,14.9166667 L16.4999167,14.9166667 L16.4999167,15.75 C16.4999167,15.98 16.31325,16.1666667 16.08325,16.1666667 L16.08325,16.1666667 L11.2915833,16.1666667 C11.1765833,16.1666667 11.08325,16.0733333 11.08325,15.9583333 L11.08325,15.9583333 L11.08325,14.7083333 C11.08325,14.5933333 11.1765833,14.5 11.2915833,14.5 L11.2915833,14.5 Z M15.9499167,7.45 C16.0919327,7.45 16.2109009,7.5486801 16.2419935,7.68121275 L16.2499167,7.75 L16.2499167,12.15 C16.2495125,12.5042152 15.9863521,12.7968599 15.6448557,12.8435137 L15.5499167,12.85 L8.34991667,12.85 C8.18423124,12.85 8.04991667,12.7156854 8.04991667,12.55 C8.04991667,12.4079839 8.14859676,12.2890158 8.28112942,12.2579232 L8.34991667,12.25 L15.5499167,12.25 C15.591338,12.25 15.6268773,12.224816 15.6420582,12.1889245 L15.6499167,12.15 L15.6499167,7.75 C15.6499167,7.58431458 15.7842312,7.45 15.9499167,7.45 Z M14.5287167,6.35 C14.6420207,6.35158017 14.7500551,6.39811124 14.8290478,6.47935446 C14.8882924,6.54028687 14.9275602,6.61700042 14.9428334,6.69934894 L14.9499594,6.7832 L14.9499594,11.1168 C14.9515192,11.2301038 14.9080406,11.3394023 14.8290478,11.4206455 C14.7698033,11.481578 14.6942228,11.5229848 14.6123352,11.5405466 L14.5287167,11.55 L7.37111667,11.55 C7.2578126,11.5484198 7.14977821,11.5018888 7.07078549,11.4206455 C7.01154096,11.3597131 6.97227309,11.2829996 6.95699996,11.2006511 L6.94987389,11.1168 L6.94987389,6.7832 C6.94831414,6.66989625 6.99179278,6.56059767 7.07078549,6.47935446 C7.13003003,6.41842204 7.20561051,6.37701522 7.28749812,6.35945344 L7.37111667,6.35 L14.5287167,6.35 Z M10.9499167,7.75 C10.287175,7.75 9.74991667,8.2872583 9.74991667,8.95 C9.74991667,9.6127417 10.287175,10.15 10.9499167,10.15 C11.2681765,10.15 11.5734011,10.0235718 11.7984448,9.79852814 C12.0234885,9.57348448 12.1499167,9.26825979 12.1499167,8.95 C12.1499167,8.2872583 11.6126584,7.75 10.9499167,7.75 Z" id="ðŸ–-Color" fill="#5A5A5A"></path>
        <rect id="_Transparent_Rectangle_" fill-opacity="0" fill="#D8D8D8" x="0" y="0" width="24" height="24"></rect>
    </g>
</svg>