<?xml version="1.0" encoding="UTF-8"?>
<svg width="24px" height="24px" viewBox="0 0 24 24" version="1.1" xmlns="http://www.w3.org/2000/svg" xmlns:xlink="http://www.w3.org/1999/xlink">
    <title>3. Finance/money_atm</title>
    <g id="3.-Finance/money_atm" stroke="none" stroke-width="1" fill="none" fill-rule="evenodd">
        <path d="M16.0225,8.45833333 C16.1082662,8.45851505 16.1852306,8.51103576 16.2166667,8.59083333 C17.5356479,12.1483706 18.222106,15.9092249 18.24503,19.7033333 C18.2463365,19.814704 18.2030286,19.9219738 18.1247431,20.0011987 C18.0464576,20.0804236 17.939712,20.125 17.8283333,20.125 L17.8283333,20.125 L6.16666667,20.125 C6.05528801,20.125 5.94854238,20.0804236 5.87025689,20.0011987 C5.7919714,19.9219738 5.74866346,19.814704 5.74996996,19.7033333 C5.77323632,15.9092569 6.4596837,12.1484616 7.77833333,8.59083333 C7.80976944,8.51103576 7.88673376,8.45851505 7.9725,8.45833333 L7.9725,8.45833333 Z M12.1041667,9.91666669 C11.7589887,9.91666669 11.4791667,10.1964887 11.4791667,10.5416667 L11.4791667,10.5416667 L11.4791667,10.7983333 C11.4795125,10.8974633 11.4096923,10.982993 11.3125,11.0025 C10.5583097,11.153453 9.9932506,11.7825099 9.92377132,12.5485141 C9.85429205,13.3145183 10.2969452,14.0349782 11.0116667,14.3191667 L11.0116667,14.3191667 L12.7325,15.0075 C12.9514813,15.0958508 13.0771496,15.3269861 13.0322476,15.5588103 C12.9873457,15.7906346 12.784466,15.9581334 12.5483333,15.9583333 L12.5483333,15.9583333 L10.8541667,15.9583333 C10.5089887,15.9583333 10.2291667,16.2381554 10.2291667,16.5833333 C10.2291667,16.9285113 10.5089887,17.2083333 10.8541667,17.2083333 L10.8541667,17.2083333 L11.2708333,17.2083333 C11.3858927,17.2083333 11.4791667,17.3016073 11.4791667,17.4166667 L11.4791667,17.4166667 L11.4791667,17.6275 C11.4791667,17.972678 11.7589887,18.2525 12.1041667,18.2525 C12.4493446,18.2525 12.7291667,17.972678 12.7291667,17.6275 L12.7291667,17.6275 L12.7291667,17.3708333 C12.7288209,17.2717034 12.798641,17.1861737 12.8958333,17.1666667 L12.8958333,17.1666667 C13.6500236,17.0132137 14.2150827,16.3841568 14.284562,15.6181526 C14.3540413,14.8521484 13.9113881,14.1316885 13.1966667,13.8475 L13.1966667,13.8475 L11.4758333,13.1591667 C11.256852,13.0708159 11.1311837,12.8396806 11.1760857,12.6078564 C11.2209877,12.3760321 11.4238673,12.2085332 11.66,12.2083333 L11.66,12.2083333 L13.3541667,12.2083333 C13.6993446,12.2083333 13.9791667,11.9285113 13.9791667,11.5833333 C13.9791667,11.2381554 13.6993446,10.9583333 13.3541667,10.9583333 L13.3541667,10.9583333 L12.9375,10.9583333 C12.8224407,10.9583333 12.7291667,10.8650593 12.7291667,10.75 L12.7291667,10.75 L12.7291667,10.5416667 C12.7291667,10.1964887 12.4493446,9.91666669 12.1041667,9.91666669 Z M20.75,3.875 C21.4403559,3.875 22,4.43464406 22,5.125 L22,5.125 L22,9.70833333 C22,10.3986893 21.4403559,10.958334 20.75,10.958334 L20.75,10.958334 L18.8925,10.958334 C18.7986631,10.958334 18.7164396,10.8955078 18.6916667,10.805 C18.4566667,9.945 18.1908333,9.11416667 17.8941667,8.32333333 C17.8701027,8.25934507 17.8789634,8.18762254 17.9178766,8.13141459 C17.9567898,8.07520663 18.0208031,8.04166667 18.0891667,8.04166667 L18.0891667,8.04166667 L19.0833333,8.04166667 C19.5435706,8.04166667 19.9166667,7.66857062 19.9166667,7.20833333 C19.9166667,6.74809604 19.5435706,6.375 19.0833333,6.375 L19.0833333,6.375 L4.91666667,6.375 C4.45642938,6.375 4.08333333,6.74809604 4.08333333,7.20833333 C4.08333333,7.66857062 4.45642938,8.04166667 4.91666667,8.04166667 L4.91666667,8.04166667 L5.90583333,8.04166667 C5.97419686,8.04166667 6.03821017,8.07520663 6.07712337,8.13141459 C6.11603657,8.18762254 6.12489729,8.25934507 6.10083333,8.32333333 C5.80333333,9.115 5.53833333,9.945 5.30333333,10.805 C5.27881261,10.8956775 5.1964341,10.9585723 5.1025,10.958334 L5.1025,10.958334 L3.25,10.958334 C2.55964406,10.958334 2,10.3986893 2,9.70833333 L2,9.70833333 L2,5.125 C2,4.43464406 2.55964406,3.875 3.25,3.875 L3.25,3.875 Z" id="ðŸ–-Color" fill="#5A5A5A"></path>
        <rect id="_Transparent_Rectangle_" fill-opacity="0" fill="#D8D8D8" x="0" y="0.0782455328" width="24" height="24"></rect>
    </g>
</svg>