<?xml version="1.0" encoding="UTF-8"?>
<svg width="24px" height="24px" viewBox="0 0 24 24" version="1.1" xmlns="http://www.w3.org/2000/svg" xmlns:xlink="http://www.w3.org/1999/xlink">
    <title>3. Finance/money_bags</title>
    <g id="3.-Finance/money_bags" stroke="none" stroke-width="1" fill="none" fill-rule="evenodd">
        <path d="M13.875,9.4125 C13.9199452,9.4125 13.9637253,9.42679621 14,9.45333333 C15.55,10.6058333 17,12.2866667 17,14.62 C16.8797529,17.2652921 14.6423396,19.3148879 11.9966667,19.2033333 C9.3522697,19.3129986 7.11692896,17.2639362 6.99666667,14.62 C6.99666667,12.2866667 8.45,10.6066667 9.99666667,9.45333333 C10.0329413,9.42679621 10.0767215,9.4125 10.1216667,9.4125 L10.1216667,9.4125 Z M12,11.0083334 C11.654822,11.0083334 11.375,11.2881554 11.375,11.6333333 L11.375,11.6333333 L11.375,11.7658333 C11.3752246,11.8610358 11.3106352,11.9441775 11.2183333,11.9675 C10.5511911,12.1377579 10.0694361,12.7180688 10.0248452,13.4051483 C9.98025429,14.0922278 10.3829606,14.7299395 11.0225,14.985 L11.0225,14.985 L12.5125,15.5816667 C12.6436186,15.6332093 12.7296558,15.7599487 12.7291667,15.9008333 C12.7287086,16.0907213 12.5748879,16.2445419 12.385,16.245 L12.385,16.245 L10.9166667,16.245 C10.5714887,16.245 10.2916667,16.524822 10.2916667,16.87 C10.2916667,17.215178 10.5714887,17.495 10.9166667,17.495 L10.9166667,17.495 L11.1666667,17.495 C11.281726,17.495 11.375,17.588274 11.375,17.7033333 L11.375,17.7033333 L11.375,17.7725 C11.375,18.117678 11.654822,18.3975 12,18.3975 C12.345178,18.3975 12.625,18.117678 12.625,17.7725 L12.625,17.7725 L12.625,17.6408333 C12.624691,17.5454222 12.6892356,17.4619949 12.7816667,17.4383333 L12.7816667,17.4383333 C13.4488089,17.2714088 13.9305639,16.6910978 13.9751548,16.0040184 C14.0197457,15.3169389 13.6170394,14.6792272 12.9775,14.4241667 L12.9775,14.4241667 L11.4866667,13.8283333 C11.3290317,13.7697422 11.2368233,13.6058123 11.2686127,13.4406725 C11.3004021,13.2755328 11.4468788,13.1575497 11.615,13.1616667 L11.615,13.1616667 L13.0833333,13.1616667 C13.4285113,13.1616667 13.7083333,12.8818446 13.7083333,12.5366667 C13.7083333,12.1914887 13.4285113,11.9116667 13.0833333,11.9116667 L13.0833333,11.9116667 L12.8333333,11.9116667 C12.718274,11.9116667 12.625,11.8183927 12.625,11.7033333 L12.625,11.7033333 L12.625,11.6333333 C12.625,11.2881554 12.345178,11.0083334 12,11.0083334 Z M7.10333333,10.2483333 C7.1134896,10.2484402 7.12337248,10.2516376 7.13166667,10.2575 C7.20798383,10.3182521 7.22336612,10.4281256 7.16666667,10.5075 C6.25829347,11.6869955 5.76076296,13.1312973 5.75,14.62 C5.75050816,15.6779734 6.05572958,16.7134118 6.62916667,17.6025 C6.66864963,17.6637812 6.67307851,17.7412867 6.64083333,17.8066667 C6.60963095,17.8720005 6.5462793,17.9160299 6.47416667,17.9225 C6.25,17.9425 6.00916667,17.9533333 5.75,17.9533333 C3.90905083,17.9533333 2.41666667,16.4609492 2.41666667,14.62 C2.44590396,12.9513322 3.19518916,11.3768002 4.47166667,10.3016667 C4.50993368,10.2674047 4.55946957,10.2484209 4.61083333,10.2483333 L4.61083333,10.2483333 Z M19.3891667,10.2449964 C19.4405304,10.2450876 19.4900663,10.2640714 19.5283333,10.2983333 C20.8056793,11.3742271 21.5550534,12.9501615 21.5833333,14.62 C21.5833333,16.4609492 20.0909492,17.9533333 18.25,17.9533333 C17.9908333,17.9533333 17.75,17.9425 17.5258333,17.9225 C17.4532905,17.9159704 17.3894249,17.8720294 17.3573979,17.8066125 C17.3253709,17.7411956 17.3298332,17.6638024 17.3691667,17.6025 C17.9431911,16.7135917 18.248995,15.6781403 18.25,14.62 C18.2381527,13.1054471 17.7240677,11.6376377 16.7883333,10.4466667 C16.7543766,10.4015806 16.7625063,10.3376521 16.8066667,10.3025 L16.8066667,10.3025 L16.8241667,10.2891667 C16.8606888,10.2603002 16.9059483,10.2447238 16.9525,10.2449964 L16.9525,10.2449964 Z M6.5775,6.95416667 C6.80138836,6.90994444 7.03050366,7.00034357 7.16387848,7.18552662 C7.2972533,7.37070966 7.31039021,7.61666341 7.1975,7.815 L7.1975,7.815 L6.58333333,8.89 C6.54627991,8.95452426 6.47773826,8.99450689 6.40333333,8.995 L6.40333333,8.995 L5.0975,8.995 C5.02279686,8.99480334 4.95386929,8.95478088 4.91666667,8.89 L4.91666667,8.89 L4.3025,7.815 C4.18960979,7.61666341 4.2027467,7.37070966 4.33612152,7.18552662 C4.46949634,7.00034357 4.69861164,6.90994444 4.9225,6.95416667 C5.46876565,7.06333742 6.03123435,7.06333742 6.5775,6.95416667 Z M19.0775,6.95416667 C19.3013884,6.90994444 19.5305037,7.00034357 19.6638785,7.18552662 C19.7972533,7.37070966 19.8103902,7.61666341 19.6975,7.815 L19.6975,7.815 L19.0841667,8.89 C19.046964,8.95478088 18.9780365,8.99480334 18.9033333,8.995 L18.9033333,8.995 L17.5966667,8.995 C17.5219635,8.99480334 17.453036,8.95478088 17.4158333,8.89 L17.4158333,8.89 L16.8025,7.815 C16.6896098,7.61666341 16.7027467,7.37070966 16.8361215,7.18552662 C16.9694963,7.00034357 17.1986116,6.90994444 17.4225,6.95416667 C17.9687656,7.06333742 18.5312344,7.06333742 19.0775,6.95416667 Z M12,4.79833268 C12.2804275,4.79833268 12.5444538,4.93050049 12.7125,5.155 L12.7125,5.155 L12.8858333,5.38583333 C13.0156729,5.5593928 13.2199158,5.66135979 13.4366667,5.66083333 C13.5560174,5.66099382 13.6732978,5.62966156 13.7766667,5.57 C14.0956156,5.38726084 14.4966263,5.43508833 14.7636503,5.68771493 C15.0306743,5.94034153 15.1006321,6.33808886 14.9358333,6.66666667 L14.9358333,6.66666667 L14.245,8.04666667 C14.2094625,8.11715204 14.1372707,8.16162736 14.0583333,8.16166667 L14.0583333,8.16166667 L9.94166667,8.16166667 C9.86272934,8.16162736 9.79053751,8.11715204 9.755,8.04666667 L9.755,8.04666667 L9.06416667,6.66666667 C8.89936785,6.33808886 8.96932568,5.94034153 9.2363497,5.68771493 C9.50337371,5.43508833 9.9043844,5.38726084 10.2233333,5.57 C10.3267022,5.62966156 10.4439826,5.66099382 10.5633333,5.66083333 C10.7800842,5.66135979 10.9843271,5.5593928 11.1141667,5.38583333 L11.1141667,5.38583333 L11.2875,5.155 C11.4555462,4.93050049 11.7195725,4.79833268 12,4.79833268 Z" id="ðŸ–-Color" fill="#5A5A5A"></path>
        <rect id="_Transparent_Rectangle_" fill-opacity="0" fill="#D8D8D8" x="0" y="0" width="24" height="24"></rect>
    </g>
</svg>