<svg width="24" height="24" viewBox="0 0 24 24" fill="none" xmlns="http://www.w3.org/2000/svg">
<g id="money_wallet_open">
<path id="Shape" fill-rule="evenodd" clip-rule="evenodd" d="M19.0833 2.25417C20.6942 2.25417 22 3.56 22 5.17083V14.3367C22 15.9475 20.6942 17.2533 19.0833 17.2533H18.465C18.3499 17.2533 18.2567 17.1601 18.2567 17.045V11.2592C18.2547 10.7693 18.1756 10.2828 18.0225 9.8175C18.0016 9.75422 18.0124 9.68471 18.0517 9.63083C18.0912 9.57858 18.1528 9.54776 18.2183 9.5475H19.0833C19.4285 9.5475 19.7083 9.26768 19.7083 8.9225C19.7083 8.57732 19.4285 8.2975 19.0833 8.2975H17.32C17.2555 8.2984 17.1942 8.26987 17.1533 8.22C16.53 7.45729 15.6858 6.90623 14.7367 6.6425L14.665 6.62333C14.5644 6.59559 14.4999 6.49772 14.514 6.39433C14.5281 6.29095 14.6165 6.21395 14.7208 6.21417H19.0825C19.4277 6.21417 19.7075 5.93435 19.7075 5.58917C19.7075 5.24399 19.4277 4.96417 19.0825 4.96417H8.68417C8.66585 4.96419 8.64762 4.96167 8.63 4.95667C8.3375 4.87667 5.71334 4.15167 5.71334 4.15167C5.49823 4.09212 5.2677 4.15186 5.10858 4.30837C4.94946 4.46488 4.88593 4.6944 4.94192 4.91045C4.9979 5.12651 5.1649 5.29629 5.38 5.35583L14.4008 7.84333C15.9354 8.27052 16.9978 9.66712 17 11.26V17.2542V19.3375C17.0236 20.0788 16.7008 20.7888 16.1267 21.2583C15.7193 21.5784 15.2147 21.7495 14.6967 21.7433C14.4803 21.7428 14.2646 21.717 14.0542 21.6667L4.755 19.4825C3.17719 19.0467 2.06288 17.6398 2 16.0042V5.17083C1.99935 4.46372 2.25686 3.78069 2.72417 3.25C2.75314 3.20084 2.79237 3.15849 2.83917 3.12583C3.38627 2.56772 4.13513 2.25352 4.91667 2.25417H19.0833ZM13.25 16.4208C14.1705 16.4208 14.9167 15.6746 14.9167 14.7542C14.9167 13.8337 14.1705 13.0875 13.25 13.0875C12.3295 13.0875 11.5833 13.8337 11.5833 14.7542C11.5833 15.6746 12.3295 16.4208 13.25 16.4208Z" fill="#5A5A5A"/>
</g>
</svg>
