<?xml version="1.0" encoding="UTF-8"?>
<svg width="24px" height="24px" viewBox="0 0 24 24" version="1.1" xmlns="http://www.w3.org/2000/svg" xmlns:xlink="http://www.w3.org/1999/xlink">
    <title>3. Finance/money_wallet_open</title>
    <g id="3.-Finance/money_wallet_open" stroke="none" stroke-width="1" fill="none" fill-rule="evenodd">
        <path d="M21.9999988,5.17083333 C21.9999988,3.56000281 20.6941639,2.25416567 19.0833333,2.25416567 L4.91666667,2.25416567 C4.13512422,2.253521 3.38626871,2.56772191 2.83916667,3.12583333 C2.7923647,3.15848731 2.7531425,3.20083591 2.72416667,3.25 C2.25685773,3.78069027 1.99935111,4.46371991 1.99999878,5.17083333 L1.99999878,16.0041667 C2.06287653,17.6398473 3.17718481,19.0467205 4.755,19.4825 L14.0541667,21.6666667 C14.2646403,21.7170249 14.4802532,21.742753 14.6966667,21.7434954 C15.2147022,21.7495214 15.71928,21.5783884 16.1266667,21.2583333 C16.7007898,20.7888171 17.0236151,20.0787862 16.9999988,19.3375 L16.9999988,17.2541657 L16.9999988,17.2541657 L16.9999988,11.26 C16.9978045,9.66711939 15.935365,8.27051724 14.4008333,7.84333333 L5.38,5.35583333 C5.16489634,5.29628907 4.99789885,5.12651147 4.94191386,4.9104541 C4.88592888,4.69439673 4.94946185,4.46488386 5.10858053,4.30837076 C5.26769921,4.15185766 5.49822967,4.0921224 5.71333333,4.15166667 C5.71333333,4.15166667 8.3375,4.87666667 8.63,4.95666667 C8.64762043,4.96166626 8.66585069,4.96419045 8.68416667,4.96416667 L19.0825,4.96416667 C19.427678,4.96416667 19.7075,5.2439887 19.7075,5.58916667 C19.7075,5.93434464 19.427678,6.21416667 19.0825,6.21416667 L14.7208333,6.21416667 C14.6164925,6.21394695 14.5280815,6.29094923 14.5139742,6.39433219 C14.499867,6.49771515 14.564415,6.59558966 14.665,6.62333333 L14.7366667,6.6425 C15.6857616,6.90623332 16.5299523,7.45728604 17.1533333,8.22 C17.1941887,8.26986531 17.2555414,8.29839435 17.32,8.2975 L19.0833333,8.2975 C19.4285113,8.29750001 19.7083333,8.57732204 19.7083333,8.9225 C19.7083333,9.26767796 19.4285113,9.54749999 19.0833333,9.5475 L18.2183333,9.5475 C18.1528205,9.54775972 18.0911822,9.57857888 18.0516667,9.63083333 C18.0124076,9.68470987 18.0015473,9.75421538 18.0225,9.8175 C18.1756315,10.2828128 18.2546518,10.7693084 18.2566667,11.2591667 L18.2566667,17.045 C18.2566667,17.1600593 18.3499407,17.2533333 18.465,17.2533333 L19.0833333,17.2533333 C20.6941639,17.2533333 21.9999988,15.9474972 21.9999988,14.3366667 L21.9999988,5.17083333 Z M14.9166667,14.7541667 C14.9166667,15.6746412 14.1704746,16.4208333 13.25,16.4208333 C12.3295254,16.4208333 11.5833333,15.6746412 11.5833333,14.7541667 C11.5833333,13.8336921 12.3295254,13.0875 13.25,13.0875 C14.1704746,13.0875 14.9166667,13.8336921 14.9166667,14.7541667 Z" id="ðŸ–-Color" fill="#5A5A5A"></path>
        <rect id="_Transparent_Rectangle_" fill-opacity="0" fill="#D8D8D8" x="0" y="0.0782455328" width="24" height="24"></rect>
    </g>
</svg>