<svg width="24" height="24" viewBox="0 0 24 24" fill="none" xmlns="http://www.w3.org/2000/svg">
<g id="retirement">
<path id="Shape" fill-rule="evenodd" clip-rule="evenodd" d="M12.0137 2.17932C16.2156 2.17932 19.6218 5.58561 19.6218 9.78748C19.6171 13.9874 16.2136 17.3909 12.0137 17.3956C7.81181 17.3956 4.40551 13.9894 4.40551 9.78748C4.40551 5.58561 7.81181 2.17932 12.0137 2.17932ZM4.58376 14.6863C4.54235 14.6234 4.47135 14.5864 4.39609 14.5885C4.32082 14.5907 4.25202 14.6316 4.21422 14.6967L2.11698 18.3182C1.94817 18.6098 1.96306 18.9727 2.15518 19.2495C2.3473 19.5264 2.68205 19.6673 3.01431 19.6111L5.09329 19.259L5.81759 21.2484C5.93251 21.5643 6.21921 21.7857 6.5539 21.8169C6.88859 21.8481 7.21131 21.6837 7.3827 21.3945L9.10432 18.4808C9.13718 18.425 9.14355 18.3574 9.12171 18.2965C9.09996 18.2356 9.05209 18.1878 8.99128 18.166C7.18662 17.5094 5.64124 16.2893 4.58376 14.6863ZM21.8826 18.3173L19.7957 14.7193C19.758 14.6545 19.6895 14.6137 19.6145 14.6114C19.5396 14.6091 19.4687 14.6456 19.4271 14.708C18.366 16.3065 16.8189 17.5214 15.0143 18.173C14.9532 18.1948 14.905 18.2428 14.8829 18.3039C14.8609 18.365 14.8673 18.4328 14.9004 18.4886L16.6177 21.3954C16.7897 21.6844 17.1129 21.8483 17.4476 21.8163C17.7824 21.7843 18.0687 21.5621 18.1828 21.2458L18.9062 19.2573L20.9861 19.6094C21.3185 19.6654 21.6532 19.5242 21.8452 19.2472C22.0372 18.9701 22.0517 18.6071 21.8826 18.3156V18.3173Z" fill="#5A5A5A"/>
</g>
</svg>
