<?xml version="1.0" encoding="UTF-8"?>
<svg width="24px" height="24px" viewBox="0 0 24 24" version="1.1" xmlns="http://www.w3.org/2000/svg" xmlns:xlink="http://www.w3.org/1999/xlink">
    <title>3. Finance/retirement</title>
    <g id="3.-Finance/retirement" stroke="none" stroke-width="1" fill="none" fill-rule="evenodd">
        <path d="M19.6145474,14.611402 C19.6895198,14.6137007 19.7580102,14.6544888 19.7957472,14.7193121 L19.7957472,14.7193121 L21.8825585,18.3173226 C22.0517187,18.6071093 22.0371624,18.9701349 21.8452039,19.2471807 C21.6532454,19.5242265 21.3184687,19.665379 20.9860991,19.6094066 L20.9860991,19.6094066 L18.9062438,19.2572572 L18.1828159,21.2458145 C18.0686867,21.5621387 17.7823859,21.7842923 17.4476274,21.8162803 C17.112869,21.8482683 16.7896774,21.6843551 16.6177074,21.3953693 L16.6177074,21.3953693 L14.9004356,18.488615 C14.8673039,18.4327591 14.8608816,18.3650151 14.8829267,18.3039282 C14.9049719,18.2428413 14.9531751,18.1948106 15.0143407,18.1729848 C16.8189195,17.5213605 18.3660282,16.3065372 19.4270772,14.7080085 C19.4687146,14.6456189 19.5395751,14.6091033 19.6145474,14.611402 Z M4.39608573,14.5885439 C4.47134756,14.5864188 4.54234967,14.6233911 4.58376213,14.6862709 C5.64124364,16.2893034 7.18662067,17.5093861 8.99128155,18.1660288 C9.05209499,18.1877783 9.09995776,18.235641 9.12170725,18.2964545 C9.14355342,18.3574355 9.13718225,18.4249699 9.10431716,18.4807895 L9.10431716,18.4807895 L7.38269782,21.3944998 C7.21130797,21.6836694 6.88859233,21.8481465 6.55390183,21.8169087 C6.21921133,21.7856709 5.9325068,21.5643146 5.81758933,21.248423 L5.81758933,21.248423 L5.0932919,19.2589962 L3.01430612,19.6111456 C2.68205484,19.6672596 2.34729542,19.526359 2.15517709,19.2495374 C1.96305875,18.9727157 1.9481742,18.6098172 2.11697725,18.3181921 L2.11697725,18.3181921 L4.21422263,14.696705 C4.25202109,14.6315886 4.3208239,14.5906689 4.39608573,14.5885439 Z M12.0136799,2.17931504 C16.2155542,2.17931504 19.6218462,5.58560711 19.6218462,9.78748132 C19.6170546,13.9873692 16.2135678,17.3908559 12.0136799,17.3956476 C7.81180573,17.3956476 4.40551367,13.9893555 4.40551367,9.78748132 C4.40551367,5.58560711 7.81180573,2.17931504 12.0136799,2.17931504 Z" id="ðŸ–-Color" fill="#5A5A5A"></path>
        <rect id="_Transparent_Rectangle_" fill-opacity="0" fill="#D8D8D8" x="0" y="0" width="24" height="24"></rect>
    </g>
</svg>