<svg width="24" height="24" viewBox="0 0 24 24" fill="none" xmlns="http://www.w3.org/2000/svg">
<g id="saving_bank_1">
<path id="Shape" fill-rule="evenodd" clip-rule="evenodd" d="M4.04395 9.08333H20.044C20.3731 9.0903 20.6755 8.90287 20.8156 8.605C20.9541 8.28372 20.8476 7.90934 20.5606 7.70917L12.9473 2.16667C12.6495 1.95625 12.2539 1.94767 11.9473 2.145L3.55812 7.6875C3.25764 7.87672 3.13442 8.25304 3.26479 8.58333C3.39952 8.89221 3.70702 9.08954 4.04395 9.08333ZM7.83312 12C8.29336 12 8.66645 11.6269 8.66645 11.1667C8.66645 10.7064 8.29336 10.3333 7.83312 10.3333H4.49979C4.03955 10.3333 3.66645 10.7064 3.66645 11.1667C3.66645 11.6269 4.03955 12 4.49979 12H4.70812C4.76344 11.9998 4.81656 12.0217 4.85568 12.0608C4.8948 12.0999 4.91667 12.153 4.91645 12.2083V15.5417C4.91645 15.6567 4.82318 15.75 4.70812 15.75H4.49979C4.03955 15.75 3.66645 16.1231 3.66645 16.5833C3.66645 17.0436 4.03955 17.4167 4.49979 17.4167H7.83312C8.29336 17.4167 8.66645 17.0436 8.66645 16.5833C8.66645 16.1231 8.29336 15.75 7.83312 15.75H7.62479C7.50973 15.75 7.41645 15.6567 7.41645 15.5417V12.2083C7.41623 12.153 7.43811 12.0999 7.47723 12.0608C7.51634 12.0217 7.56946 11.9998 7.62479 12H7.83312ZM13.6665 12C14.1267 12 14.4998 11.6269 14.4998 11.1667C14.4998 10.7064 14.1267 10.3333 13.6665 10.3333H10.3331C9.87288 10.3333 9.49979 10.7064 9.49979 11.1667C9.49979 11.6269 9.87288 12 10.3331 12H10.5415C10.5968 11.9998 10.6499 12.0217 10.689 12.0608C10.7281 12.0999 10.75 12.153 10.7498 12.2083V15.5417C10.7498 15.6567 10.6565 15.75 10.5415 15.75H10.3331C9.87288 15.75 9.49979 16.1231 9.49979 16.5833C9.49979 17.0436 9.87288 17.4167 10.3331 17.4167H13.6665C14.1267 17.4167 14.4998 17.0436 14.4998 16.5833C14.4998 16.1231 14.1267 15.75 13.6665 15.75H13.4581C13.3431 15.75 13.2498 15.6567 13.2498 15.5417V12.2083C13.2496 12.153 13.2714 12.0999 13.3106 12.0608C13.3497 12.0217 13.4028 11.9998 13.4581 12H13.6665ZM20.7498 11.1667C20.7498 11.6269 20.3767 12 19.9165 12H19.7081C19.6528 11.9998 19.5997 12.0217 19.5606 12.0608C19.5214 12.0999 19.4996 12.153 19.4998 12.2083V15.5417C19.4998 15.6567 19.5931 15.75 19.7081 15.75H19.9165C20.3767 15.75 20.7498 16.1231 20.7498 16.5833C20.7498 17.0436 20.3767 17.4167 19.9165 17.4167H16.5831C16.1229 17.4167 15.7498 17.0436 15.7498 16.5833C15.7498 16.1231 16.1229 15.75 16.5831 15.75H16.7915C16.9065 15.75 16.9998 15.6567 16.9998 15.5417V12.2083C17 12.153 16.9781 12.0999 16.939 12.0608C16.8999 12.0217 16.8468 11.9998 16.7915 12H16.5831C16.1229 12 15.7498 11.6269 15.7498 11.1667C15.7498 10.7064 16.1229 10.3333 16.5831 10.3333H19.9165C20.3767 10.3333 20.7498 10.7064 20.7498 11.1667ZM20.2631 18.8525L21.9298 21.3525C22.0149 21.4803 22.0227 21.6446 21.9502 21.78C21.8778 21.9154 21.7367 21.9999 21.5831 22H2.41645C2.26289 21.9999 2.12182 21.9154 2.04933 21.78C1.97685 21.6446 1.98471 21.4803 2.06979 21.3525L3.73645 18.8525C3.81366 18.7365 3.94376 18.6667 4.08312 18.6667H19.9165C20.0558 18.6667 20.1859 18.7365 20.2631 18.8525Z" fill="#5A5A5A"/>
</g>
</svg>
