<?xml version="1.0" encoding="UTF-8"?>
<svg width="24px" height="24px" viewBox="0 0 24 24" version="1.1" xmlns="http://www.w3.org/2000/svg" xmlns:xlink="http://www.w3.org/1999/xlink">
    <title>3. Finance/saving_money_tree</title>
    <g id="3.-Finance/saving_money_tree" stroke="none" stroke-width="1" fill="none" fill-rule="evenodd">
        <path d="M18.351051,9.48212095 C18.2450134,9.45726118 18.1762417,9.35464943 18.193551,9.24712095 C18.245214,8.92329229 18.2711285,8.59587814 18.271051,8.26795428 C18.2718012,5.01904461 15.7888244,2.30863344 12.552287,2.02536593 C9.31574968,1.74209841 6.39968985,3.97997629 5.83605104,7.17962095 C5.82337628,7.25321035 5.77213828,7.31431406 5.70188437,7.33962095 C3.74538444,8.1106176 2.50541061,10.0510809 2.62771771,12.1504543 C2.62771771,14.504621 3.96105104,17.254621 7.73188437,17.254621 L10.336051,17.254621 C10.4511104,17.254621 10.5443844,17.347895 10.5443844,17.4629543 L10.5443844,18.457121 C10.5443844,18.5721803 10.4511104,18.6654543 10.336051,18.6654543 L9.03855104,18.6654543 C8.77156404,18.6669905 8.5214787,18.7963611 8.36596567,19.0133867 C8.21045264,19.2304123 8.168344,19.5088119 8.25271771,19.762121 L8.90271771,21.7137876 C8.95897295,21.8827114 9.11634661,21.9972258 9.29438437,21.9987879 L14.2943844,21.9987879 C14.4739575,21.9990104 14.6334727,21.8841594 14.6902177,21.7137876 L15.3402177,19.762121 C15.4248182,19.5081166 15.3822306,19.228933 15.2257468,19.0117044 C15.0692629,18.7944757 14.8179404,18.6656575 14.5502177,18.6654543 L13.2527177,18.6654543 C13.1376584,18.6654543 13.0443844,18.5721803 13.0443844,18.457121 L13.0443844,17.4629543 C13.0443844,17.347895 13.1376584,17.254621 13.2527177,17.254621 L17.4377177,17.254621 C19.4361945,17.2559344 21.1191161,15.760818 21.3531886,13.776096 C21.5872611,11.791374 20.2983351,9.94576629 18.3543844,9.48212095 L18.351051,9.48212095 Z M12.0027177,15.332136 C11.5424804,15.332136 11.1693844,14.9590249 11.1693844,14.4987876 L11.1693844,14.192121 C11.1693844,14.0770616 11.0761104,13.9837876 10.961051,13.9837876 L10.3852177,13.9837876 C9.92498041,13.9837876 9.55188437,13.6106916 9.55188437,13.1504543 C9.55188437,12.690217 9.92498041,12.317121 10.3852177,12.317121 L12.5777177,12.317121 C12.8715412,12.3170256 13.1240215,12.108565 13.179728,11.8200705 C13.2354345,11.531576 13.0787161,11.2441017 12.806051,11.134621 L10.581051,10.2437876 C9.64017826,9.87151482 9.05895019,8.92183245 9.15553856,7.91460889 C9.25212694,6.90738532 10.0032436,6.08546904 10.9977177,5.89878762 C11.0947315,5.87898476 11.1644046,5.79363525 11.1643844,5.69462095 L11.1643844,5.33212095 C11.1643844,4.87188366 11.5374804,4.49878762 11.9977177,4.49878762 C12.457955,4.49878762 12.831051,4.87188366 12.831051,5.33212095 L12.831051,5.63878762 C12.831051,5.75384694 12.924325,5.84712095 13.0393844,5.84712095 L13.6152177,5.84712095 C14.075455,5.84712095 14.448551,6.22021699 14.448551,6.68045428 C14.448551,7.14069158 14.075455,7.51378762 13.6152177,7.51378762 L11.4277177,7.51378762 C11.1338942,7.51388297 10.8814139,7.7223436 10.8257074,8.01083807 C10.7700009,8.29933255 10.9267193,8.58680687 11.1993844,8.69628762 L13.4243844,9.58712095 C14.3652572,9.95939375 14.9464852,10.9090761 14.8498968,11.9162997 C14.7533085,12.9235232 14.0021918,13.7454395 13.0077177,13.932121 C12.9107039,13.9519238 12.8410308,14.0372733 12.841051,14.1362876 L12.841051,14.4987876 C12.841055,14.7206704 12.7525716,14.9333933 12.5952082,15.0898181 C12.4378449,15.2462429 12.2245965,15.3334522 12.0027177,15.332136 Z" id="ðŸ–-Color" fill="#5A5A5A"></path>
        <rect id="_Transparent_Rectangle_" fill-opacity="0" fill="#D8D8D8" x="0" y="0" width="24" height="24"></rect>
    </g>
</svg>