<svg width="24" height="24" viewBox="0 0 24 24" fill="none" xmlns="http://www.w3.org/2000/svg">
<g id="saving_safe_open">
<path id="Shape" fill-rule="evenodd" clip-rule="evenodd" d="M21.0748 3.59652C21.2648 3.53203 21.4742 3.56305 21.6373 3.67985C21.7999 3.79742 21.896 3.98593 21.8957 4.18652V17.9365C21.8958 18.1291 21.8071 18.3109 21.6554 18.4294C21.5037 18.5479 21.3058 18.5899 21.119 18.5432L16.9398 17.4982C16.8524 17.4763 16.7608 17.5133 16.7132 17.5898C16.4033 18.0859 15.929 18.4572 15.3732 18.639C15.2873 18.6671 15.2292 18.7471 15.229 18.8373V19.3948C15.229 19.9701 14.7626 20.4365 14.1873 20.4365C13.612 20.4365 13.1457 19.9701 13.1457 19.3948V18.9782C13.1457 18.8631 13.0524 18.7698 12.9373 18.7698H6.27067C6.15561 18.7698 6.06234 18.8631 6.06234 18.9782V19.3948C6.06234 19.9701 5.59597 20.4365 5.02067 20.4365C4.44537 20.4365 3.979 19.9701 3.979 19.3948V18.8373C3.9788 18.7471 3.92067 18.6671 3.83484 18.639C2.80515 18.3077 2.10621 17.3507 2.104 16.269V6.26902C2.104 4.8883 3.22329 3.76902 4.604 3.76902H14.604C15.4411 3.77113 16.2209 4.19424 16.679 4.89485C16.7304 4.97395 16.8288 5.00823 16.9182 4.97818L21.0748 3.59652ZM14.6057 17.1032C15.0659 17.1032 15.439 16.7301 15.439 16.2698V6.26985C15.439 5.80961 15.0659 5.43652 14.6057 5.43652H4.60567C4.14543 5.43652 3.77234 5.80961 3.77234 6.26985V16.2698C3.77234 16.7301 4.14543 17.1032 4.60567 17.1032H14.6057ZM7.844 10.3048L7.28817 11.9715C7.24582 12.0987 7.26721 12.2384 7.34565 12.3471C7.42409 12.4557 7.55 12.52 7.684 12.5198H11.5273C11.6613 12.52 11.7873 12.4557 11.8657 12.3471C11.9441 12.2384 11.9655 12.0987 11.9232 11.9715L11.3673 10.3048C11.3107 10.1348 11.1516 10.02 10.9723 10.0198H8.239C8.05974 10.02 7.90065 10.1348 7.844 10.3048ZM8.61234 13.6382C8.55559 13.4678 8.39608 13.353 8.2165 13.3532H5.90067C5.7214 13.3533 5.56232 13.4681 5.50567 13.6382L4.94984 15.3048C4.90754 15.4319 4.92883 15.5714 5.00707 15.6801C5.08531 15.7887 5.21098 15.8531 5.34484 15.8532H8.77234C8.9062 15.8531 9.03186 15.7887 9.1101 15.6801C9.18834 15.5714 9.20964 15.4319 9.16734 15.3048L8.61234 13.6382ZM13.3107 13.3532C13.4899 13.3533 13.649 13.4681 13.7057 13.6382L14.2615 15.3048C14.3038 15.4319 14.2825 15.5714 14.2043 15.6801C14.126 15.7887 14.0004 15.8531 13.8665 15.8532H10.439C10.3051 15.8531 10.1795 15.7887 10.1012 15.6801C10.023 15.5714 10.0017 15.4319 10.044 15.3048L10.599 13.6382C10.6557 13.4678 10.8153 13.353 10.9948 13.3532H13.3107ZM6.24484 9.85818C6.16424 9.30913 5.73306 8.87794 5.184 8.79735L4.96317 8.76568C4.75783 8.73642 4.60528 8.56059 4.60528 8.35318C4.60528 8.14577 4.75783 7.96994 4.96317 7.94068L5.18317 7.90902C5.73242 7.82911 6.16407 7.39813 6.24484 6.84902L6.2765 6.62735C6.30576 6.42201 6.48159 6.26946 6.689 6.26946C6.89641 6.26946 7.07225 6.42201 7.1015 6.62735L7.13317 6.84818C7.21388 7.39841 7.64686 7.83003 8.19734 7.90902L8.41817 7.94068C8.62351 7.96994 8.77606 8.14577 8.77606 8.35318C8.77606 8.56059 8.62351 8.73642 8.41817 8.76568L8.19484 8.79735C7.64442 8.87798 7.21251 9.31091 7.13317 9.86152L7.1015 10.0823C7.07225 10.2877 6.89641 10.4402 6.689 10.4402C6.48159 10.4402 6.30576 10.2877 6.2765 10.0823L6.24484 9.85818Z" fill="#5A5A5A"/>
</g>
</svg>
