<?xml version="1.0" encoding="UTF-8"?>
<svg width="24px" height="24px" viewBox="0 0 24 24" version="1.1" xmlns="http://www.w3.org/2000/svg" xmlns:xlink="http://www.w3.org/1999/xlink">
    <title>3. Finance/saving_bank_drawer</title>
    <g id="3.-Finance/saving_bank_drawer" stroke="none" stroke-width="1" fill="none" fill-rule="evenodd">
        <path d="M9.5,12.8333333 C9.96023729,12.8333333 10.3333333,13.2064294 10.3333333,13.6666667 L10.3333333,13.6666667 L10.3333333,20.3333333 C10.3333333,20.7935706 9.96023729,21.1666667 9.5,21.1666667 L9.5,21.1666667 L2.83333333,21.1666667 C2.37309604,21.1666667 2,20.7935706 2,20.3333333 L2,20.3333333 L2,13.6666667 C2,13.2064294 2.37309604,12.8333333 2.83333333,12.8333333 L2.83333333,12.8333333 Z M18.6666667,12.8333333 C19.126904,12.8333333 19.5,13.2064294 19.5,13.6666667 L19.5,13.6666667 L19.5,20.3333333 C19.5,20.7935706 19.126904,21.1666667 18.6666667,21.1666667 L18.6666667,21.1666667 L12,21.1666667 C11.5397627,21.1666667 11.1666667,20.7935706 11.1666667,20.3333333 L11.1666667,20.3333333 L11.1666667,13.6666667 C11.1666667,13.2064294 11.5397627,12.8333333 12,12.8333333 L12,12.8333333 Z M4.08333333,16.5833333 C3.62309604,16.5833333 3.25,16.9564294 3.25,17.4166667 C3.25,17.876904 3.62309604,18.25 4.08333333,18.25 C4.54357062,18.25 4.91666667,17.876904 4.91666667,17.4166667 C4.91666667,16.9564294 4.54357062,16.5833333 4.08333333,16.5833333 Z M13.6666667,16.5833333 C13.2064294,16.5833333 12.8333333,16.9564294 12.8333333,17.4166667 C12.8333333,17.876904 13.2064294,18.25 13.6666667,18.25 C14.126904,18.25 14.5,17.876904 14.5,17.4166667 C14.5,16.9564294 14.126904,16.5833333 13.6666667,16.5833333 Z M21.4516667,2.855 C21.5786689,2.81269977 21.7182606,2.83399354 21.826875,2.91223546 C21.9354893,2.99047739 22,3.11613866 22,3.25 L22,3.25 L22,12 C22,12.1338613 21.9354893,12.2595226 21.826875,12.3377645 C21.7182606,12.4160065 21.5786689,12.4373002 21.4516667,12.395 L21.4516667,12.395 L19.0483333,11.5941667 C19.0270581,11.5872673 19.0048642,11.5836151 18.9825,11.5833333 L18.9825,11.5833333 L12,11.5833333 C11.5397627,11.5833333 11.1666667,11.2102373 11.1666667,10.75 L11.1666667,10.75 L11.1666667,4.5 C11.1666667,4.03976271 11.5397627,3.66666667 12,3.66666667 L12,3.66666667 L18.9825,3.66666667 C19.0048987,3.66679897 19.0271581,3.66313604 19.0483333,3.65583333 L19.0483333,3.65583333 Z M9.5,3.66666667 C9.96023729,3.66666667 10.3333333,4.03976271 10.3333333,4.5 L10.3333333,4.5 L10.3333333,10.75 C10.3333333,11.2102373 9.96023729,11.5833333 9.5,11.5833333 L9.5,11.5833333 L2.83333333,11.5833333 C2.37309604,11.5833333 2,11.2102373 2,10.75 L2,10.75 L2,4.5 C2,4.03976271 2.37309604,3.66666667 2.83333333,3.66666667 L2.83333333,3.66666667 Z M18.0416667,5.33333333 L13.0416667,5.33333333 C12.9266073,5.33333333 12.8333333,5.42660734 12.8333333,5.54166667 L12.8333333,5.54166667 L12.8333333,9.70833333 C12.8333333,9.82339266 12.9266073,9.91666667 13.0416667,9.91666667 L13.0416667,9.91666667 L18.0416667,9.91666667 C18.156726,9.91666667 18.25,9.82339266 18.25,9.70833333 L18.25,9.70833333 L18.25,5.54166667 C18.25,5.42660734 18.156726,5.33333333 18.0416667,5.33333333 L18.0416667,5.33333333 Z M16.34,6.58333333 C16.4274241,6.58348664 16.505531,6.63799529 16.5358333,6.72 L16.5358333,6.72 L17.295,8.79166667 C17.3231022,8.85605688 17.3168583,8.93027412 17.2783929,8.98906399 C17.2399275,9.04785386 17.1744221,9.08329715 17.1041667,9.08333333 L17.1041667,9.08333333 L13.9791667,9.08333333 C13.9095648,9.08339023 13.844532,9.04868523 13.8058333,8.99083333 C13.7665943,8.93171068 13.7600057,8.85672614 13.7883333,8.79166667 L13.7883333,8.79166667 L14.5475,6.72 C14.5778023,6.63799529 14.6559092,6.58348664 14.7433333,6.58333333 L14.7433333,6.58333333 Z M4.08333333,7 C3.62309604,7 3.25,7.37309604 3.25,7.83333333 C3.25,8.29357062 3.62309604,8.66666667 4.08333333,8.66666667 C4.54357062,8.66666667 4.91666667,8.29357062 4.91666667,7.83333333 C4.91666667,7.37309604 4.54357062,7 4.08333333,7 Z" id="ðŸ–-Color" fill="#5A5A5A"></path>
        <rect id="_Transparent_Rectangle_" fill-opacity="0" fill="#D8D8D8" x="0" y="0.0782455328" width="24" height="24"></rect>
    </g>
</svg>