<?xml version="1.0" encoding="UTF-8"?>
<svg width="24px" height="24px" viewBox="0 0 24 24" version="1.1" xmlns="http://www.w3.org/2000/svg" xmlns:xlink="http://www.w3.org/1999/xlink">
    <title>3. Finance/saving_wallet_international</title>
    <g id="3.-Finance/saving_wallet_international" stroke="none" stroke-width="1" fill="none" fill-rule="evenodd">
        <path d="M17.6802183,11.6211345 C17.9714339,11.4539795 18.3161761,11.4201812 18.6322183,11.5278011 C18.9310473,11.6304809 19.1777751,11.8538617 19.3170183,12.1478011 L19.3170183,12.1478011 L20.5282183,14.6436345 C20.5506191,14.6895672 20.5672877,14.7382959 20.5778183,14.7886345 C20.5874409,14.8327672 20.6104411,14.8725033 20.6434183,14.9019678 C20.8609237,15.0951195 21.0238198,15.3463316 21.1146183,15.6286345 C21.1244151,15.6567376 21.1198996,15.6880956 21.1026183,15.7119678 C21.0865065,15.735338 21.060639,15.7492752 21.0330183,15.7494678 L21.0330183,15.7494678 L19.1130183,15.7494678 C17.8317177,15.7494678 16.7930183,16.8314463 16.7930183,18.1661345 C16.7930183,19.5008226 17.8317177,20.5828011 19.1130183,20.5828011 L19.1130183,20.5828011 L21.0330183,20.5828011 C21.0704131,20.5827866 21.1057628,20.6005794 21.1289898,20.6311071 C21.1522168,20.6616348 21.1607727,20.7015478 21.1522183,20.7394678 C20.9837221,21.4789868 20.3490771,22.0006808 19.6194183,21.9994757 L19.6194183,21.9994757 L13.5666183,21.9994757 C12.7011259,22.0022358 11.9969864,21.2743505 11.9930183,20.3728011 L11.9930183,20.3728011 L11.9930183,16.1386345 C11.9948276,15.3599212 12.524904,14.6911829 13.2586183,14.5419678 C13.2831099,14.5368441 13.3064523,14.5269485 13.3274183,14.5128011 L13.3274183,14.5128011 L17.6626183,11.6319678 Z M11.6367974,2.00936636 C16.6188386,1.79292452 20.9368545,5.57049807 21.5930183,10.7194678 C21.6303169,11.0171891 21.512303,11.3130226 21.2834314,11.4955307 C21.0545598,11.6780387 20.7496015,11.719494 20.4834314,11.6042807 C20.2172613,11.4890674 20.0303169,11.2346891 19.9930183,10.9369678 C19.880647,10.046399 19.6296199,9.18087582 19.2498183,8.37446781 C19.2164419,8.30305967 19.1468636,8.25776127 19.0706183,8.25780115 L19.0706183,8.25780115 L16.6706183,8.25780115 C16.6076669,8.25780115 16.5483892,8.28867493 16.5106183,8.34113448 C16.4723256,8.3910196 16.4584346,8.45659564 16.4730183,8.51863448 C16.638765,9.2458373 16.7434267,9.98668922 16.7858183,10.7328011 C16.7987235,10.9550478 16.7263093,11.1735264 16.584518,11.3401374 C16.4427268,11.5067483 16.2431832,11.6078322 16.0298183,11.6211345 L16.0298183,11.6211345 L15.9810183,11.6211345 C15.5564819,11.6192839 15.2063351,11.2742435 15.1810183,10.8328011 C15.1343219,10.0142637 15.0001599,9.20370118 14.7810183,8.41613448 C14.7561294,8.32724559 14.6779072,8.26613448 14.5890183,8.26613448 L14.5890183,8.26613448 L9.46901833,8.26613448 C9.38004023,8.26585499 9.30167462,8.32707812 9.27701833,8.41613448 C9.082307,9.11374468 8.95448166,9.82974744 8.89541833,10.5536345 C8.89070667,10.6118519 8.90967906,10.6694549 8.9477091,10.7123972 C8.98573914,10.7553394 9.0393317,10.7796743 9.09541833,10.7794678 L9.09541833,10.7794678 L12.0266183,10.7794678 C12.3203409,10.7698226 12.5958027,10.9275444 12.7454022,11.1910236 C12.8950017,11.4545029 12.8950017,11.7819328 12.7454022,12.045412 C12.5958027,12.3088913 12.3203409,12.4666131 12.0266183,12.4569678 L12.0266183,12.4569678 L9.11381833,12.4569678 C9.05717773,12.4566452 9.00308356,12.481455 8.96506607,12.5251916 C8.92704857,12.5689283 8.90870312,12.6274556 8.91461833,12.6861345 C9.00484928,13.5898103 9.18501752,14.4812678 9.45221833,15.3461345 C9.46085646,15.3734862 9.48537631,15.3919702 9.51301833,15.3919678 C9.83278535,15.3911245 10.122698,15.5875591 10.2515856,15.8923949 C10.3804731,16.1972308 10.3238826,16.5526334 10.1074183,16.7978011 C10.0537743,16.8592127 10.0402587,16.9479418 10.0730183,17.0236345 C10.211685,17.3464123 10.362885,17.6708567 10.5266183,17.9969678 C10.7275628,18.4058705 10.5755445,18.9070733 10.1855429,19.1214902 C9.79554125,19.3359072 9.3125222,19.1838382 9.10181833,18.7803011 C8.83621833,18.2553011 8.59941833,17.7297456 8.39141833,17.2036345 C8.36062621,17.1255579 8.28765029,17.0745511 8.20661833,17.0744678 L8.20661833,17.0744678 L6.03141833,17.0744678 C5.95383703,17.0744981 5.88327148,17.1212617 5.85036969,17.1944482 C5.8174679,17.2676346 5.82816629,17.3540391 5.87781833,17.4161345 C6.96585569,18.7684736 8.43831721,19.7256483 10.0826183,20.1494678 C10.513934,20.2617986 10.7766003,20.7165738 10.6698183,21.1661345 C10.579063,21.5381763 10.2575287,21.7986345 9.88901833,21.7986345 C9.82322445,21.7986345 9.75768653,21.790095 9.69381833,21.7736345 C5.4019385,20.661583 2.39198145,16.6430658 2.40020147,12.0361345 C2.40020147,11.8094678 2.41141833,11.5578011 2.41141833,11.5528011 C2.65370665,6.36479868 6.65475626,2.22580821 11.6367974,2.00936636 Z M21.0330183,16.5828011 C21.3422978,16.5828011 21.5930183,16.8439684 21.5930183,17.1661345 L21.5930183,17.1661345 L21.5930183,19.1661345 C21.5930183,19.4883006 21.3422978,19.7494678 21.0330183,19.7494678 L21.0330183,19.7494678 L19.1130183,19.7494678 C18.2735455,19.7494678 17.5930183,19.0405853 17.5930183,18.1661345 C17.5930183,17.2916836 18.2735455,16.5828011 19.1130183,16.5828011 L19.1130183,16.5828011 Z M19.3930183,17.4161345 C19.0616475,17.4161345 18.7930183,17.6959565 18.7930183,18.0411345 C18.7930183,18.3863124 19.0616475,18.6661345 19.3930183,18.6661345 C19.7243892,18.6661345 19.9930183,18.3863124 19.9930183,18.0411345 C19.9930183,17.6959565 19.7243892,17.4161345 19.3930183,17.4161345 Z M7.11301833,12.4594669 L4.22661833,12.4594669 C4.17083331,12.4592997 4.11751595,12.4834089 4.07953934,12.5259744 C4.04156272,12.5685398 4.02237842,12.6256929 4.02661833,12.6836345 C4.09140894,13.5723131 4.29235121,14.4444583 4.62181833,15.2669678 C4.65310783,15.3443908 4.72597495,15.3946643 4.80661833,15.3944684 L4.80661833,15.3944684 L7.52661833,15.3944684 C7.58956979,15.3944684 7.64884745,15.363594 7.68661833,15.3111345 C7.72494635,15.2602745 7.73799285,15.1935594 7.72181833,15.1311345 C7.5164779,14.3180918 7.3791642,13.4880422 7.31141833,12.6503011 C7.30308497,12.5425766 7.21676905,12.4595527 7.11301833,12.4594669 L7.11301833,12.4594669 Z M18.2188369,12.8080193 C18.1642185,12.7921271 18.105691,12.8011349 18.0578183,12.8328011 L18.0578183,12.8328011 L16.1250183,14.1278011 C16.0498339,14.1775686 16.0153105,14.2731335 16.0403456,14.3621857 C16.0653807,14.4512379 16.1439385,14.5123081 16.2330183,14.5119692 L16.2330183,14.5119692 L18.7938183,14.5119692 C18.8633239,14.5119692 18.9278448,14.4743756 18.9642269,14.412685 C19.0006091,14.3509943 19.0036349,14.2740514 18.9722183,14.2094678 L18.9722183,14.2094678 L18.3442183,12.9161345 C18.3190293,12.8632095 18.2734553,12.8239116 18.2188369,12.8080193 Z M7.40501833,8.25946669 L4.99301833,8.25946669 C4.91653931,8.25930838 4.84666901,8.30459469 4.81301833,8.37613448 C4.49326342,9.05852064 4.26473976,9.78331166 4.13381833,10.5303011 C4.12271654,10.5911192 4.13859394,10.653906 4.17701833,10.7011345 C4.21493015,10.7487292 4.27124696,10.7762277 4.33061833,10.7761351 L4.33061833,10.7761351 L7.09541833,10.7761351 C7.200334,10.7763895 7.28745568,10.6918336 7.29461833,10.5828011 C7.34212009,9.88637334 7.44432879,9.19517144 7.60021833,8.51613448 C7.61444534,8.45400044 7.60052196,8.38850187 7.5624433,8.3384326 C7.52436465,8.28836332 7.46633988,8.25925795 7.40501833,8.25946669 L7.40501833,8.25946669 Z M12.1274183,3.67696781 L11.9338183,3.67696781 C11.8768997,3.67763487 11.8229978,3.70373599 11.7858183,3.74863448 C11.1329955,4.52051637 10.5691586,5.36934823 10.1058183,6.27780115 C10.072872,6.34227209 10.0748904,6.42003823 10.1111329,6.48256061 C10.1473754,6.54508299 10.2125043,6.58315361 10.2826183,6.58280357 L10.2826183,6.58280357 L13.7778183,6.58280357 C13.8478824,6.58295923 13.9129172,6.54491422 13.9492534,6.48251254 C13.9855896,6.42011085 13.9879283,6.34245251 13.9554183,6.27780115 C13.491834,5.36950304 12.928016,4.52069976 12.2754183,3.74863448 C12.2381753,3.70382365 12.1843136,3.67774198 12.1274183,3.67696781 L12.1274183,3.67696781 Z M15.1554183,4.33946781 C15.0751721,4.3040281 14.9821333,4.32680333 14.9254401,4.39576483 C14.8687469,4.46472633 14.8614561,4.56399181 14.9074183,4.64113448 C15.254444,5.22147395 15.5585238,5.82850805 15.8170183,6.45696781 C15.8486856,6.53345837 15.9210502,6.58294682 16.0010183,6.58280147 L16.0010183,6.58280147 L17.6594183,6.58280147 C17.7396695,6.58263063 17.8120515,6.53250902 17.8432638,6.45549555 C17.874476,6.37848208 17.8584735,6.28949248 17.8026183,6.22946781 L17.8026183,6.22946781 C17.0473397,5.42281496 16.1486608,4.77993817 15.1554183,4.33946781 Z M9.14055246,4.38917471 C9.0840082,4.3205844 8.99144819,4.29781199 8.91141833,4.33280115 C7.91365177,4.77259378 7.01157161,5.4180301 6.25941833,6.23030115 C6.20332227,6.29011544 6.18717459,6.37915924 6.21845851,6.4561675 C6.24974243,6.53317575 6.32234417,6.58309882 6.40261833,6.58280247 L6.40261833,6.58280247 L8.07301833,6.58280247 C8.15159373,6.58151339 8.22209897,6.53222501 8.25301833,6.45696781 C8.51113095,5.82652114 8.81410779,5.21704655 9.15941833,4.63363448 C9.20471768,4.5565159 9.19709671,4.45776502 9.14055246,4.38917471 Z" id="ðŸ–-Color" fill="#5A5A5A"></path>
        <rect id="_Transparent_Rectangle_" fill-opacity="0" fill="#D8D8D8" x="0" y="0" width="24" height="24"></rect>
    </g>
</svg>