<svg width="24" height="24" viewBox="0 0 24 24" fill="none" xmlns="http://www.w3.org/2000/svg">
<g id="saving_wallet_international">
<path id="Shape" fill-rule="evenodd" clip-rule="evenodd" d="M10.0828 20.1495C10.5141 20.2618 10.7768 20.7166 10.67 21.1661C10.5793 21.5382 10.2577 21.7986 9.88921 21.7986C9.82341 21.7985 9.75788 21.7901 9.69401 21.7736C5.40213 20.6616 2.39217 16.6431 2.40041 12.0361C2.40041 11.8388 2.4089 11.6225 2.41109 11.5665L2.41161 11.5528C2.6539 6.3648 6.65495 2.22581 11.637 2.00937C16.619 1.79293 20.937 5.5705 21.5932 10.7195C21.6305 11.0172 21.5125 11.313 21.2836 11.4955C21.0547 11.678 20.7498 11.7195 20.4836 11.6043C20.2174 11.4891 20.0305 11.2347 19.9932 10.937C19.8808 10.0464 19.6298 9.18088 19.25 8.37447C19.2166 8.30306 19.1471 8.25776 19.0708 8.2578H16.6708C16.6079 8.2578 16.5486 8.28868 16.5108 8.34114C16.4725 8.39102 16.4586 8.4566 16.4732 8.51864C16.639 9.24584 16.7436 9.98669 16.786 10.7328C16.7989 10.955 16.7265 11.1735 16.5847 11.3401C16.4429 11.5068 16.2434 11.6078 16.03 11.6211H15.9812C15.5567 11.6193 15.2065 11.2742 15.1812 10.8328C15.1345 10.0143 15.0003 9.2037 14.7812 8.41614C14.7563 8.32725 14.6781 8.26614 14.5892 8.26614H9.46921C9.38023 8.26586 9.30186 8.32708 9.27721 8.41614C9.0825 9.11375 8.95467 9.82975 8.89561 10.5536C8.8909 10.6119 8.90987 10.6695 8.9479 10.7124C8.98593 10.7553 9.03952 10.7797 9.09561 10.7795H12.0268C12.3205 10.7698 12.596 10.9275 12.7456 11.191C12.8952 11.4545 12.8952 11.7819 12.7456 12.0454C12.596 12.3089 12.3205 12.4666 12.0268 12.457H9.11401C9.05737 12.4566 9.00327 12.4815 8.96526 12.5252C8.92724 12.5689 8.90889 12.6275 8.91481 12.6861C9.00504 13.5898 9.18521 14.4813 9.45241 15.3461C9.46105 15.3735 9.48557 15.392 9.51321 15.392C9.83297 15.3911 10.1229 15.5876 10.2518 15.8924C10.3807 16.1972 10.3241 16.5526 10.1076 16.7978C10.054 16.8592 10.0404 16.9479 10.0732 17.0236C10.2119 17.3464 10.3631 17.6709 10.5268 17.997C10.7278 18.4059 10.5757 18.9071 10.1857 19.1215C9.79573 19.3359 9.31271 19.1838 9.10201 18.7803C8.83641 18.2553 8.59961 17.7297 8.39161 17.2036C8.36082 17.1256 8.28784 17.0746 8.20681 17.0745H6.03161C5.95403 17.0745 5.88346 17.1213 5.85056 17.1945C5.81766 17.2676 5.82836 17.354 5.87801 17.4161C6.96604 18.7685 8.43851 19.7257 10.0828 20.1495ZM7.68681 15.3111C7.72514 15.2603 7.73818 15.1936 7.72201 15.1311C7.51667 14.3181 7.37935 13.488 7.31161 12.6503C7.30327 12.5426 7.21696 12.4596 7.11321 12.4595H4.22681C4.17102 12.4593 4.11771 12.4834 4.07973 12.526C4.04175 12.5685 4.02257 12.6257 4.02681 12.6836C4.0916 13.5723 4.29254 14.4445 4.62201 15.267C4.6533 15.3444 4.72616 15.3947 4.80681 15.3945H7.52681C7.58976 15.3945 7.64904 15.3636 7.68681 15.3111ZM7.29481 10.5828C7.28764 10.6918 7.20052 10.7764 7.09561 10.7761H4.33081C4.27144 10.7762 4.21512 10.7487 4.17721 10.7011C4.13878 10.6539 4.12291 10.5911 4.13401 10.5303C4.26493 9.78331 4.49345 9.05852 4.81321 8.37614C4.84686 8.3046 4.91673 8.25931 4.99321 8.25947H7.40521C7.46653 8.25926 7.52455 8.28837 7.56263 8.33844C7.60071 8.3885 7.61463 8.454 7.60041 8.51614C7.44452 9.19517 7.34231 9.88638 7.29481 10.5828ZM10.1113 6.48256C10.1476 6.54509 10.2127 6.58316 10.2828 6.5828H13.778C13.8481 6.58296 13.9131 6.54492 13.9494 6.48251C13.9858 6.42011 13.9881 6.34245 13.9556 6.2778C13.492 5.36951 12.9282 4.5207 12.2756 3.74864C12.2384 3.70383 12.1845 3.67774 12.1276 3.67697H11.934C11.8771 3.67764 11.8232 3.70374 11.786 3.74864C11.1332 4.52052 10.5693 5.36935 10.106 6.2778C10.0731 6.34227 10.0751 6.42004 10.1113 6.48256ZM17.8028 6.22947C17.8587 6.28949 17.8747 6.37848 17.8435 6.4555C17.8122 6.53251 17.7399 6.58263 17.6596 6.5828H16.0012C15.9212 6.58295 15.8489 6.53346 15.8172 6.45697C15.5587 5.82851 15.2546 5.22148 14.9076 4.64114C14.8616 4.56399 14.8689 4.46473 14.9256 4.39577C14.9823 4.32681 15.0754 4.30403 15.1556 4.33947C16.1489 4.77994 17.0475 5.42282 17.7988 6.2303L17.8028 6.22947ZM9.14074 4.38918C9.0842 4.32059 8.99164 4.29781 8.91161 4.3328C7.91384 4.7726 7.01176 5.41803 6.25961 6.2303C6.20351 6.29012 6.18736 6.37916 6.21865 6.45617C6.24993 6.53318 6.32253 6.5831 6.40281 6.5828H8.07321C8.15178 6.58152 8.22229 6.53223 8.25321 6.45697C8.51132 5.82652 8.8143 5.21705 9.15961 4.63364C9.20491 4.55652 9.19729 4.45777 9.14074 4.38918ZM16.7932 18.1661C16.7932 19.5008 17.8319 20.5828 19.1132 20.5828H21.0332C21.0706 20.5828 21.106 20.6006 21.1292 20.6311C21.1524 20.6616 21.161 20.7015 21.1524 20.7395C20.9839 21.479 20.3493 22.0007 19.6196 21.9995H13.5668C12.7013 22.0022 11.9972 21.2744 11.9932 20.3728V16.1386C11.995 15.3599 12.5251 14.6912 13.2588 14.542C13.2833 14.5368 13.3066 14.527 13.3276 14.5128L17.6628 11.632L17.6804 11.6211C17.9716 11.454 18.3164 11.4202 18.6324 11.5278C18.9312 11.6305 19.178 11.8539 19.3172 12.1478L20.5284 14.6436C20.5508 14.6896 20.5675 14.7383 20.578 14.7886C20.5876 14.8328 20.6106 14.8725 20.6436 14.902C20.8611 15.0951 21.024 15.3463 21.1148 15.6286C21.1246 15.6567 21.1201 15.6881 21.1028 15.712C21.0867 15.7353 21.0608 15.7493 21.0332 15.7495H19.1132C17.8319 15.7495 16.7932 16.8314 16.7932 18.1661ZM18.219 12.808C18.1644 12.7921 18.1059 12.8011 18.058 12.8328L16.1252 14.1278C16.05 14.1776 16.0155 14.2731 16.0405 14.3622C16.0656 14.4512 16.1441 14.5123 16.2332 14.512H18.794C18.8635 14.512 18.928 14.4744 18.9644 14.4127C19.0008 14.351 19.0038 14.2741 18.9724 14.2095L18.3444 12.9161C18.3192 12.8632 18.2736 12.8239 18.219 12.808ZM21.5932 17.1661C21.5932 16.844 21.3425 16.5828 21.0332 16.5828H19.1132C18.2737 16.5828 17.5932 17.2917 17.5932 18.1661C17.5932 19.0406 18.2737 19.7495 19.1132 19.7495H21.0332C21.3425 19.7495 21.5932 19.4883 21.5932 19.1661V17.1661ZM19.3932 18.6661C19.0618 18.6661 18.7932 18.3863 18.7932 18.0411C18.7932 17.696 19.0618 17.4161 19.3932 17.4161C19.7246 17.4161 19.9932 17.696 19.9932 18.0411C19.9932 18.3863 19.7246 18.6661 19.3932 18.6661Z" fill="#5A5A5A"/>
</g>
</svg>
