<svg width="24" height="24" viewBox="0 0 24 24" fill="none" xmlns="http://www.w3.org/2000/svg">
<g id="saving_piggy_coins">
<path id="Shape" fill-rule="evenodd" clip-rule="evenodd" d="M20.6399 9.08299H20.2599C20.1633 9.08354 20.0792 9.0171 20.0574 8.92299C19.6228 7.22608 18.5631 5.75599 17.0907 4.80716C17.0136 4.75582 16.9796 4.65972 17.0074 4.57132C17.1375 4.17045 17.3668 3.80898 17.674 3.52049C17.8944 3.31227 17.9844 3.00077 17.9088 2.70711C17.8333 2.41346 17.6042 2.18401 17.3107 2.10799C16.0042 1.76768 14.6216 2.25028 13.8107 3.32966C13.7634 3.39243 13.6847 3.42308 13.6074 3.40882C10.9939 2.9079 8.2911 3.54941 6.18153 5.17132C4.96036 6.11186 4.095 7.43942 3.72736 8.93632C3.71321 9.00175 3.73149 9.06999 3.77645 9.11958C3.82141 9.16917 3.88753 9.19402 3.95403 9.18632C4.72555 9.10699 5.50102 9.07248 6.27653 9.08299C7.7582 9.08299 11.6932 9.08299 11.6932 11.1663V17.203C11.6932 17.3177 11.786 17.4109 11.9007 17.4113C12.8176 17.4145 13.7299 17.2808 14.6074 17.0147C14.6605 16.9988 14.7178 17.0048 14.7665 17.0313C14.815 17.0582 14.8509 17.1031 14.8665 17.1563L15.2724 18.5597C15.427 19.094 15.9161 19.4618 16.4724 19.4622C16.5903 19.4623 16.7076 19.4454 16.8207 19.4122C17.4832 19.2199 17.8647 18.5274 17.6732 17.8647L17.1332 15.9997C17.1082 15.9145 17.14 15.8228 17.2124 15.7713C18.1217 15.1423 18.8774 14.3163 19.4232 13.3547C19.46 13.2884 19.5299 13.2473 19.6057 13.2472H20.6399C21.3302 13.2472 21.8899 12.6875 21.8899 11.9972V10.333C21.8899 9.64263 21.3302 9.08299 20.6399 9.08299ZM16.0565 9.08299C16.0565 8.62275 16.4296 8.24966 16.8899 8.24966C17.3501 8.24966 17.7232 8.62275 17.7232 9.08299C17.7232 9.54323 17.3501 9.91632 16.8899 9.91632C16.4296 9.91632 16.0565 9.54323 16.0565 9.08299ZM7.63986 7.37549C7.84748 7.65093 8.23882 7.70647 8.51486 7.49966C9.59233 6.69467 10.922 6.30129 12.264 6.39049C12.607 6.40697 12.9015 6.14925 12.9307 5.80716C12.9421 5.64131 12.887 5.47774 12.7775 5.35263C12.6681 5.22752 12.5133 5.15118 12.3474 5.14049C10.7059 5.02783 9.07874 5.51034 7.76403 6.49966C7.63131 6.59925 7.54364 6.74754 7.52035 6.91183C7.49706 7.07612 7.54006 7.24293 7.63986 7.37549ZM10.3332 15.078C10.4013 15.0417 10.4439 14.971 10.444 14.8938V12.9163C10.4441 12.8487 10.4113 12.7853 10.3562 12.7462C10.301 12.7071 10.2303 12.6972 10.1665 12.7197C8.90425 13.0911 7.59299 13.2692 6.27736 13.248C4.96201 13.2692 3.65104 13.0911 2.38903 12.7197C2.32517 12.6973 2.25442 12.7072 2.19916 12.7462C2.14389 12.7853 2.11093 12.8487 2.1107 12.9163V14.8947C2.11109 14.9722 2.15397 15.0432 2.22236 15.0797C3.5121 15.5846 4.89385 15.8118 6.27736 15.7463C7.6614 15.8137 9.04394 15.5858 10.3332 15.078ZM2.3882 19.388C3.6502 19.7594 4.96118 19.9375 6.27653 19.9163C7.59224 19.937 8.9035 19.7583 10.1657 19.3863C10.2295 19.3639 10.3002 19.3738 10.3553 19.4129C10.4105 19.452 10.4432 19.5154 10.4432 19.583V21.1663C10.4432 21.628 8.57736 21.9997 6.27653 21.9997C3.9757 21.9997 2.10986 21.628 2.10986 21.1663V19.5847C2.1101 19.517 2.14306 19.4536 2.19833 19.4146C2.25359 19.3755 2.32433 19.3656 2.3882 19.388ZM2.10986 11.1663V11.563C2.11025 11.6405 2.15313 11.7115 2.22153 11.748C3.51127 12.2529 4.89302 12.4801 6.27653 12.4147C7.66097 12.4816 9.0438 12.2532 10.3332 11.7447C10.4013 11.7084 10.4439 11.6376 10.444 11.5605V11.1663C10.444 10.7072 8.57903 10.333 6.27736 10.333C3.9757 10.333 2.10986 10.7072 2.10986 11.1663ZM10.3553 16.0795C10.4105 16.1186 10.4432 16.1821 10.4432 16.2497L10.444 18.2272C10.4439 18.3043 10.4013 18.3751 10.3332 18.4113C9.04368 18.9193 7.66085 19.1471 6.27653 19.0797C4.89302 19.1451 3.51127 18.9179 2.22153 18.413C2.15313 18.3765 2.11025 18.3055 2.10986 18.228V16.2497C2.1101 16.182 2.14306 16.1186 2.19833 16.0796C2.25359 16.0405 2.32433 16.0306 2.3882 16.053C3.6502 16.4244 4.96118 16.6025 6.27653 16.5813C7.59216 16.6026 8.90342 16.4244 10.1657 16.053C10.2295 16.0305 10.3002 16.0404 10.3553 16.0795Z" fill="#5A5A5A"/>
</g>
</svg>
