<?xml version="1.0" encoding="UTF-8"?>
<svg width="24px" height="24px" viewBox="0 0 24 24" version="1.1" xmlns="http://www.w3.org/2000/svg" xmlns:xlink="http://www.w3.org/1999/xlink">
    <title>3. Finance/saving_bank_1</title>
    <g id="3.-Finance/saving_bank_1" stroke="none" stroke-width="1" fill="none" fill-rule="evenodd">
        <path d="M19.9166667,18.6666667 C20.0560284,18.6667387 20.1861269,18.736479 20.2633333,18.8525 L20.2633333,18.8525 L21.93,21.3525 C22.0150741,21.4803439 22.0229326,21.6446194 21.9504506,21.7800005 C21.8779686,21.9153815 21.7368965,21.9999207 21.5833333,22 L21.5833333,22 L2.41666667,22 C2.26310345,21.9999207 2.1220314,21.9153815 2.0495494,21.7800005 C1.9770674,21.6446194 1.98492595,21.4803439 2.07,21.3525 L2.07,21.3525 L3.73666667,18.8525 C3.81387306,18.736479 3.94397159,18.6667387 4.08333333,18.6666667 L4.08333333,18.6666667 Z M7.83333333,10.3333333 C8.29357062,10.3333333 8.66666667,10.7064294 8.66666667,11.1666667 C8.66666667,11.626904 8.29357062,12 7.83333333,12 L7.83333333,12 L7.625,12 C7.56967862,11.9997774 7.51655877,12.0216552 7.47744033,12.0607737 C7.43832189,12.0998921 7.41644404,12.153012 7.41666667,12.2083333 L7.41666667,12.2083333 L7.41666667,15.5416667 C7.41666667,15.656726 7.50994068,15.75 7.625,15.75 L7.625,15.75 L7.83333333,15.75 C8.29357062,15.75 8.66666667,16.123096 8.66666667,16.5833333 C8.66666667,17.0435706 8.29357062,17.4166667 7.83333333,17.4166667 L7.83333333,17.4166667 L4.5,17.4166667 C4.03976271,17.4166667 3.66666667,17.0435706 3.66666667,16.5833333 C3.66666667,16.123096 4.03976271,15.75 4.5,15.75 L4.5,15.75 L4.70833333,15.75 C4.82339266,15.75 4.91666667,15.656726 4.91666667,15.5416667 L4.91666667,15.5416667 L4.91666667,12.2083333 C4.91688929,12.153012 4.89501145,12.0998921 4.855893,12.0607737 C4.81677456,12.0216552 4.76365472,11.9997774 4.70833333,12 L4.70833333,12 L4.5,12 C4.03976271,12 3.66666667,11.626904 3.66666667,11.1666667 C3.66666667,10.7064294 4.03976271,10.3333333 4.5,10.3333333 L4.5,10.3333333 Z M13.6666667,10.3333333 C14.126904,10.3333333 14.5,10.7064294 14.5,11.1666667 C14.5,11.626904 14.126904,12 13.6666667,12 L13.6666667,12 L13.4583333,12 C13.403012,11.9997774 13.3498921,12.0216552 13.3107737,12.0607737 C13.2716552,12.0998921 13.2497774,12.153012 13.25,12.2083333 L13.25,12.2083333 L13.25,15.5416667 C13.25,15.656726 13.343274,15.75 13.4583333,15.75 L13.4583333,15.75 L13.6666667,15.75 C14.126904,15.75 14.5,16.123096 14.5,16.5833333 C14.5,17.0435706 14.126904,17.4166667 13.6666667,17.4166667 L13.6666667,17.4166667 L10.3333333,17.4166667 C9.87309604,17.4166667 9.5,17.0435706 9.5,16.5833333 C9.5,16.123096 9.87309604,15.75 10.3333333,15.75 L10.3333333,15.75 L10.5416667,15.75 C10.656726,15.75 10.75,15.656726 10.75,15.5416667 L10.75,15.5416667 L10.75,12.2083333 C10.7502226,12.153012 10.7283448,12.0998921 10.6892263,12.0607737 C10.6501079,12.0216552 10.596988,11.9997774 10.5416667,12 L10.5416667,12 L10.3333333,12 C9.87309604,12 9.5,11.626904 9.5,11.1666667 C9.5,10.7064294 9.87309604,10.3333333 10.3333333,10.3333333 L10.3333333,10.3333333 Z M19.9166667,10.3333333 C20.376904,10.3333333 20.75,10.7064294 20.75,11.1666667 C20.75,11.626904 20.376904,12 19.9166667,12 L19.9166667,12 L19.7083333,12 C19.653012,11.9997774 19.5998921,12.0216552 19.5607737,12.0607737 C19.5216552,12.0998921 19.4997774,12.153012 19.5,12.2083333 L19.5,12.2083333 L19.5,15.5416667 C19.5,15.656726 19.593274,15.75 19.7083333,15.75 L19.7083333,15.75 L19.9166667,15.75 C20.376904,15.75 20.75,16.123096 20.75,16.5833333 C20.75,17.0435706 20.376904,17.4166667 19.9166667,17.4166667 L19.9166667,17.4166667 L16.5833333,17.4166667 C16.123096,17.4166667 15.75,17.0435706 15.75,16.5833333 C15.75,16.123096 16.123096,15.75 16.5833333,15.75 L16.5833333,15.75 L16.7916667,15.75 C16.906726,15.75 17,15.656726 17,15.5416667 L17,15.5416667 L17,12.2083333 C17.0002226,12.153012 16.9783448,12.0998921 16.9392263,12.0607737 C16.9001079,12.0216552 16.846988,11.9997774 16.7916667,12 L16.7916667,12 L16.5833333,12 C16.123096,12 15.75,11.626904 15.75,11.1666667 C15.75,10.7064294 16.123096,10.3333333 16.5833333,10.3333333 L16.5833333,10.3333333 Z M11.9475,2.145 C12.2540776,1.94767438 12.6497569,1.95624743 12.9475,2.16666667 L12.9475,2.16666667 L20.5608333,7.70916667 C20.8477778,7.90933748 20.9543468,8.28372209 20.8158333,8.605 C20.6756694,8.90286637 20.3732893,9.09030286 20.0441667,9.08333333 L20.0441667,9.08333333 L4.04416667,9.08333333 C3.70723892,9.08953753 3.39973683,8.89220999 3.265,8.58333333 C3.13463565,8.25303606 3.25785666,7.87672189 3.55833333,7.6875 L3.55833333,7.6875 Z" id="ðŸ–-Color" fill="#5A5A5A"></path>
        <rect id="_Transparent_Rectangle_" fill-opacity="0" fill="#D8D8D8" x="0" y="0" width="24" height="24"></rect>
    </g>
</svg>