<?xml version="1.0" encoding="UTF-8"?>
<svg width="24px" height="24px" viewBox="0 0 24 24" version="1.1" xmlns="http://www.w3.org/2000/svg" xmlns:xlink="http://www.w3.org/1999/xlink">
    <title>3. Finance/saving_safe</title>
    <g id="3.-Finance/saving_safe" stroke="none" stroke-width="1" fill="none" fill-rule="evenodd">
        <path d="M19.9166667,2 C21.0457594,1.98048318 21.9776569,2.87845961 22,4.0075 L22,4.0075 L22,18.3258333 C21.9938056,19.0890052 21.5538171,19.7821244 20.8658333,20.1125 C20.7948875,20.1476552 20.7500021,20.2199884 20.75,20.2991667 L20.75,20.2991667 L20.75,21.1666667 C20.75,21.626904 20.376904,22 19.9166667,22 C19.4564294,22 19.0833333,21.626904 19.0833333,21.1666667 L19.0833333,21.1666667 L19.0833333,20.5416667 C19.0833333,20.4266073 18.9900593,20.3333333 18.875,20.3333333 L18.875,20.3333333 L5.125,20.3333333 C5.00994068,20.3333333 4.91666667,20.4266073 4.91666667,20.5416667 L4.91666667,20.5416667 L4.91666667,21.1666667 C4.91666667,21.626904 4.54357062,22 4.08333333,22 C3.62309604,22 3.25,21.626904 3.25,21.1666667 L3.25,21.1666667 L3.25,20.2991667 C3.24999788,20.2199884 3.20511255,20.1476552 3.13416667,20.1125 C2.4461829,19.7821244 2.00619444,19.0890052 2,18.3258333 L2,18.3258333 L2,4.0075 C2.02234306,2.87845961 2.95424056,1.98048318 4.08333333,2 L4.08333333,2 Z M12,4.5 C8.31810167,4.5 5.33333333,7.48476833 5.33333333,11.1666667 C5.33333333,14.848565 8.31810167,17.8333333 12,17.8333333 C15.6818983,17.8333333 18.6666667,14.848565 18.6666667,11.1666667 C18.6625334,7.48648174 15.6801849,4.50413324 12,4.5 Z M13.345,13.6108333 C13.4267743,13.5652307 13.528893,13.5795273 13.595,13.6458333 L13.595,13.6458333 L14.8883333,14.9441667 C14.9325423,14.9877684 14.9546065,15.049058 14.9483333,15.1108333 C14.9438787,15.1713148 14.9134947,15.2269175 14.865,15.2633333 C13.1452645,16.4689953 10.8547355,16.4689953 9.135,15.2633333 C9.08444593,15.2280701 9.05210193,15.1722309 9.04666667,15.1108333 C9.04111077,15.0491481 9.06306788,14.9881562 9.10666667,14.9441667 L9.10666667,14.9441667 L10.4016667,13.6458333 C10.4676397,13.5792594 10.5699477,13.5649363 10.6516667,13.6108333 C11.4896747,14.0741258 12.506992,14.0741258 13.345,13.6108333 Z M15.9433333,8.22 C16.0039431,8.22401687 16.0597166,8.25449424 16.0958333,8.30333333 C17.302418,10.0236939 17.302418,12.3154727 16.0958333,14.0358333 C16.0602439,14.0859002 16.0045174,14.1178743 15.9433333,14.1233333 C15.8816032,14.1292427 15.8204655,14.1072331 15.7766667,14.0633333 L15.7766667,14.0633333 L14.465,12.7508333 C14.4072258,12.6929901 14.3949682,12.6037822 14.435,12.5325 C14.9073004,11.6914495 14.9107683,10.665892 14.4441667,9.82166667 C14.3976705,9.74006156 14.4120479,9.63736568 14.4791667,9.57166667 L14.4791667,9.57166667 L15.7766667,8.28 C15.8205933,8.23630178 15.8816332,8.21432742 15.9433333,8.22 Z M8.05735376,8.21323585 C8.11857152,8.20793352 8.17900772,8.22992653 8.2225,8.27333333 L8.2225,8.27333333 L9.52083333,9.5675 C9.58767818,9.63333706 9.60202823,9.73583737 9.55583333,9.8175 C9.09256036,10.6561055 9.09256036,11.6738945 9.55583333,12.5125 C9.60173041,12.594219 9.58740729,12.6965269 9.52083333,12.7625 L9.52083333,12.7625 L8.22416667,14.0608333 C8.18005347,14.1042359 8.1191554,14.1261592 8.0575,14.1208333 C7.99606669,14.115511 7.94018302,14.0831412 7.905,14.0325 C6.69831282,12.3124772 6.69831282,10.0208561 7.905,8.30083333 C7.94038128,8.25059497 7.996136,8.21853817 8.05735376,8.21323585 Z M12,9.625 C12.851439,9.625 13.5416667,10.3152277 13.5416667,11.1666667 C13.5416667,12.0181057 12.851439,12.7083333 12,12.7083333 C11.148561,12.7083333 10.4583333,12.0181057 10.4583333,11.1666667 C10.4583333,10.3152277 11.148561,9.625 12,9.625 Z M9.1375,7.07166667 C10.8575228,5.86497949 13.1491439,5.86497949 14.8691667,7.07166667 C14.919405,7.10704795 14.9514618,7.16280267 14.9567642,7.22402043 C14.9620665,7.28523819 14.9400735,7.34567438 14.8966667,7.38916667 L14.8966667,7.38916667 L13.5991667,8.6875 C13.5331936,8.75407396 13.4308857,8.76839707 13.3491667,8.7225 C12.5105611,8.25922702 11.4927722,8.25922702 10.6541667,8.7225 C10.5724477,8.76839707 10.4701397,8.75407396 10.4041667,8.6875 L10.4041667,8.6875 L9.11,7.38916667 C9.0665932,7.34567438 9.04460019,7.28523819 9.04990251,7.22402043 C9.05520484,7.16280267 9.08726163,7.10704795 9.1375,7.07166667 Z" id="ðŸ–-Color" fill="#5A5A5A"></path>
        <rect id="_Transparent_Rectangle_" fill-opacity="0" fill="#D8D8D8" x="0" y="0.0782455328" width="24" height="24"></rect>
    </g>
</svg>