<svg width="24" height="24" viewBox="0 0 24 24" fill="none" xmlns="http://www.w3.org/2000/svg">
<g id="saving_bank_drawer">
<path id="Shape" fill-rule="evenodd" clip-rule="evenodd" d="M22 3.25C21.9999 3.11614 21.9355 2.99048 21.8269 2.91224C21.7183 2.83399 21.5787 2.8127 21.4517 2.855L19.0483 3.65583C19.0272 3.66314 19.0049 3.6668 18.9825 3.66667H12C11.5398 3.66667 11.1667 4.03976 11.1667 4.5V10.75C11.1667 11.2102 11.5398 11.5833 12 11.5833H18.9825C19.0049 11.5836 19.0271 11.5873 19.0483 11.5942L21.4517 12.395C21.5787 12.4373 21.7183 12.416 21.8269 12.3378C21.9355 12.2595 21.9999 12.1339 22 12V3.25ZM18.25 9.70833C18.25 9.82339 18.1567 9.91667 18.0417 9.91667H13.0417C12.9266 9.91667 12.8333 9.82339 12.8333 9.70833V5.54167C12.8333 5.42661 12.9266 5.33333 13.0417 5.33333H18.0417C18.1567 5.33333 18.25 5.42661 18.25 5.54167V9.70833ZM9.5 3.66667H2.83333C2.3731 3.66667 2 4.03976 2 4.5V10.75C2 11.2102 2.3731 11.5833 2.83333 11.5833H9.5C9.96024 11.5833 10.3333 11.2102 10.3333 10.75V4.5C10.3333 4.03976 9.96024 3.66667 9.5 3.66667ZM4.08333 8.66667C3.6231 8.66667 3.25 8.29357 3.25 7.83333C3.25 7.3731 3.6231 7 4.08333 7C4.54357 7 4.91667 7.3731 4.91667 7.83333C4.91667 8.29357 4.54357 8.66667 4.08333 8.66667ZM2.83333 12.8333H9.5C9.96024 12.8333 10.3333 13.2064 10.3333 13.6667V20.3333C10.3333 20.7936 9.96024 21.1667 9.5 21.1667H2.83333C2.3731 21.1667 2 20.7936 2 20.3333V13.6667C2 13.2064 2.3731 12.8333 2.83333 12.8333ZM3.25 17.4167C3.25 17.8769 3.6231 18.25 4.08333 18.25C4.54357 18.25 4.91667 17.8769 4.91667 17.4167C4.91667 16.9564 4.54357 16.5833 4.08333 16.5833C3.6231 16.5833 3.25 16.9564 3.25 17.4167ZM12 12.8333H18.6667C19.1269 12.8333 19.5 13.2064 19.5 13.6667V20.3333C19.5 20.7936 19.1269 21.1667 18.6667 21.1667H12C11.5398 21.1667 11.1667 20.7936 11.1667 20.3333V13.6667C11.1667 13.2064 11.5398 12.8333 12 12.8333ZM12.8333 17.4167C12.8333 17.8769 13.2064 18.25 13.6667 18.25C14.1269 18.25 14.5 17.8769 14.5 17.4167C14.5 16.9564 14.1269 16.5833 13.6667 16.5833C13.2064 16.5833 12.8333 16.9564 12.8333 17.4167ZM13.8058 8.99083C13.8445 9.04869 13.9096 9.08339 13.9792 9.08333H17.1042C17.1744 9.0833 17.2399 9.04785 17.2784 8.98906C17.3169 8.93027 17.3231 8.85606 17.295 8.79167L16.5358 6.72C16.5055 6.638 16.4274 6.58349 16.34 6.58333H14.7433C14.6559 6.58349 14.5778 6.638 14.5475 6.72L13.7883 8.79167C13.76 8.85673 13.7666 8.93171 13.8058 8.99083Z" fill="#5A5A5A"/>
</g>
</svg>
