<?xml version="1.0" encoding="UTF-8"?>
<svg width="24px" height="24px" viewBox="0 0 24 24" version="1.1" xmlns="http://www.w3.org/2000/svg" xmlns:xlink="http://www.w3.org/1999/xlink">
    <title>3. Finance/saving_safe_1</title>
    <g id="3.-Finance/saving_safe_1" stroke="none" stroke-width="1" fill="none" fill-rule="evenodd">
        <path d="M20.75,2.83333333 C21.4403559,2.83333333 22,3.3929774 22,4.08333333 L22,4.08333333 L22,19.0833333 C22,19.7736893 21.4403559,20.3333333 20.75,20.3333333 L20.75,20.3333333 L20.125,20.3333333 C20.0099407,20.3333333 19.9166667,20.4266073 19.9166667,20.5416667 L19.9166667,20.5416667 L19.9166667,20.75 C19.9166667,20.9801186 19.7301186,21.1666667 19.5,21.1666667 L19.5,21.1666667 L18.25,21.1666667 C18.0198814,21.1666667 17.8333333,20.9801186 17.8333333,20.75 L17.8333333,20.75 L17.8333333,20.5416667 C17.8333333,20.4266073 17.7400593,20.3333333 17.625,20.3333333 L17.625,20.3333333 L6.375,20.3333333 C6.25994068,20.3333333 6.16666667,20.4266073 6.16666667,20.5416667 L6.16666667,20.5416667 L6.16666667,20.75 C6.16666667,20.9801186 5.98011865,21.1666667 5.75,21.1666667 L5.75,21.1666667 L4.5,21.1666667 C4.26988135,21.1666667 4.08333333,20.9801186 4.08333333,20.75 L4.08333333,20.75 L4.08333333,20.5416667 C4.08333333,20.4266073 3.99005932,20.3333333 3.875,20.3333333 L3.875,20.3333333 L3.25,20.3333333 C2.55964406,20.3333333 2,19.7736893 2,19.0833333 L2,19.0833333 L2,4.08333333 C2,3.3929774 2.55964406,2.83333333 3.25,2.83333333 L3.25,2.83333333 Z M19.0833333,5.125 L5.75,5.125 C4.94496549,5.12591847 4.29258513,5.77829882 4.29166667,6.58333333 L4.29166667,6.58333333 L4.29166667,16.5833333 C4.29258513,17.3883678 4.94496549,18.0407482 5.75,18.0416667 L5.75,18.0416667 L19.0833333,18.0416667 C19.8883678,18.0407482 20.5407482,17.3883678 20.5416667,16.5833333 L20.5416667,16.5833333 L20.5416667,6.58333333 C20.5407482,5.77829882 19.8883678,5.12591847 19.0833333,5.125 L19.0833333,5.125 Z M19.0833333,6.375 C19.1978289,6.37634979 19.2903169,6.46883777 19.2916667,6.58333333 L19.2916667,6.58333333 L19.2916667,16.5833333 C19.2903169,16.6978289 19.1978289,16.7903169 19.0833333,16.7916667 L19.0833333,16.7916667 L5.75,16.7916667 C5.63550444,16.7903169 5.54301646,16.6978289 5.54166667,16.5833333 L5.54166667,16.5833333 L5.54166667,6.58333333 C5.54301646,6.46883777 5.63550444,6.37634979 5.75,6.375 L5.75,6.375 Z M14.5,13.6666667 C14.0397627,13.6666667 13.6666667,14.0397627 13.6666667,14.5 C13.6666667,14.9602373 14.0397627,15.3333333 14.5,15.3333333 C14.9602373,15.3333333 15.3333333,14.9602373 15.3333333,14.5 C15.3333333,14.0397627 14.9602373,13.6666667 14.5,13.6666667 Z M17,13.6666667 C16.5397627,13.6666667 16.1666667,14.0397627 16.1666667,14.5 C16.1666667,14.9602373 16.5397627,15.3333333 17,15.3333333 C17.4602373,15.3333333 17.8333333,14.9602373 17.8333333,14.5 C17.8333333,14.0397627 17.4602373,13.6666667 17,13.6666667 Z M16.668709,7.81112826 C15.7309621,7.4276844 14.6545104,7.64810024 13.9429437,8.36925999 C13.231377,9.09041973 13.0253955,10.1697265 13.4213621,11.1022547 C13.8173287,12.034783 14.736948,12.6361413 15.75,12.625 C16.4105193,12.6217007 17.0425479,12.3555671 17.5064737,11.8853868 C17.9703995,11.4152066 18.2280459,10.7796709 18.2225,10.1191667 C18.2200748,9.1060563 17.606456,8.19457213 16.668709,7.81112826 Z M15.75,8.87497842 C16.4187181,8.87105674 16.9650917,9.40789664 16.9729194,10.0765806 C16.980747,10.7452645 16.4470899,11.2947473 15.7784627,11.3064591 C15.1098355,11.3181708 14.5572621,10.7877146 14.5416667,10.1191667 C14.5323922,9.44217418 15.0730255,8.88550829 15.75,8.87497842 Z" id="ðŸ–-Color" fill="#5A5A5A"></path>
        <rect id="_Transparent_Rectangle_" fill-opacity="0" fill="#D8D8D8" x="0" y="0" width="24" height="24"></rect>
    </g>
</svg>