<?xml version="1.0" encoding="UTF-8"?>
<svg width="24px" height="24px" viewBox="0 0 24 24" version="1.1" xmlns="http://www.w3.org/2000/svg" xmlns:xlink="http://www.w3.org/1999/xlink">
    <title>3. Finance/saving_safe_open</title>
    <g id="3.-Finance/saving_safe_open" stroke="none" stroke-width="1" fill="none" fill-rule="evenodd">
        <path d="M21.0749993,3.59651998 C21.2649731,3.53203302 21.4743823,3.5630566 21.6374993,3.67985332 C21.8000214,3.79742061 21.8961375,3.98593234 21.8958333,4.18651998 L21.8958333,4.18651998 L21.8958333,17.93652 C21.8958333,18.1290555 21.8073018,18.3108947 21.6555692,18.4294154 C21.5038367,18.5479361 21.3059465,18.5899086 21.1191659,18.5431866 L21.1191659,18.5431866 L16.9399993,17.4981866 C16.8525529,17.4762568 16.7609518,17.5133014 16.7133326,17.5898533 C16.4034845,18.0858617 15.9291898,18.4572155 15.3733326,18.63902 C15.2875036,18.667081 15.2293721,18.7470538 15.2291659,18.8373533 L15.2291659,18.8373533 L15.2291659,19.3948533 C15.2291659,19.9701499 14.7627959,20.43652 14.1874993,20.43652 C13.6122027,20.43652 13.1458326,19.9701499 13.1458326,19.3948533 L13.1458326,19.3948533 L13.1458326,18.9781866 C13.1458326,18.8631273 13.0525586,18.7698533 12.9374993,18.7698533 L12.9374993,18.7698533 L6.27083261,18.7698533 C6.15577329,18.7698533 6.06249928,18.8631273 6.06249928,18.9781866 L6.06249928,18.9781866 L6.06249928,19.3948533 C6.06249928,19.9701499 5.59612923,20.43652 5.02083261,20.43652 C4.445536,20.43652 3.97916595,19.9701499 3.97916595,19.3948533 L3.97916595,19.3948533 L3.97916595,18.8373533 C3.97895978,18.7470538 3.92082832,18.667081 3.83499928,18.63902 C2.80531261,18.3077295 2.10637535,17.3506868 2.10416595,16.26902 L2.10416595,16.26902 L2.10416595,6.26901998 C2.10416595,4.88830811 3.22345407,3.76901998 4.60416595,3.76901998 L4.60416595,3.76901998 L14.6041659,3.76901998 C15.4412373,3.77112904 16.2210782,4.19424756 16.6791659,4.89485332 C16.7305345,4.97394912 16.8289348,5.00823492 16.9183326,4.97818665 L16.9183326,4.97818665 Z M14.6058326,5.43651998 L4.60583261,5.43651998 C4.14559532,5.43651998 3.77249928,5.80961602 3.77249928,6.26985332 L3.77249928,6.26985332 L3.77249928,16.2698533 C3.77249928,16.7300906 4.14559532,17.1031866 4.60583261,17.1031866 L4.60583261,17.1031866 L14.6058326,17.1031866 C15.0660699,17.1031866 15.4391659,16.7300906 15.4391659,16.2698533 L15.4391659,16.2698533 L15.4391659,6.26985332 C15.4391659,5.80961602 15.0660699,5.43651998 14.6058326,5.43651998 L14.6058326,5.43651998 Z M8.21666595,13.3531863 C8.39623904,13.3529639 8.55575428,13.4678149 8.61249928,13.6381866 L8.61249928,13.6381866 L9.16749928,15.3048533 C9.20979951,15.4318555 9.18850574,15.5714473 9.11026382,15.6800616 C9.03202189,15.7886759 8.90636062,15.853085 8.77249928,15.8531863 L8.77249928,15.8531863 L5.34499928,15.8531863 C5.21113794,15.853085 5.08547667,15.7886759 5.00723474,15.6800616 C4.92899282,15.5714473 4.90769904,15.4318555 4.94999928,15.3048533 L4.94999928,15.3048533 L5.50583261,13.6381866 C5.56248075,13.468106 5.72156624,13.3533228 5.90083261,13.3531863 L5.90083261,13.3531863 Z M13.3108326,13.3531863 C13.490099,13.3533228 13.6491845,13.468106 13.7058326,13.6381866 L13.7058326,13.6381866 L14.2616659,15.3048533 C14.3039662,15.4318555 14.2826724,15.5714473 14.2044305,15.6800616 C14.1261886,15.7886759 14.0005273,15.853085 13.8666659,15.8531863 L13.8666659,15.8531863 L10.4391659,15.8531863 C10.3053046,15.853085 10.1796433,15.7886759 10.1014014,15.6800616 C10.0231595,15.5714473 10.0018657,15.4318555 10.0441659,15.3048533 L10.0441659,15.3048533 L10.5991659,13.6381866 C10.6559109,13.4678149 10.8154262,13.3529639 10.9949993,13.3531863 L10.9949993,13.3531863 Z M10.9724993,10.0198533 C11.1517657,10.0199894 11.3108511,10.1347726 11.3674993,10.3048533 L11.3674993,10.3048533 L11.9233326,11.97152 C11.9656794,12.0986616 11.9442901,12.2384111 11.8658535,12.3470664 C11.787417,12.4557216 11.6615076,12.5200196 11.5274993,12.5198533 L11.5274993,12.5198533 L7.68416595,12.5198533 C7.55015766,12.5200196 7.4242482,12.4557216 7.34581168,12.3470664 C7.26737515,12.2384111 7.24598586,12.0986616 7.28833261,11.97152 L7.28833261,11.97152 L7.84416595,10.3048533 C7.90081408,10.1347726 8.05989957,10.0199894 8.23916595,10.0198533 L8.23916595,10.0198533 Z M6.68916595,6.26946472 C6.89657685,6.26946472 7.07240704,6.42201652 7.10166595,6.62735332 L7.10166595,6.62735332 L7.13333261,6.84818665 C7.21404571,7.39841349 7.64702193,7.83003348 8.19749928,7.90901998 L8.19749928,7.90901998 L8.41833261,7.94068665 C8.62366941,7.96994556 8.77622121,8.14577574 8.77622121,8.35318665 C8.77622121,8.56059756 8.62366941,8.73642774 8.41833261,8.76568665 L8.41833261,8.76568665 L8.19499928,8.79735332 C7.64457873,8.87798815 7.21267263,9.31091131 7.13333261,9.86151998 L7.13333261,9.86151998 L7.10166595,10.0823533 C7.07240704,10.2876901 6.89657685,10.4402419 6.68916595,10.4402419 C6.48175504,10.4402419 6.30592485,10.2876901 6.27666595,10.0823533 L6.27666595,10.0823533 L6.24499928,9.85818665 C6.1644043,9.30913471 5.73321788,8.8779483 5.18416595,8.79735332 L5.18416595,8.79735332 L4.96333261,8.76568665 C4.75799581,8.73642774 4.60544401,8.56059756 4.60544401,8.35318665 C4.60544401,8.14577574 4.75799581,7.96994556 4.96333261,7.94068665 L4.96333261,7.94068665 L5.18333261,7.90901998 C5.73257729,7.82911451 6.16423099,7.39813844 6.24499928,6.84901998 L6.24499928,6.84901998 L6.27666595,6.62735332 C6.30592485,6.42201652 6.48175504,6.26946472 6.68916595,6.26946472 Z" id="ðŸ–-Color" fill="#5A5A5A"></path>
        <rect id="_Transparent_Rectangle_" fill-opacity="0" fill="#D8D8D8" x="-3.06843036e-05" y="-0.000416666667" width="24" height="24"></rect>
    </g>
</svg>