<svg width="24" height="24" viewBox="0 0 24 24" fill="none" xmlns="http://www.w3.org/2000/svg">
<g id="saving_safe">
<path id="Shape" fill-rule="evenodd" clip-rule="evenodd" d="M19.9167 2.00001H4.08333C2.95424 1.98049 2.02234 2.87847 2 4.00751V18.3258C2.00619 19.089 2.44618 19.7821 3.13417 20.1125C3.20511 20.1477 3.25 20.22 3.25 20.2992V21.1667C3.25 21.6269 3.6231 22 4.08333 22C4.54357 22 4.91667 21.6269 4.91667 21.1667V20.5417C4.91667 20.4266 5.00994 20.3333 5.125 20.3333H18.875C18.9901 20.3333 19.0833 20.4266 19.0833 20.5417V21.1667C19.0833 21.6269 19.4564 22 19.9167 22C20.3769 22 20.75 21.6269 20.75 21.1667V20.2992C20.75 20.22 20.7949 20.1477 20.8658 20.1125C21.5538 19.7821 21.9938 19.089 22 18.3258V4.00751C21.9777 2.87847 21.0458 1.98049 19.9167 2.00001ZM18.6667 11.1667C18.6667 14.8486 15.6819 17.8333 12 17.8333C8.3181 17.8333 5.33333 14.8486 5.33333 11.1667C5.33333 7.48478 8.3181 4.50001 12 4.50001C15.6802 4.50414 18.6625 7.48649 18.6667 11.1667ZM10.4042 8.68751C10.4701 8.75408 10.5724 8.7684 10.6542 8.72251C11.4928 8.25923 12.5106 8.25923 13.3492 8.72251C13.4309 8.7684 13.5332 8.75408 13.5992 8.68751L14.8967 7.38917C14.9401 7.34568 14.9621 7.28525 14.9568 7.22403C14.9515 7.16281 14.9194 7.10706 14.8692 7.07167C13.1491 5.86499 10.8575 5.86499 9.1375 7.07167C9.08726 7.10706 9.0552 7.16281 9.0499 7.22403C9.0446 7.28525 9.06659 7.34568 9.11 7.38917L10.4042 8.68751ZM9.55583 12.5125C9.60173 12.5942 9.58741 12.6965 9.52083 12.7625L8.22417 14.0608C8.18005 14.1042 8.11916 14.1262 8.0575 14.1208C7.99607 14.1155 7.94018 14.0831 7.905 14.0325C6.69831 12.3125 6.69831 10.0209 7.905 8.30084C7.94038 8.2506 7.99614 8.21854 8.05735 8.21324C8.11857 8.20794 8.17901 8.22993 8.2225 8.27334L9.52083 9.56751C9.58768 9.63334 9.60203 9.73584 9.55583 9.81751C9.09256 10.6561 9.09256 11.6739 9.55583 12.5125ZM12 12.7083C12.8514 12.7083 13.5417 12.0181 13.5417 11.1667C13.5417 10.3152 12.8514 9.62501 12 9.62501C11.1486 9.62501 10.4583 10.3152 10.4583 11.1667C10.4583 12.0181 11.1486 12.7083 12 12.7083ZM14.4442 9.82167C14.3977 9.74007 14.412 9.63737 14.4792 9.57167L15.7767 8.28001C15.8206 8.23631 15.8816 8.21433 15.9433 8.22001C16.0039 8.22402 16.0597 8.2545 16.0958 8.30334C17.3024 10.0237 17.3024 12.3155 16.0958 14.0358C16.0602 14.0859 16.0045 14.1179 15.9433 14.1233C15.8816 14.1292 15.8205 14.1072 15.7767 14.0633L14.465 12.7508C14.4072 12.693 14.395 12.6038 14.435 12.5325C14.9073 11.6915 14.9108 10.6659 14.4442 9.82167ZM13.595 13.6458C13.5289 13.5795 13.4268 13.5652 13.345 13.6108C12.507 14.0741 11.4897 14.0741 10.6517 13.6108C10.5699 13.5649 10.4676 13.5793 10.4017 13.6458L9.10667 14.9442C9.06307 14.9882 9.04111 15.0492 9.04667 15.1108C9.0521 15.1722 9.08445 15.2281 9.135 15.2633C10.8547 16.469 13.1453 16.469 14.865 15.2633C14.9135 15.2269 14.9439 15.1713 14.9483 15.1108C14.9546 15.0491 14.9325 14.9878 14.8883 14.9442L13.595 13.6458Z" fill="#5A5A5A"/>
</g>
</svg>
