<?xml version="1.0" encoding="UTF-8"?>
<svg width="24px" height="24px" viewBox="0 0 24 24" version="1.1" xmlns="http://www.w3.org/2000/svg" xmlns:xlink="http://www.w3.org/1999/xlink">
    <title>3. Finance/saving_piggy_coins</title>
    <g id="3.-Finance/saving_piggy_coins" stroke="none" stroke-width="1" fill="none" fill-rule="evenodd">
        <path d="M10.1658333,19.38632 C10.2296054,19.3638746 10.3003038,19.3737699 10.3554628,19.4128616 C10.4106218,19.4519532 10.4433334,19.51538 10.4433334,19.5829867 L10.4433334,19.5829867 L10.4433334,21.16632 C10.4433334,21.6279867 8.5775,21.9996534 6.27666667,21.9996534 C3.97583333,21.9996534 2.11,21.6279867 2.11,21.16632 L2.11,21.16632 L2.11,19.5846534 C2.11023703,19.5169841 2.14319652,19.4536103 2.19846217,19.4145603 C2.25372782,19.3755103 2.32447058,19.3656094 2.38833333,19.3879867 C3.65033984,19.7593855 4.96131569,19.9375164 6.27666667,19.91632 L6.71501157,19.9158476 C7.8831652,19.8949377 9.0438843,19.7170051 10.1658333,19.38632 Z M13.8108333,3.32965337 C14.6217561,2.25027446 16.0043712,1.76767595 17.3108333,2.10798671 C17.6043624,2.18400356 17.8334381,2.41345505 17.9089737,2.70710836 C17.9845093,3.00076168 17.894583,3.31226915 17.6741667,3.52048671 C17.3669215,3.80897115 17.1375943,4.17044805 17.0075,4.57132004 C16.9797477,4.65971575 17.013706,4.75581759 17.0908333,4.80715337 C18.56328,5.75598838 19.6229076,7.22607287 20.0575,8.92298671 C20.0793113,9.01709167 20.163402,9.08353373 20.26,9.08298671 L20.26,9.08298671 L20.64,9.08298671 C21.3303559,9.08298671 21.89,9.64263077 21.89,10.3329867 L21.89,10.3329867 L21.89,11.9971534 C21.89,12.6875093 21.3303559,13.2471534 20.64,13.2471534 L20.64,13.2471534 L19.6058333,13.2471534 C19.5300125,13.2472609 19.4601865,13.2883913 19.4233333,13.3546534 C18.8775441,14.3162466 18.1218377,15.1423109 17.2125,15.77132 C17.1401524,15.8227861 17.1083716,15.9144487 17.1333333,15.9996534 L17.1333333,15.9996534 L17.6733333,17.8646534 C17.8648382,18.5273489 17.4833148,19.2199091 16.8208333,19.4121534 C16.7077164,19.4454182 16.5904066,19.4621538 16.4725,19.4621538 C15.9162492,19.4618301 15.4271377,19.0939775 15.2725,18.5596534 L15.2725,18.5596534 L14.8666667,17.15632 C14.8510627,17.1031272 14.8151369,17.0582199 14.7666667,17.03132 C14.717946,17.0047953 14.6606586,16.9987966 14.6075,17.0146534 C13.7300378,17.2808025 12.8177658,17.4144976 11.9008333,17.41132 C11.7860996,17.4108611 11.6933324,17.3177214 11.6933333,17.2029867 L11.6933333,17.2029867 L11.6933333,11.16632 C11.6933333,9.19559932 8.1722413,9.08907387 6.53743273,9.08331574 L6.27666667,9.08298671 C5.50115298,9.07248019 4.72568299,9.10698263 3.95416667,9.18632004 C3.88767155,9.19401676 3.82154742,9.16916239 3.77658519,9.11957169 C3.73162296,9.06998099 3.71334563,9.00174552 3.7275,8.93632004 C4.0951392,7.43941832 4.96049324,6.1118565 6.18166667,5.17132004 C8.29123376,3.54940847 10.9940838,2.90789487 13.6075,3.40882004 C13.6848016,3.42307452 13.7635215,3.39242537 13.8108333,3.32965337 Z M10.1658333,16.0529867 C10.2296054,16.0305412 10.3003038,16.0404366 10.3554628,16.0795282 C10.4106218,16.1186199 10.4433821,16.1820466 10.4433333,16.2496534 L10.4433333,16.2496534 L10.4441667,18.2271534 C10.4440027,18.3042814 10.401407,18.3750607 10.3333333,18.41132 C9.04381573,18.919289 7.66098519,19.1471095 6.27666667,19.0796534 C4.89315599,19.1450978 3.51140228,18.9179291 2.22166667,18.4129867 C2.15326973,18.3765327 2.11038855,18.3054908 2.11,18.2279867 L2.11,18.2279867 L2.11,16.2496534 C2.11023703,16.1819841 2.14319652,16.1186103 2.19846217,16.0795603 C2.25372782,16.0405103 2.32447058,16.0306094 2.38833333,16.0529867 C3.65033984,16.4243855 4.96131569,16.6025164 6.27666667,16.58132 L6.71498638,16.5810287 C7.88308107,16.5606035 9.04380736,16.3831708 10.1658333,16.0529867 Z M10.1666667,12.7196534 C10.2304387,12.6972079 10.3011371,12.7071032 10.3562962,12.7461949 C10.4114552,12.7852866 10.4441667,12.8487133 10.4441667,12.91632 L10.4441667,12.91632 L10.4441667,14.89382 C10.4440027,14.9709481 10.401407,15.0417274 10.3333333,15.0779867 C9.04407441,15.5858387 7.66154045,15.8136571 6.2775,15.74632 C4.89398932,15.8117645 3.51223562,15.5845958 2.2225,15.0796534 C2.15410306,15.0431994 2.11122189,14.9721575 2.11083333,14.8946534 L2.11083333,14.8946534 L2.11083333,12.91632 C2.11107036,12.8486507 2.14402986,12.7852769 2.19929551,12.746227 C2.25456116,12.707177 2.32530391,12.6972761 2.38916667,12.7196534 C3.65117317,13.0910522 4.96214903,13.269183 6.2775,13.2479867 L6.71581971,13.2476953 C7.88391441,13.2272702 9.04464069,13.0498374 10.1666667,12.7196534 Z M6.2775,10.3329867 C8.57916667,10.3329867 10.4441667,10.7071534 10.4441667,11.16632 L10.4441667,11.16632 L10.4441667,11.5604867 C10.4440027,11.6376148 10.401407,11.7083941 10.3333333,11.7446534 C9.04393921,12.2531907 7.66110454,12.48158 6.27666667,12.4146534 C4.89315599,12.4800978 3.51140228,12.2529291 2.22166667,11.7479867 C2.15326973,11.7115327 2.11038855,11.6404908 2.11,11.5629867 L2.11,11.5629867 L2.11,11.16632 C2.11,10.7071534 3.97583333,10.3329867 6.2775,10.3329867 Z M16.89,8.24965337 C16.4297627,8.24965337 16.0566667,8.62274941 16.0566667,9.08298671 C16.0566667,9.543224 16.4297627,9.91632004 16.89,9.91632004 C17.3502373,9.91632004 17.7233333,9.543224 17.7233333,9.08298671 C17.7233333,8.62274941 17.3502373,8.24965337 16.89,8.24965337 Z M12.3475,5.14048671 C10.7060071,5.02782088 9.07887273,5.51034017 7.76416667,6.49965337 C7.63144603,6.5992488 7.54377832,6.74753418 7.52048683,6.91182515 C7.49719534,7.07611612 7.54019211,7.24292577 7.64,7.37548671 C7.84761466,7.65092847 8.23895185,7.70646108 8.515,7.49965337 C9.59246369,6.69466485 10.9221618,6.30128228 12.2641667,6.39048671 C12.6071025,6.40696877 12.9016471,6.14924224 12.9308333,5.80715337 C12.9422601,5.64130491 12.8871429,5.47773748 12.777672,5.3526279 C12.6682011,5.22751831 12.5133976,5.1511763 12.3475,5.14048671 Z" id="ðŸ–-Color" fill="#5A5A5A"></path>
        <rect id="_Transparent_Rectangle_" fill-opacity="0" fill="#D8D8D8" x="5.68434189e-14" y="0" width="24" height="24"></rect>
    </g>
</svg>