<svg width="24" height="24" viewBox="0 0 24 24" fill="none" xmlns="http://www.w3.org/2000/svg">
<g id="saving_safe_1">
<path id="Shape" fill-rule="evenodd" clip-rule="evenodd" d="M20.75 2.83333C21.4404 2.83333 22 3.39297 22 4.08333V19.0833C22 19.7737 21.4404 20.3333 20.75 20.3333H20.125C20.0099 20.3333 19.9167 20.4266 19.9167 20.5417V20.75C19.9167 20.9801 19.7301 21.1667 19.5 21.1667H18.25C18.0199 21.1667 17.8333 20.9801 17.8333 20.75V20.5417C17.8333 20.4266 17.7401 20.3333 17.625 20.3333H6.375C6.25994 20.3333 6.16667 20.4266 6.16667 20.5417V20.75C6.16667 20.9801 5.98012 21.1667 5.75 21.1667H4.5C4.26988 21.1667 4.08333 20.9801 4.08333 20.75V20.5417C4.08333 20.4266 3.99006 20.3333 3.875 20.3333H3.25C2.55964 20.3333 2 19.7737 2 19.0833V4.08333C2 3.39297 2.55964 2.83333 3.25 2.83333H20.75ZM20.5417 16.5833V6.58333C20.5407 5.77829 19.8884 5.12591 19.0833 5.12499H5.75C4.94497 5.12591 4.29259 5.77829 4.29167 6.58333V16.5833C4.29259 17.3884 4.94497 18.0407 5.75 18.0417H19.0833C19.8884 18.0407 20.5407 17.3884 20.5417 16.5833ZM5.75 6.37499H19.0833C19.1978 6.37634 19.2903 6.46883 19.2917 6.58333V16.5833C19.2903 16.6978 19.1978 16.7903 19.0833 16.7917H5.75C5.6355 16.7903 5.54302 16.6978 5.54167 16.5833V6.58333C5.54302 6.46883 5.6355 6.37634 5.75 6.37499ZM13.6667 14.5C13.6667 14.9602 14.0398 15.3333 14.5 15.3333C14.9602 15.3333 15.3333 14.9602 15.3333 14.5C15.3333 14.0398 14.9602 13.6667 14.5 13.6667C14.0398 13.6667 13.6667 14.0398 13.6667 14.5ZM17 15.3333C16.5398 15.3333 16.1667 14.9602 16.1667 14.5C16.1667 14.0398 16.5398 13.6667 17 13.6667C17.4602 13.6667 17.8333 14.0398 17.8333 14.5C17.8333 14.9602 17.4602 15.3333 17 15.3333ZM13.4214 11.1023C13.8173 12.0348 14.7369 12.6361 15.75 12.625C16.4105 12.6217 17.0425 12.3556 17.5065 11.8854C17.9704 11.4152 18.228 10.7797 18.2225 10.1192C18.2201 9.10605 17.6065 8.19457 16.6687 7.81112C15.731 7.42768 14.6545 7.6481 13.9429 8.36926C13.2314 9.09042 13.0254 10.1697 13.4214 11.1023ZM14.5417 10.1192C14.5324 9.44217 15.073 8.8855 15.75 8.87499C16.4187 8.87105 16.9651 9.40789 16.9729 10.0766C16.9807 10.7453 16.4471 11.2947 15.7785 11.3065C15.1098 11.3182 14.5573 10.7877 14.5417 10.1192Z" fill="#5A5A5A"/>
</g>
</svg>
