<svg width="24" height="24" viewBox="0 0 24 24" fill="none" xmlns="http://www.w3.org/2000/svg">
<g id="saving_piggy_bank">
<path id="Shape" fill-rule="evenodd" clip-rule="evenodd" d="M21.5989 9.73615C21.6155 9.51579 21.5473 9.29761 21.4094 9.12961C21.2716 8.96161 21.0753 8.85754 20.8637 8.84031C20.423 8.80664 20.038 9.14765 19.9989 9.60615C19.9953 9.66403 19.9519 9.71065 19.8965 9.71624C19.8411 9.72183 19.7899 9.68473 19.7757 9.62865C19.3882 8.23111 18.5838 6.99829 17.4789 6.10865C15.4541 4.48531 12.8585 3.84366 10.3493 4.34615C10.2741 4.35921 10.1983 4.32696 10.1533 4.26281C9.375 3.18691 8.05058 2.7062 6.79893 3.04531C6.51782 3.12168 6.29855 3.35079 6.22609 3.64385C6.15364 3.9369 6.2394 4.24784 6.45013 4.45615C6.74508 4.74463 6.96524 5.10611 7.09013 5.50698C7.11745 5.59563 7.08475 5.69239 7.01013 5.74365C5.5951 6.69194 4.5766 8.16249 4.15893 9.86031C4.13772 9.95424 4.05716 10.0205 3.96453 10.0203H3.59893C2.93618 10.0203 2.39893 10.58 2.39893 11.2703V12.937C2.39893 13.6273 2.93618 14.187 3.59893 14.187H4.59173C4.66451 14.1871 4.73155 14.2282 4.76693 14.2945C5.36684 15.3885 6.22344 16.306 7.25653 16.9611C7.33197 17.0106 7.36688 17.1061 7.34213 17.1953L6.63893 19.7303C6.48545 20.283 6.79087 20.8608 7.32133 21.0211C7.41214 21.0481 7.5061 21.0619 7.60053 21.062C8.04488 21.0617 8.43585 20.7563 8.56053 20.312L9.17413 18.1045C9.20542 17.9943 9.31614 17.9311 9.42213 17.9628C11.1044 18.4841 12.8956 18.4862 14.5789 17.9686C14.6298 17.9534 14.6845 17.9597 14.7309 17.9861C14.7779 18.0125 14.8125 18.0576 14.8269 18.1111L15.4389 20.312C15.5636 20.7563 15.9546 21.0617 16.3989 21.062C16.4934 21.0618 16.5873 21.0481 16.6781 21.0211C17.2086 20.8608 17.514 20.283 17.3605 19.7303L16.6565 17.1978C16.6321 17.1086 16.6669 17.0133 16.7421 16.9636C18.4674 15.9055 19.6449 14.0958 19.9493 12.0345C19.9589 11.959 20.0074 11.895 20.0757 11.8678C20.9372 11.5248 21.5307 10.6942 21.5989 9.73615ZM16.0789 8.31198C15.9834 8.44459 15.8413 8.53226 15.6838 8.5557C15.5262 8.57914 15.3662 8.53644 15.2389 8.43698C14.2046 7.63098 12.9278 7.2367 11.6389 7.32531C11.3076 7.34832 11.021 7.08716 10.9989 6.74198C10.9768 6.3968 11.2276 6.09832 11.5589 6.07531C13.1347 5.96218 14.6968 6.44443 15.9589 7.43365C16.0872 7.53316 16.172 7.68188 16.1945 7.84679C16.217 8.0117 16.1754 8.17915 16.0789 8.31198ZM6.39893 10.0203C6.39893 10.4805 6.7571 10.8536 7.19893 10.8536C7.64075 10.8536 7.99893 10.4805 7.99893 10.0203C7.99893 9.56008 7.64075 9.18698 7.19893 9.18698C6.7571 9.18698 6.39893 9.56008 6.39893 10.0203Z" fill="#5A5A5A"/>
</g>
</svg>
