<?xml version="1.0" encoding="UTF-8"?>
<svg width="24px" height="24px" viewBox="0 0 24 24" version="1.1" xmlns="http://www.w3.org/2000/svg" xmlns:xlink="http://www.w3.org/1999/xlink">
    <title>3. Finance/saving_piggy_bank</title>
    <g id="3.-Finance/saving_piggy_bank" stroke="none" stroke-width="1" fill="none" fill-rule="evenodd">
        <path d="M21.5987791,9.73613933 C21.6153387,9.51578629 21.5471813,9.29760669 21.4093026,9.12960296 C21.2714239,8.96159922 21.0751195,8.85753507 20.8635791,8.840306 C20.4228759,8.80663686 20.0378066,9.14763925 19.9987791,9.60613933 C19.9951593,9.664025 19.9517908,9.71064299 19.8963617,9.71623059 C19.8409327,9.7218182 19.7897874,9.68472781 19.7755791,9.62863933 C19.388058,8.23110538 18.5836445,6.99828786 17.4787791,6.10863933 C15.453937,4.48530302 12.8583431,3.84364932 10.3491791,4.34613933 C10.2739744,4.35920333 10.1981285,4.32695592 10.1531791,4.262806 C9.37485163,3.18690435 8.05042817,2.70619676 6.79877907,3.045306 C6.51767024,3.12167497 6.29839886,3.35078418 6.22594705,3.64383871 C6.15349525,3.93689323 6.2392513,4.24782955 6.44997907,4.45613933 C6.74493446,4.74462377 6.96508852,5.10610067 7.08997907,5.50697266 C7.117307,5.59562333 7.0845999,5.69238184 7.00997907,5.74363933 C5.5949507,6.69193722 4.57645451,8.16247921 4.15877907,9.860306 C4.13757451,9.95423518 4.05701046,10.020543 3.96437907,10.020306 L3.59877907,10.020306 C2.93603737,10.020306 2.39877907,10.5799501 2.39877907,11.270306 L2.39877907,12.9369727 C2.39877907,13.6273286 2.93603737,14.1869727 3.59877907,14.1869727 L4.59157907,14.1869727 C4.66436712,14.1870802 4.73140006,14.2282106 4.76677907,14.2944727 C5.36669662,15.3884505 6.22329302,16.3059702 7.25637907,16.9611393 C7.33182172,17.0106014 7.36673194,17.1061015 7.34197907,17.195306 L6.63877907,19.730306 C6.48530701,20.2830181 6.79072243,20.8607443 7.32117907,21.0211393 C7.41198887,21.048116 7.5059487,21.0619727 7.60037907,21.0619727 C8.04473469,21.0616952 8.43570381,20.7562506 8.56037907,20.3119727 L9.17397907,18.1044727 C9.20527696,17.9943257 9.31599247,17.931081 9.42197907,17.962806 C11.1042073,18.4841362 12.8954679,18.4861624 14.5787791,17.9686393 C14.6296783,17.9533603 14.6843116,17.9596504 14.7307791,17.9861393 C14.7777194,18.0125318 14.8123642,18.0576422 14.8267791,18.1111393 L15.4387791,20.3119727 C15.5634543,20.7562506 15.9544235,21.0616952 16.3987791,21.0619727 C16.4932051,21.0619727 16.5871565,21.0480533 16.6779791,21.0211393 C17.2084357,20.8607443 17.5138511,20.2830181 17.3603791,19.730306 L16.6563791,17.197806 C16.6319073,17.1086138 16.6667542,17.0132869 16.7419791,16.9636393 C18.4672411,15.9054621 19.6447369,14.0957612 19.9491791,12.0344727 C19.9587539,11.9589625 20.0072738,11.8949859 20.0755791,11.867806 C20.9370118,11.524812 21.5305663,10.6941527 21.5987791,9.73613933 Z M16.0787791,8.31197266 C15.9833011,8.44458091 15.8411624,8.53224905 15.6836319,8.5556911 C15.5261013,8.57913315 15.366083,8.53642885 15.2387791,8.43697266 C14.2044938,7.63097059 12.9276609,7.23668932 11.6387791,7.325306 C11.3074082,7.34831786 11.0208705,7.08715063 10.9987791,6.74197266 C10.9766877,6.3967947 11.2274082,6.09831786 11.5587791,6.075306 C13.1345368,5.96217574 14.6966501,6.44441904 15.9587791,7.43363933 C16.0870125,7.53315351 16.1718058,7.68187167 16.194336,7.8467806 C16.2168663,8.01168953 16.1752693,8.17914437 16.0787791,8.31197266 L16.0787791,8.31197266 Z M7.19877907,10.8536393 C6.75695127,10.8536393 6.39877907,10.4805433 6.39877907,10.020306 C6.39877907,9.56006871 6.75695127,9.18697266 7.19877907,9.18697266 C7.64060687,9.18697266 7.99877907,9.56006871 7.99877907,10.020306 C7.99877907,10.4805433 7.64060687,10.8536393 7.19877907,10.8536393 Z" id="ðŸ–-Color" fill="#5A5A5A"></path>
        <rect id="_Transparent_Rectangle_" fill-opacity="0" fill="#D8D8D8" x="0" y="0.0782455328" width="24" height="24"></rect>
    </g>
</svg>