<?xml version="1.0" encoding="UTF-8"?>
<svg width="24px" height="24px" viewBox="0 0 24 24" version="1.1" xmlns="http://www.w3.org/2000/svg" xmlns:xlink="http://www.w3.org/1999/xlink">
    <title>3. Finance/smartphone_pay_dollar</title>
    <g id="3.-Finance/smartphone_pay_dollar" stroke="none" stroke-width="1" fill="none" fill-rule="evenodd">
        <path d="M10.965,2.27 C12.2211483,2.27091555 13.2397446,3.28802103 13.2425,4.54416667 L13.2425,4.54416667 L13.2425,4.96083333 C13.2425,5.30417035 12.9641704,5.5825 12.6208333,5.5825 L12.6208333,5.5825 L3.9275,5.5825 C3.87217862,5.58227738 3.81905877,5.60415522 3.77994033,5.64327366 C3.74082189,5.6823921 3.71894404,5.73551195 3.71916667,5.79083333 L3.71916667,5.79083333 L3.71916667,17.3816667 C3.71916667,17.496726 3.81244068,17.59 3.9275,17.59 L3.9275,17.59 L12.6208333,17.59 C12.9638452,17.5899997 13.2420402,17.8678218 13.2425,18.2108333 L13.2425,18.2108333 L13.2425,19.4533333 C13.2411214,20.7104555 12.2221226,21.7290815 10.965,21.73 L10.965,21.73 L4.34,21.73 C3.08287745,21.7290815 2.06387859,20.7104555 2.0625,19.4533333 L2.0625,19.4533333 L2.0625,4.54666667 C2.06387859,3.28954453 3.08287745,2.27091853 4.34,2.27 L4.34,2.27 Z M7.6525,18.6249996 C7.19502413,18.6249996 6.82416667,18.9958575 6.82416667,19.4533333 C6.82416667,19.9108092 7.19502413,20.2816667 7.6525,20.2816667 C8.10997587,20.2816667 8.48083375,19.9108092 8.48083375,19.4533333 C8.48105475,19.2335779 8.39385527,19.0227594 8.23846461,18.8673687 C8.08307396,18.7119781 7.87225546,18.6247786 7.6525,18.6249996 Z M20.2808333,6.6175 C21.1950794,6.6184178 21.9361222,7.35908786 21.9375,8.27333333 L21.9375,8.27333333 L21.9375,14.8983333 C21.9365813,15.8129043 21.1954043,16.5540813 20.2808333,16.555 L20.2808333,16.555 L7.85916667,16.555 C6.9449212,16.5536222 6.20425114,15.8125794 6.20333333,14.8983333 L6.20333333,14.8983333 L6.20333333,8.27333333 C6.20425204,7.35922265 6.94505598,6.6184187 7.85916667,6.6175 L7.85916667,6.6175 Z M20.0725,8.27333333 L8.0675,8.27333333 C7.95244068,8.27333333 7.85916667,8.36660734 7.85916667,8.48166667 L7.85916667,8.48166667 L7.85916667,14.69 C7.85916667,14.8050593 7.95244068,14.8983333 8.0675,14.8983333 L8.0675,14.8983333 L20.0725,14.8983333 C20.1875593,14.8983333 20.2808333,14.8050593 20.2808333,14.69 L20.2808333,14.69 L20.2808333,8.48166667 C20.2808333,8.36660734 20.1875593,8.27333333 20.0725,8.27333333 L20.0725,8.27333333 Z M14.07,9.7225 C15.0990906,9.7225 15.9333333,10.5567427 15.9333333,11.5858333 C15.9333333,12.6149239 15.0990906,13.4491667 14.07,13.4491667 C13.0409094,13.4491667 12.2066667,12.6149239 12.2066667,11.5858333 C12.2066667,10.5567427 13.0409094,9.7225 14.07,9.7225 Z" id="ðŸ–-Color" fill="#5A5A5A"></path>
        <rect id="_Transparent_Rectangle_" fill-opacity="0" fill="#D8D8D8" x="0" y="0" width="24" height="24"></rect>
    </g>
</svg>