<svg width="24" height="24" viewBox="0 0 24 24" fill="none" xmlns="http://www.w3.org/2000/svg">
<g id="smartphone_pay_dollar">
<path id="Shape" fill-rule="evenodd" clip-rule="evenodd" d="M3.9275 17.59H12.6208C12.9638 17.59 13.242 17.8678 13.2425 18.2108V19.4533C13.2411 20.7104 12.2221 21.7291 10.965 21.73H4.34C3.08288 21.7291 2.06388 20.7104 2.0625 19.4533V4.54666C2.06388 3.28953 3.08288 2.27091 4.34 2.26999H10.965C12.2211 2.2709 13.2397 3.28801 13.2425 4.54416V4.96082C13.2425 5.30416 12.9642 5.58249 12.6208 5.58249H3.9275C3.87218 5.58227 3.81906 5.60414 3.77994 5.64326C3.74082 5.68238 3.71894 5.7355 3.71917 5.79082V17.3817C3.71917 17.4967 3.81244 17.59 3.9275 17.59ZM7.6525 20.2817C8.10998 20.2817 8.48083 19.9108 8.48083 19.4533C8.48105 19.2336 8.39386 19.0227 8.23846 18.8674C8.08307 18.712 7.87226 18.6248 7.6525 18.625C7.19502 18.625 6.82417 18.9958 6.82417 19.4533C6.82417 19.9108 7.19502 20.2817 7.6525 20.2817ZM7.85917 6.61749H20.2808C21.1951 6.61841 21.9361 7.35908 21.9375 8.27332V14.8983C21.9366 15.8129 21.1954 16.5541 20.2808 16.555H7.85917C6.94492 16.5536 6.20425 15.8126 6.20333 14.8983V8.27332C6.20425 7.35921 6.94506 6.61841 7.85917 6.61749ZM20.0725 14.8983C20.1876 14.8983 20.2808 14.805 20.2808 14.69V8.48166C20.2808 8.3666 20.1876 8.27332 20.0725 8.27332H8.0675C7.95244 8.27332 7.85917 8.3666 7.85917 8.48166V14.69C7.85917 14.805 7.95244 14.8983 8.0675 14.8983H20.0725ZM14.07 13.4492C15.0991 13.4492 15.9333 12.6149 15.9333 11.5858C15.9333 10.5567 15.0991 9.72249 14.07 9.72249C13.0409 9.72249 12.2067 10.5567 12.2067 11.5858C12.2067 12.6149 13.0409 13.4492 14.07 13.4492Z" fill="#5A5A5A"/>
</g>
</svg>
