<svg width="24" height="24" viewBox="0 0 24 24" fill="none" xmlns="http://www.w3.org/2000/svg">
<g id="treasure_chest">
<path id="Shape" fill-rule="evenodd" clip-rule="evenodd" d="M15.005 4.58333C14.9342 4.53026 14.8484 4.50107 14.76 4.5H9.25C9.16344 4.49983 9.07897 4.52663 9.00833 4.57667C8.065 5.25 8.04167 6.91667 8.04167 7V9.5C8.04167 9.73012 8.22821 9.91667 8.45833 9.91667H15.5417C15.7718 9.91667 15.9583 9.73012 15.9583 9.5V7C15.9583 6.91667 15.935 5.2575 15.005 4.58333ZM7.08917 4.5H5.75C3.68026 4.50321 2.00321 6.18026 2 8.25V9.5C2 9.73012 2.18655 9.91667 2.41667 9.91667H6.375C6.60512 9.91667 6.79167 9.73012 6.79167 9.5V7C6.79666 6.2399 6.96193 5.4894 7.27667 4.7975C7.30766 4.73312 7.30334 4.65731 7.26524 4.59686C7.22715 4.53641 7.16062 4.49982 7.08917 4.5ZM16.9108 4.5H18.25C20.3197 4.50321 21.9968 6.18026 22 8.25V9.5C22 9.73012 21.8135 9.91667 21.5833 9.91667H17.625C17.3949 9.91667 17.2083 9.73012 17.2083 9.5V7C17.2034 6.2398 17.0378 5.48923 16.7225 4.7975C16.6919 4.73295 16.6966 4.65724 16.7348 4.5969C16.773 4.53655 16.8394 4.49998 16.9108 4.5ZM6.375 11.1667H2.41667C2.18655 11.1667 2 11.3532 2 11.5833V17.4167C2 18.5673 2.93274 19.5 4.08333 19.5H6.375C6.60512 19.5 6.79167 19.3135 6.79167 19.0833V11.5833C6.79167 11.3532 6.60512 11.1667 6.375 11.1667ZM14.5 11.1667H15.5417C15.7718 11.1667 15.9583 11.3532 15.9583 11.5833V19.0833C15.9583 19.3135 15.7718 19.5 15.5417 19.5H8.45833C8.22821 19.5 8.04167 19.3135 8.04167 19.0833V11.5833C8.04167 11.3532 8.22821 11.1667 8.45833 11.1667H9.5C9.73012 11.1667 9.91667 11.3532 9.91667 11.5833V12.4167C9.91667 13.5673 10.8494 14.5 12 14.5C13.1506 14.5 14.0833 13.5673 14.0833 12.4167V11.5833C14.0833 11.3532 14.2699 11.1667 14.5 11.1667ZM21.5833 11.1667H17.625C17.3949 11.1667 17.2083 11.3532 17.2083 11.5833V19.0833C17.2083 19.3135 17.3949 19.5 17.625 19.5H19.9167C20.4692 19.5 20.9991 19.2805 21.3898 18.8898C21.7805 18.4991 22 17.9692 22 17.4167V11.5833C22 11.3532 21.8135 11.1667 21.5833 11.1667ZM12 13.2492C12.4602 13.2492 12.8333 12.8761 12.8333 12.4158C12.8333 11.9556 12.4602 11.5825 12 11.5825C11.5398 11.5825 11.1667 11.9556 11.1667 12.4158C11.1667 12.8761 11.5398 13.2492 12 13.2492Z" fill="#5A5A5A"/>
</g>
</svg>
