<svg xmlns="http://www.w3.org/2000/svg" width="158.858" height="364.991" viewBox="0 0 158.858 364.991">
  <defs>
    <style>.a {
      fill: #ffcda8;
    }

    .b {
      fill: #e74b73;
    }

    .c {
      fill: #4f4db8;
    }

    .d {
      fill: #0095f9;
    }

    .e {
      fill: #40305f;
    }</style>
  </defs>
  <path class="a"
        d="M-33.873,32.635l7.27-7.414A23.128,23.128,0,0,1-32.924,9.128c.158-9.94,15.01-10.728,21.331-7.256S1.837,15.6,1.837,15.6H-3.534L-2.27,28.374-11.593,26.8l-4.424,15.777Z"
        transform="translate(113.145 3.66)"/>
  <path class="b" d="M-9.183,0-5.39,10.572H.5S-5.855,2.59-9.183,0" transform="translate(115.001 8.685)"/>
  <path class="c"
        d="M-3.861,5.068-.331,18.386s-1.637-5.343-5.347-4.415,1.091,9.209,1.091,9.209l-17.749-1.029s-3.669-4.2-2.84-12.374S-10.155-1.121-4.26.4,1.37,2.475,1.37,2.475Z"
        transform="translate(104.447)"/>
  <path class="d"
        d="M-44.855,12.117-64.283,0-71.8,10.4s-31.023-5.788-37.082-4.344-35.388,42.82-32.962,45.967,24.72,8.954,24.72,8.954L-124.391,95.1l72.713,21.536V78.887s20.357,46.461,26.66,49.367,11.392-5.083,14.057-14.037S7.7,54.2,7.7,54.2l-8-4.838L-18.958,76.71s-2.667-25.409-4.85-28.556S-49.5,25.65-49.5,25.65Z"
        transform="translate(141.982 34.116)"/>
  <path class="a"
        d="M-14.321,11.631l2.252-3.56s-3.41-6.495.379-7.25A41.406,41.406,0,0,1-5.246,0s-5.1,1.513-4.54,3.279S-.575,1.45.372,1.134.563,9.207-1.52,10.217-8.025,9.207-8.025,9.207l-2.1,4.964Z"
        transform="translate(158.081 73.106)"/>
  <path class="e"
        d="M-79.447,0l-20.929,216.981L-68.211,222-52.428,48.592l7.177,3.5L-38.075,222s23.881,3.583,43.52,0L-15.334,18.991Z"
        transform="translate(100.376 130.206)"/>
  <path class="e" d="M-9.937.711,1.7,11.985-22.219,6.347-25.45,4.241v3.55l-5.818-1.444V0Z"
        transform="translate(100.571 353.006)"/>
  <path class="e" d="M-15.2,3.872,1.7,16.779-22.2,6.408l-2.929,2.949L-31.268,7.2V0Z"
        transform="translate(36.259 346.599)"/>
</svg>
