<svg width="24" height="24" viewBox="0 0 24 24" fill="none" xmlns="http://www.w3.org/2000/svg">
<g id="browser_idea">
<path id="Shape" fill-rule="evenodd" clip-rule="evenodd" d="M18.6663 2.3125H5.33301C3.9523 2.3125 2.83301 3.43179 2.83301 4.8125V14.3958C2.83301 15.7765 3.9523 16.8958 5.33301 16.8958C5.79325 16.8958 6.16634 16.5227 6.16634 16.0625C6.16634 15.6023 5.79325 15.2292 5.33301 15.2292C4.87277 15.2292 4.49967 14.8561 4.49967 14.3958V6.6875C4.49945 6.63218 4.52133 6.57906 4.56045 6.53994C4.59957 6.50082 4.65269 6.47894 4.70801 6.47917H19.2913C19.3467 6.47894 19.3998 6.50082 19.4389 6.53994C19.478 6.57906 19.4999 6.63218 19.4997 6.6875V9.39583C19.4997 9.85607 19.8728 10.2292 20.333 10.2292C20.7932 10.2292 21.1663 9.85607 21.1663 9.39583V4.8125C21.1663 4.14946 20.903 3.51357 20.4341 3.04473C19.9653 2.57589 19.3294 2.3125 18.6663 2.3125ZM7.41634 4.60417C7.41634 4.25899 7.69616 3.97917 8.04134 3.97917C8.38652 3.97917 8.66634 4.25899 8.66634 4.60417C8.66634 4.94934 8.38652 5.22917 8.04134 5.22917C7.87551 5.22939 7.71641 5.16361 7.59915 5.04635C7.4819 4.92909 7.41612 4.76999 7.41634 4.60417ZM10.1247 3.97917C9.7795 3.97917 9.49967 4.25899 9.49967 4.60417C9.49945 4.76999 9.56523 4.92909 9.68249 5.04635C9.79975 5.16361 9.95885 5.22939 10.1247 5.22917C10.4699 5.22917 10.7497 4.94934 10.7497 4.60417C10.7497 4.25899 10.4699 3.97917 10.1247 3.97917ZM6.58301 4.60417C6.58301 4.94934 6.30319 5.22917 5.95801 5.22917C5.61283 5.22917 5.33301 4.94934 5.33301 4.60417C5.33301 4.25899 5.61283 3.97917 5.95801 3.97917C6.30319 3.97917 6.58301 4.25899 6.58301 4.60417ZM15.1247 10.2292V11.4792C15.1247 11.8243 14.8449 12.1042 14.4997 12.1042C14.1545 12.1042 13.8747 11.8243 13.8747 11.4792V10.2292C13.8747 9.88399 14.1545 9.60417 14.4997 9.60417C14.8449 9.60417 15.1247 9.88399 15.1247 10.2292ZM13.6663 20.4375H15.333C15.6782 20.4375 15.958 20.7173 15.958 21.0625C15.958 21.4077 15.6782 21.6875 15.333 21.6875H13.6663C13.3212 21.6875 13.0413 21.4077 13.0413 21.0625C13.0413 20.7173 13.3212 20.4375 13.6663 20.4375ZM9.91634 15.4375H8.66634C8.32116 15.4375 8.04134 15.7173 8.04134 16.0625C8.04134 16.4077 8.32116 16.6875 8.66634 16.6875H9.91634C10.2615 16.6875 10.5413 16.4077 10.5413 16.0625C10.5413 15.7173 10.2615 15.4375 9.91634 15.4375ZM19.083 15.4375H20.333C20.6782 15.4375 20.958 15.7173 20.958 16.0625C20.958 16.4077 20.6782 16.6875 20.333 16.6875H19.083C18.7378 16.6875 18.458 16.4077 18.458 16.0625C18.458 15.7173 18.7378 15.4375 19.083 15.4375ZM10.1305 11.6425C9.97647 11.4679 9.73816 11.3934 9.51212 11.4492C9.28609 11.505 9.10979 11.6818 9.05465 11.908C8.99951 12.1342 9.07467 12.3723 9.24967 12.5258L10.308 13.5875C10.5534 13.8242 10.9432 13.8207 11.1841 13.5795C11.4251 13.3383 11.4283 12.9485 11.1913 12.7033L10.1305 11.6425ZM19.9198 11.9179C19.9771 12.1364 19.9121 12.3688 19.7497 12.5258L18.6913 13.5875C18.5343 13.7499 18.3019 13.8149 18.0834 13.7576C17.865 13.7003 17.6944 13.5296 17.6373 13.3111C17.5802 13.0925 17.6455 12.8602 17.808 12.7033L18.8655 11.6425C19.0224 11.48 19.2547 11.4147 19.4732 11.4718C19.6918 11.5289 19.8625 11.6994 19.9198 11.9179ZM14.4997 13.1458C13.7214 13.13 12.9703 13.4322 12.4198 13.9827C11.8694 14.5331 11.5672 15.2842 11.583 16.0625C11.496 17.0283 11.937 17.966 12.7363 18.515C12.7964 18.5533 12.8328 18.6196 12.833 18.6908V18.9792C12.833 19.2093 13.0196 19.3958 13.2497 19.3958H15.7497C15.9798 19.3958 16.1663 19.2093 16.1663 18.9792V18.6792C16.1665 18.6079 16.2029 18.5417 16.263 18.5033C17.0613 17.9588 17.5025 17.025 17.4163 16.0625C17.4319 15.2843 17.1296 14.5333 16.5792 13.9829C16.0288 13.4325 15.2779 13.1303 14.4997 13.1458Z" fill="#5A5A5A"/>
</g>
</svg>
