<?xml version="1.0" encoding="UTF-8"?>
<svg width="24px" height="24px" viewBox="0 0 24 24" version="1.1" xmlns="http://www.w3.org/2000/svg" xmlns:xlink="http://www.w3.org/1999/xlink">
    <title>8. Work Office/browser_idea</title>
    <g id="8.-Work-Office/browser_idea" stroke="none" stroke-width="1" fill="none" fill-rule="evenodd">
        <path d="M15.3333333,20.4375 C15.6785113,20.4375 15.9583333,20.717322 15.9583333,21.0625 C15.9583333,21.407678 15.6785113,21.6875 15.3333333,21.6875 L15.3333333,21.6875 L13.6666667,21.6875 C13.3214887,21.6875 13.0416667,21.407678 13.0416667,21.0625 C13.0416667,20.717322 13.3214887,20.4375 13.6666667,20.4375 L13.6666667,20.4375 Z M14.5,13.1458333 C15.2782193,13.1302551 16.0291705,13.4325407 16.5795649,13.9829351 C17.1299593,14.5333295 17.4322449,15.2842807 17.4166667,16.0625 C17.5028691,17.0249835 17.0616304,17.9587902 16.2633333,18.5033333 C16.2032665,18.5416548 16.1668381,18.6079169 16.1666667,18.6791667 L16.1666667,18.6791667 L16.1666667,18.9791667 C16.1666667,19.2092853 15.9801186,19.3958333 15.75,19.3958333 L15.75,19.3958333 L13.25,19.3958333 C13.0198814,19.3958333 12.8333333,19.2092853 12.8333333,18.9791667 L12.8333333,18.9791667 L12.8333333,18.6908333 C12.8331619,18.6195836 12.7967335,18.5533215 12.7366667,18.515 C11.9373008,17.9659667 11.4963679,17.0283469 11.5833333,16.0625 C11.5675174,15.2842111 11.8697267,14.5331207 12.4201737,13.9826737 C12.9706207,13.4322267 13.7217111,13.1300174 14.5,13.1458333 Z M18.6666667,2.3125 C19.3297079,2.3125 19.9655927,2.5758921 20.4344336,3.04473305 C20.9032746,3.51357399 21.1666667,4.14945878 21.1666667,4.8125 L21.1666667,4.8125 L21.1666667,9.39583333 C21.1666667,9.85607062 20.7935706,10.2291667 20.3333333,10.2291667 C19.873096,10.2291667 19.5,9.85607062 19.5,9.39583333 L19.5,9.39583333 L19.5,6.6875 C19.5002226,6.63217862 19.4783448,6.57905877 19.4392263,6.53994033 C19.4001079,6.50082189 19.346988,6.47894404 19.2916667,6.47916667 L19.2916667,6.47916667 L4.70833333,6.47916667 C4.65301195,6.47894404 4.5998921,6.50082189 4.56077366,6.53994033 C4.52165522,6.57905877 4.49977738,6.63217862 4.5,6.6875 L4.5,6.6875 L4.5,14.3958333 C4.5,14.8560706 4.87309604,15.2291667 5.33333333,15.2291667 C5.79357062,15.2291667 6.16666667,15.6022627 6.16666667,16.0625 C6.16666667,16.5227373 5.79357062,16.8958333 5.33333333,16.8958333 C3.95262146,16.8958333 2.83333333,15.7765452 2.83333333,14.3958333 L2.83333333,14.3958333 L2.83333333,4.8125 C2.83333333,3.43178813 3.95262146,2.3125 5.33333333,2.3125 L5.33333333,2.3125 Z M9.91666667,15.4375 C10.2618446,15.4375 10.5416667,15.717322 10.5416667,16.0625 C10.5416667,16.407678 10.2618446,16.6875 9.91666667,16.6875 L9.91666667,16.6875 L8.66666667,16.6875 C8.3214887,16.6875 8.04166667,16.407678 8.04166667,16.0625 C8.04166667,15.717322 8.3214887,15.4375 8.66666667,15.4375 L8.66666667,15.4375 Z M20.3333333,15.4375 C20.6785113,15.4375 20.9583333,15.717322 20.9583333,16.0625 C20.9583333,16.407678 20.6785113,16.6875 20.3333333,16.6875 L20.3333333,16.6875 L19.0833333,16.6875 C18.7381554,16.6875 18.4583333,16.407678 18.4583333,16.0625 C18.4583333,15.717322 18.7381554,15.4375 19.0833333,15.4375 L19.0833333,15.4375 Z M18.8658333,11.6425 C19.0226786,11.4799549 19.2550242,11.4146866 19.4735685,11.4717809 C19.6921128,11.5288753 19.8628455,11.6994471 19.9201459,11.9179375 C19.9774463,12.1364278 19.9123972,12.3688348 19.75,12.5258333 L19.75,12.5258333 L18.6916667,13.5875 C18.5346682,13.7498972 18.3022611,13.8149463 18.0837708,13.7576459 C17.8652804,13.7003455 17.6947086,13.5296128 17.6376143,13.3110685 C17.5805199,13.0925242 17.6457882,12.8601786 17.8083333,12.7033333 L17.8083333,12.7033333 Z M9.51244832,11.449226 C9.73848564,11.3934449 9.97679239,11.4679268 10.1308333,11.6425 L10.1308333,11.6425 L11.1916667,12.7033333 C11.4286425,12.948458 11.4254402,13.3382779 11.1844691,13.5794763 C10.9434981,13.8206747 10.5536814,13.8242446 10.3083333,13.5875 L10.3083333,13.5875 L9.25,12.5258333 C9.07499097,12.3722878 8.99983395,12.1341931 9.05497417,11.9079986 C9.11011439,11.6818041 9.286411,11.5050071 9.51244832,11.449226 Z M14.5,9.60416667 C14.845178,9.60416667 15.125,9.8839887 15.125,10.2291667 L15.125,10.2291667 L15.125,11.4791667 C15.125,11.8243446 14.845178,12.1041667 14.5,12.1041667 C14.154822,12.1041667 13.875,11.8243446 13.875,11.4791667 L13.875,11.4791667 L13.875,10.2291667 C13.875,9.8839887 14.154822,9.60416667 14.5,9.60416667 Z M8.04166667,3.97916667 C7.6964887,3.97916667 7.41666611,4.2589887 7.41666611,4.60416667 C7.41644512,4.76999479 7.482222,4.92909474 7.59948029,5.04635304 C7.71673859,5.16361134 7.87583854,5.22938821 8.04166667,5.22916722 C8.38684464,5.22916722 8.66666667,4.94934464 8.66666667,4.60416667 C8.66666667,4.2589887 8.38684464,3.97916667 8.04166667,3.97916667 Z M10.125,3.97916667 C9.77982203,3.97916667 9.49999944,4.2589887 9.49999944,4.60416667 C9.49977845,4.76999479 9.56555533,4.92909474 9.68281363,5.04635304 C9.80007192,5.16361134 9.95917187,5.22938821 10.125,5.22916722 C10.470178,5.22916722 10.75,4.94934464 10.75,4.60416667 C10.75,4.2589887 10.470178,3.97916667 10.125,3.97916667 Z M5.95833333,3.97916667 C5.61315536,3.97916667 5.33333333,4.2589887 5.33333333,4.60416667 C5.33333333,4.94934464 5.61315536,5.22916667 5.95833333,5.22916667 C6.3035113,5.22916667 6.58333333,4.94934464 6.58333333,4.60416667 C6.58333333,4.2589887 6.3035113,3.97916667 5.95833333,3.97916667 Z" id="ðŸ–-Color" fill="#5A5A5A"></path>
        <rect id="_Transparent_Rectangle_" x="0" y="0" width="24" height="24"></rect>
    </g>
</svg>