<svg width="24" height="24" viewBox="0 0 24 24" fill="none" xmlns="http://www.w3.org/2000/svg">
<g id="bulb_1">
<path id="Shape" fill-rule="evenodd" clip-rule="evenodd" d="M11.183 4.41167V2.8525C11.183 2.40147 11.5486 2.03583 11.9997 2.03583C12.4507 2.03583 12.8163 2.40147 12.8163 2.8525V4.41167C12.8163 4.8627 12.4507 5.22833 11.9997 5.22833C11.5486 5.22833 11.183 4.8627 11.183 4.41167ZM11.9997 5.43167C8.7488 5.47655 6.12512 8.10244 6.08299 11.3533C6.0558 13.7576 7.51112 15.9306 9.74465 16.8208C9.8136 16.8471 9.88672 16.8606 9.96049 16.8608C9.97165 16.8609 9.98217 16.8556 9.98882 16.8467C9.99623 16.8382 9.99903 16.8267 9.99632 16.8158L8.95215 11.885C8.90499 11.6627 8.98497 11.4325 9.15985 11.2874C9.33473 11.1422 9.57566 11.106 9.78549 11.1933L10.9797 11.6933C11.633 11.9639 12.3671 11.9639 13.0205 11.6933L14.2138 11.1933C14.4236 11.106 14.6646 11.1422 14.8395 11.2874C15.0143 11.4325 15.0943 11.6627 15.0472 11.885L14.0047 16.8158C14.0019 16.8267 14.0047 16.8382 14.0122 16.8467C14.019 16.8553 14.0294 16.8605 14.0405 16.8608C14.1143 16.8606 14.1874 16.8471 14.2563 16.8208C16.4892 15.9301 17.9438 13.7572 17.9163 11.3533C17.8742 8.10244 15.2505 5.47655 11.9997 5.43167ZM13.583 12.8967C13.5865 12.8728 13.5774 12.8488 13.5588 12.8333C13.5398 12.8174 13.5133 12.8135 13.4905 12.8233C12.5358 13.2184 11.4635 13.2184 10.5088 12.8233C10.486 12.8135 10.4595 12.8174 10.4405 12.8333C10.4214 12.8495 10.4125 12.8746 10.4172 12.8992L11.2213 16.6975C11.2408 16.7944 11.3258 16.8641 11.4247 16.8642H12.5747C12.6735 16.8641 12.7585 16.7944 12.778 16.6975L13.583 12.8967ZM4.89049 10.1258H3.02049C2.72265 10.1163 2.44327 10.2698 2.29154 10.5262C2.1398 10.7827 2.1398 11.1015 2.29154 11.3579C2.44327 11.6144 2.72265 11.7679 3.02049 11.7583H4.89049C5.33114 11.7443 5.68107 11.383 5.68107 10.9421C5.68107 10.5012 5.33114 10.1399 4.89049 10.1258ZM4.31848 4.89375C4.31848 4.67721 4.40466 4.46957 4.55799 4.31667C4.71089 4.16334 4.91853 4.07717 5.13507 4.07717C5.35161 4.07717 5.55925 4.16334 5.71215 4.31667L7.27048 5.875C7.57604 6.19592 7.56992 6.70195 7.25671 7.0154C6.94349 7.32884 6.43746 7.33532 6.11632 7.03L4.55799 5.47083C4.40466 5.31793 4.31848 5.11029 4.31848 4.89375ZM20.9797 10.1258H19.1088C18.6682 10.1399 18.3182 10.5012 18.3182 10.9421C18.3182 11.383 18.6682 11.7443 19.1088 11.7583H20.9797C21.4203 11.7443 21.7702 11.383 21.7702 10.9421C21.7702 10.5012 21.4203 10.1399 20.9797 10.1258ZM16.7288 5.875L18.2872 4.31667C18.4933 4.11049 18.7938 4.02998 19.0755 4.10544C19.3571 4.1809 19.5771 4.40089 19.6525 4.68252C19.728 4.96416 19.6475 5.26466 19.4413 5.47083L17.883 7.03C17.5618 7.33532 17.0558 7.32884 16.7426 7.0154C16.4294 6.70195 16.4233 6.19592 16.7288 5.875ZM9.95882 17.4725C9.66098 17.463 9.3816 17.6164 9.22987 17.8729C9.07813 18.1294 9.07813 18.4481 9.22987 18.7046C9.3816 18.9611 9.66098 19.1145 9.95882 19.105H14.0422C14.34 19.1145 14.6194 18.9611 14.7711 18.7046C14.9228 18.4481 14.9228 18.1294 14.7711 17.8729C14.6194 17.6164 14.34 17.463 14.0422 17.4725H9.95882ZM9.95715 19.5133H14.0405H14.0438C14.4949 19.5133 14.8605 19.879 14.8605 20.33C14.8605 20.781 14.4949 21.1467 14.0438 21.1467H13.0063C12.9073 21.1466 12.822 21.2163 12.8022 21.3133C12.7226 21.6913 12.3892 21.9618 12.003 21.9618C11.6168 21.9618 11.2833 21.6913 11.2038 21.3133C11.184 21.2163 11.0987 21.1466 10.9997 21.1467H9.95715C9.50612 21.1467 9.14049 20.781 9.14049 20.33C9.14049 19.879 9.50612 19.5133 9.95715 19.5133Z" fill="#5A5A5A"/>
</g>
</svg>
