<?xml version="1.0" encoding="UTF-8"?>
<svg width="24px" height="24px" viewBox="0 0 24 24" version="1.1" xmlns="http://www.w3.org/2000/svg" xmlns:xlink="http://www.w3.org/1999/xlink">
    <title>8. Work Office/bulb_1</title>
    <g id="8.-Work-Office/bulb_1" stroke="none" stroke-width="1" fill="none" fill-rule="evenodd">
        <path d="M14.0441667,19.5133333 C14.4951992,19.5133333 14.8608333,19.8789675 14.8608333,20.33 C14.8608333,20.7810325 14.4951992,21.1466667 14.0441667,21.1466667 L14.0441667,21.1466667 L13.0066667,21.1466667 C12.9076524,21.1466465 12.8223029,21.2163195 12.8025,21.3133333 C12.7229736,21.6912805 12.3895568,21.9618421 12.0033333,21.9618421 C11.6171099,21.9618421 11.283693,21.6912805 11.2041667,21.3133333 C11.1843638,21.2163195 11.0990143,21.1466465 11,21.1466667 L11,21.1466667 L9.9575,21.1466667 C9.50646745,21.1466667 9.14083333,20.7810325 9.14083333,20.33 C9.14083333,19.8789675 9.50646745,19.5133333 9.9575,19.5133333 L9.9575,19.5133333 Z M14.0425,17.4725 C14.3403375,17.4629823 14.6197158,17.6164435 14.7714501,17.8729088 C14.9231844,18.1293742 14.9231844,18.4481258 14.7714501,18.7045912 C14.6197158,18.9610565 14.3403375,19.1145177 14.0425,19.105 L14.0425,19.105 L9.95916667,19.105 C9.66132917,19.1145177 9.38195083,18.9610565 9.23021656,18.7045912 C9.0784823,18.4481258 9.0784823,18.1293742 9.23021656,17.8729088 C9.38195083,17.6164435 9.66132917,17.4629823 9.95916667,17.4725 L9.95916667,17.4725 Z M13.4908333,12.8233333 C13.5136716,12.8134929 13.5401058,12.8173613 13.5591667,12.8333333 C13.5777242,12.8487794 13.5868841,12.8727846 13.5833333,12.8966667 L13.5833333,12.8966667 L12.7783333,16.6975 C12.7588875,16.7943846 12.6738169,16.8641146 12.575,16.8641667 L12.575,16.8641667 L11.425,16.8641667 C11.3261831,16.8641146 11.2411125,16.7943846 11.2216667,16.6975 L11.2216667,16.6975 L10.4175,12.8991667 C10.4128129,12.8746183 10.421733,12.8494507 10.4408333,12.8333333 C10.4598942,12.8173613 10.4863284,12.8134929 10.5091667,12.8233333 C11.4638061,13.2183503 12.5361939,13.2183503 13.4908333,12.8233333 Z M12,5.43166667 C15.2508545,5.47654867 17.8745307,8.10244203 17.9166667,11.3533333 C17.944119,13.7571686 16.4895455,15.9300868 14.2566667,16.8208333 C14.1877229,16.8470725 14.1146012,16.860624 14.0408333,16.860834 C14.02976,16.8605277 14.0193885,16.8553419 14.0125,16.8466667 C14.0050894,16.8382436 14.0022862,16.8267191 14.005,16.8158333 L14.005,16.8158333 L15.0475,11.885 C15.0946638,11.6626823 15.014679,11.432544 14.8398026,11.2873965 C14.6649261,11.142249 14.4239924,11.1060251 14.2141667,11.1933333 L14.2141667,11.1933333 L13.0208333,11.6933333 C12.3674674,11.9639439 11.633366,11.9639439 10.98,11.6933333 L10.98,11.6933333 L9.78583333,11.1933333 C9.57600761,11.1060251 9.33507388,11.142249 9.16019742,11.2873965 C8.98532097,11.432544 8.90533624,11.6626823 8.9525,11.885 L8.9525,11.885 L9.99666667,16.8158333 C9.99938051,16.8267191 9.99657726,16.8382436 9.98916667,16.8466667 C9.98252195,16.8556372 9.97199659,16.860834 9.96083333,16.860834 C9.88706546,16.860624 9.8139438,16.8470725 9.745,16.8208333 C7.51146592,15.9306206 6.05614982,13.7575826 6.08333333,11.3533333 C6.12546928,8.10244203 8.74914545,5.47654867 12,5.43166667 Z M4.89083333,10.1258333 C5.3314861,10.1399149 5.68141587,10.5012056 5.68141587,10.9420833 C5.68141587,11.382961 5.3314861,11.7442518 4.89083333,11.7583333 L4.89083333,11.7583333 L3.02083333,11.7583333 C2.72299584,11.767851 2.44361749,11.6143898 2.29188323,11.3579245 C2.14014897,11.1014591 2.14014897,10.7827075 2.29188323,10.5262422 C2.44361749,10.2697768 2.72299584,10.1163156 3.02083333,10.1258333 L3.02083333,10.1258333 Z M20.98,10.1258333 C21.4206528,10.1399149 21.7705825,10.5012056 21.7705825,10.9420833 C21.7705825,11.382961 21.4206528,11.7442518 20.98,11.7583333 L20.98,11.7583333 L19.1091667,11.7583333 C18.6685139,11.7442518 18.3185841,11.382961 18.3185841,10.9420833 C18.3185841,10.5012056 18.6685139,10.1399149 19.1091667,10.1258333 L19.1091667,10.1258333 Z M5.13541667,4.0771663 C5.35195618,4.0771663 5.55959397,4.16333986 5.7125,4.31666667 L5.7125,4.31666667 L7.27083333,5.875 C7.57638479,6.19591993 7.57027008,6.70195383 7.25705324,7.01539682 C6.94383641,7.3288398 6.43780705,7.33531974 6.11666667,7.03 L6.11666667,7.03 L4.55833333,5.47083333 C4.40500653,5.31792731 4.31883297,5.11028952 4.31883297,4.89375 C4.31883297,4.67721048 4.40500653,4.46957269 4.55833333,4.31666667 C4.71123936,4.16333986 4.91887715,4.0771663 5.13541667,4.0771663 Z M18.2875,4.31666667 C18.493672,4.11049465 18.7941743,4.02997531 19.0758105,4.10543951 C19.3574467,4.1809037 19.5774296,4.40088663 19.6528938,4.68252284 C19.728358,4.96415905 19.6478387,5.26466132 19.4416667,5.47083333 L19.4416667,5.47083333 L17.8833333,7.03 C17.562193,7.33531974 17.0561636,7.3288398 16.7429468,7.01539682 C16.4297299,6.70195383 16.4236152,6.19591993 16.7291667,5.875 L16.7291667,5.875 Z M12,2.03583333 C12.4510325,2.03583333 12.8166667,2.40146745 12.8166667,2.8525 L12.8166667,2.8525 L12.8166667,4.41166667 C12.8166667,4.86269921 12.4510325,5.22833333 12,5.22833333 C11.5489675,5.22833333 11.1833333,4.86269921 11.1833333,4.41166667 L11.1833333,4.41166667 L11.1833333,2.8525 C11.1833333,2.40146745 11.5489675,2.03583333 12,2.03583333 Z" id="ðŸ–-Color" fill="#5A5A5A"></path>
        <rect id="_Transparent_Rectangle_" x="0" y="0" width="24" height="24"></rect>
    </g>
</svg>