<svg width="24" height="24" viewBox="0 0 24 24" fill="none" xmlns="http://www.w3.org/2000/svg">
<g id="file_doc_1">
<path id="Shape" fill-rule="evenodd" clip-rule="evenodd" d="M3.66699 2H20.3337C21.024 2 21.5837 2.55964 21.5837 3.25V20.75C21.5837 21.4404 21.024 22 20.3337 22H3.66699C2.97664 22 2.41699 21.4404 2.41699 20.75V3.25C2.41699 2.55964 2.97664 2 3.66699 2ZM4.81283 18.2483C4.81283 18.536 5.04601 18.7692 5.33366 18.7692C7.46226 18.7692 9.18783 17.0436 9.18783 14.915C9.18783 12.7864 7.46226 11.0608 5.33366 11.0608C5.19553 11.0608 5.06305 11.1157 4.96537 11.2134C4.8677 11.3111 4.81283 11.4435 4.81283 11.5817V18.2483ZM14.1878 16.5833C14.1878 17.7915 13.2084 18.7708 12.0003 18.7708C10.7922 18.7708 9.81283 17.7915 9.81283 16.5833V13.25C9.81283 12.0419 10.7922 11.0625 12.0003 11.0625C13.2084 11.0625 14.1878 12.0419 14.1878 13.25V16.5833ZM19.1878 18.2483C19.1878 17.9607 18.9546 17.7275 18.667 17.7275C17.1137 17.7275 15.8545 16.4683 15.8545 14.915C15.8545 13.3617 17.1137 12.1025 18.667 12.1025C18.9546 12.1025 19.1878 11.8693 19.1878 11.5817C19.1878 11.294 18.9546 11.0608 18.667 11.0608C16.5384 11.0608 14.8128 12.7864 14.8128 14.915C14.8128 17.0436 16.5384 18.7692 18.667 18.7692C18.9546 18.7692 19.1878 18.536 19.1878 18.2483ZM5.85449 12.3283V17.4658C5.85449 17.675 6.05116 17.6325 6.14699 17.6075C7.35221 17.2435 8.16869 16.1228 8.14582 14.864C8.12295 13.6053 7.26631 12.515 6.04866 12.195C6.00478 12.181 5.95692 12.1881 5.91896 12.2142C5.881 12.2402 5.85721 12.2824 5.85449 12.3283ZM10.8545 13.25C10.8545 12.6169 11.3672 12.1034 12.0003 12.1025C12.6334 12.1034 13.1462 12.6169 13.1462 13.25V16.5833C13.1462 17.2162 12.6332 17.7292 12.0003 17.7292C11.3675 17.7292 10.8545 17.2162 10.8545 16.5833V13.25Z" fill="#5A5A5A"/>
</g>
</svg>
