<?xml version="1.0" encoding="UTF-8"?>
<svg width="24px" height="24px" viewBox="0 0 24 24" version="1.1" xmlns="http://www.w3.org/2000/svg" xmlns:xlink="http://www.w3.org/1999/xlink">
    <title>8. Work Office/file_doc_1</title>
    <g id="8.-Work-Office/file_doc_1" stroke="none" stroke-width="1" fill="none" fill-rule="evenodd">
        <path d="M20.3333333,2 C21.0236893,2 21.5833333,2.55964406 21.5833333,3.25 L21.5833333,3.25 L21.5833333,20.75 C21.5833333,21.4403559 21.0236893,22 20.3333333,22 L20.3333333,22 L3.66666667,22 C2.97631073,22 2.41666667,21.4403559 2.41666667,20.75 L2.41666667,20.75 L2.41666667,3.25 C2.41666667,2.55964406 2.97631073,2 3.66666667,2 L3.66666667,2 Z M12,11.0625 C10.7918771,11.0625 9.8125,12.0418771 9.8125,13.25 L9.8125,13.25 L9.8125,16.5833333 C9.8125,17.7914562 10.7918771,18.7708333 12,18.7708333 C13.2081229,18.7708333 14.1875,17.7914562 14.1875,16.5833333 L14.1875,16.5833333 L14.1875,13.25 C14.1875,12.0418771 13.2081229,11.0625 12,11.0625 Z M5.33333333,11.0608333 C5.19519974,11.0608333 5.06272375,11.1157067 4.96504855,11.2133819 C4.86737335,11.3110571 4.8125,11.4435331 4.8125,11.5816667 L4.8125,11.5816667 L4.8125,18.2483333 C4.8125,18.5359816 5.04568503,18.7691667 5.33333333,18.7691667 C7.46193081,18.7691667 9.1875,17.0435975 9.1875,14.915 C9.1875,12.7864025 7.46193081,11.0608333 5.33333333,11.0608333 Z M18.6666667,11.0608333 C16.5380692,11.0608333 14.8125,12.7864025 14.8125,14.915 C14.8125,17.0435975 16.5380692,18.7691667 18.6666667,18.7691667 C18.954315,18.7691667 19.1875,18.5359816 19.1875,18.2483333 C19.1875,17.960685 18.954315,17.7275 18.6666667,17.7275 C17.1133658,17.7275 15.8541667,16.4683009 15.8541667,14.915 C15.8541667,13.3616991 17.1133658,12.1025 18.6666667,12.1025 C18.954315,12.1025 19.1875,11.869315 19.1875,11.5816667 C19.1875,11.2940184 18.954315,11.0608333 18.6666667,11.0608333 Z M12,12.1025 C12.6330958,12.1034195 13.1458333,12.6169036 13.1458333,13.25 L13.1458333,13.25 L13.1458333,16.5833333 C13.1458333,17.2161596 12.6328263,17.7291667 12,17.7291667 C11.3671737,17.7291667 10.8541667,17.2161596 10.8541667,16.5833333 L10.8541667,16.5833333 L10.8541667,13.25 C10.8541667,12.6169036 11.3669042,12.1034195 12,12.1025 Z M6.00364261,12.1879681 L6.04833333,12.195 C7.26598247,12.5150085 8.12262647,13.6052525 8.14549594,14.8640424 C8.16836541,16.1228322 7.35188838,17.2434733 6.14666667,17.6075 C6.05083333,17.6325 5.85416667,17.675 5.85416667,17.4658333 L5.85416667,17.4658333 L5.85416667,12.3283333 C5.85688347,12.2823682 5.88067593,12.2402341 5.91863345,12.2141688 C5.95659097,12.1881036 6.00445871,12.181029 6.04833333,12.195 Z" id="ðŸ–-Color" fill="#5A5A5A"></path>
        <rect id="_Transparent_Rectangle_" x="0" y="0" width="24" height="24"></rect>
    </g>
</svg>