<svg width="24" height="24" viewBox="0 0 24 24" fill="none" xmlns="http://www.w3.org/2000/svg">
<g id="head_idea">
<path id="Shape" fill-rule="evenodd" clip-rule="evenodd" d="M18.4225 4.88083C18.2663 5.03712 18.0543 5.12495 17.8333 5.125C17.496 5.12527 17.1917 4.9221 17.0627 4.61039C16.9337 4.29867 17.0053 3.93992 17.2442 3.70167L18.0775 2.86833C18.2881 2.65784 18.5951 2.57572 18.8827 2.65289C19.1703 2.73006 19.3949 2.95481 19.4718 3.24247C19.5488 3.53014 19.4665 3.83701 19.2558 4.0475L18.4225 4.88083ZM18.6667 6.79167C18.2064 6.79167 17.8333 7.16476 17.8333 7.625C17.8333 8.08524 18.2064 8.45833 18.6667 8.45833H19.5C19.9602 8.45833 20.3333 8.08524 20.3333 7.625C20.3333 7.16476 19.9602 6.79167 19.5 6.79167H18.6667ZM13.25 14.0833H10.75C10.4048 14.0833 10.125 14.3632 10.125 14.7083C10.125 15.0535 10.4048 15.3333 10.75 15.3333H13.25C13.5952 15.3333 13.875 15.0535 13.875 14.7083C13.875 14.3632 13.5952 14.0833 13.25 14.0833ZM4.5 8.45833H5.33333C5.79357 8.45833 6.16667 8.08524 6.16667 7.625C6.16667 7.16476 5.79357 6.79167 5.33333 6.79167H4.5C4.03976 6.79167 3.66667 7.16476 3.66667 7.625C3.66667 8.08524 4.03976 8.45833 4.5 8.45833ZM6.75625 4.88042C6.43086 5.20603 5.90312 5.20622 5.5775 4.88083L4.74417 4.0475C4.41855 3.72211 4.41836 3.19437 4.74375 2.86875C5.06914 2.54313 5.59688 2.54295 5.9225 2.86833L6.75583 3.70167C7.08145 4.02705 7.08164 4.5548 6.75625 4.88042ZM18.0775 12.3808C18.2881 12.5913 18.5951 12.6734 18.8827 12.5963C19.1703 12.5191 19.3949 12.2944 19.4718 12.0067C19.5488 11.719 19.4665 11.4122 19.2558 11.2017L18.4225 10.3683C18.0969 10.0429 17.5691 10.0431 17.2437 10.3688C16.9184 10.6944 16.9185 11.2221 17.2442 11.5475L18.0775 12.3808ZM4.74417 11.2017L5.5775 10.3683C5.90312 10.0429 6.43086 10.0431 6.75625 10.3688C7.08164 10.6944 7.08145 11.2221 6.75583 11.5475L5.9225 12.3808C5.71186 12.5913 5.40493 12.6734 5.11732 12.5963C4.82971 12.5191 4.60513 12.2944 4.52816 12.0067C4.45119 11.719 4.53353 11.4122 4.74417 11.2017ZM16.5833 7.625C16.5917 5.38418 14.9785 3.46587 12.7694 3.0897C10.5604 2.71352 8.40325 3.98978 7.66943 6.10706C6.9356 8.22433 7.8403 10.5618 9.80833 11.6333C9.87505 11.6702 9.91652 11.7404 9.91667 11.8167V12.2083C9.91667 12.6686 10.2898 13.0417 10.75 13.0417H13.25C13.7102 13.0417 14.0833 12.6686 14.0833 12.2083V11.8167C14.0835 11.7404 14.125 11.6702 14.1917 11.6333C15.6605 10.8336 16.5771 9.29739 16.5833 7.625ZM8.46935 16.0156C8.58163 16.0844 8.65479 16.2022 8.66667 16.3333L9.08333 20.92C9.09414 21.037 9.05506 21.1531 8.97572 21.2397C8.89638 21.3264 8.78415 21.3755 8.66667 21.375H2.41667C2.18655 21.375 2 21.1885 2 20.9583C2.00329 19.3965 2.96989 17.9986 4.43 17.4442L8.09667 15.9842C8.21888 15.9352 8.35707 15.9468 8.46935 16.0156ZM19.5725 17.4492L15.9058 15.9875C15.7839 15.9376 15.6455 15.9484 15.5327 16.0165C15.4198 16.0847 15.3459 16.2021 15.3333 16.3333L14.9167 20.9167C14.9059 21.0337 14.9449 21.1498 15.0243 21.2364C15.1036 21.323 15.2159 21.3722 15.3333 21.3717H21.5833C21.8135 21.3717 22 21.1851 22 20.955C21.9913 19.3976 21.0273 18.0053 19.5725 17.4492ZM12 17.4406C12.1634 17.4406 12.3129 17.5325 12.3867 17.6783L13.6367 20.8033C13.6881 20.9317 13.6725 21.0772 13.595 21.1918C13.5176 21.3063 13.3883 21.375 13.25 21.375H10.75C10.6117 21.375 10.4824 21.3063 10.405 21.1918C10.3275 21.0772 10.3119 20.9317 10.3633 20.8033L11.6133 17.6783C11.6871 17.5325 11.8366 17.4406 12 17.4406Z" fill="#5A5A5A"/>
</g>
</svg>
