<?xml version="1.0" encoding="UTF-8"?>
<svg width="24px" height="24px" viewBox="0 0 24 24" version="1.1" xmlns="http://www.w3.org/2000/svg" xmlns:xlink="http://www.w3.org/1999/xlink">
    <title>8. Work Office/head_idea</title>
    <g id="8.-Work-Office/head_idea" stroke="none" stroke-width="1" fill="none" fill-rule="evenodd">
        <path d="M8.09666667,15.9841667 C8.21888437,15.9351748 8.35706772,15.9468352 8.46934747,16.0156148 C8.58162721,16.0843943 8.65478963,16.2021987 8.66666667,16.3333333 L8.66666667,16.3333333 L9.08333333,20.92 C9.09414272,21.0369835 9.05506406,21.1530943 8.97572178,21.2397361 C8.89637951,21.3263778 8.78414749,21.3754983 8.66666667,21.3750038 L8.66666667,21.3750038 L2.41666667,21.3750038 C2.18654802,21.3750038 2,21.188452 2,20.9583333 C2.00328787,19.3964962 2.96989244,17.9986322 4.43,17.4441667 L4.43,17.4441667 Z M12,17.4406187 C12.1633985,17.4406187 12.3129041,17.5325316 12.3866667,17.6783333 L12.3866667,17.6783333 L13.6366667,20.8033333 C13.688111,20.9316997 13.672514,21.0772264 13.5950349,21.1917753 C13.5175558,21.3063241 13.3882912,21.375 13.25,21.375 L13.25,21.375 L10.75,21.375 C10.6117088,21.375 10.4824442,21.3063241 10.4049651,21.1917753 C10.327486,21.0772264 10.311889,20.9316997 10.3633333,20.8033333 L10.3633333,20.8033333 L11.6133333,17.6783333 C11.6870959,17.5325316 11.8366015,17.4406187 12,17.4406187 Z M15.5326517,16.0165082 C15.6454578,15.9483648 15.7838521,15.9376071 15.9058333,15.9875 L15.9058333,15.9875 L19.5725,17.4491667 C21.0272638,18.0052973 21.9913076,19.3975844 22,20.955 C22,21.1851186 21.813452,21.3716704 21.5833333,21.3716704 L21.5833333,21.3716704 L15.3333333,21.3716704 C15.2158525,21.372165 15.1036205,21.3230445 15.0242782,21.2364027 C14.9449359,21.149761 14.9058573,21.0336502 14.9166667,20.9166667 L14.9166667,20.9166667 L15.3333333,16.3333333 C15.3459285,16.2021461 15.4198457,16.0846516 15.5326517,16.0165082 Z M13.25,14.0833333 C13.595178,14.0833333 13.875,14.3631554 13.875,14.7083333 C13.875,15.0535113 13.595178,15.3333333 13.25,15.3333333 L13.25,15.3333333 L10.75,15.3333333 C10.404822,15.3333333 10.125,15.0535113 10.125,14.7083333 C10.125,14.3631554 10.404822,14.0833333 10.75,14.0833333 L10.75,14.0833333 Z M7.669426,6.10705523 C8.40324799,3.98977643 10.5604093,2.71352233 12.7694488,3.08969855 C14.9784884,3.46587478 16.5916506,5.38417536 16.5833653,7.625 C16.5771134,9.29739072 15.6604784,10.8336325 14.1916667,11.6333333 C14.1249511,11.6702462 14.0834845,11.7404203 14.0833333,11.8166667 L14.0833333,11.8166667 L14.0833333,12.2083333 C14.0833333,12.6685706 13.7102373,13.0416667 13.25,13.0416667 L13.25,13.0416667 L10.75,13.0416667 C10.2897627,13.0416667 9.91666667,12.6685706 9.91666667,12.2083333 L9.91666667,12.2083333 L9.91666667,11.8166667 C9.91651547,11.7404203 9.87504893,11.6702462 9.80833333,11.6333333 C7.84029959,10.5617889 6.93560401,8.22433404 7.669426,6.10705523 Z M17.24375,10.36875 C17.5691378,10.0431321 18.0968821,10.0429456 18.4225,10.3683333 L18.4225,10.3683333 L19.2558333,11.2016667 C19.4664712,11.4121556 19.5488141,11.7190294 19.4718442,12.0066916 C19.3948743,12.2943539 19.1702852,12.5191018 18.8826775,12.596275 C18.5950698,12.6734482 18.2881378,12.5913223 18.0775,12.3808333 L18.0775,12.3808333 L17.2441667,11.5475 C16.9185488,11.2221122 16.9183623,10.6943679 17.24375,10.36875 Z M5.5775,10.3683333 C5.90311788,10.0429456 6.43086223,10.0431321 6.75625,10.36875 C7.08163777,10.6943679 7.08145122,11.2221122 6.75583333,11.5475 L6.75583333,11.5475 L5.9225,12.3808333 C5.71186216,12.5913223 5.40493024,12.6734482 5.11732251,12.596275 C4.82971478,12.5191018 4.60512571,12.2943539 4.52815583,12.0066916 C4.45118595,11.7190294 4.53352882,11.4121556 4.74416667,11.2016667 L4.74416667,11.2016667 Z M19.5,6.79166667 C19.9602373,6.79166667 20.3333333,7.16476271 20.3333333,7.625 C20.3333333,8.08523729 19.9602373,8.45833333 19.5,8.45833333 L19.5,8.45833333 L18.6666667,8.45833333 C18.2064294,8.45833333 17.8333333,8.08523729 17.8333333,7.625 C17.8333333,7.16476271 18.2064294,6.79166667 18.6666667,6.79166667 L18.6666667,6.79166667 Z M5.33333333,6.79166667 C5.79357062,6.79166667 6.16666667,7.16476271 6.16666667,7.625 C6.16666667,8.08523729 5.79357062,8.45833333 5.33333333,8.45833333 L5.33333333,8.45833333 L4.5,8.45833333 C4.03976271,8.45833333 3.66666667,8.08523729 3.66666667,7.625 C3.66666667,7.16476271 4.03976271,6.79166667 4.5,6.79166667 L4.5,6.79166667 Z M18.0775,2.86833333 C18.2881378,2.65784435 18.5950698,2.57571846 18.8826775,2.65289169 C19.1702852,2.73006491 19.3948743,2.95481282 19.4718442,3.24247503 C19.548814,3.53013724 19.4664712,3.83701102 19.2558333,4.0475 L19.2558333,4.0475 L18.4225,4.88083333 C18.2662561,5.03712448 18.054329,5.1249528 17.8333333,5.12500026 C17.4959703,5.1252658 17.1917302,4.9221 17.0627012,4.61038632 C16.9336722,4.29867264 17.0053134,3.93991663 17.2441667,3.70166667 L17.2441667,3.70166667 Z M4.74375001,2.86875001 C5.06913777,2.54313213 5.59688211,2.54294558 5.9225,2.86833333 L5.9225,2.86833333 L6.75583333,3.70166667 C7.08145121,4.02705443 7.08163775,4.55479878 6.75624999,4.88041666 C6.43086223,5.20603454 5.90311789,5.20622109 5.5775,4.88083333 L5.5775,4.88083333 L4.74416667,4.0475 C4.41854879,3.72211223 4.41836225,3.19436789 4.74375001,2.86875001 Z" id="ðŸ–-Color" fill="#5A5A5A"></path>
        <rect id="_Transparent_Rectangle_" x="2" y="2" width="20" height="20"></rect>
    </g>
</svg>