<?xml version="1.0" encoding="UTF-8"?>
<svg width="24px" height="24px" viewBox="0 0 24 24" version="1.1" xmlns="http://www.w3.org/2000/svg" xmlns:xlink="http://www.w3.org/1999/xlink">
    <title>8. Work Office/list_edit</title>
    <g id="8.-Work-Office/list_edit" stroke="none" stroke-width="1" fill="none" fill-rule="evenodd">
        <path d="M13.2687427,2.39959491 C13.4807838,2.39959491 13.6842176,2.483449 13.8343427,2.63319516 L13.8343427,2.63319516 L18.1647427,6.96439516 C18.3147822,7.11438935 18.399169,7.31783931 18.399169,7.52999516 L18.399169,7.52999516 L18.399169,13.6963952 C18.4000404,13.7501146 18.3779116,13.8016513 18.3383427,13.8379952 C18.1423427,14.0227952 17.5287427,14.6219952 17.1383427,15.0043952 C17.0809912,15.0610607 16.9951379,15.077568 16.920862,15.0462109 C16.8465861,15.0148539 16.7985359,14.9418165 16.7991427,14.8611952 L16.7991427,14.8611952 L16.7991427,8.19879516 C16.7987021,8.08865076 16.709288,7.99959428 16.5991427,7.99959516 L16.5991427,7.99959516 L14.3991427,7.99959516 C13.5154871,7.99959516 12.7991427,7.28325076 12.7991427,6.39959491 L12.7991427,6.39959491 L12.7991427,4.19959516 C12.7991427,4.08913821 12.7095997,3.99959516 12.5991427,3.99959516 L12.5991427,3.99959516 L4.39914271,3.99959516 C4.17822881,3.99959516 3.99914271,4.17868126 3.99914271,4.39959491 L3.99914271,4.39959491 L3.99914271,19.5995952 C3.99914271,19.8205091 4.17822881,19.9995952 4.39914271,19.9995952 L4.39914271,19.9995952 L13.1767427,19.9995952 C13.2346642,19.9992526 13.2898663,20.0241381 13.327965,20.0677672 C13.3660637,20.1113964 13.3832854,20.1694479 13.3751427,20.2267952 C13.3279427,20.5363952 13.2575427,21.0891952 13.2479427,21.4011952 C13.2466471,21.5102273 13.1585749,21.5982996 13.0495427,21.5995952 L13.0495427,21.5995952 L3.99914271,21.5995952 C3.11548711,21.5995952 2.39914271,20.8832508 2.39914271,19.9995952 L2.39914271,19.9995952 L2.39914271,3.99959516 C2.39914271,3.11593956 3.11548711,2.39959491 3.99914271,2.39959491 L3.99914271,2.39959491 Z M18.9871427,14.8467952 C19.583941,14.2511268 20.5503444,14.2511268 21.1471427,14.8467952 C21.4360951,15.1328533 21.5993356,15.5221389 21.600847,15.9287352 C21.6023375,16.3353314 21.4419753,16.7258116 21.1551427,17.0139952 L21.1551427,17.0139952 L17.0855427,21.0835952 C17.02962,21.139582 16.9583476,21.1777239 16.8807427,21.1931952 L16.8807427,21.1931952 L14.8807427,21.5931952 C14.8543633,21.5981166 14.8275769,21.6005273 14.8007427,21.6004003 C14.6804736,21.6006603 14.5664685,21.5467958 14.4903009,21.4537193 C14.4141334,21.3606429 14.3838885,21.2382346 14.4079427,21.1203952 L14.4079427,21.1203952 L14.8079427,19.1203952 C14.8238308,19.0431731 14.8619232,18.9722713 14.9175427,18.9163952 L14.9175427,18.9163952 Z M8.40526648,12.3469663 C8.61980429,12.1600069 8.94379952,12.1471984 9.1739427,12.3311952 C9.43285379,12.5381915 9.47493903,12.9158841 9.26794271,13.1747952 L9.26794271,13.1747952 L7.66794271,15.1747952 C7.56112813,15.3081297 7.40253883,15.3896068 7.23194271,15.3987952 L7.23194271,15.3987952 L7.19914271,15.3987952 C7.04018118,15.3988674 6.88768747,15.3358558 6.77514271,15.2235952 L6.77514271,15.2235952 L5.57514271,14.0235952 C5.34053215,13.7892055 5.34035307,13.4090057 5.57474271,13.1743952 C5.80913236,12.9397846 6.18933215,12.9396055 6.42394271,13.1739952 L6.42394271,13.1739952 L7.07355286,13.8243791 C7.0924976,13.8384757 7.11571028,13.8463713 7.13994271,13.8463713 C7.17629136,13.8463713 7.21034557,13.8286063 7.23114271,13.7987952 L7.23114271,13.7987952 L8.33114271,12.4243952 Z M11.9991427,13.7987952 C12.3305136,13.7987952 12.5991427,14.0674243 12.5991427,14.3987952 C12.5991427,14.730166 12.3305136,14.9987952 11.9991427,14.9987952 L11.9991427,14.9987952 L10.7991427,14.9987952 C10.4677719,14.9987952 10.1991427,14.730166 10.1991427,14.3987952 C10.1991427,14.0674243 10.4677719,13.7987952 10.7991427,13.7987952 L10.7991427,13.7987952 Z M8.33114271,8.02439516 C8.5381694,7.76576013 8.91563501,7.7238593 9.17434271,7.93079516 C9.29878105,8.03023288 9.37857167,8.17507139 9.39612918,8.33338908 C9.41368669,8.49170677 9.3675699,8.65050848 9.26794271,8.77479516 L9.26794271,8.77479516 L7.66794271,10.7747952 C7.56112813,10.9081297 7.40253883,10.9896068 7.23194271,10.9987952 L7.23194271,10.9987952 L7.19914271,10.9987952 C7.04018118,10.9988674 6.88768747,10.9358558 6.77514271,10.8235952 L6.77514271,10.8235952 L5.57514271,9.62359516 C5.42337629,9.47197165 5.36402851,9.25089932 5.41945511,9.04365398 C5.47488172,8.83640864 5.63666209,8.67447579 5.84385512,8.61885397 C6.05104815,8.56323215 6.27217629,8.62237164 6.42394271,8.77399516 L6.42394271,8.77399516 L7.07355286,9.4243791 C7.0924976,9.43847572 7.11571028,9.44637127 7.13994271,9.44637127 C7.17629136,9.44637127 7.21034557,9.42860628 7.23114271,9.39879516 L7.23114271,9.39879516 Z M12.7999427,9.39959516 C13.1313136,9.39959516 13.3999427,9.66822431 13.3999427,9.99959516 C13.3999427,10.1588638 13.3366189,10.3115975 13.223924,10.4241423 C13.1112291,10.5366872 12.9584112,10.5998075 12.7991427,10.5995957 L12.7991427,10.5995957 L10.7991427,10.5995957 C10.4677719,10.5995957 10.1991427,10.330966 10.1991427,9.99959516 C10.1991427,9.66822431 10.4677719,9.39959516 10.7991427,9.39959516 L10.7991427,9.39959516 Z" id="ðŸ–-Color" fill="#5A5A5A"></path>
        <rect id="_Transparent_Rectangle_" x="0" y="0" width="24" height="24"></rect>
    </g>
</svg>