<svg width="24" height="24" viewBox="0 0 24 24" fill="none" xmlns="http://www.w3.org/2000/svg">
<g id="list_edit">
<path id="Shape" fill-rule="evenodd" clip-rule="evenodd" d="M16.7994 8.1988V14.8612C16.7988 14.9418 16.8469 15.0149 16.9211 15.0462C16.9954 15.0776 17.0813 15.0611 17.1386 15.0044C17.529 14.622 18.1426 14.0228 18.3386 13.838C18.3782 13.8017 18.4003 13.7501 18.3994 13.6964V7.53C18.3994 7.31784 18.3151 7.11439 18.165 6.9644L13.8346 2.6332C13.6845 2.48345 13.4811 2.39943 13.269 2.3996H3.99941C3.11576 2.3996 2.39941 3.11594 2.39941 3.9996V19.9996C2.39941 20.8833 3.11576 21.5996 3.99941 21.5996H13.0498C13.1588 21.5983 13.2469 21.5102 13.2482 21.4012C13.2578 21.0892 13.3282 20.5364 13.3754 20.2268C13.3836 20.1695 13.3663 20.1114 13.3282 20.0678C13.2901 20.0241 13.2349 19.9993 13.177 19.9996H4.39941C4.1785 19.9996 3.99941 19.8205 3.99941 19.5996V4.3996C3.99941 4.17868 4.1785 3.9996 4.39941 3.9996H12.5994C12.7099 3.9996 12.7994 4.08914 12.7994 4.1996V6.3996C12.7994 7.28325 13.5158 7.9996 14.3994 7.9996H16.5994C16.7096 7.9996 16.799 8.08865 16.7994 8.1988ZM8.33141 8.0244C8.53844 7.76576 8.91591 7.72386 9.17461 7.9308C9.29905 8.03024 9.37884 8.17507 9.3964 8.33339C9.41396 8.49171 9.36784 8.65051 9.26821 8.7748L7.66821 10.7748C7.5614 10.9081 7.40281 10.9896 7.23221 10.9988H7.19941C7.04045 10.9989 6.88796 10.9359 6.77541 10.8236L5.57541 9.6236C5.42365 9.47197 5.3643 9.2509 5.41973 9.04366C5.47515 8.83641 5.63693 8.67448 5.84413 8.61886C6.05132 8.56323 6.27245 8.62237 6.42421 8.774L7.04901 9.3988C7.06981 9.42861 7.10387 9.44637 7.14021 9.44637C7.17656 9.44637 7.21062 9.42861 7.23141 9.3988L8.33141 8.0244ZM7.23141 13.7988L8.33141 12.4244L8.33061 12.4252C8.53761 12.1663 8.9153 12.1242 9.17421 12.3312C9.43313 12.5382 9.47521 12.9159 9.26821 13.1748L7.66821 15.1748C7.5614 15.3081 7.40281 15.3896 7.23221 15.3988H7.19941C7.04045 15.3989 6.88796 15.3359 6.77541 15.2236L5.57541 14.0236C5.3408 13.7892 5.34062 13.409 5.57501 13.1744C5.8094 12.9398 6.1896 12.9396 6.42421 13.174L7.04901 13.7988C7.06981 13.8286 7.10387 13.8464 7.14021 13.8464C7.17656 13.8464 7.21062 13.8286 7.23141 13.7988ZM13.4002 9.9996C13.4002 9.66823 13.1316 9.3996 12.8002 9.3996H10.7994C10.468 9.3996 10.1994 9.66823 10.1994 9.9996C10.1994 10.331 10.468 10.5996 10.7994 10.5996H12.7994C12.9587 10.5998 13.1115 10.5367 13.2242 10.4241C13.3369 10.3116 13.4002 10.1589 13.4002 9.9996ZM10.1994 14.3988C10.1994 14.0674 10.468 13.7988 10.7994 13.7988H11.9994C12.3308 13.7988 12.5994 14.0674 12.5994 14.3988C12.5994 14.7302 12.3308 14.9988 11.9994 14.9988H10.7994C10.468 14.9988 10.1994 14.7302 10.1994 14.3988ZM18.9874 14.8468C19.5842 14.2511 20.5506 14.2511 21.1474 14.8468C21.4364 15.1329 21.5996 15.5221 21.6011 15.9287C21.6026 16.3353 21.4422 16.7258 21.1554 17.014L17.0858 21.0836C17.0299 21.1396 16.9586 21.1777 16.881 21.1932L14.881 21.5932C14.8546 21.5981 14.8278 21.6005 14.801 21.6004C14.6807 21.6007 14.5667 21.5468 14.4906 21.4537C14.4144 21.3606 14.3842 21.2382 14.4082 21.1204L14.8082 19.1204C14.8241 19.0432 14.8622 18.9723 14.9178 18.9164L18.9874 14.8468Z" fill="#5A5A5A"/>
</g>
</svg>
