<svg width="24" height="24" viewBox="0 0 24 24" fill="none" xmlns="http://www.w3.org/2000/svg">
<g id="meeting_team_laptop">
<path id="Shape" fill-rule="evenodd" clip-rule="evenodd" d="M20.9583 11.5833H21.5833C21.6938 11.5833 21.7998 11.6272 21.878 11.7054C21.9561 11.7835 22 11.8895 22 12C21.9982 13.1493 21.066 14.08 19.9167 14.08H12.45C12.3912 14.0798 12.3351 14.0548 12.2957 14.0112C12.2562 13.9676 12.2369 13.9094 12.2425 13.8508C12.275 13.5308 12.2912 13.2092 12.2908 12.8875C12.2918 12.5331 12.2544 12.1797 12.1792 11.8333C12.1667 11.7722 12.1823 11.7086 12.2217 11.6602C12.2611 11.6118 12.3201 11.5836 12.3825 11.5833H18.875C18.9303 11.5836 18.9834 11.5617 19.0226 11.5226C19.0617 11.4834 19.0836 11.4303 19.0833 11.375V4.08333C19.0833 3.85321 18.8968 3.66667 18.6667 3.66667H8.66667C8.43655 3.66667 8.25 3.85321 8.25 4.08333V8.4625C8.25011 8.57407 8.1623 8.66592 8.05083 8.67083C7.64506 8.68691 7.24384 8.76244 6.86 8.895C6.7962 8.91675 6.72583 8.90643 6.67097 8.86726C6.61611 8.8281 6.58349 8.7649 6.58333 8.6975V3.66667C6.58333 2.74619 7.32953 2 8.25 2H19.0833C20.0038 2 20.75 2.74619 20.75 3.66667V11.375C20.7498 11.4303 20.7717 11.4834 20.8108 11.5226C20.8499 11.5617 20.903 11.5836 20.9583 11.5833ZM10.3009 10.7881C10.8318 11.3537 11.1004 12.1165 11.0408 12.89C11.1233 14.1322 10.746 15.3613 9.98083 16.3433C9.96123 16.365 9.94646 16.3905 9.9375 16.4183C9.87646 16.6361 9.87445 16.8662 9.93167 17.085V17.0958C9.95233 17.1541 9.99782 17.2002 10.0558 17.2217L10.45 17.3675L10.4521 17.3683L10.4521 17.3683L10.4521 17.3683C12.2502 18.0345 13.5477 18.5153 13.95 19.3242C14.2884 20.0308 14.4758 20.8002 14.5 21.5833C14.5 21.8135 14.3135 22 14.0833 22H2.41667C2.18655 22 2 21.8135 2 21.5833C2.02424 20.8002 2.21156 20.0308 2.55 19.3242C2.95513 18.5164 4.24964 18.0358 6.04062 17.371L6.04064 17.371L6.04065 17.371L6.05 17.3675L6.44417 17.2217C6.50231 17.2004 6.54788 17.1543 6.56833 17.0958V17.085C6.62772 16.8603 6.62252 16.6235 6.55333 16.4017C6.54463 16.3765 6.53103 16.3533 6.51333 16.3333C5.75158 15.354 5.3764 14.1288 5.45917 12.8908C5.39939 12.1172 5.66781 11.3542 6.19875 10.7883C6.72969 10.2225 7.47416 9.90617 8.25 9.91667C9.02569 9.90619 9.77001 10.2224 10.3009 10.7881ZM15.2658 5.85333C15.2658 6.60122 14.6596 7.2075 13.9117 7.2075C13.1638 7.2075 12.5575 6.60122 12.5575 5.85333C12.5575 5.10545 13.1638 4.49917 13.9117 4.49917C14.6596 4.49917 15.2658 5.10545 15.2658 5.85333ZM16.1046 9.76942C16.0409 9.86185 15.9356 9.91693 15.8233 9.91667H12C11.8877 9.91705 11.7824 9.86195 11.7188 9.76944C11.6551 9.67692 11.6412 9.55893 11.6817 9.45417C12.0198 8.51311 12.9121 7.8855 13.9121 7.8855C14.912 7.8855 15.8044 8.51311 16.1425 9.45417C16.1826 9.55907 16.1684 9.67699 16.1046 9.76942Z" fill="#5A5A5A"/>
</g>
</svg>
