<svg width="24" height="24" viewBox="0 0 24 24" fill="none" xmlns="http://www.w3.org/2000/svg">
<g id="meeting_camera_circle">
<path id="Shape" fill-rule="evenodd" clip-rule="evenodd" d="M2 12C2 6.47715 6.47715 2 12 2C17.5204 2.00597 21.994 6.47963 22 12C22 17.5228 17.5228 22 12 22C6.47715 22 2 17.5228 2 12ZM16.3656 14.6343C16.4995 14.5615 16.583 14.4215 16.5833 14.2692V9.73083C16.5833 9.57827 16.4998 9.43793 16.3658 9.365C16.2318 9.29239 16.0688 9.29878 15.9408 9.38167L14.405 10.3767C14.3408 10.4176 14.2594 10.4205 14.1925 10.3841C14.1256 10.3477 14.0838 10.2778 14.0833 10.2017V9.08333C14.0833 8.85321 13.8968 8.66667 13.6667 8.66667H7.83333C7.60321 8.66667 7.41667 8.85321 7.41667 9.08333V14.9167C7.41667 15.1468 7.60321 15.3333 7.83333 15.3333H13.6667C13.8968 15.3333 14.0833 15.1468 14.0833 14.9167V13.7983C14.0833 13.7219 14.125 13.6516 14.1921 13.6151C14.2592 13.5786 14.3409 13.5818 14.405 13.6233L15.9408 14.6183C16.0689 14.7009 16.2318 14.707 16.3656 14.6343Z" fill="#5A5A5A"/>
</g>
</svg>
