<?xml version="1.0" encoding="UTF-8"?>
<svg width="24px" height="24px" viewBox="0 0 24 24" version="1.1" xmlns="http://www.w3.org/2000/svg" xmlns:xlink="http://www.w3.org/1999/xlink">
    <title>8. Work Office/meeting_camera_circle</title>
    <g id="8.-Work-Office/meeting_camera_circle" stroke="none" stroke-width="1" fill="none" fill-rule="evenodd">
        <path d="M12,2 C6.4771525,2 2,6.4771525 2,12 C2,17.5228475 6.4771525,22 12,22 C17.5228475,22 22,17.5228475 22,12 C21.9940293,6.47962754 17.5203725,2.00597071 12,2 Z M16.5833333,14.2691667 C16.5829712,14.421519 16.4994862,14.5615267 16.3656238,14.6342743 C16.2317613,14.7070218 16.068867,14.7009089 15.9408333,14.6183333 L14.405,13.6233333 C14.3409039,13.5817782 14.2592057,13.5786337 14.1921051,13.6151392 C14.1250045,13.6516447 14.0832634,13.7219453 14.0833333,13.7983333 L14.0833333,14.9166667 C14.0833333,15.1467853 13.8967853,15.3333333 13.6666667,15.3333333 L7.83333333,15.3333333 C7.60321469,15.3333333 7.41666667,15.1467853 7.41666667,14.9166667 L7.41666667,9.08333333 C7.41666667,8.85321469 7.60321469,8.66666667 7.83333333,8.66666667 L13.6666667,8.66666667 C13.8967853,8.66666667 14.0833333,8.85321469 14.0833333,9.08333333 L14.0833333,10.2016667 C14.0838188,10.2778123 14.125647,10.3476784 14.192536,10.3840687 C14.259425,10.4204591 14.3408057,10.4176239 14.405,10.3766667 L15.9408333,9.38166667 C16.0687831,9.29877914 16.2317855,9.29238689 16.3658333,9.365 C16.4998429,9.43792747 16.5833333,9.57826539 16.5833333,9.73083333 L16.5833333,14.2691667 Z" id="ðŸ–-Color" fill="#5A5A5A"></path>
        <rect id="_Transparent_Rectangle_" x="0" y="0" width="24" height="24"></rect>
    </g>
</svg>