<svg width="24" height="24" viewBox="0 0 24 24" fill="none" xmlns="http://www.w3.org/2000/svg">
<g id="meeting_headphones_1">
<path id="Shape" fill-rule="evenodd" clip-rule="evenodd" d="M20.0325 10.4117C19.9621 10.3778 19.9167 10.3073 19.915 10.2292C19.915 5.85691 16.3706 2.3125 11.9983 2.3125C7.62608 2.3125 4.08167 5.85691 4.08167 10.2292C4.08037 10.3076 4.03534 10.3787 3.965 10.4133C3.17036 10.768 2.64941 11.5468 2.625 12.4167V14.9167C2.7073 16.2562 3.85397 17.279 5.19417 17.2083H7.13917C7.48434 17.2083 7.76417 16.9285 7.76417 16.5833V10.75C7.76417 10.4048 7.48434 10.125 7.13917 10.125H5.98C5.92218 10.1255 5.86683 10.1016 5.8275 10.0592C5.78846 10.0166 5.76832 9.96013 5.77167 9.9025C5.99282 6.62546 8.71551 4.08032 12 4.08032C15.2845 4.08032 18.0072 6.62546 18.2283 9.9025C18.2317 9.96013 18.2115 10.0166 18.1725 10.0592C18.1329 10.1012 18.0777 10.125 18.02 10.125H16.8608C16.5157 10.125 16.2358 10.4048 16.2358 10.75V16.5833C16.2358 16.9285 16.5157 17.2083 16.8608 17.2083H17.625C17.7401 17.2083 17.8333 17.3016 17.8333 17.4167C17.8333 18.3371 17.0871 19.0833 16.1667 19.0833H14.8C14.7306 19.0833 14.6658 19.049 14.6267 18.9917C14.219 18.381 13.4597 18.1091 12.757 18.3221C12.0544 18.5351 11.5739 19.1828 11.5739 19.9171C11.5739 20.6513 12.0544 21.2991 12.757 21.5121C13.4597 21.7251 14.219 21.4532 14.6267 20.8425C14.6657 20.785 14.7305 20.7504 14.8 20.75H16.1667C18.0076 20.75 19.5 19.2576 19.5 17.4167V17.2708C19.4999 17.1795 19.5594 17.0987 19.6467 17.0717C20.6338 16.8113 21.3351 15.9368 21.375 14.9167V12.4167C21.3502 11.5458 20.8282 10.7663 20.0325 10.4117Z" fill="#5A5A5A"/>
</g>
</svg>
