<?xml version="1.0" encoding="UTF-8"?>
<svg width="24px" height="24px" viewBox="0 0 24 24" version="1.1" xmlns="http://www.w3.org/2000/svg" xmlns:xlink="http://www.w3.org/1999/xlink">
    <title>8. Work Office/meeting_team_laptop</title>
    <g id="8.-Work-Office/meeting_team_laptop" stroke="none" stroke-width="1" fill="none" fill-rule="evenodd">
        <path d="M8.25,9.91666667 C9.02568573,9.90618636 9.77001222,10.222436 10.3009214,10.7880628 C10.8318306,11.3536895 11.1003616,12.1165308 11.0408333,12.89 C11.1233162,14.1321942 10.7460318,15.3613347 9.98083333,16.3433333 C9.96123262,16.3649767 9.94646115,16.3905427 9.9375,16.4183333 C9.87646213,16.6361051 9.87444885,16.8661935 9.93166667,17.085 L9.93166667,17.085 L9.93166667,17.0958333 C9.95232558,17.1541292 9.99781814,17.2002323 10.0558333,17.2216667 L10.0558333,17.2216667 L10.45,17.3675 C12.2491667,18.0341667 13.5475,18.515 13.95,19.3241667 C14.288441,20.0307816 14.4757639,20.8002245 14.5,21.5833333 C14.5,21.813452 14.313452,22 14.0833333,22 L14.0833333,22 L2.41666667,22 C2.18654802,22 2,21.813452 2,21.5833333 C2.02423615,20.8002245 2.21155902,20.0307816 2.55,19.3241667 C2.95583333,18.515 4.25416667,18.0341667 6.05,17.3675 L6.05,17.3675 L6.44416667,17.2216667 C6.50231167,17.200434 6.54787774,17.1542563 6.56833333,17.0958333 L6.56833333,17.0958333 L6.56833333,17.085 C6.62771868,16.8603469 6.62251955,16.6234974 6.55333333,16.4016667 C6.54462648,16.3764787 6.53103334,16.3532571 6.51333333,16.3333333 C5.75157718,15.3539858 5.37639697,14.1287926 5.45916667,12.8908333 C5.39939196,12.1172259 5.66781259,11.3541588 6.19875,10.7883435 C6.7296874,10.2225281 7.47415769,9.90616616 8.25,9.91666667 Z M19.0833333,2 C20.0038079,2 20.75,2.74619208 20.75,3.66666667 L20.75,3.66666667 L20.75,11.375 C20.7497774,11.4303214 20.7716552,11.4834412 20.8107737,11.5225597 C20.8498921,11.5616781 20.903012,11.583556 20.9583333,11.5833333 L20.9583333,11.5833333 L21.5833333,11.5833333 C21.6938402,11.5833333 21.799821,11.627232 21.8779612,11.7053722 C21.9561013,11.7835123 22,11.8894931 22,12 C21.9981611,13.1492913 21.0659594,14.08 19.9166667,14.08 L19.9166667,14.08 L12.45,14.08 C12.39117,14.0798008 12.3351437,14.054836 12.2956571,14.0112263 C12.2561704,13.9676165 12.2368745,13.9093941 12.2425,13.8508333 C12.275025,13.5307563 12.2911572,13.2092252 12.2908333,12.8875 C12.291829,12.5331075 12.2543879,12.1796522 12.1791667,11.8333333 C12.1666819,11.772173 12.1822791,11.7086371 12.221666,11.6602106 C12.261053,11.611784 12.3200788,11.5835702 12.3825,11.5833333 L12.3825,11.5833333 L18.875,11.5833333 C18.9303214,11.583556 18.9834412,11.5616781 19.0225597,11.5225597 C19.0616781,11.4834412 19.083556,11.4303214 19.0833333,11.375 L19.0833333,11.375 L19.0833333,4.08333333 C19.0833333,3.85321469 18.8967853,3.66666667 18.6666667,3.66666667 L18.6666667,3.66666667 L8.66666667,3.66666667 C8.43654802,3.66666667 8.25,3.85321469 8.25,4.08333333 L8.25,4.08333333 L8.25,8.4625 C8.25010805,8.57407255 8.16229788,8.66592419 8.05083333,8.67083333 C7.64506185,8.6869135 7.24384491,8.76243999 6.86,8.895 C6.79620249,8.916752 6.7258322,8.9064269 6.67097231,8.86726487 C6.61611243,8.82810285 6.58333333,8.76490362 6.58333333,8.6975 L6.58333333,8.6975 L6.58333333,3.66666667 C6.58333333,2.74619208 7.32952542,2 8.25,2 L8.25,2 Z M13.9120833,7.88550398 C14.9120336,7.88550398 15.8043998,8.51310944 16.1425,9.45416667 C16.1825887,9.55907024 16.1684287,9.67698911 16.1046436,9.76941923 C16.0408585,9.86184935 15.9356356,9.91692663 15.8233333,9.91666868 L15.8233333,9.91666868 L12,9.91666868 C11.8876907,9.91705279 11.7824363,9.86195246 11.7187599,9.76943837 C11.6550836,9.67692427 11.6412014,9.55893354 11.6816667,9.45416667 C12.0197668,8.51310944 12.9121331,7.88550398 13.9120833,7.88550398 Z M13.9116667,4.49916667 C14.6595523,4.49916667 15.2658333,5.10544773 15.2658333,5.85333333 C15.2658333,6.60121893 14.6595523,7.2075 13.9116667,7.2075 C13.1637811,7.2075 12.5575,6.60121893 12.5575,5.85333333 C12.5575,5.10544773 13.1637811,4.49916667 13.9116667,4.49916667 Z" id="ðŸ–-Color" fill="#5A5A5A"></path>
        <rect id="_Transparent_Rectangle_" x="0" y="0" width="24" height="24"></rect>
    </g>
</svg>