<?xml version="1.0" encoding="UTF-8"?>
<svg width="24px" height="24px" viewBox="0 0 24 24" version="1.1" xmlns="http://www.w3.org/2000/svg" xmlns:xlink="http://www.w3.org/1999/xlink">
    <title>8. Work Office/meeting_headphones_1</title>
    <g id="8.-Work-Office/meeting_headphones_1" stroke="none" stroke-width="1" fill="none" fill-rule="evenodd">
        <path d="M20.0325,10.4116667 C19.9621021,10.3778017 19.9166901,10.3072682 19.915,10.2291667 C19.915,5.8569124 16.3705876,2.3125 11.9983333,2.3125 C7.62607906,2.3125 4.08166667,5.8569124 4.08166667,10.2291667 C4.08037359,10.3075711 4.03533587,10.3786664 3.965,10.4133333 C3.17035836,10.7679885 2.64941201,11.5468163 2.625,12.4166667 L2.625,14.9166667 C2.70730223,16.2562028 3.85396707,17.2790145 5.19416667,17.2083333 L7.13916667,17.2083333 C7.48434464,17.2083333 7.76416667,16.9285113 7.76416667,16.5833333 L7.76416667,10.75 C7.76416667,10.404822 7.48434464,10.125 7.13916667,10.125 L5.98,10.125 C5.92217597,10.1254511 5.86682914,10.1015582 5.8275,10.0591667 C5.78846033,10.0166485 5.76831637,9.9601252 5.77166667,9.9025 C5.99281875,6.6254633 8.71550951,4.08032147 12,4.08032147 C15.2844905,4.08032147 18.0071813,6.6254633 18.2283333,9.9025 C18.2316836,9.9601252 18.2115397,10.0166485 18.1725,10.0591667 C18.1329324,10.1012195 18.0777411,10.1250453 18.02,10.125 L16.8608333,10.125 C16.5156554,10.125 16.2358333,10.404822 16.2358333,10.75 L16.2358333,16.5833333 C16.2358333,16.9285113 16.5156554,17.2083333 16.8608333,17.2083333 L17.625,17.2083333 C17.7400593,17.2083333 17.8333333,17.3016073 17.8333333,17.4166667 C17.8333333,18.3371412 17.0871412,19.0833333 16.1666667,19.0833333 L14.8,19.0833333 C14.7306281,19.0832831 14.6657572,19.0489763 14.6266667,18.9916667 C14.218979,18.38101 13.4596933,18.1090858 12.7570268,18.3220896 C12.0543603,18.5350935 11.5738608,19.1828416 11.5738608,19.9170833 C11.5738608,20.651325 12.0543603,21.2990732 12.7570268,21.512077 C13.4596933,21.7250808 14.218979,21.4531567 14.6266667,20.8425 C14.6656692,20.7849849 14.7305087,20.7503831 14.8,20.75 L16.1666667,20.75 C18.0076158,20.75 19.5,19.2576158 19.5,17.4166667 L19.5,17.2708333 C19.4999258,17.1794657 19.5593934,17.0987115 19.6466667,17.0716667 C20.6337979,16.8112677 21.3351404,15.9367876 21.375,14.9166667 L21.375,12.4166667 C21.3501699,11.5458182 20.8282433,10.7663301 20.0325,10.4116667 Z" id="ðŸ–-Color" fill="#5A5A5A"></path>
        <rect id="_Transparent_Rectangle_" x="0" y="0" width="24" height="24"></rect>
    </g>
</svg>