<?xml version="1.0" encoding="UTF-8"?>
<svg width="24px" height="24px" viewBox="0 0 24 24" version="1.1" xmlns="http://www.w3.org/2000/svg" xmlns:xlink="http://www.w3.org/1999/xlink">
    <title>8. Work Office/office_stamp_document</title>
    <g id="8.-Work-Office/office_stamp_document" stroke="none" stroke-width="1" fill="none" fill-rule="evenodd">
        <path d="M10.9583333,20.3333333 C11.0733927,20.3333333 11.1666667,20.4266073 11.1666667,20.5416667 L11.1666667,20.5416667 L11.1666667,21.1666667 C11.1666667,21.626904 10.7935706,22 10.3333333,22 L10.3333333,22 L3.66666667,22 C3.20642938,22 2.83333333,21.626904 2.83333333,21.1666667 L2.83333333,21.1666667 L2.83333333,20.5416667 C2.83333333,20.4266073 2.92660734,20.3333333 3.04166667,20.3333333 L3.04166667,20.3333333 Z M15.9583333,2 C16.0727449,2 16.1657514,2.09225875 16.1666667,2.20666667 L16.1666667,2.20666667 L16.1666667,5.75 C16.1666667,6.30253435 16.3861601,6.83243834 16.7768609,7.22313913 C17.1675617,7.61383992 17.6974656,7.83333333 18.25,7.83333333 L18.25,7.83333333 L21.7916667,7.83333333 C21.9060782,7.83332967 21.9990847,7.92559208 22,8.04 L22,8.04 L22,20.3316667 C22,21.2521412 21.2538079,21.9983336 20.3333333,21.9983336 L20.3333333,21.9983336 L12.5341667,21.9983336 C12.4688349,21.9983336 12.4072344,21.9679025 12.3677738,21.9158341 C12.3283132,21.8637658 12.315563,21.796202 12.3333333,21.7333333 C12.3874312,21.5486916 12.4154798,21.3573999 12.4166667,21.165 L12.4166667,21.165 L12.4166667,20.3316667 C12.416291,20.2477285 12.4079198,20.1640171 12.3916667,20.0816667 C12.3755432,20.005044 12.4042901,19.9259091 12.4658333,19.8775 C12.9610755,19.4824435 13.2496556,18.8835095 13.25,18.25 C13.25,16.6391695 11.9441639,15.3333333 10.3333333,15.3333333 L10.3333333,15.3333333 L9.5,15.3333333 C9.2864839,15.3383524 9.10502334,15.1783042 9.08333333,14.9658333 L9.08333333,14.9658333 L9.08333333,14.9083333 C9.08665338,14.7803117 9.14797395,14.6607365 9.25,14.5833333 C10.7557224,13.4569628 11.1944284,11.3895941 10.2759145,9.7487886 C9.35740062,8.10798307 7.36570583,7.40113927 5.61833333,8.09583333 C5.5541034,8.12082039 5.48168695,8.11256395 5.42473004,8.07375998 C5.36777314,8.03495601 5.33358661,7.97058526 5.33333333,7.90166667 L5.33333333,7.90166667 L5.33333333,3.66666667 C5.33333333,2.74619208 6.07952542,2 7,2 L7,2 Z M7,9.08333333 C8.07607602,9.08333333 9.03142313,9.77190857 9.37170825,10.7927639 C9.71199336,11.8136193 9.36086082,12.9376877 8.5,13.5833333 C8.06709418,13.9087136 7.81863444,14.4236464 7.83333333,14.965 L7.83333333,14.965 L7.84419505,15.113459 C7.94205832,15.9440162 8.64818203,16.5836916 9.5,16.5833333 L9.5,16.5833333 L10.3333333,16.5833333 C11.2538079,16.5833333 12,17.3295254 12,18.25 C12,18.7102373 11.626904,19.0833333 11.1666667,19.0833333 L11.1666667,19.0833333 L2.83333333,19.0833333 C2.37309604,19.0833333 2,18.7102373 2,18.25 C2,17.3295254 2.74619208,16.5833333 3.66666667,16.5833333 L3.66666667,16.5833333 L4.5,16.5833333 C5.40381402,16.5836389 6.14316755,15.8635085 6.16666667,14.96 L6.16666667,14.96 L6.1627507,14.7991056 C6.12797941,14.3198152 5.88810395,13.8754083 5.5,13.5833333 C4.63913918,12.9376877 4.28800664,11.8136193 4.62829175,10.7927639 C4.96857687,9.77190857 5.92392398,9.08333333 7,9.08333333 Z M17.1293245,2.30851835 C17.2071215,2.27663433 17.2964586,2.29463845 17.3558333,2.35416667 L17.3558333,2.35416667 L21.6475,6.64416667 C21.7072404,6.70375591 21.7251376,6.7934956 21.6928268,6.87144304 C21.660516,6.94939047 21.5843787,7.00015097 21.5,7.00000034 L21.5,7.00000034 L18.25,7.00000034 C17.5596441,7.00000034 17,6.44035594 17,5.75 L17,5.75 L17,2.5 C17.0005207,2.41592448 17.0515275,2.34040236 17.1293245,2.30851835 Z" id="ðŸ–-Color" fill="#5A5A5A"></path>
        <rect id="_Transparent_Rectangle_" x="0" y="0" width="24" height="24"></rect>
    </g>
</svg>