<svg width="24" height="24" viewBox="0 0 24 24" fill="none" xmlns="http://www.w3.org/2000/svg">
<g id="office_desk_1">
<path id="Shape" fill-rule="evenodd" clip-rule="evenodd" d="M6.32622 12.2075H4.83789C4.17485 12.2075 3.53896 11.9441 3.07012 11.4753C2.60128 11.0064 2.33789 10.3705 2.33789 9.7075V4.29083C2.33789 3.14024 3.27063 2.2075 4.42122 2.2075H12.3379C13.7186 2.2075 14.8379 3.32679 14.8379 4.7075V9.7075C14.8379 11.0882 13.7186 12.2075 12.3379 12.2075H10.8487C10.7766 12.2076 10.7096 12.2451 10.6718 12.3066C10.6339 12.368 10.6306 12.4447 10.6629 12.5092L11.0437 13.2717C11.1081 13.4008 11.101 13.5539 11.0252 13.6766C10.9494 13.7993 10.8155 13.874 10.6712 13.8742H6.50456C6.36018 13.8743 6.22602 13.7997 6.14997 13.677C6.07392 13.5542 6.06683 13.4009 6.13122 13.2717L6.51289 12.5092C6.54529 12.4445 6.54184 12.3677 6.50379 12.3062C6.46574 12.2447 6.39853 12.2074 6.32622 12.2075ZM4.42122 3.87417C4.19111 3.87417 4.00456 4.06072 4.00456 4.29083V8.4575C4.00456 8.68762 4.19111 8.87417 4.42122 8.87417H12.7546C12.9847 8.87417 13.1712 8.68762 13.1712 8.4575V4.7075C13.1712 4.24726 12.7981 3.87417 12.3379 3.87417H4.42122ZM21.6012 14.905C21.5252 14.782 21.3908 14.7073 21.2462 14.7075H3.42789C3.28342 14.7075 3.14926 14.7823 3.07337 14.9053C2.99747 15.0282 2.99067 15.1817 3.05539 15.3108L3.77372 16.75C3.91478 17.0323 4.20317 17.2107 4.51872 17.2108H4.81289C4.87871 17.2109 4.94061 17.2421 4.97984 17.295C5.01907 17.3479 5.03101 17.4161 5.01206 17.4792L4.03956 20.7183C3.97611 20.9301 3.99938 21.1583 4.10425 21.3529C4.20911 21.5475 4.38698 21.6924 4.59872 21.7558C4.67624 21.7795 4.75684 21.7916 4.83789 21.7917C5.20626 21.7916 5.53087 21.5497 5.63622 21.1967L6.78789 17.3558C6.81466 17.2678 6.89585 17.2076 6.98789 17.2075H17.6879C17.7796 17.2079 17.8604 17.2681 17.8871 17.3558L19.0396 21.1967C19.1716 21.6376 19.6362 21.8879 20.0771 21.7558C20.518 21.6237 20.7683 21.1592 20.6362 20.7183L19.6671 17.4758C19.6481 17.4127 19.6601 17.3442 19.6995 17.2913C19.7389 17.2384 19.8011 17.2073 19.8671 17.2075H20.1596C20.4754 17.2076 20.7642 17.0292 20.9054 16.7467L21.6229 15.3108C21.6866 15.181 21.6784 15.0273 21.6012 14.905ZM20.2546 13.8742H16.9212C16.6911 13.8742 16.5046 13.6876 16.5046 13.4575V10.5408C16.5054 10.1985 16.7186 9.89256 17.0396 9.77333C17.095 9.75265 17.1389 9.7093 17.1604 9.65417C17.181 9.59996 17.1783 9.53964 17.1529 9.4875L16.7787 8.7375C16.6243 8.42868 16.7495 8.05316 17.0583 7.89875C17.3671 7.74434 17.7426 7.86951 17.8971 8.17833L18.6387 9.66167C18.6562 9.69585 18.6948 9.71364 18.7322 9.70474C18.7696 9.69585 18.796 9.66257 18.7962 9.62417V8.4575C18.7962 8.11232 19.076 7.8325 19.4212 7.8325C19.7664 7.8325 20.0462 8.11232 20.0462 8.4575V9.6C20.0463 9.6828 20.0953 9.75771 20.1712 9.79083C20.4736 9.91753 20.6706 10.213 20.6712 10.5408V13.4575C20.6712 13.6876 20.4847 13.8742 20.2546 13.8742Z" fill="#5A5A5A"/>
</g>
</svg>
