<?xml version="1.0" encoding="UTF-8"?>
<svg width="24px" height="24px" viewBox="0 0 24 24" version="1.1" xmlns="http://www.w3.org/2000/svg" xmlns:xlink="http://www.w3.org/1999/xlink">
    <title>8. Work Office/office_desk_1</title>
    <g id="8.-Work-Office/office_desk_1" stroke="none" stroke-width="1" fill="none" fill-rule="evenodd">
        <path d="M21.2458333,14.7074995 C21.3904184,14.707281 21.5247816,14.7820324 21.6008333,14.905 C21.6780129,15.0273453 21.6862144,15.180966 21.6225,15.3108333 L21.6225,15.3108333 L20.905,16.7466667 C20.7638128,17.0292097 20.4750216,17.2076472 20.1591667,17.2074995 L20.1591667,17.2074995 L19.8666667,17.2074995 C19.8006994,17.2073436 19.738556,17.2384393 19.6991334,17.2913313 C19.6597108,17.3442233 19.6476679,17.412661 19.6666667,17.4758333 L19.6666667,17.4758333 L20.6358333,20.7183333 C20.7679214,21.1592407 20.517574,21.6237452 20.0766667,21.7558333 C19.6357593,21.8879214 19.1712548,21.637574 19.0391667,21.1966667 L19.0391667,21.1966667 L17.8866667,17.3558333 C17.8599879,17.2680642 17.7792333,17.2079206 17.6875,17.2074995 L17.6875,17.2074995 L6.9875,17.2074995 C6.89545836,17.207555 6.81426907,17.2677704 6.7875,17.3558333 L6.7875,17.3558333 L5.63583333,21.1966667 C5.53047958,21.5496495 5.20586979,21.7915821 4.8375,21.7916667 C4.75644492,21.7916667 4.67584637,21.7795327 4.59833333,21.7558333 C4.38659363,21.6924152 4.20872274,21.5474744 4.10385651,21.3529014 C3.99899028,21.1583285 3.97572035,20.9300646 4.03916667,20.7183333 L4.03916667,20.7183333 L5.01166667,17.4791667 C5.0306231,17.4161348 5.01867771,17.347852 4.97944844,17.2949992 C4.94021917,17.2421464 4.87832055,17.2109406 4.8125,17.2108333 L4.8125,17.2108333 L4.51833333,17.2108333 C4.20277857,17.2106648 3.91438629,17.0322745 3.77333333,16.75 L3.77333333,16.75 L3.055,15.3108333 C2.99027742,15.1816723 2.99707989,15.0282021 3.07297619,14.9052739 C3.14887248,14.7823456 3.28302995,14.7074995 3.4275,14.7074995 L3.4275,14.7074995 Z M12.3375,2.2075 C13.7182119,2.2075 14.8375,3.32678813 14.8375,4.7075 L14.8375,4.7075 L14.8375,9.7075 C14.8375,11.0882119 13.7182119,12.2075 12.3375,12.2075 L12.3375,12.2075 L10.8483333,12.2075 C10.7761725,12.2076467 10.7092263,12.2451249 10.6713784,12.3065639 C10.6335306,12.368003 10.6301717,12.4446524 10.6625,12.5091667 L10.6625,12.5091667 L11.0433333,13.2716667 C11.1076601,13.4007575 11.1006517,13.5539348 11.0248055,13.6766121 C10.9489593,13.7992895 10.8150635,13.8740177 10.6708333,13.8741669 L10.6708333,13.8741669 L6.50416667,13.8741669 C6.35978821,13.8743063 6.22562738,13.7996938 6.14958048,13.6769664 C6.07353359,13.5542389 6.06644044,13.4008902 6.13083333,13.2716667 L6.13083333,13.2716667 L6.5125,12.5091667 C6.5448947,12.4445198 6.54145127,12.3676987 6.50340264,12.3062094 C6.46535401,12.2447201 6.39814248,12.2073577 6.32583333,12.2075 L6.32583333,12.2075 L4.8375,12.2075 C4.17445878,12.2075 3.53857399,11.9441079 3.06973305,11.475267 C2.6008921,11.006426 2.3375,10.3705412 2.3375,9.7075 L2.3375,9.7075 L2.3375,4.29083333 C2.3375,3.1402401 3.2702401,2.2075 4.42083333,2.2075 L4.42083333,2.2075 Z M19.4208333,7.8325 C19.7660113,7.8325 20.0458333,8.11232203 20.0458333,8.4575 L20.0458333,8.4575 L20.0458333,9.6 C20.045876,9.68279899 20.0949468,9.75771374 20.1708333,9.79083333 C20.4731637,9.91753006 20.6701634,10.2130296 20.6708333,10.5408333 L20.6708333,10.5408333 L20.6708333,13.4575 C20.6708333,13.6876186 20.4842853,13.8741667 20.2541667,13.8741667 L20.2541667,13.8741667 L16.9208333,13.8741667 C16.6907147,13.8741667 16.5041667,13.6876186 16.5041667,13.4575 L16.5041667,13.4575 L16.5041667,10.5408333 C16.504984,10.1984608 16.7182214,9.89255482 17.0391667,9.77333333 C17.0945896,9.75265131 17.1385502,9.70929706 17.16,9.65416667 C17.1806223,9.59995904 17.1779077,9.53963628 17.1525,9.4875 L17.1525,9.4875 L16.7783333,8.7375 C16.6239237,8.42868078 16.7490974,8.05315961 17.0579167,7.89875 C17.3667359,7.74434039 17.7422571,7.86951411 17.8966667,8.17833333 L17.8966667,8.17833333 L18.6383333,9.66166667 C18.6558427,9.69584689 18.6944435,9.71363515 18.7318032,9.70474 C18.7691628,9.69584484 18.7956057,9.66256998 18.7958333,9.62416667 L18.7958333,9.62416667 L18.7958333,8.4575 C18.7958333,8.11232203 19.0756554,7.8325 19.4208333,7.8325 Z M12.3375,3.87416667 L4.42083333,3.87416667 C4.19071469,3.87416667 4.00416667,4.06071469 4.00416667,4.29083333 L4.00416667,4.29083333 L4.00416667,8.4575 C4.00416667,8.68761865 4.19071469,8.87416667 4.42083333,8.87416667 L4.42083333,8.87416667 L12.7541667,8.87416667 C12.9842853,8.87416667 13.1708333,8.68761865 13.1708333,8.4575 L13.1708333,8.4575 L13.1708333,4.7075 C13.1708333,4.24726271 12.7977373,3.87416667 12.3375,3.87416667 L12.3375,3.87416667 Z" id="ðŸ–-Color" fill="#5A5A5A"></path>
        <rect id="_Transparent_Rectangle_" x="0" y="0" width="24" height="24"></rect>
    </g>
</svg>