<svg width="24" height="24" viewBox="0 0 24 24" fill="none" xmlns="http://www.w3.org/2000/svg">
<g id="office_stamp_document">
<path id="Shape" fill-rule="evenodd" clip-rule="evenodd" d="M16.1667 2.20667V5.75C16.1667 6.30253 16.3862 6.83244 16.7769 7.22314C17.1676 7.61384 17.6975 7.83333 18.25 7.83333H21.7917C21.9061 7.83333 21.9991 7.92559 22 8.04V20.3317C22 21.2521 21.2538 21.9983 20.3333 21.9983H12.5342C12.4688 21.9984 12.4072 21.9679 12.3678 21.9158C12.3283 21.8638 12.3156 21.7962 12.3333 21.7333C12.3874 21.5487 12.4155 21.3574 12.4167 21.165V20.3317C12.4163 20.2477 12.4079 20.164 12.3917 20.0817C12.3755 20.005 12.4043 19.9259 12.4658 19.8775C12.9611 19.4824 13.2497 18.8835 13.25 18.25C13.25 16.6392 11.9442 15.3333 10.3333 15.3333H9.5C9.28648 15.3384 9.10502 15.1783 9.08333 14.9658V14.9083C9.08665 14.7803 9.14797 14.6607 9.25 14.5833C10.7557 13.457 11.1944 11.3896 10.2759 9.74879C9.3574 8.10798 7.36571 7.40114 5.61833 8.09583C5.5541 8.12082 5.48169 8.11256 5.42473 8.07376C5.36777 8.03496 5.33359 7.97059 5.33333 7.90167V3.66667C5.33333 2.74619 6.07953 2 7 2H15.9583C16.0727 2 16.1658 2.09226 16.1667 2.20667ZM21.5 7H18.25C17.5596 7 17 6.44036 17 5.75V2.5C17.0005 2.41592 17.0515 2.3404 17.1293 2.30852C17.2071 2.27663 17.2965 2.29464 17.3558 2.35417L21.6475 6.64417C21.7072 6.70376 21.7251 6.7935 21.6928 6.87144C21.6605 6.94939 21.5844 7.00015 21.5 7ZM11.1667 21.1667V20.5417C11.1667 20.4266 11.0734 20.3333 10.9583 20.3333H3.04167C2.92661 20.3333 2.83333 20.4266 2.83333 20.5417V21.1667C2.83333 21.6269 3.20643 22 3.66667 22H10.3333C10.7936 22 11.1667 21.6269 11.1667 21.1667ZM12 18.25C12 18.7102 11.6269 19.0833 11.1667 19.0833H2.83333C2.3731 19.0833 2 18.7102 2 18.25C2 17.3295 2.74619 16.5833 3.66667 16.5833H4.5C5.40381 16.5836 6.14317 15.8635 6.16667 14.96C6.17945 14.4205 5.93123 13.9079 5.5 13.5833C4.63914 12.9377 4.28801 11.8136 4.62829 10.7928C4.96858 9.77191 5.92392 9.08333 7 9.08333C8.07608 9.08333 9.03142 9.77191 9.37171 10.7928C9.71199 11.8136 9.36086 12.9377 8.5 13.5833C8.06709 13.9087 7.81863 14.4236 7.83333 14.965C7.85949 15.8665 8.59807 16.5837 9.5 16.5833H10.3333C11.2538 16.5833 12 17.3295 12 18.25Z" fill="#5A5A5A"/>
</g>
</svg>
