<svg width="24" height="24" viewBox="0 0 24 24" fill="none" xmlns="http://www.w3.org/2000/svg">
<g id="office_employee">
<path id="Shape" fill-rule="evenodd" clip-rule="evenodd" d="M7.6496 13.7082C7.42428 13.7083 7.2397 13.5293 7.23294 13.3041C7.23263 11.5111 8.23765 9.86929 9.8346 9.05406C9.89985 9.02077 9.94281 8.95566 9.94777 8.88258C9.95272 8.8095 9.91893 8.73919 9.85877 8.6974C8.54961 7.78934 7.97949 6.13787 8.44965 4.61556C8.91981 3.09325 10.3219 2.05089 11.9151 2.03922C13.5083 2.02755 14.9255 3.04927 15.418 4.56453C15.9104 6.07978 15.3645 7.73943 14.0688 8.66656C14.0106 8.70931 13.9787 8.77915 13.9844 8.85113C13.9902 8.92311 14.0328 8.98697 14.0971 9.0199C15.7305 9.82235 16.7649 11.4842 16.7638 13.3041C16.757 13.5293 16.5724 13.7083 16.3471 13.7082H7.6496ZM12.6179 10.6741C12.6179 10.333 12.3415 10.0566 12.0004 10.0566C11.6594 10.0566 11.3829 10.333 11.3829 10.6741V11.6874C11.3829 11.908 11.5006 12.1119 11.6917 12.2222C11.8827 12.3325 12.1181 12.3325 12.3092 12.2222C12.5002 12.1119 12.6179 11.908 12.6179 11.6874V10.6741ZM10.0438 5.07573C10.0645 5.0152 10.1123 4.96777 10.1729 4.9474C10.2331 4.92676 10.2994 4.93474 10.3529 4.96906C11.1078 5.45525 11.9867 5.71361 12.8846 5.71323C13.2013 5.71244 13.5171 5.6795 13.8271 5.6149C13.8565 5.60884 13.887 5.61617 13.9104 5.6349C13.9339 5.65416 13.9477 5.68285 13.9479 5.71323C13.9628 6.44034 13.5833 7.11865 12.956 7.48655C12.3286 7.85445 11.5514 7.85445 10.9241 7.48655C10.2967 7.11865 9.91729 6.44034 9.9321 5.71323C9.93302 5.49595 9.97077 5.28039 10.0438 5.07573ZM21.0563 20.2941H17.8421C17.7773 20.2939 17.7163 20.2637 17.6768 20.2123C17.6374 20.161 17.6239 20.0942 17.6404 20.0316L18.7421 15.9016C18.8037 15.6695 18.7477 15.422 18.5921 15.2391C18.4303 15.0494 18.1931 14.9408 17.9438 14.9424H6.0571C5.80781 14.9408 5.57054 15.0494 5.40877 15.2391C5.25321 15.422 5.19717 15.6695 5.25877 15.9016L6.36044 20.0316C6.37696 20.0942 6.36352 20.161 6.32405 20.2123C6.28459 20.2637 6.22355 20.2939 6.15877 20.2941H2.9446C2.50031 20.3082 2.14746 20.6725 2.14746 21.117C2.14746 21.5615 2.50031 21.9258 2.9446 21.9399H21.0563C21.5006 21.9258 21.8534 21.5615 21.8534 21.117C21.8534 20.6725 21.5006 20.3082 21.0563 20.2941ZM12.0004 16.9999C12.5688 16.9999 13.0296 17.4607 13.0296 18.0291C13.0296 18.5975 12.5688 19.0582 12.0004 19.0582C11.432 19.0582 10.9713 18.5975 10.9713 18.0291C10.9713 17.4607 11.432 16.9999 12.0004 16.9999Z" fill="#5A5A5A"/>
</g>
</svg>
