<?xml version="1.0" encoding="UTF-8"?>
<svg width="24px" height="24px" viewBox="0 0 24 24" version="1.1" xmlns="http://www.w3.org/2000/svg" xmlns:xlink="http://www.w3.org/1999/xlink">
    <title>8. Work Office/office_employee</title>
    <g id="8.-Work-Office/office_employee" stroke="none" stroke-width="1" fill="none" fill-rule="evenodd">
        <path d="M17.9433333,14.9424828 C18.1926258,14.9409094 18.4298987,15.0494816 18.5916667,15.2391667 C18.7472259,15.4220686 18.8032698,15.6695959 18.7416667,15.9016667 L18.7416667,15.9016667 L17.64,20.0316667 C17.6234824,20.0943044 17.636919,20.1610606 17.6763839,20.2124302 C17.7158488,20.2637998 17.7768879,20.2939852 17.8416667,20.2941667 L17.8416667,20.2941667 L21.0558333,20.2941667 C21.5001265,20.3083069 21.8529763,20.6725652 21.8529763,21.1170833 C21.8529763,21.5616014 21.5001265,21.9258598 21.0558333,21.94 L21.0558333,21.94 L2.94416667,21.94 C2.49987352,21.9258598 2.14702374,21.5616014 2.14702374,21.1170833 C2.14702374,20.6725652 2.49987352,20.3083069 2.94416667,20.2941667 L2.94416667,20.2941667 L6.15833333,20.2941667 C6.22311205,20.2939852 6.28415116,20.2637998 6.32361607,20.2124302 C6.36308097,20.1610606 6.3765176,20.0943044 6.36,20.0316667 L6.36,20.0316667 L5.25833333,15.9016667 C5.19673018,15.6695959 5.25277412,15.4220686 5.40833333,15.2391667 C5.57010125,15.0494816 5.80737415,14.9409094 6.05666667,14.9424828 L6.05666667,14.9424828 Z M12,17 C11.4316069,17 10.9708333,17.4607736 10.9708333,18.0291667 C10.9708333,18.5975597 11.4316069,19.0583333 12,19.0583333 C12.5683931,19.0583333 13.0291667,18.5975597 13.0291667,18.0291667 C13.0291667,17.4607736 12.5683931,17 12,17 Z M11.9146829,2.03922644 C13.5078981,2.02765691 14.9251115,3.04937102 15.4175166,4.56462945 C15.9099218,6.07988788 15.364055,7.73953327 14.0683333,8.66666667 C14.0101301,8.70941242 13.978214,8.77925037 13.9839862,8.85123303 C13.9897584,8.92321568 14.0323955,8.98707531 14.0966667,9.02 C15.7300137,9.82245051 16.7644554,11.4843458 16.7633342,13.3041667 C16.7565736,13.5293894 16.5719908,13.7083334 16.3466667,13.7083334 L16.3466667,13.7083334 L7.64916667,13.7083334 C7.42384249,13.7083334 7.2392597,13.5293894 7.23249993,13.3041667 C7.23219343,11.5111685 8.23721721,9.86939359 9.83416667,9.05416667 C9.89941038,9.02087293 9.94237656,8.95576216 9.94732824,8.88268209 C9.95227993,8.80960203 9.91848956,8.73929047 9.85833333,8.6975 C8.54917106,7.78944433 7.97905423,6.13797222 8.44921275,4.61566414 C8.91937127,3.09335606 10.3214677,2.05099379 11.9146829,2.03922644 Z M12,10.0566667 C11.6589642,10.0566667 11.3825,10.3331308 11.3825,10.6741667 L11.3825,10.6741667 L11.3825,11.6875 C11.3825,11.9081115 11.5001948,12.111965 11.69125,12.2222707 C11.8823052,12.3325765 12.1176948,12.3325765 12.30875,12.2222707 C12.4998052,12.111965 12.6175,11.9081115 12.6175,11.6875 L12.6175,11.6875 L12.6175,10.6741667 C12.6175,10.3331308 12.3410358,10.0566667 12,10.0566667 Z M10.2340058,4.93632091 L10.1725,4.9475 C10.111836,4.96787296 10.0640985,5.01530245 10.0433333,5.07583333 C9.97033707,5.2804919 9.93257947,5.49604838 9.93166667,5.71333333 C9.91685311,6.44044369 10.2962869,7.11875142 10.9236301,7.48665023 C11.5509732,7.85454904 12.3281935,7.85454904 12.9555366,7.48665023 C13.5828797,7.11875142 13.9623136,6.44044369 13.9475,5.71333333 C13.947226,5.68295522 13.9334907,5.65426371 13.91,5.635 C13.8865782,5.61627336 13.8560365,5.60894334 13.8266667,5.615 C13.5166388,5.67959887 13.2008521,5.71254567 12.8841667,5.71333333 C11.9862998,5.7137176 11.1073424,5.45535387 10.3525,4.96916667 C10.2989528,4.93484731 10.2326618,4.92686784 10.1725,4.9475 Z" id="ðŸ–-Color" fill="#5A5A5A"></path>
        <rect id="_Transparent_Rectangle_" x="0" y="0" width="24" height="24"></rect>
    </g>
</svg>