<?xml version="1.0" encoding="UTF-8"?>
<svg width="24px" height="24px" viewBox="0 0 24 24" version="1.1" xmlns="http://www.w3.org/2000/svg" xmlns:xlink="http://www.w3.org/1999/xlink">
    <title>8. Work Office/task_list_warning</title>
    <g id="8.-Work-Office/task_list_warning" stroke="none" stroke-width="1" fill="none" fill-rule="evenodd">
        <path d="M16.58375,11.5826455 C17.0309503,11.5826455 17.4415305,11.8298033 17.6508333,12.225 L17.6508333,12.225 L21.8633333,20.2541667 C22.0581692,20.6253875 22.0432907,21.0717445 21.8241667,21.4291667 C21.6027319,21.7835969 21.2145824,21.9992355 20.7966667,22 L20.7966667,22 L12.3708333,22 C11.9518885,21.9983191 11.5634504,21.7806299 11.3433333,21.4241667 C11.1245231,21.0669527 11.1096475,20.6210014 11.3041667,20.25 L11.3041667,20.25 L15.5166667,12.225 C15.7259695,11.8298033 16.1365497,11.5826455 16.58375,11.5826455 Z M16.5841667,18.875 C16.1239294,18.875 15.7508333,19.248096 15.7508333,19.7083333 C15.7508333,20.1685706 16.1239294,20.5416667 16.5841667,20.5416667 L16.5841667,20.5416667 C16.8043471,20.5410545 17.0163966,20.4534691 17.1728332,20.297345 C17.3292698,20.141221 17.4172791,19.9293471 17.4175,19.7083333 C17.4175,19.248096 17.044404,18.875 16.5841667,18.875 Z M9.49875,2.0002678 C10.6262554,2.0002678 11.6700104,2.59546593 12.2441667,3.56583333 C12.2794283,3.62794225 12.3452465,3.66641573 12.4166667,3.66666667 L12.4166667,3.66666667 L15.75,3.66666667 C16.4403559,3.66666667 17,4.22631073 17,4.91666667 L17,4.91666667 L17,10.1333333 C16.9981982,10.1949527 16.9694128,10.2526682 16.9212757,10.2911779 C16.8731385,10.3296877 16.8105119,10.3451017 16.75,10.3333333 C16.03555,10.2891812 15.3384441,10.564909 14.8475,11.0858333 C14.786556,11.1415489 14.698377,11.1558268 14.6229651,11.1221899 C14.5475532,11.0885529 14.4992625,11.0134037 14.5,10.9308333 L14.5,10.9308333 L14.5,6.58333333 C14.5,6.35321469 14.313452,6.16666667 14.0833333,6.16666667 L14.0833333,6.16666667 L4.91666667,6.16666667 C4.68654802,6.16666667 4.5,6.35321469 4.5,6.58333333 L4.5,6.58333333 L4.5,17.4166667 C4.5,17.6467853 4.68654802,17.8333333 4.91666667,17.8333333 L4.91666667,17.8333333 L10.825,17.8333333 C10.8972313,17.8315046 10.965173,17.867532 11.0041849,17.9283497 C11.0431967,17.9891673 11.0476135,18.0659432 11.0158333,18.1308333 C10.7408333,18.6741667 10.1825,19.8075 10.0158333,20.2075 C9.98482066,20.2852449 9.90867528,20.3354543 9.825,20.333398 L9.825,20.333398 L3.25,20.333398 C2.55964406,20.333398 2,19.7736893 2,19.0833333 L2,19.0833333 L2,4.91666667 C2,4.22631073 2.55964406,3.66666667 3.25,3.66666667 L3.25,3.66666667 L6.58333333,3.66666667 C6.65385694,3.66552854 6.7185188,3.62717518 6.75333333,3.56583333 C7.32748963,2.59546593 8.37124463,2.0002678 9.49875,2.0002678 Z M16.5841667,14.7083333 C16.2389887,14.7083333 15.9591667,14.9881554 15.9591667,15.3333333 L15.9591667,15.3333333 L15.9591667,17.625 C15.9591667,17.970178 16.2389887,18.25 16.5841667,18.25 C16.9293446,18.25 17.2091667,17.970178 17.2091667,17.625 L17.2091667,17.625 L17.2091667,15.3333333 C17.2091667,14.9881554 16.9293446,14.7083333 16.5841667,14.7083333 Z M10.3333333,14.2908333 C10.6785113,14.2908333 10.9583333,14.5706554 10.9583333,14.9158333 C10.9583333,15.2610113 10.6785113,15.5408333 10.3333333,15.5408333 L10.3333333,15.5408333 L7,15.5408333 C6.65482203,15.5408333 6.375,15.2610113 6.375,14.9158333 C6.375,14.5706554 6.65482203,14.2908333 7,14.2908333 L7,14.2908333 Z M12.0008333,11.375 C12.3460113,11.375 12.6258333,11.654822 12.6258333,12 C12.6258333,12.1659048 12.5598711,12.3250024 12.4424805,12.4422366 C12.32509,12.5594708 12.1659046,12.6252212 12,12.6250006 L12,12.6250006 L7,12.6250006 C6.65482203,12.6250006 6.375,12.345178 6.375,12 C6.375,11.654822 6.65482203,11.375 7,11.375 L7,11.375 Z M12,8.4575 C12.345178,8.4575 12.625,8.73732203 12.625,9.0825 C12.625,9.42767797 12.345178,9.7075 12,9.7075 L12,9.7075 L7,9.7075 C6.65482204,9.7075 6.37500003,9.42767796 6.37500003,9.0825 C6.37500003,8.73732204 6.65482204,8.4575 7,8.4575 L7,8.4575 Z" id="ðŸ–-Color" fill="#5A5A5A"></path>
        <rect id="_Transparent_Rectangle_" x="0" y="0" width="24" height="24"></rect>
    </g>
</svg>