<svg width="24" height="24" viewBox="0 0 24 24" fill="none" xmlns="http://www.w3.org/2000/svg">
<g id="task_list_warning">
<path id="Shape" fill-rule="evenodd" clip-rule="evenodd" d="M10.825 17.8333H4.91667C4.68655 17.8333 4.5 17.6468 4.5 17.4167V6.58334C4.5 6.35322 4.68655 6.16667 4.91667 6.16667H14.0833C14.3135 6.16667 14.5 6.35322 14.5 6.58334V10.9308C14.4993 11.0134 14.5476 11.0886 14.623 11.1222C14.6984 11.1558 14.7866 11.1416 14.8475 11.0858C15.3384 10.5649 16.0356 10.2892 16.75 10.3333C16.8105 10.3451 16.8731 10.3297 16.9213 10.2912C16.9694 10.2527 16.9982 10.195 17 10.1333V4.91667C17 4.22632 16.4404 3.66667 15.75 3.66667H12.4167C12.3452 3.66642 12.2794 3.62795 12.2442 3.56584C11.67 2.59547 10.6263 2.00027 9.49875 2.00027C8.37124 2.00027 7.32749 2.59547 6.75333 3.56584C6.71852 3.62718 6.65386 3.66554 6.58333 3.66667H3.25C2.55964 3.66667 2 4.22632 2 4.91667V19.0833C2 19.7737 2.55964 20.3333 3.25 20.3333H9.825C9.90868 20.3355 9.98482 20.2853 10.0158 20.2075C10.1825 19.8075 10.7408 18.6742 11.0158 18.1308C11.0476 18.066 11.0432 17.9892 11.0042 17.9284C10.9652 17.8675 10.8972 17.8315 10.825 17.8333ZM12 8.45751H7C6.65482 8.45751 6.375 8.73733 6.375 9.08251C6.375 9.42768 6.65482 9.70751 7 9.70751H12C12.3452 9.70751 12.625 9.42768 12.625 9.08251C12.625 8.73733 12.3452 8.45751 12 8.45751ZM12.6258 12C12.6258 11.6548 12.346 11.375 12.0008 11.375H7C6.65482 11.375 6.375 11.6548 6.375 12C6.375 12.3452 6.65482 12.625 7 12.625H12C12.1659 12.6252 12.3251 12.5595 12.4425 12.4422C12.5599 12.325 12.6258 12.1659 12.6258 12ZM6.375 14.9158C6.375 14.5707 6.65482 14.2908 7 14.2908H10.3333C10.6785 14.2908 10.9583 14.5707 10.9583 14.9158C10.9583 15.261 10.6785 15.5408 10.3333 15.5408H7C6.65482 15.5408 6.375 15.261 6.375 14.9158ZM17.6508 12.225L21.8633 20.2542C22.0582 20.6254 22.0433 21.0718 21.8242 21.4292C21.6027 21.7836 21.2146 21.9992 20.7967 22H12.3708C11.9519 21.9983 11.5634 21.7806 11.3433 21.4242C11.1245 21.067 11.1096 20.621 11.3042 20.25L15.5167 12.225C15.726 11.8298 16.1365 11.5827 16.5837 11.5827C17.0309 11.5827 17.4415 11.8298 17.6508 12.225ZM16.5842 14.7083C16.239 14.7083 15.9592 14.9882 15.9592 15.3333V17.625C15.9592 17.9702 16.239 18.25 16.5842 18.25C16.9293 18.25 17.2092 17.9702 17.2092 17.625V15.3333C17.2092 14.9882 16.9293 14.7083 16.5842 14.7083ZM16.5842 20.5417C16.1239 20.5417 15.7508 20.1686 15.7508 19.7083C15.7508 19.2481 16.1239 18.875 16.5842 18.875C17.0444 18.875 17.4175 19.2481 17.4175 19.7083C17.4173 19.9294 17.3293 20.1412 17.1728 20.2974C17.0164 20.4535 16.8043 20.5411 16.5833 20.5408L16.5842 20.5417Z" fill="#5A5A5A"/>
</g>
</svg>
