<svg width="24" height="24" viewBox="0 0 24 24" fill="none" xmlns="http://www.w3.org/2000/svg">
<g id="task_list_add">
<path id="Shape" fill-rule="evenodd" clip-rule="evenodd" d="M10.1017 17.995C10.0841 17.8991 10.0008 17.8291 9.90332 17.8283H4.94665C4.71653 17.8283 4.52999 17.6418 4.52999 17.4117V6.58333C4.52999 6.35321 4.71653 6.16667 4.94665 6.16667H14.1133C14.3434 6.16667 14.53 6.35321 14.53 6.58333V9.98333C14.529 10.0462 14.5569 10.1061 14.6056 10.1459C14.6543 10.1857 14.7186 10.201 14.78 10.1875C15.4581 10.0594 16.1441 9.97784 16.8333 9.94333C16.9433 9.93669 17.029 9.84521 17.0283 9.735V4.91667C17.0283 4.22631 16.4687 3.66667 15.7783 3.66667H12.445C12.3734 3.66637 12.3073 3.62795 12.2717 3.56583C11.6977 2.59543 10.6541 2.00017 9.52665 2.00017C8.39923 2.00017 7.35559 2.59543 6.78165 3.56583C6.74684 3.62717 6.68218 3.66553 6.61165 3.66667H3.27832C2.58796 3.66667 2.02832 4.22631 2.02832 4.91667V19.0833C2.02832 19.7737 2.58796 20.3333 3.27832 20.3333H10.7283C10.8033 20.3333 10.8723 20.2924 10.9083 20.2266C10.9442 20.1608 10.9414 20.0806 10.9008 20.0175C10.5252 19.3918 10.2552 18.7085 10.1017 17.995ZM12.655 9.08333C12.655 8.73815 12.3752 8.45833 12.03 8.45833H7.02999C6.68481 8.45833 6.40499 8.73815 6.40499 9.08333C6.40499 9.42851 6.68481 9.70833 7.02999 9.70833H12.03C12.3752 9.70833 12.655 9.42851 12.655 9.08333ZM11.1367 16.5833C11.1367 13.5918 13.5618 11.1667 16.5533 11.1667C19.5433 11.1703 21.9663 13.5933 21.97 16.5833C21.97 19.5749 19.5449 22 16.5533 22C13.5618 22 11.1367 19.5749 11.1367 16.5833ZM17.3867 17.2083H18.6367C18.9818 17.2083 19.2617 16.9285 19.2617 16.5833C19.2617 16.2382 18.9818 15.9583 18.6367 15.9583H17.3867C17.2716 15.9583 17.1783 15.8651 17.1783 15.75V14.5C17.1783 14.1548 16.8985 13.875 16.5533 13.875C16.2081 13.875 15.9283 14.1548 15.9283 14.5V15.75C15.9283 15.8651 15.835 15.9583 15.72 15.9583H14.47C14.1248 15.9583 13.845 16.2382 13.845 16.5833C13.845 16.9285 14.1248 17.2083 14.47 17.2083H15.72C15.835 17.2083 15.9283 17.3016 15.9283 17.4167V18.6667C15.9283 19.0118 16.2081 19.2917 16.5533 19.2917C16.8985 19.2917 17.1783 19.0118 17.1783 18.6667V17.4167C17.1783 17.3016 17.2716 17.2083 17.3867 17.2083ZM6.40499 14.9158C6.40499 14.5707 6.68481 14.2908 7.02999 14.2908L9.98582 14.2917C10.2583 14.2917 10.2933 14.4825 10.2633 14.5792C10.1809 14.8398 10.1147 15.1053 10.065 15.3742C10.0484 15.4703 9.96507 15.5406 9.86749 15.5408H7.02999C6.68481 15.5408 6.40499 15.261 6.40499 14.9158ZM12.2383 11.5667C11.9009 11.8614 11.5938 12.1892 11.3217 12.545C11.2848 12.5937 11.2277 12.6228 11.1667 12.6242H7.03415C6.68898 12.6242 6.40915 12.3443 6.40915 11.9992C6.40915 11.654 6.68898 11.3742 7.03415 11.3742H12.0342C12.23 11.3742 12.3133 11.5008 12.2383 11.5667Z" fill="#5A5A5A"/>
</g>
</svg>
