<svg width="24" height="24" viewBox="0 0 24 24" fill="none" xmlns="http://www.w3.org/2000/svg">
<g id="task_list_pin_1">
<path id="Shape" fill-rule="evenodd" clip-rule="evenodd" d="M9.93391 8.89793C9.85765 8.60657 9.94453 8.29673 10.1612 8.08751L13.3012 4.94751C13.3567 4.89222 13.3764 4.81033 13.352 4.73584C13.055 3.81978 13.4245 2.81951 14.2457 2.31659C15.067 1.81366 16.1259 1.93916 16.8069 2.62011C17.4878 3.30106 17.6133 4.36 17.1104 5.18125C16.6075 6.00251 15.6072 6.37204 14.6912 6.07501C14.6167 6.05061 14.5348 6.07027 14.4795 6.12584L11.3395 9.26584C11.1303 9.48247 10.8204 9.56935 10.5291 9.49309C10.2377 9.41682 10.0102 9.18929 9.93391 8.89793ZM14.292 17.4058C14.2929 16.6008 14.9453 15.9484 15.7503 15.9475H20.1253C20.2404 15.9475 20.3337 15.8542 20.3337 15.7392V7.84334C20.3337 6.92286 19.5875 6.17667 18.667 6.17667H18.032C17.9707 6.17653 17.9125 6.20335 17.8728 6.25001C17.2409 6.99685 16.312 7.42731 15.3337 7.42667C15.0813 7.42765 14.8297 7.39969 14.5837 7.34334C14.5136 7.32739 14.4403 7.34847 14.3895 7.39917L11.9312 9.85751C11.2802 10.509 10.2243 10.5093 9.57283 9.85834C8.92136 9.20733 8.92099 8.15147 9.57199 7.50001L10.5378 6.53417C10.5976 6.47458 10.6155 6.38484 10.5832 6.3069C10.5508 6.22895 10.4747 6.17819 10.3903 6.17834H5.33366C4.41318 6.17834 3.66699 6.92453 3.66699 7.84501V20.3225C3.66699 21.243 4.41318 21.9892 5.33366 21.9892H14.0837C14.1987 21.9892 14.292 21.8959 14.292 21.7808V17.4058ZM6.58366 17.01C6.58366 16.6648 6.86348 16.385 7.20866 16.385H11.3753C11.7205 16.385 12.0003 16.6648 12.0003 17.01C12.0003 17.3552 11.7205 17.635 11.3753 17.635H7.20866C6.86348 17.635 6.58366 17.3552 6.58366 17.01ZM17.417 12.8433C17.417 12.4982 17.1372 12.2183 16.792 12.2183H7.20866C6.86348 12.2183 6.58366 12.4982 6.58366 12.8433C6.58366 13.1885 6.86348 13.4683 7.20866 13.4683H16.792C17.1372 13.4683 17.417 13.1885 17.417 12.8433ZM15.7503 17.1975C15.6358 17.1989 15.5433 17.2913 15.542 17.4058V21.6417C15.5419 21.7052 15.5708 21.7653 15.6204 21.8049C15.6701 21.8444 15.7351 21.8592 15.797 21.845C16.869 21.602 17.851 21.0619 18.6303 20.2867C19.4108 19.5106 19.9529 18.5275 20.1928 17.4533C20.2068 17.392 20.1921 17.3275 20.1528 17.2783C20.1125 17.2278 20.0509 17.1988 19.9862 17.2L15.7503 17.1975Z" fill="#5A5A5A"/>
</g>
</svg>
