<?xml version="1.0" encoding="UTF-8"?>
<svg width="24px" height="24px" viewBox="0 0 24 24" version="1.1" xmlns="http://www.w3.org/2000/svg" xmlns:xlink="http://www.w3.org/1999/xlink">
    <title>8. Work Office/task_list_add</title>
    <g id="8.-Work-Office/task_list_add" stroke="none" stroke-width="1" fill="none" fill-rule="evenodd">
        <path d="M16.5533333,11.1666667 C19.5433529,11.1703399 21.9663268,13.5933138 21.97,16.5833333 C21.97,19.5748757 19.5448757,22 16.5533333,22 C13.5617909,22 11.1366667,19.5748757 11.1366667,16.5833333 C11.1366667,13.5917909 13.5617909,11.1666667 16.5533333,11.1666667 Z M9.52666667,2.00016875 C10.6540881,2.00016875 11.6977327,2.59543195 12.2716667,3.56583333 C12.3073301,3.62794854 12.3733754,3.66636911 12.445,3.66666667 L12.445,3.66666667 L15.7783333,3.66666667 C16.4686893,3.66666667 17.0283333,4.22631073 17.0283333,4.91666667 L17.0283333,4.91666667 L17.0283333,9.735 C17.028976,9.84521106 16.9433462,9.93669587 16.8333333,9.94333333 C16.1441253,9.97784523 15.4580821,10.0594242 14.78,10.1875 C14.7185667,10.201004 14.6543308,10.1856772 14.6056128,10.1458908 C14.5568947,10.1061044 14.5290426,10.046226 14.53,9.98333333 L14.53,9.98333333 L14.53,6.58333333 C14.53,6.35321469 14.343452,6.16666667 14.1133333,6.16666667 L14.1133333,6.16666667 L4.94666667,6.16666667 C4.71654802,6.16666667 4.53,6.35321469 4.53,6.58333333 L4.53,6.58333333 L4.53,17.4116667 C4.53,17.6417853 4.71654802,17.8283333 4.94666667,17.8283333 L4.94666667,17.8283333 L9.90333333,17.8283333 C10.00086,17.8291334 10.0840826,17.8990683 10.1016667,17.995 C10.2552283,18.7084647 10.5252293,19.3917728 10.9008333,20.0175 C10.9413787,20.0805883 10.9442392,20.1607811 10.9082918,20.2265978 C10.8723444,20.2924145 10.803327,20.3333333 10.7283333,20.3333333 L10.7283333,20.3333333 L3.27833333,20.3333333 C2.5879774,20.3333333 2.02833333,19.7736893 2.02833333,19.0833333 L2.02833333,19.0833333 L2.02833333,4.91666667 C2.02833333,4.22631073 2.5879774,3.66666667 3.27833333,3.66666667 L3.27833333,3.66666667 L6.61166667,3.66666667 C6.68219027,3.66552854 6.74685213,3.62717518 6.78166667,3.56583333 C7.35560061,2.59543195 8.39924526,2.00016875 9.52666667,2.00016875 Z M16.5533333,13.875 C16.2081554,13.875 15.9283333,14.154822 15.9283333,14.5 L15.9283333,14.5 L15.9283333,15.75 C15.9283333,15.8650593 15.8350593,15.9583333 15.72,15.9583333 L15.72,15.9583333 L14.47,15.9583333 C14.124822,15.9583333 13.845,16.2381554 13.845,16.5833333 C13.845,16.9285113 14.124822,17.2083333 14.47,17.2083333 L14.47,17.2083333 L15.72,17.2083333 C15.8350593,17.2083333 15.9283333,17.3016073 15.9283333,17.4166667 L15.9283333,17.4166667 L15.9283333,18.6666667 C15.9283333,19.0118446 16.2081554,19.2916667 16.5533333,19.2916667 C16.8985113,19.2916667 17.1783333,19.0118446 17.1783333,18.6666667 L17.1783333,18.6666667 L17.1783333,17.4166667 C17.1783333,17.3016073 17.2716073,17.2083333 17.3866667,17.2083333 L17.3866667,17.2083333 L18.6366667,17.2083333 C18.9818446,17.2083333 19.2616667,16.9285113 19.2616667,16.5833333 C19.2616667,16.2381554 18.9818446,15.9583333 18.6366667,15.9583333 L18.6366667,15.9583333 L17.3866667,15.9583333 C17.2716073,15.9583333 17.1783333,15.8650593 17.1783333,15.75 L17.1783333,15.75 L17.1783333,14.5 C17.1783333,14.154822 16.8985113,13.875 16.5533333,13.875 Z M7.03,14.2908333 L9.98583333,14.2916667 C10.2583333,14.2916667 10.2933333,14.4825 10.2633333,14.5791667 C10.1809112,14.8398288 10.1146739,15.1053347 10.065,15.3741667 C10.0483992,15.4703255 9.96508112,15.5406362 9.8675,15.5408333 L9.8675,15.5408333 L7.03,15.5408333 C6.68482203,15.5408333 6.405,15.2610113 6.405,14.9158333 C6.405,14.5706554 6.68482203,14.2908333 7.03,14.2908333 L7.03,14.2908333 Z M12.0341667,11.3741667 C12.23,11.3741667 12.3133333,11.5008333 12.2383333,11.5666667 C11.9009338,11.8614103 11.5938508,12.1891516 11.3216667,12.545 C11.2847928,12.5936651 11.227709,12.6228208 11.1666667,12.6241667 L11.1666667,12.6241667 L7.03416667,12.6241667 C6.6889887,12.6241667 6.40916667,12.3443446 6.40916667,11.9991667 C6.40916667,11.6539887 6.6889887,11.3741667 7.03416667,11.3741667 L7.03416667,11.3741667 Z M12.03,8.45833333 C12.375178,8.45833333 12.655,8.73815536 12.655,9.08333333 C12.655,9.4285113 12.375178,9.70833333 12.03,9.70833333 L12.03,9.70833333 L7.03,9.70833333 C6.68482203,9.70833333 6.405,9.4285113 6.405,9.08333333 C6.405,8.73815536 6.68482203,8.45833333 7.03,8.45833333 L7.03,8.45833333 Z" id="ðŸ–-Color" fill="#5A5A5A"></path>
        <rect id="_Transparent_Rectangle_" x="0" y="0" width="24" height="24"></rect>
    </g>
</svg>