<?xml version="1.0" encoding="UTF-8"?>
<svg width="24px" height="24px" viewBox="0 0 24 24" version="1.1" xmlns="http://www.w3.org/2000/svg" xmlns:xlink="http://www.w3.org/1999/xlink">
    <title>8. Work Office/task_finger_bandage</title>
    <g id="8.-Work-Office/task_finger_bandage" stroke="none" stroke-width="1" fill="none" fill-rule="evenodd">
        <path d="M11.885,8.25 C12.1151186,8.25 12.3016667,8.43654802 12.3016667,8.66666667 L12.3016667,8.66666667 L12.3016667,11.5833333 C12.3016667,11.813452 12.4882147,12 12.7183333,12 C12.948452,12 13.135,11.813452 13.135,11.5833333 L13.135,11.5833333 L13.135,9.08333333 C13.135,8.85321469 13.321548,8.66666667 13.5516667,8.66666667 C13.9910455,8.66990241 14.3957604,8.90588033 14.615,9.28666667 L14.615,9.28666667 L14.615,11.5833333 C14.615,11.813452 14.801548,12 15.0316667,12 C15.2617853,12 15.4483333,11.813452 15.4483333,11.5833333 L15.4483333,11.5833333 L15.4483333,9.91666667 C15.4483333,9.68654802 15.6348814,9.5 15.865,9.5 L15.865,9.5 L16.0516667,9.5 C16.4910455,9.50323574 16.8957604,9.73921366 17.115,10.12 L17.115,10.12 L17.115,12.4166667 C17.115,12.6467853 17.301548,12.8333333 17.5316667,12.8333333 C17.7617853,12.8333333 17.9483333,12.6467853 17.9483333,12.4166667 L17.9483333,12.4166667 L17.9483333,10.8908333 C17.9482858,10.7512235 18.0181611,10.6208677 18.1344523,10.5436196 C18.2507434,10.4663714 18.3979939,10.452498 18.5266667,10.5066667 C19.2985962,10.8274531 19.8021004,11.5807375 19.8033333,12.4166667 L19.8033333,12.4166667 L19.8033333,14.5833333 C19.801429,15.3958331 19.6892952,16.2043182 19.47,16.9866667 L19.47,16.9866667 L18.205,21.3966667 C18.1024364,21.7538399 17.775774,22.0000065 17.4041667,22.0000065 L17.4041667,22.0000065 L10.1425,22.0000065 C9.87103981,22.0010744 9.61606976,21.8698581 9.45916667,21.6483333 L9.45916667,21.6483333 L4.5,14.6483333 C4.24329265,14.2874756 4.14377512,13.8379931 4.22416667,13.4025 C4.34455994,12.7501648 4.84211353,12.232336 5.4891226,12.0859974 C6.13613168,11.9396587 6.80809919,12.1929686 7.1975,12.73 L7.1975,12.73 L8.59,14.6858333 C8.64248146,14.7599187 8.73689763,14.791486 8.8233843,14.7638636 C8.90987098,14.7362412 8.96851045,14.6557905 8.96833333,14.565 L8.96833333,14.565 L8.96833333,8.66666667 C8.96833333,8.43654802 9.15488135,8.25 9.385,8.25 L9.385,8.25 Z M6.65000001,3.97916667 C6.9374182,3.61949123 7.46199122,3.56091515 7.82166667,3.84833333 L7.82166667,3.84833333 L9.56333333,5.2425 C9.63719882,5.30137315 9.72887618,5.33340146 9.82333333,5.33333333 L9.82333333,5.33333333 L11.885,5.33333333 C12.1151186,5.33333333 12.3016667,5.51988135 12.3016667,5.75 L12.3016667,5.75 L12.3016667,6.58333333 C12.3016667,6.81345198 12.1151186,7 11.885,7 L11.885,7 L9.82333333,7 C9.72887618,6.99993187 9.63719882,7.03196018 9.56333333,7.09083333 L9.56333333,7.09083333 L7.82166667,8.48416667 C7.46199122,8.77158484 6.9374182,8.71300876 6.65000002,8.35333332 C6.36258183,7.99365788 6.4211579,7.46908486 6.78083333,7.18166667 L6.78083333,7.18166667 L7.8475,6.32583333 C7.897095,6.28630457 7.92598366,6.22633738 7.92598366,6.16291667 C7.92598366,6.09949595 7.897095,6.03952876 7.8475,6 L7.8475,6 L6.78083333,5.15083333 C6.4211579,4.86341514 6.36258182,4.33884211 6.65000001,3.97916667 Z M10.635,2 C11.5554746,2 12.3016667,2.74619208 12.3016667,3.66666667 C12.3016667,3.89678531 12.1151186,4.08333333 11.885,4.08333333 L11.885,4.08333333 L9.385,4.08333333 C9.15488135,4.08333333 8.96833333,3.89678531 8.96833333,3.66666667 C8.96833333,2.74619208 9.71452542,2 10.635,2 Z" id="ðŸ–-Color" fill="#5A5A5A"></path>
        <rect id="_Transparent_Rectangle_" x="0" y="0" width="24" height="24"></rect>
    </g>
</svg>