<?xml version="1.0" encoding="UTF-8"?>
<svg width="24px" height="24px" viewBox="0 0 24 24" version="1.1" xmlns="http://www.w3.org/2000/svg" xmlns:xlink="http://www.w3.org/1999/xlink">
    <title>8. Work Office/task_list_pin_1</title>
    <g id="8.-Work-Office/task_list_pin_1" stroke="none" stroke-width="1" fill="none" fill-rule="evenodd">
        <rect id="_Transparent_Rectangle_" x="0" y="0" width="24" height="24"></rect>
        <path d="M18.6666667,6.17666609 C19.5871412,6.17666609 20.3333333,6.92285875 20.3333333,7.84333333 L20.3333333,7.84333333 L20.3333333,15.7391667 C20.3333333,15.854226 20.2400593,15.9475 20.125,15.9475 L20.125,15.9475 L15.75,15.9475 C14.9449655,15.9484185 14.2925851,16.6007988 14.2916667,17.4058333 L14.2916667,17.4058333 L14.2916667,21.7808333 C14.2916667,21.8958927 14.1983927,21.9891667 14.0833333,21.9891667 L14.0833333,21.9891667 L5.33333333,21.9891667 C4.41285875,21.9891667 3.66666667,21.2429746 3.66666667,20.3225 L3.66666667,20.3225 L3.66666667,7.845 C3.66666667,6.92452542 4.41285875,6.17833333 5.33333333,6.17833333 L5.33333333,6.17833333 L10.39,6.17833333 C10.4743787,6.17818237 10.550516,6.22894286 10.5828268,6.3068903 C10.6151376,6.38483773 10.5972404,6.47457742 10.5375,6.53416667 L10.5375,6.53416667 L9.57166667,7.5 C8.92066104,8.15146589 8.92103415,9.20732767 9.57250002,9.85833331 C10.2239659,10.5093389 11.2798277,10.5089659 11.9308333,9.8575 L11.9308333,9.8575 L14.3891667,7.39916667 C14.4400137,7.3484594 14.5133179,7.3273805 14.5833333,7.34333333 C14.8293269,7.3996832 15.0809701,7.42764355 15.3333333,7.42666667 C16.3116579,7.42730445 17.2405633,6.99684354 17.8725,6.25 C17.9121942,6.20334423 17.9704101,6.17666609 18.0316667,6.17666609 L18.0316667,6.17666609 Z M15.75,17.1975 L19.9858333,17.2 C20.0505402,17.1988066 20.1121271,17.2277524 20.1525,17.2783333 C20.1917944,17.3275281 20.20652,17.3919524 20.1925,17.4533333 C19.9525951,18.5274863 19.4104364,19.5106009 18.63,20.2866667 C17.8506459,21.0618911 16.8687176,21.6019517 15.7966667,21.845 C15.7347725,21.8592259 15.6697695,21.8444431 15.6201148,21.8048492 C15.5704602,21.7652552 15.5415771,21.7051746 15.5416665,21.6416667 L15.5416665,21.6416667 L15.5416665,17.4058333 C15.5430165,17.2913378 15.6355044,17.1988498 15.75,17.1975 L15.75,17.1975 Z M11.375,16.385 L7.20833333,16.385 C6.86315536,16.385 6.58333333,16.664822 6.58333333,17.01 C6.58333333,17.355178 6.86315536,17.635 7.20833333,17.635 L7.20833333,17.635 L11.375,17.635 C11.720178,17.635 12,17.355178 12,17.01 C12,16.664822 11.720178,16.385 11.375,16.385 L11.375,16.385 Z M16.7916667,12.2183333 L7.20833333,12.2183333 C6.86315536,12.2183333 6.58333333,12.4981554 6.58333333,12.8433333 C6.58333333,13.1885113 6.86315536,13.4683333 7.20833333,13.4683333 L7.20833333,13.4683333 L16.7916667,13.4683333 C17.1368446,13.4683333 17.4166667,13.1885113 17.4166667,12.8433333 C17.4166667,12.4981554 17.1368446,12.2183333 16.7916667,12.2183333 L16.7916667,12.2183333 Z M14.2454201,2.3165819 C15.0666769,1.813656 16.1256076,1.93915075 16.8065618,2.62010489 C17.4875159,3.30105904 17.6130107,4.3599898 17.1100848,5.18124654 C16.6071589,6.00250328 15.6068941,6.37203498 14.6908333,6.075 C14.6163399,6.05060404 14.534457,6.07026884 14.4791667,6.12583333 L14.4791667,6.12583333 L11.3391667,9.26583333 C11.1299379,9.48246382 10.8201018,9.56934383 10.5287439,9.49308096 C10.237386,9.4168181 10.0098486,9.18928063 9.9335857,8.89792277 C9.85732284,8.60656491 9.94420285,8.29672873 10.1608333,8.0875 L10.1608333,8.0875 L13.3008333,4.9475 C13.3563978,4.89220968 13.3760626,4.81032675 13.3516667,4.73583333 C13.0546317,3.81977257 13.4241634,2.8195078 14.2454201,2.3165819 Z" id="ðŸ–-Color" fill="#5A5A5A"></path>
    </g>
</svg>