<svg width="24" height="24" viewBox="0 0 24 24" fill="none" xmlns="http://www.w3.org/2000/svg">
<g id="team_meeting_flash">
<path id="Shape" fill-rule="evenodd" clip-rule="evenodd" d="M15.2576 6.46495C15.3939 6.74866 15.3457 7.08258 15.1342 7.32L11.0775 12.248C10.9984 12.3442 10.8777 12.4002 10.75 12.4C10.7035 12.4 10.6572 12.3925 10.6133 12.3776C10.4458 12.3218 10.3335 12.1702 10.3333 12V9.4C10.3333 9.28954 10.2401 9.2 10.125 9.2H9.5C9.17453 9.19998 8.87886 9.01805 8.74291 8.73416C8.60696 8.45027 8.65562 8.11638 8.8675 7.8792L12.9225 2.952C13.0324 2.8179 13.2188 2.76546 13.3866 2.82141C13.5545 2.87736 13.667 3.02939 13.6667 3.2V5.8C13.6667 5.91046 13.7599 6 13.875 6H14.5C14.8254 5.99967 15.1213 6.18124 15.2576 6.46495ZM4.91667 12.8C6.06726 12.8 7 11.9046 7 10.8C7 9.69543 6.06726 8.8 4.91667 8.8C3.76607 8.8 2.83333 9.69543 2.83333 10.8C2.83333 11.9046 3.76607 12.8 4.91667 12.8ZM21.1667 10.8C21.1667 11.9046 20.2339 12.8 19.0833 12.8C17.9327 12.8 17 11.9046 17 10.8C17 9.69543 17.9327 8.8 19.0833 8.8C20.2339 8.8 21.1667 9.69543 21.1667 10.8ZM19.0833 13.2C17.4725 13.2 16.1667 14.4536 16.1667 16V17.6C16.1667 17.8209 16.3532 18 16.5833 18H17.2683C17.3751 18.0003 17.4643 18.078 17.475 18.18L17.8333 21.64C17.8548 21.8452 18.0352 22.001 18.25 22H19.9167C20.1314 22.001 20.3119 21.8452 20.3333 21.64L20.6942 18.18C20.7047 18.0789 20.7925 18.0015 20.8983 18H21.5833C21.8135 18 22 17.8209 22 17.6V16C22 14.4536 20.6942 13.2 19.0833 13.2ZM4.91667 13.2C3.30584 13.2 2 14.4536 2 16V17.6C2 17.8209 2.18655 18 2.41667 18H3.10167C3.20842 18.0003 3.29766 18.078 3.30833 18.18L3.66667 21.64C3.68814 21.8452 3.86855 22.001 4.08333 22H5.75C5.96478 22.001 6.14519 21.8452 6.16667 21.64L6.5275 18.18C6.53807 18.0789 6.62587 18.0015 6.73167 18H7.41667C7.64679 18 7.83333 17.8209 7.83333 17.6V16C7.83333 14.4536 6.5275 13.2 4.91667 13.2Z" fill="#5A5A5A"/>
</g>
</svg>
