<?xml version="1.0" encoding="UTF-8"?>
<svg width="24px" height="24px" viewBox="0 0 24 24" version="1.1" xmlns="http://www.w3.org/2000/svg" xmlns:xlink="http://www.w3.org/1999/xlink">
    <title>8. Work Office/team_meeting_message_question</title>
    <g id="8.-Work-Office/team_meeting_message_question" stroke="none" stroke-width="1" fill="none" fill-rule="evenodd">
        <path d="M16.6208333,11.5833333 C18.3966667,11.6016667 19.5,12.8791667 19.5,14.9166667 C19.4609712,16.0102448 19.0520075,17.0582144 18.34,17.8891667 C18.280508,17.9619888 18.248635,18.0534761 18.25,18.1475 L18.25,18.1475 L18.25,18.9233333 C18.2503466,19.0965708 18.3578492,19.2515206 18.52,19.3125 L18.52,19.3125 L21.3133333,20.36 C21.4757691,20.421087 21.5833333,20.5764575 21.5833333,20.75 L21.5833333,20.75 L21.5833333,21.5833333 C21.5833333,21.813452 21.3967853,22 21.1666667,22 L21.1666667,22 L2.83333333,22 C2.60321469,22 2.41666583,21.813452 2.41666583,21.5833333 L2.41666583,21.5833333 L2.41666583,20.75 C2.4163191,20.5761527 2.52394515,20.4203607 2.68666667,20.3591667 L2.68666667,20.3591667 L5.48,19.3125 C5.64215077,19.2515206 5.74965339,19.0965708 5.75,18.9233333 L5.75,18.9233333 L5.75,18.1475 C5.75171182,18.0548576 5.72073195,17.9645734 5.6625,17.8925 C5.18416667,17.3133333 3.72666667,15.2491667 5.03166667,12.9916667 C5.54327827,12.1368969 6.45822051,11.6049903 7.45416667,11.5833333 C9.23,11.6016667 10.3333333,12.8791667 10.3333333,14.9166667 C10.2941178,16.0099559 9.88516553,17.0576023 9.17333333,17.8883333 C9.11384134,17.9611555 9.08196836,18.0526427 9.08333333,18.1466667 L9.08333333,18.1466667 L9.08333333,18.9225 C9.08367994,19.0957375 9.19118256,19.2506873 9.35333333,19.3116667 L9.35333333,19.3116667 L11.9266667,20.2775 C11.9738381,20.2958266 12.0261619,20.2958266 12.0733333,20.2775 L12.0733333,20.2775 L14.6466667,19.3125 C14.8088174,19.2515206 14.9163201,19.0965708 14.9166658,18.9233333 L14.9166658,18.9233333 L14.9166658,18.1475 C14.9183785,18.0548576 14.8873986,17.9645734 14.8291667,17.8925 C14.3508333,17.3133333 12.8933333,15.2491667 14.1983333,12.9916667 C14.7039614,12.1308615 15.622603,11.5968043 16.6208333,11.5833333 Z M17.8333333,2 C18.5236893,2 19.0833333,2.55964406 19.0833333,3.25 L19.0833333,3.25 L19.0833333,9.08333333 C19.0833333,9.77368927 18.5236893,10.3333333 17.8333333,10.3333333 L17.8333333,10.3333333 L14.7591667,10.3333333 C14.7041135,10.332791 14.651084,10.3540628 14.6116667,10.3925 L14.6116667,10.3925 L12.295,12.7116667 C12.2167077,12.7897616 12.1105824,12.8335308 12,12.8333345 C11.9453667,12.8334659 11.8912556,12.8227004 11.8408333,12.8016667 C11.6850071,12.7372563 11.5833607,12.5852802 11.5833333,12.4166667 L11.5833333,12.4166667 L11.5833333,10.5416667 C11.5833333,10.4266073 11.4900593,10.3333333 11.375,10.3333333 L11.375,10.3333333 L6.16666667,10.3333333 C5.47631073,10.3333333 4.91666667,9.77368927 4.91666667,9.08333333 L4.91666667,9.08333333 L4.91666667,3.25 C4.91666667,2.55964406 5.47631073,2 6.16666667,2 L6.16666667,2 Z M12.4166667,7.41666667 C11.9564294,7.41666667 11.5833333,7.78976271 11.5833333,8.25 C11.5833333,8.71023729 11.9564294,9.08333333 12.4166667,9.08333333 C12.876904,9.08333333 13.25,8.71023729 13.25,8.25 C13.25,7.78976271 12.876904,7.41666667 12.4166667,7.41666667 Z M13.8158539,3.6285565 C13.2496434,3.06258441 12.3982319,2.89346106 11.6586948,3.20006104 C10.9191576,3.50666102 10.4371629,4.22859273 10.4374998,5.02916667 C10.4374998,5.31681497 10.670685,5.55 10.9583333,5.55 C11.2459816,5.55 11.4791667,5.31681497 11.4791667,5.02916667 C11.4791667,4.51139971 11.8988997,4.09166667 12.4166667,4.09166667 C12.9344336,4.09166667 13.3541667,4.51139971 13.3541667,5.02916667 C13.3541667,5.54693362 12.9344336,5.96666667 12.4166667,5.96666667 C12.1290184,5.96666667 11.8958333,6.19985169 11.8958333,6.4875 C11.8958333,6.77514831 12.1290184,7.00833333 12.4166667,7.00833333 L12.4166667,7.00833333 C13.2172407,7.00749993 13.9389693,6.52520124 14.2452578,5.78553503 C14.5515463,5.04586882 14.3820644,4.1945286 13.8158539,3.6285565 Z" id="ðŸ–-Color" fill="#5A5A5A"></path>
        <rect id="_Transparent_Rectangle_" x="0" y="0" width="24" height="24"></rect>
    </g>
</svg>