<svg width="24" height="24" viewBox="0 0 24 24" fill="none" xmlns="http://www.w3.org/2000/svg">
<g id="team_meeting_message_question">
<path id="Shape" fill-rule="evenodd" clip-rule="evenodd" d="M11.3753 10.3333H6.16699C5.47664 10.3333 4.91699 9.77369 4.91699 9.08333V3.25C4.91699 2.55964 5.47664 2 6.16699 2H17.8337C18.524 2 19.0837 2.55964 19.0837 3.25V9.08333C19.0837 9.77369 18.524 10.3333 17.8337 10.3333H14.7595C14.7044 10.3328 14.6514 10.3541 14.612 10.3925L12.2953 12.7117C12.217 12.7898 12.1109 12.8335 12.0003 12.8333C11.9457 12.8335 11.8916 12.8227 11.8412 12.8017C11.6853 12.7373 11.5837 12.5853 11.5837 12.4167V10.5417C11.5837 10.4266 11.4904 10.3333 11.3753 10.3333ZM12.417 7.41667C11.9568 7.41667 11.5837 7.78976 11.5837 8.25C11.5837 8.71024 11.9568 9.08333 12.417 9.08333C12.8772 9.08333 13.2503 8.71024 13.2503 8.25C13.2503 7.78976 12.8772 7.41667 12.417 7.41667ZM12.417 7.00833C12.1293 7.00833 11.8962 6.77515 11.8962 6.4875C11.8962 6.19985 12.1293 5.96667 12.417 5.96667C12.9348 5.96667 13.3545 5.54693 13.3545 5.02917C13.3545 4.5114 12.9348 4.09167 12.417 4.09167C11.8992 4.09167 11.4795 4.5114 11.4795 5.02917C11.4795 5.31681 11.2463 5.55 10.9587 5.55C10.671 5.55 10.4378 5.31681 10.4378 5.02917C10.4375 4.22859 10.9195 3.50666 11.659 3.20006C12.3986 2.89346 13.25 3.06258 13.8162 3.62856C14.3824 4.19453 14.5519 5.04587 14.2456 5.78553C13.9393 6.5252 13.2176 7.0075 12.417 7.0075V7.00833ZM21.3137 20.36C21.4761 20.4211 21.5837 20.5765 21.5837 20.75V21.5833C21.5837 21.8135 21.3971 22 21.167 22H2.83366C2.60354 22 2.41699 21.8135 2.41699 21.5833V20.75C2.41665 20.5762 2.52427 20.4204 2.68699 20.3592L5.48033 19.3125C5.64248 19.2515 5.74998 19.0966 5.75033 18.9233V18.1475C5.75204 18.0549 5.72106 17.9646 5.66283 17.8925C5.18449 17.3133 3.72699 15.2492 5.03199 12.9917C5.54361 12.1369 6.45855 11.605 7.45449 11.5833C9.23033 11.6017 10.3337 12.8792 10.3337 14.9167C10.2944 16.01 9.88549 17.0576 9.17366 17.8883C9.11417 17.9612 9.0823 18.0526 9.08366 18.1467V18.9225C9.08401 19.0957 9.19151 19.2507 9.35366 19.3117L11.927 20.2775C11.9742 20.2958 12.0265 20.2958 12.0737 20.2775L14.647 19.3125C14.8091 19.2515 14.9166 19.0966 14.917 18.9233V18.1475C14.9187 18.0549 14.8877 17.9646 14.8295 17.8925C14.3512 17.3133 12.8937 15.2492 14.1987 12.9917C14.7043 12.1309 15.6229 11.5968 16.6212 11.5833C18.397 11.6017 19.5003 12.8792 19.5003 14.9167C19.4613 16.0102 19.0523 17.0582 18.3403 17.8892C18.2808 17.962 18.249 18.0535 18.2503 18.1475V18.9233C18.2507 19.0966 18.3582 19.2515 18.5203 19.3125L21.3137 20.36Z" fill="#5A5A5A"/>
</g>
</svg>
