<?xml version="1.0" encoding="UTF-8"?>
<svg width="24px" height="24px" viewBox="0 0 24 24" version="1.1" xmlns="http://www.w3.org/2000/svg" xmlns:xlink="http://www.w3.org/1999/xlink">
    <title>8. Work Office/team_meeting_flash</title>
    <g id="8.-Work-Office/team_meeting_flash" stroke="none" stroke-width="1" fill="none" fill-rule="evenodd">
        <path d="M19.0833333,13.2 C20.6941639,13.2 22,14.4536027 22,16 L22,16 L22,17.6 C22,17.8209139 21.813452,18 21.5833333,18 L21.5833333,18 L20.8983333,18 C20.7925389,18.0015235 20.7047354,18.0789339 20.6941667,18.18 L20.6941667,18.18 L20.3333333,21.64 C20.3118575,21.8451605 20.1314492,22.0010333 19.9166667,22.0000051 L19.9166667,22.0000051 L18.25,22.0000051 C18.0352175,22.0010333 17.8548092,21.8451605 17.8333333,21.64 L17.8333333,21.64 L17.475,18.18 C17.4643251,18.0780299 17.3750868,18.0003062 17.2683333,18 L17.2683333,18 L16.5833333,18 C16.3532147,18 16.1666667,17.8209139 16.1666667,17.6 L16.1666667,17.6 L16.1666667,16 C16.1666667,14.4536027 17.4725028,13.2 19.0833333,13.2 Z M4.91666667,13.2 C6.52749719,13.2 7.83333333,14.4536027 7.83333333,16 L7.83333333,16 L7.83333333,17.6 C7.83333333,17.8209139 7.64678531,18 7.41666667,18 L7.41666667,18 L6.73166667,18 C6.62587223,18.0015235 6.53806873,18.0789339 6.5275,18.18 L6.5275,18.18 L6.16666667,21.64 C6.14519084,21.8451605 5.96478253,22.0010333 5.75,22.0000051 L5.75,22.0000051 L4.08333333,22.0000051 C3.8685508,22.0010333 3.68814249,21.8451605 3.66666667,21.64 L3.66666667,21.64 L3.30833333,18.18 C3.29765842,18.0780299 3.20842012,18.0003062 3.10166667,18 L3.10166667,18 L2.41666667,18 C2.18654802,18 2,17.8209139 2,17.6 L2,17.6 L2,16 C2,14.4536027 3.30583615,13.2 4.91666667,13.2 Z M19.0833333,8.8 C20.2339266,8.8 21.1666667,9.6954305 21.1666667,10.8 C21.1666667,11.9045695 20.2339266,12.8 19.0833333,12.8 C17.9327401,12.8 17,11.9045695 17,10.8 C17,9.6954305 17.9327401,8.8 19.0833333,8.8 Z M4.91666667,8.8 C6.0672599,8.8 7,9.6954305 7,10.8 C7,11.9045695 6.0672599,12.8 4.91666667,12.8 C3.76607344,12.8 2.83333333,11.9045695 2.83333333,10.8 C2.83333333,9.6954305 3.76607344,8.8 4.91666667,8.8 Z M12.9225,2.952 C13.0323717,2.81789831 13.2187522,2.76545952 13.3866449,2.82141123 C13.5545376,2.87736293 13.6669822,3.02938778 13.6666667,3.2 L13.6666667,3.2 L13.6666667,5.8 C13.6666667,5.91045695 13.7599407,6 13.875,6 L13.875,6 L14.5,6 C14.825445,5.99966687 15.1213144,6.18124188 15.2576153,6.46494846 C15.3939163,6.74865503 15.3457062,7.08257591 15.1341667,7.32 L15.1341667,7.32 L11.0775,12.248 C10.9983524,12.3441541 10.8776576,12.4001713 10.75,12.4000004 C10.7034502,12.4000004 10.657234,12.3924605 10.6133333,12.3776 C10.4458069,12.3217601 10.3334535,12.1702436 10.3333333,12 L10.3333333,12 L10.3333333,9.4 C10.3333333,9.28954305 10.2400593,9.2 10.125,9.2 L10.125,9.2 L9.5,9.2 C9.17452891,9.19997571 8.87885751,9.01804724 8.74290932,8.73415733 C8.60696113,8.45026742 8.65561832,8.11637554 8.8675,7.8792 L8.8675,7.8792 Z" id="ðŸ–-Color" fill="#5A5A5A"></path>
        <rect id="_Transparent_Rectangle_" x="0" y="0" width="24" height="24"></rect>
    </g>
</svg>