<?xml version="1.0" encoding="UTF-8"?>
<svg width="24px" height="24px" viewBox="0 0 24 24" version="1.1" xmlns="http://www.w3.org/2000/svg" xmlns:xlink="http://www.w3.org/1999/xlink">
    <title>8. Work Office/user_man_stress</title>
    <g id="8.-Work-Office/user_man_stress" stroke="none" stroke-width="1" fill="none" fill-rule="evenodd">
        <path d="M12,15.3333333 C15.4502566,15.3370077 18.2463256,18.1330768 18.25,21.5833333 C18.25,21.813452 18.063452,22 17.8333333,22 L17.8333333,22 L6.16666667,22 C6.0561598,22 5.950179,21.9561013 5.87203884,21.8779612 C5.79389868,21.799821 5.75,21.6938402 5.75,21.5833333 C5.7536744,18.1330768 8.54974345,15.3370077 12,15.3333333 Z M12,16.375 C11.654822,16.375 11.375,16.654822 11.375,17 L11.375,17 L11.375,19.5 C11.375,19.845178 11.654822,20.125 12,20.125 C12.345178,20.125 12.625,19.845178 12.625,19.5 L12.625,19.5 L12.625,17 C12.625,16.654822 12.345178,16.375 12,16.375 Z M10.3797237,6.76575072 C11.9629599,6.11004407 13.7852911,6.47266805 14.9969037,7.68451902 C16.2085163,8.89637 16.5707818,10.7187725 15.9147637,12.3018796 C15.2587456,13.8849868 13.7136475,14.9170037 12,14.9166667 C9.66143111,14.9139106 7.76646271,13.0185694 7.76416667,10.68 C7.76416667,8.96635246 8.79648758,7.42145736 10.3797237,6.76575072 Z M9.81,9.97916667 C9.75281324,9.94318759 9.6817692,9.9370471 9.61925715,9.96268034 C9.5567451,9.98831359 9.51046431,10.0425635 9.495,10.1083333 C9.32139486,10.8706719 9.5041437,11.6705837 9.99157588,12.2819009 C10.4790081,12.893218 11.2181442,13.2494959 12,13.25 C13.2917524,13.2481188 14.3817954,12.2885814 14.5475,11.0075 C14.556293,10.9404222 14.5319678,10.8732513 14.4822634,10.8273576 C14.4325591,10.7814639 14.3636651,10.7625625 14.2975,10.7766667 C12.7549503,11.1088854 11.1436304,10.8225283 9.81,9.97916667 Z M19.7441667,3.49416667 C20.0695832,3.16884838 20.5970835,3.16884838 20.9225,3.49416667 C21.0791258,3.65061777 21.1670627,3.86296078 21.1669066,4.08433956 C21.1667501,4.30571835 21.0785133,4.51793694 20.9216667,4.67416667 L20.9216667,4.67416667 L19.8591667,5.73666667 C19.7890764,5.8071545 19.7782774,5.91723516 19.8333333,6 L19.8333333,6 L20.1933333,6.5375 C20.4388351,6.90553703 20.3539573,7.40126765 20,7.66666667 L20,7.66666667 L18.3333333,8.91666667 C17.9651435,9.19280904 17.442809,9.11818983 17.1666667,8.75 C16.8905243,8.38181017 16.9651435,7.85947571 17.3333333,7.58333333 L17.3333333,7.58333333 L18.2116667,6.92416667 C18.3001683,6.85810133 18.321414,6.7342905 18.26,6.6425 L18.26,6.6425 L17.9733333,6.21166667 C17.7533723,5.88127955 17.796956,5.44160654 18.0775,5.16083333 L18.0775,5.16083333 Z M3.08765119,3.50431785 C3.40909602,3.18287302 3.92885093,3.17835649 4.25583333,3.49416667 L4.25583333,3.49416667 L5.9225,5.16083333 C6.20304398,5.44160654 6.24662774,5.88127955 6.02666667,6.21166667 L6.02666667,6.21166667 L5.74,6.6425 C5.67858602,6.7342905 5.69983167,6.85810133 5.78833333,6.92416667 L5.78833333,6.92416667 L6.66666667,7.58333333 C6.84347766,7.71594158 6.96036851,7.91335643 6.99162458,8.13214887 C7.02288064,8.35094131 6.96594158,8.57318901 6.83333333,8.75 C6.70072509,8.92681099 6.50331024,9.04370185 6.2845178,9.07495791 C6.06572536,9.10621397 5.84347766,9.04927491 5.66666667,8.91666667 L5.66666667,8.91666667 L4,7.66666667 C3.64731614,7.40114966 3.56289115,6.90666048 3.8075,6.53916667 L3.8075,6.53916667 L4.16666667,6 C4.22243209,5.91669024 4.21124603,5.80552873 4.14,5.735 L4.14,5.735 L3.0775,4.6725 C2.76168983,4.34551759 2.76620636,3.82576269 3.08765119,3.50431785 Z M11.3066667,2.37083333 C11.5704595,2.01259344 12.0691327,1.92473869 12.4394704,2.17125935 C12.8098081,2.41778001 12.9211946,2.91172984 12.6925,3.29333333 L12.6925,3.29333333 L12.3333333,3.83333333 C12.2776932,3.91638263 12.2888845,4.02724623 12.36,4.0975 L12.36,4.0975 L12.5891667,4.3275 C12.9049768,4.65448241 12.9004603,5.17423731 12.5790155,5.49568215 C12.2575706,5.81712698 11.7378157,5.82164351 11.4108333,5.50583333 L11.4108333,5.50583333 L10.5775,4.6725 C10.2965123,4.39160054 10.2529105,3.95139708 10.4733333,3.62083333 L10.4733333,3.62083333 Z" id="ðŸ–-Color" fill="#5A5A5A"></path>
        <rect id="_Transparent_Rectangle_" x="0" y="0" width="24" height="24"></rect>
    </g>
</svg>