<svg width="24" height="24" viewBox="0 0 24 24" fill="none" xmlns="http://www.w3.org/2000/svg">
<g id="user_man_stress">
<path id="Shape" fill-rule="evenodd" clip-rule="evenodd" d="M12.5792 5.49568C12.2577 5.81713 11.738 5.82164 11.411 5.50583L10.5777 4.6725C10.2967 4.3916 10.2531 3.9514 10.4735 3.62083L11.3068 2.37083C11.5706 2.01259 12.0693 1.92474 12.4396 2.17126C12.81 2.41778 12.9214 2.91173 12.6927 3.29333L12.3335 3.83333C12.2779 3.91638 12.2891 4.02725 12.3602 4.0975L12.5893 4.3275C12.9052 4.65448 12.9006 5.17424 12.5792 5.49568ZM19.7443 3.49417C20.0698 3.16885 20.5973 3.16885 20.9227 3.49417C21.0793 3.65062 21.1672 3.86296 21.1671 4.08434C21.1669 4.30572 21.0787 4.51794 20.9218 4.67417L19.8593 5.73667C19.7893 5.80715 19.7785 5.91723 19.8335 6L20.1935 6.5375C20.439 6.90554 20.3541 7.40127 20.0002 7.66667L18.3335 8.91667C17.9653 9.19281 17.443 9.11819 17.1668 8.75C16.8907 8.38181 16.9653 7.85948 17.3335 7.58333L18.2118 6.92417C18.3003 6.8581 18.3216 6.73429 18.2602 6.6425L17.9735 6.21167C17.7535 5.88128 17.7971 5.44161 18.0777 5.16083L19.7443 3.49417ZM15.9149 12.3019C15.2589 13.885 13.7138 14.917 12.0002 14.9167C9.66161 14.9139 7.76664 13.0186 7.76434 10.68C7.76434 8.96635 8.79666 7.42146 10.3799 6.76575C11.9631 6.11004 13.7855 6.47267 14.9971 7.68452C16.2087 8.89637 16.571 10.7188 15.9149 12.3019ZM9.99175 12.2819C10.4792 12.8932 11.2183 13.2495 12.0002 13.25C13.2919 13.2481 14.382 12.2886 14.5477 11.0075C14.5565 10.9404 14.5321 10.8733 14.4824 10.8274C14.4327 10.7815 14.3638 10.7626 14.2977 10.7767C12.7551 11.1089 11.1438 10.8225 9.81018 9.97917C9.75299 9.94319 9.68195 9.93705 9.61943 9.96268C9.55692 9.98831 9.51064 10.0426 9.49518 10.1083C9.32157 10.8707 9.50432 11.6706 9.99175 12.2819ZM5.75018 21.5833C5.75385 18.1331 8.54992 15.337 12.0002 15.3333C15.4504 15.337 18.2465 18.1331 18.2502 21.5833C18.2502 21.8135 18.0636 22 17.8335 22H6.16684C6.05634 22 5.95036 21.9561 5.87222 21.878C5.79408 21.7998 5.75018 21.6938 5.75018 21.5833ZM12.0002 16.375C11.655 16.375 11.3752 16.6548 11.3752 17V19.5C11.3752 19.8452 11.655 20.125 12.0002 20.125C12.3454 20.125 12.6252 19.8452 12.6252 19.5V17C12.6252 16.6548 12.3454 16.375 12.0002 16.375ZM6.83351 8.75C6.96612 8.57319 7.02306 8.35094 6.9918 8.13215C6.96055 7.91336 6.84365 7.71594 6.66684 7.58333L5.78851 6.92417C5.70001 6.8581 5.67876 6.73429 5.74018 6.6425L6.02684 6.21167C6.2468 5.88128 6.20322 5.44161 5.92268 5.16083L4.25601 3.49417C3.92903 3.17836 3.40927 3.18287 3.08783 3.50432C2.76638 3.82576 2.76187 4.34552 3.07768 4.6725L4.14018 5.735C4.21142 5.80553 4.22261 5.91669 4.16684 6L3.80768 6.53917C3.56307 6.90666 3.64749 7.40115 4.00018 7.66667L5.66684 8.91667C5.84365 9.04927 6.0659 9.10621 6.28469 9.07496C6.50349 9.0437 6.7009 8.92681 6.83351 8.75Z" fill="#5A5A5A"/>
</g>
</svg>
