<svg xmlns="http://www.w3.org/2000/svg" width="152.075" height="366.835" viewBox="0 0 152.075 366.835">
  <defs>
    <style>.a {
      fill: #ec4c77;
    }

    .b {
      fill: #ffc1a0;
    }

    .c {
      fill: #ffdfc4;
    }

    .d {
      fill: #891010;
    }

    .e {
      fill: #242143;
    }

    .f {
      fill: #634c72;
    }

    .g {
      fill: #fff;
    }

    .h {
      fill: #ff7292;
    }</style>
  </defs>
  <path class="a" d="M12.394,0,0,13.21H21.815l5.163-6.917V13.21h5.646V0Z" transform="translate(63.095 351.689)"/>
  <path class="a" d="M12.132,0,0,10.07H21.353L26.407,4.8V10.07h5.527V0Z"
        transform="translate(107.54 356.779) rotate(-3)"/>
  <path class="b"
        d="M47.479,28.381,32.3,5.786,15.636,0l-.344,2.84L25.08,9.123,14.175,12.085,2.036,2.565,0,4.756,12.66,17.293l16.634-1.336,7.627,14.995Z"
        transform="translate(42.08 87.053)"/>
  <path class="a" d="M18.83-1.633s27.416,44.922,23.57,49.4-47.52-5.9-47.52-5.9Z" transform="translate(109.306 78.198)"/>
  <path class="c"
        d="M17.665,17.379A31.049,31.049,0,0,1,0,17.493a17.637,17.637,0,0,0,1.918-7.209c.113-1.152.168-2.311.182-3.4a53.717,53.717,0,0,0-.237-6.2L14.622,0l.323,1.8,1.443,8.256Z"
        transform="translate(97.129 51.703)"/>
  <path class="b" d="M14.47,8.256A64.324,64.324,0,0,1,0,8.486c.113-1.152.168-2.311.184-3.4,0,0,9.376-1.8,12.843-5.087Z"
        transform="translate(99.046 53.5)"/>
  <path class="c" d="M0,4.02s-.277,36.025,14.35,38.545C29.7,45.21,34.05,24.248,34.05,24.248L30.653,0Z"
        transform="translate(83.23 17.872)"/>
  <path class="b" d="M.366,3.672A2.4,2.4,0,1,0,1.128.365,2.4,2.4,0,0,0,.366,3.672" transform="translate(89.559 42.99)"/>
  <path class="d"
        d="M4.277.114,0,2.281S4.262,6.619,14.017,6.115c8.4-.432,12.106-4.282,12.106-4.282L21.942,0A41.214,41.214,0,0,1,4.277.114"
        transform="translate(92.852 69.082)"/>
  <path class="e"
        d="M73.388,204.005l-37.8-1.855L39.277,21.307l-3.9.851L25.919,202.151l-38.653,1.855L8.946,9.548l55.63-8.467"
        transform="translate(75.462 153.538)"/>
  <path class="f"
        d="M6.551,59.384H52.783a6.553,6.553,0,0,0,6.551-6.556V6.556A6.553,6.553,0,0,0,52.783,0H6.551A6.554,6.554,0,0,0,0,6.556V52.828a6.554,6.554,0,0,0,6.551,6.556"
        transform="translate(5.116 38.255)"/>
  <path class="g"
        d="M13.182,17.615a9.183,9.183,0,1,1,7.338,0A16.86,16.86,0,0,1,33.7,34.066v1.012H0V34.066A16.861,16.861,0,0,1,13.182,17.615"
        transform="translate(17.933 49.112)"/>
  <path class="h" d="M32.391,8.164v0Z" transform="translate(68.433 346.773)"/>
  <path class="a"
        d="M-9.314,97.556S-2.605,5.752,1.814,2.369C7.045-1.634,13.19.647,13.19.647l13.061.8L31.23.2s5.648-1.312,9.133,5.189c1.928,3.6,21.254,82.332,21.254,82.332"
        transform="translate(87.746 70.716)"/>
  <path class="c"
        d="M47.479,28.382,32.3,5.787,15.636,0l-.344,2.84L25.08,9.124,14.174,12.085,2.036,2.565,0,4.757,12.66,17.294l16.634-1.336,7.627,14.993Z"
        transform="translate(0 87.555)"/>
  <path class="a"
        d="M61.264,0S50.948,4.4,48.077,15.171,33.009,59.158,33.009,59.158L9.043,28.294-1.79,34.613s31.053,51.213,34.8,51.006,22.193-28.53,27.9-49.431A71.089,71.089,0,0,0,61.264,0"
        transform="translate(30.693 71.786)"/>
  <path class="e"
        d="M4.356,27.39c-.159-.432,0-1.581-.163-2.013A17.359,17.359,0,0,1,17.773,39.6,17.364,17.364,0,0,1,8.707,57.053c10.358,1.149,21.009,1.5,31.033-1.346s21-9.344,25.374-18.813c-1.262.763-4.421-.168-5.47-1.207-6.2-6.139-8.141-15.217-11.328-23.34C47.132,9.325,45.669,6.284,43.184,4.2s-6.227-2.979-9.03-1.345C32.079.485,27.747-.134,24.606.023A27.237,27.237,0,0,0,.74,18.206,10.416,10.416,0,0,0,.151,23.6a5.64,5.64,0,0,0,4.2,3.791"
        transform="translate(79.05 0)"/>
</svg>
