<svg width="24" height="24" viewBox="0 0 24 24" fill="none" xmlns="http://www.w3.org/2000/svg">
<g id="add_anchor">
<path id="Shape" fill-rule="evenodd" clip-rule="evenodd" d="M8.83896 9.46417L11.3748 6.92833C11.4139 6.88915 11.467 6.86713 11.5223 6.86713C11.5776 6.86713 11.6307 6.88915 11.6698 6.92833L11.9748 7.23333C12.0919 7.35058 12.2508 7.41646 12.4165 7.41646C12.5822 7.41646 12.741 7.35058 12.8581 7.23333L14.9415 5.15C15.0587 5.03292 15.1246 4.87403 15.1246 4.70833C15.1246 4.54264 15.0587 4.38375 14.9415 4.26667L12.8581 2.18333C12.741 2.06609 12.5822 2.0002 12.4165 2.0002C12.2508 2.0002 12.0919 2.06609 11.9748 2.18333L9.89146 4.26667C9.77422 4.38375 9.70833 4.54264 9.70833 4.70833C9.70833 4.87403 9.77422 5.03292 9.89146 5.15L10.1965 5.455C10.2356 5.49408 10.2577 5.54715 10.2577 5.6025C10.2577 5.65784 10.2356 5.71091 10.1965 5.75L7.66063 8.28583C7.34482 8.61282 7.34934 9.13257 7.67078 9.45401C7.99222 9.77546 8.51198 9.77998 8.83896 9.46417ZM21.8165 12.4417C21.9337 12.3246 21.9996 12.1657 21.9996 12C21.9996 11.8343 21.9337 11.6754 21.8165 11.5583L19.7331 9.475C19.6161 9.35775 19.4572 9.29187 19.2915 9.29187C19.1258 9.29187 18.9669 9.35775 18.8498 9.475L17.219 11.1058C17.1798 11.1448 17.1267 11.1667 17.0715 11.1667H6.92813C6.87286 11.1667 6.81983 11.1448 6.78063 11.1058L5.1498 9.475C5.03272 9.35775 4.87382 9.29187 4.70813 9.29187C4.54244 9.29187 4.38354 9.35775 4.26646 9.475L2.18313 11.5583C2.06588 11.6754 2 11.8343 2 12C2 12.1657 2.06588 12.3246 2.18313 12.4417L4.26646 14.525C4.38354 14.6422 4.54244 14.7081 4.70813 14.7081C4.87382 14.7081 5.03272 14.6422 5.1498 14.525L6.78063 12.8942C6.81983 12.8552 6.87286 12.8333 6.92813 12.8333H17.0715C17.1267 12.8333 17.1798 12.8552 17.219 12.8942L18.8498 14.525C18.9669 14.6422 19.1258 14.7081 19.2915 14.7081C19.4572 14.7081 19.6161 14.6422 19.7331 14.525L21.8165 12.4417ZM12.4165 16.5835C12.5822 16.5835 12.741 16.6494 12.8581 16.7667L14.9415 18.85C15.0587 18.9671 15.1246 19.126 15.1246 19.2917C15.1246 19.4574 15.0587 19.6163 14.9415 19.7333L12.8581 21.8167C12.741 21.9339 12.5822 21.9998 12.4165 21.9998C12.2508 21.9998 12.0919 21.9339 11.9748 21.8167L9.89146 19.7333C9.77422 19.6163 9.70833 19.4574 9.70833 19.2917C9.70833 19.126 9.77422 18.9671 9.89146 18.85L10.1965 18.545C10.2356 18.5059 10.2577 18.4528 10.2577 18.3975C10.2577 18.3422 10.2356 18.2891 10.1965 18.25L7.66063 15.7142C7.444 15.5049 7.35712 15.1951 7.43338 14.9037C7.50964 14.6124 7.73718 14.3848 8.02854 14.3086C8.3199 14.2323 8.62973 14.3192 8.83896 14.5358L11.3748 17.0717C11.4139 17.1109 11.467 17.1329 11.5223 17.1329C11.5776 17.1329 11.6307 17.1109 11.6698 17.0717L11.9748 16.7667C12.0919 16.6494 12.2508 16.5835 12.4165 16.5835Z" fill="#5A5A5A"/>
</g>
</svg>
