<?xml version="1.0" encoding="UTF-8"?>
<svg width="24px" height="24px" viewBox="0 0 24 24" version="1.1" xmlns="http://www.w3.org/2000/svg" xmlns:xlink="http://www.w3.org/1999/xlink">
    <title>13. Design/add_anchor</title>
    <g id="13.-Design/add_anchor" stroke="none" stroke-width="1" fill="none" fill-rule="evenodd">
        <path d="M8.0287439,14.3085857 C8.32010176,14.2323228 8.62993794,14.3192028 8.83916667,14.5358333 L8.83916667,14.5358333 L11.375,17.0716667 C11.4140851,17.1108507 11.4671553,17.1328724 11.5225,17.1328724 C11.5778447,17.1328724 11.6309149,17.1108507 11.67,17.0716667 L11.67,17.0716667 L11.975,16.7666667 C12.0920794,16.6494204 12.2509733,16.5835381 12.4166667,16.5835381 C12.58236,16.5835381 12.7412539,16.6494204 12.8583333,16.7666667 L12.8583333,16.7666667 L14.9416667,18.85 C15.0589129,18.9670794 15.1247953,19.1259733 15.1247953,19.2916667 C15.1247953,19.45736 15.0589129,19.6162539 14.9416667,19.7333333 L14.9416667,19.7333333 L12.8583333,21.8166667 C12.7412539,21.9339129 12.58236,21.9997953 12.4166667,21.9997953 C12.2509733,21.9997953 12.0920794,21.9339129 11.975,21.8166667 L11.975,21.8166667 L9.89166667,19.7333333 C9.77442039,19.6162539 9.70853807,19.45736 9.70853807,19.2916667 C9.70853807,19.1259733 9.77442039,18.9670794 9.89166667,18.85 L9.89166667,18.85 L10.1966667,18.545 C10.2358507,18.5059149 10.2578724,18.4528447 10.2578724,18.3975 C10.2578724,18.3421553 10.2358507,18.2890851 10.1966667,18.25 L10.1966667,18.25 L7.66083333,15.7141667 C7.44420285,15.5049379 7.35732284,15.1951018 7.4335857,14.9037439 C7.50984857,14.612386 7.73738604,14.3848486 8.0287439,14.3085857 Z M19.2916667,9.29187141 C19.45736,9.29187141 19.6162539,9.35775373 19.7333333,9.475 L19.7333333,9.475 L21.8166667,11.5583333 C21.9339129,11.6754127 21.9997953,11.8343067 21.9997953,12 C21.9997953,12.1656933 21.9339129,12.3245873 21.8166667,12.4416667 L21.8166667,12.4416667 L19.7333333,14.525 C19.6162539,14.6422463 19.45736,14.7081286 19.2916667,14.7081286 C19.1259733,14.7081286 18.9670794,14.6422463 18.85,14.525 L18.85,14.525 L17.2191667,12.8941667 C17.179969,12.8551966 17.1269398,12.8333259 17.0716667,12.8333333 L17.0716667,12.8333333 L6.92833333,12.8333333 C6.87306018,12.8333259 6.82003103,12.8551966 6.78083333,12.8941667 L6.78083333,12.8941667 L5.15,14.525 C5.03292059,14.6422463 4.87402665,14.7081286 4.70833333,14.7081286 C4.54264001,14.7081286 4.38374607,14.6422463 4.26666667,14.525 L4.26666667,14.525 L2.18333333,12.4416667 C2.06608706,12.3245873 2.00020474,12.1656933 2.00020474,12 C2.00020474,11.8343067 2.06608706,11.6754127 2.18333333,11.5583333 L2.18333333,11.5583333 L4.26666667,9.475 C4.38374607,9.35775373 4.54264001,9.29187141 4.70833333,9.29187141 C4.87402665,9.29187141 5.03292059,9.35775373 5.15,9.475 L5.15,9.475 L6.78083333,11.1058333 C6.82003103,11.1448034 6.87306018,11.1666741 6.92833333,11.1666667 L6.92833333,11.1666667 L17.0716667,11.1666667 C17.1269398,11.1666741 17.179969,11.1448034 17.2191667,11.1058333 L17.2191667,11.1058333 L18.85,9.475 C18.9670794,9.35775373 19.1259733,9.29187141 19.2916667,9.29187141 Z M12.4166667,2.00020474 C12.58236,2.00020474 12.7412539,2.06608706 12.8583333,2.18333333 L12.8583333,2.18333333 L14.9416667,4.26666667 C15.0589129,4.38374607 15.1247953,4.54264001 15.1247953,4.70833333 C15.1247953,4.87402665 15.0589129,5.03292059 14.9416667,5.15 L14.9416667,5.15 L12.8583333,7.23333333 C12.7412539,7.35057961 12.58236,7.41646193 12.4166667,7.41646193 C12.2509733,7.41646193 12.0920794,7.35057961 11.975,7.23333333 L11.975,7.23333333 L11.67,6.92833333 C11.6309149,6.88914929 11.5778447,6.86712759 11.5225,6.86712759 C11.4671553,6.86712759 11.4140851,6.88914929 11.375,6.92833333 L11.375,6.92833333 L8.83916667,9.46416667 C8.51218426,9.77997684 7.99242935,9.77546031 7.67098452,9.45401548 C7.34953969,9.13257065 7.34502316,8.61281574 7.66083333,8.28583333 L7.66083333,8.28583333 L10.1966667,5.75 C10.2358507,5.71091489 10.2578724,5.65784469 10.2578724,5.6025 C10.2578724,5.54715531 10.2358507,5.49408511 10.1966667,5.455 L10.1966667,5.455 L9.89166667,5.15 C9.77442039,5.03292059 9.70853807,4.87402665 9.70853807,4.70833333 C9.70853807,4.54264001 9.77442039,4.38374607 9.89166667,4.26666667 L9.89166667,4.26666667 L11.975,2.18333333 C12.0920794,2.06608706 12.2509733,2.00020474 12.4166667,2.00020474 Z" id="ðŸ–-Color" fill="#5A5A5A"></path>
        <rect id="_Transparent_Rectangle_" x="0" y="0" width="24" height="24"></rect>
    </g>
</svg>