<svg width="24" height="24" viewBox="0 0 24 24" fill="none" xmlns="http://www.w3.org/2000/svg">
<g id="align_right_move">
<path id="Shape" fill-rule="evenodd" clip-rule="evenodd" d="M21.1667 2C20.7064 2 20.3333 2.3731 20.3333 2.83333V21.1667C20.3333 21.6269 20.7064 22 21.1667 22C21.6269 22 22 21.6269 22 21.1667V2.83333C22 2.3731 21.6269 2 21.1667 2ZM2 6.75C2 6.19772 2.44772 5.75 3 5.75H16.8333C17.3856 5.75 17.8333 6.19772 17.8333 6.75V9.75C17.8333 10.3023 17.3856 10.75 16.8333 10.75H3C2.44771 10.75 2 10.3023 2 9.75V6.75ZM8 13.25C7.44772 13.25 7 13.6977 7 14.25V17.25C7 17.8023 7.44771 18.25 8 18.25H16.8333C17.3856 18.25 17.8333 17.8023 17.8333 17.25V14.25C17.8333 13.6977 17.3856 13.25 16.8333 13.25H8Z" fill="#5A5A5A"/>
</g>
</svg>
