<svg width="24" height="24" viewBox="0 0 24 24" fill="none" xmlns="http://www.w3.org/2000/svg">
<g id="align_center">
<path id="Shape" fill-rule="evenodd" clip-rule="evenodd" d="M18.3643 12.4545H13.1371C13.0116 12.4545 12.9098 12.3528 12.9098 12.2273V11.3182C12.9098 11.1927 13.0116 11.0909 13.1371 11.0909H15.6371C16.3902 11.0909 17.0007 10.4804 17.0007 9.72727V7C17.0007 6.24688 16.3902 5.63636 15.6371 5.63636H13.1371C13.0116 5.63636 12.9098 5.53461 12.9098 5.40909V2.90909C12.9098 2.40701 12.5028 2 12.0007 2C11.4986 2 11.0916 2.40701 11.0916 2.90909V5.40909C11.0916 5.53461 10.9899 5.63636 10.8643 5.63636H8.36435C7.61123 5.63636 7.00071 6.24688 7.00071 7V9.72727C7.00071 10.4804 7.61123 11.0909 8.36435 11.0909H10.8643C10.9899 11.0909 11.0916 11.1927 11.0916 11.3182V12.2273C11.0916 12.3528 10.9899 12.4545 10.8643 12.4545H5.63707C4.88396 12.4545 4.27344 13.0651 4.27344 13.8182V16.5455C4.27344 17.2986 4.88396 17.9091 5.63707 17.9091H10.8643C10.9899 17.9091 11.0916 18.0108 11.0916 18.1364V21.0909C11.0916 21.593 11.4986 22 12.0007 22C12.5028 22 12.9098 21.593 12.9098 21.0909V18.1364C12.9098 18.0108 13.0116 17.9091 13.1371 17.9091H18.3643C19.1175 17.9091 19.728 17.2986 19.728 16.5455V13.8182C19.728 13.0651 19.1175 12.4545 18.3643 12.4545Z" fill="#5A5A5A"/>
</g>
</svg>
