<?xml version="1.0" encoding="UTF-8"?>
<svg width="24px" height="24px" viewBox="0 0 24 24" version="1.1" xmlns="http://www.w3.org/2000/svg" xmlns:xlink="http://www.w3.org/1999/xlink">
    <title>13. Design/align_right_move</title>
    <g id="13.-Design/align_right_move" stroke="none" stroke-width="1" fill="none" fill-rule="evenodd">
        <path d="M21.1666667,2 C21.626904,2 22,2.37309604 22,2.83333333 L22,2.83333333 L22,21.1666667 C22,21.626904 21.626904,22 21.1666667,22 C20.7064294,22 20.3333333,21.626904 20.3333333,21.1666667 L20.3333333,21.1666667 L20.3333333,2.83333333 C20.3333333,2.37309604 20.7064294,2 21.1666667,2 Z M16.8333333,13.25 C17.3856181,13.25 17.8333333,13.6977153 17.8333333,14.25 L17.8333333,17.25 C17.8333333,17.8022847 17.3856181,18.25 16.8333333,18.25 L8,18.25 C7.44771525,18.25 7,17.8022847 7,17.25 L7,14.25 C7,13.6977153 7.44771525,13.25 8,13.25 L16.8333333,13.25 Z M16.8333333,5.75 C17.3856181,5.75 17.8333333,6.19771525 17.8333333,6.75 L17.8333333,9.75 C17.8333333,10.3022847 17.3856181,10.75 16.8333333,10.75 L3,10.75 C2.44771525,10.75 2,10.3022847 2,9.75 L2,6.75 C2,6.19771525 2.44771525,5.75 3,5.75 L16.8333333,5.75 Z" id="ðŸ–-Color" fill="#5A5A5A"></path>
        <rect id="_Transparent_Rectangle_" x="0" y="0" width="24" height="24"></rect>
    </g>
</svg>