<svg width="24" height="24" viewBox="0 0 24 24" fill="none" xmlns="http://www.w3.org/2000/svg">
<g id="align_left_move">
<path id="Shape" fill-rule="evenodd" clip-rule="evenodd" d="M2.83333 2C2.3731 2 2 2.3731 2 2.83333V21.1667C2 21.6269 2.3731 22 2.83333 22C3.29357 22 3.66667 21.6269 3.66667 21.1667V2.83333C3.66667 2.3731 3.29357 2 2.83333 2ZM6.16667 6.75C6.16667 6.19772 6.61438 5.75 7.16667 5.75H21C21.5523 5.75 22 6.19772 22 6.75V9.75C22 10.3023 21.5523 10.75 21 10.75H7.16667C6.61438 10.75 6.16667 10.3023 6.16667 9.75V6.75ZM7.16667 13.25C6.61438 13.25 6.16667 13.6977 6.16667 14.25V17.25C6.16667 17.8023 6.61438 18.25 7.16667 18.25H16C16.5523 18.25 17 17.8023 17 17.25V14.25C17 13.6977 16.5523 13.25 16 13.25H7.16667Z" fill="#5A5A5A"/>
</g>
</svg>
