<?xml version="1.0" encoding="UTF-8"?>
<svg width="24px" height="24px" viewBox="0 0 24 24" version="1.1" xmlns="http://www.w3.org/2000/svg" xmlns:xlink="http://www.w3.org/1999/xlink">
    <title>13. Design/align_bottom_move</title>
    <g id="13.-Design/align_bottom_move" stroke="none" stroke-width="1" fill="none" fill-rule="evenodd">
        <path d="M21.1666667,20.3333333 C21.626904,20.3333333 22,20.7064294 22,21.1666667 C22,21.626904 21.626904,22 21.1666667,22 L21.1666667,22 L2.83333333,22 C2.37309604,22 2,21.626904 2,21.1666667 C2,20.7064294 2.37309604,20.3333333 2.83333333,20.3333333 L2.83333333,20.3333333 Z M17.25,2 C17.8022847,2 18.25,2.44771525 18.25,3 L18.25,16.8333333 C18.25,17.3856181 17.8022847,17.8333333 17.25,17.8333333 L14.25,17.8333333 C13.6977153,17.8333333 13.25,17.3856181 13.25,16.8333333 L13.25,3 C13.25,2.44771525 13.6977153,2 14.25,2 L17.25,2 Z M9.75,7 C10.3022847,7 10.75,7.44771525 10.75,8 L10.75,16.8333333 C10.75,17.3856181 10.3022847,17.8333333 9.75,17.8333333 L6.75,17.8333333 C6.19771525,17.8333333 5.75,17.3856181 5.75,16.8333333 L5.75,8 C5.75,7.44771525 6.19771525,7 6.75,7 L9.75,7 Z" id="ðŸ–-Color" fill="#5A5A5A"></path>
        <rect id="_Transparent_Rectangle_" x="0" y="0" width="24" height="24"></rect>
    </g>
</svg>