<?xml version="1.0" encoding="UTF-8"?>
<svg width="24px" height="24px" viewBox="0 0 24 24" version="1.1" xmlns="http://www.w3.org/2000/svg" xmlns:xlink="http://www.w3.org/1999/xlink">
    <title>13. Design/align_center</title>
    <g id="13.-Design/align_center" stroke="none" stroke-width="1" fill="none" fill-rule="evenodd">
        <path d="M18.3636364,12.4545455 L13.1363636,12.4545455 C13.0108444,12.4545455 12.9090909,12.352792 12.9090909,12.2272727 L12.9090909,11.3181818 C12.9090909,11.1926626 13.0108444,11.0909091 13.1363636,11.0909091 L15.6363636,11.0909091 C16.3894792,11.0909091 17,10.4803883 17,9.72727273 L17,7 C17,6.24688443 16.3894792,5.63636364 15.6363636,5.63636364 L13.1363636,5.63636364 C13.0108444,5.63636364 12.9090909,5.53461017 12.9090909,5.40909091 L12.9090909,2.90909091 C12.9090909,2.40701386 12.502077,2 12,2 C11.497923,2 11.0909091,2.40701386 11.0909091,2.90909091 L11.0909091,5.40909091 C11.0909091,5.53461017 10.9891556,5.63636364 10.8636364,5.63636364 L8.36363636,5.63636364 C7.6105208,5.63636364 7,6.24688443 7,7 L7,9.72727273 C7,10.4803883 7.6105208,11.0909091 8.36363636,11.0909091 L10.8636364,11.0909091 C10.9891556,11.0909091 11.0909091,11.1926626 11.0909091,11.3181818 L11.0909091,12.2272727 C11.0909091,12.352792 10.9891556,12.4545455 10.8636364,12.4545455 L5.63636364,12.4545455 C4.88324807,12.4545455 4.27272727,13.0650663 4.27272727,13.8181818 L4.27272727,16.5454545 C4.27272727,17.2985701 4.88324807,17.9090909 5.63636364,17.9090909 L10.8636364,17.9090909 C10.9891556,17.9090909 11.0909091,18.0108444 11.0909091,18.1363636 L11.0909091,21.0909091 C11.0909091,21.5929861 11.497923,22 12,22 C12.502077,22 12.9090909,21.5929861 12.9090909,21.0909091 L12.9090909,18.1363636 C12.9090909,18.0108444 13.0108444,17.9090909 13.1363636,17.9090909 L18.3636364,17.9090909 C19.1167519,17.9090909 19.7272727,17.2985701 19.7272727,16.5454545 L19.7272727,13.8181818 C19.7272727,13.0650663 19.1167519,12.4545455 18.3636364,12.4545455 Z" id="ðŸ–-Color" fill="#5A5A5A"></path>
        <rect id="_Transparent_Rectangle_" x="0" y="0" width="24" height="24"></rect>
    </g>
</svg>