<?xml version="1.0" encoding="UTF-8"?>
<svg width="24px" height="24px" viewBox="0 0 24 24" version="1.1" xmlns="http://www.w3.org/2000/svg" xmlns:xlink="http://www.w3.org/1999/xlink">
    <title>13. Design/align_left_move</title>
    <g id="13.-Design/align_left_move" stroke="none" stroke-width="1" fill="none" fill-rule="evenodd">
        <path d="M2.83333333,2 C3.29357062,2 3.66666667,2.37309604 3.66666667,2.83333333 L3.66666667,2.83333333 L3.66666667,21.1666667 C3.66666667,21.626904 3.29357062,22 2.83333333,22 C2.37309604,22 2,21.626904 2,21.1666667 L2,21.1666667 L2,2.83333333 C2,2.37309604 2.37309604,2 2.83333333,2 Z M16,13.25 C16.5522847,13.25 17,13.6977153 17,14.25 L17,17.25 C17,17.8022847 16.5522847,18.25 16,18.25 L7.16666667,18.25 C6.61438192,18.25 6.16666667,17.8022847 6.16666667,17.25 L6.16666667,14.25 C6.16666667,13.6977153 6.61438192,13.25 7.16666667,13.25 L16,13.25 Z M21,5.75 C21.5522847,5.75 22,6.19771525 22,6.75 L22,9.75 C22,10.3022847 21.5522847,10.75 21,10.75 L7.16666667,10.75 C6.61438192,10.75 6.16666667,10.3022847 6.16666667,9.75 L6.16666667,6.75 C6.16666667,6.19771525 6.61438192,5.75 7.16666667,5.75 L21,5.75 Z" id="ðŸ–-Color" fill="#5A5A5A"></path>
        <rect id="_Transparent_Rectangle_" x="0" y="0" width="24" height="24"></rect>
    </g>
</svg>