<svg width="24" height="24" viewBox="0 0 24 24" fill="none" xmlns="http://www.w3.org/2000/svg">
<g id="align_bottom_move">
<path id="Shape" fill-rule="evenodd" clip-rule="evenodd" d="M13.25 3C13.25 2.44771 13.6977 2 14.25 2H17.25C17.8023 2 18.25 2.44772 18.25 3V16.8333C18.25 17.3856 17.8023 17.8333 17.25 17.8333H14.25C13.6977 17.8333 13.25 17.3856 13.25 16.8333V3ZM21.1667 20.3333H2.83333C2.3731 20.3333 2 20.7064 2 21.1667C2 21.6269 2.3731 22 2.83333 22H21.1667C21.6269 22 22 21.6269 22 21.1667C22 20.7064 21.6269 20.3333 21.1667 20.3333ZM6.75 7C6.19772 7 5.75 7.44771 5.75 8V16.8333C5.75 17.3856 6.19772 17.8333 6.75 17.8333H9.75C10.3023 17.8333 10.75 17.3856 10.75 16.8333V8C10.75 7.44772 10.3023 7 9.75 7H6.75Z" fill="#5A5A5A"/>
</g>
</svg>
