<?xml version="1.0" encoding="UTF-8"?>
<svg width="24px" height="24px" viewBox="0 0 24 24" version="1.1" xmlns="http://www.w3.org/2000/svg" xmlns:xlink="http://www.w3.org/1999/xlink">
    <title>13. Design/anchor_circle</title>
    <g id="13.-Design/anchor_circle" stroke="none" stroke-width="1" fill="none" fill-rule="evenodd">
        <path d="M12,17 C13.3807119,17 14.5,18.1192881 14.5,19.5 C14.5,20.8807119 13.3807119,22 12,22 C10.6192881,22 9.5,20.8807119 9.5,19.5 C9.5,18.1192881 10.6192881,17 12,17 Z M17.67,15.5075 C17.7295222,15.4119288 17.854016,15.3806212 17.9516667,15.4366667 L17.9516667,15.4366667 L19.035,16.0633333 C19.0835145,16.0915628 19.1186474,16.1381064 19.1325,16.1925 C19.1465265,16.2469012 19.1378013,16.3046683 19.1083333,16.3525 C18.4190753,17.4759389 17.4742722,18.420742 16.3508333,19.11 C16.3030017,19.1394679 16.2452345,19.1481932 16.1908333,19.1341667 C16.1364398,19.120314 16.0898961,19.0851811 16.0616667,19.0366667 L16.0616667,19.0366667 L15.435,17.9533333 C15.3789545,17.8556826 15.4102621,17.7311889 15.5058333,17.6716667 C16.3844587,17.1268185 17.1251518,16.3861253 17.67,15.5075 Z M6.05166667,15.435 C6.14931737,15.3789545 6.27381109,15.4102621 6.33333333,15.5058333 C6.87723243,16.3840851 7.6167543,17.1247478 8.49416667,17.67 C8.58973789,17.7295222 8.62104548,17.854016 8.565,17.9516667 L8.565,17.9516667 L7.93833333,19.035 C7.91010386,19.0835145 7.86356024,19.1186474 7.80916667,19.1325 C7.75476551,19.1465265 7.69699835,19.1378013 7.64916667,19.1083333 C6.52694236,18.4186622 5.5833132,17.473891 4.895,16.3508333 C4.86553207,16.3030017 4.85680682,16.2452345 4.87083333,16.1908333 C4.88468595,16.1364398 4.91981888,16.0898961 4.96833333,16.0616667 L4.96833333,16.0616667 Z M19.5,9.5 C20.8807119,9.5 22,10.6192881 22,12 C22,13.3807119 20.8807119,14.5 19.5,14.5 C18.1192881,14.5 17,13.3807119 17,12 C17,10.6192881 18.1192881,9.5 19.5,9.5 Z M4.5,9.5 C5.88071187,9.5 7,10.6192881 7,12 C7,13.3807119 5.88071187,14.5 4.5,14.5 C3.11928813,14.5 2,13.3807119 2,12 C2,10.6192881 3.11928813,9.5 4.5,9.5 Z M7.75996949,4.858483 L7.815,4.865 C7.86939357,4.87885262 7.91593719,4.91398554 7.94416667,4.9625 L7.94416667,4.9625 L8.57083333,6.04583333 C8.62687881,6.14348404 8.59557122,6.26797775 8.5,6.3275 C7.62018439,6.87275635 6.87858969,7.61435106 6.33333333,8.49416667 C6.27366461,8.59170966 6.14672478,8.62325903 6.04833333,8.565 L6.04833333,8.565 L4.965,7.93833333 C4.91648554,7.91010386 4.88135262,7.86356024 4.8675,7.80916667 C4.85347349,7.75476551 4.86219874,7.69699835 4.89166667,7.64916667 C5.58226757,6.52414863 6.52914923,5.57840917 7.655,4.88916667 C7.70283168,4.85969874 7.76059884,4.85097349 7.815,4.865 Z M16.1908333,4.8675 C16.2452345,4.85347349 16.3030017,4.86219874 16.3508333,4.89166667 C17.4745759,5.58082136 18.4196725,6.5256324 19.1091667,7.64916667 C19.1386346,7.69699835 19.1473598,7.75476551 19.1333333,7.80916667 C19.1194807,7.86356024 19.0843478,7.91010386 19.0358333,7.93833333 L19.0358333,7.93833333 L17.9525,8.565 C17.8548493,8.62104548 17.7303556,8.58973789 17.6708333,8.49416667 C17.1257479,7.61544787 16.3847619,6.87474705 15.5058333,6.33 C15.4102621,6.27047775 15.3789545,6.14598404 15.435,6.04833333 L15.435,6.04833333 L16.0616667,4.965 C16.0898961,4.91648554 16.1364398,4.88135262 16.1908333,4.8675 Z M12,2 C13.3807119,2 14.5,3.11928813 14.5,4.5 C14.5,5.88071187 13.3807119,7 12,7 C10.6192881,7 9.5,5.88071187 9.5,4.5 C9.5,3.11928813 10.6192881,2 12,2 Z" id="ðŸ–-Color" fill="#5A5A5A"></path>
        <rect id="_Transparent_Rectangle_" x="0" y="0" width="24" height="24"></rect>
    </g>
</svg>