<?xml version="1.0" encoding="UTF-8"?>
<svg width="24px" height="24px" viewBox="0 0 24 24" version="1.1" xmlns="http://www.w3.org/2000/svg" xmlns:xlink="http://www.w3.org/1999/xlink">
    <title>13. Design/anchor_triangle</title>
    <g id="13.-Design/anchor_triangle" stroke="none" stroke-width="1" fill="none" fill-rule="evenodd">
        <path d="M4.5,17 C5.88071187,17 7,18.1192881 7,19.5 C7,20.8807119 5.88071187,22 4.5,22 C3.11928813,22 2,20.8807119 2,19.5 C2,18.1192881 3.11928813,17 4.5,17 Z M19.5,17 C20.8807119,17 22,18.1192881 22,19.5 C22,20.8807119 20.8807119,22 19.5,22 C18.1192881,22 17,20.8807119 17,19.5 C17,18.1192881 18.1192881,17 19.5,17 Z M15.5,18.6666667 C15.6380712,18.6666667 15.75,18.7785955 15.75,18.9166667 L15.75,20.0833333 C15.75,20.2214045 15.6380712,20.3333333 15.5,20.3333333 L8.5,20.3333333 C8.36192881,20.3333333 8.25,20.2214045 8.25,20.0833333 L8.25,18.9166667 C8.25,18.7785955 8.36192881,18.6666667 8.5,18.6666667 L15.5,18.6666667 Z M9.39521011,7.98919947 L10.438709,8.51094773 C10.5622036,8.57269493 10.6122599,8.72286315 10.5505127,8.84635783 L7.02423976,15.8989194 C6.96249256,16.0224141 6.81232434,16.0724703 6.68882966,16.0107231 L5.64533081,15.4889748 C5.52183613,15.4272276 5.47177991,15.2770594 5.53352711,15.1535647 L9.05980001,8.10100317 C9.12154721,7.97750849 9.27171543,7.92745227 9.39521011,7.98919947 Z M14.940733,8.10130585 L18.4670059,15.1538674 C18.5287531,15.2773621 18.4786968,15.4275303 18.3552022,15.4892775 L17.3117033,16.0110258 C17.1882086,16.072773 17.0380404,16.0227167 16.9762932,15.8992221 L13.4500203,8.84666051 C13.3882731,8.72316583 13.4383293,8.57299761 13.561824,8.51125041 L14.6053229,7.98950215 C14.7288175,7.92775495 14.8789858,7.97781117 14.940733,8.10130585 Z M12,2 C13.3807119,2 14.5,3.11928813 14.5,4.5 C14.5,5.88071187 13.3807119,7 12,7 C10.6192881,7 9.5,5.88071187 9.5,4.5 C9.5,3.11928813 10.6192881,2 12,2 Z" id="ðŸ–-Color" fill="#5A5A5A"></path>
        <rect id="_Transparent_Rectangle_" x="0" y="0" width="24" height="24"></rect>
    </g>
</svg>