<svg width="24" height="24" viewBox="0 0 24 24" fill="none" xmlns="http://www.w3.org/2000/svg">
<g id="anchor_triangle">
<path id="Shape" fill-rule="evenodd" clip-rule="evenodd" d="M12 7C13.3807 7 14.5 5.88071 14.5 4.5C14.5 3.11929 13.3807 2 12 2C10.6193 2 9.5 3.11929 9.5 4.5C9.5 5.88071 10.6193 7 12 7ZM4.5 22C5.88071 22 7 20.8807 7 19.5C7 18.1193 5.88071 17 4.5 17C3.11929 17 2 18.1193 2 19.5C2 20.8807 3.11929 22 4.5 22ZM22 19.5C22 20.8807 20.8807 22 19.5 22C18.1193 22 17 20.8807 17 19.5C17 18.1193 18.1193 17 19.5 17C20.8807 17 22 18.1193 22 19.5ZM5.53353 15.1536C5.47178 15.2771 5.52184 15.4272 5.64533 15.489L6.68883 16.0107C6.81232 16.0725 6.96249 16.0224 7.02424 15.8989L10.5505 8.84636C10.6123 8.72286 10.5622 8.57269 10.4387 8.51095L9.39521 7.9892C9.27172 7.92745 9.12155 7.97751 9.0598 8.101L5.53353 15.1536ZM13.45 8.84666C13.3883 8.72317 13.4383 8.573 13.5618 8.51125L14.6053 7.9895C14.7288 7.92775 14.879 7.97781 14.9407 8.10131L18.467 15.1539C18.5288 15.2774 18.4787 15.4275 18.3552 15.4893L17.3117 16.011C17.1882 16.0728 17.038 16.0227 16.9763 15.8992L13.45 8.84666ZM8.5 18.6667C8.36193 18.6667 8.25 18.7786 8.25 18.9167V20.0833C8.25 20.2214 8.36193 20.3333 8.5 20.3333H15.5C15.6381 20.3333 15.75 20.2214 15.75 20.0833V18.9167C15.75 18.7786 15.6381 18.6667 15.5 18.6667H8.5Z" fill="#5A5A5A"/>
</g>
</svg>
