<svg width="24" height="24" viewBox="0 0 24 24" fill="none" xmlns="http://www.w3.org/2000/svg">
<g id="anchor_circle">
<path id="Shape" fill-rule="evenodd" clip-rule="evenodd" d="M12 7C13.3807 7 14.5 5.88071 14.5 4.5C14.5 3.11929 13.3807 2 12 2C10.6193 2 9.5 3.11929 9.5 4.5C9.5 5.88071 10.6193 7 12 7ZM12 22C13.3807 22 14.5 20.8807 14.5 19.5C14.5 18.1193 13.3807 17 12 17C10.6193 17 9.5 18.1193 9.5 19.5C9.5 20.8807 10.6193 22 12 22ZM22 12C22 13.3807 20.8807 14.5 19.5 14.5C18.1193 14.5 17 13.3807 17 12C17 10.6193 18.1193 9.5 19.5 9.5C20.8807 9.5 22 10.6193 22 12ZM4.5 14.5C5.88071 14.5 7 13.3807 7 12C7 10.6193 5.88071 9.5 4.5 9.5C3.11929 9.5 2 10.6193 2 12C2 13.3807 3.11929 14.5 4.5 14.5ZM15.5058 17.6717C15.4103 17.7312 15.379 17.8557 15.435 17.9533L16.0617 19.0367C16.0899 19.0852 16.1364 19.1203 16.1908 19.1342C16.2452 19.1482 16.303 19.1395 16.3508 19.11C17.4743 18.4207 18.4191 17.4759 19.1083 16.3525C19.1378 16.3047 19.1465 16.2469 19.1325 16.1925C19.1186 16.1381 19.0835 16.0916 19.035 16.0633L17.9517 15.4367C17.854 15.3806 17.7295 15.4119 17.67 15.5075C17.1252 16.3861 16.3845 17.1268 15.5058 17.6717ZM17.9525 8.565C17.8548 8.62105 17.7304 8.58974 17.6708 8.49417C17.1257 7.61545 16.3848 6.87475 15.5058 6.33C15.4103 6.27048 15.379 6.14598 15.435 6.04833L16.0617 4.965C16.0899 4.91649 16.1364 4.88135 16.1908 4.8675C16.2452 4.85347 16.303 4.8622 16.3508 4.89167C17.4746 5.58082 18.4197 6.52563 19.1092 7.64917C19.1386 7.697 19.1474 7.75477 19.1333 7.80917C19.1195 7.86356 19.0843 7.9101 19.0358 7.93833L17.9525 8.565ZM4.89167 7.64917C4.8622 7.697 4.85347 7.75477 4.8675 7.80917C4.88135 7.86356 4.91649 7.9101 4.965 7.93833L6.04833 8.565C6.14672 8.62326 6.27366 8.59171 6.33333 8.49417C6.87859 7.61435 7.62018 6.87276 8.5 6.3275C8.59557 6.26798 8.62688 6.14348 8.57083 6.04583L7.94417 4.9625C7.91594 4.91399 7.86939 4.87885 7.815 4.865C7.7606 4.85097 7.70283 4.8597 7.655 4.88917C6.52915 5.57841 5.58227 6.52415 4.89167 7.64917ZM6.05167 15.435C6.14932 15.379 6.27381 15.4103 6.33333 15.5058C6.87723 16.3841 7.61675 17.1247 8.49417 17.67C8.58974 17.7295 8.62105 17.854 8.565 17.9517L7.93833 19.035C7.9101 19.0835 7.86356 19.1186 7.80917 19.1325C7.75477 19.1465 7.697 19.1378 7.64917 19.1083C6.52694 18.4187 5.58331 17.4739 4.895 16.3508C4.86553 16.303 4.85681 16.2452 4.87083 16.1908C4.88469 16.1364 4.91982 16.0899 4.96833 16.0617L6.05167 15.435Z" fill="#5A5A5A"/>
</g>
</svg>
