<?xml version="1.0" encoding="UTF-8"?>
<svg width="24px" height="24px" viewBox="0 0 24 24" version="1.1" xmlns="http://www.w3.org/2000/svg" xmlns:xlink="http://www.w3.org/1999/xlink">
    <title>13. Design/artboard_circle</title>
    <g id="13.-Design/artboard_circle" stroke="none" stroke-width="1" fill="none" fill-rule="evenodd">
        <path d="M7,2 C7.46023729,2 7.83333333,2.37309604 7.83333333,2.83333333 L7.83333333,2.83333333 L7.83333333,4.29166667 C7.83333333,4.40672599 7.92660734,4.5 8.04166667,4.5 L8.04166667,4.5 L18.25,4.5 C18.9403559,4.5 19.5,5.05964406 19.5,5.75 L19.5,5.75 L19.5,15.9583333 C19.5,16.0733927 19.593274,16.1666667 19.7083333,16.1666667 L19.7083333,16.1666667 L21.1666667,16.1666667 C21.626904,16.1666667 22,16.5397627 22,17 L22,17 L22,18.6666667 C22,19.126904 21.626904,19.5 21.1666667,19.5 L21.1666667,19.5 L19.7083333,19.5 C19.593274,19.5 19.5,19.593274 19.5,19.7083333 L19.5,19.7083333 L19.5,21.1666667 C19.5,21.626904 19.126904,22 18.6666667,22 L18.6666667,22 L17,22 C16.5397627,22 16.1666667,21.626904 16.1666667,21.1666667 L16.1666667,21.1666667 L16.1666667,19.7083333 C16.1666667,19.593274 16.0733927,19.5 15.9583333,19.5 L15.9583333,19.5 L5.75,19.5 C5.05964406,19.5 4.5,18.9403559 4.5,18.25 L4.5,18.25 L4.5,8.04166667 C4.5,7.92660734 4.40672599,7.83333333 4.29166667,7.83333333 L4.29166667,7.83333333 L2.83333333,7.83333333 C2.37309604,7.83333333 2,7.46023729 2,7 L2,7 L2,5.33333333 C2,4.87309604 2.37309604,4.5 2.83333333,4.5 L2.83333333,4.5 L4.29166667,4.5 C4.40672599,4.5 4.5,4.40672599 4.5,4.29166667 L4.5,4.29166667 L4.5,2.83333333 C4.5,2.37309604 4.87309604,2 5.33333333,2 L5.33333333,2 Z M16.1666667,7.41666667 L7.83333333,7.41666667 C7.60321469,7.41666667 7.41666667,7.60321469 7.41666667,7.83333333 L7.41666667,7.83333333 L7.41666667,16.1666667 C7.41666667,16.3967853 7.60321469,16.5833333 7.83333333,16.5833333 L7.83333333,16.5833333 L16.1666667,16.5833333 C16.3967853,16.5833333 16.5833333,16.3967853 16.5833333,16.1666667 L16.5833333,16.1666667 L16.5833333,7.83333333 C16.5833333,7.60321469 16.3967853,7.41666667 16.1666667,7.41666667 L16.1666667,7.41666667 Z M12,9.08333333 C13.6108305,9.08333333 14.9166667,10.3891695 14.9166667,12 C14.9166667,13.6108305 13.6108305,14.9166667 12,14.9166667 C10.3891695,14.9166667 9.08333333,13.6108305 9.08333333,12 C9.08333333,10.3891695 10.3891695,9.08333333 12,9.08333333 Z" id="ðŸ–-Color" fill="#5A5A5A"></path>
        <rect id="_Transparent_Rectangle_" x="0" y="0" width="24" height="24"></rect>
    </g>
</svg>