<svg width="24" height="24" viewBox="0 0 24 24" fill="none" xmlns="http://www.w3.org/2000/svg">
<g id="artboard_circle">
<path id="Shape" fill-rule="evenodd" clip-rule="evenodd" d="M22 17C22 16.5398 21.6269 16.1667 21.1667 16.1667H19.7083C19.5933 16.1667 19.5 16.0734 19.5 15.9583V5.75C19.5 5.05964 18.9404 4.5 18.25 4.5H8.04167C7.92661 4.5 7.83333 4.40673 7.83333 4.29167V2.83333C7.83333 2.3731 7.46024 2 7 2H5.33333C4.8731 2 4.5 2.3731 4.5 2.83333V4.29167C4.5 4.40673 4.40673 4.5 4.29167 4.5H2.83333C2.3731 4.5 2 4.8731 2 5.33333V7C2 7.46024 2.3731 7.83333 2.83333 7.83333H4.29167C4.40673 7.83333 4.5 7.92661 4.5 8.04167V18.25C4.5 18.9404 5.05964 19.5 5.75 19.5H15.9583C16.0734 19.5 16.1667 19.5933 16.1667 19.7083V21.1667C16.1667 21.6269 16.5398 22 17 22H18.6667C19.1269 22 19.5 21.6269 19.5 21.1667V19.7083C19.5 19.5933 19.5933 19.5 19.7083 19.5H21.1667C21.6269 19.5 22 19.1269 22 18.6667V17ZM16.5833 16.1667C16.5833 16.3968 16.3968 16.5833 16.1667 16.5833H7.83333C7.60321 16.5833 7.41667 16.3968 7.41667 16.1667V7.83333C7.41667 7.60321 7.60321 7.41667 7.83333 7.41667H16.1667C16.3968 7.41667 16.5833 7.60321 16.5833 7.83333V16.1667ZM12 14.9167C13.6108 14.9167 14.9167 13.6108 14.9167 12C14.9167 10.3892 13.6108 9.08333 12 9.08333C10.3892 9.08333 9.08333 10.3892 9.08333 12C9.08333 13.6108 10.3892 14.9167 12 14.9167Z" fill="#5A5A5A"/>
</g>
</svg>
