<svg width="24" height="24" viewBox="0 0 24 24" fill="none" xmlns="http://www.w3.org/2000/svg">
<g id="artboard_subtract">
<path id="Shape" fill-rule="evenodd" clip-rule="evenodd" d="M7 4.91667C7.46024 4.91667 7.83333 4.54357 7.83333 4.08333V2.83333C7.83333 2.3731 7.46024 2 7 2C6.53976 2 6.16667 2.3731 6.16667 2.83333V4.08333C6.16667 4.54357 6.53976 4.91667 7 4.91667ZM4.08333 6.16667H2.83333C2.3731 6.16667 2 6.53976 2 7C2 7.46024 2.3731 7.83333 2.83333 7.83333H4.08333C4.54357 7.83333 4.91667 7.46024 4.91667 7C4.91667 6.53976 4.54357 6.16667 4.08333 6.16667ZM2.83333 16.1667H4.08333C4.54357 16.1667 4.91667 16.5398 4.91667 17C4.91667 17.4602 4.54357 17.8333 4.08333 17.8333H2.83333C2.3731 17.8333 2 17.4602 2 17C2 16.5398 2.3731 16.1667 2.83333 16.1667ZM17 2C16.5398 2 16.1667 2.3731 16.1667 2.83333V4.08333C16.1667 4.54357 16.5398 4.91667 17 4.91667C17.4602 4.91667 17.8333 4.54357 17.8333 4.08333V2.83333C17.8333 2.3731 17.4602 2 17 2ZM6.16667 19.9167C6.16667 19.4564 6.53976 19.0833 7 19.0833C7.46024 19.0833 7.83333 19.4564 7.83333 19.9167V21.1667C7.83333 21.6269 7.46024 22 7 22C6.53976 22 6.16667 21.6269 6.16667 21.1667V19.9167ZM17 19.0833C16.5398 19.0833 16.1667 19.4564 16.1667 19.9167V21.1667C16.1667 21.6269 16.5398 22 17 22C17.4602 22 17.8333 21.6269 17.8333 21.1667V19.9167C17.8333 19.4564 17.4602 19.0833 17 19.0833ZM21.1667 7.83333H19.9167C19.4564 7.83333 19.0833 7.46024 19.0833 7C19.0833 6.53976 19.4564 6.16667 19.9167 6.16667H21.1667C21.6269 6.16667 22 6.53976 22 7C22 7.46024 21.6269 7.83333 21.1667 7.83333ZM21.1667 16.1667H19.9167C19.4564 16.1667 19.0833 16.5398 19.0833 17C19.0833 17.4602 19.4564 17.8333 19.9167 17.8333H21.1667C21.6269 17.8333 22 17.4602 22 17C22 16.5398 21.6269 16.1667 21.1667 16.1667ZM17 6.16667H7C6.53976 6.16667 6.16667 6.53976 6.16667 7V17C6.16667 17.4602 6.53976 17.8333 7 17.8333H17C17.4602 17.8333 17.8333 17.4602 17.8333 17V7C17.8333 6.53976 17.4602 6.16667 17 6.16667ZM8.66667 12C8.66667 11.5398 9.03976 11.1667 9.5 11.1667H14.5C14.9602 11.1667 15.3333 11.5398 15.3333 12C15.3333 12.4602 14.9602 12.8333 14.5 12.8333H9.5C9.03976 12.8333 8.66667 12.4602 8.66667 12Z" fill="#5A5A5A"/>
</g>
</svg>
