<svg width="24" height="24" viewBox="0 0 24 24" fill="none" xmlns="http://www.w3.org/2000/svg">
<g id="color_bucket_1">
<path id="Shape" fill-rule="evenodd" clip-rule="evenodd" d="M17.5912 9.98276C17.857 10.1944 17.9622 10.5599 17.852 10.889C17.7065 11.203 17.3841 11.3846 17.0521 11.3394H16.2188C15.8023 11.3703 15.4066 11.5411 15.0914 11.8264L9.84504 17.2861C9.03155 18.1333 7.71288 18.1333 6.89938 17.2861L3.00879 13.2317C2.61799 12.8247 2.39844 12.2727 2.39844 11.6971C2.39844 11.1214 2.61799 10.5694 3.00879 10.1624L5.35948 7.7138C5.40734 7.66348 5.47583 7.64078 5.5428 7.65304L10.3425 8.53146C10.4552 8.55257 10.5631 8.47505 10.5842 8.35786L10.7033 7.65651C10.7236 7.53916 10.6492 7.42675 10.5367 7.40479L3.9204 6.18959C3.61738 6.14703 3.36107 5.93503 3.25262 5.63724C3.14417 5.33944 3.201 5.00369 3.40068 4.76249C3.60037 4.5213 3.91083 4.41339 4.20955 4.48136L7.716 5.12628C7.78296 5.13839 7.85139 5.11571 7.89932 5.06552L9.50256 3.39809C9.99764 2.90771 10.7749 2.90771 11.27 3.39809L17.5912 9.98276ZM19.899 13.5827C20.1976 13.5827 20.4734 13.7492 20.6219 14.019C21.4327 15.4946 22.3984 17.4467 22.3984 18.3659C22.3984 19.8041 21.2792 20.9699 19.8986 20.9699C18.518 20.9699 17.3987 19.8041 17.3987 18.3659C17.3987 17.445 18.3645 15.4937 19.1761 14.019C19.3247 13.7492 19.6004 13.5827 19.899 13.5827Z" fill="#5A5A5A"/>
</g>
</svg>
