<svg width="24" height="24" viewBox="0 0 24 24" fill="none" xmlns="http://www.w3.org/2000/svg">
<g id="color_brush_1">
<path id="Shape" fill-rule="evenodd" clip-rule="evenodd" d="M19.5032 14.0842C19.9636 14.0842 20.3369 13.7109 20.3369 13.2505V12.4168C20.3369 11.2658 19.4038 10.3327 18.2527 10.3327H14.3586C14.2997 10.3325 14.2437 10.3075 14.2042 10.2639C14.1647 10.2202 14.1454 10.162 14.151 10.1034L14.6671 4.94296C14.7654 3.92819 14.2796 2.94548 13.4135 2.40754C12.5474 1.86961 11.4512 1.86961 10.5851 2.40754C9.71905 2.94548 9.23318 3.92819 9.33155 4.94296L9.84759 10.1034C9.85332 10.162 9.83427 10.2203 9.79507 10.2643C9.75592 10.3073 9.70065 10.3321 9.64251 10.3327H5.74759C4.59652 10.3327 3.6634 11.2658 3.6634 12.4168V13.2505C3.6634 13.7109 4.03665 14.0842 4.49708 14.0842H19.5032ZM12.8338 5.1222C12.8338 5.58262 12.4606 5.95587 12.0001 5.95587C11.5397 5.95587 11.1665 5.58262 11.1665 5.1222C11.1665 4.66177 11.5397 4.28852 12.0001 4.28852C12.4606 4.28852 12.8338 4.66177 12.8338 5.1222ZM19.5032 16.8353C19.5024 18.2127 19.8983 19.5611 20.6437 20.7194C20.8088 20.976 20.8204 21.3024 20.6741 21.5702C20.5278 21.8379 20.2469 22.0044 19.9417 22.0041H9.49912C9.03869 22.0041 8.66544 21.6308 8.66544 21.1704V19.9849C8.66557 19.8925 8.60478 19.811 8.51612 19.7848C8.42745 19.7586 8.33212 19.7939 8.28195 19.8715C8.09771 20.1533 7.90847 20.4409 7.73173 20.7052C7.19111 21.5174 6.27975 22.005 5.30407 22.0041H4.05856C3.75368 22.0042 3.47306 21.8379 3.3268 21.5704C3.18055 21.3028 3.19197 20.9768 3.35661 20.7202C4.10181 19.5616 4.49773 18.2129 4.49708 16.8353V15.7515C4.49708 15.5213 4.6837 15.3347 4.91391 15.3347H19.0864C19.3166 15.3347 19.5032 15.5213 19.5032 15.7515V16.8353Z" fill="#5A5A5A"/>
</g>
</svg>
