<svg width="24" height="24" viewBox="0 0 24 24" fill="none" xmlns="http://www.w3.org/2000/svg">
<g id="color_picker_1_alternate">
<path id="Shape" fill-rule="evenodd" clip-rule="evenodd" d="M19.7564 12.1623C19.4478 12.4838 18.9489 12.4883 18.635 12.1725L12.2334 5.50583C11.9302 5.17885 11.9345 4.65909 12.2431 4.33765C12.5517 4.0162 13.0507 4.01169 13.3646 4.3275L13.8774 4.86166C13.9557 4.94281 14.0822 4.94281 14.1606 4.86166L15.651 3.31C17.0612 1.6918 19.4601 1.5605 21.0254 3.01583C22.4228 4.64586 22.2968 7.14486 20.743 8.61333L19.2534 10.165C19.2158 10.2039 19.1947 10.2569 19.1947 10.3121C19.1947 10.3673 19.2158 10.4202 19.2534 10.4592L19.7662 10.9942C20.0693 11.3211 20.065 11.8409 19.7564 12.1623ZM12.0306 7.16803C12.0836 7.16803 12.1344 7.19003 12.1718 7.22916L16.9806 12.2417C17.0584 12.323 17.0584 12.4545 16.9806 12.5358L10.2566 19.5358C9.38527 20.4949 8.12381 20.958 6.86777 20.78L6.04697 21.6342C5.57837 22.1221 4.81877 22.1221 4.35017 21.6342L3.15017 20.3842C2.68171 19.896 2.68171 19.1048 3.15017 18.6167L3.97177 17.7642C3.80073 16.4558 4.24536 15.1417 5.16617 14.2342L6.43017 12.9167C6.50868 12.836 6.63487 12.836 6.71337 12.9167L8.11737 14.3792C8.2178 14.4875 8.36652 14.5309 8.50637 14.4928C8.64623 14.4547 8.75544 14.3409 8.79205 14.1952C8.82866 14.0495 8.78695 13.8946 8.68297 13.79L7.27897 12.3275C7.20116 12.2462 7.20116 12.1146 7.27897 12.0333L8.03017 11.25C8.10868 11.1693 8.23486 11.1693 8.31337 11.25L9.71737 12.7125C9.8178 12.8208 9.96652 12.8643 10.1064 12.8261C10.2462 12.788 10.3554 12.6742 10.3921 12.5285C10.4287 12.3829 10.387 12.2279 10.283 12.1233L8.87897 10.6608C8.80116 10.5795 8.80116 10.448 8.87897 10.3667L9.63017 9.58333C9.70868 9.50263 9.83487 9.50263 9.91337 9.58333L11.319 11.0442C11.4194 11.1525 11.5681 11.1959 11.708 11.1578C11.8478 11.1197 11.957 11.0059 11.9937 10.8602C12.0303 10.7145 11.9886 10.5596 11.8846 10.455L10.4806 8.9925C10.4028 8.91119 10.4028 8.77963 10.4806 8.69833L11.8894 7.22916C11.9268 7.19003 11.9776 7.16803 12.0306 7.16803Z" fill="#5A5A5A"/>
</g>
</svg>
