<?xml version="1.0" encoding="UTF-8"?>
<svg width="24px" height="24px" viewBox="0 0 24 24" version="1.1" xmlns="http://www.w3.org/2000/svg" xmlns:xlink="http://www.w3.org/1999/xlink">
    <title>13. Design/color_picker_1_alternate</title>
    <g id="13.-Design/color_picker_1_alternate" stroke="none" stroke-width="1" fill="none" fill-rule="evenodd">
        <path d="M12.03,7.16803177 C12.0830001,7.16803177 12.1338151,7.19003298 12.1712,7.22916667 L12.1712,7.22916667 L16.98,12.2416667 C17.0578102,12.3229729 17.0578102,12.4545271 16.98,12.5358333 L16.98,12.5358333 L10.256,19.5358333 C9.38470209,20.4948952 8.12324053,20.9580291 6.8672,20.78 L6.8672,20.78 L6.0464,21.6341667 C5.57780018,22.1221441 4.81819982,22.1221441 4.3496,21.6341667 L4.3496,21.6341667 L3.1496,20.3841667 C2.68114167,19.8960419 2.68114167,19.1047915 3.1496,18.6166667 L3.1496,18.6166667 L3.9712,17.7641667 C3.80015666,16.4557767 4.24478653,15.1416915 5.1656,14.2341667 L5.1656,14.2341667 L6.4296,12.9166667 C6.50810682,12.835971 6.63429318,12.835971 6.7128,12.9166667 L6.7128,12.9166667 L8.1168,14.3791667 C8.21722979,14.4874819 8.36595116,14.5309219 8.50580293,14.4927905 C8.6456547,14.454659 8.75487269,14.3408903 8.79147886,14.1952114 C8.82808504,14.0495325 8.78638263,13.8946144 8.6824,13.79 L8.6824,13.79 L7.2784,12.3275 C7.20058982,12.2461938 7.20058982,12.1146395 7.2784,12.0333333 L7.2784,12.0333333 L8.0296,11.25 C8.10810682,11.1693043 8.23429318,11.1693043 8.3128,11.25 L8.3128,11.25 L9.7168,12.7125 C9.81722979,12.8208152 9.96595116,12.8642552 10.1058029,12.8261238 C10.2456547,12.7879924 10.3548727,12.6742236 10.3914789,12.5285447 C10.428085,12.3828658 10.3863826,12.2279477 10.2824,12.1233333 L10.2824,12.1233333 L8.8784,10.6608333 C8.80058982,10.5795271 8.80058982,10.4479729 8.8784,10.3666667 L8.8784,10.3666667 L9.6296,9.58333333 C9.70810682,9.50263768 9.83429318,9.50263768 9.9128,9.58333333 L9.9128,9.58333333 L11.3184,11.0441667 C11.4188298,11.1524819 11.5675512,11.1959219 11.7074029,11.1577905 C11.8472547,11.119659 11.9564727,11.0058903 11.9930789,10.8602114 C12.029685,10.7145325 11.9879826,10.5596144 11.884,10.455 L11.884,10.455 L10.48,8.9925 C10.4021898,8.9111938 10.4021898,8.77963953 10.48,8.69833333 L10.48,8.69833333 L11.8888,7.22916667 C11.9261849,7.19003298 11.9769999,7.16803177 12.03,7.16803177 Z M15.7946499,3.15314054 C17.2196188,1.6848147 19.5117188,1.60901174 21.0248,3.01583333 C22.4222736,4.64586784 22.2961967,7.14486005 20.7424,8.61333333 L20.7424,8.61333333 L19.2528,10.165 C19.2152317,10.2039426 19.1941105,10.2568749 19.1941105,10.3120833 C19.1941105,10.3672918 19.2152317,10.4202241 19.2528,10.4591667 L19.2528,10.4591667 L19.7656,10.9941667 C20.0687778,11.3211491 20.0644419,11.840904 19.7558549,12.1623488 C19.4472678,12.4837936 18.9483031,12.4883102 18.6344,12.1725 L18.6344,12.1725 L12.2328,5.50583333 C11.9296222,5.17885093 11.9339581,4.65909602 12.2425451,4.33765119 C12.5511322,4.01620636 13.0500969,4.01168983 13.364,4.3275 L13.364,4.3275 L13.8768,4.86166667 C13.9551279,4.94281523 14.0816721,4.94281523 14.16,4.86166667 L14.16,4.86166667 L15.6504,3.31 Z" id="ðŸ–-Color" fill="#5A5A5A"></path>
        <rect id="_Transparent_Rectangle_" x="0" y="0" width="24" height="24"></rect>
    </g>
</svg>