<?xml version="1.0" encoding="UTF-8"?>
<svg width="24px" height="24px" viewBox="0 0 24 24" version="1.1" xmlns="http://www.w3.org/2000/svg" xmlns:xlink="http://www.w3.org/1999/xlink">
    <title>13. Design/color_brush_1</title>
    <g id="13.-Design/color_brush_1" stroke="none" stroke-width="1" fill="none" fill-rule="evenodd">
        <path d="M6.23636345,15.1630105 C6.99030947,14.8760609 7.82738011,14.9004585 8.56333333,15.2308333 C9.29927998,15.5602121 9.87387109,16.1693035 10.1606583,16.9232336 C10.4474456,17.6771637 10.4229276,18.5141501 10.0925,19.25 C9.50563569,20.3660226 8.51531139,21.2162769 7.32333333,21.6275 C6.66557214,21.8747161 5.96851729,22.0009144 5.26583333,22.0000049 C4.36256718,21.9964099 3.47077319,21.7974122 2.65166667,21.4166667 C2.22191163,21.2202316 1.96264198,20.7742412 2.00459452,20.3035862 C2.04654705,19.8329312 2.38061052,19.4398284 2.83833333,19.3225 C3.675,19.1075 3.825,18.685 4.15333333,17.7608333 C4.26416667,17.4508333 4.38333333,17.1158333 4.54333333,16.7608333 C4.87339115,16.0247379 5.48241742,15.4499601 6.23636345,15.1630105 Z M19.2507332,2.02023169 C19.9766964,1.96535498 20.6916708,2.22227258 21.2166667,2.72666667 C21.7113371,3.20354747 21.9935412,3.85926294 21.9999168,4.54633993 C22.0060791,5.23341692 21.7358865,5.89417251 21.25,6.38 L21.25,6.38 L11.5575,16.2733333 C11.5092383,16.3222696 11.4399459,16.3442535 11.3722996,16.3320905 C11.3046534,16.3199275 11.2473589,16.2751829 11.2191667,16.2125 C10.8051822,15.3214421 10.0972256,14.5999501 9.21416667,14.1691667 C9.15906609,14.1410292 9.11924913,14.0899419 9.10541948,14.0296382 C9.09158984,13.9693346 9.10516659,13.9060023 9.1425,13.8566667 L9.1425,13.8566667 L17.4133333,3.01416667 C17.8565409,2.43658455 18.5247699,2.07510841 19.2507332,2.02023169 Z" id="ðŸ–-Color" fill="#5A5A5A"></path>
        <rect id="_Transparent_Rectangle_" x="0" y="0" width="24" height="24"></rect>
    </g>
</svg>