<?xml version="1.0" encoding="UTF-8"?>
<svg width="24px" height="24px" viewBox="0 0 24 24" version="1.1" xmlns="http://www.w3.org/2000/svg" xmlns:xlink="http://www.w3.org/1999/xlink">
    <title>13. Design/color_bucket_1</title>
    <g id="13.-Design/color_bucket_1" stroke="none" stroke-width="1" fill="none" fill-rule="evenodd">
        <path d="M19.8999829,13.5827431 C20.1985665,13.5827431 20.4743288,13.7491552 20.6228554,14.0189689 C21.4336392,15.4945732 22.3994136,17.4467109 22.3994136,18.3659256 C22.3994136,19.8040793 21.2801938,20.9699332 19.8995663,20.9699332 C18.5189387,20.9699332 17.399719,19.8040793 17.399719,18.3659256 C17.399719,17.4449749 18.3654933,15.4937052 19.1771104,14.0189689 C19.325637,13.7491552 19.6013994,13.5827431 19.8999829,13.5827431 Z M9.50353467,3.39808998 C9.99861989,2.90770912 10.7758415,2.90770912 11.2709267,3.39808998 L11.2709267,3.39808998 L17.5922072,9.98275718 C17.8579877,10.1943859 17.9631926,10.5599142 17.8530246,10.8889518 C17.7074755,11.2030384 17.3850697,11.3846016 17.0530735,11.3394451 L17.0530735,11.3394451 L16.2197911,11.3394451 C15.8032634,11.3702554 15.4076077,11.5411433 15.0923599,11.8263946 L15.0923599,11.8263946 L9.84601375,17.2861305 C9.03252209,18.1332617 7.71385203,18.1332617 6.90036036,17.2861305 L6.90036036,17.2861305 L3.0097647,13.2316906 C2.61896897,12.8247191 2.39941355,12.2726828 2.39941355,11.6970622 C2.39941355,11.1214416 2.61896897,10.5694053 3.0097647,10.1624337 L3.0097647,10.1624337 L5.36045444,7.71379856 C5.40831157,7.66347681 5.47680285,7.6407761 5.54377657,7.65303839 L5.54377657,7.65303839 L10.3434834,8.53145695 C10.4561407,8.55257486 10.5640515,8.47505279 10.5851353,8.35785644 L10.5851353,8.35785644 L10.7042947,7.6565104 C10.7245678,7.53915896 10.6501467,7.42675196 10.5376382,7.40478966 L10.5376382,7.40478966 L3.92137568,6.18958612 C3.6183549,6.14703523 3.362044,5.93502969 3.25359369,5.63723551 C3.14514339,5.33944133 3.20197463,5.00369479 3.4016595,4.76249513 C3.60134437,4.52129548 3.91180642,4.41338791 4.21052468,4.48135714 L4.21052468,4.48135714 L7.71697715,5.12628302 C7.78394098,5.13839313 7.85236579,5.11571445 7.90029928,5.06552284 L7.90029928,5.06552284 Z" id="ðŸ–-Color" fill="#5A5A5A"></path>
        <rect id="_Transparent_Rectangle_" x="0" y="0" width="24" height="24"></rect>
    </g>
</svg>