<?xml version="1.0" encoding="UTF-8"?>
<svg width="24px" height="24px" viewBox="0 0 24 24" version="1.1" xmlns="http://www.w3.org/2000/svg" xmlns:xlink="http://www.w3.org/1999/xlink">
    <title>13. Design/color_rolling_brush</title>
    <g id="13.-Design/color_rolling_brush" stroke="none" stroke-width="1" fill="none" fill-rule="evenodd">
        <path d="M12.8333333,12.8333333 C13.9839266,12.8333333 14.9166667,13.7660734 14.9166667,14.9166667 L14.9166667,14.9166667 L14.9166667,20.75 C14.9166667,21.4403559 14.3570226,22 13.6666667,22 L13.6666667,22 L12,22 C11.3096441,22 10.75,21.4403559 10.75,20.75 L10.75,20.75 L10.75,14.9166667 C10.75,13.7660734 11.6827401,12.8333333 12.8333333,12.8333333 Z M4.70833333,4.08333333 C4.82339266,4.08333333 4.91666667,4.17660734 4.91666667,4.29166667 L4.91666667,4.29166667 L4.91666667,5.54166667 C4.91666667,5.65672599 4.82339266,5.75 4.70833333,5.75 L4.70833333,5.75 L4.5,5.75 C4.03976271,5.75 3.66666667,6.12309604 3.66666667,6.58333333 L3.66666667,6.58333333 L3.66666667,8.25 C3.66666667,8.71023729 4.03976271,9.08333333 4.5,9.08333333 L4.5,9.08333333 L11.1666667,9.08333333 C12.5473785,9.08333333 13.6666667,10.2026215 13.6666667,11.5833333 L13.6666667,11.5833333 L13.6666667,11.8541667 C13.6666667,11.9167339 13.6385717,11.9759941 13.5901114,12.01557 C13.541651,12.055146 13.4779698,12.0708468 13.4166667,12.0583333 C13.0316667,11.9805556 12.635,11.9805556 12.25,12.0583333 C12.1886969,12.0708468 12.1250156,12.055146 12.0765553,12.01557 C12.028095,11.9759941 11.9999872,11.9167339 12,11.8541667 L12,11.8541667 L12,11.5833333 C12,11.123096 11.626904,10.75 11.1666667,10.75 L11.1666667,10.75 L4.5,10.75 C3.11928813,10.75 2,9.63071187 2,8.25 L2,8.25 L2,6.58333333 C2,5.20262146 3.11928813,4.08333333 4.5,4.08333333 L4.5,4.08333333 Z M17.5833333,2 C18.4117605,2 19.0833333,2.67157288 19.0833333,3.5 L19.0833333,6.33333333 C19.0833333,7.16176046 18.4117605,7.83333333 17.5833333,7.83333333 L7.25,7.83333333 C6.42157288,7.83333333 5.75,7.16176046 5.75,6.33333333 L5.75,3.5 C5.75,2.67157288 6.42157288,2 7.25,2 L17.5833333,2 Z M21.1666667,4.08333333 C21.626904,4.08333333 22,4.45642938 22,4.91666667 C22,5.37690396 21.626904,5.75 21.1666667,5.75 L21.1666667,5.75 L20.125,5.75 C20.0099407,5.75 19.9166667,5.65672599 19.9166667,5.54166667 L19.9166667,5.54166667 L19.9166667,4.29166667 C19.9166667,4.17660734 20.0099407,4.08333333 20.125,4.08333333 L20.125,4.08333333 Z" id="ðŸ–-Color" fill="#5A5A5A"></path>
        <rect id="_Transparent_Rectangle_" x="0" y="0" width="24" height="24"></rect>
    </g>
</svg>