<svg width="24" height="24" viewBox="0 0 24 24" fill="none" xmlns="http://www.w3.org/2000/svg">
<g id="color_rolling_brush">
<path id="Shape" fill-rule="evenodd" clip-rule="evenodd" d="M5.75 3.5C5.75 2.67157 6.42157 2 7.25 2H17.5833C18.4118 2 19.0833 2.67157 19.0833 3.5V6.33333C19.0833 7.16176 18.4118 7.83333 17.5833 7.83333H7.25C6.42157 7.83333 5.75 7.16176 5.75 6.33333V3.5ZM2 6.58333C2 5.20262 3.11929 4.08333 4.5 4.08333H4.70833C4.82339 4.08333 4.91667 4.17661 4.91667 4.29167V5.54167C4.91667 5.65673 4.82339 5.75 4.70833 5.75H4.5C4.03976 5.75 3.66667 6.1231 3.66667 6.58333V8.25C3.66667 8.71024 4.03976 9.08333 4.5 9.08333H11.1667C12.5474 9.08333 13.6667 10.2026 13.6667 11.5833V11.8542C13.6667 11.9167 13.6386 11.976 13.5901 12.0156C13.5417 12.0551 13.478 12.0708 13.4167 12.0583C13.0317 11.9806 12.635 11.9806 12.25 12.0583C12.1887 12.0708 12.125 12.0551 12.0766 12.0156C12.0281 11.976 12 11.9167 12 11.8542V11.5833C12 11.1231 11.6269 10.75 11.1667 10.75H4.5C3.11929 10.75 2 9.63071 2 8.25V6.58333ZM20.125 4.08333H21.1667C21.6269 4.08333 22 4.45643 22 4.91667C22 5.3769 21.6269 5.75 21.1667 5.75H20.125C20.0099 5.75 19.9167 5.65673 19.9167 5.54167V4.29167C19.9167 4.17661 20.0099 4.08333 20.125 4.08333ZM10.75 20.75V14.9167C10.75 13.7661 11.6827 12.8333 12.8333 12.8333C13.9839 12.8333 14.9167 13.7661 14.9167 14.9167V20.75C14.9167 21.4404 14.357 22 13.6667 22H12C11.3096 22 10.75 21.4404 10.75 20.75Z" fill="#5A5A5A"/>
</g>
</svg>
