<svg width="24" height="24" viewBox="0 0 24 24" fill="none" xmlns="http://www.w3.org/2000/svg">
<g id="color_brush_1">
<path id="Shape" fill-rule="evenodd" clip-rule="evenodd" d="M19.2506 2.02023C19.9765 1.96535 20.6915 2.22227 21.2165 2.72666C21.7112 3.20354 21.9934 3.85926 21.9996 4.54634C22.0059 5.23341 21.7357 5.89417 21.2498 6.38L11.5573 16.2733C11.5091 16.3223 11.4398 16.3442 11.3721 16.3321C11.3045 16.3199 11.2472 16.2752 11.219 16.2125C10.805 15.3214 10.0971 14.5999 9.214 14.1692C9.1589 14.141 9.11908 14.0899 9.10525 14.0296C9.09142 13.9693 9.105 13.906 9.14233 13.8567L17.4132 3.01416C17.8564 2.43658 18.5246 2.0751 19.2506 2.02023ZM6.2362 15.163C6.99014 14.8761 7.82721 14.9005 8.56317 15.2308V15.23C9.29911 15.5602 9.8737 16.1693 10.1605 16.9232C10.4473 17.6772 10.4228 18.5141 10.0923 19.25C9.50547 20.366 8.51514 21.2163 7.32317 21.6275C6.66541 21.8747 5.96835 22.0009 5.26567 22C4.3624 21.9964 3.47061 21.7974 2.6515 21.4167C2.22174 21.2202 1.96247 20.7742 2.00443 20.3036C2.04638 19.8329 2.38044 19.4398 2.83817 19.3225C3.67472 19.1075 3.82479 18.6851 4.15303 17.7612L4.15317 17.7608L4.15903 17.7444C4.26821 17.439 4.38599 17.1096 4.54317 16.7608C4.87322 16.0247 5.48225 15.45 6.2362 15.163Z" fill="#5A5A5A"/>
</g>
</svg>
