<svg width="24" height="24" viewBox="0 0 24 24" fill="none" xmlns="http://www.w3.org/2000/svg">
<g id="cube_alternate">
<path id="Shape" fill-rule="evenodd" clip-rule="evenodd" d="M9.2093 7.5814C9.08086 7.5814 8.97675 7.47728 8.97675 7.34884V2.23256C8.97675 2.10412 9.08086 2 9.2093 2H20.4521C20.5463 1.99983 20.6313 2.0565 20.6673 2.14351C20.7034 2.23052 20.6834 2.33069 20.6167 2.39721L15.5005 7.51349C15.4567 7.55699 15.3975 7.5814 15.3358 7.5814H9.2093ZM7.34884 7.5814C7.47728 7.5814 7.5814 7.47728 7.5814 7.34884V2.97023C7.58156 2.87604 7.5249 2.79105 7.43789 2.75499C7.35088 2.71892 7.25071 2.7389 7.18419 2.80558L2.80558 7.18419C2.7389 7.25071 2.71892 7.35088 2.75499 7.43789C2.79105 7.5249 2.87604 7.58156 2.97023 7.5814H7.34884ZM8.97675 9.25582C8.97675 9.10169 9.10169 8.97675 9.25582 8.97675H14.7442C14.8983 8.97675 15.0233 9.10169 15.0233 9.25582V14.7442C15.0233 14.8983 14.8983 15.0233 14.7442 15.0233H9.25582C9.10169 15.0233 8.97675 14.8983 8.97675 14.7442V9.25582ZM16.4186 16.6512C16.4186 16.5227 16.5227 16.4186 16.6512 16.4186H21.0298C21.124 16.4184 21.2089 16.4751 21.245 16.5621C21.2811 16.6491 21.2611 16.7493 21.1944 16.8158L16.8158 21.1944C16.7493 21.2611 16.6491 21.2811 16.5621 21.245C16.4751 21.2089 16.4184 21.124 16.4186 21.0298V16.6512ZM7.51349 15.5005C7.55699 15.4567 7.5814 15.3975 7.5814 15.3358V9.2093C7.5814 9.08086 7.47728 8.97675 7.34884 8.97675H2.23256C2.10412 8.97675 2 9.08086 2 9.2093V20.4521C1.99983 20.5463 2.0565 20.6313 2.14351 20.6673C2.23052 20.7034 2.33069 20.6834 2.39721 20.6167L7.51349 15.5005ZM14.7907 16.4186C14.9191 16.4186 15.0233 16.5227 15.0233 16.6512V21.7674C15.0233 21.8959 14.9191 22 14.7907 22H3.54698C3.45296 21.9998 3.36831 21.943 3.33248 21.8561C3.29665 21.7691 3.31669 21.6692 3.38326 21.6028L8.49954 16.4865C8.54329 16.443 8.60249 16.4186 8.66419 16.4186H14.7907ZM16.4865 8.49954C16.443 8.54329 16.4186 8.60249 16.4186 8.66419V14.7907C16.4186 14.9191 16.5227 15.0233 16.6512 15.0233H21.7674C21.8959 15.0233 22 14.9191 22 14.7907V3.54791C22.0002 3.45372 21.9435 3.36873 21.8565 3.33266C21.7695 3.29659 21.6693 3.31657 21.6028 3.38326L16.4865 8.49954Z" fill="#5A5A5A"/>
</g>
</svg>
