<svg width="24" height="24" viewBox="0 0 24 24" fill="none" xmlns="http://www.w3.org/2000/svg">
<g id="cylinder_alternate">
<path id="Shape" fill-rule="evenodd" clip-rule="evenodd" d="M12.0007 15.9583C14.9532 15.9583 17.929 16.4933 19.599 17.5325C19.6633 17.5725 19.7443 17.5744 19.8104 17.5375C19.8766 17.5006 19.9175 17.4307 19.9173 17.355V5.33333V5.2875C19.8615 3.02917 15.7882 2 12.0007 2C8.21315 2 4.13982 3.02917 4.08399 5.2875V5.33333V17.355C4.08378 17.4307 4.1247 17.5006 4.19086 17.5375C4.25702 17.5744 4.33799 17.5725 4.40232 17.5325C6.07232 16.4933 9.04815 15.9583 12.0007 15.9583ZM12.0007 3.66667C16.0607 3.66667 18.2507 4.85 18.2507 5.33333C18.2507 5.81667 16.0607 7 12.0007 7C7.94065 7 5.75065 5.81667 5.75065 5.33333C5.75065 4.85 7.94065 3.66667 12.0007 3.66667ZM19.684 19.5625C18.764 21.2308 15.2757 22 12.0007 22C8.72565 22 5.23732 21.2308 4.31732 19.5625C4.29202 19.5162 4.28518 19.462 4.29815 19.4108C4.41732 18.9433 5.43732 17.2083 12.0007 17.2083C18.564 17.2083 19.584 18.9433 19.7032 19.4108C19.7161 19.462 19.7093 19.5162 19.684 19.5625Z" fill="#5A5A5A"/>
</g>
</svg>
