<?xml version="1.0" encoding="UTF-8"?>
<svg width="24px" height="24px" viewBox="0 0 24 24" version="1.1" xmlns="http://www.w3.org/2000/svg" xmlns:xlink="http://www.w3.org/1999/xlink">
    <title>13. Design/design_tool_pen</title>
    <g id="13.-Design/design_tool_pen" stroke="none" stroke-width="1" fill="none" fill-rule="evenodd">
        <path d="M11.5833333,2 C13.8833776,2.0027551 15.7472449,3.86662237 15.75,6.16666667 L15.75,6.16666667 L15.75,18.6666667 C15.75,19.5871412 16.4961921,20.3333333 17.4166667,20.3333333 C18.3371412,20.3333333 19.0833333,19.5871412 19.0833333,18.6666667 C19.0833333,18.2064294 19.4564294,17.8333333 19.9166667,17.8333333 C20.376904,17.8333333 20.75,18.2064294 20.75,18.6666667 C20.75,20.5076158 19.2576158,22 17.4166667,22 C15.5757175,22 14.0833333,20.5076158 14.0833333,18.6666667 L14.0833333,18.6666667 L14.0833333,6.16666667 C14.0833333,4.78595479 12.9640452,3.66666667 11.5833333,3.66666667 L11.5833333,3.66666667 L9.91666667,3.66666667 C8.53595479,3.66666667 7.41666667,4.78595479 7.41666667,6.16666667 L7.41666667,6.16666667 L7.41666667,6.58333333 C7.41666667,7.04357062 7.04357062,7.41666667 6.58333333,7.41666667 C6.12309604,7.41666667 5.75,7.04357062 5.75,6.58333333 L5.75,6.58333333 L5.75,6.16666667 C5.7527551,3.86662237 7.61662237,2.0027551 9.91666667,2 L9.91666667,2 Z M10.9583333,14.0833333 C11.0733927,14.0833333 11.1666667,14.1766073 11.1666667,14.2916667 L11.1666667,14.2916667 L11.1666667,17.4166667 C11.1666667,19.9479718 9.11463844,22 6.58333333,22 C4.05202823,22 2,19.9479718 2,17.4166667 L2,17.4166667 L2,14.2916667 C2,14.1766073 2.09327401,14.0833333 2.20833333,14.0833333 L2.20833333,14.0833333 Z M21.7916667,6.58333333 C21.906726,6.58333333 22,6.67660734 22,6.79166667 L22,6.79166667 L22,14.5 C22,15.6505932 21.0672599,16.5833333 19.9166667,16.5833333 C18.7660734,16.5833333 17.8333333,15.6505932 17.8333333,14.5 L17.8333333,14.5 L17.8333333,6.79166667 C17.8333333,6.67660734 17.9266073,6.58333333 18.0416667,6.58333333 L18.0416667,6.58333333 Z M9.08333333,8.66666667 C10.2339266,8.66666667 11.1666667,9.59940677 11.1666667,10.75 L11.1666667,10.75 L11.1666667,12.625 C11.1666667,12.7400593 11.0733927,12.8333333 10.9583333,12.8333333 L10.9583333,12.8333333 L7.41666667,12.8333333 C7.30160734,12.8333333 7.20833333,12.7400593 7.20833333,12.625 L7.20833333,12.625 L7.20833333,8.875 C7.20833333,8.75994068 7.30160734,8.66666667 7.41666667,8.66666667 L7.41666667,8.66666667 Z M5.75,8.66666667 C5.86505932,8.66666667 5.95833333,8.75994068 5.95833333,8.875 L5.95833333,8.875 L5.95833333,12.625 C5.95833333,12.7400593 5.86505932,12.8333333 5.75,12.8333333 L5.75,12.8333333 L2.20833333,12.8333333 C2.09327401,12.8333333 2,12.7400593 2,12.625 L2,12.625 L2,10.75 C2,9.59940677 2.9327401,8.66666667 4.08333333,8.66666667 L4.08333333,8.66666667 Z M19.9166667,2.01886796 C20.0693155,2.01886796 20.2107498,2.09903253 20.2891667,2.23 L20.2891667,2.23 L21.9558333,5.56333333 C21.9761924,5.60322723 21.97428,5.65084927 21.9507874,5.68898212 C21.9272948,5.72711497 21.8856212,5.75024131 21.8408333,5.75000187 L21.8408333,5.75000187 L17.9925,5.75000187 C17.9477121,5.75024131 17.9060385,5.72711497 17.8825459,5.68898212 C17.8590534,5.65084927 17.8571409,5.60322723 17.8775,5.56333333 L17.8775,5.56333333 L19.5441667,2.23 C19.6225835,2.09903253 19.7640178,2.01886796 19.9166667,2.01886796 Z" id="ðŸ–-Color" fill="#5A5A5A"></path>
        <rect id="_Transparent_Rectangle_" x="0" y="0" width="24" height="24"></rect>
    </g>
</svg>