<?xml version="1.0" encoding="UTF-8"?>
<svg width="24px" height="24px" viewBox="0 0 24 24" version="1.1" xmlns="http://www.w3.org/2000/svg" xmlns:xlink="http://www.w3.org/1999/xlink">
    <title>13. Design/design_tool_compass</title>
    <g id="13.-Design/design_tool_compass" stroke="none" stroke-width="1" fill="none" fill-rule="evenodd">
        <path d="M14.2916667,7.83333328 C14.4350329,7.83361991 14.5681827,7.90759201 14.6441667,8.02916667 L14.6441667,8.02916667 L20.7116667,17.6875 C20.9391824,18.0451375 20.9653519,18.4950636 20.7808333,18.8766667 C20.7508467,18.9420002 20.7565111,19.018155 20.7958333,19.0783333 L20.7958333,19.0783333 L21.8641667,20.71 C21.9853009,20.8950616 22.027895,21.1206885 21.9825656,21.3371753 C21.9372362,21.5536621 21.8077023,21.7432477 21.6225,21.8641667 C21.2374879,22.1160214 20.7212183,22.0082166 20.4691667,21.6233333 L20.4691667,21.6233333 L19.395,19.9816667 C19.354398,19.9201247 19.2844962,19.884383 19.2108333,19.8875 C18.7564851,19.9054151 18.3276445,19.6774642 18.0883333,19.2908333 L18.0883333,19.2908333 L12.1058333,9.55666667 C12.0640408,9.48895525 11.9873289,9.45096295 11.9081411,9.45875771 C11.8289534,9.46655248 11.7611215,9.51877281 11.7333333,9.59333333 L11.7333333,9.59333333 L9.97416667,14.2825 C9.71645907,14.897934 9.12506117,15.3079135 8.45833333,15.3333333 L8.45833333,15.3333333 L2.20833333,15.3333333 C2.1530799,15.3333333 2.1000895,15.311384 2.06101942,15.2723139 C2.02194934,15.2332438 2,15.1802534 2,15.125 L2,15.125 L2,13.0416667 C2,12.9266073 2.09327401,12.8333333 2.20833333,12.8333333 L2.20833333,12.8333333 L6.6075,12.8333333 C6.92591532,12.8095219 7.20620286,12.6144698 7.33916667,12.3241667 L7.33916667,12.3241667 L8.90083333,8.105 C8.96147954,7.9416221 9.11739592,7.83333328 9.29166667,7.83333328 L9.29166667,7.83333328 Z M5.95833333,16.5833333 C6.07339266,16.5833333 6.16666744,16.6766073 6.16666744,16.7916667 L6.16666744,16.7916667 L6.16666744,18.2416667 C6.16679225,18.3067586 6.15166582,18.3709745 6.1225,18.4291667 L6.1225,18.4291667 L4.6425,21.39 C4.55345789,21.6213076 4.33118756,21.7739149 4.08333333,21.7739149 C3.83547911,21.7739149 3.61320878,21.6213076 3.52416667,21.39 L3.52416667,21.39 L2.04416667,18.4291667 C2.01500085,18.3709745 1.99987442,18.3067586 1.99999922,18.2416667 L1.99999922,18.2416667 L1.99999922,16.7916667 C1.99999922,16.6766073 2.09327401,16.5833333 2.20833333,16.5833333 L2.20833333,16.5833333 Z M5.91666667,8.66666667 C6.05473785,8.66666667 6.16666667,8.77859548 6.16666667,8.91666667 L6.16666667,11.3333333 C6.16666667,11.4714045 6.05473785,11.5833333 5.91666667,11.5833333 L2.25,11.5833333 C2.11192881,11.5833333 2,11.4714045 2,11.3333333 L2,8.91666667 C2,8.77859548 2.11192881,8.66666667 2.25,8.66666667 L5.91666667,8.66666667 Z M4.08333333,4.5175 C5.23392656,4.5175 6.16666667,5.4502401 6.16666667,6.60083333 L6.16666667,6.60083333 L6.16666667,7.20833333 C6.16666667,7.32339266 6.07339266,7.41666667 5.95833333,7.41666667 L5.95833333,7.41666667 L2.20833333,7.41666667 C2.09327401,7.41666667 2,7.32339266 2,7.20833333 L2,7.20833333 L2,6.60083333 C2,5.4502401 2.9327401,4.5175 4.08333333,4.5175 Z M11.7916667,2.00000006 C13.4024972,2.00000006 14.7083333,3.30583617 14.7083333,4.91666667 L14.7083333,4.91666667 L14.7083333,6.16666667 C14.7083333,6.39678531 14.5217853,6.58333333 14.2916667,6.58333333 L14.2916667,6.58333333 L9.29166667,6.58333333 C9.06154802,6.58333333 8.875,6.39678531 8.875,6.16666667 L8.875,6.16666667 L8.875,4.91666667 C8.875,3.30583617 10.1808362,2.00000006 11.7916667,2.00000006 Z M11.7916667,3.25 C11.3314294,3.25 10.9583333,3.62309604 10.9583333,4.08333333 C10.9583333,4.54357062 11.3314294,4.91666667 11.7916667,4.91666667 C12.251904,4.91666667 12.625,4.54357062 12.625,4.08333333 C12.625,3.62309604 12.251904,3.25 11.7916667,3.25 Z" id="ðŸ–-Color" fill="#5A5A5A"></path>
        <rect id="_Transparent_Rectangle_" x="0" y="0" width="24" height="24"></rect>
    </g>
</svg>