<svg width="24" height="24" viewBox="0 0 24 24" fill="none" xmlns="http://www.w3.org/2000/svg">
<g id="design_tool_compass">
<path id="Shape" fill-rule="evenodd" clip-rule="evenodd" d="M14.2917 6.58333C14.5218 6.58333 14.7083 6.39679 14.7083 6.16667V4.91667C14.7083 3.30584 13.4025 2 11.7917 2C10.1808 2 8.875 3.30584 8.875 4.91667V6.16667C8.875 6.39679 9.06155 6.58333 9.29167 6.58333H14.2917ZM11.7917 3.25C12.2519 3.25 12.625 3.6231 12.625 4.08333C12.625 4.54357 12.2519 4.91667 11.7917 4.91667C11.3314 4.91667 10.9583 4.54357 10.9583 4.08333C10.9583 3.6231 11.3314 3.25 11.7917 3.25ZM6.16667 7.20833C6.16667 7.32339 6.0734 7.41667 5.95834 7.41667H2.20834C2.09328 7.41667 2 7.32339 2 7.20833V6.60083C2 5.45024 2.93274 4.5175 4.08334 4.5175C5.23393 4.5175 6.16667 5.45024 6.16667 6.60083V7.20833ZM2 8.91667C2 8.7786 2.11193 8.66667 2.25 8.66667H5.91667C6.05474 8.66667 6.16667 8.7786 6.16667 8.91667V11.3333C6.16667 11.4714 6.05474 11.5833 5.91667 11.5833H2.25C2.11193 11.5833 2 11.4714 2 11.3333V8.91667ZM2.20834 16.5833C2.09328 16.5833 2 16.6766 2 16.7917V18.2417C1.99988 18.3068 2.015 18.371 2.04417 18.4292L3.52417 21.39C3.61321 21.6213 3.83548 21.7739 4.08334 21.7739C4.33119 21.7739 4.55346 21.6213 4.6425 21.39L6.1225 18.4292C6.15167 18.371 6.16679 18.3068 6.16667 18.2417V16.7917C6.16667 16.6766 6.0734 16.5833 5.95834 16.5833H2.20834ZM21.6225 21.8642C21.8077 21.7432 21.9372 21.5537 21.9826 21.3372C22.0279 21.1207 21.9853 20.8951 21.8642 20.71L20.7958 19.0783C20.7565 19.0182 20.7508 18.942 20.7808 18.8767C20.9654 18.4951 20.9392 18.0451 20.7117 17.6875L14.6442 8.02917C14.5682 7.90759 14.435 7.83362 14.2917 7.83333H9.29167C9.1174 7.83324 8.96148 7.94162 8.90084 8.105L7.33917 12.3242C7.20621 12.6145 6.92592 12.8095 6.6075 12.8333H2.20834C2.09328 12.8333 2 12.9266 2 13.0417V15.125C2 15.1803 2.02195 15.2332 2.06102 15.2723C2.10009 15.3114 2.15308 15.3333 2.20834 15.3333H8.45834C9.12506 15.3079 9.71646 14.8979 9.97417 14.2825L11.7333 9.59333C11.7611 9.51877 11.829 9.46655 11.9081 9.45876C11.9873 9.45096 12.064 9.48896 12.1058 9.55667L18.0883 19.2908C18.3276 19.6775 18.7565 19.9054 19.2108 19.8875C19.2845 19.8844 19.3544 19.9201 19.395 19.9817L20.4692 21.6233C20.7212 22.0082 21.2375 22.116 21.6225 21.8642Z" fill="#5A5A5A"/>
</g>
</svg>
