<?xml version="1.0" encoding="UTF-8"?>
<svg width="24px" height="24px" viewBox="0 0 24 24" version="1.1" xmlns="http://www.w3.org/2000/svg" xmlns:xlink="http://www.w3.org/1999/xlink">
    <title>13. Design/design_file_text</title>
    <g id="13.-Design/design_file_text" stroke="none" stroke-width="1" fill="none" fill-rule="evenodd">
        <path d="M19.845,6.095 L16.2383333,2.48833333 C15.9258454,2.17575104 15.5019913,2 15.06,2 L5.3333333,2 C4.41285872,2 3.66666663,2.74619208 3.66666663,3.66666667 L3.66666663,20.3333333 C3.66666663,21.2538079 4.41285872,22 5.3333333,22 L18.6666666,22 C19.5871412,22 20.3333334,21.2538079 20.3333334,20.3333333 L20.3333334,7.27416667 C20.3333334,6.83188654 20.1577865,6.40769204 19.845,6.095 Z M15.9583333,12.8333333 C15.9583333,13.1785113 15.6785113,13.4583333 15.3333333,13.4583333 C14.9881553,13.4583333 14.7083333,13.1785113 14.7083333,12.8333333 L14.7083333,12 C14.7083333,11.8849407 14.6150593,11.7916667 14.5,11.7916667 L12.8333333,11.7916667 C12.718274,11.7916667 12.625,11.8849407 12.625,12 L12.625,17.4166667 C12.625,17.531726 12.718274,17.625 12.8333333,17.625 L13.6666666,17.625 C14.0118446,17.625 14.2916666,17.904822 14.2916666,18.25 C14.2916666,18.595178 14.0118446,18.875 13.6666666,18.875 L10.3333333,18.875 C9.98815533,18.875 9.7083333,18.595178 9.7083333,18.25 C9.7083333,17.904822 9.98815533,17.625 10.3333333,17.625 L11.1666666,17.625 C11.281726,17.625 11.375,17.531726 11.375,17.4166667 L11.375,12 C11.375,11.8849407 11.281726,11.7916667 11.1666666,11.7916667 L9.49999997,11.7916667 C9.38494064,11.7916667 9.29166663,11.8849407 9.29166663,12 L9.29166663,12.8333333 C9.29166663,13.1785113 9.0118446,13.4583333 8.66666663,13.4583333 C8.32148866,13.4583333 8.04166663,13.1785113 8.04166663,12.8333333 L8.04166663,11.5833333 C8.04166663,11.0080367 8.50803668,10.5416667 9.0833333,10.5416667 L14.9166666,10.5416667 C15.4919632,10.5416667 15.9583333,11.0080367 15.9583333,11.5833333 L15.9583333,12.8333333 Z" id="ðŸ–-Color" fill="#5A5A5A"></path>
        <rect id="_Transparent_Rectangle_" x="0" y="0" width="24" height="24"></rect>
    </g>
</svg>