<svg width="24" height="24" viewBox="0 0 24 24" fill="none" xmlns="http://www.w3.org/2000/svg">
<g id="design_file_text">
<path id="Shape" fill-rule="evenodd" clip-rule="evenodd" d="M19.8443 6.095L16.2377 2.48833C15.9252 2.17575 15.5013 2.00009 15.0593 2H5.33268C4.41221 2 3.66602 2.74619 3.66602 3.66667V20.3333C3.66602 21.2538 4.41221 22 5.33268 22H18.666C19.5865 22 20.3327 21.2538 20.3327 20.3333V7.27417C20.3328 6.83189 20.1571 6.40769 19.8443 6.095ZM15.9577 12.8333C15.9577 13.1785 15.6779 13.4583 15.3327 13.4583C14.9875 13.4583 14.7077 13.1785 14.7077 12.8333V12C14.7077 11.8849 14.6144 11.7917 14.4993 11.7917H12.8327C12.7176 11.7917 12.6243 11.8849 12.6243 12V17.4167C12.6243 17.5317 12.7176 17.625 12.8327 17.625H13.666C14.0112 17.625 14.291 17.9048 14.291 18.25C14.291 18.5952 14.0112 18.875 13.666 18.875H10.3327C9.9875 18.875 9.70768 18.5952 9.70768 18.25C9.70768 17.9048 9.9875 17.625 10.3327 17.625H11.166C11.2811 17.625 11.3743 17.5317 11.3743 17.4167V12C11.3743 11.8849 11.2811 11.7917 11.166 11.7917H9.49935C9.38429 11.7917 9.29102 11.8849 9.29102 12V12.8333C9.29102 13.1785 9.01119 13.4583 8.66602 13.4583C8.32084 13.4583 8.04102 13.1785 8.04102 12.8333V11.5833C8.04102 11.008 8.50739 10.5417 9.08268 10.5417H14.916C15.4913 10.5417 15.9577 11.008 15.9577 11.5833V12.8333Z" fill="#5A5A5A"/>
</g>
</svg>
