<?xml version="1.0" encoding="UTF-8"?>
<svg width="24px" height="24px" viewBox="0 0 24 24" version="1.1" xmlns="http://www.w3.org/2000/svg" xmlns:xlink="http://www.w3.org/1999/xlink">
    <title>13. Design/drawing_pen</title>
    <g id="13.-Design/drawing_pen" stroke="none" stroke-width="1" fill="none" fill-rule="evenodd">
        <path d="M4.28078725,15.9423843 C4.41751546,15.9160038 4.55892826,15.9570035 4.65758846,16.05163 L4.65758846,16.05163 L8.19538554,19.4487156 C8.2936175,19.5433279 8.336203,19.6787522 8.3089136,19.8097413 C8.2816242,19.9407304 8.18805798,20.0500136 8.05947677,20.1010777 L8.05947677,20.1010777 L4.77515372,21.3993984 C4.44475797,21.5304485 4.07888655,21.5546136 3.73290853,21.4682366 L3.73290853,21.4682366 L3.41773358,21.7708046 C3.09056957,22.0741507 2.570526,22.0698124 2.24890264,21.761054 C1.92727928,21.4522956 1.92276025,20.9530538 2.23874582,20.6389763 L2.23874582,20.6389763 L2.55392076,20.3364084 C2.46361956,20.0043614 2.48850001,19.6531079 2.62479344,19.335853 L2.62479344,19.335853 L3.9772108,16.1829029 C4.03012737,16.059031 4.14405904,15.9687648 4.28078725,15.9423843 Z M14.995827,5.56180733 C15.1614566,5.41227431 15.4196913,5.41227431 15.5853209,5.56180733 L15.5853209,5.56180733 L19.1231179,8.95729209 C19.2858674,9.11357878 19.2858674,9.36691952 19.1231179,9.52320621 L19.1231179,9.52320621 L9.58782512,18.6826904 C9.42502648,18.8389299 9.16112988,18.8389299 8.99833124,18.6826904 L8.99833124,18.6826904 L5.45636518,15.2872057 C5.2936157,15.130919 5.2936157,14.8775782 5.45636518,14.7212915 L5.45636518,14.7212915 Z M18.7412393,2.79349781 C19.2941758,2.79349781 19.8244573,3.00440095 20.2153909,3.37979615 L20.2153909,3.37979615 L21.3943787,4.5116244 C22.2081261,5.29305786 22.2081261,6.55976157 21.3943787,7.34119503 L21.3943787,7.34119503 L20.5105547,8.19046644 C20.3477561,8.34670594 20.0838595,8.34670594 19.9210609,8.19046644 L19.9210609,8.19046644 L16.3832638,4.79498168 C16.2205143,4.63869499 16.2205143,4.38535425 16.3832638,4.22906756 L16.3832638,4.22906756 L17.2670877,3.37979615 C17.6580213,3.00440095 18.1883028,2.79349781 18.7412393,2.79349781 Z" id="ðŸ–-Color" fill="#5A5A5A"></path>
        <rect id="_Transparent_Rectangle_" x="0" y="0" width="24" height="24"></rect>
    </g>
</svg>