<svg width="24" height="24" viewBox="0 0 24 24" fill="none" xmlns="http://www.w3.org/2000/svg">
<g id="drawing_pen">
<path id="Shape" fill-rule="evenodd" clip-rule="evenodd" d="M21.3936 4.51163L20.2146 3.3798C19.8237 3.00441 19.2934 2.7935 18.7405 2.7935C18.1875 2.7935 17.6572 3.00441 17.2663 3.3798L16.3825 4.22907C16.2197 4.38536 16.2197 4.6387 16.3825 4.79499L19.9203 8.19047C20.0831 8.34671 20.347 8.34671 20.5098 8.19047L21.3936 7.3412C22.2073 6.55977 22.2073 5.29306 21.3936 4.51163ZM4.65681 16.0516C4.55815 15.957 4.41673 15.916 4.28 15.9424C4.14328 15.9688 4.02934 16.059 3.97643 16.1829L2.62401 19.3359C2.48772 19.6531 2.46284 20.0044 2.55314 20.3364L2.23796 20.639C1.92198 20.9531 1.9265 21.4523 2.24812 21.7611C2.56974 22.0698 3.08979 22.0742 3.41695 21.7708L3.73213 21.4682C4.0781 21.5546 4.44397 21.5305 4.77437 21.3994L8.05869 20.1011C8.18727 20.05 8.28084 19.9407 8.30813 19.8097C8.33542 19.6788 8.29283 19.5433 8.1946 19.4487L4.65681 16.0516ZM14.995 5.56181C15.1607 5.41228 15.4189 5.41228 15.5845 5.56181L19.1223 8.9573C19.2851 9.11358 19.2851 9.36692 19.1223 9.52321L9.58704 18.6827C9.42424 18.8389 9.16035 18.8389 8.99755 18.6827L5.45558 15.2872C5.29283 15.1309 5.29283 14.8776 5.45558 14.7213L14.995 5.56181Z" fill="#5A5A5A"/>
</g>
</svg>
