<?xml version="1.0" encoding="UTF-8"?>
<svg width="24px" height="24px" viewBox="0 0 24 24" version="1.1" xmlns="http://www.w3.org/2000/svg" xmlns:xlink="http://www.w3.org/1999/xlink">
    <title>13. Design/drop_pick</title>
    <g id="13.-Design/drop_pick" stroke="none" stroke-width="1" fill="none" fill-rule="evenodd">
        <path d="M12.5250069,2.02902944 C12.5895071,1.99105756 12.6693138,1.99016872 12.7346437,2.02669464 C12.842094,2.08658621 12.9400491,2.16211097 13.0253001,2.25079496 C13.2847847,2.52375924 13.6436821,2.91045865 14.0531286,3.37382396 C14.0874049,3.41233539 14.1062992,3.46212037 14.106205,3.51367603 L14.106205,3.51367603 L14.1095749,21.6101974 C14.1095223,21.7100991 14.0390267,21.7961037 13.9410784,21.8157631 C13.5144347,21.9080981 13.0816757,21.9694784 12.646183,21.9994242 C12.5878857,22.0033978 12.5305576,21.9829744 12.487904,21.9430365 C12.4452503,21.9030986 12.421105,21.8472361 12.4212392,21.7888036 L12.4212392,21.7888036 L12.4212392,2.21119828 C12.4210038,2.13635123 12.4605067,2.06700133 12.5250069,2.02902944 Z M11.0495339,2.21807641 L11.0908664,2.22568759 C11.1310843,2.24181181 11.1575167,2.28076117 11.1575167,2.32409092 L11.1575167,2.32409092 L11.1575167,21.7593168 C11.1574129,21.819444 11.1317177,21.8766839 11.0868579,21.9167201 C11.0419982,21.9567562 10.9822161,21.9758024 10.9224641,21.9690949 C7.00636157,21.6506822 3.99183766,18.3772781 3.99641129,14.4482547 C3.99641129,9.92665185 9.33691226,3.96945899 10.974698,2.25079496 C11.0046675,2.21950119 11.0506485,2.20956336 11.0908664,2.22568759 Z M15.5119437,5.33727384 C15.596946,5.30798894 15.6911656,5.3358884 15.7465181,5.40673392 C16.1686018,5.94845009 16.5965829,6.53144789 17.017824,7.13972016 C17.041959,7.17463266 17.0548933,7.21606753 17.0548933,7.25851017 L17.0548933,7.25851017 L17.0523658,20.3051922 C17.0524991,20.3715179 17.0212581,20.4339998 16.9681176,20.4736887 C16.5607932,20.7693062 16.1257139,21.0246543 15.6690098,21.2361352 C15.6037363,21.2664908 15.5274803,21.2614071 15.466814,21.2226555 C15.4066434,21.1834979 15.3702267,21.1166812 15.3699285,21.0448917 L15.3699285,21.0448917 L15.3699285,5.53647621 C15.3698993,5.44657073 15.4269414,5.36655875 15.5119437,5.33727384 Z M18.4807055,9.86829457 C18.5753985,9.84587256 18.6731244,9.89124075 18.717111,9.97804327 C19.4798941,11.3510616 19.9198498,12.879814 20.0035816,14.4482547 C20.0143758,15.9638634 19.5603914,17.4463694 18.7027888,18.6960509 C18.6504871,18.7721142 18.5547506,18.8052571 18.4666153,18.7778115 C18.3784799,18.7503658 18.3184865,18.6687281 18.3186166,18.5764184 L18.3186166,18.5764184 L18.3186166,10.0724013 C18.319008,9.97509072 18.3860126,9.89071658 18.4807055,9.86829457 Z" id="ðŸ–-Color" fill="#5A5A5A"></path>
        <rect id="_Transparent_Rectangle_" x="0" y="0" width="24" height="24"></rect>
    </g>
</svg>