<svg width="24" height="24" viewBox="0 0 24 24" fill="none" xmlns="http://www.w3.org/2000/svg">
<g id="drop_pick">
<path id="Shape" fill-rule="evenodd" clip-rule="evenodd" d="M14.0528 3.37382C14.0871 3.41233 14.106 3.46212 14.1059 3.51367L14.1093 21.6102C14.1092 21.7101 14.0387 21.7961 13.9408 21.8158C13.5141 21.9081 13.0814 21.9695 12.6459 21.9994C12.5876 22.0034 12.5302 21.983 12.4876 21.943C12.4449 21.9031 12.4208 21.8472 12.4209 21.7888V2.21119C12.4207 2.13635 12.4602 2.067 12.5247 2.02903C12.5892 1.99105 12.669 1.99016 12.7343 2.02669C12.8418 2.08658 12.9397 2.16211 13.025 2.25079C13.2845 2.52376 13.6434 2.91045 14.0528 3.37382ZM17.0175 7.13972C17.0416 7.17463 17.0546 7.21606 17.0546 7.25851L17.052 20.3052C17.0522 20.3715 17.0209 20.434 16.9678 20.4737C16.5605 20.7693 16.1254 21.0247 15.6687 21.2361C15.6034 21.2665 15.5272 21.2614 15.4665 21.2227C15.4063 21.1835 15.3699 21.1167 15.3696 21.0449V5.53647C15.3696 5.44657 15.4266 5.36655 15.5116 5.33727C15.5966 5.30799 15.6908 5.33588 15.7462 5.40673C16.1683 5.94845 16.5963 6.53144 17.0175 7.13972ZM11.1572 2.32409C11.1571 2.28076 11.1308 2.24181 11.0905 2.22568C11.0503 2.20956 11.0043 2.2195 10.9744 2.25079C9.33659 3.96946 3.9961 9.92665 3.9961 14.4483C3.99152 18.3773 7.00604 21.6507 10.9221 21.9691C10.9819 21.9758 11.0417 21.9568 11.0865 21.9167C11.1314 21.8767 11.1571 21.8194 11.1572 21.7593V2.32409ZM18.4663 18.7778C18.3782 18.7504 18.3182 18.6687 18.3183 18.5764V10.0724C18.3187 9.97509 18.3857 9.89071 18.4804 9.86829C18.5751 9.84587 18.6728 9.89124 18.7168 9.97804C19.4796 11.3511 19.9195 12.8798 20.0033 14.4483C20.0141 15.9639 19.5601 17.4464 18.7025 18.696C18.6502 18.7721 18.5544 18.8053 18.4663 18.7778Z" fill="#5A5A5A"/>
</g>
</svg>
