<svg width="24" height="24" viewBox="0 0 24 24" fill="none" xmlns="http://www.w3.org/2000/svg">
<g id="grid_ruler_alternate">
<path id="Shape" fill-rule="evenodd" clip-rule="evenodd" d="M14.7083 16.1667C14.7093 15.3616 15.3616 14.7093 16.1667 14.7083H21.7917C21.9067 14.7083 22 14.6151 22 14.5V4.5C22 3.11929 20.8807 2 19.5 2H4.5C3.11929 2 2 3.11929 2 4.5V19.5C2 20.8807 3.11929 22 4.5 22H14.5C14.6151 22 14.7083 21.9067 14.7083 21.7917V16.1667ZM20.3333 8.04167C20.3333 8.15673 20.2401 8.25 20.125 8.25H8.45833C8.34327 8.25 8.25 8.34327 8.25 8.45833V20.125C8.25 20.2401 8.15673 20.3333 8.04167 20.3333H7.20833C7.09327 20.3333 7 20.2401 7 20.125V18.4583C7 18.3433 6.90673 18.25 6.79167 18.25H4.5C4.15482 18.25 3.875 17.9702 3.875 17.625C3.875 17.2798 4.15482 17 4.5 17H6.79167C6.90673 17 7 16.9067 7 16.7917V15.125C7 15.0099 6.90673 14.9167 6.79167 14.9167H5.33333C4.98816 14.9167 4.70833 14.6368 4.70833 14.2917C4.70833 13.9465 4.98816 13.6667 5.33333 13.6667H6.79167C6.90673 13.6667 7 13.5734 7 13.4583V11.7917C7 11.6766 6.90673 11.5833 6.79167 11.5833H4.5C4.15482 11.5833 3.875 11.3035 3.875 10.9583C3.875 10.6132 4.15482 10.3333 4.5 10.3333H6.79167C6.90673 10.3333 7 10.2401 7 10.125V8.45833C7 8.34327 6.90673 8.25 6.79167 8.25H3.875C3.75994 8.25 3.66667 8.15673 3.66667 8.04167V7.20833C3.66667 7.09327 3.75994 7 3.875 7H6.79167C6.90673 7 7 6.90673 7 6.79167V3.875C7 3.75994 7.09327 3.66667 7.20833 3.66667H8.04167C8.15673 3.66667 8.25 3.75994 8.25 3.875V6.79167C8.25 6.90673 8.34327 7 8.45833 7H10.125C10.2401 7 10.3333 6.90673 10.3333 6.79167V4.5C10.3333 4.15482 10.6132 3.875 10.9583 3.875C11.3035 3.875 11.5833 4.15482 11.5833 4.5V6.79167C11.5833 6.90673 11.6766 7 11.7917 7H13.4583C13.5734 7 13.6667 6.90673 13.6667 6.79167V5.33333C13.6667 4.98816 13.9465 4.70833 14.2917 4.70833C14.6368 4.70833 14.9167 4.98816 14.9167 5.33333V6.79167C14.9167 6.90673 15.0099 7 15.125 7H16.7917C16.9067 7 17 6.90673 17 6.79167V4.5C17 4.15482 17.2798 3.875 17.625 3.875C17.9702 3.875 18.25 4.15482 18.25 4.5V6.79167C18.25 6.90673 18.3433 7 18.4583 7H20.125C20.2401 7 20.3333 7.09327 20.3333 7.20833V8.04167ZM15.9583 16.1667C15.9597 16.0522 16.0522 15.9597 16.1667 15.9583L21.7492 15.9558C21.8118 15.9559 21.8711 15.984 21.9108 16.0324C21.9505 16.0808 21.9664 16.1444 21.9542 16.2058C21.8434 16.7882 21.5704 17.3275 21.1667 17.7617L17.7617 21.1667C17.3284 21.5705 16.79 21.8437 16.2083 21.955C16.1469 21.9672 16.0833 21.9513 16.0349 21.9116C15.9865 21.8719 15.9584 21.8126 15.9583 21.75V16.1667Z" fill="#5A5A5A"/>
</g>
</svg>
