<?xml version="1.0" encoding="UTF-8"?>
<svg width="24px" height="24px" viewBox="0 0 24 24" version="1.1" xmlns="http://www.w3.org/2000/svg" xmlns:xlink="http://www.w3.org/1999/xlink">
    <title>13. Design/grid_ruler_alternate</title>
    <g id="13.-Design/grid_ruler_alternate" stroke="none" stroke-width="1" fill="none" fill-rule="evenodd">
        <path d="M19.5,2 C20.8807119,2 22,3.11928813 22,4.5 L22,4.5 L22,14.5 C22,14.6150593 21.906726,14.7083333 21.7916667,14.7083333 L21.7916667,14.7083333 L16.1666667,14.7083333 C15.3616322,14.7092518 14.7092518,15.3616322 14.7083333,16.1666667 L14.7083333,16.1666667 L14.7083333,21.7916667 C14.7083333,21.906726 14.6150593,22 14.5,22 L14.5,22 L4.5,22 C3.11928813,22 2,20.8807119 2,19.5 L2,19.5 L2,4.5 C2,3.11928813 3.11928813,2 4.5,2 L4.5,2 Z M21.7491667,15.9558333 C21.8117732,15.9558333 21.8710688,15.98396 21.9107663,16.0323716 C21.9504638,16.0807832 21.9663887,16.1444314 21.9541667,16.2058333 C21.8433899,16.7882462 21.5704183,17.3275458 21.1666667,17.7616667 L21.1666667,17.7616667 L17.7616667,21.1666667 C17.3284406,21.5704545 16.7900077,21.843715 16.2083333,21.955 C16.1469314,21.967222 16.0832832,21.9512971 16.0348716,21.9115996 C15.98646,21.8719021 15.9583333,21.8126065 15.9583333,21.75 L15.9583333,21.75 L15.9583333,16.1666667 C15.9596831,16.0521711 16.0521711,15.9596831 16.1666667,15.9583333 L16.1666667,15.9583333 Z M8.04166667,3.66666667 L7.20833333,3.66666667 C7.09327401,3.66666667 7,3.75994068 7,3.875 L7,3.875 L7,6.79166667 C7,6.90672599 6.90672599,7 6.79166667,7 L6.79166667,7 L3.875,7 C3.75994068,7 3.66666667,7.09327401 3.66666667,7.20833333 L3.66666667,7.20833333 L3.66666667,8.04166667 C3.66666667,8.15672599 3.75994068,8.25 3.875,8.25 L3.875,8.25 L6.79166667,8.25 C6.90672599,8.25 7,8.34327401 7,8.45833333 L7,8.45833333 L7,10.125 C7,10.2400593 6.90672599,10.3333333 6.79166667,10.3333333 L6.79166667,10.3333333 L4.5,10.3333333 C4.15482203,10.3333333 3.875,10.6131554 3.875,10.9583333 C3.875,11.3035113 4.15482203,11.5833333 4.5,11.5833333 L4.5,11.5833333 L6.79166667,11.5833333 C6.90672599,11.5833333 7,11.6766073 7,11.7916667 L7,11.7916667 L7,13.4583333 C7,13.5733927 6.90672599,13.6666667 6.79166667,13.6666667 L6.79166667,13.6666667 L5.33333333,13.6666667 C4.98815536,13.6666667 4.70833333,13.9464887 4.70833333,14.2916667 C4.70833333,14.6368446 4.98815536,14.9166667 5.33333333,14.9166667 L5.33333333,14.9166667 L6.79166667,14.9166667 C6.90672599,14.9166667 7,15.0099407 7,15.125 L7,15.125 L7,16.7916667 C7,16.906726 6.90672599,17 6.79166667,17 L6.79166667,17 L4.5,17 C4.15482203,17 3.875,17.279822 3.875,17.625 C3.875,17.970178 4.15482203,18.25 4.5,18.25 L4.5,18.25 L6.79166667,18.25 C6.90672599,18.25 7,18.343274 7,18.4583333 L7,18.4583333 L7,20.125 C7,20.2400593 7.09327401,20.3333333 7.20833333,20.3333333 L7.20833333,20.3333333 L8.04166667,20.3333333 C8.15672599,20.3333333 8.25,20.2400593 8.25,20.125 L8.25,20.125 L8.25,8.45833333 C8.25,8.34327401 8.34327401,8.25 8.45833333,8.25 L8.45833333,8.25 L20.125,8.25 C20.2400593,8.25 20.3333333,8.15672599 20.3333333,8.04166667 L20.3333333,8.04166667 L20.3333333,7.20833333 C20.3333333,7.09327401 20.2400593,7 20.125,7 L20.125,7 L18.4583333,7 C18.343274,7 18.25,6.90672599 18.25,6.79166667 L18.25,6.79166667 L18.25,4.5 C18.25,4.15482203 17.970178,3.875 17.625,3.875 C17.279822,3.875 17,4.15482203 17,4.5 L17,4.5 L17,6.79166667 C17,6.90672599 16.906726,7 16.7916667,7 L16.7916667,7 L15.125,7 C15.0099407,7 14.9166667,6.90672599 14.9166667,6.79166667 L14.9166667,6.79166667 L14.9166667,5.33333333 C14.9166667,4.98815536 14.6368446,4.70833333 14.2916667,4.70833333 C13.9464887,4.70833333 13.6666667,4.98815536 13.6666667,5.33333333 L13.6666667,5.33333333 L13.6666667,6.79166667 C13.6666667,6.90672599 13.5733927,7 13.4583333,7 L13.4583333,7 L11.7916667,7 C11.6766073,7 11.5833333,6.90672599 11.5833333,6.79166667 L11.5833333,6.79166667 L11.5833333,4.5 C11.5833333,4.15482203 11.3035113,3.875 10.9583333,3.875 C10.6131554,3.875 10.3333333,4.15482203 10.3333333,4.5 L10.3333333,4.5 L10.3333333,6.79166667 C10.3333333,6.90672599 10.2400593,7 10.125,7 L10.125,7 L8.45833333,7 C8.34327401,7 8.25,6.90672599 8.25,6.79166667 L8.25,6.79166667 L8.25,3.875 C8.25,3.75994068 8.15672599,3.66666667 8.04166667,3.66666667 L8.04166667,3.66666667 Z" id="ðŸ–-Color" fill="#5A5A5A"></path>
        <rect id="_Transparent_Rectangle_" x="0" y="0" width="24" height="24"></rect>
    </g>
</svg>