<svg width="24" height="24" viewBox="0 0 24 24" fill="none" xmlns="http://www.w3.org/2000/svg">
<g id="intersect_alternate">
<path id="Shape" fill-rule="evenodd" clip-rule="evenodd" d="M22 9.5C22 8.57953 21.2538 7.83333 20.3333 7.83333H16.375C16.2599 7.83333 16.1667 7.74006 16.1667 7.625V3.66667C16.1667 2.74619 15.4205 2 14.5 2H3.66667C2.74619 2 2 2.74619 2 3.66667V14.5C2 15.4205 2.74619 16.1667 3.66667 16.1667H7.625C7.74006 16.1667 7.83333 16.2599 7.83333 16.375V20.3333C7.83333 21.2538 8.57953 22 9.5 22H20.3333C21.2538 22 22 21.2538 22 20.3333V9.5ZM4.08333 14.5C3.85321 14.5 3.66667 14.3135 3.66667 14.0833V4.08333C3.66667 3.85321 3.85321 3.66667 4.08333 3.66667H14.0833C14.3135 3.66667 14.5 3.85321 14.5 4.08333V7.625C14.5 7.74006 14.4067 7.83333 14.2917 7.83333H9.5C8.57953 7.83333 7.83333 8.57953 7.83333 9.5V14.2917C7.83333 14.4067 7.74006 14.5 7.625 14.5H4.08333ZM20.3333 19.9167C20.3333 20.1468 20.1468 20.3333 19.9167 20.3333H9.91667C9.68655 20.3333 9.5 20.1468 9.5 19.9167V16.375C9.5 16.2599 9.59327 16.1667 9.70833 16.1667H14.5C15.4205 16.1667 16.1667 15.4205 16.1667 14.5V9.70833C16.1667 9.59327 16.2599 9.5 16.375 9.5H19.9167C20.1468 9.5 20.3333 9.68655 20.3333 9.91667V19.9167Z" fill="#5A5A5A"/>
</g>
</svg>
