<?xml version="1.0" encoding="UTF-8"?>
<svg width="24px" height="24px" viewBox="0 0 24 24" version="1.1" xmlns="http://www.w3.org/2000/svg" xmlns:xlink="http://www.w3.org/1999/xlink">
    <title>13. Design/layers_back</title>
    <g id="13.-Design/layers_back" stroke="none" stroke-width="1" fill="none" fill-rule="evenodd">
        <path d="M19.9166667,7.83333333 C20.469201,7.83333333 20.999105,8.05282675 21.3898058,8.44352754 C21.7805066,8.83422833 22,9.36413231 22,9.91666667 L22,9.91666667 L22,19.9166667 C22,20.469201 21.7805066,20.999105 21.3898058,21.3898058 C20.999105,21.7805066 20.469201,22 19.9166667,22 L19.9166667,22 L9.91666667,22 C9.36413231,22 8.83422833,21.7805066 8.44352754,21.3898058 C8.05282675,20.999105 7.83333333,20.469201 7.83333333,19.9166667 L7.83333333,19.9166667 L7.83333333,18.25 C7.83333333,17.7897627 8.20642938,17.4166667 8.66666667,17.4166667 C9.12690396,17.4166667 9.5,17.7897627 9.5,18.25 L9.5,18.25 L9.5,19.9166667 C9.5,20.1467853 9.68654802,20.3333333 9.91666667,20.3333333 L9.91666667,20.3333333 L19.9166667,20.3333333 C20.1467853,20.3333333 20.3333333,20.1467853 20.3333333,19.9166667 L20.3333333,19.9166667 L20.3333333,9.91666667 C20.3333333,9.68654802 20.1467853,9.5 19.9166667,9.5 L19.9166667,9.5 L18.25,9.5 C17.7897627,9.5 17.4166667,9.12690396 17.4166667,8.66666667 C17.4166667,8.20642938 17.7897627,7.83333333 18.25,7.83333333 L18.25,7.83333333 Z M14.1666667,2 C15.2712362,2 16.1666667,2.8954305 16.1666667,4 L16.1666667,14.1666667 C16.1666667,15.2712362 15.2712362,16.1666667 14.1666667,16.1666667 L4,16.1666667 C2.8954305,16.1666667 2,15.2712362 2,14.1666667 L2,4 C2,2.8954305 2.8954305,2 4,2 L14.1666667,2 Z" id="ðŸ–-Color" fill="#5A5A5A"></path>
        <rect id="_Transparent_Rectangle_" x="0" y="0" width="24" height="24"></rect>
    </g>
</svg>