<svg width="24" height="24" viewBox="0 0 24 24" fill="none" xmlns="http://www.w3.org/2000/svg">
<g id="layers_back">
<path id="Shape" fill-rule="evenodd" clip-rule="evenodd" d="M4 2C2.89543 2 2 2.89543 2 4V14.1667C2 15.2712 2.89543 16.1667 4 16.1667H14.1667C15.2712 16.1667 16.1667 15.2712 16.1667 14.1667V4C16.1667 2.89543 15.2712 2 14.1667 2H4ZM18.25 7.83333H19.9167C20.4692 7.83333 20.9991 8.05283 21.3898 8.44353C21.7805 8.83423 22 9.36413 22 9.91667V19.9167C22 20.4692 21.7805 20.9991 21.3898 21.3898C20.9991 21.7805 20.4692 22 19.9167 22H9.91667C9.36413 22 8.83423 21.7805 8.44353 21.3898C8.05283 20.9991 7.83333 20.4692 7.83333 19.9167V18.25C7.83333 17.7898 8.20643 17.4167 8.66667 17.4167C9.1269 17.4167 9.5 17.7898 9.5 18.25V19.9167C9.5 20.1468 9.68655 20.3333 9.91667 20.3333H19.9167C20.1468 20.3333 20.3333 20.1468 20.3333 19.9167V9.91667C20.3333 9.68655 20.1468 9.5 19.9167 9.5H18.25C17.7898 9.5 17.4167 9.1269 17.4167 8.66667C17.4167 8.20643 17.7898 7.83333 18.25 7.83333Z" fill="#5A5A5A"/>
</g>
</svg>
