<?xml version="1.0" encoding="UTF-8"?>
<svg width="24px" height="24px" viewBox="0 0 24 24" version="1.1" xmlns="http://www.w3.org/2000/svg" xmlns:xlink="http://www.w3.org/1999/xlink">
    <title>13. Design/layers_grid_check</title>
    <g id="13.-Design/layers_grid_check" stroke="none" stroke-width="1" fill="none" fill-rule="evenodd">
        <path d="M16.5833333,11.1666667 C19.5733529,11.1703399 21.9963268,13.5933138 22,16.5833333 C22,19.5748757 19.5748757,22 16.5833333,22 C13.5917909,22 11.1666667,19.5748757 11.1666667,16.5833333 C11.1666667,13.5917909 13.5917909,11.1666667 16.5833333,11.1666667 Z M16.1666667,2 C17.5473785,2 18.6666667,3.11928813 18.6666667,4.5 L18.6666667,4.5 L18.6666667,9.97333333 C18.6666667,10.0385185 18.6358656,10.0998762 18.5838353,10.1391443 C18.5318051,10.1784124 18.4643943,10.1910639 18.4016667,10.1733333 C18.0055276,10.062187 17.5998796,9.98825527 17.19,9.9525 C17.0826612,9.94262338 17.0004055,9.85279151 17,9.745 L17,9.745 L17,8.66666667 C17,8.55160734 16.906726,8.45833333 16.7916667,8.45833333 L16.7916667,8.45833333 L13.6666667,8.45833333 C13.611125,8.45788899 13.5577055,8.47964201 13.5182742,8.51876035 C13.4788429,8.5578787 13.4566649,8.61112325 13.4566667,8.66666667 L13.4566667,8.66666667 L13.4566667,10.5758333 C13.4567807,10.6512772 13.4159374,10.7208385 13.35,10.7575 C13.0679195,10.9156539 12.7977575,11.0941836 12.5416667,11.2916667 C12.478538,11.3390132 12.3940772,11.346629 12.3234972,11.311339 C12.2529172,11.276049 12.2083333,11.2039108 12.2083333,11.125 L12.2083333,11.125 L12.2083333,8.66666667 C12.2083333,8.55160734 12.1150593,8.45833333 12,8.45833333 L12,8.45833333 L8.66666667,8.45833333 C8.55160734,8.45833333 8.45833333,8.55160734 8.45833333,8.66666667 L8.45833333,8.66666667 L8.45833333,12.8333333 C8.45833333,12.9483927 8.55160734,13.0416667 8.66666667,13.0416667 L8.66666667,13.0416667 L10.5825,13.0416667 C10.6560958,13.0419337 10.724136,13.080859 10.7616667,13.1441667 C10.7987569,13.2080632 10.7987569,13.2869368 10.7616667,13.3508333 C10.6171188,13.6115038 10.4901687,13.881551 10.3816667,14.1591667 C10.3502306,14.2389642 10.2732662,14.2914849 10.1875,14.2916667 L10.1875,14.2916667 L8.66666667,14.2916667 C8.55160734,14.2916667 8.45833333,14.3849407 8.45833333,14.5 L8.45833333,14.5 L8.45833333,17.625 C8.45833333,17.7400593 8.55160734,17.8333333 8.66666667,17.8333333 L8.66666667,17.8333333 L9.86833333,17.83 C9.96703442,17.8303748 10.051927,17.8999589 10.0716667,17.9966667 C10.1625833,18.412581 10.293757,18.8186613 10.4633333,19.2091667 C10.4910656,19.2734721 10.4846342,19.3474085 10.4462152,19.4059597 C10.4077962,19.464511 10.3425303,19.5 10.2725,19.5 L10.2725,19.5 L4.5,19.5 C3.11928813,19.5 2,18.3807119 2,17 L2,17 L2,4.5 C2,3.11928813 3.11928813,2 4.5,2 L4.5,2 Z M19.1891667,14.6316667 C18.9130243,14.4245599 18.5212734,14.4805243 18.3141667,14.7566667 L18.3141667,14.7566667 L16.0375,17.7925 C16.0012935,17.8409039 15.9458489,17.8711959 15.8855563,17.8755139 C15.8252636,17.8798319 15.7660681,17.8577503 15.7233333,17.815 L15.7233333,17.815 L14.64,16.7316667 C14.3948753,16.4946908 14.0050554,16.4978932 13.763857,16.7388642 C13.5226587,16.9798352 13.5190887,17.3696519 13.7558333,17.615 L13.7558333,17.615 L15.0058333,18.865 C15.2618794,19.1214838 15.6166378,19.2542156 15.9781585,19.2287924 C16.3396791,19.2033692 16.6723698,19.0222941 16.89,18.7325 L16.89,18.7325 L19.3141667,15.5066667 C19.5212734,15.2305243 19.465309,14.8387734 19.1891667,14.6316667 Z M7,14.2916667 L3.875,14.2916667 C3.75994068,14.2916667 3.66666667,14.3849407 3.66666667,14.5 L3.66666667,14.5 L3.66666667,17 C3.66666667,17.4602373 4.03976271,17.8333333 4.5,17.8333333 L4.5,17.8333333 L7,17.8333333 C7.11505932,17.8333333 7.20833333,17.7400593 7.20833333,17.625 L7.20833333,17.625 L7.20833333,14.5 C7.20833333,14.3849407 7.11505932,14.2916667 7,14.2916667 L7,14.2916667 Z M7,8.45833333 L3.875,8.45833333 C3.75994068,8.45833333 3.66666667,8.55160734 3.66666667,8.66666667 L3.66666667,8.66666667 L3.66666667,12.8333333 C3.66666667,12.9483927 3.75994068,13.0416667 3.875,13.0416667 L3.875,13.0416667 L7,13.0416667 C7.11505932,13.0416667 7.20833333,12.9483927 7.20833333,12.8333333 L7.20833333,12.8333333 L7.20833333,8.66666667 C7.20833333,8.55160734 7.11505932,8.45833333 7,8.45833333 L7,8.45833333 Z M12,3.66666667 L8.66666667,3.66666667 C8.55160734,3.66666667 8.45833333,3.75994068 8.45833333,3.875 L8.45833333,3.875 L8.45833333,7 C8.45833333,7.11505932 8.55160734,7.20833333 8.66666667,7.20833333 L8.66666667,7.20833333 L12,7.20833333 C12.1150593,7.20833333 12.2083333,7.11505932 12.2083333,7 L12.2083333,7 L12.2083333,3.875 C12.2083333,3.75994068 12.1150593,3.66666667 12,3.66666667 L12,3.66666667 Z M16.1666667,3.66666667 L13.6666667,3.66666667 C13.5516073,3.66666667 13.4583333,3.75994068 13.4583333,3.875 L13.4583333,3.875 L13.4583333,7 C13.4583333,7.11505932 13.5516073,7.20833333 13.6666667,7.20833333 L13.6666667,7.20833333 L16.7916667,7.20833333 C16.906726,7.20833333 17,7.11505932 17,7 L17,7 L17,4.5 C17,4.03976271 16.626904,3.66666667 16.1666667,3.66666667 L16.1666667,3.66666667 Z M7,3.66666667 L4.5,3.66666667 C4.03976271,3.66666667 3.66666667,4.03976271 3.66666667,4.5 L3.66666667,4.5 L3.66666667,7 C3.66666667,7.11505932 3.75994068,7.20833333 3.875,7.20833333 L3.875,7.20833333 L7,7.20833333 C7.11505932,7.20833333 7.20833333,7.11505932 7.20833333,7 L7.20833333,7 L7.20833333,3.875 C7.20833333,3.75994068 7.11505932,3.66666667 7,3.66666667 L7,3.66666667 Z" id="ðŸ–-Color" fill="#5A5A5A"></path>
        <rect id="_Transparent_Rectangle_" x="0" y="0" width="24" height="24"></rect>
    </g>
</svg>