<svg width="24" height="24" viewBox="0 0 24 24" fill="none" xmlns="http://www.w3.org/2000/svg">
<g id="layers_grid_check">
<path id="Shape" fill-rule="evenodd" clip-rule="evenodd" d="M8.66667 17.8333C8.55161 17.8333 8.45833 17.7401 8.45833 17.625V14.5C8.45833 14.3849 8.55161 14.2917 8.66667 14.2917H10.1875C10.2733 14.2915 10.3502 14.239 10.3817 14.1592C10.4902 13.8816 10.6171 13.6115 10.7617 13.3508C10.7988 13.2869 10.7988 13.2081 10.7617 13.1442C10.7241 13.0809 10.6561 13.0419 10.5825 13.0417H8.66667C8.55161 13.0417 8.45833 12.9484 8.45833 12.8333V8.66667C8.45833 8.55161 8.55161 8.45833 8.66667 8.45833H12C12.1151 8.45833 12.2083 8.55161 12.2083 8.66667V11.125C12.2083 11.2039 12.2529 11.276 12.3235 11.3113C12.3941 11.3466 12.4785 11.339 12.5417 11.2917C12.7978 11.0942 13.0679 10.9157 13.35 10.7575C13.4159 10.7208 13.4568 10.6513 13.4567 10.5758V8.66667C13.4567 8.61112 13.4788 8.55788 13.5183 8.51876C13.5577 8.47964 13.6111 8.45789 13.6667 8.45833H16.7917C16.9067 8.45833 17 8.55161 17 8.66667V9.745C17.0004 9.85279 17.0827 9.94262 17.19 9.9525C17.5999 9.98826 18.0055 10.0622 18.4017 10.1733C18.4644 10.1911 18.5318 10.1784 18.5838 10.1391C18.6359 10.0999 18.6665 10.0385 18.6667 9.97333V4.5C18.6667 3.11929 17.5474 2 16.1667 2H4.5C3.11929 2 2 3.11929 2 4.5V17C2 18.3807 3.11929 19.5 4.5 19.5H10.2725C10.3425 19.4998 10.4078 19.4645 10.4462 19.406C10.4846 19.3474 10.4911 19.2735 10.4633 19.2092C10.2938 18.8187 10.1626 18.4126 10.0717 17.9967C10.0519 17.9 9.96703 17.8304 9.86833 17.83L8.66667 17.8333ZM7.20833 12.8333C7.20833 12.9484 7.11506 13.0417 7 13.0417H3.875C3.75994 13.0417 3.66667 12.9484 3.66667 12.8333V8.66667C3.66667 8.55161 3.75994 8.45833 3.875 8.45833H7C7.11506 8.45833 7.20833 8.55161 7.20833 8.66667V12.8333ZM8.45833 7C8.45833 7.11506 8.55161 7.20833 8.66667 7.20833H12C12.1151 7.20833 12.2083 7.11506 12.2083 7V3.875C12.2083 3.75994 12.1151 3.66667 12 3.66667H8.66667C8.55161 3.66667 8.45833 3.75994 8.45833 3.875V7ZM17 4.5V7C17 7.11506 16.9067 7.20833 16.7917 7.20833H13.6667C13.5516 7.20833 13.4583 7.11506 13.4583 7V3.875C13.4583 3.75994 13.5516 3.66667 13.6667 3.66667H16.1667C16.6269 3.66667 17 4.03976 17 4.5ZM4.5 3.66667C4.03976 3.66667 3.66667 4.03976 3.66667 4.5V7C3.66667 7.11506 3.75994 7.20833 3.875 7.20833H7C7.11506 7.20833 7.20833 7.11506 7.20833 7V3.875C7.20833 3.75994 7.11506 3.66667 7 3.66667H4.5ZM3.66667 17V14.5C3.66667 14.3849 3.75994 14.2917 3.875 14.2917H7C7.11506 14.2917 7.20833 14.3849 7.20833 14.5V17.625C7.20833 17.7401 7.11506 17.8333 7 17.8333H4.5C4.03976 17.8333 3.66667 17.4602 3.66667 17ZM16.5833 11.1667C13.5918 11.1667 11.1667 13.5918 11.1667 16.5833C11.1667 19.5749 13.5918 22 16.5833 22C19.5749 22 22 19.5749 22 16.5833C21.9963 13.5933 19.5734 11.1703 16.5833 11.1667ZM16.89 18.7325C16.6724 19.0223 16.3397 19.2034 15.9782 19.2288C15.6166 19.2542 15.2619 19.1215 15.0058 18.865L13.7558 17.615C13.5191 17.3697 13.5227 16.9798 13.7639 16.7389C14.0051 16.4979 14.3949 16.4947 14.64 16.7317L15.7233 17.815C15.7661 17.8577 15.8253 17.8798 15.8856 17.8755C15.9458 17.8712 16.0013 17.8409 16.0375 17.7925L18.3142 14.7567C18.5213 14.4805 18.913 14.4246 19.1892 14.6317C19.4653 14.8388 19.5213 15.2305 19.3142 15.5067L16.89 18.7325Z" fill="#5A5A5A"/>
</g>
</svg>
