<svg width="24" height="24" viewBox="0 0 24 24" fill="none" xmlns="http://www.w3.org/2000/svg">
<g id="layers_stacked">
<path id="Shape" fill-rule="evenodd" clip-rule="evenodd" d="M2.80553 8.10035L10.9855 11.6609C11.6323 11.9412 12.3664 11.9412 13.0133 11.6609L21.1932 8.10035C21.6574 7.89844 21.9576 7.44045 21.9576 6.93427C21.9576 6.42808 21.6574 5.9701 21.1932 5.76819L13.0167 2.21019C12.3698 1.92998 11.6358 1.92998 10.9889 2.21019L2.80723 5.76565C2.34253 5.96732 2.04186 6.42558 2.04186 6.93215C2.04186 7.43872 2.34253 7.89698 2.80723 8.09865L2.80553 8.10035ZM21.1924 10.8538L20.1378 10.3944C19.9214 10.3006 19.6759 10.3006 19.4596 10.3944L11.9994 13.6387L4.53918 10.3944C4.32283 10.3006 4.07733 10.3006 3.86098 10.3944L2.80638 10.853C2.34168 11.0547 2.04102 11.5129 2.04102 12.0195C2.04102 12.5261 2.34168 12.9843 2.80638 13.186L10.9821 16.7415C11.6289 17.0218 12.363 17.0218 13.0099 16.7415L21.1898 13.1868C21.6545 12.9852 21.9552 12.5269 21.9552 12.0203C21.9552 11.5138 21.6545 11.0555 21.1898 10.8538H21.1924ZM20.1378 15.4427L21.1924 15.8996L21.1864 15.9013C21.6516 16.1028 21.9528 16.5613 21.9528 17.0683C21.9528 17.5752 21.6516 18.0337 21.1864 18.2352L13.0099 21.7898C12.363 22.0701 11.6289 22.0701 10.9821 21.7898L2.80638 18.2335C2.34168 18.0318 2.04102 17.5736 2.04102 17.067C2.04102 16.5604 2.34168 16.1022 2.80638 15.9005L3.86098 15.4427C4.0772 15.3483 4.32296 15.3483 4.53918 15.4427L11.9994 18.687L19.4596 15.4427C19.6758 15.3483 19.9215 15.3483 20.1378 15.4427Z" fill="#5A5A5A"/>
</g>
</svg>
