<svg width="24" height="24" viewBox="0 0 24 24" fill="none" xmlns="http://www.w3.org/2000/svg">
<g id="layers_1_alternate">
<path id="Shape" fill-rule="evenodd" clip-rule="evenodd" d="M8.66667 5.66666C8.66667 4.56209 9.5621 3.66666 10.6667 3.66666H20C21.1046 3.66666 22 4.56209 22 5.66666V11.6667C22 12.7712 21.1046 13.6667 20 13.6667H10.6667C9.5621 13.6667 8.66667 12.7712 8.66667 11.6667V5.66666ZM17.8333 14.5C17.4373 14.4999 17.0959 14.7786 17.0167 15.1667C16.9972 15.2638 16.9116 15.3337 16.8125 15.3333H7.20833C7.09327 15.3333 7 15.24 7 15.125V8.85416C6.99998 8.75514 7.06965 8.66979 7.16667 8.64999C7.58623 8.56479 7.87298 8.17553 7.82995 7.74957C7.78693 7.32361 7.42813 6.99956 7 6.99999C6.07953 6.99999 5.33333 7.74618 5.33333 8.66666V15.3333C5.33333 16.2538 6.07953 17 7 17H17C17.9205 17 18.6667 16.2538 18.6667 15.3333C18.6667 14.8731 18.2936 14.5 17.8333 14.5ZM13.6833 18.5C13.7625 18.1119 14.1039 17.8332 14.5 17.8333C14.9602 17.8333 15.3333 18.2064 15.3333 18.6667C15.3333 19.5871 14.5871 20.3333 13.6667 20.3333H3.66667C2.74619 20.3333 2 19.5871 2 18.6667V12C2 11.0795 2.74619 10.3333 3.66667 10.3333C4.09479 10.3329 4.45359 10.6569 4.49662 11.0829C4.53964 11.5089 4.2529 11.8981 3.83333 11.9833C3.73632 12.0031 3.66665 12.0885 3.66667 12.1875V18.4583C3.66667 18.5734 3.75994 18.6667 3.875 18.6667H13.4792C13.5783 18.667 13.6638 18.5972 13.6833 18.5Z" fill="#5A5A5A"/>
</g>
</svg>
