<svg width="24" height="24" viewBox="0 0 24 24" fill="none" xmlns="http://www.w3.org/2000/svg">
<g id="magic_wand_1">
<path id="Shape" fill-rule="evenodd" clip-rule="evenodd" d="M21.2158 11.1896L18.9905 8.96519C18.9638 8.91815 18.9491 8.86517 18.948 8.81106L20.1094 5.32447C20.2835 4.91387 20.1911 4.4387 19.8759 4.12325C19.5606 3.8078 19.0855 3.71514 18.6748 3.88901L15.2007 5.04871C15.1465 5.05102 15.0925 5.04045 15.0432 5.01788L12.8096 2.78346C12.5175 2.41007 12.0048 2.29046 11.5775 2.49605C11.1503 2.70164 10.9239 3.17696 11.0334 3.63824L11.4142 7.04819C11.4063 7.08029 11.3939 7.11113 11.3775 7.13983L7.80178 9.12681C7.37143 9.30782 7.11707 9.75608 7.18242 10.2183C7.24776 10.6806 7.61638 11.0408 8.08004 11.0955L10.4378 11.6387C10.5118 11.6552 10.571 11.7108 10.592 11.7837C10.613 11.8566 10.5925 11.9352 10.5386 11.9886L1.90664 20.6197C1.64353 20.8828 1.54077 21.2663 1.63708 21.6257C1.73338 21.9851 2.01413 22.2659 2.37355 22.3622C2.73298 22.4585 3.11648 22.3557 3.37959 22.0926L12.0107 13.4615C12.0643 13.4081 12.1426 13.388 12.2153 13.409C12.288 13.4299 12.3436 13.4886 12.3606 13.5623L12.9046 15.9209C12.9593 16.3845 13.3195 16.7532 13.7817 16.8185C14.244 16.8838 14.6923 16.6295 14.8733 16.1991L16.8478 12.6392C16.8726 12.6175 16.9007 12.5998 16.9311 12.5867L20.3618 12.9666C20.8228 13.0744 21.2968 12.8475 21.5019 12.4208C21.7069 11.9941 21.588 11.4822 21.2158 11.1896Z" fill="#5A5A5A"/>
</g>
</svg>
