<?xml version="1.0" encoding="UTF-8"?>
<svg width="24px" height="24px" viewBox="0 0 24 24" version="1.1" xmlns="http://www.w3.org/2000/svg" xmlns:xlink="http://www.w3.org/1999/xlink">
    <title>13. Design/magic_wand_1</title>
    <g id="13.-Design/magic_wand_1" stroke="none" stroke-width="1" fill="none" fill-rule="evenodd">
        <path d="M21.2165665,11.1896085 L18.9913124,8.96518753 C18.9645335,8.91815276 18.9499283,8.86517347 18.9488235,8.81106098 L20.1101879,5.32446849 C20.2842938,4.91387177 20.1919092,4.43870266 19.8766418,4.12325218 C19.5613744,3.8078017 19.086259,3.71514126 18.6755613,3.88900878 L15.2014655,5.04870693 C15.147281,5.05101564 15.0933205,5.04045196 15.0440065,5.01788162 L12.8104212,2.78346321 C12.5182699,2.41006547 12.0055426,2.29046111 11.57833,2.49605216 C11.1511174,2.70164321 10.924688,3.17695804 11.0342169,3.63824072 L11.4149511,7.04818649 C11.4070395,7.08028573 11.3947023,7.11112875 11.378294,7.13982931 L7.80255802,9.12681212 C7.37220835,9.30781832 7.11785633,9.75607757 7.18319642,10.2183489 C7.2485365,10.6806202 7.61716138,11.0408243 8.08081893,11.0954664 L10.4385386,11.6386583 C10.5126007,11.6551661 10.5717404,11.7107933 10.5927465,11.7837072 C10.6137527,11.8566212 10.5932731,11.9351863 10.5393457,11.9885673 L1.90742578,20.619654 C1.64430861,20.8827712 1.54154966,21.2662728 1.63785723,21.6256976 C1.73416479,21.9851223 2.01490747,22.265865 2.3743322,22.3621725 C2.73375693,22.4584801 3.11725856,22.3557211 3.38037572,22.092604 L12.0114625,13.4615172 C12.0650657,13.4081477 12.1433901,13.3880349 12.2160751,13.4089751 C12.2887601,13.4299153 12.3443786,13.4886164 12.3613714,13.5623243 L12.9053965,15.9208771 C12.9600386,16.3845346 13.3202427,16.7531595 13.782514,16.8184996 C14.2447853,16.8838397 14.6930446,16.6294876 14.8740507,16.199138 L16.8485368,12.6392312 C16.8734163,12.6175196 16.9015232,12.5998123 16.9318485,12.5867449 L20.3626222,12.966646 C20.8236076,13.0744433 21.2975931,12.8474895 21.5026458,12.4207798 C21.7076985,11.99407 21.5887559,11.4821883 21.2165665,11.1896085 Z" id="ðŸ–-Color" fill="#5A5A5A"></path>
        <rect id="_Transparent_Rectangle_" x="0" y="0" width="24" height="24"></rect>
    </g>
</svg>