<svg width="24" height="24" viewBox="0 0 24 24" fill="none" xmlns="http://www.w3.org/2000/svg">
<g id="magnet">
<path id="Shape" fill-rule="evenodd" clip-rule="evenodd" d="M21.536 13.6941C22.1885 13.0414 22.1885 11.9834 21.536 11.3307L20.3568 10.1481C19.7042 9.49617 18.6468 9.49617 17.9942 10.1481L15.5815 12.5608L12.5779 15.5644C11.4358 16.707 9.5837 16.7074 8.44112 15.5652C7.29854 14.4231 7.29817 12.571 8.44029 11.4284L11.4397 8.42486L13.8532 6.0113C14.5057 5.3586 14.5057 4.30058 13.8532 3.64789L12.6682 2.46534C12.0156 1.8134 10.9582 1.8134 10.3056 2.46534L7.8954 4.8789L4.3018 8.4725C1.24784 11.5804 1.26942 16.569 4.35014 19.6504C7.43087 22.7318 12.4194 22.7545 15.528 19.7012L19.1216 16.1076L21.536 13.6941ZM12.5245 4.68167C12.6058 4.7635 12.6058 4.89569 12.5245 4.97752L10.9968 6.50354C10.9576 6.54284 10.9043 6.56492 10.8488 6.56492C10.7933 6.56492 10.7401 6.54284 10.7009 6.50354L9.81505 5.61768C9.73412 5.53566 9.73412 5.40384 9.81505 5.32183L11.3419 3.79581C11.4234 3.71452 11.5554 3.71452 11.6369 3.79581L12.5245 4.68167ZM18.6795 14.1863C18.5975 14.2672 18.4657 14.2672 18.3837 14.1863L17.4978 13.2996C17.4586 13.2606 17.4365 13.2075 17.4365 13.1521C17.4365 13.0967 17.4586 13.0437 17.4978 13.0046L19.0238 11.4777C19.1057 11.3964 19.2379 11.3964 19.3197 11.4777L20.2064 12.3644C20.2878 12.4463 20.2878 12.5785 20.2064 12.6603L18.6795 14.1863Z" fill="#5A5A5A"/>
</g>
</svg>
