<?xml version="1.0" encoding="UTF-8"?>
<svg width="24px" height="24px" viewBox="0 0 24 24" version="1.1" xmlns="http://www.w3.org/2000/svg" xmlns:xlink="http://www.w3.org/1999/xlink">
    <title>13. Design/magnet</title>
    <g id="13.-Design/magnet" stroke="none" stroke-width="1" fill="none" fill-rule="evenodd">
        <path d="M21.5363238,13.6940714 C22.1888235,13.0413746 22.1888235,11.983353 21.5363238,11.3306561 L20.3571233,10.1481128 C19.7045223,9.49616981 18.6471448,9.49616981 17.9945437,10.1481128 L17.9945437,10.1481128 L15.581821,12.5608355 L12.5782444,15.5644121 C11.436126,16.706992 9.58401199,16.7073662 8.44143201,15.5652478 C7.29885204,14.4231293 7.29847785,12.5710153 8.44059625,11.4284353 L11.4399942,8.42485878 L11.4399942,8.42485878 L13.8535527,6.01130031 C14.5060524,5.35860349 14.5060524,4.30058186 13.8535527,3.64788503 L12.6685022,2.46534167 C12.0159011,1.81339871 10.9585236,1.81339871 10.3059226,2.46534167 L10.3059226,2.46534167 L7.89570701,4.87890014 L4.30211235,8.4724948 C1.24815101,11.5804385 1.26972354,16.5689758 4.35045025,19.6503906 C7.43117697,22.7318053 12.4197094,22.7544918 15.5283349,19.7012245 L19.1219296,16.1076299 L19.1219296,16.1076299 L21.5363238,13.6940714 Z M12.5247584,4.68167029 C12.6061393,4.76349552 12.6061393,4.89568983 12.5247584,4.97751506 L10.9970628,6.50353921 C10.9578657,6.54283546 10.9046436,6.56492023 10.8491404,6.56492023 C10.7936372,6.56492023 10.740415,6.54283546 10.701218,6.50353921 L9.81535514,5.61767634 C9.7344284,5.53566422 9.7344284,5.40384369 9.81535514,5.32183157 L11.342215,3.79580742 C11.423754,3.71452305 11.555685,3.71452305 11.6372241,3.79580742 L12.5247584,4.68167029 Z M18.6798339,14.1863103 C18.5978218,14.2672371 18.4660012,14.2672371 18.3839891,14.1863103 L17.4981262,13.2996117 C17.4588805,13.2605576 17.4368163,13.2074737 17.4368163,13.1521072 C17.4368163,13.0967407 17.4588805,13.0436568 17.4981262,13.0046027 L19.0241504,11.4777428 C19.1059756,11.3963619 19.2381699,11.3963619 19.3199952,11.4777428 L20.2066938,12.3644414 C20.2880747,12.4462666 20.2880747,12.5784609 20.2066938,12.6602862 L18.6798339,14.1863103 Z" id="ðŸ–-Color" fill="#5A5A5A"></path>
        <rect id="_Transparent_Rectangle_" x="0" y="0" width="24" height="24"></rect>
    </g>
</svg>