<?xml version="1.0" encoding="UTF-8"?>
<svg width="24px" height="24px" viewBox="0 0 24 24" version="1.1" xmlns="http://www.w3.org/2000/svg" xmlns:xlink="http://www.w3.org/1999/xlink">
    <title>13. Design/painting_palette</title>
    <g id="13.-Design/painting_palette" stroke="none" stroke-width="1" fill="none" fill-rule="evenodd">
        <path d="M21.9133256,11.3412071 C21.3979987,7.06161412 18.4478261,3.52697631 14.4409471,2.38845922 C12.8785323,1.87897651 11.2044337,1.87055111 9.63733461,2.36428361 C6.04654716,3.38023199 3.25432146,6.31402344 2.31881144,10.0538557 C1.45837391,13.5822975 2.45736187,17.3201518 4.94599493,19.883833 C5.62601261,20.5949306 6.68935651,20.7232061 7.50830969,20.1929355 C7.82992717,19.9823787 8.04149191,19.6310365 8.08294732,19.2386439 C8.12440274,18.8462512 7.99122247,18.4556521 7.72121218,18.1777254 L7.04840704,17.4783594 C6.72374576,17.1411961 6.72374576,16.5946542 7.04840704,16.2574909 C7.19845056,16.0445052 7.42707843,15.9059262 7.67948811,15.8749715 C7.93189778,15.8440168 8.185334,15.923477 8.37904762,16.0943055 C9.55167463,17.3108569 13.0529226,20.9777795 13.0545859,20.9786429 C13.6733715,21.6283167 14.5156418,21.9957991 15.3956817,22.0000664 C15.9601921,22.0009552 16.5143562,21.8427991 16.9991036,21.5424528 C20.4518292,19.4654191 22.3836592,15.455207 21.9133256,11.3412071 Z M14.0600512,17.9256083 C13.2500374,17.0813219 13.2500374,15.7159965 14.0600512,14.8717102 C14.8830708,14.0574139 16.1769157,14.0574139 16.9999353,14.8717102 C17.8122211,15.714544 17.8125935,17.0814342 17.0007669,17.9247448 C16.1889404,18.7680555 14.8723371,18.7684421 14.0600512,17.9256083 L14.0600512,17.9256083 Z M13.8671083,7.85560163 C13.8671083,6.9019 14.6117934,6.12877207 15.5304091,6.12877207 L15.5304091,6.12877207 C16.4490247,6.12877207 17.1937098,6.9019 17.1937098,7.85560163 C17.1937098,8.80930327 16.4490247,9.5824312 15.5304091,9.5824312 C14.6117934,9.5824312 13.8671083,8.80930327 13.8671083,7.85560163 L13.8671083,7.85560163 Z M16.9442147,13.0447245 L16.9442147,13.0447245 C16.5873611,12.6743529 16.4805633,12.1172671 16.6736267,11.6332651 C16.8666902,11.1492631 17.3215888,10.8336744 17.8261799,10.8336744 C18.3307709,10.8336744 18.7856696,11.1492631 18.9787331,11.6332651 C19.1717965,12.1172671 19.0649987,12.6743529 18.7081451,13.0447245 C18.4735562,13.2877444 18.1554675,13.4238682 17.8240697,13.4230618 C17.4926719,13.4222483 17.175204,13.2845713 16.9417197,13.0404074 L16.9442147,13.0447245 Z M11.708144,5.71433297 C12.1841926,6.20806563 12.3268052,6.95094245 12.0694562,7.59642832 C11.8121072,8.24191418 11.2055013,8.66283123 10.5326062,8.66283123 C9.85971117,8.66283123 9.25310522,8.24191418 8.99575624,7.59642832 C8.73840726,6.95094245 8.88101983,6.20806563 9.35706844,5.71433297 C10.015103,5.06274174 11.0501095,5.06274174 11.708144,5.71433297 L11.708144,5.71433297 Z" id="ðŸ–-Color" fill="#5A5A5A"></path>
        <rect id="_Transparent_Rectangle_" x="0" y="0" width="24" height="24"></rect>
    </g>
</svg>