<svg width="24" height="24" viewBox="0 0 24 24" fill="none" xmlns="http://www.w3.org/2000/svg">
<g id="painting_palette">
<path id="Shape" fill-rule="evenodd" clip-rule="evenodd" d="M21.9135 11.3412C21.3982 7.06161 18.448 3.52697 14.4411 2.38845C12.8787 1.87897 11.2046 1.87055 9.63752 2.36428C6.04673 3.38023 3.2545 6.31402 2.31899 10.0539C1.45855 13.5823 2.45754 17.3201 4.94618 19.8838C5.62619 20.5949 6.68954 20.7232 7.50849 20.1929C7.83011 19.9824 8.04167 19.631 8.08313 19.2386C8.12458 18.8462 7.9914 18.4556 7.72139 18.1777L7.04859 17.4784C6.72393 17.1412 6.72393 16.5946 7.04859 16.2575C7.19863 16.0445 7.42726 15.9059 7.67967 15.875C7.93208 15.844 8.18551 15.9235 8.37923 16.0943C9.55186 17.3109 13.0531 20.9778 13.0548 20.9786C13.6736 21.6283 14.5158 21.9958 15.3959 22.0001C15.9604 22.0009 16.5145 21.8428 16.9993 21.5424C20.452 19.4654 22.3838 15.4552 21.9135 11.3412ZM14.0602 17.9256C13.2502 17.0813 13.2502 15.716 14.0602 14.8717C14.8833 14.0574 16.1771 14.0574 17.0001 14.8717C17.8124 15.7145 17.8128 17.0814 17.0009 17.9247C16.1891 18.768 14.8725 18.7684 14.0602 17.9256ZM13.8673 7.8556C13.8673 6.90189 14.612 6.12877 15.5306 6.12877C16.4492 6.12877 17.1939 6.90189 17.1939 7.8556C17.1939 8.8093 16.4492 9.58243 15.5306 9.58243C14.612 9.58243 13.8673 8.8093 13.8673 7.8556ZM16.9444 13.0447C16.5875 12.6743 16.4807 12.1173 16.6738 11.6333C16.8669 11.1493 17.3218 10.8337 17.8264 10.8337C18.331 10.8337 18.7859 11.1493 18.9789 11.6333C19.172 12.1173 19.0652 12.6743 18.7083 13.0447C18.4737 13.2877 18.1556 13.4239 17.8243 13.4231C17.4929 13.4222 17.1754 13.2846 16.9419 13.0404L16.9444 13.0447ZM11.7083 5.71433C12.1844 6.20806 12.327 6.95094 12.0696 7.59642C11.8123 8.24191 11.2057 8.66283 10.5328 8.66283C9.85989 8.66283 9.25329 8.24191 8.99594 7.59642C8.73859 6.95094 8.8812 6.20806 9.35725 5.71433C10.0153 5.06274 11.0503 5.06274 11.7083 5.71433Z" fill="#5A5A5A"/>
</g>
</svg>
