<?xml version="1.0" encoding="UTF-8"?>
<svg width="24px" height="24px" viewBox="0 0 24 24" version="1.1" xmlns="http://www.w3.org/2000/svg" xmlns:xlink="http://www.w3.org/1999/xlink">
    <title>13. Design/palette_sample_1</title>
    <g id="13.-Design/palette_sample_1" stroke="none" stroke-width="1" fill="none" fill-rule="evenodd">
        <path d="M21.1256,15.5716667 L20.0472,11.5591667 C19.7496033,10.4511664 18.6460965,9.80423063 17.5824,10.1141667 L16.9792,10.29 L17.4008,9.74583333 C18.0939064,8.8501744 17.9588858,7.53884211 17.0992,6.81666667 L13.9856,4.20166667 C13.572741,3.85459715 13.0444153,3.69262177 12.5168895,3.75138578 C11.9893637,3.8101498 11.5058668,4.08483769 11.1728,4.515 L10.356,5.57083333 C10.3023977,5.63885579 10.2136545,5.66465367 10.1339839,5.63537397 C10.0543133,5.60609427 10.0007579,5.52800032 10,5.44 L10,4.08333333 C10,2.9327401 9.1045695,2 8,2 L4,2 C2.8954305,2 2,2.9327401 2,4.08333333 L2,17.6725 C1.97385137,19.8564759 3.52798028,21.7118587 5.6088,21.9808333 C5.7416,21.9933333 5.8744,22 6.0088,22 C6.8,22 6.4,22 19.7392,18.1391667 C20.802557,17.8288042 21.4231949,16.6794331 21.1256,15.5716667 Z M12.4184,5.56083333 C12.5569683,5.38344309 12.8068994,5.355549 12.9784,5.49833333 L16.0928,8.11416667 C16.262842,8.25875492 16.2892605,8.51907189 16.152,8.6975 L10.3536,16.1875 C10.3002634,16.2541854 10.2128244,16.2794375 10.1341384,16.2508797 C10.0554523,16.2223219 10.0020083,16.1459386 10,16.0591667 L10,8.75833333 C10,8.71065603 10.0158806,8.66445469 10.0448,8.6275 L12.4184,5.56083333 Z M6,9.5 C6.8836556,9.5 7.6,10.2461921 7.6,11.1666667 C7.6,12.0871412 6.8836556,12.8333333 6,12.8333333 C5.1163444,12.8333333 4.4,12.0871412 4.4,11.1666667 C4.4,10.2461921 5.1163444,9.5 6,9.5 Z M4.4,5.75 C4.4,4.82952542 5.1163444,4.08333333 6,4.08333333 C6.8836556,4.08333333 7.6,4.82952542 7.6,5.75 C7.6,6.67047458 6.8836556,7.41666667 6,7.41666667 C5.57565362,7.41666667 5.16868736,7.24107193 4.86862915,6.9285113 C4.56857094,6.61595067 4.4,6.19202748 4.4,5.75 Z M6,14.9166667 C6.8836556,14.9166667 7.6,15.6628588 7.6,16.5833333 C7.6,17.5038079 6.8836556,18.25 6,18.25 C5.1163444,18.25 4.4,17.5038079 4.4,16.5833333 C4.4,15.6628588 5.1163444,14.9166667 6,14.9166667 Z M19.3072,16.5341667 L10.6576,19.0566667 C10.5731639,19.0822708 10.4825787,19.047418 10.4343936,18.9707877 C10.3862084,18.8941574 10.3917304,18.7937315 10.448,18.7233333 L15.208,12.5758333 C15.2342325,12.5422662 15.2696798,12.5178438 15.3096,12.5058333 L18.0136,11.7175 C18.2263362,11.6556315 18.4469488,11.7850832 18.5064,12.0066667 L19.5848,16.0191667 C19.613809,16.125812 19.600829,16.2401023 19.5487316,16.3367527 C19.4966342,16.4334032 19.4097138,16.5044469 19.3072,16.5341667 Z" id="ðŸ–-Color" fill="#5A5A5A"></path>
        <rect id="_Transparent_Rectangle_" x="1.99967489" y="2" width="24" height="24"></rect>
    </g>
</svg>