<svg width="24" height="24" viewBox="0 0 24 24" fill="none" xmlns="http://www.w3.org/2000/svg">
<g id="palette_sample_1">
<path id="Shape" fill-rule="evenodd" clip-rule="evenodd" d="M21.1259 15.5717L20.0475 11.5592C19.7499 10.4512 18.6464 9.80423 17.5827 10.1142L16.9795 10.29L17.4011 9.74583C18.0942 8.85017 17.9592 7.53884 17.0995 6.81667L13.9859 4.20167C13.5731 3.8546 13.0447 3.69262 12.5172 3.75139C11.9897 3.81015 11.5062 4.08484 11.1731 4.515L10.3563 5.57083C10.3027 5.63886 10.214 5.66465 10.1343 5.63537C10.0546 5.60609 10.0011 5.528 10.0003 5.44V4.08333C10.0003 2.93274 9.10489 2 8.00033 2H4.00033C2.89576 2 2.00033 2.93274 2.00033 4.08333V17.6725C1.97418 19.8565 3.52831 21.7119 5.60913 21.9808C5.74193 21.9933 5.87473 22 6.00913 22C6.80033 22 6.40032 22 19.7395 18.1392C20.8029 17.8288 21.4235 16.6794 21.1259 15.5717ZM12.4187 5.56083C12.5573 5.38344 12.8072 5.35555 12.9787 5.49833L16.0931 8.11417C16.2632 8.25875 16.2896 8.51907 16.1523 8.6975L10.3539 16.1875C10.3006 16.2542 10.2132 16.2794 10.1345 16.2509C10.0558 16.2223 10.0023 16.1459 10.0003 16.0592V8.75833C10.0004 8.71066 10.0162 8.66445 10.0451 8.6275L12.4187 5.56083ZM6.00033 9.5C6.88398 9.5 7.60033 10.2462 7.60033 11.1667C7.60033 12.0871 6.88398 12.8333 6.00033 12.8333C5.11667 12.8333 4.40033 12.0871 4.40033 11.1667C4.40033 10.2462 5.11667 9.5 6.00033 9.5ZM4.40033 5.75C4.40033 4.82953 5.11667 4.08333 6.00033 4.08333C6.88398 4.08333 7.60033 4.82953 7.60033 5.75C7.60033 6.67047 6.88398 7.41667 6.00033 7.41667C5.57598 7.41667 5.16901 7.24107 4.86895 6.92851C4.5689 6.61595 4.40033 6.19203 4.40033 5.75ZM6.00033 14.9167C6.88398 14.9167 7.60033 15.6629 7.60033 16.5833C7.60033 17.5038 6.88398 18.25 6.00033 18.25C5.11667 18.25 4.40033 17.5038 4.40033 16.5833C4.40033 15.6629 5.11667 14.9167 6.00033 14.9167ZM19.3075 16.5342L10.6579 19.0567C10.5735 19.0823 10.4829 19.0474 10.4347 18.9708C10.3865 18.8942 10.3921 18.7937 10.4483 18.7233L15.2083 12.5758C15.2346 12.5423 15.27 12.5178 15.3099 12.5058L18.0139 11.7175C18.2267 11.6556 18.4473 11.7851 18.5067 12.0067L19.5851 16.0192C19.6141 16.1258 19.6012 16.2401 19.5491 16.3368C19.497 16.4334 19.41 16.5044 19.3075 16.5342Z" fill="#5A5A5A"/>
</g>
</svg>
