<svg width="24" height="24" viewBox="0 0 24 24" fill="none" xmlns="http://www.w3.org/2000/svg">
<g id="path_corner">
<path id="Shape" fill-rule="evenodd" clip-rule="evenodd" d="M21.9991 10.4C21.9991 9.95817 21.626 9.59999 21.1657 9.59999H18.6657C18.2055 9.59999 17.8324 9.95817 17.8324 10.4V10.7408C17.8327 10.8457 17.7481 10.9328 17.6391 10.94C16.2311 11.0089 14.8537 11.3602 13.5957 11.9712C13.554 11.9929 13.5034 11.9919 13.4626 11.9686C13.4218 11.9453 13.3967 11.9032 13.3966 11.8576C13.3971 11.5353 13.3293 11.2163 13.1974 10.92C13.1642 10.846 13.1806 10.7602 13.2391 10.7024L15.7199 8.23999C15.7846 8.17422 15.8874 8.15876 15.9699 8.20239C17.2623 8.85116 18.8538 8.50867 19.7341 7.39235C20.6144 6.27603 20.5258 4.71257 19.5245 3.69451C18.5233 2.67645 16.9025 2.50173 15.691 3.28127C14.4796 4.0608 14.032 5.56645 14.6324 6.84239C14.6675 6.91717 14.6516 7.0049 14.5924 7.06399L12.0491 9.58239C11.9901 9.64084 11.9002 9.65918 11.8216 9.62879C11.5275 9.51538 11.2135 9.45726 10.8966 9.45759C10.0559 9.45772 9.27163 9.86344 8.8092 10.5374C8.34677 11.2113 8.26813 12.0633 8.59991 12.8048C8.63302 12.879 8.61661 12.9651 8.55824 13.0232L6.61241 14.96C6.54752 15.0253 6.44526 15.041 6.36241 14.9984C5.07114 14.3515 3.482 14.6945 2.60353 15.8099C1.72506 16.9252 1.81425 18.4865 2.81448 19.5029C3.81472 20.5194 5.43341 20.6936 6.64325 19.915C7.85309 19.1364 8.30017 17.6328 7.70074 16.3584C7.66559 16.2839 7.68145 16.1963 7.74074 16.1376L9.75157 14.1376C9.81018 14.0792 9.8997 14.0606 9.97824 14.0904C10.27 14.2013 10.5811 14.258 10.8949 14.2576H10.9157C10.9861 14.2574 11.0519 14.2913 11.0906 14.3478C11.1292 14.4042 11.1356 14.4756 11.1074 14.5376C10.6809 15.5786 10.4643 16.6878 10.4691 17.8064C10.4654 17.9156 10.3712 18.0018 10.2574 18H9.91574C9.4555 18 9.08241 18.3582 9.08241 18.8V21.2C9.08241 21.6418 9.4555 22 9.91574 22H12.4157C12.876 22 13.2491 21.6418 13.2491 21.2V18.8C13.2491 18.3582 12.876 18 12.4157 18H12.3407C12.2842 18.0002 12.2301 17.9784 12.1908 17.9394C12.1514 17.9005 12.1304 17.8478 12.1324 17.7936C12.0422 16.4448 12.4974 15.1146 13.4032 14.08C14.5938 13.1266 16.085 12.5873 17.6349 12.5496C17.6857 12.5453 17.7359 12.5619 17.7732 12.5952C17.8098 12.6273 17.8312 12.6724 17.8324 12.72V12.8C17.8324 13.2418 18.2055 13.6 18.6657 13.6H21.1657C21.626 13.6 21.9991 13.2418 21.9991 12.8V10.4ZM17.3482 4.39999C17.8812 4.39967 18.3619 4.70762 18.566 5.18022C18.7702 5.65282 18.6577 6.19696 18.281 6.55886C17.9042 6.92075 17.3375 7.02911 16.8451 6.83339C16.3527 6.63767 16.0316 6.17643 16.0316 5.66479C16.032 4.96676 16.6211 4.40088 17.3482 4.39999ZM4.98324 18.8C4.45029 18.8003 3.96962 18.4924 3.76544 18.0198C3.56125 17.5472 3.67376 17.003 4.0505 16.6411C4.42724 16.2792 4.99398 16.1709 5.4864 16.3666C5.97882 16.5623 6.29991 17.0236 6.29991 17.5352C6.29945 18.2332 5.71036 18.7991 4.98324 18.8ZM10.0666 11.8576C10.0666 11.4158 10.4397 11.0576 10.8999 11.0576C11.3601 11.0576 11.7332 11.4158 11.7332 11.8576C11.7332 12.2994 11.3601 12.6576 10.8999 12.6576C10.6783 12.6584 10.4655 12.5745 10.3085 12.4244C10.1515 12.2743 10.0632 12.0703 10.0632 11.8576H10.0666Z" fill="#5A5A5A"/>
</g>
</svg>
