<?xml version="1.0" encoding="UTF-8"?>
<svg width="24px" height="24px" viewBox="0 0 24 24" version="1.1" xmlns="http://www.w3.org/2000/svg" xmlns:xlink="http://www.w3.org/1999/xlink">
    <title>13. Design/pathfinder_divide</title>
    <g id="13.-Design/pathfinder_divide" stroke="none" stroke-width="1" fill="none" fill-rule="evenodd">
        <path d="M20.3333333,7 L17.2083333,7 C17.093274,7 17,6.90672599 17,6.79166667 L17,3.66666667 C17,2.74619208 16.2538079,2 15.3333333,2 L3.66666667,2 C2.74619208,2 2,2.74619208 2,3.66666667 L2,15.3333333 C2,16.2538079 2.74619208,17 3.66666667,17 L6.79166667,17 C6.90672599,17 7,17.093274 7,17.2083333 L7,20.3333333 C7,21.2538079 7.74619208,22 8.66666667,22 L20.3333333,22 C21.2538079,22 22,21.2538079 22,20.3333333 L22,8.66666667 C22,7.74619208 21.2538079,7 20.3333333,7 Z M3.66666667,4.08333333 C3.66666667,3.85321469 3.85321469,3.66666667 4.08333333,3.66666667 L14.9166667,3.66666667 C15.1467853,3.66666667 15.3333333,3.85321469 15.3333333,4.08333333 L15.3333333,14.9166667 C15.3333333,15.1467853 15.1467853,15.3333333 14.9166667,15.3333333 L4.08333333,15.3333333 C3.85321469,15.3333333 3.66666667,15.1467853 3.66666667,14.9166667 L3.66666667,4.08333333 Z" id="ðŸ–-Color" fill="#5A5A5A"></path>
        <rect id="_Transparent_Rectangle_" x="0" y="0" width="24" height="24"></rect>
    </g>
</svg>