<?xml version="1.0" encoding="UTF-8"?>
<svg width="24px" height="24px" viewBox="0 0 24 24" version="1.1" xmlns="http://www.w3.org/2000/svg" xmlns:xlink="http://www.w3.org/1999/xlink">
    <title>13. Design/path_corner</title>
    <g id="13.-Design/path_corner" stroke="none" stroke-width="1" fill="none" fill-rule="evenodd">
        <path d="M22,10.4 C22,9.9581722 21.626904,9.6 21.1666667,9.6 L18.6666667,9.6 C18.2064294,9.6 17.8333333,9.9581722 17.8333333,10.4 L17.8333333,10.7408 C17.8335883,10.8457157 17.7490325,10.9328373 17.64,10.94 C16.2320055,11.0089414 14.85466,11.3602156 13.5966667,11.9712 C13.5549011,11.992861 13.5043538,11.9918714 13.4635429,11.9685938 C13.4227319,11.9453162 13.3976554,11.9031717 13.3975,11.8576 C13.3979862,11.5353386 13.3302252,11.216346 13.1983333,10.92 C13.1651296,10.8460492 13.181572,10.7601805 13.24,10.7024 L15.7208333,8.24 C15.7854989,8.1742295 15.8883136,8.15876618 15.9708333,8.2024 C17.2632509,8.85116462 18.8547632,8.50867462 19.7350252,7.39235404 C20.6152873,6.27603346 20.5266877,4.71257704 19.5254724,3.69451888 C18.5242571,2.67646071 16.903435,2.50173873 15.6919577,3.28127226 C14.4804804,4.06080579 14.0328907,5.56646188 14.6333333,6.8424 C14.6683829,6.91717831 14.6525481,7.00490291 14.5933333,7.064 L12.05,9.5824 C11.9910541,9.64084504 11.9011058,9.65919055 11.8225,9.6288 C11.5284333,9.51538925 11.214409,9.45726929 10.8975,9.4576 C10.0568518,9.45772727 9.27255211,9.86344349 8.81012362,10.5373944 C8.34769513,11.2113454 8.26905751,12.0632883 8.60083333,12.8048 C8.63394674,12.879021 8.6175315,12.9650631 8.55916667,13.0232 L6.61333333,14.96 C6.54844783,15.025261 6.44619029,15.0409677 6.36333333,14.9984 C5.07206373,14.3514711 3.48292524,14.6945341 2.60445582,15.809866 C1.72598641,16.9251979 1.81517109,18.4865226 2.8154093,19.502954 C3.81564752,20.5193853 5.43433234,20.6935793 6.64417438,19.9149847 C7.85401641,19.1363902 8.30109183,17.6327748 7.70166667,16.3584 C7.66651823,16.283896 7.68238028,16.1963375 7.74166667,16.1376 L9.7525,14.1376 C9.81110411,14.0792127 9.90062995,14.0605703 9.97916667,14.0904 C10.2709504,14.2013097 10.5820103,14.258047 10.8958333,14.2576 L10.9166667,14.2576 C10.9870699,14.2573643 11.0528344,14.29128 11.0914985,14.3477632 C11.1301627,14.4042464 11.1364952,14.4756552 11.1083333,14.5376 C10.6818516,15.5785628 10.4652341,16.6878253 10.47,17.8064 C10.4663735,17.9156036 10.3721294,18.0018036 10.2583333,18 L9.91666667,18 C9.45642938,18 9.08333333,18.3581722 9.08333333,18.8 L9.08333333,21.2 C9.08333333,21.6418278 9.45642938,22 9.91666667,22 L12.4166667,22 C12.876904,22 13.25,21.6418278 13.25,21.2 L13.25,18.8 C13.25,18.3581722 12.876904,18 12.4166667,18 L12.3416667,18 C12.2851653,18.0002533 12.2309997,17.9783764 12.1916809,17.9394225 C12.152362,17.9004685 12.1312905,17.8478064 12.1333333,17.7936 C12.0431031,16.4448281 12.4983125,15.1146255 13.4041667,14.08 C14.5947437,13.1266042 16.0859239,12.5873126 17.6358333,12.5496 C17.6865889,12.5453197 17.7368565,12.5618898 17.7741667,12.5952 C17.8107312,12.6273558 17.8320914,12.6724109 17.8333333,12.72 L17.8333333,12.8 C17.8333333,13.2418278 18.2064294,13.6 18.6666667,13.6 L21.1666667,13.6 C21.626904,13.6 22,13.2418278 22,12.8 L22,10.4 Z M17.3491667,4.39999975 C17.8821214,4.39967638 18.3627854,4.70762975 18.5669719,5.18022741 C18.7711585,5.65282507 18.6586446,6.19696927 18.2819079,6.55886543 C17.9051711,6.92076159 17.3384256,7.02911922 16.8460072,6.83339917 C16.3535889,6.63767913 16.0325,6.17643663 16.0325,5.6648 C16.032959,4.96676514 16.6220475,4.40088233 17.3491667,4.39999975 L17.3491667,4.39999975 Z M4.98416667,18.8000003 C4.45121195,18.8003236 3.97054795,18.4923703 3.76636139,18.0197726 C3.56217483,17.5471749 3.67468875,17.0030307 4.05142547,16.6411346 C4.4281622,16.2792384 4.99490777,16.1708808 5.48732609,16.3666008 C5.97974442,16.5623209 6.30083333,17.0235634 6.30083333,17.5352 C6.30037429,18.2332349 5.71128588,18.7991177 4.98416667,18.8000003 Z M10.0675,11.8576 C10.0675,11.4157722 10.440596,11.0576 10.9008333,11.0576 C11.3610706,11.0576 11.7341667,11.4157722 11.7341667,11.8576 C11.7341667,12.2994278 11.3610706,12.6576064 10.9008333,12.6576064 C10.6792426,12.6584509 10.4664237,12.5745412 10.3094217,12.4244198 C10.1524197,12.2742984 10.0641667,12.0703288 10.0641667,11.8576 L10.0675,11.8576 Z" id="ðŸ–-Color" fill="#5A5A5A"></path>
        <rect id="_Transparent_Rectangle_" x="0" y="0" width="24" height="24"></rect>
    </g>
</svg>