<svg width="24" height="24" viewBox="0 0 24 24" fill="none" xmlns="http://www.w3.org/2000/svg">
<g id="pathfinder_outline">
<path id="Shape" fill-rule="evenodd" clip-rule="evenodd" d="M12.8333 2.83333C12.8333 2.3731 12.4602 2 12 2H4.5C3.11929 2 2 3.11929 2 4.5V12C2 12.4602 2.3731 12.8333 2.83333 12.8333C3.29357 12.8333 3.66667 12.4602 3.66667 12V4.5C3.66667 4.03976 4.03976 3.66667 4.5 3.66667H12C12.4602 3.66667 12.8333 3.29357 12.8333 2.83333ZM21.1667 11.1667C20.7064 11.1667 20.3333 11.5398 20.3333 12V19.5C20.3333 19.9602 19.9602 20.3333 19.5 20.3333H12C11.5398 20.3333 11.1667 20.7064 11.1667 21.1667C11.1667 21.6269 11.5398 22 12 22H19.5C20.8807 22 22 20.8807 22 19.5V12C22 11.5398 21.6269 11.1667 21.1667 11.1667ZM8.5 7C7.67157 7 7 7.67157 7 8.5V15.5C7 16.3284 7.67157 17 8.5 17H15.5C16.3284 17 17 16.3284 17 15.5V8.5C17 7.67157 16.3284 7 15.5 7H8.5Z" fill="#5A5A5A"/>
</g>
</svg>
