<svg width="24" height="24" viewBox="0 0 24 24" fill="none" xmlns="http://www.w3.org/2000/svg">
<g id="pathfinder_divide">
<path id="Shape" fill-rule="evenodd" clip-rule="evenodd" d="M20.3333 7H17.2083C17.0933 7 17 6.90673 17 6.79167V3.66667C17 2.74619 16.2538 2 15.3333 2H3.66667C2.74619 2 2 2.74619 2 3.66667V15.3333C2 16.2538 2.74619 17 3.66667 17H6.79167C6.90673 17 7 17.0933 7 17.2083V20.3333C7 21.2538 7.74619 22 8.66667 22H20.3333C21.2538 22 22 21.2538 22 20.3333V8.66667C22 7.74619 21.2538 7 20.3333 7ZM3.66667 4.08333C3.66667 3.85321 3.85321 3.66667 4.08333 3.66667H14.9167C15.1468 3.66667 15.3333 3.85321 15.3333 4.08333V14.9167C15.3333 15.1468 15.1468 15.3333 14.9167 15.3333H4.08333C3.85321 15.3333 3.66667 15.1468 3.66667 14.9167V4.08333Z" fill="#5A5A5A"/>
</g>
</svg>
