<?xml version="1.0" encoding="UTF-8"?>
<svg width="24px" height="24px" viewBox="0 0 24 24" version="1.1" xmlns="http://www.w3.org/2000/svg" xmlns:xlink="http://www.w3.org/1999/xlink">
    <title>13. Design/pen_station</title>
    <g id="13.-Design/pen_station" stroke="none" stroke-width="1" fill="none" fill-rule="evenodd">
        <path d="M15.2991667,11.1666667 C15.759404,11.1666667 16.1325,11.5397627 16.1325,12 L16.1325,12 L16.1325,12.4166667 L16.5491667,12.4166667 C18.3901158,12.4166667 19.8825,13.9090508 19.8825,15.75 C19.8825,17.5909492 18.3901158,19.0833333 16.5491667,19.0833333 L16.5491667,19.0833333 L16.1325,19.0833333 L16.1325,19.9166667 C16.1325,21.0672599 15.1997599,22 14.0491667,22 L14.0491667,22 L6.54916667,22 C5.99663231,22 5.46672833,21.7805066 5.07602754,21.3898058 C4.68532675,20.999105 4.46583333,20.469201 4.46583333,19.9166667 L4.46583333,19.9166667 L4.46583333,12 C4.46583333,11.5397627 4.83892938,11.1666667 5.29916667,11.1666667 L5.29916667,11.1666667 Z M16.5491667,14.0833317 L16.3408333,14.0833317 C16.285512,14.0831107 16.2323921,14.1049886 16.1932737,14.144107 C16.1541552,14.1832254 16.1322774,14.2363453 16.1324983,14.2916667 L16.1324983,14.2916667 L16.1324983,17.2083333 C16.1322774,17.2636547 16.1541552,17.3167746 16.1932737,17.355893 C16.2323921,17.3950114 16.285512,17.4168893 16.3408333,17.4166683 L16.3408333,17.4166683 L16.5491667,17.4166683 C17.1446093,17.4166683 17.694821,17.0990018 17.9925424,16.5833317 C18.2902637,16.0676649 18.2902637,15.4323351 17.9925424,14.9166667 C17.694821,14.4009982 17.1446093,14.0833317 16.5491667,14.0833317 L16.5491667,14.0833317 Z M12.5809074,7.75656337 C12.6380561,7.74326561 12.6981619,7.75448351 12.7466667,7.7875 C12.9128967,7.90212545 13.0905025,7.99930596 13.2766667,8.0775 L13.2766667,8.0775 C13.3608333,8.11083333 13.4391667,8.14 13.5166667,8.16666667 C13.7007935,8.22862645 13.8906113,8.27217289 14.0833333,8.29666667 C14.1462302,8.30549876 14.201707,8.34243097 14.2341221,8.39705045 C14.2665372,8.45166993 14.2723788,8.51805915 14.25,8.5775 L14.25,8.5775 L13.6916667,10.0641667 C13.6303073,10.2262744 13.4749983,10.3334641 13.3016667,10.3333335 L13.3016667,10.3333335 L11.775,10.3333335 C11.6273333,10.3333335 11.4906936,10.2551873 11.4158312,10.1279039 C11.3409687,10.0006206 11.3390673,9.84322124 11.4108333,9.71416667 L11.4108333,9.71416667 L12.4458333,7.8575 C12.4747797,7.80646164 12.5237587,7.76986112 12.5809074,7.75656337 Z M7.23666667,5.0475 C7.33779447,4.99351649 7.46352871,5.03060624 7.51916667,5.13083333 L7.51916667,5.13083333 L10.0408333,9.71416667 C10.1118373,9.84323637 10.1094112,10.0002057 10.0344525,10.1270195 C9.95949372,10.2538333 9.82314439,10.3316676 9.67583333,10.3316676 L9.67583333,10.3316676 L7.17583333,10.3316676 C7.01985136,10.3319911 6.87675153,10.2451665 6.805,10.1066667 L6.805,10.1066667 L4.955,6.52333333 C4.90282898,6.4232964 4.93977179,6.29990743 5.03833333,6.245 L5.03833333,6.245 Z M13.7556684,2.00087142 L13.8391667,2.0125 C15.0081036,2.26681032 15.9223573,3.17781045 16.1808333,4.34583333 C16.4620671,5.32237136 16.1926234,6.37463652 15.4766667,7.09583333 C14.9527912,7.53677151 14.2158041,7.6211393 13.6058333,7.31 C13.1566156,7.1476962 12.7965625,6.8036472 12.6140158,6.36226777 C12.431469,5.92088834 12.443322,5.42302552 12.6466667,4.99083333 C12.7655287,4.74387714 12.9174815,4.51426575 13.0983333,4.30833333 C13.5675,3.715 13.8333333,3.3175 13.3925,2.64666667 C13.2981701,2.50362859 13.3010214,2.31742617 13.3996868,2.17734344 C13.4983521,2.03726071 13.6727143,1.97185962 13.8391667,2.0125 Z M4.30142051,2.76735806 C4.43560446,2.67593406 4.61067556,2.67078574 4.75,2.75416667 L4.75,2.75416667 L6.72166667,4.02916667 C6.78355708,4.06892037 6.81977521,4.13846937 6.81686261,4.21196969 C6.81395001,4.28547001 6.77234205,4.351935 6.7075,4.38666667 L6.7075,4.38666667 L4.78166667,5.43666667 C4.72253997,5.46883798 4.65151263,5.47045944 4.59097944,5.4410198 C4.53044625,5.41158016 4.48786693,5.35470738 4.47666667,5.28833333 L4.47666667,5.28833333 L4.125,3.18 C4.09838337,3.01982749 4.16723657,2.85878205 4.30142051,2.76735806 Z" id="ðŸ–-Color" fill="#5A5A5A"></path>
        <rect id="_Transparent_Rectangle_" x="0" y="0" width="24" height="24"></rect>
    </g>
</svg>