<svg width="24" height="24" viewBox="0 0 24 24" fill="none" xmlns="http://www.w3.org/2000/svg">
<g id="pen_add_1">
<path id="Shape" fill-rule="evenodd" clip-rule="evenodd" d="M5.95833 9.6C5.38304 9.6 4.91667 9.15228 4.91667 8.6V7C4.91667 6.88954 4.82339 6.8 4.70833 6.8H3.04167C2.46637 6.8 2 6.35228 2 5.8C2 5.24772 2.46637 4.8 3.04167 4.8H4.70833C4.82339 4.8 4.91667 4.71046 4.91667 4.6V3C4.91667 2.44772 5.38304 2 5.95833 2C6.53363 2 7 2.44772 7 3V4.6C7 4.65304 7.02195 4.70391 7.06102 4.74142C7.10009 4.77893 7.15308 4.8 7.20833 4.8H8.875C9.4503 4.8 9.91667 5.24772 9.91667 5.8C9.91667 6.35228 9.4503 6.8 8.875 6.8H7.20833C7.09327 6.8 7 6.88954 7 7V8.6C7 9.15228 6.53363 9.6 5.95833 9.6ZM21.7558 8.8384L16.96 4.2344C16.7859 4.06722 16.5437 3.98253 16.2983 4.00305C16.053 4.02358 15.8297 4.14722 15.6883 4.3408L11.9383 9.476C11.7062 9.79407 11.7456 10.2262 12.0317 10.5008L15.2283 13.5696C15.5143 13.8443 15.9645 13.882 16.2958 13.6592L21.645 10.0592C21.8466 9.92349 21.9754 9.70912 21.9968 9.4736C22.0182 9.23808 21.93 9.00555 21.7558 8.8384ZM10.3225 10.8456C10.4802 10.7764 10.6661 10.8083 10.7892 10.9256L14.7892 14.7624C14.9113 14.8805 14.9445 15.059 14.8725 15.2104L12.8725 19.4312C12.8049 19.5739 12.6567 19.6656 12.4933 19.6656C12.4383 19.6656 7 19.68 4.73083 21.136C4.56563 21.2411 4.34616 21.22 4.20601 21.0854C4.06587 20.9509 4.04384 20.7402 4.15333 20.5816C5.66333 18.4096 5.6825 13.1824 5.6825 13.1296C5.68255 12.9728 5.778 12.8305 5.92667 12.7656L10.3225 10.8456ZM9.45779 16.9071C10.0806 17.1547 10.7975 17.0177 11.2742 16.56C11.9248 15.9352 11.9248 14.9224 11.2742 14.2976C10.7975 13.8399 10.0806 13.7029 9.45779 13.9505C8.83494 14.1982 8.42881 14.7816 8.42881 15.4288C8.42881 16.076 8.83494 16.6594 9.45779 16.9071Z" fill="#5A5A5A"/>
</g>
</svg>
