<svg width="24" height="24" viewBox="0 0 24 24" fill="none" xmlns="http://www.w3.org/2000/svg">
<g id="pen_station">
<path id="Shape" fill-rule="evenodd" clip-rule="evenodd" d="M13.839 2.0125C15.0079 2.26681 15.9221 3.17781 16.1806 4.34583C16.4619 5.32237 16.1924 6.37464 15.4765 7.09583C14.9526 7.53677 14.2156 7.62114 13.6056 7.31C13.1564 7.1477 12.7964 6.80365 12.6138 6.36227C12.4313 5.92089 12.4431 5.42303 12.6465 4.99083C12.7653 4.74388 12.9173 4.51427 13.0981 4.30833C13.5673 3.715 13.8331 3.3175 13.3923 2.64667C13.298 2.50363 13.3008 2.31743 13.3995 2.17734C13.4981 2.03726 13.6725 1.97186 13.839 2.0125ZM6.70729 4.38667C6.77213 4.35193 6.81374 4.28547 6.81665 4.21197C6.81957 4.13847 6.78335 4.06892 6.72146 4.02917L4.74979 2.75417C4.61047 2.67079 4.4354 2.67593 4.30121 2.76736C4.16703 2.85878 4.09817 3.01983 4.12479 3.18L4.47646 5.28833C4.48766 5.35471 4.53024 5.41158 4.59077 5.44102C4.6513 5.47046 4.72233 5.46884 4.78146 5.43667L6.70729 4.38667ZM16.549 12.4167C18.3899 12.4167 19.8823 13.909 19.8823 15.75C19.8823 17.5909 18.3899 19.0833 16.549 19.0833H16.1323V19.9167C16.1323 21.0673 15.1996 22 14.049 22H6.54896C5.99642 22 5.46652 21.7805 5.07582 21.3898C4.68512 20.9991 4.46562 20.4692 4.46562 19.9167V12C4.46562 11.5398 4.83872 11.1667 5.29896 11.1667H15.299C15.7592 11.1667 16.1323 11.5398 16.1323 12V12.4167H16.549ZM16.3406 17.4167H16.549C17.1444 17.4167 17.6946 17.099 17.9923 16.5833C18.2901 16.0677 18.2901 15.4323 17.9923 14.9167C17.6946 14.401 17.1444 14.0833 16.549 14.0833H16.3406C16.2853 14.0831 16.2322 14.105 16.1931 14.1441C16.1539 14.1832 16.1321 14.2363 16.1323 14.2917V17.2083C16.1321 17.2637 16.1539 17.3168 16.1931 17.3559C16.2322 17.395 16.2853 17.4169 16.3406 17.4167ZM4.95479 6.52333C4.90262 6.4233 4.93956 6.29991 5.03812 6.245L7.23646 5.0475C7.33758 4.99352 7.46332 5.03061 7.51896 5.13083L10.0406 9.71417C10.1116 9.84324 10.1092 10.0002 10.0342 10.127C9.95928 10.2538 9.82293 10.3316 9.67562 10.3317H7.17562C7.01964 10.332 6.87654 10.2452 6.80479 10.1067L4.95479 6.52333ZM13.2823 8.0775H13.2765C13.0903 7.99931 12.9127 7.90212 12.7465 7.7875C12.698 7.75448 12.6378 7.74327 12.5807 7.75656C12.5235 7.76986 12.4746 7.80646 12.4456 7.8575L11.4106 9.71417C11.3389 9.84322 11.3408 10.0006 11.4156 10.1279C11.4905 10.2552 11.6271 10.3333 11.7748 10.3333H13.3015C13.4748 10.3335 13.6301 10.2263 13.6915 10.0642L14.2498 8.5775C14.2722 8.51806 14.2663 8.45167 14.2339 8.39705C14.2015 8.34243 14.146 8.3055 14.0831 8.29667C13.8904 8.27217 13.7006 8.22863 13.5165 8.16667C13.439 8.14 13.3606 8.11083 13.2823 8.0775Z" fill="#5A5A5A"/>
</g>
</svg>
