<svg width="24" height="24" viewBox="0 0 24 24" fill="none" xmlns="http://www.w3.org/2000/svg">
<g id="pen_1">
<path id="Shape" fill-rule="evenodd" clip-rule="evenodd" d="M15.8261 2C16.0609 2 16.2512 2.19032 16.2512 2.4251C16.2512 4.77285 14.348 6.67607 12.0002 6.67607C9.6525 6.67607 7.74927 4.77285 7.74927 2.4251C7.74927 2.19032 7.93959 2 8.17437 2H15.8261ZM14.3978 7.40299C14.4831 7.362 14.5852 7.38207 14.6486 7.4523L15.0831 7.93606C17.1086 10.1957 17.512 13.478 16.0939 16.1608L13.1336 21.7339C13.1012 21.7974 13.0634 21.858 13.0205 21.915C12.9656 21.9882 12.87 22.018 12.7832 21.9891C12.6964 21.9601 12.6379 21.8789 12.6379 21.7874V14.4486C12.6379 14.2967 12.7189 14.1564 12.8504 14.0804C13.5169 13.6956 13.8419 12.9111 13.6427 12.1677C13.4435 11.4244 12.7699 10.9074 12.0002 10.9074C11.2306 10.9074 10.557 11.4244 10.3578 12.1677C10.1586 12.9111 10.4836 13.6956 11.15 14.0804C11.2816 14.1564 11.3626 14.2967 11.3626 14.4486V21.7866C11.3626 21.8781 11.3041 21.9593 11.2173 21.9882C11.1305 22.0172 11.0349 21.9873 10.98 21.9141C10.937 21.8565 10.8989 21.7953 10.8661 21.7313L7.90656 16.1608C6.48849 13.478 6.8919 10.1957 8.91744 7.93606L9.35189 7.4523C9.41531 7.38207 9.51741 7.362 9.60269 7.40299C11.1174 8.13418 12.883 8.13418 14.3978 7.40299Z" fill="#5A5A5A"/>
</g>
</svg>
