<?xml version="1.0" encoding="UTF-8"?>
<svg width="24px" height="24px" viewBox="0 0 24 24" version="1.1" xmlns="http://www.w3.org/2000/svg" xmlns:xlink="http://www.w3.org/1999/xlink">
    <title>13. Design/pen_1</title>
    <g id="13.-Design/pen_1" stroke="none" stroke-width="1" fill="none" fill-rule="evenodd">
        <path d="M14.3975498,7.40298899 C14.4828386,7.36200077 14.5849344,7.38207385 14.6483573,7.4523003 L14.6483573,7.4523003 L15.0828069,7.93606123 C17.1083398,10.1957017 17.5117522,13.4779656 16.0936887,16.1608473 L16.0936887,16.1608473 L13.1333099,21.7338753 C13.1009631,21.7974167 13.0631273,21.8580109 13.020234,21.9149668 C12.9653415,21.9881568 12.8697738,22.0180099 12.7829811,21.989079 C12.6961885,21.9601481 12.6376462,21.878925 12.6376462,21.7874376 L12.6376462,21.7874376 L12.6376462,14.4485546 C12.6376501,14.2966858 12.7186727,14.1563547 12.850195,14.0804202 C13.5166934,13.6956172 13.8416393,12.9111285 13.6424505,12.1677461 C13.4432618,11.4243636 12.7696061,10.9074494 12,10.9074494 C11.2303939,10.9074494 10.5567382,11.4243636 10.3575495,12.1677461 C10.1583607,12.9111285 10.4833066,13.6956172 11.149805,14.0804202 C11.2813273,14.1563547 11.3623499,14.2966858 11.3623538,14.4485546 L11.3623538,14.4485546 L11.3623538,21.7865874 C11.3623538,21.8780748 11.3038115,21.9592979 11.2170189,21.9882288 C11.1302262,22.0171597 11.0346585,21.9873066 10.979766,21.9141166 C10.9367703,21.8564623 10.8986626,21.7953194 10.8658399,21.7313247 L10.8658399,21.7313247 L7.90631125,16.1608473 C6.48824781,13.4779656 6.89166023,10.1957017 8.91719306,7.93606123 L8.91719306,7.93606123 L9.35164269,7.4523003 C9.41506557,7.38207385 9.51716139,7.36200077 9.6024502,7.40298899 C11.1171948,8.13417558 12.8828052,8.13417558 14.3975498,7.40298899 Z M15.8258773,2 C16.0606522,2 16.2509748,2.19032263 16.2509748,2.42509748 C16.2509748,4.77284604 14.3477486,6.6760723 12,6.6760723 C9.65225144,6.6760723 7.74902519,4.77284604 7.74902519,2.42509748 C7.74902519,2.19032263 7.93934781,2 8.17412267,2 L8.17412267,2 Z" id="ðŸ–-Color" fill="#5A5A5A"></path>
        <rect id="_Transparent_Rectangle_" x="0" y="0" width="24" height="24"></rect>
    </g>
</svg>