<svg width="24" height="24" viewBox="0 0 24 24" fill="none" xmlns="http://www.w3.org/2000/svg">
<g id="pyramid_alternate">
<path id="Shape" fill-rule="evenodd" clip-rule="evenodd" d="M11.1103 15.8719C11.2441 15.7917 11.3262 15.6472 11.3265 15.4911V2.34859C11.3264 2.24335 11.2525 2.1526 11.1495 2.13109C11.0465 2.10958 10.9425 2.16321 10.9003 2.2596L2.85905 20.3557C2.81962 20.4443 2.8422 20.5483 2.91486 20.6126C2.98753 20.6769 3.09349 20.6867 3.17671 20.6368L11.1103 15.8719ZM12.2252 17.0367C12.0842 16.9519 11.9079 16.9519 11.7669 17.0367L3.98021 21.7135C3.89476 21.7651 3.85415 21.8673 3.88089 21.9635C3.90763 22.0597 3.99517 22.1263 4.095 22.1264H19.8971C19.9963 22.1247 20.0824 22.0576 20.1082 21.9618C20.134 21.866 20.0933 21.7648 20.0083 21.7135L12.2252 17.0367ZM12.6736 15.4911C12.6739 15.6472 12.756 15.7917 12.8899 15.8719L20.8234 20.6368C20.9066 20.6867 21.0126 20.6769 21.0853 20.6126C21.1579 20.5483 21.1805 20.4443 21.1411 20.3557L13.0999 2.2596C13.0576 2.16321 12.9537 2.10958 12.8506 2.13109C12.7476 2.1526 12.6738 2.24335 12.6736 2.34859V15.4911Z" fill="#5A5A5A"/>
</g>
</svg>
