<?xml version="1.0" encoding="UTF-8"?>
<svg width="24px" height="24px" viewBox="0 0 24 24" version="1.1" xmlns="http://www.w3.org/2000/svg" xmlns:xlink="http://www.w3.org/1999/xlink">
    <title>13. Design/pyramid_alternate</title>
    <g id="13.-Design/pyramid_alternate" stroke="none" stroke-width="1" fill="none" fill-rule="evenodd">
        <path d="M11.76687,17.0366541 C11.9078747,16.9519384 12.084117,16.9519384 12.2251217,17.0366541 L12.2251217,17.0366541 L20.0082821,21.7134908 C20.0932019,21.7647462 20.1339272,21.8660314 20.1081258,21.9618061 C20.0823245,22.0575807 19.9962312,22.1247015 19.897056,22.1263623 L19.897056,22.1263623 L4.09493573,22.1263623 C3.99510732,22.1262649 3.90756896,22.0596763 3.88082911,21.9634957 C3.85408925,21.8673152 3.89469715,21.7650996 3.98015035,21.7134908 L3.98015035,21.7134908 Z M11.0879984,2.12693197 L11.1494232,2.13107907 C11.2524394,2.15258558 11.3262907,2.24333769 11.3264145,2.34857481 L11.3264145,2.34857481 L11.3264145,15.4910556 C11.3261349,15.6471417 11.2440804,15.7916658 11.1101909,15.8718939 L11.1101909,15.8718939 L3.17665271,20.6368218 C3.09343264,20.686728 2.98746514,20.6769321 2.91480406,20.6126159 C2.84214298,20.5482996 2.81955594,20.4443049 2.85899085,20.3556421 L2.85899085,20.3556421 L10.9001959,2.2595939 C10.9424146,2.16319656 11.046407,2.10957256 11.1494232,2.13107907 Z M13.0998041,2.2595939 L21.1410092,20.3556421 C21.1804441,20.4443049 21.157857,20.5482996 21.0851959,20.6126159 C21.0125349,20.6769321 20.9065674,20.686728 20.8233473,20.6368218 L12.8898091,15.8718939 C12.7559196,15.7916658 12.6738651,15.6471417 12.6735855,15.4910556 L12.6735855,2.34857481 C12.6737093,2.24333769 12.7475606,2.15258558 12.8505768,2.13107907 C12.953593,2.10957256 13.0575854,2.16319656 13.0998041,2.2595939 Z" id="ðŸ–-Color" fill="#5A5A5A"></path>
        <rect id="_Transparent_Rectangle_" x="0" y="0" width="24" height="24"></rect>
    </g>
</svg>