<svg width="24" height="24" viewBox="0 0 24 24" fill="none" xmlns="http://www.w3.org/2000/svg">
<g id="quill_1">
<path id="Shape" fill-rule="evenodd" clip-rule="evenodd" d="M22.2303 2.65239C22.4082 2.46013 22.4473 2.17732 22.3282 1.94401C22.2091 1.71071 21.9572 1.57643 21.6971 1.60769C14.9424 2.50636 9.11716 6.79887 6.25824 12.9844L4.06304 17.838C4.04659 17.8732 4.03402 17.91 4.02555 17.948L2.53098 20.3198C2.36732 20.5717 2.35195 20.8922 2.49076 21.1586C2.62957 21.425 2.90106 21.5961 3.2013 21.6063C3.50153 21.6165 3.78401 21.4642 3.94057 21.2078L7.70448 15.2029C7.82858 15.0119 8.0831 14.956 8.27582 15.0774C8.46854 15.1988 8.528 15.4526 8.40928 15.647L7.4179 17.2207C7.37015 17.2972 7.37714 17.3958 7.4352 17.4649C7.49326 17.534 7.5892 17.5578 7.67283 17.5239L10.537 16.3484C12.5417 15.5488 14.2446 14.1398 15.4056 12.3204C15.4561 12.2425 15.449 12.1406 15.3881 12.0705L13.4911 9.86113C13.4388 9.79916 13.427 9.71248 13.4609 9.63877C13.4948 9.56506 13.5683 9.51762 13.6494 9.51707H16.5652C16.6383 9.51631 16.7039 9.47206 16.7319 9.4046C17.1397 8.42374 17.7175 7.52264 18.4389 6.74287L22.2303 2.65239Z" fill="#5A5A5A"/>
</g>
</svg>
