<?xml version="1.0" encoding="UTF-8"?>
<svg width="24px" height="24px" viewBox="0 0 24 24" version="1.1" xmlns="http://www.w3.org/2000/svg" xmlns:xlink="http://www.w3.org/1999/xlink">
    <title>13. Design/quill_1</title>
    <g id="13.-Design/quill_1" stroke="none" stroke-width="1" fill="none" fill-rule="evenodd">
        <path d="M22.2306153,2.65238762 C22.4085067,2.46012683 22.4475955,2.17731699 22.328524,1.94401128 C22.2094525,1.71070557 21.9574992,1.57643394 21.6974365,1.60769042 C14.9426951,2.50635674 9.11750063,6.79887002 6.25857804,12.9843929 L4.06338097,17.8379862 C4.04693464,17.8731746 4.03436435,17.9100475 4.02589183,17.9479543 L2.53132503,20.3197668 C2.36765843,20.5716756 2.35228934,20.8921896 2.49110168,21.1586026 C2.62991403,21.4250157 2.90140685,21.5960626 3.20164146,21.6062595 C3.50187606,21.6164564 3.78434844,21.4642238 3.94091646,21.2078428 L7.70482552,15.2029166 C7.82892541,15.0119072 8.08343968,14.9560043 8.27616338,15.0774248 C8.46888708,15.1988453 8.52833864,15.4525541 8.40962123,15.6469545 L7.41824191,17.2206651 C7.37049377,17.2972282 7.37747765,17.3958298 7.43554077,17.4648984 C7.49360389,17.5339669 7.58953857,17.5577912 7.67316802,17.5239105 L10.5373379,16.3484179 C12.5420123,15.5487902 14.2449804,14.1398493 15.4059267,12.3204187 C15.4564565,12.2425232 15.449321,12.1405873 15.3884318,12.0704912 L13.4914816,9.86113153 C13.4391119,9.7991577 13.4273206,9.71248316 13.4612315,9.63877158 C13.4951424,9.56506 13.5686332,9.51761937 13.6497691,9.51706459 L16.5655906,9.51706459 C16.6386373,9.51631252 16.7041935,9.47206208 16.732209,9.40459719 C17.1399932,8.42373719 17.7178779,7.52264317 18.4392142,6.74286868 L22.2306153,2.65238762 Z" id="ðŸ–-Color" fill="#5A5A5A"></path>
        <rect id="_Transparent_Rectangle_" x="0" y="0" width="24" height="24"></rect>
    </g>
</svg>