<svg width="24" height="24" viewBox="0 0 24 24" fill="none" xmlns="http://www.w3.org/2000/svg">
<g id="ruler_triangle">
<path id="Shape" fill-rule="evenodd" clip-rule="evenodd" d="M21.6849 20.6744L18.91 17.9003C18.8702 17.8603 18.8162 17.8379 18.7599 17.8379C18.7035 17.8379 18.6495 17.8603 18.6098 17.9003L17.6131 18.8987C17.4462 19.0598 17.181 19.0575 17.017 18.8935C16.853 18.7295 16.8507 18.4643 17.0118 18.2974L18.0128 17.2973C18.0951 17.2139 18.0951 17.0797 18.0128 16.9963L15.9377 14.9221C15.898 14.8821 15.8439 14.8597 15.7876 14.8597C15.7313 14.8597 15.6772 14.8821 15.6375 14.9221L14.6365 15.9222C14.4697 16.0833 14.2045 16.081 14.0405 15.917C13.8765 15.753 13.8741 15.4878 14.0353 15.3209L15.0362 14.3208C15.1186 14.2374 15.1186 14.1032 15.0362 14.0198L12.9612 11.9456C12.9215 11.9056 12.8674 11.8832 12.8111 11.8832C12.7548 11.8832 12.7007 11.9056 12.661 11.9456L11.66 12.9457C11.4932 13.1068 11.228 13.1045 11.064 12.9405C10.8999 12.7765 10.8976 12.5113 11.0588 12.3444L12.0597 11.3443C12.1421 11.2609 12.1421 11.1267 12.0597 11.0433L9.98724 8.97587C9.9475 8.93593 9.89348 8.91348 9.83714 8.91348C9.7808 8.91348 9.72678 8.93593 9.68704 8.97587L8.69289 9.96917C8.58472 10.0772 8.42715 10.1193 8.27953 10.0796C8.13191 10.0399 8.01666 9.92454 7.9772 9.77686C7.93775 9.62918 7.98007 9.47167 8.08823 9.36366L9.08494 8.37461C9.12492 8.33472 9.1474 8.28056 9.1474 8.22408C9.1474 8.1676 9.12492 8.11345 9.08494 8.07356L7.01074 5.99936C6.97099 5.95942 6.91698 5.93697 6.86064 5.93697C6.80429 5.93697 6.75028 5.95942 6.71053 5.99936L5.71638 6.99266C5.55035 7.15963 5.2804 7.16039 5.11343 6.99436C4.94645 6.82833 4.94569 6.55838 5.11173 6.39141L6.10843 5.3981C6.14842 5.35822 6.17089 5.30406 6.17089 5.24758C6.17089 5.1911 6.14842 5.13694 6.10843 5.09705L3.32582 2.31529C2.70331 1.69193 2 2.04996 2 2.86552V20.7246C2 21.4291 2.57113 22.0002 3.27565 22.0002H21.1347C21.9434 22.0002 22.3091 21.2978 21.6849 20.6744ZM4.97651 10.9446C4.97651 10.4769 5.24779 10.3646 5.57776 10.6954L13.3048 18.4224C13.6356 18.7533 13.5233 19.0237 13.0556 19.0237H5.82694C5.35726 19.0237 4.97651 18.643 4.97651 18.1733V10.9446Z" fill="#5A5A5A"/>
</g>
</svg>
