<?xml version="1.0" encoding="UTF-8"?>
<svg width="24px" height="24px" viewBox="0 0 24 24" version="1.1" xmlns="http://www.w3.org/2000/svg" xmlns:xlink="http://www.w3.org/1999/xlink">
    <title>13. Design/ruler_triangle</title>
    <g id="13.-Design/ruler_triangle" stroke="none" stroke-width="1" fill="none" fill-rule="evenodd">
        <path d="M21.6847063,20.674399 L18.9097518,17.9002948 C18.8700102,17.8603582 18.8159919,17.8379056 18.7596508,17.8379056 C18.7033097,17.8379056 18.6492914,17.8603582 18.6095498,17.9002948 L17.6128453,18.8987002 C17.4459998,19.0598449 17.1807906,19.0575403 17.0167707,18.8935204 C16.8527508,18.7295005 16.8504462,18.4642913 17.011591,18.2974458 L18.0125476,17.2973396 C18.0948989,17.2138839 18.0948989,17.079743 18.0125476,16.9962872 L15.9374973,14.9220873 C15.8977557,14.8821507 15.8437374,14.8596981 15.7873963,14.8596981 C15.7310552,14.8596981 15.6770369,14.8821507 15.6372953,14.9220873 L14.6363387,15.9221935 C14.4694932,16.0833383 14.204284,16.0810337 14.0402641,15.9170138 C13.8762442,15.7529939 13.8739396,15.4877847 14.0350844,15.3209392 L15.036041,14.320833 C15.1183923,14.2373772 15.1183923,14.1032363 15.036041,14.0197806 L12.9609907,11.9455807 C12.9212491,11.9056441 12.8672308,11.8831915 12.8108897,11.8831915 C12.7545486,11.8831915 12.7005303,11.9056441 12.6607887,11.9455807 L11.6598321,12.9456869 C11.4929866,13.1068317 11.2277774,13.1045271 11.0637575,12.9405072 C10.8997376,12.7764873 10.897433,12.5112781 11.0585777,12.3444326 L12.0595344,11.3443264 C12.1418856,11.2608706 12.1418856,11.1267297 12.0595344,11.043274 L9.98703536,8.97587754 C9.9472938,8.93594097 9.8932755,8.91348837 9.83693438,8.91348837 C9.78059326,8.91348837 9.72657496,8.93594097 9.6868334,8.97587754 L8.6926802,9.96918032 C8.58451688,10.0771917 8.42694646,10.1192939 8.27932418,10.0796275 C8.1317019,10.039961 8.01645511,9.92455209 7.97699615,9.77687421 C7.93753719,9.62919633 7.97986082,9.47168523 8.08802414,9.36367383 L9.08472864,8.37462321 C9.1247166,8.3347362 9.14719011,8.28057719 9.14719011,8.22409701 C9.14719011,8.16761684 9.1247166,8.11345782 9.08472864,8.07357082 L7.01052874,5.99937093 C6.97078719,5.95943435 6.91676888,5.93698175 6.86042777,5.93698175 C6.80408665,5.93698175 6.75006835,5.95943435 6.71032679,5.99937093 L5.71617358,6.99267371 C5.55014178,7.15964487 5.28018955,7.16040637 5.11321839,6.99437457 C4.94624723,6.82834277 4.94548572,6.55839053 5.11151752,6.39141937 L6.10822202,5.39811659 C6.14820999,5.35822959 6.1706835,5.30407058 6.1706835,5.2475904 C6.1706835,5.19111023 6.14820999,5.13695121 6.10822202,5.09706421 L3.32561356,2.31530617 C2.70309846,1.69194064 1.99979247,2.04997187 1.99979247,2.86553468 L1.99979247,20.7245744 C1.99979247,21.429094 2.5709185,22.0002201 3.27543816,22.0002201 L21.1344778,22.0002201 C21.9432372,22.0002201 22.3089223,21.2977645 21.6847063,20.674399 Z M4.97629908,10.9446241 C4.97629908,10.4768873 5.2475864,10.3646305 5.57755342,10.6954479 L13.3045646,18.4224591 C13.635382,18.7532766 13.5231252,19.0237134 13.0553885,19.0237134 L5.82672954,19.0237134 C5.35704977,19.0237134 4.97629908,18.6429628 4.97629908,18.173283 L4.97629908,10.9446241 Z" id="ðŸ–-Color" fill="#5A5A5A"></path>
        <rect id="_Transparent_Rectangle_" x="0" y="0" width="24" height="24"></rect>
    </g>
</svg>