<svg width="24" height="24" viewBox="0 0 24 24" fill="none" xmlns="http://www.w3.org/2000/svg">
<g id="selection_wand">
<path id="Shape" fill-rule="evenodd" clip-rule="evenodd" d="M14.5002 2.83333C14.5002 2.3731 14.8733 2 15.3335 2C15.7937 2 16.1668 2.3731 16.1668 2.83333V5.33333C16.1668 5.79357 15.7937 6.16667 15.3335 6.16667C14.8733 6.16667 14.5002 5.79357 14.5002 5.33333V2.83333ZM18.4227 6.75583L20.0893 5.08917C20.306 4.87994 20.3928 4.5701 20.3166 4.27874C20.2403 3.98739 20.0128 3.75985 19.7214 3.68359C19.4301 3.60732 19.1202 3.6942 18.911 3.91083L17.2443 5.5775C16.9285 5.90448 16.933 6.42424 17.2545 6.74568C17.5759 7.06713 18.0957 7.07164 18.4227 6.75583ZM18.6668 7.83333H21.1668C21.6271 7.83333 22.0002 8.20643 22.0002 8.66667C22.0002 9.1269 21.6271 9.5 21.1668 9.5H18.6668C18.2066 9.5 17.8335 9.1269 17.8335 8.66667C17.8335 8.20643 18.2066 7.83333 18.6668 7.83333ZM2.30516 20.2217L11.6802 10.8467C12.087 10.4398 12.7466 10.4398 13.1535 10.8467C13.5603 11.2535 13.5603 11.9132 13.1535 12.32L3.77849 21.695C3.51531 21.9582 3.13171 22.061 2.77219 21.9646C2.41267 21.8683 2.13185 21.5875 2.03552 21.228C1.93919 20.8685 2.04198 20.4849 2.30516 20.2217ZM11.756 3.91083C11.429 3.59502 10.9093 3.59954 10.5878 3.92098C10.2664 4.24243 10.2619 4.76218 10.5777 5.08917L12.2443 6.75583C12.5713 7.07164 13.0911 7.06713 13.4125 6.74568C13.734 6.42424 13.7385 5.90448 13.4227 5.5775L11.756 3.91083ZM12.0002 9.5H9.50016C9.03992 9.5 8.66683 9.1269 8.66683 8.66667C8.66683 8.20643 9.03992 7.83333 9.50016 7.83333H12.0002C12.4604 7.83333 12.8335 8.20643 12.8335 8.66667C12.8335 9.1269 12.4604 9.5 12.0002 9.5ZM15.3335 11.1667C14.8733 11.1667 14.5002 11.5398 14.5002 12V14.5C14.5002 14.9602 14.8733 15.3333 15.3335 15.3333C15.7937 15.3333 16.1668 14.9602 16.1668 14.5V12C16.1668 11.5398 15.7937 11.1667 15.3335 11.1667ZM17.2545 10.5877C17.5759 10.2662 18.0957 10.2617 18.4227 10.5775L20.0893 12.2442C20.4051 12.5711 20.4006 13.0909 20.0792 13.4123C19.7577 13.7338 19.238 13.7383 18.911 13.4225L17.2443 11.7558C16.9285 11.4289 16.933 10.9091 17.2545 10.5877Z" fill="#5A5A5A"/>
</g>
</svg>
