<svg width="24" height="24" viewBox="0 0 24 24" fill="none" xmlns="http://www.w3.org/2000/svg">
<g id="shapes">
<path id="Shape" fill-rule="evenodd" clip-rule="evenodd" d="M3.04348 1.99991C2.46718 1.99991 2 2.46709 2 3.04339V9.65208C2 10.2284 2.46718 10.6956 3.04348 10.6956H9.65217C10.2285 10.6956 10.6957 10.2284 10.6957 9.65208V3.04339C10.6957 2.46709 10.2285 1.99991 9.65217 1.99991H3.04348ZM6.34783 12.4345C6.66675 12.4345 6.9664 12.5871 7.15391 12.8451L9.90696 16.6312C10.1619 16.9804 10.1619 17.4542 9.90696 17.8034L7.15391 21.5895C6.9664 21.8475 6.66675 22.0001 6.34783 22.0001C6.0289 22.0001 5.72925 21.8475 5.54174 21.5895L2.7887 17.8034C2.53378 17.4542 2.53378 16.9804 2.7887 16.6312L5.54174 12.8451C5.72925 12.5871 6.0289 12.4345 6.34783 12.4345ZM22 6.34773C22 8.74897 20.0534 10.6956 17.6522 10.6956C15.2509 10.6956 13.3043 8.74897 13.3043 6.34773C13.3043 3.9465 15.2509 1.99991 17.6522 1.99991C20.0534 1.99991 22 3.9465 22 6.34773ZM16.3478 13.2743C16.6554 13.2743 16.9401 13.4368 17.0965 13.7016L21.2287 20.6877C21.3877 20.9566 21.3903 21.29 21.2355 21.5613C21.0807 21.8326 20.7923 22 20.48 21.9999H12.2191C11.907 21.9997 11.6189 21.8321 11.4643 21.5609C11.3097 21.2897 11.3124 20.9564 11.4713 20.6877L15.5991 13.7016C15.7556 13.4368 16.0403 13.2743 16.3478 13.2743Z" fill="#5A5A5A"/>
</g>
</svg>
