<?xml version="1.0" encoding="UTF-8"?>
<svg width="24px" height="24px" viewBox="0 0 24 24" version="1.1" xmlns="http://www.w3.org/2000/svg" xmlns:xlink="http://www.w3.org/1999/xlink">
    <title>13. Design/shapes</title>
    <g id="13.-Design/shapes" stroke="none" stroke-width="1" fill="none" fill-rule="evenodd">
        <path d="M6.34782609,12.4345029 C6.66674809,12.4345029 6.96640428,12.587148 7.15391304,12.8451242 L7.15391304,12.8451242 L9.90695652,16.6312111 C10.1618757,16.9803567 10.1618757,17.4542394 9.90695652,17.803385 L9.90695652,17.803385 L7.15391304,21.589472 C6.96640428,21.8474482 6.66674809,22.0000932 6.34782609,22.0000932 C6.02890409,22.0000932 5.72924789,21.8474482 5.54173913,21.589472 L5.54173913,21.589472 L2.78869565,17.803385 C2.53377643,17.4542394 2.53377643,16.9803567 2.78869565,16.6312111 L2.78869565,16.6312111 L5.54173913,12.8451242 C5.72924789,12.587148 6.02890409,12.4345029 6.34782609,12.4345029 Z M16.3478261,13.2743459 C16.6553981,13.2743459 16.9400891,13.4368264 17.0965217,13.7016459 L17.0965217,13.7016459 L21.2286957,20.6877329 C21.3876674,20.956569 21.3902548,21.2900108 21.2354741,21.5612815 C21.0806934,21.8325523 20.7923218,21.9999068 20.48,21.9999068 L20.48,21.9999068 L12.2191304,21.9999068 C11.9069641,21.9996675 11.6188784,21.8321172 11.4643103,21.560904 C11.3097422,21.2896909 11.3124116,20.9564352 11.4713043,20.6877329 L11.4713043,20.6877329 L15.5991304,13.7016459 C15.7555631,13.4368264 16.0402541,13.2743459 16.3478261,13.2743459 Z M9.65217391,1.99990677 C10.228471,1.99990677 10.6956522,2.4670879 10.6956522,3.04338503 L10.6956522,9.65208068 C10.6956522,10.2283778 10.228471,10.6955589 9.65217391,10.6955589 L3.04347826,10.6955589 C2.46718113,10.6955589 2,10.2283778 2,9.65208068 L2,3.04338503 C2,2.4670879 2.46718113,1.99990677 3.04347826,1.99990677 L9.65217391,1.99990677 Z M17.6521739,1.99990677 C20.053412,1.99990677 22,3.94649482 22,6.34773286 C22,8.7489709 20.053412,10.6955589 17.6521739,10.6955589 C15.2509359,10.6955589 13.3043478,8.7489709 13.3043478,6.34773286 C13.3043478,3.94649482 15.2509359,1.99990677 17.6521739,1.99990677 Z" id="ðŸ–-Color" fill="#5A5A5A"></path>
        <rect id="_Transparent_Rectangle_" x="0" y="0" width="24" height="24"></rect>
    </g>
</svg>