<svg width="24" height="24" viewBox="0 0 24 24" fill="none" xmlns="http://www.w3.org/2000/svg">
<g id="square_1_alternate">
<path id="Shape" fill-rule="evenodd" clip-rule="evenodd" d="M4.5 7C5.88071 7 7 5.88071 7 4.5C7 3.11929 5.88071 2 4.5 2C3.11929 2 2 3.11929 2 4.5C2 5.88071 3.11929 7 4.5 7ZM22 4.5C22 5.88071 20.8807 7 19.5 7C18.1193 7 17 5.88071 17 4.5C17 3.11929 18.1193 2 19.5 2C20.8807 2 22 3.11929 22 4.5ZM8.5 3.66667C8.36193 3.66667 8.25 3.7786 8.25 3.91667V5.08333C8.25 5.2214 8.36193 5.33333 8.5 5.33333H15.5C15.6381 5.33333 15.75 5.2214 15.75 5.08333V3.91667C15.75 3.7786 15.6381 3.66667 15.5 3.66667H8.5ZM18.9167 8.25C18.7786 8.25 18.6667 8.36193 18.6667 8.5V15.5C18.6667 15.6381 18.7786 15.75 18.9167 15.75H20.0833C20.2214 15.75 20.3333 15.6381 20.3333 15.5V8.5C20.3333 8.36193 20.2214 8.25 20.0833 8.25H18.9167ZM3.66667 8.5C3.66667 8.36193 3.7786 8.25 3.91667 8.25H5.08333C5.2214 8.25 5.33333 8.36193 5.33333 8.5V15.5C5.33333 15.6381 5.2214 15.75 5.08333 15.75H3.91667C3.7786 15.75 3.66667 15.6381 3.66667 15.5V8.5ZM8.5 18.6667C8.36193 18.6667 8.25 18.7786 8.25 18.9167V20.0833C8.25 20.2214 8.36193 20.3333 8.5 20.3333H15.5C15.6381 20.3333 15.75 20.2214 15.75 20.0833V18.9167C15.75 18.7786 15.6381 18.6667 15.5 18.6667H8.5ZM22 19.5C22 20.8807 20.8807 22 19.5 22C18.1193 22 17 20.8807 17 19.5C17 18.1193 18.1193 17 19.5 17C20.8807 17 22 18.1193 22 19.5ZM4.5 22C5.88071 22 7 20.8807 7 19.5C7 18.1193 5.88071 17 4.5 17C3.11929 17 2 18.1193 2 19.5C2 20.8807 3.11929 22 4.5 22Z" fill="#5A5A5A"/>
</g>
</svg>
