<?xml version="1.0" encoding="UTF-8"?>
<svg width="24px" height="24px" viewBox="0 0 24 24" version="1.1" xmlns="http://www.w3.org/2000/svg" xmlns:xlink="http://www.w3.org/1999/xlink">
    <title>13. Design/stamp_1</title>
    <g id="13.-Design/stamp_1" stroke="none" stroke-width="1" fill="none" fill-rule="evenodd">
        <path d="M20.3333333,19.5 C20.4438402,19.5 20.549821,19.5438987 20.6279612,19.6220388 C20.7061013,19.700179 20.75,19.8061598 20.75,19.9166667 C20.75,21.0672599 19.8172599,22 18.6666667,22 L18.6666667,22 L5.33333333,22 C4.78079898,22 4.25089499,21.7805066 3.86019421,21.3898058 C3.46949342,20.999105 3.25,20.469201 3.25,19.9166667 C3.25,19.686548 3.43654802,19.5 3.66666667,19.5 L3.66666667,19.5 Z M12,2 C14.3011865,2 16.1666667,3.86548021 16.1666667,6.16666667 C16.1099552,7.17712397 15.7168783,8.13957552 15.05,8.90083333 L14.8880074,9.09430923 C14.422387,9.68909606 14.141402,10.4097917 14.0833333,11.1666667 C14.0833333,13.0333333 15.035,13.25 15.75,13.25 L15.75,13.25 L18.25,13.25 C20.3201159,13.2522963 21.9977037,14.9298841 22,17 C22,17.6903559 21.4403559,18.25 20.75,18.25 L20.75,18.25 L3.25,18.25 C2.55964406,18.25 2,17.6903559 2,17 C2.0022963,14.9298841 3.67988409,13.2522963 5.75,13.25 L5.75,13.25 L8.25,13.25 C8.965,13.25 9.91666667,13.0333333 9.91666667,11.1666667 C9.85214595,10.3256944 9.51241983,9.52938813 8.95,8.90083333 L8.78902082,8.706416 C8.21994473,7.97883356 7.88531888,7.0929192 7.83333333,6.16666667 C7.83333333,3.86548021 9.69881354,2 12,2 Z" id="ðŸ–-Color" fill="#5A5A5A"></path>
        <rect id="_Transparent_Rectangle_" x="0" y="0" width="24" height="24"></rect>
    </g>
</svg>