<svg width="24" height="24" viewBox="0 0 24 24" fill="none" xmlns="http://www.w3.org/2000/svg">
<g id="stamp_1">
<path id="Shape" fill-rule="evenodd" clip-rule="evenodd" d="M15.75 13.25H18.25C20.3201 13.2523 21.9977 14.9299 22 17C22 17.6904 21.4404 18.25 20.75 18.25H3.25C2.55964 18.25 2 17.6904 2 17C2.0023 14.9299 3.67988 13.2523 5.75 13.25H8.25C8.965 13.25 9.91667 13.0333 9.91667 11.1667C9.85215 10.3257 9.51242 9.52939 8.95 8.90083C8.28312 8.13958 7.89005 7.17712 7.83333 6.16667C7.83333 3.86548 9.69881 2 12 2C14.3012 2 16.1667 3.86548 16.1667 6.16667C16.11 7.17712 15.7169 8.13958 15.05 8.90083C14.4876 9.52939 14.1479 10.3257 14.0833 11.1667C14.0833 13.0333 15.035 13.25 15.75 13.25ZM3.25 19.9167C3.25 19.6865 3.43655 19.5 3.66667 19.5H20.3333C20.4438 19.5 20.5498 19.5439 20.628 19.622C20.7061 19.7002 20.75 19.8062 20.75 19.9167C20.75 21.0673 19.8173 22 18.6667 22H5.33333C4.7808 22 4.2509 21.7805 3.86019 21.3898C3.46949 20.9991 3.25 20.4692 3.25 19.9167Z" fill="#5A5A5A"/>
</g>
</svg>
