<svg id="section3_illustrasyon" data-name="section3 illustrasyon" xmlns="http://www.w3.org/2000/svg"
     xmlns:xlink="http://www.w3.org/1999/xlink" width="500" height="413" viewBox="0 0 500 413">
  <defs>
    <clipPath id="clip-path">
      <path id="Clip_83" data-name="Clip 83" d="M30.225,34.157,0,51.235V17.078L30.225,0V34.157"
            transform="translate(0.775)" fill="none"/>
    </clipPath>
    <radialGradient id="radial-gradient" cx="-0.095" cy="0.312" r="1.49" gradientUnits="objectBoundingBox">
      <stop offset="0" stop-color="#2b4876"/>
      <stop offset="1" stop-color="#263765"/>
    </radialGradient>
    <clipPath id="clip-path-2">
      <path id="Clip_86" data-name="Clip 86" d="M30.115,34.435,0,17.217,30.113,0,60.228,17.217,30.115,34.435"
            transform="translate(0.772 0.783)" fill="none"/>
    </clipPath>
    <linearGradient id="linear-gradient" y1="0.5" x2="1.319" y2="0.5" gradientUnits="objectBoundingBox">
      <stop offset="0" stop-color="#d4eaf2"/>
      <stop offset="1" stop-color="#83b0d1"/>
    </linearGradient>
    <clipPath id="clip-path-3">
      <path id="Clip_89" data-name="Clip 89" d="M29.488,51.235,0,34.157V0L29.488,17.078V51.235"
            transform="translate(0.756)" fill="none"/>
    </clipPath>
    <radialGradient id="radial-gradient-2" cx="-1.237" cy="-0.578" r="2.694" gradientUnits="objectBoundingBox">
      <stop offset="0" stop-color="#6693bf"/>
      <stop offset="1" stop-color="#3b6397"/>
    </radialGradient>
    <clipPath id="clip-path-4">
      <path id="Clip_96" data-name="Clip 96"
            d="M47.444,0A11.356,11.356,0,0,0,42.16,1.384L31.888,7.306.006,7.287v14.59A2.857,2.857,0,0,0,1.7,24.515L42.87,48.25a8.922,8.922,0,0,0,4.575.978V0"
            transform="translate(0.778 0.769)" fill="none"/>
    </clipPath>
    <radialGradient id="radial-gradient-3" cx="0.055" cy="0.064" r="1.097" xlink:href="#radial-gradient-2"/>
    <clipPath id="clip-path-5">
      <path id="Clip_101" data-name="Clip 101"
            d="M42.679,54.23,1.7,30.273c-2.514-1.47-2.2-4.04.7-5.736L41.973,1.4c2.9-1.7,7.3-1.881,9.814-.413L92.766,24.95c2.516,1.47,2.2,4.038-.706,5.736L52.491,53.817c-2.9,1.7-7.3,1.883-9.812.413"
            transform="translate(0.768 0)" fill="none"/>
    </clipPath>
    <clipPath id="clip-path-6">
      <path id="Clip_210" data-name="Clip 210"
            d="M169.628,249.435,6.3,154.784c-4.621-2.677-7.287-9.779-5.956-15.862L29.2,7.19c1.332-6.084,6.156-8.845,10.777-6.166l163.329,94.65c4.621,2.679,7.287,9.78,5.955,15.864L180.4,243.27c-1.332,6.083-6.156,8.843-10.776,6.165"
            transform="translate(0.771 0.771)" fill="none"/>
    </clipPath>
    <radialGradient id="radial-gradient-4" cx="0.967" cy="0.944" r="1.265" xlink:href="#linear-gradient"/>
    <clipPath id="clip-path-7">
      <path id="Clip_215" data-name="Clip 215"
            d="M159.742,232.289,5.777,143c-4.238-2.459-6.683-8.98-5.463-14.567L26.978,6.6C28.2,1.016,32.624-1.52,36.861.939L190.827,90.224c4.238,2.458,6.683,8.98,5.463,14.567L169.627,226.627c-1.22,5.585-5.647,8.119-9.885,5.662"
            transform="translate(0.771)" fill="none"/>
    </clipPath>
    <radialGradient id="radial-gradient-5" cx="0.892" cy="0.72" r="0.93" xlink:href="#radial-gradient"/>
    <clipPath id="clip-path-8">
      <path id="Clip_223" data-name="Clip 223"
            d="M174.929,170.206a16.094,16.094,0,0,1-7.857-1.8L3.131,74.242A6.132,6.132,0,0,1,.247,71.1a4.254,4.254,0,0,0,.423,3.686A4.269,4.269,0,0,1,.006,72.75c-.121-2.2,1.492-4.423,4.424-6.106L22.739,56.131l1.462-.84L62.563,33.264l1.463-.839L102.388,10.4l1.462-.839,12.211-7.012A21.138,21.138,0,0,1,126.3,0a16.123,16.123,0,0,1,7.859,1.8L151.8,11.933l1.462.839,118,67.777,1.462.839L298.1,95.965c2.093,1.2,3.2,2.866,3.128,4.688-.076,1.788-1.283,3.583-3.4,5.056a8.612,8.612,0,0,0,2.91-3.189,4.4,4.4,0,0,0,.246-3.419,8.677,8.677,0,0,1-4.182,4.462l-111.632,64.1A21.147,21.147,0,0,1,174.929,170.206ZM66.053,50.111h0L23.185,74.736l147.1,84.394,42.87-24.623-147.1-84.4Z"
            transform="translate(0)" fill="none"/>
    </clipPath>
    <radialGradient id="radial-gradient-6" cx="1.127" cy="0.6" r="1.199" xlink:href="#linear-gradient"/>
    <clipPath id="clip-path-9">
      <path id="Clip_314" data-name="Clip 314"
            d="M147.473,108.462h0L0,24.5,42.978,0,190.452,83.964l-42.979,24.5ZM82.43,28.083a6.09,6.09,0,0,0-2.934.725L50.789,45.169a2.124,2.124,0,0,0-1.271,1.674,1.533,1.533,0,0,0,.9,1.286L104.858,79.16a4.649,4.649,0,0,0,2.255.512,6.113,6.113,0,0,0,2.938-.724l28.705-16.363a2.122,2.122,0,0,0,1.27-1.673,1.532,1.532,0,0,0-.9-1.286L84.685,28.595Z"
            transform="translate(0.774 0.769)" fill="none"/>
    </clipPath>
    <radialGradient id="radial-gradient-7" cx="1.665" cy="0.493" r="1.901" gradientUnits="objectBoundingBox">
      <stop offset="0" stop-color="#6f8baa"/>
      <stop offset="1" stop-color="#4c719a"/>
    </radialGradient>
    <clipPath id="clip-path-10">
      <path id="Clip_320" data-name="Clip 320"
            d="M0,0V38.476c0,1.318.853,2.633,2.56,3.638a13.425,13.425,0,0,0,12.361,0c1.706-1.006,2.56-2.322,2.56-3.64V0H0"
            transform="translate(0.76 0.765)" fill="none"/>
    </clipPath>
    <radialGradient id="radial-gradient-8" cx="-0.062" cy="0.839" r="0.934" xlink:href="#radial-gradient-2"/>
    <clipPath id="clip-path-11">
      <path id="Clip_324" data-name="Clip 324"
            d="M28.373,0H0V60.277c0,2.132,1.385,4.266,4.156,5.892,5.538,3.252,14.521,3.252,20.06,0,2.771-1.626,4.156-3.758,4.156-5.892V0"
            transform="translate(0.627 0.621)" fill="none"/>
    </clipPath>
    <radialGradient id="radial-gradient-9" cx="-0.169" cy="1.053" r="0.912" xlink:href="#radial-gradient-2"/>
    <clipPath id="clip-path-12">
      <path id="Clip_329" data-name="Clip 329"
            d="M0,0V39.075c0,1.338.9,2.677,2.7,3.7a14.679,14.679,0,0,0,13.055,0c1.8-1.019,2.7-2.358,2.7-3.7V0H0"
            transform="translate(0.769 0.777)" fill="none"/>
    </clipPath>
    <radialGradient id="radial-gradient-10" cx="-0.062" cy="0.839" r="0.934" xlink:href="#radial-gradient-2"/>
    <clipPath id="clip-path-13">
      <path id="Clip_333" data-name="Clip 333"
            d="M28.462,0H0V61.151c0,2.163,1.39,4.326,4.168,5.976,5.558,3.3,14.569,3.3,20.127,0,2.778-1.65,4.168-3.813,4.167-5.976V0"
            transform="translate(0.769 0.773)" fill="none"/>
    </clipPath>
    <radialGradient id="radial-gradient-11" cx="-0.169" cy="1.053" r="0.912" xlink:href="#radial-gradient-2"/>
    <clipPath id="clip-path-14">
      <path id="Clip_338" data-name="Clip 338"
            d="M178.228,173.4c0-15.635-10.95-34.647-24.458-42.463a24.3,24.3,0,0,0-8.359-3.105c-3.894-20.517-18.137-42.3-35.12-52.134a34.338,34.338,0,0,0-14.371-4.874C93.6,45.96,76.353,17.7,55.406,5.575c-10.942-6.333-20.871-7.081-28.2-3.2V2.352l-.356.2c-.186.1-.372.21-.555.321L3.52,16.363l7.57,5.992C4.295,25.331,0,32.97,0,44.259,0,65.079,14.583,90.4,32.572,100.808L143.62,180.291l3.423,23.162,24-14.167.065-.037.144-.086,0,0c4.318-2.606,6.984-8.048,6.984-15.758"
            transform="translate(0 0.774)" fill="none"/>
    </clipPath>
    <radialGradient id="radial-gradient-12" cx="0.5" cy="0.5" r="0.536" xlink:href="#radial-gradient-2"/>
    <clipPath id="clip-path-15">
      <path id="Clip_345" data-name="Clip 345"
            d="M168.18,130.737a24.254,24.254,0,0,0-8.345-3.1c-3.888-20.484-18.11-42.238-35.066-52.048a34.279,34.279,0,0,0-14.351-4.868C108.1,45.893,90.88,17.677,69.964,5.575c-22.5-13.016-40.73-2.464-40.73,23.567,0,.883.025,1.774.067,2.667C12.851,24.163,0,32.78,0,52.308c0,20.784,14.56,46.061,32.523,56.454l135.657,78.5c13.488,7.8,24.423,1.477,24.423-14.131s-10.935-34.589-24.423-42.393"
            transform="translate(0.626 0.625)" fill="none"/>
    </clipPath>
    <linearGradient id="linear-gradient-2" x2="1" xlink:href="#linear-gradient"/>
    <clipPath id="clip-path-16">
      <path id="Clip_350" data-name="Clip 350"
            d="M19.658,31.241,29.88,35.987l-.52-11.271c-.037-.791-.061-1.576-.061-2.357C29.3,12.3,32.333,5,37.839,1.819S51.174-.348,59.871,4.683C78.582,15.5,94.9,41.837,97.031,64.639l.537,5.746,5.744.443A27.588,27.588,0,0,1,114.8,74.8c14.862,8.593,28.256,28.561,31.849,47.48l.9,4.735,4.756.746a17.656,17.656,0,0,1,6.006,2.271c11.416,6.6,21.059,23.33,21.059,36.53,0,4.941-1.367,8.566-3.753,9.946s-6.2.752-10.473-1.718L29.18,96.177C13.362,87.032,0,63.852,0,45.56c0-7.178,2.113-12.646,5.8-15A9.916,9.916,0,0,1,11.217,29.1a20.382,20.382,0,0,1,8.441,2.138"
            fill="none"/>
    </clipPath>
    <radialGradient id="radial-gradient-13" cx="1.002" cy="0.908" r="1.083" xlink:href="#radial-gradient"/>
  </defs>
  <path id="Fill_3" data-name="Fill 3"
        d="M41.229,47h0l-1.3-.75-.165-.1L78.08,23.924,39.769,1.7,1.459,23.924,0,23.076,39.769,0,81,23.924,41.23,47Z"
        transform="translate(419 87)" fill="#d1e9f2"/>
  <path id="Fill_4" data-name="Fill 4"
        d="M41.54,47v0h0l13.845-7.7ZM7.875,27.666l-6.408-3.7L.182,23.22,0,23.114,40,0l.366.213L80,23.116l-1.467.849L40,1.7,1.469,23.963l6.407,3.7Z"
        transform="translate(338 87)" fill="#d1e9f2"/>
  <path id="Fill_5" data-name="Fill 5"
        d="M78.012,23.885,39.736,1.693,1.458,23.884,0,23.037,38.277.846,39.736,0l1.457.846L79.47,23.039l-1.457.846Z"
        transform="translate(379 110)" fill="#d1e9f2"/>
  <path id="Fill_6" data-name="Fill 6"
        d="M41.229,47h0l-1.278-.742-.136-.079,38.1-22.293L39.727,1.541,1.543,23.885,19.2,34.219,1.459,23.924.145,23.161,0,23.076,38.309.848,39.768,0l.165.1.2.115,1.1.636L81,23.924,41.23,47Zm-1.5-.771L19.2,34.219,39.77,46.152l.046.026-.087.051Z"
        transform="translate(419 134)" fill="#d1e9f2"/>
  <path id="Fill_7" data-name="Fill 7"
        d="M39.741,46.229v0h0L58.881,35.1ZM1.457,23.964h0L.178,23.22,0,23.115,39.739,0,40.1.213l39.376,22.9-1.458.848L39.739,1.7,1.458,23.963Z"
        transform="translate(259 87)" fill="#d1e9f2"/>
  <path id="Fill_8" data-name="Fill 8"
        d="M1.466,23.964h0L.288,23.282,0,23.115,38.531.849,40,0l.181.106.184.107,1.1.635L80,23.115l-1.467.848L40,1.7,1.467,23.963Z"
        transform="translate(299 110)" fill="#d1e9f2"/>
  <path id="Fill_9" data-name="Fill 9"
        d="M40.888,47h0L60.173,36.213,40.889,47ZM7.895,27.709,1.457,23.963l-1.23-.716L0,23.115,38.272.849,39.73,0l1.457.849L79.459,23.117,78,23.965,39.73,1.7,1.459,23.963,7.9,27.707Z"
        transform="translate(338 134)" fill="#d1e9f2"/>
  <path id="Fill_10" data-name="Fill 10"
        d="M41.67,47h0L67.905,31.59,41.67,47ZM78.022,23.885,39.74,1.691,1.458,23.882,0,23.037,38.28.846,39.74,0l.145.085L40.1.212,41.2.846,79.48,23.039l-1.458.845Z"
        transform="translate(379 157)" fill="#d1e9f2"/>
  <path id="Fill_11" data-name="Fill 11"
        d="M41.231,46v0h0l-1.206-.682-.255-.144L78.082,23.414,39.769,1.658,1.459,23.413,0,22.585,39.769,0l.182.1.184.1L41.228.83,81,23.414Z"
        transform="translate(419 180)" fill="#d1e9f2"/>
  <path id="Fill_12" data-name="Fill 12"
        d="M41.67,47v0h0L62.5,34.673ZM78.021,23.965h0L39.74,1.7,1.459,23.963.131,23.191,0,23.114,39.74,0,79.478,23.116l-1.457.849Z"
        transform="translate(180 87)" fill="#d1e9f2"/>
  <path id="Fill_13" data-name="Fill 13"
        d="M78.081,23.885,39.77,1.693,1.459,23.884,0,23.037,38.31.846,39.77,0l.178.1.185.109,1.1.633L79.54,23.039l-1.458.846Z"
        transform="translate(220 110)" fill="#d1e9f2"/>
  <path id="Fill_14" data-name="Fill 14"
        d="M1.458,23.964h0L.2,23.23,0,23.115,38.293.849,39.751,0l.287.167.078.045,1.094.636,38.3,22.266-1.459.848L39.751,1.7,1.458,23.963Z"
        transform="translate(259 134)" fill="#d1e9f2"/>
  <path id="Fill_15" data-name="Fill 15"
        d="M15.731,32.206,1.467,23.963.132,23.192,0,23.115,38.531.849,40,0l.228.132.139.08,1.1.636L80,23.115l-1.469.848L40,1.7,1.469,23.963,15.732,32.2Z"
        transform="translate(299 157)" fill="#d1e9f2"/>
  <path id="Fill_16" data-name="Fill 16"
        d="M41.54,46v0h0l16.923-9.2ZM1.466,23.767h0L0,22.926,38.532.841,40,0l1.468.841L80,22.926l-1.467.84L40,1.683,1.467,23.766Z"
        transform="translate(338 180)" fill="#d1e9f2"/>
  <path id="Fill_17" data-name="Fill 17"
        d="M41.692,47h0L62.536,34.673,41.693,47ZM78.063,23.964h0L39.761,1.7,1.459,23.963.108,23.177,0,23.115,38.3.848,39.761,0l1.458.848,38.3,22.269-1.458.847Z"
        transform="translate(379 203)" fill="#d1e9f2"/>
  <path id="Fill_18" data-name="Fill 18"
        d="M41.231,47v0h0l-1.362-.788-.1-.058L78.082,23.923,39.769,1.694,1.459,23.922,0,23.074,38.309.846,39.769,0l.255.147.111.065,1.1.634L81,23.923Z"
        transform="translate(419 226)" fill="#d1e9f2"/>
  <path id="Fill_19" data-name="Fill 19"
        d="M78,23.964h0L39.727,1.7,1.457,23.963.1,23.171,0,23.114,39.727,0l.365.212,39.365,22.9L78,23.963Z"
        transform="translate(100 87)" fill="#d1e9f2"/>
  <path id="Fill_20" data-name="Fill 20"
        d="M7.146,27.245.132,23.192,0,23.115,38.532.849,40,0l.132.077.235.137,1.1.635L80,23.115l-1.469.849L40,1.7,1.469,23.963l5.678,3.28Z"
        transform="translate(139 110)" fill="#d1e9f2"/>
  <path id="Fill_21" data-name="Fill 21"
        d="M78.031,23.878h0L39.745,1.692,1.459,23.877.18,23.136,0,23.031,38.285.846,39.745,0,41.2.846,79.49,23.032l-1.458.846Z"
        transform="translate(180 133)" fill="#d1e9f2"/>
  <path id="Fill_22" data-name="Fill 22"
        d="M56.963,23.791,18.134,1.685,1.48,11.165,0,10.324,16.654.843,18.134,0,18.5.211l1.11.633,38.83,22.106-1.478.841ZM60,23.47l-.765-.439.766.437h0Z"
        transform="translate(241 157)" fill="#d1e9f2"/>
  <path id="Fill_23" data-name="Fill 23"
        d="M55.558,24,17.685,1.7,1.442,11.264,0,10.415,16.243.849,17.685,0l.13.077.231.136L19.127.85,57,23.151,55.557,24"
        transform="translate(282 180)" fill="#d1e9f2"/>
  <path id="Fill_24" data-name="Fill 24"
        d="M56.962,23.954,18.133,1.7,1.479,11.243,0,10.4,16.653.848,18.133,0l1.48.848,38.829,22.26-1.479.847Z"
        transform="translate(321 202)" fill="#d1e9f2"/>
  <path id="Fill_25" data-name="Fill 25"
        d="M56.533,23.537,18,1.667,1.469,11.047,0,10.214,16.528.833,18,0l.109.061.257.148,1.1.624L58,22.7l-1.467.832Z"
        transform="translate(361 226)" fill="#d1e9f2"/>
  <path id="Fill_26" data-name="Fill 26"
        d="M67.97,23.885,29.362,1.693,3.982,16.282,0,18.57a6.007,6.007,0,0,0,1.293-2.434L27.891.846,29.362,0l1.47.846L69.439,23.039l-1.469.846Z"
        transform="translate(389 249)" fill="#d1e9f2"/>
  <path id="Fill_27" data-name="Fill 27"
        d="M41.23,47h0l-1.415-.821,38.1-22.292L39.727,1.541,1.543,23.884,19.206,34.22.286,23.243,0,23.075,38.309.848,39.769,0l.1.057.268.155,1.093.636L81,23.925,41.231,47Zm-1.5-.771L19.206,34.22,39.77,46.152l.046.026-.087.051Z"
        transform="translate(419 272)" fill="#d1e9f2"/>
  <path id="Fill_28" data-name="Fill 28"
        d="M39.99,47,0,23.924,41.457,0,81.448,23.078l-1.468.848L41.457,1.7,2.935,23.924,41.457,46.151,39.99,47Z"
        transform="translate(19 87)" fill="#d1e9f2"/>
  <path id="Fill_29" data-name="Fill 29"
        d="M41.658,47h0L58.629,36.984,41.658,47ZM5.179,26.128,1.457,23.963.364,23.326,0,23.114,38.27.849,39.729,0l.1.057.267.157,1.093.635L79.457,23.116,78,23.964,39.729,1.7,1.458,23.963,5.18,26.127Z"
        transform="translate(60 110)" fill="#d1e9f2"/>
  <path id="Fill_30" data-name="Fill 30"
        d="M40.127,46.229v0L59.416,35.443ZM78.021,23.885h0L39.739,1.693,1.458,23.884,0,23.037,38.281.846,39.739,0l.131.077L40.1.211,41.2.846,79.479,23.039l-1.458.846Z"
        transform="translate(100 134)" fill="#d1e9f2"/>
  <path id="Fill_31" data-name="Fill 31"
        d="M13.874,31,1.47,23.88h0L.2,23.149,0,23.034,38.645.846,40.118,0,40.3.106l.185.106,1.1.635L54,7.97l-1.473.845L40.118,1.691,1.472,23.88,13.874,31"
        transform="translate(140 157)" fill="#d1e9f2"/>
  <path id="Fill_32" data-name="Fill 32"
        d="M45.1,16.059,21.082,1.793c.009-.143.014-.271.014-.392A6.368,6.368,0,0,0,20.94,0L46.535,15.2l-1.438.855Z"
        transform="translate(371 279)" fill="#d1e9f2"/>
  <path id="Fill_33" data-name="Fill 33"
        d="M78.533,23.448h0L40,1.661,1.467,23.448l-1.239-.7L0,22.617,38.532.831,40,0l.288.164.078.044,1.1.623L80,22.617l-1.467.831Z"
        transform="translate(379 295)" fill="#d1e9f2"/>
  <path id="Fill_34" data-name="Fill 34"
        d="M41.231,47v0h0L39.9,46.229l-.087-.051,38.1-22.293L39.727,1.541,1.543,23.884,19.3,34.276,1.459,23.924l-1.328-.77L0,23.076,38.31.848,39.769,0,41.23.848,81,23.924Zm-1.5-.77L19.3,34.276,39.77,46.152l.045.027-.086.051Z"
        transform="translate(419 317)" fill="#d1e9f2"/>
  <path id="Fill_35" data-name="Fill 35"
        d="M42.429,47h0l21.6-12.327L42.43,47ZM39.77,47h0L0,23.925,39.769.848,41.23,0l.364.212L81,23.077l-1.459.848L41.23,1.694,2.92,23.925l38.31,22.228L39.771,47Z"
        transform="translate(19 134)" fill="#d1e9f2"/>
  <path id="Fill_36" data-name="Fill 36"
        d="M78.031,23.964h0L39.745,1.7,1.458,23.963.364,23.327,0,23.115,38.285.849,39.745,0,41.2.849,79.49,23.117l-1.458.847Z"
        transform="translate(60 157)" fill="#d1e9f2"/>
  <path id="Fill_37" data-name="Fill 37"
        d="M1.445,24,0,23.151,39.38,0h0l.2.116.164.1L40.824.85,53,8.008l-1.446.849L39.38,1.7,1.445,24"
        transform="translate(100 180)" fill="#d1e9f2"/>
  <path id="Fill_38" data-name="Fill 38"
        d="M10.011,28h0L35.42,13.222,10.012,28ZM47.066,4.667h0L40.04.8,41.486,0,48.51,3.87l-1.444.8Z"
        transform="translate(330 314)" fill="#d1e9f2"/>
  <path id="Fill_39" data-name="Fill 39"
        d="M6.1,26.667l-4.648-2.7L.1,23.173,0,23.115,38.27.849,39.729,0l.226.132.138.08,1.093.636L79.457,23.115,78,23.963,39.729,1.7,1.457,23.963l4.649,2.7Z"
        transform="translate(338 317)" fill="#d1e9f2"/>
  <path id="Fill_40" data-name="Fill 40"
        d="M78,23.963h0L39.729,1.7,1.457,23.963l-1.326-.77L0,23.115,38.27.848,39.729,0l.131.077.233.136,1.093.636L79.457,23.115,78,23.963Z"
        transform="translate(379 340)" fill="#d1e9f2"/>
  <path id="Fill_41" data-name="Fill 41"
        d="M39.771,48h0l-.363-.213L0,24.85,1.46,24,0,23.151,39.77,0,39.9.077l.233.135,1.094.636L81,24,39.771,48ZM39.727,1.548,1.543,24,39.729,46.452,77.914,24Z"
        transform="translate(419 363)" fill="#d1e9f2"/>
  <path id="Fill_42" data-name="Fill 42"
        d="M42.43,46v0h0L61.714,35.266Zm-2.658,0L0,23.414,39.769.828,41.23,0l.364.207L81,22.586l-1.459.829L41.23,1.658,2.92,23.414,41.23,45.172,39.772,46Z"
        transform="translate(19 180)" fill="#d1e9f2"/>
  <path id="Fill_43" data-name="Fill 43"
        d="M1.472,23.872h0l-1.1-.634L0,23.027,38.655.844,40.128,0,54,7.961l-1.473.846L40.128,1.69,1.472,23.872Z"
        transform="translate(61 203)" fill="#d1e9f2"/>
  <path id="Fill_44" data-name="Fill 44" d="M11,8,1.429,2.764.2,2.09,0,1.982,3.624,0,5.053.781,1.429,2.764,11,8"
        transform="translate(100 246)" fill="#d1e9f2"/>
  <path id="Fill_45" data-name="Fill 45"
        d="M7.13,27.222h0l24.612-14-24.611,14ZM45,4.667h0L37.936.8,39.387,0l7.065,3.872L45,4.666Z"
        transform="translate(293 337)" fill="#d1e9f2"/>
  <path id="Fill_46" data-name="Fill 46"
        d="M40.887,47h0l13.885-7.7L40.887,47ZM17.942,33.554,1.456,23.963.225,23.245,0,23.114,38.269.848,39.727,0l.1.059.263.154,1.094.636L79.457,23.116,78,23.963,39.727,1.7,1.457,23.962l16.486,9.591Z"
        transform="translate(299 340)" fill="#d1e9f2"/>
  <path id="Fill_47" data-name="Fill 47"
        d="M39.771,48h0L0,24.848,1.459,24,0,23.149,38.309.849,39.77,0,39.9.077l.232.135,1.1.636,38.311,22.3L81,24l-1.459.851L39.771,48ZM39.729,1.548,1.543,24,39.73,46.452,77.914,24Z"
        transform="translate(338 363)" fill="#d1e9f2"/>
  <path id="Fill_48" data-name="Fill 48"
        d="M40.1,47,0,23.923,41.574,0l.366.212L75.274,19.392l-.614.354c-.269.154-.548.326-.829.509L41.574,1.694,2.944,23.923,41.573,46.151,40.1,47ZM80.058,23.885h0L77.6,22.424l1.426-.851,2.455,1.463-1.425.848Z"
        transform="translate(19 226)" fill="#d1e9f2"/>
  <path id="Fill_49" data-name="Fill 49"
        d="M3.371,25.127.363,23.377,0,23.163,27.894,6.935a6.947,6.947,0,0,0,.746,1.259L1.454,24.011l1.917,1.114ZM49.481,7.7h0L39.892,1.774,32.369,6.425a3.2,3.2,0,0,1-.741-1.314L38.459.887,39.892,0l.2.123.16.1,1.076.663,9.59,5.933L49.482,7.7Z"
        transform="translate(61 249)" fill="#d1e9f2"/>
  <path id="Fill_50" data-name="Fill 50"
        d="M39.642,30.244h0l12.814-7.388L39.642,30.244ZM1.454,8.228h0L.229,7.52,0,7.388,12.814,0l1.454.84L1.455,8.228Z"
        transform="translate(100 287)" fill="#d1e9f2"/>
  <path id="Fill_51" data-name="Fill 51" d="M40.887,31v0h0L54,23.25ZM1.495,8.525h0L0,7.655,13.163,0l1.494.87L1.5,8.525Z"
        transform="translate(140 310)" fill="#d1e9f2"/>
  <path id="Fill_52" data-name="Fill 52"
        d="M40.887,31v0h0L54,23.25ZM1.454,8.222h0l-1.3-.749L0,7.384,12.816,0,14.27.838,1.455,8.222Z"
        transform="translate(180 333)" fill="#d1e9f2"/>
  <path id="Fill_53" data-name="Fill 53"
        d="M78.06,8.317h0L71.015,4.554l1.447-.773,7.044,3.764-1.446.772Zm-76.565,0h0L0,7.47,13.171,0l1.5.849L1.5,8.317ZM81,7.97l-1.2-.678,1.2.677h0Z"
        transform="translate(220 356)" fill="#d1e9f2"/>
  <path id="Fill_54" data-name="Fill 54"
        d="M39.771,48h0l-.363-.212L0,24.85,1.46,24,0,23.151,39.77,0,40,.131l.138.081,1.094.638L81,24l-1.459.851L39.771,48ZM39.727,1.548,1.543,24,39.729,46.452,77.914,24Z"
        transform="translate(260 363)" fill="#d1e9f2"/>
  <path id="Fill_55" data-name="Fill 55"
        d="M40.016,47,0,23.925,40.015.848,41.484,0l.366.213L81.5,23.077l-1.468.848L41.484,1.7,2.936,23.925,41.484,46.153,40.016,47Z"
        transform="translate(19 272)" fill="#d1e9f2"/>
  <path id="Fill_56" data-name="Fill 56"
        d="M3.538,24.619,1.467,23.448l-1.1-.624L0,22.617,38.532.831,40,0l.231.131.135.076,1.1.623L80,22.617l-1.467.831L40,1.661,1.468,23.447l2.071,1.17Z"
        transform="translate(60 295)" fill="#d1e9f2"/>
  <path id="Fill_57" data-name="Fill 57"
        d="M6.106,26.668l-4.649-2.7-1.3-.753L0,23.115,38.273.849,39.731,0,41.19.849,79.465,23.117l-1.459.847L39.731,1.7,1.457,23.963l4.65,2.7Z"
        transform="translate(100 317)" fill="#d1e9f2"/>
  <path id="Fill_58" data-name="Fill 58"
        d="M26.355,39,1.467,24.372h0L.19,23.622,0,23.51,38.531.862,40,0l.155.092.211.124,1.1.648L80,23.511l-1.467.862L40,1.726,1.469,24.372,26.355,39"
        transform="translate(139 340)" fill="#d1e9f2"/>
  <path id="Fill_59" data-name="Fill 59"
        d="M29.815,48,0,30.626l1.459-.85L29.815,46.3,68.084,24,29.815,1.7l-1.394.812A4.169,4.169,0,0,0,27.6,1.289l.754-.44L29.815,0l1.457.849h0l38.268,22.3L71,24l-1.457.85h0L29.815,48"
        transform="translate(190 363)" fill="#d1e9f2"/>
  <path id="Fill_60" data-name="Fill 60"
        d="M42.672,47v0h0L59.738,36.984ZM40,47,0,23.923,40,.846,41.464,0l.366.212L81.461,23.077l-1.467.846L41.464,1.694,2.936,23.923l38.528,22.23L40,47Z"
        transform="translate(19 317)" fill="#d1e9f2"/>
  <path id="Fill_61" data-name="Fill 61"
        d="M8.438,28.023l-8.074-4.7L0,23.115,38.282.848,39.742,0,39.9.1l.2.117L41.2.849,79.484,23.115l-1.458.848L39.742,1.7,1.458,23.963l6.981,4.059Z"
        transform="translate(60 340)" fill="#d1e9f2"/>
  <path id="Fill_62" data-name="Fill 62"
        d="M39.184,48l-.358-.213L0,24.85,1.439,24,0,23.15,39.183,0l.186.11.174.1L40.62.849,65,15.252q-.31.672-.592,1.35L39.183,1.7,1.439,24,39.184,46.3l12.34-7.291a16.658,16.658,0,0,0-.688,2.106L39.184,48"
        transform="translate(101 363)" fill="#d1e9f2"/>
  <path id="Fill_63" data-name="Fill 63"
        d="M41.5,48h0L0,24,40.029.849,41.5,0l.366.212L81.53,23.151,83,24l-1.468.851L41.5,48Zm0-46.452L3.1,24,41.5,46.452,79.9,24,41.5,1.548Z"
        transform="translate(19 363)" fill="#d1e9f2"/>
  <path id="Fill_64" data-name="Fill 64"
        d="M8,2.766A8.511,8.511,0,0,1,4,9.471C1.791,10.706,0,9.7,0,7.236A8.51,8.51,0,0,1,4,.529C6.208-.706,8,.3,8,2.766"
        transform="translate(329 354)" fill="#fffffe"/>
  <path id="Fill_65" data-name="Fill 65"
        d="M7,2.766A8.772,8.772,0,0,1,3.5,9.471C1.567,10.706,0,9.7,0,7.236A8.775,8.775,0,0,1,3.5.529C5.433-.706,7,.3,7,2.766"
        transform="translate(341 347)" fill="#fffffe"/>
  <path id="Fill_66" data-name="Fill 66"
        d="M7,3.041a9.968,9.968,0,0,1-3.5,7.377C1.567,11.776,0,10.675,0,7.959A9.971,9.971,0,0,1,3.5.582C5.433-.776,7,.324,7,3.041"
        transform="translate(354 339)" fill="#fffffe"/>
  <path id="Fill_67" data-name="Fill 67"
        d="M8,2.765A8.509,8.509,0,0,1,4,9.471C1.791,10.706,0,9.7,0,7.236A8.51,8.51,0,0,1,4,.529C6.209-.706,8,.295,8,2.765"
        transform="translate(367 332)" fill="#fffffe"/>
  <path id="Fill_68" data-name="Fill 68" d="M7,8,0,12V4L7,0V8" transform="translate(0 252)" fill="#fffffe"/>
  <path id="Fill_69" data-name="Fill 69" d="M7,8,0,12V4L7,0V8" transform="translate(11 246)" fill="#fffffe"/>
  <path id="Fill_70" data-name="Fill 70" d="M7,8,0,12V4L7,0V8" transform="translate(22 240)" fill="#fffffe"/>
  <path id="Fill_71" data-name="Fill 71" d="M7,8,0,12V4L7,0V8" transform="translate(34 232)" fill="#fffffe"/>
  <path id="Fill_72" data-name="Fill 72" d="M7,9.333,0,14V4.667L7,0V9.333" transform="translate(119 343)"
        fill="#fffffe"/>
  <path id="Fill_73" data-name="Fill 73" d="M8,9.334,0,14V4.667L8,0V9.334" transform="translate(129 338)"
        fill="#fffffe"/>
  <path id="Fill_74" data-name="Fill 74" d="M8,9.333,0,14V4.666L8,0V9.333" transform="translate(118 356)"
        fill="#fffffe"/>
  <path id="Fill_75" data-name="Fill 75" d="M8,8.666,0,13V4.333L8,0V8.666" transform="translate(129 350)"
        fill="#fffffe"/>
  <path id="Fill_76" data-name="Fill 76"
        d="M4.153,52a3.717,3.717,0,0,1-3-1.393A6.185,6.185,0,0,1,0,46.69a12.366,12.366,0,0,1,.419-3.077L28.525,27.529l9.981,5.713-31,17.741A6.826,6.826,0,0,1,4.153,52ZM1.54,41.294v0A16.045,16.045,0,0,1,7.8,33.564a6.543,6.543,0,0,1,3.268-1.008,4.088,4.088,0,0,1,1.034.129,18.545,18.545,0,0,1-.154-2.318,29.581,29.581,0,0,1,2.484-11.248l12.526,7.321L1.542,41.292Zm38.288-9.176v0h0l-9.792-5.669L66.461,5.353A6.835,6.835,0,0,1,67,8.185,15.714,15.714,0,0,1,59.923,20.48ZM28.121,26v0h0L14.632,18.2A37.771,37.771,0,0,1,19.991,9.9a27.556,27.556,0,0,1,7.039-6.019,13.953,13.953,0,0,1,6.9-2.111,7.731,7.731,0,0,1,6.977,4.062,19.159,19.159,0,0,1,5.035-4.4A9.443,9.443,0,0,1,50.62,0c3.472,0,5.694,2.747,5.8,7.169a12.7,12.7,0,0,1,3.27-2.812,6.428,6.428,0,0,1,3.185-.976A3.544,3.544,0,0,1,65.46,4.424Z"
        transform="translate(151 361)" fill="#d9eff5"/>
  <path id="Fill_77" data-name="Fill 77" d="M15.386,14v0h0L40,0Z" transform="translate(166 373)" fill="#ebf6f9"/>
  <path id="Fill_78" data-name="Fill 78"
        d="M10.086,28,0,22.486l1.483-.812L0,20.864,38.167,0A3.974,3.974,0,0,1,39,1.167L1.483,21.674,11.57,27.188,10.086,28"
        transform="translate(180 366)" fill="#ebf6f9"/>
  <path id="Fill_79" data-name="Fill 79"
        d="M0,26a16.8,16.8,0,0,1,.689-2.117L26.122,8.794,13.586,1.357Q13.869.674,14.179,0L29,8.794l-1.439.855L0,26"
        transform="translate(152 379)" fill="#ebf6f9"/>
  <path id="Fill_80" data-name="Fill 80" d="M30.5,35,0,17.5,30.5,0,61,17.5,30.5,35" transform="translate(434 188)"
        fill="#7dbcdb"/>
  <path id="Fill_81" data-name="Fill 81"
        d="M32.5,39a2.339,2.339,0,0,1-1.149-.3L1.15,21.465a2.254,2.254,0,0,1,0-3.93L31.352.3a2.317,2.317,0,0,1,2.3,0l30.2,17.23a2.256,2.256,0,0,1,0,3.93L33.648,38.7A2.319,2.319,0,0,1,32.5,39Zm0-33.647L6.964,19.881,32.5,34.412,58.036,19.881,32.5,5.353Z"
        transform="translate(432 173)" fill="#fffffe"/>
  <g id="Group_84" data-name="Group 84" transform="translate(463 144)">
    <path id="Clip_83-2" data-name="Clip 83" d="M30.225,34.157,0,51.235V17.078L30.225,0V34.157"
          transform="translate(0.775)" fill="none"/>
    <g id="Group_84-2" data-name="Group 84" clip-path="url(#clip-path)">
      <path id="Fill_82" data-name="Fill 82" d="M30.225,34.157,0,51.235V17.078L30.225,0V34.157"
            transform="translate(0.775)" fill="url(#radial-gradient)"/>
    </g>
  </g>
  <g id="Group_87" data-name="Group 87" transform="translate(434 127)">
    <path id="Clip_86-2" data-name="Clip 86" d="M30.115,34.435,0,17.217,30.113,0,60.228,17.217,30.115,34.435"
          transform="translate(0.772 0.783)" fill="none"/>
    <g id="Group_87-2" data-name="Group 87" clip-path="url(#clip-path-2)">
      <path id="Fill_85" data-name="Fill 85" d="M30.115,34.435,0,17.217,30.113,0,60.228,17.217,30.115,34.435"
            transform="translate(0.772 0.783)" fill="url(#linear-gradient)"/>
    </g>
  </g>
  <g id="Group_90" data-name="Group 90" transform="translate(434 144)">
    <path id="Clip_89-2" data-name="Clip 89" d="M29.488,51.235,0,34.157V0L29.488,17.078V51.235"
          transform="translate(0.756)" fill="none"/>
    <g id="Group_90-2" data-name="Group 90" clip-path="url(#clip-path-3)">
      <path id="Fill_88" data-name="Fill 88" d="M29.488,51.235,0,34.157V0L29.488,17.078V51.235"
            transform="translate(0.756)" fill="url(#radial-gradient-2)"/>
    </g>
  </g>
  <path id="Fill_91" data-name="Fill 91" d="M8,14,0,9.334V0L8,4.667V14" transform="translate(445 163)" fill="#fffffe"/>
  <path id="Fill_92" data-name="Fill 92"
        d="M42.469,54.013,1.689,30.151c-2.5-1.464-2.188-4.022.7-5.713L41.766,1.4C44.657-.293,49.027-.476,51.532.988l40.779,23.86c2.5,1.464,2.188,4.023-.7,5.713L52.233,53.6c-2.889,1.691-7.261,1.874-9.764.411"
        transform="translate(8 300)" fill="#7dbcdb"/>
  <path id="Fill_93" data-name="Fill 93"
        d="M49.232,60a10.943,10.943,0,0,1-5.441-1.319L2.858,34.707A5.3,5.3,0,0,1,0,30.171c0-2.036,1.3-3.964,3.56-5.29L43.085,1.731A13.406,13.406,0,0,1,49.77,0a10.944,10.944,0,0,1,5.44,1.318L96.141,25.294A5.291,5.291,0,0,1,99,29.828c0,2.036-1.3,3.964-3.563,5.291L55.914,58.27A13.4,13.4,0,0,1,49.232,60Zm.582-55.325a9.1,9.1,0,0,0-4.41,1.1L5.843,28.963c-1,.585-1.233,1.111-1.238,1.21a1.509,1.509,0,0,0,.534.451L46.111,54.639a6.228,6.228,0,0,0,3.072.686,9.093,9.093,0,0,0,4.409-1.1L93.157,31.035c.988-.579,1.231-1.108,1.238-1.208a1.465,1.465,0,0,0-.534-.449L52.89,5.361A6.242,6.242,0,0,0,49.814,4.675Z"
        transform="translate(5 284)" fill="#fffffe"/>
  <path id="Fill_94" data-name="Fill 94"
        d="M93.993,21.865V7.462L62.439,7.444,51.533,1c-2.5-1.479-6.876-1.293-9.767.415L31.59,7.426.006,7.408V22.223A2.909,2.909,0,0,0,1.685,24.9L42.469,49c2.5,1.48,6.876,1.294,9.765-.413l39.38-23.273c1.669-.986,2.472-2.262,2.379-3.451"
        transform="translate(8 278)" fill="#3b6397"/>
  <g id="Group_97" data-name="Group 97" transform="translate(6 278)">
    <path id="Clip_96-2" data-name="Clip 96"
          d="M47.444,0A11.356,11.356,0,0,0,42.16,1.384L31.888,7.306.006,7.287v14.59A2.857,2.857,0,0,0,1.7,24.515L42.87,48.25a8.922,8.922,0,0,0,4.575.978V0"
          transform="translate(0.778 0.769)" fill="none"/>
    <g id="Group_97-2" data-name="Group 97" clip-path="url(#clip-path-4)">
      <path id="Fill_95" data-name="Fill 95"
            d="M47.444,0A11.356,11.356,0,0,0,42.16,1.384L31.888,7.306.006,7.287v14.59A2.857,2.857,0,0,0,1.7,24.515L42.87,48.25a8.922,8.922,0,0,0,4.575.978V0"
            transform="translate(0.778 0.769)" fill="url(#radial-gradient-3)"/>
    </g>
  </g>
  <path id="Fill_98" data-name="Fill 98" d="M3,0,0,0V14.326a2.893,2.893,0,0,0,1.407,2.589L3,18V0"
        transform="translate(7 286)" fill="#d4eaf2"/>
  <path id="Fill_99" data-name="Fill 99" d="M0,16.343a9.1,9.1,0,0,0,7-.088V0H0V16.343" transform="translate(51 310)"
        fill="#5589bb"/>
  <g id="Group_102" data-name="Group 102" transform="translate(7 258)">
    <path id="Clip_101-2" data-name="Clip 101"
          d="M42.679,54.23,1.7,30.273c-2.514-1.47-2.2-4.04.7-5.736L41.973,1.4c2.9-1.7,7.3-1.881,9.814-.413L92.766,24.95c2.516,1.47,2.2,4.038-.706,5.736L52.491,53.817c-2.9,1.7-7.3,1.883-9.812.413"
          transform="translate(0.768 0)" fill="none"/>
    <g id="Group_102-2" data-name="Group 102" clip-path="url(#clip-path-5)">
      <path id="Fill_100" data-name="Fill 100"
            d="M42.679,54.23,1.7,30.273c-2.514-1.47-2.2-4.04.7-5.736L41.973,1.4c2.9-1.7,7.3-1.881,9.814-.413L92.766,24.95c2.516,1.47,2.2,4.038-.706,5.736L52.491,53.817c-2.9,1.7-7.3,1.883-9.812.413"
            transform="translate(0.768 0)" fill="none"/>
    </g>
  </g>
  <path id="Fill_103" data-name="Fill 103"
        d="M91.614,1.722,52.237,23.943c-2.889,1.631-7.261,1.809-9.765.4L1.691,1.324A3.727,3.727,0,0,1,.441.242c-.861,1.352-.47,2.82,1.25,3.79L42.472,27.047c2.5,1.412,6.875,1.236,9.765-.4L91.614,4.428C93.861,3.161,94.544,1.39,93.565,0a5.411,5.411,0,0,1-1.951,1.722"
        transform="translate(8 285)" fill="#fffffe"/>
  <path id="Fill_104" data-name="Fill 104"
        d="M3,1.105A3.449,3.449,0,0,1,1.5,3.789c-.828.493-1.5.092-1.5-.9A3.446,3.446,0,0,1,1.5.212C2.328-.283,3,.118,3,1.105"
        transform="translate(83 303)" fill="#d4eaf2"/>
  <path id="Fill_105" data-name="Fill 105"
        d="M3,1.1A3.447,3.447,0,0,1,1.5,3.788C.673,4.283,0,3.882,0,2.895A3.451,3.451,0,0,1,1.5.211C2.328-.282,3,.118,3,1.1"
        transform="translate(89 299)" fill="#d4eaf2"/>
  <path id="Fill_106" data-name="Fill 106"
        d="M3,1.106A3.451,3.451,0,0,1,1.5,3.788C.671,4.283,0,3.882,0,2.895A3.445,3.445,0,0,1,1.5.211C2.327-.282,3,.118,3,1.106"
        transform="translate(94 296)" fill="#d4eaf2"/>
  <path id="Fill_107" data-name="Fill 107"
        d="M20.332,26.514.809,14.8c-1.2-.719-1.048-1.974.336-2.8L20,.687a5.017,5.017,0,0,1,4.673-.2L44.192,12.2c1.2.719,1.047,1.975-.336,2.806l-18.85,11.31a5.019,5.019,0,0,1-4.675.2"
        transform="translate(31 271)" fill="#5589bb"/>
  <path id="Fill_108" data-name="Fill 108"
        d="M2.711,3.929.107,2.193c-.159-.107-.138-.293.046-.416L2.666.1a.607.607,0,0,1,.623-.03l2.6,1.735c.16.106.139.292-.045.416L3.333,3.9a.612.612,0,0,1-.622.03"
        transform="translate(51 284)" fill="#d4eaf2"/>
  <path id="Fill_109" data-name="Fill 109"
        d="M.809,14.966.865,15l.28-.2L20,3.362a4.97,4.97,0,0,1,4.674-.2L44.143,14.966c1.1-.83,1.162-1.961.055-2.633L24.672.491A4.97,4.97,0,0,0,20,.695L1.145,12.131c-1.384.84-1.534,2.109-.336,2.836"
        transform="translate(31 272)" fill="#3b6397"/>
  <path id="Fill_110" data-name="Fill 110"
        d="M52.3,9.745a13.9,13.9,0,0,0-2.231,1.677c-.31-10.3-7.562-14.4-16.487-9.111-7.27,4.306-13.428,13.523-15.635,22.557a9.653,9.653,0,0,0-6.167,1.572C5.274,30.293,0,39.664,0,47.371S5.274,58.2,11.782,54.349l40.52-24c4.8-2.846,8.7-9.766,8.7-15.456s-3.894-8-8.7-5.152"
        transform="translate(67 148)" fill="#aecee2"/>
  <path id="Fill_111" data-name="Fill 111"
        d="M67.9,5.1a14.7,14.7,0,0,0-3.716,3.292c-.175-7.553-5.429-10.571-11.9-6.718a21.867,21.867,0,0,0-5.72,5.148c-2.881-5.194-8.85-6.4-15.767-2.281-9.728,5.792-17.613,19.879-17.613,31.463a22.3,22.3,0,0,0,.176,2.709,6.473,6.473,0,0,0-4.932,1.026C3.772,42.513,0,49.252,0,54.8s3.772,7.788,8.425,5.018L67.9,24.4C72.372,21.735,76,15.255,76,9.927S72.372,2.438,67.9,5.1"
        transform="translate(394 9)" fill="#aecee2"/>
  <path id="Fill_112" data-name="Fill 112"
        d="M1.986,48a1.942,1.942,0,0,1-.92-.231,2.046,2.046,0,0,1-.84-2.735,22.617,22.617,0,0,1,8.121-9.108,10.332,10.332,0,0,1,5.722-1.614l.242.007c2.517,0,5.6-1.947,8.294-5.26a19.525,19.525,0,0,1,5.164-4.568,10.353,10.353,0,0,1,5.723-1.614c2.516.166,5.751-1.833,8.537-5.255a19.808,19.808,0,0,1,5.164-4.567,10.267,10.267,0,0,1,5.724-1.614c2.5.172,5.749-1.833,8.535-5.255A19.533,19.533,0,0,1,66.617,1.62C69.534-.094,72.439-.462,74.805.583a2.046,2.046,0,0,1,1.03,2.668A1.979,1.979,0,0,1,73.218,4.3c-1.181-.526-2.818-.228-4.613.83a15.806,15.806,0,0,0-4.094,3.646c-3.632,4.466-7.966,6.885-11.792,6.715a6.444,6.444,0,0,0-3.536,1.076,15.8,15.8,0,0,0-4.094,3.643c-3.633,4.464-7.915,6.887-11.793,6.716A6.415,6.415,0,0,0,29.758,28a15.768,15.768,0,0,0-4.094,3.643c-3.635,4.465-7.973,6.887-11.792,6.715a6.381,6.381,0,0,0-3.536,1.076A18.533,18.533,0,0,0,3.75,46.912,1.985,1.985,0,0,1,1.986,48"
        transform="translate(418 222)" fill="#fffffe"/>
  <path id="Fill_204" data-name="Fill 204"
        d="M167.5,171.2,3.139,77.036c-4.649-2.664-4.067-7.317,1.3-10.393l111.917-64.1C121.728-.533,129.85-.865,134.5,1.8L298.86,95.965c4.65,2.665,4.068,7.316-1.3,10.392l-111.918,64.1c-5.368,3.077-13.49,3.411-18.14.747"
        transform="translate(89 198)" fill="#7dbcdb"/>
  <path id="Fill_205" data-name="Fill 205"
        d="M176.83,177a18.061,18.061,0,0,1-8.836-2.062L4.092,80.684C1.454,79.168,0,76.975,0,74.51c0-2.823,1.965-5.571,5.39-7.541L117,2.811A23.039,23.039,0,0,1,128.169,0a18.056,18.056,0,0,1,8.837,2.064l163.9,94.254c2.639,1.516,4.092,3.709,4.092,6.175,0,2.824-1.966,5.572-5.39,7.54L188,174.191A23.041,23.041,0,0,1,176.83,177ZM128.216,3.847h0a19.192,19.192,0,0,0-9.295,2.286L7.329,70.284c-2.171,1.249-3.468,2.829-3.468,4.227,0,1.332,1.18,2.291,2.17,2.862l163.881,94.241a14.113,14.113,0,0,0,6.871,1.538,19.212,19.212,0,0,0,9.3-2.284l111.593-64.15c2.17-1.248,3.466-2.828,3.466-4.227,0-1.332-1.179-2.291-2.168-2.862L135.089,5.387a14.114,14.114,0,0,0-6.873-1.54Z"
        transform="translate(88 179)" fill="#fffffe"/>
  <path id="Fill_206" data-name="Fill 206"
        d="M199.684,95.527,35.88,1.013A6.615,6.615,0,0,0,30.329.332l.011-.017-.3.112-.073.028-5.92,2.264,5.313,2.6-.075.29L.344,137.149c-1.336,6.074,1.337,13.165,5.972,15.839L166.18,245.23l-.57,6.77,6.469-2.506c2.174-1.016,3.914-3.314,4.633-6.587l28.943-131.542c1.336-6.074-1.337-13.167-5.972-15.839"
        transform="translate(229 0)" fill="#263764"/>
  <path id="Fill_207" data-name="Fill 207"
        d="M190.81,95.423,26.519,1.012a6.658,6.658,0,0,0-5.568-.68l.011-.017-.3.112L20.59.454,14.653,2.715l5.329,2.6-.075.29L0,95.664,80.386,158,196,101.938a12.709,12.709,0,0,0-5.19-6.515"
        transform="translate(238 0)" fill="#3b6397"/>
  <path id="Fill_208" data-name="Fill 208"
        d="M12.415,17l12.567-5.072C25.213,7.316,23.2,2.549,19.892,0L0,7.932,12.415,17" transform="translate(410 97)"
        fill="#2b4876"/>
  <g id="Group_211" data-name="Group 211" transform="translate(217 2)">
    <path id="Clip_210-2" data-name="Clip 210"
          d="M169.628,249.435,6.3,154.784c-4.621-2.677-7.287-9.779-5.956-15.862L29.2,7.19c1.332-6.084,6.156-8.845,10.777-6.166l163.329,94.65c4.621,2.679,7.287,9.78,5.955,15.864L180.4,243.27c-1.332,6.083-6.156,8.843-10.776,6.165"
          transform="translate(0.771 0.771)" fill="none"/>
    <g id="Group_211-2" data-name="Group 211" clip-path="url(#clip-path-6)">
      <path id="Fill_209" data-name="Fill 209"
            d="M169.628,249.435,6.3,154.784c-4.621-2.677-7.287-9.779-5.956-15.862L29.2,7.19c1.332-6.084,6.156-8.845,10.777-6.166l163.329,94.65c4.621,2.679,7.287,9.78,5.955,15.864L180.4,243.27c-1.332,6.083-6.156,8.843-10.776,6.165"
            transform="translate(0.771 0.771)" fill="url(#radial-gradient-4)"/>
    </g>
  </g>
  <path id="Fill_212" data-name="Fill 212"
        d="M170.668,95.937,6.465,1.013A6.486,6.486,0,0,0,0,.731a6.741,6.741,0,0,1,4.889.86l164.2,94.923c4.645,2.686,7.326,9.808,5.987,15.91L146.065,244.537A9.254,9.254,0,0,1,141.7,251c2.773-.606,5.087-3.123,5.946-7.041l29.013-132.113c1.339-6.1-1.341-13.224-5.987-15.909"
        transform="translate(254 2)" fill="#fffffe"/>
  <path id="Fill_213" data-name="Fill 213"
        d="M159.252,231.066,5.759,142.251C1.535,139.805-.9,133.318.313,127.761L26.895,6.568c1.216-5.557,5.629-8.079,9.853-5.633L190.241,89.75c4.225,2.445,6.663,8.933,5.446,14.49L169.106,225.434c-1.216,5.556-5.63,8.077-9.855,5.632"
        transform="translate(226 12)" fill="#fffffe"/>
  <g id="Group_216" data-name="Group 216" transform="translate(224 11)">
    <path id="Clip_215-2" data-name="Clip 215"
          d="M159.742,232.289,5.777,143c-4.238-2.459-6.683-8.98-5.463-14.567L26.978,6.6C28.2,1.016,32.624-1.52,36.861.939L190.827,90.224c4.238,2.458,6.683,8.98,5.463,14.567L169.627,226.627c-1.22,5.585-5.647,8.119-9.885,5.662"
          transform="translate(0.771)" fill="none"/>
    <g id="Group_216-2" data-name="Group 216" clip-path="url(#clip-path-7)">
      <path id="Fill_214" data-name="Fill 214"
            d="M159.742,232.289,5.777,143c-4.238-2.459-6.683-8.98-5.463-14.567L26.978,6.6C28.2,1.016,32.624-1.52,36.861.939L190.827,90.224c4.238,2.458,6.683,8.98,5.463,14.567L169.627,226.627c-1.22,5.585-5.647,8.119-9.885,5.662"
            transform="translate(0.771)" fill="url(#radial-gradient-5)"/>
    </g>
  </g>
  <path id="Fill_217" data-name="Fill 217"
        d="M161.331,230.523,7.129,141.639c-4.243-2.447-6.693-8.94-5.47-14.5L28.361,5.85A8.533,8.533,0,0,1,32.247,0C29.8.629,27.783,2.918,27.019,6.4L.314,127.685c-1.222,5.561,1.227,12.053,5.471,14.5l154.2,88.884a5.935,5.935,0,0,0,6.014.212,6.158,6.158,0,0,1-4.669-.759"
        transform="translate(225 12)" fill="#5589bb"/>
  <path id="Fill_218" data-name="Fill 218"
        d="M302,88.377l-22.468-2.963L134.5,1.808c-4.65-2.679-12.771-2.343-18.141.752L13.586,61.781,0,59.989v7.7H.013c-.089,1.779.926,3.491,3.119,4.755L167.5,167.19c4.649,2.681,12.771,2.345,18.14-.75l111.92-64.5c3.02-1.741,4.527-3.985,4.438-6.091V88.377"
        transform="translate(89 168)" fill="#263764"/>
  <path id="Fill_219" data-name="Fill 219"
        d="M193,5.924,182.7,0H69.426L13.585,32.085,0,30.3v7.675H.013c-.089,1.774.926,3.481,3.119,4.742L167.476,137.2a17.063,17.063,0,0,0,9.361,1.748L193,5.924"
        transform="translate(90 198)" fill="#3b6397"/>
  <path id="Fill_220" data-name="Fill 220" d="M6,.789,0,0V7.629H.013c-.088,1.764.921,3.46,3.1,4.713L6,14V.789"
        transform="translate(89 227)" fill="#5589bb"/>
  <path id="Fill_221" data-name="Fill 221" d="M0,17.972c4.575,1.654,11.115,1.294,16-.948V0H0V17.972"
        transform="translate(259 318)" fill="#2b4876"/>
  <g id="Group_224" data-name="Group 224" transform="translate(89 155)">
    <path id="Clip_223-2" data-name="Clip 223"
          d="M174.929,170.206a16.094,16.094,0,0,1-7.857-1.8L3.131,74.242A6.132,6.132,0,0,1,.247,71.1a4.254,4.254,0,0,0,.423,3.686A4.269,4.269,0,0,1,.006,72.75c-.121-2.2,1.492-4.423,4.424-6.106L22.739,56.131l1.462-.84L62.563,33.264l1.463-.839L102.388,10.4l1.462-.839,12.211-7.012A21.138,21.138,0,0,1,126.3,0a16.123,16.123,0,0,1,7.859,1.8L151.8,11.933l1.462.839,118,67.777,1.462.839L298.1,95.965c2.093,1.2,3.2,2.866,3.128,4.688-.076,1.788-1.283,3.583-3.4,5.056a8.612,8.612,0,0,0,2.91-3.189,4.4,4.4,0,0,0,.246-3.419,8.677,8.677,0,0,1-4.182,4.462l-111.632,64.1A21.147,21.147,0,0,1,174.929,170.206ZM66.053,50.111h0L23.185,74.736l147.1,84.394,42.87-24.623-147.1-84.4Z"
          transform="translate(0)" fill="none"/>
    <g id="Group_224-2" data-name="Group 224" clip-path="url(#clip-path-8)">
      <path id="Fill_222" data-name="Fill 222"
            d="M174.929,170.206a16.094,16.094,0,0,1-7.857-1.8L3.131,74.242A6.132,6.132,0,0,1,.247,71.1a4.254,4.254,0,0,0,.423,3.686A4.269,4.269,0,0,1,.006,72.75c-.121-2.2,1.492-4.423,4.424-6.106L22.739,56.131l1.462-.84L62.563,33.264l1.463-.839L102.388,10.4l1.462-.839,12.211-7.012A21.138,21.138,0,0,1,126.3,0a16.123,16.123,0,0,1,7.859,1.8L151.8,11.933l1.462.839,118,67.777,1.462.839L298.1,95.965c2.093,1.2,3.2,2.866,3.128,4.688-.076,1.788-1.283,3.583-3.4,5.056a8.612,8.612,0,0,0,2.91-3.189,4.4,4.4,0,0,0,.246-3.419,8.677,8.677,0,0,1-4.182,4.462l-111.632,64.1A21.147,21.147,0,0,1,174.929,170.206ZM66.053,50.111h0L23.185,74.736l147.1,84.394,42.87-24.623-147.1-84.4Z"
            transform="translate(0)" fill="url(#radial-gradient-6)"/>
    </g>
  </g>
  <path id="Fill_225" data-name="Fill 225"
        d="M297.568,32.811,185.642,97.6c-5.369,3.109-13.49,3.446-18.141.754L3.129,3.171A6.129,6.129,0,0,1,.239,0c-.728,2.205.2,4.437,2.891,6L167.5,101.182c4.65,2.692,12.772,2.357,18.141-.754L297.568,35.635c3.609-2.09,5.046-4.9,4.194-7.334a8.762,8.762,0,0,1-4.194,4.51"
        transform="translate(89 226)" fill="#fffffe"/>
  <path id="Fill_226" data-name="Fill 226"
        d="M8.034,11.753.412,7.18C-.2,6.814-.122,6.171.585,5.747L9.579.35a2.562,2.562,0,0,1,2.387-.1L19.588,4.82c.611.366.534,1.009-.172,1.431l-8.994,5.4a2.567,2.567,0,0,1-2.387.1"
        transform="translate(154 190)" fill="#5589bb"/>
  <path id="Fill_227" data-name="Fill 227"
        d="M8.033,10.772.413,6.581C-.2,6.246-.122,5.657.584,5.269l9-4.947a2.771,2.771,0,0,1,2.386-.1l7.621,4.192c.613.336.535.925-.172,1.313L10.42,10.679a2.768,2.768,0,0,1-2.387.093"
        transform="translate(166 196)" fill="#5589bb"/>
  <path id="Fill_228" data-name="Fill 228"
        d="M7.633,11.752.393,7.179c-.582-.368-.509-1.009.162-1.433L9.1.35a2.331,2.331,0,0,1,2.268-.1L18.608,4.82c.581.368.509,1.009-.162,1.433L9.9,11.649a2.325,2.325,0,0,1-2.267.1"
        transform="translate(177 203)" fill="#5589bb"/>
  <path id="Fill_229" data-name="Fill 229"
        d="M7.36,10.754.378,6.238c-.56-.362-.489-1,.158-1.414L7.454.347A2.192,2.192,0,0,1,9.64.246l6.981,4.517c.561.362.491,1-.156,1.414L9.547,10.653a2.195,2.195,0,0,1-2.187.1"
        transform="translate(194 198)" fill="#5589bb"/>
  <path id="Fill_230" data-name="Fill 230"
        d="M7.361,9.777.378,5.67c-.56-.33-.491-.906.158-1.287L7.452.315A2.393,2.393,0,0,1,9.639.222l6.982,4.107c.56.33.491.906-.158,1.287L9.548,9.685a2.389,2.389,0,0,1-2.187.092"
        transform="translate(206 206)" fill="#5589bb"/>
  <path id="Fill_231" data-name="Fill 231"
        d="M7.793,10.755.4,6.238c-.594-.363-.519-1,.166-1.415L7.891.347a2.446,2.446,0,0,1,2.316-.1L17.6,4.762c.593.363.518,1-.167,1.415l-7.326,4.476a2.443,2.443,0,0,1-2.314.1"
        transform="translate(217 211)" fill="#5589bb"/>
  <path id="Fill_232" data-name="Fill 232"
        d="M7.793,10.757.4,6.237c-.594-.362-.519-1,.166-1.414L7.893.347a2.443,2.443,0,0,1,2.314-.1L17.6,4.763c.594.363.521,1-.166,1.414l-7.324,4.476a2.454,2.454,0,0,1-2.316.1"
        transform="translate(228 218)" fill="#5589bb"/>
  <path id="Fill_233" data-name="Fill 233"
        d="M7.36,9.777.378,5.671c-.56-.33-.491-.906.158-1.286L7.452.316A2.392,2.392,0,0,1,9.641.222L16.622,4.33c.56.329.491.9-.156,1.286L9.548,9.685a2.389,2.389,0,0,1-2.187.092"
        transform="translate(240 226)" fill="#5589bb"/>
  <path id="Fill_234" data-name="Fill 234"
        d="M7.36,10.756.379,6.238c-.561-.363-.491-1,.156-1.416L7.453.346A2.2,2.2,0,0,1,9.64.245l6.982,4.518c.56.363.489,1-.158,1.416L9.547,10.654a2.2,2.2,0,0,1-2.187.1"
        transform="translate(252 231)" fill="#5589bb"/>
  <path id="Fill_235" data-name="Fill 235"
        d="M7.36,9.778.379,5.672c-.561-.33-.491-.906.156-1.288L7.453.315A2.389,2.389,0,0,1,9.64.223L16.621,4.33c.561.33.492.906-.156,1.287L9.547,9.685a2.393,2.393,0,0,1-2.187.094"
        transform="translate(263 239)" fill="#5589bb"/>
  <path id="Fill_236" data-name="Fill 236"
        d="M7.361,10.755.378,6.237c-.56-.362-.491-1,.158-1.414L7.454.347a2.2,2.2,0,0,1,2.187-.1l6.981,4.518c.56.362.489,1-.156,1.414L9.548,10.654a2.2,2.2,0,0,1-2.187.1"
        transform="translate(275 245)" fill="#5589bb"/>
  <path id="Fill_237" data-name="Fill 237"
        d="M7.794,9.777.4,5.671c-.593-.33-.518-.906.167-1.288L7.891.315A2.666,2.666,0,0,1,10.207.222L17.6,4.328c.593.33.518.906-.167,1.287L10.109,9.685a2.659,2.659,0,0,1-2.314.092"
        transform="translate(285 252)" fill="#5589bb"/>
  <path id="Fill_238" data-name="Fill 238"
        d="M7.792,10.755.4,6.238c-.593-.363-.518-1,.166-1.415L7.891.347a2.446,2.446,0,0,1,2.316-.1L17.6,4.763c.593.362.519,1-.167,1.415l-7.325,4.476a2.45,2.45,0,0,1-2.316.1"
        transform="translate(297 258)" fill="#5589bb"/>
  <path id="Fill_239" data-name="Fill 239"
        d="M7.359,10.754.378,6.237c-.56-.362-.489-1,.156-1.414L7.453.347a2.2,2.2,0,0,1,2.186-.1l6.982,4.517c.561.362.491,1-.158,1.416L9.547,10.654a2.2,2.2,0,0,1-2.188.1"
        transform="translate(211 195)" fill="#5589bb"/>
  <path id="Fill_240" data-name="Fill 240"
        d="M7.36,9.777.378,5.67c-.56-.329-.491-.9.158-1.286L7.454.315A2.389,2.389,0,0,1,9.641.223l6.981,4.106c.56.33.491.906-.156,1.286L9.548,9.684a2.385,2.385,0,0,1-2.187.092"
        transform="translate(199 189)" fill="#5589bb"/>
  <path id="Fill_241" data-name="Fill 241"
        d="M16.612,15.759.407,6.156C-.2,5.8-.12,5.174.576,4.76L8.032.343a2.551,2.551,0,0,1,2.356-.1l16.205,9.6c.6.359.527.984-.169,1.4l-7.456,4.416a2.56,2.56,0,0,1-2.356.1"
        transform="translate(179 177)" fill="#5589bb"/>
  <path id="Fill_242" data-name="Fill 242"
        d="M13.023,13.761.391,6.075c-.58-.354-.506-.97.163-1.38L7.716.337a2.4,2.4,0,0,1,2.262-.1L22.609,7.928c.58.352.506.97-.162,1.377l-7.161,4.359a2.4,2.4,0,0,1-2.262.1"
        transform="translate(190 171)" fill="#5589bb"/>
  <path id="Fill_243" data-name="Fill 243"
        d="M7.793,9.777.4,5.67c-.594-.33-.521-.906.166-1.287L7.892.315A2.67,2.67,0,0,1,10.207.221L17.6,4.329c.594.33.521.906-.166,1.287L10.108,9.685a2.662,2.662,0,0,1-2.316.092"
        transform="translate(221 202)" fill="#5589bb"/>
  <path id="Fill_244" data-name="Fill 244"
        d="M7.794,10.755.4,6.238c-.594-.363-.519-1,.167-1.415L7.891.347a2.448,2.448,0,0,1,2.317-.1L17.6,4.762c.593.363.518,1-.166,1.415l-7.326,4.477a2.447,2.447,0,0,1-2.314.1"
        transform="translate(233 208)" fill="#5589bb"/>
  <path id="Fill_245" data-name="Fill 245"
        d="M7.792,10.755.4,6.237c-.593-.362-.518-1,.166-1.414L7.892.346a2.447,2.447,0,0,1,2.314-.1L17.6,4.763c.594.363.519,1-.167,1.414l-7.323,4.476a2.448,2.448,0,0,1-2.317.1"
        transform="translate(245 216)" fill="#5589bb"/>
  <path id="Fill_246" data-name="Fill 246"
        d="M7.36,9.777.379,5.671c-.561-.33-.492-.906.156-1.287L7.453.316A2.389,2.389,0,0,1,9.64.222l6.981,4.107c.561.329.492.9-.156,1.286L9.547,9.684a2.385,2.385,0,0,1-2.187.092"
        transform="translate(256 222)" fill="#5589bb"/>
  <path id="Fill_247" data-name="Fill 247"
        d="M7.361,10.755.379,6.238c-.561-.363-.491-1,.156-1.415L7.454.346a2.2,2.2,0,0,1,2.187-.1l6.981,4.518c.56.363.489,1-.156,1.415L9.547,10.654a2.2,2.2,0,0,1-2.186.1"
        transform="translate(268 229)" fill="#5589bb"/>
  <path id="Fill_248" data-name="Fill 248"
        d="M7.36,9.778.378,5.671c-.56-.329-.489-.9.158-1.286L7.452.316A2.386,2.386,0,0,1,9.639.223l6.982,4.106c.56.33.491.906-.158,1.287L9.547,9.684a2.39,2.39,0,0,1-2.187.094"
        transform="translate(280 236)" fill="#5589bb"/>
  <path id="Fill_249" data-name="Fill 249"
        d="M7.792,10.755.4,6.237c-.593-.363-.519-1,.166-1.414L7.891.347a2.446,2.446,0,0,1,2.316-.1L17.6,4.763c.593.362.518,1-.167,1.414l-7.325,4.476a2.45,2.45,0,0,1-2.316.1"
        transform="translate(290 241)" fill="#5589bb"/>
  <path id="Fill_250" data-name="Fill 250"
        d="M7.794,9.777.4,5.671c-.593-.33-.518-.906.167-1.287L7.893.315A2.659,2.659,0,0,1,10.207.223L17.6,4.329c.593.33.519.906-.166,1.287L10.108,9.685a2.659,2.659,0,0,1-2.314.092"
        transform="translate(302 249)" fill="#5589bb"/>
  <path id="Fill_251" data-name="Fill 251"
        d="M7.793,10.757.4,6.239c-.593-.363-.518-1,.167-1.416L7.89.347a2.449,2.449,0,0,1,2.317-.1L17.6,4.763c.593.363.519,1-.166,1.416l-7.325,4.475a2.454,2.454,0,0,1-2.316.1"
        transform="translate(314 254)" fill="#5589bb"/>
  <path id="Fill_252" data-name="Fill 252"
        d="M16.694,15.76.4,6.108c-.6-.354-.523-.976.169-1.386L7.969.338a2.542,2.542,0,0,1,2.338-.1L26.6,9.891c.6.356.523.976-.169,1.386l-7.4,4.383a2.542,2.542,0,0,1-2.338.1"
        transform="translate(325 261)" fill="#5589bb"/>
  <path id="Fill_253" data-name="Fill 253"
        d="M14.466,13.768.414,5.9C-.2,5.557-.122,4.958.586,4.561L8.146.328a2.728,2.728,0,0,1,2.39-.1L24.586,8.1c.612.344.536.943-.171,1.339l-7.56,4.233a2.728,2.728,0,0,1-2.39.1"
        transform="translate(349 250)" fill="#5589bb"/>
  <path id="Fill_254" data-name="Fill 254"
        d="M7.793,10.757.4,6.237c-.593-.362-.518-1,.167-1.414L7.89.347a2.449,2.449,0,0,1,2.317-.1L17.6,4.763c.593.363.519,1-.166,1.416l-7.325,4.475a2.454,2.454,0,0,1-2.316.1"
        transform="translate(241 201)" fill="#5589bb"/>
  <path id="Fill_255" data-name="Fill 255"
        d="M7.794,10.755.4,6.238c-.594-.363-.519-1,.167-1.416L7.892.346a2.449,2.449,0,0,1,2.316-.1L17.6,4.763c.594.362.519,1-.166,1.416l-7.325,4.476a2.447,2.447,0,0,1-2.314.1"
        transform="translate(230 194)" fill="#5589bb"/>
  <path id="Fill_256" data-name="Fill 256"
        d="M7.36,9.777.379,5.67c-.561-.33-.491-.906.156-1.287L7.453.315A2.393,2.393,0,0,1,9.64.222l6.981,4.107c.561.329.492.9-.156,1.287L9.547,9.685a2.389,2.389,0,0,1-2.187.091"
        transform="translate(219 187)" fill="#5589bb"/>
  <path id="Fill_257" data-name="Fill 257"
        d="M7.36,9.777.378,5.671c-.56-.329-.491-.9.156-1.286L7.453.316A2.385,2.385,0,0,1,9.64.223l6.982,4.106c.56.33.489.906-.158,1.286L9.547,9.684a2.385,2.385,0,0,1-2.187.092"
        transform="translate(208 181)" fill="#5589bb"/>
  <path id="Fill_258" data-name="Fill 258"
        d="M7.792,9.777.4,5.671c-.593-.33-.519-.906.166-1.287L7.891.315A2.662,2.662,0,0,1,10.207.223L17.6,4.33c.593.329.518.9-.167,1.286L10.11,9.685a2.665,2.665,0,0,1-2.317.092"
        transform="translate(253 207)" fill="#5589bb"/>
  <path id="Fill_259" data-name="Fill 259"
        d="M7.792,10.755.4,6.237c-.593-.363-.518-1,.166-1.416L7.892.346a2.451,2.451,0,0,1,2.314-.1L17.6,4.762c.594.363.519,1-.166,1.416l-7.326,4.476a2.45,2.45,0,0,1-2.316.1"
        transform="translate(265 214)" fill="#5589bb"/>
  <path id="Fill_260" data-name="Fill 260"
        d="M7.36,9.778.378,5.672c-.56-.33-.491-.906.158-1.288L7.454.315A2.389,2.389,0,0,1,9.641.223L16.622,4.33c.56.33.491.906-.156,1.287L9.548,9.685a2.393,2.393,0,0,1-2.187.094"
        transform="translate(276 221)" fill="#5589bb"/>
  <path id="Fill_261" data-name="Fill 261"
        d="M7.361,10.754.379,6.237c-.561-.362-.491-1,.158-1.414L7.453.347a2.2,2.2,0,0,1,2.188-.1l6.981,4.518c.56.362.489,1-.156,1.414L9.547,10.654a2.2,2.2,0,0,1-2.186.1"
        transform="translate(288 227)" fill="#5589bb"/>
  <path id="Fill_262" data-name="Fill 262"
        d="M7.359,10.755.378,6.237c-.56-.362-.489-1,.156-1.416L7.453.346a2.2,2.2,0,0,1,2.186-.1l6.982,4.517c.561.363.491,1-.158,1.416L9.547,10.653a2.2,2.2,0,0,1-2.188.1"
        transform="translate(299 234)" fill="#5589bb"/>
  <path id="Fill_263" data-name="Fill 263"
        d="M7.793,9.777.4,5.671c-.594-.33-.521-.906.166-1.287L7.892.315A2.666,2.666,0,0,1,10.207.222L17.6,4.33c.594.329.521.906-.166,1.287L10.108,9.686a2.666,2.666,0,0,1-2.316.091"
        transform="translate(310 241)" fill="#5589bb"/>
  <path id="Fill_264" data-name="Fill 264"
        d="M7.794,10.756.4,6.237c-.594-.361-.519-1,.167-1.414L7.891.346a2.448,2.448,0,0,1,2.317-.1L17.6,4.762c.593.363.518,1-.166,1.414l-7.326,4.476a2.447,2.447,0,0,1-2.314.1"
        transform="translate(322 247)" fill="#5589bb"/>
  <path id="Fill_265" data-name="Fill 265"
        d="M7.792,9.777.4,5.67c-.593-.33-.518-.906.166-1.286L7.892.315A2.663,2.663,0,0,1,10.206.222L17.6,4.329c.594.329.519.9-.167,1.287L10.109,9.685a2.664,2.664,0,0,1-2.317.091"
        transform="translate(333 254)" fill="#5589bb"/>
  <path id="Fill_266" data-name="Fill 266"
        d="M7.36,10.755.379,6.237c-.561-.363-.492-1,.156-1.415L7.453.346A2.2,2.2,0,0,1,9.64.244l6.981,4.518c.561.363.492,1-.156,1.415L9.547,10.653a2.2,2.2,0,0,1-2.187.1"
        transform="translate(345 260)" fill="#5589bb"/>
  <path id="Fill_267" data-name="Fill 267"
        d="M7.361,9.777.378,5.67c-.56-.33-.491-.906.158-1.287L7.454.315A2.4,2.4,0,0,1,9.641.221l6.981,4.107c.56.33.489.906-.156,1.287L9.548,9.685a2.389,2.389,0,0,1-2.187.092"
        transform="translate(237 185)" fill="#5589bb"/>
  <path id="Fill_268" data-name="Fill 268"
        d="M7.359,10.755.378,6.237c-.56-.363-.489-1,.156-1.416L7.452.346a2.205,2.205,0,0,1,2.187-.1l6.982,4.518c.56.363.491,1-.158,1.416L9.547,10.654a2.2,2.2,0,0,1-2.188.1"
        transform="translate(225 177)" fill="#5589bb"/>
  <path id="Fill_269" data-name="Fill 269"
        d="M7.36,9.778.378,5.67c-.56-.328-.489-.9.158-1.286L7.454.315A2.39,2.39,0,0,1,9.64.222L16.622,4.33c.56.33.489.906-.156,1.286L9.547,9.685a2.393,2.393,0,0,1-2.187.094"
        transform="translate(213 172)" fill="#5589bb"/>
  <path id="Fill_270" data-name="Fill 270"
        d="M7.792,10.755.4,6.237c-.593-.362-.519-1,.166-1.414L7.891.346a2.45,2.45,0,0,1,2.316-.1L17.6,4.763c.593.362.518,1-.167,1.414L10.11,10.653a2.449,2.449,0,0,1-2.317.1"
        transform="translate(202 164)" fill="#5589bb"/>
  <path id="Fill_271" data-name="Fill 271"
        d="M8.33,6.785l-7.9-3.95C-.206,2.517-.126,1.963.606,1.6L3.194.3A3.13,3.13,0,0,1,5.669.215l7.9,3.95c.635.318.557.872-.177,1.238L10.8,6.7a3.127,3.127,0,0,1-2.474.088"
        transform="translate(213 161)" fill="#5589bb"/>
  <path id="Fill_272" data-name="Fill 272"
        d="M7.736,6.786.4,2.834c-.589-.317-.516-.87.166-1.238L2.966.3a2.717,2.717,0,0,1,2.3-.089L12.6,4.166c.589.317.514.872-.166,1.237L10.034,6.7a2.717,2.717,0,0,1-2.3.089"
        transform="translate(228 169)" fill="#5589bb"/>
  <path id="Fill_273" data-name="Fill 273"
        d="M7.735,6.786.4,2.835c-.59-.318-.517-.872.164-1.238L2.966.3a2.722,2.722,0,0,1,2.3-.089L12.6,4.165c.59.317.517.87-.164,1.237l-2.4,1.3a2.723,2.723,0,0,1-2.3.089"
        transform="translate(239 176)" fill="#5589bb"/>
  <path id="Fill_274" data-name="Fill 274"
        d="M7.735,6.786.4,2.835C-.192,2.518-.117,1.964.563,1.6L2.966.3a2.729,2.729,0,0,1,2.3-.09L12.6,4.165c.589.318.514.872-.164,1.238L10.034,6.7a2.722,2.722,0,0,1-2.3.089"
        transform="translate(250 183)" fill="#5589bb"/>
  <path id="Fill_275" data-name="Fill 275"
        d="M7.735,6.787.4,2.834c-.59-.315-.516-.869.164-1.237L2.966.3a2.722,2.722,0,0,1,2.3-.089L12.6,4.166c.589.317.516.87-.166,1.238L10.034,6.7a2.722,2.722,0,0,1-2.3.09"
        transform="translate(262 189)" fill="#5589bb"/>
  <path id="Fill_276" data-name="Fill 276"
        d="M7.735,6.785.4,2.835C-.192,2.517-.117,1.963.563,1.6L2.966.3a2.722,2.722,0,0,1,2.3-.089L12.6,4.165c.589.317.514.872-.166,1.237l-2.4,1.3a2.717,2.717,0,0,1-2.3.088"
        transform="translate(326 226)" fill="#5589bb"/>
  <path id="Fill_277" data-name="Fill 277"
        d="M7.735,6.786.4,2.836c-.59-.318-.516-.872.164-1.239L2.966.3a2.722,2.722,0,0,1,2.3-.09L12.6,4.166c.59.315.517.87-.164,1.237L10.033,6.7a2.719,2.719,0,0,1-2.3.089"
        transform="translate(338 232)" fill="#5589bb"/>
  <path id="Fill_278" data-name="Fill 278"
        d="M7.735,6.787.4,2.835C-.192,2.518-.117,1.964.563,1.6L2.966.3a2.72,2.72,0,0,1,2.3-.089L12.6,4.165c.589.318.514.872-.164,1.238L10.034,6.7a2.722,2.722,0,0,1-2.3.09"
        transform="translate(348 239)" fill="#5589bb"/>
  <path id="Fill_279" data-name="Fill 279"
        d="M7.735,6.785.4,2.835c-.589-.317-.516-.87.164-1.237L2.965.3a2.726,2.726,0,0,1,2.3-.089L12.6,4.165c.589.318.516.872-.166,1.238L10.035,6.7a2.72,2.72,0,0,1-2.3.088"
        transform="translate(360 246)" fill="#5589bb"/>
  <path id="Fill_280" data-name="Fill 280"
        d="M7.794,9.777.4,5.671c-.593-.33-.518-.906.167-1.287L7.891.315A2.659,2.659,0,0,1,10.206.223L17.6,4.329c.593.33.518.906-.167,1.287L10.109,9.685a2.659,2.659,0,0,1-2.314.092"
        transform="translate(247 192)" fill="#5589bb"/>
  <path id="Fill_281" data-name="Fill 281"
        d="M7.792,10.756.4,6.237c-.593-.362-.518-1,.166-1.414L7.891.347a2.446,2.446,0,0,1,2.316-.1L17.6,4.763c.593.363.519,1-.167,1.414l-7.325,4.476a2.45,2.45,0,0,1-2.316.1"
        transform="translate(259 197)" fill="#5589bb"/>
  <path id="Fill_282" data-name="Fill 282"
        d="M7.793,9.777.4,5.671c-.593-.33-.519-.906.167-1.286L7.892.316A2.662,2.662,0,0,1,10.208.222L17.6,4.329c.593.329.519.9-.166,1.286L10.109,9.684a2.658,2.658,0,0,1-2.316.092"
        transform="translate(270 205)" fill="#5589bb"/>
  <path id="Fill_283" data-name="Fill 283"
        d="M7.36,10.756.378,6.238c-.56-.363-.489-1,.158-1.416L7.453.346A2.2,2.2,0,0,1,9.64.245l6.981,4.518c.561.363.491,1-.155,1.416L9.547,10.654a2.2,2.2,0,0,1-2.187.1"
        transform="translate(282 211)" fill="#5589bb"/>
  <path id="Fill_284" data-name="Fill 284"
        d="M7.359,9.778.378,5.672c-.56-.33-.491-.906.156-1.287L7.452.315A2.389,2.389,0,0,1,9.64.223L16.622,4.33c.56.33.491.906-.158,1.287L9.548,9.685a2.4,2.4,0,0,1-2.188.094"
        transform="translate(294 218)" fill="#5589bb"/>
  <path id="Fill_285" data-name="Fill 285"
        d="M7.36,10.755.379,6.237c-.561-.362-.492-1,.156-1.414L7.453.347A2.2,2.2,0,0,1,9.64.245l6.981,4.518c.561.362.491,1-.156,1.414L9.546,10.654a2.2,2.2,0,0,1-2.186.1"
        transform="translate(305 224)" fill="#5589bb"/>
  <path id="Fill_286" data-name="Fill 286"
        d="M7.36,9.777.378,5.671c-.56-.33-.489-.906.158-1.288L7.453.315A2.393,2.393,0,0,1,9.64.222l6.981,4.106c.561.33.491.906-.156,1.287L9.547,9.685a2.389,2.389,0,0,1-2.187.092"
        transform="translate(317 230)" fill="#5589bb"/>
  <path id="Fill_287" data-name="Fill 287"
        d="M7.792,9.778.4,5.671c-.593-.33-.519-.906.166-1.287L7.891.315A2.662,2.662,0,0,1,10.207.223L17.6,4.33c.593.329.519.906-.167,1.287L10.109,9.686a2.673,2.673,0,0,1-2.317.092"
        transform="translate(328 238)" fill="#5589bb"/>
  <path id="Fill_288" data-name="Fill 288"
        d="M7.793,10.756.4,6.237c-.6-.361-.521-.994.166-1.414L7.892.346a2.445,2.445,0,0,1,2.316-.1L17.6,4.762c.593.363.518,1-.167,1.414l-7.325,4.476a2.447,2.447,0,0,1-2.314.1"
        transform="translate(339 244)" fill="#5589bb"/>
  <path id="Fill_289" data-name="Fill 289"
        d="M21.913,17.777.4,5.674c-.586-.329-.512-.905.165-1.286L7.8.315a2.6,2.6,0,0,1,2.29-.092L31.6,12.325c.586.33.512.907-.164,1.288L24.2,17.685a2.6,2.6,0,0,1-2.287.092"
        transform="translate(168 184)" fill="#5589bb"/>
  <path id="Fill_290" data-name="Fill 290"
        d="M21.913,17.778.4,5.676c-.586-.33-.512-.907.165-1.289L7.8.315A2.6,2.6,0,0,1,10.088.224L31.6,12.325c.586.33.513.907-.164,1.288L24.2,17.685a2.606,2.606,0,0,1-2.289.092"
        transform="translate(308 265)" fill="#5589bb"/>
  <path id="Fill_291" data-name="Fill 291"
        d="M7.632,10.773.392,6.581c-.581-.336-.507-.923.164-1.312L9.1.322A2.512,2.512,0,0,1,11.368.227l7.24,4.191c.581.336.507.923-.164,1.313L9.9,10.678a2.513,2.513,0,0,1-2.268.1"
        transform="translate(277 261)" fill="#5589bb"/>
  <path id="Fill_292" data-name="Fill 292"
        d="M12.309,13.764.4,6.82c-.6-.349-.522-.958.168-1.361L9.358.333a2.566,2.566,0,0,1,2.332-.1L23.6,7.18c.6.349.522.958-.168,1.361l-8.787,5.126a2.569,2.569,0,0,1-2.333.1"
        transform="translate(189 210)" fill="#5589bb"/>
  <path id="Fill_293" data-name="Fill 293"
        d="M12.309,13.764.4,6.82c-.6-.349-.523-.958.168-1.361L9.358.333a2.568,2.568,0,0,1,2.331-.1L23.6,7.181c.6.348.523.957-.167,1.359l-8.788,5.126a2.566,2.566,0,0,1-2.332.1"
        transform="translate(261 251)" fill="#5589bb"/>
  <path id="Fill_294" data-name="Fill 294"
        d="M12.31,13.765.4,6.82c-.6-.349-.522-.958.168-1.359L9.358.333a2.571,2.571,0,0,1,2.332-.1L23.6,7.181c.6.348.523.957-.168,1.359l-8.787,5.126a2.571,2.571,0,0,1-2.332.1"
        transform="translate(205 219)" fill="#5589bb"/>
  <path id="Fill_295" data-name="Fill 295"
        d="M11.191,0,62.522,30.146a.718.718,0,0,1,0,1.353l-8.885,5.22a2.513,2.513,0,0,1-2.307,0L0,6.573,11.191,0"
        transform="translate(207 219)" fill="#5589bb"/>
  <path id="Fill_296" data-name="Fill 296"
        d="M6.139.181,14.66,4.726c.5.269.44.738-.142,1.047l-3.695,1.97a2.344,2.344,0,0,1-1.964.075L.34,3.273c-.5-.268-.44-.738.142-1.047L4.176.256A2.348,2.348,0,0,1,6.139.181"
        transform="translate(310 284)" fill="#5589bb"/>
  <path id="Fill_297" data-name="Fill 297"
        d="M5.729.182l7.955,4.545c.469.269.41.738-.133,1.047L10.1,7.743a2.056,2.056,0,0,1-1.833.075L.317,3.274c-.47-.269-.41-.738.132-1.047L3.9.256A2.056,2.056,0,0,1,5.729.182"
        transform="translate(299 276)" fill="#5589bb"/>
  <path id="Fill_298" data-name="Fill 298"
        d="M6.139.181,14.66,4.725c.5.269.44.738-.14,1.048l-3.695,1.97a2.347,2.347,0,0,1-1.965.075L.34,3.275c-.5-.269-.441-.738.14-1.048L4.175.258A2.34,2.34,0,0,1,6.139.181"
        transform="translate(288 271)" fill="#5589bb"/>
  <path id="Fill_299" data-name="Fill 299"
        d="M6.139.182,14.66,4.726c.5.268.44.737-.142,1.047L10.824,7.744a2.343,2.343,0,0,1-1.964.074L.34,3.274C-.164,3-.1,2.536.481,2.227L4.176.257A2.339,2.339,0,0,1,6.139.182"
        transform="translate(305 274)" fill="#5589bb"/>
  <path id="Fill_300" data-name="Fill 300" d="M19.183,15,0,4.074.817,0,20,10.926,19.183,15"
        transform="translate(269 59)" fill="#d4eaf2"/>
  <path id="Fill_301" data-name="Fill 301" d="M18.224,15,0,4.075.777,0,19,10.925,18.224,15"
        transform="translate(268 68)" fill="#fffffe"/>
  <path id="Fill_302" data-name="Fill 302" d="M19.182,15,0,4.074.818,0,20,10.926,19.182,15"
        transform="translate(359 197)" fill="#d4eaf2"/>
  <path id="Fill_303" data-name="Fill 303" d="M18.224,15,0,4.074.777,0,19,10.926,18.224,15"
        transform="translate(264 86)" fill="#d4eaf2"/>
  <path id="Fill_304" data-name="Fill 304" d="M70.1,44,0,4.452.9,0,71,39.545,70.1,44" transform="translate(292 109)"
        fill="#d4eaf2"/>
  <path id="Fill_305" data-name="Fill 305" d="M49.1,32,0,4.444.9,0,50,27.555,49.1,32" transform="translate(288 129)"
        fill="#d4eaf2"/>
  <path id="Fill_306" data-name="Fill 306" d="M41.124,28,0,4.4.877,0,42,23.6,41.124,28" transform="translate(291 120)"
        fill="#fffffe"/>
  <path id="Fill_307" data-name="Fill 307"
        d="M5.711,4.465A2.858,2.858,0,0,1,1.717,5.616,3.151,3.151,0,0,1,.288,1.534,2.86,2.86,0,0,1,4.282.383,3.149,3.149,0,0,1,5.711,4.465"
        transform="translate(318 105)" fill="#da3685"/>
  <path id="Fill_308" data-name="Fill 308"
        d="M5.711,4.465A2.857,2.857,0,0,1,1.718,5.616,3.149,3.149,0,0,1,.289,1.535,2.858,2.858,0,0,1,4.282.384a3.149,3.149,0,0,1,1.43,4.082"
        transform="translate(327 110)" fill="#fffffe"/>
  <path id="Fill_309" data-name="Fill 309"
        d="M5.712,4.465A2.861,2.861,0,0,1,1.718,5.618,3.15,3.15,0,0,1,.289,1.536,2.859,2.859,0,0,1,4.283.384,3.151,3.151,0,0,1,5.712,4.465"
        transform="translate(336 115)" fill="#d4eaf2"/>
  <path id="Fill_310" data-name="Fill 310"
        d="M5.711,4.466A2.861,2.861,0,0,1,1.717,5.617,3.152,3.152,0,0,1,.288,1.534,2.862,2.862,0,0,1,4.282.382,3.152,3.152,0,0,1,5.711,4.466"
        transform="translate(345 120)" fill="#da3685"/>
  <path id="Fill_311" data-name="Fill 311" d="M21.1,17,0,4.617.9,0,22,12.383,21.1,17" transform="translate(339 147)"
        fill="#da3685"/>
  <path id="Fill_312" data-name="Fill 312"
        d="M55.03,50.494.894,19.817c-1.323-.75-1.158-2.059.37-2.926L29.81.717A5.827,5.827,0,0,1,34.97.506L89.108,31.183c1.322.75,1.156,2.061-.371,2.926L60.193,50.283a5.833,5.833,0,0,1-5.163.21"
        transform="translate(162 234)" fill="#fffffe"/>
  <g id="Group_315" data-name="Group 315" transform="translate(112 206)">
    <path id="Clip_314-2" data-name="Clip 314"
          d="M147.473,108.462h0L0,24.5,42.978,0,190.452,83.964l-42.979,24.5ZM82.43,28.083a6.09,6.09,0,0,0-2.934.725L50.789,45.169a2.124,2.124,0,0,0-1.271,1.674,1.533,1.533,0,0,0,.9,1.286L104.858,79.16a4.649,4.649,0,0,0,2.255.512,6.113,6.113,0,0,0,2.938-.724l28.705-16.363a2.122,2.122,0,0,0,1.27-1.673,1.532,1.532,0,0,0-.9-1.286L84.685,28.595Z"
          transform="translate(0.774 0.769)" fill="none"/>
    <g id="Group_315-2" data-name="Group 315" clip-path="url(#clip-path-9)">
      <path id="Fill_313" data-name="Fill 313"
            d="M147.473,108.462h0L0,24.5,42.978,0,190.452,83.964l-42.979,24.5ZM82.43,28.083a6.09,6.09,0,0,0-2.934.725L50.789,45.169a2.124,2.124,0,0,0-1.271,1.674,1.533,1.533,0,0,0,.9,1.286L104.858,79.16a4.649,4.649,0,0,0,2.255.512,6.113,6.113,0,0,0,2.938-.724l28.705-16.363a2.122,2.122,0,0,0,1.27-1.673,1.532,1.532,0,0,0-.9-1.286L84.685,28.595A4.651,4.651,0,0,0,82.43,28.083Z"
            transform="translate(0.774 0.769)" fill="url(#radial-gradient-7)"/>
    </g>
  </g>
  <path id="Fill_316" data-name="Fill 316"
        d="M57.271,51a4.641,4.641,0,0,1-2.242-.506L.894,19.817c-1.323-.75-1.158-2.059.37-2.926L29.81.717A6.073,6.073,0,0,1,32.727,0,4.646,4.646,0,0,1,34.97.506L89.108,31.183c1.322.75,1.156,2.061-.371,2.926L60.193,50.283A6.1,6.1,0,0,1,57.271,51"
        transform="translate(162 234)" fill="#8596ac"/>
  <path id="Fill_317" data-name="Fill 317"
        d="M148.98,114a2.256,2.256,0,0,1-1.129-.3L1.13,28.952a2.266,2.266,0,0,1,0-3.921L43.889.3a2.257,2.257,0,0,1,2.258,0L192.869,85.048a2.266,2.266,0,0,1,0,3.923L150.111,113.7A2.255,2.255,0,0,1,148.98,114ZM45.1,5.392,6.928,27.447,148.9,109.379l38.176-22.057Z"
        transform="translate(110 182)" fill="#fffffe"/>
  <path id="Fill_318" data-name="Fill 318"
        d="M2,61a1.915,1.915,0,0,1-2-1.815V1.817A1.915,1.915,0,0,1,2,0,1.915,1.915,0,0,1,4,1.817V59.185A1.915,1.915,0,0,1,2,61"
        transform="translate(180 164)" fill="#3b6397"/>
  <g id="Group_321" data-name="Group 321" transform="translate(172 160)">
    <path id="Clip_320-2" data-name="Clip 320"
          d="M0,0V38.476c0,1.318.853,2.633,2.56,3.638a13.425,13.425,0,0,0,12.361,0c1.706-1.006,2.56-2.322,2.56-3.64V0H0"
          transform="translate(0.76 0.765)" fill="none"/>
    <g id="Group_321-2" data-name="Group 321" clip-path="url(#clip-path-10)">
      <path id="Fill_319" data-name="Fill 319"
            d="M0,0V38.476c0,1.318.853,2.633,2.56,3.638a13.425,13.425,0,0,0,12.361,0c1.706-1.006,2.56-2.322,2.56-3.64V0H0"
            transform="translate(0.76 0.765)" fill="url(#radial-gradient-8)"/>
    </g>
  </g>
  <path id="Fill_322" data-name="Fill 322" d="M0,1.834V15.163a20.591,20.591,0,0,0,17,0V1.834a20.617,20.617,0,0,0-17,0"
        transform="translate(174 165)" fill="#3b6397"/>
  <g id="Group_325" data-name="Group 325" transform="translate(167 106)">
    <path id="Clip_324-2" data-name="Clip 324"
          d="M28.373,0H0V60.277c0,2.132,1.385,4.266,4.156,5.892,5.538,3.252,14.521,3.252,20.06,0,2.771-1.626,4.156-3.758,4.156-5.892V0"
          transform="translate(0.627 0.621)" fill="none"/>
    <g id="Group_325-2" data-name="Group 325" clip-path="url(#clip-path-11)">
      <path id="Fill_323" data-name="Fill 323"
            d="M28.373,0H0V60.277c0,2.132,1.385,4.266,4.156,5.892,5.538,3.252,14.521,3.252,20.06,0,2.771-1.626,4.156-3.758,4.156-5.892V0"
            transform="translate(0.627 0.621)" fill="url(#radial-gradient-9)"/>
    </g>
  </g>
  <path id="Fill_326" data-name="Fill 326"
        d="M6,5.065C6,6.794,4.657,7.494,3,6.63A5.9,5.9,0,0,1,0,1.935C0,.207,1.343-.495,3,.371A5.9,5.9,0,0,1,6,5.065"
        transform="translate(173 187)" fill="#d4eaf2"/>
  <path id="Fill_327" data-name="Fill 327"
        d="M2,61a1.916,1.916,0,0,1-2-1.817V1.817A1.915,1.915,0,0,1,2,0,1.915,1.915,0,0,1,4,1.817V59.183A1.916,1.916,0,0,1,2,61"
        transform="translate(236 198)" fill="#3b6397"/>
  <g id="Group_330" data-name="Group 330" transform="translate(228 192)">
    <path id="Clip_329-2" data-name="Clip 329"
          d="M0,0V39.075c0,1.338.9,2.677,2.7,3.7a14.679,14.679,0,0,0,13.055,0c1.8-1.019,2.7-2.358,2.7-3.7V0H0"
          transform="translate(0.769 0.777)" fill="none"/>
    <g id="Group_330-2" data-name="Group 330" clip-path="url(#clip-path-12)">
      <path id="Fill_328" data-name="Fill 328"
            d="M0,0V39.075c0,1.338.9,2.677,2.7,3.7a14.679,14.679,0,0,0,13.055,0c1.8-1.019,2.7-2.358,2.7-3.7V0H0"
            transform="translate(0.769 0.777)" fill="url(#radial-gradient-10)"/>
    </g>
  </g>
  <path id="Fill_331" data-name="Fill 331" d="M0,1.835v13.33a20.606,20.606,0,0,0,17,0V1.835a20.606,20.606,0,0,0-17,0"
        transform="translate(230 197)" fill="#3b6397"/>
  <g id="Group_334" data-name="Group 334" transform="translate(223 138)">
    <path id="Clip_333-2" data-name="Clip 333"
          d="M28.462,0H0V61.151c0,2.163,1.39,4.326,4.168,5.976,5.558,3.3,14.569,3.3,20.127,0,2.778-1.65,4.168-3.813,4.167-5.976V0"
          transform="translate(0.769 0.773)" fill="none"/>
    <g id="Group_334-2" data-name="Group 334" clip-path="url(#clip-path-13)">
      <path id="Fill_332" data-name="Fill 332"
            d="M28.462,0H0V61.151c0,2.163,1.39,4.326,4.168,5.976,5.558,3.3,14.569,3.3,20.127,0,2.778-1.65,4.168-3.813,4.167-5.976V0"
            transform="translate(0.769 0.773)" fill="url(#radial-gradient-11)"/>
    </g>
  </g>
  <path id="Fill_335" data-name="Fill 335"
        d="M6,5.064C6,6.794,4.656,7.494,3,6.63A5.907,5.907,0,0,1,0,1.935C0,.206,1.343-.493,3,.369A5.908,5.908,0,0,1,6,5.064"
        transform="translate(230 220)" fill="#d4eaf2"/>
  <path id="Fill_336" data-name="Fill 336" d="M0,22.149,39,0,37.532,22.149,15.129,29,0,22.149"
        transform="translate(125 40)" fill="#5589bb"/>
  <g id="Group_339" data-name="Group 339" transform="translate(154 16)">
    <path id="Clip_338-2" data-name="Clip 338"
          d="M178.228,173.4c0-15.635-10.95-34.647-24.458-42.463a24.3,24.3,0,0,0-8.359-3.105c-3.894-20.517-18.137-42.3-35.12-52.134a34.338,34.338,0,0,0-14.371-4.874C93.6,45.96,76.353,17.7,55.406,5.575c-10.942-6.333-20.871-7.081-28.2-3.2V2.352l-.356.2c-.186.1-.372.21-.555.321L3.52,16.363l7.57,5.992C4.295,25.331,0,32.97,0,44.259,0,65.079,14.583,90.4,32.572,100.808L143.62,180.291l3.423,23.162,24-14.167.065-.037.144-.086,0,0c4.318-2.606,6.984-8.048,6.984-15.758"
          transform="translate(0 0.774)" fill="none"/>
    <g id="Group_339-2" data-name="Group 339" clip-path="url(#clip-path-14)">
      <path id="Fill_337" data-name="Fill 337"
            d="M178.228,173.4c0-15.635-10.95-34.647-24.458-42.463a24.3,24.3,0,0,0-8.359-3.105c-3.894-20.517-18.137-42.3-35.12-52.134a34.338,34.338,0,0,0-14.371-4.874C93.6,45.96,76.353,17.7,55.406,5.575c-10.942-6.333-20.871-7.081-28.2-3.2V2.352l-.356.2c-.186.1-.372.21-.555.321L3.52,16.363l7.57,5.992C4.295,25.331,0,32.97,0,44.259,0,65.079,14.583,90.4,32.572,100.808L143.62,180.291l3.423,23.162,24-14.167.065-.037.144-.086,0,0c4.318-2.606,6.984-8.048,6.984-15.758"
            transform="translate(0 0.774)" fill="url(#radial-gradient-12)"/>
    </g>
  </g>
  <path id="Fill_340" data-name="Fill 340"
        d="M0,35,51,4.462c-9.9-5.29-18.847-5.729-25.555-2.1V2.346l-.347.2c-.181.1-.363.21-.541.32L2.335,16.32,9.72,22.3C5.086,24.372,1.651,28.725,0,35"
        transform="translate(156 16)" fill="#5589bb"/>
  <path id="Fill_341" data-name="Fill 341"
        d="M39.83,51,78,28.77C71.454,17.533,62.44,7.715,52.459,1.995,51.137,1.238,49.834.577,48.549,0L0,28.177,39.83,51"
        transform="translate(212 91)" fill="#5589bb"/>
  <path id="Fill_342" data-name="Fill 342"
        d="M0,18.061,16.952,28,48,9.429a61.57,61.57,0,0,0-6.974-4.8A43.253,43.253,0,0,0,30.176,0L0,18.061"
        transform="translate(169 17)" fill="#d4eaf2"/>
  <path id="Fill_343" data-name="Fill 343" d="M31.06,0,0,18.091,10.8,30,39,13.544A89.26,89.26,0,0,0,31.06,0"
        transform="translate(255 113)" fill="#d4eaf2"/>
  <g id="Group_346" data-name="Group 346" transform="translate(115 30)">
    <path id="Clip_345-2" data-name="Clip 345"
          d="M168.18,130.737a24.254,24.254,0,0,0-8.345-3.1c-3.888-20.484-18.11-42.238-35.066-52.048a34.279,34.279,0,0,0-14.351-4.868C108.1,45.893,90.88,17.677,69.964,5.575c-22.5-13.016-40.73-2.464-40.73,23.567,0,.883.025,1.774.067,2.667C12.851,24.163,0,32.78,0,52.308c0,20.784,14.56,46.061,32.523,56.454l135.657,78.5c13.488,7.8,24.423,1.477,24.423-14.131s-10.935-34.589-24.423-42.393"
          transform="translate(0.626 0.625)" fill="none"/>
    <g id="Group_346-2" data-name="Group 346" clip-path="url(#clip-path-15)">
      <path id="Fill_344" data-name="Fill 344"
            d="M168.18,130.737a24.254,24.254,0,0,0-8.345-3.1c-3.888-20.484-18.11-42.238-35.066-52.048a34.279,34.279,0,0,0-14.351-4.868C108.1,45.893,90.88,17.677,69.964,5.575c-22.5-13.016-40.73-2.464-40.73,23.567,0,.883.025,1.774.067,2.667C12.851,24.163,0,32.78,0,52.308c0,20.784,14.56,46.061,32.523,56.454l135.657,78.5c13.488,7.8,24.423,1.477,24.423-14.131s-10.935-34.589-24.423-42.393"
            transform="translate(0.626 0.625)" fill="url(#linear-gradient-2)"/>
    </g>
  </g>
  <path id="Fill_347" data-name="Fill 347"
        d="M22,5.026c-.042-.961-.068-1.921-.068-2.87l0-.119C12.789-1.775,4.932-.115,0,6,5.358,1.273,13.148.628,22,5.026"
        transform="translate(123 58)" fill="#fffffe"/>
  <path id="Fill_348" data-name="Fill 348"
        d="M132.475,130.673a24.453,24.453,0,0,0-8.381-3.1c-3.9-20.474-18.186-42.216-35.214-52.024a34.53,34.53,0,0,0-14.411-4.864C72.144,45.87,54.847,17.668,33.844,5.571,19.771-2.534,7.361-1.493,0,6.734,7.5.341,18.976.1,31.85,7.51c21,12.1,38.3,40.3,40.625,65.115a34.533,34.533,0,0,1,14.411,4.865C103.914,87.3,118.2,109.04,122.1,129.514a24.444,24.444,0,0,1,8.381,3.1c13.544,7.8,24.525,26.771,24.525,42.373,0,5.63-1.447,10.03-3.911,13.014,3.673-2.822,5.906-7.94,5.906-14.952,0-15.6-10.981-34.574-24.525-42.375"
        transform="translate(154 29)" fill="#fffffe"/>
  <g id="Group_351" data-name="Group 351" transform="translate(123 38)">
    <path id="Clip_350-2" data-name="Clip 350"
          d="M19.658,31.241,29.88,35.987l-.52-11.271c-.037-.791-.061-1.576-.061-2.357C29.3,12.3,32.333,5,37.839,1.819S51.174-.348,59.871,4.683C78.582,15.5,94.9,41.837,97.031,64.639l.537,5.746,5.744.443A27.588,27.588,0,0,1,114.8,74.8c14.862,8.593,28.256,28.561,31.849,47.48l.9,4.735,4.756.746a17.656,17.656,0,0,1,6.006,2.271c11.416,6.6,21.059,23.33,21.059,36.53,0,4.941-1.367,8.566-3.753,9.946s-6.2.752-10.473-1.718L29.18,96.177C13.362,87.032,0,63.852,0,45.56c0-7.178,2.113-12.646,5.8-15A9.916,9.916,0,0,1,11.217,29.1a20.382,20.382,0,0,1,8.441,2.138"
          fill="none"/>
    <g id="Group_351-2" data-name="Group 351" clip-path="url(#clip-path-16)">
      <path id="Fill_349" data-name="Fill 349"
            d="M19.658,31.241,29.88,35.987l-.52-11.271c-.037-.791-.061-1.576-.061-2.357C29.3,12.3,32.333,5,37.839,1.819S51.174-.348,59.871,4.683C78.582,15.5,94.9,41.837,97.031,64.639l.537,5.746,5.744.443A27.588,27.588,0,0,1,114.8,74.8c14.862,8.593,28.256,28.561,31.849,47.48l.9,4.735,4.756.746a17.656,17.656,0,0,1,6.006,2.271c11.416,6.6,21.059,23.33,21.059,36.53,0,4.941-1.367,8.566-3.753,9.946s-6.2.752-10.473-1.718L29.18,96.177C13.362,87.032,0,63.852,0,45.56c0-7.178,2.113-12.646,5.8-15A9.916,9.916,0,0,1,11.217,29.1a20.382,20.382,0,0,1,8.441,2.138"
            fill="url(#radial-gradient-13)"/>
    </g>
  </g>
  <path id="Fill_352" data-name="Fill 352" d="M0,5,4,2.988.062,0,0,5" transform="translate(210 149)" fill="#5589bb"/>
  <path id="Fill_353" data-name="Fill 353" d="M0,2.9,3.929,0,4,3,0,2.9" transform="translate(199 103)" fill="#5589bb"/>
  <path id="Fill_354" data-name="Fill 354" d="M3.363,8,7,6.277,0,0,3.363,8" transform="translate(217 134)"
        fill="#5589bb"/>
  <path id="Fill_355" data-name="Fill 355"
        d="M18.39,31.8,1.543,22.016A3.524,3.524,0,0,1,0,19.224L.055,0,20,11.577,19.945,30.8c0,1.045-.7,1.491-1.555.995"
        transform="translate(195 120)" fill="#5589bb"/>
  <path id="Fill_356" data-name="Fill 356"
        d="M18.581.153.342,12.179c-.775.511-.148,2.413,1.026,3.123L20,26.542,38.623,37.784c1.174.708,1.809-.434,1.04-1.875L21.552,1.947C20.77.481,19.368-.365,18.581.153"
        transform="translate(185 104)" fill="#5589bb"/>
  <path id="Fill_357" data-name="Fill 357"
        d="M18.39,32.79,1.542,22.705A3.669,3.669,0,0,1,0,19.825L.055,0,20,11.939l-.056,19.825c0,1.079-.7,1.538-1.554,1.026"
        transform="translate(191 121)" fill="#d4eaf2"/>
  <path id="Fill_358" data-name="Fill 358"
        d="M18.581.15.342,11.859c-.774.5-.15,2.349,1.026,3.04l37.255,21.89c1.177.691,1.81-.421,1.04-1.824L21.551,1.9C20.77.467,19.368-.356,18.581.15"
        transform="translate(181 105)" fill="#d4eaf2"/>
</svg>
