<?xml version="1.0" encoding="UTF-8"?>
<svg width="35px" height="27px" viewBox="0 0 35 27" version="1.1" xmlns="http://www.w3.org/2000/svg">
  <title>image</title>
  <g id="Page-2" stroke="none" stroke-width="1" fill="none" fill-rule="evenodd">
    <g id="Cloud-Control-Service" transform="translate(-570.000000, -1003.000000)">
      <g id="section2" transform="translate(1.000000, 799.000000)">
        <g id="card2" transform="translate(522.000000, 159.000000)">
          <g id="image" transform="translate(47.000000, 45.000000)">
            <path
              d="M10.2083333,6 C7.79209375,6 5.83333333,8.014725 5.83333333,10.5 C5.83333333,12.98535 7.79209375,15 10.2083333,15 C12.6245729,15 14.5833333,12.98535 14.5833333,10.5 C14.5833333,8.014725 12.6245729,6 10.2083333,6 Z M8.75,10.5 C8.75,9.67158 9.402925,9 10.2083333,9 C11.0137417,9 11.6666667,9.67158 11.6666667,10.5 C11.6666667,11.32845 11.0137417,12 10.2083333,12 C9.402925,12 8.75,11.32845 8.75,10.5 Z"
              id="Shape" fill="#008FFF"></path>
            <path
              d="M4.375,0 C1.95876042,0 0,2.014725 0,4.5 L0,22.5 C0,24.98535 1.95876042,27 4.375,27 L30.625,27 C33.0413125,27 35,24.98535 35,22.5 L35,4.5 C35,2.014725 33.0413125,0 30.625,0 L4.375,0 Z M30.625,3 L4.375,3 C3.56959167,3 2.91666667,3.67158 2.91666667,4.5 L2.91666667,22.5 C2.91666667,23.32845 3.56959167,24 4.375,24 L10.6658708,24 L20.69725,13.6821 C22.4058333,11.9247 25.1759375,11.9247 26.884375,13.6821 L32.0833333,19.02945 L32.0833333,4.5 C32.0833333,3.67158 31.4304375,3 30.625,3 Z M30.625,24 L14.7907083,24 L22.759625,15.8034 C23.3291042,15.2175 24.2525208,15.2175 24.822,15.8034 L31.9477083,23.13255 C31.7156875,23.64495 31.2106667,24 30.625,24 Z"
              id="Shape" fill="#707070"></path>
          </g>
        </g>
      </g>
    </g>
  </g>
</svg>
